version 1
nodes
0 "root" -1
end
skeleton
time 0
0 0 0 0 0 0 0
end
triangles
lowpoly_metal.001
0  0.275592 0.971338 3.426242  0.952172 0.000000 0.305564  0.035136 0.723826 0
0  0.366539 0.862350 3.142843  0.952172 0.000000 0.305564  0.035088 0.723700 0
0  0.366539 0.971338 3.142843  0.952172 0.000000 0.305564  0.035137 0.723700 0
lowpoly_metal.001
0  0.000229 -0.423886 3.142843  0.000000 0.000000 1.000000  0.035960 0.720467 0
0  -0.278120 -0.535733 3.142843  0.000000 0.000000 1.000000  0.035938 0.720417 0
0  0.000229 -0.535733 3.142843  0.000000 0.000000 1.000000  0.035960 0.720417 0
lowpoly_metal.001
0  -0.366080 0.862350 3.142843  -0.995148 0.000000 0.098394  0.034417 0.720082 0
0  -0.465086 0.971338 2.141509  -0.995148 0.000000 0.098394  0.034466 0.720527 0
0  -0.465086 0.862350 2.141509  -0.995148 0.000000 0.098394  0.034417 0.720527 0
lowpoly_metal.001
0  0.000229 -0.535732 2.141508  0.000000 -1.000000 -0.000001  0.035691 0.723254 0
0  0.278578 -0.535733 3.142843  0.000000 -1.000000 -0.000001  0.035714 0.723700 0
0  0.000229 -0.535733 3.142843  0.000000 -1.000000 -0.000001  0.035691 0.723700 0
lowpoly_metal.001
0  -0.521642 1.028174 -6.888681  -1.000000 -0.000000 0.000000  0.062698 0.795637 0
0  -0.521642 -0.478926 -6.957934  -1.000000 -0.000000 0.000000  0.062729 0.796308 0
0  -0.521642 -0.478926 -6.888682  -1.000000 -0.000000 0.000000  0.062698 0.796308 0
lowpoly_metal.001
0  -0.465086 0.971340 -5.989102  0.000000 1.000000 0.000000  0.034801 0.723495 0
0  -0.377125 0.971340 -6.897046  0.000000 1.000000 0.000000  0.035144 0.723826 0
0  -0.465086 0.971340 -6.897046  0.000000 1.000000 0.000000  0.035137 0.723826 0
lowpoly_metal.001
0  0.000229 0.169010 -6.897048  0.000000 0.000003 -1.000000  0.035759 0.721712 0
0  -0.377125 0.862351 -6.897046  0.000000 0.000003 -1.000000  0.035729 0.721403 0
0  0.000229 0.862351 -6.897046  0.000000 0.000003 -1.000000  0.035759 0.721403 0
lowpoly_metal.001
0  0.000229 0.862351 -6.897046  0.000000 0.000000 -1.000000  0.035759 0.721403 0
0  -0.377125 0.971340 -6.897046  0.000000 0.000000 -1.000000  0.035729 0.721354 0
0  0.000229 0.971340 -6.897046  0.000000 0.000000 -1.000000  0.035759 0.721354 0
lowpoly_metal.001
0  0.278578 -0.535733 3.142843  0.000000 0.000000 1.000000  0.035983 0.720417 0
0  0.000229 -0.423886 3.142843  0.000000 0.000000 1.000000  0.035960 0.720467 0
0  0.000229 -0.535733 3.142843  0.000000 0.000000 1.000000  0.035960 0.720417 0
lowpoly_metal.001
0  0.377584 -0.535732 -5.081161  0.000000 -1.000000 0.000000  0.035093 0.720618 0
0  0.000229 -0.535732 2.141508  0.000000 -1.000000 0.000000  0.035691 0.723254 0
0  0.000229 -0.535732 -5.081161  0.000000 -1.000000 0.000000  0.035691 0.720618 0
lowpoly_metal.001
0  0.468592 0.141872 -1.775928  0.000000 0.000000 -1.000000  0.036071 0.721842 0
0  -0.468133 0.364840 -1.775928  0.000000 0.000000 -1.000000  0.035995 0.721742 0
0  0.468592 0.364840 -1.775928  0.000000 0.000000 -1.000000  0.036071 0.721742 0
lowpoly_metal.001
0  0.522101 1.028174 -6.957933  0.000000 1.000000 0.000000  0.062959 0.795729 0
0  -0.521642 1.028174 -6.888681  0.000000 1.000000 0.000000  0.062990 0.795645 0
0  0.522101 1.028174 -6.888681  0.000000 1.000000 0.000000  0.062990 0.795729 0
lowpoly_metal.001
0  0.377584 -0.423886 -6.897048  0.000000 0.000000 -1.000000  0.035790 0.721976 0
0  0.000229 -0.535732 -6.897048  0.000000 0.000000 -1.000000  0.035759 0.722025 0
0  0.000229 -0.423886 -6.897048  0.000000 0.000000 -1.000000  0.035759 0.721976 0
lowpoly_metal.001
0  -0.465086 -0.423886 -5.081161  -1.000000 0.000000 0.000000  0.033845 0.723163 0
0  -0.465086 -0.081815 2.141508  -1.000000 0.000000 0.000000  0.033997 0.720527 0
0  -0.465086 0.118618 -5.081161  -1.000000 0.000000 0.000000  0.034086 0.723164 0
lowpoly_metal.001
0  -0.278120 -0.114275 3.142843  0.000000 0.000000 1.000000  0.035938 0.720605 0
0  -0.366080 -0.423886 3.142843  0.000000 0.000000 1.000000  0.035930 0.720467 0
0  -0.278120 -0.423886 3.142843  0.000000 0.000000 1.000000  0.035938 0.720467 0
lowpoly_metal.001
0  -0.278120 -0.114275 3.142843  0.990765 0.000000 -0.135591  0.035338 0.720715 0
0  -0.377125 -0.423886 2.419405  0.990765 0.000000 -0.135591  0.035661 0.720577 0
0  -0.377125 0.169009 2.419405  0.990765 0.000000 -0.135591  0.035661 0.720841 0
lowpoly_metal.001
0  0.465544 0.862351 -6.897046  0.000000 0.000003 -1.000000  0.035797 0.721403 0
0  0.377584 0.169010 -6.897048  0.000000 0.000003 -1.000000  0.035790 0.721712 0
0  0.377584 0.862351 -6.897046  0.000000 0.000003 -1.000000  0.035790 0.721403 0
lowpoly_metal.001
0  0.465544 0.971340 -6.897046  0.000000 0.000000 -1.000000  0.035797 0.721354 0
0  0.377584 0.862351 -6.897046  0.000000 0.000000 -1.000000  0.035790 0.721403 0
0  0.377584 0.971340 -6.897046  0.000000 0.000000 -1.000000  0.035790 0.721354 0
lowpoly_metal.001
0  -0.409718 -0.590850 -6.957934  -0.707109 -0.707105 0.000000  0.062729 0.796358 0
0  -0.521642 -0.478926 -6.888682  -0.707109 -0.707105 0.000000  0.062698 0.796308 0
0  -0.521642 -0.478926 -6.957934  -0.707109 -0.707105 0.000000  0.062729 0.796308 0
lowpoly_metal.001
0  -0.468133 -0.006032 -1.659281  0.000000 -1.000000 0.000000  0.035283 0.722090 0
0  0.546798 -0.006032 -1.554243  0.000000 -1.000000 0.000000  0.035236 0.722172 0
0  -0.546339 -0.006032 -1.554243  0.000000 -1.000000 0.000000  0.035236 0.722084 0
lowpoly_metal.001
0  0.546798 0.512744 -1.501487  0.000000 1.000000 0.000000  0.035353 0.722172 0
0  -0.546339 0.512744 -1.554243  0.000000 1.000000 0.000000  0.035329 0.722084 0
0  -0.546339 0.512744 -1.501487  0.000000 1.000000 0.000000  0.035353 0.722084 0
lowpoly_metal.001
0  0.522102 -0.478926 -6.888682  1.000000 0.000000 0.000000  0.063020 0.795122 0
0  0.522101 1.028174 -6.957933  1.000000 0.000000 0.000000  0.063051 0.795793 0
0  0.522101 1.028174 -6.888681  1.000000 0.000000 0.000000  0.063020 0.795793 0
lowpoly_metal.001
0  0.522102 -0.478926 -6.957934  0.000000 0.000000 -1.000000  0.062875 0.795743 0
0  -0.409718 -0.590850 -6.957934  0.000000 0.000000 -1.000000  0.062799 0.795793 0
0  -0.521642 -0.478926 -6.957934  0.000000 0.000000 -1.000000  0.062790 0.795743 0
lowpoly_metal.001
0  -0.187173 0.862350 3.426242  0.000000 0.000000 1.000000  0.036081 0.720285 0
0  -0.275134 0.122746 3.426242  0.000000 0.000000 1.000000  0.036073 0.719955 0
0  -0.187173 0.122746 3.426242  0.000000 0.000000 1.000000  0.036081 0.719955 0
lowpoly_metal.001
0  0.522102 -0.478926 -6.957934  0.000000 0.000001 -1.000000  0.062875 0.795743 0
0  -0.521642 1.028174 -6.957933  0.000000 0.000001 -1.000000  0.062790 0.795072 0
0  0.522101 1.028174 -6.957933  0.000000 0.000001 -1.000000  0.062875 0.795072 0
lowpoly_metal.001
0  -0.546339 -0.006032 -1.501487  -1.000000 0.000000 0.000000  0.035930 0.720417 0
0  -0.546339 0.512744 -1.501487  -1.000000 0.000000 0.000000  0.035930 0.720186 0
0  -0.546339 0.354528 -1.679024  -1.000000 0.000000 0.000000  0.036010 0.720257 0
lowpoly_plastic
0  0.000229 -0.535732 -5.081161  0.000000 0.000000 1.000000  0.864337 0.762884 0
0  -0.404197 -0.591464 -5.081161  0.000000 0.000000 1.000000  0.863362 0.764172 0
0  0.000229 -0.597691 -5.081161  0.000000 0.000000 1.000000  0.864337 0.762884 0
lowpoly_metal.001
0  0.468592 0.512744 -1.659281  0.000000 1.000000 0.000000  0.035283 0.722166 0
0  -0.546339 0.512744 -1.554243  0.000000 1.000000 0.000000  0.035329 0.722084 0
0  0.546798 0.512744 -1.554243  0.000000 1.000000 0.000000  0.035329 0.722172 0
lowpoly_metal.001
0  0.546798 0.512744 -1.501487  1.000000 0.000000 0.000000  0.035930 0.720186 0
0  0.546798 -0.006032 -1.501487  1.000000 0.000000 0.000000  0.035930 0.719956 0
0  0.546798 0.152185 -1.679024  1.000000 0.000000 0.000000  0.036010 0.720026 0
lowpoly_metal.001
0  -0.546339 0.354528 -1.679024  -0.725633 0.426099 -0.540274  0.036010 0.720257 0
0  -0.468133 0.512744 -1.659281  -0.725633 0.426099 -0.540274  0.036001 0.720187 0
0  -0.468133 0.364840 -1.775928  -0.725633 0.426099 -0.540274  0.036053 0.720252 0
lowpoly_metal.001
0  0.546798 0.354528 -1.679024  0.725635 0.426098 -0.540272  0.036010 0.720116 0
0  0.468592 0.512744 -1.659281  0.725635 0.426098 -0.540272  0.036001 0.720186 0
0  0.546798 0.512744 -1.554243  0.725635 0.426098 -0.540272  0.035954 0.720186 0
lowpoly_metal.001
0  -0.546339 0.152185 -1.679024  -0.725634 -0.426098 -0.540274  0.036010 0.720347 0
0  -0.468133 -0.006032 -1.659281  -0.725634 -0.426098 -0.540274  0.036001 0.720417 0
0  -0.546339 -0.006032 -1.554243  -0.725634 -0.426098 -0.540274  0.035954 0.720417 0
lowpoly_metal.001
0  -0.546339 0.354528 -1.679024  -0.778189 0.000000 -0.628030  0.036010 0.720257 0
0  -0.468133 0.141872 -1.775928  -0.778189 0.000000 -0.628030  0.036053 0.720352 0
0  -0.546339 0.152185 -1.679024  -0.778189 0.000000 -0.628030  0.036010 0.720347 0
lowpoly_metal.001
0  -0.366080 0.971338 3.142843  0.000000 1.000000 0.000000  0.035145 0.720082 0
0  -0.377125 0.971338 2.141509  0.000000 1.000000 0.000000  0.035144 0.720527 0
0  -0.465086 0.971338 2.141509  0.000000 1.000000 0.000000  0.035137 0.720527 0
lowpoly_metal.001
0  0.000229 -0.423886 -6.897048  0.000000 0.000000 -1.000000  0.035759 0.721976 0
0  -0.377125 0.169010 -6.897048  0.000000 0.000000 -1.000000  0.035729 0.721712 0
0  0.000229 0.169010 -6.897048  0.000000 0.000000 -1.000000  0.035759 0.721712 0
lowpoly_metal.001
0  -0.377125 -0.423886 -6.897048  0.000000 0.000000 -1.000000  0.035729 0.721976 0
0  -0.377125 -0.535732 -6.897048  0.000000 0.000000 -1.000000  0.035729 0.722025 0
0  -0.465086 -0.423886 -6.897048  0.000000 0.000000 -1.000000  0.035722 0.721976 0
lowpoly_metal.001
0  -0.468133 0.364840 -1.775928  0.000000 0.619256 -0.785189  0.035995 0.721742 0
0  0.468592 0.512744 -1.659281  0.000000 0.619256 -0.785189  0.036071 0.721676 0
0  0.468592 0.364840 -1.775928  0.000000 0.619256 -0.785189  0.036071 0.721742 0
lowpoly_metal.001
0  -0.278120 -0.423886 3.142843  0.000000 0.000000 1.000000  0.035938 0.720467 0
0  -0.366080 -0.423886 3.142843  0.000000 0.000000 1.000000  0.035930 0.720467 0
0  -0.278120 -0.535733 3.142843  0.000000 0.000000 1.000000  0.035938 0.720417 0
lowpoly_metal.001
0  0.465545 -0.423886 2.141508  0.995148 0.000000 0.098394  0.034516 0.723254 0
0  0.366539 -0.114275 3.142843  0.995148 0.000000 0.098394  0.034654 0.723700 0
0  0.366539 -0.423886 3.142843  0.995148 0.000000 0.098394  0.034516 0.723700 0
lowpoly_metal.001
0  -0.366080 0.862350 3.142843  -0.952172 -0.000001 0.305563  0.034417 0.720082 0
0  -0.275134 0.122746 3.426242  -0.952172 -0.000001 0.305563  0.034088 0.719955 0
0  -0.275134 0.862350 3.426242  -0.952172 -0.000001 0.305563  0.034417 0.719955 0
lowpoly_metal.001
0  0.000229 -0.535732 2.141508  0.000000 -1.000000 -0.000001  0.035691 0.723254 0
0  -0.278120 -0.535733 3.142843  0.000000 -1.000000 -0.000001  0.035669 0.723700 0
0  -0.377125 -0.535732 2.141508  0.000000 -1.000000 -0.000001  0.035661 0.723254 0
lowpoly_metal.001
0  -0.377125 0.971340 -5.989102  0.000000 1.000000 0.000000  0.035144 0.723495 0
0  0.000229 0.971340 -6.897046  0.000000 1.000000 0.000000  0.035175 0.723826 0
0  -0.377125 0.971340 -6.897046  0.000000 1.000000 0.000000  0.035144 0.723826 0
lowpoly_metal.001
0  -0.377125 -0.423886 -6.897048  0.000000 0.000000 -1.000000  0.035729 0.721976 0
0  -0.465086 0.169010 -6.897048  0.000000 0.000000 -1.000000  0.035722 0.721712 0
0  -0.377125 0.169010 -6.897048  0.000000 0.000000 -1.000000  0.035729 0.721712 0
lowpoly_metal.001
0  0.377584 0.971338 2.141509  0.000000 1.000000 0.000000  0.035205 0.720527 0
0  0.366539 0.971338 3.142843  0.000000 1.000000 0.000000  0.035204 0.720082 0
0  0.465544 0.971338 2.141509  0.000000 1.000000 0.000000  0.035212 0.720527 0
lowpoly_metal.001
0  0.546798 0.152185 -1.679024  0.778189 0.000000 -0.628030  0.036010 0.720026 0
0  0.468592 0.364840 -1.775928  0.778189 0.000000 -0.628030  0.036053 0.720120 0
0  0.546798 0.354528 -1.679024  0.778189 0.000000 -0.628030  0.036010 0.720116 0
lowpoly_metal.001
0  -0.377125 0.862351 -6.897046  0.000000 0.000000 -1.000000  0.035729 0.721403 0
0  -0.465086 0.971340 -6.897046  0.000000 0.000000 -1.000000  0.035722 0.721354 0
0  -0.377125 0.971340 -6.897046  0.000000 0.000000 -1.000000  0.035729 0.721354 0
lowpoly_metal.001
0  0.546798 0.512744 -1.501487  0.000000 0.000000 1.000000  0.036071 0.720864 0
0  -0.546339 -0.006032 -1.501487  0.000000 0.000000 1.000000  0.035983 0.720633 0
0  0.546798 -0.006032 -1.501487  0.000000 0.000000 1.000000  0.036071 0.720633 0
lowpoly_metal.001
0  0.000229 0.971338 2.141509  0.000000 1.000000 -0.000000  0.035175 0.720527 0
0  0.278578 0.971338 3.142843  0.000000 1.000000 -0.000000  0.035197 0.720082 0
0  0.377584 0.971338 2.141509  0.000000 1.000000 -0.000000  0.035205 0.720527 0
lowpoly_metal.001
0  -0.278120 0.862350 3.142843  0.990765 0.000000 -0.135591  0.035338 0.721149 0
0  -0.377125 0.169009 2.419405  0.990765 0.000000 -0.135591  0.035661 0.720841 0
0  -0.377125 0.862350 2.419405  0.990765 0.000000 -0.135591  0.035661 0.721149 0
lowpoly_metal.001
0  0.000229 0.862350 2.419405  0.000000 -1.000000 0.000000  0.036026 0.721676 0
0  0.278578 0.862350 3.142843  0.000000 -1.000000 0.000000  0.036003 0.721354 0
0  0.000229 0.862350 3.142843  0.000000 -1.000000 0.000000  0.036026 0.721354 0
lowpoly_metal.001
0  0.278578 -0.114275 3.142843  -0.990765 -0.000001 -0.135591  0.035338 0.720439 0
0  0.377584 -0.423886 2.419405  -0.990765 -0.000001 -0.135591  0.035661 0.720577 0
0  0.278578 -0.423886 3.142843  -0.990765 -0.000001 -0.135591  0.035338 0.720577 0
lowpoly_metal.001
0  0.000229 -0.535732 -6.897048  0.000000 0.000000 -1.000000  0.035759 0.722025 0
0  -0.377125 -0.423886 -6.897048  0.000000 0.000000 -1.000000  0.035729 0.721976 0
0  0.000229 -0.423886 -6.897048  0.000000 0.000000 -1.000000  0.035759 0.721976 0
lowpoly_metal.001
0  -0.187173 0.971338 3.426242  0.000000 0.000000 1.000000  0.036081 0.720333 0
0  -0.275134 0.862350 3.426242  0.000000 0.000000 1.000000  0.036073 0.720285 0
0  -0.187173 0.862350 3.426242  0.000000 0.000000 1.000000  0.036081 0.720285 0
lowpoly_metal.001
0  -0.465086 0.862351 -5.989103  -1.000000 0.000000 0.000000  0.034417 0.723495 0
0  -0.465086 0.971340 -6.897046  -1.000000 0.000000 0.000000  0.034465 0.723826 0
0  -0.465086 0.862351 -6.897046  -1.000000 0.000000 0.000000  0.034417 0.723826 0
lowpoly_metal.001
0  -0.377125 0.169010 -6.897048  0.000000 0.000003 -1.000000  0.035729 0.721712 0
0  -0.465086 0.862351 -6.897046  0.000000 0.000003 -1.000000  0.035722 0.721403 0
0  -0.377125 0.862351 -6.897046  0.000000 0.000003 -1.000000  0.035729 0.721403 0
lowpoly_metal.001
0  0.465545 -0.081815 2.141508  0.995148 0.000000 0.098394  0.034668 0.723254 0
0  0.366539 0.862350 3.142843  0.995148 0.000000 0.098394  0.035088 0.723700 0
0  0.366539 -0.114275 3.142843  0.995148 0.000000 0.098394  0.034654 0.723700 0
lowpoly_metal.001
0  -0.278120 0.971338 3.142843  0.952172 0.000000 -0.305563  0.035338 0.721198 0
0  -0.187173 0.862350 3.426242  0.952172 0.000000 -0.305563  0.035212 0.721150 0
0  -0.278120 0.862350 3.142843  0.952172 0.000000 -0.305563  0.035338 0.721149 0
lowpoly_metal.001
0  0.000229 0.862350 2.419405  0.000000 -0.000001 1.000000  0.035921 0.721206 0
0  -0.377125 0.169009 2.419405  0.000000 -0.000001 1.000000  0.035891 0.720897 0
0  0.000229 0.169009 2.419405  0.000000 -0.000001 1.000000  0.035921 0.720897 0
lowpoly_metal.001
0  0.377584 0.169010 -6.897048  0.000000 0.000000 -1.000000  0.035790 0.721712 0
0  0.000229 -0.423886 -6.897048  0.000000 0.000000 -1.000000  0.035759 0.721976 0
0  0.000229 0.169010 -6.897048  0.000000 0.000000 -1.000000  0.035759 0.721712 0
lowpoly_metal.001
0  0.278578 0.971338 3.142843  0.000000 1.000000 0.000000  0.035197 0.720082 0
0  0.275592 0.971338 3.426242  0.000000 1.000000 0.000000  0.035197 0.719955 0
0  0.366539 0.971338 3.142843  0.000000 1.000000 0.000000  0.035204 0.720082 0
lowpoly_metal.001
0  -0.366080 0.862350 3.142843  -0.952172 0.000000 0.305563  0.034417 0.720082 0
0  -0.275134 0.971338 3.426242  -0.952172 0.000000 0.305563  0.034465 0.719955 0
0  -0.366080 0.971338 3.142843  -0.952172 0.000000 0.305563  0.034465 0.720082 0
lowpoly_metal.001
0  -0.465086 0.118618 -5.081161  -1.000000 0.000000 0.000000  0.034086 0.723164 0
0  -0.465086 0.862350 2.141509  -1.000000 0.000000 0.000000  0.034417 0.720527 0
0  -0.465086 0.862351 -5.081160  -1.000000 0.000000 0.000000  0.034417 0.723164 0
lowpoly_metal.001
0  0.278578 -0.423886 3.142843  0.000000 1.000000 0.000000  0.036036 0.720864 0
0  0.000229 -0.423886 2.419405  0.000000 1.000000 0.000000  0.036013 0.721187 0
0  0.000229 -0.423886 3.142843  0.000000 1.000000 0.000000  0.036013 0.720864 0
lowpoly_metal.001
0  0.000229 -0.535732 -5.989104  0.000000 -1.000000 0.000000  0.035691 0.720287 0
0  -0.377125 -0.535732 -6.897048  0.000000 -1.000000 0.000000  0.035661 0.719955 0
0  0.000229 -0.535732 -6.897048  0.000000 -1.000000 0.000000  0.035691 0.719955 0
lowpoly_metal.001
0  0.000229 0.169009 2.419405  0.000000 0.000000 1.000000  0.035921 0.720897 0
0  -0.377125 -0.423886 2.419405  0.000000 0.000000 1.000000  0.035891 0.720633 0
0  0.000229 -0.423886 2.419405  0.000000 0.000000 1.000000  0.035921 0.720633 0
lowpoly_metal.001
0  0.465544 0.118618 -5.081161  1.000000 0.000000 -0.000000  0.034757 0.720618 0
0  0.465544 0.862350 2.141509  1.000000 0.000000 -0.000000  0.035088 0.723254 0
0  0.465545 -0.081815 2.141508  1.000000 0.000000 -0.000000  0.034668 0.723254 0
lowpoly_metal.001
0  0.377584 0.169009 2.419405  0.000000 -0.000001 1.000000  0.035952 0.720897 0
0  0.000229 0.862350 2.419405  0.000000 -0.000001 1.000000  0.035921 0.721206 0
0  0.000229 0.169009 2.419405  0.000000 -0.000001 1.000000  0.035921 0.720897 0
lowpoly_metal.001
0  0.377584 -0.423886 -6.897048  0.000000 0.000000 -1.000000  0.035790 0.721976 0
0  0.465545 -0.423886 -6.897048  0.000000 0.000000 -1.000000  0.035797 0.721976 0
0  0.377584 -0.535732 -6.897048  0.000000 0.000000 -1.000000  0.035790 0.722025 0
lowpoly_metal.001
0  0.000229 0.971338 3.142843  0.000000 0.000000 1.000000  0.035913 0.721339 0
0  -0.278120 0.862350 3.142843  0.000000 0.000000 1.000000  0.035891 0.721291 0
0  0.000229 0.862350 3.142843  0.000000 0.000000 1.000000  0.035913 0.721291 0
lowpoly_metal.001
0  0.278578 -0.535733 3.142843  0.000000 0.000000 1.000000  0.035983 0.720417 0
0  0.366539 -0.423886 3.142843  0.000000 0.000000 1.000000  0.035990 0.720467 0
0  0.278578 -0.423886 3.142843  0.000000 0.000000 1.000000  0.035983 0.720467 0
lowpoly_metal.001
0  -0.278120 -0.114275 3.142843  0.000000 -0.767082 0.641549  0.035795 0.722026 0
0  -0.275134 0.122746 3.426242  0.000000 -0.767082 0.641549  0.035787 0.722152 0
0  -0.366080 -0.114275 3.142843  0.000000 -0.767082 0.641549  0.035787 0.722025 0
lowpoly_metal.001
0  0.366539 0.862350 3.142843  0.952171 0.000000 0.305565  0.035088 0.723700 0
0  0.275592 0.122746 3.426242  0.952171 0.000000 0.305565  0.034759 0.723826 0
0  0.366539 -0.114275 3.142843  0.952171 0.000000 0.305565  0.034654 0.723700 0
lowpoly_metal.001
0  0.366539 -0.423886 3.142843  0.783676 -0.616318 0.077485  0.034516 0.723700 0
0  0.377584 -0.535732 2.141508  0.783676 -0.616318 0.077485  0.034466 0.723254 0
0  0.465545 -0.423886 2.141508  0.783676 -0.616318 0.077485  0.034516 0.723254 0
lowpoly_metal.001
0  0.522102 -0.478926 -6.888682  0.000000 -0.000001 1.000000  0.062959 0.795122 0
0  -0.521642 1.028174 -6.888681  0.000000 -0.000001 1.000000  0.062875 0.795793 0
0  -0.521642 -0.478926 -6.888682  0.000000 -0.000001 1.000000  0.062875 0.795122 0
lowpoly_metal.001
0  -0.278120 0.862350 3.142843  0.000000 -1.000000 0.000000  0.036048 0.721354 0
0  0.000229 0.862350 2.419405  0.000000 -1.000000 0.000000  0.036026 0.721676 0
0  0.000229 0.862350 3.142843  0.000000 -1.000000 0.000000  0.036026 0.721354 0
lowpoly_metal.001
0  0.468592 0.141872 -1.775928  0.000000 -0.619257 -0.785189  0.036071 0.721842 0
0  -0.468133 -0.006032 -1.659281  0.000000 -0.619257 -0.785189  0.035995 0.721907 0
0  -0.468133 0.141872 -1.775928  0.000000 -0.619257 -0.785189  0.035995 0.721842 0
lowpoly_metal.001
0  -0.278120 0.971338 3.142843  0.000000 1.000000 0.000000  0.035152 0.720082 0
0  0.000229 0.971338 2.141509  0.000000 1.000000 0.000000  0.035175 0.720527 0
0  -0.377125 0.971338 2.141509  0.000000 1.000000 0.000000  0.035144 0.720527 0
lowpoly_metal.001
0  0.278578 0.862350 3.142843  0.000000 0.000000 1.000000  0.035936 0.721291 0
0  0.000229 0.971338 3.142843  0.000000 0.000000 1.000000  0.035913 0.721339 0
0  0.000229 0.862350 3.142843  0.000000 0.000000 1.000000  0.035913 0.721291 0
lowpoly_metal.001
0  0.377584 -0.423886 2.419405  0.000000 0.000000 1.000000  0.035952 0.720633 0
0  0.000229 0.169009 2.419405  0.000000 0.000000 1.000000  0.035921 0.720897 0
0  0.000229 -0.423886 2.419405  0.000000 0.000000 1.000000  0.035921 0.720633 0
lowpoly_metal.001
0  0.278578 0.862350 3.142843  -0.990765 -0.000000 -0.135591  0.035338 0.720004 0
0  0.377584 0.169009 2.419405  -0.990765 -0.000000 -0.135591  0.035661 0.720313 0
0  0.278578 -0.114275 3.142843  -0.990765 -0.000000 -0.135591  0.035338 0.720439 0
lowpoly_metal.001
0  -0.278120 -0.423886 3.142843  0.000000 1.000000 0.000000  0.035991 0.720864 0
0  0.000229 -0.423886 2.419405  0.000000 1.000000 0.000000  0.036013 0.721187 0
0  -0.377125 -0.423886 2.419405  0.000000 1.000000 0.000000  0.035983 0.721187 0
lowpoly_metal.001
0  -0.465086 -0.423886 -5.081161  -0.786039 -0.618177 -0.000000  0.033845 0.723163 0
0  -0.377125 -0.535732 2.141508  -0.786039 -0.618177 -0.000000  0.033795 0.720527 0
0  -0.465086 -0.423886 2.141508  -0.786039 -0.618177 -0.000000  0.033845 0.720527 0
lowpoly_metal.001
0  0.275592 0.122746 3.426242  0.000000 -0.767082 0.641549  0.036018 0.721187 0
0  0.278578 -0.114275 3.142843  0.000000 -0.767082 0.641549  0.036025 0.721313 0
0  0.366539 -0.114275 3.142843  0.000000 -0.767082 0.641549  0.036018 0.721313 0
lowpoly_metal.001
0  0.377584 0.862351 -6.897046  0.000000 0.000003 -1.000000  0.035790 0.721403 0
0  0.000229 0.169010 -6.897048  0.000000 0.000003 -1.000000  0.035759 0.721712 0
0  0.000229 0.862351 -6.897046  0.000000 0.000003 -1.000000  0.035759 0.721403 0
lowpoly_metal.001
0  0.275592 0.862350 3.426242  0.000000 0.000000 1.000000  0.036083 0.720747 0
0  0.187631 0.971338 3.426242  0.000000 0.000000 1.000000  0.036076 0.720795 0
0  0.187631 0.862350 3.426242  0.000000 0.000000 1.000000  0.036076 0.720747 0
lowpoly_metal.001
0  0.522102 -0.478926 -6.957934  0.707109 -0.707105 0.000000  0.063051 0.795122 0
0  0.410178 -0.590850 -6.888682  0.707109 -0.707105 0.000000  0.063020 0.795072 0
0  0.410178 -0.590850 -6.957934  0.707109 -0.707105 0.000000  0.063051 0.795072 0
lowpoly_metal.001
0  -0.465086 -0.423886 2.141508  -0.995148 0.000000 0.098394  0.033845 0.720527 0
0  -0.366080 -0.114275 3.142843  -0.995148 0.000000 0.098394  0.033982 0.720081 0
0  -0.465086 -0.081815 2.141508  -0.995148 0.000000 0.098394  0.033997 0.720527 0
lowpoly_metal.001
0  0.366539 -0.423886 3.142843  0.000000 0.000000 1.000000  0.035990 0.720467 0
0  0.278578 -0.114275 3.142843  0.000000 0.000000 1.000000  0.035983 0.720605 0
0  0.278578 -0.423886 3.142843  0.000000 0.000000 1.000000  0.035983 0.720467 0
lowpoly_metal.001
0  0.187632 0.122746 3.426242  -0.952172 -0.000000 -0.305564  0.035212 0.720333 0
0  0.278578 0.862350 3.142843  -0.952172 -0.000000 -0.305564  0.035338 0.720004 0
0  0.278578 -0.114275 3.142843  -0.952172 -0.000000 -0.305564  0.035338 0.720439 0
lowpoly_metal.001
0  0.377584 0.971340 -6.897046  0.000000 0.000000 -1.000000  0.035790 0.721354 0
0  0.000229 0.862351 -6.897046  0.000000 0.000000 -1.000000  0.035759 0.721403 0
0  0.000229 0.971340 -6.897046  0.000000 0.000000 -1.000000  0.035759 0.721354 0
lowpoly_metal.001
0  -0.278120 0.862350 3.142843  0.952171 0.000000 -0.305565  0.035338 0.721149 0
0  -0.187173 0.122746 3.426242  0.952171 0.000000 -0.305565  0.035212 0.720820 0
0  -0.278120 -0.114275 3.142843  0.952171 0.000000 -0.305565  0.035338 0.720715 0
lowpoly_metal.001
0  -0.465086 -0.081815 2.141508  -0.995148 0.000000 0.098394  0.033997 0.720527 0
0  -0.366080 0.862350 3.142843  -0.995148 0.000000 0.098394  0.034417 0.720082 0
0  -0.465086 0.862350 2.141509  -0.995148 0.000000 0.098394  0.034417 0.720527 0
lowpoly_metal.001
0  -0.366080 -0.423886 3.142843  -0.783678 -0.616315 0.077485  0.033845 0.720081 0
0  -0.377125 -0.535732 2.141508  -0.783678 -0.616315 0.077485  0.033795 0.720527 0
0  -0.278120 -0.535733 3.142843  -0.783678 -0.616315 0.077485  0.033795 0.720081 0
lowpoly_metal.001
0  0.465545 -0.423886 -5.081161  1.000000 0.000000 0.000000  0.034516 0.720618 0
0  0.465545 -0.081815 2.141508  1.000000 0.000000 0.000000  0.034668 0.723254 0
0  0.465545 -0.423886 2.141508  1.000000 0.000000 0.000000  0.034516 0.723254 0
lowpoly_metal.001
0  0.275592 0.122746 3.426242  0.000000 0.000000 1.000000  0.036083 0.720417 0
0  0.187631 0.862350 3.426242  0.000000 0.000000 1.000000  0.036076 0.720747 0
0  0.187632 0.122746 3.426242  0.000000 0.000000 1.000000  0.036076 0.720417 0
lowpoly_metal.001
0  0.000229 0.971340 -5.081160  0.000000 1.000000 0.000000  0.035175 0.723164 0
0  0.377584 0.971338 2.141509  0.000000 1.000000 0.000000  0.035205 0.720527 0
0  0.377584 0.971340 -5.081160  0.000000 1.000000 0.000000  0.035205 0.723164 0
lowpoly_metal.001
0  0.377584 0.971340 -5.081160  0.000000 1.000000 0.000000  0.035205 0.723164 0
0  0.465544 0.971338 2.141509  0.000000 1.000000 0.000000  0.035212 0.720527 0
0  0.465544 0.971340 -5.081160  0.000000 1.000000 0.000000  0.035174 0.721891 0
lowpoly_metal.001
0  0.187631 0.862350 3.426242  -0.952172 0.000000 -0.305564  0.035212 0.720004 0
0  0.278578 0.971338 3.142843  -0.952172 0.000000 -0.305564  0.035338 0.719956 0
0  0.278578 0.862350 3.142843  -0.952172 0.000000 -0.305564  0.035338 0.720004 0
lowpoly_metal.001
0  0.546798 0.152185 -1.679024  0.725636 -0.426098 -0.540272  0.036010 0.720026 0
0  0.468592 -0.006032 -1.659281  0.725636 -0.426098 -0.540272  0.036001 0.719955 0
0  0.468592 0.141872 -1.775928  0.725636 -0.426098 -0.540272  0.036053 0.720021 0
lowpoly_metal.001
0  0.465544 0.169010 -6.897048  0.000000 0.000000 -1.000000  0.035797 0.721712 0
0  0.377584 -0.423886 -6.897048  0.000000 0.000000 -1.000000  0.035790 0.721976 0
0  0.377584 0.169010 -6.897048  0.000000 0.000000 -1.000000  0.035790 0.721712 0
lowpoly_metal.001
0  0.465545 -0.423886 -5.989104  0.786040 -0.618175 0.000000  0.034516 0.720287 0
0  0.377584 -0.535732 -6.897048  0.786040 -0.618175 0.000000  0.034466 0.719955 0
0  0.465545 -0.423886 -6.897048  0.786040 -0.618175 0.000000  0.034516 0.719955 0
lowpoly_metal.001
0  -0.278120 0.971338 3.142843  0.000000 1.000000 0.000000  0.035152 0.720082 0
0  -0.275134 0.971338 3.426242  0.000000 1.000000 0.000000  0.035152 0.719955 0
0  -0.187173 0.971338 3.426242  0.000000 1.000000 0.000000  0.035159 0.719955 0
lowpoly_metal.001
0  -0.409718 -0.590850 -6.888682  0.000000 -1.000000 0.000000  0.062421 0.796522 0
0  0.410178 -0.590850 -6.957934  0.000000 -1.000000 0.000000  0.062452 0.796589 0
0  0.410178 -0.590850 -6.888682  0.000000 -1.000000 0.000000  0.062421 0.796589 0
lowpoly_metal.001
0  0.465544 0.971338 2.141509  0.995148 0.000000 0.098394  0.035137 0.723254 0
0  0.366539 0.862350 3.142843  0.995148 0.000000 0.098394  0.035088 0.723700 0
0  0.465544 0.862350 2.141509  0.995148 0.000000 0.098394  0.035088 0.723254 0
lowpoly_metal.001
0  0.465545 -0.423886 -6.897048  1.000000 0.000000 0.000000  0.034516 0.719955 0
0  0.465544 0.143814 -5.989104  1.000000 0.000000 0.000000  0.034768 0.720287 0
0  0.465545 -0.423886 -5.989104  1.000000 0.000000 0.000000  0.034516 0.720287 0
lowpoly_plastic
0  -0.508897 1.015151 -5.081159  -0.136427 0.990650 0.000000  0.889061 0.763498 0
0  -0.377125 1.033298 -5.989102  -0.136427 0.990650 0.000000  0.889405 0.763829 0
0  -0.508897 1.015151 -5.989102  -0.136427 0.990650 0.000000  0.889062 0.763829 0
lowpoly_plastic
0  -0.527044 0.862351 -5.081160  -0.993021 0.117934 0.000000  0.888678 0.763498 0
0  -0.508897 1.015151 -5.989102  -0.993021 0.117934 0.000000  0.889062 0.763829 0
0  -0.527044 0.862351 -5.989103  -0.993021 0.117934 0.000000  0.888678 0.763829 0
lowpoly_plastic
0  0.377584 1.033298 -5.989103  0.136427 0.990650 0.000000  0.889466 0.763829 0
0  0.509356 1.015151 -5.081160  0.136427 0.990650 0.000000  0.889435 0.762225 0
0  0.509356 1.015151 -5.989103  0.136427 0.990650 0.000000  0.889435 0.762225 0
lowpoly_plastic
0  0.404656 -0.591464 -5.989104  0.015395 -0.999881 0.000000  0.889354 0.760621 0
0  0.000229 -0.597691 -5.081161  0.015395 -0.999881 0.000000  0.889952 0.760952 0
0  0.000229 -0.597691 -5.989104  0.015395 -0.999881 0.000000  0.889952 0.760621 0
lowpoly_plastic
0  0.000229 -0.535732 -5.989104  -0.000001 0.000000 -1.000000  0.864337 0.762552 0
0  0.404656 -0.591464 -5.989104  -0.000001 0.000000 -1.000000  0.863740 0.762552 0
0  0.000229 -0.597691 -5.989104  -0.000001 0.000000 -1.000000  0.864337 0.762552 0
lowpoly_plastic
0  0.465544 0.118618 -5.081161  0.000000 0.000000 1.000000  0.863403 0.762884 0
0  0.524095 -0.444151 -5.081161  0.000000 0.000000 1.000000  0.863162 0.762884 0
0  0.527503 0.118618 -5.081161  0.000000 0.000000 1.000000  0.863403 0.762884 0
lowpoly_plastic
0  -0.465086 0.143814 -5.989104  0.000000 0.000000 -1.000000  0.862743 0.765760 0
0  -0.523637 -0.444151 -5.989104  0.000000 0.000000 -1.000000  0.862491 0.765760 0
0  -0.527044 0.143814 -5.989104  0.000000 0.000000 -1.000000  0.862743 0.765760 0
lowpoly_metal.001
0  0.000229 0.971340 -6.897046  0.000000 1.000000 0.000000  0.035175 0.723826 0
0  0.377584 0.971340 -5.989103  0.000000 1.000000 0.000000  0.035205 0.723495 0
0  0.377584 0.971340 -6.897046  0.000000 1.000000 0.000000  0.035205 0.723826 0
lowpoly_plastic
0  -0.377125 -0.535732 -5.081161  0.000000 0.000000 1.000000  0.863362 0.764172 0
0  -0.523637 -0.444151 -5.081161  0.000000 0.000000 1.000000  0.862491 0.765429 0
0  -0.404197 -0.591464 -5.081161  0.000000 0.000000 1.000000  0.863362 0.764172 0
lowpoly_plastic
0  0.524095 -0.444151 -5.081161  0.776764 -0.629792 0.000000  0.888777 0.760952 0
0  0.404656 -0.591464 -5.989104  0.776764 -0.629792 0.000000  0.889354 0.760621 0
0  0.524095 -0.444151 -5.989104  0.776764 -0.629792 0.000000  0.888777 0.760621 0
lowpoly_plastic
0  -0.465086 0.862351 -5.081160  0.000000 -0.000006 1.000000  0.863063 0.765429 0
0  -0.508897 1.015151 -5.081159  0.000000 -0.000006 1.000000  0.863447 0.765429 0
0  -0.527044 0.862351 -5.081160  0.000000 -0.000006 1.000000  0.863063 0.765429 0
lowpoly_plastic
0  0.465544 0.143814 -5.989104  0.000000 0.000001 -1.000000  0.863414 0.762552 0
0  0.527503 0.862351 -5.989103  0.000000 0.000001 -1.000000  0.863734 0.762552 0
0  0.527503 0.143814 -5.989104  0.000000 0.000001 -1.000000  0.863414 0.762552 0
lowpoly_plastic
0  -0.377125 1.033298 -5.081159  0.000000 1.000000 0.000000  0.889405 0.763498 0
0  0.000229 1.033298 -5.989103  0.000000 1.000000 0.000000  0.889435 0.763829 0
0  -0.377125 1.033298 -5.989102  0.000000 1.000000 0.000000  0.889405 0.763829 0
lowpoly_metal.001
0  -0.377125 0.971338 2.141509  0.000000 1.000000 0.000000  0.035144 0.720527 0
0  0.000229 0.971340 -5.081160  0.000000 1.000000 0.000000  0.035175 0.723164 0
0  -0.377125 0.971340 -5.081159  0.000000 1.000000 0.000000  0.035144 0.723164 0
lowpoly_plastic
0  -0.523637 -0.444151 -5.989104  -0.776764 -0.629792 0.000000  0.888105 0.763829 0
0  -0.404197 -0.591464 -5.081161  -0.776764 -0.629792 0.000000  0.888977 0.762241 0
0  -0.523637 -0.444151 -5.081161  -0.776764 -0.629792 0.000000  0.888105 0.763497 0
lowpoly_plastic
0  0.509356 1.015151 -5.989103  0.993021 0.117935 0.000000  0.889435 0.762225 0
0  0.527503 0.862351 -5.081160  0.993021 0.117935 0.000000  0.889349 0.760952 0
0  0.527503 0.862351 -5.989103  0.993021 0.117935 0.000000  0.889349 0.760621 0
lowpoly_metal.001
0  -0.465086 0.862350 2.141509  -1.000000 -0.000001 0.000000  0.034417 0.720527 0
0  -0.465086 0.971340 -5.081159  -1.000000 -0.000001 0.000000  0.034801 0.723164 0
0  -0.465086 0.862351 -5.081160  -1.000000 -0.000001 0.000000  0.034417 0.723164 0
lowpoly_plastic
0  0.377584 0.971340 -5.081160  0.000000 0.000000 1.000000  0.863851 0.765429 0
0  0.509356 1.015151 -5.081160  0.000000 0.000000 1.000000  0.863820 0.764156 0
0  0.377584 1.033298 -5.081160  0.000000 0.000000 1.000000  0.863851 0.765429 0
lowpoly_plastic
0  -0.527044 0.143814 -5.989104  -1.000000 0.000000 0.000000  0.888358 0.763829 0
0  -0.527044 0.862351 -5.081160  -1.000000 0.000000 0.000000  0.888678 0.763498 0
0  -0.527044 0.862351 -5.989103  -1.000000 0.000000 0.000000  0.888678 0.763829 0
lowpoly_metal.001
0  -0.465086 -0.423886 -6.897048  -1.000000 0.000000 0.000000  0.033845 0.723826 0
0  -0.465086 0.143814 -5.989104  -1.000000 0.000000 0.000000  0.034097 0.723495 0
0  -0.465086 0.169010 -6.897048  -1.000000 0.000000 0.000000  0.034108 0.723826 0
lowpoly_plastic
0  -0.465086 0.971340 -5.989102  0.000000 0.000006 -1.000000  0.863447 0.765760 0
0  -0.527044 0.862351 -5.989103  0.000000 0.000006 -1.000000  0.863063 0.765760 0
0  -0.508897 1.015151 -5.989102  0.000000 0.000006 -1.000000  0.863447 0.765760 0
lowpoly_plastic
0  -0.377125 0.971340 -5.989102  0.000002 0.000000 -1.000000  0.863790 0.765760 0
0  -0.508897 1.015151 -5.989102  0.000002 0.000000 -1.000000  0.863447 0.765760 0
0  -0.377125 1.033298 -5.989102  0.000002 0.000000 -1.000000  0.863790 0.765760 0
lowpoly_metal.001
0  -0.465086 0.169010 -6.897048  -1.000000 0.000000 0.000000  0.034108 0.723826 0
0  -0.465086 0.862351 -5.989103  -1.000000 0.000000 0.000000  0.034417 0.723495 0
0  -0.465086 0.862351 -6.897046  -1.000000 0.000000 0.000000  0.034417 0.723826 0
lowpoly_plastic
0  0.377584 0.971340 -5.989103  0.000000 0.000000 -1.000000  0.863851 0.765760 0
0  0.000229 1.033298 -5.989103  0.000000 0.000000 -1.000000  0.863821 0.765760 0
0  0.377584 1.033298 -5.989103  0.000000 0.000000 -1.000000  0.863851 0.765760 0
lowpoly_plastic
0  0.465545 -0.423886 -5.989104  0.000000 0.000000 -1.000000  0.863162 0.762552 0
0  0.527503 0.143814 -5.989104  0.000000 0.000000 -1.000000  0.863414 0.762552 0
0  0.524095 -0.444151 -5.989104  0.000000 0.000000 -1.000000  0.863162 0.762552 0
lowpoly_metal.001
0  0.377584 -0.535732 -6.897048  0.000000 -1.000000 0.000000  0.035722 0.719955 0
0  0.000229 -0.535732 -5.989104  0.000000 -1.000000 0.000000  0.035691 0.720287 0
0  0.000229 -0.535732 -6.897048  0.000000 -1.000000 0.000000  0.035691 0.719955 0
lowpoly_plastic
0  -0.523637 -0.444151 -5.989104  -0.999983 -0.005795 -0.000161  0.888105 0.763829 0
0  -0.527044 0.118618 -5.081161  -0.999983 -0.005795 -0.000161  0.888347 0.763497 0
0  -0.527044 0.143814 -5.989104  -0.999983 -0.005795 -0.000161  0.888358 0.763829 0
lowpoly_plastic
0  -0.377125 0.971340 -5.081159  0.000003 0.000000 1.000000  0.863790 0.765429 0
0  0.000229 1.033298 -5.081160  0.000003 0.000000 1.000000  0.863821 0.765429 0
0  -0.377125 1.033298 -5.081159  0.000003 0.000000 1.000000  0.863790 0.765429 0
lowpoly_plastic
0  0.527503 0.143814 -5.989104  1.000000 -0.000000 0.000000  0.889029 0.760621 0
0  0.527503 0.862351 -5.081160  1.000000 -0.000000 0.000000  0.889349 0.760952 0
0  0.527503 0.118618 -5.081161  1.000000 -0.000000 0.000000  0.889018 0.760952 0
lowpoly_plastic
0  0.000229 0.971340 -5.989103  -0.000003 0.000000 -1.000000  0.863821 0.765760 0
0  -0.377125 1.033298 -5.989102  -0.000003 0.000000 -1.000000  0.863790 0.765760 0
0  0.000229 1.033298 -5.989103  -0.000003 0.000000 -1.000000  0.863821 0.765760 0
lowpoly_plastic
0  0.377584 -0.535732 -5.989104  0.000011 0.000000 -1.000000  0.863740 0.762552 0
0  0.524095 -0.444151 -5.989104  0.000011 0.000000 -1.000000  0.863162 0.762552 0
0  0.404656 -0.591464 -5.989104  0.000011 0.000000 -1.000000  0.863740 0.762552 0
lowpoly_metal.001
0  0.465544 0.971340 -6.897046  1.000000 0.000000 0.000000  0.035137 0.719955 0
0  0.465544 0.862351 -5.989103  1.000000 0.000000 0.000000  0.035088 0.720287 0
0  0.465544 0.862351 -6.897046  1.000000 0.000000 0.000000  0.035088 0.719955 0
lowpoly_plastic
0  -0.465086 0.971340 -5.081159  0.000000 0.000000 1.000000  0.863447 0.765429 0
0  -0.377125 1.033298 -5.081159  0.000000 0.000000 1.000000  0.863790 0.765429 0
0  -0.508897 1.015151 -5.081159  0.000000 0.000000 1.000000  0.863447 0.765429 0
lowpoly_plastic
0  0.465545 -0.423886 -5.081161  0.000000 0.000000 1.000000  0.863162 0.762884 0
0  0.404656 -0.591464 -5.081161  0.000000 0.000000 1.000000  0.863739 0.762884 0
0  0.524095 -0.444151 -5.081161  0.000000 0.000000 1.000000  0.863162 0.762884 0
lowpoly_metal.001
0  -0.409718 -0.590850 -6.957934  0.000000 0.000000 -1.000000  0.062799 0.795793 0
0  0.522102 -0.478926 -6.957934  0.000000 0.000000 -1.000000  0.062875 0.795743 0
0  0.410178 -0.590850 -6.957934  0.000000 0.000000 -1.000000  0.062866 0.795793 0
lowpoly_metal.001
0  0.465544 0.971340 -5.081160  1.000000 0.000000 0.000000  0.035174 0.721891 0
0  0.465544 0.862350 2.141509  1.000000 0.000000 0.000000  0.035088 0.723254 0
0  0.465544 0.862351 -5.081160  1.000000 0.000000 0.000000  0.035088 0.720618 0
lowpoly_metal.001
0  0.522102 -0.478926 -6.888682  0.000000 0.000000 1.000000  0.062959 0.795122 0
0  -0.409718 -0.590850 -6.888682  0.000000 0.000000 1.000000  0.062884 0.795072 0
0  0.410178 -0.590850 -6.888682  0.000000 0.000000 1.000000  0.062950 0.795072 0
lowpoly_metal.001
0  -0.409718 -0.590850 -6.888682  0.000000 0.000000 1.000000  0.062884 0.795072 0
0  0.522102 -0.478926 -6.888682  0.000000 0.000000 1.000000  0.062959 0.795122 0
0  -0.521642 -0.478926 -6.888682  0.000000 0.000000 1.000000  0.062875 0.795122 0
lowpoly_metal.001
0  -0.546339 0.354528 -1.679024  -1.000000 0.000000 0.000000  0.036010 0.720257 0
0  -0.546339 0.152185 -1.679024  -1.000000 0.000000 0.000000  0.036010 0.720347 0
0  -0.546339 -0.006032 -1.501487  -1.000000 0.000000 0.000000  0.035930 0.720417 0
lowpoly_metal.001
0  -0.546339 -0.006032 -1.554243  -1.000000 0.000000 0.000000  0.035954 0.720417 0
0  -0.546339 -0.006032 -1.501487  -1.000000 0.000000 0.000000  0.035930 0.720417 0
0  -0.546339 0.152185 -1.679024  -1.000000 0.000000 0.000000  0.036010 0.720347 0
lowpoly_metal.001
0  -0.546339 0.512744 -1.501487  -1.000000 0.000000 0.000000  0.035930 0.720186 0
0  -0.546339 0.512744 -1.554243  -1.000000 0.000000 0.000000  0.035954 0.720186 0
0  -0.546339 0.354528 -1.679024  -1.000000 0.000000 0.000000  0.036010 0.720257 0
lowpoly_metal.001
0  0.465545 -0.423886 2.141508  0.786040 -0.618175 -0.000000  0.034516 0.723254 0
0  0.377584 -0.535732 -5.081161  0.786040 -0.618175 -0.000000  0.035093 0.720618 0
0  0.465545 -0.423886 -5.081161  0.786040 -0.618175 -0.000000  0.034516 0.720618 0
lowpoly_plastic
0  0.465544 0.971340 -5.081160  -0.000016 0.000000 1.000000  0.863820 0.764156 0
0  0.527503 0.862351 -5.081160  -0.000016 0.000000 1.000000  0.863734 0.762884 0
0  0.509356 1.015151 -5.081160  -0.000016 0.000000 1.000000  0.863820 0.764156 0
lowpoly_metal.001
0  0.546798 0.152185 -1.679024  1.000000 0.000000 0.000000  0.036010 0.720026 0
0  0.546798 0.354528 -1.679024  1.000000 0.000000 0.000000  0.036010 0.720116 0
0  0.546798 0.512744 -1.501487  1.000000 0.000000 0.000000  0.035930 0.720186 0
lowpoly_metal.001
0  0.546798 0.512744 -1.554243  1.000000 0.000000 0.000000  0.035954 0.720186 0
0  0.546798 0.512744 -1.501487  1.000000 0.000000 0.000000  0.035930 0.720186 0
0  0.546798 0.354528 -1.679024  1.000000 0.000000 0.000000  0.036010 0.720116 0
lowpoly_metal.001
0  0.546798 -0.006032 -1.501487  1.000000 0.000000 0.000000  0.035930 0.719956 0
0  0.546798 -0.006032 -1.554243  1.000000 0.000000 0.000000  0.035954 0.719956 0
0  0.546798 0.152185 -1.679024  1.000000 0.000000 0.000000  0.036010 0.720026 0
lowpoly_plastic
0  0.524095 -0.444151 -5.989104  0.999982 -0.006055 0.000000  0.888777 0.760621 0
0  0.527503 0.118618 -5.081161  0.999982 -0.006055 0.000000  0.889018 0.760952 0
0  0.524095 -0.444151 -5.081161  0.999982 -0.006055 0.000000  0.888777 0.760952 0
lowpoly_plastic
0  -0.465086 0.862351 -5.989103  0.000000 0.000001 -1.000000  0.863063 0.765760 0
0  -0.527044 0.143814 -5.989104  0.000000 0.000001 -1.000000  0.862743 0.765760 0
0  -0.527044 0.862351 -5.989103  0.000000 0.000001 -1.000000  0.863063 0.765760 0
lowpoly_metal.001
0  0.465544 0.169010 -6.897048  1.000000 0.000000 0.000000  0.034780 0.719955 0
0  0.465544 0.862351 -5.989103  1.000000 0.000000 0.000000  0.035088 0.720287 0
0  0.465544 0.143814 -5.989104  1.000000 0.000000 0.000000  0.034768 0.720287 0
lowpoly_metal.001
0  -0.465086 -0.423886 -6.897048  -0.786041 -0.618175 0.000000  0.033845 0.723826 0
0  -0.377125 -0.535732 -5.989104  -0.786041 -0.618175 0.000000  0.034722 0.721899 0
0  -0.465086 -0.423886 -5.989104  -0.786041 -0.618175 0.000000  0.033845 0.723495 0
lowpoly_plastic
0  -0.377125 -0.535732 -5.989104  0.000001 0.000000 -1.000000  0.863368 0.764164 0
0  0.000229 -0.597691 -5.989104  0.000001 0.000000 -1.000000  0.864337 0.762552 0
0  -0.404197 -0.591464 -5.989104  0.000001 0.000000 -1.000000  0.863368 0.764164 0
lowpoly_metal.001
0  -0.465086 0.971338 2.141509  0.000000 1.000000 0.000000  0.035137 0.720527 0
0  -0.377125 0.971340 -5.081159  0.000000 1.000000 0.000000  0.035144 0.723164 0
0  -0.465086 0.971340 -5.081159  0.000000 1.000000 0.000000  0.034801 0.723164 0
lowpoly_plastic
0  0.465544 0.862351 -5.989103  0.000000 0.000000 -1.000000  0.863734 0.762552 0
0  0.509356 1.015151 -5.989103  0.000000 0.000000 -1.000000  0.863820 0.764156 0
0  0.527503 0.862351 -5.989103  0.000000 0.000000 -1.000000  0.863734 0.762552 0
lowpoly_metal.001
0  0.000229 -0.535732 2.141508  0.000000 -1.000000 0.000000  0.035691 0.723254 0
0  -0.377125 -0.535732 -5.081161  0.000000 -1.000000 0.000000  0.034716 0.721907 0
0  0.000229 -0.535732 -5.081161  0.000000 -1.000000 0.000000  0.035691 0.720618 0
lowpoly_metal.001
0  0.377584 0.971340 -6.897046  0.000000 1.000000 0.000000  0.035205 0.723826 0
0  0.465544 0.971340 -5.989103  0.000000 1.000000 0.000000  0.035174 0.721891 0
0  0.465544 0.971340 -6.897046  0.000000 1.000000 0.000000  0.035212 0.723826 0
lowpoly_plastic
0  0.000229 -0.597691 -5.081161  -0.015395 -0.999881 0.000000  0.889952 0.760952 0
0  -0.404197 -0.591464 -5.989104  -0.015395 -0.999881 0.000000  0.888983 0.762233 0
0  0.000229 -0.597691 -5.989104  -0.015395 -0.999881 0.000000  0.889952 0.760621 0
lowpoly_plastic
0  0.377584 -0.535732 -5.081161  0.000000 0.000000 1.000000  0.863739 0.762884 0
0  0.000229 -0.597691 -5.081161  0.000000 0.000000 1.000000  0.864337 0.762884 0
0  0.404656 -0.591464 -5.081161  0.000000 0.000000 1.000000  0.863739 0.762884 0
lowpoly_plastic
0  0.000229 1.033298 -5.989103  0.000000 1.000000 0.000000  0.889435 0.763829 0
0  0.377584 1.033298 -5.081160  0.000000 1.000000 0.000000  0.889466 0.763498 0
0  0.377584 1.033298 -5.989103  0.000000 1.000000 0.000000  0.889466 0.763829 0
lowpoly_plastic
0  0.465544 0.862351 -5.081160  0.000000 -0.000001 1.000000  0.863734 0.762884 0
0  0.527503 0.118618 -5.081161  0.000000 -0.000001 1.000000  0.863403 0.762884 0
0  0.527503 0.862351 -5.081160  0.000000 -0.000001 1.000000  0.863734 0.762884 0
lowpoly_plastic
0  0.000229 0.971340 -5.081160  0.000000 0.000000 1.000000  0.863821 0.765429 0
0  0.377584 1.033298 -5.081160  0.000000 0.000000 1.000000  0.863851 0.765429 0
0  0.000229 1.033298 -5.081160  0.000000 0.000000 1.000000  0.863821 0.765429 0
lowpoly_plastic
0  -0.465086 -0.423886 -5.989104  0.000011 0.000000 -1.000000  0.862491 0.765760 0
0  -0.404197 -0.591464 -5.989104  0.000011 0.000000 -1.000000  0.863368 0.764164 0
0  -0.523637 -0.444151 -5.989104  0.000011 0.000000 -1.000000  0.862491 0.765760 0
lowpoly_plastic
0  0.465544 0.971340 -5.989103  0.000000 0.000000 -1.000000  0.863820 0.764156 0
0  0.377584 1.033298 -5.989103  0.000000 0.000000 -1.000000  0.863851 0.765760 0
0  0.509356 1.015151 -5.989103  0.000000 0.000000 -1.000000  0.863820 0.764156 0
lowpoly_plastic
0  -0.465086 -0.423886 -5.081161  0.000000 0.000000 1.000000  0.862491 0.765429 0
0  -0.527044 0.118618 -5.081161  0.000000 0.000000 1.000000  0.862732 0.765429 0
0  -0.523637 -0.444151 -5.081161  0.000000 0.000000 1.000000  0.862491 0.765429 0
lowpoly_plastic
0  -0.465086 0.118618 -5.081161  0.000000 -0.000001 1.000000  0.862732 0.765429 0
0  -0.527044 0.862351 -5.081160  0.000000 -0.000001 1.000000  0.863063 0.765429 0
0  -0.527044 0.118618 -5.081161  0.000000 -0.000001 1.000000  0.862732 0.765429 0
lowpoly_metal.001
0  -0.546339 -0.006032 -1.501487  0.000000 -1.000000 0.000000  0.035212 0.722084 0
0  0.546798 -0.006032 -1.554243  0.000000 -1.000000 0.000000  0.035236 0.722172 0
0  0.546798 -0.006032 -1.501487  0.000000 -1.000000 0.000000  0.035212 0.722172 0
lowpoly_metal.001
0  0.275592 0.971338 3.426242  0.952172 0.000000 0.305564  0.035136 0.723826 0
0  0.275592 0.862350 3.426242  0.952172 0.000000 0.305564  0.035088 0.723826 0
0  0.366539 0.862350 3.142843  0.952172 0.000000 0.305564  0.035088 0.723700 0
lowpoly_metal.001
0  0.000229 -0.423886 3.142843  0.000000 0.000000 1.000000  0.035960 0.720467 0
0  -0.278120 -0.423886 3.142843  0.000000 0.000000 1.000000  0.035938 0.720467 0
0  -0.278120 -0.535733 3.142843  0.000000 0.000000 1.000000  0.035938 0.720417 0
lowpoly_metal.001
0  -0.366080 0.862350 3.142843  -0.995147 0.000000 0.098394  0.034417 0.720082 0
0  -0.366080 0.971338 3.142843  -0.995147 0.000000 0.098394  0.034465 0.720082 0
0  -0.465086 0.971338 2.141509  -0.995147 0.000000 0.098394  0.034466 0.720527 0
lowpoly_metal.001
0  0.000229 -0.535732 2.141508  0.000000 -1.000000 -0.000001  0.035691 0.723254 0
0  0.377584 -0.535732 2.141508  0.000000 -1.000000 -0.000001  0.035722 0.723254 0
0  0.278578 -0.535733 3.142843  0.000000 -1.000000 -0.000001  0.035714 0.723700 0
lowpoly_metal.001
0  -0.521642 1.028174 -6.888681  -1.000000 -0.000000 0.000000  0.062698 0.795637 0
0  -0.521642 1.028174 -6.957933  -1.000000 -0.000000 0.000000  0.062729 0.795637 0
0  -0.521642 -0.478926 -6.957934  -1.000000 -0.000000 0.000000  0.062729 0.796308 0
lowpoly_metal.001
0  -0.465086 0.971340 -5.989102  0.000000 1.000000 0.000000  0.034801 0.723495 0
0  -0.377125 0.971340 -5.989102  0.000000 1.000000 0.000000  0.035144 0.723495 0
0  -0.377125 0.971340 -6.897046  0.000000 1.000000 0.000000  0.035144 0.723826 0
lowpoly_metal.001
0  0.000229 0.169010 -6.897048  0.000000 0.000003 -1.000000  0.035759 0.721712 0
0  -0.377125 0.169010 -6.897048  0.000000 0.000003 -1.000000  0.035729 0.721712 0
0  -0.377125 0.862351 -6.897046  0.000000 0.000003 -1.000000  0.035729 0.721403 0
lowpoly_metal.001
0  0.000229 0.862351 -6.897046  0.000000 0.000000 -1.000000  0.035759 0.721403 0
0  -0.377125 0.862351 -6.897046  0.000000 0.000000 -1.000000  0.035729 0.721403 0
0  -0.377125 0.971340 -6.897046  0.000000 0.000000 -1.000000  0.035729 0.721354 0
lowpoly_metal.001
0  0.278578 -0.535733 3.142843  0.000000 0.000000 1.000000  0.035983 0.720417 0
0  0.278578 -0.423886 3.142843  0.000000 0.000000 1.000000  0.035983 0.720467 0
0  0.000229 -0.423886 3.142843  0.000000 0.000000 1.000000  0.035960 0.720467 0
lowpoly_metal.001
0  0.377584 -0.535732 -5.081161  0.000000 -1.000000 0.000000  0.035093 0.720618 0
0  0.377584 -0.535732 2.141508  0.000000 -1.000000 0.000000  0.035722 0.723254 0
0  0.000229 -0.535732 2.141508  0.000000 -1.000000 0.000000  0.035691 0.723254 0
lowpoly_metal.001
0  0.468592 0.141872 -1.775928  0.000000 0.000000 -1.000000  0.036071 0.721842 0
0  -0.468133 0.141872 -1.775928  0.000000 0.000000 -1.000000  0.035995 0.721842 0
0  -0.468133 0.364840 -1.775928  0.000000 0.000000 -1.000000  0.035995 0.721742 0
lowpoly_metal.001
0  0.522101 1.028174 -6.957933  0.000000 1.000000 0.000000  0.062959 0.795729 0
0  -0.521642 1.028174 -6.957933  0.000000 1.000000 0.000000  0.062959 0.795645 0
0  -0.521642 1.028174 -6.888681  0.000000 1.000000 0.000000  0.062990 0.795645 0
lowpoly_metal.001
0  0.377584 -0.423886 -6.897048  0.000000 0.000000 -1.000000  0.035790 0.721976 0
0  0.377584 -0.535732 -6.897048  0.000000 0.000000 -1.000000  0.035790 0.722025 0
0  0.000229 -0.535732 -6.897048  0.000000 0.000000 -1.000000  0.035759 0.722025 0
lowpoly_metal.001
0  -0.465086 -0.423886 -5.081161  -1.000000 0.000000 0.000000  0.033845 0.723163 0
0  -0.465086 -0.423886 2.141508  -1.000000 0.000000 0.000000  0.033845 0.720527 0
0  -0.465086 -0.081815 2.141508  -1.000000 0.000000 0.000000  0.033997 0.720527 0
lowpoly_metal.001
0  -0.278120 -0.114275 3.142843  0.000000 0.000000 1.000000  0.035938 0.720605 0
0  -0.366080 -0.114275 3.142843  0.000000 0.000000 1.000000  0.035930 0.720605 0
0  -0.366080 -0.423886 3.142843  0.000000 0.000000 1.000000  0.035930 0.720467 0
lowpoly_metal.001
0  -0.278120 -0.114275 3.142843  0.990765 0.000000 -0.135591  0.035338 0.720715 0
0  -0.278120 -0.423886 3.142843  0.990765 0.000000 -0.135591  0.035338 0.720577 0
0  -0.377125 -0.423886 2.419405  0.990765 0.000000 -0.135591  0.035661 0.720577 0
lowpoly_metal.001
0  0.465544 0.862351 -6.897046  0.000000 0.000003 -1.000000  0.035797 0.721403 0
0  0.465544 0.169010 -6.897048  0.000000 0.000003 -1.000000  0.035797 0.721712 0
0  0.377584 0.169010 -6.897048  0.000000 0.000003 -1.000000  0.035790 0.721712 0
lowpoly_metal.001
0  0.465544 0.971340 -6.897046  0.000000 0.000000 -1.000000  0.035797 0.721354 0
0  0.465544 0.862351 -6.897046  0.000000 0.000000 -1.000000  0.035797 0.721403 0
0  0.377584 0.862351 -6.897046  0.000000 0.000000 -1.000000  0.035790 0.721403 0
lowpoly_metal.001
0  -0.409718 -0.590850 -6.957934  -0.707109 -0.707105 0.000000  0.062729 0.796358 0
0  -0.409718 -0.590850 -6.888682  -0.707109 -0.707105 0.000000  0.062698 0.796358 0
0  -0.521642 -0.478926 -6.888682  -0.707109 -0.707105 0.000000  0.062698 0.796308 0
lowpoly_metal.001
0  -0.468133 -0.006032 -1.659281  0.000000 -1.000000 -0.000000  0.035283 0.722090 0
0  0.468592 -0.006032 -1.659281  0.000000 -1.000000 -0.000000  0.035283 0.722166 0
0  0.546798 -0.006032 -1.554243  0.000000 -1.000000 -0.000000  0.035236 0.722172 0
lowpoly_metal.001
0  0.546798 0.512744 -1.501487  0.000000 1.000000 0.000000  0.035353 0.722172 0
0  0.546798 0.512744 -1.554243  0.000000 1.000000 0.000000  0.035329 0.722172 0
0  -0.546339 0.512744 -1.554243  0.000000 1.000000 0.000000  0.035329 0.722084 0
lowpoly_metal.001
0  0.522102 -0.478926 -6.888682  1.000000 0.000000 0.000000  0.063020 0.795122 0
0  0.522102 -0.478926 -6.957934  1.000000 0.000000 0.000000  0.063051 0.795122 0
0  0.522101 1.028174 -6.957933  1.000000 0.000000 0.000000  0.063051 0.795793 0
lowpoly_metal.001
0  -0.187173 0.862350 3.426242  0.000000 0.000000 1.000000  0.036081 0.720285 0
0  -0.275134 0.862350 3.426242  0.000000 0.000000 1.000000  0.036073 0.720285 0
0  -0.275134 0.122746 3.426242  0.000000 0.000000 1.000000  0.036073 0.719955 0
lowpoly_metal.001
0  0.522102 -0.478926 -6.957934  0.000000 0.000001 -1.000000  0.062875 0.795743 0
0  -0.521642 -0.478926 -6.957934  0.000000 0.000001 -1.000000  0.062790 0.795743 0
0  -0.521642 1.028174 -6.957933  0.000000 0.000001 -1.000000  0.062790 0.795072 0
lowpoly_plastic
0  0.000229 -0.535732 -5.081161  0.000000 0.000000 1.000000  0.864337 0.762884 0
0  -0.377125 -0.535732 -5.081161  0.000000 0.000000 1.000000  0.863362 0.764172 0
0  -0.404197 -0.591464 -5.081161  0.000000 0.000000 1.000000  0.863362 0.764172 0
lowpoly_metal.001
0  0.468592 0.512744 -1.659281  0.000000 1.000000 0.000000  0.035283 0.722166 0
0  -0.468133 0.512744 -1.659281  0.000000 1.000000 0.000000  0.035283 0.722090 0
0  -0.546339 0.512744 -1.554243  0.000000 1.000000 0.000000  0.035329 0.722084 0
lowpoly_metal.001
0  -0.546339 0.354528 -1.679024  -0.725635 0.426098 -0.540272  0.036010 0.720257 0
0  -0.546339 0.512744 -1.554243  -0.725635 0.426098 -0.540272  0.035954 0.720186 0
0  -0.468133 0.512744 -1.659281  -0.725635 0.426098 -0.540272  0.036001 0.720187 0
lowpoly_metal.001
0  0.546798 0.354528 -1.679024  0.725634 0.426099 -0.540274  0.036010 0.720116 0
0  0.468592 0.364840 -1.775928  0.725634 0.426099 -0.540274  0.036053 0.720120 0
0  0.468592 0.512744 -1.659281  0.725634 0.426099 -0.540274  0.036001 0.720186 0
lowpoly_metal.001
0  -0.546339 0.152185 -1.679024  -0.725635 -0.426098 -0.540272  0.036010 0.720347 0
0  -0.468133 0.141872 -1.775928  -0.725635 -0.426098 -0.540272  0.036053 0.720352 0
0  -0.468133 -0.006032 -1.659281  -0.725635 -0.426098 -0.540272  0.036001 0.720417 0
lowpoly_metal.001
0  -0.546339 0.354528 -1.679024  -0.778189 0.000000 -0.628030  0.036010 0.720257 0
0  -0.468133 0.364840 -1.775928  -0.778189 0.000000 -0.628030  0.036053 0.720252 0
0  -0.468133 0.141872 -1.775928  -0.778189 0.000000 -0.628030  0.036053 0.720352 0
lowpoly_metal.001
0  -0.366080 0.971338 3.142843  0.000000 1.000000 0.000000  0.035145 0.720082 0
0  -0.278120 0.971338 3.142843  0.000000 1.000000 0.000000  0.035152 0.720082 0
0  -0.377125 0.971338 2.141509  0.000000 1.000000 0.000000  0.035144 0.720527 0
lowpoly_metal.001
0  0.000229 -0.423886 -6.897048  0.000000 0.000000 -1.000000  0.035759 0.721976 0
0  -0.377125 -0.423886 -6.897048  0.000000 0.000000 -1.000000  0.035729 0.721976 0
0  -0.377125 0.169010 -6.897048  0.000000 0.000000 -1.000000  0.035729 0.721712 0
lowpoly_metal.001
0  -0.468133 0.364840 -1.775928  0.000000 0.619257 -0.785189  0.035995 0.721742 0
0  -0.468133 0.512744 -1.659281  0.000000 0.619257 -0.785189  0.035995 0.721676 0
0  0.468592 0.512744 -1.659281  0.000000 0.619257 -0.785189  0.036071 0.721676 0
lowpoly_metal.001
0  0.465545 -0.423886 2.141508  0.995148 0.000000 0.098394  0.034516 0.723254 0
0  0.465545 -0.081815 2.141508  0.995148 0.000000 0.098394  0.034668 0.723254 0
0  0.366539 -0.114275 3.142843  0.995148 0.000000 0.098394  0.034654 0.723700 0
lowpoly_metal.001
0  -0.366080 0.862350 3.142843  -0.952171 0.000000 0.305565  0.034417 0.720082 0
0  -0.366080 -0.114275 3.142843  -0.952171 0.000000 0.305565  0.033982 0.720081 0
0  -0.275134 0.122746 3.426242  -0.952171 0.000000 0.305565  0.034088 0.719955 0
lowpoly_metal.001
0  0.000229 -0.535732 2.141508  0.000000 -1.000000 -0.000001  0.035691 0.723254 0
0  0.000229 -0.535733 3.142843  0.000000 -1.000000 -0.000001  0.035691 0.723700 0
0  -0.278120 -0.535733 3.142843  0.000000 -1.000000 -0.000001  0.035669 0.723700 0
lowpoly_metal.001
0  -0.377125 0.971340 -5.989102  0.000000 1.000000 0.000000  0.035144 0.723495 0
0  0.000229 0.971340 -5.989103  0.000000 1.000000 0.000000  0.035175 0.723495 0
0  0.000229 0.971340 -6.897046  0.000000 1.000000 0.000000  0.035175 0.723826 0
lowpoly_metal.001
0  -0.377125 -0.423886 -6.897048  0.000000 0.000000 -1.000000  0.035729 0.721976 0
0  -0.465086 -0.423886 -6.897048  0.000000 0.000000 -1.000000  0.035722 0.721976 0
0  -0.465086 0.169010 -6.897048  0.000000 0.000000 -1.000000  0.035722 0.721712 0
lowpoly_metal.001
0  0.377584 0.971338 2.141509  0.000000 1.000000 0.000000  0.035205 0.720527 0
0  0.278578 0.971338 3.142843  0.000000 1.000000 0.000000  0.035197 0.720082 0
0  0.366539 0.971338 3.142843  0.000000 1.000000 0.000000  0.035204 0.720082 0
lowpoly_metal.001
0  0.546798 0.152185 -1.679024  0.778189 0.000000 -0.628030  0.036010 0.720026 0
0  0.468592 0.141872 -1.775928  0.778189 0.000000 -0.628030  0.036053 0.720021 0
0  0.468592 0.364840 -1.775928  0.778189 0.000000 -0.628030  0.036053 0.720120 0
lowpoly_metal.001
0  -0.377125 0.862351 -6.897046  0.000000 0.000000 -1.000000  0.035729 0.721403 0
0  -0.465086 0.862351 -6.897046  0.000000 0.000000 -1.000000  0.035722 0.721403 0
0  -0.465086 0.971340 -6.897046  0.000000 0.000000 -1.000000  0.035722 0.721354 0
lowpoly_metal.001
0  0.546798 0.512744 -1.501487  0.000000 0.000000 1.000000  0.036071 0.720864 0
0  -0.546339 0.512744 -1.501487  0.000000 0.000000 1.000000  0.035983 0.720864 0
0  -0.546339 -0.006032 -1.501487  0.000000 0.000000 1.000000  0.035983 0.720633 0
lowpoly_metal.001
0  0.000229 0.971338 2.141509  0.000000 1.000000 0.000000  0.035175 0.720527 0
0  0.000229 0.971338 3.142843  0.000000 1.000000 0.000000  0.035175 0.720082 0
0  0.278578 0.971338 3.142843  0.000000 1.000000 0.000000  0.035197 0.720082 0
lowpoly_metal.001
0  -0.278120 0.862350 3.142843  0.990765 0.000000 -0.135591  0.035338 0.721149 0
0  -0.278120 -0.114275 3.142843  0.990765 0.000000 -0.135591  0.035338 0.720715 0
0  -0.377125 0.169009 2.419405  0.990765 0.000000 -0.135591  0.035661 0.720841 0
lowpoly_metal.001
0  0.000229 0.862350 2.419405  0.000000 -1.000000 -0.000000  0.036026 0.721676 0
0  0.377584 0.862350 2.419405  0.000000 -1.000000 -0.000000  0.035995 0.721676 0
0  0.278578 0.862350 3.142843  0.000000 -1.000000 -0.000000  0.036003 0.721354 0
lowpoly_metal.001
0  0.278578 -0.114275 3.142843  -0.990765 -0.000000 -0.135591  0.035338 0.720439 0
0  0.377584 0.169009 2.419405  -0.990765 -0.000000 -0.135591  0.035661 0.720313 0
0  0.377584 -0.423886 2.419405  -0.990765 -0.000000 -0.135591  0.035661 0.720577 0
lowpoly_metal.001
0  0.000229 -0.535732 -6.897048  0.000000 0.000000 -1.000000  0.035759 0.722025 0
0  -0.377125 -0.535732 -6.897048  0.000000 0.000000 -1.000000  0.035729 0.722025 0
0  -0.377125 -0.423886 -6.897048  0.000000 0.000000 -1.000000  0.035729 0.721976 0
lowpoly_metal.001
0  -0.187173 0.971338 3.426242  0.000000 0.000000 1.000000  0.036081 0.720333 0
0  -0.275134 0.971338 3.426242  0.000000 0.000000 1.000000  0.036073 0.720333 0
0  -0.275134 0.862350 3.426242  0.000000 0.000000 1.000000  0.036073 0.720285 0
lowpoly_metal.001
0  -0.465086 0.862351 -5.989103  -1.000000 0.000000 0.000000  0.034417 0.723495 0
0  -0.465086 0.971340 -5.989102  -1.000000 0.000000 0.000000  0.034801 0.723495 0
0  -0.465086 0.971340 -6.897046  -1.000000 0.000000 0.000000  0.034465 0.723826 0
lowpoly_metal.001
0  -0.377125 0.169010 -6.897048  0.000000 0.000003 -1.000000  0.035729 0.721712 0
0  -0.465086 0.169010 -6.897048  0.000000 0.000003 -1.000000  0.035722 0.721712 0
0  -0.465086 0.862351 -6.897046  0.000000 0.000003 -1.000000  0.035722 0.721403 0
lowpoly_metal.001
0  0.465545 -0.081815 2.141508  0.995147 0.000000 0.098394  0.034668 0.723254 0
0  0.465544 0.862350 2.141509  0.995147 0.000000 0.098394  0.035088 0.723254 0
0  0.366539 0.862350 3.142843  0.995147 0.000000 0.098394  0.035088 0.723700 0
lowpoly_metal.001
0  -0.278120 0.971338 3.142843  0.952172 0.000000 -0.305563  0.035338 0.721198 0
0  -0.187173 0.971338 3.426242  0.952172 0.000000 -0.305563  0.035212 0.721198 0
0  -0.187173 0.862350 3.426242  0.952172 0.000000 -0.305563  0.035212 0.721150 0
lowpoly_metal.001
0  0.000229 0.862350 2.419405  -0.000001 0.000000 1.000000  0.035921 0.721206 0
0  -0.377125 0.862350 2.419405  -0.000001 0.000000 1.000000  0.035891 0.721206 0
0  -0.377125 0.169009 2.419405  -0.000001 0.000000 1.000000  0.035891 0.720897 0
lowpoly_metal.001
0  0.377584 0.169010 -6.897048  0.000000 0.000000 -1.000000  0.035790 0.721712 0
0  0.377584 -0.423886 -6.897048  0.000000 0.000000 -1.000000  0.035790 0.721976 0
0  0.000229 -0.423886 -6.897048  0.000000 0.000000 -1.000000  0.035759 0.721976 0
lowpoly_metal.001
0  0.278578 0.971338 3.142843  0.000000 1.000000 0.000000  0.035197 0.720082 0
0  0.187631 0.971338 3.426242  0.000000 1.000000 0.000000  0.035190 0.719955 0
0  0.275592 0.971338 3.426242  0.000000 1.000000 0.000000  0.035197 0.719955 0
lowpoly_metal.001
0  -0.366080 0.862350 3.142843  -0.952172 0.000000 0.305563  0.034417 0.720082 0
0  -0.275134 0.862350 3.426242  -0.952172 0.000000 0.305563  0.034417 0.719955 0
0  -0.275134 0.971338 3.426242  -0.952172 0.000000 0.305563  0.034465 0.719955 0
lowpoly_metal.001
0  -0.465086 0.118618 -5.081161  -1.000000 -0.000000 0.000000  0.034086 0.723164 0
0  -0.465086 -0.081815 2.141508  -1.000000 -0.000000 0.000000  0.033997 0.720527 0
0  -0.465086 0.862350 2.141509  -1.000000 -0.000000 0.000000  0.034417 0.720527 0
lowpoly_metal.001
0  0.278578 -0.423886 3.142843  0.000000 1.000000 0.000000  0.036036 0.720864 0
0  0.377584 -0.423886 2.419405  0.000000 1.000000 0.000000  0.036044 0.721187 0
0  0.000229 -0.423886 2.419405  0.000000 1.000000 0.000000  0.036013 0.721187 0
lowpoly_metal.001
0  0.000229 -0.535732 -5.989104  0.000000 -1.000000 0.000000  0.035691 0.720287 0
0  -0.377125 -0.535732 -5.989104  0.000000 -1.000000 0.000000  0.034722 0.721899 0
0  -0.377125 -0.535732 -6.897048  0.000000 -1.000000 0.000000  0.035661 0.719955 0
lowpoly_metal.001
0  0.000229 0.169009 2.419405  0.000000 0.000000 1.000000  0.035921 0.720897 0
0  -0.377125 0.169009 2.419405  0.000000 0.000000 1.000000  0.035891 0.720897 0
0  -0.377125 -0.423886 2.419405  0.000000 0.000000 1.000000  0.035891 0.720633 0
lowpoly_metal.001
0  0.465544 0.118618 -5.081161  1.000000 0.000000 0.000000  0.034757 0.720618 0
0  0.465544 0.862351 -5.081160  1.000000 0.000000 0.000000  0.035088 0.720618 0
0  0.465544 0.862350 2.141509  1.000000 0.000000 0.000000  0.035088 0.723254 0
lowpoly_metal.001
0  0.377584 0.169009 2.419405  0.000000 -0.000001 1.000000  0.035952 0.720897 0
0  0.377584 0.862350 2.419405  0.000000 -0.000001 1.000000  0.035952 0.721206 0
0  0.000229 0.862350 2.419405  0.000000 -0.000001 1.000000  0.035921 0.721206 0
lowpoly_metal.001
0  0.000229 0.971338 3.142843  0.000000 0.000000 1.000000  0.035913 0.721339 0
0  -0.278120 0.971338 3.142843  0.000000 0.000000 1.000000  0.035891 0.721339 0
0  -0.278120 0.862350 3.142843  0.000000 0.000000 1.000000  0.035891 0.721291 0
lowpoly_metal.001
0  -0.278120 -0.114275 3.142843  0.000000 -0.767082 0.641549  0.035795 0.722026 0
0  -0.187173 0.122746 3.426242  0.000000 -0.767082 0.641549  0.035795 0.722152 0
0  -0.275134 0.122746 3.426242  0.000000 -0.767082 0.641549  0.035787 0.722152 0
lowpoly_metal.001
0  0.366539 0.862350 3.142843  0.952172 0.000000 0.305564  0.035088 0.723700 0
0  0.275592 0.862350 3.426242  0.952172 0.000000 0.305564  0.035088 0.723826 0
0  0.275592 0.122746 3.426242  0.952172 0.000000 0.305564  0.034759 0.723826 0
lowpoly_metal.001
0  0.366539 -0.423886 3.142843  0.783679 -0.616315 0.077485  0.034516 0.723700 0
0  0.278578 -0.535733 3.142843  0.783679 -0.616315 0.077485  0.034466 0.723700 0
0  0.377584 -0.535732 2.141508  0.783679 -0.616315 0.077485  0.034466 0.723254 0
lowpoly_metal.001
0  0.522102 -0.478926 -6.888682  0.000000 -0.000001 1.000000  0.062959 0.795122 0
0  0.522101 1.028174 -6.888681  0.000000 -0.000001 1.000000  0.062959 0.795793 0
0  -0.521642 1.028174 -6.888681  0.000000 -0.000001 1.000000  0.062875 0.795793 0
lowpoly_metal.001
0  -0.278120 0.862350 3.142843  0.000000 -1.000000 0.000000  0.036048 0.721354 0
0  -0.377125 0.862350 2.419405  0.000000 -1.000000 0.000000  0.036056 0.721676 0
0  0.000229 0.862350 2.419405  0.000000 -1.000000 0.000000  0.036026 0.721676 0
lowpoly_metal.001
0  0.468592 0.141872 -1.775928  0.000000 -0.619257 -0.785189  0.036071 0.721842 0
0  0.468592 -0.006032 -1.659281  0.000000 -0.619257 -0.785189  0.036071 0.721907 0
0  -0.468133 -0.006032 -1.659281  0.000000 -0.619257 -0.785189  0.035995 0.721907 0
lowpoly_metal.001
0  -0.278120 0.971338 3.142843  0.000000 1.000000 0.000000  0.035152 0.720082 0
0  0.000229 0.971338 3.142843  0.000000 1.000000 0.000000  0.035175 0.720082 0
0  0.000229 0.971338 2.141509  0.000000 1.000000 0.000000  0.035175 0.720527 0
lowpoly_metal.001
0  0.278578 0.862350 3.142843  0.000000 0.000000 1.000000  0.035936 0.721291 0
0  0.278578 0.971338 3.142843  0.000000 0.000000 1.000000  0.035936 0.721339 0
0  0.000229 0.971338 3.142843  0.000000 0.000000 1.000000  0.035913 0.721339 0
lowpoly_metal.001
0  0.377584 -0.423886 2.419405  0.000000 0.000000 1.000000  0.035952 0.720633 0
0  0.377584 0.169009 2.419405  0.000000 0.000000 1.000000  0.035952 0.720897 0
0  0.000229 0.169009 2.419405  0.000000 0.000000 1.000000  0.035921 0.720897 0
lowpoly_metal.001
0  0.278578 0.862350 3.142843  -0.990765 0.000000 -0.135591  0.035338 0.720004 0
0  0.377584 0.862350 2.419405  -0.990765 0.000000 -0.135591  0.035661 0.720004 0
0  0.377584 0.169009 2.419405  -0.990765 0.000000 -0.135591  0.035661 0.720313 0
lowpoly_metal.001
0  -0.278120 -0.423886 3.142843  0.000000 1.000000 0.000000  0.035991 0.720864 0
0  0.000229 -0.423886 3.142843  0.000000 1.000000 0.000000  0.036013 0.720864 0
0  0.000229 -0.423886 2.419405  0.000000 1.000000 0.000000  0.036013 0.721187 0
lowpoly_metal.001
0  -0.465086 -0.423886 -5.081161  -0.786040 -0.618175 0.000000  0.033845 0.723163 0
0  -0.377125 -0.535732 -5.081161  -0.786040 -0.618175 0.000000  0.034716 0.721907 0
0  -0.377125 -0.535732 2.141508  -0.786040 -0.618175 0.000000  0.033795 0.720527 0
lowpoly_metal.001
0  0.275592 0.122746 3.426242  0.000000 -0.767082 0.641549  0.036018 0.721187 0
0  0.187632 0.122746 3.426242  0.000000 -0.767082 0.641549  0.036025 0.721187 0
0  0.278578 -0.114275 3.142843  0.000000 -0.767082 0.641549  0.036025 0.721313 0
lowpoly_metal.001
0  0.377584 0.862351 -6.897046  0.000000 0.000003 -1.000000  0.035790 0.721403 0
0  0.377584 0.169010 -6.897048  0.000000 0.000003 -1.000000  0.035790 0.721712 0
0  0.000229 0.169010 -6.897048  0.000000 0.000003 -1.000000  0.035759 0.721712 0
lowpoly_metal.001
0  0.275592 0.862350 3.426242  0.000000 0.000000 1.000000  0.036083 0.720747 0
0  0.275592 0.971338 3.426242  0.000000 0.000000 1.000000  0.036083 0.720795 0
0  0.187631 0.971338 3.426242  0.000000 0.000000 1.000000  0.036076 0.720795 0
lowpoly_metal.001
0  0.522102 -0.478926 -6.957934  0.707109 -0.707105 0.000000  0.063051 0.795122 0
0  0.522102 -0.478926 -6.888682  0.707109 -0.707105 0.000000  0.063020 0.795122 0
0  0.410178 -0.590850 -6.888682  0.707109 -0.707105 0.000000  0.063020 0.795072 0
lowpoly_metal.001
0  -0.465086 -0.423886 2.141508  -0.995148 0.000000 0.098394  0.033845 0.720527 0
0  -0.366080 -0.423886 3.142843  -0.995148 0.000000 0.098394  0.033845 0.720081 0
0  -0.366080 -0.114275 3.142843  -0.995148 0.000000 0.098394  0.033982 0.720081 0
lowpoly_metal.001
0  0.366539 -0.423886 3.142843  0.000000 0.000000 1.000000  0.035990 0.720467 0
0  0.366539 -0.114275 3.142843  0.000000 0.000000 1.000000  0.035990 0.720605 0
0  0.278578 -0.114275 3.142843  0.000000 0.000000 1.000000  0.035983 0.720605 0
lowpoly_metal.001
0  0.187632 0.122746 3.426242  -0.952172 -0.000000 -0.305564  0.035212 0.720333 0
0  0.187631 0.862350 3.426242  -0.952172 -0.000000 -0.305564  0.035212 0.720004 0
0  0.278578 0.862350 3.142843  -0.952172 -0.000000 -0.305564  0.035338 0.720004 0
lowpoly_metal.001
0  0.377584 0.971340 -6.897046  0.000000 0.000000 -1.000000  0.035790 0.721354 0
0  0.377584 0.862351 -6.897046  0.000000 0.000000 -1.000000  0.035790 0.721403 0
0  0.000229 0.862351 -6.897046  0.000000 0.000000 -1.000000  0.035759 0.721403 0
lowpoly_metal.001
0  -0.278120 0.862350 3.142843  0.952172 0.000001 -0.305563  0.035338 0.721149 0
0  -0.187173 0.862350 3.426242  0.952172 0.000001 -0.305563  0.035212 0.721150 0
0  -0.187173 0.122746 3.426242  0.952172 0.000001 -0.305563  0.035212 0.720820 0
lowpoly_metal.001
0  -0.465086 -0.081815 2.141508  -0.995148 0.000000 0.098394  0.033997 0.720527 0
0  -0.366080 -0.114275 3.142843  -0.995148 0.000000 0.098394  0.033982 0.720081 0
0  -0.366080 0.862350 3.142843  -0.995148 0.000000 0.098394  0.034417 0.720082 0
lowpoly_metal.001
0  -0.366080 -0.423886 3.142843  -0.783676 -0.616318 0.077485  0.033845 0.720081 0
0  -0.465086 -0.423886 2.141508  -0.783676 -0.616318 0.077485  0.033845 0.720527 0
0  -0.377125 -0.535732 2.141508  -0.783676 -0.616318 0.077485  0.033795 0.720527 0
lowpoly_metal.001
0  0.465545 -0.423886 -5.081161  1.000000 0.000000 -0.000000  0.034516 0.720618 0
0  0.465544 0.118618 -5.081161  1.000000 0.000000 -0.000000  0.034757 0.720618 0
0  0.465545 -0.081815 2.141508  1.000000 0.000000 -0.000000  0.034668 0.723254 0
lowpoly_metal.001
0  0.275592 0.122746 3.426242  0.000000 0.000000 1.000000  0.036083 0.720417 0
0  0.275592 0.862350 3.426242  0.000000 0.000000 1.000000  0.036083 0.720747 0
0  0.187631 0.862350 3.426242  0.000000 0.000000 1.000000  0.036076 0.720747 0
lowpoly_metal.001
0  0.000229 0.971340 -5.081160  0.000000 1.000000 0.000000  0.035175 0.723164 0
0  0.000229 0.971338 2.141509  0.000000 1.000000 0.000000  0.035175 0.720527 0
0  0.377584 0.971338 2.141509  0.000000 1.000000 0.000000  0.035205 0.720527 0
lowpoly_metal.001
0  0.377584 0.971340 -5.081160  0.000000 1.000000 0.000000  0.035205 0.723164 0
0  0.377584 0.971338 2.141509  0.000000 1.000000 0.000000  0.035205 0.720527 0
0  0.465544 0.971338 2.141509  0.000000 1.000000 0.000000  0.035212 0.720527 0
lowpoly_metal.001
0  0.187631 0.862350 3.426242  -0.952172 0.000000 -0.305564  0.035212 0.720004 0
0  0.187631 0.971338 3.426242  -0.952172 0.000000 -0.305564  0.035212 0.719955 0
0  0.278578 0.971338 3.142843  -0.952172 0.000000 -0.305564  0.035338 0.719956 0
lowpoly_metal.001
0  0.546798 0.152185 -1.679024  0.725634 -0.426098 -0.540274  0.036010 0.720026 0
0  0.546798 -0.006032 -1.554243  0.725634 -0.426098 -0.540274  0.035954 0.719956 0
0  0.468592 -0.006032 -1.659281  0.725634 -0.426098 -0.540274  0.036001 0.719955 0
lowpoly_metal.001
0  0.465544 0.169010 -6.897048  0.000000 0.000000 -1.000000  0.035797 0.721712 0
0  0.465545 -0.423886 -6.897048  0.000000 0.000000 -1.000000  0.035797 0.721976 0
0  0.377584 -0.423886 -6.897048  0.000000 0.000000 -1.000000  0.035790 0.721976 0
lowpoly_metal.001
0  0.465545 -0.423886 -5.989104  0.786041 -0.618175 0.000000  0.034516 0.720287 0
0  0.377584 -0.535732 -5.989104  0.786041 -0.618175 0.000000  0.035094 0.720287 0
0  0.377584 -0.535732 -6.897048  0.786041 -0.618175 0.000000  0.034466 0.719955 0
lowpoly_metal.001
0  -0.278120 0.971338 3.142843  0.000000 1.000000 0.000000  0.035152 0.720082 0
0  -0.366080 0.971338 3.142843  0.000000 1.000000 0.000000  0.035145 0.720082 0
0  -0.275134 0.971338 3.426242  0.000000 1.000000 0.000000  0.035152 0.719955 0
lowpoly_metal.001
0  -0.409718 -0.590850 -6.888682  0.000000 -1.000000 0.000000  0.062421 0.796522 0
0  -0.409718 -0.590850 -6.957934  0.000000 -1.000000 0.000000  0.062452 0.796522 0
0  0.410178 -0.590850 -6.957934  0.000000 -1.000000 0.000000  0.062452 0.796589 0
lowpoly_metal.001
0  0.465544 0.971338 2.141509  0.995147 0.000000 0.098394  0.035137 0.723254 0
0  0.366539 0.971338 3.142843  0.995147 0.000000 0.098394  0.035137 0.723700 0
0  0.366539 0.862350 3.142843  0.995147 0.000000 0.098394  0.035088 0.723700 0
lowpoly_metal.001
0  0.465545 -0.423886 -6.897048  1.000000 0.000000 0.000000  0.034516 0.719955 0
0  0.465544 0.169010 -6.897048  1.000000 0.000000 0.000000  0.034780 0.719955 0
0  0.465544 0.143814 -5.989104  1.000000 0.000000 0.000000  0.034768 0.720287 0
lowpoly_plastic
0  -0.508897 1.015151 -5.081159  -0.136427 0.990650 0.000000  0.889061 0.763498 0
0  -0.377125 1.033298 -5.081159  -0.136427 0.990650 0.000000  0.889405 0.763498 0
0  -0.377125 1.033298 -5.989102  -0.136427 0.990650 0.000000  0.889405 0.763829 0
lowpoly_plastic
0  -0.527044 0.862351 -5.081160  -0.993021 0.117934 0.000000  0.888678 0.763498 0
0  -0.508897 1.015151 -5.081159  -0.993021 0.117934 0.000000  0.889061 0.763498 0
0  -0.508897 1.015151 -5.989102  -0.993021 0.117934 0.000000  0.889062 0.763829 0
lowpoly_plastic
0  0.377584 1.033298 -5.989103  0.136427 0.990650 0.000000  0.889466 0.763829 0
0  0.377584 1.033298 -5.081160  0.136427 0.990650 0.000000  0.889466 0.763498 0
0  0.509356 1.015151 -5.081160  0.136427 0.990650 0.000000  0.889435 0.762225 0
lowpoly_plastic
0  0.404656 -0.591464 -5.989104  0.015395 -0.999882 0.000000  0.889354 0.760621 0
0  0.404656 -0.591464 -5.081161  0.015395 -0.999882 0.000000  0.889354 0.760952 0
0  0.000229 -0.597691 -5.081161  0.015395 -0.999882 0.000000  0.889952 0.760952 0
lowpoly_plastic
0  0.000229 -0.535732 -5.989104  0.000000 0.000000 -1.000000  0.864337 0.762552 0
0  0.377584 -0.535732 -5.989104  0.000000 0.000000 -1.000000  0.863740 0.762552 0
0  0.404656 -0.591464 -5.989104  0.000000 0.000000 -1.000000  0.863740 0.762552 0
lowpoly_plastic
0  0.465544 0.118618 -5.081161  -0.000007 0.000000 1.000000  0.863403 0.762884 0
0  0.465545 -0.423886 -5.081161  -0.000007 0.000000 1.000000  0.863162 0.762884 0
0  0.524095 -0.444151 -5.081161  -0.000007 0.000000 1.000000  0.863162 0.762884 0
lowpoly_plastic
0  -0.465086 0.143814 -5.989104  0.000002 0.000000 -1.000000  0.862743 0.765760 0
0  -0.465086 -0.423886 -5.989104  0.000002 0.000000 -1.000000  0.862491 0.765760 0
0  -0.523637 -0.444151 -5.989104  0.000002 0.000000 -1.000000  0.862491 0.765760 0
lowpoly_metal.001
0  0.000229 0.971340 -6.897046  0.000000 1.000000 0.000000  0.035175 0.723826 0
0  0.000229 0.971340 -5.989103  0.000000 1.000000 0.000000  0.035175 0.723495 0
0  0.377584 0.971340 -5.989103  0.000000 1.000000 0.000000  0.035205 0.723495 0
lowpoly_plastic
0  -0.377125 -0.535732 -5.081161  -0.000005 0.000000 1.000000  0.863362 0.764172 0
0  -0.465086 -0.423886 -5.081161  -0.000005 0.000000 1.000000  0.862491 0.765429 0
0  -0.523637 -0.444151 -5.081161  -0.000005 0.000000 1.000000  0.862491 0.765429 0
lowpoly_plastic
0  0.524095 -0.444151 -5.081161  0.776764 -0.629791 0.000000  0.888777 0.760952 0
0  0.404656 -0.591464 -5.081161  0.776764 -0.629791 0.000000  0.889354 0.760952 0
0  0.404656 -0.591464 -5.989104  0.776764 -0.629791 0.000000  0.889354 0.760621 0
lowpoly_plastic
0  -0.465086 0.862351 -5.081160  0.000006 -0.000009 1.000000  0.863063 0.765429 0
0  -0.465086 0.971340 -5.081159  0.000006 -0.000009 1.000000  0.863447 0.765429 0
0  -0.508897 1.015151 -5.081159  0.000006 -0.000009 1.000000  0.863447 0.765429 0
lowpoly_plastic
0  0.465544 0.143814 -5.989104  0.000000 0.000001 -1.000000  0.863414 0.762552 0
0  0.465544 0.862351 -5.989103  0.000000 0.000001 -1.000000  0.863734 0.762552 0
0  0.527503 0.862351 -5.989103  0.000000 0.000001 -1.000000  0.863734 0.762552 0
lowpoly_plastic
0  -0.377125 1.033298 -5.081159  0.000000 1.000000 0.000000  0.889405 0.763498 0
0  0.000229 1.033298 -5.081160  0.000000 1.000000 0.000000  0.889435 0.763498 0
0  0.000229 1.033298 -5.989103  0.000000 1.000000 0.000000  0.889435 0.763829 0
lowpoly_metal.001
0  -0.377125 0.971338 2.141509  0.000000 1.000000 0.000000  0.035144 0.720527 0
0  0.000229 0.971338 2.141509  0.000000 1.000000 0.000000  0.035175 0.720527 0
0  0.000229 0.971340 -5.081160  0.000000 1.000000 0.000000  0.035175 0.723164 0
lowpoly_plastic
0  -0.523637 -0.444151 -5.989104  -0.776763 -0.629792 0.000000  0.888105 0.763829 0
0  -0.404197 -0.591464 -5.989104  -0.776763 -0.629792 0.000000  0.888983 0.762233 0
0  -0.404197 -0.591464 -5.081161  -0.776763 -0.629792 0.000000  0.888977 0.762241 0
lowpoly_plastic
0  0.509356 1.015151 -5.989103  0.993021 0.117936 0.000000  0.889435 0.762225 0
0  0.509356 1.015151 -5.081160  0.993021 0.117936 0.000000  0.889435 0.762225 0
0  0.527503 0.862351 -5.081160  0.993021 0.117936 0.000000  0.889349 0.760952 0
lowpoly_metal.001
0  -0.465086 0.862350 2.141509  -1.000000 0.000000 0.000000  0.034417 0.720527 0
0  -0.465086 0.971338 2.141509  -1.000000 0.000000 0.000000  0.034466 0.720527 0
0  -0.465086 0.971340 -5.081159  -1.000000 0.000000 0.000000  0.034801 0.723164 0
lowpoly_plastic
0  0.377584 0.971340 -5.081160  0.000000 0.000000 1.000000  0.863851 0.765429 0
0  0.465544 0.971340 -5.081160  0.000000 0.000000 1.000000  0.863820 0.764156 0
0  0.509356 1.015151 -5.081160  0.000000 0.000000 1.000000  0.863820 0.764156 0
lowpoly_plastic
0  -0.527044 0.143814 -5.989104  -1.000000 -0.000000 0.000000  0.888358 0.763829 0
0  -0.527044 0.118618 -5.081161  -1.000000 -0.000000 0.000000  0.888347 0.763497 0
0  -0.527044 0.862351 -5.081160  -1.000000 -0.000000 0.000000  0.888678 0.763498 0
lowpoly_metal.001
0  -0.465086 -0.423886 -6.897048  -1.000000 0.000000 0.000000  0.033845 0.723826 0
0  -0.465086 -0.423886 -5.989104  -1.000000 0.000000 0.000000  0.033845 0.723495 0
0  -0.465086 0.143814 -5.989104  -1.000000 0.000000 0.000000  0.034097 0.723495 0
lowpoly_plastic
0  -0.465086 0.971340 -5.989102  0.000000 0.000009 -1.000000  0.863447 0.765760 0
0  -0.465086 0.862351 -5.989103  0.000000 0.000009 -1.000000  0.863063 0.765760 0
0  -0.527044 0.862351 -5.989103  0.000000 0.000009 -1.000000  0.863063 0.765760 0
lowpoly_plastic
0  -0.377125 0.971340 -5.989102  0.000000 0.000000 -1.000000  0.863790 0.765760 0
0  -0.465086 0.971340 -5.989102  0.000000 0.000000 -1.000000  0.863447 0.765760 0
0  -0.508897 1.015151 -5.989102  0.000000 0.000000 -1.000000  0.863447 0.765760 0
lowpoly_metal.001
0  -0.465086 0.169010 -6.897048  -1.000000 -0.000000 0.000000  0.034108 0.723826 0
0  -0.465086 0.143814 -5.989104  -1.000000 -0.000000 0.000000  0.034097 0.723495 0
0  -0.465086 0.862351 -5.989103  -1.000000 -0.000000 0.000000  0.034417 0.723495 0
lowpoly_plastic
0  0.377584 0.971340 -5.989103  0.000000 0.000000 -1.000000  0.863851 0.765760 0
0  0.000229 0.971340 -5.989103  0.000000 0.000000 -1.000000  0.863821 0.765760 0
0  0.000229 1.033298 -5.989103  0.000000 0.000000 -1.000000  0.863821 0.765760 0
lowpoly_plastic
0  0.465545 -0.423886 -5.989104  0.000000 0.000000 -1.000000  0.863162 0.762552 0
0  0.465544 0.143814 -5.989104  0.000000 0.000000 -1.000000  0.863414 0.762552 0
0  0.527503 0.143814 -5.989104  0.000000 0.000000 -1.000000  0.863414 0.762552 0
lowpoly_metal.001
0  0.377584 -0.535732 -6.897048  0.000000 -1.000000 0.000000  0.035722 0.719955 0
0  0.377584 -0.535732 -5.989104  0.000000 -1.000000 0.000000  0.035094 0.720287 0
0  0.000229 -0.535732 -5.989104  0.000000 -1.000000 0.000000  0.035691 0.720287 0
lowpoly_plastic
0  -0.523637 -0.444151 -5.989104  -0.999982 -0.006055 0.000000  0.888105 0.763829 0
0  -0.523637 -0.444151 -5.081161  -0.999982 -0.006055 0.000000  0.888105 0.763497 0
0  -0.527044 0.118618 -5.081161  -0.999982 -0.006055 0.000000  0.888347 0.763497 0
lowpoly_plastic
0  -0.377125 0.971340 -5.081159  0.000003 0.000000 1.000000  0.863790 0.765429 0
0  0.000229 0.971340 -5.081160  0.000003 0.000000 1.000000  0.863821 0.765429 0
0  0.000229 1.033298 -5.081160  0.000003 0.000000 1.000000  0.863821 0.765429 0
lowpoly_plastic
0  0.527503 0.143814 -5.989104  1.000000 0.000000 0.000000  0.889029 0.760621 0
0  0.527503 0.862351 -5.989103  1.000000 0.000000 0.000000  0.889349 0.760621 0
0  0.527503 0.862351 -5.081160  1.000000 0.000000 0.000000  0.889349 0.760952 0
lowpoly_plastic
0  0.000229 0.971340 -5.989103  -0.000003 0.000000 -1.000000  0.863821 0.765760 0
0  -0.377125 0.971340 -5.989102  -0.000003 0.000000 -1.000000  0.863790 0.765760 0
0  -0.377125 1.033298 -5.989102  -0.000003 0.000000 -1.000000  0.863790 0.765760 0
lowpoly_plastic
0  0.377584 -0.535732 -5.989104  -0.000007 0.000000 -1.000000  0.863740 0.762552 0
0  0.465545 -0.423886 -5.989104  -0.000007 0.000000 -1.000000  0.863162 0.762552 0
0  0.524095 -0.444151 -5.989104  -0.000007 0.000000 -1.000000  0.863162 0.762552 0
lowpoly_metal.001
0  0.465544 0.971340 -6.897046  1.000000 0.000000 0.000000  0.035137 0.719955 0
0  0.465544 0.971340 -5.989103  1.000000 0.000000 0.000000  0.035174 0.721891 0
0  0.465544 0.862351 -5.989103  1.000000 0.000000 0.000000  0.035088 0.720287 0
lowpoly_plastic
0  -0.465086 0.971340 -5.081159  0.000000 0.000000 1.000000  0.863447 0.765429 0
0  -0.377125 0.971340 -5.081159  0.000000 0.000000 1.000000  0.863790 0.765429 0
0  -0.377125 1.033298 -5.081159  0.000000 0.000000 1.000000  0.863790 0.765429 0
lowpoly_plastic
0  0.465545 -0.423886 -5.081161  0.000008 0.000000 1.000000  0.863162 0.762884 0
0  0.377584 -0.535732 -5.081161  0.000008 0.000000 1.000000  0.863739 0.762884 0
0  0.404656 -0.591464 -5.081161  0.000008 0.000000 1.000000  0.863739 0.762884 0
lowpoly_metal.001
0  0.465544 0.971340 -5.081160  1.000000 0.000000 0.000000  0.035174 0.721891 0
0  0.465544 0.971338 2.141509  1.000000 0.000000 0.000000  0.035137 0.723254 0
0  0.465544 0.862350 2.141509  1.000000 0.000000 0.000000  0.035088 0.723254 0
lowpoly_metal.001
0  0.465545 -0.423886 2.141508  0.786039 -0.618177 0.000000  0.034516 0.723254 0
0  0.377584 -0.535732 2.141508  0.786039 -0.618177 0.000000  0.034466 0.723254 0
0  0.377584 -0.535732 -5.081161  0.786039 -0.618177 0.000000  0.035093 0.720618 0
lowpoly_plastic
0  0.465544 0.971340 -5.081160  0.000000 0.000000 1.000000  0.863820 0.764156 0
0  0.465544 0.862351 -5.081160  0.000000 0.000000 1.000000  0.863734 0.762884 0
0  0.527503 0.862351 -5.081160  0.000000 0.000000 1.000000  0.863734 0.762884 0
lowpoly_plastic
0  0.524095 -0.444151 -5.989104  0.999983 -0.005796 -0.000161  0.888777 0.760621 0
0  0.527503 0.143814 -5.989104  0.999983 -0.005796 -0.000161  0.889029 0.760621 0
0  0.527503 0.118618 -5.081161  0.999983 -0.005796 -0.000161  0.889018 0.760952 0
lowpoly_plastic
0  -0.465086 0.862351 -5.989103  0.000000 0.000001 -1.000000  0.863063 0.765760 0
0  -0.465086 0.143814 -5.989104  0.000000 0.000001 -1.000000  0.862743 0.765760 0
0  -0.527044 0.143814 -5.989104  0.000000 0.000001 -1.000000  0.862743 0.765760 0
lowpoly_metal.001
0  0.465544 0.169010 -6.897048  1.000000 -0.000000 0.000000  0.034780 0.719955 0
0  0.465544 0.862351 -6.897046  1.000000 -0.000000 0.000000  0.035088 0.719955 0
0  0.465544 0.862351 -5.989103  1.000000 -0.000000 0.000000  0.035088 0.720287 0
lowpoly_metal.001
0  -0.465086 -0.423886 -6.897048  -0.786040 -0.618176 0.000000  0.033845 0.723826 0
0  -0.377125 -0.535732 -6.897048  -0.786040 -0.618176 0.000000  0.033795 0.723826 0
0  -0.377125 -0.535732 -5.989104  -0.786040 -0.618176 0.000000  0.034722 0.721899 0
lowpoly_plastic
0  -0.377125 -0.535732 -5.989104  0.000000 0.000000 -1.000000  0.863368 0.764164 0
0  0.000229 -0.535732 -5.989104  0.000000 0.000000 -1.000000  0.864337 0.762552 0
0  0.000229 -0.597691 -5.989104  0.000000 0.000000 -1.000000  0.864337 0.762552 0
lowpoly_metal.001
0  -0.465086 0.971338 2.141509  0.000000 1.000000 0.000000  0.035137 0.720527 0
0  -0.377125 0.971338 2.141509  0.000000 1.000000 0.000000  0.035144 0.720527 0
0  -0.377125 0.971340 -5.081159  0.000000 1.000000 0.000000  0.035144 0.723164 0
lowpoly_plastic
0  0.465544 0.862351 -5.989103  -0.000012 0.000000 -1.000000  0.863734 0.762552 0
0  0.465544 0.971340 -5.989103  -0.000012 0.000000 -1.000000  0.863820 0.764156 0
0  0.509356 1.015151 -5.989103  -0.000012 0.000000 -1.000000  0.863820 0.764156 0
lowpoly_metal.001
0  0.000229 -0.535732 2.141508  0.000000 -1.000000 0.000000  0.035691 0.723254 0
0  -0.377125 -0.535732 2.141508  0.000000 -1.000000 0.000000  0.035661 0.723254 0
0  -0.377125 -0.535732 -5.081161  0.000000 -1.000000 0.000000  0.034716 0.721907 0
lowpoly_metal.001
0  0.377584 0.971340 -6.897046  0.000000 1.000000 0.000000  0.035205 0.723826 0
0  0.377584 0.971340 -5.989103  0.000000 1.000000 0.000000  0.035205 0.723495 0
0  0.465544 0.971340 -5.989103  0.000000 1.000000 0.000000  0.035174 0.721891 0
lowpoly_plastic
0  0.000229 -0.597691 -5.081161  -0.015395 -0.999882 0.000000  0.889952 0.760952 0
0  -0.404197 -0.591464 -5.081161  -0.015395 -0.999882 0.000000  0.888977 0.762241 0
0  -0.404197 -0.591464 -5.989104  -0.015395 -0.999882 0.000000  0.888983 0.762233 0
lowpoly_plastic
0  0.377584 -0.535732 -5.081161  0.000000 0.000000 1.000000  0.863739 0.762884 0
0  0.000229 -0.535732 -5.081161  0.000000 0.000000 1.000000  0.864337 0.762884 0
0  0.000229 -0.597691 -5.081161  0.000000 0.000000 1.000000  0.864337 0.762884 0
lowpoly_plastic
0  0.000229 1.033298 -5.989103  0.000000 1.000000 0.000000  0.889435 0.763829 0
0  0.000229 1.033298 -5.081160  0.000000 1.000000 0.000000  0.889435 0.763498 0
0  0.377584 1.033298 -5.081160  0.000000 1.000000 0.000000  0.889466 0.763498 0
lowpoly_plastic
0  0.465544 0.862351 -5.081160  0.000000 -0.000001 1.000000  0.863734 0.762884 0
0  0.465544 0.118618 -5.081161  0.000000 -0.000001 1.000000  0.863403 0.762884 0
0  0.527503 0.118618 -5.081161  0.000000 -0.000001 1.000000  0.863403 0.762884 0
lowpoly_plastic
0  0.000229 0.971340 -5.081160  0.000000 0.000000 1.000000  0.863821 0.765429 0
0  0.377584 0.971340 -5.081160  0.000000 0.000000 1.000000  0.863851 0.765429 0
0  0.377584 1.033298 -5.081160  0.000000 0.000000 1.000000  0.863851 0.765429 0
lowpoly_plastic
0  -0.465086 -0.423886 -5.989104  -0.000008 0.000000 -1.000000  0.862491 0.765760 0
0  -0.377125 -0.535732 -5.989104  -0.000008 0.000000 -1.000000  0.863368 0.764164 0
0  -0.404197 -0.591464 -5.989104  -0.000008 0.000000 -1.000000  0.863368 0.764164 0
lowpoly_plastic
0  0.465544 0.971340 -5.989103  0.000000 0.000000 -1.000000  0.863820 0.764156 0
0  0.377584 0.971340 -5.989103  0.000000 0.000000 -1.000000  0.863851 0.765760 0
0  0.377584 1.033298 -5.989103  0.000000 0.000000 -1.000000  0.863851 0.765760 0
lowpoly_plastic
0  -0.465086 -0.423886 -5.081161  0.000000 0.000000 1.000000  0.862491 0.765429 0
0  -0.465086 0.118618 -5.081161  0.000000 0.000000 1.000000  0.862732 0.765429 0
0  -0.527044 0.118618 -5.081161  0.000000 0.000000 1.000000  0.862732 0.765429 0
lowpoly_plastic
0  -0.465086 0.118618 -5.081161  0.000000 -0.000001 1.000000  0.862732 0.765429 0
0  -0.465086 0.862351 -5.081160  0.000000 -0.000001 1.000000  0.863063 0.765429 0
0  -0.527044 0.862351 -5.081160  0.000000 -0.000001 1.000000  0.863063 0.765429 0
lowpoly_metal.001
0  -0.546339 -0.006032 -1.501487  0.000000 -1.000000 0.000000  0.035212 0.722084 0
0  -0.546339 -0.006032 -1.554243  0.000000 -1.000000 0.000000  0.035236 0.722084 0
0  0.546798 -0.006032 -1.554243  0.000000 -1.000000 0.000000  0.035236 0.722172 0
end
