version 1
nodes
0 "root" -1
end
skeleton
time 0
0 0 0 0 0 0 0
end
triangles
lowpoly_metal.001
0  -0.222447 0.796986 2.892540  0.952172 0.000000 -0.305564  0.035338 0.721198 0
0  -0.149690 0.709795 3.119259  0.952172 0.000000 -0.305564  0.035212 0.721150 0
0  -0.222447 0.709795 2.892540  0.952172 0.000000 -0.305564  0.035338 0.721149 0
lowpoly_metal.001
0  0.372484 0.796986 -5.662751  0.000000 0.208565 -0.978009  0.035797 0.721354 0
0  0.302115 0.709795 -5.681345  0.000000 0.208565 -0.978009  0.035790 0.721403 0
0  0.302115 0.796986 -5.662751  0.000000 0.208565 -0.978009  0.035790 0.721354 0
lowpoly_metal.001
0  0.372484 0.225215 -5.669360  0.000000 -0.008754 -0.999962  0.035797 0.721712 0
0  0.302116 -0.249101 -5.665208  0.000000 -0.008754 -0.999962  0.035790 0.721976 0
0  0.302115 0.225215 -5.669360  0.000000 -0.008754 -0.999962  0.035790 0.721712 0
lowpoly_metal.001
0  -0.374458 0.381880 -1.463037  0.000000 0.619261 -0.785185  0.035995 0.721742 0
0  0.374922 0.500203 -1.369718  0.000000 0.619261 -0.785185  0.036071 0.721676 0
0  0.374922 0.381880 -1.463037  0.000000 0.619261 -0.785185  0.036071 0.721742 0
lowpoly_metal.001
0  -0.222447 -0.001413 2.892540  0.000000 0.000000 1.000000  0.035938 0.720605 0
0  -0.292816 -0.249101 2.892540  0.000000 0.000000 1.000000  0.035930 0.720467 0
0  -0.222447 -0.249101 2.892540  0.000000 0.000000 1.000000  0.035938 0.720467 0
lowpoly_metal.001
0  0.000232 -0.338578 -5.665760  0.000000 0.006171 -0.999981  0.035759 0.722025 0
0  -0.301651 -0.249101 -5.665208  0.000000 0.006171 -0.999981  0.035729 0.721976 0
0  0.000232 -0.249101 -5.665208  0.000000 0.006171 -0.999981  0.035759 0.721976 0
lowpoly_metal.001
0  0.374922 0.203506 -1.463037  0.000000 0.000000 -1.000000  0.036071 0.721842 0
0  -0.374458 0.381880 -1.463037  0.000000 0.000000 -1.000000  0.035995 0.721742 0
0  0.374922 0.381880 -1.463037  0.000000 0.000000 -1.000000  0.036071 0.721742 0
lowpoly_metal.001
0  0.302115 0.796986 -5.662751  0.000000 0.208565 -0.978009  0.035790 0.721354 0
0  0.000232 0.709795 -5.681345  0.000000 0.208565 -0.978009  0.035759 0.721403 0
0  0.000232 0.796986 -5.662751  0.000000 0.208565 -0.978009  0.035759 0.721354 0
lowpoly_metal.001
0  -0.374458 0.085182 -1.369719  0.000000 -1.000000 0.000000  0.035283 0.722090 0
0  0.437487 0.085182 -1.285688  0.000000 -1.000000 0.000000  0.035236 0.722172 0
0  -0.437023 0.085182 -1.285688  0.000000 -1.000000 0.000000  0.035236 0.722084 0
lowpoly_metal.001
0  0.372484 -0.249101 -4.849733  0.786042 -0.618173 0.000000  0.034516 0.720302 0
0  0.302116 -0.338578 -5.665760  0.786042 -0.618173 0.000000  0.034466 0.719955 0
0  0.372484 -0.249101 -5.665208  0.786042 -0.618173 0.000000  0.034516 0.719955 0
lowpoly_metal.001
0  0.000232 -0.338578 -4.850227  0.000000 -1.000000 0.000000  0.035691 0.720302 0
0  -0.301651 -0.338578 -5.665760  0.000000 -1.000000 0.000000  0.035661 0.719955 0
0  0.000232 -0.338578 -5.665760  0.000000 -1.000000 0.000000  0.035691 0.719955 0
lowpoly_metal.001
0  0.222911 0.709795 2.892540  -0.990765 0.000000 -0.135591  0.035338 0.720004 0
0  0.302115 0.225214 2.313789  -0.990765 0.000000 -0.135591  0.035661 0.720313 0
0  0.222911 -0.001413 2.892540  -0.990765 0.000000 -0.135591  0.035338 0.720439 0
lowpoly_metal.001
0  0.302115 0.709795 -5.681345  0.000000 -0.024725 -0.999694  0.035790 0.721403 0
0  0.000232 0.225215 -5.669360  0.000000 -0.024725 -0.999694  0.035759 0.721712 0
0  0.000232 0.709795 -5.681345  0.000000 -0.024725 -0.999694  0.035759 0.721403 0
lowpoly_metal.001
0  0.000232 0.709795 2.313789  0.000000 -0.000001 1.000000  0.035921 0.721206 0
0  -0.301652 0.225214 2.313789  0.000000 -0.000001 1.000000  0.035891 0.720897 0
0  0.000232 0.225214 2.313789  0.000000 -0.000001 1.000000  0.035921 0.720897 0
lowpoly_metal.001
0  -0.149690 0.796986 3.119259  0.000000 0.000000 1.000000  0.036081 0.720333 0
0  -0.220058 0.709795 3.119259  0.000000 0.000000 1.000000  0.036073 0.720285 0
0  -0.149690 0.709795 3.119259  0.000000 0.000000 1.000000  0.036081 0.720285 0
lowpoly_metal.001
0  0.293280 -0.249101 2.892540  0.000000 0.000000 1.000000  0.035990 0.720467 0
0  0.222911 -0.001413 2.892540  0.000000 0.000000 1.000000  0.035983 0.720605 0
0  0.222911 -0.249101 2.892540  0.000000 0.000000 1.000000  0.035983 0.720467 0
lowpoly_metal.001
0  -0.222447 0.796986 2.892540  0.000000 1.000000 0.000000  0.035152 0.720082 0
0  -0.220059 0.796986 3.119259  0.000000 1.000000 0.000000  0.035152 0.719955 0
0  -0.149690 0.796986 3.119259  0.000000 1.000000 0.000000  0.035159 0.719955 0
lowpoly_metal.001
0  0.220522 0.709795 3.119259  0.000000 0.000000 1.000000  0.036083 0.720747 0
0  0.150154 0.796986 3.119259  0.000000 0.000000 1.000000  0.036076 0.720795 0
0  0.150154 0.709795 3.119259  0.000000 0.000000 1.000000  0.036076 0.720747 0
lowpoly_metal.001
0  0.372484 -0.249101 2.091471  0.995148 0.000000 0.098394  0.034516 0.723254 0
0  0.293280 -0.001413 2.892540  0.995148 0.000000 0.098394  0.034654 0.723700 0
0  0.293280 -0.249101 2.892540  0.995148 0.000000 0.098394  0.034516 0.723700 0
lowpoly_metal.001
0  0.417730 -0.293133 -5.709083  0.000000 -0.027022 -0.999635  0.062875 0.795743 0
0  -0.327726 -0.382672 -5.706662  0.000000 -0.027022 -0.999635  0.062799 0.795793 0
0  -0.417265 -0.293133 -5.709083  0.000000 -0.027022 -0.999635  0.062790 0.795743 0
lowpoly_metal.001
0  -0.417265 0.842454 -5.661052  -1.000000 0.000000 0.000000  0.062698 0.795637 0
0  -0.417265 -0.293133 -5.709083  -1.000000 0.000000 0.000000  0.062729 0.796308 0
0  -0.417265 -0.293133 -5.653681  -1.000000 0.000000 0.000000  0.062698 0.796308 0
lowpoly_metal.001
0  -0.327726 -0.382672 -5.706662  -0.707109 -0.707105 0.000000  0.062729 0.796358 0
0  -0.417265 -0.293133 -5.653681  -0.707109 -0.707105 0.000000  0.062698 0.796308 0
0  -0.417265 -0.293133 -5.709083  -0.707109 -0.707105 0.000000  0.062729 0.796308 0
lowpoly_metal.001
0  -0.372020 0.190428 -4.169481  -1.000000 0.000000 0.000000  0.034089 0.723254 0
0  -0.372020 0.709795 2.091472  -1.000000 0.000000 0.000000  0.034417 0.720527 0
0  -0.372020 0.709795 -4.179388  -1.000000 0.000000 0.000000  0.034417 0.723255 0
lowpoly_metal.001
0  0.417730 -0.293133 -5.709083  0.000000 -0.006490 -0.999979  0.062875 0.795743 0
0  -0.417265 0.842454 -5.716453  0.000000 -0.006490 -0.999979  0.062790 0.795072 0
0  0.417730 0.842454 -5.716453  0.000000 -0.006490 -0.999979  0.062875 0.795072 0
lowpoly_metal.001
0  -0.327726 -0.382672 -5.651261  0.000000 -1.000000 0.000000  0.062421 0.796522 0
0  0.328191 -0.382672 -5.706662  0.000000 -1.000000 0.000000  0.062452 0.796589 0
0  0.328191 -0.382672 -5.651261  0.000000 -1.000000 0.000000  0.062421 0.796589 0
lowpoly_metal.001
0  -0.292816 0.709795 2.892540  -0.952172 0.000000 0.305563  0.034417 0.720082 0
0  -0.220059 0.796986 3.119259  -0.952172 0.000000 0.305563  0.034465 0.719955 0
0  -0.292816 0.796986 2.892540  -0.952172 0.000000 0.305563  0.034465 0.720082 0
lowpoly_metal.001
0  -0.437023 0.085182 -1.243483  -1.000000 0.000000 0.000000  0.035930 0.720417 0
0  -0.437023 0.500203 -1.243483  -1.000000 0.000000 0.000000  0.035930 0.720186 0
0  -0.437023 0.373631 -1.385512  -1.000000 0.000000 0.000000  0.036010 0.720257 0
lowpoly_metal.001
0  0.302116 -0.249101 -5.665208  0.000000 0.006171 -0.999981  0.035790 0.721976 0
0  0.000232 -0.338578 -5.665760  0.000000 0.006171 -0.999981  0.035759 0.722025 0
0  0.000232 -0.249101 -5.665208  0.000000 0.006171 -0.999981  0.035759 0.721976 0
lowpoly_plastic
0  0.302115 0.796986 -4.847535  0.000000 0.000000 -1.000000  0.794414 0.922680 0
0  0.000232 0.848927 -4.847535  0.000000 0.000000 -1.000000  0.794383 0.922680 0
0  0.302115 0.848927 -4.847535  0.000000 0.000000 -1.000000  0.794414 0.922680 0
lowpoly_metal.001
0  0.374922 0.500203 -1.369718  0.000000 1.000000 -0.000001  0.035283 0.722166 0
0  -0.437023 0.500203 -1.285688  0.000000 1.000000 -0.000001  0.035329 0.722084 0
0  0.437487 0.500203 -1.285688  0.000000 1.000000 -0.000001  0.035329 0.722172 0
lowpoly_metal.001
0  0.437487 0.500203 -1.243483  1.000000 0.000000 0.000000  0.035930 0.720186 0
0  0.437487 0.085182 -1.243483  1.000000 0.000000 0.000000  0.035930 0.719956 0
0  0.437487 0.211756 -1.385512  1.000000 0.000000 0.000000  0.036010 0.720026 0
lowpoly_metal.001
0  -0.437023 0.373631 -1.385512  -0.725635 0.426101 -0.540270  0.036010 0.720257 0
0  -0.374458 0.500203 -1.369718  -0.725635 0.426101 -0.540270  0.036001 0.720187 0
0  -0.374458 0.381880 -1.463037  -0.725635 0.426101 -0.540270  0.036053 0.720252 0
lowpoly_metal.001
0  0.437487 0.211756 -1.385512  0.725637 -0.426098 -0.540269  0.036010 0.720026 0
0  0.374922 0.085182 -1.369718  0.725637 -0.426098 -0.540269  0.036001 0.719955 0
0  0.374922 0.203506 -1.463037  0.725637 -0.426098 -0.540269  0.036053 0.720021 0
lowpoly_metal.001
0  0.437487 0.373631 -1.385512  0.725631 0.426100 -0.540277  0.036010 0.720116 0
0  0.374922 0.500203 -1.369718  0.725631 0.426100 -0.540277  0.036001 0.720186 0
0  0.437487 0.500203 -1.285688  0.725631 0.426100 -0.540277  0.035954 0.720186 0
lowpoly_metal.001
0  -0.292816 0.796986 2.892540  0.000000 1.000000 0.000000  0.035145 0.720082 0
0  -0.301652 0.796986 2.091472  0.000000 1.000000 0.000000  0.035144 0.720527 0
0  -0.372020 0.796986 2.091472  0.000000 1.000000 0.000000  0.035137 0.720527 0
lowpoly_metal.001
0  0.437487 0.211756 -1.385512  0.778191 0.000000 -0.628028  0.036010 0.720026 0
0  0.374922 0.381880 -1.463037  0.778191 0.000000 -0.628028  0.036053 0.720120 0
0  0.437487 0.373631 -1.385512  0.778191 0.000000 -0.628028  0.036010 0.720116 0
lowpoly_metal.001
0  0.000232 0.709795 -5.681345  0.000000 0.208565 -0.978009  0.035759 0.721403 0
0  -0.301652 0.796986 -5.662751  0.000000 0.208565 -0.978009  0.035729 0.721354 0
0  0.000232 0.796986 -5.662751  0.000000 0.208565 -0.978009  0.035759 0.721354 0
lowpoly_metal.001
0  -0.301651 -0.249101 -5.665208  0.000000 0.006171 -0.999981  0.035729 0.721976 0
0  -0.301651 -0.338578 -5.665760  0.000000 0.006171 -0.999981  0.035729 0.722025 0
0  -0.372020 -0.249101 -5.665208  0.000000 0.006171 -0.999981  0.035722 0.721976 0
lowpoly_metal.001
0  0.302115 0.225215 -5.669360  0.000000 -0.008754 -0.999962  0.035790 0.721712 0
0  0.000232 -0.249101 -5.665208  0.000000 -0.008754 -0.999962  0.035759 0.721976 0
0  0.000232 0.225215 -5.669360  0.000000 -0.008754 -0.999962  0.035759 0.721712 0
lowpoly_metal.001
0  -0.222447 -0.249101 2.892540  0.000000 0.000000 1.000000  0.035938 0.720467 0
0  -0.292816 -0.249101 2.892540  0.000000 0.000000 1.000000  0.035930 0.720467 0
0  -0.222447 -0.338579 2.892540  0.000000 0.000000 1.000000  0.035938 0.720417 0
lowpoly_metal.001
0  0.220522 0.188204 3.119259  0.000000 -0.767082 0.641549  0.036018 0.721187 0
0  0.222911 -0.001413 2.892540  0.000000 -0.767082 0.641549  0.036025 0.721313 0
0  0.293280 -0.001413 2.892540  0.000000 -0.767082 0.641549  0.036018 0.721313 0
lowpoly_metal.001
0  0.372484 0.024556 2.091471  0.995148 0.000000 0.098394  0.034668 0.723254 0
0  0.293279 0.709795 2.892540  0.995148 0.000000 0.098394  0.035088 0.723700 0
0  0.293280 -0.001413 2.892540  0.995148 0.000000 0.098394  0.034654 0.723700 0
lowpoly_metal.001
0  0.293280 -0.249101 2.892540  0.783677 -0.616317 0.077485  0.034516 0.723700 0
0  0.302116 -0.338578 2.091471  0.783677 -0.616317 0.077485  0.034466 0.723254 0
0  0.372484 -0.249101 2.091471  0.783677 -0.616317 0.077485  0.034516 0.723254 0
lowpoly_metal.001
0  0.000232 0.225214 2.313789  0.000000 0.000000 1.000000  0.035921 0.720897 0
0  -0.301651 -0.249101 2.313789  0.000000 0.000000 1.000000  0.035891 0.720633 0
0  0.000232 -0.249101 2.313789  0.000000 0.000000 1.000000  0.035921 0.720633 0
lowpoly_metal.001
0  -0.301651 -0.249101 -5.665208  0.000000 -0.008754 -0.999962  0.035729 0.721976 0
0  -0.372020 0.225215 -5.669360  0.000000 -0.008754 -0.999962  0.035722 0.721712 0
0  -0.301652 0.225215 -5.669360  0.000000 -0.008754 -0.999962  0.035729 0.721712 0
lowpoly_metal.001
0  0.302115 0.796986 2.091472  0.000000 1.000000 0.000000  0.035205 0.720527 0
0  0.293279 0.796986 2.892540  0.000000 1.000000 0.000000  0.035204 0.720082 0
0  0.372484 0.796986 2.091472  0.000000 1.000000 0.000000  0.035212 0.720527 0
lowpoly_metal.001
0  -0.301652 0.709795 -5.681345  0.000000 0.208565 -0.978009  0.035729 0.721403 0
0  -0.372020 0.796986 -5.662751  0.000000 0.208565 -0.978009  0.035722 0.721354 0
0  -0.301652 0.796986 -5.662751  0.000000 0.208565 -0.978009  0.035729 0.721354 0
lowpoly_metal.001
0  -0.149690 0.709795 3.119259  0.000000 0.000000 1.000000  0.036081 0.720285 0
0  -0.220058 0.188204 3.119259  0.000000 0.000000 1.000000  0.036073 0.719955 0
0  -0.149690 0.188204 3.119259  0.000000 0.000000 1.000000  0.036081 0.719955 0
lowpoly_metal.001
0  0.000232 0.796986 2.091472  0.000000 1.000000 0.000000  0.035175 0.720527 0
0  0.222911 0.796986 2.892540  0.000000 1.000000 0.000000  0.035197 0.720082 0
0  0.302115 0.796986 2.091472  0.000000 1.000000 0.000000  0.035205 0.720527 0
lowpoly_metal.001
0  -0.222447 -0.001413 2.892540  0.000000 -0.767082 0.641549  0.035795 0.722026 0
0  -0.220058 0.188204 3.119259  0.000000 -0.767082 0.641549  0.035787 0.722152 0
0  -0.292816 -0.001413 2.892540  0.000000 -0.767082 0.641549  0.035787 0.722025 0
lowpoly_metal.001
0  0.222911 -0.249101 2.892540  0.000000 1.000000 0.000000  0.036036 0.720864 0
0  0.000232 -0.249101 2.313789  0.000000 1.000000 0.000000  0.036013 0.721187 0
0  0.000232 -0.249101 2.892540  0.000000 1.000000 0.000000  0.036013 0.720864 0
lowpoly_metal.001
0  0.417730 -0.293133 -5.653681  1.000000 0.000000 0.000000  0.063020 0.795122 0
0  0.417730 0.842454 -5.716453  1.000000 0.000000 0.000000  0.063051 0.795793 0
0  0.417730 0.842454 -5.661052  1.000000 0.000000 0.000000  0.063020 0.795793 0
lowpoly_metal.001
0  -0.222447 -0.001413 2.892540  0.990765 0.000001 -0.135591  0.035338 0.720715 0
0  -0.301651 -0.249101 2.313789  0.990765 0.000001 -0.135591  0.035661 0.720577 0
0  -0.301652 0.225214 2.313789  0.990765 0.000001 -0.135591  0.035661 0.720841 0
lowpoly_metal.001
0  0.372484 0.796986 2.091472  0.995148 0.000000 0.098394  0.035137 0.723254 0
0  0.293279 0.709795 2.892540  0.995148 0.000000 0.098394  0.035088 0.723700 0
0  0.372484 0.709795 2.091472  0.995148 0.000000 0.098394  0.035088 0.723254 0
lowpoly_metal.001
0  -0.301652 0.225215 -5.669360  0.000000 -0.024725 -0.999694  0.035729 0.721712 0
0  -0.372020 0.709795 -5.681345  0.000000 -0.024725 -0.999694  0.035722 0.721403 0
0  -0.301652 0.709795 -5.681345  0.000000 -0.024725 -0.999694  0.035729 0.721403 0
lowpoly_metal.001
0  -0.372020 0.024556 2.091471  -0.995148 0.000000 0.098394  0.033997 0.720527 0
0  -0.292816 0.709795 2.892540  -0.995148 0.000000 0.098394  0.034417 0.720082 0
0  -0.372020 0.709795 2.091472  -0.995148 0.000000 0.098394  0.034417 0.720527 0
lowpoly_metal.001
0  0.374922 0.203506 -1.463037  0.000000 -0.619255 -0.785190  0.036071 0.721842 0
0  -0.374458 0.085182 -1.369719  0.000000 -0.619255 -0.785190  0.035995 0.721907 0
0  -0.374458 0.203506 -1.463037  0.000000 -0.619255 -0.785190  0.035995 0.721842 0
lowpoly_metal.001
0  0.222911 0.796986 2.892540  0.000000 1.000000 0.000000  0.035197 0.720082 0
0  0.220522 0.796986 3.119259  0.000000 1.000000 0.000000  0.035197 0.719955 0
0  0.293279 0.796986 2.892540  0.000000 1.000000 0.000000  0.035204 0.720082 0
lowpoly_metal.001
0  0.000232 -0.249101 2.892540  0.000000 0.000000 1.000000  0.035960 0.720467 0
0  -0.222447 -0.338579 2.892540  0.000000 0.000000 1.000000  0.035938 0.720417 0
0  0.000232 -0.338579 2.892540  0.000000 0.000000 1.000000  0.035960 0.720417 0
lowpoly_metal.001
0  0.293279 0.709795 2.892540  0.952171 0.000000 0.305564  0.035088 0.723700 0
0  0.220522 0.188204 3.119259  0.952171 0.000000 0.305564  0.034759 0.723826 0
0  0.293280 -0.001413 2.892540  0.952171 0.000000 0.305564  0.034654 0.723700 0
lowpoly_metal.001
0  0.372484 -0.249101 -4.166049  1.000000 0.000000 0.000000  0.034516 0.720527 0
0  0.372484 0.024556 2.091471  1.000000 0.000000 0.000000  0.034668 0.723254 0
0  0.372484 -0.249101 2.091471  1.000000 0.000000 0.000000  0.034516 0.723254 0
lowpoly_metal.001
0  -0.222447 -0.249101 2.892540  0.000000 1.000000 0.000000  0.035991 0.720864 0
0  0.000232 -0.249101 2.313789  0.000000 1.000000 0.000000  0.036013 0.721187 0
0  -0.301651 -0.249101 2.313789  0.000000 1.000000 0.000000  0.035983 0.721187 0
lowpoly_metal.001
0  0.000232 0.796986 2.892540  0.000000 0.000000 1.000000  0.035913 0.721339 0
0  -0.222447 0.709795 2.892540  0.000000 0.000000 1.000000  0.035891 0.721291 0
0  0.000232 0.709795 2.892540  0.000000 0.000000 1.000000  0.035913 0.721291 0
lowpoly_metal.001
0  0.372484 0.190428 -4.169481  1.000000 0.000000 -0.000000  0.034760 0.720527 0
0  0.372484 0.709795 2.091472  1.000000 0.000000 -0.000000  0.035088 0.723254 0
0  0.372484 0.024556 2.091471  1.000000 0.000000 -0.000000  0.034668 0.723254 0
lowpoly_metal.001
0  0.372484 0.796986 -4.164019  1.000000 0.000000 0.000000  0.035176 0.721939 0
0  0.372484 0.709795 2.091472  1.000000 0.000000 0.000000  0.035088 0.723254 0
0  0.372484 0.709795 -4.179388  1.000000 0.000000 0.000000  0.035088 0.720527 0
lowpoly_metal.001
0  0.302116 -0.249101 -5.665208  0.000000 0.006171 -0.999981  0.035790 0.721976 0
0  0.372484 -0.249101 -5.665208  0.000000 0.006171 -0.999981  0.035797 0.721976 0
0  0.302116 -0.338578 -5.665760  0.000000 0.006171 -0.999981  0.035790 0.722025 0
lowpoly_metal.001
0  0.417730 -0.293133 -5.653681  0.000000 0.006491 0.999979  0.062959 0.795122 0
0  -0.417265 0.842454 -5.661052  0.000000 0.006491 0.999979  0.062875 0.795793 0
0  -0.417265 -0.293133 -5.653681  0.000000 0.006491 0.999979  0.062875 0.795122 0
lowpoly_metal.001
0  0.222911 -0.338579 2.892540  0.000000 0.000000 1.000000  0.035983 0.720417 0
0  0.293280 -0.249101 2.892540  0.000000 0.000000 1.000000  0.035990 0.720467 0
0  0.222911 -0.249101 2.892540  0.000000 0.000000 1.000000  0.035983 0.720467 0
lowpoly_metal.001
0  -0.372020 -0.249101 -4.166049  -1.000000 0.000000 0.000000  0.033845 0.723254 0
0  -0.372020 0.024556 2.091471  -1.000000 0.000000 0.000000  0.033997 0.720527 0
0  -0.372020 0.190428 -4.169481  -1.000000 0.000000 0.000000  0.034089 0.723254 0
lowpoly_metal.001
0  -0.292816 0.709795 2.892540  -0.952172 0.000000 0.305564  0.034417 0.720082 0
0  -0.220058 0.188204 3.119259  -0.952172 0.000000 0.305564  0.034088 0.719955 0
0  -0.220058 0.709795 3.119259  -0.952172 0.000000 0.305564  0.034417 0.719955 0
lowpoly_metal.001
0  -0.222447 0.796986 2.892540  0.000000 1.000000 0.000000  0.035152 0.720082 0
0  0.000232 0.796986 2.091472  0.000000 1.000000 0.000000  0.035175 0.720527 0
0  -0.301652 0.796986 2.091472  0.000000 1.000000 0.000000  0.035144 0.720527 0
lowpoly_metal.001
0  0.000232 -0.249101 -5.665208  0.000000 -0.008754 -0.999962  0.035759 0.721976 0
0  -0.301652 0.225215 -5.669360  0.000000 -0.008754 -0.999962  0.035729 0.721712 0
0  0.000232 0.225215 -5.669360  0.000000 -0.008754 -0.999962  0.035759 0.721712 0
lowpoly_metal.001
0  0.302115 0.225214 2.313789  0.000000 -0.000001 1.000000  0.035952 0.720897 0
0  0.000232 0.709795 2.313789  0.000000 -0.000001 1.000000  0.035921 0.721206 0
0  0.000232 0.225214 2.313789  0.000000 -0.000001 1.000000  0.035921 0.720897 0
lowpoly_metal.001
0  -0.372020 0.709795 -4.864174  -1.000000 0.000000 0.000000  0.034417 0.723480 0
0  -0.372020 0.796986 -5.662751  -1.000000 0.000000 0.000000  0.034465 0.723826 0
0  -0.372020 0.709795 -5.681345  -1.000000 0.000000 0.000000  0.034417 0.723826 0
lowpoly_metal.001
0  -0.222447 0.709795 2.892540  0.000000 -1.000000 0.000000  0.036048 0.721354 0
0  0.000232 0.709795 2.313789  0.000000 -1.000000 0.000000  0.036026 0.721676 0
0  0.000232 0.709795 2.892540  0.000000 -1.000000 0.000000  0.036026 0.721354 0
lowpoly_metal.001
0  -0.301652 0.796986 -4.847535  0.000000 1.000000 0.000000  0.035144 0.723480 0
0  0.000232 0.796986 -5.662751  0.000000 1.000000 0.000000  0.035175 0.723826 0
0  -0.301652 0.796986 -5.662751  0.000000 1.000000 0.000000  0.035144 0.723826 0
lowpoly_metal.001
0  0.000232 -0.338578 2.091471  0.000000 -1.000000 -0.000001  0.035691 0.723254 0
0  -0.222447 -0.338579 2.892540  0.000000 -1.000000 -0.000001  0.035669 0.723700 0
0  -0.301651 -0.338578 2.091471  0.000000 -1.000000 -0.000001  0.035661 0.723254 0
lowpoly_metal.001
0  -0.222447 0.709795 2.892540  0.990765 0.000000 -0.135591  0.035338 0.721149 0
0  -0.301652 0.225214 2.313789  0.990765 0.000000 -0.135591  0.035661 0.720841 0
0  -0.301652 0.709795 2.313789  0.990765 0.000000 -0.135591  0.035661 0.721149 0
lowpoly_metal.001
0  0.000232 0.709795 2.313789  0.000000 -1.000000 0.000000  0.036026 0.721676 0
0  0.222911 0.709795 2.892540  0.000000 -1.000000 0.000000  0.036003 0.721354 0
0  0.000232 0.709795 2.892540  0.000000 -1.000000 0.000000  0.036026 0.721354 0
lowpoly_metal.001
0  -0.372020 -0.249101 -4.166049  -0.786039 -0.618177 -0.000000  0.033845 0.723254 0
0  -0.301651 -0.338578 2.091471  -0.786039 -0.618177 -0.000000  0.033795 0.720527 0
0  -0.372020 -0.249101 2.091471  -0.786039 -0.618177 -0.000000  0.033845 0.720527 0
lowpoly_metal.001
0  0.222911 -0.001413 2.892540  -0.990765 -0.000001 -0.135591  0.035338 0.720439 0
0  0.302116 -0.249101 2.313789  -0.990765 -0.000001 -0.135591  0.035661 0.720577 0
0  0.222911 -0.249101 2.892540  -0.990765 -0.000001 -0.135591  0.035338 0.720577 0
lowpoly_metal.001
0  0.220522 0.188204 3.119259  0.000000 0.000000 1.000000  0.036083 0.720417 0
0  0.150154 0.709795 3.119259  0.000000 0.000000 1.000000  0.036076 0.720747 0
0  0.150154 0.188204 3.119259  0.000000 0.000000 1.000000  0.036076 0.720417 0
lowpoly_metal.001
0  0.302116 -0.249101 2.313789  0.000000 0.000000 1.000000  0.035952 0.720633 0
0  0.000232 0.225214 2.313789  0.000000 0.000000 1.000000  0.035921 0.720897 0
0  0.000232 -0.249101 2.313789  0.000000 0.000000 1.000000  0.035921 0.720633 0
lowpoly_metal.001
0  0.222911 -0.338579 2.892540  0.000000 0.000000 1.000000  0.035983 0.720417 0
0  0.000232 -0.249101 2.892540  0.000000 0.000000 1.000000  0.035960 0.720467 0
0  0.000232 -0.338579 2.892540  0.000000 0.000000 1.000000  0.035960 0.720417 0
lowpoly_metal.001
0  -0.372020 -0.249101 2.091471  -0.995148 0.000000 0.098394  0.033845 0.720527 0
0  -0.292816 -0.001413 2.892540  -0.995148 0.000000 0.098394  0.033982 0.720081 0
0  -0.372020 0.024556 2.091471  -0.995148 0.000000 0.098394  0.033997 0.720527 0
lowpoly_metal.001
0  0.372484 0.709795 -5.681345  0.000000 -0.024725 -0.999694  0.035797 0.721403 0
0  0.302115 0.225215 -5.669360  0.000000 -0.024725 -0.999694  0.035790 0.721712 0
0  0.302115 0.709795 -5.681345  0.000000 -0.024725 -0.999694  0.035790 0.721403 0
lowpoly_metal.001
0  0.437487 0.500203 -1.243483  0.000000 0.000000 1.000000  0.036071 0.720864 0
0  -0.437023 0.085182 -1.243483  0.000000 0.000000 1.000000  0.035983 0.720633 0
0  0.437487 0.085182 -1.243483  0.000000 0.000000 1.000000  0.036071 0.720633 0
lowpoly_metal.001
0  0.150154 0.188204 3.119259  -0.952171 0.000000 -0.305565  0.035212 0.720333 0
0  0.222911 0.709795 2.892540  -0.952171 0.000000 -0.305565  0.035338 0.720004 0
0  0.222911 -0.001413 2.892540  -0.952171 0.000000 -0.305565  0.035338 0.720439 0
lowpoly_metal.001
0  -0.222447 0.709795 2.892540  0.952172 0.000001 -0.305563  0.035338 0.721149 0
0  -0.149690 0.188204 3.119259  0.952172 0.000001 -0.305563  0.035212 0.720820 0
0  -0.222447 -0.001413 2.892540  0.952172 0.000001 -0.305563  0.035338 0.720715 0
lowpoly_metal.001
0  0.417730 -0.293133 -5.709083  0.707107 -0.707107 0.000000  0.063051 0.795122 0
0  0.328191 -0.382672 -5.651261  0.707107 -0.707107 0.000000  0.063020 0.795072 0
0  0.328191 -0.382672 -5.706662  0.707107 -0.707107 0.000000  0.063051 0.795072 0
lowpoly_metal.001
0  -0.292816 -0.249101 2.892540  -0.783678 -0.616316 0.077485  0.033845 0.720081 0
0  -0.301651 -0.338578 2.091471  -0.783678 -0.616316 0.077485  0.033795 0.720527 0
0  -0.222447 -0.338579 2.892540  -0.783678 -0.616316 0.077485  0.033795 0.720081 0
lowpoly_metal.001
0  0.000232 0.796986 -4.164019  0.000000 1.000000 0.000000  0.035175 0.723254 0
0  0.302115 0.796986 2.091472  0.000000 1.000000 0.000000  0.035205 0.720527 0
0  0.302115 0.796986 -4.164019  0.000000 1.000000 0.000000  0.035205 0.723254 0
lowpoly_metal.001
0  0.302115 0.796986 -4.164019  0.000000 1.000000 0.000000  0.035205 0.723254 0
0  0.372484 0.796986 2.091472  0.000000 1.000000 0.000000  0.035212 0.720527 0
0  0.372484 0.796986 -4.164019  0.000000 1.000000 0.000000  0.035176 0.721939 0
lowpoly_metal.001
0  0.000232 -0.338578 2.091471  0.000000 -1.000000 -0.000001  0.035691 0.723254 0
0  0.222911 -0.338579 2.892540  0.000000 -1.000000 -0.000001  0.035714 0.723700 0
0  0.000232 -0.338579 2.892540  0.000000 -1.000000 -0.000001  0.035691 0.723700 0
lowpoly_metal.001
0  0.302116 -0.338578 -4.166505  0.000000 -1.000000 0.000000  0.035093 0.720527 0
0  0.000232 -0.338578 2.091471  0.000000 -1.000000 0.000000  0.035691 0.723254 0
0  0.000232 -0.338578 -4.166505  0.000000 -1.000000 0.000000  0.035691 0.720527 0
lowpoly_metal.001
0  0.150154 0.709795 3.119259  -0.952172 0.000000 -0.305564  0.035212 0.720004 0
0  0.222911 0.796986 2.892540  -0.952172 0.000000 -0.305564  0.035338 0.719956 0
0  0.222911 0.709795 2.892540  -0.952172 0.000000 -0.305564  0.035338 0.720004 0
lowpoly_metal.001
0  0.220522 0.796986 3.119259  0.952172 0.000000 0.305564  0.035136 0.723826 0
0  0.293279 0.709795 2.892540  0.952172 0.000000 0.305564  0.035088 0.723700 0
0  0.293279 0.796986 2.892540  0.952172 0.000000 0.305564  0.035137 0.723700 0
lowpoly_metal.001
0  0.222911 0.709795 2.892540  0.000000 0.000000 1.000000  0.035936 0.721291 0
0  0.000232 0.796986 2.892540  0.000000 0.000000 1.000000  0.035913 0.721339 0
0  0.000232 0.709795 2.892540  0.000000 0.000000 1.000000  0.035913 0.721291 0
lowpoly_metal.001
0  -0.437023 0.373631 -1.385512  -0.778190 0.000000 -0.628028  0.036010 0.720257 0
0  -0.374458 0.203506 -1.463037  -0.778190 0.000000 -0.628028  0.036053 0.720352 0
0  -0.437023 0.211756 -1.385512  -0.778190 0.000000 -0.628028  0.036010 0.720347 0
lowpoly_metal.001
0  -0.437023 0.211756 -1.385512  -0.725636 -0.426094 -0.540274  0.036010 0.720347 0
0  -0.374458 0.085182 -1.369719  -0.725636 -0.426094 -0.540274  0.036001 0.720417 0
0  -0.437023 0.085182 -1.285688  -0.725636 -0.426094 -0.540274  0.035954 0.720417 0
lowpoly_metal.001
0  0.000232 0.225215 -5.669360  0.000000 -0.024725 -0.999694  0.035759 0.721712 0
0  -0.301652 0.709795 -5.681345  0.000000 -0.024725 -0.999694  0.035729 0.721403 0
0  0.000232 0.709795 -5.681345  0.000000 -0.024725 -0.999694  0.035759 0.721403 0
lowpoly_metal.001
0  0.437487 0.500203 -1.243483  0.000000 1.000000 0.000000  0.035353 0.722172 0
0  -0.437023 0.500203 -1.285688  0.000000 1.000000 0.000000  0.035329 0.722084 0
0  -0.437023 0.500203 -1.243483  0.000000 1.000000 0.000000  0.035353 0.722084 0
lowpoly_metal.001
0  -0.372020 0.796986 -4.847535  0.000000 1.000000 0.000000  0.034813 0.723480 0
0  -0.301652 0.796986 -5.662751  0.000000 1.000000 0.000000  0.035144 0.723826 0
0  -0.372020 0.796986 -5.662751  0.000000 1.000000 0.000000  0.035137 0.723826 0
lowpoly_metal.001
0  0.417730 0.842454 -5.716453  0.000000 1.000000 0.000000  0.062959 0.795729 0
0  -0.417265 0.842454 -5.661052  0.000000 1.000000 0.000000  0.062990 0.795645 0
0  0.417730 0.842454 -5.661052  0.000000 1.000000 0.000000  0.062990 0.795729 0
lowpoly_plastic
0  -0.301652 0.796986 -4.847535  -0.000003 0.000000 -1.000000  0.794353 0.922680 0
0  -0.410766 0.831579 -4.847535  -0.000003 0.000000 -1.000000  0.794022 0.922680 0
0  -0.301652 0.848927 -4.847535  -0.000003 0.000000 -1.000000  0.794353 0.922680 0
lowpoly_plastic
0  0.372484 0.709795 -4.179388  0.000000 0.019071 0.999818  0.794297 0.919727 0
0  0.424425 0.190428 -4.169481  0.000000 0.019071 0.999818  0.793969 0.919728 0
0  0.424425 0.709795 -4.179388  0.000000 0.019071 0.999818  0.794297 0.919727 0
lowpoly_plastic
0  0.000232 0.796986 -4.847535  0.000000 0.000000 -1.000000  0.794383 0.922680 0
0  -0.301652 0.848927 -4.847535  0.000000 0.000000 -1.000000  0.794353 0.922680 0
0  0.000232 0.848927 -4.847535  0.000000 0.000000 -1.000000  0.794383 0.922680 0
lowpoly_metal.001
0  -0.372020 -0.249101 -5.665208  -0.786041 -0.618175 0.000000  0.033845 0.723826 0
0  -0.301651 -0.338578 -4.850227  -0.786041 -0.618175 0.000000  0.034727 0.721892 0
0  -0.372020 -0.249101 -4.849733  -0.786041 -0.618175 0.000000  0.033845 0.723479 0
lowpoly_metal.001
0  0.000232 0.796986 -5.662751  0.000000 1.000000 0.000000  0.035175 0.723826 0
0  0.302115 0.796986 -4.847535  0.000000 1.000000 0.000000  0.035205 0.723480 0
0  0.302115 0.796986 -5.662751  0.000000 1.000000 0.000000  0.035205 0.723826 0
lowpoly_metal.001
0  0.000232 -0.338578 2.091471  0.000000 -1.000000 0.000000  0.035691 0.723254 0
0  -0.301651 -0.338578 -4.166505  0.000000 -1.000000 0.000000  0.034727 0.721892 0
0  0.000232 -0.338578 -4.166505  0.000000 -1.000000 0.000000  0.035691 0.720527 0
lowpoly_metal.001
0  -0.372020 0.709795 2.091472  -1.000000 0.000000 0.000000  0.034417 0.720527 0
0  -0.372020 0.796986 -4.164019  -1.000000 0.000000 0.000000  0.034813 0.723254 0
0  -0.372020 0.709795 -4.179388  -1.000000 0.000000 0.000000  0.034417 0.723255 0
lowpoly_metal.001
0  -0.372020 -0.249101 -5.665208  -1.000000 0.000000 0.000000  0.033845 0.723826 0
0  -0.372020 0.204120 -4.853449  -1.000000 0.000000 0.000000  0.034097 0.723480 0
0  -0.372020 0.225215 -5.669360  -1.000000 0.000000 0.000000  0.034108 0.723826 0
lowpoly_plastic
0  -0.372020 -0.249101 -4.166049  -0.002601 0.007502 0.999968  0.793053 0.922455 0
0  -0.423961 0.190428 -4.169481  -0.002601 0.007502 0.999968  0.793298 0.922455 0
0  -0.421097 -0.266110 -4.166049  -0.002601 0.007502 0.999968  0.793053 0.922455 0
lowpoly_plastic
0  0.372484 0.796986 -4.164019  0.117260 -0.104236 0.987616  0.794384 0.921139 0
0  0.424425 0.709795 -4.179388  0.117260 -0.104236 0.987616  0.794297 0.919727 0
0  0.406993 0.835806 -4.164019  0.117260 -0.104236 0.987616  0.794384 0.921139 0
lowpoly_metal.001
0  0.372484 0.796986 -5.662751  1.000000 0.000000 0.000000  0.035137 0.719955 0
0  0.372484 0.709795 -4.864174  1.000000 0.000000 0.000000  0.035088 0.720302 0
0  0.372484 0.709795 -5.681345  1.000000 0.000000 0.000000  0.035088 0.719955 0
lowpoly_plastic
0  0.372484 0.709795 -4.864174  0.000000 0.135368 -0.990795  0.794297 0.919502 0
0  0.411229 0.831579 -4.847535  0.000000 0.135368 -0.990795  0.794384 0.921147 0
0  0.424425 0.709795 -4.864174  0.000000 0.135368 -0.990795  0.794297 0.919502 0
lowpoly_metal.001
0  -0.372020 0.796986 2.091472  0.000000 1.000000 0.000000  0.035137 0.720527 0
0  -0.301652 0.796986 -4.164019  0.000000 1.000000 0.000000  0.035144 0.723254 0
0  -0.372020 0.796986 -4.164019  0.000000 1.000000 0.000000  0.034813 0.723254 0
lowpoly_plastic
0  0.000232 -0.338578 -4.850227  0.000001 0.000000 -1.000000  0.794900 0.919502 0
0  0.324779 -0.385314 -4.850227  0.000001 0.000000 -1.000000  0.794302 0.919502 0
0  0.000232 -0.390519 -4.850227  0.000001 0.000000 -1.000000  0.794900 0.919502 0
lowpoly_plastic
0  0.372484 0.204120 -4.853449  0.000000 -0.021205 -0.999775  0.793976 0.919502 0
0  0.424425 0.709795 -4.864174  0.000000 -0.021205 -0.999775  0.794297 0.919502 0
0  0.424425 0.204120 -4.853449  0.000000 -0.021205 -0.999775  0.793976 0.919502 0
lowpoly_metal.001
0  -0.327726 -0.382672 -5.706662  0.000000 -0.027022 -0.999635  0.062799 0.795793 0
0  0.417730 -0.293133 -5.709083  0.000000 -0.027022 -0.999635  0.062875 0.795743 0
0  0.328191 -0.382672 -5.706662  0.000000 -0.027022 -0.999635  0.062866 0.795793 0
lowpoly_metal.001
0  -0.292816 0.709795 2.892540  -0.995148 0.000000 0.098394  0.034417 0.720082 0
0  -0.372020 0.796986 2.091472  -0.995148 0.000000 0.098394  0.034466 0.720527 0
0  -0.372020 0.709795 2.091472  -0.995148 0.000000 0.098394  0.034417 0.720527 0
lowpoly_metal.001
0  0.417730 -0.293133 -5.653681  0.000000 0.027011 0.999635  0.062959 0.795122 0
0  -0.327726 -0.382672 -5.651261  0.000000 0.027011 0.999635  0.062884 0.795072 0
0  0.328191 -0.382672 -5.651261  0.000000 0.027011 0.999635  0.062950 0.795072 0
lowpoly_metal.001
0  -0.327726 -0.382672 -5.651261  0.000000 0.027011 0.999635  0.062884 0.795072 0
0  0.417730 -0.293133 -5.653681  0.000000 0.027011 0.999635  0.062959 0.795122 0
0  -0.417265 -0.293133 -5.653681  0.000000 0.027011 0.999635  0.062875 0.795122 0
lowpoly_metal.001
0  -0.437023 0.373631 -1.385512  -1.000000 0.000000 0.000000  0.036010 0.720257 0
0  -0.437023 0.211756 -1.385512  -1.000000 0.000000 0.000000  0.036010 0.720347 0
0  -0.437023 0.085182 -1.243483  -1.000000 0.000000 0.000000  0.035930 0.720417 0
lowpoly_metal.001
0  -0.437023 0.085182 -1.285688  -1.000000 0.000000 0.000000  0.035954 0.720417 0
0  -0.437023 0.085182 -1.243483  -1.000000 0.000000 0.000000  0.035930 0.720417 0
0  -0.437023 0.211756 -1.385512  -1.000000 0.000000 0.000000  0.036010 0.720347 0
lowpoly_metal.001
0  -0.437023 0.500203 -1.243483  -1.000000 0.000000 0.000000  0.035930 0.720186 0
0  -0.437023 0.500203 -1.285688  -1.000000 0.000000 0.000000  0.035954 0.720186 0
0  -0.437023 0.373631 -1.385512  -1.000000 0.000000 0.000000  0.036010 0.720257 0
lowpoly_metal.001
0  0.302116 -0.338578 -5.665760  0.000000 -1.000000 0.000000  0.035722 0.719955 0
0  0.000232 -0.338578 -4.850227  0.000000 -1.000000 0.000000  0.035691 0.720302 0
0  0.000232 -0.338578 -5.665760  0.000000 -1.000000 0.000000  0.035691 0.719955 0
lowpoly_metal.001
0  0.302115 0.796986 -5.662751  0.000000 1.000000 0.000000  0.035205 0.723826 0
0  0.372484 0.796986 -4.847535  0.000000 1.000000 0.000000  0.035176 0.721946 0
0  0.372484 0.796986 -5.662751  0.000000 1.000000 0.000000  0.035212 0.723826 0
lowpoly_metal.001
0  0.437487 0.211756 -1.385512  1.000000 0.000000 0.000000  0.036010 0.720026 0
0  0.437487 0.373631 -1.385512  1.000000 0.000000 0.000000  0.036010 0.720116 0
0  0.437487 0.500203 -1.243483  1.000000 0.000000 0.000000  0.035930 0.720186 0
lowpoly_metal.001
0  0.437487 0.500203 -1.285688  1.000000 0.000001 0.000000  0.035954 0.720186 0
0  0.437487 0.500203 -1.243483  1.000000 0.000001 0.000000  0.035930 0.720186 0
0  0.437487 0.373631 -1.385512  1.000000 0.000001 0.000000  0.036010 0.720116 0
lowpoly_metal.001
0  0.437487 0.085182 -1.243483  1.000000 0.000000 0.000000  0.035930 0.719956 0
0  0.437487 0.085182 -1.285688  1.000000 0.000000 0.000000  0.035954 0.719956 0
0  0.437487 0.211756 -1.385512  1.000000 0.000000 0.000000  0.036010 0.720026 0
lowpoly_plastic
0  0.000232 -0.338578 -4.166505  -0.000000 0.000000 1.000000  0.794900 0.919727 0
0  -0.324375 -0.385285 -4.166505  -0.000000 0.000000 1.000000  0.793935 0.921092 0
0  0.000232 -0.390519 -4.166505  -0.000000 0.000000 1.000000  0.794900 0.919727 0
lowpoly_metal.001
0  0.372484 0.225215 -5.669360  1.000000 0.000000 0.000000  0.034780 0.719955 0
0  0.372484 0.709795 -4.864174  1.000000 0.000000 0.000000  0.035088 0.720302 0
0  0.372484 0.204120 -4.853449  1.000000 0.000000 0.000000  0.034768 0.720302 0
lowpoly_plastic
0  0.372484 0.796986 -4.847535  0.000003 0.000000 -1.000000  0.794384 0.921147 0
0  0.302115 0.848927 -4.847535  0.000003 0.000000 -1.000000  0.794414 0.922680 0
0  0.411229 0.831579 -4.847535  0.000003 0.000000 -1.000000  0.794384 0.921147 0
lowpoly_plastic
0  0.302115 0.796986 -4.164019  0.000001 0.000000 1.000000  0.794414 0.922455 0
0  0.406993 0.835806 -4.164019  0.000001 0.000000 1.000000  0.794384 0.921139 0
0  0.302115 0.848927 -4.164019  0.000001 0.000000 1.000000  0.794414 0.922455 0
lowpoly_plastic
0  -0.301651 -0.338578 -4.166505  0.002945 -0.001434 0.999995  0.793935 0.921092 0
0  -0.421097 -0.266110 -4.166049  0.002945 -0.001434 0.999995  0.793053 0.922455 0
0  -0.324375 -0.385285 -4.166505  0.002945 -0.001434 0.999995  0.793935 0.921092 0
lowpoly_metal.001
0  0.372484 -0.249101 -5.665208  1.000000 0.000001 0.000000  0.034516 0.719955 0
0  0.372484 0.204120 -4.853449  1.000000 0.000001 0.000000  0.034768 0.720302 0
0  0.372484 -0.249101 -4.849733  1.000000 0.000001 0.000000  0.034516 0.720302 0
lowpoly_metal.001
0  -0.372020 0.225215 -5.669360  -1.000000 0.000000 0.000000  0.034108 0.723826 0
0  -0.372020 0.709795 -4.864174  -1.000000 0.000000 0.000000  0.034417 0.723480 0
0  -0.372020 0.709795 -5.681345  -1.000000 0.000000 0.000000  0.034417 0.723826 0
lowpoly_plastic
0  -0.372020 0.190428 -4.169481  0.000000 0.019071 0.999818  0.793298 0.922455 0
0  -0.423961 0.709795 -4.179388  0.000000 0.019071 0.999818  0.793626 0.922455 0
0  -0.423961 0.190428 -4.169481  0.000000 0.019071 0.999818  0.793298 0.922455 0
lowpoly_metal.001
0  -0.301652 0.796986 2.091472  0.000000 1.000000 0.000000  0.035144 0.720527 0
0  0.000232 0.796986 -4.164019  0.000000 1.000000 0.000000  0.035175 0.723254 0
0  -0.301652 0.796986 -4.164019  0.000000 1.000000 0.000000  0.035144 0.723254 0
lowpoly_metal.001
0  0.372484 -0.249101 2.091471  0.786042 -0.618173 -0.000000  0.034516 0.723254 0
0  0.302116 -0.338578 -4.166505  0.786042 -0.618173 -0.000000  0.035093 0.720527 0
0  0.372484 -0.249101 -4.166049  0.786042 -0.618173 -0.000000  0.034516 0.720527 0
lowpoly_metal.001
0  -0.437023 0.085182 -1.243483  0.000000 -1.000000 0.000000  0.035212 0.722084 0
0  0.437487 0.085182 -1.285688  0.000000 -1.000000 0.000000  0.035236 0.722172 0
0  0.437487 0.085182 -1.243483  0.000000 -1.000000 0.000000  0.035212 0.722172 0
lowpoly_plastic
0  -0.406529 0.835806 -4.164019  -0.157014 0.987583 -0.005134  0.892459 0.924005 0
0  -0.301652 0.848927 -4.847535  -0.157014 0.987583 -0.005134  0.892790 0.924230 0
0  -0.410766 0.831579 -4.847535  -0.157014 0.987583 -0.005134  0.892459 0.924230 0
lowpoly_plastic
0  0.000232 0.848927 -4.847535  0.000000 1.000000 0.000000  0.892821 0.924230 0
0  0.302115 0.848927 -4.164019  0.000000 1.000000 0.000000  0.892851 0.924005 0
0  0.302115 0.848927 -4.847535  0.000000 1.000000 0.000000  0.892851 0.924230 0
lowpoly_plastic
0  0.302115 0.848927 -4.847535  0.157014 0.987583 -0.005134  0.892851 0.924230 0
0  0.406993 0.835806 -4.164019  0.157014 0.987583 -0.005134  0.892822 0.922689 0
0  0.411229 0.831579 -4.847535  0.157014 0.987583 -0.005134  0.892822 0.922697 0
lowpoly_plastic
0  -0.423961 0.204120 -4.853449  -1.000000 0.000000 0.000000  0.891743 0.924230 0
0  -0.423961 0.709795 -4.179388  -1.000000 0.000000 0.000000  0.892063 0.924005 0
0  -0.423961 0.709795 -4.864174  -1.000000 0.000000 0.000000  0.892063 0.924230 0
lowpoly_plastic
0  -0.421112 -0.266068 -4.849733  -0.776457 -0.630170 -0.000022  0.891491 0.924230 0
0  -0.324375 -0.385285 -4.166505  -0.776457 -0.630170 -0.000022  0.892373 0.922642 0
0  -0.421097 -0.266110 -4.166049  -0.776457 -0.630170 -0.000022  0.891491 0.924005 0
lowpoly_plastic
0  -0.421112 -0.266068 -4.849733  -0.999982 -0.006062 -0.000121  0.891491 0.924230 0
0  -0.423961 0.190428 -4.169481  -0.999982 -0.006062 -0.000121  0.891735 0.924005 0
0  -0.423961 0.204120 -4.853449  -0.999982 -0.006062 -0.000121  0.891743 0.924230 0
lowpoly_plastic
0  0.424425 0.204120 -4.853449  1.000000 0.000000 0.000000  0.892414 0.921053 0
0  0.424425 0.709795 -4.179388  1.000000 0.000000 0.000000  0.892734 0.921278 0
0  0.424425 0.190428 -4.169481  1.000000 0.000000 0.000000  0.892406 0.921278 0
lowpoly_plastic
0  -0.301652 0.848927 -4.164019  0.000000 1.000000 0.000000  0.892790 0.924005 0
0  0.000232 0.848927 -4.847535  0.000000 1.000000 0.000000  0.892821 0.924230 0
0  -0.301652 0.848927 -4.847535  0.000000 1.000000 0.000000  0.892790 0.924230 0
lowpoly_plastic
0  -0.423961 0.709795 -4.179388  -0.994181 0.107721 0.000000  0.892063 0.924005 0
0  -0.410766 0.831579 -4.847535  -0.994181 0.107721 0.000000  0.892459 0.924230 0
0  -0.423961 0.709795 -4.864174  -0.994181 0.107721 0.000000  0.892063 0.924230 0
lowpoly_plastic
0  0.421561 -0.266110 -4.166049  0.776403 -0.630237 -0.000022  0.892162 0.921278 0
0  0.324779 -0.385314 -4.850227  0.776403 -0.630237 -0.000022  0.892739 0.921053 0
0  0.421576 -0.266068 -4.849733  0.776403 -0.630237 -0.000022  0.892162 0.921053 0
lowpoly_plastic
0  0.411229 0.831579 -4.847535  0.994181 0.107723 0.000000  0.892822 0.922697 0
0  0.424425 0.709795 -4.179388  0.994181 0.107723 0.000000  0.892734 0.921278 0
0  0.424425 0.709795 -4.864174  0.994181 0.107723 0.000000  0.892734 0.921053 0
lowpoly_plastic
0  0.324779 -0.385314 -4.850227  0.016036 -0.999871 0.000000  0.892739 0.921053 0
0  0.000232 -0.390519 -4.166505  0.016036 -0.999871 0.000000  0.893337 0.921278 0
0  0.000232 -0.390519 -4.850227  0.016036 -0.999871 0.000000  0.893337 0.921053 0
lowpoly_plastic
0  0.000232 -0.390519 -4.166505  -0.016036 -0.999871 0.000000  0.893337 0.921278 0
0  -0.324315 -0.385314 -4.850227  -0.016036 -0.999871 0.000000  0.892373 0.922642 0
0  0.000232 -0.390519 -4.850227  -0.016036 -0.999871 0.000000  0.893337 0.921053 0
lowpoly_plastic
0  0.421576 -0.266068 -4.849733  0.999980 -0.006273 0.000021  0.892162 0.921053 0
0  0.424425 0.190428 -4.169481  0.999980 -0.006273 0.000021  0.892406 0.921278 0
0  0.421561 -0.266110 -4.166049  0.999980 -0.006273 0.000021  0.892162 0.921278 0
lowpoly_plastic
0  -0.301652 0.796986 -4.164019  0.000000 0.000000 1.000000  0.794353 0.922455 0
0  0.000232 0.848927 -4.164019  0.000000 0.000000 1.000000  0.794383 0.922455 0
0  -0.301652 0.848927 -4.164019  0.000000 0.000000 1.000000  0.794353 0.922455 0
lowpoly_plastic
0  -0.372020 0.709795 -4.179388  0.000000 -0.121072 0.992644  0.793626 0.922455 0
0  -0.406529 0.835806 -4.164019  0.000000 -0.121072 0.992644  0.794021 0.922455 0
0  -0.423961 0.709795 -4.179388  0.000000 -0.121072 0.992644  0.793626 0.922455 0
lowpoly_plastic
0  -0.372020 -0.249101 -4.849733  -0.001129 0.003235 -0.999994  0.793053 0.922680 0
0  -0.324315 -0.385314 -4.850227  -0.001129 0.003235 -0.999994  0.793935 0.921092 0
0  -0.421112 -0.266068 -4.849733  -0.001129 0.003235 -0.999994  0.793053 0.922680 0
lowpoly_plastic
0  0.302116 -0.338578 -4.166505  0.000000 0.000000 1.000000  0.794302 0.919728 0
0  0.000232 -0.390519 -4.166505  0.000000 0.000000 1.000000  0.794900 0.919727 0
0  0.324839 -0.385285 -4.166505  0.000000 0.000000 1.000000  0.794302 0.919728 0
lowpoly_plastic
0  -0.372020 0.796986 -4.164019  -0.000002 0.000000 1.000000  0.794021 0.922455 0
0  -0.301652 0.848927 -4.164019  -0.000002 0.000000 1.000000  0.794353 0.922455 0
0  -0.406529 0.835806 -4.164019  -0.000002 0.000000 1.000000  0.794021 0.922455 0
lowpoly_plastic
0  0.372484 0.190428 -4.169481  0.000000 0.007518 0.999972  0.793969 0.919728 0
0  0.421561 -0.266110 -4.166049  0.000000 0.007518 0.999972  0.793724 0.919728 0
0  0.424425 0.190428 -4.169481  0.000000 0.007518 0.999972  0.793969 0.919728 0
lowpoly_plastic
0  0.302116 -0.338578 -4.850227  0.003200 0.001549 -0.999994  0.794302 0.919502 0
0  0.421576 -0.266068 -4.849733  0.003200 0.001549 -0.999994  0.793724 0.919502 0
0  0.324779 -0.385314 -4.850227  0.003200 0.001549 -0.999994  0.794302 0.919502 0
lowpoly_plastic
0  -0.372020 0.796986 -4.847535  0.109719 0.122872 -0.986339  0.794022 0.922680 0
0  -0.423961 0.709795 -4.864174  0.109719 0.122872 -0.986339  0.793626 0.922680 0
0  -0.410766 0.831579 -4.847535  0.109719 0.122872 -0.986339  0.794022 0.922680 0
lowpoly_plastic
0  0.372484 -0.249101 -4.166049  -0.001034 -0.002985 0.999995  0.793724 0.919728 0
0  0.324839 -0.385285 -4.166505  -0.001034 -0.002985 0.999995  0.794302 0.919728 0
0  0.421561 -0.266110 -4.166049  -0.001034 -0.002985 0.999995  0.793724 0.919728 0
lowpoly_plastic
0  -0.301651 -0.338578 -4.850227  -0.000001 0.000000 -1.000000  0.793935 0.921092 0
0  0.000232 -0.390519 -4.850227  -0.000001 0.000000 -1.000000  0.794900 0.919502 0
0  -0.324315 -0.385314 -4.850227  -0.000001 0.000000 -1.000000  0.793935 0.921092 0
lowpoly_plastic
0  0.372484 -0.249101 -4.849733  -0.002721 -0.007885 -0.999965  0.793724 0.919502 0
0  0.424425 0.204120 -4.853449  -0.002721 -0.007885 -0.999965  0.793976 0.919502 0
0  0.421576 -0.266068 -4.849733  -0.002721 -0.007885 -0.999965  0.793724 0.919502 0
lowpoly_plastic
0  0.000232 0.796986 -4.164019  0.000000 0.000000 1.000000  0.794383 0.922455 0
0  0.302115 0.848927 -4.164019  0.000000 0.000000 1.000000  0.794414 0.922455 0
0  0.000232 0.848927 -4.164019  0.000000 0.000000 1.000000  0.794383 0.922455 0
lowpoly_plastic
0  -0.372020 0.709795 -4.864174  0.000000 -0.021205 -0.999775  0.793626 0.922680 0
0  -0.423961 0.204120 -4.853449  0.000000 -0.021205 -0.999775  0.793305 0.922680 0
0  -0.423961 0.709795 -4.864174  0.000000 -0.021205 -0.999775  0.793626 0.922680 0
lowpoly_plastic
0  -0.372020 0.204120 -4.853449  0.000000 -0.007902 -0.999969  0.793305 0.922680 0
0  -0.421112 -0.266068 -4.849733  0.000000 -0.007902 -0.999969  0.793053 0.922680 0
0  -0.423961 0.204120 -4.853449  0.000000 -0.007902 -0.999969  0.793305 0.922680 0
lowpoly_metal.001
0  -0.222447 0.796986 2.892540  0.952172 0.000000 -0.305564  0.035338 0.721198 0
0  -0.149690 0.796986 3.119259  0.952172 0.000000 -0.305564  0.035212 0.721198 0
0  -0.149690 0.709795 3.119259  0.952172 0.000000 -0.305564  0.035212 0.721150 0
lowpoly_metal.001
0  0.372484 0.796986 -5.662751  0.000000 0.208564 -0.978009  0.035797 0.721354 0
0  0.372484 0.709795 -5.681345  0.000000 0.208564 -0.978009  0.035797 0.721403 0
0  0.302115 0.709795 -5.681345  0.000000 0.208564 -0.978009  0.035790 0.721403 0
lowpoly_metal.001
0  0.372484 0.225215 -5.669360  0.000000 -0.008754 -0.999962  0.035797 0.721712 0
0  0.372484 -0.249101 -5.665208  0.000000 -0.008754 -0.999962  0.035797 0.721976 0
0  0.302116 -0.249101 -5.665208  0.000000 -0.008754 -0.999962  0.035790 0.721976 0
lowpoly_metal.001
0  -0.374458 0.381880 -1.463037  0.000000 0.619260 -0.785186  0.035995 0.721742 0
0  -0.374458 0.500203 -1.369718  0.000000 0.619260 -0.785186  0.035995 0.721676 0
0  0.374922 0.500203 -1.369718  0.000000 0.619260 -0.785186  0.036071 0.721676 0
lowpoly_metal.001
0  -0.222447 -0.001413 2.892540  0.000000 0.000000 1.000000  0.035938 0.720605 0
0  -0.292816 -0.001413 2.892540  0.000000 0.000000 1.000000  0.035930 0.720605 0
0  -0.292816 -0.249101 2.892540  0.000000 0.000000 1.000000  0.035930 0.720467 0
lowpoly_metal.001
0  0.000232 -0.338578 -5.665760  0.000000 0.006171 -0.999981  0.035759 0.722025 0
0  -0.301651 -0.338578 -5.665760  0.000000 0.006171 -0.999981  0.035729 0.722025 0
0  -0.301651 -0.249101 -5.665208  0.000000 0.006171 -0.999981  0.035729 0.721976 0
lowpoly_metal.001
0  0.374922 0.203506 -1.463037  0.000000 0.000000 -1.000000  0.036071 0.721842 0
0  -0.374458 0.203506 -1.463037  0.000000 0.000000 -1.000000  0.035995 0.721842 0
0  -0.374458 0.381880 -1.463037  0.000000 0.000000 -1.000000  0.035995 0.721742 0
lowpoly_metal.001
0  0.302115 0.796986 -5.662751  0.000000 0.208565 -0.978009  0.035790 0.721354 0
0  0.302115 0.709795 -5.681345  0.000000 0.208565 -0.978009  0.035790 0.721403 0
0  0.000232 0.709795 -5.681345  0.000000 0.208565 -0.978009  0.035759 0.721403 0
lowpoly_metal.001
0  -0.374458 0.085182 -1.369719  0.000000 -1.000000 0.000000  0.035283 0.722090 0
0  0.374922 0.085182 -1.369718  0.000000 -1.000000 0.000000  0.035283 0.722166 0
0  0.437487 0.085182 -1.285688  0.000000 -1.000000 0.000000  0.035236 0.722172 0
lowpoly_metal.001
0  0.372484 -0.249101 -4.849733  0.786042 -0.618173 0.000000  0.034516 0.720302 0
0  0.302116 -0.338578 -4.850227  0.786042 -0.618173 0.000000  0.035093 0.720302 0
0  0.302116 -0.338578 -5.665760  0.786042 -0.618173 0.000000  0.034466 0.719955 0
lowpoly_metal.001
0  0.000232 -0.338578 -4.850227  0.000000 -1.000000 0.000000  0.035691 0.720302 0
0  -0.301651 -0.338578 -4.850227  0.000000 -1.000000 0.000000  0.034727 0.721892 0
0  -0.301651 -0.338578 -5.665760  0.000000 -1.000000 0.000000  0.035661 0.719955 0
lowpoly_metal.001
0  0.222911 0.709795 2.892540  -0.990765 0.000000 -0.135591  0.035338 0.720004 0
0  0.302115 0.709795 2.313789  -0.990765 0.000000 -0.135591  0.035661 0.720004 0
0  0.302115 0.225214 2.313789  -0.990765 0.000000 -0.135591  0.035661 0.720313 0
lowpoly_metal.001
0  0.302115 0.709795 -5.681345  0.000000 -0.024725 -0.999694  0.035790 0.721403 0
0  0.302115 0.225215 -5.669360  0.000000 -0.024725 -0.999694  0.035790 0.721712 0
0  0.000232 0.225215 -5.669360  0.000000 -0.024725 -0.999694  0.035759 0.721712 0
lowpoly_metal.001
0  0.000232 0.709795 2.313789  -0.000002 0.000000 1.000000  0.035921 0.721206 0
0  -0.301652 0.709795 2.313789  -0.000002 0.000000 1.000000  0.035891 0.721206 0
0  -0.301652 0.225214 2.313789  -0.000002 0.000000 1.000000  0.035891 0.720897 0
lowpoly_metal.001
0  -0.149690 0.796986 3.119259  0.000000 0.000000 1.000000  0.036081 0.720333 0
0  -0.220059 0.796986 3.119259  0.000000 0.000000 1.000000  0.036073 0.720333 0
0  -0.220058 0.709795 3.119259  0.000000 0.000000 1.000000  0.036073 0.720285 0
lowpoly_metal.001
0  0.293280 -0.249101 2.892540  0.000000 0.000000 1.000000  0.035990 0.720467 0
0  0.293280 -0.001413 2.892540  0.000000 0.000000 1.000000  0.035990 0.720605 0
0  0.222911 -0.001413 2.892540  0.000000 0.000000 1.000000  0.035983 0.720605 0
lowpoly_metal.001
0  -0.222447 0.796986 2.892540  0.000000 1.000000 0.000000  0.035152 0.720082 0
0  -0.292816 0.796986 2.892540  0.000000 1.000000 0.000000  0.035145 0.720082 0
0  -0.220059 0.796986 3.119259  0.000000 1.000000 0.000000  0.035152 0.719955 0
lowpoly_metal.001
0  0.220522 0.709795 3.119259  0.000000 0.000000 1.000000  0.036083 0.720747 0
0  0.220522 0.796986 3.119259  0.000000 0.000000 1.000000  0.036083 0.720795 0
0  0.150154 0.796986 3.119259  0.000000 0.000000 1.000000  0.036076 0.720795 0
lowpoly_metal.001
0  0.372484 -0.249101 2.091471  0.995148 0.000000 0.098394  0.034516 0.723254 0
0  0.372484 0.024556 2.091471  0.995148 0.000000 0.098394  0.034668 0.723254 0
0  0.293280 -0.001413 2.892540  0.995148 0.000000 0.098394  0.034654 0.723700 0
lowpoly_metal.001
0  -0.417265 0.842454 -5.661052  -1.000000 0.000000 0.000000  0.062698 0.795637 0
0  -0.417265 0.842454 -5.716453  -1.000000 0.000000 0.000000  0.062729 0.795637 0
0  -0.417265 -0.293133 -5.709083  -1.000000 0.000000 0.000000  0.062729 0.796308 0
lowpoly_metal.001
0  -0.327726 -0.382672 -5.706662  -0.707107 -0.707107 0.000000  0.062729 0.796358 0
0  -0.327726 -0.382672 -5.651261  -0.707107 -0.707107 0.000000  0.062698 0.796358 0
0  -0.417265 -0.293133 -5.653681  -0.707107 -0.707107 0.000000  0.062698 0.796308 0
lowpoly_metal.001
0  -0.372020 0.190428 -4.169481  -1.000000 -0.000000 0.000000  0.034089 0.723254 0
0  -0.372020 0.024556 2.091471  -1.000000 -0.000000 0.000000  0.033997 0.720527 0
0  -0.372020 0.709795 2.091472  -1.000000 -0.000000 0.000000  0.034417 0.720527 0
lowpoly_metal.001
0  0.417730 -0.293133 -5.709083  0.000000 -0.006490 -0.999979  0.062875 0.795743 0
0  -0.417265 -0.293133 -5.709083  0.000000 -0.006490 -0.999979  0.062790 0.795743 0
0  -0.417265 0.842454 -5.716453  0.000000 -0.006490 -0.999979  0.062790 0.795072 0
lowpoly_metal.001
0  -0.327726 -0.382672 -5.651261  0.000000 -1.000000 0.000000  0.062421 0.796522 0
0  -0.327726 -0.382672 -5.706662  0.000000 -1.000000 0.000000  0.062452 0.796522 0
0  0.328191 -0.382672 -5.706662  0.000000 -1.000000 0.000000  0.062452 0.796589 0
lowpoly_metal.001
0  -0.292816 0.709795 2.892540  -0.952172 -0.000005 0.305564  0.034417 0.720082 0
0  -0.220058 0.709795 3.119259  -0.952172 -0.000005 0.305564  0.034417 0.719955 0
0  -0.220059 0.796986 3.119259  -0.952172 -0.000005 0.305564  0.034465 0.719955 0
lowpoly_metal.001
0  0.302116 -0.249101 -5.665208  0.000000 0.006171 -0.999981  0.035790 0.721976 0
0  0.302116 -0.338578 -5.665760  0.000000 0.006171 -0.999981  0.035790 0.722025 0
0  0.000232 -0.338578 -5.665760  0.000000 0.006171 -0.999981  0.035759 0.722025 0
lowpoly_plastic
0  0.302115 0.796986 -4.847535  0.000000 0.000000 -1.000000  0.794414 0.922680 0
0  0.000232 0.796986 -4.847535  0.000000 0.000000 -1.000000  0.794383 0.922680 0
0  0.000232 0.848927 -4.847535  0.000000 0.000000 -1.000000  0.794383 0.922680 0
lowpoly_metal.001
0  0.374922 0.500203 -1.369718  0.000000 1.000000 0.000000  0.035283 0.722166 0
0  -0.374458 0.500203 -1.369718  0.000000 1.000000 0.000000  0.035283 0.722090 0
0  -0.437023 0.500203 -1.285688  0.000000 1.000000 0.000000  0.035329 0.722084 0
lowpoly_metal.001
0  -0.437023 0.373631 -1.385512  -0.725631 0.426100 -0.540277  0.036010 0.720257 0
0  -0.437023 0.500203 -1.285688  -0.725631 0.426100 -0.540277  0.035954 0.720186 0
0  -0.374458 0.500203 -1.369718  -0.725631 0.426100 -0.540277  0.036001 0.720187 0
lowpoly_metal.001
0  0.437487 0.211756 -1.385512  0.725632 -0.426097 -0.540277  0.036010 0.720026 0
0  0.437487 0.085182 -1.285688  0.725632 -0.426097 -0.540277  0.035954 0.719956 0
0  0.374922 0.085182 -1.369718  0.725632 -0.426097 -0.540277  0.036001 0.719955 0
lowpoly_metal.001
0  0.437487 0.373631 -1.385512  0.725635 0.426101 -0.540270  0.036010 0.720116 0
0  0.374922 0.381880 -1.463037  0.725635 0.426101 -0.540270  0.036053 0.720120 0
0  0.374922 0.500203 -1.369718  0.725635 0.426101 -0.540270  0.036001 0.720186 0
lowpoly_metal.001
0  -0.292816 0.796986 2.892540  0.000000 1.000000 0.000000  0.035145 0.720082 0
0  -0.222447 0.796986 2.892540  0.000000 1.000000 0.000000  0.035152 0.720082 0
0  -0.301652 0.796986 2.091472  0.000000 1.000000 0.000000  0.035144 0.720527 0
lowpoly_metal.001
0  0.437487 0.211756 -1.385512  0.778190 0.000000 -0.628029  0.036010 0.720026 0
0  0.374922 0.203506 -1.463037  0.778190 0.000000 -0.628029  0.036053 0.720021 0
0  0.374922 0.381880 -1.463037  0.778190 0.000000 -0.628029  0.036053 0.720120 0
lowpoly_metal.001
0  0.000232 0.709795 -5.681345  0.000000 0.208565 -0.978009  0.035759 0.721403 0
0  -0.301652 0.709795 -5.681345  0.000000 0.208565 -0.978009  0.035729 0.721403 0
0  -0.301652 0.796986 -5.662751  0.000000 0.208565 -0.978009  0.035729 0.721354 0
lowpoly_metal.001
0  0.302115 0.225215 -5.669360  0.000000 -0.008754 -0.999962  0.035790 0.721712 0
0  0.302116 -0.249101 -5.665208  0.000000 -0.008754 -0.999962  0.035790 0.721976 0
0  0.000232 -0.249101 -5.665208  0.000000 -0.008754 -0.999962  0.035759 0.721976 0
lowpoly_metal.001
0  0.220522 0.188204 3.119259  0.000000 -0.767082 0.641549  0.036018 0.721187 0
0  0.150154 0.188204 3.119259  0.000000 -0.767082 0.641549  0.036025 0.721187 0
0  0.222911 -0.001413 2.892540  0.000000 -0.767082 0.641549  0.036025 0.721313 0
lowpoly_metal.001
0  0.372484 0.024556 2.091471  0.995148 0.000000 0.098394  0.034668 0.723254 0
0  0.372484 0.709795 2.091472  0.995148 0.000000 0.098394  0.035088 0.723254 0
0  0.293279 0.709795 2.892540  0.995148 0.000000 0.098394  0.035088 0.723700 0
lowpoly_metal.001
0  0.293280 -0.249101 2.892540  0.783679 -0.616315 0.077485  0.034516 0.723700 0
0  0.222911 -0.338579 2.892540  0.783679 -0.616315 0.077485  0.034466 0.723700 0
0  0.302116 -0.338578 2.091471  0.783679 -0.616315 0.077485  0.034466 0.723254 0
lowpoly_metal.001
0  0.000232 0.225214 2.313789  0.000000 0.000000 1.000000  0.035921 0.720897 0
0  -0.301652 0.225214 2.313789  0.000000 0.000000 1.000000  0.035891 0.720897 0
0  -0.301651 -0.249101 2.313789  0.000000 0.000000 1.000000  0.035891 0.720633 0
lowpoly_metal.001
0  -0.301651 -0.249101 -5.665208  0.000000 -0.008754 -0.999962  0.035729 0.721976 0
0  -0.372020 -0.249101 -5.665208  0.000000 -0.008754 -0.999962  0.035722 0.721976 0
0  -0.372020 0.225215 -5.669360  0.000000 -0.008754 -0.999962  0.035722 0.721712 0
lowpoly_metal.001
0  0.302115 0.796986 2.091472  0.000000 1.000000 0.000000  0.035205 0.720527 0
0  0.222911 0.796986 2.892540  0.000000 1.000000 0.000000  0.035197 0.720082 0
0  0.293279 0.796986 2.892540  0.000000 1.000000 0.000000  0.035204 0.720082 0
lowpoly_metal.001
0  -0.301652 0.709795 -5.681345  0.000000 0.208565 -0.978009  0.035729 0.721403 0
0  -0.372020 0.709795 -5.681345  0.000000 0.208565 -0.978009  0.035722 0.721403 0
0  -0.372020 0.796986 -5.662751  0.000000 0.208565 -0.978009  0.035722 0.721354 0
lowpoly_metal.001
0  -0.149690 0.709795 3.119259  0.000000 0.000000 1.000000  0.036081 0.720285 0
0  -0.220058 0.709795 3.119259  0.000000 0.000000 1.000000  0.036073 0.720285 0
0  -0.220058 0.188204 3.119259  0.000000 0.000000 1.000000  0.036073 0.719955 0
lowpoly_metal.001
0  0.000232 0.796986 2.091472  0.000000 1.000000 0.000000  0.035175 0.720527 0
0  0.000232 0.796986 2.892540  0.000000 1.000000 0.000000  0.035175 0.720082 0
0  0.222911 0.796986 2.892540  0.000000 1.000000 0.000000  0.035197 0.720082 0
lowpoly_metal.001
0  -0.222447 -0.001413 2.892540  0.000000 -0.767082 0.641549  0.035795 0.722026 0
0  -0.149690 0.188204 3.119259  0.000000 -0.767082 0.641549  0.035795 0.722152 0
0  -0.220058 0.188204 3.119259  0.000000 -0.767082 0.641549  0.035787 0.722152 0
lowpoly_metal.001
0  0.222911 -0.249101 2.892540  0.000000 1.000000 0.000000  0.036036 0.720864 0
0  0.302116 -0.249101 2.313789  0.000000 1.000000 0.000000  0.036044 0.721187 0
0  0.000232 -0.249101 2.313789  0.000000 1.000000 0.000000  0.036013 0.721187 0
lowpoly_metal.001
0  0.417730 -0.293133 -5.653681  1.000000 0.000000 0.000000  0.063020 0.795122 0
0  0.417730 -0.293133 -5.709083  1.000000 0.000000 0.000000  0.063051 0.795122 0
0  0.417730 0.842454 -5.716453  1.000000 0.000000 0.000000  0.063051 0.795793 0
lowpoly_metal.001
0  -0.222447 -0.001413 2.892540  0.990765 0.000000 -0.135591  0.035338 0.720715 0
0  -0.222447 -0.249101 2.892540  0.990765 0.000000 -0.135591  0.035338 0.720577 0
0  -0.301651 -0.249101 2.313789  0.990765 0.000000 -0.135591  0.035661 0.720577 0
lowpoly_metal.001
0  0.372484 0.796986 2.091472  0.995148 0.000000 0.098394  0.035137 0.723254 0
0  0.293279 0.796986 2.892540  0.995148 0.000000 0.098394  0.035137 0.723700 0
0  0.293279 0.709795 2.892540  0.995148 0.000000 0.098394  0.035088 0.723700 0
lowpoly_metal.001
0  -0.301652 0.225215 -5.669360  0.000000 -0.024725 -0.999694  0.035729 0.721712 0
0  -0.372020 0.225215 -5.669360  0.000000 -0.024725 -0.999694  0.035722 0.721712 0
0  -0.372020 0.709795 -5.681345  0.000000 -0.024725 -0.999694  0.035722 0.721403 0
lowpoly_metal.001
0  -0.372020 0.024556 2.091471  -0.995148 0.000000 0.098394  0.033997 0.720527 0
0  -0.292816 -0.001413 2.892540  -0.995148 0.000000 0.098394  0.033982 0.720081 0
0  -0.292816 0.709795 2.892540  -0.995148 0.000000 0.098394  0.034417 0.720082 0
lowpoly_metal.001
0  0.374922 0.203506 -1.463037  0.000001 -0.619259 -0.785187  0.036071 0.721842 0
0  0.374922 0.085182 -1.369718  0.000001 -0.619259 -0.785187  0.036071 0.721907 0
0  -0.374458 0.085182 -1.369719  0.000001 -0.619259 -0.785187  0.035995 0.721907 0
lowpoly_metal.001
0  0.222911 0.796986 2.892540  0.000000 1.000000 0.000000  0.035197 0.720082 0
0  0.150154 0.796986 3.119259  0.000000 1.000000 0.000000  0.035190 0.719955 0
0  0.220522 0.796986 3.119259  0.000000 1.000000 0.000000  0.035197 0.719955 0
lowpoly_metal.001
0  0.000232 -0.249101 2.892540  0.000000 0.000000 1.000000  0.035960 0.720467 0
0  -0.222447 -0.249101 2.892540  0.000000 0.000000 1.000000  0.035938 0.720467 0
0  -0.222447 -0.338579 2.892540  0.000000 0.000000 1.000000  0.035938 0.720417 0
lowpoly_metal.001
0  0.293279 0.709795 2.892540  0.952171 0.000000 0.305564  0.035088 0.723700 0
0  0.220522 0.709795 3.119259  0.952171 0.000000 0.305564  0.035088 0.723826 0
0  0.220522 0.188204 3.119259  0.952171 0.000000 0.305564  0.034759 0.723826 0
lowpoly_metal.001
0  0.372484 -0.249101 -4.166049  1.000000 0.000001 -0.000000  0.034516 0.720527 0
0  0.372484 0.190428 -4.169481  1.000000 0.000001 -0.000000  0.034760 0.720527 0
0  0.372484 0.024556 2.091471  1.000000 0.000001 -0.000000  0.034668 0.723254 0
lowpoly_metal.001
0  -0.222447 -0.249101 2.892540  0.000000 1.000000 0.000000  0.035991 0.720864 0
0  0.000232 -0.249101 2.892540  0.000000 1.000000 0.000000  0.036013 0.720864 0
0  0.000232 -0.249101 2.313789  0.000000 1.000000 0.000000  0.036013 0.721187 0
lowpoly_metal.001
0  0.000232 0.796986 2.892540  0.000000 0.000000 1.000000  0.035913 0.721339 0
0  -0.222447 0.796986 2.892540  0.000000 0.000000 1.000000  0.035891 0.721339 0
0  -0.222447 0.709795 2.892540  0.000000 0.000000 1.000000  0.035891 0.721291 0
lowpoly_metal.001
0  0.372484 0.190428 -4.169481  1.000000 0.000000 0.000000  0.034760 0.720527 0
0  0.372484 0.709795 -4.179388  1.000000 0.000000 0.000000  0.035088 0.720527 0
0  0.372484 0.709795 2.091472  1.000000 0.000000 0.000000  0.035088 0.723254 0
lowpoly_metal.001
0  0.372484 0.796986 -4.164019  1.000000 0.000000 0.000000  0.035176 0.721939 0
0  0.372484 0.796986 2.091472  1.000000 0.000000 0.000000  0.035137 0.723254 0
0  0.372484 0.709795 2.091472  1.000000 0.000000 0.000000  0.035088 0.723254 0
lowpoly_metal.001
0  0.417730 -0.293133 -5.653681  0.000000 0.006491 0.999979  0.062959 0.795122 0
0  0.417730 0.842454 -5.661052  0.000000 0.006491 0.999979  0.062959 0.795793 0
0  -0.417265 0.842454 -5.661052  0.000000 0.006491 0.999979  0.062875 0.795793 0
lowpoly_metal.001
0  -0.372020 -0.249101 -4.166049  -1.000000 0.000000 0.000000  0.033845 0.723254 0
0  -0.372020 -0.249101 2.091471  -1.000000 0.000000 0.000000  0.033845 0.720527 0
0  -0.372020 0.024556 2.091471  -1.000000 0.000000 0.000000  0.033997 0.720527 0
lowpoly_metal.001
0  -0.292816 0.709795 2.892540  -0.952171 0.000000 0.305565  0.034417 0.720082 0
0  -0.292816 -0.001413 2.892540  -0.952171 0.000000 0.305565  0.033982 0.720081 0
0  -0.220058 0.188204 3.119259  -0.952171 0.000000 0.305565  0.034088 0.719955 0
lowpoly_metal.001
0  -0.222447 0.796986 2.892540  0.000000 1.000000 0.000000  0.035152 0.720082 0
0  0.000232 0.796986 2.892540  0.000000 1.000000 0.000000  0.035175 0.720082 0
0  0.000232 0.796986 2.091472  0.000000 1.000000 0.000000  0.035175 0.720527 0
lowpoly_metal.001
0  0.000232 -0.249101 -5.665208  0.000000 -0.008754 -0.999962  0.035759 0.721976 0
0  -0.301651 -0.249101 -5.665208  0.000000 -0.008754 -0.999962  0.035729 0.721976 0
0  -0.301652 0.225215 -5.669360  0.000000 -0.008754 -0.999962  0.035729 0.721712 0
lowpoly_metal.001
0  0.302115 0.225214 2.313789  0.000000 -0.000001 1.000000  0.035952 0.720897 0
0  0.302115 0.709795 2.313789  0.000000 -0.000001 1.000000  0.035952 0.721206 0
0  0.000232 0.709795 2.313789  0.000000 -0.000001 1.000000  0.035921 0.721206 0
lowpoly_metal.001
0  -0.372020 0.709795 -4.864174  -1.000000 0.000000 0.000000  0.034417 0.723480 0
0  -0.372020 0.796986 -4.847535  -1.000000 0.000000 0.000000  0.034813 0.723480 0
0  -0.372020 0.796986 -5.662751  -1.000000 0.000000 0.000000  0.034465 0.723826 0
lowpoly_metal.001
0  -0.222447 0.709795 2.892540  0.000000 -1.000000 0.000000  0.036048 0.721354 0
0  -0.301652 0.709795 2.313789  0.000000 -1.000000 0.000000  0.036056 0.721676 0
0  0.000232 0.709795 2.313789  0.000000 -1.000000 0.000000  0.036026 0.721676 0
lowpoly_metal.001
0  -0.301652 0.796986 -4.847535  0.000000 1.000000 0.000000  0.035144 0.723480 0
0  0.000232 0.796986 -4.847535  0.000000 1.000000 0.000000  0.035175 0.723480 0
0  0.000232 0.796986 -5.662751  0.000000 1.000000 0.000000  0.035175 0.723826 0
lowpoly_metal.001
0  0.000232 -0.338578 2.091471  0.000000 -1.000000 -0.000001  0.035691 0.723254 0
0  0.000232 -0.338579 2.892540  0.000000 -1.000000 -0.000001  0.035691 0.723700 0
0  -0.222447 -0.338579 2.892540  0.000000 -1.000000 -0.000001  0.035669 0.723700 0
lowpoly_metal.001
0  -0.222447 0.709795 2.892540  0.990765 0.000001 -0.135591  0.035338 0.721149 0
0  -0.222447 -0.001413 2.892540  0.990765 0.000001 -0.135591  0.035338 0.720715 0
0  -0.301652 0.225214 2.313789  0.990765 0.000001 -0.135591  0.035661 0.720841 0
lowpoly_metal.001
0  0.000232 0.709795 2.313789  0.000000 -1.000000 0.000000  0.036026 0.721676 0
0  0.302115 0.709795 2.313789  0.000000 -1.000000 0.000000  0.035995 0.721676 0
0  0.222911 0.709795 2.892540  0.000000 -1.000000 0.000000  0.036003 0.721354 0
lowpoly_metal.001
0  -0.372020 -0.249101 -4.166049  -0.786041 -0.618174 0.000000  0.033845 0.723254 0
0  -0.301651 -0.338578 -4.166505  -0.786041 -0.618174 0.000000  0.034727 0.721892 0
0  -0.301651 -0.338578 2.091471  -0.786041 -0.618174 0.000000  0.033795 0.720527 0
lowpoly_metal.001
0  0.222911 -0.001413 2.892540  -0.990765 -0.000001 -0.135591  0.035338 0.720439 0
0  0.302115 0.225214 2.313789  -0.990765 -0.000001 -0.135591  0.035661 0.720313 0
0  0.302116 -0.249101 2.313789  -0.990765 -0.000001 -0.135591  0.035661 0.720577 0
lowpoly_metal.001
0  0.220522 0.188204 3.119259  0.000000 0.000000 1.000000  0.036083 0.720417 0
0  0.220522 0.709795 3.119259  0.000000 0.000000 1.000000  0.036083 0.720747 0
0  0.150154 0.709795 3.119259  0.000000 0.000000 1.000000  0.036076 0.720747 0
lowpoly_metal.001
0  0.302116 -0.249101 2.313789  0.000000 0.000000 1.000000  0.035952 0.720633 0
0  0.302115 0.225214 2.313789  0.000000 0.000000 1.000000  0.035952 0.720897 0
0  0.000232 0.225214 2.313789  0.000000 0.000000 1.000000  0.035921 0.720897 0
lowpoly_metal.001
0  0.222911 -0.338579 2.892540  0.000000 0.000000 1.000000  0.035983 0.720417 0
0  0.222911 -0.249101 2.892540  0.000000 0.000000 1.000000  0.035983 0.720467 0
0  0.000232 -0.249101 2.892540  0.000000 0.000000 1.000000  0.035960 0.720467 0
lowpoly_metal.001
0  -0.372020 -0.249101 2.091471  -0.995148 0.000000 0.098394  0.033845 0.720527 0
0  -0.292816 -0.249101 2.892540  -0.995148 0.000000 0.098394  0.033845 0.720081 0
0  -0.292816 -0.001413 2.892540  -0.995148 0.000000 0.098394  0.033982 0.720081 0
lowpoly_metal.001
0  0.372484 0.709795 -5.681345  0.000000 -0.024725 -0.999694  0.035797 0.721403 0
0  0.372484 0.225215 -5.669360  0.000000 -0.024725 -0.999694  0.035797 0.721712 0
0  0.302115 0.225215 -5.669360  0.000000 -0.024725 -0.999694  0.035790 0.721712 0
lowpoly_metal.001
0  0.437487 0.500203 -1.243483  0.000000 0.000000 1.000000  0.036071 0.720864 0
0  -0.437023 0.500203 -1.243483  0.000000 0.000000 1.000000  0.035983 0.720864 0
0  -0.437023 0.085182 -1.243483  0.000000 0.000000 1.000000  0.035983 0.720633 0
lowpoly_metal.001
0  0.150154 0.188204 3.119259  -0.952172 0.000000 -0.305564  0.035212 0.720333 0
0  0.150154 0.709795 3.119259  -0.952172 0.000000 -0.305564  0.035212 0.720004 0
0  0.222911 0.709795 2.892540  -0.952172 0.000000 -0.305564  0.035338 0.720004 0
lowpoly_metal.001
0  -0.222447 0.709795 2.892540  0.952172 0.000000 -0.305564  0.035338 0.721149 0
0  -0.149690 0.709795 3.119259  0.952172 0.000000 -0.305564  0.035212 0.721150 0
0  -0.149690 0.188204 3.119259  0.952172 0.000000 -0.305564  0.035212 0.720820 0
lowpoly_metal.001
0  0.417730 -0.293133 -5.709083  0.707109 -0.707105 0.000000  0.063051 0.795122 0
0  0.417730 -0.293133 -5.653681  0.707109 -0.707105 0.000000  0.063020 0.795122 0
0  0.328191 -0.382672 -5.651261  0.707109 -0.707105 0.000000  0.063020 0.795072 0
lowpoly_metal.001
0  -0.292816 -0.249101 2.892540  -0.783676 -0.616318 0.077485  0.033845 0.720081 0
0  -0.372020 -0.249101 2.091471  -0.783676 -0.616318 0.077485  0.033845 0.720527 0
0  -0.301651 -0.338578 2.091471  -0.783676 -0.616318 0.077485  0.033795 0.720527 0
lowpoly_metal.001
0  0.000232 0.796986 -4.164019  0.000000 1.000000 0.000000  0.035175 0.723254 0
0  0.000232 0.796986 2.091472  0.000000 1.000000 0.000000  0.035175 0.720527 0
0  0.302115 0.796986 2.091472  0.000000 1.000000 0.000000  0.035205 0.720527 0
lowpoly_metal.001
0  0.302115 0.796986 -4.164019  0.000000 1.000000 0.000000  0.035205 0.723254 0
0  0.302115 0.796986 2.091472  0.000000 1.000000 0.000000  0.035205 0.720527 0
0  0.372484 0.796986 2.091472  0.000000 1.000000 0.000000  0.035212 0.720527 0
lowpoly_metal.001
0  0.000232 -0.338578 2.091471  0.000000 -1.000000 -0.000001  0.035691 0.723254 0
0  0.302116 -0.338578 2.091471  0.000000 -1.000000 -0.000001  0.035722 0.723254 0
0  0.222911 -0.338579 2.892540  0.000000 -1.000000 -0.000001  0.035714 0.723700 0
lowpoly_metal.001
0  0.302116 -0.338578 -4.166505  0.000000 -1.000000 0.000000  0.035093 0.720527 0
0  0.302116 -0.338578 2.091471  0.000000 -1.000000 0.000000  0.035722 0.723254 0
0  0.000232 -0.338578 2.091471  0.000000 -1.000000 0.000000  0.035691 0.723254 0
lowpoly_metal.001
0  0.150154 0.709795 3.119259  -0.952172 0.000000 -0.305564  0.035212 0.720004 0
0  0.150154 0.796986 3.119259  -0.952172 0.000000 -0.305564  0.035212 0.719955 0
0  0.222911 0.796986 2.892540  -0.952172 0.000000 -0.305564  0.035338 0.719956 0
lowpoly_metal.001
0  0.220522 0.796986 3.119259  0.952172 0.000000 0.305564  0.035136 0.723826 0
0  0.220522 0.709795 3.119259  0.952172 0.000000 0.305564  0.035088 0.723826 0
0  0.293279 0.709795 2.892540  0.952172 0.000000 0.305564  0.035088 0.723700 0
lowpoly_metal.001
0  0.222911 0.709795 2.892540  0.000000 0.000000 1.000000  0.035936 0.721291 0
0  0.222911 0.796986 2.892540  0.000000 0.000000 1.000000  0.035936 0.721339 0
0  0.000232 0.796986 2.892540  0.000000 0.000000 1.000000  0.035913 0.721339 0
lowpoly_metal.001
0  -0.437023 0.373631 -1.385512  -0.778191 0.000000 -0.628027  0.036010 0.720257 0
0  -0.374458 0.381880 -1.463037  -0.778191 0.000000 -0.628027  0.036053 0.720252 0
0  -0.374458 0.203506 -1.463037  -0.778191 0.000000 -0.628027  0.036053 0.720352 0
lowpoly_metal.001
0  -0.437023 0.211756 -1.385512  -0.725639 -0.426095 -0.540270  0.036010 0.720347 0
0  -0.374458 0.203506 -1.463037  -0.725639 -0.426095 -0.540270  0.036053 0.720352 0
0  -0.374458 0.085182 -1.369719  -0.725639 -0.426095 -0.540270  0.036001 0.720417 0
lowpoly_metal.001
0  0.000232 0.225215 -5.669360  0.000000 -0.024725 -0.999694  0.035759 0.721712 0
0  -0.301652 0.225215 -5.669360  0.000000 -0.024725 -0.999694  0.035729 0.721712 0
0  -0.301652 0.709795 -5.681345  0.000000 -0.024725 -0.999694  0.035729 0.721403 0
lowpoly_metal.001
0  0.437487 0.500203 -1.243483  0.000000 1.000000 0.000000  0.035353 0.722172 0
0  0.437487 0.500203 -1.285688  0.000000 1.000000 0.000000  0.035329 0.722172 0
0  -0.437023 0.500203 -1.285688  0.000000 1.000000 0.000000  0.035329 0.722084 0
lowpoly_metal.001
0  -0.372020 0.796986 -4.847535  0.000000 1.000000 0.000000  0.034813 0.723480 0
0  -0.301652 0.796986 -4.847535  0.000000 1.000000 0.000000  0.035144 0.723480 0
0  -0.301652 0.796986 -5.662751  0.000000 1.000000 0.000000  0.035144 0.723826 0
lowpoly_metal.001
0  0.417730 0.842454 -5.716453  0.000000 1.000000 0.000000  0.062959 0.795729 0
0  -0.417265 0.842454 -5.716453  0.000000 1.000000 0.000000  0.062959 0.795645 0
0  -0.417265 0.842454 -5.661052  0.000000 1.000000 0.000000  0.062990 0.795645 0
lowpoly_plastic
0  -0.301652 0.796986 -4.847535  0.000000 0.000000 -1.000000  0.794353 0.922680 0
0  -0.372020 0.796986 -4.847535  0.000000 0.000000 -1.000000  0.794022 0.922680 0
0  -0.410766 0.831579 -4.847535  0.000000 0.000000 -1.000000  0.794022 0.922680 0
lowpoly_plastic
0  0.372484 0.709795 -4.179388  0.000000 0.019071 0.999818  0.794297 0.919727 0
0  0.372484 0.190428 -4.169481  0.000000 0.019071 0.999818  0.793969 0.919728 0
0  0.424425 0.190428 -4.169481  0.000000 0.019071 0.999818  0.793969 0.919728 0
lowpoly_plastic
0  0.000232 0.796986 -4.847535  0.000000 0.000000 -1.000000  0.794383 0.922680 0
0  -0.301652 0.796986 -4.847535  0.000000 0.000000 -1.000000  0.794353 0.922680 0
0  -0.301652 0.848927 -4.847535  0.000000 0.000000 -1.000000  0.794353 0.922680 0
lowpoly_metal.001
0  -0.372020 -0.249101 -5.665208  -0.786041 -0.618175 0.000000  0.033845 0.723826 0
0  -0.301651 -0.338578 -5.665760  -0.786041 -0.618175 0.000000  0.033795 0.723826 0
0  -0.301651 -0.338578 -4.850227  -0.786041 -0.618175 0.000000  0.034727 0.721892 0
lowpoly_metal.001
0  0.000232 0.796986 -5.662751  0.000000 1.000000 0.000000  0.035175 0.723826 0
0  0.000232 0.796986 -4.847535  0.000000 1.000000 0.000000  0.035175 0.723480 0
0  0.302115 0.796986 -4.847535  0.000000 1.000000 0.000000  0.035205 0.723480 0
lowpoly_metal.001
0  0.000232 -0.338578 2.091471  0.000000 -1.000000 0.000000  0.035691 0.723254 0
0  -0.301651 -0.338578 2.091471  0.000000 -1.000000 0.000000  0.035661 0.723254 0
0  -0.301651 -0.338578 -4.166505  0.000000 -1.000000 0.000000  0.034727 0.721892 0
lowpoly_metal.001
0  -0.372020 0.709795 2.091472  -1.000000 0.000000 0.000000  0.034417 0.720527 0
0  -0.372020 0.796986 2.091472  -1.000000 0.000000 0.000000  0.034466 0.720527 0
0  -0.372020 0.796986 -4.164019  -1.000000 0.000000 0.000000  0.034813 0.723254 0
lowpoly_metal.001
0  -0.372020 -0.249101 -5.665208  -1.000000 0.000000 0.000000  0.033845 0.723826 0
0  -0.372020 -0.249101 -4.849733  -1.000000 0.000000 0.000000  0.033845 0.723479 0
0  -0.372020 0.204120 -4.853449  -1.000000 0.000000 0.000000  0.034097 0.723480 0
lowpoly_plastic
0  -0.372020 -0.249101 -4.166049  0.000000 0.007809 0.999969  0.793053 0.922455 0
0  -0.372020 0.190428 -4.169481  0.000000 0.007809 0.999969  0.793298 0.922455 0
0  -0.423961 0.190428 -4.169481  0.000000 0.007809 0.999969  0.793298 0.922455 0
lowpoly_plastic
0  0.372484 0.796986 -4.164019  0.000000 -0.173597 0.984817  0.794384 0.921139 0
0  0.372484 0.709795 -4.179388  0.000000 -0.173597 0.984817  0.794297 0.919727 0
0  0.424425 0.709795 -4.179388  0.000000 -0.173597 0.984817  0.794297 0.919727 0
lowpoly_metal.001
0  0.372484 0.796986 -5.662751  1.000000 0.000000 0.000000  0.035137 0.719955 0
0  0.372484 0.796986 -4.847535  1.000000 0.000000 0.000000  0.035176 0.721946 0
0  0.372484 0.709795 -4.864174  1.000000 0.000000 0.000000  0.035088 0.720302 0
lowpoly_plastic
0  0.372484 0.709795 -4.864174  -0.165069 0.184878 -0.968799  0.794297 0.919502 0
0  0.372484 0.796986 -4.847535  -0.165069 0.184878 -0.968799  0.794384 0.921147 0
0  0.411229 0.831579 -4.847535  -0.165069 0.184878 -0.968799  0.794384 0.921147 0
lowpoly_metal.001
0  -0.372020 0.796986 2.091472  0.000000 1.000000 0.000000  0.035137 0.720527 0
0  -0.301652 0.796986 2.091472  0.000000 1.000000 0.000000  0.035144 0.720527 0
0  -0.301652 0.796986 -4.164019  0.000000 1.000000 0.000000  0.035144 0.723254 0
lowpoly_plastic
0  0.000232 -0.338578 -4.850227  0.000000 0.000000 -1.000000  0.794900 0.919502 0
0  0.302116 -0.338578 -4.850227  0.000000 0.000000 -1.000000  0.794302 0.919502 0
0  0.324779 -0.385314 -4.850227  0.000000 0.000000 -1.000000  0.794302 0.919502 0
lowpoly_plastic
0  0.372484 0.204120 -4.853449  0.000000 -0.021205 -0.999775  0.793976 0.919502 0
0  0.372484 0.709795 -4.864174  0.000000 -0.021205 -0.999775  0.794297 0.919502 0
0  0.424425 0.709795 -4.864174  0.000000 -0.021205 -0.999775  0.794297 0.919502 0
lowpoly_metal.001
0  -0.292816 0.709795 2.892540  -0.995148 0.000000 0.098394  0.034417 0.720082 0
0  -0.292816 0.796986 2.892540  -0.995148 0.000000 0.098394  0.034465 0.720082 0
0  -0.372020 0.796986 2.091472  -0.995148 0.000000 0.098394  0.034466 0.720527 0
lowpoly_metal.001
0  0.302116 -0.338578 -5.665760  0.000000 -1.000000 0.000000  0.035722 0.719955 0
0  0.302116 -0.338578 -4.850227  0.000000 -1.000000 0.000000  0.035093 0.720302 0
0  0.000232 -0.338578 -4.850227  0.000000 -1.000000 0.000000  0.035691 0.720302 0
lowpoly_metal.001
0  0.302115 0.796986 -5.662751  0.000000 1.000000 0.000000  0.035205 0.723826 0
0  0.302115 0.796986 -4.847535  0.000000 1.000000 0.000000  0.035205 0.723480 0
0  0.372484 0.796986 -4.847535  0.000000 1.000000 0.000000  0.035176 0.721946 0
lowpoly_plastic
0  0.000232 -0.338578 -4.166505  0.000000 0.000000 1.000000  0.794900 0.919727 0
0  -0.301651 -0.338578 -4.166505  0.000000 0.000000 1.000000  0.793935 0.921092 0
0  -0.324375 -0.385285 -4.166505  0.000000 0.000000 1.000000  0.793935 0.921092 0
lowpoly_metal.001
0  0.372484 0.225215 -5.669360  1.000000 0.000000 0.000000  0.034780 0.719955 0
0  0.372484 0.709795 -5.681345  1.000000 0.000000 0.000000  0.035088 0.719955 0
0  0.372484 0.709795 -4.864174  1.000000 0.000000 0.000000  0.035088 0.720302 0
lowpoly_plastic
0  0.372484 0.796986 -4.847535  0.000000 0.000000 -1.000000  0.794384 0.921147 0
0  0.302115 0.796986 -4.847535  0.000000 0.000000 -1.000000  0.794414 0.922680 0
0  0.302115 0.848927 -4.847535  0.000000 0.000000 -1.000000  0.794414 0.922680 0
lowpoly_plastic
0  0.302115 0.796986 -4.164019  0.000000 0.000000 1.000000  0.794414 0.922455 0
0  0.372484 0.796986 -4.164019  0.000000 0.000000 1.000000  0.794384 0.921139 0
0  0.406993 0.835806 -4.164019  0.000000 0.000000 1.000000  0.794384 0.921139 0
lowpoly_plastic
0  -0.301651 -0.338578 -4.166505  0.001395 -0.004003 0.999991  0.793935 0.921092 0
0  -0.372020 -0.249101 -4.166049  0.001395 -0.004003 0.999991  0.793053 0.922455 0
0  -0.421097 -0.266110 -4.166049  0.001395 -0.004003 0.999991  0.793053 0.922455 0
lowpoly_metal.001
0  0.372484 -0.249101 -5.665208  1.000000 0.000000 0.000000  0.034516 0.719955 0
0  0.372484 0.225215 -5.669360  1.000000 0.000000 0.000000  0.034780 0.719955 0
0  0.372484 0.204120 -4.853449  1.000000 0.000000 0.000000  0.034768 0.720302 0
lowpoly_metal.001
0  -0.372020 0.225215 -5.669360  -1.000000 0.000000 0.000000  0.034108 0.723826 0
0  -0.372020 0.204120 -4.853449  -1.000000 0.000000 0.000000  0.034097 0.723480 0
0  -0.372020 0.709795 -4.864174  -1.000000 0.000000 0.000000  0.034417 0.723480 0
lowpoly_plastic
0  -0.372020 0.190428 -4.169481  0.000000 0.019071 0.999818  0.793298 0.922455 0
0  -0.372020 0.709795 -4.179388  0.000000 0.019071 0.999818  0.793626 0.922455 0
0  -0.423961 0.709795 -4.179388  0.000000 0.019071 0.999818  0.793626 0.922455 0
lowpoly_metal.001
0  -0.301652 0.796986 2.091472  0.000000 1.000000 0.000000  0.035144 0.720527 0
0  0.000232 0.796986 2.091472  0.000000 1.000000 0.000000  0.035175 0.720527 0
0  0.000232 0.796986 -4.164019  0.000000 1.000000 0.000000  0.035175 0.723254 0
lowpoly_metal.001
0  0.372484 -0.249101 2.091471  0.786040 -0.618175 0.000000  0.034516 0.723254 0
0  0.302116 -0.338578 2.091471  0.786040 -0.618175 0.000000  0.034466 0.723254 0
0  0.302116 -0.338578 -4.166505  0.786040 -0.618175 0.000000  0.035093 0.720527 0
lowpoly_metal.001
0  -0.437023 0.085182 -1.243483  0.000000 -1.000000 0.000000  0.035212 0.722084 0
0  -0.437023 0.085182 -1.285688  0.000000 -1.000000 0.000000  0.035236 0.722084 0
0  0.437487 0.085182 -1.285688  0.000000 -1.000000 0.000000  0.035236 0.722172 0
lowpoly_plastic
0  -0.406529 0.835806 -4.164019  -0.124137 0.992265 0.000000  0.892459 0.924005 0
0  -0.301652 0.848927 -4.164019  -0.124137 0.992265 0.000000  0.892790 0.924005 0
0  -0.301652 0.848927 -4.847535  -0.124137 0.992265 0.000000  0.892790 0.924230 0
lowpoly_plastic
0  0.000232 0.848927 -4.847535  0.000000 1.000000 0.000000  0.892821 0.924230 0
0  0.000232 0.848927 -4.164019  0.000000 1.000000 0.000000  0.892821 0.924005 0
0  0.302115 0.848927 -4.164019  0.000000 1.000000 0.000000  0.892851 0.924005 0
lowpoly_plastic
0  0.302115 0.848927 -4.847535  0.124137 0.992265 0.000000  0.892851 0.924230 0
0  0.302115 0.848927 -4.164019  0.124137 0.992265 0.000000  0.892851 0.924005 0
0  0.406993 0.835806 -4.164019  0.124137 0.992265 0.000000  0.892822 0.922689 0
lowpoly_plastic
0  -0.423961 0.204120 -4.853449  -1.000000 0.000000 0.000000  0.891743 0.924230 0
0  -0.423961 0.190428 -4.169481  -1.000000 0.000000 0.000000  0.891735 0.924005 0
0  -0.423961 0.709795 -4.179388  -1.000000 0.000000 0.000000  0.892063 0.924005 0
lowpoly_plastic
0  -0.421112 -0.266068 -4.849733  -0.776402 -0.630238 -0.000041  0.891491 0.924230 0
0  -0.324315 -0.385314 -4.850227  -0.776402 -0.630238 -0.000041  0.892373 0.922642 0
0  -0.324375 -0.385285 -4.166505  -0.776402 -0.630238 -0.000041  0.892373 0.922642 0
lowpoly_plastic
0  -0.421112 -0.266068 -4.849733  -0.999980 -0.006273 0.000021  0.891491 0.924230 0
0  -0.421097 -0.266110 -4.166049  -0.999980 -0.006273 0.000021  0.891491 0.924005 0
0  -0.423961 0.190428 -4.169481  -0.999980 -0.006273 0.000021  0.891735 0.924005 0
lowpoly_plastic
0  0.424425 0.204120 -4.853449  1.000000 0.000000 0.000000  0.892414 0.921053 0
0  0.424425 0.709795 -4.864174  1.000000 0.000000 0.000000  0.892734 0.921053 0
0  0.424425 0.709795 -4.179388  1.000000 0.000000 0.000000  0.892734 0.921278 0
lowpoly_plastic
0  -0.301652 0.848927 -4.164019  0.000000 1.000000 0.000000  0.892790 0.924005 0
0  0.000232 0.848927 -4.164019  0.000000 1.000000 0.000000  0.892821 0.924005 0
0  0.000232 0.848927 -4.847535  0.000000 1.000000 0.000000  0.892821 0.924230 0
lowpoly_plastic
0  -0.423961 0.709795 -4.179388  -0.990640 0.136398 0.005297  0.892063 0.924005 0
0  -0.406529 0.835806 -4.164019  -0.990640 0.136398 0.005297  0.892459 0.924005 0
0  -0.410766 0.831579 -4.847535  -0.990640 0.136398 0.005297  0.892459 0.924230 0
lowpoly_plastic
0  0.421561 -0.266110 -4.166049  0.776458 -0.630169 -0.000041  0.892162 0.921278 0
0  0.324839 -0.385285 -4.166505  0.776458 -0.630169 -0.000041  0.892739 0.921278 0
0  0.324779 -0.385314 -4.850227  0.776458 -0.630169 -0.000041  0.892739 0.921053 0
lowpoly_plastic
0  0.411229 0.831579 -4.847535  0.990640 0.136400 0.005297  0.892822 0.922697 0
0  0.406993 0.835806 -4.164019  0.990640 0.136400 0.005297  0.892822 0.922689 0
0  0.424425 0.709795 -4.179388  0.990640 0.136400 0.005297  0.892734 0.921278 0
lowpoly_plastic
0  0.324779 -0.385314 -4.850227  0.016123 -0.999870 0.000041  0.892739 0.921053 0
0  0.324839 -0.385285 -4.166505  0.016123 -0.999870 0.000041  0.892739 0.921278 0
0  0.000232 -0.390519 -4.166505  0.016123 -0.999870 0.000041  0.893337 0.921278 0
lowpoly_plastic
0  0.000232 -0.390519 -4.166505  -0.016123 -0.999870 0.000041  0.893337 0.921278 0
0  -0.324375 -0.385285 -4.166505  -0.016123 -0.999870 0.000041  0.892373 0.922642 0
0  -0.324315 -0.385314 -4.850227  -0.016123 -0.999870 0.000041  0.892373 0.922642 0
lowpoly_plastic
0  0.421576 -0.266068 -4.849733  0.999982 -0.006062 -0.000121  0.892162 0.921053 0
0  0.424425 0.204120 -4.853449  0.999982 -0.006062 -0.000121  0.892414 0.921053 0
0  0.424425 0.190428 -4.169481  0.999982 -0.006062 -0.000121  0.892406 0.921278 0
lowpoly_plastic
0  -0.301652 0.796986 -4.164019  0.000000 0.000000 1.000000  0.794353 0.922455 0
0  0.000232 0.796986 -4.164019  0.000000 0.000000 1.000000  0.794383 0.922455 0
0  0.000232 0.848927 -4.164019  0.000000 0.000000 1.000000  0.794383 0.922455 0
lowpoly_plastic
0  -0.372020 0.709795 -4.179388  -0.191656 -0.170379 0.966560  0.793626 0.922455 0
0  -0.372020 0.796986 -4.164019  -0.191656 -0.170379 0.966560  0.794021 0.922455 0
0  -0.406529 0.835806 -4.164019  -0.191656 -0.170379 0.966560  0.794021 0.922455 0
lowpoly_plastic
0  -0.372020 -0.249101 -4.849733  -0.004344 0.002106 -0.999988  0.793053 0.922680 0
0  -0.301651 -0.338578 -4.850227  -0.004344 0.002106 -0.999988  0.793935 0.921092 0
0  -0.324315 -0.385314 -4.850227  -0.004344 0.002106 -0.999988  0.793935 0.921092 0
lowpoly_plastic
0  0.302116 -0.338578 -4.166505  0.000000 0.000000 1.000000  0.794302 0.919728 0
0  0.000232 -0.338578 -4.166505  0.000000 0.000000 1.000000  0.794900 0.919727 0
0  0.000232 -0.390519 -4.166505  0.000000 0.000000 1.000000  0.794900 0.919727 0
lowpoly_plastic
0  -0.372020 0.796986 -4.164019  0.000000 0.000000 1.000000  0.794021 0.922455 0
0  -0.301652 0.796986 -4.164019  0.000000 0.000000 1.000000  0.794353 0.922455 0
0  -0.301652 0.848927 -4.164019  0.000000 0.000000 1.000000  0.794353 0.922455 0
lowpoly_plastic
0  0.372484 0.190428 -4.169481  0.002713 0.007809 0.999966  0.793969 0.919728 0
0  0.372484 -0.249101 -4.166049  0.002713 0.007809 0.999966  0.793724 0.919728 0
0  0.421561 -0.266110 -4.166049  0.002713 0.007809 0.999966  0.793724 0.919728 0
lowpoly_plastic
0  0.302116 -0.338578 -4.850227  0.001499 0.004341 -0.999989  0.794302 0.919502 0
0  0.372484 -0.249101 -4.849733  0.001499 0.004341 -0.999989  0.793724 0.919502 0
0  0.421576 -0.266068 -4.849733  0.001499 0.004341 -0.999989  0.793724 0.919502 0
lowpoly_plastic
0  -0.372020 0.796986 -4.847535  0.000000 0.187449 -0.982274  0.794022 0.922680 0
0  -0.372020 0.709795 -4.864174  0.000000 0.187449 -0.982274  0.793626 0.922680 0
0  -0.423961 0.709795 -4.864174  0.000000 0.187449 -0.982274  0.793626 0.922680 0
lowpoly_plastic
0  0.372484 -0.249101 -4.166049  -0.004011 -0.001947 0.999990  0.793724 0.919728 0
0  0.302116 -0.338578 -4.166505  -0.004011 -0.001947 0.999990  0.794302 0.919728 0
0  0.324839 -0.385285 -4.166505  -0.004011 -0.001947 0.999990  0.794302 0.919728 0
lowpoly_plastic
0  -0.301651 -0.338578 -4.850227  0.000000 0.000000 -1.000000  0.793935 0.921092 0
0  0.000232 -0.338578 -4.850227  0.000000 0.000000 -1.000000  0.794900 0.919502 0
0  0.000232 -0.390519 -4.850227  0.000000 0.000000 -1.000000  0.794900 0.919502 0
lowpoly_plastic
0  0.372484 -0.249101 -4.849733  0.000000 -0.008198 -0.999966  0.793724 0.919502 0
0  0.372484 0.204120 -4.853449  0.000000 -0.008198 -0.999966  0.793976 0.919502 0
0  0.424425 0.204120 -4.853449  0.000000 -0.008198 -0.999966  0.793976 0.919502 0
lowpoly_plastic
0  0.000232 0.796986 -4.164019  0.000000 0.000000 1.000000  0.794383 0.922455 0
0  0.302115 0.796986 -4.164019  0.000000 0.000000 1.000000  0.794414 0.922455 0
0  0.302115 0.848927 -4.164019  0.000000 0.000000 1.000000  0.794414 0.922455 0
lowpoly_plastic
0  -0.372020 0.709795 -4.864174  0.000000 -0.021204 -0.999775  0.793626 0.922680 0
0  -0.372020 0.204120 -4.853449  0.000000 -0.021204 -0.999775  0.793305 0.922680 0
0  -0.423961 0.204120 -4.853449  0.000000 -0.021204 -0.999775  0.793305 0.922680 0
lowpoly_plastic
0  -0.372020 0.204120 -4.853449  0.002833 -0.008198 -0.999962  0.793305 0.922680 0
0  -0.372020 -0.249101 -4.849733  0.002833 -0.008198 -0.999962  0.793053 0.922680 0
0  -0.421112 -0.266068 -4.849733  0.002833 -0.008198 -0.999962  0.793053 0.922680 0
end
