version 1
nodes
0 "root" -1
end
skeleton
time 0
0 0 0 0 0 0 0
end
triangles
lowpoly_metal.001
0  -0.222447 0.796986 2.892540  0.952172 0.000000 -0.305564  0.035338 0.721198 0
0  -0.149690 0.709795 3.119259  0.952172 0.000000 -0.305564  0.035212 0.721150 0
0  -0.222447 0.709795 2.892540  0.952172 0.000000 -0.305564  0.035338 0.721149 0
lowpoly_metal.001
0  0.372484 0.225215 -9.088308  0.000000 -0.008754 -0.999962  0.035797 0.721712 0
0  0.302116 -0.249101 -9.084156  0.000000 -0.008754 -0.999962  0.035790 0.721976 0
0  0.302115 0.225215 -9.088308  0.000000 -0.008754 -0.999962  0.035790 0.721712 0
lowpoly_metal.001
0  -0.222447 -0.001413 2.892540  0.000000 0.000000 1.000000  0.035938 0.720605 0
0  -0.292816 -0.249101 2.892540  0.000000 0.000000 1.000000  0.035930 0.720467 0
0  -0.222447 -0.249101 2.892540  0.000000 0.000000 1.000000  0.035938 0.720467 0
lowpoly_metal.001
0  0.000232 -0.338578 -9.084707  0.000000 0.006160 -0.999981  0.035759 0.722025 0
0  -0.301651 -0.249101 -9.084156  0.000000 0.006160 -0.999981  0.035729 0.721976 0
0  0.000232 -0.249101 -9.084156  0.000000 0.006160 -0.999981  0.035759 0.721976 0
lowpoly_metal.001
0  -0.301652 0.709795 -9.100294  0.000000 0.208575 -0.978006  0.035729 0.721403 0
0  -0.372020 0.796986 -9.081699  0.000000 0.208575 -0.978006  0.035722 0.721354 0
0  -0.301652 0.796986 -9.081699  0.000000 0.208575 -0.978006  0.035729 0.721354 0
lowpoly_metal.001
0  0.374922 0.203506 -1.463037  0.000000 0.000000 -1.000000  0.036071 0.721842 0
0  -0.374458 0.381880 -1.463037  0.000000 0.000000 -1.000000  0.035995 0.721742 0
0  0.374922 0.381880 -1.463037  0.000000 0.000000 -1.000000  0.036071 0.721742 0
lowpoly_metal.001
0  -0.301652 0.796986 -8.029327  0.000000 1.000000 0.000000  0.035144 0.723516 0
0  0.000232 0.796986 -9.081699  0.000000 1.000000 0.000000  0.035175 0.723826 0
0  -0.301652 0.796986 -9.081699  0.000000 1.000000 0.000000  0.035144 0.723826 0
lowpoly_metal.001
0  -0.374458 0.085182 -1.369719  0.000000 -1.000000 0.000000  0.035283 0.722090 0
0  0.437487 0.085182 -1.285688  0.000000 -1.000000 0.000000  0.035236 0.722172 0
0  -0.437023 0.085182 -1.285688  0.000000 -1.000000 0.000000  0.035236 0.722084 0
lowpoly_metal.001
0  0.437487 0.500203 -1.243483  0.000000 0.000000 1.000000  0.036071 0.720864 0
0  -0.437023 0.085182 -1.243483  0.000000 0.000000 1.000000  0.035983 0.720633 0
0  0.437487 0.085182 -1.243483  0.000000 0.000000 1.000000  0.036071 0.720633 0
lowpoly_metal.001
0  -0.372020 -0.249101 -7.334354  -0.786039 -0.618177 -0.000000  0.033845 0.723310 0
0  -0.301651 -0.338578 2.091471  -0.786039 -0.618177 -0.000000  0.033795 0.720527 0
0  -0.372020 -0.249101 2.091471  -0.786039 -0.618177 -0.000000  0.033845 0.720527 0
lowpoly_metal.001
0  0.000232 -0.338578 -8.032051  0.000000 -1.000000 0.000000  0.035691 0.720266 0
0  -0.301651 -0.338578 -9.084707  0.000000 -1.000000 0.000000  0.035661 0.719955 0
0  0.000232 -0.338578 -9.084707  0.000000 -1.000000 0.000000  0.035691 0.719955 0
lowpoly_metal.001
0  0.222911 0.709795 2.892540  -0.990765 0.000000 -0.135591  0.035338 0.720004 0
0  0.302115 0.225214 2.313789  -0.990765 0.000000 -0.135591  0.035661 0.720313 0
0  0.222911 -0.001413 2.892540  -0.990765 0.000000 -0.135591  0.035338 0.720439 0
lowpoly_metal.001
0  0.302116 -0.249101 2.313789  0.000000 0.000000 1.000000  0.035952 0.720633 0
0  0.000232 0.225214 2.313789  0.000000 0.000000 1.000000  0.035921 0.720897 0
0  0.000232 -0.249101 2.313789  0.000000 0.000000 1.000000  0.035921 0.720633 0
lowpoly_metal.001
0  0.000232 0.709795 2.313789  0.000000 -0.000001 1.000000  0.035921 0.721206 0
0  -0.301652 0.225214 2.313789  0.000000 -0.000001 1.000000  0.035891 0.720897 0
0  0.000232 0.225214 2.313789  0.000000 -0.000001 1.000000  0.035921 0.720897 0
lowpoly_metal.001
0  -0.149690 0.796986 3.119259  0.000000 0.000000 1.000000  0.036081 0.720333 0
0  -0.220058 0.709795 3.119259  0.000000 0.000000 1.000000  0.036073 0.720285 0
0  -0.149690 0.709795 3.119259  0.000000 0.000000 1.000000  0.036081 0.720285 0
lowpoly_metal.001
0  0.293280 -0.249101 2.892540  0.000000 0.000000 1.000000  0.035990 0.720467 0
0  0.222911 -0.001413 2.892540  0.000000 0.000000 1.000000  0.035983 0.720605 0
0  0.222911 -0.249101 2.892540  0.000000 0.000000 1.000000  0.035983 0.720467 0
lowpoly_metal.001
0  -0.222447 0.796986 2.892540  0.000000 1.000000 0.000000  0.035152 0.720082 0
0  -0.220059 0.796986 3.119259  0.000000 1.000000 0.000000  0.035152 0.719955 0
0  -0.149690 0.796986 3.119259  0.000000 1.000000 0.000000  0.035159 0.719955 0
lowpoly_metal.001
0  0.220522 0.709795 3.119259  0.000000 0.000000 1.000000  0.036083 0.720747 0
0  0.150154 0.796986 3.119259  0.000000 0.000000 1.000000  0.036076 0.720795 0
0  0.150154 0.709795 3.119259  0.000000 0.000000 1.000000  0.036076 0.720747 0
lowpoly_metal.001
0  0.417730 -0.293133 -9.072630  1.000000 0.000000 0.000000  0.063020 0.795122 0
0  0.417730 0.842454 -9.135401  1.000000 0.000000 0.000000  0.063051 0.795793 0
0  0.417730 0.842454 -9.080000  1.000000 0.000000 0.000000  0.063020 0.795793 0
lowpoly_metal.001
0  0.417730 -0.293133 -9.128031  0.000000 -0.027022 -0.999635  0.062875 0.795743 0
0  -0.327726 -0.382672 -9.125610  0.000000 -0.027022 -0.999635  0.062799 0.795793 0
0  -0.417265 -0.293133 -9.128031  0.000000 -0.027022 -0.999635  0.062790 0.795743 0
lowpoly_metal.001
0  -0.372020 -0.249101 -7.334354  -1.000000 -0.000000 0.000000  0.033845 0.723310 0
0  -0.372020 0.024556 2.091471  -1.000000 -0.000000 0.000000  0.033997 0.720527 0
0  -0.372020 0.193798 -7.337857  -1.000000 -0.000000 0.000000  0.034091 0.723310 0
lowpoly_metal.001
0  -0.327726 -0.382672 -9.125610  -0.707107 -0.707107 0.000000  0.062729 0.796358 0
0  -0.417265 -0.293133 -9.072630  -0.707107 -0.707107 0.000000  0.062698 0.796308 0
0  -0.417265 -0.293133 -9.128031  -0.707107 -0.707107 0.000000  0.062729 0.796308 0
lowpoly_metal.001
0  -0.372020 0.193798 -7.337857  -1.000000 0.000000 0.000000  0.034091 0.723310 0
0  -0.372020 0.709795 2.091472  -1.000000 0.000000 0.000000  0.034417 0.720527 0
0  -0.372020 0.709795 -7.347966  -1.000000 0.000000 0.000000  0.034417 0.723310 0
lowpoly_metal.001
0  0.417730 -0.293133 -9.128031  0.000000 -0.006490 -0.999979  0.062875 0.795743 0
0  -0.417265 0.842454 -9.135401  0.000000 -0.006490 -0.999979  0.062790 0.795072 0
0  0.417730 0.842454 -9.135401  0.000000 -0.006490 -0.999979  0.062875 0.795072 0
lowpoly_metal.001
0  -0.327726 -0.382672 -9.070210  0.000000 -1.000000 0.000000  0.062421 0.796522 0
0  0.328191 -0.382672 -9.125610  0.000000 -1.000000 0.000000  0.062452 0.796589 0
0  0.328191 -0.382672 -9.070210  0.000000 -1.000000 0.000000  0.062421 0.796589 0
lowpoly_metal.001
0  -0.292816 0.709795 2.892540  -0.952172 0.000000 0.305563  0.034417 0.720082 0
0  -0.220059 0.796986 3.119259  -0.952172 0.000000 0.305563  0.034465 0.719955 0
0  -0.292816 0.796986 2.892540  -0.952172 0.000000 0.305563  0.034465 0.720082 0
lowpoly_metal.001
0  -0.437023 0.085182 -1.243483  -1.000000 0.000000 0.000000  0.035930 0.720417 0
0  -0.437023 0.500203 -1.243483  -1.000000 0.000000 0.000000  0.035930 0.720186 0
0  -0.437023 0.373631 -1.385512  -1.000000 0.000000 0.000000  0.036010 0.720257 0
lowpoly_metal.001
0  -0.372020 0.796986 2.091472  0.000000 1.000000 0.000000  0.035137 0.720527 0
0  -0.301652 0.796986 -7.332283  0.000000 1.000000 0.000000  0.035144 0.723310 0
0  -0.372020 0.796986 -7.332283  0.000000 1.000000 0.000000  0.034813 0.723310 0
lowpoly_metal.001
0  0.374922 0.500203 -1.369718  0.000000 1.000000 -0.000001  0.035283 0.722166 0
0  -0.437023 0.500203 -1.285688  0.000000 1.000000 -0.000001  0.035329 0.722084 0
0  0.437487 0.500203 -1.285688  0.000000 1.000000 -0.000001  0.035329 0.722172 0
lowpoly_metal.001
0  0.437487 0.500203 -1.243483  1.000000 0.000000 0.000000  0.035930 0.720186 0
0  0.437487 0.085182 -1.243483  1.000000 0.000000 0.000000  0.035930 0.719956 0
0  0.437487 0.211756 -1.385512  1.000000 0.000000 0.000000  0.036010 0.720026 0
lowpoly_metal.001
0  -0.437023 0.373631 -1.385512  -0.725635 0.426101 -0.540270  0.036010 0.720257 0
0  -0.374458 0.500203 -1.369718  -0.725635 0.426101 -0.540270  0.036001 0.720187 0
0  -0.374458 0.381880 -1.463037  -0.725635 0.426101 -0.540270  0.036053 0.720252 0
lowpoly_metal.001
0  0.437487 0.211756 -1.385512  0.725637 -0.426098 -0.540269  0.036010 0.720026 0
0  0.374922 0.085182 -1.369718  0.725637 -0.426098 -0.540269  0.036001 0.719955 0
0  0.374922 0.203506 -1.463037  0.725637 -0.426098 -0.540269  0.036053 0.720021 0
lowpoly_metal.001
0  0.437487 0.373631 -1.385512  0.725631 0.426100 -0.540277  0.036010 0.720116 0
0  0.374922 0.500203 -1.369718  0.725631 0.426100 -0.540277  0.036001 0.720186 0
0  0.437487 0.500203 -1.285688  0.725631 0.426100 -0.540277  0.035954 0.720186 0
lowpoly_metal.001
0  -0.292816 0.796986 2.892540  0.000000 1.000000 0.000000  0.035145 0.720082 0
0  -0.301652 0.796986 2.091472  0.000000 1.000000 0.000000  0.035144 0.720527 0
0  -0.372020 0.796986 2.091472  0.000000 1.000000 0.000000  0.035137 0.720527 0
lowpoly_metal.001
0  0.437487 0.211756 -1.385512  0.778191 0.000000 -0.628028  0.036010 0.720026 0
0  0.374922 0.381880 -1.463037  0.778191 0.000000 -0.628028  0.036053 0.720120 0
0  0.437487 0.373631 -1.385512  0.778191 0.000000 -0.628028  0.036010 0.720116 0
lowpoly_metal.001
0  -0.301651 -0.249101 -9.084156  0.000000 0.006160 -0.999981  0.035729 0.721976 0
0  -0.301651 -0.338578 -9.084707  0.000000 0.006160 -0.999981  0.035729 0.722025 0
0  -0.372020 -0.249101 -9.084156  0.000000 0.006160 -0.999981  0.035722 0.721976 0
lowpoly_metal.001
0  0.000232 0.709795 -9.100294  0.000000 0.208575 -0.978006  0.035759 0.721403 0
0  -0.301652 0.796986 -9.081699  0.000000 0.208575 -0.978006  0.035729 0.721354 0
0  0.000232 0.796986 -9.081699  0.000000 0.208575 -0.978006  0.035759 0.721354 0
lowpoly_metal.001
0  -0.222447 -0.249101 2.892540  0.000000 0.000000 1.000000  0.035938 0.720467 0
0  -0.292816 -0.249101 2.892540  0.000000 0.000000 1.000000  0.035930 0.720467 0
0  -0.222447 -0.338579 2.892540  0.000000 0.000000 1.000000  0.035938 0.720417 0
lowpoly_metal.001
0  0.220522 0.188204 3.119259  0.000000 -0.767082 0.641549  0.036018 0.721187 0
0  0.222911 -0.001413 2.892540  0.000000 -0.767082 0.641549  0.036025 0.721313 0
0  0.293280 -0.001413 2.892540  0.000000 -0.767082 0.641549  0.036018 0.721313 0
lowpoly_metal.001
0  0.372484 0.024556 2.091471  0.995148 0.000000 0.098394  0.034668 0.723254 0
0  0.293279 0.709795 2.892540  0.995148 0.000000 0.098394  0.035088 0.723700 0
0  0.293280 -0.001413 2.892540  0.995148 0.000000 0.098394  0.034654 0.723700 0
lowpoly_metal.001
0  0.293280 -0.249101 2.892540  0.783677 -0.616317 0.077485  0.034516 0.723700 0
0  0.302116 -0.338578 2.091471  0.783677 -0.616317 0.077485  0.034466 0.723254 0
0  0.372484 -0.249101 2.091471  0.783677 -0.616317 0.077485  0.034516 0.723254 0
lowpoly_metal.001
0  0.000232 0.225214 2.313789  0.000000 0.000000 1.000000  0.035921 0.720897 0
0  -0.301651 -0.249101 2.313789  0.000000 0.000000 1.000000  0.035891 0.720633 0
0  0.000232 -0.249101 2.313789  0.000000 0.000000 1.000000  0.035921 0.720633 0
lowpoly_metal.001
0  -0.301651 -0.249101 -9.084156  0.000000 -0.008754 -0.999962  0.035729 0.721976 0
0  -0.372020 0.225215 -9.088308  0.000000 -0.008754 -0.999962  0.035722 0.721712 0
0  -0.301652 0.225215 -9.088308  0.000000 -0.008754 -0.999962  0.035729 0.721712 0
lowpoly_metal.001
0  0.302115 0.796986 2.091472  0.000000 1.000000 0.000000  0.035205 0.720527 0
0  0.293279 0.796986 2.892540  0.000000 1.000000 0.000000  0.035204 0.720082 0
0  0.372484 0.796986 2.091472  0.000000 1.000000 0.000000  0.035212 0.720527 0
lowpoly_metal.001
0  0.302115 0.709795 -9.100294  0.000000 -0.024727 -0.999694  0.035790 0.721403 0
0  0.000232 0.225215 -9.088308  0.000000 -0.024727 -0.999694  0.035759 0.721712 0
0  0.000232 0.709795 -9.100294  0.000000 -0.024727 -0.999694  0.035759 0.721403 0
lowpoly_metal.001
0  -0.374458 0.381880 -1.463037  0.000000 0.619261 -0.785185  0.035995 0.721742 0
0  0.374922 0.500203 -1.369718  0.000000 0.619261 -0.785185  0.036071 0.721676 0
0  0.374922 0.381880 -1.463037  0.000000 0.619261 -0.785185  0.036071 0.721742 0
lowpoly_metal.001
0  -0.149690 0.709795 3.119259  0.000000 0.000000 1.000000  0.036081 0.720285 0
0  -0.220058 0.188204 3.119259  0.000000 0.000000 1.000000  0.036073 0.719955 0
0  -0.149690 0.188204 3.119259  0.000000 0.000000 1.000000  0.036081 0.719955 0
lowpoly_metal.001
0  0.000232 0.796986 2.091472  0.000000 1.000000 0.000000  0.035175 0.720527 0
0  0.222911 0.796986 2.892540  0.000000 1.000000 0.000000  0.035197 0.720082 0
0  0.302115 0.796986 2.091472  0.000000 1.000000 0.000000  0.035205 0.720527 0
lowpoly_metal.001
0  -0.222447 -0.001413 2.892540  0.000000 -0.767082 0.641549  0.035795 0.722026 0
0  -0.220058 0.188204 3.119259  0.000000 -0.767082 0.641549  0.035787 0.722152 0
0  -0.292816 -0.001413 2.892540  0.000000 -0.767082 0.641549  0.035787 0.722025 0
lowpoly_metal.001
0  0.222911 -0.249101 2.892540  0.000000 1.000000 0.000000  0.036036 0.720864 0
0  0.000232 -0.249101 2.313789  0.000000 1.000000 0.000000  0.036013 0.721187 0
0  0.000232 -0.249101 2.892540  0.000000 1.000000 0.000000  0.036013 0.720864 0
lowpoly_metal.001
0  0.372484 -0.249101 -8.031553  0.786042 -0.618173 0.000000  0.034516 0.720266 0
0  0.302116 -0.338578 -9.084707  0.786042 -0.618173 0.000000  0.034466 0.719955 0
0  0.372484 -0.249101 -9.084156  0.786042 -0.618173 0.000000  0.034516 0.719955 0
lowpoly_metal.001
0  -0.222447 -0.001413 2.892540  0.990765 0.000001 -0.135591  0.035338 0.720715 0
0  -0.301651 -0.249101 2.313789  0.990765 0.000001 -0.135591  0.035661 0.720577 0
0  -0.301652 0.225214 2.313789  0.990765 0.000001 -0.135591  0.035661 0.720841 0
lowpoly_metal.001
0  0.372484 0.796986 2.091472  0.995148 0.000000 0.098394  0.035137 0.723254 0
0  0.293279 0.709795 2.892540  0.995148 0.000000 0.098394  0.035088 0.723700 0
0  0.372484 0.709795 2.091472  0.995148 0.000000 0.098394  0.035088 0.723254 0
lowpoly_metal.001
0  -0.301652 0.225215 -9.088308  0.000000 -0.024727 -0.999694  0.035729 0.721712 0
0  -0.372020 0.709795 -9.100294  0.000000 -0.024727 -0.999694  0.035722 0.721403 0
0  -0.301652 0.709795 -9.100294  0.000000 -0.024727 -0.999694  0.035729 0.721403 0
lowpoly_metal.001
0  -0.372020 0.024556 2.091471  -0.995148 0.000000 0.098394  0.033997 0.720527 0
0  -0.292816 0.709795 2.892540  -0.995148 0.000000 0.098394  0.034417 0.720082 0
0  -0.372020 0.709795 2.091472  -0.995148 0.000000 0.098394  0.034417 0.720527 0
lowpoly_metal.001
0  0.374922 0.203506 -1.463037  0.000000 -0.619255 -0.785190  0.036071 0.721842 0
0  -0.374458 0.085182 -1.369719  0.000000 -0.619255 -0.785190  0.035995 0.721907 0
0  -0.374458 0.203506 -1.463037  0.000000 -0.619255 -0.785190  0.035995 0.721842 0
lowpoly_metal.001
0  0.222911 0.796986 2.892540  0.000000 1.000000 0.000000  0.035197 0.720082 0
0  0.220522 0.796986 3.119259  0.000000 1.000000 0.000000  0.035197 0.719955 0
0  0.293279 0.796986 2.892540  0.000000 1.000000 0.000000  0.035204 0.720082 0
lowpoly_metal.001
0  0.000232 -0.249101 2.892540  0.000000 0.000000 1.000000  0.035960 0.720467 0
0  -0.222447 -0.338579 2.892540  0.000000 0.000000 1.000000  0.035938 0.720417 0
0  0.000232 -0.338579 2.892540  0.000000 0.000000 1.000000  0.035960 0.720417 0
lowpoly_metal.001
0  0.293279 0.709795 2.892540  0.952171 0.000000 0.305564  0.035088 0.723700 0
0  0.220522 0.188204 3.119259  0.952171 0.000000 0.305564  0.034759 0.723826 0
0  0.293280 -0.001413 2.892540  0.952171 0.000000 0.305564  0.034654 0.723700 0
lowpoly_metal.001
0  0.372484 -0.249101 -7.334354  1.000000 0.000000 0.000000  0.034516 0.720472 0
0  0.372484 0.024556 2.091471  1.000000 0.000000 0.000000  0.034668 0.723254 0
0  0.372484 -0.249101 2.091471  1.000000 0.000000 0.000000  0.034516 0.723254 0
lowpoly_metal.001
0  -0.222447 -0.249101 2.892540  0.000000 1.000000 0.000000  0.035991 0.720864 0
0  0.000232 -0.249101 2.313789  0.000000 1.000000 0.000000  0.036013 0.721187 0
0  -0.301651 -0.249101 2.313789  0.000000 1.000000 0.000000  0.035983 0.721187 0
lowpoly_metal.001
0  0.000232 0.796986 2.892540  0.000000 0.000000 1.000000  0.035913 0.721339 0
0  -0.222447 0.709795 2.892540  0.000000 0.000000 1.000000  0.035891 0.721291 0
0  0.000232 0.709795 2.892540  0.000000 0.000000 1.000000  0.035913 0.721291 0
lowpoly_metal.001
0  0.372484 0.193798 -7.337857  1.000000 0.000000 -0.000000  0.034762 0.720472 0
0  0.372484 0.709795 2.091472  1.000000 0.000000 -0.000000  0.035088 0.723254 0
0  0.372484 0.024556 2.091471  1.000000 0.000000 -0.000000  0.034668 0.723254 0
lowpoly_metal.001
0  0.372484 0.796986 -7.332283  1.000000 0.000000 0.000000  0.035137 0.720472 0
0  0.372484 0.709795 2.091472  1.000000 0.000000 0.000000  0.035088 0.723254 0
0  0.372484 0.709795 -7.347966  1.000000 0.000000 0.000000  0.035088 0.720472 0
lowpoly_metal.001
0  0.302116 -0.249101 -9.084156  0.000000 0.006160 -0.999981  0.035790 0.721976 0
0  0.372484 -0.249101 -9.084156  0.000000 0.006160 -0.999981  0.035797 0.721976 0
0  0.302116 -0.338578 -9.084707  0.000000 0.006160 -0.999981  0.035790 0.722025 0
lowpoly_metal.001
0  0.302115 0.796986 -9.081699  0.000000 0.208575 -0.978006  0.035790 0.721354 0
0  0.000232 0.709795 -9.100294  0.000000 0.208575 -0.978006  0.035759 0.721403 0
0  0.000232 0.796986 -9.081699  0.000000 0.208575 -0.978006  0.035759 0.721354 0
lowpoly_metal.001
0  0.222911 -0.338579 2.892540  0.000000 0.000000 1.000000  0.035983 0.720417 0
0  0.293280 -0.249101 2.892540  0.000000 0.000000 1.000000  0.035990 0.720467 0
0  0.222911 -0.249101 2.892540  0.000000 0.000000 1.000000  0.035983 0.720467 0
lowpoly_metal.001
0  0.417730 -0.293133 -9.128031  0.707107 -0.707107 0.000000  0.063051 0.795122 0
0  0.328191 -0.382672 -9.070210  0.707107 -0.707107 0.000000  0.063020 0.795072 0
0  0.328191 -0.382672 -9.125610  0.707107 -0.707107 0.000000  0.063051 0.795072 0
lowpoly_metal.001
0  -0.292816 0.709795 2.892540  -0.952172 0.000000 0.305564  0.034417 0.720082 0
0  -0.220058 0.188204 3.119259  -0.952172 0.000000 0.305564  0.034088 0.719955 0
0  -0.220058 0.709795 3.119259  -0.952172 0.000000 0.305564  0.034417 0.719955 0
lowpoly_metal.001
0  -0.222447 0.796986 2.892540  0.000000 1.000000 0.000000  0.035152 0.720082 0
0  0.000232 0.796986 2.091472  0.000000 1.000000 0.000000  0.035175 0.720527 0
0  -0.301652 0.796986 2.091472  0.000000 1.000000 0.000000  0.035144 0.720527 0
lowpoly_metal.001
0  0.000232 -0.249101 -9.084156  0.000000 -0.008754 -0.999962  0.035759 0.721976 0
0  -0.301652 0.225215 -9.088308  0.000000 -0.008754 -0.999962  0.035729 0.721712 0
0  0.000232 0.225215 -9.088308  0.000000 -0.008754 -0.999962  0.035759 0.721712 0
lowpoly_metal.001
0  0.302115 0.225214 2.313789  0.000000 -0.000001 1.000000  0.035952 0.720897 0
0  0.000232 0.709795 2.313789  0.000000 -0.000001 1.000000  0.035921 0.721206 0
0  0.000232 0.225214 2.313789  0.000000 -0.000001 1.000000  0.035921 0.720897 0
lowpoly_metal.001
0  -0.372020 0.709795 -8.046171  -1.000000 0.000000 0.000000  0.034417 0.723516 0
0  -0.372020 0.796986 -9.081699  -1.000000 0.000000 0.000000  0.034465 0.723826 0
0  -0.372020 0.709795 -9.100294  -1.000000 0.000000 0.000000  0.034417 0.723826 0
lowpoly_metal.001
0  -0.222447 0.709795 2.892540  0.000000 -1.000000 0.000000  0.036048 0.721354 0
0  0.000232 0.709795 2.313789  0.000000 -1.000000 0.000000  0.036026 0.721676 0
0  0.000232 0.709795 2.892540  0.000000 -1.000000 0.000000  0.036026 0.721354 0
lowpoly_metal.001
0  0.302116 -0.249101 -9.084156  0.000000 0.006160 -0.999981  0.035790 0.721976 0
0  0.000232 -0.338578 -9.084707  0.000000 0.006160 -0.999981  0.035759 0.722025 0
0  0.000232 -0.249101 -9.084156  0.000000 0.006160 -0.999981  0.035759 0.721976 0
lowpoly_metal.001
0  0.417730 -0.293133 -9.072630  0.000000 0.006490 0.999979  0.062959 0.795122 0
0  -0.417265 0.842454 -9.080000  0.000000 0.006490 0.999979  0.062875 0.795793 0
0  -0.417265 -0.293133 -9.072630  0.000000 0.006490 0.999979  0.062875 0.795122 0
lowpoly_metal.001
0  0.000232 -0.338578 2.091471  0.000000 -1.000000 -0.000001  0.035691 0.723254 0
0  -0.222447 -0.338579 2.892540  0.000000 -1.000000 -0.000001  0.035669 0.723700 0
0  -0.301651 -0.338578 2.091471  0.000000 -1.000000 -0.000001  0.035661 0.723254 0
lowpoly_metal.001
0  -0.222447 0.709795 2.892540  0.990765 0.000000 -0.135591  0.035338 0.721149 0
0  -0.301652 0.225214 2.313789  0.990765 0.000000 -0.135591  0.035661 0.720841 0
0  -0.301652 0.709795 2.313789  0.990765 0.000000 -0.135591  0.035661 0.721149 0
lowpoly_metal.001
0  0.000232 0.709795 2.313789  0.000000 -1.000000 0.000000  0.036026 0.721676 0
0  0.222911 0.709795 2.892540  0.000000 -1.000000 0.000000  0.036003 0.721354 0
0  0.000232 0.709795 2.892540  0.000000 -1.000000 0.000000  0.036026 0.721354 0
lowpoly_metal.001
0  -0.417265 0.842454 -9.080000  -1.000000 0.000000 0.000000  0.062698 0.795637 0
0  -0.417265 -0.293133 -9.128031  -1.000000 0.000000 0.000000  0.062729 0.796308 0
0  -0.417265 -0.293133 -9.072630  -1.000000 0.000000 0.000000  0.062698 0.796308 0
lowpoly_metal.001
0  0.222911 -0.001413 2.892540  -0.990765 -0.000001 -0.135591  0.035338 0.720439 0
0  0.302116 -0.249101 2.313789  -0.990765 -0.000001 -0.135591  0.035661 0.720577 0
0  0.222911 -0.249101 2.892540  -0.990765 -0.000001 -0.135591  0.035338 0.720577 0
lowpoly_metal.001
0  0.220522 0.188204 3.119259  0.000000 0.000000 1.000000  0.036083 0.720417 0
0  0.150154 0.709795 3.119259  0.000000 0.000000 1.000000  0.036076 0.720747 0
0  0.150154 0.188204 3.119259  0.000000 0.000000 1.000000  0.036076 0.720417 0
lowpoly_metal.001
0  0.302115 0.225215 -9.088308  0.000000 -0.008754 -0.999962  0.035790 0.721712 0
0  0.000232 -0.249101 -9.084156  0.000000 -0.008754 -0.999962  0.035759 0.721976 0
0  0.000232 0.225215 -9.088308  0.000000 -0.008754 -0.999962  0.035759 0.721712 0
lowpoly_metal.001
0  0.222911 -0.338579 2.892540  0.000000 0.000000 1.000000  0.035983 0.720417 0
0  0.000232 -0.249101 2.892540  0.000000 0.000000 1.000000  0.035960 0.720467 0
0  0.000232 -0.338579 2.892540  0.000000 0.000000 1.000000  0.035960 0.720417 0
lowpoly_metal.001
0  -0.372020 -0.249101 2.091471  -0.995148 0.000000 0.098394  0.033845 0.720527 0
0  -0.292816 -0.001413 2.892540  -0.995148 0.000000 0.098394  0.033982 0.720081 0
0  -0.372020 0.024556 2.091471  -0.995148 0.000000 0.098394  0.033997 0.720527 0
lowpoly_metal.001
0  0.372484 0.709795 -9.100294  0.000000 -0.024727 -0.999694  0.035797 0.721403 0
0  0.302115 0.225215 -9.088308  0.000000 -0.024727 -0.999694  0.035790 0.721712 0
0  0.302115 0.709795 -9.100294  0.000000 -0.024727 -0.999694  0.035790 0.721403 0
lowpoly_metal.001
0  0.222911 0.709795 2.892540  0.000000 0.000000 1.000000  0.035936 0.721291 0
0  0.000232 0.796986 2.892540  0.000000 0.000000 1.000000  0.035913 0.721339 0
0  0.000232 0.709795 2.892540  0.000000 0.000000 1.000000  0.035913 0.721291 0
lowpoly_metal.001
0  0.150154 0.188204 3.119259  -0.952171 0.000000 -0.305565  0.035212 0.720333 0
0  0.222911 0.709795 2.892540  -0.952171 0.000000 -0.305565  0.035338 0.720004 0
0  0.222911 -0.001413 2.892540  -0.952171 0.000000 -0.305565  0.035338 0.720439 0
lowpoly_metal.001
0  -0.222447 0.709795 2.892540  0.952172 0.000001 -0.305563  0.035338 0.721149 0
0  -0.149690 0.188204 3.119259  0.952172 0.000001 -0.305563  0.035212 0.720820 0
0  -0.222447 -0.001413 2.892540  0.952172 0.000001 -0.305563  0.035338 0.720715 0
lowpoly_metal.001
0  0.372484 -0.249101 2.091471  0.995148 0.000000 0.098394  0.034516 0.723254 0
0  0.293280 -0.001413 2.892540  0.995148 0.000000 0.098394  0.034654 0.723700 0
0  0.293280 -0.249101 2.892540  0.995148 0.000000 0.098394  0.034516 0.723700 0
lowpoly_metal.001
0  -0.292816 -0.249101 2.892540  -0.783678 -0.616316 0.077485  0.033845 0.720081 0
0  -0.301651 -0.338578 2.091471  -0.783678 -0.616316 0.077485  0.033795 0.720527 0
0  -0.222447 -0.338579 2.892540  -0.783678 -0.616316 0.077485  0.033795 0.720081 0
lowpoly_metal.001
0  0.000232 0.796986 -7.332283  0.000000 1.000000 0.000000  0.035175 0.723310 0
0  0.302115 0.796986 2.091472  0.000000 1.000000 0.000000  0.035205 0.720527 0
0  0.302115 0.796986 -7.332283  0.000000 1.000000 0.000000  0.035205 0.723310 0
lowpoly_metal.001
0  0.302115 0.796986 -7.332283  0.000000 1.000000 0.000000  0.035205 0.723310 0
0  0.372484 0.796986 2.091472  0.000000 1.000000 0.000000  0.035212 0.720527 0
0  0.372484 0.796986 -7.332283  0.000000 1.000000 0.000000  0.035137 0.720472 0
lowpoly_metal.001
0  0.000232 -0.338578 2.091471  0.000000 -1.000000 -0.000001  0.035691 0.723254 0
0  0.222911 -0.338579 2.892540  0.000000 -1.000000 -0.000001  0.035714 0.723700 0
0  0.000232 -0.338579 2.892540  0.000000 -1.000000 -0.000001  0.035691 0.723700 0
lowpoly_metal.001
0  0.302116 -0.338578 -7.334820  0.000000 -1.000000 0.000000  0.035094 0.720472 0
0  0.000232 -0.338578 2.091471  0.000000 -1.000000 0.000000  0.035691 0.723254 0
0  0.000232 -0.338578 -7.334820  0.000000 -1.000000 0.000000  0.035691 0.720472 0
lowpoly_metal.001
0  0.150154 0.709795 3.119259  -0.952172 0.000000 -0.305564  0.035212 0.720004 0
0  0.222911 0.796986 2.892540  -0.952172 0.000000 -0.305564  0.035338 0.719956 0
0  0.222911 0.709795 2.892540  -0.952172 0.000000 -0.305564  0.035338 0.720004 0
lowpoly_metal.001
0  0.220522 0.796986 3.119259  0.952172 0.000000 0.305564  0.035136 0.723826 0
0  0.293279 0.709795 2.892540  0.952172 0.000000 0.305564  0.035088 0.723700 0
0  0.293279 0.796986 2.892540  0.952172 0.000000 0.305564  0.035137 0.723700 0
lowpoly_metal.001
0  0.372484 0.796986 -9.081699  0.000000 0.208575 -0.978006  0.035797 0.721354 0
0  0.302115 0.709795 -9.100294  0.000000 0.208575 -0.978006  0.035790 0.721403 0
0  0.302115 0.796986 -9.081699  0.000000 0.208575 -0.978006  0.035790 0.721354 0
lowpoly_metal.001
0  -0.437023 0.373631 -1.385512  -0.778190 0.000000 -0.628028  0.036010 0.720257 0
0  -0.374458 0.203506 -1.463037  -0.778190 0.000000 -0.628028  0.036053 0.720352 0
0  -0.437023 0.211756 -1.385512  -0.778190 0.000000 -0.628028  0.036010 0.720347 0
lowpoly_metal.001
0  -0.437023 0.211756 -1.385512  -0.725636 -0.426094 -0.540274  0.036010 0.720347 0
0  -0.374458 0.085182 -1.369719  -0.725636 -0.426094 -0.540274  0.036001 0.720417 0
0  -0.437023 0.085182 -1.285688  -0.725636 -0.426094 -0.540274  0.035954 0.720417 0
lowpoly_metal.001
0  0.000232 0.225215 -9.088308  0.000000 -0.024727 -0.999694  0.035759 0.721712 0
0  -0.301652 0.709795 -9.100294  0.000000 -0.024727 -0.999694  0.035729 0.721403 0
0  0.000232 0.709795 -9.100294  0.000000 -0.024727 -0.999694  0.035759 0.721403 0
lowpoly_metal.001
0  0.437487 0.500203 -1.243483  0.000000 1.000000 0.000000  0.035353 0.722172 0
0  -0.437023 0.500203 -1.285688  0.000000 1.000000 0.000000  0.035329 0.722084 0
0  -0.437023 0.500203 -1.243483  0.000000 1.000000 0.000000  0.035353 0.722084 0
lowpoly_metal.001
0  -0.372020 0.796986 -8.029327  0.000000 1.000000 0.000000  0.034801 0.723516 0
0  -0.301652 0.796986 -9.081699  0.000000 1.000000 0.000000  0.035144 0.723826 0
0  -0.372020 0.796986 -9.081699  0.000000 1.000000 0.000000  0.035137 0.723826 0
lowpoly_metal.001
0  0.417730 0.842454 -9.135401  0.000000 1.000000 0.000000  0.062959 0.795729 0
0  -0.417265 0.842454 -9.080000  0.000000 1.000000 0.000000  0.062990 0.795645 0
0  0.417730 0.842454 -9.080000  0.000000 1.000000 0.000000  0.062990 0.795729 0
lowpoly_plastic
0  -0.422848 -0.266669 -8.031553  -0.776205 -0.630481 -0.000022  0.894391 0.918828 0
0  -0.325180 -0.386937 -7.334820  -0.776205 -0.630481 -0.000022  0.895417 0.916986 0
0  -0.422833 -0.266712 -7.334354  -0.776205 -0.630481 -0.000022  0.894391 0.918622 0
lowpoly_plastic
0  0.423297 -0.266712 -7.334354  0.776148 -0.630551 -0.000022  0.895062 0.915784 0
0  0.325581 -0.386967 -8.032051  0.776148 -0.630551 -0.000022  0.895641 0.915579 0
0  0.423312 -0.266669 -8.031553  0.776148 -0.630551 -0.000022  0.895062 0.915579 0
lowpoly_plastic
0  0.302115 0.850764 -8.029327  0.160653 0.986997 -0.005269  0.895752 0.918828 0
0  0.408163 0.837224 -7.332283  0.160653 0.986997 -0.005269  0.895683 0.915784 0
0  0.412623 0.832777 -8.029327  0.160653 0.986997 -0.005269  0.895698 0.916305 0
lowpoly_metal.001
0  0.000232 0.796986 -9.081699  0.000000 1.000000 0.000000  0.035175 0.723826 0
0  0.302115 0.796986 -8.029327  0.000000 1.000000 0.000000  0.035205 0.723516 0
0  0.302115 0.796986 -9.081699  0.000000 1.000000 0.000000  0.035205 0.723826 0
lowpoly_metal.001
0  0.372484 0.225215 -9.088308  1.000000 -0.000000 0.000000  0.034780 0.719955 0
0  0.372484 0.709795 -8.046171  1.000000 -0.000000 0.000000  0.035088 0.720266 0
0  0.372484 0.206316 -8.035315  1.000000 -0.000000 0.000000  0.034769 0.720266 0
lowpoly_plastic
0  -0.301652 0.796986 -8.029327  0.000005 0.000000 -1.000000  0.792880 0.919460 0
0  -0.412159 0.832777 -8.029327  0.000005 0.000000 -1.000000  0.792536 0.919460 0
0  -0.301652 0.850764 -8.029327  0.000005 0.000000 -1.000000  0.792880 0.919460 0
lowpoly_plastic
0  0.372484 -0.249101 -8.031553  -0.002751 -0.007935 -0.999965  0.792252 0.916211 0
0  0.426262 0.206316 -8.035315  -0.002751 -0.007935 -0.999965  0.792505 0.916211 0
0  0.423312 -0.266669 -8.031553  -0.002751 -0.007935 -0.999965  0.792252 0.916211 0
lowpoly_metal.001
0  -0.372020 0.709795 2.091472  -1.000000 0.000000 0.000000  0.034417 0.720527 0
0  -0.372020 0.796986 -7.332283  -1.000000 0.000000 0.000000  0.034813 0.723310 0
0  -0.372020 0.709795 -7.347966  -1.000000 0.000000 0.000000  0.034417 0.723310 0
lowpoly_plastic
0  0.372484 0.796986 -8.029327  -0.000006 0.000000 -1.000000  0.792887 0.916937 0
0  0.302115 0.850764 -8.029327  -0.000006 0.000000 -1.000000  0.792941 0.919460 0
0  0.412623 0.832777 -8.029327  -0.000006 0.000000 -1.000000  0.792887 0.916937 0
lowpoly_plastic
0  -0.301651 -0.338578 -7.334820  0.002968 -0.001450 0.999995  0.792606 0.917619 0
0  -0.422833 -0.266712 -7.334354  0.002968 -0.001450 0.999995  0.791580 0.919255 0
0  -0.325180 -0.386937 -7.334820  0.002968 -0.001450 0.999995  0.792606 0.917619 0
lowpoly_plastic
0  -0.422848 -0.266669 -8.031553  -0.999981 -0.006238 -0.000112  0.894391 0.918828 0
0  -0.425798 0.193798 -7.337857  -0.999981 -0.006238 -0.000112  0.894638 0.918622 0
0  -0.425798 0.206316 -8.035315  -0.999981 -0.006238 -0.000112  0.894645 0.918828 0
lowpoly_plastic
0  -0.407700 0.837224 -7.332283  -0.160654 0.986997 -0.005269  0.895360 0.918622 0
0  -0.301652 0.850764 -8.029327  -0.160654 0.986997 -0.005269  0.895691 0.918828 0
0  -0.412159 0.832777 -8.029327  -0.160654 0.986997 -0.005269  0.895347 0.918828 0
lowpoly_plastic
0  -0.372020 -0.249101 -7.334354  -0.002643 0.007589 0.999968  0.791580 0.919255 0
0  -0.425798 0.193798 -7.337857  -0.002643 0.007589 0.999968  0.791827 0.919255 0
0  -0.422833 -0.266712 -7.334354  -0.002643 0.007589 0.999968  0.791580 0.919255 0
lowpoly_plastic
0  -0.372020 0.709795 -8.046171  0.000000 -0.021558 -0.999768  0.792153 0.919460 0
0  -0.425798 0.206316 -8.035315  0.000000 -0.021558 -0.999768  0.791834 0.919460 0
0  -0.425798 0.709795 -8.046171  0.000000 -0.021558 -0.999768  0.792153 0.919460 0
lowpoly_metal.001
0  -0.372020 0.225215 -9.088308  -1.000000 0.000000 0.000000  0.034108 0.723826 0
0  -0.372020 0.709795 -8.046171  -1.000000 0.000000 0.000000  0.034417 0.723516 0
0  -0.372020 0.709795 -9.100294  -1.000000 0.000000 0.000000  0.034417 0.723826 0
lowpoly_plastic
0  0.372484 0.796986 -7.332283  0.118120 -0.104752 0.987459  0.792873 0.916417 0
0  0.426262 0.709795 -7.347966  0.118120 -0.104752 0.987459  0.792824 0.916417 0
0  0.408163 0.837224 -7.332283  0.118120 -0.104752 0.987459  0.792873 0.916417 0
lowpoly_metal.001
0  -0.372020 -0.249101 -9.084156  -0.786041 -0.618175 0.000000  0.033845 0.723826 0
0  -0.301651 -0.338578 -8.032051  -0.786041 -0.618175 0.000000  0.034814 0.721759 0
0  -0.372020 -0.249101 -8.031553  -0.786041 -0.618175 0.000000  0.033845 0.723516 0
lowpoly_plastic
0  -0.301652 0.796986 -7.332283  0.000000 0.000000 1.000000  0.792880 0.919255 0
0  0.000232 0.850764 -7.332283  0.000000 0.000000 1.000000  0.792911 0.919255 0
0  -0.301652 0.850764 -7.332283  0.000000 0.000000 1.000000  0.792880 0.919255 0
lowpoly_plastic
0  0.302116 -0.338578 -8.032051  0.003189 0.001547 -0.999994  0.792830 0.916211 0
0  0.423312 -0.266669 -8.031553  0.003189 0.001547 -0.999994  0.792252 0.916211 0
0  0.325581 -0.386967 -8.032051  0.003189 0.001547 -0.999994  0.792830 0.916211 0
lowpoly_plastic
0  0.325581 -0.386967 -8.032051  0.016562 -0.999863 0.000000  0.895641 0.915579 0
0  0.000232 -0.392356 -7.334820  0.016562 -0.999863 0.000000  0.896238 0.915784 0
0  0.000232 -0.392356 -8.032051  0.016562 -0.999863 0.000000  0.896238 0.915579 0
lowpoly_plastic
0  0.426262 0.206316 -8.035315  1.000000 -0.000000 0.000000  0.895316 0.915579 0
0  0.426262 0.709795 -7.347966  1.000000 -0.000000 0.000000  0.895635 0.915784 0
0  0.426262 0.193798 -7.337857  1.000000 -0.000000 0.000000  0.895309 0.915784 0
lowpoly_plastic
0  -0.425798 0.206316 -8.035315  -1.000000 0.000000 0.000000  0.894645 0.918828 0
0  -0.425798 0.709795 -7.347966  -1.000000 0.000000 0.000000  0.894964 0.918622 0
0  -0.425798 0.709795 -8.046171  -1.000000 0.000000 0.000000  0.894964 0.918828 0
lowpoly_plastic
0  -0.301651 -0.338578 -8.032051  -0.000000 0.000000 -1.000000  0.792550 0.917704 0
0  0.000232 -0.392356 -8.032051  -0.000000 0.000000 -1.000000  0.793427 0.916211 0
0  -0.325117 -0.386967 -8.032051  -0.000000 0.000000 -1.000000  0.792550 0.917704 0
lowpoly_metal.001
0  0.372484 0.796986 -9.081699  1.000000 0.000000 0.000000  0.035137 0.719955 0
0  0.372484 0.709795 -8.046171  1.000000 0.000000 0.000000  0.035088 0.720266 0
0  0.372484 0.709795 -9.100294  1.000000 0.000000 0.000000  0.035088 0.719955 0
lowpoly_plastic
0  0.000232 0.850764 -8.029327  0.000000 1.000000 0.000000  0.895721 0.918828 0
0  0.302115 0.850764 -7.332283  0.000000 1.000000 0.000000  0.895752 0.918622 0
0  0.302115 0.850764 -8.029327  0.000000 1.000000 0.000000  0.895752 0.918828 0
lowpoly_metal.001
0  0.372484 -0.249101 2.091471  0.786042 -0.618173 -0.000000  0.034516 0.723254 0
0  0.302116 -0.338578 -7.334820  0.786042 -0.618173 -0.000000  0.035094 0.720472 0
0  0.372484 -0.249101 -7.334354  0.786042 -0.618173 -0.000000  0.034516 0.720472 0
lowpoly_plastic
0  0.372484 0.193798 -7.337857  0.000000 0.007606 0.999971  0.792498 0.916417 0
0  0.423297 -0.266712 -7.334354  0.000000 0.007606 0.999971  0.792252 0.916417 0
0  0.426262 0.193798 -7.337857  0.000000 0.007606 0.999971  0.792498 0.916417 0
lowpoly_plastic
0  -0.372020 0.709795 -7.347966  0.000000 -0.122153 0.992511  0.792153 0.919255 0
0  -0.407700 0.837224 -7.332283  0.000000 -0.122153 0.992511  0.792549 0.919255 0
0  -0.425798 0.709795 -7.347966  0.000000 -0.122153 0.992511  0.792153 0.919255 0
lowpoly_plastic
0  -0.372020 0.193798 -7.337857  0.000000 0.019587 0.999808  0.791827 0.919255 0
0  -0.425798 0.709795 -7.347966  0.000000 0.019587 0.999808  0.792153 0.919255 0
0  -0.425798 0.193798 -7.337857  0.000000 0.019587 0.999808  0.791827 0.919255 0
lowpoly_plastic
0  -0.425798 0.709795 -7.347966  -0.993906 0.110231 0.000000  0.894964 0.918622 0
0  -0.412159 0.832777 -8.029327  -0.993906 0.110231 0.000000  0.895347 0.918828 0
0  -0.425798 0.709795 -8.046171  -0.993906 0.110231 0.000000  0.894964 0.918828 0
lowpoly_plastic
0  0.423312 -0.266669 -8.031553  0.999979 -0.006439 0.000021  0.895062 0.915579 0
0  0.426262 0.193798 -7.337857  0.999979 -0.006439 0.000021  0.895309 0.915784 0
0  0.423297 -0.266712 -7.334354  0.999979 -0.006439 0.000021  0.895062 0.915784 0
lowpoly_plastic
0  0.372484 0.709795 -8.046171  0.000000 0.135695 -0.990751  0.792824 0.916211 0
0  0.412623 0.832777 -8.029327  0.000000 0.135695 -0.990751  0.792887 0.916937 0
0  0.426262 0.709795 -8.046171  0.000000 0.135695 -0.990751  0.792824 0.916211 0
lowpoly_plastic
0  -0.372020 0.206316 -8.035315  0.000000 -0.007952 -0.999968  0.791834 0.919460 0
0  -0.422848 -0.266669 -8.031553  0.000000 -0.007952 -0.999968  0.791580 0.919461 0
0  -0.425798 0.206316 -8.035315  0.000000 -0.007952 -0.999968  0.791834 0.919460 0
lowpoly_plastic
0  0.000232 -0.338578 -7.334820  0.000000 0.000000 1.000000  0.793427 0.916417 0
0  -0.325180 -0.386937 -7.334820  0.000000 0.000000 1.000000  0.792606 0.917619 0
0  0.000232 -0.392356 -7.334820  0.000000 0.000000 1.000000  0.793427 0.916417 0
lowpoly_plastic
0  -0.372020 0.796986 -7.332283  -0.000003 0.000000 1.000000  0.792549 0.919255 0
0  -0.301652 0.850764 -7.332283  -0.000003 0.000000 1.000000  0.792880 0.919255 0
0  -0.407700 0.837224 -7.332283  -0.000003 0.000000 1.000000  0.792549 0.919255 0
lowpoly_metal.001
0  -0.327726 -0.382672 -9.125610  0.000000 -0.027022 -0.999635  0.062799 0.795793 0
0  0.417730 -0.293133 -9.128031  0.000000 -0.027022 -0.999635  0.062875 0.795743 0
0  0.328191 -0.382672 -9.125610  0.000000 -0.027022 -0.999635  0.062866 0.795793 0
lowpoly_metal.001
0  -0.292816 0.709795 2.892540  -0.995148 0.000000 0.098394  0.034417 0.720082 0
0  -0.372020 0.796986 2.091472  -0.995148 0.000000 0.098394  0.034466 0.720527 0
0  -0.372020 0.709795 2.091472  -0.995148 0.000000 0.098394  0.034417 0.720527 0
lowpoly_metal.001
0  0.417730 -0.293133 -9.072630  0.000000 0.027022 0.999635  0.062959 0.795122 0
0  -0.327726 -0.382672 -9.070210  0.000000 0.027022 0.999635  0.062884 0.795072 0
0  0.328191 -0.382672 -9.070210  0.000000 0.027022 0.999635  0.062950 0.795072 0
lowpoly_metal.001
0  -0.327726 -0.382672 -9.070210  0.000000 0.027022 0.999635  0.062884 0.795072 0
0  0.417730 -0.293133 -9.072630  0.000000 0.027022 0.999635  0.062959 0.795122 0
0  -0.417265 -0.293133 -9.072630  0.000000 0.027022 0.999635  0.062875 0.795122 0
lowpoly_metal.001
0  -0.437023 0.373631 -1.385512  -1.000000 0.000000 0.000000  0.036010 0.720257 0
0  -0.437023 0.211756 -1.385512  -1.000000 0.000000 0.000000  0.036010 0.720347 0
0  -0.437023 0.085182 -1.243483  -1.000000 0.000000 0.000000  0.035930 0.720417 0
lowpoly_metal.001
0  -0.437023 0.085182 -1.285688  -1.000000 0.000000 0.000000  0.035954 0.720417 0
0  -0.437023 0.085182 -1.243483  -1.000000 0.000000 0.000000  0.035930 0.720417 0
0  -0.437023 0.211756 -1.385512  -1.000000 0.000000 0.000000  0.036010 0.720347 0
lowpoly_metal.001
0  -0.437023 0.500203 -1.243483  -1.000000 0.000000 0.000000  0.035930 0.720186 0
0  -0.437023 0.500203 -1.285688  -1.000000 0.000000 0.000000  0.035954 0.720186 0
0  -0.437023 0.373631 -1.385512  -1.000000 0.000000 0.000000  0.036010 0.720257 0
lowpoly_plastic
0  0.372484 0.709795 -7.347966  0.000000 0.019587 0.999808  0.792824 0.916417 0
0  0.426262 0.193798 -7.337857  0.000000 0.019587 0.999808  0.792498 0.916417 0
0  0.426262 0.709795 -7.347966  0.000000 0.019587 0.999808  0.792824 0.916417 0
lowpoly_plastic
0  0.302115 0.796986 -7.332283  0.000003 0.000000 1.000000  0.792941 0.919255 0
0  0.408163 0.837224 -7.332283  0.000003 0.000000 1.000000  0.792873 0.916417 0
0  0.302115 0.850764 -7.332283  0.000003 0.000000 1.000000  0.792941 0.919255 0
lowpoly_metal.001
0  0.437487 0.211756 -1.385512  1.000000 0.000000 0.000000  0.036010 0.720026 0
0  0.437487 0.373631 -1.385512  1.000000 0.000000 0.000000  0.036010 0.720116 0
0  0.437487 0.500203 -1.243483  1.000000 0.000000 0.000000  0.035930 0.720186 0
lowpoly_metal.001
0  0.437487 0.500203 -1.285688  1.000000 0.000001 0.000000  0.035954 0.720186 0
0  0.437487 0.500203 -1.243483  1.000000 0.000001 0.000000  0.035930 0.720186 0
0  0.437487 0.373631 -1.385512  1.000000 0.000001 0.000000  0.036010 0.720116 0
lowpoly_metal.001
0  0.437487 0.085182 -1.243483  1.000000 0.000000 0.000000  0.035930 0.719956 0
0  0.437487 0.085182 -1.285688  1.000000 0.000000 0.000000  0.035954 0.719956 0
0  0.437487 0.211756 -1.385512  1.000000 0.000000 0.000000  0.036010 0.720026 0
lowpoly_metal.001
0  0.000232 -0.338578 2.091471  0.000000 -1.000000 0.000000  0.035691 0.723254 0
0  -0.301651 -0.338578 -7.334820  0.000000 -1.000000 0.000000  0.034870 0.721674 0
0  0.000232 -0.338578 -7.334820  0.000000 -1.000000 0.000000  0.035691 0.720472 0
lowpoly_plastic
0  -0.372020 -0.249101 -8.031553  -0.001111 0.003231 -0.999994  0.791580 0.919461 0
0  -0.325117 -0.386967 -8.032051  -0.001111 0.003231 -0.999994  0.792550 0.917704 0
0  -0.422848 -0.266669 -8.031553  -0.001111 0.003231 -0.999994  0.791580 0.919461 0
lowpoly_metal.001
0  0.372484 -0.249101 -9.084156  1.000000 0.000000 0.000000  0.034516 0.719955 0
0  0.372484 0.206316 -8.035315  1.000000 0.000000 0.000000  0.034769 0.720266 0
0  0.372484 -0.249101 -8.031553  1.000000 0.000000 0.000000  0.034516 0.720266 0
lowpoly_metal.001
0  0.302116 -0.338578 -9.084707  0.000000 -1.000000 0.000000  0.035722 0.719955 0
0  0.000232 -0.338578 -8.032051  0.000000 -1.000000 0.000000  0.035691 0.720266 0
0  0.000232 -0.338578 -9.084707  0.000000 -1.000000 0.000000  0.035691 0.719955 0
lowpoly_plastic
0  0.412623 0.832777 -8.029327  0.993906 0.110232 0.000000  0.895698 0.916305 0
0  0.426262 0.709795 -7.347966  0.993906 0.110232 0.000000  0.895635 0.915784 0
0  0.426262 0.709795 -8.046171  0.993906 0.110232 0.000000  0.895635 0.915579 0
lowpoly_plastic
0  0.372484 -0.249101 -7.334354  -0.001035 -0.003021 0.999995  0.792252 0.916417 0
0  0.325644 -0.386937 -7.334820  -0.001035 -0.003021 0.999995  0.792830 0.916417 0
0  0.423297 -0.266712 -7.334354  -0.001035 -0.003021 0.999995  0.792252 0.916417 0
lowpoly_plastic
0  0.000232 -0.338578 -8.032051  0.000000 0.000000 -1.000000  0.793427 0.916211 0
0  0.325581 -0.386967 -8.032051  0.000000 0.000000 -1.000000  0.792830 0.916211 0
0  0.000232 -0.392356 -8.032051  0.000000 0.000000 -1.000000  0.793427 0.916211 0
lowpoly_metal.001
0  -0.301652 0.796986 2.091472  0.000000 1.000000 0.000000  0.035144 0.720527 0
0  0.000232 0.796986 -7.332283  0.000000 1.000000 0.000000  0.035175 0.723310 0
0  -0.301652 0.796986 -7.332283  0.000000 1.000000 0.000000  0.035144 0.723310 0
lowpoly_plastic
0  0.372484 0.206316 -8.035315  0.000000 -0.021558 -0.999768  0.792505 0.916211 0
0  0.426262 0.709795 -8.046171  0.000000 -0.021558 -0.999768  0.792824 0.916211 0
0  0.426262 0.206316 -8.035315  0.000000 -0.021558 -0.999768  0.792505 0.916211 0
lowpoly_plastic
0  -0.301652 0.850764 -7.332283  0.000000 1.000000 0.000000  0.895691 0.918622 0
0  0.000232 0.850764 -8.029327  0.000000 1.000000 0.000000  0.895721 0.918828 0
0  -0.301652 0.850764 -8.029327  0.000000 1.000000 0.000000  0.895691 0.918828 0
lowpoly_plastic
0  0.000232 -0.392356 -7.334820  -0.016562 -0.999863 0.000000  0.896238 0.915784 0
0  -0.325117 -0.386967 -8.032051  -0.016562 -0.999863 0.000000  0.895361 0.917072 0
0  0.000232 -0.392356 -8.032051  -0.016562 -0.999863 0.000000  0.896238 0.915579 0
lowpoly_plastic
0  0.000232 0.796986 -7.332283  0.000000 0.000000 1.000000  0.792911 0.919255 0
0  0.302115 0.850764 -7.332283  0.000000 0.000000 1.000000  0.792941 0.919255 0
0  0.000232 0.850764 -7.332283  0.000000 0.000000 1.000000  0.792911 0.919255 0
lowpoly_plastic
0  0.000232 0.796986 -8.029327  0.000000 0.000000 -1.000000  0.792911 0.919460 0
0  -0.301652 0.850764 -8.029327  0.000000 0.000000 -1.000000  0.792880 0.919460 0
0  0.000232 0.850764 -8.029327  0.000000 0.000000 -1.000000  0.792911 0.919460 0
lowpoly_plastic
0  -0.372020 0.796986 -8.029327  0.109637 0.122934 -0.986340  0.792536 0.919460 0
0  -0.425798 0.709795 -8.046171  0.109637 0.122934 -0.986340  0.792153 0.919460 0
0  -0.412159 0.832777 -8.029327  0.109637 0.122934 -0.986340  0.792536 0.919460 0
lowpoly_metal.001
0  0.302115 0.796986 -9.081699  0.000000 1.000000 0.000000  0.035205 0.723826 0
0  0.372484 0.796986 -8.029327  0.000000 1.000000 0.000000  0.035151 0.720992 0
0  0.372484 0.796986 -9.081699  0.000000 1.000000 0.000000  0.035212 0.723826 0
lowpoly_plastic
0  0.302116 -0.338578 -7.334820  0.000000 0.000000 1.000000  0.792830 0.916417 0
0  0.000232 -0.392356 -7.334820  0.000000 0.000000 1.000000  0.793427 0.916417 0
0  0.325644 -0.386937 -7.334820  0.000000 0.000000 1.000000  0.792830 0.916417 0
lowpoly_metal.001
0  -0.372020 -0.249101 -9.084156  -1.000000 0.000000 0.000000  0.033845 0.723826 0
0  -0.372020 0.206316 -8.035315  -1.000000 0.000000 0.000000  0.034098 0.723516 0
0  -0.372020 0.225215 -9.088308  -1.000000 0.000000 0.000000  0.034108 0.723826 0
lowpoly_plastic
0  0.302115 0.796986 -8.029327  0.000000 0.000000 -1.000000  0.792941 0.919460 0
0  0.000232 0.850764 -8.029327  0.000000 0.000000 -1.000000  0.792911 0.919460 0
0  0.302115 0.850764 -8.029327  0.000000 0.000000 -1.000000  0.792941 0.919460 0
lowpoly_metal.001
0  -0.437023 0.085182 -1.243483  0.000000 -1.000000 0.000000  0.035212 0.722084 0
0  0.437487 0.085182 -1.285688  0.000000 -1.000000 0.000000  0.035236 0.722172 0
0  0.437487 0.085182 -1.243483  0.000000 -1.000000 0.000000  0.035212 0.722172 0
lowpoly_metal.001
0  -0.222447 0.796986 2.892540  0.952172 0.000000 -0.305564  0.035338 0.721198 0
0  -0.149690 0.796986 3.119259  0.952172 0.000000 -0.305564  0.035212 0.721198 0
0  -0.149690 0.709795 3.119259  0.952172 0.000000 -0.305564  0.035212 0.721150 0
lowpoly_metal.001
0  0.372484 0.225215 -9.088308  0.000000 -0.008754 -0.999962  0.035797 0.721712 0
0  0.372484 -0.249101 -9.084156  0.000000 -0.008754 -0.999962  0.035797 0.721976 0
0  0.302116 -0.249101 -9.084156  0.000000 -0.008754 -0.999962  0.035790 0.721976 0
lowpoly_metal.001
0  -0.222447 -0.001413 2.892540  0.000000 0.000000 1.000000  0.035938 0.720605 0
0  -0.292816 -0.001413 2.892540  0.000000 0.000000 1.000000  0.035930 0.720605 0
0  -0.292816 -0.249101 2.892540  0.000000 0.000000 1.000000  0.035930 0.720467 0
lowpoly_metal.001
0  0.000232 -0.338578 -9.084707  0.000000 0.006160 -0.999981  0.035759 0.722025 0
0  -0.301651 -0.338578 -9.084707  0.000000 0.006160 -0.999981  0.035729 0.722025 0
0  -0.301651 -0.249101 -9.084156  0.000000 0.006160 -0.999981  0.035729 0.721976 0
lowpoly_metal.001
0  -0.301652 0.709795 -9.100294  0.000000 0.208575 -0.978006  0.035729 0.721403 0
0  -0.372020 0.709795 -9.100294  0.000000 0.208575 -0.978006  0.035722 0.721403 0
0  -0.372020 0.796986 -9.081699  0.000000 0.208575 -0.978006  0.035722 0.721354 0
lowpoly_metal.001
0  0.374922 0.203506 -1.463037  0.000000 0.000000 -1.000000  0.036071 0.721842 0
0  -0.374458 0.203506 -1.463037  0.000000 0.000000 -1.000000  0.035995 0.721842 0
0  -0.374458 0.381880 -1.463037  0.000000 0.000000 -1.000000  0.035995 0.721742 0
lowpoly_metal.001
0  -0.301652 0.796986 -8.029327  0.000000 1.000000 0.000000  0.035144 0.723516 0
0  0.000232 0.796986 -8.029327  0.000000 1.000000 0.000000  0.035175 0.723516 0
0  0.000232 0.796986 -9.081699  0.000000 1.000000 0.000000  0.035175 0.723826 0
lowpoly_metal.001
0  -0.374458 0.085182 -1.369719  0.000000 -1.000000 0.000000  0.035283 0.722090 0
0  0.374922 0.085182 -1.369718  0.000000 -1.000000 0.000000  0.035283 0.722166 0
0  0.437487 0.085182 -1.285688  0.000000 -1.000000 0.000000  0.035236 0.722172 0
lowpoly_metal.001
0  0.437487 0.500203 -1.243483  0.000000 0.000000 1.000000  0.036071 0.720864 0
0  -0.437023 0.500203 -1.243483  0.000000 0.000000 1.000000  0.035983 0.720864 0
0  -0.437023 0.085182 -1.243483  0.000000 0.000000 1.000000  0.035983 0.720633 0
lowpoly_metal.001
0  -0.372020 -0.249101 -7.334354  -0.786041 -0.618175 0.000000  0.033845 0.723310 0
0  -0.301651 -0.338578 -7.334820  -0.786041 -0.618175 0.000000  0.034870 0.721674 0
0  -0.301651 -0.338578 2.091471  -0.786041 -0.618175 0.000000  0.033795 0.720527 0
lowpoly_metal.001
0  0.000232 -0.338578 -8.032051  0.000000 -1.000000 0.000000  0.035691 0.720266 0
0  -0.301651 -0.338578 -8.032051  0.000000 -1.000000 0.000000  0.034814 0.721759 0
0  -0.301651 -0.338578 -9.084707  0.000000 -1.000000 0.000000  0.035661 0.719955 0
lowpoly_metal.001
0  0.222911 0.709795 2.892540  -0.990765 0.000000 -0.135591  0.035338 0.720004 0
0  0.302115 0.709795 2.313789  -0.990765 0.000000 -0.135591  0.035661 0.720004 0
0  0.302115 0.225214 2.313789  -0.990765 0.000000 -0.135591  0.035661 0.720313 0
lowpoly_metal.001
0  0.302116 -0.249101 2.313789  0.000000 0.000000 1.000000  0.035952 0.720633 0
0  0.302115 0.225214 2.313789  0.000000 0.000000 1.000000  0.035952 0.720897 0
0  0.000232 0.225214 2.313789  0.000000 0.000000 1.000000  0.035921 0.720897 0
lowpoly_metal.001
0  0.000232 0.709795 2.313789  -0.000002 0.000000 1.000000  0.035921 0.721206 0
0  -0.301652 0.709795 2.313789  -0.000002 0.000000 1.000000  0.035891 0.721206 0
0  -0.301652 0.225214 2.313789  -0.000002 0.000000 1.000000  0.035891 0.720897 0
lowpoly_metal.001
0  -0.149690 0.796986 3.119259  0.000000 0.000000 1.000000  0.036081 0.720333 0
0  -0.220059 0.796986 3.119259  0.000000 0.000000 1.000000  0.036073 0.720333 0
0  -0.220058 0.709795 3.119259  0.000000 0.000000 1.000000  0.036073 0.720285 0
lowpoly_metal.001
0  0.293280 -0.249101 2.892540  0.000000 0.000000 1.000000  0.035990 0.720467 0
0  0.293280 -0.001413 2.892540  0.000000 0.000000 1.000000  0.035990 0.720605 0
0  0.222911 -0.001413 2.892540  0.000000 0.000000 1.000000  0.035983 0.720605 0
lowpoly_metal.001
0  -0.222447 0.796986 2.892540  0.000000 1.000000 0.000000  0.035152 0.720082 0
0  -0.292816 0.796986 2.892540  0.000000 1.000000 0.000000  0.035145 0.720082 0
0  -0.220059 0.796986 3.119259  0.000000 1.000000 0.000000  0.035152 0.719955 0
lowpoly_metal.001
0  0.220522 0.709795 3.119259  0.000000 0.000000 1.000000  0.036083 0.720747 0
0  0.220522 0.796986 3.119259  0.000000 0.000000 1.000000  0.036083 0.720795 0
0  0.150154 0.796986 3.119259  0.000000 0.000000 1.000000  0.036076 0.720795 0
lowpoly_metal.001
0  0.417730 -0.293133 -9.072630  1.000000 0.000000 0.000000  0.063020 0.795122 0
0  0.417730 -0.293133 -9.128031  1.000000 0.000000 0.000000  0.063051 0.795122 0
0  0.417730 0.842454 -9.135401  1.000000 0.000000 0.000000  0.063051 0.795793 0
lowpoly_metal.001
0  -0.372020 -0.249101 -7.334354  -1.000000 0.000000 0.000000  0.033845 0.723310 0
0  -0.372020 -0.249101 2.091471  -1.000000 0.000000 0.000000  0.033845 0.720527 0
0  -0.372020 0.024556 2.091471  -1.000000 0.000000 0.000000  0.033997 0.720527 0
lowpoly_metal.001
0  -0.327726 -0.382672 -9.125610  -0.707115 -0.707098 0.000000  0.062729 0.796358 0
0  -0.327726 -0.382672 -9.070210  -0.707115 -0.707098 0.000000  0.062698 0.796358 0
0  -0.417265 -0.293133 -9.072630  -0.707115 -0.707098 0.000000  0.062698 0.796308 0
lowpoly_metal.001
0  -0.372020 0.193798 -7.337857  -1.000000 0.000000 0.000000  0.034091 0.723310 0
0  -0.372020 0.024556 2.091471  -1.000000 0.000000 0.000000  0.033997 0.720527 0
0  -0.372020 0.709795 2.091472  -1.000000 0.000000 0.000000  0.034417 0.720527 0
lowpoly_metal.001
0  0.417730 -0.293133 -9.128031  0.000000 -0.006490 -0.999979  0.062875 0.795743 0
0  -0.417265 -0.293133 -9.128031  0.000000 -0.006490 -0.999979  0.062790 0.795743 0
0  -0.417265 0.842454 -9.135401  0.000000 -0.006490 -0.999979  0.062790 0.795072 0
lowpoly_metal.001
0  -0.327726 -0.382672 -9.070210  0.000000 -1.000000 0.000000  0.062421 0.796522 0
0  -0.327726 -0.382672 -9.125610  0.000000 -1.000000 0.000000  0.062452 0.796522 0
0  0.328191 -0.382672 -9.125610  0.000000 -1.000000 0.000000  0.062452 0.796589 0
lowpoly_metal.001
0  -0.292816 0.709795 2.892540  -0.952172 -0.000005 0.305564  0.034417 0.720082 0
0  -0.220058 0.709795 3.119259  -0.952172 -0.000005 0.305564  0.034417 0.719955 0
0  -0.220059 0.796986 3.119259  -0.952172 -0.000005 0.305564  0.034465 0.719955 0
lowpoly_metal.001
0  -0.372020 0.796986 2.091472  0.000000 1.000000 0.000000  0.035137 0.720527 0
0  -0.301652 0.796986 2.091472  0.000000 1.000000 0.000000  0.035144 0.720527 0
0  -0.301652 0.796986 -7.332283  0.000000 1.000000 0.000000  0.035144 0.723310 0
lowpoly_metal.001
0  0.374922 0.500203 -1.369718  0.000000 1.000000 0.000000  0.035283 0.722166 0
0  -0.374458 0.500203 -1.369718  0.000000 1.000000 0.000000  0.035283 0.722090 0
0  -0.437023 0.500203 -1.285688  0.000000 1.000000 0.000000  0.035329 0.722084 0
lowpoly_metal.001
0  -0.437023 0.373631 -1.385512  -0.725631 0.426100 -0.540277  0.036010 0.720257 0
0  -0.437023 0.500203 -1.285688  -0.725631 0.426100 -0.540277  0.035954 0.720186 0
0  -0.374458 0.500203 -1.369718  -0.725631 0.426100 -0.540277  0.036001 0.720187 0
lowpoly_metal.001
0  0.437487 0.211756 -1.385512  0.725632 -0.426097 -0.540277  0.036010 0.720026 0
0  0.437487 0.085182 -1.285688  0.725632 -0.426097 -0.540277  0.035954 0.719956 0
0  0.374922 0.085182 -1.369718  0.725632 -0.426097 -0.540277  0.036001 0.719955 0
lowpoly_metal.001
0  0.437487 0.373631 -1.385512  0.725635 0.426101 -0.540270  0.036010 0.720116 0
0  0.374922 0.381880 -1.463037  0.725635 0.426101 -0.540270  0.036053 0.720120 0
0  0.374922 0.500203 -1.369718  0.725635 0.426101 -0.540270  0.036001 0.720186 0
lowpoly_metal.001
0  -0.292816 0.796986 2.892540  0.000000 1.000000 0.000000  0.035145 0.720082 0
0  -0.222447 0.796986 2.892540  0.000000 1.000000 0.000000  0.035152 0.720082 0
0  -0.301652 0.796986 2.091472  0.000000 1.000000 0.000000  0.035144 0.720527 0
lowpoly_metal.001
0  0.437487 0.211756 -1.385512  0.778190 0.000000 -0.628029  0.036010 0.720026 0
0  0.374922 0.203506 -1.463037  0.778190 0.000000 -0.628029  0.036053 0.720021 0
0  0.374922 0.381880 -1.463037  0.778190 0.000000 -0.628029  0.036053 0.720120 0
lowpoly_metal.001
0  0.000232 0.709795 -9.100294  0.000000 0.208575 -0.978006  0.035759 0.721403 0
0  -0.301652 0.709795 -9.100294  0.000000 0.208575 -0.978006  0.035729 0.721403 0
0  -0.301652 0.796986 -9.081699  0.000000 0.208575 -0.978006  0.035729 0.721354 0
lowpoly_metal.001
0  0.220522 0.188204 3.119259  0.000000 -0.767082 0.641549  0.036018 0.721187 0
0  0.150154 0.188204 3.119259  0.000000 -0.767082 0.641549  0.036025 0.721187 0
0  0.222911 -0.001413 2.892540  0.000000 -0.767082 0.641549  0.036025 0.721313 0
lowpoly_metal.001
0  0.372484 0.024556 2.091471  0.995148 0.000000 0.098394  0.034668 0.723254 0
0  0.372484 0.709795 2.091472  0.995148 0.000000 0.098394  0.035088 0.723254 0
0  0.293279 0.709795 2.892540  0.995148 0.000000 0.098394  0.035088 0.723700 0
lowpoly_metal.001
0  0.293280 -0.249101 2.892540  0.783679 -0.616315 0.077485  0.034516 0.723700 0
0  0.222911 -0.338579 2.892540  0.783679 -0.616315 0.077485  0.034466 0.723700 0
0  0.302116 -0.338578 2.091471  0.783679 -0.616315 0.077485  0.034466 0.723254 0
lowpoly_metal.001
0  0.000232 0.225214 2.313789  0.000000 0.000000 1.000000  0.035921 0.720897 0
0  -0.301652 0.225214 2.313789  0.000000 0.000000 1.000000  0.035891 0.720897 0
0  -0.301651 -0.249101 2.313789  0.000000 0.000000 1.000000  0.035891 0.720633 0
lowpoly_metal.001
0  -0.301651 -0.249101 -9.084156  0.000000 -0.008754 -0.999962  0.035729 0.721976 0
0  -0.372020 -0.249101 -9.084156  0.000000 -0.008754 -0.999962  0.035722 0.721976 0
0  -0.372020 0.225215 -9.088308  0.000000 -0.008754 -0.999962  0.035722 0.721712 0
lowpoly_metal.001
0  0.302115 0.796986 2.091472  0.000000 1.000000 0.000000  0.035205 0.720527 0
0  0.222911 0.796986 2.892540  0.000000 1.000000 0.000000  0.035197 0.720082 0
0  0.293279 0.796986 2.892540  0.000000 1.000000 0.000000  0.035204 0.720082 0
lowpoly_metal.001
0  0.302115 0.709795 -9.100294  0.000000 -0.024727 -0.999694  0.035790 0.721403 0
0  0.302115 0.225215 -9.088308  0.000000 -0.024727 -0.999694  0.035790 0.721712 0
0  0.000232 0.225215 -9.088308  0.000000 -0.024727 -0.999694  0.035759 0.721712 0
lowpoly_metal.001
0  -0.374458 0.381880 -1.463037  0.000000 0.619260 -0.785186  0.035995 0.721742 0
0  -0.374458 0.500203 -1.369718  0.000000 0.619260 -0.785186  0.035995 0.721676 0
0  0.374922 0.500203 -1.369718  0.000000 0.619260 -0.785186  0.036071 0.721676 0
lowpoly_metal.001
0  -0.149690 0.709795 3.119259  0.000000 0.000000 1.000000  0.036081 0.720285 0
0  -0.220058 0.709795 3.119259  0.000000 0.000000 1.000000  0.036073 0.720285 0
0  -0.220058 0.188204 3.119259  0.000000 0.000000 1.000000  0.036073 0.719955 0
lowpoly_metal.001
0  0.000232 0.796986 2.091472  0.000000 1.000000 0.000000  0.035175 0.720527 0
0  0.000232 0.796986 2.892540  0.000000 1.000000 0.000000  0.035175 0.720082 0
0  0.222911 0.796986 2.892540  0.000000 1.000000 0.000000  0.035197 0.720082 0
lowpoly_metal.001
0  -0.222447 -0.001413 2.892540  0.000000 -0.767082 0.641549  0.035795 0.722026 0
0  -0.149690 0.188204 3.119259  0.000000 -0.767082 0.641549  0.035795 0.722152 0
0  -0.220058 0.188204 3.119259  0.000000 -0.767082 0.641549  0.035787 0.722152 0
lowpoly_metal.001
0  0.222911 -0.249101 2.892540  0.000000 1.000000 0.000000  0.036036 0.720864 0
0  0.302116 -0.249101 2.313789  0.000000 1.000000 0.000000  0.036044 0.721187 0
0  0.000232 -0.249101 2.313789  0.000000 1.000000 0.000000  0.036013 0.721187 0
lowpoly_metal.001
0  0.372484 -0.249101 -8.031553  0.786042 -0.618174 0.000000  0.034516 0.720266 0
0  0.302116 -0.338578 -8.032051  0.786042 -0.618174 0.000000  0.035094 0.720266 0
0  0.302116 -0.338578 -9.084707  0.786042 -0.618174 0.000000  0.034466 0.719955 0
lowpoly_metal.001
0  -0.222447 -0.001413 2.892540  0.990765 0.000000 -0.135591  0.035338 0.720715 0
0  -0.222447 -0.249101 2.892540  0.990765 0.000000 -0.135591  0.035338 0.720577 0
0  -0.301651 -0.249101 2.313789  0.990765 0.000000 -0.135591  0.035661 0.720577 0
lowpoly_metal.001
0  0.372484 0.796986 2.091472  0.995148 0.000000 0.098394  0.035137 0.723254 0
0  0.293279 0.796986 2.892540  0.995148 0.000000 0.098394  0.035137 0.723700 0
0  0.293279 0.709795 2.892540  0.995148 0.000000 0.098394  0.035088 0.723700 0
lowpoly_metal.001
0  -0.301652 0.225215 -9.088308  0.000000 -0.024727 -0.999694  0.035729 0.721712 0
0  -0.372020 0.225215 -9.088308  0.000000 -0.024727 -0.999694  0.035722 0.721712 0
0  -0.372020 0.709795 -9.100294  0.000000 -0.024727 -0.999694  0.035722 0.721403 0
lowpoly_metal.001
0  -0.372020 0.024556 2.091471  -0.995148 0.000000 0.098394  0.033997 0.720527 0
0  -0.292816 -0.001413 2.892540  -0.995148 0.000000 0.098394  0.033982 0.720081 0
0  -0.292816 0.709795 2.892540  -0.995148 0.000000 0.098394  0.034417 0.720082 0
lowpoly_metal.001
0  0.374922 0.203506 -1.463037  0.000001 -0.619259 -0.785187  0.036071 0.721842 0
0  0.374922 0.085182 -1.369718  0.000001 -0.619259 -0.785187  0.036071 0.721907 0
0  -0.374458 0.085182 -1.369719  0.000001 -0.619259 -0.785187  0.035995 0.721907 0
lowpoly_metal.001
0  0.222911 0.796986 2.892540  0.000000 1.000000 0.000000  0.035197 0.720082 0
0  0.150154 0.796986 3.119259  0.000000 1.000000 0.000000  0.035190 0.719955 0
0  0.220522 0.796986 3.119259  0.000000 1.000000 0.000000  0.035197 0.719955 0
lowpoly_metal.001
0  0.000232 -0.249101 2.892540  0.000000 0.000000 1.000000  0.035960 0.720467 0
0  -0.222447 -0.249101 2.892540  0.000000 0.000000 1.000000  0.035938 0.720467 0
0  -0.222447 -0.338579 2.892540  0.000000 0.000000 1.000000  0.035938 0.720417 0
lowpoly_metal.001
0  0.293279 0.709795 2.892540  0.952171 0.000000 0.305564  0.035088 0.723700 0
0  0.220522 0.709795 3.119259  0.952171 0.000000 0.305564  0.035088 0.723826 0
0  0.220522 0.188204 3.119259  0.952171 0.000000 0.305564  0.034759 0.723826 0
lowpoly_metal.001
0  0.372484 -0.249101 -7.334354  1.000000 0.000000 -0.000000  0.034516 0.720472 0
0  0.372484 0.193798 -7.337857  1.000000 0.000000 -0.000000  0.034762 0.720472 0
0  0.372484 0.024556 2.091471  1.000000 0.000000 -0.000000  0.034668 0.723254 0
lowpoly_metal.001
0  -0.222447 -0.249101 2.892540  0.000000 1.000000 0.000000  0.035991 0.720864 0
0  0.000232 -0.249101 2.892540  0.000000 1.000000 0.000000  0.036013 0.720864 0
0  0.000232 -0.249101 2.313789  0.000000 1.000000 0.000000  0.036013 0.721187 0
lowpoly_metal.001
0  0.000232 0.796986 2.892540  0.000000 0.000000 1.000000  0.035913 0.721339 0
0  -0.222447 0.796986 2.892540  0.000000 0.000000 1.000000  0.035891 0.721339 0
0  -0.222447 0.709795 2.892540  0.000000 0.000000 1.000000  0.035891 0.721291 0
lowpoly_metal.001
0  0.372484 0.193798 -7.337857  1.000000 -0.000000 0.000000  0.034762 0.720472 0
0  0.372484 0.709795 -7.347966  1.000000 -0.000000 0.000000  0.035088 0.720472 0
0  0.372484 0.709795 2.091472  1.000000 -0.000000 0.000000  0.035088 0.723254 0
lowpoly_metal.001
0  0.372484 0.796986 -7.332283  1.000000 0.000000 0.000000  0.035137 0.720472 0
0  0.372484 0.796986 2.091472  1.000000 0.000000 0.000000  0.035137 0.723254 0
0  0.372484 0.709795 2.091472  1.000000 0.000000 0.000000  0.035088 0.723254 0
lowpoly_metal.001
0  0.302115 0.796986 -9.081699  0.000000 0.208575 -0.978006  0.035790 0.721354 0
0  0.302115 0.709795 -9.100294  0.000000 0.208575 -0.978006  0.035790 0.721403 0
0  0.000232 0.709795 -9.100294  0.000000 0.208575 -0.978006  0.035759 0.721403 0
lowpoly_metal.001
0  0.417730 -0.293133 -9.128031  0.707115 -0.707099 0.000000  0.063051 0.795122 0
0  0.417730 -0.293133 -9.072630  0.707115 -0.707099 0.000000  0.063020 0.795122 0
0  0.328191 -0.382672 -9.070210  0.707115 -0.707099 0.000000  0.063020 0.795072 0
lowpoly_metal.001
0  -0.292816 0.709795 2.892540  -0.952171 0.000000 0.305565  0.034417 0.720082 0
0  -0.292816 -0.001413 2.892540  -0.952171 0.000000 0.305565  0.033982 0.720081 0
0  -0.220058 0.188204 3.119259  -0.952171 0.000000 0.305565  0.034088 0.719955 0
lowpoly_metal.001
0  -0.222447 0.796986 2.892540  0.000000 1.000000 0.000000  0.035152 0.720082 0
0  0.000232 0.796986 2.892540  0.000000 1.000000 0.000000  0.035175 0.720082 0
0  0.000232 0.796986 2.091472  0.000000 1.000000 0.000000  0.035175 0.720527 0
lowpoly_metal.001
0  0.000232 -0.249101 -9.084156  0.000000 -0.008754 -0.999962  0.035759 0.721976 0
0  -0.301651 -0.249101 -9.084156  0.000000 -0.008754 -0.999962  0.035729 0.721976 0
0  -0.301652 0.225215 -9.088308  0.000000 -0.008754 -0.999962  0.035729 0.721712 0
lowpoly_metal.001
0  0.302115 0.225214 2.313789  0.000000 -0.000001 1.000000  0.035952 0.720897 0
0  0.302115 0.709795 2.313789  0.000000 -0.000001 1.000000  0.035952 0.721206 0
0  0.000232 0.709795 2.313789  0.000000 -0.000001 1.000000  0.035921 0.721206 0
lowpoly_metal.001
0  -0.372020 0.709795 -8.046171  -1.000000 0.000000 0.000000  0.034417 0.723516 0
0  -0.372020 0.796986 -8.029327  -1.000000 0.000000 0.000000  0.034801 0.723516 0
0  -0.372020 0.796986 -9.081699  -1.000000 0.000000 0.000000  0.034465 0.723826 0
lowpoly_metal.001
0  -0.222447 0.709795 2.892540  0.000000 -1.000000 0.000000  0.036048 0.721354 0
0  -0.301652 0.709795 2.313789  0.000000 -1.000000 0.000000  0.036056 0.721676 0
0  0.000232 0.709795 2.313789  0.000000 -1.000000 0.000000  0.036026 0.721676 0
lowpoly_metal.001
0  0.302116 -0.249101 -9.084156  0.000000 0.006160 -0.999981  0.035790 0.721976 0
0  0.302116 -0.338578 -9.084707  0.000000 0.006160 -0.999981  0.035790 0.722025 0
0  0.000232 -0.338578 -9.084707  0.000000 0.006160 -0.999981  0.035759 0.722025 0
lowpoly_metal.001
0  0.417730 -0.293133 -9.072630  0.000000 0.006490 0.999979  0.062959 0.795122 0
0  0.417730 0.842454 -9.080000  0.000000 0.006490 0.999979  0.062959 0.795793 0
0  -0.417265 0.842454 -9.080000  0.000000 0.006490 0.999979  0.062875 0.795793 0
lowpoly_metal.001
0  0.000232 -0.338578 2.091471  0.000000 -1.000000 -0.000001  0.035691 0.723254 0
0  0.000232 -0.338579 2.892540  0.000000 -1.000000 -0.000001  0.035691 0.723700 0
0  -0.222447 -0.338579 2.892540  0.000000 -1.000000 -0.000001  0.035669 0.723700 0
lowpoly_metal.001
0  -0.222447 0.709795 2.892540  0.990765 0.000001 -0.135591  0.035338 0.721149 0
0  -0.222447 -0.001413 2.892540  0.990765 0.000001 -0.135591  0.035338 0.720715 0
0  -0.301652 0.225214 2.313789  0.990765 0.000001 -0.135591  0.035661 0.720841 0
lowpoly_metal.001
0  0.000232 0.709795 2.313789  0.000000 -1.000000 0.000000  0.036026 0.721676 0
0  0.302115 0.709795 2.313789  0.000000 -1.000000 0.000000  0.035995 0.721676 0
0  0.222911 0.709795 2.892540  0.000000 -1.000000 0.000000  0.036003 0.721354 0
lowpoly_metal.001
0  -0.417265 0.842454 -9.080000  -1.000000 0.000000 0.000000  0.062698 0.795637 0
0  -0.417265 0.842454 -9.135401  -1.000000 0.000000 0.000000  0.062729 0.795637 0
0  -0.417265 -0.293133 -9.128031  -1.000000 0.000000 0.000000  0.062729 0.796308 0
lowpoly_metal.001
0  0.222911 -0.001413 2.892540  -0.990765 -0.000001 -0.135591  0.035338 0.720439 0
0  0.302115 0.225214 2.313789  -0.990765 -0.000001 -0.135591  0.035661 0.720313 0
0  0.302116 -0.249101 2.313789  -0.990765 -0.000001 -0.135591  0.035661 0.720577 0
lowpoly_metal.001
0  0.220522 0.188204 3.119259  0.000000 0.000000 1.000000  0.036083 0.720417 0
0  0.220522 0.709795 3.119259  0.000000 0.000000 1.000000  0.036083 0.720747 0
0  0.150154 0.709795 3.119259  0.000000 0.000000 1.000000  0.036076 0.720747 0
lowpoly_metal.001
0  0.302115 0.225215 -9.088308  0.000000 -0.008754 -0.999962  0.035790 0.721712 0
0  0.302116 -0.249101 -9.084156  0.000000 -0.008754 -0.999962  0.035790 0.721976 0
0  0.000232 -0.249101 -9.084156  0.000000 -0.008754 -0.999962  0.035759 0.721976 0
lowpoly_metal.001
0  0.222911 -0.338579 2.892540  0.000000 0.000000 1.000000  0.035983 0.720417 0
0  0.222911 -0.249101 2.892540  0.000000 0.000000 1.000000  0.035983 0.720467 0
0  0.000232 -0.249101 2.892540  0.000000 0.000000 1.000000  0.035960 0.720467 0
lowpoly_metal.001
0  -0.372020 -0.249101 2.091471  -0.995148 0.000000 0.098394  0.033845 0.720527 0
0  -0.292816 -0.249101 2.892540  -0.995148 0.000000 0.098394  0.033845 0.720081 0
0  -0.292816 -0.001413 2.892540  -0.995148 0.000000 0.098394  0.033982 0.720081 0
lowpoly_metal.001
0  0.372484 0.709795 -9.100294  0.000000 -0.024727 -0.999694  0.035797 0.721403 0
0  0.372484 0.225215 -9.088308  0.000000 -0.024727 -0.999694  0.035797 0.721712 0
0  0.302115 0.225215 -9.088308  0.000000 -0.024727 -0.999694  0.035790 0.721712 0
lowpoly_metal.001
0  0.222911 0.709795 2.892540  0.000000 0.000000 1.000000  0.035936 0.721291 0
0  0.222911 0.796986 2.892540  0.000000 0.000000 1.000000  0.035936 0.721339 0
0  0.000232 0.796986 2.892540  0.000000 0.000000 1.000000  0.035913 0.721339 0
lowpoly_metal.001
0  0.150154 0.188204 3.119259  -0.952172 0.000000 -0.305564  0.035212 0.720333 0
0  0.150154 0.709795 3.119259  -0.952172 0.000000 -0.305564  0.035212 0.720004 0
0  0.222911 0.709795 2.892540  -0.952172 0.000000 -0.305564  0.035338 0.720004 0
lowpoly_metal.001
0  -0.222447 0.709795 2.892540  0.952172 0.000000 -0.305564  0.035338 0.721149 0
0  -0.149690 0.709795 3.119259  0.952172 0.000000 -0.305564  0.035212 0.721150 0
0  -0.149690 0.188204 3.119259  0.952172 0.000000 -0.305564  0.035212 0.720820 0
lowpoly_metal.001
0  0.372484 -0.249101 2.091471  0.995148 0.000000 0.098394  0.034516 0.723254 0
0  0.372484 0.024556 2.091471  0.995148 0.000000 0.098394  0.034668 0.723254 0
0  0.293280 -0.001413 2.892540  0.995148 0.000000 0.098394  0.034654 0.723700 0
lowpoly_metal.001
0  -0.292816 -0.249101 2.892540  -0.783676 -0.616318 0.077485  0.033845 0.720081 0
0  -0.372020 -0.249101 2.091471  -0.783676 -0.616318 0.077485  0.033845 0.720527 0
0  -0.301651 -0.338578 2.091471  -0.783676 -0.616318 0.077485  0.033795 0.720527 0
lowpoly_metal.001
0  0.000232 0.796986 -7.332283  0.000000 1.000000 0.000000  0.035175 0.723310 0
0  0.000232 0.796986 2.091472  0.000000 1.000000 0.000000  0.035175 0.720527 0
0  0.302115 0.796986 2.091472  0.000000 1.000000 0.000000  0.035205 0.720527 0
lowpoly_metal.001
0  0.302115 0.796986 -7.332283  0.000000 1.000000 0.000000  0.035205 0.723310 0
0  0.302115 0.796986 2.091472  0.000000 1.000000 0.000000  0.035205 0.720527 0
0  0.372484 0.796986 2.091472  0.000000 1.000000 0.000000  0.035212 0.720527 0
lowpoly_metal.001
0  0.000232 -0.338578 2.091471  0.000000 -1.000000 -0.000001  0.035691 0.723254 0
0  0.302116 -0.338578 2.091471  0.000000 -1.000000 -0.000001  0.035722 0.723254 0
0  0.222911 -0.338579 2.892540  0.000000 -1.000000 -0.000001  0.035714 0.723700 0
lowpoly_metal.001
0  0.302116 -0.338578 -7.334820  0.000000 -1.000000 0.000000  0.035094 0.720472 0
0  0.302116 -0.338578 2.091471  0.000000 -1.000000 0.000000  0.035722 0.723254 0
0  0.000232 -0.338578 2.091471  0.000000 -1.000000 0.000000  0.035691 0.723254 0
lowpoly_metal.001
0  0.150154 0.709795 3.119259  -0.952172 0.000000 -0.305564  0.035212 0.720004 0
0  0.150154 0.796986 3.119259  -0.952172 0.000000 -0.305564  0.035212 0.719955 0
0  0.222911 0.796986 2.892540  -0.952172 0.000000 -0.305564  0.035338 0.719956 0
lowpoly_metal.001
0  0.220522 0.796986 3.119259  0.952172 0.000000 0.305564  0.035136 0.723826 0
0  0.220522 0.709795 3.119259  0.952172 0.000000 0.305564  0.035088 0.723826 0
0  0.293279 0.709795 2.892540  0.952172 0.000000 0.305564  0.035088 0.723700 0
lowpoly_metal.001
0  0.372484 0.796986 -9.081699  0.000000 0.208575 -0.978006  0.035797 0.721354 0
0  0.372484 0.709795 -9.100294  0.000000 0.208575 -0.978006  0.035797 0.721403 0
0  0.302115 0.709795 -9.100294  0.000000 0.208575 -0.978006  0.035790 0.721403 0
lowpoly_metal.001
0  -0.437023 0.373631 -1.385512  -0.778191 0.000000 -0.628027  0.036010 0.720257 0
0  -0.374458 0.381880 -1.463037  -0.778191 0.000000 -0.628027  0.036053 0.720252 0
0  -0.374458 0.203506 -1.463037  -0.778191 0.000000 -0.628027  0.036053 0.720352 0
lowpoly_metal.001
0  -0.437023 0.211756 -1.385512  -0.725639 -0.426095 -0.540270  0.036010 0.720347 0
0  -0.374458 0.203506 -1.463037  -0.725639 -0.426095 -0.540270  0.036053 0.720352 0
0  -0.374458 0.085182 -1.369719  -0.725639 -0.426095 -0.540270  0.036001 0.720417 0
lowpoly_metal.001
0  0.000232 0.225215 -9.088308  0.000000 -0.024727 -0.999694  0.035759 0.721712 0
0  -0.301652 0.225215 -9.088308  0.000000 -0.024727 -0.999694  0.035729 0.721712 0
0  -0.301652 0.709795 -9.100294  0.000000 -0.024727 -0.999694  0.035729 0.721403 0
lowpoly_metal.001
0  0.437487 0.500203 -1.243483  0.000000 1.000000 0.000000  0.035353 0.722172 0
0  0.437487 0.500203 -1.285688  0.000000 1.000000 0.000000  0.035329 0.722172 0
0  -0.437023 0.500203 -1.285688  0.000000 1.000000 0.000000  0.035329 0.722084 0
lowpoly_metal.001
0  -0.372020 0.796986 -8.029327  0.000000 1.000000 0.000000  0.034801 0.723516 0
0  -0.301652 0.796986 -8.029327  0.000000 1.000000 0.000000  0.035144 0.723516 0
0  -0.301652 0.796986 -9.081699  0.000000 1.000000 0.000000  0.035144 0.723826 0
lowpoly_metal.001
0  0.417730 0.842454 -9.135401  0.000000 1.000000 0.000000  0.062959 0.795729 0
0  -0.417265 0.842454 -9.135401  0.000000 1.000000 0.000000  0.062959 0.795645 0
0  -0.417265 0.842454 -9.080000  0.000000 1.000000 0.000000  0.062990 0.795645 0
lowpoly_plastic
0  -0.422848 -0.266669 -8.031553  -0.776148 -0.630550 -0.000042  0.894391 0.918828 0
0  -0.325117 -0.386967 -8.032051  -0.776148 -0.630550 -0.000042  0.895361 0.917072 0
0  -0.325180 -0.386937 -7.334820  -0.776148 -0.630550 -0.000042  0.895417 0.916986 0
lowpoly_plastic
0  0.423297 -0.266712 -7.334354  0.776207 -0.630479 -0.000043  0.895062 0.915784 0
0  0.325644 -0.386937 -7.334820  0.776207 -0.630479 -0.000043  0.895641 0.915784 0
0  0.325581 -0.386967 -8.032051  0.776207 -0.630479 -0.000043  0.895641 0.915579 0
lowpoly_plastic
0  0.302115 0.850764 -8.029327  0.126652 0.991947 0.000000  0.895752 0.918828 0
0  0.302115 0.850764 -7.332283  0.126652 0.991947 0.000000  0.895752 0.918622 0
0  0.408163 0.837224 -7.332283  0.126652 0.991947 0.000000  0.895683 0.915784 0
lowpoly_metal.001
0  0.000232 0.796986 -9.081699  0.000000 1.000000 0.000000  0.035175 0.723826 0
0  0.000232 0.796986 -8.029327  0.000000 1.000000 0.000000  0.035175 0.723516 0
0  0.302115 0.796986 -8.029327  0.000000 1.000000 0.000000  0.035205 0.723516 0
lowpoly_metal.001
0  0.372484 0.225215 -9.088308  1.000000 0.000000 0.000000  0.034780 0.719955 0
0  0.372484 0.709795 -9.100294  1.000000 0.000000 0.000000  0.035088 0.719955 0
0  0.372484 0.709795 -8.046171  1.000000 0.000000 0.000000  0.035088 0.720266 0
lowpoly_plastic
0  -0.301652 0.796986 -8.029327  0.000000 0.000000 -1.000000  0.792880 0.919460 0
0  -0.372020 0.796986 -8.029327  0.000000 0.000000 -1.000000  0.792536 0.919460 0
0  -0.412159 0.832777 -8.029327  0.000000 0.000000 -1.000000  0.792536 0.919460 0
lowpoly_plastic
0  0.372484 -0.249101 -8.031553  0.000000 -0.008259 -0.999966  0.792252 0.916211 0
0  0.372484 0.206316 -8.035315  0.000000 -0.008259 -0.999966  0.792505 0.916211 0
0  0.426262 0.206316 -8.035315  0.000000 -0.008259 -0.999966  0.792505 0.916211 0
lowpoly_metal.001
0  -0.372020 0.709795 2.091472  -1.000000 0.000000 0.000000  0.034417 0.720527 0
0  -0.372020 0.796986 2.091472  -1.000000 0.000000 0.000000  0.034466 0.720527 0
0  -0.372020 0.796986 -7.332283  -1.000000 0.000000 0.000000  0.034813 0.723310 0
lowpoly_plastic
0  0.372484 0.796986 -8.029327  0.000000 0.000000 -1.000000  0.792887 0.916937 0
0  0.302115 0.796986 -8.029327  0.000000 0.000000 -1.000000  0.792941 0.919460 0
0  0.302115 0.850764 -8.029327  0.000000 0.000000 -1.000000  0.792941 0.919460 0
lowpoly_plastic
0  -0.301651 -0.338578 -7.334820  0.001427 -0.004087 0.999991  0.792606 0.917619 0
0  -0.372020 -0.249101 -7.334354  0.001427 -0.004087 0.999991  0.791580 0.919255 0
0  -0.422833 -0.266712 -7.334354  0.001427 -0.004087 0.999991  0.791580 0.919255 0
lowpoly_plastic
0  -0.422848 -0.266669 -8.031553  -0.999979 -0.006438 0.000021  0.894391 0.918828 0
0  -0.422833 -0.266712 -7.334354  -0.999979 -0.006438 0.000021  0.894391 0.918622 0
0  -0.425798 0.193798 -7.337857  -0.999979 -0.006438 0.000021  0.894638 0.918622 0
lowpoly_plastic
0  -0.407700 0.837224 -7.332283  -0.126653 0.991947 0.000000  0.895360 0.918622 0
0  -0.301652 0.850764 -7.332283  -0.126653 0.991947 0.000000  0.895691 0.918622 0
0  -0.301652 0.850764 -8.029327  -0.126653 0.991947 0.000000  0.895691 0.918828 0
lowpoly_plastic
0  -0.372020 -0.249101 -7.334354  0.000000 0.007909 0.999969  0.791580 0.919255 0
0  -0.372020 0.193798 -7.337857  0.000000 0.007909 0.999969  0.791827 0.919255 0
0  -0.425798 0.193798 -7.337857  0.000000 0.007909 0.999969  0.791827 0.919255 0
lowpoly_plastic
0  -0.372020 0.709795 -8.046171  0.000000 -0.021558 -0.999768  0.792153 0.919460 0
0  -0.372020 0.206316 -8.035315  0.000000 -0.021558 -0.999768  0.791834 0.919460 0
0  -0.425798 0.206316 -8.035315  0.000000 -0.021558 -0.999768  0.791834 0.919460 0
lowpoly_metal.001
0  -0.372020 0.225215 -9.088308  -1.000000 -0.000000 0.000000  0.034108 0.723826 0
0  -0.372020 0.206316 -8.035315  -1.000000 -0.000000 0.000000  0.034098 0.723516 0
0  -0.372020 0.709795 -8.046171  -1.000000 -0.000000 0.000000  0.034417 0.723516 0
lowpoly_plastic
0  0.372484 0.796986 -7.332283  0.000000 -0.177031 0.984205  0.792873 0.916417 0
0  0.372484 0.709795 -7.347966  0.000000 -0.177031 0.984205  0.792824 0.916417 0
0  0.426262 0.709795 -7.347966  0.000000 -0.177031 0.984205  0.792824 0.916417 0
lowpoly_metal.001
0  -0.372020 -0.249101 -9.084156  -0.786041 -0.618175 0.000000  0.033845 0.723826 0
0  -0.301651 -0.338578 -9.084707  -0.786041 -0.618175 0.000000  0.033795 0.723826 0
0  -0.301651 -0.338578 -8.032051  -0.786041 -0.618175 0.000000  0.034814 0.721759 0
lowpoly_plastic
0  -0.301652 0.796986 -7.332283  0.000000 0.000000 1.000000  0.792880 0.919255 0
0  0.000232 0.796986 -7.332283  0.000000 0.000000 1.000000  0.792911 0.919255 0
0  0.000232 0.850764 -7.332283  0.000000 0.000000 1.000000  0.792911 0.919255 0
lowpoly_plastic
0  0.302116 -0.338578 -8.032051  0.001520 0.004374 -0.999989  0.792830 0.916211 0
0  0.372484 -0.249101 -8.031553  0.001520 0.004374 -0.999989  0.792252 0.916211 0
0  0.423312 -0.266669 -8.031553  0.001520 0.004374 -0.999989  0.792252 0.916211 0
lowpoly_plastic
0  0.325581 -0.386967 -8.032051  0.016653 -0.999861 0.000042  0.895641 0.915579 0
0  0.325644 -0.386937 -7.334820  0.016653 -0.999861 0.000042  0.895641 0.915784 0
0  0.000232 -0.392356 -7.334820  0.016653 -0.999861 0.000042  0.896238 0.915784 0
lowpoly_plastic
0  0.426262 0.206316 -8.035315  1.000000 0.000000 0.000000  0.895316 0.915579 0
0  0.426262 0.709795 -8.046171  1.000000 0.000000 0.000000  0.895635 0.915579 0
0  0.426262 0.709795 -7.347966  1.000000 0.000000 0.000000  0.895635 0.915784 0
lowpoly_plastic
0  -0.425798 0.206316 -8.035315  -1.000000 -0.000000 0.000000  0.894645 0.918828 0
0  -0.425798 0.193798 -7.337857  -1.000000 -0.000000 0.000000  0.894638 0.918622 0
0  -0.425798 0.709795 -7.347966  -1.000000 -0.000000 0.000000  0.894964 0.918622 0
lowpoly_plastic
0  -0.301651 -0.338578 -8.032051  0.000000 0.000000 -1.000000  0.792550 0.917704 0
0  0.000232 -0.338578 -8.032051  0.000000 0.000000 -1.000000  0.793427 0.916211 0
0  0.000232 -0.392356 -8.032051  0.000000 0.000000 -1.000000  0.793427 0.916211 0
lowpoly_metal.001
0  0.372484 0.796986 -9.081699  1.000000 -0.000000 0.000000  0.035137 0.719955 0
0  0.372484 0.796986 -8.029327  1.000000 -0.000000 0.000000  0.035151 0.720992 0
0  0.372484 0.709795 -8.046171  1.000000 -0.000000 0.000000  0.035088 0.720266 0
lowpoly_plastic
0  0.000232 0.850764 -8.029327  0.000000 1.000000 0.000000  0.895721 0.918828 0
0  0.000232 0.850764 -7.332283  0.000000 1.000000 0.000000  0.895721 0.918622 0
0  0.302115 0.850764 -7.332283  0.000000 1.000000 0.000000  0.895752 0.918622 0
lowpoly_metal.001
0  0.372484 -0.249101 2.091471  0.786040 -0.618175 0.000000  0.034516 0.723254 0
0  0.302116 -0.338578 2.091471  0.786040 -0.618175 0.000000  0.034466 0.723254 0
0  0.302116 -0.338578 -7.334820  0.786040 -0.618175 0.000000  0.035094 0.720472 0
lowpoly_plastic
0  0.372484 0.193798 -7.337857  0.002745 0.007909 0.999965  0.792498 0.916417 0
0  0.372484 -0.249101 -7.334354  0.002745 0.007909 0.999965  0.792252 0.916417 0
0  0.423297 -0.266712 -7.334354  0.002745 0.007909 0.999965  0.792252 0.916417 0
lowpoly_plastic
0  -0.372020 0.709795 -7.347966  -0.195779 -0.173605 0.965159  0.792153 0.919255 0
0  -0.372020 0.796986 -7.332283  -0.195779 -0.173605 0.965159  0.792549 0.919255 0
0  -0.407700 0.837224 -7.332283  -0.195779 -0.173605 0.965159  0.792549 0.919255 0
lowpoly_plastic
0  -0.372020 0.193798 -7.337857  0.000000 0.019587 0.999808  0.791827 0.919255 0
0  -0.372020 0.709795 -7.347966  0.000000 0.019587 0.999808  0.792153 0.919255 0
0  -0.425798 0.709795 -7.347966  0.000000 0.019587 0.999808  0.792153 0.919255 0
lowpoly_plastic
0  -0.425798 0.709795 -7.347966  -0.990142 0.139961 0.005442  0.894964 0.918622 0
0  -0.407700 0.837224 -7.332283  -0.990142 0.139961 0.005442  0.895360 0.918622 0
0  -0.412159 0.832777 -8.029327  -0.990142 0.139961 0.005442  0.895347 0.918828 0
lowpoly_plastic
0  0.423312 -0.266669 -8.031553  0.999981 -0.006238 -0.000112  0.895062 0.915579 0
0  0.426262 0.206316 -8.035315  0.999981 -0.006238 -0.000112  0.895316 0.915579 0
0  0.426262 0.193798 -7.337857  0.999981 -0.006238 -0.000112  0.895309 0.915784 0
lowpoly_plastic
0  0.372484 0.709795 -8.046171  -0.166775 0.187020 -0.968096  0.792824 0.916211 0
0  0.372484 0.796986 -8.029327  -0.166775 0.187020 -0.968096  0.792887 0.916937 0
0  0.412623 0.832777 -8.029327  -0.166775 0.187020 -0.968096  0.792887 0.916937 0
lowpoly_plastic
0  -0.372020 0.206316 -8.035315  0.002862 -0.008259 -0.999962  0.791834 0.919460 0
0  -0.372020 -0.249101 -8.031553  0.002862 -0.008259 -0.999962  0.791580 0.919461 0
0  -0.422848 -0.266669 -8.031553  0.002862 -0.008259 -0.999962  0.791580 0.919461 0
lowpoly_plastic
0  0.000232 -0.338578 -7.334820  0.000000 0.000000 1.000000  0.793427 0.916417 0
0  -0.301651 -0.338578 -7.334820  0.000000 0.000000 1.000000  0.792606 0.917619 0
0  -0.325180 -0.386937 -7.334820  0.000000 0.000000 1.000000  0.792606 0.917619 0
lowpoly_plastic
0  -0.372020 0.796986 -7.332283  0.000000 0.000000 1.000000  0.792549 0.919255 0
0  -0.301652 0.796986 -7.332283  0.000000 0.000000 1.000000  0.792880 0.919255 0
0  -0.301652 0.850764 -7.332283  0.000000 0.000000 1.000000  0.792880 0.919255 0
lowpoly_metal.001
0  -0.292816 0.709795 2.892540  -0.995148 0.000000 0.098394  0.034417 0.720082 0
0  -0.292816 0.796986 2.892540  -0.995148 0.000000 0.098394  0.034465 0.720082 0
0  -0.372020 0.796986 2.091472  -0.995148 0.000000 0.098394  0.034466 0.720527 0
lowpoly_plastic
0  0.372484 0.709795 -7.347966  0.000000 0.019587 0.999808  0.792824 0.916417 0
0  0.372484 0.193798 -7.337857  0.000000 0.019587 0.999808  0.792498 0.916417 0
0  0.426262 0.193798 -7.337857  0.000000 0.019587 0.999808  0.792498 0.916417 0
lowpoly_plastic
0  0.302115 0.796986 -7.332283  0.000000 0.000000 1.000000  0.792941 0.919255 0
0  0.372484 0.796986 -7.332283  0.000000 0.000000 1.000000  0.792873 0.916417 0
0  0.408163 0.837224 -7.332283  0.000000 0.000000 1.000000  0.792873 0.916417 0
lowpoly_metal.001
0  0.000232 -0.338578 2.091471  0.000000 -1.000000 0.000000  0.035691 0.723254 0
0  -0.301651 -0.338578 2.091471  0.000000 -1.000000 0.000000  0.035661 0.723254 0
0  -0.301651 -0.338578 -7.334820  0.000000 -1.000000 0.000000  0.034870 0.721674 0
lowpoly_plastic
0  -0.372020 -0.249101 -8.031553  -0.004396 0.002122 -0.999988  0.791580 0.919461 0
0  -0.301651 -0.338578 -8.032051  -0.004396 0.002122 -0.999988  0.792550 0.917704 0
0  -0.325117 -0.386967 -8.032051  -0.004396 0.002122 -0.999988  0.792550 0.917704 0
lowpoly_metal.001
0  0.372484 -0.249101 -9.084156  1.000000 0.000000 0.000000  0.034516 0.719955 0
0  0.372484 0.225215 -9.088308  1.000000 0.000000 0.000000  0.034780 0.719955 0
0  0.372484 0.206316 -8.035315  1.000000 0.000000 0.000000  0.034769 0.720266 0
lowpoly_metal.001
0  0.302116 -0.338578 -9.084707  0.000000 -1.000000 0.000000  0.035722 0.719955 0
0  0.302116 -0.338578 -8.032051  0.000000 -1.000000 0.000000  0.035094 0.720266 0
0  0.000232 -0.338578 -8.032051  0.000000 -1.000000 0.000000  0.035691 0.720266 0
lowpoly_plastic
0  0.412623 0.832777 -8.029327  0.990142 0.139964 0.005442  0.895698 0.916305 0
0  0.408163 0.837224 -7.332283  0.990142 0.139964 0.005442  0.895683 0.915784 0
0  0.426262 0.709795 -7.347966  0.990142 0.139964 0.005442  0.895635 0.915784 0
lowpoly_plastic
0  0.372484 -0.249101 -7.334354  -0.004090 -0.001988 0.999990  0.792252 0.916417 0
0  0.302116 -0.338578 -7.334820  -0.004090 -0.001988 0.999990  0.792830 0.916417 0
0  0.325644 -0.386937 -7.334820  -0.004090 -0.001988 0.999990  0.792830 0.916417 0
lowpoly_plastic
0  0.000232 -0.338578 -8.032051  0.000000 0.000000 -1.000000  0.793427 0.916211 0
0  0.302116 -0.338578 -8.032051  0.000000 0.000000 -1.000000  0.792830 0.916211 0
0  0.325581 -0.386967 -8.032051  0.000000 0.000000 -1.000000  0.792830 0.916211 0
lowpoly_metal.001
0  -0.301652 0.796986 2.091472  0.000000 1.000000 0.000000  0.035144 0.720527 0
0  0.000232 0.796986 2.091472  0.000000 1.000000 0.000000  0.035175 0.720527 0
0  0.000232 0.796986 -7.332283  0.000000 1.000000 0.000000  0.035175 0.723310 0
lowpoly_plastic
0  0.372484 0.206316 -8.035315  0.000000 -0.021558 -0.999768  0.792505 0.916211 0
0  0.372484 0.709795 -8.046171  0.000000 -0.021558 -0.999768  0.792824 0.916211 0
0  0.426262 0.709795 -8.046171  0.000000 -0.021558 -0.999768  0.792824 0.916211 0
lowpoly_plastic
0  -0.301652 0.850764 -7.332283  0.000000 1.000000 0.000000  0.895691 0.918622 0
0  0.000232 0.850764 -7.332283  0.000000 1.000000 0.000000  0.895721 0.918622 0
0  0.000232 0.850764 -8.029327  0.000000 1.000000 0.000000  0.895721 0.918828 0
lowpoly_plastic
0  0.000232 -0.392356 -7.334820  -0.016653 -0.999861 0.000042  0.896238 0.915784 0
0  -0.325180 -0.386937 -7.334820  -0.016653 -0.999861 0.000042  0.895417 0.916986 0
0  -0.325117 -0.386967 -8.032051  -0.016653 -0.999861 0.000042  0.895361 0.917072 0
lowpoly_plastic
0  0.000232 0.796986 -7.332283  0.000000 0.000000 1.000000  0.792911 0.919255 0
0  0.302115 0.796986 -7.332283  0.000000 0.000000 1.000000  0.792941 0.919255 0
0  0.302115 0.850764 -7.332283  0.000000 0.000000 1.000000  0.792941 0.919255 0
lowpoly_plastic
0  0.000232 0.796986 -8.029327  0.000000 0.000000 -1.000000  0.792911 0.919460 0
0  -0.301652 0.796986 -8.029327  0.000000 0.000000 -1.000000  0.792880 0.919460 0
0  -0.301652 0.850764 -8.029327  0.000000 0.000000 -1.000000  0.792880 0.919460 0
lowpoly_plastic
0  -0.372020 0.796986 -8.029327  0.000000 0.189677 -0.981847  0.792536 0.919460 0
0  -0.372020 0.709795 -8.046171  0.000000 0.189677 -0.981847  0.792153 0.919460 0
0  -0.425798 0.709795 -8.046171  0.000000 0.189677 -0.981847  0.792153 0.919460 0
lowpoly_metal.001
0  0.302115 0.796986 -9.081699  0.000000 1.000000 0.000000  0.035205 0.723826 0
0  0.302115 0.796986 -8.029327  0.000000 1.000000 0.000000  0.035205 0.723516 0
0  0.372484 0.796986 -8.029327  0.000000 1.000000 0.000000  0.035151 0.720992 0
lowpoly_plastic
0  0.302116 -0.338578 -7.334820  0.000000 0.000000 1.000000  0.792830 0.916417 0
0  0.000232 -0.338578 -7.334820  0.000000 0.000000 1.000000  0.793427 0.916417 0
0  0.000232 -0.392356 -7.334820  0.000000 0.000000 1.000000  0.793427 0.916417 0
lowpoly_metal.001
0  -0.372020 -0.249101 -9.084156  -1.000000 0.000000 0.000000  0.033845 0.723826 0
0  -0.372020 -0.249101 -8.031553  -1.000000 0.000000 0.000000  0.033845 0.723516 0
0  -0.372020 0.206316 -8.035315  -1.000000 0.000000 0.000000  0.034098 0.723516 0
lowpoly_plastic
0  0.302115 0.796986 -8.029327  0.000000 0.000000 -1.000000  0.792941 0.919460 0
0  0.000232 0.796986 -8.029327  0.000000 0.000000 -1.000000  0.792911 0.919460 0
0  0.000232 0.850764 -8.029327  0.000000 0.000000 -1.000000  0.792911 0.919460 0
lowpoly_metal.001
0  -0.437023 0.085182 -1.243483  0.000000 -1.000000 0.000000  0.035212 0.722084 0
0  -0.437023 0.085182 -1.285688  0.000000 -1.000000 0.000000  0.035236 0.722084 0
0  0.437487 0.085182 -1.285688  0.000000 -1.000000 0.000000  0.035236 0.722172 0
end
