version 1
nodes
0 "root" -1
end
skeleton
time 0
0 0 0 0 0 0 0
end
triangles
lowpoly_plastic.004
0  0.113162 -6.445554 -0.069099  0.000000 -1.000000 0.000000  0.891551 0.515357 0
0  0.113427 -6.445554 -0.471877  0.000000 -1.000000 0.000000  0.891551 0.515511 0
0  0.188725 -6.445554 -0.471866  0.000000 -1.000000 0.000000  0.891522 0.515511 0
lowpoly_plastic.004
0  -0.115091 -1.115889 0.151888  -0.497594 -0.000000 0.867410  0.886558 0.515568 0
0  -0.190387 -6.445554 0.108693  -0.497594 -0.000000 0.867410  0.886529 0.513520 0
0  -0.115089 -6.445554 0.151888  -0.497594 -0.000000 0.867410  0.886558 0.513520 0
lowpoly_plastic.004
0  0.113427 -6.445554 -0.471877  0.000000 0.000197 -1.000000  0.889187 0.515477 0
0  -0.113971 -6.388610 -0.471866  0.000000 0.000197 -1.000000  0.889165 0.515564 0
0  0.112308 -6.388610 -0.471866  0.000000 0.000197 -1.000000  0.889165 0.515477 0
lowpoly_plastic.004
0  -0.190389 -0.636896 -0.169275  0.000000 0.000000 -1.000000  0.891416 0.510541 0
0  -0.110169 -5.996219 -0.169275  0.000000 0.000000 -1.000000  0.891447 0.512601 0
0  -0.190387 -5.996219 -0.169275  0.000000 0.000000 -1.000000  0.891416 0.512601 0
lowpoly_plastic.004
0  -0.951793 -0.012351 -0.169275  -0.879696 -0.475537 0.000000  0.003748 0.764812 0
0  -0.830369 -0.236973 0.226885  -0.879696 -0.475537 0.000000  0.003715 0.764755 0
0  -0.951793 -0.012351 0.228730  -0.879696 -0.475537 0.000000  0.003747 0.764755 0
lowpoly_plastic.004
0  0.449080 -0.236973 0.151888  0.000000 -0.960691 0.277620  0.897972 0.515317 0
0  0.813024 -0.200887 0.276762  0.000000 -0.960691 0.277620  0.897924 0.515458 0
0  0.430286 -0.200887 0.276762  0.000000 -0.960691 0.277620  0.897924 0.515311 0
lowpoly_plastic.004
0  -0.287018 -0.435049 0.151888  -0.770772 -0.637112 0.000000  0.899387 0.515315 0
0  -0.450746 -0.236973 -0.169275  -0.770772 -0.637112 0.000000  0.899261 0.515391 0
0  -0.287018 -0.435049 -0.169275  -0.770772 -0.637112 0.000000  0.899263 0.515315 0
lowpoly_plastic.004
0  -0.110169 -5.996219 -0.169275  0.000000 0.691887 -0.722006  0.888489 0.514118 0
0  -0.190387 -6.158755 -0.325032  0.000000 0.691887 -0.722006  0.888458 0.514180 0
0  -0.190387 -5.996219 -0.169275  0.000000 0.691887 -0.722006  0.888458 0.514118 0
lowpoly_plastic.004
0  0.312265 -0.435049 0.080813  0.998279 -0.058650 0.000000  0.897705 0.515196 0
0  0.300406 -0.636896 -0.169275  0.998279 -0.058650 0.000000  0.897802 0.515119 0
0  0.312265 -0.435049 -0.034640  0.998279 -0.058650 0.000000  0.897750 0.515196 0
lowpoly_plastic.004
0  0.188723 -0.636896 -0.169275  0.000000 0.000000 -1.000000  0.891562 0.510541 0
0  0.108506 -5.996219 -0.169275  0.000000 0.000000 -1.000000  0.891531 0.512601 0
0  0.108505 -0.636896 -0.169275  0.000000 0.000000 -1.000000  0.891531 0.510541 0
lowpoly_plastic.004
0  0.312265 -0.435049 -0.034640  0.981202 -0.192985 0.000000  0.004017 0.764762 0
0  0.396969 -0.004384 0.080813  0.981202 -0.192985 0.000000  0.004000 0.764823 0
0  0.312265 -0.435049 0.080813  0.981202 -0.192985 0.000000  0.004000 0.764761 0
lowpoly_plastic.004
0  0.828722 -0.236972 -0.034640  0.879695 -0.475538 0.000000  0.004458 0.764802 0
0  0.950145 -0.012351 -0.169275  0.879695 -0.475538 0.000000  0.004427 0.764821 0
0  0.950145 -0.012351 -0.034640  0.879695 -0.475538 0.000000  0.004427 0.764802 0
lowpoly_plastic.004
0  0.449080 -0.236973 0.151888  0.000003 -1.000000 0.000000  0.897972 0.515317 0
0  0.828722 -0.236972 0.080813  0.000003 -1.000000 0.000000  0.898000 0.515463 0
0  0.828722 -0.236972 0.226885  0.000003 -1.000000 0.000000  0.897943 0.515463 0
lowpoly_plastic.004
0  0.800052 0.145008 0.276762  -0.000000 0.732403 0.680872  0.925669 0.515173 0
0  -0.830369 0.187944 0.230575  -0.000000 0.732403 0.680872  0.925687 0.515798 0
0  -0.801701 0.145007 0.276762  -0.000000 0.732403 0.680872  0.925669 0.515788 0
lowpoly_plastic.004
0  -0.450746 -0.236973 -0.169275  -0.000744 0.000242 -1.000000  0.894610 0.510775 0
0  -0.831893 0.184686 -0.168889  -0.000744 0.000242 -1.000000  0.894464 0.510613 0
0  -0.341934 0.097217 -0.169275  -0.000744 0.000242 -1.000000  0.894652 0.510647 0
lowpoly_plastic.004
0  0.188723 -0.636896 -0.169275  1.000000 0.000000 0.000000  0.888366 0.513521 0
0  0.188723 -0.636896 0.151888  1.000000 0.000000 0.000000  0.888489 0.513520 0
0  0.188723 -0.915782 0.151888  1.000000 0.000000 0.000000  0.888490 0.513627 0
lowpoly_plastic.004
0  0.113425 -1.115889 0.151888  0.497594 0.000000 0.867410  0.886646 0.515568 0
0  0.188725 -6.445554 0.108693  0.497594 0.000000 0.867410  0.886674 0.513520 0
0  0.188723 -1.115889 0.108693  0.497594 0.000000 0.867410  0.886674 0.515568 0
lowpoly_plastic.004
0  -0.190387 -6.445554 -0.471866  -1.000000 -0.000001 0.000000  0.890733 0.513976 0
0  -0.190387 -6.158755 -0.325032  -1.000000 -0.000001 0.000000  0.890678 0.513866 0
0  -0.190387 -6.158755 -0.471866  -1.000000 -0.000001 0.000000  0.890734 0.513866 0
lowpoly_plastic.004
0  0.188723 -0.636896 -0.169275  0.000000 -1.000000 0.000000  0.080486 0.872177 0
0  0.300406 -0.636896 0.151888  0.000000 -1.000000 0.000000  0.080443 0.872054 0
0  0.188723 -0.636896 0.151888  0.000000 -1.000000 0.000000  0.080486 0.872054 0
lowpoly_plastic.004
0  0.188723 -0.636896 -0.169275  1.000000 0.000000 0.000000  0.888366 0.513521 0
0  0.188723 -0.915782 0.151888  1.000000 0.000000 0.000000  0.888490 0.513627 0
0  0.188723 -1.115889 0.108693  1.000000 0.000000 0.000000  0.888474 0.513704 0
lowpoly_plastic.004
0  0.188723 -1.115889 0.108693  0.489095 -0.184041 0.852593  0.886674 0.515568 0
0  0.188723 -0.915782 0.151888  0.489095 -0.184041 0.852593  0.886675 0.515645 0
0  0.113425 -1.115889 0.151888  0.489095 -0.184041 0.852593  0.886646 0.515568 0
lowpoly_plastic.004
0  -0.000831 -6.445554 -0.192701  0.000000 -1.000000 -0.000003  0.891595 0.515404 0
0  -0.190387 -6.445554 -0.471866  0.000000 -1.000000 -0.000003  0.891668 0.515511 0
0  -0.115089 -6.445554 -0.471877  0.000000 -1.000000 -0.000003  0.891639 0.515511 0
lowpoly_plastic.004
0  -0.190389 -0.915782 0.151888  -0.489095 -0.184041 0.852593  0.886529 0.515645 0
0  -0.190389 -1.115889 0.108693  -0.489095 -0.184041 0.852593  0.886529 0.515568 0
0  -0.115091 -1.115889 0.151888  -0.489095 -0.184041 0.852593  0.886558 0.515568 0
lowpoly_plastic.004
0  -0.190389 -0.915782 0.151888  -1.000000 0.000000 0.000000  0.888042 0.513627 0
0  -0.190389 -0.636896 -0.169275  -1.000000 0.000000 0.000000  0.888167 0.513521 0
0  -0.190389 -1.115889 0.108693  -1.000000 0.000000 0.000000  0.888058 0.513704 0
lowpoly_plastic.004
0  0.300406 -0.636896 -0.169275  0.998279 -0.058650 0.000000  0.897802 0.515119 0
0  0.312265 -0.435049 -0.169275  0.998279 -0.058650 0.000000  0.897802 0.515197 0
0  0.312265 -0.435049 -0.034640  0.998279 -0.058650 0.000000  0.897750 0.515196 0
lowpoly_plastic.004
0  -0.287018 -0.435049 0.151888  0.000000 0.000000 1.000000  0.899281 0.513505 0
0  -0.276022 -0.636896 0.151888  0.000000 0.000000 1.000000  0.899285 0.513427 0
0  -0.190389 -0.636896 0.151888  0.000000 0.000000 1.000000  0.899318 0.513427 0
lowpoly_plastic.004
0  0.188723 -0.636896 0.151888  0.000000 0.000000 1.000000  0.899464 0.513427 0
0  0.300406 -0.636896 0.151888  0.000000 0.000000 1.000000  0.899507 0.513427 0
0  0.312265 -0.435049 0.151888  0.000000 0.000000 1.000000  0.899511 0.513505 0
lowpoly_plastic.004
0  0.215930 0.005285 0.151888  -0.693213 -0.720733 0.000000  0.080222 0.875250 0
0  0.430286 -0.200887 0.276762  -0.693213 -0.720733 0.000000  0.080270 0.875169 0
0  0.215930 0.005285 0.276762  -0.693213 -0.720733 0.000000  0.080270 0.875249 0
lowpoly_plastic.004
0  0.215930 0.005285 0.276762  0.000000 0.000000 1.000000  0.926039 0.513961 0
0  -0.801701 0.145007 0.276762  0.000000 0.000000 1.000000  0.926092 0.514352 0
0  -0.217596 0.005285 0.276762  0.000000 0.000000 1.000000  0.926039 0.514128 0
lowpoly_plastic.004
0  0.430286 -0.200887 0.276762  0.000000 0.000000 1.000000  0.925959 0.513879 0
0  0.800052 0.145008 0.276762  0.000000 0.000000 1.000000  0.926092 0.513737 0
0  0.215930 0.005285 0.276762  0.000000 0.000000 1.000000  0.926039 0.513961 0
lowpoly_plastic.004
0  0.215930 0.005285 0.151888  0.000000 -1.000000 0.000000  0.078392 0.874550 0
0  -0.217596 0.005285 0.276762  0.000000 -1.000000 0.000000  0.078440 0.874716 0
0  -0.217596 0.005285 0.151888  0.000000 -1.000000 0.000000  0.078392 0.874716 0
lowpoly_plastic.004
0  0.828722 -0.236972 0.226885  0.879695 -0.475538 0.000000  0.004459 0.764764 0
0  0.950145 -0.012351 0.080813  0.879695 -0.475538 0.000000  0.004427 0.764785 0
0  0.950145 -0.012351 0.228730  0.879695 -0.475538 0.000000  0.004427 0.764764 0
lowpoly_plastic.004
0  -0.115091 -1.115889 0.151888  0.000000 0.000000 1.000000  0.886558 0.515568 0
0  0.113427 -6.445554 0.151888  0.000000 0.000000 1.000000  0.886646 0.513520 0
0  0.113425 -1.115889 0.151888  0.000000 0.000000 1.000000  0.886646 0.515568 0
lowpoly_plastic.004
0  -0.814672 -0.200888 0.276762  0.000002 -0.960691 0.277620  0.897431 0.515195 0
0  -0.450746 -0.236973 0.151888  0.000002 -0.960691 0.277620  0.897383 0.515056 0
0  -0.431953 -0.200887 0.276762  0.000002 -0.960691 0.277620  0.897431 0.515048 0
lowpoly_plastic.004
0  0.891588 -0.012374 0.276762  0.000000 0.000000 1.000000  0.926032 0.513702 0
0  0.430286 -0.200887 0.276762  0.000000 0.000000 1.000000  0.925959 0.513879 0
0  0.813024 -0.200887 0.276762  0.000000 0.000000 1.000000  0.925959 0.513732 0
lowpoly_plastic.004
0  -0.893237 -0.012375 0.276762  0.000000 0.000000 1.000000  0.926032 0.514388 0
0  -0.814672 -0.200888 0.276762  0.000000 0.000000 1.000000  0.925959 0.514357 0
0  -0.431953 -0.200887 0.276762  0.000000 0.000000 1.000000  0.925959 0.514210 0
lowpoly_plastic.004
0  0.950145 -0.012351 0.228730  0.744794 -0.406959 0.528835  0.925756 0.515818 0
0  0.813024 -0.200887 0.276762  0.744794 -0.406959 0.528835  0.925826 0.515799 0
0  0.828722 -0.236972 0.226885  0.744794 -0.406959 0.528835  0.925840 0.515818 0
lowpoly_plastic.004
0  0.828721 0.187944 0.230575  0.593289 0.353002 0.723462  0.926109 0.513726 0
0  0.891588 -0.012374 0.276762  0.593289 0.353002 0.723462  0.926032 0.513702 0
0  0.950145 -0.012351 0.228730  0.593289 0.353002 0.723462  0.926032 0.513679 0
lowpoly_plastic.004
0  -0.830369 0.187944 0.230575  -0.000001 0.999967 -0.008157  0.004402 0.764757 0
0  0.830245 0.184687 -0.168889  -0.000001 0.999967 -0.008157  0.004459 0.764520 0
0  -0.831893 0.184686 -0.168889  -0.000001 0.999967 -0.008157  0.004459 0.764757 0
lowpoly_plastic.004
0  0.396969 -0.004384 -0.034640  0.000000 0.000000 1.000000  0.003610 0.764784 0
0  0.312265 -0.435049 -0.034640  0.000000 0.000000 1.000000  0.003549 0.764796 0
0  0.449080 -0.236973 -0.034640  0.000000 0.000000 1.000000  0.003577 0.764776 0
lowpoly_plastic.004
0  -0.450746 -0.236973 0.151888  0.000000 -1.000000 0.000000  0.897383 0.515056 0
0  -0.830369 -0.236973 -0.169275  0.000000 -1.000000 0.000000  0.897260 0.515202 0
0  -0.450746 -0.236973 -0.169275  0.000000 -1.000000 0.000000  0.897260 0.515057 0
lowpoly_plastic.004
0  0.449080 -0.236973 0.080813  0.000000 0.000000 -1.000000  0.004175 0.764768 0
0  0.312265 -0.435049 0.080813  0.000000 0.000000 -1.000000  0.004204 0.764787 0
0  0.396969 -0.004384 0.080813  0.000000 0.000000 -1.000000  0.004142 0.764776 0
lowpoly_plastic.004
0  -0.115091 -1.115889 0.151888  0.000000 0.000000 1.000000  0.899347 0.513243 0
0  0.188723 -0.915782 0.151888  0.000000 0.000000 1.000000  0.899464 0.513320 0
0  -0.190389 -0.915782 0.151888  0.000000 0.000000 1.000000  0.899318 0.513320 0
lowpoly_plastic.004
0  0.396969 -0.004384 -0.034640  -0.000000 0.000000 1.000000  0.003610 0.764784 0
0  0.828722 -0.236972 -0.034640  -0.000000 0.000000 1.000000  0.003578 0.764722 0
0  0.950145 -0.012351 -0.034640  -0.000000 0.000000 1.000000  0.003610 0.764705 0
lowpoly_plastic.004
0  0.828721 0.187944 0.230575  0.855136 0.518404 0.000000  0.004398 0.764763 0
0  0.950145 -0.012351 0.228730  0.855136 0.518404 0.000000  0.004427 0.764764 0
0  0.950145 -0.012351 0.080813  0.855136 0.518404 0.000000  0.004427 0.764785 0
lowpoly_plastic.004
0  0.449080 -0.236973 -0.169275  0.000000 0.000000 -1.000000  0.894956 0.510775 0
0  0.312265 -0.435049 -0.169275  0.000000 0.000000 -1.000000  0.894903 0.510851 0
0  0.340268 -0.236256 -0.169275  0.000000 0.000000 -1.000000  0.894914 0.510775 0
lowpoly_plastic.004
0  0.828722 -0.236972 -0.169275  0.000000 0.000000 -1.000000  0.895102 0.510775 0
0  0.449080 -0.236973 -0.169275  0.000000 0.000000 -1.000000  0.894956 0.510775 0
0  0.950145 -0.012351 -0.169275  0.000000 0.000000 -1.000000  0.895149 0.510689 0
lowpoly_plastic.004
0  -0.830369 -0.236973 -0.169275  0.000000 0.000000 -1.000000  0.894464 0.510775 0
0  -0.951793 -0.012351 -0.169275  0.000000 0.000000 -1.000000  0.894418 0.510689 0
0  -0.450746 -0.236973 -0.169275  0.000000 0.000000 -1.000000  0.894610 0.510775 0
lowpoly_plastic.004
0  -0.341934 -0.236257 -0.169275  0.000000 0.000000 -1.000000  0.894652 0.510775 0
0  -0.287018 -0.435049 -0.169275  0.000000 0.000000 -1.000000  0.894673 0.510851 0
0  -0.450746 -0.236973 -0.169275  0.000000 0.000000 -1.000000  0.894610 0.510775 0
lowpoly_plastic.004
0  0.300406 -0.636896 -0.169275  0.000000 0.000000 -1.000000  0.894899 0.510929 0
0  0.188723 -0.636896 -0.169275  0.000000 0.000000 -1.000000  0.894856 0.510929 0
0  0.312265 -0.435049 -0.169275  0.000000 0.000000 -1.000000  0.894903 0.510851 0
lowpoly_plastic.004
0  -0.276022 -0.636896 -0.169275  0.000000 0.000000 -1.000000  0.894677 0.510929 0
0  -0.287018 -0.435049 -0.169275  0.000000 0.000000 -1.000000  0.894673 0.510851 0
0  -0.190389 -0.636896 -0.169275  0.000000 0.000000 -1.000000  0.894710 0.510929 0
lowpoly_plastic.004
0  -0.110171 -0.636896 -0.169275  0.000000 0.000000 -1.000000  0.894741 0.510929 0
0  -0.287018 -0.435049 -0.169275  0.000000 0.000000 -1.000000  0.894673 0.510851 0
0  -0.341934 -0.236257 -0.169275  0.000000 0.000000 -1.000000  0.894652 0.510775 0
lowpoly_plastic.004
0  -0.114824 -6.445554 -0.069099  0.000000 -1.000000 0.000000  0.891639 0.515357 0
0  -0.115089 -6.445554 0.151888  0.000000 -1.000000 0.000000  0.891639 0.515272 0
0  -0.190387 -6.445554 0.108693  0.000000 -1.000000 0.000000  0.891668 0.515288 0
lowpoly_plastic.004
0  -0.000831 -6.445554 -0.192701  0.000000 -1.000000 -0.000004  0.891595 0.515404 0
0  -0.115089 -6.445554 -0.471877  0.000000 -1.000000 -0.000004  0.891639 0.515511 0
0  0.113427 -6.445554 -0.471877  0.000000 -1.000000 -0.000004  0.891551 0.515511 0
lowpoly_plastic.004
0  -0.190387 -6.158755 -0.471866  0.000000 0.000000 -1.000000  0.889076 0.515593 0
0  -0.113971 -6.388610 -0.471866  0.000000 0.000000 -1.000000  0.889165 0.515564 0
0  -0.190387 -6.445554 -0.471866  0.000000 0.000000 -1.000000  0.889187 0.515593 0
lowpoly_plastic.004
0  -0.110169 -6.158755 -0.325032  0.000000 1.000000 0.000000  0.889047 0.515612 0
0  -0.190387 -6.158755 -0.471866  0.000000 1.000000 0.000000  0.889017 0.515669 0
0  -0.190387 -6.158755 -0.325032  0.000000 1.000000 0.000000  0.889017 0.515612 0
lowpoly_plastic.004
0  0.188725 -5.996219 -0.169275  1.000000 0.000000 -0.000000  0.888382 0.515579 0
0  0.188723 -1.115889 0.108693  1.000000 0.000000 -0.000000  0.888474 0.513704 0
0  0.188725 -6.445554 0.108693  1.000000 0.000000 -0.000000  0.888490 0.515751 0
lowpoly_plastic.004
0  0.112308 -6.388610 0.039351  0.000000 -0.257106 -0.966383  0.889683 0.514235 0
0  -0.000831 -6.445554 0.054502  0.000000 -0.257106 -0.966383  0.889639 0.514257 0
0  -0.113971 -6.388610 0.039351  0.000000 -0.257106 -0.966383  0.889596 0.514235 0
lowpoly_plastic.004
0  -0.831893 0.184686 -0.168889  0.000000 0.004410 -0.999990  0.894464 0.510613 0
0  0.830245 0.184687 -0.168889  0.000000 0.004410 -0.999990  0.895103 0.510613 0
0  0.340268 0.097217 -0.169275  0.000000 0.004410 -0.999990  0.894914 0.510647 0
lowpoly_plastic.004
0  0.340268 0.097217 -0.169275  0.000000 0.004410 -0.999990  0.894914 0.510647 0
0  -0.341934 0.097217 -0.169275  0.000000 0.004410 -0.999990  0.894652 0.510647 0
0  -0.831893 0.184686 -0.168889  0.000000 0.004410 -0.999990  0.894464 0.510613 0
lowpoly_plastic.004
0  0.108505 -0.636896 -0.169275  0.000000 0.000000 -1.000000  0.894825 0.510929 0
0  0.312265 -0.435049 -0.169275  0.000000 0.000000 -1.000000  0.894903 0.510851 0
0  0.188723 -0.636896 -0.169275  0.000000 0.000000 -1.000000  0.894856 0.510929 0
lowpoly_plastic.004
0  -0.341934 0.097217 -0.169275  -0.000000 0.000000 -1.000000  0.894652 0.510647 0
0  -0.341934 -0.236257 -0.169275  -0.000000 0.000000 -1.000000  0.894652 0.510775 0
0  -0.450746 -0.236973 -0.169275  -0.000000 0.000000 -1.000000  0.894610 0.510775 0
lowpoly_plastic.004
0  0.340268 0.097217 -0.169275  0.000000 0.000000 -1.000000  0.894914 0.510647 0
0  0.449080 -0.236973 -0.169275  0.000000 0.000000 -1.000000  0.894956 0.510775 0
0  0.340268 -0.236256 -0.169275  0.000000 0.000000 -1.000000  0.894914 0.510775 0
lowpoly_plastic.004
0  -0.115089 -6.445554 -0.471877  -0.000149 0.000200 -1.000000  0.889187 0.515564 0
0  -0.190387 -6.445554 -0.471866  -0.000149 0.000200 -1.000000  0.889187 0.515593 0
0  -0.113971 -6.388610 -0.471866  -0.000149 0.000200 -1.000000  0.889165 0.515564 0
lowpoly_plastic.004
0  0.112308 -6.388610 -0.471866  0.000149 0.000200 -1.000000  0.889165 0.515477 0
0  0.188725 -6.445554 -0.471866  0.000149 0.000200 -1.000000  0.889187 0.515448 0
0  0.113427 -6.445554 -0.471877  0.000149 0.000200 -1.000000  0.889187 0.515477 0
lowpoly_plastic.004
0  0.188725 -6.158755 -0.325032  0.000000 1.000000 0.000000  0.890145 0.515615 0
0  0.108506 -6.158755 -0.471866  0.000000 1.000000 0.000000  0.890114 0.515671 0
0  0.108506 -6.158755 -0.325032  0.000000 1.000000 0.000000  0.890114 0.515615 0
lowpoly_plastic.004
0  -0.114824 -6.445554 -0.069099  0.999865 -0.016408 -0.000202  0.891113 0.514258 0
0  -0.113971 -6.388610 -0.471866  0.999865 -0.016408 -0.000202  0.890958 0.514236 0
0  -0.110169 -6.158755 -0.325032  0.999865 -0.016408 -0.000202  0.891014 0.514148 0
lowpoly_plastic.004
0  -0.814672 -0.200888 0.276762  -0.744795 -0.406957 0.528834  0.923856 0.515775 0
0  -0.951793 -0.012351 0.228730  -0.744795 -0.406957 0.528834  0.923929 0.515794 0
0  -0.830369 -0.236973 0.226885  -0.744795 -0.406957 0.528834  0.923842 0.515794 0
lowpoly_plastic.004
0  0.108506 -5.996219 -0.169275  -1.000000 -0.000000 0.000000  0.082759 0.874647 0
0  0.108505 -0.636896 0.039351  -1.000000 -0.000000 0.000000  0.082681 0.872587 0
0  0.108505 -0.636896 -0.169275  -1.000000 -0.000000 0.000000  0.082761 0.872587 0
lowpoly_metal.004
0  0.808807 -0.374199 -0.040544  0.630592 -0.776114 0.000000  0.856701 0.537784 0
0  0.942450 -0.265615 0.085012  0.630592 -0.776114 0.000000  0.856798 0.537678 0
0  0.808807 -0.374199 0.085012  0.630592 -0.776114 0.000000  0.856797 0.537784 0
lowpoly_metal.004
0  0.421761 -0.393051 -0.040544  0.341151 -0.940009 0.000000  0.856702 0.538079 0
0  0.675957 -0.300797 0.085012  0.341151 -0.940009 0.000000  0.856798 0.537882 0
0  0.421761 -0.393051 0.085012  0.341151 -0.940009 0.000000  0.856797 0.538079 0
lowpoly_plastic.004
0  0.108506 -6.158755 -0.325032  -0.999863 -0.016538 0.000000  0.891295 0.514146 0
0  0.108506 -6.158755 -0.471866  -0.999863 -0.016538 0.000000  0.891351 0.514146 0
0  0.112308 -6.388610 -0.471866  -0.999863 -0.016538 0.000000  0.891351 0.514235 0
lowpoly_plastic.004
0  0.113162 -6.445554 -0.069099  -0.999926 -0.008405 0.008770  0.891196 0.514256 0
0  0.108506 -5.996219 -0.169275  -0.999926 -0.008405 0.008770  0.891235 0.514084 0
0  0.108506 -6.158755 -0.325032  -0.999926 -0.008405 0.008770  0.891295 0.514146 0
lowpoly_plastic.004
0  0.340268 -0.236256 -0.169275  -0.865601 0.500735 0.000000  0.082758 0.872434 0
0  0.108505 -0.636896 0.039351  -0.865601 0.500735 0.000000  0.082681 0.872587 0
0  0.340268 -0.236256 0.039351  -0.865601 0.500735 0.000000  0.082678 0.872434 0
lowpoly_plastic.004
0  -0.113971 -6.388610 -0.471866  0.999863 -0.016537 0.000000  0.890958 0.514236 0
0  -0.110169 -6.158755 -0.471866  0.999863 -0.016537 0.000000  0.890958 0.514148 0
0  -0.110169 -6.158755 -0.325032  0.999863 -0.016537 0.000000  0.891014 0.514148 0
lowpoly_plastic.004
0  -0.110169 -5.996219 -0.169275  0.999856 -0.000661 0.016977  0.082598 0.874650 0
0  -0.110171 -0.636896 0.039351  0.999856 -0.000661 0.016977  0.082676 0.872591 0
0  -0.113971 -6.388610 0.039351  0.999856 -0.000661 0.016977  0.082678 0.874800 0
lowpoly_plastic.004
0  -0.000831 -6.445554 0.054502  0.000000 -1.000000 0.000011  0.891595 0.515309 0
0  0.113427 -6.445554 0.151888  0.000000 -1.000000 0.000011  0.891551 0.515272 0
0  -0.115089 -6.445554 0.151888  0.000000 -1.000000 0.000011  0.891639 0.515272 0
lowpoly_plastic.004
0  -0.113971 -6.388610 -0.471866  0.000000 0.979823 0.199866  0.889525 0.515647 0
0  -0.000831 -6.445554 -0.192701  0.000000 0.979823 0.199866  0.889568 0.515540 0
0  0.112308 -6.388610 -0.471866  0.000000 0.979823 0.199866  0.889612 0.515647 0
lowpoly_plastic.004
0  -0.113971 -6.388610 -0.471866  0.150402 0.978846 0.138710  0.889525 0.515647 0
0  -0.114824 -6.445554 -0.069099  0.150402 0.978846 0.138710  0.889524 0.515492 0
0  -0.000831 -6.445554 -0.192701  0.150402 0.978846 0.138710  0.889568 0.515540 0
lowpoly_plastic.004
0  0.112308 -6.388610 -0.471866  -0.150401 0.978846 0.138707  0.889612 0.515647 0
0  -0.000831 -6.445554 -0.192701  -0.150401 0.978846 0.138707  0.889568 0.515540 0
0  0.113162 -6.445554 -0.069099  -0.150401 0.978846 0.138707  0.889612 0.515492 0
lowpoly_plastic.004
0  -0.113971 -6.388610 0.039351  0.452524 0.788064 -0.417346  0.892060 0.515635 0
0  -0.000831 -6.445554 0.054502  0.452524 0.788064 -0.417346  0.892088 0.515602 0
0  -0.114824 -6.445554 -0.069099  0.452524 0.788064 -0.417346  0.892088 0.515667 0
lowpoly_plastic.004
0  0.112308 -6.388610 0.039351  -0.452525 0.788066 -0.417340  0.892090 0.513021 0
0  0.113162 -6.445554 -0.069099  -0.452525 0.788066 -0.417340  0.892062 0.513051 0
0  -0.000831 -6.445554 0.054502  -0.452525 0.788066 -0.417340  0.892062 0.512987 0
lowpoly_plastic.004
0  0.188725 -6.445554 0.108693  0.000000 -1.000000 0.000000  0.891522 0.515288 0
0  0.113162 -6.445554 -0.069099  0.000000 -1.000000 0.000000  0.891551 0.515357 0
0  0.188725 -6.445554 -0.471866  0.000000 -1.000000 0.000000  0.891522 0.515511 0
lowpoly_plastic.004
0  -0.190387 -6.445554 -0.471866  0.000000 -1.000000 0.000000  0.891668 0.515511 0
0  -0.114824 -6.445554 -0.069099  0.000000 -1.000000 0.000000  0.891639 0.515357 0
0  -0.190387 -6.445554 0.108693  0.000000 -1.000000 0.000000  0.891668 0.515288 0
lowpoly_plastic.004
0  -0.190389 -1.115889 0.108693  -1.000000 -0.000000 0.000000  0.888058 0.513704 0
0  -0.190387 -5.996219 -0.169275  -1.000000 -0.000000 0.000000  0.888151 0.515581 0
0  -0.190387 -6.445554 0.108693  -1.000000 -0.000000 0.000000  0.888042 0.515752 0
lowpoly_plastic.004
0  0.188725 -5.996219 -0.169275  0.000000 0.691887 -0.722005  0.888604 0.514118 0
0  0.108506 -6.158755 -0.325032  0.000000 0.691887 -0.722005  0.888573 0.514180 0
0  0.108506 -5.996219 -0.169275  0.000000 0.691887 -0.722005  0.888573 0.514118 0
lowpoly_plastic.004
0  -0.190387 -6.445554 0.108693  -1.000000 -0.000000 0.000000  0.890510 0.513975 0
0  -0.190387 -5.996219 -0.169275  -1.000000 -0.000000 0.000000  0.890618 0.513803 0
0  -0.190387 -6.158755 -0.325032  -1.000000 -0.000000 0.000000  0.890678 0.513866 0
lowpoly_plastic.004
0  0.188725 -6.445554 -0.471866  1.000000 0.000001 0.000000  0.890735 0.513975 0
0  0.188725 -6.158755 -0.325032  1.000000 0.000001 0.000000  0.890791 0.513865 0
0  0.188725 -6.445554 0.108693  1.000000 0.000001 0.000000  0.890958 0.513974 0
lowpoly_plastic.004
0  0.188725 -6.445554 0.108693  1.000000 0.000000 -0.000000  0.890958 0.513974 0
0  0.188725 -6.158755 -0.325032  1.000000 0.000000 -0.000000  0.890791 0.513865 0
0  0.188725 -5.996219 -0.169275  1.000000 0.000000 -0.000000  0.890850 0.513802 0
lowpoly_plastic.004
0  0.112308 -6.388610 -0.471866  -0.999865 -0.016409 -0.000201  0.891351 0.514235 0
0  0.113162 -6.445554 -0.069099  -0.999865 -0.016409 -0.000201  0.891196 0.514256 0
0  0.108506 -6.158755 -0.325032  -0.999865 -0.016409 -0.000201  0.891295 0.514146 0
lowpoly_metal.004
0  0.364838 -0.945535 0.085012  -0.000000 0.000000 1.000000  0.891734 0.538105 0
0  0.284259 -0.674958 0.085012  -0.000000 0.000000 1.000000  0.891670 0.538310 0
0  0.284259 -0.842123 0.085012  -0.000000 0.000000 1.000000  0.891672 0.538183 0
lowpoly_metal.004
0  0.216457 -0.615257 0.085012  -0.000000 0.000000 1.000000  0.891618 0.538355 0
0  0.421761 -0.393051 0.085012  -0.000000 0.000000 1.000000  0.891773 0.538526 0
0  0.216858 -0.001705 0.085012  -0.000000 0.000000 1.000000  0.891614 0.538822 0
lowpoly_metal.004
0  0.942449 -0.003899 0.085012  0.000000 0.000000 1.000000  0.892166 0.538826 0
0  0.216858 -0.001705 0.085012  0.000000 0.000000 1.000000  0.891614 0.538822 0
0  0.675957 -0.300797 0.085012  0.000000 0.000000 1.000000  0.891966 0.538598 0
lowpoly_metal.004
0  0.675957 -0.300797 0.085012  0.000000 0.000000 1.000000  0.891966 0.538598 0
0  0.808807 -0.374199 0.085012  0.000000 0.000000 1.000000  0.892067 0.538543 0
0  0.942450 -0.265615 0.085012  0.000000 0.000000 1.000000  0.892168 0.538627 0
lowpoly_metal.004
0  0.421761 -0.393051 0.085012  0.000000 0.000000 1.000000  0.891773 0.538526 0
0  0.675957 -0.300797 0.085012  0.000000 0.000000 1.000000  0.891966 0.538598 0
0  0.216858 -0.001705 0.085012  0.000000 0.000000 1.000000  0.891614 0.538822 0
lowpoly_metal.004
0  0.284259 -0.674958 0.085012  -0.000000 0.000000 1.000000  0.891670 0.538310 0
0  0.364838 -0.945535 0.085012  -0.000000 0.000000 1.000000  0.891734 0.538105 0
0  0.421761 -0.393051 0.085012  -0.000000 0.000000 1.000000  0.891773 0.538526 0
lowpoly_metal.004
0  0.216457 -0.615257 0.085012  0.000000 0.000000 1.000000  0.891618 0.538355 0
0  0.284259 -0.674958 0.085012  0.000000 0.000000 1.000000  0.891670 0.538310 0
0  0.421761 -0.393051 0.085012  0.000000 0.000000 1.000000  0.891773 0.538526 0
lowpoly_metal.004
0  0.675957 -0.300797 0.085012  0.000000 0.000000 1.000000  0.891966 0.538598 0
0  0.942450 -0.265615 0.085012  0.000000 0.000000 1.000000  0.892168 0.538627 0
0  0.942449 -0.003899 0.085012  0.000000 0.000000 1.000000  0.892166 0.538826 0
lowpoly_metal.004
0  0.364838 -0.945535 -0.040544  0.000000 0.000000 -1.000000  0.005718 0.764287 0
0  0.284259 -0.842123 -0.040544  0.000000 0.000000 -1.000000  0.005656 0.764209 0
0  0.284259 -0.674958 -0.040544  0.000000 0.000000 -1.000000  0.005654 0.764081 0
lowpoly_metal.004
0  0.364838 -0.945535 0.085012  0.000000 0.000000 1.000000  0.891734 0.538105 0
0  0.208497 -0.842123 0.085012  0.000000 0.000000 1.000000  0.891614 0.538182 0
0  0.266209 -0.945535 0.085012  0.000000 0.000000 1.000000  0.891659 0.538104 0
lowpoly_metal.004
0  0.216457 -0.615257 -0.040544  0.000000 0.000000 -1.000000  0.005602 0.764037 0
0  0.216858 -0.001705 -0.040544  0.000000 0.000000 -1.000000  0.005598 0.763570 0
0  0.421761 -0.393051 -0.040544  0.000000 0.000000 -1.000000  0.005757 0.763866 0
lowpoly_metal.004
0  0.942449 -0.003899 -0.040544  0.000000 0.000000 -1.000000  0.006150 0.763566 0
0  0.675957 -0.300797 -0.040544  0.000000 0.000000 -1.000000  0.005950 0.763794 0
0  0.216858 -0.001705 -0.040544  0.000000 0.000000 -1.000000  0.005598 0.763570 0
lowpoly_metal.004
0  0.675957 -0.300797 -0.040544  0.000000 0.000000 -1.000000  0.005950 0.763794 0
0  0.942450 -0.265615 -0.040544  0.000000 0.000000 -1.000000  0.006152 0.763765 0
0  0.808807 -0.374199 -0.040544  0.000000 0.000000 -1.000000  0.006051 0.763849 0
lowpoly_metal.004
0  0.421761 -0.393051 -0.040544  0.000000 0.000000 -1.000000  0.005757 0.763866 0
0  0.216858 -0.001705 -0.040544  0.000000 0.000000 -1.000000  0.005598 0.763570 0
0  0.675957 -0.300797 -0.040544  0.000000 0.000000 -1.000000  0.005950 0.763794 0
lowpoly_metal.004
0  0.284259 -0.674958 -0.040544  0.000000 0.000000 -1.000000  0.005654 0.764081 0
0  0.421761 -0.393051 -0.040544  0.000000 0.000000 -1.000000  0.005757 0.763866 0
0  0.364838 -0.945535 -0.040544  0.000000 0.000000 -1.000000  0.005718 0.764287 0
lowpoly_metal.004
0  0.216457 -0.615257 -0.040544  0.000000 0.000000 -1.000000  0.005602 0.764037 0
0  0.421761 -0.393051 -0.040544  0.000000 0.000000 -1.000000  0.005757 0.763866 0
0  0.284259 -0.674958 -0.040544  0.000000 0.000000 -1.000000  0.005654 0.764081 0
lowpoly_metal.004
0  0.675957 -0.300797 -0.040544  0.000000 0.000000 -1.000000  0.005950 0.763794 0
0  0.942449 -0.003899 -0.040544  0.000000 0.000000 -1.000000  0.006150 0.763566 0
0  0.942450 -0.265615 -0.040544  0.000000 0.000000 -1.000000  0.006152 0.763765 0
lowpoly_metal.004
0  0.942450 -0.265615 -0.040544  1.000000 0.000001 0.000000  0.852784 0.537912 0
0  0.942449 -0.003899 0.085012  1.000000 0.000001 0.000000  0.852688 0.538111 0
0  0.942450 -0.265615 0.085012  1.000000 0.000001 0.000000  0.852688 0.537912 0
lowpoly_metal.004
0  0.208497 -0.842123 -0.040544  -0.873221 -0.487324 0.000000  0.006380 0.765050 0
0  0.266209 -0.945535 0.085012  -0.873221 -0.487324 0.000000  0.006351 0.765014 0
0  0.208497 -0.842123 0.085012  -0.873221 -0.487324 0.000000  0.006380 0.765014 0
lowpoly_metal.004
0  0.266209 -0.945535 -0.040544  0.000000 -1.000000 0.000000  0.857264 0.536873 0
0  0.364838 -0.945535 0.085012  0.000000 -1.000000 0.000000  0.857189 0.536777 0
0  0.266209 -0.945535 0.085012  0.000000 -1.000000 0.000000  0.857264 0.536777 0
lowpoly_metal.004
0  0.675957 -0.300797 -0.040544  -0.483606 -0.875286 0.000000  0.856702 0.537882 0
0  0.808807 -0.374199 0.085012  -0.483606 -0.875286 0.000000  0.856797 0.537784 0
0  0.675957 -0.300797 0.085012  -0.483606 -0.875286 0.000000  0.856798 0.537882 0
lowpoly_metal.004
0  0.284259 -0.842123 -0.040544  0.000000 1.000000 0.000000  0.006630 0.765064 0
0  0.208497 -0.842123 0.085012  0.000000 1.000000 0.000000  0.006609 0.765028 0
0  0.284259 -0.842123 0.085012  0.000000 1.000000 0.000000  0.006630 0.765028 0
lowpoly_metal.004
0  0.216457 -0.615257 -0.040544  -0.660850 -0.750518 0.000000  0.007526 0.764587 0
0  0.284259 -0.674958 0.085012  -0.660850 -0.750518 0.000000  0.007508 0.764551 0
0  0.216457 -0.615257 0.085012  -0.660850 -0.750518 0.000000  0.007526 0.764551 0
lowpoly_plastic.004
0  -0.341934 -0.236257 0.039351  0.000000 0.000000 -1.000000  0.081032 0.872434 0
0  0.340268 0.097217 0.039351  0.000000 0.000000 -1.000000  0.081294 0.872306 0
0  0.340268 -0.236256 0.039351  0.000000 0.000000 -1.000000  0.081294 0.872434 0
lowpoly_plastic.004
0  0.449080 -0.236973 -0.169275  -0.000690 0.001538 -0.999999  0.894956 0.510775 0
0  0.830245 0.184687 -0.168889  -0.000690 0.001538 -0.999999  0.895103 0.510613 0
0  0.950145 -0.012351 -0.169275  -0.000690 0.001538 -0.999999  0.895149 0.510689 0
lowpoly_plastic.004
0  0.950145 -0.012351 -0.034640  0.854267 0.519834 0.000000  0.004427 0.764802 0
0  0.950145 -0.012351 -0.169275  0.854267 0.519834 0.000000  0.004427 0.764821 0
0  0.830245 0.184687 -0.168889  0.854267 0.519834 0.000000  0.004398 0.764820 0
lowpoly_plastic.004
0  -0.190387 -6.445554 -0.471866  -1.000000 -0.000001 0.000000  0.890733 0.513976 0
0  -0.190387 -6.445554 0.108693  -1.000000 -0.000001 0.000000  0.890510 0.513975 0
0  -0.190387 -6.158755 -0.325032  -1.000000 -0.000001 0.000000  0.890678 0.513866 0
lowpoly_plastic.004
0  -0.190389 -0.915782 0.151888  -1.000000 0.000000 0.000000  0.888042 0.513627 0
0  -0.190389 -0.636896 0.151888  -1.000000 0.000000 0.000000  0.888043 0.513520 0
0  -0.190389 -0.636896 -0.169275  -1.000000 0.000000 0.000000  0.888167 0.513521 0
lowpoly_plastic.004
0  0.312265 -0.435049 0.151888  0.998279 -0.058650 0.000000  0.897678 0.515195 0
0  0.300406 -0.636896 0.151888  0.998279 -0.058650 0.000000  0.897679 0.515118 0
0  0.312265 -0.435049 0.080813  0.998279 -0.058650 0.000000  0.897705 0.515196 0
lowpoly_plastic.004
0  -0.450746 -0.236973 0.151888  -0.000001 0.000001 1.000000  0.899218 0.513581 0
0  -0.287018 -0.435049 0.151888  -0.000001 0.000001 1.000000  0.899281 0.513505 0
0  -0.217596 0.005285 0.151888  -0.000001 0.000001 1.000000  0.899307 0.513674 0
lowpoly_plastic.004
0  0.312265 -0.435049 0.151888  0.000001 0.000001 1.000000  0.899511 0.513505 0
0  0.449080 -0.236973 0.151888  0.000001 0.000001 1.000000  0.899564 0.513581 0
0  0.215930 0.005285 0.151888  0.000001 0.000001 1.000000  0.899474 0.513674 0
lowpoly_plastic.004
0  0.215930 0.005285 0.276762  -0.000000 0.000000 1.000000  0.926039 0.513961 0
0  0.800052 0.145008 0.276762  -0.000000 0.000000 1.000000  0.926092 0.513737 0
0  -0.801701 0.145007 0.276762  -0.000000 0.000000 1.000000  0.926092 0.514352 0
lowpoly_plastic.004
0  -0.110171 -0.636896 -0.169275  0.000000 0.000000 -1.000000  0.894741 0.510929 0
0  -0.190389 -0.636896 -0.169275  0.000000 0.000000 -1.000000  0.894710 0.510929 0
0  -0.287018 -0.435049 -0.169275  0.000000 0.000000 -1.000000  0.894673 0.510851 0
lowpoly_plastic.004
0  0.188725 -5.996219 -0.169275  1.000000 0.000000 0.000001  0.888382 0.515579 0
0  0.188723 -0.636896 -0.169275  1.000000 0.000000 0.000001  0.888366 0.513521 0
0  0.188723 -1.115889 0.108693  1.000000 0.000000 0.000001  0.888474 0.513704 0
lowpoly_plastic.004
0  0.108505 -0.636896 -0.169275  0.000000 0.000000 -1.000000  0.894825 0.510929 0
0  0.340268 -0.236256 -0.169275  0.000000 0.000000 -1.000000  0.894914 0.510775 0
0  0.312265 -0.435049 -0.169275  0.000000 0.000000 -1.000000  0.894903 0.510851 0
lowpoly_plastic.004
0  0.108506 -5.996219 -0.169275  -0.999856 -0.000661 0.016977  0.082759 0.874647 0
0  0.112308 -6.388610 0.039351  -0.999856 -0.000661 0.016977  0.082678 0.874798 0
0  0.108505 -0.636896 0.039351  -0.999856 -0.000661 0.016977  0.082681 0.872587 0
lowpoly_plastic.004
0  -0.110169 -5.996219 -0.169275  1.000000 0.000000 0.000000  0.082598 0.874650 0
0  -0.110171 -0.636896 -0.169275  1.000000 0.000000 0.000000  0.082596 0.872591 0
0  -0.110171 -0.636896 0.039351  1.000000 0.000000 0.000000  0.082676 0.872591 0
lowpoly_plastic.004
0  -0.190389 -1.115889 0.108693  -1.000000 -0.000000 -0.000001  0.888058 0.513704 0
0  -0.190389 -0.636896 -0.169275  -1.000000 -0.000000 -0.000001  0.888167 0.513521 0
0  -0.190387 -5.996219 -0.169275  -1.000000 -0.000000 -0.000001  0.888151 0.515581 0
lowpoly_plastic.004
0  0.188725 -6.445554 -0.471866  1.000000 0.000001 0.000000  0.890735 0.513975 0
0  0.188725 -6.158755 -0.471866  1.000000 0.000001 0.000000  0.890734 0.513865 0
0  0.188725 -6.158755 -0.325032  1.000000 0.000001 0.000000  0.890791 0.513865 0
lowpoly_plastic.004
0  -0.190389 -0.636896 0.151888  0.000000 -1.000000 0.000000  0.078780 0.875115 0
0  -0.276022 -0.636896 -0.169275  0.000000 -1.000000 0.000000  0.078812 0.875239 0
0  -0.190389 -0.636896 -0.169275  0.000000 -1.000000 0.000000  0.078780 0.875239 0
lowpoly_plastic.004
0  -0.341934 -0.236257 -0.169275  0.865600 0.500736 0.000000  0.082598 0.872434 0
0  -0.110171 -0.636896 0.039351  0.865600 0.500736 0.000000  0.082676 0.872591 0
0  -0.110171 -0.636896 -0.169275  0.865600 0.500736 0.000000  0.082596 0.872591 0
lowpoly_plastic.004
0  -0.801701 0.145007 0.276762  0.000000 0.000000 1.000000  0.926092 0.514352 0
0  -0.431953 -0.200887 0.276762  0.000000 0.000000 1.000000  0.925959 0.514210 0
0  -0.217596 0.005285 0.276762  0.000000 0.000000 1.000000  0.926039 0.514128 0
lowpoly_plastic.004
0  0.188723 -0.636896 0.151888  0.000000 0.000000 1.000000  0.899464 0.513427 0
0  -0.287018 -0.435049 0.151888  0.000000 0.000000 1.000000  0.899281 0.513505 0
0  -0.190389 -0.636896 0.151888  0.000000 0.000000 1.000000  0.899318 0.513427 0
lowpoly_plastic.004
0  -0.000831 -6.445554 0.054502  0.000000 -1.000000 0.000015  0.891595 0.515309 0
0  0.188725 -6.445554 0.108693  0.000000 -1.000000 0.000015  0.891522 0.515288 0
0  0.113427 -6.445554 0.151888  0.000000 -1.000000 0.000015  0.891551 0.515272 0
lowpoly_plastic.004
0  0.108505 -0.636896 0.039351  0.000000 0.000000 -1.000000  0.081205 0.872588 0
0  -0.113971 -6.388610 0.039351  0.000000 0.000000 -1.000000  0.081119 0.874799 0
0  -0.110171 -0.636896 0.039351  0.000000 0.000000 -1.000000  0.081121 0.872588 0
lowpoly_plastic.004
0  -0.287018 -0.435049 0.151888  0.000000 0.000001 1.000000  0.899281 0.513505 0
0  0.215930 0.005285 0.151888  0.000000 0.000001 1.000000  0.899474 0.513674 0
0  -0.217596 0.005285 0.151888  0.000000 0.000001 1.000000  0.899307 0.513674 0
lowpoly_metal.004
0  0.216858 -0.001705 -0.040544  -1.000000 0.000653 0.000000  0.006160 0.764725 0
0  0.216457 -0.615257 0.085012  -1.000000 0.000653 0.000000  0.006125 0.764898 0
0  0.216858 -0.001705 0.085012  -1.000000 0.000653 0.000000  0.006125 0.764725 0
lowpoly_metal.004
0  0.942449 -0.003899 -0.040544  0.003023 0.999995 0.000000  0.852535 0.537155 0
0  0.216858 -0.001705 0.085012  0.003023 0.999995 0.000000  0.852440 0.537707 0
0  0.942449 -0.003899 0.085012  0.003023 0.999995 0.000000  0.852440 0.537155 0
lowpoly_plastic.004
0  0.188723 -0.915782 0.151888  0.000000 0.000000 1.000000  0.899464 0.513320 0
0  -0.190389 -0.636896 0.151888  0.000000 0.000000 1.000000  0.899318 0.513427 0
0  -0.190389 -0.915782 0.151888  0.000000 0.000000 1.000000  0.899318 0.513320 0
lowpoly_plastic.004
0  0.449080 -0.236973 -0.169275  0.000003 -1.000000 0.000000  0.897496 0.514745 0
0  0.828722 -0.236972 -0.034640  0.000003 -1.000000 0.000000  0.897444 0.514891 0
0  0.449080 -0.236973 -0.034640  0.000003 -1.000000 0.000000  0.897444 0.514745 0
lowpoly_plastic.004
0  -0.276022 -0.636896 0.151888  -0.998519 -0.054395 0.000000  0.899387 0.515237 0
0  -0.287018 -0.435049 -0.169275  -0.998519 -0.054395 0.000000  0.899263 0.515315 0
0  -0.276022 -0.636896 -0.169275  -0.998519 -0.054395 0.000000  0.899263 0.515237 0
lowpoly_plastic.004
0  0.950145 -0.012351 -0.034640  -0.014401 -0.999896 0.000000  0.004669 0.764459 0
0  0.396969 -0.004384 0.080813  -0.014401 -0.999896 0.000000  0.004652 0.764380 0
0  0.396969 -0.004384 -0.034640  -0.014401 -0.999896 0.000000  0.004669 0.764380 0
lowpoly_plastic.004
0  -0.830369 0.187944 0.230575  -0.855136 0.518404 0.000000  0.003776 0.764754 0
0  -0.951793 -0.012351 -0.169275  -0.855136 0.518404 0.000000  0.003748 0.764812 0
0  -0.951793 -0.012351 0.228730  -0.855136 0.518404 0.000000  0.003747 0.764755 0
lowpoly_plastic.004
0  0.188725 -6.158755 -0.471866  0.000000 0.000000 -1.000000  0.889076 0.515448 0
0  0.112308 -6.388610 -0.471866  0.000000 0.000000 -1.000000  0.889165 0.515477 0
0  0.108506 -6.158755 -0.471866  0.000000 0.000000 -1.000000  0.889076 0.515478 0
lowpoly_plastic.004
0  0.449080 -0.236973 0.080813  0.822805 -0.568324 0.000000  0.897706 0.515270 0
0  0.312265 -0.435049 0.151888  0.822805 -0.568324 0.000000  0.897678 0.515195 0
0  0.312265 -0.435049 0.080813  0.822805 -0.568324 0.000000  0.897705 0.515196 0
lowpoly_metal.004
0  0.284259 -0.674958 -0.040544  -1.000000 -0.000001 0.000000  0.005533 0.765000 0
0  0.284259 -0.842123 0.085012  -1.000000 -0.000001 0.000000  0.005498 0.765047 0
0  0.284259 -0.674958 0.085012  -1.000000 -0.000001 0.000000  0.005498 0.765000 0
lowpoly_plastic.004
0  0.828722 -0.236972 0.080813  0.000000 0.000000 -1.000000  0.004175 0.764713 0
0  0.396969 -0.004384 0.080813  0.000000 0.000000 -1.000000  0.004142 0.764776 0
0  0.950145 -0.012351 0.080813  0.000000 0.000000 -1.000000  0.004142 0.764696 0
lowpoly_plastic.004
0  0.449080 -0.236973 -0.034640  0.822805 -0.568324 0.000000  0.897750 0.515270 0
0  0.312265 -0.435049 -0.169275  0.822805 -0.568324 0.000000  0.897802 0.515197 0
0  0.449080 -0.236973 -0.169275  0.822805 -0.568324 0.000000  0.897802 0.515271 0
lowpoly_plastic.004
0  0.340268 0.097217 -0.169275  0.000000 -1.000000 0.000000  0.079887 0.876212 0
0  -0.341934 0.097217 0.039351  0.000000 -1.000000 0.000000  0.079807 0.875950 0
0  -0.341934 0.097217 -0.169275  0.000000 -1.000000 0.000000  0.079887 0.875950 0
lowpoly_plastic.004
0  0.340268 0.097217 -0.169275  -1.000000 -0.000001 0.000000  0.082759 0.872306 0
0  0.340268 -0.236256 0.039351  -1.000000 -0.000001 0.000000  0.082678 0.872434 0
0  0.340268 0.097217 0.039351  -1.000000 -0.000001 0.000000  0.082678 0.872306 0
lowpoly_plastic.004
0  -0.341934 0.097217 -0.169275  1.000000 0.000001 0.000000  0.082598 0.872306 0
0  -0.341934 -0.236257 0.039351  1.000000 0.000001 0.000000  0.082678 0.872434 0
0  -0.341934 -0.236257 -0.169275  1.000000 0.000001 0.000000  0.082598 0.872434 0
lowpoly_metal.004
0  0.364838 -0.945535 -0.040544  0.994734 -0.102488 0.000000  0.859423 0.534611 0
0  0.421761 -0.393051 0.085012  0.994734 -0.102488 0.000000  0.859328 0.535029 0
0  0.364838 -0.945535 0.085012  0.994734 -0.102488 0.000000  0.859328 0.534610 0
lowpoly_plastic.004
0  -0.217596 0.005285 0.151888  0.717495 -0.690519 0.091565  0.078392 0.874716 0
0  -0.431953 -0.200887 0.276762  0.717495 -0.690519 0.091565  0.078440 0.874803 0
0  -0.450746 -0.236973 0.151888  0.717495 -0.690519 0.091565  0.078392 0.874811 0
lowpoly_plastic.004
0  -0.110169 -6.158755 -0.325032  0.999875 -0.015831 0.000445  0.891014 0.514148 0
0  -0.113971 -6.388610 0.039351  0.999875 -0.015831 0.000445  0.891155 0.514236 0
0  -0.114824 -6.445554 -0.069099  0.999875 -0.015831 0.000445  0.891113 0.514258 0
lowpoly_plastic.004
0  0.950145 -0.012351 -0.034640  0.855136 0.518404 0.000000  0.004427 0.764802 0
0  0.828721 0.187944 0.230575  0.855136 0.518404 0.000000  0.004398 0.764763 0
0  0.950145 -0.012351 0.080813  0.855136 0.518404 0.000000  0.004427 0.764785 0
lowpoly_plastic.004
0  -0.830369 0.187944 0.230575  -0.610034 0.354806 0.708499  0.926109 0.514364 0
0  -0.893237 -0.012375 0.276762  -0.610034 0.354806 0.708499  0.926032 0.514388 0
0  -0.801701 0.145007 0.276762  -0.610034 0.354806 0.708499  0.926092 0.514352 0
lowpoly_plastic.004
0  -0.110171 -0.636896 0.039351  0.000000 0.000000 -1.000000  0.081121 0.872588 0
0  0.340268 -0.236256 0.039351  0.000000 0.000000 -1.000000  0.081294 0.872434 0
0  0.108505 -0.636896 0.039351  0.000000 0.000000 -1.000000  0.081205 0.872588 0
lowpoly_metal.004
0  0.364838 -0.945535 -0.040544  0.000000 0.000000 -1.000000  0.005718 0.764287 0
0  0.208497 -0.842123 -0.040544  0.000000 0.000000 -1.000000  0.005598 0.764209 0
0  0.284259 -0.842123 -0.040544  0.000000 0.000000 -1.000000  0.005656 0.764209 0
lowpoly_plastic.004
0  0.113162 -6.445554 -0.069099  0.000000 -1.000000 0.000000  0.891551 0.515357 0
0  -0.000831 -6.445554 -0.192701  0.000000 -1.000000 0.000000  0.891595 0.515404 0
0  0.113427 -6.445554 -0.471877  0.000000 -1.000000 0.000000  0.891551 0.515511 0
lowpoly_plastic.004
0  -0.115091 -1.115889 0.151888  -0.497594 -0.000000 0.867410  0.886558 0.515568 0
0  -0.190389 -1.115889 0.108693  -0.497594 -0.000000 0.867410  0.886529 0.515568 0
0  -0.190387 -6.445554 0.108693  -0.497594 -0.000000 0.867410  0.886529 0.513520 0
lowpoly_plastic.004
0  0.113427 -6.445554 -0.471877  0.000000 0.000197 -1.000000  0.889187 0.515477 0
0  -0.115089 -6.445554 -0.471877  0.000000 0.000197 -1.000000  0.889187 0.515564 0
0  -0.113971 -6.388610 -0.471866  0.000000 0.000197 -1.000000  0.889165 0.515564 0
lowpoly_plastic.004
0  -0.190389 -0.636896 -0.169275  0.000000 0.000000 -1.000000  0.891416 0.510541 0
0  -0.110171 -0.636896 -0.169275  0.000000 0.000000 -1.000000  0.891447 0.510541 0
0  -0.110169 -5.996219 -0.169275  0.000000 0.000000 -1.000000  0.891447 0.512601 0
lowpoly_plastic.004
0  -0.951793 -0.012351 -0.169275  -0.879696 -0.475537 0.000000  0.003748 0.764812 0
0  -0.830369 -0.236973 -0.169275  -0.879696 -0.475537 0.000000  0.003716 0.764812 0
0  -0.830369 -0.236973 0.226885  -0.879696 -0.475537 0.000000  0.003715 0.764755 0
lowpoly_plastic.004
0  0.449080 -0.236973 0.151888  -0.110527 -0.821425 0.559505  0.897972 0.515317 0
0  0.828722 -0.236972 0.226885  -0.110527 -0.821425 0.559505  0.897943 0.515463 0
0  0.813024 -0.200887 0.276762  -0.110527 -0.821425 0.559505  0.897924 0.515458 0
lowpoly_plastic.004
0  -0.287018 -0.435049 0.151888  -0.770772 -0.637112 0.000000  0.899387 0.515315 0
0  -0.450746 -0.236973 0.151888  -0.770772 -0.637112 0.000000  0.899385 0.515391 0
0  -0.450746 -0.236973 -0.169275  -0.770772 -0.637112 0.000000  0.899261 0.515391 0
lowpoly_plastic.004
0  -0.110169 -5.996219 -0.169275  0.000000 0.691889 -0.722004  0.888489 0.514118 0
0  -0.110169 -6.158755 -0.325032  0.000000 0.691889 -0.722004  0.888489 0.514180 0
0  -0.190387 -6.158755 -0.325032  0.000000 0.691889 -0.722004  0.888458 0.514180 0
lowpoly_plastic.004
0  0.312265 -0.435049 0.080813  0.998279 -0.058650 0.000000  0.897705 0.515196 0
0  0.300406 -0.636896 0.151888  0.998279 -0.058650 0.000000  0.897679 0.515118 0
0  0.300406 -0.636896 -0.169275  0.998279 -0.058650 0.000000  0.897802 0.515119 0
lowpoly_plastic.004
0  0.188723 -0.636896 -0.169275  0.000000 0.000000 -1.000000  0.891562 0.510541 0
0  0.188725 -5.996219 -0.169275  0.000000 0.000000 -1.000000  0.891562 0.512601 0
0  0.108506 -5.996219 -0.169275  0.000000 0.000000 -1.000000  0.891531 0.512601 0
lowpoly_plastic.004
0  0.312265 -0.435049 -0.034640  0.981202 -0.192985 0.000000  0.004017 0.764762 0
0  0.396969 -0.004384 -0.034640  0.981202 -0.192985 0.000000  0.004017 0.764823 0
0  0.396969 -0.004384 0.080813  0.981202 -0.192985 0.000000  0.004000 0.764823 0
lowpoly_plastic.004
0  0.828722 -0.236972 -0.034640  0.879695 -0.475539 0.000000  0.004458 0.764802 0
0  0.828722 -0.236972 -0.169275  0.879695 -0.475539 0.000000  0.004458 0.764821 0
0  0.950145 -0.012351 -0.169275  0.879695 -0.475539 0.000000  0.004427 0.764821 0
lowpoly_plastic.004
0  0.449080 -0.236973 0.151888  0.000003 -1.000000 0.000000  0.897972 0.515317 0
0  0.449080 -0.236973 0.080813  0.000003 -1.000000 0.000000  0.898000 0.515317 0
0  0.828722 -0.236972 0.080813  0.000003 -1.000000 0.000000  0.898000 0.515463 0
lowpoly_plastic.004
0  0.800052 0.145008 0.276762  0.000000 0.732410 0.680864  0.925669 0.515173 0
0  0.828721 0.187944 0.230575  0.000000 0.732410 0.680864  0.925687 0.515161 0
0  -0.830369 0.187944 0.230575  0.000000 0.732410 0.680864  0.925687 0.515798 0
lowpoly_plastic.004
0  -0.450746 -0.236973 -0.169275  0.000690 0.001538 -0.999999  0.894610 0.510775 0
0  -0.951793 -0.012351 -0.169275  0.000690 0.001538 -0.999999  0.894418 0.510689 0
0  -0.831893 0.184686 -0.168889  0.000690 0.001538 -0.999999  0.894464 0.510613 0
lowpoly_plastic.004
0  0.113425 -1.115889 0.151888  0.497594 0.000000 0.867410  0.886646 0.515568 0
0  0.113427 -6.445554 0.151888  0.497594 0.000000 0.867410  0.886646 0.513520 0
0  0.188725 -6.445554 0.108693  0.497594 0.000000 0.867410  0.886674 0.513520 0
lowpoly_plastic.004
0  0.188723 -0.636896 -0.169275  0.000000 -1.000000 0.000000  0.080486 0.872177 0
0  0.300406 -0.636896 -0.169275  0.000000 -1.000000 0.000000  0.080443 0.872177 0
0  0.300406 -0.636896 0.151888  0.000000 -1.000000 0.000000  0.080443 0.872054 0
lowpoly_plastic.004
0  -0.000831 -6.445554 -0.192701  0.000000 -1.000000 0.000001  0.891595 0.515404 0
0  -0.114824 -6.445554 -0.069099  0.000000 -1.000000 0.000001  0.891639 0.515357 0
0  -0.190387 -6.445554 -0.471866  0.000000 -1.000000 0.000001  0.891668 0.515511 0
lowpoly_plastic.004
0  0.215930 0.005285 0.151888  -0.717495 -0.690519 0.091566  0.080222 0.875250 0
0  0.449080 -0.236973 0.151888  -0.717495 -0.690519 0.091566  0.080222 0.875156 0
0  0.430286 -0.200887 0.276762  -0.717495 -0.690519 0.091566  0.080270 0.875169 0
lowpoly_plastic.004
0  0.430286 -0.200887 0.276762  0.000000 0.000000 1.000000  0.925959 0.513879 0
0  0.891588 -0.012374 0.276762  0.000000 0.000000 1.000000  0.926032 0.513702 0
0  0.800052 0.145008 0.276762  0.000000 0.000000 1.000000  0.926092 0.513737 0
lowpoly_plastic.004
0  0.215930 0.005285 0.151888  0.000000 -1.000000 0.000000  0.078392 0.874550 0
0  0.215930 0.005285 0.276762  0.000000 -1.000000 0.000000  0.078440 0.874550 0
0  -0.217596 0.005285 0.276762  0.000000 -1.000000 0.000000  0.078440 0.874716 0
lowpoly_plastic.004
0  0.828722 -0.236972 0.226885  0.879695 -0.475538 0.000000  0.004459 0.764764 0
0  0.828722 -0.236972 0.080813  0.879695 -0.475538 0.000000  0.004458 0.764785 0
0  0.950145 -0.012351 0.080813  0.879695 -0.475538 0.000000  0.004427 0.764785 0
lowpoly_plastic.004
0  -0.115091 -1.115889 0.151888  0.000000 0.000000 1.000000  0.886558 0.515568 0
0  -0.115089 -6.445554 0.151888  0.000000 0.000000 1.000000  0.886558 0.513520 0
0  0.113427 -6.445554 0.151888  0.000000 0.000000 1.000000  0.886646 0.513520 0
lowpoly_plastic.004
0  -0.814672 -0.200888 0.276762  0.110534 -0.821425 0.559503  0.897431 0.515195 0
0  -0.830369 -0.236973 0.226885  0.110534 -0.821425 0.559503  0.897412 0.515202 0
0  -0.450746 -0.236973 0.151888  0.110534 -0.821425 0.559503  0.897383 0.515056 0
lowpoly_plastic.004
0  0.950145 -0.012351 0.228730  0.613201 -0.255556 0.747446  0.925756 0.515818 0
0  0.891588 -0.012374 0.276762  0.613201 -0.255556 0.747446  0.925755 0.515799 0
0  0.813024 -0.200887 0.276762  0.613201 -0.255556 0.747446  0.925826 0.515799 0
lowpoly_plastic.004
0  0.828721 0.187944 0.230575  0.610035 0.354808 0.708497  0.926109 0.513726 0
0  0.800052 0.145008 0.276762  0.610035 0.354808 0.708497  0.926092 0.513737 0
0  0.891588 -0.012374 0.276762  0.610035 0.354808 0.708497  0.926032 0.513702 0
lowpoly_plastic.004
0  -0.830369 0.187944 0.230575  0.000000 0.999967 -0.008155  0.004402 0.764757 0
0  0.828721 0.187944 0.230575  0.000000 0.999967 -0.008155  0.004402 0.764520 0
0  0.830245 0.184687 -0.168889  0.000000 0.999967 -0.008155  0.004459 0.764520 0
lowpoly_plastic.004
0  -0.450746 -0.236973 0.151888  0.000000 -1.000000 0.000000  0.897383 0.515056 0
0  -0.830369 -0.236973 0.226885  0.000000 -1.000000 0.000000  0.897412 0.515202 0
0  -0.830369 -0.236973 -0.169275  0.000000 -1.000000 0.000000  0.897260 0.515202 0
lowpoly_plastic.004
0  -0.115091 -1.115889 0.151888  0.000000 0.000000 1.000000  0.899347 0.513243 0
0  0.113425 -1.115889 0.151888  0.000000 0.000000 1.000000  0.899435 0.513243 0
0  0.188723 -0.915782 0.151888  0.000000 0.000000 1.000000  0.899464 0.513320 0
lowpoly_plastic.004
0  0.396969 -0.004384 -0.034640  0.000000 0.000000 1.000000  0.003610 0.764784 0
0  0.449080 -0.236973 -0.034640  0.000000 0.000000 1.000000  0.003577 0.764776 0
0  0.828722 -0.236972 -0.034640  0.000000 0.000000 1.000000  0.003578 0.764722 0
lowpoly_plastic.004
0  -0.114824 -6.445554 -0.069099  0.000000 -1.000000 0.000000  0.891639 0.515357 0
0  -0.000831 -6.445554 0.054502  0.000000 -1.000000 0.000000  0.891595 0.515309 0
0  -0.115089 -6.445554 0.151888  0.000000 -1.000000 0.000000  0.891639 0.515272 0
lowpoly_plastic.004
0  -0.190387 -6.158755 -0.471866  0.000000 0.000000 -1.000000  0.889076 0.515593 0
0  -0.110169 -6.158755 -0.471866  0.000000 0.000000 -1.000000  0.889076 0.515562 0
0  -0.113971 -6.388610 -0.471866  0.000000 0.000000 -1.000000  0.889165 0.515564 0
lowpoly_plastic.004
0  -0.110169 -6.158755 -0.325032  0.000000 1.000000 0.000000  0.889047 0.515612 0
0  -0.110169 -6.158755 -0.471866  0.000000 1.000000 0.000000  0.889047 0.515669 0
0  -0.190387 -6.158755 -0.471866  0.000000 1.000000 0.000000  0.889017 0.515669 0
lowpoly_plastic.004
0  0.188725 -6.158755 -0.325032  0.000000 1.000000 0.000000  0.890145 0.515615 0
0  0.188725 -6.158755 -0.471866  0.000000 1.000000 0.000000  0.890145 0.515671 0
0  0.108506 -6.158755 -0.471866  0.000000 1.000000 0.000000  0.890114 0.515671 0
lowpoly_plastic.004
0  -0.814672 -0.200888 0.276762  -0.613204 -0.255559 0.747442  0.923856 0.515775 0
0  -0.893237 -0.012375 0.276762  -0.613204 -0.255559 0.747442  0.923928 0.515775 0
0  -0.951793 -0.012351 0.228730  -0.613204 -0.255559 0.747442  0.923929 0.515794 0
lowpoly_metal.004
0  0.808807 -0.374199 -0.040544  0.630592 -0.776114 0.000000  0.856701 0.537784 0
0  0.942450 -0.265615 -0.040544  0.630592 -0.776114 0.000000  0.856702 0.537678 0
0  0.942450 -0.265615 0.085012  0.630592 -0.776114 0.000000  0.856798 0.537678 0
lowpoly_metal.004
0  0.421761 -0.393051 -0.040544  0.341151 -0.940009 0.000000  0.856702 0.538079 0
0  0.675957 -0.300797 -0.040544  0.341151 -0.940009 0.000000  0.856702 0.537882 0
0  0.675957 -0.300797 0.085012  0.341151 -0.940009 0.000000  0.856798 0.537882 0
lowpoly_plastic.004
0  0.113162 -6.445554 -0.069099  -0.999939 -0.010845 -0.002175  0.891196 0.514256 0
0  0.112308 -6.388610 0.039351  -0.999939 -0.010845 -0.002175  0.891155 0.514234 0
0  0.108506 -5.996219 -0.169275  -0.999939 -0.010845 -0.002175  0.891235 0.514084 0
lowpoly_plastic.004
0  0.340268 -0.236256 -0.169275  -0.865601 0.500735 0.000000  0.082758 0.872434 0
0  0.108505 -0.636896 -0.169275  -0.865601 0.500735 0.000000  0.082761 0.872587 0
0  0.108505 -0.636896 0.039351  -0.865601 0.500735 0.000000  0.082681 0.872587 0
lowpoly_plastic.004
0  0.188725 -5.996219 -0.169275  0.000000 0.691889 -0.722004  0.888604 0.514118 0
0  0.188725 -6.158755 -0.325032  0.000000 0.691889 -0.722004  0.888604 0.514180 0
0  0.108506 -6.158755 -0.325032  0.000000 0.691889 -0.722004  0.888573 0.514180 0
lowpoly_metal.004
0  0.364838 -0.945535 0.085012  0.000000 0.000000 1.000000  0.891734 0.538105 0
0  0.284259 -0.842123 0.085012  0.000000 0.000000 1.000000  0.891672 0.538183 0
0  0.208497 -0.842123 0.085012  0.000000 0.000000 1.000000  0.891614 0.538182 0
lowpoly_metal.004
0  0.942450 -0.265615 -0.040544  1.000000 0.000001 0.000000  0.852784 0.537912 0
0  0.942449 -0.003899 -0.040544  1.000000 0.000001 0.000000  0.852784 0.538111 0
0  0.942449 -0.003899 0.085012  1.000000 0.000001 0.000000  0.852688 0.538111 0
lowpoly_metal.004
0  0.208497 -0.842123 -0.040544  -0.873221 -0.487324 0.000000  0.006380 0.765050 0
0  0.266209 -0.945535 -0.040544  -0.873221 -0.487324 0.000000  0.006351 0.765050 0
0  0.266209 -0.945535 0.085012  -0.873221 -0.487324 0.000000  0.006351 0.765014 0
lowpoly_metal.004
0  0.266209 -0.945535 -0.040544  0.000000 -1.000000 0.000000  0.857264 0.536873 0
0  0.364838 -0.945535 -0.040544  0.000000 -1.000000 0.000000  0.857189 0.536873 0
0  0.364838 -0.945535 0.085012  0.000000 -1.000000 0.000000  0.857189 0.536777 0
lowpoly_metal.004
0  0.675957 -0.300797 -0.040544  -0.483606 -0.875286 0.000000  0.856702 0.537882 0
0  0.808807 -0.374199 -0.040544  -0.483606 -0.875286 0.000000  0.856701 0.537784 0
0  0.808807 -0.374199 0.085012  -0.483606 -0.875286 0.000000  0.856797 0.537784 0
lowpoly_metal.004
0  0.284259 -0.842123 -0.040544  0.000000 1.000000 0.000000  0.006630 0.765064 0
0  0.208497 -0.842123 -0.040544  0.000000 1.000000 0.000000  0.006609 0.765064 0
0  0.208497 -0.842123 0.085012  0.000000 1.000000 0.000000  0.006609 0.765028 0
lowpoly_metal.004
0  0.216457 -0.615257 -0.040544  -0.660850 -0.750518 0.000000  0.007526 0.764587 0
0  0.284259 -0.674958 -0.040544  -0.660850 -0.750518 0.000000  0.007508 0.764587 0
0  0.284259 -0.674958 0.085012  -0.660850 -0.750518 0.000000  0.007508 0.764551 0
lowpoly_plastic.004
0  -0.341934 -0.236257 0.039351  0.000000 0.000000 -1.000000  0.081032 0.872434 0
0  -0.341934 0.097217 0.039351  0.000000 0.000000 -1.000000  0.081032 0.872306 0
0  0.340268 0.097217 0.039351  0.000000 0.000000 -1.000000  0.081294 0.872306 0
lowpoly_plastic.004
0  0.449080 -0.236973 -0.169275  0.000744 0.000242 -1.000000  0.894956 0.510775 0
0  0.340268 0.097217 -0.169275  0.000744 0.000242 -1.000000  0.894914 0.510647 0
0  0.830245 0.184687 -0.168889  0.000744 0.000242 -1.000000  0.895103 0.510613 0
lowpoly_plastic.004
0  -0.190389 -0.636896 0.151888  0.000000 -1.000000 0.000000  0.078780 0.875115 0
0  -0.276022 -0.636896 0.151888  0.000000 -1.000000 0.000000  0.078812 0.875115 0
0  -0.276022 -0.636896 -0.169275  0.000000 -1.000000 0.000000  0.078812 0.875239 0
lowpoly_plastic.004
0  -0.341934 -0.236257 -0.169275  0.865600 0.500736 0.000000  0.082598 0.872434 0
0  -0.341934 -0.236257 0.039351  0.865600 0.500736 0.000000  0.082678 0.872434 0
0  -0.110171 -0.636896 0.039351  0.865600 0.500736 0.000000  0.082676 0.872591 0
lowpoly_plastic.004
0  -0.801701 0.145007 0.276762  -0.000000 0.000000 1.000000  0.926092 0.514352 0
0  -0.893237 -0.012375 0.276762  -0.000000 0.000000 1.000000  0.926032 0.514388 0
0  -0.431953 -0.200887 0.276762  -0.000000 0.000000 1.000000  0.925959 0.514210 0
lowpoly_plastic.004
0  0.188723 -0.636896 0.151888  0.000000 0.000000 1.000000  0.899464 0.513427 0
0  0.312265 -0.435049 0.151888  0.000000 0.000000 1.000000  0.899511 0.513505 0
0  -0.287018 -0.435049 0.151888  0.000000 0.000000 1.000000  0.899281 0.513505 0
lowpoly_plastic.004
0  -0.000831 -6.445554 0.054502  0.000000 -1.000000 -0.000006  0.891595 0.515309 0
0  0.113162 -6.445554 -0.069099  0.000000 -1.000000 -0.000006  0.891551 0.515357 0
0  0.188725 -6.445554 0.108693  0.000000 -1.000000 -0.000006  0.891522 0.515288 0
lowpoly_plastic.004
0  0.108505 -0.636896 0.039351  0.000000 0.000000 -1.000000  0.081205 0.872588 0
0  0.112308 -6.388610 0.039351  0.000000 0.000000 -1.000000  0.081206 0.874799 0
0  -0.113971 -6.388610 0.039351  0.000000 0.000000 -1.000000  0.081119 0.874799 0
lowpoly_plastic.004
0  -0.287018 -0.435049 0.151888  0.000000 0.000001 1.000000  0.899281 0.513505 0
0  0.312265 -0.435049 0.151888  0.000000 0.000001 1.000000  0.899511 0.513505 0
0  0.215930 0.005285 0.151888  0.000000 0.000001 1.000000  0.899474 0.513674 0
lowpoly_metal.004
0  0.216858 -0.001705 -0.040544  -1.000000 0.000653 0.000000  0.006160 0.764725 0
0  0.216457 -0.615257 -0.040544  -1.000000 0.000653 0.000000  0.006160 0.764898 0
0  0.216457 -0.615257 0.085012  -1.000000 0.000653 0.000000  0.006125 0.764898 0
lowpoly_metal.004
0  0.942449 -0.003899 -0.040544  0.003023 0.999995 0.000000  0.852535 0.537155 0
0  0.216858 -0.001705 -0.040544  0.003023 0.999995 0.000000  0.852535 0.537707 0
0  0.216858 -0.001705 0.085012  0.003023 0.999995 0.000000  0.852440 0.537707 0
lowpoly_plastic.004
0  0.188723 -0.915782 0.151888  0.000000 0.000000 1.000000  0.899464 0.513320 0
0  0.188723 -0.636896 0.151888  0.000000 0.000000 1.000000  0.899464 0.513427 0
0  -0.190389 -0.636896 0.151888  0.000000 0.000000 1.000000  0.899318 0.513427 0
lowpoly_plastic.004
0  0.449080 -0.236973 -0.169275  0.000003 -1.000000 0.000000  0.897496 0.514745 0
0  0.828722 -0.236972 -0.169275  0.000003 -1.000000 0.000000  0.897496 0.514891 0
0  0.828722 -0.236972 -0.034640  0.000003 -1.000000 0.000000  0.897444 0.514891 0
lowpoly_plastic.004
0  -0.276022 -0.636896 0.151888  -0.998519 -0.054395 0.000000  0.899387 0.515237 0
0  -0.287018 -0.435049 0.151888  -0.998519 -0.054395 0.000000  0.899387 0.515315 0
0  -0.287018 -0.435049 -0.169275  -0.998519 -0.054395 0.000000  0.899263 0.515315 0
lowpoly_plastic.004
0  0.950145 -0.012351 -0.034640  -0.014401 -0.999896 0.000000  0.004669 0.764459 0
0  0.950145 -0.012351 0.080813  -0.014401 -0.999896 0.000000  0.004652 0.764459 0
0  0.396969 -0.004384 0.080813  -0.014401 -0.999896 0.000000  0.004652 0.764380 0
lowpoly_plastic.004
0  -0.830369 0.187944 0.230575  -0.854266 0.519835 -0.000982  0.003776 0.764754 0
0  -0.831893 0.184686 -0.168889  -0.854266 0.519835 -0.000982  0.003776 0.764811 0
0  -0.951793 -0.012351 -0.169275  -0.854266 0.519835 -0.000982  0.003748 0.764812 0
lowpoly_plastic.004
0  0.188725 -6.158755 -0.471866  -0.000000 0.000000 -1.000000  0.889076 0.515448 0
0  0.188725 -6.445554 -0.471866  -0.000000 0.000000 -1.000000  0.889187 0.515448 0
0  0.112308 -6.388610 -0.471866  -0.000000 0.000000 -1.000000  0.889165 0.515477 0
lowpoly_plastic.004
0  0.449080 -0.236973 0.080813  0.822805 -0.568324 0.000000  0.897706 0.515270 0
0  0.449080 -0.236973 0.151888  0.822805 -0.568324 0.000000  0.897679 0.515270 0
0  0.312265 -0.435049 0.151888  0.822805 -0.568324 0.000000  0.897678 0.515195 0
lowpoly_metal.004
0  0.284259 -0.674958 -0.040544  -1.000000 -0.000001 0.000000  0.005533 0.765000 0
0  0.284259 -0.842123 -0.040544  -1.000000 -0.000001 0.000000  0.005533 0.765047 0
0  0.284259 -0.842123 0.085012  -1.000000 -0.000001 0.000000  0.005498 0.765047 0
lowpoly_plastic.004
0  0.828722 -0.236972 0.080813  0.000000 0.000000 -1.000000  0.004175 0.764713 0
0  0.449080 -0.236973 0.080813  0.000000 0.000000 -1.000000  0.004175 0.764768 0
0  0.396969 -0.004384 0.080813  0.000000 0.000000 -1.000000  0.004142 0.764776 0
lowpoly_plastic.004
0  0.449080 -0.236973 -0.034640  0.822805 -0.568324 0.000000  0.897750 0.515270 0
0  0.312265 -0.435049 -0.034640  0.822805 -0.568324 0.000000  0.897750 0.515196 0
0  0.312265 -0.435049 -0.169275  0.822805 -0.568324 0.000000  0.897802 0.515197 0
lowpoly_plastic.004
0  0.340268 0.097217 -0.169275  0.000000 -1.000000 0.000000  0.079887 0.876212 0
0  0.340268 0.097217 0.039351  0.000000 -1.000000 0.000000  0.079807 0.876212 0
0  -0.341934 0.097217 0.039351  0.000000 -1.000000 0.000000  0.079807 0.875950 0
lowpoly_plastic.004
0  0.340268 0.097217 -0.169275  -1.000000 -0.000001 0.000000  0.082759 0.872306 0
0  0.340268 -0.236256 -0.169275  -1.000000 -0.000001 0.000000  0.082758 0.872434 0
0  0.340268 -0.236256 0.039351  -1.000000 -0.000001 0.000000  0.082678 0.872434 0
lowpoly_plastic.004
0  -0.341934 0.097217 -0.169275  1.000000 0.000001 0.000000  0.082598 0.872306 0
0  -0.341934 0.097217 0.039351  1.000000 0.000001 0.000000  0.082678 0.872306 0
0  -0.341934 -0.236257 0.039351  1.000000 0.000001 0.000000  0.082678 0.872434 0
lowpoly_metal.004
0  0.364838 -0.945535 -0.040544  0.994734 -0.102488 0.000000  0.859423 0.534611 0
0  0.421761 -0.393051 -0.040544  0.994734 -0.102488 0.000000  0.859423 0.535030 0
0  0.421761 -0.393051 0.085012  0.994734 -0.102488 0.000000  0.859328 0.535029 0
lowpoly_plastic.004
0  -0.217596 0.005285 0.151888  0.693214 -0.720732 0.000000  0.078392 0.874716 0
0  -0.217596 0.005285 0.276762  0.693214 -0.720732 0.000000  0.078440 0.874716 0
0  -0.431953 -0.200887 0.276762  0.693214 -0.720732 0.000000  0.078440 0.874803 0
lowpoly_plastic.004
0  -0.110169 -6.158755 -0.325032  0.999959 -0.006231 0.006502  0.891014 0.514148 0
0  -0.110169 -5.996219 -0.169275  0.999959 -0.006231 0.006502  0.891074 0.514086 0
0  -0.113971 -6.388610 0.039351  0.999959 -0.006231 0.006502  0.891155 0.514236 0
lowpoly_plastic.004
0  0.950145 -0.012351 -0.034640  0.854562 0.519348 -0.000976  0.004427 0.764802 0
0  0.830245 0.184687 -0.168889  0.854562 0.519348 -0.000976  0.004398 0.764820 0
0  0.828721 0.187944 0.230575  0.854562 0.519348 -0.000976  0.004398 0.764763 0
lowpoly_plastic.004
0  -0.830369 0.187944 0.230575  -0.593287 0.353001 0.723464  0.926109 0.514364 0
0  -0.951793 -0.012351 0.228730  -0.593287 0.353001 0.723464  0.926032 0.514410 0
0  -0.893237 -0.012375 0.276762  -0.593287 0.353001 0.723464  0.926032 0.514388 0
lowpoly_plastic.004
0  -0.110171 -0.636896 0.039351  -0.000000 0.000000 -1.000000  0.081121 0.872588 0
0  -0.341934 -0.236257 0.039351  -0.000000 0.000000 -1.000000  0.081032 0.872434 0
0  0.340268 -0.236256 0.039351  -0.000000 0.000000 -1.000000  0.081294 0.872434 0
lowpoly_metal.004
0  0.364838 -0.945535 -0.040544  0.000000 0.000000 -1.000000  0.005718 0.764287 0
0  0.266209 -0.945535 -0.040544  0.000000 0.000000 -1.000000  0.005643 0.764288 0
0  0.208497 -0.842123 -0.040544  0.000000 0.000000 -1.000000  0.005598 0.764209 0
end
