version 1
nodes
0 "ValveBiped.Bip01_Spine4" -1
1 "ValveBiped.Bip01_L_Clavicle" 0
2 "ValveBiped.Bip01_L_UpperArm" 1
3 "ValveBiped.Bip01_L_Forearm" 2
4 "ValveBiped.Bip01_L_Hand" 3
5 "ValveBiped.Bip01_L_Finger4" 4
6 "ValveBiped.Bip01_L_Finger41" 5
7 "ValveBiped.Bip01_L_Finger42" 6
8 "ValveBiped.Bip01_L_Finger3" 4
9 "ValveBiped.Bip01_L_Finger31" 8
10 "ValveBiped.Bip01_L_Finger32" 9
11 "ValveBiped.Bip01_L_Finger2" 4
12 "ValveBiped.Bip01_L_Finger21" 11
13 "ValveBiped.Bip01_L_Finger22" 12
14 "ValveBiped.Bip01_L_Finger1" 4
15 "ValveBiped.Bip01_L_Finger11" 14
16 "ValveBiped.Bip01_L_Finger12" 15
17 "ValveBiped.Bip01_L_Finger0" 4
18 "ValveBiped.Bip01_L_Finger01" 17
19 "ValveBiped.Bip01_L_Finger02" 18
20 "ValveBiped.Bip01_L_Ulna" 3
21 "ValveBiped.Bip01_L_Wrist" 3
22 "rig_l_upperarm" 1
23 "rig_l_forearm" 22
24 "rig_d_l_forearm" 23
25 "rig_d_l_upperarm" 22
26 "ValveBiped.Bip01_R_Clavicle" 0
27 "ValveBiped.Bip01_R_UpperArm" 26
28 "ValveBiped.Bip01_R_Forearm" 27
29 "ValveBiped.Bip01_R_Hand" 28
30 "ValveBiped.Bip01_R_Finger4" 29
31 "ValveBiped.Bip01_R_Finger41" 30
32 "ValveBiped.Bip01_R_Finger42" 31
33 "ValveBiped.Bip01_R_Finger3" 29
34 "ValveBiped.Bip01_R_Finger31" 33
35 "ValveBiped.Bip01_R_Finger32" 34
36 "ValveBiped.Bip01_R_Finger2" 29
37 "ValveBiped.Bip01_R_Finger21" 36
38 "ValveBiped.Bip01_R_Finger22" 37
39 "ValveBiped.Bip01_R_Finger1" 29
40 "ValveBiped.Bip01_R_Finger11" 39
41 "ValveBiped.Bip01_R_Finger12" 40
42 "ValveBiped.Bip01_R_Finger0" 29
43 "ValveBiped.Bip01_R_Finger01" 42
44 "ValveBiped.Bip01_R_Finger02" 43
45 "ValveBiped.Bip01_R_Ulna" 28
46 "ValveBiped.Bip01_R_Wrist" 28
47 "rig_r_upperarm" 26
48 "rig_r_forearm" 47
49 "rig_d_r_forearm" 48
50 "rig_d_r_upperarm" 47
51 "rig_r_hand" -1
52 "rig_d_r_hand" 51
53 "rig_d_r_wrist" 52
54 "rig_l_hand" -1
55 "rig_d_l_hand" 54
56 "rig_d_l_wrist" 54
57 "rig_l_pole" -1
58 "rig_r_pole" -1
59 "rig_l_clavicle" -1
60 "rig_d_l_clavicle" 59
61 "rig_r_clavicle" -1
62 "rig_d_r_clavicle" 61
63 "Camera" -1
64 "body" -1
65 "trigger" 64
66 "bullet1" 64
67 "slide" 64
68 "hammer" 64
69 "sliderelease" 64
70 "barrel" 64
71 "slidesg" 64
72 "grip_safety" 64
73 "safety" 64
74 "magrelease" 64
75 "sg_round" -1
76 "mag" -1
77 "bullet2" 76
78 "bullet3" 76
79 "bullet4" 78
80 "bullet5" 78
81 "bullet6" 78
82 "bullet7" 78
83 "bullet8" 78
84 "bullet9" 78
85 "bullet10" 78
86 "springstart" 76
87 "springend" 86
88 "sg_shell" -1
end
skeleton
time 0
0  0.000006 0.000000 0.000000  -1.570800 -1.391899 -1.570792
1  2.033349 1.000767 1.937657  -1.544956 -1.855077 -0.198630
2  6.027519 -0.000325 0.000208  -2.143567 0.785018 -0.668631
3  11.692112 0.000645 -0.000737  -0.000081 -0.000003 -1.062457
4  11.480341 -0.000210 -0.000731  1.977908 0.206141 0.313878
5  3.859507 -0.142824 -1.192079  -0.468169 0.151546 -0.880257
6  1.312591 0.000011 0.000008  -0.000027 0.000044 -0.439740
7  0.729356 0.000054 0.000049  0.000017 0.000021 -0.244317
8  3.942145 0.046328 -0.431542  -0.151817 0.073216 -0.811086
9  1.539110 0.000084 0.000004  -0.000007 0.000021 -0.247842
10  1.196333 0.000143 0.000029  0.000011 0.000018 -0.430770
11  3.883516 -0.047213 0.431351  0.085894 0.021858 -0.587909
12  1.719572 -0.000031 0.000017  0.000015 0.005518 -0.366533
13  1.209181 0.000090 0.000012  0.000004 0.003091 -0.216438
14  3.859681 -0.138419 1.332380  0.354466 -0.042717 -0.531784
15  1.719448 -0.000020 0.000028  0.000028 0.004066 -0.363025
16  1.099676 0.000050 0.000005  0.000003 0.002578 -0.244381
17  0.806014 -0.349039 1.321248  -1.222694 -0.679188 -0.788867
18  1.789818 -0.000006 -0.000018  0.000011 -0.000024 0.228523
19  1.207014 -0.000014 -0.000041  0.000002 -0.000008 0.362856
20  5.740633 0.000389 -0.000700  0.079065 0.000003 0.000063
21  11.481082 0.000133 -0.000803  0.075193 0.073684 0.050288
22  6.027525 -0.000330 0.000200  -2.352391 -0.091111 0.810625
23  0.000001 11.692099 -0.000007  -0.760917 -0.255891 -0.622326
24  0.000004 0.000009 -0.000000  0.868996 -0.000031 1.570739
25  0.000000 -0.000012 -0.000000  0.868960 0.000002 1.570712
26  2.033355 1.000772 -1.937609  1.473120 1.855075 -0.198639
27  6.027509 -0.000259 -0.000229  1.637176 -0.060228 -0.592196
28  11.691992 0.000163 0.000858  -0.000050 -0.000001 -0.007067
29  11.539204 0.000316 0.000816  -1.562466 0.108529 -0.061253
30  3.859438 -0.132760 1.193065  0.466290 -0.158048 -0.878823
31  1.312559 0.000023 0.000001  0.000013 -0.000043 -0.439709
32  0.729345 0.000065 -0.000027  -0.000023 -0.000019 -0.244286
33  3.942046 0.050138 0.431000  0.150091 -0.079181 -0.810189
34  1.539099 0.000006 0.000000  0.000009 -0.000007 -0.247824
35  1.196302 0.000075 -0.000004  -0.000007 -0.000009 -0.430781
36  3.883415 -0.050474 -0.431084  -0.085915 -0.026392 -0.587660
37  1.719564 -0.000085 -0.000004  -0.000006 -0.007962 -0.366486
38  1.209197 0.000034 0.000011  0.000002 -0.004461 -0.216413
39  3.859588 -0.149084 -1.331321  -0.354445 0.038578 -0.531955
40  1.719413 -0.000099 -0.000036  -0.000030 -0.006584 -0.363030
41  1.099674 0.000025 0.000006  0.000004 -0.004188 -0.244347
42  0.805982 -0.359850 -1.318338  1.221444 0.673631 -0.793558
43  1.789779 -0.000010 -0.000040  -0.000028 0.000031 0.228553
44  1.206995 -0.000006 0.000007  -0.000017 0.000020 0.362910
45  5.740573 0.000079 0.000723  0.026990 -0.000014 0.000028
46  11.492787 0.000137 0.000908  0.000504 0.000315 -0.022541
47  6.027515 -0.000273 -0.000228  0.074799 -0.634128 -2.207435
48  -0.000001 11.691977 -0.000007  -0.005397 0.000036 0.004562
49  0.000002 -0.000001 0.000001  2.272571 -0.000036 1.570860
50  -0.000008 -0.000014 0.000004  2.272645 -0.000036 1.570861
51  -22.620094 0.844507 -17.554111  -1.605366 2.379717 -0.041994
52  -0.000000 0.000001 -0.000000  0.008153 -0.000259 0.000009
53  0.000001 -0.000001 0.000000  1.565115 0.043565 -0.106862
54  22.730511 4.822210 -11.506547  1.605712 0.761853 0.042358
55  0.000000 -0.000002 -0.000000  0.000000 -0.000001 -0.000002
56  0.000031 0.000027 0.000001  -1.571901 -0.044449 -0.106509
57  15.265023 8.339654 -8.787539  1.570796 -0.000000 0.000000
58  -15.265000 8.339654 -8.787539  1.570796 -0.000000 0.000000
59  1.941978 -1.346989 1.821586  1.570796 -0.000000 0.000000
60  -0.004311 0.001230 -0.000371  0.006898 -0.005534 -0.284229
61  -1.937603 -1.346625 1.822824  1.570796 -0.000000 0.000000
62  0.000000 0.000000 0.000000  -0.078727 -3.136056 0.284226
63  0.000000 0.000000 0.000000  1.570796 -0.000000 0.000000
64  -3.534368 -10.111034 -2.851932  1.570796 -0.000000 0.000000
65  -0.008022 0.449004 2.449477  0.000000 -0.000000 0.000000
66  -0.008021 1.798499 0.936337  0.000000 -0.000000 0.000000
67  0.000000 2.151127 2.901127  0.000000 -0.000000 0.000000
68  -0.008023 1.347420 0.085285  0.000000 -0.000000 0.000000
69  0.230628 1.332312 3.105305  0.000000 -0.000000 0.000000
70  -0.008024 2.172907 7.984051  0.000000 -0.000000 0.000000
71  -0.008022 1.228065 5.810776  0.000000 -0.000000 0.000000
72  -0.008023 1.115505 -0.313082  0.000000 -0.000000 0.000000
73  -0.008023 1.345870 0.084164  1.570796 -0.000000 -0.000000
74  -0.008023 0.197514 1.902819  0.000000 -0.000000 0.000000
75  -3.542390 -12.021312 -0.689985  1.570796 -0.000000 0.000000
76  -3.534368 -10.839828 -0.901454  1.570796 -0.000000 0.000000
77  -0.008021 -0.653745 0.060182  0.000000 -0.000000 0.000000
78  -0.008021 -1.155510 -0.087180  0.000000 -0.000000 0.000000
79  0.000000 -0.501765 -0.147367  0.000000 -0.000000 0.000000
80  0.000000 -1.003531 -0.294728  0.000000 -0.000000 0.000000
81  0.000000 -1.505297 -0.442090  0.000000 -0.000000 0.000000
82  0.000000 -2.007061 -0.589454  0.000000 -0.000000 0.000000
83  0.000000 -2.508827 -0.736814  0.000000 -0.000000 0.000000
84  0.000000 -2.772560 -0.939010  0.000000 -0.000000 0.000000
85  0.000000 -3.071457 -1.220325  0.000000 -0.000000 0.000000
86  -0.283371 -4.518086 -0.534134  0.346743 -0.000000 -0.000000
87  -0.000000 4.582804 -0.219900  -0.051302 0.000000 0.000000
88  -3.542390 -12.021312 -0.689985  1.570796 -0.000000 0.000000
end
triangles
lowpoly_plastic
0  -2.990248 -10.463230 -0.369396  0.707108 0.000000 0.707105  0.887019 0.513947 1 67 1.000000
0  -2.971097 -12.424937 -0.388546  0.707108 0.000000 0.707105  0.887043 0.511716 1 67 1.000000
0  -2.971098 -10.463230 -0.388546  0.707108 0.000000 0.707105  0.887043 0.513947 1 67 1.000000
lowpoly_plastic
0  -2.990248 -12.405787 -0.369396  0.000000 -0.707075 0.707139  0.887186 0.512994 1 67 1.000000
0  -4.113606 -12.424937 -0.388546  0.000000 -0.707075 0.707139  0.887209 0.511716 1 67 1.000000
0  -2.971097 -12.424937 -0.388546  0.000000 -0.707075 0.707139  0.887209 0.513015 1 67 1.000000
lowpoly_plastic
0  -2.971098 -10.463230 -0.441218  1.000000 0.000000 0.000000  0.887102 0.513947 1 67 1.000000
0  -2.971097 -12.424937 -0.388546  1.000000 0.000000 0.000000  0.887043 0.511716 1 67 1.000000
0  -2.971097 -12.424937 -0.441218  1.000000 0.000000 0.000000  0.887102 0.511716 1 67 1.000000
lowpoly_plastic
0  -2.971097 -12.424937 -0.441218  0.000000 -1.000000 0.000000  0.887269 0.513015 1 67 1.000000
0  -4.113606 -12.424937 -0.388546  0.000000 -1.000000 0.000000  0.887209 0.511716 1 67 1.000000
0  -4.113606 -12.424937 -0.441218  0.000000 -1.000000 0.000000  0.887269 0.511716 1 67 1.000000
lowpoly_plastic
0  -4.113606 -12.424937 -0.441218  -1.000000 0.000000 0.000000  0.887186 0.513947 1 67 1.000000
0  -4.113606 -10.463230 -0.388546  -1.000000 0.000000 0.000000  0.887127 0.511716 1 67 1.000000
0  -4.113606 -10.463230 -0.441218  -1.000000 0.000000 0.000000  0.887186 0.511716 1 67 1.000000
lowpoly_plastic
0  -4.094456 -12.405787 -0.369396  0.000000 0.000000 1.000000  0.859004 0.513925 1 67 1.000000
0  -2.990248 -10.463230 -0.369396  0.000000 0.000000 1.000000  0.857749 0.511716 1 67 1.000000
0  -4.094456 -10.463230 -0.369396  0.000000 0.000000 1.000000  0.859004 0.511716 1 67 1.000000
lowpoly_plastic
0  -4.094456 -12.405787 -0.369396  -0.707104 0.000000 0.707110  0.887102 0.513925 1 67 1.000000
0  -4.113606 -10.463230 -0.388546  -0.707104 0.000000 0.707110  0.887127 0.511716 1 67 1.000000
0  -4.113606 -12.424937 -0.388546  -0.707104 0.000000 0.707110  0.887127 0.513947 1 67 1.000000
lowpoly_plastic
0  -2.971097 -12.424937 -0.441218  0.000000 0.000000 -1.000000  0.856450 0.511716 1 67 1.000000
0  -4.113606 -10.463230 -0.441218  0.000000 0.000000 -1.000000  0.857749 0.513947 1 67 1.000000
0  -2.971098 -10.463230 -0.441218  0.000000 0.000000 -1.000000  0.856450 0.513947 1 67 1.000000
lowpoly_plastic
0  -2.990248 -10.463230 -0.369396  0.000000 1.000000 0.000000  0.887269 0.511738 1 67 1.000000
0  -2.971098 -10.463230 -0.388546  0.000000 1.000000 0.000000  0.887291 0.511716 1 67 1.000000
0  -2.971098 -10.463230 -0.441218  0.000000 1.000000 0.000000  0.887351 0.511716 1 67 1.000000
lowpoly_plastic
0  -3.877598 -10.172661 -0.358859  -0.707105 0.707108 0.000000  0.884181 0.514773 1 67 1.000000
0  -3.933844 -10.228907 -0.441218  -0.707105 0.707108 0.000000  0.884275 0.514837 1 67 1.000000
0  -3.933844 -10.228907 -0.358859  -0.707105 0.707108 0.000000  0.884181 0.514837 1 67 1.000000
lowpoly_plastic
0  -3.877598 -10.463230 -0.441218  -0.707105 -0.707108 0.000000  0.884372 0.514011 1 67 1.000000
0  -3.933844 -10.406984 -0.358859  -0.707105 -0.707108 0.000000  0.884275 0.513947 1 67 1.000000
0  -3.933844 -10.406984 -0.441218  -0.707105 -0.707108 0.000000  0.884368 0.513947 1 67 1.000000
lowpoly_plastic
0  -3.150860 -10.228907 -0.358859  0.707105 0.707108 0.000000  0.884181 0.513947 1 67 1.000000
0  -3.207106 -10.172661 -0.441218  0.707105 0.707108 0.000000  0.884275 0.514011 1 67 1.000000
0  -3.207106 -10.172661 -0.358859  0.707105 0.707108 0.000000  0.884181 0.514011 1 67 1.000000
lowpoly_plastic
0  -3.150860 -10.406984 -0.441218  0.707105 -0.707108 0.000000  0.884368 0.514837 1 67 1.000000
0  -3.207106 -10.463230 -0.358859  0.707105 -0.707108 0.000000  0.884279 0.514773 1 67 1.000000
0  -3.207106 -10.463230 -0.441218  0.707105 -0.707108 0.000000  0.884372 0.514773 1 67 1.000000
lowpoly_plastic
0  -3.150860 -10.228907 -0.441218  1.000000 0.000000 0.000000  0.886630 0.514712 1 67 1.000000
0  -3.150860 -10.406984 -0.358859  1.000000 0.000000 0.000000  0.886537 0.514509 1 67 1.000000
0  -3.150860 -10.406984 -0.441218  1.000000 0.000000 0.000000  0.886630 0.514509 1 67 1.000000
lowpoly_plastic
0  -3.933844 -10.406984 -0.441218  0.000001 0.000000 -1.000000  0.859271 0.513497 1 67 1.000000
0  -3.933844 -10.228907 -0.441218  0.000001 0.000000 -1.000000  0.859068 0.513497 1 67 1.000000
0  -3.877598 -10.172661 -0.441218  0.000001 0.000000 -1.000000  0.859004 0.513433 1 67 1.000000
lowpoly_plastic
0  -3.430604 -10.172661 -0.441218  0.000000 1.000000 0.000000  0.884275 0.514265 1 67 1.000000
0  -3.207106 -10.172661 -0.358859  0.000000 1.000000 0.000000  0.884181 0.514011 1 67 1.000000
0  -3.207106 -10.172661 -0.441218  0.000000 1.000000 0.000000  0.884275 0.514011 1 67 1.000000
lowpoly_plastic
0  -3.933844 -10.406984 -0.441218  -1.000000 0.000000 0.000000  0.887122 0.514709 1 67 1.000000
0  -3.933844 -10.228907 -0.358859  -1.000000 0.000000 0.000000  0.887030 0.514506 1 67 1.000000
0  -3.933844 -10.228907 -0.441218  -1.000000 0.000000 0.000000  0.887122 0.514506 1 67 1.000000
lowpoly_plastic
0  -3.933844 -10.406984 -0.358859  -0.000000 0.000000 1.000000  0.859271 0.511716 1 67 1.000000
0  -3.831730 -10.198057 -0.358859  -0.000000 0.000000 1.000000  0.859033 0.511832 1 67 1.000000
0  -3.933844 -10.228907 -0.358859  -0.000000 0.000000 1.000000  0.859068 0.511716 1 67 1.000000
lowpoly_plastic
0  -3.654101 -10.463230 -0.441218  0.000000 -1.000000 0.000000  0.884372 0.514265 1 67 1.000000
0  -3.877598 -10.463230 -0.358859  0.000000 -1.000000 0.000000  0.884279 0.514011 1 67 1.000000
0  -3.877598 -10.463230 -0.441218  0.000000 -1.000000 0.000000  0.884372 0.514011 1 67 1.000000
lowpoly_plastic
0  -3.252974 -10.198057 -0.358859  -0.000000 0.000000 1.000000  0.859033 0.512491 1 67 1.000000
0  -3.252974 -10.437834 -0.358859  -0.000000 0.000000 1.000000  0.859306 0.512491 1 67 1.000000
0  -3.150860 -10.406984 -0.358859  -0.000000 0.000000 1.000000  0.859271 0.512607 1 67 1.000000
lowpoly_plastic
0  -3.831730 -10.198057 -0.181243  -0.962841 0.000000 0.270069  0.887233 0.514306 1 67 1.000000
0  -3.777804 -10.347430 0.011015  -0.962841 0.000000 0.270069  0.887064 0.514081 1 67 1.000000
0  -3.777804 -10.198057 0.011015  -0.962841 0.000000 0.270069  0.887233 0.514081 1 67 1.000000
lowpoly_plastic
0  -3.207106 -10.463230 -0.441218  0.000000 -1.000000 0.000000  0.884372 0.514773 1 67 1.000000
0  -3.430604 -10.463230 -0.358859  0.000000 -1.000000 0.000000  0.884279 0.514519 1 67 1.000000
0  -3.430604 -10.463230 -0.441218  0.000000 -1.000000 0.000000  0.884372 0.514519 1 67 1.000000
lowpoly_plastic
0  -3.430604 -10.463230 -0.441218  0.000000 -1.000000 0.000000  0.884372 0.514519 1 67 1.000000
0  -3.654101 -10.463230 -0.358859  0.000000 -1.000000 0.000000  0.884279 0.514265 1 67 1.000000
0  -3.654101 -10.463230 -0.441218  0.000000 -1.000000 0.000000  0.884372 0.514265 1 67 1.000000
lowpoly_plastic
0  -3.877598 -10.172661 -0.441218  0.000000 1.000000 0.000000  0.884275 0.514773 1 67 1.000000
0  -3.654101 -10.172661 -0.358859  0.000000 1.000000 0.000000  0.884181 0.514519 1 67 1.000000
0  -3.654101 -10.172661 -0.441218  0.000000 1.000000 0.000000  0.884275 0.514519 1 67 1.000000
lowpoly_plastic
0  -3.654101 -10.172661 -0.441218  0.000000 1.000000 0.000000  0.884275 0.514519 1 67 1.000000
0  -3.430604 -10.172661 -0.358859  0.000000 1.000000 0.000000  0.884181 0.514265 1 67 1.000000
0  -3.430604 -10.172661 -0.441218  0.000000 1.000000 0.000000  0.884275 0.514265 1 67 1.000000
lowpoly_plastic
0  -3.207106 -10.172661 -0.441218  -0.000001 0.000000 -1.000000  0.859004 0.512671 1 67 1.000000
0  -3.150860 -10.228907 -0.441218  -0.000001 0.000000 -1.000000  0.859068 0.512607 1 67 1.000000
0  -3.207106 -10.463230 -0.441218  -0.000001 0.000000 -1.000000  0.859335 0.512671 1 67 1.000000
lowpoly_plastic
0  -3.430604 -10.172661 -0.441218  0.000000 0.000000 -1.000000  0.859004 0.512925 1 67 1.000000
0  -3.654101 -10.463230 -0.441218  0.000000 0.000000 -1.000000  0.859335 0.513179 1 67 1.000000
0  -3.654101 -10.172661 -0.441218  0.000000 0.000000 -1.000000  0.859004 0.513179 1 67 1.000000
lowpoly_plastic
0  -3.664376 -10.198057 0.011015  0.940768 0.000000 0.339050  0.858526 0.511780 1 67 1.000000
0  -3.600870 -10.437834 -0.165197  0.940768 0.000000 0.339050  0.858735 0.511507 1 67 1.000000
0  -3.600870 -10.198057 -0.165197  0.940768 0.000000 0.339050  0.858735 0.511780 1 67 1.000000
lowpoly_plastic
0  -3.420328 -10.347430 0.011015  0.000000 0.000000 1.000000  0.886408 0.514679 1 67 1.000000
0  -3.306901 -10.198057 0.011015  0.000000 0.000000 1.000000  0.886279 0.514509 1 67 1.000000
0  -3.420328 -10.198057 0.011015  0.000000 0.000000 1.000000  0.886408 0.514509 1 67 1.000000
lowpoly_plastic
0  -3.252974 -10.437834 -0.181243  0.962842 0.000000 0.270065  0.886961 0.514306 1 67 1.000000
0  -3.306901 -10.198057 0.011015  0.962842 0.000000 0.270065  0.886688 0.514081 1 67 1.000000
0  -3.306901 -10.347430 0.011015  0.962842 0.000000 0.270065  0.886858 0.514081 1 67 1.000000
lowpoly_plastic
0  -3.483834 -10.437834 -0.165197  0.000000 -0.889740 0.456468  0.859286 0.511414 1 67 1.000000
0  -3.306901 -10.347430 0.011015  0.000000 -0.889740 0.456468  0.859079 0.511615 1 67 1.000000
0  -3.420328 -10.347430 0.011015  0.000000 -0.889740 0.456468  0.859079 0.511486 1 67 1.000000
lowpoly_plastic
0  -3.600870 -10.198057 -0.165197  0.000000 1.000000 -0.000012  0.886059 0.514321 1 67 1.000000
0  -3.777804 -10.198057 0.011015  0.000000 1.000000 -0.000012  0.885859 0.514522 1 67 1.000000
0  -3.664376 -10.198057 0.011015  0.000000 1.000000 -0.000012  0.885859 0.514393 1 67 1.000000
lowpoly_plastic
0  -3.252974 -10.198057 -0.181243  0.000000 1.000000 -0.000011  0.886077 0.513925 1 67 1.000000
0  -3.420328 -10.198057 0.011015  0.000000 1.000000 -0.000011  0.885859 0.514116 1 67 1.000000
0  -3.306901 -10.198057 0.011015  0.000000 1.000000 -0.000011  0.885859 0.513987 1 67 1.000000
lowpoly_plastic
0  -3.831730 -10.437834 -0.181243  0.000000 -0.904949 0.425519  0.859304 0.511019 1 67 1.000000
0  -3.664376 -10.347430 0.011015  0.000000 -0.904949 0.425519  0.859079 0.511209 1 67 1.000000
0  -3.777804 -10.347430 0.011015  0.000000 -0.904949 0.425519  0.859079 0.511080 1 67 1.000000
lowpoly_plastic
0  -3.777804 -10.347430 0.011015  0.000000 0.000000 1.000000  0.886537 0.514679 1 67 1.000000
0  -3.664376 -10.198057 0.011015  0.000000 0.000000 1.000000  0.886408 0.514509 1 67 1.000000
0  -3.777804 -10.198057 0.011015  0.000000 0.000000 1.000000  0.886537 0.514509 1 67 1.000000
lowpoly_plastic
0  -3.654101 -10.437834 -0.358859  0.000000 -1.000000 0.000000  0.859505 0.511221 1 67 1.000000
0  -3.483834 -10.437834 -0.165197  0.000000 -1.000000 0.000000  0.859286 0.511414 1 67 1.000000
0  -3.600870 -10.437834 -0.165197  0.000000 -1.000000 0.000000  0.859286 0.511281 1 67 1.000000
lowpoly_plastic
0  -3.831730 -10.437834 -0.358859  0.000000 -1.000000 0.000000  0.859505 0.511019 1 67 1.000000
0  -3.600870 -10.437834 -0.165197  0.000000 -1.000000 0.000000  0.859286 0.511281 1 67 1.000000
0  -3.831730 -10.437834 -0.181243  0.000000 -1.000000 0.000000  0.859304 0.511019 1 67 1.000000
lowpoly_plastic
0  -3.430604 -10.198057 -0.358859  0.000000 1.000000 0.000000  0.886279 0.514127 1 67 1.000000
0  -3.600870 -10.198057 -0.165197  0.000000 1.000000 0.000000  0.886059 0.514321 1 67 1.000000
0  -3.483834 -10.198057 -0.165197  0.000000 1.000000 0.000000  0.886059 0.514188 1 67 1.000000
lowpoly_plastic
0  -3.252974 -10.198057 -0.358859  0.000000 1.000000 0.000000  0.886279 0.513925 1 67 1.000000
0  -3.483834 -10.198057 -0.165197  0.000000 1.000000 0.000000  0.886059 0.514188 1 67 1.000000
0  -3.252974 -10.198057 -0.181243  0.000000 1.000000 0.000000  0.886077 0.513925 1 67 1.000000
lowpoly_plastic
0  -3.654101 -10.198057 -0.358859  0.000000 1.000000 0.000000  0.886279 0.514381 1 67 1.000000
0  -3.831730 -10.198057 -0.181243  0.000000 1.000000 0.000000  0.886077 0.514583 1 67 1.000000
0  -3.600870 -10.198057 -0.165197  0.000000 1.000000 0.000000  0.886059 0.514321 1 67 1.000000
lowpoly_plastic
0  -3.430604 -10.437834 -0.358859  0.000000 -1.000000 0.000000  0.859505 0.511475 1 67 1.000000
0  -3.252974 -10.437834 -0.181243  0.000000 -1.000000 0.000000  0.859304 0.511677 1 67 1.000000
0  -3.483834 -10.437834 -0.165197  0.000000 -1.000000 0.000000  0.859286 0.511414 1 67 1.000000
lowpoly_plastic
0  -3.252974 -10.437834 -0.358859  1.000000 0.000000 0.000000  0.886961 0.514506 1 67 1.000000
0  -3.252974 -10.198057 -0.181243  1.000000 0.000000 0.000000  0.886688 0.514306 1 67 1.000000
0  -3.252974 -10.437834 -0.181243  1.000000 0.000000 0.000000  0.886961 0.514306 1 67 1.000000
lowpoly_plastic
0  -3.831730 -10.198057 -0.358859  -1.000000 0.000000 0.000000  0.887233 0.514506 1 67 1.000000
0  -3.831730 -10.437834 -0.181243  -1.000000 0.000000 0.000000  0.886961 0.514306 1 67 1.000000
0  -3.831730 -10.198057 -0.181243  -1.000000 0.000000 0.000000  0.887233 0.514306 1 67 1.000000
lowpoly_plastic
0  -3.483834 -10.437834 -0.165197  0.000000 0.000000 1.000000  0.860543 0.511872 1 67 1.000000
0  -3.600870 -10.198057 -0.165197  0.000000 0.000000 1.000000  0.860676 0.511599 1 67 1.000000
0  -3.600870 -10.437834 -0.165197  0.000000 0.000000 1.000000  0.860676 0.511872 1 67 1.000000
lowpoly_plastic
0  -3.654101 -10.172661 -0.358859  0.000000 0.000000 1.000000  0.859004 0.512034 1 67 1.000000
0  -3.831730 -10.198057 -0.358859  0.000000 0.000000 1.000000  0.859033 0.511832 1 67 1.000000
0  -3.654101 -10.198057 -0.358859  0.000000 0.000000 1.000000  0.859033 0.512034 1 67 1.000000
lowpoly_plastic
0  -3.430604 -10.172661 -0.358859  0.000000 0.000000 1.000000  0.859004 0.512289 1 67 1.000000
0  -3.654101 -10.198057 -0.358859  0.000000 0.000000 1.000000  0.859033 0.512034 1 67 1.000000
0  -3.430604 -10.198057 -0.358859  0.000000 0.000000 1.000000  0.859033 0.512289 1 67 1.000000
lowpoly_plastic
0  -3.207106 -10.172661 -0.358859  0.000000 0.000000 1.000000  0.859004 0.512543 1 67 1.000000
0  -3.430604 -10.198057 -0.358859  0.000000 0.000000 1.000000  0.859033 0.512289 1 67 1.000000
0  -3.252974 -10.198057 -0.358859  0.000000 0.000000 1.000000  0.859033 0.512491 1 67 1.000000
lowpoly_plastic
0  -3.207106 -10.463230 -0.358859  0.000000 0.000000 1.000000  0.859335 0.512543 1 67 1.000000
0  -3.430604 -10.437834 -0.358859  0.000000 0.000000 1.000000  0.859306 0.512289 1 67 1.000000
0  -3.430604 -10.463230 -0.358859  0.000000 0.000000 1.000000  0.859335 0.512289 1 67 1.000000
lowpoly_plastic
0  -3.831730 -10.437834 -0.358859  0.000000 0.000000 1.000000  0.859306 0.511832 1 67 1.000000
0  -3.654101 -10.463230 -0.358859  0.000000 0.000000 1.000000  0.859335 0.512034 1 67 1.000000
0  -3.654101 -10.437834 -0.358859  0.000000 0.000000 1.000000  0.859306 0.512034 1 67 1.000000
lowpoly_plastic
0  -3.430604 -10.463230 -0.358859  0.000000 0.000000 1.000000  0.859335 0.512289 1 67 1.000000
0  -3.654101 -10.437834 -0.358859  0.000000 0.000000 1.000000  0.859306 0.512034 1 67 1.000000
0  -3.654101 -10.463230 -0.358859  0.000000 0.000000 1.000000  0.859335 0.512034 1 67 1.000000
lowpoly_plastic
0  -3.483834 -10.198057 -0.165197  -0.940769 0.000000 0.339049  0.860543 0.511599 1 67 1.000000
0  -3.420328 -10.347430 0.011015  -0.940769 0.000000 0.339049  0.860335 0.511769 1 67 1.000000
0  -3.420328 -10.198057 0.011015  -0.940769 0.000000 0.339049  0.860335 0.511599 1 67 1.000000
lowpoly_plastic
0  -3.353206 -16.698288 -0.309865  0.000000 0.000000 -1.000000  0.884730 0.513947 1 67 1.000000
0  -3.747738 -17.013126 -0.309865  0.000000 0.000000 -1.000000  0.885088 0.514414 1 67 1.000000
0  -3.747738 -16.698288 -0.309865  0.000000 0.000000 -1.000000  0.884730 0.514414 1 67 1.000000
lowpoly_plastic
0  -3.435099 -16.754721 -0.248177  0.000000 -0.000000 1.000000  0.884436 0.514321 1 67 1.000000
0  -3.665845 -16.957653 -0.248177  0.000000 -0.000000 1.000000  0.884667 0.514040 1 67 1.000000
0  -3.435099 -16.957653 -0.248177  0.000000 -0.000000 1.000000  0.884667 0.514321 1 67 1.000000
lowpoly_plastic
0  -3.747738 -16.698288 -0.309865  -0.601677 0.000000 0.798739  0.884372 0.513947 1 67 1.000000
0  -3.665845 -16.957653 -0.248177  -0.601677 0.000000 0.798739  0.884667 0.514040 1 67 1.000000
0  -3.665845 -16.754721 -0.248177  -0.601677 0.000000 0.798739  0.884436 0.514040 1 67 1.000000
lowpoly_plastic
0  -3.353206 -16.698288 -0.309865  0.000000 0.737841 0.674975  0.887257 0.513046 1 67 1.000000
0  -3.665845 -16.754721 -0.248177  0.000000 0.737841 0.674975  0.887186 0.513420 1 67 1.000000
0  -3.435099 -16.754721 -0.248177  0.000000 0.737841 0.674975  0.887186 0.513139 1 67 1.000000
lowpoly_plastic
0  -3.353206 -17.013126 -0.309865  0.601672 0.000000 0.798743  0.884730 0.514414 1 67 1.000000
0  -3.435099 -16.754721 -0.248177  0.601672 0.000000 0.798743  0.884436 0.514321 1 67 1.000000
0  -3.435099 -16.957653 -0.248177  0.601672 0.000000 0.798743  0.884667 0.514321 1 67 1.000000
lowpoly_plastic
0  -3.747738 -17.013126 -0.309865  0.000000 -0.743570 0.668658  0.886992 0.513497 1 67 1.000000
0  -3.435099 -16.957653 -0.248177  0.000000 -0.743570 0.668658  0.886918 0.513871 1 67 1.000000
0  -3.665845 -16.957653 -0.248177  0.000000 -0.743570 0.668658  0.886918 0.513590 1 67 1.000000
lowpoly_plastic
0  -3.643383 -16.647083 -0.297895  0.005121 0.000000 -0.999987  0.948151 0.513425 1 67 1.000000
0  -3.441507 -16.581234 -0.296861  0.005121 0.000000 -0.999987  0.947921 0.513500 1 67 1.000000
0  -3.441507 -16.647083 -0.296861  0.005121 0.000000 -0.999987  0.947921 0.513425 1 67 1.000000
lowpoly_plastic
0  -3.499401 -17.029020 0.000814  0.334706 0.000000 0.942323  0.946407 0.514047 1 67 1.000000
0  -3.528348 -17.094872 0.011095  0.334706 0.000000 0.942323  0.946482 0.514015 1 67 1.000000
0  -3.499400 -17.094872 0.000814  0.334706 0.000000 0.942323  0.946482 0.514047 1 67 1.000000
lowpoly_plastic
0  -3.585379 -16.647083 0.000814  -0.334706 0.000000 0.942322  0.948225 0.513383 1 67 1.000000
0  -3.556432 -16.581234 0.011095  -0.334706 0.000000 0.942322  0.948151 0.513416 1 67 1.000000
0  -3.585379 -16.581234 0.000814  -0.334706 0.000000 0.942322  0.948151 0.513383 1 67 1.000000
lowpoly_plastic
0  -3.528348 -16.647083 0.011095  0.000000 0.000000 1.000000  0.948225 0.513447 1 67 1.000000
0  -3.556432 -16.581234 0.011095  0.000000 0.000000 1.000000  0.948151 0.513416 1 67 1.000000
0  -3.556432 -16.647083 0.011095  0.000000 0.000000 1.000000  0.948225 0.513416 1 67 1.000000
lowpoly_plastic
0  -3.528348 -17.094872 0.011095  0.000000 -1.000000 0.000000  0.945932 0.513833 1 67 1.000000
0  -3.556432 -17.094872 0.011095  0.000000 -1.000000 0.000000  0.945963 0.513833 1 67 1.000000
0  -3.596348 -17.094872 -0.068574  0.000000 -1.000000 0.000000  0.946009 0.513923 1 67 1.000000
lowpoly_plastic
0  -3.528348 -16.581234 0.011095  0.000000 1.000000 0.000000  0.945738 0.513833 1 67 1.000000
0  -3.488265 -16.581234 -0.070128  0.000000 1.000000 0.000000  0.945783 0.513925 1 67 1.000000
0  -3.596348 -16.581234 -0.068574  0.000000 1.000000 0.000000  0.945660 0.513923 1 67 1.000000
lowpoly_plastic
0  -3.528348 -17.094872 0.011095  0.000000 0.000000 1.000000  0.946482 0.514015 1 67 1.000000
0  -3.556432 -17.029020 0.011095  0.000000 0.000000 1.000000  0.946407 0.513983 1 67 1.000000
0  -3.556432 -17.094872 0.011095  0.000000 0.000000 1.000000  0.946482 0.513983 1 67 1.000000
lowpoly_plastic
0  -3.585379 -17.094872 0.000814  -0.334706 0.000000 0.942323  0.946482 0.513950 1 67 1.000000
0  -3.556432 -17.029020 0.011095  -0.334706 0.000000 0.942323  0.946407 0.513983 1 67 1.000000
0  -3.585379 -17.029020 0.000814  -0.334706 0.000000 0.942323  0.946407 0.513950 1 67 1.000000
lowpoly_plastic
0  -3.499401 -16.581234 0.000814  0.334706 0.000000 0.942322  0.948151 0.513480 1 67 1.000000
0  -3.528348 -16.647083 0.011095  0.334706 0.000000 0.942322  0.948225 0.513447 1 67 1.000000
0  -3.499401 -16.647083 0.000814  0.334706 0.000000 0.942322  0.948225 0.513480 1 67 1.000000
lowpoly_plastic
0  -3.643383 -17.094872 -0.297895  0.005121 0.000000 -0.999987  0.948151 0.512916 1 67 1.000000
0  -3.441507 -17.029020 -0.296861  0.005121 0.000000 -0.999987  0.947921 0.512991 1 67 1.000000
0  -3.441507 -17.094872 -0.296861  0.005121 0.000000 -0.999987  0.947921 0.512916 1 67 1.000000
lowpoly_plastic
0  -3.643383 -17.029020 -0.297895  0.005121 0.000000 -0.999987  0.948151 0.512991 1 67 1.000000
0  -3.441507 -16.647083 -0.296861  0.005121 0.000000 -0.999987  0.947921 0.513425 1 67 1.000000
0  -3.441507 -17.029020 -0.296861  0.005121 0.000000 -0.999987  0.947921 0.512991 1 67 1.000000
lowpoly_plastic
0  -3.561743 -17.029020 -0.049189  0.000000 1.000000 -0.000022  0.888003 0.515942 1 67 1.000000
0  -3.596348 -17.029020 -0.068574  0.000000 1.000000 -0.000022  0.887980 0.515903 1 67 1.000000
0  -3.589052 -17.029020 -0.044478  0.000000 1.000000 -0.000022  0.888007 0.515911 1 67 1.000000
lowpoly_plastic
0  -3.596348 -16.647083 -0.068574  0.000000 -1.000000 0.000086  0.887980 0.515903 1 67 1.000000
0  -3.561743 -16.647083 -0.049189  0.000000 -1.000000 0.000086  0.887957 0.515942 1 67 1.000000
0  -3.589052 -16.647083 -0.044478  0.000000 -1.000000 0.000086  0.887952 0.515911 1 67 1.000000
lowpoly_plastic
0  -3.488265 -17.029020 -0.070128  0.000000 1.000000 0.000089  0.887980 0.516026 1 67 1.000000
0  -3.522369 -17.029020 -0.049102  0.000000 1.000000 0.000089  0.888003 0.515987 1 67 1.000000
0  -3.495543 -17.029020 -0.046029  0.000000 1.000000 0.000089  0.888007 0.516017 1 67 1.000000
lowpoly_plastic
0  -3.522369 -16.647083 -0.049102  0.000000 -1.000000 0.000000  0.887957 0.515987 1 67 1.000000
0  -3.488265 -16.647083 -0.070128  0.000000 -1.000000 0.000000  0.887980 0.516026 1 67 1.000000
0  -3.495543 -16.647083 -0.046029  0.000000 -1.000000 0.000000  0.887953 0.516017 1 67 1.000000
lowpoly_plastic
0  -3.561743 -17.029020 -0.049189  -0.488724 0.000000 0.872438  0.889909 0.515319 1 67 1.000000
0  -3.596348 -16.647083 -0.068574  -0.488724 0.000000 0.872438  0.889948 0.514884 1 67 1.000000
0  -3.596348 -17.029020 -0.068574  -0.488724 0.000000 0.872438  0.889948 0.515319 1 67 1.000000
lowpoly_plastic
0  -3.488265 -17.029020 -0.070128  0.524803 0.000000 0.851224  0.889825 0.515319 1 67 1.000000
0  -3.522369 -16.647083 -0.049102  0.524803 0.000000 0.851224  0.889864 0.514884 1 67 1.000000
0  -3.522369 -17.029020 -0.049102  0.524803 0.000000 0.851224  0.889864 0.515319 1 67 1.000000
lowpoly_plastic
0  -3.522369 -17.029020 -0.049102  0.000000 1.000000 0.000000  0.888003 0.515987 1 67 1.000000
0  -3.561743 -17.029020 -0.049189  0.000000 1.000000 0.000000  0.888003 0.515942 1 67 1.000000
0  -3.528348 -17.029020 0.011095  0.000000 1.000000 0.000000  0.888072 0.515979 1 67 1.000000
lowpoly_plastic
0  -3.596348 -17.094872 -0.068574  -0.979609 0.000000 0.200915  0.947592 0.513928 1 67 1.000000
0  -3.643383 -17.029020 -0.297895  -0.979609 0.000000 0.200915  0.947858 0.513853 1 67 1.000000
0  -3.643383 -17.094872 -0.297895  -0.979609 0.000000 0.200915  0.947858 0.513928 1 67 1.000000
lowpoly_plastic
0  -3.596348 -17.029020 -0.068574  -0.979606 0.000000 0.200926  0.947592 0.513853 1 67 1.000000
0  -3.643383 -16.647083 -0.297895  -0.979606 0.000000 0.200926  0.947858 0.513419 1 67 1.000000
0  -3.643383 -17.029020 -0.297895  -0.979606 0.000000 0.200926  0.947858 0.513853 1 67 1.000000
lowpoly_plastic
0  -3.589052 -17.029020 -0.044478  -0.957087 0.000000 0.289801  0.947564 0.513853 1 67 1.000000
0  -3.596348 -17.029020 -0.068574  -0.957087 0.000000 0.289801  0.947592 0.513853 1 67 1.000000
0  -3.596348 -17.094872 -0.068574  -0.957087 0.000000 0.289801  0.947592 0.513928 1 67 1.000000
lowpoly_plastic
0  -3.561743 -16.647083 -0.049189  -0.002186 0.000000 0.999998  0.889909 0.514884 1 67 1.000000
0  -3.522369 -17.029020 -0.049102  -0.002186 0.000000 0.999998  0.889864 0.515319 1 67 1.000000
0  -3.522369 -16.647083 -0.049102  -0.002186 0.000000 0.999998  0.889864 0.514884 1 67 1.000000
lowpoly_plastic
0  -3.499401 -16.647083 0.000814  0.000000 -1.000000 -0.000027  0.887900 0.516012 1 67 1.000000
0  -3.528348 -16.647083 0.011095  0.000000 -1.000000 -0.000027  0.887888 0.515979 1 67 1.000000
0  -3.522369 -16.647083 -0.049102  0.000000 -1.000000 -0.000027  0.887957 0.515987 1 67 1.000000
lowpoly_plastic
0  -3.596348 -16.581234 -0.068574  -0.957087 0.000000 0.289801  0.947592 0.513344 1 67 1.000000
0  -3.596348 -16.647083 -0.068574  -0.957087 0.000000 0.289801  0.947592 0.513419 1 67 1.000000
0  -3.589052 -16.647083 -0.044478  -0.957087 0.000000 0.289801  0.947564 0.513419 1 67 1.000000
lowpoly_plastic
0  -3.596348 -16.647083 -0.068574  -0.979606 0.000000 0.200928  0.947592 0.513419 1 67 1.000000
0  -3.643383 -16.581234 -0.297895  -0.979606 0.000000 0.200928  0.947858 0.513344 1 67 1.000000
0  -3.643383 -16.647083 -0.297895  -0.979606 0.000000 0.200928  0.947858 0.513419 1 67 1.000000
lowpoly_plastic
0  -3.441507 -17.094872 -0.296861  0.979391 0.000000 0.201974  0.946665 0.513366 1 67 1.000000
0  -3.488265 -17.029020 -0.070128  0.979391 0.000000 0.201974  0.946403 0.513441 1 67 1.000000
0  -3.488265 -17.094872 -0.070128  0.979391 0.000000 0.201974  0.946403 0.513366 1 67 1.000000
lowpoly_plastic
0  -3.441507 -17.029020 -0.296861  0.979390 -0.000001 0.201977  0.946665 0.513441 1 67 1.000000
0  -3.488265 -16.647083 -0.070128  0.979390 -0.000001 0.201977  0.946403 0.513875 1 67 1.000000
0  -3.488265 -17.029020 -0.070128  0.979390 -0.000001 0.201977  0.946403 0.513441 1 67 1.000000
lowpoly_plastic
0  -3.495543 -17.029020 -0.046029  0.996627 0.000000 0.082071  0.946374 0.513441 1 67 1.000000
0  -3.499401 -17.029020 0.000814  0.996627 0.000000 0.082071  0.946321 0.513441 1 67 1.000000
0  -3.499400 -17.094872 0.000814  0.996627 0.000000 0.082071  0.946321 0.513366 1 67 1.000000
lowpoly_plastic
0  -3.441507 -16.647083 -0.296861  0.979391 0.000000 0.201972  0.946665 0.513875 1 67 1.000000
0  -3.488265 -16.581234 -0.070128  0.979391 0.000000 0.201972  0.946403 0.513950 1 67 1.000000
0  -3.488265 -16.647083 -0.070128  0.979391 0.000000 0.201972  0.946403 0.513875 1 67 1.000000
lowpoly_plastic
0  -3.499401 -16.581234 0.000814  0.986549 -0.052358 0.154851  0.946321 0.513950 1 67 1.000000
0  -3.495543 -16.647083 -0.046029  0.986549 -0.052358 0.154851  0.946374 0.513875 1 67 1.000000
0  -3.488265 -16.581234 -0.070128  0.986549 -0.052358 0.154851  0.946403 0.513950 1 67 1.000000
lowpoly_glow
0  -3.517500 -16.571457 -0.012830  0.000000 1.000000 0.000000  0.440537 0.554318 1 67 1.000000
0  -3.517500 -16.571457 -0.040628  0.000000 1.000000 0.000000  0.440510 0.554334 1 67 1.000000
0  -3.565493 -16.571457 -0.012830  0.000000 1.000000 0.000000  0.440510 0.554271 1 67 1.000000
lowpoly_glow
0  -3.517500 -17.106588 -0.012830  0.000000 -1.000000 0.000089  0.441996 0.554321 1 67 1.000000
0  -3.541496 -17.106588 0.001069  0.000000 -1.000000 0.000089  0.441996 0.554289 1 67 1.000000
0  -3.565493 -17.106588 -0.012830  0.000000 -1.000000 0.000089  0.442024 0.554273 1 67 1.000000
lowpoly_glow
0  -3.517500 -16.571457 -0.012830  1.000000 -0.000000 0.000000  0.442651 0.554429 1 67 1.000000
0  -3.517500 -17.106588 -0.040628  1.000000 -0.000000 0.000000  0.442682 0.553821 1 67 1.000000
0  -3.517500 -16.571457 -0.040628  1.000000 -0.000000 0.000000  0.442682 0.554429 1 67 1.000000
lowpoly_glow
0  -3.541497 -16.571457 0.001069  0.501200 0.000000 0.865332  0.442624 0.553821 1 67 1.000000
0  -3.517500 -17.106588 -0.012830  0.501200 0.000000 0.865332  0.442596 0.554429 1 67 1.000000
0  -3.517500 -16.571457 -0.012830  0.501200 0.000000 0.865332  0.442596 0.553821 1 67 1.000000
lowpoly_glow
0  -3.517500 -16.571457 -0.040628  0.501213 -0.000000 -0.865324  0.441996 0.554273 1 67 1.000000
0  -3.541496 -17.106588 -0.054527  0.501213 -0.000000 -0.865324  0.442024 0.553665 1 67 1.000000
0  -3.541497 -16.571457 -0.054527  0.501213 -0.000000 -0.865324  0.442024 0.554273 1 67 1.000000
lowpoly_glow
0  -3.565493 -16.571457 -0.040628  -1.000000 0.000000 0.000000  0.439528 0.553687 1 67 1.000000
0  -3.565493 -17.106588 -0.012830  -1.000000 0.000000 0.000000  0.439496 0.554295 1 67 1.000000
0  -3.565493 -16.571457 -0.012830  -1.000000 0.000000 0.000000  0.439496 0.553687 1 67 1.000000
lowpoly_glow
0  -3.565493 -16.571457 -0.012830  -0.501205 -0.000001 0.865329  0.442651 0.553821 1 67 1.000000
0  -3.541496 -17.106588 0.001069  -0.501205 -0.000001 0.865329  0.442624 0.554429 1 67 1.000000
0  -3.541497 -16.571457 0.001069  -0.501205 -0.000001 0.865329  0.442624 0.553821 1 67 1.000000
lowpoly_glow
0  -3.541497 -16.571457 -0.054527  -0.501207 -0.000000 -0.865328  0.442024 0.554273 1 67 1.000000
0  -3.565493 -17.106588 -0.040628  -0.501207 -0.000000 -0.865328  0.442051 0.553665 1 67 1.000000
0  -3.565493 -16.571457 -0.040628  -0.501207 -0.000000 -0.865328  0.442051 0.554273 1 67 1.000000
lowpoly_plastic
0  -2.990248 -10.463230 -0.369396  0.707104 0.000000 0.707110  0.887019 0.513947 1 67 1.000000
0  -2.990248 -12.405787 -0.369396  0.707104 0.000000 0.707110  0.887019 0.511738 1 67 1.000000
0  -2.971097 -12.424937 -0.388546  0.707104 0.000000 0.707110  0.887043 0.511716 1 67 1.000000
lowpoly_plastic
0  -2.990248 -12.405787 -0.369396  0.000000 -0.707110 0.707104  0.887186 0.512994 1 67 1.000000
0  -4.094456 -12.405787 -0.369396  0.000000 -0.707110 0.707104  0.887186 0.511738 1 67 1.000000
0  -4.113606 -12.424937 -0.388546  0.000000 -0.707110 0.707104  0.887209 0.511716 1 67 1.000000
lowpoly_plastic
0  -2.971098 -10.463230 -0.441218  1.000000 0.000000 0.000000  0.887102 0.513947 1 67 1.000000
0  -2.971098 -10.463230 -0.388546  1.000000 0.000000 0.000000  0.887043 0.513947 1 67 1.000000
0  -2.971097 -12.424937 -0.388546  1.000000 0.000000 0.000000  0.887043 0.511716 1 67 1.000000
lowpoly_plastic
0  -2.971097 -12.424937 -0.441218  0.000000 -1.000000 0.000000  0.887269 0.513015 1 67 1.000000
0  -2.971097 -12.424937 -0.388546  0.000000 -1.000000 0.000000  0.887209 0.513015 1 67 1.000000
0  -4.113606 -12.424937 -0.388546  0.000000 -1.000000 0.000000  0.887209 0.511716 1 67 1.000000
lowpoly_plastic
0  -4.113606 -12.424937 -0.441218  -1.000000 0.000000 0.000000  0.887186 0.513947 1 67 1.000000
0  -4.113606 -12.424937 -0.388546  -1.000000 0.000000 0.000000  0.887127 0.513947 1 67 1.000000
0  -4.113606 -10.463230 -0.388546  -1.000000 0.000000 0.000000  0.887127 0.511716 1 67 1.000000
lowpoly_plastic
0  -4.094456 -12.405787 -0.369396  0.000000 0.000000 1.000000  0.859004 0.513925 1 67 1.000000
0  -2.990248 -12.405787 -0.369396  0.000000 0.000000 1.000000  0.857749 0.513925 1 67 1.000000
0  -2.990248 -10.463230 -0.369396  0.000000 0.000000 1.000000  0.857749 0.511716 1 67 1.000000
lowpoly_plastic
0  -4.094456 -12.405787 -0.369396  -0.707103 0.000000 0.707110  0.887102 0.513925 1 67 1.000000
0  -4.094456 -10.463230 -0.369396  -0.707103 0.000000 0.707110  0.887102 0.511716 1 67 1.000000
0  -4.113606 -10.463230 -0.388546  -0.707103 0.000000 0.707110  0.887127 0.511716 1 67 1.000000
lowpoly_plastic
0  -2.971097 -12.424937 -0.441218  0.000000 0.000000 -1.000000  0.856450 0.511716 1 67 1.000000
0  -4.113606 -12.424937 -0.441218  0.000000 0.000000 -1.000000  0.857749 0.511716 1 67 1.000000
0  -4.113606 -10.463230 -0.441218  0.000000 0.000000 -1.000000  0.857749 0.513947 1 67 1.000000
lowpoly_plastic
0  -2.971098 -10.463230 -0.441218  0.000000 1.000000 -0.000003  0.887351 0.511716 1 67 1.000000
0  -4.113606 -10.463230 -0.441218  0.000000 1.000000 -0.000003  0.887351 0.513015 1 67 1.000000
0  -4.094456 -10.463230 -0.369396  0.000000 1.000000 -0.000003  0.887269 0.512994 1 67 1.000000
lowpoly_plastic
0  -4.113606 -10.463230 -0.441218  0.000000 1.000000 0.000000  0.887351 0.513015 1 67 1.000000
0  -4.113606 -10.463230 -0.388546  0.000000 1.000000 0.000000  0.887291 0.513015 1 67 1.000000
0  -4.094456 -10.463230 -0.369396  0.000000 1.000000 0.000000  0.887269 0.512994 1 67 1.000000
lowpoly_plastic
0  -4.094456 -10.463230 -0.369396  0.000000 1.000000 -0.000017  0.887269 0.512994 1 67 1.000000
0  -2.990248 -10.463230 -0.369396  0.000000 1.000000 -0.000017  0.887269 0.511738 1 67 1.000000
0  -2.971098 -10.463230 -0.441218  0.000000 1.000000 -0.000017  0.887351 0.511716 1 67 1.000000
lowpoly_plastic
0  -3.877598 -10.172661 -0.358859  -0.707105 0.707108 0.000000  0.884181 0.514773 1 67 1.000000
0  -3.877598 -10.172661 -0.441218  -0.707105 0.707108 0.000000  0.884275 0.514773 1 67 1.000000
0  -3.933844 -10.228907 -0.441218  -0.707105 0.707108 0.000000  0.884275 0.514837 1 67 1.000000
lowpoly_plastic
0  -3.877598 -10.463230 -0.441218  -0.707105 -0.707108 0.000000  0.884372 0.514011 1 67 1.000000
0  -3.877598 -10.463230 -0.358859  -0.707105 -0.707108 0.000000  0.884279 0.514011 1 67 1.000000
0  -3.933844 -10.406984 -0.358859  -0.707105 -0.707108 0.000000  0.884275 0.513947 1 67 1.000000
lowpoly_plastic
0  -3.150860 -10.228907 -0.358859  0.707105 0.707108 0.000000  0.884181 0.513947 1 67 1.000000
0  -3.150860 -10.228907 -0.441218  0.707105 0.707108 0.000000  0.884275 0.513947 1 67 1.000000
0  -3.207106 -10.172661 -0.441218  0.707105 0.707108 0.000000  0.884275 0.514011 1 67 1.000000
lowpoly_plastic
0  -3.150860 -10.406984 -0.441218  0.707105 -0.707108 0.000000  0.884368 0.514837 1 67 1.000000
0  -3.150860 -10.406984 -0.358859  0.707105 -0.707108 0.000000  0.884275 0.514837 1 67 1.000000
0  -3.207106 -10.463230 -0.358859  0.707105 -0.707108 0.000000  0.884279 0.514773 1 67 1.000000
lowpoly_plastic
0  -3.150860 -10.228907 -0.441218  1.000000 0.000000 0.000000  0.886630 0.514712 1 67 1.000000
0  -3.150860 -10.228907 -0.358859  1.000000 0.000000 0.000000  0.886537 0.514712 1 67 1.000000
0  -3.150860 -10.406984 -0.358859  1.000000 0.000000 0.000000  0.886537 0.514509 1 67 1.000000
lowpoly_plastic
0  -3.877598 -10.172661 -0.441218  0.000000 0.000000 -1.000000  0.859004 0.513433 1 67 1.000000
0  -3.654101 -10.172661 -0.441218  0.000000 0.000000 -1.000000  0.859004 0.513179 1 67 1.000000
0  -3.654101 -10.463230 -0.441218  0.000000 0.000000 -1.000000  0.859335 0.513179 1 67 1.000000
lowpoly_plastic
0  -3.654101 -10.463230 -0.441218  0.000000 0.000000 -1.000000  0.859335 0.513179 1 67 1.000000
0  -3.877598 -10.463230 -0.441218  0.000000 0.000000 -1.000000  0.859335 0.513433 1 67 1.000000
0  -3.877598 -10.172661 -0.441218  0.000000 0.000000 -1.000000  0.859004 0.513433 1 67 1.000000
lowpoly_plastic
0  -3.877598 -10.463230 -0.441218  0.000001 0.000000 -1.000000  0.859335 0.513433 1 67 1.000000
0  -3.933844 -10.406984 -0.441218  0.000001 0.000000 -1.000000  0.859271 0.513497 1 67 1.000000
0  -3.877598 -10.172661 -0.441218  0.000001 0.000000 -1.000000  0.859004 0.513433 1 67 1.000000
lowpoly_plastic
0  -3.430604 -10.172661 -0.441218  0.000000 1.000000 0.000000  0.884275 0.514265 1 67 1.000000
0  -3.430604 -10.172661 -0.358859  0.000000 1.000000 0.000000  0.884181 0.514265 1 67 1.000000
0  -3.207106 -10.172661 -0.358859  0.000000 1.000000 0.000000  0.884181 0.514011 1 67 1.000000
lowpoly_plastic
0  -3.933844 -10.406984 -0.441218  -1.000000 0.000000 0.000000  0.887122 0.514709 1 67 1.000000
0  -3.933844 -10.406984 -0.358859  -1.000000 0.000000 0.000000  0.887030 0.514709 1 67 1.000000
0  -3.933844 -10.228907 -0.358859  -1.000000 0.000000 0.000000  0.887030 0.514506 1 67 1.000000
lowpoly_plastic
0  -3.933844 -10.406984 -0.358859  0.000000 0.000000 1.000000  0.859271 0.511716 1 67 1.000000
0  -3.877598 -10.463230 -0.358859  0.000000 0.000000 1.000000  0.859335 0.511780 1 67 1.000000
0  -3.831730 -10.437834 -0.358859  0.000000 0.000000 1.000000  0.859306 0.511832 1 67 1.000000
lowpoly_plastic
0  -3.831730 -10.437834 -0.358859  0.000001 0.000000 1.000000  0.859306 0.511832 1 67 1.000000
0  -3.831730 -10.198057 -0.358859  0.000001 0.000000 1.000000  0.859033 0.511832 1 67 1.000000
0  -3.933844 -10.406984 -0.358859  0.000001 0.000000 1.000000  0.859271 0.511716 1 67 1.000000
lowpoly_plastic
0  -3.831730 -10.198057 -0.358859  0.000000 0.000000 1.000000  0.859033 0.511832 1 67 1.000000
0  -3.877598 -10.172661 -0.358859  0.000000 0.000000 1.000000  0.859004 0.511780 1 67 1.000000
0  -3.933844 -10.228907 -0.358859  0.000000 0.000000 1.000000  0.859068 0.511716 1 67 1.000000
lowpoly_plastic
0  -3.654101 -10.463230 -0.441218  0.000000 -1.000000 0.000000  0.884372 0.514265 1 67 1.000000
0  -3.654101 -10.463230 -0.358859  0.000000 -1.000000 0.000000  0.884279 0.514265 1 67 1.000000
0  -3.877598 -10.463230 -0.358859  0.000000 -1.000000 0.000000  0.884279 0.514011 1 67 1.000000
lowpoly_plastic
0  -3.252974 -10.437834 -0.358859  0.000000 0.000000 1.000000  0.859306 0.512491 1 67 1.000000
0  -3.207106 -10.463230 -0.358859  0.000000 0.000000 1.000000  0.859335 0.512543 1 67 1.000000
0  -3.150860 -10.406984 -0.358859  0.000000 0.000000 1.000000  0.859271 0.512607 1 67 1.000000
lowpoly_plastic
0  -3.150860 -10.406984 -0.358859  0.000000 0.000000 1.000000  0.859271 0.512607 1 67 1.000000
0  -3.150860 -10.228907 -0.358859  0.000000 0.000000 1.000000  0.859068 0.512607 1 67 1.000000
0  -3.252974 -10.198057 -0.358859  0.000000 0.000000 1.000000  0.859033 0.512491 1 67 1.000000
lowpoly_plastic
0  -3.150860 -10.228907 -0.358859  0.000000 0.000000 1.000000  0.859068 0.512607 1 67 1.000000
0  -3.207106 -10.172661 -0.358859  0.000000 0.000000 1.000000  0.859004 0.512543 1 67 1.000000
0  -3.252974 -10.198057 -0.358859  0.000000 0.000000 1.000000  0.859033 0.512491 1 67 1.000000
lowpoly_plastic
0  -3.831730 -10.198057 -0.181243  -0.962842 0.000000 0.270067  0.887233 0.514306 1 67 1.000000
0  -3.831730 -10.437834 -0.181243  -0.962842 0.000000 0.270067  0.886961 0.514306 1 67 1.000000
0  -3.777804 -10.347430 0.011015  -0.962842 0.000000 0.270067  0.887064 0.514081 1 67 1.000000
lowpoly_plastic
0  -3.207106 -10.463230 -0.441218  0.000000 -1.000000 0.000000  0.884372 0.514773 1 67 1.000000
0  -3.207106 -10.463230 -0.358859  0.000000 -1.000000 0.000000  0.884279 0.514773 1 67 1.000000
0  -3.430604 -10.463230 -0.358859  0.000000 -1.000000 0.000000  0.884279 0.514519 1 67 1.000000
lowpoly_plastic
0  -3.430604 -10.463230 -0.441218  0.000000 -1.000000 0.000000  0.884372 0.514519 1 67 1.000000
0  -3.430604 -10.463230 -0.358859  0.000000 -1.000000 0.000000  0.884279 0.514519 1 67 1.000000
0  -3.654101 -10.463230 -0.358859  0.000000 -1.000000 0.000000  0.884279 0.514265 1 67 1.000000
lowpoly_plastic
0  -3.877598 -10.172661 -0.441218  0.000000 1.000000 0.000000  0.884275 0.514773 1 67 1.000000
0  -3.877598 -10.172661 -0.358859  0.000000 1.000000 0.000000  0.884181 0.514773 1 67 1.000000
0  -3.654101 -10.172661 -0.358859  0.000000 1.000000 0.000000  0.884181 0.514519 1 67 1.000000
lowpoly_plastic
0  -3.654101 -10.172661 -0.441218  0.000000 1.000000 0.000000  0.884275 0.514519 1 67 1.000000
0  -3.654101 -10.172661 -0.358859  0.000000 1.000000 0.000000  0.884181 0.514519 1 67 1.000000
0  -3.430604 -10.172661 -0.358859  0.000000 1.000000 0.000000  0.884181 0.514265 1 67 1.000000
lowpoly_plastic
0  -3.150860 -10.228907 -0.441218  -0.000001 0.000000 -1.000000  0.859068 0.512607 1 67 1.000000
0  -3.150860 -10.406984 -0.441218  -0.000001 0.000000 -1.000000  0.859271 0.512607 1 67 1.000000
0  -3.207106 -10.463230 -0.441218  -0.000001 0.000000 -1.000000  0.859335 0.512671 1 67 1.000000
lowpoly_plastic
0  -3.207106 -10.463230 -0.441218  0.000000 0.000000 -1.000000  0.859335 0.512671 1 67 1.000000
0  -3.430604 -10.463230 -0.441218  0.000000 0.000000 -1.000000  0.859335 0.512925 1 67 1.000000
0  -3.430604 -10.172661 -0.441218  0.000000 0.000000 -1.000000  0.859004 0.512925 1 67 1.000000
lowpoly_plastic
0  -3.430604 -10.172661 -0.441218  0.000000 0.000000 -1.000000  0.859004 0.512925 1 67 1.000000
0  -3.207106 -10.172661 -0.441218  0.000000 0.000000 -1.000000  0.859004 0.512671 1 67 1.000000
0  -3.207106 -10.463230 -0.441218  0.000000 0.000000 -1.000000  0.859335 0.512671 1 67 1.000000
lowpoly_plastic
0  -3.430604 -10.172661 -0.441218  0.000000 0.000000 -1.000000  0.859004 0.512925 1 67 1.000000
0  -3.430604 -10.463230 -0.441218  0.000000 0.000000 -1.000000  0.859335 0.512925 1 67 1.000000
0  -3.654101 -10.463230 -0.441218  0.000000 0.000000 -1.000000  0.859335 0.513179 1 67 1.000000
lowpoly_plastic
0  -3.664376 -10.198057 0.011015  0.940769 0.000000 0.339049  0.858526 0.511780 1 67 1.000000
0  -3.664376 -10.347430 0.011015  0.940769 0.000000 0.339049  0.858526 0.511610 1 67 1.000000
0  -3.600870 -10.437834 -0.165197  0.940769 0.000000 0.339049  0.858735 0.511507 1 67 1.000000
lowpoly_plastic
0  -3.420328 -10.347430 0.011015  0.000000 0.000000 1.000000  0.886408 0.514679 1 67 1.000000
0  -3.306901 -10.347430 0.011015  0.000000 0.000000 1.000000  0.886279 0.514679 1 67 1.000000
0  -3.306901 -10.198057 0.011015  0.000000 0.000000 1.000000  0.886279 0.514509 1 67 1.000000
lowpoly_plastic
0  -3.252974 -10.437834 -0.181243  0.962841 0.000000 0.270069  0.886961 0.514306 1 67 1.000000
0  -3.252974 -10.198057 -0.181243  0.962841 0.000000 0.270069  0.886688 0.514306 1 67 1.000000
0  -3.306901 -10.198057 0.011015  0.962841 0.000000 0.270069  0.886688 0.514081 1 67 1.000000
lowpoly_plastic
0  -3.483834 -10.437834 -0.165197  0.030042 -0.901265 0.432225  0.859286 0.511414 1 67 1.000000
0  -3.252974 -10.437834 -0.181243  0.030042 -0.901265 0.432225  0.859304 0.511677 1 67 1.000000
0  -3.306901 -10.347430 0.011015  0.030042 -0.901265 0.432225  0.859079 0.511615 1 67 1.000000
lowpoly_plastic
0  -3.600870 -10.198057 -0.165197  0.000000 1.000000 0.000003  0.886059 0.514321 1 67 1.000000
0  -3.831730 -10.198057 -0.181243  0.000000 1.000000 0.000003  0.886077 0.514583 1 67 1.000000
0  -3.777804 -10.198057 0.011015  0.000000 1.000000 0.000003  0.885859 0.514522 1 67 1.000000
lowpoly_plastic
0  -3.252974 -10.198057 -0.181243  0.000000 1.000000 0.000003  0.886077 0.513925 1 67 1.000000
0  -3.483834 -10.198057 -0.165197  0.000000 1.000000 0.000003  0.886059 0.514188 1 67 1.000000
0  -3.420328 -10.198057 0.011015  0.000000 1.000000 0.000003  0.885859 0.514116 1 67 1.000000
lowpoly_plastic
0  -3.831730 -10.437834 -0.181243  -0.031094 -0.893813 0.447361  0.859304 0.511019 1 67 1.000000
0  -3.600870 -10.437834 -0.165197  -0.031094 -0.893813 0.447361  0.859286 0.511281 1 67 1.000000
0  -3.664376 -10.347430 0.011015  -0.031094 -0.893813 0.447361  0.859079 0.511209 1 67 1.000000
lowpoly_plastic
0  -3.777804 -10.347430 0.011015  0.000000 0.000000 1.000000  0.886537 0.514679 1 67 1.000000
0  -3.664376 -10.347430 0.011015  0.000000 0.000000 1.000000  0.886408 0.514679 1 67 1.000000
0  -3.664376 -10.198057 0.011015  0.000000 0.000000 1.000000  0.886408 0.514509 1 67 1.000000
lowpoly_plastic
0  -3.654101 -10.437834 -0.358859  0.000000 -1.000000 0.000000  0.859505 0.511221 1 67 1.000000
0  -3.430604 -10.437834 -0.358859  0.000000 -1.000000 0.000000  0.859505 0.511475 1 67 1.000000
0  -3.483834 -10.437834 -0.165197  0.000000 -1.000000 0.000000  0.859286 0.511414 1 67 1.000000
lowpoly_plastic
0  -3.831730 -10.437834 -0.358859  0.000000 -1.000000 -0.000007  0.859505 0.511019 1 67 1.000000
0  -3.654101 -10.437834 -0.358859  0.000000 -1.000000 -0.000007  0.859505 0.511221 1 67 1.000000
0  -3.600870 -10.437834 -0.165197  0.000000 -1.000000 -0.000007  0.859286 0.511281 1 67 1.000000
lowpoly_plastic
0  -3.430604 -10.198057 -0.358859  0.000000 1.000000 0.000000  0.886279 0.514127 1 67 1.000000
0  -3.654101 -10.198057 -0.358859  0.000000 1.000000 0.000000  0.886279 0.514381 1 67 1.000000
0  -3.600870 -10.198057 -0.165197  0.000000 1.000000 0.000000  0.886059 0.514321 1 67 1.000000
lowpoly_plastic
0  -3.252974 -10.198057 -0.358859  0.000000 1.000000 -0.000007  0.886279 0.513925 1 67 1.000000
0  -3.430604 -10.198057 -0.358859  0.000000 1.000000 -0.000007  0.886279 0.514127 1 67 1.000000
0  -3.483834 -10.198057 -0.165197  0.000000 1.000000 -0.000007  0.886059 0.514188 1 67 1.000000
lowpoly_plastic
0  -3.654101 -10.198057 -0.358859  0.000000 1.000000 0.000000  0.886279 0.514381 1 67 1.000000
0  -3.831730 -10.198057 -0.358859  0.000000 1.000000 0.000000  0.886279 0.514583 1 67 1.000000
0  -3.831730 -10.198057 -0.181243  0.000000 1.000000 0.000000  0.886077 0.514583 1 67 1.000000
lowpoly_plastic
0  -3.430604 -10.437834 -0.358859  0.000000 -1.000000 0.000000  0.859505 0.511475 1 67 1.000000
0  -3.252974 -10.437834 -0.358859  0.000000 -1.000000 0.000000  0.859505 0.511677 1 67 1.000000
0  -3.252974 -10.437834 -0.181243  0.000000 -1.000000 0.000000  0.859304 0.511677 1 67 1.000000
lowpoly_plastic
0  -3.252974 -10.437834 -0.358859  1.000000 0.000000 0.000000  0.886961 0.514506 1 67 1.000000
0  -3.252974 -10.198057 -0.358859  1.000000 0.000000 0.000000  0.886688 0.514506 1 67 1.000000
0  -3.252974 -10.198057 -0.181243  1.000000 0.000000 0.000000  0.886688 0.514306 1 67 1.000000
lowpoly_plastic
0  -3.831730 -10.198057 -0.358859  -1.000000 0.000000 0.000000  0.887233 0.514506 1 67 1.000000
0  -3.831730 -10.437834 -0.358859  -1.000000 0.000000 0.000000  0.886961 0.514506 1 67 1.000000
0  -3.831730 -10.437834 -0.181243  -1.000000 0.000000 0.000000  0.886961 0.514306 1 67 1.000000
lowpoly_plastic
0  -3.483834 -10.437834 -0.165197  0.000000 0.000000 1.000000  0.860543 0.511872 1 67 1.000000
0  -3.483834 -10.198057 -0.165197  0.000000 0.000000 1.000000  0.860543 0.511599 1 67 1.000000
0  -3.600870 -10.198057 -0.165197  0.000000 0.000000 1.000000  0.860676 0.511599 1 67 1.000000
lowpoly_plastic
0  -3.654101 -10.172661 -0.358859  0.000000 0.000000 1.000000  0.859004 0.512034 1 67 1.000000
0  -3.877598 -10.172661 -0.358859  0.000000 0.000000 1.000000  0.859004 0.511780 1 67 1.000000
0  -3.831730 -10.198057 -0.358859  0.000000 0.000000 1.000000  0.859033 0.511832 1 67 1.000000
lowpoly_plastic
0  -3.430604 -10.172661 -0.358859  0.000000 0.000000 1.000000  0.859004 0.512289 1 67 1.000000
0  -3.654101 -10.172661 -0.358859  0.000000 0.000000 1.000000  0.859004 0.512034 1 67 1.000000
0  -3.654101 -10.198057 -0.358859  0.000000 0.000000 1.000000  0.859033 0.512034 1 67 1.000000
lowpoly_plastic
0  -3.207106 -10.172661 -0.358859  0.000000 0.000000 1.000000  0.859004 0.512543 1 67 1.000000
0  -3.430604 -10.172661 -0.358859  0.000000 0.000000 1.000000  0.859004 0.512289 1 67 1.000000
0  -3.430604 -10.198057 -0.358859  0.000000 0.000000 1.000000  0.859033 0.512289 1 67 1.000000
lowpoly_plastic
0  -3.207106 -10.463230 -0.358859  0.000000 0.000000 1.000000  0.859335 0.512543 1 67 1.000000
0  -3.252974 -10.437834 -0.358859  0.000000 0.000000 1.000000  0.859306 0.512491 1 67 1.000000
0  -3.430604 -10.437834 -0.358859  0.000000 0.000000 1.000000  0.859306 0.512289 1 67 1.000000
lowpoly_plastic
0  -3.831730 -10.437834 -0.358859  0.000000 0.000000 1.000000  0.859306 0.511832 1 67 1.000000
0  -3.877598 -10.463230 -0.358859  0.000000 0.000000 1.000000  0.859335 0.511780 1 67 1.000000
0  -3.654101 -10.463230 -0.358859  0.000000 0.000000 1.000000  0.859335 0.512034 1 67 1.000000
lowpoly_plastic
0  -3.430604 -10.463230 -0.358859  0.000000 0.000000 1.000000  0.859335 0.512289 1 67 1.000000
0  -3.430604 -10.437834 -0.358859  0.000000 0.000000 1.000000  0.859306 0.512289 1 67 1.000000
0  -3.654101 -10.437834 -0.358859  0.000000 0.000000 1.000000  0.859306 0.512034 1 67 1.000000
lowpoly_plastic
0  -3.483834 -10.198057 -0.165197  -0.940768 0.000000 0.339050  0.860543 0.511599 1 67 1.000000
0  -3.483834 -10.437834 -0.165197  -0.940768 0.000000 0.339050  0.860543 0.511872 1 67 1.000000
0  -3.420328 -10.347430 0.011015  -0.940768 0.000000 0.339050  0.860335 0.511769 1 67 1.000000
lowpoly_plastic
0  -3.353206 -16.698288 -0.309865  0.000000 0.000000 -1.000000  0.884730 0.513947 1 67 1.000000
0  -3.353206 -17.013126 -0.309865  0.000000 0.000000 -1.000000  0.885088 0.513947 1 67 1.000000
0  -3.747738 -17.013126 -0.309865  0.000000 0.000000 -1.000000  0.885088 0.514414 1 67 1.000000
lowpoly_plastic
0  -3.435099 -16.754721 -0.248177  0.000000 -0.000000 1.000000  0.884436 0.514321 1 67 1.000000
0  -3.665845 -16.754721 -0.248177  0.000000 -0.000000 1.000000  0.884436 0.514040 1 67 1.000000
0  -3.665845 -16.957653 -0.248177  0.000000 -0.000000 1.000000  0.884667 0.514040 1 67 1.000000
lowpoly_plastic
0  -3.747738 -16.698288 -0.309865  -0.601672 0.000000 0.798743  0.884372 0.513947 1 67 1.000000
0  -3.747738 -17.013126 -0.309865  -0.601672 0.000000 0.798743  0.884730 0.513947 1 67 1.000000
0  -3.665845 -16.957653 -0.248177  -0.601672 0.000000 0.798743  0.884667 0.514040 1 67 1.000000
lowpoly_plastic
0  -3.353206 -16.698288 -0.309865  0.000000 0.737829 0.674987  0.887257 0.513046 1 67 1.000000
0  -3.747738 -16.698288 -0.309865  0.000000 0.737829 0.674987  0.887257 0.513513 1 67 1.000000
0  -3.665845 -16.754721 -0.248177  0.000000 0.737829 0.674987  0.887186 0.513420 1 67 1.000000
lowpoly_plastic
0  -3.353206 -17.013126 -0.309865  0.601676 0.000000 0.798741  0.884730 0.514414 1 67 1.000000
0  -3.353206 -16.698288 -0.309865  0.601676 0.000000 0.798741  0.884372 0.514414 1 67 1.000000
0  -3.435099 -16.754721 -0.248177  0.601676 0.000000 0.798741  0.884436 0.514321 1 67 1.000000
lowpoly_plastic
0  -3.747738 -17.013126 -0.309865  0.000000 -0.743567 0.668661  0.886992 0.513497 1 67 1.000000
0  -3.353206 -17.013126 -0.309865  0.000000 -0.743567 0.668661  0.886992 0.513964 1 67 1.000000
0  -3.435099 -16.957653 -0.248177  0.000000 -0.743567 0.668661  0.886918 0.513871 1 67 1.000000
lowpoly_plastic
0  -3.643383 -16.647083 -0.297895  0.005120 0.000000 -0.999987  0.948151 0.513425 1 67 1.000000
0  -3.643383 -16.581234 -0.297895  0.005120 0.000000 -0.999987  0.948151 0.513500 1 67 1.000000
0  -3.441507 -16.581234 -0.296861  0.005120 0.000000 -0.999987  0.947921 0.513500 1 67 1.000000
lowpoly_plastic
0  -3.499401 -17.029020 0.000814  0.334706 0.000000 0.942323  0.946407 0.514047 1 67 1.000000
0  -3.528348 -17.029020 0.011095  0.334706 0.000000 0.942323  0.946407 0.514015 1 67 1.000000
0  -3.528348 -17.094872 0.011095  0.334706 0.000000 0.942323  0.946482 0.514015 1 67 1.000000
lowpoly_plastic
0  -3.585379 -16.647083 0.000814  -0.334706 0.000000 0.942322  0.948225 0.513383 1 67 1.000000
0  -3.556432 -16.647083 0.011095  -0.334706 0.000000 0.942322  0.948225 0.513416 1 67 1.000000
0  -3.556432 -16.581234 0.011095  -0.334706 0.000000 0.942322  0.948151 0.513416 1 67 1.000000
lowpoly_plastic
0  -3.528348 -16.647083 0.011095  0.000000 0.000000 1.000000  0.948225 0.513447 1 67 1.000000
0  -3.528348 -16.581234 0.011095  0.000000 0.000000 1.000000  0.948151 0.513447 1 67 1.000000
0  -3.556432 -16.581234 0.011095  0.000000 0.000000 1.000000  0.948151 0.513416 1 67 1.000000
lowpoly_plastic
0  -3.596348 -17.094872 -0.068574  0.000000 -1.000000 0.000019  0.946009 0.513923 1 67 1.000000
0  -3.643383 -17.094872 -0.297895  0.000000 -1.000000 0.000019  0.946064 0.514183 1 67 1.000000
0  -3.488265 -17.094872 -0.070128  0.000000 -1.000000 0.000019  0.945886 0.513925 1 67 1.000000
lowpoly_plastic
0  -3.643383 -17.094872 -0.297895  0.000000 -1.000000 -0.000010  0.946064 0.514183 1 67 1.000000
0  -3.441507 -17.094872 -0.296861  0.000000 -1.000000 -0.000010  0.945835 0.514183 1 67 1.000000
0  -3.488265 -17.094872 -0.070128  0.000000 -1.000000 -0.000010  0.945886 0.513925 1 67 1.000000
lowpoly_plastic
0  -3.488265 -17.094872 -0.070128  0.000000 -1.000000 -0.000031  0.945886 0.513925 1 67 1.000000
0  -3.499400 -17.094872 0.000814  0.000000 -1.000000 -0.000031  0.945899 0.513845 1 67 1.000000
0  -3.528348 -17.094872 0.011095  0.000000 -1.000000 -0.000031  0.945932 0.513833 1 67 1.000000
lowpoly_plastic
0  -3.556432 -17.094872 0.011095  0.000000 -1.000000 -0.000016  0.945963 0.513833 1 67 1.000000
0  -3.585379 -17.094872 0.000814  0.000000 -1.000000 -0.000016  0.945996 0.513844 1 67 1.000000
0  -3.596348 -17.094872 -0.068574  0.000000 -1.000000 -0.000016  0.946009 0.513923 1 67 1.000000
lowpoly_plastic
0  -3.488265 -17.094872 -0.070128  0.000000 -1.000000 0.000000  0.945886 0.513925 1 67 1.000000
0  -3.528348 -17.094872 0.011095  0.000000 -1.000000 0.000000  0.945932 0.513833 1 67 1.000000
0  -3.596348 -17.094872 -0.068574  0.000000 -1.000000 0.000000  0.946009 0.513923 1 67 1.000000
lowpoly_plastic
0  -3.441507 -16.581234 -0.296861  0.000000 1.000000 0.000000  0.945835 0.514183 1 67 1.000000
0  -3.643383 -16.581234 -0.297895  0.000000 1.000000 0.000000  0.945605 0.514183 1 67 1.000000
0  -3.488265 -16.581234 -0.070128  0.000000 1.000000 0.000000  0.945783 0.513925 1 67 1.000000
lowpoly_plastic
0  -3.643383 -16.581234 -0.297895  0.000000 1.000000 0.000000  0.945605 0.514183 1 67 1.000000
0  -3.596348 -16.581234 -0.068574  0.000000 1.000000 0.000000  0.945660 0.513923 1 67 1.000000
0  -3.488265 -16.581234 -0.070128  0.000000 1.000000 0.000000  0.945783 0.513925 1 67 1.000000
lowpoly_plastic
0  -3.596348 -16.581234 -0.068574  0.000000 1.000000 0.000063  0.945660 0.513923 1 67 1.000000
0  -3.585379 -16.581234 0.000814  0.000000 1.000000 0.000063  0.945673 0.513844 1 67 1.000000
0  -3.556432 -16.581234 0.011095  0.000000 1.000000 0.000063  0.945706 0.513833 1 67 1.000000
lowpoly_plastic
0  -3.556432 -16.581234 0.011095  0.000000 1.000000 0.000000  0.945706 0.513833 1 67 1.000000
0  -3.528348 -16.581234 0.011095  0.000000 1.000000 0.000000  0.945738 0.513833 1 67 1.000000
0  -3.596348 -16.581234 -0.068574  0.000000 1.000000 0.000000  0.945660 0.513923 1 67 1.000000
lowpoly_plastic
0  -3.528348 -16.581234 0.011095  0.000000 1.000000 -0.000015  0.945738 0.513833 1 67 1.000000
0  -3.499401 -16.581234 0.000814  0.000000 1.000000 -0.000015  0.945770 0.513845 1 67 1.000000
0  -3.488265 -16.581234 -0.070128  0.000000 1.000000 -0.000015  0.945783 0.513925 1 67 1.000000
lowpoly_plastic
0  -3.528348 -17.094872 0.011095  0.000000 0.000000 1.000000  0.946482 0.514015 1 67 1.000000
0  -3.528348 -17.029020 0.011095  0.000000 0.000000 1.000000  0.946407 0.514015 1 67 1.000000
0  -3.556432 -17.029020 0.011095  0.000000 0.000000 1.000000  0.946407 0.513983 1 67 1.000000
lowpoly_plastic
0  -3.585379 -17.094872 0.000814  -0.334715 0.000000 0.942320  0.946482 0.513950 1 67 1.000000
0  -3.556432 -17.094872 0.011095  -0.334715 0.000000 0.942320  0.946482 0.513983 1 67 1.000000
0  -3.556432 -17.029020 0.011095  -0.334715 0.000000 0.942320  0.946407 0.513983 1 67 1.000000
lowpoly_plastic
0  -3.499401 -16.581234 0.000814  0.334706 0.000000 0.942322  0.948151 0.513480 1 67 1.000000
0  -3.528348 -16.581234 0.011095  0.334706 0.000000 0.942322  0.948151 0.513447 1 67 1.000000
0  -3.528348 -16.647083 0.011095  0.334706 0.000000 0.942322  0.948225 0.513447 1 67 1.000000
lowpoly_plastic
0  -3.643383 -17.094872 -0.297895  0.005120 0.000000 -0.999987  0.948151 0.512916 1 67 1.000000
0  -3.643383 -17.029020 -0.297895  0.005120 0.000000 -0.999987  0.948151 0.512991 1 67 1.000000
0  -3.441507 -17.029020 -0.296861  0.005120 0.000000 -0.999987  0.947921 0.512991 1 67 1.000000
lowpoly_plastic
0  -3.643383 -17.029020 -0.297895  0.005121 0.000000 -0.999987  0.948151 0.512991 1 67 1.000000
0  -3.643383 -16.647083 -0.297895  0.005121 0.000000 -0.999987  0.948151 0.513425 1 67 1.000000
0  -3.441507 -16.647083 -0.296861  0.005121 0.000000 -0.999987  0.947921 0.513425 1 67 1.000000
lowpoly_plastic
0  -3.561743 -17.029020 -0.049189  -0.488728 0.000000 0.872436  0.889909 0.515319 1 67 1.000000
0  -3.561743 -16.647083 -0.049189  -0.488728 0.000000 0.872436  0.889909 0.514884 1 67 1.000000
0  -3.596348 -16.647083 -0.068574  -0.488728 0.000000 0.872436  0.889948 0.514884 1 67 1.000000
lowpoly_plastic
0  -3.488265 -17.029020 -0.070128  0.524802 0.000000 0.851224  0.889825 0.515319 1 67 1.000000
0  -3.488265 -16.647083 -0.070128  0.524802 0.000000 0.851224  0.889825 0.514884 1 67 1.000000
0  -3.522369 -16.647083 -0.049102  0.524802 0.000000 0.851224  0.889864 0.514884 1 67 1.000000
lowpoly_plastic
0  -3.589052 -17.029020 -0.044478  0.000000 1.000000 -0.000048  0.888007 0.515911 1 67 1.000000
0  -3.585379 -17.029020 0.000814  0.000000 1.000000 -0.000048  0.888059 0.515914 1 67 1.000000
0  -3.561743 -17.029020 -0.049189  0.000000 1.000000 -0.000048  0.888003 0.515942 1 67 1.000000
lowpoly_plastic
0  -3.585379 -17.029020 0.000814  0.000000 1.000000 0.000026  0.888059 0.515914 1 67 1.000000
0  -3.556432 -17.029020 0.011095  0.000000 1.000000 0.000026  0.888071 0.515947 1 67 1.000000
0  -3.561743 -17.029020 -0.049189  0.000000 1.000000 0.000026  0.888003 0.515942 1 67 1.000000
lowpoly_plastic
0  -3.556432 -17.029020 0.011095  0.000000 1.000000 0.000000  0.888071 0.515947 1 67 1.000000
0  -3.528348 -17.029020 0.011095  0.000000 1.000000 0.000000  0.888072 0.515979 1 67 1.000000
0  -3.561743 -17.029020 -0.049189  0.000000 1.000000 0.000000  0.888003 0.515942 1 67 1.000000
lowpoly_plastic
0  -3.528348 -17.029020 0.011095  0.000000 1.000000 0.000000  0.888072 0.515979 1 67 1.000000
0  -3.499401 -17.029020 0.000814  0.000000 1.000000 0.000000  0.888060 0.516012 1 67 1.000000
0  -3.522369 -17.029020 -0.049102  0.000000 1.000000 0.000000  0.888003 0.515987 1 67 1.000000
lowpoly_plastic
0  -3.499401 -17.029020 0.000814  0.000000 1.000000 0.000000  0.888060 0.516012 1 67 1.000000
0  -3.495543 -17.029020 -0.046029  0.000000 1.000000 0.000000  0.888007 0.516017 1 67 1.000000
0  -3.522369 -17.029020 -0.049102  0.000000 1.000000 0.000000  0.888003 0.515987 1 67 1.000000
lowpoly_plastic
0  -3.596348 -17.094872 -0.068574  -0.979606 0.000000 0.200930  0.947592 0.513928 1 67 1.000000
0  -3.596348 -17.029020 -0.068574  -0.979606 0.000000 0.200930  0.947592 0.513853 1 67 1.000000
0  -3.643383 -17.029020 -0.297895  -0.979606 0.000000 0.200930  0.947858 0.513853 1 67 1.000000
lowpoly_plastic
0  -3.596348 -17.029020 -0.068574  -0.979607 0.000000 0.200924  0.947592 0.513853 1 67 1.000000
0  -3.596348 -16.647083 -0.068574  -0.979607 0.000000 0.200924  0.947592 0.513419 1 67 1.000000
0  -3.643383 -16.647083 -0.297895  -0.979607 0.000000 0.200924  0.947858 0.513419 1 67 1.000000
lowpoly_plastic
0  -3.596348 -17.094872 -0.068574  -0.986386 0.052234 0.155927  0.947592 0.513928 1 67 1.000000
0  -3.585379 -17.094872 0.000814  -0.986386 0.052234 0.155927  0.947512 0.513928 1 67 1.000000
0  -3.589052 -17.029020 -0.044478  -0.986386 0.052234 0.155927  0.947564 0.513853 1 67 1.000000
lowpoly_plastic
0  -3.585379 -17.094872 0.000814  -0.996728 0.000000 0.080823  0.947512 0.513928 1 67 1.000000
0  -3.585379 -17.029020 0.000814  -0.996728 0.000000 0.080823  0.947512 0.513853 1 67 1.000000
0  -3.589052 -17.029020 -0.044478  -0.996728 0.000000 0.080823  0.947564 0.513853 1 67 1.000000
lowpoly_plastic
0  -3.561743 -16.647083 -0.049189  -0.002186 0.000000 0.999998  0.889909 0.514884 1 67 1.000000
0  -3.561743 -17.029020 -0.049189  -0.002186 0.000000 0.999998  0.889909 0.515319 1 67 1.000000
0  -3.522369 -17.029020 -0.049102  -0.002186 0.000000 0.999998  0.889864 0.515319 1 67 1.000000
lowpoly_plastic
0  -3.556432 -16.647083 0.011095  0.000000 -1.000000 0.000000  0.887889 0.515947 1 67 1.000000
0  -3.585379 -16.647083 0.000814  0.000000 -1.000000 0.000000  0.887901 0.515914 1 67 1.000000
0  -3.561743 -16.647083 -0.049189  0.000000 -1.000000 0.000000  0.887957 0.515942 1 67 1.000000
lowpoly_plastic
0  -3.585379 -16.647083 0.000814  0.000000 -1.000000 0.000000  0.887901 0.515914 1 67 1.000000
0  -3.589052 -16.647083 -0.044478  0.000000 -1.000000 0.000000  0.887952 0.515911 1 67 1.000000
0  -3.561743 -16.647083 -0.049189  0.000000 -1.000000 0.000000  0.887957 0.515942 1 67 1.000000
lowpoly_plastic
0  -3.561743 -16.647083 -0.049189  0.000000 -1.000000 -0.000031  0.887957 0.515942 1 67 1.000000
0  -3.522369 -16.647083 -0.049102  0.000000 -1.000000 -0.000031  0.887957 0.515987 1 67 1.000000
0  -3.528348 -16.647083 0.011095  0.000000 -1.000000 -0.000031  0.887888 0.515979 1 67 1.000000
lowpoly_plastic
0  -3.556432 -16.647083 0.011095  0.000000 -1.000000 0.000070  0.887889 0.515947 1 67 1.000000
0  -3.561743 -16.647083 -0.049189  0.000000 -1.000000 0.000070  0.887957 0.515942 1 67 1.000000
0  -3.528348 -16.647083 0.011095  0.000000 -1.000000 0.000070  0.887888 0.515979 1 67 1.000000
lowpoly_plastic
0  -3.522369 -16.647083 -0.049102  0.000000 -1.000000 0.000035  0.887957 0.515987 1 67 1.000000
0  -3.495543 -16.647083 -0.046029  0.000000 -1.000000 0.000035  0.887953 0.516017 1 67 1.000000
0  -3.499401 -16.647083 0.000814  0.000000 -1.000000 0.000035  0.887900 0.516012 1 67 1.000000
lowpoly_plastic
0  -3.589052 -16.647083 -0.044478  -0.996729 0.000000 0.080818  0.947564 0.513419 1 67 1.000000
0  -3.585379 -16.647083 0.000814  -0.996729 0.000000 0.080818  0.947512 0.513419 1 67 1.000000
0  -3.585379 -16.581234 0.000814  -0.996729 0.000000 0.080818  0.947512 0.513344 1 67 1.000000
lowpoly_plastic
0  -3.585379 -16.581234 0.000814  -0.986387 -0.052242 0.155919  0.947512 0.513344 1 67 1.000000
0  -3.596348 -16.581234 -0.068574  -0.986387 -0.052242 0.155919  0.947592 0.513344 1 67 1.000000
0  -3.589052 -16.647083 -0.044478  -0.986387 -0.052242 0.155919  0.947564 0.513419 1 67 1.000000
lowpoly_plastic
0  -3.596348 -16.647083 -0.068574  -0.979608 0.000000 0.200920  0.947592 0.513419 1 67 1.000000
0  -3.596348 -16.581234 -0.068574  -0.979608 0.000000 0.200920  0.947592 0.513344 1 67 1.000000
0  -3.643383 -16.581234 -0.297895  -0.979608 0.000000 0.200920  0.947858 0.513344 1 67 1.000000
lowpoly_plastic
0  -3.441507 -17.094872 -0.296861  0.979391 0.000000 0.201974  0.946665 0.513366 1 67 1.000000
0  -3.441507 -17.029020 -0.296861  0.979391 0.000000 0.201974  0.946665 0.513441 1 67 1.000000
0  -3.488265 -17.029020 -0.070128  0.979391 0.000000 0.201974  0.946403 0.513441 1 67 1.000000
lowpoly_plastic
0  -3.441507 -17.029020 -0.296861  0.979391 0.000000 0.201974  0.946665 0.513441 1 67 1.000000
0  -3.441507 -16.647083 -0.296861  0.979391 0.000000 0.201974  0.946665 0.513875 1 67 1.000000
0  -3.488265 -16.647083 -0.070128  0.979391 0.000000 0.201974  0.946403 0.513875 1 67 1.000000
lowpoly_plastic
0  -3.499400 -17.094872 0.000814  0.986550 0.052363 0.154843  0.946321 0.513366 1 67 1.000000
0  -3.488265 -17.094872 -0.070128  0.986550 0.052363 0.154843  0.946403 0.513366 1 67 1.000000
0  -3.495543 -17.029020 -0.046029  0.986550 0.052363 0.154843  0.946374 0.513441 1 67 1.000000
lowpoly_plastic
0  -3.488265 -17.094872 -0.070128  0.957293 0.000000 0.289118  0.946403 0.513366 1 67 1.000000
0  -3.488265 -17.029020 -0.070128  0.957293 0.000000 0.289118  0.946403 0.513441 1 67 1.000000
0  -3.495543 -17.029020 -0.046029  0.957293 0.000000 0.289118  0.946374 0.513441 1 67 1.000000
lowpoly_plastic
0  -3.441507 -16.647083 -0.296861  0.979390 0.000000 0.201980  0.946665 0.513875 1 67 1.000000
0  -3.441507 -16.581234 -0.296861  0.979390 0.000000 0.201980  0.946665 0.513950 1 67 1.000000
0  -3.488265 -16.581234 -0.070128  0.979390 0.000000 0.201980  0.946403 0.513950 1 67 1.000000
lowpoly_plastic
0  -3.499401 -16.647083 0.000814  0.996627 0.000000 0.082069  0.946321 0.513875 1 67 1.000000
0  -3.495543 -16.647083 -0.046029  0.996627 0.000000 0.082069  0.946374 0.513875 1 67 1.000000
0  -3.499401 -16.581234 0.000814  0.996627 0.000000 0.082069  0.946321 0.513950 1 67 1.000000
lowpoly_plastic
0  -3.495543 -16.647083 -0.046029  0.957296 0.000000 0.289110  0.946374 0.513875 1 67 1.000000
0  -3.488265 -16.647083 -0.070128  0.957296 0.000000 0.289110  0.946403 0.513875 1 67 1.000000
0  -3.488265 -16.581234 -0.070128  0.957296 0.000000 0.289110  0.946403 0.513950 1 67 1.000000
lowpoly_glow
0  -3.541497 -16.571457 -0.054527  0.000000 1.000000 0.000000  0.440483 0.554318 1 67 1.000000
0  -3.565493 -16.571457 -0.040628  0.000000 1.000000 0.000000  0.440483 0.554287 1 67 1.000000
0  -3.517500 -16.571457 -0.040628  0.000000 1.000000 0.000000  0.440510 0.554334 1 67 1.000000
lowpoly_glow
0  -3.565493 -16.571457 -0.040628  0.000000 1.000000 0.000000  0.440483 0.554287 1 67 1.000000
0  -3.565493 -16.571457 -0.012830  0.000000 1.000000 0.000000  0.440510 0.554271 1 67 1.000000
0  -3.517500 -16.571457 -0.040628  0.000000 1.000000 0.000000  0.440510 0.554334 1 67 1.000000
lowpoly_glow
0  -3.565493 -16.571457 -0.012830  0.000000 1.000000 0.000000  0.440510 0.554271 1 67 1.000000
0  -3.541497 -16.571457 0.001069  0.000000 1.000000 0.000000  0.440537 0.554286 1 67 1.000000
0  -3.517500 -16.571457 -0.012830  0.000000 1.000000 0.000000  0.440537 0.554318 1 67 1.000000
lowpoly_glow
0  -3.565493 -17.106588 -0.012830  0.000000 -1.000000 0.000000  0.442024 0.554273 1 67 1.000000
0  -3.565493 -17.106588 -0.040628  0.000000 -1.000000 0.000000  0.442051 0.554289 1 67 1.000000
0  -3.517500 -17.106588 -0.040628  0.000000 -1.000000 0.000000  0.442024 0.554336 1 67 1.000000
lowpoly_glow
0  -3.565493 -17.106588 -0.040628  0.000000 -1.000000 -0.000089  0.442051 0.554289 1 67 1.000000
0  -3.541496 -17.106588 -0.054527  0.000000 -1.000000 -0.000089  0.442051 0.554321 1 67 1.000000
0  -3.517500 -17.106588 -0.040628  0.000000 -1.000000 -0.000089  0.442024 0.554336 1 67 1.000000
lowpoly_glow
0  -3.517500 -17.106588 -0.040628  0.000000 -1.000000 0.000000  0.442024 0.554336 1 67 1.000000
0  -3.517500 -17.106588 -0.012830  0.000000 -1.000000 0.000000  0.441996 0.554321 1 67 1.000000
0  -3.565493 -17.106588 -0.012830  0.000000 -1.000000 0.000000  0.442024 0.554273 1 67 1.000000
lowpoly_glow
0  -3.517500 -16.571457 -0.012830  1.000000 0.000000 0.000000  0.442651 0.554429 1 67 1.000000
0  -3.517500 -17.106588 -0.012830  1.000000 0.000000 0.000000  0.442651 0.553821 1 67 1.000000
0  -3.517500 -17.106588 -0.040628  1.000000 0.000000 0.000000  0.442682 0.553821 1 67 1.000000
lowpoly_glow
0  -3.541497 -16.571457 0.001069  0.501207 0.000000 0.865327  0.442624 0.553821 1 67 1.000000
0  -3.541496 -17.106588 0.001069  0.501207 0.000000 0.865327  0.442624 0.554429 1 67 1.000000
0  -3.517500 -17.106588 -0.012830  0.501207 0.000000 0.865327  0.442596 0.554429 1 67 1.000000
lowpoly_glow
0  -3.517500 -16.571457 -0.040628  0.501218 0.000000 -0.865321  0.441996 0.554273 1 67 1.000000
0  -3.517500 -17.106588 -0.040628  0.501218 0.000000 -0.865321  0.441996 0.553665 1 67 1.000000
0  -3.541496 -17.106588 -0.054527  0.501218 0.000000 -0.865321  0.442024 0.553665 1 67 1.000000
lowpoly_glow
0  -3.565493 -16.571457 -0.040628  -1.000000 0.000000 0.000000  0.439528 0.553687 1 67 1.000000
0  -3.565493 -17.106588 -0.040628  -1.000000 0.000000 0.000000  0.439528 0.554295 1 67 1.000000
0  -3.565493 -17.106588 -0.012830  -1.000000 0.000000 0.000000  0.439496 0.554295 1 67 1.000000
lowpoly_glow
0  -3.565493 -16.571457 -0.012830  -0.501203 0.000000 0.865330  0.442651 0.553821 1 67 1.000000
0  -3.565493 -17.106588 -0.012830  -0.501203 0.000000 0.865330  0.442651 0.554429 1 67 1.000000
0  -3.541496 -17.106588 0.001069  -0.501203 0.000000 0.865330  0.442624 0.554429 1 67 1.000000
lowpoly_glow
0  -3.541497 -16.571457 -0.054527  -0.501203 -0.000001 -0.865330  0.442024 0.554273 1 67 1.000000
0  -3.541496 -17.106588 -0.054527  -0.501203 -0.000001 -0.865330  0.442024 0.553665 1 67 1.000000
0  -3.565493 -17.106588 -0.040628  -0.501203 -0.000001 -0.865330  0.442051 0.553665 1 67 1.000000
end
