version 1
nodes
0 "ValveBiped.Bip01_Spine4" -1
1 "ValveBiped.Bip01_L_Clavicle" 0
2 "ValveBiped.Bip01_L_UpperArm" 1
3 "ValveBiped.Bip01_L_Forearm" 2
4 "ValveBiped.Bip01_L_Hand" 3
5 "ValveBiped.Bip01_L_Finger4" 4
6 "ValveBiped.Bip01_L_Finger41" 5
7 "ValveBiped.Bip01_L_Finger42" 6
8 "ValveBiped.Bip01_L_Finger3" 4
9 "ValveBiped.Bip01_L_Finger31" 8
10 "ValveBiped.Bip01_L_Finger32" 9
11 "ValveBiped.Bip01_L_Finger2" 4
12 "ValveBiped.Bip01_L_Finger21" 11
13 "ValveBiped.Bip01_L_Finger22" 12
14 "ValveBiped.Bip01_L_Finger1" 4
15 "ValveBiped.Bip01_L_Finger11" 14
16 "ValveBiped.Bip01_L_Finger12" 15
17 "ValveBiped.Bip01_L_Finger0" 4
18 "ValveBiped.Bip01_L_Finger01" 17
19 "ValveBiped.Bip01_L_Finger02" 18
20 "ValveBiped.Bip01_L_Ulna" 3
21 "ValveBiped.Bip01_L_Wrist" 3
22 "rig_l_upperarm" 1
23 "rig_l_forearm" 22
24 "rig_d_l_forearm" 23
25 "rig_d_l_upperarm" 22
26 "ValveBiped.Bip01_R_Clavicle" 0
27 "ValveBiped.Bip01_R_UpperArm" 26
28 "ValveBiped.Bip01_R_Forearm" 27
29 "ValveBiped.Bip01_R_Hand" 28
30 "ValveBiped.Bip01_R_Finger4" 29
31 "ValveBiped.Bip01_R_Finger41" 30
32 "ValveBiped.Bip01_R_Finger42" 31
33 "ValveBiped.Bip01_R_Finger3" 29
34 "ValveBiped.Bip01_R_Finger31" 33
35 "ValveBiped.Bip01_R_Finger32" 34
36 "ValveBiped.Bip01_R_Finger2" 29
37 "ValveBiped.Bip01_R_Finger21" 36
38 "ValveBiped.Bip01_R_Finger22" 37
39 "ValveBiped.Bip01_R_Finger1" 29
40 "ValveBiped.Bip01_R_Finger11" 39
41 "ValveBiped.Bip01_R_Finger12" 40
42 "ValveBiped.Bip01_R_Finger0" 29
43 "ValveBiped.Bip01_R_Finger01" 42
44 "ValveBiped.Bip01_R_Finger02" 43
45 "ValveBiped.Bip01_R_Ulna" 28
46 "ValveBiped.Bip01_R_Wrist" 28
47 "rig_r_upperarm" 26
48 "rig_r_forearm" 47
49 "rig_d_r_forearm" 48
50 "rig_d_r_upperarm" 47
51 "rig_r_hand" -1
52 "rig_d_r_hand" 51
53 "rig_d_r_wrist" 52
54 "rig_l_hand" -1
55 "rig_d_l_hand" 54
56 "rig_d_l_wrist" 54
57 "rig_l_pole" -1
58 "rig_r_pole" -1
59 "rig_l_clavicle" -1
60 "rig_d_l_clavicle" 59
61 "rig_r_clavicle" -1
62 "rig_d_r_clavicle" 61
63 "Camera" -1
64 "body" -1
65 "trigger" 64
66 "bullet1" 64
67 "slide" 64
68 "hammer" 64
69 "sliderelease" 64
70 "barrel" 64
71 "slidesg" 64
72 "grip_safety" 64
73 "safety" 64
74 "magrelease" 64
75 "sg_round" -1
76 "mag" -1
77 "bullet2" 76
78 "bullet3" 76
79 "bullet4" 78
80 "bullet5" 78
81 "bullet6" 78
82 "bullet7" 78
83 "bullet8" 78
84 "bullet9" 78
85 "bullet10" 78
86 "springstart" 76
87 "springend" 86
88 "sg_shell" -1
end
skeleton
time 0
0  0.000006 0.000000 0.000000  -1.570800 -1.391899 -1.570792
1  2.033349 1.000767 1.937657  -1.544956 -1.855077 -0.198630
2  6.027519 -0.000325 0.000208  -2.143567 0.785018 -0.668631
3  11.692112 0.000645 -0.000737  -0.000081 -0.000003 -1.062457
4  11.480341 -0.000210 -0.000731  1.977908 0.206141 0.313878
5  3.859507 -0.142824 -1.192079  -0.468169 0.151546 -0.880257
6  1.312591 0.000011 0.000008  -0.000027 0.000044 -0.439740
7  0.729356 0.000054 0.000049  0.000017 0.000021 -0.244317
8  3.942145 0.046328 -0.431542  -0.151817 0.073216 -0.811086
9  1.539110 0.000084 0.000004  -0.000007 0.000021 -0.247842
10  1.196333 0.000143 0.000029  0.000011 0.000018 -0.430770
11  3.883516 -0.047213 0.431351  0.085894 0.021858 -0.587909
12  1.719572 -0.000031 0.000017  0.000015 0.005518 -0.366533
13  1.209181 0.000090 0.000012  0.000004 0.003091 -0.216438
14  3.859681 -0.138419 1.332380  0.354466 -0.042717 -0.531784
15  1.719448 -0.000020 0.000028  0.000028 0.004066 -0.363025
16  1.099676 0.000050 0.000005  0.000003 0.002578 -0.244381
17  0.806014 -0.349039 1.321248  -1.222694 -0.679188 -0.788867
18  1.789818 -0.000006 -0.000018  0.000011 -0.000024 0.228523
19  1.207014 -0.000014 -0.000041  0.000002 -0.000008 0.362856
20  5.740633 0.000389 -0.000700  0.079065 0.000003 0.000063
21  11.481082 0.000133 -0.000803  0.075193 0.073684 0.050288
22  6.027525 -0.000330 0.000200  -2.352391 -0.091111 0.810625
23  0.000001 11.692099 -0.000007  -0.760917 -0.255891 -0.622326
24  0.000004 0.000009 -0.000000  0.868996 -0.000031 1.570739
25  0.000000 -0.000012 -0.000000  0.868960 0.000002 1.570712
26  2.033355 1.000772 -1.937609  1.473120 1.855075 -0.198639
27  6.027509 -0.000259 -0.000229  1.637176 -0.060228 -0.592196
28  11.691992 0.000163 0.000858  -0.000050 -0.000001 -0.007067
29  11.539204 0.000316 0.000816  -1.562466 0.108529 -0.061253
30  3.859438 -0.132760 1.193065  0.466290 -0.158048 -0.878823
31  1.312559 0.000023 0.000001  0.000013 -0.000043 -0.439709
32  0.729345 0.000065 -0.000027  -0.000023 -0.000019 -0.244286
33  3.942046 0.050138 0.431000  0.150091 -0.079181 -0.810189
34  1.539099 0.000006 0.000000  0.000009 -0.000007 -0.247824
35  1.196302 0.000075 -0.000004  -0.000007 -0.000009 -0.430781
36  3.883415 -0.050474 -0.431084  -0.085915 -0.026392 -0.587660
37  1.719564 -0.000085 -0.000004  -0.000006 -0.007962 -0.366486
38  1.209197 0.000034 0.000011  0.000002 -0.004461 -0.216413
39  3.859588 -0.149084 -1.331321  -0.354445 0.038578 -0.531955
40  1.719413 -0.000099 -0.000036  -0.000030 -0.006584 -0.363030
41  1.099674 0.000025 0.000006  0.000004 -0.004188 -0.244347
42  0.805982 -0.359850 -1.318338  1.221444 0.673631 -0.793558
43  1.789779 -0.000010 -0.000040  -0.000028 0.000031 0.228553
44  1.206995 -0.000006 0.000007  -0.000017 0.000020 0.362910
45  5.740573 0.000079 0.000723  0.026990 -0.000014 0.000028
46  11.492787 0.000137 0.000908  0.000504 0.000315 -0.022541
47  6.027515 -0.000273 -0.000228  0.074799 -0.634128 -2.207435
48  -0.000001 11.691977 -0.000007  -0.005397 0.000036 0.004562
49  0.000002 -0.000001 0.000001  2.272571 -0.000036 1.570860
50  -0.000008 -0.000014 0.000004  2.272645 -0.000036 1.570861
51  -22.620094 0.844507 -17.554111  -1.605366 2.379717 -0.041994
52  -0.000000 0.000001 -0.000000  0.008153 -0.000259 0.000009
53  0.000001 -0.000001 0.000000  1.565115 0.043565 -0.106862
54  22.730511 4.822210 -11.506547  1.605712 0.761853 0.042358
55  0.000000 -0.000002 -0.000000  0.000000 -0.000001 -0.000002
56  0.000031 0.000027 0.000001  -1.571901 -0.044449 -0.106509
57  15.265023 8.339654 -8.787539  1.570796 -0.000000 0.000000
58  -15.265000 8.339654 -8.787539  1.570796 -0.000000 0.000000
59  1.941978 -1.346989 1.821586  1.570796 -0.000000 0.000000
60  -0.004311 0.001230 -0.000371  0.006898 -0.005534 -0.284229
61  -1.937603 -1.346625 1.822824  1.570796 -0.000000 0.000000
62  0.000000 0.000000 0.000000  -0.078727 -3.136056 0.284226
63  0.000000 0.000000 0.000000  1.570796 -0.000000 0.000000
64  -3.534368 -10.111034 -2.851932  1.570796 -0.000000 0.000000
65  -0.008022 0.449004 2.449477  0.000000 -0.000000 0.000000
66  -0.008021 1.798499 0.936337  0.000000 -0.000000 0.000000
67  0.000000 2.151127 2.901127  0.000000 -0.000000 0.000000
68  -0.008023 1.347420 0.085285  0.000000 -0.000000 0.000000
69  0.230628 1.332312 3.105305  0.000000 -0.000000 0.000000
70  -0.008024 2.172907 7.984051  0.000000 -0.000000 0.000000
71  -0.008022 1.228065 5.810776  0.000000 -0.000000 0.000000
72  -0.008023 1.115505 -0.313082  0.000000 -0.000000 0.000000
73  -0.008023 1.345870 0.084164  1.570796 -0.000000 -0.000000
74  -0.008023 0.197514 1.902819  0.000000 -0.000000 0.000000
75  -3.542390 -12.021312 -0.689985  1.570796 -0.000000 0.000000
76  -3.534368 -10.839828 -0.901454  1.570796 -0.000000 0.000000
77  -0.008021 -0.653745 0.060182  0.000000 -0.000000 0.000000
78  -0.008021 -1.155510 -0.087180  0.000000 -0.000000 0.000000
79  0.000000 -0.501765 -0.147367  0.000000 -0.000000 0.000000
80  0.000000 -1.003531 -0.294728  0.000000 -0.000000 0.000000
81  0.000000 -1.505297 -0.442090  0.000000 -0.000000 0.000000
82  0.000000 -2.007061 -0.589454  0.000000 -0.000000 0.000000
83  0.000000 -2.508827 -0.736814  0.000000 -0.000000 0.000000
84  0.000000 -2.772560 -0.939010  0.000000 -0.000000 0.000000
85  0.000000 -3.071457 -1.220325  0.000000 -0.000000 0.000000
86  -0.283371 -4.518086 -0.534134  0.346743 -0.000000 -0.000000
87  -0.000000 4.582804 -0.219900  -0.051302 0.000000 0.000000
88  -3.542390 -12.021312 -0.689985  1.570796 -0.000000 0.000000
end
triangles
lowpoly_plastic
0  -3.708724 -10.311203 -0.294962  -0.196307 -0.098198 0.975613  0.007784 0.761011 1 67 1.000000
0  -3.542391 -10.275828 -0.257932  -0.196307 -0.098198 0.975613  0.007626 0.760970 1 67 1.000000
0  -3.697909 -10.262218 -0.287855  -0.196307 -0.098198 0.975613  0.007776 0.760957 1 67 1.000000
lowpoly_plastic
0  -3.385243 -10.262222 -0.285726  0.219976 -0.108101 0.969497  0.007452 0.760954 1 67 1.000000
0  -3.542391 -10.328348 -0.257443  0.219976 -0.108101 0.969497  0.007627 0.761029 1 67 1.000000
0  -3.374959 -10.311202 -0.293520  0.219976 -0.108101 0.969497  0.007438 0.761009 1 67 1.000000
lowpoly_plastic
0  -3.374959 -10.311202 -0.293520  0.001077 -0.914734 -0.404056  0.008206 0.760982 1 67 1.000000
0  -3.795822 -10.281801 -0.361200  0.001077 -0.914734 -0.404056  0.008126 0.761452 1 67 1.000000
0  -3.287950 -10.281794 -0.359863  0.001077 -0.914734 -0.404056  0.008126 0.760885 1 67 1.000000
lowpoly_plastic
0  -3.287930 -10.772198 -0.359837  -0.001469 0.001257 0.999998  0.007321 0.761524 1 67 1.000000
0  -3.795822 -10.281801 -0.361200  -0.001469 0.001257 0.999998  0.007848 0.760981 1 67 1.000000
0  -3.796290 -10.772203 -0.360584  -0.001469 0.001257 0.999998  0.007849 0.761528 1 67 1.000000
lowpoly_plastic
0  -3.374942 -10.742788 -0.293497  0.001122 0.913221 -0.407462  0.007974 0.762598 1 67 1.000000
0  -3.796290 -10.772203 -0.360584  0.001122 0.913221 -0.407462  0.008055 0.763068 1 67 1.000000
0  -3.709138 -10.742788 -0.294418  0.001122 0.913221 -0.407462  0.007975 0.762971 1 67 1.000000
lowpoly_plastic
0  -3.542391 -10.725641 -0.257443  0.001171 0.905164 -0.425062  0.007930 0.762784 1 67 1.000000
0  -3.374942 -10.742788 -0.293497  0.001171 0.905164 -0.425062  0.007974 0.762598 1 67 1.000000
0  -3.709138 -10.742788 -0.294418  0.001171 0.905164 -0.425062  0.007975 0.762971 1 67 1.000000
lowpoly_plastic
0  -3.542391 -10.328348 -0.257443  0.001827 -0.906447 -0.422315  0.008251 0.761169 1 67 1.000000
0  -3.708724 -10.311203 -0.294962  0.001827 -0.906447 -0.422315  0.008206 0.761355 1 67 1.000000
0  -3.374959 -10.311202 -0.293520  0.001827 -0.906447 -0.422315  0.008206 0.760982 1 67 1.000000
lowpoly_plastic
0  -3.542390 -12.424935 -0.257874  -0.312440 -0.010336 0.949881  0.007627 0.763367 1 67 1.000000
0  -3.709138 -10.742788 -0.294418  -0.312440 -0.010336 0.949881  0.007785 0.761493 1 67 1.000000
0  -3.756745 -12.424935 -0.328381  -0.312440 -0.010336 0.949881  0.007802 0.763370 1 67 1.000000
lowpoly_plastic
0  -3.386405 -10.166265 -0.441218  0.135401 0.843609 0.519607  0.008065 0.761922 1 67 1.000000
0  -3.385243 -10.262222 -0.285726  0.135401 0.843609 0.519607  0.007951 0.761921 1 67 1.000000
0  -3.181312 -10.199183 -0.441218  0.135401 0.843609 0.519607  0.008077 0.761743 1 67 1.000000
lowpoly_plastic
0  -3.904856 -10.199450 -0.441218  -0.590878 0.001577 0.806759  0.007929 0.760891 1 67 1.000000
0  -3.796290 -10.772203 -0.360584  -0.590878 0.001577 0.806759  0.007849 0.761528 1 67 1.000000
0  -3.795822 -10.281801 -0.361200  -0.590878 0.001577 0.806759  0.007848 0.760981 1 67 1.000000
lowpoly_plastic
0  -3.374942 -10.742788 -0.293497  0.308085 -0.010523 0.951301  0.007438 0.761490 1 67 1.000000
0  -3.542390 -12.424935 -0.257874  0.308085 -0.010523 0.951301  0.007604 0.763367 1 67 1.000000
0  -3.332037 -12.424935 -0.325998  0.308085 -0.010523 0.951301  0.007381 0.763367 1 67 1.000000
lowpoly_plastic
0  -3.181312 -10.199183 -0.441218  0.606517 0.000066 0.795071  0.007299 0.760916 1 67 1.000000
0  -3.287950 -10.281794 -0.359863  0.606517 0.000066 0.795071  0.007321 0.760977 1 67 1.000000
0  -3.287930 -10.772198 -0.359837  0.606517 0.000066 0.795071  0.007321 0.761524 1 67 1.000000
lowpoly_plastic
0  -3.756745 -12.424935 -0.328381  0.000000 -1.000000 0.000000  0.008050 0.761528 1 67 1.000000
0  -3.905330 -12.424935 -0.441218  0.000000 -1.000000 0.000000  0.007930 0.761693 1 67 1.000000
0  -3.181052 -12.424935 -0.441218  0.000000 -1.000000 0.000000  0.007930 0.760885 1 67 1.000000
lowpoly_plastic
0  -3.696744 -10.324314 -0.441218  0.000000 0.000000 -1.000000  0.008126 0.761453 1 67 1.000000
0  -3.386405 -10.166265 -0.441218  0.000000 0.000000 -1.000000  0.008302 0.761799 1 67 1.000000
0  -3.388037 -10.324314 -0.441218  0.000000 0.000000 -1.000000  0.008126 0.761797 1 67 1.000000
lowpoly_plastic
0  -3.542391 -10.275828 -0.257932  -0.022260 0.866354 0.498934  0.007930 0.762096 1 67 1.000000
0  -3.386405 -10.166265 -0.441218  -0.022260 0.866354 0.498934  0.008065 0.761922 1 67 1.000000
0  -3.697329 -10.174254 -0.441218  -0.022260 0.866354 0.498934  0.008068 0.762269 1 67 1.000000
lowpoly_plastic
0  -3.831730 -10.362005 -0.181243  -0.962842 0.000000 0.270065  0.088317 0.797287 1 67 1.000000
0  -3.777804 -10.511378 0.011015  -0.962842 0.000000 0.270065  0.086212 0.794492 1 67 1.000000
0  -3.777804 -10.362005 0.011015  -0.962842 0.000000 0.270065  0.088317 0.794492 1 67 1.000000
lowpoly_plastic
0  -3.664376 -10.362005 0.011015  0.940769 -0.000001 0.339048  0.050602 0.873728 1 67 1.000000
0  -3.600870 -10.601782 -0.165197  0.940769 -0.000001 0.339048  0.052034 0.871862 1 67 1.000000
0  -3.600870 -10.362005 -0.165197  0.940769 -0.000001 0.339048  0.052034 0.873728 1 67 1.000000
lowpoly_plastic
0  -3.600870 -10.362005 -0.165197  0.000000 1.000000 0.000000  0.076862 0.799394 1 67 1.000000
0  -3.777804 -10.362005 0.011015  0.000000 1.000000 0.000000  0.074388 0.801888 1 67 1.000000
0  -3.664376 -10.362005 0.011015  0.000000 1.000000 0.000000  0.074388 0.800289 1 67 1.000000
lowpoly_plastic
0  -3.831730 -10.601782 -0.181243  0.000000 -0.904949 0.425519  0.082046 0.802648 1 67 1.000000
0  -3.664376 -10.511378 0.011015  0.000000 -0.904949 0.425519  0.084937 0.800290 1 67 1.000000
0  -3.777804 -10.511378 0.011015  0.000000 -0.904949 0.425519  0.084937 0.801888 1 67 1.000000
lowpoly_plastic
0  -3.777804 -10.511378 0.011015  0.000000 0.000000 1.000000  0.076385 0.802648 1 67 1.000000
0  -3.664376 -10.362005 0.011015  0.000000 0.000000 1.000000  0.077983 0.804753 1 67 1.000000
0  -3.777804 -10.362005 0.011015  0.000000 0.000000 1.000000  0.076385 0.804753 1 67 1.000000
lowpoly_plastic
0  -3.831730 -10.601782 -0.358859  0.000000 -1.000000 0.000000  0.079582 0.802648 1 67 1.000000
0  -3.600870 -10.601782 -0.165197  0.000000 -1.000000 0.000000  0.082269 0.799394 1 67 1.000000
0  -3.831730 -10.601782 -0.181243  0.000000 -1.000000 0.000000  0.082046 0.802648 1 67 1.000000
lowpoly_plastic
0  -3.542391 -10.362005 -0.358859  0.000000 1.000000 0.000000  0.079582 0.798570 1 67 1.000000
0  -3.600870 -10.362005 -0.165197  0.000000 1.000000 0.000000  0.076862 0.799394 1 67 1.000000
0  -3.542391 -10.362005 -0.165197  0.000000 1.000000 0.000000  0.076862 0.798570 1 67 1.000000
lowpoly_plastic
0  -3.654101 -10.362005 -0.358859  0.000000 1.000000 0.000000  0.079582 0.800145 1 67 1.000000
0  -3.831730 -10.362005 -0.181243  0.000000 1.000000 0.000000  0.077088 0.802648 1 67 1.000000
0  -3.600870 -10.362005 -0.165197  0.000000 1.000000 0.000000  0.076862 0.799394 1 67 1.000000
lowpoly_plastic
0  -3.831730 -10.362005 -0.358859  -1.000000 0.000000 0.000000  0.088317 0.799760 1 67 1.000000
0  -3.831730 -10.601782 -0.181243  -1.000000 0.000000 0.000000  0.084937 0.797287 1 67 1.000000
0  -3.831730 -10.362005 -0.181243  -1.000000 0.000000 0.000000  0.088317 0.797287 1 67 1.000000
lowpoly_plastic
0  -3.542391 -10.601782 -0.165197  0.000000 -0.000000 1.000000  0.044320 0.872907 1 67 1.000000
0  -3.600870 -10.362005 -0.165197  0.000000 -0.000000 1.000000  0.043864 0.874774 1 67 1.000000
0  -3.600870 -10.601782 -0.165197  0.000000 -0.000000 1.000000  0.043864 0.872907 1 67 1.000000
lowpoly_plastic
0  -3.796290 -10.772206 -0.294418  -1.000000 0.000955 0.000000  0.890969 0.512059 1 67 1.000000
0  -3.795822 -10.281801 -0.361200  -1.000000 0.000955 0.000000  0.890833 0.513073 1 67 1.000000
0  -3.796290 -10.772202 -0.360584  -1.000000 0.000955 0.000000  0.890834 0.512059 1 67 1.000000
lowpoly_plastic
0  -3.542391 -10.772206 -0.360584  0.002430 0.000000 -0.999997  0.889330 0.511534 1 67 1.000000
0  -3.795822 -10.281801 -0.361200  0.002430 0.000000 -0.999997  0.888316 0.512058 1 67 1.000000
0  -3.542391 -10.281797 -0.360584  0.002430 0.000000 -0.999997  0.888316 0.511534 1 67 1.000000
lowpoly_plastic
0  -3.709138 -10.742788 -0.294418  -0.219895 0.001441 0.975522  0.890283 0.511189 1 67 1.000000
0  -3.542391 -10.328348 -0.257443  -0.219895 0.001441 0.975522  0.889426 0.511534 1 67 1.000000
0  -3.708724 -10.311207 -0.294962  -0.219895 0.001441 0.975522  0.889391 0.511190 1 67 1.000000
lowpoly_plastic
0  -3.795822 -10.281801 -0.361200  -0.001014 0.911466 0.411375  0.890833 0.513109 1 67 1.000000
0  -3.542391 -10.328348 -0.257443  -0.001014 0.911466 0.411375  0.890611 0.512584 1 67 1.000000
0  -3.542391 -10.281797 -0.360584  -0.001014 0.911466 0.411375  0.890832 0.512584 1 67 1.000000
lowpoly_plastic
0  -3.796290 -10.772202 -0.360584  0.005512 -0.916425 0.400168  0.888341 0.513110 1 67 1.000000
0  -3.542391 -10.725641 -0.257443  0.005512 -0.916425 0.400168  0.888568 0.512585 1 67 1.000000
0  -3.709138 -10.742788 -0.294418  0.005512 -0.916425 0.400168  0.888487 0.512929 1 67 1.000000
lowpoly_plastic
0  -3.709138 -10.742788 -0.294418  0.000000 0.000000 1.000000  0.890283 0.511189 1 67 1.000000
0  -3.796290 -10.281805 -0.294418  0.000000 0.000000 1.000000  0.889330 0.511009 1 67 1.000000
0  -3.796290 -10.772206 -0.294418  0.000000 0.000000 1.000000  0.890344 0.511009 1 67 1.000000
lowpoly_plastic
0  -3.654101 -10.601782 -0.358859  0.000000 -1.000000 -0.000011  0.079582 0.800145 1 67 1.000000
0  -3.542391 -10.601782 -0.165197  0.000000 -1.000000 -0.000011  0.082269 0.798570 1 67 1.000000
0  -3.600870 -10.601782 -0.165197  0.000000 -1.000000 -0.000011  0.082269 0.799394 1 67 1.000000
lowpoly_plastic
0  -3.796290 -10.772206 -0.294418  0.319817 -0.947479 -0.000059  0.888476 0.513110 1 67 1.000000
0  -3.796290 -10.772202 -0.360584  0.319817 -0.947479 -0.000059  0.888341 0.513110 1 67 1.000000
0  -3.709138 -10.742788 -0.294418  0.319817 -0.947479 -0.000059  0.888487 0.512929 1 67 1.000000
lowpoly_plastic
0  -3.708724 -10.311207 -0.294962  0.318318 0.947981 0.002286  0.890691 0.512928 1 67 1.000000
0  -3.795822 -10.281801 -0.361200  0.318318 0.947981 0.002286  0.890833 0.513109 1 67 1.000000
0  -3.796290 -10.281805 -0.294418  0.318318 0.947981 0.002286  0.890695 0.513109 1 67 1.000000
lowpoly_plastic
0  -3.654101 -10.362005 -0.358859  0.000000 0.000000 -1.000000  0.082434 0.806027 1 67 1.000000
0  -3.831730 -10.601782 -0.358859  0.000000 0.000000 -1.000000  0.084937 0.802648 1 67 1.000000
0  -3.831730 -10.362005 -0.358859  0.000000 0.000000 -1.000000  0.084937 0.806027 1 67 1.000000
lowpoly_plastic
0  -3.253051 -10.362005 -0.181243  0.962841 0.000000 0.270069  0.086493 0.790127 1 67 1.000000
0  -3.306977 -10.511378 0.011015  0.962841 0.000000 0.270069  0.088599 0.787332 1 67 1.000000
0  -3.253051 -10.601782 -0.181243  0.962841 0.000000 0.270069  0.089873 0.790127 1 67 1.000000
lowpoly_plastic
0  -3.420405 -10.362005 0.011015  -0.940769 0.000000 0.339049  0.053900 0.874772 1 67 1.000000
0  -3.483911 -10.601782 -0.165197  -0.940769 0.000000 0.339049  0.052468 0.872905 1 67 1.000000
0  -3.420405 -10.511378 0.011015  -0.940769 0.000000 0.339049  0.053900 0.873609 1 67 1.000000
lowpoly_plastic
0  -3.483911 -10.362005 -0.165197  0.000000 1.000000 0.000003  0.076862 0.797746 1 67 1.000000
0  -3.306977 -10.362005 0.011015  0.000000 1.000000 0.000003  0.074388 0.795253 1 67 1.000000
0  -3.253051 -10.362005 -0.181243  0.000000 1.000000 0.000003  0.077088 0.794492 1 67 1.000000
lowpoly_plastic
0  -3.253051 -10.601782 -0.181243  0.031094 -0.893814 0.447359  0.082046 0.794492 1 67 1.000000
0  -3.420405 -10.511378 0.011015  0.031094 -0.893814 0.447359  0.084937 0.796851 1 67 1.000000
0  -3.483911 -10.601782 -0.165197  0.031094 -0.893814 0.447359  0.082269 0.797746 1 67 1.000000
lowpoly_plastic
0  -3.306977 -10.511378 0.011015  0.000000 0.000000 1.000000  0.079582 0.802648 1 67 1.000000
0  -3.420405 -10.362005 0.011015  0.000000 0.000000 1.000000  0.077983 0.804753 1 67 1.000000
0  -3.420405 -10.511378 0.011015  0.000000 0.000000 1.000000  0.077983 0.802648 1 67 1.000000
lowpoly_plastic
0  -3.253051 -10.601782 -0.358859  0.000000 -1.000000 0.000000  0.079582 0.794493 1 67 1.000000
0  -3.483911 -10.601782 -0.165197  0.000000 -1.000000 0.000000  0.082269 0.797746 1 67 1.000000
0  -3.430680 -10.601782 -0.358859  0.000000 -1.000000 0.000000  0.079582 0.796996 1 67 1.000000
lowpoly_plastic
0  -3.542391 -10.362005 -0.358859  0.000000 1.000000 -0.000006  0.079582 0.798570 1 67 1.000000
0  -3.483911 -10.362005 -0.165197  0.000000 1.000000 -0.000006  0.076862 0.797746 1 67 1.000000
0  -3.430680 -10.362005 -0.358859  0.000000 1.000000 -0.000006  0.079582 0.796996 1 67 1.000000
lowpoly_plastic
0  -3.430680 -10.362005 -0.358859  0.000000 1.000000 0.000000  0.079582 0.796996 1 67 1.000000
0  -3.253051 -10.362005 -0.181243  0.000000 1.000000 0.000000  0.077088 0.794492 1 67 1.000000
0  -3.253051 -10.362005 -0.358859  0.000000 1.000000 0.000000  0.079582 0.794492 1 67 1.000000
lowpoly_plastic
0  -3.253051 -10.362005 -0.358859  1.000000 0.000000 0.000000  0.086493 0.792599 1 67 1.000000
0  -3.253051 -10.601782 -0.181243  1.000000 0.000000 0.000000  0.089873 0.790127 1 67 1.000000
0  -3.253051 -10.601782 -0.358859  1.000000 0.000000 0.000000  0.089873 0.792599 1 67 1.000000
lowpoly_plastic
0  -3.542391 -10.601782 -0.165197  0.000000 -0.000000 1.000000  0.044320 0.872907 1 67 1.000000
0  -3.483911 -10.362005 -0.165197  0.000000 -0.000000 1.000000  0.044775 0.874774 1 67 1.000000
0  -3.542391 -10.362005 -0.165197  0.000000 -0.000000 1.000000  0.044320 0.874774 1 67 1.000000
lowpoly_plastic
0  -3.288491 -10.772206 -0.294418  1.000000 0.000000 0.000552  0.890840 0.511009 1 67 1.000000
0  -3.288454 -10.281797 -0.360531  1.000000 0.000000 0.000552  0.890975 0.512023 1 67 1.000000
0  -3.288491 -10.281805 -0.294418  1.000000 0.000000 0.000552  0.890840 0.512023 1 67 1.000000
lowpoly_plastic
0  -3.542391 -10.772206 -0.360584  0.001469 -0.000654 -0.999999  0.889330 0.511534 1 67 1.000000
0  -3.288454 -10.281797 -0.360531  0.001469 -0.000654 -0.999999  0.888316 0.511009 1 67 1.000000
0  -3.288210 -10.772200 -0.360210  0.001469 -0.000654 -0.999999  0.889330 0.511009 1 67 1.000000
lowpoly_plastic
0  -3.375292 -10.742788 -0.293958  0.213483 0.000000 0.976947  0.890283 0.511879 1 67 1.000000
0  -3.542391 -10.328348 -0.257443  0.213483 0.000000 0.976947  0.889426 0.511534 1 67 1.000000
0  -3.542391 -10.725641 -0.257443  0.213483 0.000000 0.976947  0.890248 0.511534 1 67 1.000000
lowpoly_plastic
0  -3.288454 -10.281797 -0.360531  -0.002462 0.913650 0.406494  0.890833 0.512059 1 67 1.000000
0  -3.542391 -10.328348 -0.257443  -0.002462 0.913650 0.406494  0.890611 0.512584 1 67 1.000000
0  -3.376056 -10.311207 -0.294962  -0.002462 0.913650 0.406494  0.890692 0.512240 1 67 1.000000
lowpoly_plastic
0  -3.288210 -10.772200 -0.360210  -0.000580 -0.911417 0.411483  0.888341 0.512059 1 67 1.000000
0  -3.542391 -10.725641 -0.257443  -0.000580 -0.911417 0.411483  0.888568 0.512585 1 67 1.000000
0  -3.542391 -10.772206 -0.360584  -0.000580 -0.911417 0.411483  0.888341 0.512585 1 67 1.000000
lowpoly_plastic
0  -3.375292 -10.742788 -0.293958  -0.006993 0.002315 0.999973  0.890283 0.511879 1 67 1.000000
0  -3.288491 -10.281805 -0.294418  -0.006993 0.002315 0.999973  0.889330 0.512059 1 67 1.000000
0  -3.376056 -10.311207 -0.294962  -0.006993 0.002315 0.999973  0.889391 0.511878 1 67 1.000000
lowpoly_plastic
0  -3.430680 -10.601782 -0.358859  0.000000 -1.000000 0.000000  0.079582 0.796996 1 67 1.000000
0  -3.542391 -10.601782 -0.165197  0.000000 -1.000000 0.000000  0.082269 0.798570 1 67 1.000000
0  -3.542391 -10.601782 -0.358859  0.000000 -1.000000 0.000000  0.079582 0.798570 1 67 1.000000
lowpoly_plastic
0  -3.288491 -10.772206 -0.294418  -0.320983 -0.947084 -0.001463  0.888475 0.512060 1 67 1.000000
0  -3.375292 -10.742788 -0.293958  -0.320983 -0.947084 -0.001463  0.888487 0.512239 1 67 1.000000
0  -3.288210 -10.772200 -0.360210  -0.320983 -0.947084 -0.001463  0.888341 0.512059 1 67 1.000000
lowpoly_plastic
0  -3.376056 -10.311207 -0.294962  -0.318302 0.947989 -0.000069  0.890692 0.512240 1 67 1.000000
0  -3.288491 -10.281805 -0.294418  -0.318302 0.947989 -0.000069  0.890696 0.512059 1 67 1.000000
0  -3.288454 -10.281797 -0.360531  -0.318302 0.947989 -0.000069  0.890833 0.512059 1 67 1.000000
lowpoly_plastic
0  -3.430680 -10.362005 -0.358859  0.000000 0.000000 -1.000000  0.082085 0.806027 1 67 1.000000
0  -3.253051 -10.601782 -0.358859  0.000000 0.000000 -1.000000  0.079582 0.802648 1 67 1.000000
0  -3.430680 -10.601782 -0.358859  0.000000 0.000000 -1.000000  0.082085 0.802648 1 67 1.000000
lowpoly_plastic
0  -3.352834 -16.169292 -0.309865  0.000000 0.000000 -1.000000  0.884730 0.513947 1 67 1.000000
0  -3.747739 -16.484131 -0.309865  0.000000 0.000000 -1.000000  0.885088 0.514414 1 67 1.000000
0  -3.747739 -16.169292 -0.309865  0.000000 0.000000 -1.000000  0.884730 0.514414 1 67 1.000000
lowpoly_plastic
0  -3.434727 -16.225725 -0.248177  0.000000 -0.000000 1.000000  0.884436 0.514321 1 67 1.000000
0  -3.665846 -16.428658 -0.248177  0.000000 -0.000000 1.000000  0.884667 0.514040 1 67 1.000000
0  -3.434727 -16.428658 -0.248177  0.000000 -0.000000 1.000000  0.884667 0.514321 1 67 1.000000
lowpoly_plastic
0  -3.747739 -16.169292 -0.309865  -0.601678 0.000000 0.798739  0.884372 0.513947 1 67 1.000000
0  -3.665846 -16.428658 -0.248177  -0.601678 0.000000 0.798739  0.884667 0.514040 1 67 1.000000
0  -3.665846 -16.225725 -0.248177  -0.601678 0.000000 0.798739  0.884436 0.514040 1 67 1.000000
lowpoly_plastic
0  -3.352834 -16.169292 -0.309865  0.000000 0.737853 0.674962  0.887257 0.513046 1 67 1.000000
0  -3.665846 -16.225725 -0.248177  0.000000 0.737853 0.674962  0.887186 0.513420 1 67 1.000000
0  -3.434727 -16.225725 -0.248177  0.000000 0.737853 0.674962  0.887186 0.513139 1 67 1.000000
lowpoly_plastic
0  -3.352834 -16.484129 -0.309865  0.601673 0.000000 0.798743  0.884730 0.514414 1 67 1.000000
0  -3.434727 -16.225725 -0.248177  0.601673 0.000000 0.798743  0.884436 0.514321 1 67 1.000000
0  -3.434727 -16.428658 -0.248177  0.601673 0.000000 0.798743  0.884667 0.514321 1 67 1.000000
lowpoly_plastic
0  -3.747739 -16.484131 -0.309865  0.000000 -0.743574 0.668654  0.886992 0.513497 1 67 1.000000
0  -3.434727 -16.428658 -0.248177  0.000000 -0.743574 0.668654  0.886918 0.513871 1 67 1.000000
0  -3.665846 -16.428658 -0.248177  0.000000 -0.743574 0.668654  0.886918 0.513590 1 67 1.000000
lowpoly_plastic
0  -3.643384 -16.118088 -0.297895  0.005121 0.000000 -0.999987  0.948151 0.513425 1 67 1.000000
0  -3.441508 -16.052237 -0.296861  0.005121 0.000000 -0.999987  0.947921 0.513500 1 67 1.000000
0  -3.441508 -16.118088 -0.296861  0.005121 0.000000 -0.999987  0.947921 0.513425 1 67 1.000000
lowpoly_plastic
0  -3.499401 -16.500023 0.000814  0.334697 0.000000 0.942326  0.946407 0.514047 1 67 1.000000
0  -3.528348 -16.565874 0.011095  0.334697 0.000000 0.942326  0.946482 0.514015 1 67 1.000000
0  -3.499401 -16.565874 0.000814  0.334697 0.000000 0.942326  0.946482 0.514047 1 67 1.000000
lowpoly_plastic
0  -3.585380 -16.118088 0.000814  -0.334697 0.000000 0.942326  0.948225 0.513383 1 67 1.000000
0  -3.556432 -16.052237 0.011095  -0.334697 0.000000 0.942326  0.948151 0.513416 1 67 1.000000
0  -3.585380 -16.052237 0.000814  -0.334697 0.000000 0.942326  0.948151 0.513383 1 67 1.000000
lowpoly_plastic
0  -3.528348 -16.118088 0.011095  0.000000 0.000000 1.000000  0.948225 0.513447 1 67 1.000000
0  -3.556432 -16.052237 0.011095  0.000000 0.000000 1.000000  0.948151 0.513416 1 67 1.000000
0  -3.556432 -16.118088 0.011095  0.000000 0.000000 1.000000  0.948225 0.513416 1 67 1.000000
lowpoly_plastic
0  -3.528348 -16.565874 0.011095  0.000000 -1.000000 0.000000  0.945932 0.513833 1 67 1.000000
0  -3.556432 -16.565874 0.011095  0.000000 -1.000000 0.000000  0.945963 0.513833 1 67 1.000000
0  -3.596348 -16.565874 -0.068574  0.000000 -1.000000 0.000000  0.946009 0.513923 1 67 1.000000
lowpoly_plastic
0  -3.528348 -16.052237 0.011095  0.000000 1.000000 0.000000  0.945738 0.513833 1 67 1.000000
0  -3.488266 -16.052237 -0.070128  0.000000 1.000000 0.000000  0.945783 0.513925 1 67 1.000000
0  -3.596348 -16.052237 -0.068574  0.000000 1.000000 0.000000  0.945660 0.513923 1 67 1.000000
lowpoly_plastic
0  -3.528348 -16.565874 0.011095  0.000000 0.000000 1.000000  0.946482 0.514015 1 67 1.000000
0  -3.556432 -16.500023 0.011095  0.000000 0.000000 1.000000  0.946407 0.513983 1 67 1.000000
0  -3.556432 -16.565874 0.011095  0.000000 0.000000 1.000000  0.946482 0.513983 1 67 1.000000
lowpoly_plastic
0  -3.585379 -16.565874 0.000814  -0.334715 -0.000004 0.942319  0.946482 0.513950 1 67 1.000000
0  -3.556432 -16.500023 0.011095  -0.334715 -0.000004 0.942319  0.946407 0.513983 1 67 1.000000
0  -3.585380 -16.500023 0.000814  -0.334715 -0.000004 0.942319  0.946407 0.513950 1 67 1.000000
lowpoly_plastic
0  -3.499401 -16.052237 0.000814  0.334715 0.000000 0.942319  0.948151 0.513480 1 67 1.000000
0  -3.528348 -16.118088 0.011095  0.334715 0.000000 0.942319  0.948225 0.513447 1 67 1.000000
0  -3.499401 -16.118088 0.000814  0.334715 0.000000 0.942319  0.948225 0.513480 1 67 1.000000
lowpoly_plastic
0  -3.643384 -16.565874 -0.297895  0.005120 0.000000 -0.999987  0.948151 0.512916 1 67 1.000000
0  -3.441508 -16.500025 -0.296861  0.005120 0.000000 -0.999987  0.947921 0.512991 1 67 1.000000
0  -3.441508 -16.565874 -0.296861  0.005120 0.000000 -0.999987  0.947921 0.512916 1 67 1.000000
lowpoly_plastic
0  -3.643384 -16.500025 -0.297895  0.005121 0.000000 -0.999987  0.948151 0.512991 1 67 1.000000
0  -3.441508 -16.118088 -0.296861  0.005121 0.000000 -0.999987  0.947921 0.513425 1 67 1.000000
0  -3.441508 -16.500025 -0.296861  0.005121 0.000000 -0.999987  0.947921 0.512991 1 67 1.000000
lowpoly_plastic
0  -3.561743 -16.500023 -0.049189  0.000000 1.000000 0.000043  0.888003 0.515942 1 67 1.000000
0  -3.596348 -16.500023 -0.068574  0.000000 1.000000 0.000043  0.887980 0.515903 1 67 1.000000
0  -3.589052 -16.500023 -0.044478  0.000000 1.000000 0.000043  0.888007 0.515911 1 67 1.000000
lowpoly_plastic
0  -3.596348 -16.118088 -0.068574  0.000000 -1.000000 -0.000086  0.887980 0.515903 1 67 1.000000
0  -3.561743 -16.118088 -0.049189  0.000000 -1.000000 -0.000086  0.887957 0.515942 1 67 1.000000
0  -3.589052 -16.118088 -0.044478  0.000000 -1.000000 -0.000086  0.887952 0.515911 1 67 1.000000
lowpoly_plastic
0  -3.488266 -16.500023 -0.070128  0.000000 1.000000 0.000089  0.887980 0.516026 1 67 1.000000
0  -3.522369 -16.500023 -0.049103  0.000000 1.000000 0.000089  0.888003 0.515987 1 67 1.000000
0  -3.495543 -16.500023 -0.046029  0.000000 1.000000 0.000089  0.888007 0.516017 1 67 1.000000
lowpoly_plastic
0  -3.522369 -16.118088 -0.049103  0.000000 -1.000000 0.000089  0.887957 0.515987 1 67 1.000000
0  -3.488266 -16.118088 -0.070128  0.000000 -1.000000 0.000089  0.887980 0.516026 1 67 1.000000
0  -3.495543 -16.118088 -0.046029  0.000000 -1.000000 0.000089  0.887953 0.516017 1 67 1.000000
lowpoly_plastic
0  -3.561743 -16.500023 -0.049189  -0.488726 0.000000 0.872437  0.889909 0.515319 1 67 1.000000
0  -3.596348 -16.118088 -0.068574  -0.488726 0.000000 0.872437  0.889948 0.514884 1 67 1.000000
0  -3.596348 -16.500023 -0.068574  -0.488726 0.000000 0.872437  0.889948 0.515319 1 67 1.000000
lowpoly_plastic
0  -3.488266 -16.500023 -0.070128  0.524800 0.000000 0.851225  0.889825 0.515319 1 67 1.000000
0  -3.522369 -16.118088 -0.049103  0.524800 0.000000 0.851225  0.889864 0.514884 1 67 1.000000
0  -3.522369 -16.500023 -0.049103  0.524800 0.000000 0.851225  0.889864 0.515319 1 67 1.000000
lowpoly_plastic
0  -3.522369 -16.500023 -0.049103  0.000000 1.000000 0.000000  0.888003 0.515987 1 67 1.000000
0  -3.561743 -16.500023 -0.049189  0.000000 1.000000 0.000000  0.888003 0.515942 1 67 1.000000
0  -3.528348 -16.500023 0.011095  0.000000 1.000000 0.000000  0.888072 0.515979 1 67 1.000000
lowpoly_plastic
0  -3.596348 -16.565874 -0.068574  -0.979606 0.000000 0.200928  0.947592 0.513928 1 67 1.000000
0  -3.643384 -16.500025 -0.297895  -0.979606 0.000000 0.200928  0.947858 0.513853 1 67 1.000000
0  -3.643384 -16.565874 -0.297895  -0.979606 0.000000 0.200928  0.947858 0.513928 1 67 1.000000
lowpoly_plastic
0  -3.596348 -16.500023 -0.068574  -0.979607 0.000000 0.200924  0.947592 0.513853 1 67 1.000000
0  -3.643384 -16.118088 -0.297895  -0.979607 0.000000 0.200924  0.947858 0.513419 1 67 1.000000
0  -3.643384 -16.500025 -0.297895  -0.979607 0.000000 0.200924  0.947858 0.513853 1 67 1.000000
lowpoly_plastic
0  -3.589052 -16.500023 -0.044478  -0.957089 0.000000 0.289793  0.947564 0.513853 1 67 1.000000
0  -3.596348 -16.500023 -0.068574  -0.957089 0.000000 0.289793  0.947592 0.513853 1 67 1.000000
0  -3.596348 -16.565874 -0.068574  -0.957089 0.000000 0.289793  0.947592 0.513928 1 67 1.000000
lowpoly_plastic
0  -3.561743 -16.118088 -0.049189  -0.002186 0.000000 0.999998  0.889909 0.514884 1 67 1.000000
0  -3.522369 -16.500023 -0.049103  -0.002186 0.000000 0.999998  0.889864 0.515319 1 67 1.000000
0  -3.522369 -16.118088 -0.049103  -0.002186 0.000000 0.999998  0.889864 0.514884 1 67 1.000000
lowpoly_plastic
0  -3.499401 -16.118088 0.000814  0.000000 -1.000000 0.000009  0.887900 0.516012 1 67 1.000000
0  -3.528348 -16.118088 0.011095  0.000000 -1.000000 0.000009  0.887888 0.515979 1 67 1.000000
0  -3.522369 -16.118088 -0.049103  0.000000 -1.000000 0.000009  0.887957 0.515987 1 67 1.000000
lowpoly_plastic
0  -3.596348 -16.052237 -0.068574  -0.957089 0.000000 0.289793  0.947592 0.513344 1 67 1.000000
0  -3.596348 -16.118088 -0.068574  -0.957089 0.000000 0.289793  0.947592 0.513419 1 67 1.000000
0  -3.589052 -16.118088 -0.044478  -0.957089 0.000000 0.289793  0.947564 0.513419 1 67 1.000000
lowpoly_plastic
0  -3.596348 -16.118088 -0.068574  -0.979607 0.000000 0.200922  0.947592 0.513419 1 67 1.000000
0  -3.643384 -16.052237 -0.297895  -0.979607 0.000000 0.200922  0.947858 0.513344 1 67 1.000000
0  -3.643384 -16.118088 -0.297895  -0.979607 0.000000 0.200922  0.947858 0.513419 1 67 1.000000
lowpoly_plastic
0  -3.441508 -16.565874 -0.296861  0.979389 0.000000 0.201982  0.946665 0.513366 1 67 1.000000
0  -3.488266 -16.500023 -0.070128  0.979389 0.000000 0.201982  0.946403 0.513441 1 67 1.000000
0  -3.488266 -16.565874 -0.070128  0.979389 0.000000 0.201982  0.946403 0.513366 1 67 1.000000
lowpoly_plastic
0  -3.441508 -16.500025 -0.296861  0.979391 0.000001 0.201975  0.946665 0.513441 1 67 1.000000
0  -3.488266 -16.118088 -0.070128  0.979391 0.000001 0.201975  0.946403 0.513875 1 67 1.000000
0  -3.488266 -16.500023 -0.070128  0.979391 0.000001 0.201975  0.946403 0.513441 1 67 1.000000
lowpoly_plastic
0  -3.495543 -16.500023 -0.046029  0.996627 0.000000 0.082067  0.946374 0.513441 1 67 1.000000
0  -3.499401 -16.500023 0.000814  0.996627 0.000000 0.082067  0.946321 0.513441 1 67 1.000000
0  -3.499401 -16.565874 0.000814  0.996627 0.000000 0.082067  0.946321 0.513366 1 67 1.000000
lowpoly_plastic
0  -3.441508 -16.118088 -0.296861  0.979392 0.000000 0.201967  0.946665 0.513875 1 67 1.000000
0  -3.488266 -16.052237 -0.070128  0.979392 0.000000 0.201967  0.946403 0.513950 1 67 1.000000
0  -3.488266 -16.118088 -0.070128  0.979392 0.000000 0.201967  0.946403 0.513875 1 67 1.000000
lowpoly_plastic
0  -3.499401 -16.052237 0.000814  0.986547 -0.052373 0.154861  0.946321 0.513950 1 67 1.000000
0  -3.495543 -16.118088 -0.046029  0.986547 -0.052373 0.154861  0.946374 0.513875 1 67 1.000000
0  -3.488266 -16.052237 -0.070128  0.986547 -0.052373 0.154861  0.946403 0.513950 1 67 1.000000
lowpoly_glow
0  -3.517500 -16.042459 -0.012830  0.000000 1.000000 0.000000  0.440537 0.554318 1 67 1.000000
0  -3.517500 -16.042459 -0.040628  0.000000 1.000000 0.000000  0.440510 0.554334 1 67 1.000000
0  -3.565493 -16.042459 -0.012830  0.000000 1.000000 0.000000  0.440510 0.554271 1 67 1.000000
lowpoly_glow
0  -3.517500 -16.577593 -0.012830  0.000000 -1.000000 -0.000089  0.441996 0.554321 1 67 1.000000
0  -3.541497 -16.577593 0.001069  0.000000 -1.000000 -0.000089  0.441996 0.554289 1 67 1.000000
0  -3.565493 -16.577593 -0.012830  0.000000 -1.000000 -0.000089  0.442024 0.554273 1 67 1.000000
lowpoly_glow
0  -3.517500 -16.042459 -0.012830  1.000000 0.000001 0.000000  0.442651 0.554429 1 67 1.000000
0  -3.517500 -16.577593 -0.040628  1.000000 0.000001 0.000000  0.442682 0.553821 1 67 1.000000
0  -3.517500 -16.042459 -0.040628  1.000000 0.000001 0.000000  0.442682 0.554429 1 67 1.000000
lowpoly_glow
0  -3.541497 -16.042459 0.001069  0.501202 0.000000 0.865330  0.442624 0.553821 1 67 1.000000
0  -3.517500 -16.577593 -0.012830  0.501202 0.000000 0.865330  0.442596 0.554429 1 67 1.000000
0  -3.517500 -16.042459 -0.012830  0.501202 0.000000 0.865330  0.442596 0.553821 1 67 1.000000
lowpoly_glow
0  -3.517500 -16.042459 -0.040628  0.501213 0.000001 -0.865324  0.441996 0.554273 1 67 1.000000
0  -3.541497 -16.577593 -0.054527  0.501213 0.000001 -0.865324  0.442024 0.553665 1 67 1.000000
0  -3.541497 -16.042459 -0.054527  0.501213 0.000001 -0.865324  0.442024 0.554273 1 67 1.000000
lowpoly_glow
0  -3.565493 -16.042459 -0.040628  -1.000000 0.000000 0.000000  0.439528 0.553687 1 67 1.000000
0  -3.565493 -16.577593 -0.012830  -1.000000 0.000000 0.000000  0.439496 0.554295 1 67 1.000000
0  -3.565493 -16.042459 -0.012830  -1.000000 0.000000 0.000000  0.439496 0.553687 1 67 1.000000
lowpoly_glow
0  -3.565493 -16.042459 -0.012830  -0.501206 0.000000 0.865328  0.442651 0.553821 1 67 1.000000
0  -3.541497 -16.577593 0.001069  -0.501206 0.000000 0.865328  0.442624 0.554429 1 67 1.000000
0  -3.541497 -16.042459 0.001069  -0.501206 0.000000 0.865328  0.442624 0.553821 1 67 1.000000
lowpoly_glow
0  -3.541497 -16.042459 -0.054527  -0.501206 -0.000000 -0.865328  0.442024 0.554273 1 67 1.000000
0  -3.565493 -16.577593 -0.040628  -0.501206 -0.000000 -0.865328  0.442051 0.553665 1 67 1.000000
0  -3.565493 -16.042459 -0.040628  -0.501206 -0.000000 -0.865328  0.442051 0.554273 1 67 1.000000
lowpoly_plastic
0  -3.904856 -10.199450 -0.441218  -0.104754 0.862841 0.494502  0.008025 0.762396 1 67 1.000000
0  -3.697909 -10.262218 -0.287855  -0.104754 0.862841 0.494502  0.007954 0.762270 1 67 1.000000
0  -3.697329 -10.174254 -0.441218  -0.104754 0.862841 0.494502  0.008068 0.762269 1 67 1.000000
lowpoly_plastic
0  -3.708724 -10.311203 -0.294962  -0.219139 0.009091 0.975651  0.007784 0.761011 1 67 1.000000
0  -3.542391 -10.328348 -0.257443  -0.219139 0.009091 0.975651  0.007627 0.761029 1 67 1.000000
0  -3.542391 -10.275828 -0.257932  -0.219139 0.009091 0.975651  0.007626 0.760970 1 67 1.000000
lowpoly_plastic
0  -3.385243 -10.262222 -0.285726  0.173382 0.009174 0.984812  0.007452 0.760954 1 67 1.000000
0  -3.542391 -10.275828 -0.257932  0.173382 0.009174 0.984812  0.007626 0.760970 1 67 1.000000
0  -3.542391 -10.328348 -0.257443  0.173382 0.009174 0.984812  0.007627 0.761029 1 67 1.000000
lowpoly_plastic
0  -3.374959 -10.311202 -0.293520  0.001764 -0.913127 -0.407672  0.008206 0.760982 1 67 1.000000
0  -3.708724 -10.311203 -0.294962  0.001764 -0.913127 -0.407672  0.008206 0.761355 1 67 1.000000
0  -3.795822 -10.281801 -0.361200  0.001764 -0.913127 -0.407672  0.008126 0.761452 1 67 1.000000
lowpoly_plastic
0  -3.287930 -10.772198 -0.359837  -0.002632 0.000053 0.999996  0.007321 0.761524 1 67 1.000000
0  -3.287950 -10.281794 -0.359863  -0.002632 0.000053 0.999996  0.007321 0.760977 1 67 1.000000
0  -3.795822 -10.281801 -0.361200  -0.002632 0.000053 0.999996  0.007848 0.760981 1 67 1.000000
lowpoly_plastic
0  -3.374942 -10.742788 -0.293497  0.000584 0.914481 -0.404628  0.007974 0.762598 1 67 1.000000
0  -3.287930 -10.772198 -0.359837  0.000584 0.914481 -0.404628  0.008055 0.762501 1 67 1.000000
0  -3.796290 -10.772203 -0.360584  0.000584 0.914481 -0.404628  0.008055 0.763068 1 67 1.000000
lowpoly_plastic
0  -3.542390 -12.424935 -0.257874  -0.216457 -0.000248 0.976292  0.007627 0.763367 1 67 1.000000
0  -3.542391 -10.725641 -0.257443  -0.216457 -0.000248 0.976292  0.007627 0.761472 1 67 1.000000
0  -3.709138 -10.742788 -0.294418  -0.216457 -0.000248 0.976292  0.007785 0.761493 1 67 1.000000
lowpoly_plastic
0  -3.708724 -10.311203 -0.294962  -0.601602 0.016976 0.798616  0.007784 0.761011 1 67 1.000000
0  -3.697909 -10.262218 -0.287855  -0.601602 0.016976 0.798616  0.007776 0.760957 1 67 1.000000
0  -3.795822 -10.281801 -0.361200  -0.601602 0.016976 0.798616  0.007848 0.760981 1 67 1.000000
lowpoly_plastic
0  -3.697909 -10.262218 -0.287855  -0.597840 -0.012737 0.801514  0.007776 0.760957 1 67 1.000000
0  -3.904856 -10.199450 -0.441218  -0.597840 -0.012737 0.801514  0.007929 0.760891 1 67 1.000000
0  -3.795822 -10.281801 -0.361200  -0.597840 -0.012737 0.801514  0.007848 0.760981 1 67 1.000000
lowpoly_plastic
0  -3.904856 -10.199450 -0.441218  -0.595823 0.000127 0.803116  0.007929 0.760891 1 67 1.000000
0  -3.905330 -12.424935 -0.441218  -0.595823 0.000127 0.803116  0.007930 0.763374 1 67 1.000000
0  -3.796290 -10.772203 -0.360584  -0.595823 0.000127 0.803116  0.007849 0.761528 1 67 1.000000
lowpoly_plastic
0  -3.905330 -12.424935 -0.441218  -0.604785 0.001046 0.796388  0.007930 0.763374 1 67 1.000000
0  -3.756745 -12.424935 -0.328381  -0.604785 0.001046 0.796388  0.007821 0.763370 1 67 1.000000
0  -3.796290 -10.772203 -0.360584  -0.604785 0.001046 0.796388  0.007849 0.761528 1 67 1.000000
lowpoly_plastic
0  -3.756745 -12.424935 -0.328381  -0.604902 0.001042 0.796299  0.007821 0.763370 1 67 1.000000
0  -3.709138 -10.742788 -0.294418  -0.604902 0.001042 0.796299  0.007785 0.761493 1 67 1.000000
0  -3.796290 -10.772203 -0.360584  -0.604902 0.001042 0.796299  0.007849 0.761528 1 67 1.000000
lowpoly_plastic
0  -3.374942 -10.742788 -0.293497  0.210466 -0.000248 0.977601  0.007438 0.761490 1 67 1.000000
0  -3.542391 -10.725641 -0.257443  0.210466 -0.000248 0.977601  0.007627 0.761472 1 67 1.000000
0  -3.542390 -12.424935 -0.257874  0.210466 -0.000248 0.977601  0.007604 0.763367 1 67 1.000000
lowpoly_plastic
0  -3.181312 -10.199183 -0.441218  0.606202 0.000744 0.795310  0.007299 0.760916 1 67 1.000000
0  -3.385243 -10.262222 -0.285726  0.606202 0.000744 0.795310  0.007452 0.760954 1 67 1.000000
0  -3.287950 -10.281794 -0.359863  0.606202 0.000744 0.795310  0.007321 0.760977 1 67 1.000000
lowpoly_plastic
0  -3.385243 -10.262222 -0.285726  0.606187 0.000711 0.795322  0.007452 0.760954 1 67 1.000000
0  -3.374959 -10.311202 -0.293520  0.606187 0.000711 0.795322  0.007438 0.761009 1 67 1.000000
0  -3.287950 -10.281794 -0.359863  0.606187 0.000711 0.795322  0.007321 0.760977 1 67 1.000000
lowpoly_plastic
0  -3.332037 -12.424935 -0.325998  0.606653 0.000086 0.794966  0.007381 0.763367 1 67 1.000000
0  -3.181052 -12.424935 -0.441218  0.606653 0.000086 0.794966  0.007177 0.763368 1 67 1.000000
0  -3.287930 -10.772198 -0.359837  0.606653 0.000086 0.794966  0.007321 0.761524 1 67 1.000000
lowpoly_plastic
0  -3.181052 -12.424935 -0.441218  0.606503 0.000071 0.795081  0.007177 0.763368 1 67 1.000000
0  -3.181312 -10.199183 -0.441218  0.606503 0.000071 0.795081  0.007299 0.760916 1 67 1.000000
0  -3.287930 -10.772198 -0.359837  0.606503 0.000071 0.795081  0.007321 0.761524 1 67 1.000000
lowpoly_plastic
0  -3.287930 -10.772198 -0.359837  0.606325 0.000100 0.795217  0.007321 0.761524 1 67 1.000000
0  -3.374942 -10.742788 -0.293497  0.606325 0.000100 0.795217  0.007438 0.761490 1 67 1.000000
0  -3.332037 -12.424935 -0.325998  0.606325 0.000100 0.795217  0.007381 0.763367 1 67 1.000000
lowpoly_plastic
0  -3.181052 -12.424935 -0.441218  0.000000 -1.000000 0.000000  0.007930 0.760885 1 67 1.000000
0  -3.332037 -12.424935 -0.325998  0.000000 -1.000000 0.000000  0.008053 0.761054 1 67 1.000000
0  -3.756745 -12.424935 -0.328381  0.000000 -1.000000 0.000000  0.008050 0.761528 1 67 1.000000
lowpoly_plastic
0  -3.332037 -12.424935 -0.325998  0.000000 -1.000000 0.000000  0.008053 0.761054 1 67 1.000000
0  -3.542390 -12.424935 -0.257874  0.000000 -1.000000 0.000000  0.008126 0.761288 1 67 1.000000
0  -3.756745 -12.424935 -0.328381  0.000000 -1.000000 0.000000  0.008050 0.761528 1 67 1.000000
lowpoly_plastic
0  -3.696744 -10.324314 -0.441218  -0.000000 0.000000 -1.000000  0.008126 0.761453 1 67 1.000000
0  -3.697329 -10.174254 -0.441218  -0.000000 0.000000 -1.000000  0.008293 0.761452 1 67 1.000000
0  -3.386405 -10.166265 -0.441218  -0.000000 0.000000 -1.000000  0.008302 0.761799 1 67 1.000000
lowpoly_plastic
0  -3.697329 -10.174254 -0.441218  -0.019800 0.867305 0.497383  0.008068 0.762269 1 67 1.000000
0  -3.697909 -10.262218 -0.287855  -0.019800 0.867305 0.497383  0.007954 0.762270 1 67 1.000000
0  -3.542391 -10.275828 -0.257932  -0.019800 0.867305 0.497383  0.007930 0.762096 1 67 1.000000
lowpoly_plastic
0  -3.542391 -10.275828 -0.257932  0.019173 0.850903 0.524972  0.007930 0.762096 1 67 1.000000
0  -3.385243 -10.262222 -0.285726  0.019173 0.850903 0.524972  0.007951 0.761921 1 67 1.000000
0  -3.386405 -10.166265 -0.441218  0.019173 0.850903 0.524972  0.008065 0.761922 1 67 1.000000
lowpoly_plastic
0  -3.831730 -10.362005 -0.181243  -0.962841 0.000000 0.270069  0.088317 0.797287 1 67 1.000000
0  -3.831730 -10.601782 -0.181243  -0.962841 0.000000 0.270069  0.084937 0.797287 1 67 1.000000
0  -3.777804 -10.511378 0.011015  -0.962841 0.000000 0.270069  0.086212 0.794492 1 67 1.000000
lowpoly_plastic
0  -3.664376 -10.362005 0.011015  0.940769 0.000000 0.339049  0.050602 0.873728 1 67 1.000000
0  -3.664376 -10.511378 0.011015  0.940769 0.000000 0.339049  0.050602 0.872565 1 67 1.000000
0  -3.600870 -10.601782 -0.165197  0.940769 0.000000 0.339049  0.052034 0.871862 1 67 1.000000
lowpoly_plastic
0  -3.600870 -10.362005 -0.165197  0.000000 1.000000 -0.000003  0.076862 0.799394 1 67 1.000000
0  -3.831730 -10.362005 -0.181243  0.000000 1.000000 -0.000003  0.077088 0.802648 1 67 1.000000
0  -3.777804 -10.362005 0.011015  0.000000 1.000000 -0.000003  0.074388 0.801888 1 67 1.000000
lowpoly_plastic
0  -3.831730 -10.601782 -0.181243  -0.031094 -0.893814 0.447359  0.082046 0.802648 1 67 1.000000
0  -3.600870 -10.601782 -0.165197  -0.031094 -0.893814 0.447359  0.082269 0.799394 1 67 1.000000
0  -3.664376 -10.511378 0.011015  -0.031094 -0.893814 0.447359  0.084937 0.800290 1 67 1.000000
lowpoly_plastic
0  -3.777804 -10.511378 0.011015  0.000000 0.000000 1.000000  0.076385 0.802648 1 67 1.000000
0  -3.664376 -10.511378 0.011015  0.000000 0.000000 1.000000  0.077983 0.802648 1 67 1.000000
0  -3.664376 -10.362005 0.011015  0.000000 0.000000 1.000000  0.077983 0.804753 1 67 1.000000
lowpoly_plastic
0  -3.831730 -10.601782 -0.358859  0.000000 -1.000000 0.000000  0.079582 0.802648 1 67 1.000000
0  -3.654101 -10.601782 -0.358859  0.000000 -1.000000 0.000000  0.079582 0.800145 1 67 1.000000
0  -3.600870 -10.601782 -0.165197  0.000000 -1.000000 0.000000  0.082269 0.799394 1 67 1.000000
lowpoly_plastic
0  -3.542391 -10.362005 -0.358859  0.000000 1.000000 0.000000  0.079582 0.798570 1 67 1.000000
0  -3.654101 -10.362005 -0.358859  0.000000 1.000000 0.000000  0.079582 0.800145 1 67 1.000000
0  -3.600870 -10.362005 -0.165197  0.000000 1.000000 0.000000  0.076862 0.799394 1 67 1.000000
lowpoly_plastic
0  -3.654101 -10.362005 -0.358859  0.000000 1.000000 0.000000  0.079582 0.800145 1 67 1.000000
0  -3.831730 -10.362005 -0.358859  0.000000 1.000000 0.000000  0.079582 0.802648 1 67 1.000000
0  -3.831730 -10.362005 -0.181243  0.000000 1.000000 0.000000  0.077088 0.802648 1 67 1.000000
lowpoly_plastic
0  -3.831730 -10.362005 -0.358859  -1.000000 0.000000 0.000000  0.088317 0.799760 1 67 1.000000
0  -3.831730 -10.601782 -0.358859  -1.000000 0.000000 0.000000  0.084938 0.799760 1 67 1.000000
0  -3.831730 -10.601782 -0.181243  -1.000000 0.000000 0.000000  0.084937 0.797287 1 67 1.000000
lowpoly_plastic
0  -3.542391 -10.601782 -0.165197  0.000000 -0.000000 1.000000  0.044320 0.872907 1 67 1.000000
0  -3.542391 -10.362005 -0.165197  0.000000 -0.000000 1.000000  0.044320 0.874774 1 67 1.000000
0  -3.600870 -10.362005 -0.165197  0.000000 -0.000000 1.000000  0.043864 0.874774 1 67 1.000000
lowpoly_plastic
0  -3.796290 -10.772206 -0.294418  -0.999976 0.000000 -0.007008  0.890969 0.512059 1 67 1.000000
0  -3.796290 -10.281805 -0.294418  -0.999976 0.000000 -0.007008  0.890969 0.513073 1 67 1.000000
0  -3.795822 -10.281801 -0.361200  -0.999976 0.000000 -0.007008  0.890833 0.513073 1 67 1.000000
lowpoly_plastic
0  -3.542391 -10.772206 -0.360584  0.000000 -0.001256 -0.999999  0.889330 0.511534 1 67 1.000000
0  -3.796290 -10.772202 -0.360584  0.000000 -0.001256 -0.999999  0.889330 0.512059 1 67 1.000000
0  -3.795822 -10.281801 -0.361200  0.000000 -0.001256 -0.999999  0.888316 0.512058 1 67 1.000000
lowpoly_plastic
0  -3.709138 -10.742788 -0.294418  -0.216482 0.000000 0.976287  0.890283 0.511189 1 67 1.000000
0  -3.542391 -10.725641 -0.257443  -0.216482 0.000000 0.976287  0.890248 0.511534 1 67 1.000000
0  -3.542391 -10.328348 -0.257443  -0.216482 0.000000 0.976287  0.889426 0.511534 1 67 1.000000
lowpoly_plastic
0  -3.795822 -10.281801 -0.361200  0.003797 0.915818 0.401575  0.890833 0.513109 1 67 1.000000
0  -3.708724 -10.311207 -0.294962  0.003797 0.915818 0.401575  0.890691 0.512928 1 67 1.000000
0  -3.542391 -10.328348 -0.257443  0.003797 0.915818 0.401575  0.890611 0.512584 1 67 1.000000
lowpoly_plastic
0  -3.796290 -10.772202 -0.360584  -0.000014 -0.911421 0.411475  0.888341 0.513110 1 67 1.000000
0  -3.542391 -10.772206 -0.360584  -0.000014 -0.911421 0.411475  0.888341 0.512585 1 67 1.000000
0  -3.542391 -10.725641 -0.257443  -0.000014 -0.911421 0.411475  0.888568 0.512585 1 67 1.000000
lowpoly_plastic
0  -3.709138 -10.742788 -0.294418  0.006638 0.001255 0.999977  0.890283 0.511189 1 67 1.000000
0  -3.708724 -10.311207 -0.294962  0.006638 0.001255 0.999977  0.889391 0.511190 1 67 1.000000
0  -3.796290 -10.281805 -0.294418  0.006638 0.001255 0.999977  0.889330 0.511009 1 67 1.000000
lowpoly_plastic
0  -3.654101 -10.601782 -0.358859  0.000000 -1.000000 0.000000  0.079582 0.800145 1 67 1.000000
0  -3.542391 -10.601782 -0.358859  0.000000 -1.000000 0.000000  0.079582 0.798570 1 67 1.000000
0  -3.542391 -10.601782 -0.165197  0.000000 -1.000000 0.000000  0.082269 0.798570 1 67 1.000000
lowpoly_plastic
0  -3.654101 -10.362005 -0.358859  0.000000 0.000000 -1.000000  0.082434 0.806027 1 67 1.000000
0  -3.654101 -10.601782 -0.358859  0.000000 0.000000 -1.000000  0.082434 0.802648 1 67 1.000000
0  -3.831730 -10.601782 -0.358859  0.000000 0.000000 -1.000000  0.084937 0.802648 1 67 1.000000
lowpoly_plastic
0  -3.253051 -10.362005 -0.181243  0.962842 0.000000 0.270065  0.086493 0.790127 1 67 1.000000
0  -3.306977 -10.362005 0.011015  0.962842 0.000000 0.270065  0.086493 0.787332 1 67 1.000000
0  -3.306977 -10.511378 0.011015  0.962842 0.000000 0.270065  0.088599 0.787332 1 67 1.000000
lowpoly_plastic
0  -3.420405 -10.362005 0.011015  -0.940769 0.000001 0.339048  0.053900 0.874772 1 67 1.000000
0  -3.483911 -10.362005 -0.165197  -0.940769 0.000001 0.339048  0.052468 0.874772 1 67 1.000000
0  -3.483911 -10.601782 -0.165197  -0.940769 0.000001 0.339048  0.052468 0.872905 1 67 1.000000
lowpoly_plastic
0  -3.483911 -10.362005 -0.165197  0.000000 1.000000 -0.000012  0.076862 0.797746 1 67 1.000000
0  -3.420405 -10.362005 0.011015  0.000000 1.000000 -0.000012  0.074388 0.796851 1 67 1.000000
0  -3.306977 -10.362005 0.011015  0.000000 1.000000 -0.000012  0.074388 0.795253 1 67 1.000000
lowpoly_plastic
0  -3.253051 -10.601782 -0.181243  0.000000 -0.904948 0.425521  0.082046 0.794492 1 67 1.000000
0  -3.306977 -10.511378 0.011015  0.000000 -0.904948 0.425521  0.084937 0.795253 1 67 1.000000
0  -3.420405 -10.511378 0.011015  0.000000 -0.904948 0.425521  0.084937 0.796851 1 67 1.000000
lowpoly_plastic
0  -3.306977 -10.511378 0.011015  0.000000 0.000000 1.000000  0.079582 0.802648 1 67 1.000000
0  -3.306977 -10.362005 0.011015  0.000000 0.000000 1.000000  0.079582 0.804753 1 67 1.000000
0  -3.420405 -10.362005 0.011015  0.000000 0.000000 1.000000  0.077983 0.804753 1 67 1.000000
lowpoly_plastic
0  -3.253051 -10.601782 -0.358859  0.000000 -1.000000 0.000000  0.079582 0.794493 1 67 1.000000
0  -3.253051 -10.601782 -0.181243  0.000000 -1.000000 0.000000  0.082046 0.794492 1 67 1.000000
0  -3.483911 -10.601782 -0.165197  0.000000 -1.000000 0.000000  0.082269 0.797746 1 67 1.000000
lowpoly_plastic
0  -3.542391 -10.362005 -0.358859  0.000000 1.000000 0.000000  0.079582 0.798570 1 67 1.000000
0  -3.542391 -10.362005 -0.165197  0.000000 1.000000 0.000000  0.076862 0.798570 1 67 1.000000
0  -3.483911 -10.362005 -0.165197  0.000000 1.000000 0.000000  0.076862 0.797746 1 67 1.000000
lowpoly_plastic
0  -3.430680 -10.362005 -0.358859  0.000000 1.000000 0.000000  0.079582 0.796996 1 67 1.000000
0  -3.483911 -10.362005 -0.165197  0.000000 1.000000 0.000000  0.076862 0.797746 1 67 1.000000
0  -3.253051 -10.362005 -0.181243  0.000000 1.000000 0.000000  0.077088 0.794492 1 67 1.000000
lowpoly_plastic
0  -3.253051 -10.362005 -0.358859  1.000000 0.000000 0.000000  0.086493 0.792599 1 67 1.000000
0  -3.253051 -10.362005 -0.181243  1.000000 0.000000 0.000000  0.086493 0.790127 1 67 1.000000
0  -3.253051 -10.601782 -0.181243  1.000000 0.000000 0.000000  0.089873 0.790127 1 67 1.000000
lowpoly_plastic
0  -3.542391 -10.601782 -0.165197  0.000000 -0.000000 1.000000  0.044320 0.872907 1 67 1.000000
0  -3.483911 -10.601782 -0.165197  0.000000 -0.000000 1.000000  0.044775 0.872907 1 67 1.000000
0  -3.483911 -10.362005 -0.165197  0.000000 -0.000000 1.000000  0.044775 0.874774 1 67 1.000000
lowpoly_plastic
0  -3.288491 -10.772206 -0.294418  0.999991 0.000500 0.004262  0.890840 0.511009 1 67 1.000000
0  -3.288210 -10.772200 -0.360210  0.999991 0.000500 0.004262  0.890974 0.511009 1 67 1.000000
0  -3.288454 -10.281797 -0.360531  0.999991 0.000500 0.004262  0.890975 0.512023 1 67 1.000000
lowpoly_plastic
0  -3.542391 -10.772206 -0.360584  0.000206 0.000000 -1.000000  0.889330 0.511534 1 67 1.000000
0  -3.542391 -10.281797 -0.360584  0.000206 0.000000 -1.000000  0.888316 0.511534 1 67 1.000000
0  -3.288454 -10.281797 -0.360531  0.000206 0.000000 -1.000000  0.888316 0.511009 1 67 1.000000
lowpoly_plastic
0  -3.375292 -10.742788 -0.293958  0.219774 0.002660 0.975547  0.890283 0.511879 1 67 1.000000
0  -3.376056 -10.311207 -0.294962  0.219774 0.002660 0.975547  0.889391 0.511878 1 67 1.000000
0  -3.542391 -10.328348 -0.257443  0.219774 0.002660 0.975547  0.889426 0.511534 1 67 1.000000
lowpoly_plastic
0  -3.288454 -10.281797 -0.360531  -0.000085 0.911468 0.411371  0.890833 0.512059 1 67 1.000000
0  -3.542391 -10.281797 -0.360584  -0.000085 0.911468 0.411371  0.890832 0.512584 1 67 1.000000
0  -3.542391 -10.328348 -0.257443  -0.000085 0.911468 0.411371  0.890611 0.512584 1 67 1.000000
lowpoly_plastic
0  -3.288210 -10.772200 -0.360210  -0.007221 -0.917442 0.397805  0.888341 0.512059 1 67 1.000000
0  -3.375292 -10.742788 -0.293958  -0.007221 -0.917442 0.397805  0.888487 0.512239 1 67 1.000000
0  -3.542391 -10.725641 -0.257443  -0.007221 -0.917442 0.397805  0.888568 0.512585 1 67 1.000000
lowpoly_plastic
0  -3.375292 -10.742788 -0.293958  0.005301 0.000000 0.999986  0.890283 0.511879 1 67 1.000000
0  -3.288491 -10.772206 -0.294418  0.005301 0.000000 0.999986  0.890344 0.512059 1 67 1.000000
0  -3.288491 -10.281805 -0.294418  0.005301 0.000000 0.999986  0.889330 0.512059 1 67 1.000000
lowpoly_plastic
0  -3.430680 -10.601782 -0.358859  0.000000 -1.000000 -0.000011  0.079582 0.796996 1 67 1.000000
0  -3.483911 -10.601782 -0.165197  0.000000 -1.000000 -0.000011  0.082269 0.797746 1 67 1.000000
0  -3.542391 -10.601782 -0.165197  0.000000 -1.000000 -0.000011  0.082269 0.798570 1 67 1.000000
lowpoly_plastic
0  -3.430680 -10.362005 -0.358859  0.000000 0.000000 -1.000000  0.082085 0.806027 1 67 1.000000
0  -3.253051 -10.362005 -0.358859  0.000000 0.000000 -1.000000  0.079582 0.806027 1 67 1.000000
0  -3.253051 -10.601782 -0.358859  0.000000 0.000000 -1.000000  0.079582 0.802648 1 67 1.000000
lowpoly_plastic
0  -3.352834 -16.169292 -0.309865  -0.000000 0.000000 -1.000000  0.884730 0.513947 1 67 1.000000
0  -3.352834 -16.484129 -0.309865  -0.000000 0.000000 -1.000000  0.885088 0.513947 1 67 1.000000
0  -3.747739 -16.484131 -0.309865  -0.000000 0.000000 -1.000000  0.885088 0.514414 1 67 1.000000
lowpoly_plastic
0  -3.434727 -16.225725 -0.248177  0.000000 -0.000000 1.000000  0.884436 0.514321 1 67 1.000000
0  -3.665846 -16.225725 -0.248177  0.000000 -0.000000 1.000000  0.884436 0.514040 1 67 1.000000
0  -3.665846 -16.428658 -0.248177  0.000000 -0.000000 1.000000  0.884667 0.514040 1 67 1.000000
lowpoly_plastic
0  -3.747739 -16.169292 -0.309865  -0.601672 0.000000 0.798743  0.884372 0.513947 1 67 1.000000
0  -3.747739 -16.484131 -0.309865  -0.601672 0.000000 0.798743  0.884730 0.513947 1 67 1.000000
0  -3.665846 -16.428658 -0.248177  -0.601672 0.000000 0.798743  0.884667 0.514040 1 67 1.000000
lowpoly_plastic
0  -3.352834 -16.169292 -0.309865  0.000000 0.737826 0.674991  0.887257 0.513046 1 67 1.000000
0  -3.747739 -16.169292 -0.309865  0.000000 0.737826 0.674991  0.887257 0.513513 1 67 1.000000
0  -3.665846 -16.225725 -0.248177  0.000000 0.737826 0.674991  0.887186 0.513420 1 67 1.000000
lowpoly_plastic
0  -3.352834 -16.484129 -0.309865  0.601673 0.000000 0.798742  0.884730 0.514414 1 67 1.000000
0  -3.352834 -16.169292 -0.309865  0.601673 0.000000 0.798742  0.884372 0.514414 1 67 1.000000
0  -3.434727 -16.225725 -0.248177  0.601673 0.000000 0.798742  0.884436 0.514321 1 67 1.000000
lowpoly_plastic
0  -3.747739 -16.484131 -0.309865  0.000004 -0.743561 0.668668  0.886992 0.513497 1 67 1.000000
0  -3.352834 -16.484129 -0.309865  0.000004 -0.743561 0.668668  0.886992 0.513964 1 67 1.000000
0  -3.434727 -16.428658 -0.248177  0.000004 -0.743561 0.668668  0.886918 0.513871 1 67 1.000000
lowpoly_plastic
0  -3.643384 -16.118088 -0.297895  0.005120 0.000000 -0.999987  0.948151 0.513425 1 67 1.000000
0  -3.643384 -16.052237 -0.297895  0.005120 0.000000 -0.999987  0.948151 0.513500 1 67 1.000000
0  -3.441508 -16.052237 -0.296861  0.005120 0.000000 -0.999987  0.947921 0.513500 1 67 1.000000
lowpoly_plastic
0  -3.499401 -16.500023 0.000814  0.334715 0.000000 0.942319  0.946407 0.514047 1 67 1.000000
0  -3.528348 -16.500023 0.011095  0.334715 0.000000 0.942319  0.946407 0.514015 1 67 1.000000
0  -3.528348 -16.565874 0.011095  0.334715 0.000000 0.942319  0.946482 0.514015 1 67 1.000000
lowpoly_plastic
0  -3.585380 -16.118088 0.000814  -0.334715 0.000000 0.942319  0.948225 0.513383 1 67 1.000000
0  -3.556432 -16.118088 0.011095  -0.334715 0.000000 0.942319  0.948225 0.513416 1 67 1.000000
0  -3.556432 -16.052237 0.011095  -0.334715 0.000000 0.942319  0.948151 0.513416 1 67 1.000000
lowpoly_plastic
0  -3.528348 -16.118088 0.011095  0.000000 0.000000 1.000000  0.948225 0.513447 1 67 1.000000
0  -3.528348 -16.052237 0.011095  0.000000 0.000000 1.000000  0.948151 0.513447 1 67 1.000000
0  -3.556432 -16.052237 0.011095  0.000000 0.000000 1.000000  0.948151 0.513416 1 67 1.000000
lowpoly_plastic
0  -3.596348 -16.565874 -0.068574  0.000000 -1.000000 -0.000019  0.946009 0.513923 1 67 1.000000
0  -3.643384 -16.565874 -0.297895  0.000000 -1.000000 -0.000019  0.946064 0.514183 1 67 1.000000
0  -3.488266 -16.565874 -0.070128  0.000000 -1.000000 -0.000019  0.945886 0.513925 1 67 1.000000
lowpoly_plastic
0  -3.643384 -16.565874 -0.297895  0.000000 -1.000000 0.000005  0.946064 0.514183 1 67 1.000000
0  -3.441508 -16.565874 -0.296861  0.000000 -1.000000 0.000005  0.945835 0.514183 1 67 1.000000
0  -3.488266 -16.565874 -0.070128  0.000000 -1.000000 0.000005  0.945886 0.513925 1 67 1.000000
lowpoly_plastic
0  -3.488266 -16.565874 -0.070128  0.000000 -1.000000 -0.000031  0.945886 0.513925 1 67 1.000000
0  -3.499401 -16.565874 0.000814  0.000000 -1.000000 -0.000031  0.945899 0.513845 1 67 1.000000
0  -3.528348 -16.565874 0.011095  0.000000 -1.000000 -0.000031  0.945932 0.513833 1 67 1.000000
lowpoly_plastic
0  -3.556432 -16.565874 0.011095  0.000000 -1.000000 -0.000031  0.945963 0.513833 1 67 1.000000
0  -3.585379 -16.565874 0.000814  0.000000 -1.000000 -0.000031  0.945996 0.513844 1 67 1.000000
0  -3.596348 -16.565874 -0.068574  0.000000 -1.000000 -0.000031  0.946009 0.513923 1 67 1.000000
lowpoly_plastic
0  -3.488266 -16.565874 -0.070128  0.000000 -1.000000 0.000027  0.945886 0.513925 1 67 1.000000
0  -3.528348 -16.565874 0.011095  0.000000 -1.000000 0.000027  0.945932 0.513833 1 67 1.000000
0  -3.596348 -16.565874 -0.068574  0.000000 -1.000000 0.000027  0.946009 0.513923 1 67 1.000000
lowpoly_plastic
0  -3.441508 -16.052237 -0.296861  0.000000 1.000000 0.000000  0.945835 0.514183 1 67 1.000000
0  -3.643384 -16.052237 -0.297895  0.000000 1.000000 0.000000  0.945605 0.514183 1 67 1.000000
0  -3.488266 -16.052237 -0.070128  0.000000 1.000000 0.000000  0.945783 0.513925 1 67 1.000000
lowpoly_plastic
0  -3.643384 -16.052237 -0.297895  0.000000 1.000000 -0.000010  0.945605 0.514183 1 67 1.000000
0  -3.596348 -16.052237 -0.068574  0.000000 1.000000 -0.000010  0.945660 0.513923 1 67 1.000000
0  -3.488266 -16.052237 -0.070128  0.000000 1.000000 -0.000010  0.945783 0.513925 1 67 1.000000
lowpoly_plastic
0  -3.596348 -16.052237 -0.068574  0.000000 1.000000 -0.000031  0.945660 0.513923 1 67 1.000000
0  -3.585380 -16.052237 0.000814  0.000000 1.000000 -0.000031  0.945673 0.513844 1 67 1.000000
0  -3.556432 -16.052237 0.011095  0.000000 1.000000 -0.000031  0.945706 0.513833 1 67 1.000000
lowpoly_plastic
0  -3.556432 -16.052237 0.011095  0.000000 1.000000 0.000000  0.945706 0.513833 1 67 1.000000
0  -3.528348 -16.052237 0.011095  0.000000 1.000000 0.000000  0.945738 0.513833 1 67 1.000000
0  -3.596348 -16.052237 -0.068574  0.000000 1.000000 0.000000  0.945660 0.513923 1 67 1.000000
lowpoly_plastic
0  -3.528348 -16.052237 0.011095  0.000000 1.000000 -0.000015  0.945738 0.513833 1 67 1.000000
0  -3.499401 -16.052237 0.000814  0.000000 1.000000 -0.000015  0.945770 0.513845 1 67 1.000000
0  -3.488266 -16.052237 -0.070128  0.000000 1.000000 -0.000015  0.945783 0.513925 1 67 1.000000
lowpoly_plastic
0  -3.528348 -16.565874 0.011095  0.000000 0.000000 1.000000  0.946482 0.514015 1 67 1.000000
0  -3.528348 -16.500023 0.011095  0.000000 0.000000 1.000000  0.946407 0.514015 1 67 1.000000
0  -3.556432 -16.500023 0.011095  0.000000 0.000000 1.000000  0.946407 0.513983 1 67 1.000000
lowpoly_plastic
0  -3.585379 -16.565874 0.000814  -0.334697 0.000000 0.942326  0.946482 0.513950 1 67 1.000000
0  -3.556432 -16.565874 0.011095  -0.334697 0.000000 0.942326  0.946482 0.513983 1 67 1.000000
0  -3.556432 -16.500023 0.011095  -0.334697 0.000000 0.942326  0.946407 0.513983 1 67 1.000000
lowpoly_plastic
0  -3.499401 -16.052237 0.000814  0.334706 0.000000 0.942323  0.948151 0.513480 1 67 1.000000
0  -3.528348 -16.052237 0.011095  0.334706 0.000000 0.942323  0.948151 0.513447 1 67 1.000000
0  -3.528348 -16.118088 0.011095  0.334706 0.000000 0.942323  0.948225 0.513447 1 67 1.000000
lowpoly_plastic
0  -3.643384 -16.565874 -0.297895  0.005120 0.000000 -0.999987  0.948151 0.512916 1 67 1.000000
0  -3.643384 -16.500025 -0.297895  0.005120 0.000000 -0.999987  0.948151 0.512991 1 67 1.000000
0  -3.441508 -16.500025 -0.296861  0.005120 0.000000 -0.999987  0.947921 0.512991 1 67 1.000000
lowpoly_plastic
0  -3.643384 -16.500025 -0.297895  0.005120 0.000000 -0.999987  0.948151 0.512991 1 67 1.000000
0  -3.643384 -16.118088 -0.297895  0.005120 0.000000 -0.999987  0.948151 0.513425 1 67 1.000000
0  -3.441508 -16.118088 -0.296861  0.005120 0.000000 -0.999987  0.947921 0.513425 1 67 1.000000
lowpoly_plastic
0  -3.561743 -16.500023 -0.049189  -0.488725 0.000000 0.872438  0.889909 0.515319 1 67 1.000000
0  -3.561743 -16.118088 -0.049189  -0.488725 0.000000 0.872438  0.889909 0.514884 1 67 1.000000
0  -3.596348 -16.118088 -0.068574  -0.488725 0.000000 0.872438  0.889948 0.514884 1 67 1.000000
lowpoly_plastic
0  -3.488266 -16.500023 -0.070128  0.524803 -0.000001 0.851224  0.889825 0.515319 1 67 1.000000
0  -3.488266 -16.118088 -0.070128  0.524803 -0.000001 0.851224  0.889825 0.514884 1 67 1.000000
0  -3.522369 -16.118088 -0.049103  0.524803 -0.000001 0.851224  0.889864 0.514884 1 67 1.000000
lowpoly_plastic
0  -3.589052 -16.500023 -0.044478  0.000000 1.000000 0.000000  0.888007 0.515911 1 67 1.000000
0  -3.585380 -16.500023 0.000814  0.000000 1.000000 0.000000  0.888059 0.515914 1 67 1.000000
0  -3.561743 -16.500023 -0.049189  0.000000 1.000000 0.000000  0.888003 0.515942 1 67 1.000000
lowpoly_plastic
0  -3.585380 -16.500023 0.000814  0.000000 1.000000 0.000000  0.888059 0.515914 1 67 1.000000
0  -3.556432 -16.500023 0.011095  0.000000 1.000000 0.000000  0.888071 0.515947 1 67 1.000000
0  -3.561743 -16.500023 -0.049189  0.000000 1.000000 0.000000  0.888003 0.515942 1 67 1.000000
lowpoly_plastic
0  -3.556432 -16.500023 0.011095  0.000000 1.000000 0.000000  0.888071 0.515947 1 67 1.000000
0  -3.528348 -16.500023 0.011095  0.000000 1.000000 0.000000  0.888072 0.515979 1 67 1.000000
0  -3.561743 -16.500023 -0.049189  0.000000 1.000000 0.000000  0.888003 0.515942 1 67 1.000000
lowpoly_plastic
0  -3.528348 -16.500023 0.011095  0.000000 1.000000 0.000000  0.888072 0.515979 1 67 1.000000
0  -3.499401 -16.500023 0.000814  0.000000 1.000000 0.000000  0.888060 0.516012 1 67 1.000000
0  -3.522369 -16.500023 -0.049103  0.000000 1.000000 0.000000  0.888003 0.515987 1 67 1.000000
lowpoly_plastic
0  -3.499401 -16.500023 0.000814  0.000000 1.000000 0.000000  0.888060 0.516012 1 67 1.000000
0  -3.495543 -16.500023 -0.046029  0.000000 1.000000 0.000000  0.888007 0.516017 1 67 1.000000
0  -3.522369 -16.500023 -0.049103  0.000000 1.000000 0.000000  0.888003 0.515987 1 67 1.000000
lowpoly_plastic
0  -3.596348 -16.565874 -0.068574  -0.979606 0.000000 0.200930  0.947592 0.513928 1 67 1.000000
0  -3.596348 -16.500023 -0.068574  -0.979606 0.000000 0.200930  0.947592 0.513853 1 67 1.000000
0  -3.643384 -16.500025 -0.297895  -0.979606 0.000000 0.200930  0.947858 0.513853 1 67 1.000000
lowpoly_plastic
0  -3.596348 -16.500023 -0.068574  -0.979607 0.000000 0.200925  0.947592 0.513853 1 67 1.000000
0  -3.596348 -16.118088 -0.068574  -0.979607 0.000000 0.200925  0.947592 0.513419 1 67 1.000000
0  -3.643384 -16.118088 -0.297895  -0.979607 0.000000 0.200925  0.947858 0.513419 1 67 1.000000
lowpoly_plastic
0  -3.596348 -16.565874 -0.068574  -0.986385 0.052241 0.155933  0.947592 0.513928 1 67 1.000000
0  -3.585379 -16.565874 0.000814  -0.986385 0.052241 0.155933  0.947512 0.513928 1 67 1.000000
0  -3.589052 -16.500023 -0.044478  -0.986385 0.052241 0.155933  0.947564 0.513853 1 67 1.000000
lowpoly_plastic
0  -3.585379 -16.565874 0.000814  -0.996729 -0.000010 0.080815  0.947512 0.513928 1 67 1.000000
0  -3.585380 -16.500023 0.000814  -0.996729 -0.000010 0.080815  0.947512 0.513853 1 67 1.000000
0  -3.589052 -16.500023 -0.044478  -0.996729 -0.000010 0.080815  0.947564 0.513853 1 67 1.000000
lowpoly_plastic
0  -3.561743 -16.118088 -0.049189  -0.002186 0.000000 0.999998  0.889909 0.514884 1 67 1.000000
0  -3.561743 -16.500023 -0.049189  -0.002186 0.000000 0.999998  0.889909 0.515319 1 67 1.000000
0  -3.522369 -16.500023 -0.049103  -0.002186 0.000000 0.999998  0.889864 0.515319 1 67 1.000000
lowpoly_plastic
0  -3.556432 -16.118088 0.011095  0.000000 -1.000000 0.000000  0.887889 0.515947 1 67 1.000000
0  -3.585380 -16.118088 0.000814  0.000000 -1.000000 0.000000  0.887901 0.515914 1 67 1.000000
0  -3.561743 -16.118088 -0.049189  0.000000 -1.000000 0.000000  0.887957 0.515942 1 67 1.000000
lowpoly_plastic
0  -3.585380 -16.118088 0.000814  0.000000 -1.000000 0.000000  0.887901 0.515914 1 67 1.000000
0  -3.589052 -16.118088 -0.044478  0.000000 -1.000000 0.000000  0.887952 0.515911 1 67 1.000000
0  -3.561743 -16.118088 -0.049189  0.000000 -1.000000 0.000000  0.887957 0.515942 1 67 1.000000
lowpoly_plastic
0  -3.561743 -16.118088 -0.049189  0.000000 -1.000000 -0.000006  0.887957 0.515942 1 67 1.000000
0  -3.522369 -16.118088 -0.049103  0.000000 -1.000000 -0.000006  0.887957 0.515987 1 67 1.000000
0  -3.528348 -16.118088 0.011095  0.000000 -1.000000 -0.000006  0.887888 0.515979 1 67 1.000000
lowpoly_plastic
0  -3.556432 -16.118088 0.011095  0.000000 -1.000000 0.000000  0.887889 0.515947 1 67 1.000000
0  -3.561743 -16.118088 -0.049189  0.000000 -1.000000 0.000000  0.887957 0.515942 1 67 1.000000
0  -3.528348 -16.118088 0.011095  0.000000 -1.000000 0.000000  0.887888 0.515979 1 67 1.000000
lowpoly_plastic
0  -3.522369 -16.118088 -0.049103  0.000000 -1.000000 -0.000018  0.887957 0.515987 1 67 1.000000
0  -3.495543 -16.118088 -0.046029  0.000000 -1.000000 -0.000018  0.887953 0.516017 1 67 1.000000
0  -3.499401 -16.118088 0.000814  0.000000 -1.000000 -0.000018  0.887900 0.516012 1 67 1.000000
lowpoly_plastic
0  -3.589052 -16.118088 -0.044478  -0.996729 0.000000 0.080815  0.947564 0.513419 1 67 1.000000
0  -3.585380 -16.118088 0.000814  -0.996729 0.000000 0.080815  0.947512 0.513419 1 67 1.000000
0  -3.585380 -16.052237 0.000814  -0.996729 0.000000 0.080815  0.947512 0.513344 1 67 1.000000
lowpoly_plastic
0  -3.585380 -16.052237 0.000814  -0.986387 -0.052231 0.155928  0.947512 0.513344 1 67 1.000000
0  -3.596348 -16.052237 -0.068574  -0.986387 -0.052231 0.155928  0.947592 0.513344 1 67 1.000000
0  -3.589052 -16.118088 -0.044478  -0.986387 -0.052231 0.155928  0.947564 0.513419 1 67 1.000000
lowpoly_plastic
0  -3.596348 -16.118088 -0.068574  -0.979606 0.000000 0.200930  0.947592 0.513419 1 67 1.000000
0  -3.596348 -16.052237 -0.068574  -0.979606 0.000000 0.200930  0.947592 0.513344 1 67 1.000000
0  -3.643384 -16.052237 -0.297895  -0.979606 0.000000 0.200930  0.947858 0.513344 1 67 1.000000
lowpoly_plastic
0  -3.441508 -16.565874 -0.296861  0.979391 0.000000 0.201972  0.946665 0.513366 1 67 1.000000
0  -3.441508 -16.500025 -0.296861  0.979391 0.000000 0.201972  0.946665 0.513441 1 67 1.000000
0  -3.488266 -16.500023 -0.070128  0.979391 0.000000 0.201972  0.946403 0.513441 1 67 1.000000
lowpoly_plastic
0  -3.441508 -16.500025 -0.296861  0.979391 0.000000 0.201974  0.946665 0.513441 1 67 1.000000
0  -3.441508 -16.118088 -0.296861  0.979391 0.000000 0.201974  0.946665 0.513875 1 67 1.000000
0  -3.488266 -16.118088 -0.070128  0.979391 0.000000 0.201974  0.946403 0.513875 1 67 1.000000
lowpoly_plastic
0  -3.499401 -16.565874 0.000814  0.986548 0.052366 0.154855  0.946321 0.513366 1 67 1.000000
0  -3.488266 -16.565874 -0.070128  0.986548 0.052366 0.154855  0.946403 0.513366 1 67 1.000000
0  -3.495543 -16.500023 -0.046029  0.986548 0.052366 0.154855  0.946374 0.513441 1 67 1.000000
lowpoly_plastic
0  -3.488266 -16.565874 -0.070128  0.957298 0.000000 0.289102  0.946403 0.513366 1 67 1.000000
0  -3.488266 -16.500023 -0.070128  0.957298 0.000000 0.289102  0.946403 0.513441 1 67 1.000000
0  -3.495543 -16.500023 -0.046029  0.957298 0.000000 0.289102  0.946374 0.513441 1 67 1.000000
lowpoly_plastic
0  -3.441508 -16.118088 -0.296861  0.979389 0.000000 0.201982  0.946665 0.513875 1 67 1.000000
0  -3.441508 -16.052237 -0.296861  0.979389 0.000000 0.201982  0.946665 0.513950 1 67 1.000000
0  -3.488266 -16.052237 -0.070128  0.979389 0.000000 0.201982  0.946403 0.513950 1 67 1.000000
lowpoly_plastic
0  -3.499401 -16.118088 0.000814  0.996627 0.000000 0.082067  0.946321 0.513875 1 67 1.000000
0  -3.495543 -16.118088 -0.046029  0.996627 0.000000 0.082067  0.946374 0.513875 1 67 1.000000
0  -3.499401 -16.052237 0.000814  0.996627 0.000000 0.082067  0.946321 0.513950 1 67 1.000000
lowpoly_plastic
0  -3.495543 -16.118088 -0.046029  0.957298 0.000000 0.289103  0.946374 0.513875 1 67 1.000000
0  -3.488266 -16.118088 -0.070128  0.957298 0.000000 0.289103  0.946403 0.513875 1 67 1.000000
0  -3.488266 -16.052237 -0.070128  0.957298 0.000000 0.289103  0.946403 0.513950 1 67 1.000000
lowpoly_glow
0  -3.541497 -16.042459 -0.054527  0.000000 1.000000 0.000000  0.440483 0.554318 1 67 1.000000
0  -3.565493 -16.042459 -0.040628  0.000000 1.000000 0.000000  0.440483 0.554287 1 67 1.000000
0  -3.517500 -16.042459 -0.040628  0.000000 1.000000 0.000000  0.440510 0.554334 1 67 1.000000
lowpoly_glow
0  -3.565493 -16.042459 -0.040628  0.000000 1.000000 0.000000  0.440483 0.554287 1 67 1.000000
0  -3.565493 -16.042459 -0.012830  0.000000 1.000000 0.000000  0.440510 0.554271 1 67 1.000000
0  -3.517500 -16.042459 -0.040628  0.000000 1.000000 0.000000  0.440510 0.554334 1 67 1.000000
lowpoly_glow
0  -3.565493 -16.042459 -0.012830  0.000000 1.000000 0.000000  0.440510 0.554271 1 67 1.000000
0  -3.541497 -16.042459 0.001069  0.000000 1.000000 0.000000  0.440537 0.554286 1 67 1.000000
0  -3.517500 -16.042459 -0.012830  0.000000 1.000000 0.000000  0.440537 0.554318 1 67 1.000000
lowpoly_glow
0  -3.565493 -16.577593 -0.012830  0.000000 -1.000000 0.000000  0.442024 0.554273 1 67 1.000000
0  -3.565493 -16.577593 -0.040628  0.000000 -1.000000 0.000000  0.442051 0.554289 1 67 1.000000
0  -3.517500 -16.577593 -0.040628  0.000000 -1.000000 0.000000  0.442024 0.554336 1 67 1.000000
lowpoly_glow
0  -3.565493 -16.577593 -0.040628  0.000000 -1.000000 0.000089  0.442051 0.554289 1 67 1.000000
0  -3.541497 -16.577593 -0.054527  0.000000 -1.000000 0.000089  0.442051 0.554321 1 67 1.000000
0  -3.517500 -16.577593 -0.040628  0.000000 -1.000000 0.000089  0.442024 0.554336 1 67 1.000000
lowpoly_glow
0  -3.517500 -16.577593 -0.040628  0.000000 -1.000000 0.000000  0.442024 0.554336 1 67 1.000000
0  -3.517500 -16.577593 -0.012830  0.000000 -1.000000 0.000000  0.441996 0.554321 1 67 1.000000
0  -3.565493 -16.577593 -0.012830  0.000000 -1.000000 0.000000  0.442024 0.554273 1 67 1.000000
lowpoly_glow
0  -3.517500 -16.042459 -0.012830  1.000000 0.000000 0.000000  0.442651 0.554429 1 67 1.000000
0  -3.517500 -16.577593 -0.012830  1.000000 0.000000 0.000000  0.442651 0.553821 1 67 1.000000
0  -3.517500 -16.577593 -0.040628  1.000000 0.000000 0.000000  0.442682 0.553821 1 67 1.000000
lowpoly_glow
0  -3.541497 -16.042459 0.001069  0.501207 0.000001 0.865327  0.442624 0.553821 1 67 1.000000
0  -3.541497 -16.577593 0.001069  0.501207 0.000001 0.865327  0.442624 0.554429 1 67 1.000000
0  -3.517500 -16.577593 -0.012830  0.501207 0.000001 0.865327  0.442596 0.554429 1 67 1.000000
lowpoly_glow
0  -3.517500 -16.042459 -0.040628  0.501219 -0.000001 -0.865320  0.441996 0.554273 1 67 1.000000
0  -3.517500 -16.577593 -0.040628  0.501219 -0.000001 -0.865320  0.441996 0.553665 1 67 1.000000
0  -3.541497 -16.577593 -0.054527  0.501219 -0.000001 -0.865320  0.442024 0.553665 1 67 1.000000
lowpoly_glow
0  -3.565493 -16.042459 -0.040628  -1.000000 0.000000 0.000000  0.439528 0.553687 1 67 1.000000
0  -3.565493 -16.577593 -0.040628  -1.000000 0.000000 0.000000  0.439528 0.554295 1 67 1.000000
0  -3.565493 -16.577593 -0.012830  -1.000000 0.000000 0.000000  0.439496 0.554295 1 67 1.000000
lowpoly_glow
0  -3.565493 -16.042459 -0.012830  -0.501202 0.000000 0.865330  0.442651 0.553821 1 67 1.000000
0  -3.565493 -16.577593 -0.012830  -0.501202 0.000000 0.865330  0.442651 0.554429 1 67 1.000000
0  -3.541497 -16.577593 0.001069  -0.501202 0.000000 0.865330  0.442624 0.554429 1 67 1.000000
lowpoly_glow
0  -3.541497 -16.042459 -0.054527  -0.501202 0.000000 -0.865330  0.442024 0.554273 1 67 1.000000
0  -3.541497 -16.577593 -0.054527  -0.501202 0.000000 -0.865330  0.442024 0.553665 1 67 1.000000
0  -3.565493 -16.577593 -0.040628  -0.501202 0.000000 -0.865330  0.442051 0.553665 1 67 1.000000
end
