version 1
nodes
0 "ValveBiped.Bip01_Spine4" -1
1 "ValveBiped.Bip01_L_Clavicle" 0
2 "ValveBiped.Bip01_L_UpperArm" 1
3 "ValveBiped.Bip01_L_Forearm" 2
4 "ValveBiped.Bip01_L_Hand" 3
5 "ValveBiped.Bip01_L_Finger4" 4
6 "ValveBiped.Bip01_L_Finger41" 5
7 "ValveBiped.Bip01_L_Finger42" 6
8 "ValveBiped.Bip01_L_Finger3" 4
9 "ValveBiped.Bip01_L_Finger31" 8
10 "ValveBiped.Bip01_L_Finger32" 9
11 "ValveBiped.Bip01_L_Finger2" 4
12 "ValveBiped.Bip01_L_Finger21" 11
13 "ValveBiped.Bip01_L_Finger22" 12
14 "ValveBiped.Bip01_L_Finger1" 4
15 "ValveBiped.Bip01_L_Finger11" 14
16 "ValveBiped.Bip01_L_Finger12" 15
17 "ValveBiped.Bip01_L_Finger0" 4
18 "ValveBiped.Bip01_L_Finger01" 17
19 "ValveBiped.Bip01_L_Finger02" 18
20 "ValveBiped.Bip01_L_Ulna" 3
21 "ValveBiped.Bip01_L_Wrist" 3
22 "rig_l_upperarm" 1
23 "rig_l_forearm" 22
24 "rig_d_l_forearm" 23
25 "rig_d_l_upperarm" 22
26 "ValveBiped.Bip01_R_Clavicle" 0
27 "ValveBiped.Bip01_R_UpperArm" 26
28 "ValveBiped.Bip01_R_Forearm" 27
29 "ValveBiped.Bip01_R_Hand" 28
30 "ValveBiped.Bip01_R_Finger4" 29
31 "ValveBiped.Bip01_R_Finger41" 30
32 "ValveBiped.Bip01_R_Finger42" 31
33 "ValveBiped.Bip01_R_Finger3" 29
34 "ValveBiped.Bip01_R_Finger31" 33
35 "ValveBiped.Bip01_R_Finger32" 34
36 "ValveBiped.Bip01_R_Finger2" 29
37 "ValveBiped.Bip01_R_Finger21" 36
38 "ValveBiped.Bip01_R_Finger22" 37
39 "ValveBiped.Bip01_R_Finger1" 29
40 "ValveBiped.Bip01_R_Finger11" 39
41 "ValveBiped.Bip01_R_Finger12" 40
42 "ValveBiped.Bip01_R_Finger0" 29
43 "ValveBiped.Bip01_R_Finger01" 42
44 "ValveBiped.Bip01_R_Finger02" 43
45 "ValveBiped.Bip01_R_Ulna" 28
46 "ValveBiped.Bip01_R_Wrist" 28
47 "rig_r_upperarm" 26
48 "rig_r_forearm" 47
49 "rig_d_r_forearm" 48
50 "rig_d_r_upperarm" 47
51 "rig_r_hand" -1
52 "rig_d_r_hand" 51
53 "rig_d_r_wrist" 52
54 "rig_l_hand" -1
55 "rig_d_l_hand" 54
56 "rig_d_l_wrist" 54
57 "rig_l_pole" -1
58 "rig_r_pole" -1
59 "rig_l_clavicle" -1
60 "rig_d_l_clavicle" 59
61 "rig_r_clavicle" -1
62 "rig_d_r_clavicle" 61
63 "Camera" -1
64 "body" -1
65 "trigger" 64
66 "bullet1" 64
67 "slide" 64
68 "hammer" 64
69 "sliderelease" 64
70 "barrel" 64
71 "slidesg" 64
72 "grip_safety" 64
73 "safety" 64
74 "magrelease" 64
75 "sg_round" -1
76 "mag" -1
77 "bullet2" 76
78 "bullet3" 76
79 "bullet4" 78
80 "bullet5" 78
81 "bullet6" 78
82 "bullet7" 78
83 "bullet8" 78
84 "bullet9" 78
85 "bullet10" 78
86 "springstart" 76
87 "springend" 86
88 "sg_shell" -1
end
skeleton
time 0
0  0.000006 0.000000 0.000000  -1.570800 -1.391899 -1.570792
1  2.033349 1.000767 1.937657  -1.544956 -1.855077 -0.198630
2  6.027519 -0.000325 0.000208  -2.143567 0.785018 -0.668631
3  11.692112 0.000645 -0.000737  -0.000081 -0.000003 -1.062457
4  11.480341 -0.000210 -0.000731  1.977908 0.206141 0.313878
5  3.859507 -0.142824 -1.192079  -0.468169 0.151546 -0.880257
6  1.312591 0.000011 0.000008  -0.000027 0.000044 -0.439740
7  0.729356 0.000054 0.000049  0.000017 0.000021 -0.244317
8  3.942145 0.046328 -0.431542  -0.151817 0.073216 -0.811086
9  1.539110 0.000084 0.000004  -0.000007 0.000021 -0.247842
10  1.196333 0.000143 0.000029  0.000011 0.000018 -0.430770
11  3.883516 -0.047213 0.431351  0.085894 0.021858 -0.587909
12  1.719572 -0.000031 0.000017  0.000015 0.005518 -0.366533
13  1.209181 0.000090 0.000012  0.000004 0.003091 -0.216438
14  3.859681 -0.138419 1.332380  0.354466 -0.042717 -0.531784
15  1.719448 -0.000020 0.000028  0.000028 0.004066 -0.363025
16  1.099676 0.000050 0.000005  0.000003 0.002578 -0.244381
17  0.806014 -0.349039 1.321248  -1.222694 -0.679188 -0.788867
18  1.789818 -0.000006 -0.000018  0.000011 -0.000024 0.228523
19  1.207014 -0.000014 -0.000041  0.000002 -0.000008 0.362856
20  5.740633 0.000389 -0.000700  0.079065 0.000003 0.000063
21  11.481082 0.000133 -0.000803  0.075193 0.073684 0.050288
22  6.027525 -0.000330 0.000200  -2.352391 -0.091111 0.810625
23  0.000001 11.692099 -0.000007  -0.760917 -0.255891 -0.622326
24  0.000004 0.000009 -0.000000  0.868996 -0.000031 1.570739
25  0.000000 -0.000012 -0.000000  0.868960 0.000002 1.570712
26  2.033355 1.000772 -1.937609  1.473120 1.855075 -0.198639
27  6.027509 -0.000259 -0.000229  1.637176 -0.060228 -0.592196
28  11.691992 0.000163 0.000858  -0.000050 -0.000001 -0.007067
29  11.539204 0.000316 0.000816  -1.562466 0.108529 -0.061253
30  3.859438 -0.132760 1.193065  0.466290 -0.158048 -0.878823
31  1.312559 0.000023 0.000001  0.000013 -0.000043 -0.439709
32  0.729345 0.000065 -0.000027  -0.000023 -0.000019 -0.244286
33  3.942046 0.050138 0.431000  0.150091 -0.079181 -0.810189
34  1.539099 0.000006 0.000000  0.000009 -0.000007 -0.247824
35  1.196302 0.000075 -0.000004  -0.000007 -0.000009 -0.430781
36  3.883415 -0.050474 -0.431084  -0.085915 -0.026392 -0.587660
37  1.719564 -0.000085 -0.000004  -0.000006 -0.007962 -0.366486
38  1.209197 0.000034 0.000011  0.000002 -0.004461 -0.216413
39  3.859588 -0.149084 -1.331321  -0.354445 0.038578 -0.531955
40  1.719413 -0.000099 -0.000036  -0.000030 -0.006584 -0.363030
41  1.099674 0.000025 0.000006  0.000004 -0.004188 -0.244347
42  0.805982 -0.359850 -1.318338  1.221444 0.673631 -0.793558
43  1.789779 -0.000010 -0.000040  -0.000028 0.000031 0.228553
44  1.206995 -0.000006 0.000007  -0.000017 0.000020 0.362910
45  5.740573 0.000079 0.000723  0.026990 -0.000014 0.000028
46  11.492787 0.000137 0.000908  0.000504 0.000315 -0.022541
47  6.027515 -0.000273 -0.000228  0.074799 -0.634128 -2.207435
48  -0.000001 11.691977 -0.000007  -0.005397 0.000036 0.004562
49  0.000002 -0.000001 0.000001  2.272571 -0.000036 1.570860
50  -0.000008 -0.000014 0.000004  2.272645 -0.000036 1.570861
51  -22.620094 0.844507 -17.554111  -1.605366 2.379717 -0.041994
52  -0.000000 0.000001 -0.000000  0.008153 -0.000259 0.000009
53  0.000001 -0.000001 0.000000  1.565115 0.043565 -0.106862
54  22.730511 4.822210 -11.506547  1.605712 0.761853 0.042358
55  0.000000 -0.000002 -0.000000  0.000000 -0.000001 -0.000002
56  0.000031 0.000027 0.000001  -1.571901 -0.044449 -0.106509
57  15.265023 8.339654 -8.787539  1.570796 -0.000000 0.000000
58  -15.265000 8.339654 -8.787539  1.570796 -0.000000 0.000000
59  1.941978 -1.346989 1.821586  1.570796 -0.000000 0.000000
60  -0.004311 0.001230 -0.000371  0.006898 -0.005534 -0.284229
61  -1.937603 -1.346625 1.822824  1.570796 -0.000000 0.000000
62  0.000000 0.000000 0.000000  -0.078727 -3.136056 0.284226
63  0.000000 0.000000 0.000000  1.570796 -0.000000 0.000000
64  -3.534368 -10.111034 -2.851932  1.570796 -0.000000 0.000000
65  -0.008022 0.449004 2.449477  0.000000 -0.000000 0.000000
66  -0.008021 1.798499 0.936337  0.000000 -0.000000 0.000000
67  0.000000 2.151127 2.901127  0.000000 -0.000000 0.000000
68  -0.008023 1.347420 0.085285  0.000000 -0.000000 0.000000
69  0.230628 1.332312 3.105305  0.000000 -0.000000 0.000000
70  -0.008024 2.172907 7.984051  0.000000 -0.000000 0.000000
71  -0.008022 1.228065 5.810776  0.000000 -0.000000 0.000000
72  -0.008023 1.115505 -0.313082  0.000000 -0.000000 0.000000
73  -0.008023 1.345870 0.084164  1.570796 -0.000000 -0.000000
74  -0.008023 0.197514 1.902819  0.000000 -0.000000 0.000000
75  -3.542390 -12.021312 -0.689985  1.570796 -0.000000 0.000000
76  -3.534368 -10.839828 -0.901454  1.570796 -0.000000 0.000000
77  -0.008021 -0.653745 0.060182  0.000000 -0.000000 0.000000
78  -0.008021 -1.155510 -0.087180  0.000000 -0.000000 0.000000
79  0.000000 -0.501765 -0.147367  0.000000 -0.000000 0.000000
80  0.000000 -1.003531 -0.294728  0.000000 -0.000000 0.000000
81  0.000000 -1.505297 -0.442090  0.000000 -0.000000 0.000000
82  0.000000 -2.007061 -0.589454  0.000000 -0.000000 0.000000
83  0.000000 -2.508827 -0.736814  0.000000 -0.000000 0.000000
84  0.000000 -2.772560 -0.939010  0.000000 -0.000000 0.000000
85  0.000000 -3.071457 -1.220325  0.000000 -0.000000 0.000000
86  -0.283371 -4.518086 -0.534134  0.346743 -0.000000 -0.000000
87  -0.000000 4.582804 -0.219900  -0.051302 0.000000 0.000000
88  -3.542390 -12.021312 -0.689985  1.570796 -0.000000 0.000000
end
triangles
lowpoly_plastic
0  -3.287084 -10.262594 -0.275207  0.000000 -0.001550 -0.999999  0.006723 0.762509 1 67 1.000000
0  -3.828867 -10.742168 -0.274464  0.000000 -0.001550 -0.999999  0.006721 0.762507 1 67 1.000000
0  -3.797508 -10.262594 -0.275207  0.000000 -0.001550 -0.999999  0.006723 0.762507 1 67 1.000000
lowpoly_plastic
0  -3.255737 -11.187685 -0.359837  0.000000 -0.892051 0.451935  0.011583 0.750966 1 67 1.000000
0  -3.828854 -11.144758 -0.275107  0.000000 -0.892051 0.451935  0.011578 0.750938 1 67 1.000000
0  -3.828854 -11.187685 -0.359837  0.000000 -0.892051 0.451935  0.011583 0.750938 1 67 1.000000
lowpoly_plastic
0  -3.255737 -10.702391 -0.359837  1.000000 0.000000 0.000000  0.010421 0.752493 1 67 1.000000
0  -3.255737 -11.144758 -0.275107  1.000000 0.000000 0.000000  0.010428 0.752514 1 67 1.000000
0  -3.255737 -11.187685 -0.359837  1.000000 0.000000 0.000000  0.010424 0.752517 1 67 1.000000
lowpoly_plastic
0  -3.255737 -11.187685 -0.359837  0.000000 -0.000000 -1.000000  0.011481 0.752488 1 67 1.000000
0  -3.828854 -10.702391 -0.359837  0.000000 -0.000000 -1.000000  0.011505 0.752460 1 67 1.000000
0  -3.255737 -10.702391 -0.359837  0.000000 -0.000000 -1.000000  0.011505 0.752488 1 67 1.000000
lowpoly_plastic
0  -3.805048 -10.292065 -0.190845  -0.963545 0.001287 0.267542  0.011558 0.752050 1 67 1.000000
0  -3.819451 -10.273912 -0.242804  -0.963545 0.001287 0.267542  0.011561 0.752050 1 67 1.000000
0  -3.828867 -10.742168 -0.274464  -0.963545 0.001287 0.267542  0.011560 0.752073 1 67 1.000000
lowpoly_plastic
0  -3.279543 -11.105351 -0.228659  0.875672 -0.053128 0.479975  0.010430 0.752512 1 67 1.000000
0  -3.305389 -10.325480 -0.095180  0.875672 -0.053128 0.479975  0.010431 0.752473 1 67 1.000000
0  -3.298261 -11.074105 -0.191052  0.875672 -0.053128 0.479975  0.010431 0.752510 1 67 1.000000
lowpoly_plastic
0  -3.805048 -11.105351 -0.228659  -0.027805 -0.755162 0.654948  0.011576 0.750939 1 67 1.000000
0  -3.828854 -11.144758 -0.275107  -0.027805 -0.755162 0.654948  0.011578 0.750938 1 67 1.000000
0  -3.648182 -11.105351 -0.221999  -0.027805 -0.755162 0.654948  0.011575 0.750947 1 67 1.000000
lowpoly_plastic
0  -3.786330 -11.074105 -0.191052  -0.444354 -0.123800 0.887256  0.011585 0.751688 1 67 1.000000
0  -3.722926 -11.044263 -0.155134  -0.444354 -0.123800 0.887256  0.011582 0.751686 1 67 1.000000
0  -3.722926 -10.571686 -0.089194  -0.444354 -0.123800 0.887256  0.011582 0.751663 1 67 1.000000
lowpoly_plastic
0  -3.436409 -11.105351 -0.221999  0.021530 -0.749974 0.661117  0.011575 0.750958 1 67 1.000000
0  -3.298261 -11.074105 -0.191052  0.021530 -0.749974 0.661117  0.011574 0.750964 1 67 1.000000
0  -3.361665 -11.044263 -0.155134  0.021530 -0.749974 0.661117  0.011572 0.750961 1 67 1.000000
lowpoly_plastic
0  -3.255737 -11.144758 -0.275107  0.027805 -0.755161 0.654949  0.011578 0.750966 1 67 1.000000
0  -3.279543 -11.105351 -0.228659  0.027805 -0.755161 0.654949  0.011576 0.750965 1 67 1.000000
0  -3.436409 -11.105351 -0.221999  0.027805 -0.755161 0.654949  0.011575 0.750958 1 67 1.000000
lowpoly_plastic
0  -3.255737 -11.144758 -0.275107  0.000000 -0.803083 0.595867  0.011578 0.750966 1 67 1.000000
0  -3.648182 -11.105351 -0.221999  0.000000 -0.803083 0.595867  0.011575 0.750947 1 67 1.000000
0  -3.828854 -11.144758 -0.275107  0.000000 -0.803083 0.595867  0.011578 0.750938 1 67 1.000000
lowpoly_plastic
0  -3.805048 -11.105351 -0.228659  -0.000015 -0.769141 0.639079  0.011576 0.750939 1 67 1.000000
0  -3.722926 -11.044263 -0.155134  -0.000015 -0.769141 0.639079  0.011572 0.750944 1 67 1.000000
0  -3.786330 -11.074105 -0.191052  -0.000015 -0.769141 0.639079  0.011574 0.750940 1 67 1.000000
lowpoly_plastic
0  -3.578663 -10.592473 -0.175454  0.869699 -0.074537 0.487922  0.008229 0.763833 1 67 1.000000
0  -3.625275 -10.377159 -0.059478  0.869699 -0.074537 0.487922  0.008229 0.763832 1 67 1.000000
0  -3.625275 -10.571686 -0.089194  0.869699 -0.074537 0.487922  0.008229 0.763833 1 67 1.000000
lowpoly_plastic
0  -3.828854 -11.187685 -0.359837  -1.000000 0.000000 -0.000154  0.011561 0.752095 1 67 1.000000
0  -3.828867 -10.742168 -0.274464  -1.000000 0.000000 -0.000154  0.011560 0.752073 1 67 1.000000
0  -3.828854 -10.702391 -0.359837  -1.000000 0.000000 -0.000154  0.011564 0.752071 1 67 1.000000
lowpoly_plastic
0  -3.459316 -10.571686 -0.089194  -0.870725 -0.068376 0.486994  0.008229 0.763832 1 67 1.000000
0  -3.505928 -10.377159 -0.145224  -0.870725 -0.068376 0.486994  0.008229 0.763831 1 67 1.000000
0  -3.505928 -10.592473 -0.175454  -0.870725 -0.068376 0.486994  0.008229 0.763832 1 67 1.000000
lowpoly_plastic
0  -3.786330 -11.074105 -0.191052  -0.887844 -0.021371 0.459647  0.011553 0.752088 1 67 1.000000
0  -3.805048 -10.292065 -0.190845  -0.887844 -0.021371 0.459647  0.011558 0.752050 1 67 1.000000
0  -3.805048 -11.105351 -0.228659  -0.887844 -0.021371 0.459647  0.011555 0.752090 1 67 1.000000
lowpoly_plastic
0  -3.279543 -11.105351 -0.228659  0.934673 -0.016512 0.355124  0.010430 0.752512 1 67 1.000000
0  -3.255724 -10.742168 -0.274464  0.934673 -0.016512 0.355124  0.010425 0.752495 1 67 1.000000
0  -3.279543 -10.292065 -0.190845  0.934673 -0.016512 0.355124  0.010426 0.752472 1 67 1.000000
lowpoly_plastic
0  -3.505928 -10.592473 -0.175454  0.000000 -0.139037 0.990287  0.008230 0.763775 1 67 1.000000
0  -3.578663 -10.377159 -0.145224  0.000000 -0.139037 0.990287  0.008230 0.763775 1 67 1.000000
0  -3.578663 -10.592473 -0.175454  0.000000 -0.139037 0.990287  0.008230 0.763775 1 67 1.000000
lowpoly_plastic
0  -3.648182 -10.592473 -0.221999  0.000000 -0.987970 0.154644  0.008226 0.763776 1 67 1.000000
0  -3.625275 -10.571686 -0.089194  0.000000 -0.987970 0.154644  0.008225 0.763776 1 67 1.000000
0  -3.722926 -10.571686 -0.089194  0.000000 -0.987970 0.154644  0.008225 0.763776 1 67 1.000000
lowpoly_plastic
0  -3.797508 -10.262594 -0.275207  0.000060 0.944056 0.329784  0.011572 0.750664 1 67 1.000000
0  -3.819451 -10.273912 -0.242804  0.000060 0.944056 0.329784  0.011574 0.750663 1 67 1.000000
0  -3.805048 -10.292065 -0.190845  0.000060 0.944056 0.329784  0.011577 0.750664 1 67 1.000000
lowpoly_plastic
0  -3.361665 -11.044263 -0.155134  0.444354 -0.123800 0.887256  0.011581 0.751649 1 67 1.000000
0  -3.298261 -11.074105 -0.191052  0.444354 -0.123800 0.887256  0.011577 0.751651 1 67 1.000000
0  -3.361665 -10.571686 -0.089194  0.444354 -0.123800 0.887256  0.011580 0.751626 1 67 1.000000
lowpoly_plastic
0  -3.668227 -10.377411 -0.100534  0.003652 0.999993 0.000592  0.005335 0.764407 1 67 1.000000
0  -3.722944 -10.377159 -0.188208  0.003652 0.999993 0.000592  0.005334 0.764407 1 67 1.000000
0  -3.722944 -10.377235 -0.059373  0.003652 0.999993 0.000592  0.005335 0.764407 1 67 1.000000
lowpoly_plastic
0  -3.298261 -11.074105 -0.191052  0.536217 -0.102196 0.837871  0.011577 0.751651 1 67 1.000000
0  -3.305389 -10.325480 -0.095180  0.536217 -0.102196 0.837871  0.011577 0.751614 1 67 1.000000
0  -3.361665 -10.571686 -0.089194  0.536217 -0.102196 0.837871  0.011580 0.751626 1 67 1.000000
lowpoly_plastic
0  -3.828854 -10.702391 -0.359837  0.000000 0.906443 0.422329  0.006836 0.762513 1 67 1.000000
0  -3.255724 -10.742168 -0.274464  0.000000 0.906443 0.422329  0.006837 0.762515 1 67 1.000000
0  -3.255737 -10.702391 -0.359837  0.000000 0.906443 0.422329  0.006836 0.762515 1 67 1.000000
lowpoly_plastic
0  -3.255724 -10.742168 -0.274464  0.835428 0.053782 -0.546963  0.010425 0.752495 1 67 1.000000
0  -3.287084 -10.262594 -0.275207  0.835428 0.053782 -0.546963  0.010422 0.752471 1 67 1.000000
0  -3.265140 -10.273912 -0.242804  0.835428 0.053782 -0.546963  0.010424 0.752472 1 67 1.000000
lowpoly_plastic
0  -3.797508 -10.262594 -0.275207  -0.835428 0.053781 -0.546963  0.011563 0.752049 1 67 1.000000
0  -3.828867 -10.742168 -0.274464  -0.835428 0.053781 -0.546963  0.011560 0.752073 1 67 1.000000
0  -3.819451 -10.273912 -0.242804  -0.835428 0.053781 -0.546963  0.011561 0.752050 1 67 1.000000
lowpoly_plastic
0  -3.361647 -10.339380 -0.055394  0.014840 0.937222 0.348417  0.011583 0.750686 1 67 1.000000
0  -3.305389 -10.325480 -0.095180  0.014840 0.937222 0.348417  0.011581 0.750689 1 67 1.000000
0  -3.361647 -10.289290 -0.190133  0.014840 0.937222 0.348417  0.011577 0.750686 1 67 1.000000
lowpoly_plastic
0  -3.722944 -10.289290 -0.190133  0.000000 0.954128 0.299398  0.011577 0.750668 1 67 1.000000
0  -3.287084 -10.262594 -0.275207  0.000000 0.954128 0.299398  0.011572 0.750690 1 67 1.000000
0  -3.797508 -10.262594 -0.275207  0.000000 0.954128 0.299398  0.011572 0.750664 1 67 1.000000
lowpoly_plastic
0  -3.779202 -10.325480 -0.095180  0.000052 0.944068 0.329752  0.011581 0.750665 1 67 1.000000
0  -3.722944 -10.339380 -0.055394  0.000052 0.944068 0.329752  0.011583 0.750668 1 67 1.000000
0  -3.805048 -10.292065 -0.190845  0.000052 0.944068 0.329752  0.011577 0.750664 1 67 1.000000
lowpoly_plastic
0  -3.436409 -10.592473 -0.221999  0.000000 -1.000000 0.000024  0.008226 0.763777 1 67 1.000000
0  -3.578663 -10.592473 -0.175454  0.000000 -1.000000 0.000024  0.008225 0.763777 1 67 1.000000
0  -3.648182 -10.592473 -0.221999  0.000000 -1.000000 0.000024  0.008226 0.763776 1 67 1.000000
lowpoly_plastic
0  -3.305389 -10.325480 -0.095180  0.034709 0.940543 0.337896  0.011581 0.750689 1 67 1.000000
0  -3.279543 -10.292065 -0.190845  0.034709 0.940543 0.337896  0.011577 0.750690 1 67 1.000000
0  -3.361647 -10.289290 -0.190133  0.034709 0.940543 0.337896  0.011577 0.750686 1 67 1.000000
lowpoly_plastic
0  -3.805048 -10.292065 -0.190845  -0.034671 0.936763 0.348242  0.011577 0.750664 1 67 1.000000
0  -3.722944 -10.339380 -0.055394  -0.034671 0.936763 0.348242  0.011583 0.750668 1 67 1.000000
0  -3.722944 -10.289290 -0.190133  -0.034671 0.936763 0.348242  0.011577 0.750668 1 67 1.000000
lowpoly_plastic
0  -3.361665 -11.044263 -0.155134  -0.666733 -0.000000 0.745296  0.008216 0.763884 1 67 1.000000
0  -3.436409 -10.592473 -0.221999  -0.666733 -0.000000 0.745296  0.008217 0.763882 1 67 1.000000
0  -3.436409 -11.105351 -0.221999  -0.666733 -0.000000 0.745296  0.008216 0.763884 1 67 1.000000
lowpoly_plastic
0  -3.279543 -10.292065 -0.190845  -0.000060 0.944056 0.329784  0.011577 0.750690 1 67 1.000000
0  -3.265140 -10.273912 -0.242804  -0.000060 0.944056 0.329784  0.011574 0.750691 1 67 1.000000
0  -3.287084 -10.262594 -0.275207  -0.000060 0.944056 0.329784  0.011572 0.750690 1 67 1.000000
lowpoly_plastic
0  -3.361665 -10.571686 -0.089194  0.075414 -0.990770 0.112642  0.008225 0.763777 1 67 1.000000
0  -3.505928 -10.592473 -0.175454  0.075414 -0.990770 0.112642  0.008225 0.763777 1 67 1.000000
0  -3.436409 -10.592473 -0.221999  0.075414 -0.990770 0.112642  0.008226 0.763777 1 67 1.000000
lowpoly_plastic
0  -3.648182 -11.105351 -0.221999  0.611611 -0.109332 0.783568  0.008218 0.763884 1 67 1.000000
0  -3.722926 -10.571686 -0.089194  0.611611 -0.109332 0.783568  0.008219 0.763882 1 67 1.000000
0  -3.722926 -11.044263 -0.155134  0.611611 -0.109332 0.783568  0.008219 0.763884 1 67 1.000000
lowpoly_glow
0  -3.669260 -10.377312 -0.129846  -0.999380 -0.000103 0.035215  0.437974 0.585335 1 67 1.000000
0  -3.668227 -10.362627 -0.100484  -0.999380 -0.000103 0.035215  0.437976 0.585330 1 67 1.000000
0  -3.669260 -10.362528 -0.129796  -0.999380 -0.000103 0.035215  0.437976 0.585335 1 67 1.000000
lowpoly_glow
0  -3.416597 -10.377408 -0.101231  0.999887 -0.000034 0.015024  0.437979 0.585330 1 67 1.000000
0  -3.416156 -10.362526 -0.130501  0.999887 -0.000034 0.015024  0.437976 0.585335 1 67 1.000000
0  -3.416597 -10.362625 -0.101182  0.999887 -0.000034 0.015024  0.437976 0.585330 1 67 1.000000
lowpoly_glow
0  -3.466939 -10.377352 -0.131314  -0.999887 0.000069 -0.015024  0.437979 0.585335 1 67 1.000000
0  -3.467380 -10.362669 -0.101945  -0.999887 0.000069 -0.015024  0.437981 0.585330 1 67 1.000000
0  -3.466939 -10.362569 -0.131264  -0.999887 0.000069 -0.015024  0.437981 0.585335 1 67 1.000000
lowpoly_glow
0  -3.668227 -10.377411 -0.100534  -0.469163 -0.002990 0.883106  0.437958 0.585330 1 67 1.000000
0  -3.642326 -10.362698 -0.086722  -0.469163 -0.002990 0.883106  0.437955 0.585334 1 67 1.000000
0  -3.668227 -10.362627 -0.100484  -0.469163 -0.002990 0.883106  0.437955 0.585330 1 67 1.000000
lowpoly_plastic
0  -3.722944 -10.377235 -0.059373  -0.609421 -0.120247 0.783675  0.011582 0.751653 1 67 1.000000
0  -3.779202 -10.325480 -0.095180  -0.609421 -0.120247 0.783675  0.011585 0.751651 1 67 1.000000
0  -3.722926 -10.571686 -0.089194  -0.609421 -0.120247 0.783675  0.011582 0.751663 1 67 1.000000
lowpoly_plastic
0  -3.779202 -10.325480 -0.095180  -0.536216 -0.102196 0.837872  0.011585 0.751651 1 67 1.000000
0  -3.786330 -11.074105 -0.191052  -0.536216 -0.102196 0.837872  0.011585 0.751688 1 67 1.000000
0  -3.722926 -10.571686 -0.089194  -0.536216 -0.102196 0.837872  0.011582 0.751663 1 67 1.000000
lowpoly_plastic
0  -3.361647 -10.377235 -0.059373  0.609421 -0.120246 0.783675  0.011580 0.751616 1 67 1.000000
0  -3.361665 -10.571686 -0.089194  0.609421 -0.120246 0.783675  0.011580 0.751626 1 67 1.000000
0  -3.305389 -10.325480 -0.095180  0.609421 -0.120246 0.783675  0.011577 0.751614 1 67 1.000000
lowpoly_plastic
0  -3.722944 -10.377235 -0.059373  -0.589141 -0.084449 0.803605  0.011582 0.751653 1 67 1.000000
0  -3.722944 -10.339380 -0.055394  -0.589141 -0.084449 0.803605  0.011582 0.751651 1 67 1.000000
0  -3.779202 -10.325480 -0.095180  -0.589141 -0.084449 0.803605  0.011585 0.751651 1 67 1.000000
lowpoly_plastic
0  -3.361647 -10.377235 -0.059373  0.589162 -0.084463 0.803588  0.011580 0.751616 1 67 1.000000
0  -3.305389 -10.325480 -0.095180  0.589162 -0.084463 0.803588  0.011577 0.751614 1 67 1.000000
0  -3.361647 -10.339380 -0.055394  0.589162 -0.084463 0.803588  0.011580 0.751614 1 67 1.000000
lowpoly_plastic
0  -3.459316 -10.571686 -0.089194  -0.001184 -0.151011 0.988531  0.011585 0.751626 1 67 1.000000
0  -3.361647 -10.377235 -0.059373  -0.001184 -0.151011 0.988531  0.011580 0.751616 1 67 1.000000
0  -3.459316 -10.377159 -0.059478  -0.001184 -0.151011 0.988531  0.011585 0.751616 1 67 1.000000
lowpoly_plastic
0  -3.625275 -10.571686 -0.089194  0.000000 -0.151591 0.988443  0.011577 0.751663 1 67 1.000000
0  -3.722944 -10.377235 -0.059373  0.000000 -0.151591 0.988443  0.011582 0.751653 1 67 1.000000
0  -3.722926 -10.571686 -0.089194  0.000000 -0.151591 0.988443  0.011582 0.751663 1 67 1.000000
lowpoly_plastic
0  -3.279543 -10.292065 -0.190845  0.034744 0.944436 0.326853  0.011577 0.750690 1 67 1.000000
0  -3.287084 -10.262594 -0.275207  0.034744 0.944436 0.326853  0.011572 0.750690 1 67 1.000000
0  -3.361647 -10.289290 -0.190133  0.034744 0.944436 0.326853  0.011577 0.750686 1 67 1.000000
lowpoly_plastic
0  -3.722944 -10.289290 -0.190133  -0.034744 0.944439 0.326844  0.011577 0.750668 1 67 1.000000
0  -3.797508 -10.262594 -0.275207  -0.034744 0.944439 0.326844  0.011572 0.750664 1 67 1.000000
0  -3.805048 -10.292065 -0.190845  -0.034744 0.944439 0.326844  0.011577 0.750664 1 67 1.000000
lowpoly_plastic
0  -3.644391 -10.377281 -0.145396  -0.000869 -0.999994 -0.003388  0.005334 0.764408 1 67 1.000000
0  -3.668227 -10.377411 -0.100534  -0.000869 -0.999994 -0.003388  0.005335 0.764407 1 67 1.000000
0  -3.669260 -10.377312 -0.129846  -0.000869 -0.999994 -0.003388  0.005334 0.764407 1 67 1.000000
lowpoly_plastic
0  -3.578663 -10.377159 -0.145224  -0.001874 0.999978 0.006300  0.005334 0.764409 1 67 1.000000
0  -3.722944 -10.377159 -0.188208  -0.001874 0.999978 0.006300  0.005334 0.764407 1 67 1.000000
0  -3.644391 -10.377281 -0.145396  -0.001874 0.999978 0.006300  0.005334 0.764408 1 67 1.000000
lowpoly_plastic
0  -3.578663 -10.377159 -0.145224  0.000000 1.000000 0.000000  0.005334 0.764409 1 67 1.000000
0  -3.361647 -10.377159 -0.188208  0.000000 1.000000 0.000000  0.005334 0.764411 1 67 1.000000
0  -3.722944 -10.377159 -0.188208  0.000000 1.000000 0.000000  0.005334 0.764407 1 67 1.000000
lowpoly_plastic
0  -3.361647 -10.289290 -0.190133  -1.000000 0.000000 0.000000  0.005354 0.764218 1 67 1.000000
0  -3.361647 -10.377235 -0.059373  -1.000000 0.000000 0.000000  0.005353 0.764216 1 67 1.000000
0  -3.361647 -10.339380 -0.055394  -1.000000 0.000000 0.000000  0.005353 0.764216 1 67 1.000000
lowpoly_plastic
0  -3.722944 -10.289290 -0.190133  0.000000 0.021901 0.999760  0.005339 0.764314 1 67 1.000000
0  -3.361647 -10.377159 -0.188208  0.000000 0.021901 0.999760  0.005340 0.764319 1 67 1.000000
0  -3.361647 -10.289290 -0.190133  0.000000 0.021901 0.999760  0.005339 0.764319 1 67 1.000000
lowpoly_plastic
0  -3.722944 -10.377235 -0.059373  1.000000 0.000000 0.000000  0.005354 0.764215 1 67 1.000000
0  -3.722944 -10.289290 -0.190133  1.000000 0.000000 0.000000  0.005353 0.764216 1 67 1.000000
0  -3.722944 -10.339380 -0.055394  1.000000 0.000000 0.000000  0.005354 0.764215 1 67 1.000000
lowpoly_plastic
0  -3.578663 -10.377159 -0.145224  -0.001880 0.999962 0.008543  0.005334 0.764409 1 67 1.000000
0  -3.644391 -10.377281 -0.145396  -0.001880 0.999962 0.008543  0.005334 0.764408 1 67 1.000000
0  -3.618490 -10.377351 -0.131635  -0.001880 0.999962 0.008543  0.005334 0.764408 1 67 1.000000
lowpoly_plastic
0  -3.625275 -10.377159 -0.059478  -0.005909 0.999977 -0.003193  0.005335 0.764408 1 67 1.000000
0  -3.578663 -10.377159 -0.145224  -0.005909 0.999977 -0.003193  0.005334 0.764409 1 67 1.000000
0  -3.618490 -10.377351 -0.131635  -0.005909 0.999977 -0.003193  0.005334 0.764408 1 67 1.000000
lowpoly_plastic
0  -3.625275 -10.377159 -0.059478  -0.006149 0.999949 -0.007956  0.005335 0.764408 1 67 1.000000
0  -3.617457 -10.377451 -0.102323  -0.006149 0.999949 -0.007956  0.005335 0.764408 1 67 1.000000
0  -3.642326 -10.377481 -0.086772  -0.006149 0.999949 -0.007956  0.005335 0.764408 1 67 1.000000
lowpoly_plastic
0  -3.642326 -10.377481 -0.086772  0.002903 0.999996 -0.000393  0.005335 0.764408 1 67 1.000000
0  -3.668227 -10.377411 -0.100534  0.002903 0.999996 -0.000393  0.005335 0.764407 1 67 1.000000
0  -3.722944 -10.377235 -0.059373  0.002903 0.999996 -0.000393  0.005335 0.764407 1 67 1.000000
lowpoly_plastic
0  -3.625275 -10.377159 -0.059478  -0.000793 0.999936 -0.011261  0.005335 0.764408 1 67 1.000000
0  -3.642326 -10.377481 -0.086772  -0.000793 0.999936 -0.011261  0.005335 0.764408 1 67 1.000000
0  -3.722944 -10.377235 -0.059373  -0.000793 0.999936 -0.011261  0.005335 0.764407 1 67 1.000000
lowpoly_plastic
0  -3.505928 -10.377159 -0.145224  0.001926 0.999977 0.006477  0.005334 0.764410 1 67 1.000000
0  -3.441327 -10.377281 -0.145592  0.001926 0.999977 0.006477  0.005334 0.764410 1 67 1.000000
0  -3.361647 -10.377159 -0.188208  0.001926 0.999977 0.006477  0.005334 0.764411 1 67 1.000000
lowpoly_plastic
0  -3.441327 -10.377281 -0.145592  -0.000002 0.999996 0.002858  0.005334 0.764410 1 67 1.000000
0  -3.416597 -10.377408 -0.101231  -0.000002 0.999996 0.002858  0.005335 0.764411 1 67 1.000000
0  -3.361647 -10.377159 -0.188208  -0.000002 0.999996 0.002858  0.005334 0.764411 1 67 1.000000
lowpoly_plastic
0  -3.416597 -10.377408 -0.101231  -0.003592 0.999993 0.000589  0.005335 0.764411 1 67 1.000000
0  -3.361647 -10.377235 -0.059373  -0.003592 0.999993 0.000589  0.005335 0.764411 1 67 1.000000
0  -3.361647 -10.377159 -0.188208  -0.003592 0.999993 0.000589  0.005334 0.764411 1 67 1.000000
lowpoly_plastic
0  -3.505928 -10.377159 -0.145224  0.001937 0.999963 0.008422  0.005334 0.764410 1 67 1.000000
0  -3.466939 -10.377352 -0.131314  0.001937 0.999963 0.008422  0.005334 0.764410 1 67 1.000000
0  -3.441327 -10.377281 -0.145592  0.001937 0.999963 0.008422  0.005334 0.764410 1 67 1.000000
lowpoly_plastic
0  -3.459316 -10.377159 -0.059478  0.006130 0.999976 -0.003340  0.005335 0.764410 1 67 1.000000
0  -3.466939 -10.377352 -0.131314  0.006130 0.999976 -0.003340  0.005334 0.764410 1 67 1.000000
0  -3.505928 -10.377159 -0.145224  0.006130 0.999976 -0.003340  0.005334 0.764410 1 67 1.000000
lowpoly_plastic
0  -3.459316 -10.377159 -0.059478  0.049994 -0.998746 -0.002625  0.005335 0.764410 1 67 1.000000
0  -3.467380 -10.377451 -0.101994  0.049994 -0.998746 -0.002625  0.005335 0.764410 1 67 1.000000
0  -3.466939 -10.377352 -0.131314  0.049994 -0.998746 -0.002625  0.005334 0.764410 1 67 1.000000
lowpoly_plastic
0  -3.442209 -10.377480 -0.086953  -0.002940 0.999996 -0.000193  0.005335 0.764410 1 67 1.000000
0  -3.361647 -10.377235 -0.059373  -0.002940 0.999996 -0.000193  0.005335 0.764411 1 67 1.000000
0  -3.416597 -10.377408 -0.101231  -0.002940 0.999996 -0.000193  0.005335 0.764411 1 67 1.000000
lowpoly_plastic
0  -3.459316 -10.377159 -0.059478  0.000793 0.999937 -0.011186  0.005335 0.764410 1 67 1.000000
0  -3.361647 -10.377235 -0.059373  0.000793 0.999937 -0.011186  0.005335 0.764411 1 67 1.000000
0  -3.442209 -10.377480 -0.086953  0.000793 0.999937 -0.011186  0.005335 0.764410 1 67 1.000000
lowpoly_plastic
0  -3.564947 -10.946476 -0.221999  0.000000 0.000000 1.000000  0.008210 0.763881 1 67 1.000000
0  -3.648182 -11.105351 -0.221999  0.000000 0.000000 1.000000  0.008210 0.763882 1 67 1.000000
0  -3.436409 -11.105351 -0.221999  0.000000 0.000000 1.000000  0.008209 0.763882 1 67 1.000000
lowpoly_plastic
0  -3.625170 -10.842288 -0.221999  0.000001 0.000000 1.000000  0.008210 0.763881 1 67 1.000000
0  -3.648182 -10.592473 -0.221999  0.000001 0.000000 1.000000  0.008210 0.763880 1 67 1.000000
0  -3.648182 -11.105351 -0.221999  0.000001 0.000000 1.000000  0.008210 0.763882 1 67 1.000000
lowpoly_plastic
0  -3.519644 -10.782828 -0.221999  0.000000 0.000000 1.000000  0.008210 0.763881 1 67 1.000000
0  -3.436409 -10.592473 -0.221999  0.000000 0.000000 1.000000  0.008209 0.763880 1 67 1.000000
0  -3.648182 -10.592473 -0.221999  0.000000 0.000000 1.000000  0.008210 0.763880 1 67 1.000000
lowpoly_plastic
0  -3.459421 -10.887016 -0.221999  0.000001 0.000000 1.000000  0.008210 0.763881 1 67 1.000000
0  -3.436409 -11.105351 -0.221999  0.000001 0.000000 1.000000  0.008209 0.763882 1 67 1.000000
0  -3.436409 -10.592473 -0.221999  0.000001 0.000000 1.000000  0.008209 0.763880 1 67 1.000000
lowpoly_plastic
0  -3.519644 -10.782828 -0.221999  -0.000001 0.000000 1.000000  0.008210 0.763881 1 67 1.000000
0  -3.459421 -10.887016 -0.221999  -0.000001 0.000000 1.000000  0.008210 0.763881 1 67 1.000000
0  -3.436409 -10.592473 -0.221999  -0.000001 0.000000 1.000000  0.008209 0.763880 1 67 1.000000
lowpoly_plastic
0  -3.625170 -10.842288 -0.221999  0.000000 0.000000 1.000000  0.008210 0.763881 1 67 1.000000
0  -3.519644 -10.782828 -0.221999  0.000000 0.000000 1.000000  0.008210 0.763881 1 67 1.000000
0  -3.648182 -10.592473 -0.221999  0.000000 0.000000 1.000000  0.008210 0.763880 1 67 1.000000
lowpoly_plastic
0  -3.564947 -10.946476 -0.221999  -0.000001 0.000000 1.000000  0.008210 0.763881 1 67 1.000000
0  -3.625170 -10.842288 -0.221999  -0.000001 0.000000 1.000000  0.008210 0.763881 1 67 1.000000
0  -3.648182 -11.105351 -0.221999  -0.000001 0.000000 1.000000  0.008210 0.763882 1 67 1.000000
lowpoly_plastic
0  -3.459421 -10.887016 -0.221999  0.000000 0.000000 1.000000  0.008210 0.763881 1 67 1.000000
0  -3.564947 -10.946476 -0.221999  0.000000 0.000000 1.000000  0.008210 0.763881 1 67 1.000000
0  -3.436409 -11.105351 -0.221999  0.000000 0.000000 1.000000  0.008209 0.763882 1 67 1.000000
lowpoly_glow
0  -3.642326 -10.362698 -0.086722  0.000945 0.999994 0.003318  0.437507 0.585330 1 67 1.000000
0  -3.669260 -10.362528 -0.129796  0.000945 0.999994 0.003318  0.437503 0.585337 1 67 1.000000
0  -3.668227 -10.362627 -0.100484  0.000945 0.999994 0.003318  0.437503 0.585332 1 67 1.000000
lowpoly_glow
0  -3.416597 -10.362625 -0.101182  -0.000914 0.999994 0.003362  0.437520 0.585337 1 67 1.000000
0  -3.467380 -10.362669 -0.101945  -0.000914 0.999994 0.003362  0.437516 0.585330 1 67 1.000000
0  -3.442208 -10.362697 -0.086903  -0.000914 0.999994 0.003362  0.437520 0.585332 1 67 1.000000
lowpoly_glow
0  -3.617457 -10.362668 -0.102273  0.000917 0.999994 0.003440  0.437512 0.585332 1 67 1.000000
0  -3.644391 -10.362498 -0.145347  0.000917 0.999994 0.003440  0.437507 0.585340 1 67 1.000000
0  -3.669260 -10.362528 -0.129796  0.000917 0.999994 0.003440  0.437503 0.585337 1 67 1.000000
lowpoly_glow
0  -3.416156 -10.362526 -0.130501  -0.000896 0.999994 0.003403  0.437516 0.585340 1 67 1.000000
0  -3.466939 -10.362569 -0.131264  -0.000896 0.999994 0.003403  0.437512 0.585332 1 67 1.000000
0  -3.467380 -10.362669 -0.101945  -0.000896 0.999994 0.003403  0.437516 0.585330 1 67 1.000000
lowpoly_glow
0  -3.617457 -10.377451 -0.102323  0.999380 0.000103 -0.035209  0.437984 0.585330 1 67 1.000000
0  -3.618490 -10.362568 -0.131585  0.999380 0.000103 -0.035209  0.437981 0.585335 1 67 1.000000
0  -3.617457 -10.362668 -0.102273  0.999380 0.000103 -0.035209  0.437981 0.585330 1 67 1.000000
lowpoly_glow
0  -3.642326 -10.377481 -0.086772  0.530112 -0.002835 0.847923  0.437958 0.585334 1 67 1.000000
0  -3.617457 -10.362668 -0.102273  0.530112 -0.002835 0.847923  0.437955 0.585339 1 67 1.000000
0  -3.642326 -10.362698 -0.086722  0.530112 -0.002835 0.847923  0.437955 0.585334 1 67 1.000000
lowpoly_glow
0  -3.644391 -10.377281 -0.145396  -0.530173 0.002852 -0.847884  0.437960 0.585334 1 67 1.000000
0  -3.669260 -10.362528 -0.129796  -0.530173 0.002852 -0.847884  0.437963 0.585330 1 67 1.000000
0  -3.644391 -10.362498 -0.145347  -0.530173 0.002852 -0.847884  0.437963 0.585334 1 67 1.000000
lowpoly_glow
0  -3.441327 -10.377281 -0.145592  -0.486997 0.002940 -0.873399  0.437958 0.585334 1 67 1.000000
0  -3.466939 -10.362569 -0.131264  -0.486997 0.002940 -0.873399  0.437960 0.585330 1 67 1.000000
0  -3.441327 -10.362498 -0.145542  -0.486997 0.002940 -0.873399  0.437960 0.585334 1 67 1.000000
lowpoly_glow
0  -3.618490 -10.377351 -0.131635  0.469198 0.002973 -0.883088  0.437960 0.585339 1 67 1.000000
0  -3.644391 -10.362498 -0.145347  0.469198 0.002973 -0.883088  0.437963 0.585334 1 67 1.000000
0  -3.618490 -10.362568 -0.131585  0.469198 0.002973 -0.883088  0.437963 0.585339 1 67 1.000000
lowpoly_glow
0  -3.467380 -10.377451 -0.101994  -0.512919 -0.002888 0.858432  0.437955 0.585330 1 67 1.000000
0  -3.442208 -10.362697 -0.086903  -0.512919 -0.002888 0.858432  0.437953 0.585334 1 67 1.000000
0  -3.467380 -10.362669 -0.101945  -0.512919 -0.002888 0.858432  0.437953 0.585330 1 67 1.000000
lowpoly_glow
0  -3.442209 -10.377480 -0.086953  0.486939 -0.002974 0.873431  0.437955 0.585334 1 67 1.000000
0  -3.416597 -10.362625 -0.101182  0.486939 -0.002974 0.873431  0.437953 0.585339 1 67 1.000000
0  -3.442208 -10.362697 -0.086903  0.486939 -0.002974 0.873431  0.437953 0.585334 1 67 1.000000
lowpoly_glow
0  -3.416156 -10.377309 -0.130551  0.512942 0.002888 -0.858418  0.437958 0.585339 1 67 1.000000
0  -3.441327 -10.362498 -0.145542  0.512942 0.002888 -0.858418  0.437960 0.585334 1 67 1.000000
0  -3.416156 -10.362526 -0.130501  0.512942 0.002888 -0.858418  0.437960 0.585339 1 67 1.000000
lowpoly_plastic
0  -3.584498 -17.081026 -0.287442  0.000000 -0.000000 -1.000000  0.008442 0.749260 1 67 1.000000
0  -3.500282 -16.602388 -0.287443  0.000000 -0.000000 -1.000000  0.008446 0.749236 1 67 1.000000
0  -3.500282 -17.081026 -0.287442  0.000000 -0.000000 -1.000000  0.008446 0.749260 1 67 1.000000
lowpoly_plastic
0  -3.572689 -17.081026 -0.111235  0.000000 -0.107509 0.994204  0.008455 0.750373 1 67 1.000000
0  -3.511822 -16.602388 -0.059478  0.000000 -0.107509 0.994204  0.008452 0.750350 1 67 1.000000
0  -3.572959 -16.602388 -0.059478  0.000000 -0.107509 0.994204  0.008455 0.750350 1 67 1.000000
lowpoly_plastic
0  -3.500282 -16.602388 -0.287443  0.997762 -0.000001 0.066870  0.008237 0.750486 1 67 1.000000
0  -3.512091 -17.081026 -0.111235  0.997762 -0.000001 0.066870  0.008245 0.750509 1 67 1.000000
0  -3.500282 -17.081026 -0.287442  0.997762 -0.000001 0.066870  0.008237 0.750509 1 67 1.000000
lowpoly_plastic
0  -3.584498 -17.081026 -0.287442  0.000000 -1.000000 0.000000  0.008502 0.749721 1 67 1.000000
0  -3.512091 -17.081026 -0.111235  0.000000 -1.000000 0.000000  0.008498 0.749712 1 67 1.000000
0  -3.572689 -17.081026 -0.111235  0.000000 -1.000000 0.000000  0.008501 0.749712 1 67 1.000000
lowpoly_plastic
0  -3.584498 -16.602388 -0.287443  -0.998703 -0.006032 0.050554  0.008400 0.750218 1 67 1.000000
0  -3.572689 -17.081026 -0.111235  -0.998703 -0.006032 0.050554  0.008392 0.750242 1 67 1.000000
0  -3.572959 -16.602388 -0.059478  -0.998703 -0.006032 0.050554  0.008389 0.750218 1 67 1.000000
lowpoly_plastic
0  -3.542390 -16.602388 -0.138684  0.000000 1.000000 0.000000  0.008493 0.749014 1 67 1.000000
0  -3.500282 -16.602388 -0.287443  0.000000 1.000000 0.000000  0.008495 0.749021 1 67 1.000000
0  -3.584498 -16.602388 -0.287443  0.000000 1.000000 0.000000  0.008491 0.749021 1 67 1.000000
lowpoly_plastic
0  -3.542390 -16.602388 -0.085851  0.000000 1.000000 0.000000  0.008493 0.749012 1 67 1.000000
0  -3.572959 -16.602388 -0.059478  0.000000 1.000000 0.000000  0.008491 0.749010 1 67 1.000000
0  -3.511822 -16.602388 -0.059478  0.000000 1.000000 0.000000  0.008494 0.749010 1 67 1.000000
lowpoly_plastic
0  -3.519513 -16.602388 -0.099060  0.000000 1.000000 0.000013  0.008494 0.749012 1 67 1.000000
0  -3.511822 -16.602388 -0.059478  0.000000 1.000000 0.000013  0.008494 0.749010 1 67 1.000000
0  -3.500282 -16.602388 -0.287443  0.000000 1.000000 0.000013  0.008495 0.749021 1 67 1.000000
lowpoly_plastic
0  -3.565267 -16.602388 -0.125476  0.000000 1.000000 0.000012  0.008492 0.749014 1 67 1.000000
0  -3.584498 -16.602388 -0.287443  0.000000 1.000000 0.000012  0.008491 0.749021 1 67 1.000000
0  -3.572959 -16.602388 -0.059478  0.000000 1.000000 0.000012  0.008491 0.749010 1 67 1.000000
lowpoly_plastic
0  -3.542390 -16.602388 -0.138684  0.000000 1.000000 0.000000  0.008493 0.749014 1 67 1.000000
0  -3.519513 -16.602388 -0.099060  0.000000 1.000000 0.000000  0.008494 0.749012 1 67 1.000000
0  -3.500282 -16.602388 -0.287443  0.000000 1.000000 0.000000  0.008495 0.749021 1 67 1.000000
lowpoly_plastic
0  -3.565267 -16.602388 -0.125476  0.000000 1.000000 0.000000  0.008492 0.749014 1 67 1.000000
0  -3.542390 -16.602388 -0.138684  0.000000 1.000000 0.000000  0.008493 0.749014 1 67 1.000000
0  -3.584498 -16.602388 -0.287443  0.000000 1.000000 0.000000  0.008491 0.749021 1 67 1.000000
lowpoly_plastic
0  -3.542390 -16.602388 -0.085851  0.000000 1.000000 -0.000049  0.008493 0.749012 1 67 1.000000
0  -3.565267 -16.602388 -0.125476  0.000000 1.000000 -0.000049  0.008492 0.749014 1 67 1.000000
0  -3.572959 -16.602388 -0.059478  0.000000 1.000000 -0.000049  0.008491 0.749010 1 67 1.000000
lowpoly_plastic
0  -3.519513 -16.602388 -0.099060  0.000000 1.000000 -0.000118  0.008494 0.749012 1 67 1.000000
0  -3.542390 -16.602388 -0.085851  0.000000 1.000000 -0.000118  0.008493 0.749012 1 67 1.000000
0  -3.511822 -16.602388 -0.059478  0.000000 1.000000 -0.000118  0.008494 0.749010 1 67 1.000000
lowpoly_glow
0  -3.565267 -16.602388 -0.125476  -1.000000 0.000000 0.000000  0.437992 0.585334 1 67 1.000000
0  -3.565267 -16.591465 -0.099060  -1.000000 0.000000 0.000000  0.437994 0.585330 1 67 1.000000
0  -3.565267 -16.591465 -0.125476  -1.000000 0.000000 0.000000  0.437994 0.585334 1 67 1.000000
lowpoly_glow
0  -3.542390 -16.591465 -0.085851  -0.000083 1.000000 0.000000  0.437663 0.585332 1 67 1.000000
0  -3.519513 -16.591463 -0.099060  -0.000083 1.000000 0.000000  0.437663 0.585337 1 67 1.000000
0  -3.542390 -16.591465 -0.138684  -0.000083 1.000000 0.000000  0.437656 0.585337 1 67 1.000000
lowpoly_glow
0  -3.542390 -16.602388 -0.085851  0.500051 0.000000 0.865996  0.437972 0.585334 1 67 1.000000
0  -3.519513 -16.591463 -0.099060  0.500051 0.000000 0.865996  0.437970 0.585338 1 67 1.000000
0  -3.542390 -16.591465 -0.085851  0.500051 0.000000 0.865996  0.437970 0.585334 1 67 1.000000
lowpoly_glow
0  -3.519513 -16.602388 -0.125476  0.499937 0.000000 -0.866062  0.437972 0.585338 1 67 1.000000
0  -3.542390 -16.591465 -0.138684  0.499937 0.000000 -0.866062  0.437974 0.585334 1 67 1.000000
0  -3.519513 -16.591463 -0.125476  0.499937 0.000000 -0.866062  0.437974 0.585338 1 67 1.000000
lowpoly_glow
0  -3.542390 -16.602388 -0.138684  -0.499872 0.000000 -0.866099  0.437972 0.585334 1 67 1.000000
0  -3.565267 -16.591465 -0.125476  -0.499872 0.000000 -0.866099  0.437974 0.585330 1 67 1.000000
0  -3.542390 -16.591465 -0.138684  -0.499872 0.000000 -0.866099  0.437974 0.585334 1 67 1.000000
lowpoly_glow
0  -3.565267 -16.602388 -0.099060  -0.499872 0.000000 0.866100  0.437972 0.585330 1 67 1.000000
0  -3.542390 -16.591465 -0.085851  -0.499872 0.000000 0.866100  0.437970 0.585334 1 67 1.000000
0  -3.565267 -16.591465 -0.099060  -0.499872 0.000000 0.866100  0.437970 0.585330 1 67 1.000000
lowpoly_glow
0  -3.519513 -16.602388 -0.099060  1.000000 0.000000 0.000000  0.437992 0.585330 1 67 1.000000
0  -3.519513 -16.591463 -0.125476  1.000000 0.000000 0.000000  0.437991 0.585334 1 67 1.000000
0  -3.519513 -16.591463 -0.099060  1.000000 0.000000 0.000000  0.437991 0.585330 1 67 1.000000
lowpoly_plastic
0  -3.352471 -16.698286 -0.309865  0.000000 0.000000 -1.000000  0.069982 0.810837 1 67 1.000000
0  -3.732309 -17.013123 -0.309865  0.000000 0.000000 -1.000000  0.069982 0.810837 1 67 1.000000
0  -3.732309 -16.698286 -0.309865  0.000000 0.000000 -1.000000  0.069982 0.810837 1 67 1.000000
lowpoly_plastic
0  -3.434364 -16.754719 -0.248177  0.000000 -0.000000 1.000000  0.069982 0.810837 1 67 1.000000
0  -3.650416 -16.957651 -0.248177  0.000000 -0.000000 1.000000  0.069982 0.810837 1 67 1.000000
0  -3.434364 -16.957651 -0.248177  0.000000 -0.000000 1.000000  0.069982 0.810837 1 67 1.000000
lowpoly_plastic
0  -3.732309 -16.698286 -0.309865  -0.601667 0.000000 0.798747  0.069982 0.810837 1 67 1.000000
0  -3.650416 -16.957651 -0.248177  -0.601667 0.000000 0.798747  0.069982 0.810837 1 67 1.000000
0  -3.650416 -16.754719 -0.248177  -0.601667 0.000000 0.798747  0.069982 0.810837 1 67 1.000000
lowpoly_plastic
0  -3.352471 -16.698286 -0.309865  0.000000 0.737839 0.674977  0.069982 0.810837 1 67 1.000000
0  -3.650416 -16.754719 -0.248177  0.000000 0.737839 0.674977  0.069982 0.810837 1 67 1.000000
0  -3.434364 -16.754719 -0.248177  0.000000 0.737839 0.674977  0.069982 0.810837 1 67 1.000000
lowpoly_plastic
0  -3.352471 -17.013123 -0.309865  0.601673 0.000000 0.798743  0.069982 0.810837 1 67 1.000000
0  -3.434364 -16.754719 -0.248177  0.601673 0.000000 0.798743  0.069982 0.810837 1 67 1.000000
0  -3.434364 -16.957651 -0.248177  0.601673 0.000000 0.798743  0.069982 0.810837 1 67 1.000000
lowpoly_plastic
0  -3.732309 -17.013123 -0.309865  0.000000 -0.743590 0.668636  0.069982 0.810837 1 67 1.000000
0  -3.434364 -16.957651 -0.248177  0.000000 -0.743590 0.668636  0.069982 0.810837 1 67 1.000000
0  -3.650416 -16.957651 -0.248177  0.000000 -0.743590 0.668636  0.069982 0.810837 1 67 1.000000
lowpoly_plastic
0  -3.388037 -10.230135 -0.441218  -0.999404 0.025527 0.023226  0.921397 0.513381 1 67 1.000000
0  -3.385243 -10.262220 -0.285726  -0.999404 0.025527 0.023226  0.921734 0.513312 1 67 1.000000
0  -3.386405 -10.166264 -0.441218  -0.999404 0.025527 0.023226  0.921397 0.513520 1 67 1.000000
lowpoly_plastic
0  -3.542391 -10.324313 -0.257932  -0.000007 1.000000 -0.000014  0.921203 0.512754 1 67 1.000000
0  -3.385241 -10.324312 -0.285723  -0.000007 1.000000 -0.000014  0.921143 0.513094 1 67 1.000000
0  -3.388037 -10.324313 -0.441218  -0.000007 1.000000 -0.000014  0.920811 0.513089 1 67 1.000000
lowpoly_plastic
0  -3.696681 -10.230204 -0.441218  0.999965 -0.000091 0.008313  0.921855 0.513510 1 67 1.000000
0  -3.697966 -10.324308 -0.287780  0.999965 -0.000091 0.008313  0.922059 0.513177 1 67 1.000000
0  -3.696691 -10.324312 -0.441218  0.999965 -0.000091 0.008313  0.922059 0.513510 1 67 1.000000
lowpoly_plastic
0  -3.388037 -10.324313 -0.441218  -0.999839 0.000000 0.017965  0.921397 0.513177 1 67 1.000000
0  -3.385243 -10.262220 -0.285726  -0.999839 0.000000 0.017965  0.921734 0.513312 1 67 1.000000
0  -3.388037 -10.230135 -0.441218  -0.999839 0.000000 0.017965  0.921397 0.513381 1 67 1.000000
lowpoly_plastic
0  -3.708724 -10.726691 -0.294962  -0.188401 -0.012491 0.982013  0.920385 0.509934 1 67 1.000000
0  -3.542391 -10.324313 -0.257932  -0.188401 -0.012491 0.982013  0.920024 0.509060 1 67 1.000000
0  -3.697966 -10.324308 -0.287780  -0.188401 -0.012491 0.982013  0.920361 0.509062 1 67 1.000000
lowpoly_plastic
0  -3.385241 -10.324312 -0.285723  0.211943 -0.013521 0.977189  0.919684 0.509062 1 67 1.000000
0  -3.542391 -10.743836 -0.257443  0.211943 -0.013521 0.977189  0.920024 0.509969 1 67 1.000000
0  -3.374959 -10.726690 -0.293520  0.211943 -0.013521 0.977189  0.919662 0.509934 1 67 1.000000
lowpoly_plastic
0  -3.374959 -10.726690 -0.293520  0.001076 -0.914734 -0.404056  0.922370 0.511658 1 67 1.000000
0  -3.795823 -10.697289 -0.361200  0.001076 -0.914734 -0.404056  0.922231 0.512570 1 67 1.000000
0  -3.287950 -10.697283 -0.359863  0.001076 -0.914734 -0.404056  0.922231 0.511470 1 67 1.000000
lowpoly_plastic
0  -3.287930 -11.187685 -0.359837  -0.001469 0.001257 0.999998  0.919473 0.510936 1 67 1.000000
0  -3.795823 -10.697289 -0.361200  -0.001469 0.001257 0.999998  0.920574 0.509874 1 67 1.000000
0  -3.796290 -11.187691 -0.360584  -0.001469 0.001257 0.999998  0.920575 0.510936 1 67 1.000000
lowpoly_plastic
0  -3.374942 -11.158276 -0.293497  0.001120 0.913218 -0.407470  0.922302 0.512759 1 67 1.000000
0  -3.796290 -11.187691 -0.360584  0.001120 0.913218 -0.407470  0.922434 0.513671 1 67 1.000000
0  -3.709138 -11.158277 -0.294418  0.001120 0.913218 -0.407470  0.922303 0.513482 1 67 1.000000
lowpoly_plastic
0  -3.542391 -11.141129 -0.257443  0.001168 0.905191 -0.425004  0.922231 0.513121 1 67 1.000000
0  -3.374942 -11.158276 -0.293497  0.001168 0.905191 -0.425004  0.922302 0.512759 1 67 1.000000
0  -3.709138 -11.158277 -0.294418  0.001168 0.905191 -0.425004  0.922303 0.513482 1 67 1.000000
lowpoly_plastic
0  -3.542391 -10.743836 -0.257443  0.001827 -0.906434 -0.422344  0.922446 0.512021 1 67 1.000000
0  -3.708724 -10.726691 -0.294962  0.001827 -0.906434 -0.422344  0.922369 0.512381 1 67 1.000000
0  -3.374959 -10.726690 -0.293520  0.001827 -0.906434 -0.422344  0.922370 0.511658 1 67 1.000000
lowpoly_plastic
0  -3.542391 -12.424934 -0.257874  -0.312427 -0.013726 0.949842  0.920024 0.513608 1 67 1.000000
0  -3.709138 -11.158277 -0.294418  -0.312427 -0.013726 0.949842  0.920385 0.510868 1 67 1.000000
0  -3.756745 -12.424934 -0.328381  -0.312427 -0.013726 0.949842  0.920446 0.513612 1 67 1.000000
lowpoly_plastic
0  -3.696681 -10.230204 -0.441218  0.999879 0.011571 0.010418  0.921855 0.513510 1 67 1.000000
0  -3.697329 -10.174253 -0.441218  0.999879 0.011571 0.010418  0.921734 0.513510 1 67 1.000000
0  -3.697909 -10.262217 -0.287855  0.999879 0.011571 0.010418  0.921924 0.513178 1 67 1.000000
lowpoly_plastic
0  -3.386405 -10.166264 -0.441218  0.135403 0.843613 0.519599  0.922008 0.509929 1 67 1.000000
0  -3.385243 -10.262220 -0.285726  0.135403 0.843613 0.519599  0.922374 0.509929 1 67 1.000000
0  -3.181312 -10.199182 -0.441218  0.135403 0.843613 0.519599  0.922020 0.510277 1 67 1.000000
lowpoly_plastic
0  -3.904856 -10.199449 -0.441218  -0.104755 0.862846 0.494494  0.920815 0.513409 1 67 1.000000
0  -3.697909 -10.262217 -0.287855  -0.104755 0.862846 0.494494  0.920811 0.513094 1 67 1.000000
0  -3.697329 -10.174253 -0.441218  -0.104755 0.862846 0.494494  0.920876 0.513583 1 67 1.000000
lowpoly_plastic
0  -3.904856 -10.199449 -0.441218  -0.586963 0.001577 0.809612  0.920810 0.508801 1 67 1.000000
0  -3.796290 -11.187691 -0.360584  -0.586963 0.001577 0.809612  0.920575 0.510936 1 67 1.000000
0  -3.795823 -10.697289 -0.361200  -0.586963 0.001577 0.809612  0.920574 0.509874 1 67 1.000000
lowpoly_plastic
0  -3.374942 -11.158276 -0.293497  0.308071 -0.013973 0.951261  0.919662 0.510868 1 67 1.000000
0  -3.542391 -12.424934 -0.257874  0.308071 -0.013973 0.951261  0.919980 0.513609 1 67 1.000000
0  -3.332038 -12.424934 -0.325998  0.308071 -0.013973 0.951261  0.919569 0.513613 1 67 1.000000
lowpoly_plastic
0  -3.181312 -10.199182 -0.441218  0.606328 0.000070 0.795214  0.919439 0.508857 1 67 1.000000
0  -3.287930 -11.187685 -0.359837  0.606328 0.000070 0.795214  0.919473 0.510936 1 67 1.000000
0  -3.181052 -12.424934 -0.441218  0.606328 0.000070 0.795214  0.919242 0.513619 1 67 1.000000
lowpoly_plastic
0  -3.756745 -12.424934 -0.328381  0.000000 -1.000000 0.000000  0.921549 0.510218 1 67 1.000000
0  -3.905330 -12.424934 -0.441218  0.000000 -1.000000 0.000000  0.921793 0.509896 1 67 1.000000
0  -3.181052 -12.424934 -0.441218  0.000000 -1.000000 0.000000  0.921793 0.511465 1 67 1.000000
lowpoly_metal
0  -3.531903 -10.946476 -0.221999  0.392547 -0.696697 0.600433  0.061424 0.627797 1 67 1.000000
0  -3.437189 -10.884100 -0.211546  0.392547 -0.696697 0.600433  0.061426 0.627780 1 67 1.000000
0  -3.528947 -10.935801 -0.211546  0.392547 -0.696697 0.600433  0.061426 0.627796 1 67 1.000000
lowpoly_metal
0  -3.528947 -10.935801 -0.211546  0.696409 -0.053000 0.715685  0.066362 0.729286 1 67 1.000000
0  -3.509251 -10.864653 -0.225443  0.696409 -0.053000 0.715685  0.066365 0.729298 1 67 1.000000
0  -3.523246 -10.860875 -0.211546  0.696409 -0.053000 0.715685  0.066362 0.729299 1 67 1.000000
lowpoly_metal
0  -3.486599 -10.782828 -0.221999  -0.392554 0.696692 0.600434  0.061430 0.627797 1 67 1.000000
0  -3.581313 -10.845206 -0.211546  -0.392554 0.696692 0.600434  0.061432 0.627780 1 67 1.000000
0  -3.489555 -10.793505 -0.211546  -0.392554 0.696692 0.600434  0.061432 0.627796 1 67 1.000000
lowpoly_metal
0  -3.426376 -10.887016 -0.221999  0.690643 0.399201 0.603035  0.061428 0.627796 1 67 1.000000
0  -3.489555 -10.793505 -0.211546  0.690643 0.399201 0.603035  0.061430 0.627780 1 67 1.000000
0  -3.437189 -10.884100 -0.211546  0.690643 0.399201 0.603035  0.061430 0.627796 1 67 1.000000
lowpoly_metal
0  -3.592126 -10.842288 -0.221999  -0.690675 -0.399223 0.602983  0.061426 0.627796 1 67 1.000000
0  -3.528947 -10.935801 -0.211546  -0.690675 -0.399223 0.602983  0.061428 0.627780 1 67 1.000000
0  -3.581313 -10.845206 -0.211546  -0.690675 -0.399223 0.602983  0.061428 0.627796 1 67 1.000000
lowpoly_metal
0  -3.489555 -10.793505 -0.211546  -0.696415 0.052996 0.715680  0.066130 0.729286 1 67 1.000000
0  -3.509251 -10.864653 -0.225443  -0.696415 0.052996 0.715680  0.066133 0.729298 1 67 1.000000
0  -3.495256 -10.868429 -0.211546  -0.696415 0.052996 0.715680  0.066130 0.729299 1 67 1.000000
lowpoly_metal
0  -3.489555 -10.793505 -0.211546  -0.000001 0.000003 1.000000  0.065452 0.623291 1 67 1.000000
0  -3.581313 -10.845206 -0.211546  -0.000001 0.000003 1.000000  0.065452 0.623309 1 67 1.000000
0  -3.523246 -10.860875 -0.211546  -0.000001 0.000003 1.000000  0.065445 0.623302 1 67 1.000000
lowpoly_metal
0  -3.523246 -10.860875 -0.211546  -0.000003 -0.000001 1.000000  0.065445 0.623302 1 67 1.000000
0  -3.581313 -10.845206 -0.211546  -0.000003 -0.000001 1.000000  0.065452 0.623309 1 67 1.000000
0  -3.528947 -10.935801 -0.211546  -0.000003 -0.000001 1.000000  0.065434 0.623309 1 67 1.000000
lowpoly_metal
0  -3.528947 -10.935801 -0.211546  0.000002 -0.000003 1.000000  0.065447 0.623334 1 67 1.000000
0  -3.437189 -10.884100 -0.211546  0.000002 -0.000003 1.000000  0.065434 0.623321 1 67 1.000000
0  -3.495256 -10.868429 -0.211546  0.000002 -0.000003 1.000000  0.065444 0.623321 1 67 1.000000
lowpoly_metal
0  -3.489555 -10.793505 -0.211546  0.625445 -0.312773 0.714836  0.070373 0.724798 1 67 1.000000
0  -3.523246 -10.860875 -0.211546  0.625445 -0.312773 0.714836  0.070366 0.724809 1 67 1.000000
0  -3.509251 -10.864653 -0.225443  0.625445 -0.312773 0.714836  0.070364 0.724807 1 67 1.000000
lowpoly_metal
0  -3.495256 -10.868429 -0.211546  0.000003 0.000002 1.000000  0.065444 0.623321 1 67 1.000000
0  -3.437189 -10.884100 -0.211546  0.000003 0.000002 1.000000  0.065434 0.623321 1 67 1.000000
0  -3.489555 -10.793505 -0.211546  0.000003 0.000002 1.000000  0.065447 0.623309 1 67 1.000000
lowpoly_metal
0  -3.528947 -10.935801 -0.211546  -0.625443 0.312767 0.714841  0.066131 0.729310 1 67 1.000000
0  -3.495256 -10.868429 -0.211546  -0.625443 0.312767 0.714841  0.066130 0.729299 1 67 1.000000
0  -3.509251 -10.864653 -0.225443  -0.625443 0.312767 0.714841  0.066133 0.729298 1 67 1.000000
lowpoly_plastic
0  -3.696691 -10.324312 -0.441218  0.000000 0.000000 -1.000000  0.918790 0.513348 1 67 1.000000
0  -3.388037 -10.324313 -0.441218  0.000000 0.000000 -1.000000  0.918122 0.513348 1 67 1.000000
0  -3.181052 -12.424934 -0.441218  0.000000 0.000000 -1.000000  0.917673 0.508800 1 67 1.000000
lowpoly_plastic
0  -3.287084 -10.262594 -0.275207  0.000000 -0.001550 -0.999999  0.006723 0.762509 1 67 1.000000
0  -3.255724 -10.742168 -0.274464  0.000000 -0.001550 -0.999999  0.006721 0.762509 1 67 1.000000
0  -3.828867 -10.742168 -0.274464  0.000000 -0.001550 -0.999999  0.006721 0.762507 1 67 1.000000
lowpoly_plastic
0  -3.255737 -11.187685 -0.359837  0.000000 -0.892043 0.451950  0.011583 0.750966 1 67 1.000000
0  -3.255737 -11.144758 -0.275107  0.000000 -0.892043 0.451950  0.011578 0.750966 1 67 1.000000
0  -3.828854 -11.144758 -0.275107  0.000000 -0.892043 0.451950  0.011578 0.750938 1 67 1.000000
lowpoly_plastic
0  -3.255737 -10.702391 -0.359837  1.000000 -0.000031 -0.000169  0.010421 0.752493 1 67 1.000000
0  -3.255724 -10.742168 -0.274464  1.000000 -0.000031 -0.000169  0.010425 0.752495 1 67 1.000000
0  -3.255737 -11.144758 -0.275107  1.000000 -0.000031 -0.000169  0.010428 0.752514 1 67 1.000000
lowpoly_plastic
0  -3.255737 -11.187685 -0.359837  0.000000 -0.000000 -1.000000  0.011481 0.752488 1 67 1.000000
0  -3.828854 -11.187685 -0.359837  0.000000 -0.000000 -1.000000  0.011481 0.752460 1 67 1.000000
0  -3.828854 -10.702391 -0.359837  0.000000 -0.000000 -1.000000  0.011505 0.752460 1 67 1.000000
lowpoly_plastic
0  -3.828854 -11.144758 -0.275107  -0.889656 -0.000758 0.456631  0.011557 0.752092 1 67 1.000000
0  -3.805048 -11.105351 -0.228659  -0.889656 -0.000758 0.456631  0.011555 0.752090 1 67 1.000000
0  -3.828867 -10.742168 -0.274464  -0.889656 -0.000758 0.456631  0.011560 0.752073 1 67 1.000000
lowpoly_plastic
0  -3.805048 -11.105351 -0.228659  -0.934673 -0.016512 0.355125  0.011555 0.752090 1 67 1.000000
0  -3.805048 -10.292065 -0.190845  -0.934673 -0.016512 0.355125  0.011558 0.752050 1 67 1.000000
0  -3.828867 -10.742168 -0.274464  -0.934673 -0.016512 0.355125  0.011560 0.752073 1 67 1.000000
lowpoly_plastic
0  -3.279543 -11.105351 -0.228659  0.966362 -0.011945 0.256906  0.010430 0.752512 1 67 1.000000
0  -3.279543 -10.292065 -0.190845  0.966362 -0.011945 0.256906  0.010426 0.752472 1 67 1.000000
0  -3.305389 -10.325480 -0.095180  0.966362 -0.011945 0.256906  0.010431 0.752473 1 67 1.000000
lowpoly_plastic
0  -3.436409 -11.105351 -0.221999  0.027464 -0.762109 0.646865  0.011575 0.750958 1 67 1.000000
0  -3.279543 -11.105351 -0.228659  0.027464 -0.762109 0.646865  0.011576 0.750965 1 67 1.000000
0  -3.298261 -11.074105 -0.191052  0.027464 -0.762109 0.646865  0.011574 0.750964 1 67 1.000000
lowpoly_plastic
0  -3.255737 -11.144758 -0.275107  0.000000 -0.803040 0.595925  0.011578 0.750966 1 67 1.000000
0  -3.436409 -11.105351 -0.221999  0.000000 -0.803040 0.595925  0.011575 0.750958 1 67 1.000000
0  -3.648182 -11.105351 -0.221999  0.000000 -0.803040 0.595925  0.011575 0.750947 1 67 1.000000
lowpoly_plastic
0  -3.805048 -11.105351 -0.228659  -0.027896 -0.753329 0.657052  0.011576 0.750939 1 67 1.000000
0  -3.648182 -11.105351 -0.221999  -0.027896 -0.753329 0.657052  0.011575 0.750947 1 67 1.000000
0  -3.722926 -11.044263 -0.155134  -0.027896 -0.753329 0.657052  0.011572 0.750944 1 67 1.000000
lowpoly_plastic
0  -3.578663 -10.592473 -0.175454  0.876608 -0.066903 0.476532  0.008229 0.763833 1 67 1.000000
0  -3.578663 -10.377159 -0.145224  0.876608 -0.066903 0.476532  0.008229 0.763832 1 67 1.000000
0  -3.625275 -10.377159 -0.059478  0.876608 -0.066903 0.476532  0.008229 0.763832 1 67 1.000000
lowpoly_plastic
0  -3.828854 -11.187685 -0.359837  -1.000000 -0.000034 0.000017  0.011561 0.752095 1 67 1.000000
0  -3.828854 -11.144758 -0.275107  -1.000000 -0.000034 0.000017  0.011557 0.752092 1 67 1.000000
0  -3.828867 -10.742168 -0.274464  -1.000000 -0.000034 0.000017  0.011560 0.752073 1 67 1.000000
lowpoly_plastic
0  -3.459316 -10.571686 -0.089194  -0.876246 -0.072767 0.476338  0.008229 0.763832 1 67 1.000000
0  -3.459316 -10.377159 -0.059478  -0.876246 -0.072767 0.476338  0.008229 0.763831 1 67 1.000000
0  -3.505928 -10.377159 -0.145224  -0.876246 -0.072767 0.476338  0.008229 0.763831 1 67 1.000000
lowpoly_plastic
0  -3.786330 -11.074105 -0.191052  -0.967141 -0.023215 0.253180  0.011553 0.752088 1 67 1.000000
0  -3.779202 -10.325480 -0.095180  -0.967141 -0.023215 0.253180  0.011553 0.752051 1 67 1.000000
0  -3.805048 -10.292065 -0.190845  -0.967141 -0.023215 0.253180  0.011558 0.752050 1 67 1.000000
lowpoly_plastic
0  -3.255737 -11.144758 -0.275107  0.889658 -0.000757 0.456626  0.010428 0.752514 1 67 1.000000
0  -3.255724 -10.742168 -0.274464  0.889658 -0.000757 0.456626  0.010425 0.752495 1 67 1.000000
0  -3.279543 -11.105351 -0.228659  0.889658 -0.000757 0.456626  0.010430 0.752512 1 67 1.000000
lowpoly_plastic
0  -3.255724 -10.742168 -0.274464  0.963545 0.001287 0.267542  0.010425 0.752495 1 67 1.000000
0  -3.265140 -10.273912 -0.242804  0.963545 0.001287 0.267542  0.010424 0.752472 1 67 1.000000
0  -3.279543 -10.292065 -0.190845  0.963545 0.001287 0.267542  0.010426 0.752472 1 67 1.000000
lowpoly_plastic
0  -3.505928 -10.592473 -0.175454  0.000000 -0.139035 0.990287  0.008230 0.763775 1 67 1.000000
0  -3.505928 -10.377159 -0.145224  0.000000 -0.139035 0.990287  0.008230 0.763775 1 67 1.000000
0  -3.578663 -10.377159 -0.145224  0.000000 -0.139035 0.990287  0.008230 0.763775 1 67 1.000000
lowpoly_plastic
0  -3.648182 -10.592473 -0.221999  -0.115882 -0.978066 0.173087  0.008226 0.763776 1 67 1.000000
0  -3.578663 -10.592473 -0.175454  -0.115882 -0.978066 0.173087  0.008225 0.763777 1 67 1.000000
0  -3.625275 -10.571686 -0.089194  -0.115882 -0.978066 0.173087  0.008225 0.763776 1 67 1.000000
lowpoly_plastic
0  -3.828854 -10.702391 -0.359837  0.000000 0.906438 0.422340  0.006836 0.762513 1 67 1.000000
0  -3.828867 -10.742168 -0.274464  0.000000 0.906438 0.422340  0.006837 0.762513 1 67 1.000000
0  -3.255724 -10.742168 -0.274464  0.000000 0.906438 0.422340  0.006837 0.762515 1 67 1.000000
lowpoly_plastic
0  -3.722944 -10.289290 -0.190133  0.000000 0.954125 0.299409  0.011577 0.750668 1 67 1.000000
0  -3.361647 -10.289290 -0.190133  0.000000 0.954125 0.299409  0.011577 0.750686 1 67 1.000000
0  -3.287084 -10.262594 -0.275207  0.000000 0.954125 0.299409  0.011572 0.750690 1 67 1.000000
lowpoly_plastic
0  -3.436409 -10.592473 -0.221999  0.000000 -1.000000 0.000000  0.008226 0.763777 1 67 1.000000
0  -3.505928 -10.592473 -0.175454  0.000000 -1.000000 0.000000  0.008225 0.763777 1 67 1.000000
0  -3.578663 -10.592473 -0.175454  0.000000 -1.000000 0.000000  0.008225 0.763777 1 67 1.000000
lowpoly_plastic
0  -3.361665 -11.044263 -0.155134  -0.864673 -0.069419 0.497515  0.008216 0.763884 1 67 1.000000
0  -3.361665 -10.571686 -0.089194  -0.864673 -0.069419 0.497515  0.008216 0.763882 1 67 1.000000
0  -3.436409 -10.592473 -0.221999  -0.864673 -0.069419 0.497515  0.008217 0.763882 1 67 1.000000
lowpoly_plastic
0  -3.361665 -10.571686 -0.089194  0.000000 -0.972169 0.234281  0.008225 0.763777 1 67 1.000000
0  -3.459316 -10.571686 -0.089194  0.000000 -0.972169 0.234281  0.008225 0.763777 1 67 1.000000
0  -3.505928 -10.592473 -0.175454  0.000000 -0.972169 0.234281  0.008225 0.763777 1 67 1.000000
lowpoly_plastic
0  -3.648182 -11.105351 -0.221999  0.871460 0.000001 0.490467  0.008218 0.763884 1 67 1.000000
0  -3.648182 -10.592473 -0.221999  0.871460 0.000001 0.490467  0.008218 0.763882 1 67 1.000000
0  -3.722926 -10.571686 -0.089194  0.871460 0.000001 0.490467  0.008219 0.763882 1 67 1.000000
lowpoly_glow
0  -3.669260 -10.377312 -0.129846  -0.999380 -0.000146 0.035215  0.437974 0.585335 1 67 1.000000
0  -3.668227 -10.377411 -0.100534  -0.999380 -0.000146 0.035215  0.437974 0.585330 1 67 1.000000
0  -3.668227 -10.362627 -0.100484  -0.999380 -0.000146 0.035215  0.437976 0.585330 1 67 1.000000
lowpoly_glow
0  -3.416597 -10.377408 -0.101231  0.999887 -0.000071 0.015027  0.437979 0.585330 1 67 1.000000
0  -3.416156 -10.377309 -0.130551  0.999887 -0.000071 0.015027  0.437979 0.585335 1 67 1.000000
0  -3.416156 -10.362526 -0.130501  0.999887 -0.000071 0.015027  0.437976 0.585335 1 67 1.000000
lowpoly_glow
0  -3.466939 -10.377352 -0.131314  -0.999887 0.000038 -0.015025  0.437979 0.585335 1 67 1.000000
0  -3.467380 -10.377451 -0.101994  -0.999887 0.000038 -0.015025  0.437979 0.585330 1 67 1.000000
0  -3.467380 -10.362669 -0.101945  -0.999887 0.000038 -0.015025  0.437981 0.585330 1 67 1.000000
lowpoly_glow
0  -3.668227 -10.377411 -0.100534  -0.469253 -0.002965 0.883059  0.437958 0.585330 1 67 1.000000
0  -3.642326 -10.377481 -0.086772  -0.469253 -0.002965 0.883059  0.437958 0.585334 1 67 1.000000
0  -3.642326 -10.362698 -0.086722  -0.469253 -0.002965 0.883059  0.437955 0.585334 1 67 1.000000
lowpoly_plastic
0  -3.459316 -10.571686 -0.089194  0.000000 -0.151591 0.988443  0.011585 0.751626 1 67 1.000000
0  -3.361665 -10.571686 -0.089194  0.000000 -0.151591 0.988443  0.011580 0.751626 1 67 1.000000
0  -3.361647 -10.377235 -0.059373  0.000000 -0.151591 0.988443  0.011580 0.751616 1 67 1.000000
lowpoly_plastic
0  -3.625275 -10.571686 -0.089194  0.001184 -0.151011 0.988531  0.011577 0.751663 1 67 1.000000
0  -3.625275 -10.377159 -0.059478  0.001184 -0.151011 0.988531  0.011578 0.751653 1 67 1.000000
0  -3.722944 -10.377235 -0.059373  0.001184 -0.151011 0.988531  0.011582 0.751653 1 67 1.000000
lowpoly_plastic
0  -3.644391 -10.377281 -0.145396  -0.000017 0.999996 0.002885  0.005334 0.764408 1 67 1.000000
0  -3.722944 -10.377159 -0.188208  -0.000017 0.999996 0.002885  0.005334 0.764407 1 67 1.000000
0  -3.668227 -10.377411 -0.100534  -0.000017 0.999996 0.002885  0.005335 0.764407 1 67 1.000000
lowpoly_plastic
0  -3.578663 -10.377159 -0.145224  0.000000 1.000000 -0.000076  0.005334 0.764409 1 67 1.000000
0  -3.505928 -10.377159 -0.145224  0.000000 1.000000 -0.000076  0.005334 0.764410 1 67 1.000000
0  -3.361647 -10.377159 -0.188208  0.000000 1.000000 -0.000076  0.005334 0.764411 1 67 1.000000
lowpoly_plastic
0  -3.361647 -10.289290 -0.190133  -1.000000 0.000000 0.000000  0.005354 0.764218 1 67 1.000000
0  -3.361647 -10.377159 -0.188208  -1.000000 0.000000 0.000000  0.005353 0.764218 1 67 1.000000
0  -3.361647 -10.377235 -0.059373  -1.000000 0.000000 0.000000  0.005353 0.764216 1 67 1.000000
lowpoly_plastic
0  -3.722944 -10.289290 -0.190133  0.000000 0.021901 0.999760  0.005339 0.764314 1 67 1.000000
0  -3.722944 -10.377159 -0.188208  0.000000 0.021901 0.999760  0.005340 0.764314 1 67 1.000000
0  -3.361647 -10.377159 -0.188208  0.000000 0.021901 0.999760  0.005340 0.764319 1 67 1.000000
lowpoly_plastic
0  -3.722944 -10.377235 -0.059373  1.000000 0.000002 0.000000  0.005354 0.764215 1 67 1.000000
0  -3.722944 -10.377159 -0.188208  1.000000 0.000002 0.000000  0.005354 0.764216 1 67 1.000000
0  -3.722944 -10.289290 -0.190133  1.000000 0.000002 0.000000  0.005353 0.764216 1 67 1.000000
lowpoly_plastic
0  -3.625275 -10.377159 -0.059478  -0.046924 -0.998897 -0.001810  0.005335 0.764408 1 67 1.000000
0  -3.618490 -10.377351 -0.131635  -0.046924 -0.998897 -0.001810  0.005334 0.764408 1 67 1.000000
0  -3.617457 -10.377451 -0.102323  -0.046924 -0.998897 -0.001810  0.005335 0.764408 1 67 1.000000
lowpoly_plastic
0  -3.441327 -10.377281 -0.145592  0.000914 -0.999994 -0.003351  0.005334 0.764410 1 67 1.000000
0  -3.416156 -10.377309 -0.130551  0.000914 -0.999994 -0.003351  0.005334 0.764411 1 67 1.000000
0  -3.416597 -10.377408 -0.101231  0.000914 -0.999994 -0.003351  0.005335 0.764411 1 67 1.000000
lowpoly_plastic
0  -3.459316 -10.377159 -0.059478  0.005907 0.999951 -0.007977  0.005335 0.764410 1 67 1.000000
0  -3.442209 -10.377480 -0.086953  0.005907 0.999951 -0.007977  0.005335 0.764410 1 67 1.000000
0  -3.467380 -10.377451 -0.101994  0.005907 0.999951 -0.007977  0.005335 0.764410 1 67 1.000000
lowpoly_glow
0  -3.642326 -10.362698 -0.086722  0.000917 0.999994 0.003280  0.437507 0.585330 1 67 1.000000
0  -3.617457 -10.362668 -0.102273  0.000917 0.999994 0.003280  0.437512 0.585332 1 67 1.000000
0  -3.669260 -10.362528 -0.129796  0.000917 0.999994 0.003280  0.437503 0.585337 1 67 1.000000
lowpoly_glow
0  -3.416597 -10.362625 -0.101182  -0.000914 0.999994 0.003362  0.437520 0.585337 1 67 1.000000
0  -3.416156 -10.362526 -0.130501  -0.000914 0.999994 0.003362  0.437516 0.585340 1 67 1.000000
0  -3.467380 -10.362669 -0.101945  -0.000914 0.999994 0.003362  0.437516 0.585330 1 67 1.000000
lowpoly_glow
0  -3.617457 -10.362668 -0.102273  0.000889 0.999994 0.003360  0.437512 0.585332 1 67 1.000000
0  -3.618490 -10.362568 -0.131585  0.000889 0.999994 0.003360  0.437512 0.585337 1 67 1.000000
0  -3.644391 -10.362498 -0.145347  0.000889 0.999994 0.003360  0.437507 0.585340 1 67 1.000000
lowpoly_glow
0  -3.416156 -10.362526 -0.130501  -0.000895 0.999994 0.003202  0.437516 0.585340 1 67 1.000000
0  -3.441327 -10.362498 -0.145542  -0.000895 0.999994 0.003202  0.437512 0.585337 1 67 1.000000
0  -3.466939 -10.362569 -0.131264  -0.000895 0.999994 0.003202  0.437512 0.585332 1 67 1.000000
lowpoly_glow
0  -3.617457 -10.377451 -0.102323  0.999380 0.000121 -0.035204  0.437984 0.585330 1 67 1.000000
0  -3.618490 -10.377351 -0.131635  0.999380 0.000121 -0.035204  0.437984 0.585335 1 67 1.000000
0  -3.618490 -10.362568 -0.131585  0.999380 0.000121 -0.035204  0.437981 0.585335 1 67 1.000000
lowpoly_glow
0  -3.642326 -10.377481 -0.086772  0.530174 -0.002866 0.847884  0.437958 0.585334 1 67 1.000000
0  -3.617457 -10.377451 -0.102323  0.530174 -0.002866 0.847884  0.437958 0.585339 1 67 1.000000
0  -3.617457 -10.362668 -0.102273  0.530174 -0.002866 0.847884  0.437955 0.585339 1 67 1.000000
lowpoly_glow
0  -3.644391 -10.377281 -0.145396  -0.530199 0.002858 -0.847868  0.437960 0.585334 1 67 1.000000
0  -3.669260 -10.377312 -0.129846  -0.530199 0.002858 -0.847868  0.437960 0.585330 1 67 1.000000
0  -3.669260 -10.362528 -0.129796  -0.530199 0.002858 -0.847868  0.437963 0.585330 1 67 1.000000
lowpoly_glow
0  -3.441327 -10.377281 -0.145592  -0.486881 0.002944 -0.873463  0.437958 0.585334 1 67 1.000000
0  -3.466939 -10.377352 -0.131314  -0.486881 0.002944 -0.873463  0.437958 0.585330 1 67 1.000000
0  -3.466939 -10.362569 -0.131264  -0.486881 0.002944 -0.873463  0.437960 0.585330 1 67 1.000000
lowpoly_glow
0  -3.618490 -10.377351 -0.131635  0.469255 0.002974 -0.883058  0.437960 0.585339 1 67 1.000000
0  -3.644391 -10.377281 -0.145396  0.469255 0.002974 -0.883058  0.437960 0.585334 1 67 1.000000
0  -3.644391 -10.362498 -0.145347  0.469255 0.002974 -0.883058  0.437963 0.585334 1 67 1.000000
lowpoly_glow
0  -3.467380 -10.377451 -0.101994  -0.512945 -0.002889 0.858417  0.437955 0.585330 1 67 1.000000
0  -3.442209 -10.377480 -0.086953  -0.512945 -0.002889 0.858417  0.437955 0.585334 1 67 1.000000
0  -3.442208 -10.362697 -0.086903  -0.512945 -0.002889 0.858417  0.437953 0.585334 1 67 1.000000
lowpoly_glow
0  -3.442209 -10.377480 -0.086953  0.486939 -0.002927 0.873431  0.437955 0.585334 1 67 1.000000
0  -3.416597 -10.377408 -0.101231  0.486939 -0.002927 0.873431  0.437955 0.585339 1 67 1.000000
0  -3.416597 -10.362625 -0.101182  0.486939 -0.002927 0.873431  0.437953 0.585339 1 67 1.000000
lowpoly_glow
0  -3.416156 -10.377309 -0.130551  0.513005 0.002890 -0.858381  0.437958 0.585339 1 67 1.000000
0  -3.441327 -10.377281 -0.145592  0.513005 0.002890 -0.858381  0.437958 0.585334 1 67 1.000000
0  -3.441327 -10.362498 -0.145542  0.513005 0.002890 -0.858381  0.437960 0.585334 1 67 1.000000
lowpoly_plastic
0  -3.584498 -17.081026 -0.287442  0.000000 -0.000000 -1.000000  0.008442 0.749260 1 67 1.000000
0  -3.584498 -16.602388 -0.287443  0.000000 -0.000000 -1.000000  0.008442 0.749236 1 67 1.000000
0  -3.500282 -16.602388 -0.287443  0.000000 -0.000000 -1.000000  0.008446 0.749236 1 67 1.000000
lowpoly_plastic
0  -3.572689 -17.081026 -0.111235  0.000000 -0.107507 0.994204  0.008455 0.750373 1 67 1.000000
0  -3.512091 -17.081026 -0.111235  0.000000 -0.107507 0.994204  0.008452 0.750373 1 67 1.000000
0  -3.511822 -16.602388 -0.059478  0.000000 -0.107507 0.994204  0.008452 0.750350 1 67 1.000000
lowpoly_plastic
0  -3.500282 -16.602388 -0.287443  0.998703 -0.006030 0.050554  0.008237 0.750486 1 67 1.000000
0  -3.511822 -16.602388 -0.059478  0.998703 -0.006030 0.050554  0.008248 0.750486 1 67 1.000000
0  -3.512091 -17.081026 -0.111235  0.998703 -0.006030 0.050554  0.008245 0.750509 1 67 1.000000
lowpoly_plastic
0  -3.584498 -17.081026 -0.287442  0.000000 -1.000000 -0.000012  0.008502 0.749721 1 67 1.000000
0  -3.500282 -17.081026 -0.287442  0.000000 -1.000000 -0.000012  0.008497 0.749721 1 67 1.000000
0  -3.512091 -17.081026 -0.111235  0.000000 -1.000000 -0.000012  0.008498 0.749712 1 67 1.000000
lowpoly_plastic
0  -3.584498 -16.602388 -0.287443  -0.997762 0.000001 0.066871  0.008400 0.750218 1 67 1.000000
0  -3.584498 -17.081026 -0.287442  -0.997762 0.000001 0.066871  0.008400 0.750242 1 67 1.000000
0  -3.572689 -17.081026 -0.111235  -0.997762 0.000001 0.066871  0.008392 0.750242 1 67 1.000000
lowpoly_plastic
0  -3.542390 -16.602388 -0.138684  0.000000 -1.000000 0.000000  0.008493 0.749014 1 67 1.000000
0  -3.519513 -16.602388 -0.125476  0.000000 -1.000000 0.000000  0.008494 0.749014 1 67 1.000000
0  -3.519513 -16.602388 -0.099060  0.000000 -1.000000 0.000000  0.008494 0.749012 1 67 1.000000
lowpoly_plastic
0  -3.542390 -16.602388 -0.085851  0.000000 -1.000000 0.000000  0.008493 0.749012 1 67 1.000000
0  -3.565267 -16.602388 -0.099060  0.000000 -1.000000 0.000000  0.008492 0.749012 1 67 1.000000
0  -3.565267 -16.602388 -0.125476  0.000000 -1.000000 0.000000  0.008492 0.749014 1 67 1.000000
lowpoly_glow
0  -3.565267 -16.602388 -0.125476  -1.000000 0.000000 0.000000  0.437992 0.585334 1 67 1.000000
0  -3.565267 -16.602388 -0.099060  -1.000000 0.000000 0.000000  0.437992 0.585330 1 67 1.000000
0  -3.565267 -16.591465 -0.099060  -1.000000 0.000000 0.000000  0.437994 0.585330 1 67 1.000000
lowpoly_glow
0  -3.519513 -16.591463 -0.099060  -0.000083 1.000000 0.000000  0.437663 0.585337 1 67 1.000000
0  -3.519513 -16.591463 -0.125476  -0.000083 1.000000 0.000000  0.437660 0.585339 1 67 1.000000
0  -3.542390 -16.591465 -0.138684  -0.000083 1.000000 0.000000  0.437656 0.585337 1 67 1.000000
lowpoly_glow
0  -3.542390 -16.591465 -0.138684  0.000000 1.000000 0.000000  0.437656 0.585337 1 67 1.000000
0  -3.565267 -16.591465 -0.125476  0.000000 1.000000 0.000000  0.437656 0.585332 1 67 1.000000
0  -3.565267 -16.591465 -0.099060  0.000000 1.000000 0.000000  0.437660 0.585330 1 67 1.000000
lowpoly_glow
0  -3.565267 -16.591465 -0.099060  0.000000 1.000000 0.000000  0.437660 0.585330 1 67 1.000000
0  -3.542390 -16.591465 -0.085851  0.000000 1.000000 0.000000  0.437663 0.585332 1 67 1.000000
0  -3.542390 -16.591465 -0.138684  0.000000 1.000000 0.000000  0.437656 0.585337 1 67 1.000000
lowpoly_glow
0  -3.542390 -16.602388 -0.085851  0.499938 0.000000 0.866062  0.437972 0.585334 1 67 1.000000
0  -3.519513 -16.602388 -0.099060  0.499938 0.000000 0.866062  0.437972 0.585338 1 67 1.000000
0  -3.519513 -16.591463 -0.099060  0.499938 0.000000 0.866062  0.437970 0.585338 1 67 1.000000
lowpoly_glow
0  -3.519513 -16.602388 -0.125476  0.500051 0.000000 -0.865996  0.437972 0.585338 1 67 1.000000
0  -3.542390 -16.602388 -0.138684  0.500051 0.000000 -0.865996  0.437972 0.585334 1 67 1.000000
0  -3.542390 -16.591465 -0.138684  0.500051 0.000000 -0.865996  0.437974 0.585334 1 67 1.000000
lowpoly_glow
0  -3.542390 -16.602388 -0.138684  -0.500050 0.000000 -0.865996  0.437972 0.585334 1 67 1.000000
0  -3.565267 -16.602388 -0.125476  -0.500050 0.000000 -0.865996  0.437972 0.585330 1 67 1.000000
0  -3.565267 -16.591465 -0.125476  -0.500050 0.000000 -0.865996  0.437974 0.585330 1 67 1.000000
lowpoly_glow
0  -3.565267 -16.602388 -0.099060  -0.500051 0.000000 0.865996  0.437972 0.585330 1 67 1.000000
0  -3.542390 -16.602388 -0.085851  -0.500051 0.000000 0.865996  0.437972 0.585334 1 67 1.000000
0  -3.542390 -16.591465 -0.085851  -0.500051 0.000000 0.865996  0.437970 0.585334 1 67 1.000000
lowpoly_glow
0  -3.519513 -16.602388 -0.099060  1.000000 0.000000 0.000000  0.437992 0.585330 1 67 1.000000
0  -3.519513 -16.602388 -0.125476  1.000000 0.000000 0.000000  0.437992 0.585334 1 67 1.000000
0  -3.519513 -16.591463 -0.125476  1.000000 0.000000 0.000000  0.437991 0.585334 1 67 1.000000
lowpoly_plastic
0  -3.352471 -16.698286 -0.309865  0.000000 0.000000 -1.000000  0.069982 0.810837 1 67 1.000000
0  -3.352471 -17.013123 -0.309865  0.000000 0.000000 -1.000000  0.069982 0.810837 1 67 1.000000
0  -3.732309 -17.013123 -0.309865  0.000000 0.000000 -1.000000  0.069982 0.810837 1 67 1.000000
lowpoly_plastic
0  -3.434364 -16.754719 -0.248177  0.000000 -0.000000 1.000000  0.069982 0.810837 1 67 1.000000
0  -3.650416 -16.754719 -0.248177  0.000000 -0.000000 1.000000  0.069982 0.810837 1 67 1.000000
0  -3.650416 -16.957651 -0.248177  0.000000 -0.000000 1.000000  0.069982 0.810837 1 67 1.000000
lowpoly_plastic
0  -3.732309 -16.698286 -0.309865  -0.601673 0.000000 0.798742  0.069982 0.810837 1 67 1.000000
0  -3.732309 -17.013123 -0.309865  -0.601673 0.000000 0.798742  0.069982 0.810837 1 67 1.000000
0  -3.650416 -16.957651 -0.248177  -0.601673 0.000000 0.798742  0.069982 0.810837 1 67 1.000000
lowpoly_plastic
0  -3.352471 -16.698286 -0.309865  0.000000 0.737847 0.674968  0.069982 0.810837 1 67 1.000000
0  -3.732309 -16.698286 -0.309865  0.000000 0.737847 0.674968  0.069982 0.810837 1 67 1.000000
0  -3.650416 -16.754719 -0.248177  0.000000 0.737847 0.674968  0.069982 0.810837 1 67 1.000000
lowpoly_plastic
0  -3.352471 -17.013123 -0.309865  0.601673 0.000000 0.798742  0.069982 0.810837 1 67 1.000000
0  -3.352471 -16.698286 -0.309865  0.601673 0.000000 0.798742  0.069982 0.810837 1 67 1.000000
0  -3.434364 -16.754719 -0.248177  0.601673 0.000000 0.798742  0.069982 0.810837 1 67 1.000000
lowpoly_plastic
0  -3.732309 -17.013123 -0.309865  0.000000 -0.743570 0.668658  0.069982 0.810837 1 67 1.000000
0  -3.352471 -17.013123 -0.309865  0.000000 -0.743570 0.668658  0.069982 0.810837 1 67 1.000000
0  -3.434364 -16.957651 -0.248177  0.000000 -0.743570 0.668658  0.069982 0.810837 1 67 1.000000
lowpoly_plastic
0  -3.388037 -10.324313 -0.441218  0.000003 1.000000 0.000000  0.920811 0.513089 1 67 1.000000
0  -3.696691 -10.324312 -0.441218  0.000003 1.000000 0.000000  0.920811 0.512420 1 67 1.000000
0  -3.542391 -10.324313 -0.257932  0.000003 1.000000 0.000000  0.921203 0.512754 1 67 1.000000
lowpoly_plastic
0  -3.696691 -10.324312 -0.441218  0.000035 1.000000 -0.000020  0.920811 0.512420 1 67 1.000000
0  -3.697966 -10.324308 -0.287780  0.000035 1.000000 -0.000020  0.921139 0.512417 1 67 1.000000
0  -3.542391 -10.324313 -0.257932  0.000035 1.000000 -0.000020  0.921203 0.512754 1 67 1.000000
lowpoly_plastic
0  -3.696681 -10.230204 -0.441218  0.999969 -0.000912 0.007813  0.921855 0.513510 1 67 1.000000
0  -3.697909 -10.262217 -0.287855  0.999969 -0.000912 0.007813  0.921924 0.513178 1 67 1.000000
0  -3.697966 -10.324308 -0.287780  0.999969 -0.000912 0.007813  0.922059 0.513177 1 67 1.000000
lowpoly_plastic
0  -3.388037 -10.324313 -0.441218  -0.999838 -0.000042 0.017978  0.921397 0.513177 1 67 1.000000
0  -3.385241 -10.324312 -0.285723  -0.999838 -0.000042 0.017978  0.921734 0.513177 1 67 1.000000
0  -3.385243 -10.262220 -0.285726  -0.999838 -0.000042 0.017978  0.921734 0.513312 1 67 1.000000
lowpoly_plastic
0  -3.708724 -10.726691 -0.294962  -0.219924 0.001138 0.975516  0.920385 0.509934 1 67 1.000000
0  -3.542391 -10.743836 -0.257443  -0.219924 0.001138 0.975516  0.920024 0.509969 1 67 1.000000
0  -3.542391 -10.324313 -0.257932  -0.219924 0.001138 0.975516  0.920024 0.509060 1 67 1.000000
lowpoly_plastic
0  -3.385241 -10.324312 -0.285723  0.174136 0.001148 0.984721  0.919684 0.509062 1 67 1.000000
0  -3.542391 -10.324313 -0.257932  0.174136 0.001148 0.984721  0.920024 0.509060 1 67 1.000000
0  -3.542391 -10.743836 -0.257443  0.174136 0.001148 0.984721  0.920024 0.509969 1 67 1.000000
lowpoly_plastic
0  -3.374959 -10.726690 -0.293520  0.001764 -0.913143 -0.407636  0.922370 0.511658 1 67 1.000000
0  -3.708724 -10.726691 -0.294962  0.001764 -0.913143 -0.407636  0.922369 0.512381 1 67 1.000000
0  -3.795823 -10.697289 -0.361200  0.001764 -0.913143 -0.407636  0.922231 0.512570 1 67 1.000000
lowpoly_plastic
0  -3.287930 -11.187685 -0.359837  -0.002632 0.000053 0.999996  0.919473 0.510936 1 67 1.000000
0  -3.287950 -10.697283 -0.359863  -0.002632 0.000053 0.999996  0.919474 0.509874 1 67 1.000000
0  -3.795823 -10.697289 -0.361200  -0.002632 0.000053 0.999996  0.920574 0.509874 1 67 1.000000
lowpoly_plastic
0  -3.374942 -11.158276 -0.293497  0.000584 0.914472 -0.404650  0.922302 0.512759 1 67 1.000000
0  -3.287930 -11.187685 -0.359837  0.000584 0.914472 -0.404650  0.922434 0.512570 1 67 1.000000
0  -3.796290 -11.187691 -0.360584  0.000584 0.914472 -0.404650  0.922434 0.513671 1 67 1.000000
lowpoly_plastic
0  -3.542391 -12.424934 -0.257874  -0.216450 -0.000328 0.976294  0.920024 0.513608 1 67 1.000000
0  -3.542391 -11.141129 -0.257443  -0.216450 -0.000328 0.976294  0.920024 0.510829 1 67 1.000000
0  -3.709138 -11.158277 -0.294418  -0.216450 -0.000328 0.976294  0.920385 0.510868 1 67 1.000000
lowpoly_plastic
0  -3.708724 -10.726691 -0.294962  -0.604913 0.001960 0.796289  0.920385 0.509934 1 67 1.000000
0  -3.697966 -10.324308 -0.287780  -0.604913 0.001960 0.796289  0.920361 0.509062 1 67 1.000000
0  -3.795823 -10.697289 -0.361200  -0.604913 0.001960 0.796289  0.920574 0.509874 1 67 1.000000
lowpoly_plastic
0  -3.697966 -10.324308 -0.287780  -0.595105 0.001528 0.803647  0.920361 0.509062 1 67 1.000000
0  -3.697909 -10.262217 -0.287855  -0.595105 0.001528 0.803647  0.920361 0.508928 1 67 1.000000
0  -3.904856 -10.199449 -0.441218  -0.595105 0.001528 0.803647  0.920810 0.508801 1 67 1.000000
lowpoly_plastic
0  -3.795823 -10.697289 -0.361200  -0.596305 -0.001571 0.802757  0.920574 0.509874 1 67 1.000000
0  -3.697966 -10.324308 -0.287780  -0.596305 -0.001571 0.802757  0.920361 0.509062 1 67 1.000000
0  -3.904856 -10.199449 -0.441218  -0.596305 -0.001571 0.802757  0.920810 0.508801 1 67 1.000000
lowpoly_plastic
0  -3.904856 -10.199449 -0.441218  -0.595509 0.000127 0.803348  0.920810 0.508801 1 67 1.000000
0  -3.905330 -12.424934 -0.441218  -0.595509 0.000127 0.803348  0.920811 0.513619 1 67 1.000000
0  -3.796290 -11.187691 -0.360584  -0.595509 0.000127 0.803348  0.920575 0.510936 1 67 1.000000
lowpoly_plastic
0  -3.905330 -12.424934 -0.441218  -0.604784 0.001398 0.796388  0.920811 0.513619 1 67 1.000000
0  -3.756745 -12.424934 -0.328381  -0.604784 0.001398 0.796388  0.920489 0.513613 1 67 1.000000
0  -3.796290 -11.187691 -0.360584  -0.604784 0.001398 0.796388  0.920575 0.510936 1 67 1.000000
lowpoly_plastic
0  -3.756745 -12.424934 -0.328381  -0.604976 0.001388 0.796243  0.920489 0.513613 1 67 1.000000
0  -3.709138 -11.158277 -0.294418  -0.604976 0.001388 0.796243  0.920385 0.510868 1 67 1.000000
0  -3.796290 -11.187691 -0.360584  -0.604976 0.001388 0.796243  0.920575 0.510936 1 67 1.000000
lowpoly_plastic
0  -3.374942 -11.158276 -0.293497  0.210458 -0.000328 0.977603  0.919662 0.510868 1 67 1.000000
0  -3.542391 -11.141129 -0.257443  0.210458 -0.000328 0.977603  0.920024 0.510829 1 67 1.000000
0  -3.542391 -12.424934 -0.257874  0.210458 -0.000328 0.977603  0.919980 0.513609 1 67 1.000000
lowpoly_plastic
0  -3.181312 -10.199182 -0.441218  0.606324 0.000063 0.795218  0.919439 0.508857 1 67 1.000000
0  -3.385243 -10.262220 -0.285726  0.606324 0.000063 0.795218  0.919684 0.508927 1 67 1.000000
0  -3.385241 -10.324312 -0.285723  0.606324 0.000063 0.795218  0.919684 0.509062 1 67 1.000000
lowpoly_plastic
0  -3.385241 -10.324312 -0.285723  0.606313 0.000082 0.795226  0.919684 0.509062 1 67 1.000000
0  -3.374959 -10.726690 -0.293520  0.606313 0.000082 0.795226  0.919662 0.509934 1 67 1.000000
0  -3.287950 -10.697283 -0.359863  0.606313 0.000082 0.795226  0.919474 0.509874 1 67 1.000000
lowpoly_plastic
0  -3.287930 -11.187685 -0.359837  0.606333 0.000133 0.795210  0.919473 0.510936 1 67 1.000000
0  -3.374942 -11.158276 -0.293497  0.606333 0.000133 0.795210  0.919662 0.510868 1 67 1.000000
0  -3.332038 -12.424934 -0.325998  0.606333 0.000133 0.795210  0.919569 0.513613 1 67 1.000000
lowpoly_plastic
0  -3.181312 -10.199182 -0.441218  0.606311 0.000082 0.795228  0.919439 0.508857 1 67 1.000000
0  -3.385241 -10.324312 -0.285723  0.606311 0.000082 0.795228  0.919684 0.509062 1 67 1.000000
0  -3.287950 -10.697283 -0.359863  0.606311 0.000082 0.795228  0.919474 0.509874 1 67 1.000000
lowpoly_plastic
0  -3.287930 -11.187685 -0.359837  0.606653 0.000115 0.794966  0.919473 0.510936 1 67 1.000000
0  -3.332038 -12.424934 -0.325998  0.606653 0.000115 0.794966  0.919569 0.513613 1 67 1.000000
0  -3.181052 -12.424934 -0.441218  0.606653 0.000115 0.794966  0.919242 0.513619 1 67 1.000000
lowpoly_plastic
0  -3.181312 -10.199182 -0.441218  0.606357 0.000066 0.795193  0.919439 0.508857 1 67 1.000000
0  -3.287950 -10.697283 -0.359863  0.606357 0.000066 0.795193  0.919474 0.509874 1 67 1.000000
0  -3.287930 -11.187685 -0.359837  0.606357 0.000066 0.795193  0.919473 0.510936 1 67 1.000000
lowpoly_plastic
0  -3.181052 -12.424934 -0.441218  0.000000 -1.000000 0.000000  0.921793 0.511465 1 67 1.000000
0  -3.332038 -12.424934 -0.325998  0.000000 -1.000000 0.000000  0.921544 0.511138 1 67 1.000000
0  -3.756745 -12.424934 -0.328381  0.000000 -1.000000 0.000000  0.921549 0.510218 1 67 1.000000
lowpoly_plastic
0  -3.332038 -12.424934 -0.325998  0.000000 -1.000000 0.000000  0.921544 0.511138 1 67 1.000000
0  -3.542391 -12.424934 -0.257874  0.000000 -1.000000 0.000000  0.921397 0.510682 1 67 1.000000
0  -3.756745 -12.424934 -0.328381  0.000000 -1.000000 0.000000  0.921549 0.510218 1 67 1.000000
lowpoly_metal
0  -3.531903 -10.946476 -0.221999  0.392546 -0.696668 0.600468  0.061424 0.627797 1 67 1.000000
0  -3.426376 -10.887016 -0.221999  0.392546 -0.696668 0.600468  0.061424 0.627778 1 67 1.000000
0  -3.437189 -10.884100 -0.211546  0.392546 -0.696668 0.600468  0.061426 0.627780 1 67 1.000000
lowpoly_metal
0  -3.486599 -10.782828 -0.221999  -0.392497 0.696582 0.600600  0.061430 0.627797 1 67 1.000000
0  -3.592126 -10.842288 -0.221999  -0.392497 0.696582 0.600600  0.061430 0.627778 1 67 1.000000
0  -3.581313 -10.845206 -0.211546  -0.392497 0.696582 0.600600  0.061432 0.627780 1 67 1.000000
lowpoly_metal
0  -3.426376 -10.887016 -0.221999  0.690639 0.399206 0.603036  0.061428 0.627796 1 67 1.000000
0  -3.486599 -10.782828 -0.221999  0.690639 0.399206 0.603036  0.061428 0.627778 1 67 1.000000
0  -3.489555 -10.793505 -0.211546  0.690639 0.399206 0.603036  0.061430 0.627780 1 67 1.000000
lowpoly_metal
0  -3.592126 -10.842288 -0.221999  -0.690619 -0.399195 0.603066  0.061426 0.627796 1 67 1.000000
0  -3.531903 -10.946476 -0.221999  -0.690619 -0.399195 0.603066  0.061426 0.627778 1 67 1.000000
0  -3.528947 -10.935801 -0.211546  -0.690619 -0.399195 0.603066  0.061428 0.627780 1 67 1.000000
lowpoly_plastic
0  -3.697329 -10.174253 -0.441218  0.000000 0.000001 -1.000000  0.918792 0.513673 1 67 1.000000
0  -3.696681 -10.230204 -0.441218  0.000000 0.000001 -1.000000  0.918790 0.513552 1 67 1.000000
0  -3.904856 -10.199449 -0.441218  0.000000 0.000001 -1.000000  0.919241 0.513618 1 67 1.000000
lowpoly_plastic
0  -3.696681 -10.230204 -0.441218  -0.000000 0.000000 -1.000000  0.918790 0.513552 1 67 1.000000
0  -3.696691 -10.324312 -0.441218  -0.000000 0.000000 -1.000000  0.918790 0.513348 1 67 1.000000
0  -3.904856 -10.199449 -0.441218  -0.000000 0.000000 -1.000000  0.919241 0.513618 1 67 1.000000
lowpoly_plastic
0  -3.388037 -10.324313 -0.441218  0.000000 0.000000 -1.000000  0.918122 0.513348 1 67 1.000000
0  -3.388037 -10.230135 -0.441218  0.000000 0.000000 -1.000000  0.918122 0.513552 1 67 1.000000
0  -3.181312 -10.199182 -0.441218  0.000000 0.000000 -1.000000  0.917674 0.513619 1 67 1.000000
lowpoly_plastic
0  -3.388037 -10.230135 -0.441218  -0.000000 0.000000 -1.000000  0.918122 0.513552 1 67 1.000000
0  -3.386405 -10.166264 -0.441218  -0.000000 0.000000 -1.000000  0.918118 0.513690 1 67 1.000000
0  -3.181312 -10.199182 -0.441218  -0.000000 0.000000 -1.000000  0.917674 0.513619 1 67 1.000000
lowpoly_plastic
0  -3.905330 -12.424934 -0.441218  -0.000000 0.000000 -1.000000  0.919242 0.508800 1 67 1.000000
0  -3.904856 -10.199449 -0.441218  -0.000000 0.000000 -1.000000  0.919241 0.513618 1 67 1.000000
0  -3.696691 -10.324312 -0.441218  -0.000000 0.000000 -1.000000  0.918790 0.513348 1 67 1.000000
lowpoly_plastic
0  -3.388037 -10.324313 -0.441218  0.000000 0.000000 -1.000000  0.918122 0.513348 1 67 1.000000
0  -3.181312 -10.199182 -0.441218  0.000000 0.000000 -1.000000  0.917674 0.513619 1 67 1.000000
0  -3.181052 -12.424934 -0.441218  0.000000 0.000000 -1.000000  0.917673 0.508800 1 67 1.000000
lowpoly_plastic
0  -3.905330 -12.424934 -0.441218  0.000000 0.000000 -1.000000  0.919242 0.508800 1 67 1.000000
0  -3.696691 -10.324312 -0.441218  0.000000 0.000000 -1.000000  0.918790 0.513348 1 67 1.000000
0  -3.181052 -12.424934 -0.441218  0.000000 0.000000 -1.000000  0.917673 0.508800 1 67 1.000000
end
