version 1
nodes
0 "ValveBiped.Bip01_Spine4" -1
1 "ValveBiped.Bip01_L_Clavicle" 0
2 "ValveBiped.Bip01_L_UpperArm" 1
3 "ValveBiped.Bip01_L_Forearm" 2
4 "ValveBiped.Bip01_L_Hand" 3
5 "ValveBiped.Bip01_L_Finger4" 4
6 "ValveBiped.Bip01_L_Finger41" 5
7 "ValveBiped.Bip01_L_Finger42" 6
8 "ValveBiped.Bip01_L_Finger3" 4
9 "ValveBiped.Bip01_L_Finger31" 8
10 "ValveBiped.Bip01_L_Finger32" 9
11 "ValveBiped.Bip01_L_Finger2" 4
12 "ValveBiped.Bip01_L_Finger21" 11
13 "ValveBiped.Bip01_L_Finger22" 12
14 "ValveBiped.Bip01_L_Finger1" 4
15 "ValveBiped.Bip01_L_Finger11" 14
16 "ValveBiped.Bip01_L_Finger12" 15
17 "ValveBiped.Bip01_L_Finger0" 4
18 "ValveBiped.Bip01_L_Finger01" 17
19 "ValveBiped.Bip01_L_Finger02" 18
20 "ValveBiped.Bip01_L_Ulna" 3
21 "ValveBiped.Bip01_L_Wrist" 3
22 "rig_l_upperarm" 1
23 "rig_l_forearm" 22
24 "rig_d_l_forearm" 23
25 "rig_d_l_upperarm" 22
26 "ValveBiped.Bip01_R_Clavicle" 0
27 "ValveBiped.Bip01_R_UpperArm" 26
28 "ValveBiped.Bip01_R_Forearm" 27
29 "ValveBiped.Bip01_R_Hand" 28
30 "ValveBiped.Bip01_R_Finger4" 29
31 "ValveBiped.Bip01_R_Finger41" 30
32 "ValveBiped.Bip01_R_Finger42" 31
33 "ValveBiped.Bip01_R_Finger3" 29
34 "ValveBiped.Bip01_R_Finger31" 33
35 "ValveBiped.Bip01_R_Finger32" 34
36 "ValveBiped.Bip01_R_Finger2" 29
37 "ValveBiped.Bip01_R_Finger21" 36
38 "ValveBiped.Bip01_R_Finger22" 37
39 "ValveBiped.Bip01_R_Finger1" 29
40 "ValveBiped.Bip01_R_Finger11" 39
41 "ValveBiped.Bip01_R_Finger12" 40
42 "ValveBiped.Bip01_R_Finger0" 29
43 "ValveBiped.Bip01_R_Finger01" 42
44 "ValveBiped.Bip01_R_Finger02" 43
45 "ValveBiped.Bip01_R_Ulna" 28
46 "ValveBiped.Bip01_R_Wrist" 28
47 "rig_r_upperarm" 26
48 "rig_r_forearm" 47
49 "rig_d_r_forearm" 48
50 "rig_d_r_upperarm" 47
51 "rig_r_hand" -1
52 "rig_d_r_hand" 51
53 "rig_d_r_wrist" 52
54 "rig_l_hand" -1
55 "rig_d_l_hand" 54
56 "rig_d_l_wrist" 54
57 "rig_l_pole" -1
58 "rig_r_pole" -1
59 "rig_l_clavicle" -1
60 "rig_d_l_clavicle" 59
61 "rig_r_clavicle" -1
62 "rig_d_r_clavicle" 61
63 "Camera" -1
64 "body" -1
65 "trigger" 64
66 "bullet1" 64
67 "slide" 64
68 "hammer" 64
69 "sliderelease" 64
70 "barrel" 64
71 "slidesg" 64
72 "grip_safety" 64
73 "safety" 64
74 "magrelease" 64
75 "sg_round" -1
76 "mag" -1
77 "bullet2" 76
78 "bullet3" 76
79 "bullet4" 78
80 "bullet5" 78
81 "bullet6" 78
82 "bullet7" 78
83 "bullet8" 78
84 "bullet9" 78
85 "bullet10" 78
86 "springstart" 76
87 "springend" 86
88 "sg_shell" -1
end
skeleton
time 0
0  0.000006 0.000000 0.000000  -1.570800 -1.391899 -1.570792
1  2.033349 1.000767 1.937657  -1.544956 -1.855077 -0.198630
2  6.027519 -0.000325 0.000208  -2.143567 0.785018 -0.668631
3  11.692112 0.000645 -0.000737  -0.000081 -0.000003 -1.062457
4  11.480341 -0.000210 -0.000731  1.977908 0.206141 0.313878
5  3.859507 -0.142824 -1.192079  -0.468169 0.151546 -0.880257
6  1.312591 0.000011 0.000008  -0.000027 0.000044 -0.439740
7  0.729356 0.000054 0.000049  0.000017 0.000021 -0.244317
8  3.942145 0.046328 -0.431542  -0.151817 0.073216 -0.811086
9  1.539110 0.000084 0.000004  -0.000007 0.000021 -0.247842
10  1.196333 0.000143 0.000029  0.000011 0.000018 -0.430770
11  3.883516 -0.047213 0.431351  0.085894 0.021858 -0.587909
12  1.719572 -0.000031 0.000017  0.000015 0.005518 -0.366533
13  1.209181 0.000090 0.000012  0.000004 0.003091 -0.216438
14  3.859681 -0.138419 1.332380  0.354466 -0.042717 -0.531784
15  1.719448 -0.000020 0.000028  0.000028 0.004066 -0.363025
16  1.099676 0.000050 0.000005  0.000003 0.002578 -0.244381
17  0.806014 -0.349039 1.321248  -1.222694 -0.679188 -0.788867
18  1.789818 -0.000006 -0.000018  0.000011 -0.000024 0.228523
19  1.207014 -0.000014 -0.000041  0.000002 -0.000008 0.362856
20  5.740633 0.000389 -0.000700  0.079065 0.000003 0.000063
21  11.481082 0.000133 -0.000803  0.075193 0.073684 0.050288
22  6.027525 -0.000330 0.000200  -2.352391 -0.091111 0.810625
23  0.000001 11.692099 -0.000007  -0.760917 -0.255891 -0.622326
24  0.000004 0.000009 -0.000000  0.868996 -0.000031 1.570739
25  0.000000 -0.000012 -0.000000  0.868960 0.000002 1.570712
26  2.033355 1.000772 -1.937609  1.473120 1.855075 -0.198639
27  6.027509 -0.000259 -0.000229  1.637176 -0.060228 -0.592196
28  11.691992 0.000163 0.000858  -0.000050 -0.000001 -0.007067
29  11.539204 0.000316 0.000816  -1.562466 0.108529 -0.061253
30  3.859438 -0.132760 1.193065  0.466290 -0.158048 -0.878823
31  1.312559 0.000023 0.000001  0.000013 -0.000043 -0.439709
32  0.729345 0.000065 -0.000027  -0.000023 -0.000019 -0.244286
33  3.942046 0.050138 0.431000  0.150091 -0.079181 -0.810189
34  1.539099 0.000006 0.000000  0.000009 -0.000007 -0.247824
35  1.196302 0.000075 -0.000004  -0.000007 -0.000009 -0.430781
36  3.883415 -0.050474 -0.431084  -0.085915 -0.026392 -0.587660
37  1.719564 -0.000085 -0.000004  -0.000006 -0.007962 -0.366486
38  1.209197 0.000034 0.000011  0.000002 -0.004461 -0.216413
39  3.859588 -0.149084 -1.331321  -0.354445 0.038578 -0.531955
40  1.719413 -0.000099 -0.000036  -0.000030 -0.006584 -0.363030
41  1.099674 0.000025 0.000006  0.000004 -0.004188 -0.244347
42  0.805982 -0.359850 -1.318338  1.221444 0.673631 -0.793558
43  1.789779 -0.000010 -0.000040  -0.000028 0.000031 0.228553
44  1.206995 -0.000006 0.000007  -0.000017 0.000020 0.362910
45  5.740573 0.000079 0.000723  0.026990 -0.000014 0.000028
46  11.492787 0.000137 0.000908  0.000504 0.000315 -0.022541
47  6.027515 -0.000273 -0.000228  0.074799 -0.634128 -2.207435
48  -0.000001 11.691977 -0.000007  -0.005397 0.000036 0.004562
49  0.000002 -0.000001 0.000001  2.272571 -0.000036 1.570860
50  -0.000008 -0.000014 0.000004  2.272645 -0.000036 1.570861
51  -22.620094 0.844507 -17.554111  -1.605366 2.379717 -0.041994
52  -0.000000 0.000001 -0.000000  0.008153 -0.000259 0.000009
53  0.000001 -0.000001 0.000000  1.565115 0.043565 -0.106862
54  22.730511 4.822210 -11.506547  1.605712 0.761853 0.042358
55  0.000000 -0.000002 -0.000000  0.000000 -0.000001 -0.000002
56  0.000031 0.000027 0.000001  -1.571901 -0.044449 -0.106509
57  15.265023 8.339654 -8.787539  1.570796 -0.000000 0.000000
58  -15.265000 8.339654 -8.787539  1.570796 -0.000000 0.000000
59  1.941978 -1.346989 1.821586  1.570796 -0.000000 0.000000
60  -0.004311 0.001230 -0.000371  0.006898 -0.005534 -0.284229
61  -1.937603 -1.346625 1.822824  1.570796 -0.000000 0.000000
62  0.000000 0.000000 0.000000  -0.078727 -3.136056 0.284226
63  0.000000 0.000000 0.000000  1.570796 -0.000000 0.000000
64  -3.534368 -10.111034 -2.851932  1.570796 -0.000000 0.000000
65  -0.008022 0.449004 2.449477  0.000000 -0.000000 0.000000
66  -0.008021 1.798499 0.936337  0.000000 -0.000000 0.000000
67  0.000000 2.151127 2.901127  0.000000 -0.000000 0.000000
68  -0.008023 1.347420 0.085285  0.000000 -0.000000 0.000000
69  0.230628 1.332312 3.105305  0.000000 -0.000000 0.000000
70  -0.008024 2.172907 7.984051  0.000000 -0.000000 0.000000
71  -0.008022 1.228065 5.810776  0.000000 -0.000000 0.000000
72  -0.008023 1.115505 -0.313082  0.000000 -0.000000 0.000000
73  -0.008023 1.345870 0.084164  1.570796 -0.000000 -0.000000
74  -0.008023 0.197514 1.902819  0.000000 -0.000000 0.000000
75  -3.542390 -12.021312 -0.689985  1.570796 -0.000000 0.000000
76  -3.534368 -10.839828 -0.901454  1.570796 -0.000000 0.000000
77  -0.008021 -0.653745 0.060182  0.000000 -0.000000 0.000000
78  -0.008021 -1.155510 -0.087180  0.000000 -0.000000 0.000000
79  0.000000 -0.501765 -0.147367  0.000000 -0.000000 0.000000
80  0.000000 -1.003531 -0.294728  0.000000 -0.000000 0.000000
81  0.000000 -1.505297 -0.442090  0.000000 -0.000000 0.000000
82  0.000000 -2.007061 -0.589454  0.000000 -0.000000 0.000000
83  0.000000 -2.508827 -0.736814  0.000000 -0.000000 0.000000
84  0.000000 -2.772560 -0.939010  0.000000 -0.000000 0.000000
85  0.000000 -3.071457 -1.220325  0.000000 -0.000000 0.000000
86  -0.283371 -4.518086 -0.534134  0.346743 -0.000000 -0.000000
87  -0.000000 4.582804 -0.219900  -0.051302 0.000000 0.000000
88  -3.542390 -12.021312 -0.689985  1.570796 -0.000000 0.000000
end
triangles
lowpoly_plastic
0  -3.352081 -16.169294 -0.309865  0.000000 0.000000 -1.000000  0.069982 0.810837 1 67 1.000000
0  -3.747738 -16.484131 -0.309865  0.000000 0.000000 -1.000000  0.069982 0.810837 1 67 1.000000
0  -3.747738 -16.169294 -0.309865  0.000000 0.000000 -1.000000  0.069982 0.810837 1 67 1.000000
lowpoly_plastic
0  -3.433974 -16.225727 -0.248177  0.000000 -0.000000 1.000000  0.069982 0.810837 1 67 1.000000
0  -3.665845 -16.428659 -0.248177  0.000000 -0.000000 1.000000  0.069982 0.810837 1 67 1.000000
0  -3.433974 -16.428659 -0.248177  0.000000 -0.000000 1.000000  0.069982 0.810837 1 67 1.000000
lowpoly_plastic
0  -3.747738 -16.169294 -0.309865  -0.601666 0.000000 0.798747  0.069982 0.810837 1 67 1.000000
0  -3.665845 -16.428659 -0.248177  -0.601666 0.000000 0.798747  0.069982 0.810837 1 67 1.000000
0  -3.665845 -16.225727 -0.248177  -0.601666 0.000000 0.798747  0.069982 0.810837 1 67 1.000000
lowpoly_plastic
0  -3.352081 -16.169294 -0.309865  0.000000 0.737829 0.674987  0.069982 0.810837 1 67 1.000000
0  -3.665845 -16.225727 -0.248177  0.000000 0.737829 0.674987  0.069982 0.810837 1 67 1.000000
0  -3.433974 -16.225727 -0.248177  0.000000 0.737829 0.674987  0.069982 0.810837 1 67 1.000000
lowpoly_plastic
0  -3.352081 -16.484131 -0.309865  0.601680 0.000000 0.798738  0.069982 0.810837 1 67 1.000000
0  -3.433974 -16.225727 -0.248177  0.601680 0.000000 0.798738  0.069982 0.810837 1 67 1.000000
0  -3.433974 -16.428659 -0.248177  0.601680 0.000000 0.798738  0.069982 0.810837 1 67 1.000000
lowpoly_plastic
0  -3.747738 -16.484131 -0.309865  0.000000 -0.743581 0.668646  0.069982 0.810837 1 67 1.000000
0  -3.433974 -16.428659 -0.248177  0.000000 -0.743581 0.668646  0.069982 0.810837 1 67 1.000000
0  -3.665845 -16.428659 -0.248177  0.000000 -0.743581 0.668646  0.069982 0.810837 1 67 1.000000
lowpoly_plastic
0  -3.388037 -10.230139 -0.441218  -0.999404 0.025527 0.023227  0.921397 0.513381 1 67 1.000000
0  -3.385243 -10.262224 -0.285726  -0.999404 0.025527 0.023227  0.921734 0.513312 1 67 1.000000
0  -3.386405 -10.166266 -0.441218  -0.999404 0.025527 0.023227  0.921397 0.513520 1 67 1.000000
lowpoly_plastic
0  -3.542390 -10.324316 -0.257932  0.000000 1.000000 -0.000002  0.921203 0.512754 1 67 1.000000
0  -3.385240 -10.324316 -0.285722  0.000000 1.000000 -0.000002  0.921143 0.513094 1 67 1.000000
0  -3.388036 -10.324316 -0.441218  0.000000 1.000000 -0.000002  0.920811 0.513089 1 67 1.000000
lowpoly_plastic
0  -3.696681 -10.230206 -0.441218  0.999965 -0.000099 0.008314  0.921855 0.513510 1 67 1.000000
0  -3.697966 -10.324311 -0.287780  0.999965 -0.000099 0.008314  0.922059 0.513177 1 67 1.000000
0  -3.696690 -10.324316 -0.441218  0.999965 -0.000099 0.008314  0.922059 0.513510 1 67 1.000000
lowpoly_plastic
0  -3.388036 -10.324316 -0.441218  -0.999839 -0.000008 0.017965  0.921397 0.513177 1 67 1.000000
0  -3.385243 -10.262224 -0.285726  -0.999839 -0.000008 0.017965  0.921734 0.513312 1 67 1.000000
0  -3.388037 -10.230139 -0.441218  -0.999839 -0.000008 0.017965  0.921397 0.513381 1 67 1.000000
lowpoly_plastic
0  -3.708724 -10.726694 -0.294962  -0.188401 -0.012492 0.982013  0.920385 0.509934 1 67 1.000000
0  -3.542390 -10.324316 -0.257932  -0.188401 -0.012492 0.982013  0.920024 0.509060 1 67 1.000000
0  -3.697966 -10.324311 -0.287780  -0.188401 -0.012492 0.982013  0.920361 0.509062 1 67 1.000000
lowpoly_plastic
0  -3.385240 -10.324316 -0.285722  0.211944 -0.013521 0.977188  0.919684 0.509062 1 67 1.000000
0  -3.542390 -10.743839 -0.257443  0.211944 -0.013521 0.977188  0.920024 0.509969 1 67 1.000000
0  -3.374959 -10.726693 -0.293520  0.211944 -0.013521 0.977188  0.919662 0.509934 1 67 1.000000
lowpoly_plastic
0  -3.374959 -10.726693 -0.293520  0.001077 -0.914734 -0.404056  0.922370 0.511658 1 67 1.000000
0  -3.795822 -10.697292 -0.361200  0.001077 -0.914734 -0.404056  0.922231 0.512570 1 67 1.000000
0  -3.287949 -10.697285 -0.359863  0.001077 -0.914734 -0.404056  0.922231 0.511470 1 67 1.000000
lowpoly_plastic
0  -3.287930 -11.187688 -0.359837  -0.001469 0.001257 0.999998  0.919473 0.510936 1 67 1.000000
0  -3.795822 -10.697292 -0.361200  -0.001469 0.001257 0.999998  0.920574 0.509874 1 67 1.000000
0  -3.796290 -11.187694 -0.360584  -0.001469 0.001257 0.999998  0.920575 0.510936 1 67 1.000000
lowpoly_plastic
0  -3.374941 -11.158279 -0.293497  0.001122 0.913229 -0.407445  0.922302 0.512759 1 67 1.000000
0  -3.796290 -11.187694 -0.360584  0.001122 0.913229 -0.407445  0.922434 0.513671 1 67 1.000000
0  -3.709138 -11.158279 -0.294418  0.001122 0.913229 -0.407445  0.922303 0.513482 1 67 1.000000
lowpoly_plastic
0  -3.542390 -11.141132 -0.257443  0.001171 0.905164 -0.425061  0.922231 0.513121 1 67 1.000000
0  -3.374941 -11.158279 -0.293497  0.001171 0.905164 -0.425061  0.922302 0.512759 1 67 1.000000
0  -3.709138 -11.158279 -0.294418  0.001171 0.905164 -0.425061  0.922303 0.513482 1 67 1.000000
lowpoly_plastic
0  -3.542390 -10.743839 -0.257443  0.001827 -0.906448 -0.422314  0.922446 0.512021 1 67 1.000000
0  -3.708724 -10.726694 -0.294962  0.001827 -0.906448 -0.422314  0.922369 0.512381 1 67 1.000000
0  -3.374959 -10.726693 -0.293520  0.001827 -0.906448 -0.422314  0.922370 0.511658 1 67 1.000000
lowpoly_plastic
0  -3.542390 -12.424937 -0.257874  -0.312428 -0.013726 0.949842  0.920024 0.513608 1 67 1.000000
0  -3.709138 -11.158279 -0.294418  -0.312428 -0.013726 0.949842  0.920385 0.510868 1 67 1.000000
0  -3.756745 -12.424937 -0.328381  -0.312428 -0.013726 0.949842  0.920446 0.513612 1 67 1.000000
lowpoly_plastic
0  -3.696681 -10.230206 -0.441218  0.999879 0.011585 0.010415  0.921855 0.513510 1 67 1.000000
0  -3.697329 -10.174256 -0.441218  0.999879 0.011585 0.010415  0.921734 0.513510 1 67 1.000000
0  -3.697908 -10.262219 -0.287855  0.999879 0.011585 0.010415  0.921924 0.513178 1 67 1.000000
lowpoly_plastic
0  -3.386405 -10.166266 -0.441218  0.135406 0.843614 0.519597  0.922008 0.509929 1 67 1.000000
0  -3.385243 -10.262224 -0.285726  0.135406 0.843614 0.519597  0.922374 0.509929 1 67 1.000000
0  -3.181312 -10.199185 -0.441218  0.135406 0.843614 0.519597  0.922020 0.510277 1 67 1.000000
lowpoly_plastic
0  -3.904856 -10.199451 -0.441218  -0.104754 0.862840 0.494503  0.920815 0.513409 1 67 1.000000
0  -3.697908 -10.262219 -0.287855  -0.104754 0.862840 0.494503  0.920811 0.513094 1 67 1.000000
0  -3.697329 -10.174256 -0.441218  -0.104754 0.862840 0.494503  0.920876 0.513583 1 67 1.000000
lowpoly_plastic
0  -3.904856 -10.199451 -0.441218  -0.586962 0.001577 0.809613  0.920810 0.508801 1 67 1.000000
0  -3.796290 -11.187694 -0.360584  -0.586962 0.001577 0.809613  0.920575 0.510936 1 67 1.000000
0  -3.795822 -10.697292 -0.361200  -0.586962 0.001577 0.809613  0.920574 0.509874 1 67 1.000000
lowpoly_plastic
0  -3.374941 -11.158279 -0.293497  0.308072 -0.013974 0.951260  0.919662 0.510868 1 67 1.000000
0  -3.542390 -12.424937 -0.257874  0.308072 -0.013974 0.951260  0.919980 0.513609 1 67 1.000000
0  -3.332037 -12.424937 -0.325998  0.308072 -0.013974 0.951260  0.919569 0.513613 1 67 1.000000
lowpoly_plastic
0  -3.181312 -10.199185 -0.441218  0.606329 0.000071 0.795214  0.919439 0.508857 1 67 1.000000
0  -3.287930 -11.187688 -0.359837  0.606329 0.000071 0.795214  0.919473 0.510936 1 67 1.000000
0  -3.181052 -12.424937 -0.441218  0.606329 0.000071 0.795214  0.919242 0.513619 1 67 1.000000
lowpoly_plastic
0  -3.756745 -12.424937 -0.328381  0.000000 -1.000000 0.000000  0.921549 0.510218 1 67 1.000000
0  -3.905330 -12.424937 -0.441218  0.000000 -1.000000 0.000000  0.921793 0.509896 1 67 1.000000
0  -3.181052 -12.424937 -0.441218  0.000000 -1.000000 0.000000  0.921793 0.511465 1 67 1.000000
lowpoly_plastic
0  -3.287083 -10.262597 -0.275207  0.000000 -0.001550 -0.999999  0.006723 0.762509 1 67 1.000000
0  -3.828867 -10.742172 -0.274464  0.000000 -0.001550 -0.999999  0.006721 0.762507 1 67 1.000000
0  -3.797507 -10.262597 -0.275207  0.000000 -0.001550 -0.999999  0.006723 0.762507 1 67 1.000000
lowpoly_plastic
0  -3.255737 -11.187688 -0.359837  0.000000 -0.892051 0.451935  0.011583 0.750966 1 67 1.000000
0  -3.828854 -11.144761 -0.275107  0.000000 -0.892051 0.451935  0.011578 0.750938 1 67 1.000000
0  -3.828854 -11.187688 -0.359837  0.000000 -0.892051 0.451935  0.011583 0.750938 1 67 1.000000
lowpoly_plastic
0  -3.255737 -10.702394 -0.359837  1.000000 -0.000001 0.000000  0.010421 0.752493 1 67 1.000000
0  -3.255737 -11.144761 -0.275107  1.000000 -0.000001 0.000000  0.010428 0.752514 1 67 1.000000
0  -3.255737 -11.187688 -0.359837  1.000000 -0.000001 0.000000  0.010424 0.752517 1 67 1.000000
lowpoly_plastic
0  -3.255737 -11.187688 -0.359837  0.000000 -0.000000 -1.000000  0.011481 0.752488 1 67 1.000000
0  -3.828854 -10.702394 -0.359837  0.000000 -0.000000 -1.000000  0.011505 0.752460 1 67 1.000000
0  -3.255737 -10.702394 -0.359837  0.000000 -0.000000 -1.000000  0.011505 0.752488 1 67 1.000000
lowpoly_plastic
0  -3.805047 -10.292068 -0.190845  -0.963544 0.001287 0.267546  0.011558 0.752050 1 67 1.000000
0  -3.819451 -10.273916 -0.242804  -0.963544 0.001287 0.267546  0.011561 0.752050 1 67 1.000000
0  -3.828867 -10.742172 -0.274464  -0.963544 0.001287 0.267546  0.011560 0.752073 1 67 1.000000
lowpoly_plastic
0  -3.279543 -11.105354 -0.228659  0.875672 -0.053128 0.479975  0.010430 0.752512 1 67 1.000000
0  -3.305388 -10.325483 -0.095180  0.875672 -0.053128 0.479975  0.010431 0.752473 1 67 1.000000
0  -3.298260 -11.074108 -0.191052  0.875672 -0.053128 0.479975  0.010431 0.752510 1 67 1.000000
lowpoly_plastic
0  -3.805047 -11.105354 -0.228659  -0.027805 -0.755162 0.654948  0.011576 0.750939 1 67 1.000000
0  -3.828854 -11.144761 -0.275107  -0.027805 -0.755162 0.654948  0.011578 0.750938 1 67 1.000000
0  -3.648181 -11.105354 -0.221999  -0.027805 -0.755162 0.654948  0.011575 0.750947 1 67 1.000000
lowpoly_plastic
0  -3.786330 -11.074108 -0.191052  -0.444355 -0.123799 0.887256  0.011585 0.751688 1 67 1.000000
0  -3.722925 -11.044266 -0.155134  -0.444355 -0.123799 0.887256  0.011582 0.751686 1 67 1.000000
0  -3.722925 -10.571688 -0.089194  -0.444355 -0.123799 0.887256  0.011582 0.751663 1 67 1.000000
lowpoly_plastic
0  -3.436409 -11.105354 -0.221999  0.021530 -0.749979 0.661112  0.011575 0.750958 1 67 1.000000
0  -3.298260 -11.074108 -0.191052  0.021530 -0.749979 0.661112  0.011574 0.750964 1 67 1.000000
0  -3.361665 -11.044266 -0.155134  0.021530 -0.749979 0.661112  0.011572 0.750961 1 67 1.000000
lowpoly_plastic
0  -3.255737 -11.144761 -0.275107  0.027806 -0.755160 0.654950  0.011578 0.750966 1 67 1.000000
0  -3.279543 -11.105354 -0.228659  0.027806 -0.755160 0.654950  0.011576 0.750965 1 67 1.000000
0  -3.436409 -11.105354 -0.221999  0.027806 -0.755160 0.654950  0.011575 0.750958 1 67 1.000000
lowpoly_plastic
0  -3.255737 -11.144761 -0.275107  0.000000 -0.803065 0.595892  0.011578 0.750966 1 67 1.000000
0  -3.648181 -11.105354 -0.221999  0.000000 -0.803065 0.595892  0.011575 0.750947 1 67 1.000000
0  -3.828854 -11.144761 -0.275107  0.000000 -0.803065 0.595892  0.011578 0.750938 1 67 1.000000
lowpoly_plastic
0  -3.805047 -11.105354 -0.228659  -0.000014 -0.769162 0.639054  0.011576 0.750939 1 67 1.000000
0  -3.722925 -11.044266 -0.155134  -0.000014 -0.769162 0.639054  0.011572 0.750944 1 67 1.000000
0  -3.786330 -11.074108 -0.191052  -0.000014 -0.769162 0.639054  0.011574 0.750940 1 67 1.000000
lowpoly_plastic
0  -3.578663 -10.592476 -0.175454  0.869696 -0.074539 0.487927  0.008229 0.763833 1 67 1.000000
0  -3.625275 -10.377163 -0.059478  0.869696 -0.074539 0.487927  0.008229 0.763832 1 67 1.000000
0  -3.625275 -10.571688 -0.089194  0.869696 -0.074539 0.487927  0.008229 0.763833 1 67 1.000000
lowpoly_plastic
0  -3.828854 -11.187688 -0.359837  -1.000000 0.000000 -0.000151  0.011561 0.752095 1 67 1.000000
0  -3.828867 -10.742172 -0.274464  -1.000000 0.000000 -0.000151  0.011560 0.752073 1 67 1.000000
0  -3.828854 -10.702394 -0.359837  -1.000000 0.000000 -0.000151  0.011564 0.752071 1 67 1.000000
lowpoly_plastic
0  -3.459315 -10.571688 -0.089194  -0.870725 -0.068373 0.486994  0.008229 0.763832 1 67 1.000000
0  -3.505928 -10.377163 -0.145224  -0.870725 -0.068373 0.486994  0.008229 0.763831 1 67 1.000000
0  -3.505928 -10.592476 -0.175454  -0.870725 -0.068373 0.486994  0.008229 0.763832 1 67 1.000000
lowpoly_plastic
0  -3.786330 -11.074108 -0.191052  -0.887845 -0.021371 0.459647  0.011553 0.752088 1 67 1.000000
0  -3.805047 -10.292068 -0.190845  -0.887845 -0.021371 0.459647  0.011558 0.752050 1 67 1.000000
0  -3.805047 -11.105354 -0.228659  -0.887845 -0.021371 0.459647  0.011555 0.752090 1 67 1.000000
lowpoly_plastic
0  -3.279543 -11.105354 -0.228659  0.934673 -0.016511 0.355125  0.010430 0.752512 1 67 1.000000
0  -3.255723 -10.742172 -0.274464  0.934673 -0.016511 0.355125  0.010425 0.752495 1 67 1.000000
0  -3.279543 -10.292068 -0.190845  0.934673 -0.016511 0.355125  0.010426 0.752472 1 67 1.000000
lowpoly_plastic
0  -3.505928 -10.592476 -0.175454  0.000000 -0.139037 0.990287  0.008230 0.763775 1 67 1.000000
0  -3.578663 -10.377163 -0.145224  0.000000 -0.139037 0.990287  0.008230 0.763775 1 67 1.000000
0  -3.578663 -10.592476 -0.175454  0.000000 -0.139037 0.990287  0.008230 0.763775 1 67 1.000000
lowpoly_plastic
0  -3.648181 -10.592476 -0.221999  0.000000 -0.987970 0.154643  0.008226 0.763776 1 67 1.000000
0  -3.625275 -10.571688 -0.089194  0.000000 -0.987970 0.154643  0.008225 0.763776 1 67 1.000000
0  -3.722925 -10.571688 -0.089194  0.000000 -0.987970 0.154643  0.008225 0.763776 1 67 1.000000
lowpoly_plastic
0  -3.797507 -10.262597 -0.275207  0.000031 0.944062 0.329769  0.011572 0.750664 1 67 1.000000
0  -3.819451 -10.273916 -0.242804  0.000031 0.944062 0.329769  0.011574 0.750663 1 67 1.000000
0  -3.805047 -10.292068 -0.190845  0.000031 0.944062 0.329769  0.011577 0.750664 1 67 1.000000
lowpoly_plastic
0  -3.361665 -11.044266 -0.155134  0.444356 -0.123798 0.887255  0.011581 0.751649 1 67 1.000000
0  -3.298260 -11.074108 -0.191052  0.444356 -0.123798 0.887255  0.011577 0.751651 1 67 1.000000
0  -3.361665 -10.571688 -0.089194  0.444356 -0.123798 0.887255  0.011580 0.751626 1 67 1.000000
lowpoly_plastic
0  -3.668227 -10.377413 -0.100534  0.003618 0.999993 0.000592  0.005335 0.764407 1 67 1.000000
0  -3.722944 -10.377163 -0.188208  0.003618 0.999993 0.000592  0.005334 0.764407 1 67 1.000000
0  -3.722944 -10.377239 -0.059373  0.003618 0.999993 0.000592  0.005335 0.764407 1 67 1.000000
lowpoly_plastic
0  -3.298260 -11.074108 -0.191052  0.536213 -0.102196 0.837873  0.011577 0.751651 1 67 1.000000
0  -3.305388 -10.325483 -0.095180  0.536213 -0.102196 0.837873  0.011577 0.751614 1 67 1.000000
0  -3.361665 -10.571688 -0.089194  0.536213 -0.102196 0.837873  0.011580 0.751626 1 67 1.000000
lowpoly_plastic
0  -3.828854 -10.702394 -0.359837  0.000000 0.906443 0.422328  0.006836 0.762513 1 67 1.000000
0  -3.255723 -10.742172 -0.274464  0.000000 0.906443 0.422328  0.006837 0.762515 1 67 1.000000
0  -3.255737 -10.702394 -0.359837  0.000000 0.906443 0.422328  0.006836 0.762515 1 67 1.000000
lowpoly_plastic
0  -3.255723 -10.742172 -0.274464  0.835427 0.053782 -0.546963  0.010425 0.752495 1 67 1.000000
0  -3.287083 -10.262597 -0.275207  0.835427 0.053782 -0.546963  0.010422 0.752471 1 67 1.000000
0  -3.265140 -10.273916 -0.242804  0.835427 0.053782 -0.546963  0.010424 0.752472 1 67 1.000000
lowpoly_plastic
0  -3.797507 -10.262597 -0.275207  -0.835427 0.053781 -0.546965  0.011563 0.752049 1 67 1.000000
0  -3.828867 -10.742172 -0.274464  -0.835427 0.053781 -0.546965  0.011560 0.752073 1 67 1.000000
0  -3.819451 -10.273916 -0.242804  -0.835427 0.053781 -0.546965  0.011561 0.752050 1 67 1.000000
lowpoly_metal
0  -3.564947 -10.946479 -0.221999  0.392473 -0.696548 0.600655  0.061424 0.627797 1 67 1.000000
0  -3.470233 -10.884102 -0.211546  0.392473 -0.696548 0.600655  0.061426 0.627780 1 67 1.000000
0  -3.561991 -10.935803 -0.211546  0.392473 -0.696548 0.600655  0.061426 0.627796 1 67 1.000000
lowpoly_plastic
0  -3.361646 -10.339382 -0.055394  0.014852 0.937225 0.348409  0.011583 0.750686 1 67 1.000000
0  -3.305388 -10.325483 -0.095180  0.014852 0.937225 0.348409  0.011581 0.750689 1 67 1.000000
0  -3.361646 -10.289293 -0.190133  0.014852 0.937225 0.348409  0.011577 0.750686 1 67 1.000000
lowpoly_plastic
0  -3.722944 -10.289293 -0.190133  0.000000 0.954116 0.299437  0.011577 0.750668 1 67 1.000000
0  -3.287083 -10.262597 -0.275207  0.000000 0.954116 0.299437  0.011572 0.750690 1 67 1.000000
0  -3.797507 -10.262597 -0.275207  0.000000 0.954116 0.299437  0.011572 0.750664 1 67 1.000000
lowpoly_plastic
0  -3.779202 -10.325483 -0.095180  0.000040 0.944071 0.329744  0.011581 0.750665 1 67 1.000000
0  -3.722944 -10.339382 -0.055394  0.000040 0.944071 0.329744  0.011583 0.750668 1 67 1.000000
0  -3.805047 -10.292068 -0.190845  0.000040 0.944071 0.329744  0.011577 0.750664 1 67 1.000000
lowpoly_plastic
0  -3.436409 -10.592476 -0.221999  0.000000 -1.000000 0.000024  0.008226 0.763777 1 67 1.000000
0  -3.578663 -10.592476 -0.175454  0.000000 -1.000000 0.000024  0.008225 0.763777 1 67 1.000000
0  -3.648181 -10.592476 -0.221999  0.000000 -1.000000 0.000024  0.008226 0.763776 1 67 1.000000
lowpoly_plastic
0  -3.305388 -10.325483 -0.095180  0.034720 0.940544 0.337894  0.011581 0.750689 1 67 1.000000
0  -3.279543 -10.292068 -0.190845  0.034720 0.940544 0.337894  0.011577 0.750690 1 67 1.000000
0  -3.361646 -10.289293 -0.190133  0.034720 0.940544 0.337894  0.011577 0.750686 1 67 1.000000
lowpoly_plastic
0  -3.805047 -10.292068 -0.190845  -0.034682 0.936763 0.348241  0.011577 0.750664 1 67 1.000000
0  -3.722944 -10.339382 -0.055394  -0.034682 0.936763 0.348241  0.011583 0.750668 1 67 1.000000
0  -3.722944 -10.289293 -0.190133  -0.034682 0.936763 0.348241  0.011577 0.750668 1 67 1.000000
lowpoly_plastic
0  -3.361665 -11.044266 -0.155134  -0.666732 -0.000000 0.745297  0.008216 0.763884 1 67 1.000000
0  -3.436409 -10.592476 -0.221999  -0.666732 -0.000000 0.745297  0.008217 0.763882 1 67 1.000000
0  -3.436409 -11.105354 -0.221999  -0.666732 -0.000000 0.745297  0.008216 0.763884 1 67 1.000000
lowpoly_plastic
0  -3.279543 -10.292068 -0.190845  -0.000031 0.944059 0.329776  0.011577 0.750690 1 67 1.000000
0  -3.265140 -10.273916 -0.242804  -0.000031 0.944059 0.329776  0.011574 0.750691 1 67 1.000000
0  -3.287083 -10.262597 -0.275207  -0.000031 0.944059 0.329776  0.011572 0.750690 1 67 1.000000
lowpoly_plastic
0  -3.361665 -10.571688 -0.089194  0.075417 -0.990769 0.112642  0.008225 0.763777 1 67 1.000000
0  -3.505928 -10.592476 -0.175454  0.075417 -0.990769 0.112642  0.008225 0.763777 1 67 1.000000
0  -3.436409 -10.592476 -0.221999  0.075417 -0.990769 0.112642  0.008226 0.763777 1 67 1.000000
lowpoly_plastic
0  -3.648181 -11.105354 -0.221999  0.611613 -0.109332 0.783566  0.008218 0.763884 1 67 1.000000
0  -3.722925 -10.571688 -0.089194  0.611613 -0.109332 0.783566  0.008219 0.763882 1 67 1.000000
0  -3.722925 -11.044266 -0.155134  0.611613 -0.109332 0.783566  0.008219 0.763884 1 67 1.000000
lowpoly_glow
0  -3.669260 -10.377315 -0.129846  -0.999380 -0.000137 0.035204  0.437974 0.585335 1 67 1.000000
0  -3.668227 -10.362631 -0.100484  -0.999380 -0.000137 0.035204  0.437976 0.585330 1 67 1.000000
0  -3.669260 -10.362532 -0.129796  -0.999380 -0.000137 0.035204  0.437976 0.585335 1 67 1.000000
lowpoly_glow
0  -3.416596 -10.377411 -0.101231  0.999887 -0.000034 0.015020  0.437979 0.585330 1 67 1.000000
0  -3.416156 -10.362529 -0.130501  0.999887 -0.000034 0.015020  0.437976 0.585335 1 67 1.000000
0  -3.416596 -10.362628 -0.101182  0.999887 -0.000034 0.015020  0.437976 0.585330 1 67 1.000000
lowpoly_glow
0  -3.466939 -10.377356 -0.131314  -0.999887 0.000034 -0.015023  0.437979 0.585335 1 67 1.000000
0  -3.467379 -10.362671 -0.101945  -0.999887 0.000034 -0.015023  0.437981 0.585330 1 67 1.000000
0  -3.466938 -10.362572 -0.131264  -0.999887 0.000034 -0.015023  0.437981 0.585335 1 67 1.000000
lowpoly_glow
0  -3.668227 -10.377413 -0.100534  -0.469229 -0.002990 0.883071  0.437958 0.585330 1 67 1.000000
0  -3.642326 -10.362700 -0.086722  -0.469229 -0.002990 0.883071  0.437955 0.585334 1 67 1.000000
0  -3.668227 -10.362631 -0.100484  -0.469229 -0.002990 0.883071  0.437955 0.585330 1 67 1.000000
lowpoly_plastic
0  -3.722944 -10.377239 -0.059373  -0.609423 -0.120246 0.783674  0.011582 0.751653 1 67 1.000000
0  -3.779202 -10.325483 -0.095180  -0.609423 -0.120246 0.783674  0.011585 0.751651 1 67 1.000000
0  -3.722925 -10.571688 -0.089194  -0.609423 -0.120246 0.783674  0.011582 0.751663 1 67 1.000000
lowpoly_plastic
0  -3.779202 -10.325483 -0.095180  -0.536214 -0.102196 0.837873  0.011585 0.751651 1 67 1.000000
0  -3.786330 -11.074108 -0.191052  -0.536214 -0.102196 0.837873  0.011585 0.751688 1 67 1.000000
0  -3.722925 -10.571688 -0.089194  -0.536214 -0.102196 0.837873  0.011582 0.751663 1 67 1.000000
lowpoly_plastic
0  -3.361646 -10.377239 -0.059373  0.609423 -0.120246 0.783674  0.011580 0.751616 1 67 1.000000
0  -3.361665 -10.571688 -0.089194  0.609423 -0.120246 0.783674  0.011580 0.751626 1 67 1.000000
0  -3.305388 -10.325483 -0.095180  0.609423 -0.120246 0.783674  0.011577 0.751614 1 67 1.000000
lowpoly_plastic
0  -3.722944 -10.377239 -0.059373  -0.589159 -0.084459 0.803591  0.011582 0.751653 1 67 1.000000
0  -3.722944 -10.339382 -0.055394  -0.589159 -0.084459 0.803591  0.011582 0.751651 1 67 1.000000
0  -3.779202 -10.325483 -0.095180  -0.589159 -0.084459 0.803591  0.011585 0.751651 1 67 1.000000
lowpoly_plastic
0  -3.361646 -10.377239 -0.059373  0.589160 -0.084448 0.803592  0.011580 0.751616 1 67 1.000000
0  -3.305388 -10.325483 -0.095180  0.589160 -0.084448 0.803592  0.011577 0.751614 1 67 1.000000
0  -3.361646 -10.339382 -0.055394  0.589160 -0.084448 0.803592  0.011580 0.751614 1 67 1.000000
lowpoly_plastic
0  -3.459315 -10.571688 -0.089194  -0.001184 -0.151011 0.988531  0.011585 0.751626 1 67 1.000000
0  -3.361646 -10.377239 -0.059373  -0.001184 -0.151011 0.988531  0.011580 0.751616 1 67 1.000000
0  -3.459315 -10.377163 -0.059478  -0.001184 -0.151011 0.988531  0.011585 0.751616 1 67 1.000000
lowpoly_plastic
0  -3.625275 -10.571688 -0.089194  0.000000 -0.151594 0.988443  0.011577 0.751663 1 67 1.000000
0  -3.722944 -10.377239 -0.059373  0.000000 -0.151594 0.988443  0.011582 0.751653 1 67 1.000000
0  -3.722925 -10.571688 -0.089194  0.000000 -0.151594 0.988443  0.011582 0.751663 1 67 1.000000
lowpoly_plastic
0  -3.279543 -10.292068 -0.190845  0.034756 0.944446 0.326824  0.011577 0.750690 1 67 1.000000
0  -3.287083 -10.262597 -0.275207  0.034756 0.944446 0.326824  0.011572 0.750690 1 67 1.000000
0  -3.361646 -10.289293 -0.190133  0.034756 0.944446 0.326824  0.011577 0.750686 1 67 1.000000
lowpoly_plastic
0  -3.722944 -10.289293 -0.190133  -0.034756 0.944450 0.326812  0.011577 0.750668 1 67 1.000000
0  -3.797507 -10.262597 -0.275207  -0.034756 0.944450 0.326812  0.011572 0.750664 1 67 1.000000
0  -3.805047 -10.292068 -0.190845  -0.034756 0.944450 0.326812  0.011577 0.750664 1 67 1.000000
lowpoly_plastic
0  -3.644391 -10.377285 -0.145396  -0.000887 -0.999994 -0.003310  0.005334 0.764408 1 67 1.000000
0  -3.668227 -10.377413 -0.100534  -0.000887 -0.999994 -0.003310  0.005335 0.764407 1 67 1.000000
0  -3.669260 -10.377315 -0.129846  -0.000887 -0.999994 -0.003310  0.005334 0.764407 1 67 1.000000
lowpoly_plastic
0  -3.578663 -10.377163 -0.145224  -0.001874 0.999979 0.006257  0.005334 0.764409 1 67 1.000000
0  -3.722944 -10.377163 -0.188208  -0.001874 0.999979 0.006257  0.005334 0.764407 1 67 1.000000
0  -3.644391 -10.377285 -0.145396  -0.001874 0.999979 0.006257  0.005334 0.764408 1 67 1.000000
lowpoly_plastic
0  -3.578663 -10.377163 -0.145224  0.000000 1.000000 0.000000  0.005334 0.764409 1 67 1.000000
0  -3.361646 -10.377163 -0.188208  0.000000 1.000000 0.000000  0.005334 0.764411 1 67 1.000000
0  -3.722944 -10.377163 -0.188208  0.000000 1.000000 0.000000  0.005334 0.764407 1 67 1.000000
lowpoly_plastic
0  -3.361646 -10.289293 -0.190133  -1.000000 -0.000007 0.000000  0.005354 0.764218 1 67 1.000000
0  -3.361646 -10.377239 -0.059373  -1.000000 -0.000007 0.000000  0.005353 0.764216 1 67 1.000000
0  -3.361646 -10.339382 -0.055394  -1.000000 -0.000007 0.000000  0.005353 0.764216 1 67 1.000000
lowpoly_plastic
0  -3.722944 -10.289293 -0.190133  0.000000 0.021901 0.999760  0.005339 0.764314 1 67 1.000000
0  -3.361646 -10.377163 -0.188208  0.000000 0.021901 0.999760  0.005340 0.764319 1 67 1.000000
0  -3.361646 -10.289293 -0.190133  0.000000 0.021901 0.999760  0.005339 0.764319 1 67 1.000000
lowpoly_plastic
0  -3.722944 -10.377239 -0.059373  1.000000 0.000000 0.000000  0.005354 0.764215 1 67 1.000000
0  -3.722944 -10.289293 -0.190133  1.000000 0.000000 0.000000  0.005353 0.764216 1 67 1.000000
0  -3.722944 -10.339382 -0.055394  1.000000 0.000000 0.000000  0.005354 0.764215 1 67 1.000000
lowpoly_plastic
0  -3.578663 -10.377163 -0.145224  -0.001880 0.999962 0.008542  0.005334 0.764409 1 67 1.000000
0  -3.644391 -10.377285 -0.145396  -0.001880 0.999962 0.008542  0.005334 0.764408 1 67 1.000000
0  -3.618490 -10.377354 -0.131635  -0.001880 0.999962 0.008542  0.005334 0.764408 1 67 1.000000
lowpoly_plastic
0  -3.625275 -10.377163 -0.059478  -0.005879 0.999978 -0.003193  0.005335 0.764408 1 67 1.000000
0  -3.578663 -10.377163 -0.145224  -0.005879 0.999978 -0.003193  0.005334 0.764409 1 67 1.000000
0  -3.618490 -10.377354 -0.131635  -0.005879 0.999978 -0.003193  0.005334 0.764408 1 67 1.000000
lowpoly_plastic
0  -3.625275 -10.377163 -0.059478  -0.006133 0.999950 -0.007893  0.005335 0.764408 1 67 1.000000
0  -3.617457 -10.377454 -0.102323  -0.006133 0.999950 -0.007893  0.005335 0.764408 1 67 1.000000
0  -3.642326 -10.377483 -0.086772  -0.006133 0.999950 -0.007893  0.005335 0.764408 1 67 1.000000
lowpoly_plastic
0  -3.642326 -10.377483 -0.086772  0.002910 0.999996 -0.000393  0.005335 0.764408 1 67 1.000000
0  -3.668227 -10.377413 -0.100534  0.002910 0.999996 -0.000393  0.005335 0.764407 1 67 1.000000
0  -3.722944 -10.377239 -0.059373  0.002910 0.999996 -0.000393  0.005335 0.764407 1 67 1.000000
lowpoly_plastic
0  -3.625275 -10.377163 -0.059478  -0.000793 0.999936 -0.011261  0.005335 0.764408 1 67 1.000000
0  -3.642326 -10.377483 -0.086772  -0.000793 0.999936 -0.011261  0.005335 0.764408 1 67 1.000000
0  -3.722944 -10.377239 -0.059373  -0.000793 0.999936 -0.011261  0.005335 0.764407 1 67 1.000000
lowpoly_plastic
0  -3.505928 -10.377163 -0.145224  0.001926 0.999977 0.006477  0.005334 0.764410 1 67 1.000000
0  -3.441327 -10.377285 -0.145592  0.001926 0.999977 0.006477  0.005334 0.764410 1 67 1.000000
0  -3.361646 -10.377163 -0.188208  0.001926 0.999977 0.006477  0.005334 0.764411 1 67 1.000000
lowpoly_plastic
0  -3.441327 -10.377285 -0.145592  -0.000011 0.999996 0.002832  0.005334 0.764410 1 67 1.000000
0  -3.416596 -10.377411 -0.101231  -0.000011 0.999996 0.002832  0.005335 0.764411 1 67 1.000000
0  -3.361646 -10.377163 -0.188208  -0.000011 0.999996 0.002832  0.005334 0.764411 1 67 1.000000
lowpoly_plastic
0  -3.416596 -10.377411 -0.101231  -0.003575 0.999993 0.000589  0.005335 0.764411 1 67 1.000000
0  -3.361646 -10.377239 -0.059373  -0.003575 0.999993 0.000589  0.005335 0.764411 1 67 1.000000
0  -3.361646 -10.377163 -0.188208  -0.003575 0.999993 0.000589  0.005334 0.764411 1 67 1.000000
lowpoly_plastic
0  -3.505928 -10.377163 -0.145224  0.001938 0.999962 0.008487  0.005334 0.764410 1 67 1.000000
0  -3.466939 -10.377356 -0.131314  0.001938 0.999962 0.008487  0.005334 0.764410 1 67 1.000000
0  -3.441327 -10.377285 -0.145592  0.001938 0.999962 0.008487  0.005334 0.764410 1 67 1.000000
lowpoly_plastic
0  -3.459315 -10.377163 -0.059478  0.006130 0.999976 -0.003340  0.005335 0.764410 1 67 1.000000
0  -3.466939 -10.377356 -0.131314  0.006130 0.999976 -0.003340  0.005334 0.764410 1 67 1.000000
0  -3.505928 -10.377163 -0.145224  0.006130 0.999976 -0.003340  0.005334 0.764410 1 67 1.000000
lowpoly_plastic
0  -3.459315 -10.377163 -0.059478  0.050003 -0.998746 -0.002618  0.005335 0.764410 1 67 1.000000
0  -3.467379 -10.377455 -0.101994  0.050003 -0.998746 -0.002618  0.005335 0.764410 1 67 1.000000
0  -3.466939 -10.377356 -0.131314  0.050003 -0.998746 -0.002618  0.005334 0.764410 1 67 1.000000
lowpoly_plastic
0  -3.442208 -10.377482 -0.086953  -0.002933 0.999996 -0.000193  0.005335 0.764410 1 67 1.000000
0  -3.361646 -10.377239 -0.059373  -0.002933 0.999996 -0.000193  0.005335 0.764411 1 67 1.000000
0  -3.416596 -10.377411 -0.101231  -0.002933 0.999996 -0.000193  0.005335 0.764411 1 67 1.000000
lowpoly_plastic
0  -3.459315 -10.377163 -0.059478  0.000793 0.999937 -0.011186  0.005335 0.764410 1 67 1.000000
0  -3.361646 -10.377239 -0.059373  0.000793 0.999937 -0.011186  0.005335 0.764411 1 67 1.000000
0  -3.442208 -10.377482 -0.086953  0.000793 0.999937 -0.011186  0.005335 0.764410 1 67 1.000000
lowpoly_plastic
0  -3.564947 -10.946479 -0.221999  0.000000 0.000000 1.000000  0.008210 0.763881 1 67 1.000000
0  -3.648181 -11.105354 -0.221999  0.000000 0.000000 1.000000  0.008210 0.763882 1 67 1.000000
0  -3.436409 -11.105354 -0.221999  0.000000 0.000000 1.000000  0.008209 0.763882 1 67 1.000000
lowpoly_plastic
0  -3.625170 -10.842291 -0.221999  0.000000 0.000000 1.000000  0.008210 0.763881 1 67 1.000000
0  -3.648181 -10.592476 -0.221999  0.000000 0.000000 1.000000  0.008210 0.763880 1 67 1.000000
0  -3.648181 -11.105354 -0.221999  0.000000 0.000000 1.000000  0.008210 0.763882 1 67 1.000000
lowpoly_plastic
0  -3.519644 -10.782831 -0.221999  0.000000 0.000000 1.000000  0.008210 0.763881 1 67 1.000000
0  -3.436409 -10.592476 -0.221999  0.000000 0.000000 1.000000  0.008209 0.763880 1 67 1.000000
0  -3.648181 -10.592476 -0.221999  0.000000 0.000000 1.000000  0.008210 0.763880 1 67 1.000000
lowpoly_plastic
0  -3.459420 -10.887019 -0.221999  0.000001 0.000000 1.000000  0.008210 0.763881 1 67 1.000000
0  -3.436409 -11.105354 -0.221999  0.000001 0.000000 1.000000  0.008209 0.763882 1 67 1.000000
0  -3.436409 -10.592476 -0.221999  0.000001 0.000000 1.000000  0.008209 0.763880 1 67 1.000000
lowpoly_plastic
0  -3.519644 -10.782831 -0.221999  -0.000001 0.000000 1.000000  0.008210 0.763881 1 67 1.000000
0  -3.459420 -10.887019 -0.221999  -0.000001 0.000000 1.000000  0.008210 0.763881 1 67 1.000000
0  -3.436409 -10.592476 -0.221999  -0.000001 0.000000 1.000000  0.008209 0.763880 1 67 1.000000
lowpoly_plastic
0  -3.625170 -10.842291 -0.221999  0.000000 0.000000 1.000000  0.008210 0.763881 1 67 1.000000
0  -3.519644 -10.782831 -0.221999  0.000000 0.000000 1.000000  0.008210 0.763881 1 67 1.000000
0  -3.648181 -10.592476 -0.221999  0.000000 0.000000 1.000000  0.008210 0.763880 1 67 1.000000
lowpoly_plastic
0  -3.564947 -10.946479 -0.221999  -0.000000 0.000000 1.000000  0.008210 0.763881 1 67 1.000000
0  -3.625170 -10.842291 -0.221999  -0.000000 0.000000 1.000000  0.008210 0.763881 1 67 1.000000
0  -3.648181 -11.105354 -0.221999  -0.000000 0.000000 1.000000  0.008210 0.763882 1 67 1.000000
lowpoly_plastic
0  -3.459420 -10.887019 -0.221999  0.000000 0.000000 1.000000  0.008210 0.763881 1 67 1.000000
0  -3.564947 -10.946479 -0.221999  0.000000 0.000000 1.000000  0.008210 0.763881 1 67 1.000000
0  -3.436409 -11.105354 -0.221999  0.000000 0.000000 1.000000  0.008209 0.763882 1 67 1.000000
lowpoly_metal
0  -3.561991 -10.935803 -0.211546  0.696389 -0.052998 0.715705  0.066362 0.729286 1 67 1.000000
0  -3.542295 -10.864655 -0.225443  0.696389 -0.052998 0.715705  0.066365 0.729298 1 67 1.000000
0  -3.556290 -10.860878 -0.211546  0.696389 -0.052998 0.715705  0.066362 0.729299 1 67 1.000000
lowpoly_metal
0  -3.519644 -10.782831 -0.221999  -0.392467 0.696549 0.600657  0.061430 0.627797 1 67 1.000000
0  -3.614357 -10.845209 -0.211546  -0.392467 0.696549 0.600657  0.061432 0.627780 1 67 1.000000
0  -3.522599 -10.793509 -0.211546  -0.392467 0.696549 0.600657  0.061432 0.627796 1 67 1.000000
lowpoly_metal
0  -3.459420 -10.887019 -0.221999  0.690635 0.399206 0.603040  0.061428 0.627796 1 67 1.000000
0  -3.522599 -10.793509 -0.211546  0.690635 0.399206 0.603040  0.061430 0.627780 1 67 1.000000
0  -3.470233 -10.884102 -0.211546  0.690635 0.399206 0.603040  0.061430 0.627796 1 67 1.000000
lowpoly_metal
0  -3.625170 -10.842291 -0.221999  -0.690639 -0.399203 0.603038  0.061426 0.627796 1 67 1.000000
0  -3.561991 -10.935803 -0.211546  -0.690639 -0.399203 0.603038  0.061428 0.627780 1 67 1.000000
0  -3.614357 -10.845209 -0.211546  -0.690639 -0.399203 0.603038  0.061428 0.627796 1 67 1.000000
lowpoly_metal
0  -3.522599 -10.793509 -0.211546  -0.696412 0.052996 0.715683  0.066130 0.729286 1 67 1.000000
0  -3.542295 -10.864655 -0.225443  -0.696412 0.052996 0.715683  0.066133 0.729298 1 67 1.000000
0  -3.528300 -10.868432 -0.211546  -0.696412 0.052996 0.715683  0.066130 0.729299 1 67 1.000000
lowpoly_metal
0  -3.522599 -10.793509 -0.211546  -0.000002 0.000003 1.000000  0.065452 0.623291 1 67 1.000000
0  -3.614357 -10.845209 -0.211546  -0.000002 0.000003 1.000000  0.065452 0.623309 1 67 1.000000
0  -3.556290 -10.860878 -0.211546  -0.000002 0.000003 1.000000  0.065445 0.623302 1 67 1.000000
lowpoly_metal
0  -3.556290 -10.860878 -0.211546  -0.000003 -0.000001 1.000000  0.065445 0.623302 1 67 1.000000
0  -3.614357 -10.845209 -0.211546  -0.000003 -0.000001 1.000000  0.065452 0.623309 1 67 1.000000
0  -3.561991 -10.935803 -0.211546  -0.000003 -0.000001 1.000000  0.065434 0.623309 1 67 1.000000
lowpoly_metal
0  -3.561991 -10.935803 -0.211546  0.000002 -0.000004 1.000000  0.065447 0.623334 1 67 1.000000
0  -3.470233 -10.884102 -0.211546  0.000002 -0.000004 1.000000  0.065434 0.623321 1 67 1.000000
0  -3.528300 -10.868432 -0.211546  0.000002 -0.000004 1.000000  0.065444 0.623321 1 67 1.000000
lowpoly_metal
0  -3.522599 -10.793509 -0.211546  0.625432 -0.312766 0.714851  0.070373 0.724798 1 67 1.000000
0  -3.556290 -10.860878 -0.211546  0.625432 -0.312766 0.714851  0.070366 0.724809 1 67 1.000000
0  -3.542295 -10.864655 -0.225443  0.625432 -0.312766 0.714851  0.070364 0.724807 1 67 1.000000
lowpoly_metal
0  -3.528300 -10.868432 -0.211546  0.000004 0.000002 1.000000  0.065444 0.623321 1 67 1.000000
0  -3.470233 -10.884102 -0.211546  0.000004 0.000002 1.000000  0.065434 0.623321 1 67 1.000000
0  -3.522599 -10.793509 -0.211546  0.000004 0.000002 1.000000  0.065447 0.623309 1 67 1.000000
lowpoly_metal
0  -3.561991 -10.935803 -0.211546  -0.625452 0.312775 0.714830  0.066131 0.729310 1 67 1.000000
0  -3.528300 -10.868432 -0.211546  -0.625452 0.312775 0.714830  0.066130 0.729299 1 67 1.000000
0  -3.542295 -10.864655 -0.225443  -0.625452 0.312775 0.714830  0.066133 0.729298 1 67 1.000000
lowpoly_glow
0  -3.642326 -10.362700 -0.086722  0.000907 0.999994 0.003418  0.437507 0.585330 1 67 1.000000
0  -3.669260 -10.362532 -0.129796  0.000907 0.999994 0.003418  0.437503 0.585337 1 67 1.000000
0  -3.668227 -10.362631 -0.100484  0.000907 0.999994 0.003418  0.437503 0.585332 1 67 1.000000
lowpoly_glow
0  -3.416596 -10.362628 -0.101182  -0.000896 0.999994 0.003282  0.437520 0.585337 1 67 1.000000
0  -3.467379 -10.362671 -0.101945  -0.000896 0.999994 0.003282  0.437516 0.585330 1 67 1.000000
0  -3.442208 -10.362700 -0.086903  -0.000896 0.999994 0.003282  0.437520 0.585332 1 67 1.000000
lowpoly_glow
0  -3.617457 -10.362671 -0.102273  0.000889 0.999994 0.003360  0.437512 0.585332 1 67 1.000000
0  -3.644391 -10.362501 -0.145347  0.000889 0.999994 0.003360  0.437507 0.585340 1 67 1.000000
0  -3.669260 -10.362532 -0.129796  0.000889 0.999994 0.003360  0.437503 0.585337 1 67 1.000000
lowpoly_glow
0  -3.416156 -10.362529 -0.130501  -0.000896 0.999994 0.003322  0.437516 0.585340 1 67 1.000000
0  -3.466938 -10.362572 -0.131264  -0.000896 0.999994 0.003322  0.437512 0.585332 1 67 1.000000
0  -3.467379 -10.362671 -0.101945  -0.000896 0.999994 0.003322  0.437516 0.585330 1 67 1.000000
lowpoly_glow
0  -3.617457 -10.377454 -0.102323  0.999380 0.000069 -0.035213  0.437984 0.585330 1 67 1.000000
0  -3.618490 -10.362571 -0.131585  0.999380 0.000069 -0.035213  0.437981 0.585335 1 67 1.000000
0  -3.617457 -10.362671 -0.102273  0.999380 0.000069 -0.035213  0.437981 0.585330 1 67 1.000000
lowpoly_glow
0  -3.642326 -10.377483 -0.086772  0.530236 -0.002853 0.847845  0.437958 0.585334 1 67 1.000000
0  -3.617457 -10.362671 -0.102273  0.530236 -0.002853 0.847845  0.437955 0.585339 1 67 1.000000
0  -3.642326 -10.362700 -0.086722  0.530236 -0.002853 0.847845  0.437955 0.585334 1 67 1.000000
lowpoly_glow
0  -3.644391 -10.377285 -0.145396  -0.530199 0.002870 -0.847869  0.437960 0.585334 1 67 1.000000
0  -3.669260 -10.362532 -0.129796  -0.530199 0.002870 -0.847869  0.437963 0.585330 1 67 1.000000
0  -3.644391 -10.362501 -0.145347  -0.530199 0.002870 -0.847869  0.437963 0.585334 1 67 1.000000
lowpoly_glow
0  -3.441327 -10.377285 -0.145592  -0.486904 0.002939 -0.873451  0.437958 0.585334 1 67 1.000000
0  -3.466938 -10.362572 -0.131264  -0.486904 0.002939 -0.873451  0.437960 0.585330 1 67 1.000000
0  -3.441327 -10.362501 -0.145542  -0.486904 0.002939 -0.873451  0.437960 0.585334 1 67 1.000000
lowpoly_glow
0  -3.618490 -10.377354 -0.131635  0.469199 0.002973 -0.883088  0.437960 0.585339 1 67 1.000000
0  -3.644391 -10.362501 -0.145347  0.469199 0.002973 -0.883088  0.437963 0.585334 1 67 1.000000
0  -3.618490 -10.362571 -0.131585  0.469199 0.002973 -0.883088  0.437963 0.585339 1 67 1.000000
lowpoly_glow
0  -3.467379 -10.377455 -0.101994  -0.512968 -0.002887 0.858403  0.437955 0.585330 1 67 1.000000
0  -3.442208 -10.362700 -0.086903  -0.512968 -0.002887 0.858403  0.437953 0.585334 1 67 1.000000
0  -3.467379 -10.362671 -0.101945  -0.512968 -0.002887 0.858403  0.437953 0.585330 1 67 1.000000
lowpoly_glow
0  -3.442208 -10.377482 -0.086953  0.486880 -0.002939 0.873464  0.437955 0.585334 1 67 1.000000
0  -3.416596 -10.362628 -0.101182  0.486880 -0.002939 0.873464  0.437953 0.585339 1 67 1.000000
0  -3.442208 -10.362700 -0.086903  0.486880 -0.002939 0.873464  0.437953 0.585334 1 67 1.000000
lowpoly_glow
0  -3.416156 -10.377312 -0.130551  0.512944 0.002888 -0.858417  0.437958 0.585339 1 67 1.000000
0  -3.441327 -10.362501 -0.145542  0.512944 0.002888 -0.858417  0.437960 0.585334 1 67 1.000000
0  -3.416156 -10.362529 -0.130501  0.512944 0.002888 -0.858417  0.437960 0.585339 1 67 1.000000
lowpoly_plastic
0  -3.584498 -16.552034 -0.287442  0.000000 -0.000000 -1.000000  0.008442 0.749260 1 67 1.000000
0  -3.500282 -16.073397 -0.287443  0.000000 -0.000000 -1.000000  0.008446 0.749236 1 67 1.000000
0  -3.500282 -16.552034 -0.287442  0.000000 -0.000000 -1.000000  0.008446 0.749260 1 67 1.000000
lowpoly_plastic
0  -3.572688 -16.552034 -0.111235  0.000000 -0.107509 0.994204  0.008455 0.750373 1 67 1.000000
0  -3.511821 -16.073397 -0.059478  0.000000 -0.107509 0.994204  0.008452 0.750350 1 67 1.000000
0  -3.572958 -16.073397 -0.059478  0.000000 -0.107509 0.994204  0.008455 0.750350 1 67 1.000000
lowpoly_plastic
0  -3.500282 -16.073397 -0.287443  0.997762 -0.000001 0.066871  0.008237 0.750486 1 67 1.000000
0  -3.512091 -16.552034 -0.111235  0.997762 -0.000001 0.066871  0.008245 0.750509 1 67 1.000000
0  -3.500282 -16.552034 -0.287442  0.997762 -0.000001 0.066871  0.008237 0.750509 1 67 1.000000
lowpoly_plastic
0  -3.584498 -16.552034 -0.287442  0.000000 -1.000000 0.000000  0.008502 0.749721 1 67 1.000000
0  -3.512091 -16.552034 -0.111235  0.000000 -1.000000 0.000000  0.008498 0.749712 1 67 1.000000
0  -3.572688 -16.552034 -0.111235  0.000000 -1.000000 0.000000  0.008501 0.749712 1 67 1.000000
lowpoly_plastic
0  -3.584498 -16.073397 -0.287443  -0.998703 -0.006030 0.050554  0.008400 0.750218 1 67 1.000000
0  -3.572688 -16.552034 -0.111235  -0.998703 -0.006030 0.050554  0.008392 0.750242 1 67 1.000000
0  -3.572958 -16.073397 -0.059478  -0.998703 -0.006030 0.050554  0.008389 0.750218 1 67 1.000000
lowpoly_plastic
0  -3.542390 -16.073397 -0.138684  0.000000 1.000000 0.000000  0.008493 0.749014 1 67 1.000000
0  -3.500282 -16.073397 -0.287443  0.000000 1.000000 0.000000  0.008495 0.749021 1 67 1.000000
0  -3.584498 -16.073397 -0.287443  0.000000 1.000000 0.000000  0.008491 0.749021 1 67 1.000000
lowpoly_plastic
0  -3.542390 -16.073397 -0.085851  0.000000 1.000000 0.000000  0.008493 0.749012 1 67 1.000000
0  -3.572958 -16.073397 -0.059478  0.000000 1.000000 0.000000  0.008491 0.749010 1 67 1.000000
0  -3.511821 -16.073397 -0.059478  0.000000 1.000000 0.000000  0.008494 0.749010 1 67 1.000000
lowpoly_plastic
0  -3.519513 -16.073397 -0.099060  0.000000 1.000000 0.000000  0.008494 0.749012 1 67 1.000000
0  -3.511821 -16.073397 -0.059478  0.000000 1.000000 0.000000  0.008494 0.749010 1 67 1.000000
0  -3.500282 -16.073397 -0.287443  0.000000 1.000000 0.000000  0.008495 0.749021 1 67 1.000000
lowpoly_plastic
0  -3.565267 -16.073397 -0.125476  0.000000 1.000000 0.000000  0.008492 0.749014 1 67 1.000000
0  -3.584498 -16.073397 -0.287443  0.000000 1.000000 0.000000  0.008491 0.749021 1 67 1.000000
0  -3.572958 -16.073397 -0.059478  0.000000 1.000000 0.000000  0.008491 0.749010 1 67 1.000000
lowpoly_plastic
0  -3.542390 -16.073397 -0.138684  0.000000 1.000000 0.000000  0.008493 0.749014 1 67 1.000000
0  -3.519513 -16.073397 -0.099060  0.000000 1.000000 0.000000  0.008494 0.749012 1 67 1.000000
0  -3.500282 -16.073397 -0.287443  0.000000 1.000000 0.000000  0.008495 0.749021 1 67 1.000000
lowpoly_plastic
0  -3.565267 -16.073397 -0.125476  0.000000 1.000000 0.000000  0.008492 0.749014 1 67 1.000000
0  -3.542390 -16.073397 -0.138684  0.000000 1.000000 0.000000  0.008493 0.749014 1 67 1.000000
0  -3.584498 -16.073397 -0.287443  0.000000 1.000000 0.000000  0.008491 0.749021 1 67 1.000000
lowpoly_plastic
0  -3.542390 -16.073397 -0.085851  0.000000 1.000000 0.000008  0.008493 0.749012 1 67 1.000000
0  -3.565267 -16.073397 -0.125476  0.000000 1.000000 0.000008  0.008492 0.749014 1 67 1.000000
0  -3.572958 -16.073397 -0.059478  0.000000 1.000000 0.000008  0.008491 0.749010 1 67 1.000000
lowpoly_plastic
0  -3.519513 -16.073397 -0.099060  0.000000 1.000000 -0.000059  0.008494 0.749012 1 67 1.000000
0  -3.542390 -16.073397 -0.085851  0.000000 1.000000 -0.000059  0.008493 0.749012 1 67 1.000000
0  -3.511821 -16.073397 -0.059478  0.000000 1.000000 -0.000059  0.008494 0.749010 1 67 1.000000
lowpoly_glow
0  -3.565267 -16.073397 -0.125476  -1.000000 0.000000 0.000000  0.437992 0.585334 1 67 1.000000
0  -3.565267 -16.062473 -0.099060  -1.000000 0.000000 0.000000  0.437994 0.585330 1 67 1.000000
0  -3.565267 -16.062473 -0.125476  -1.000000 0.000000 0.000000  0.437994 0.585334 1 67 1.000000
lowpoly_glow
0  -3.565267 -16.062473 -0.099060  0.000000 1.000000 0.000099  0.437660 0.585330 1 67 1.000000
0  -3.542390 -16.062473 -0.085851  0.000000 1.000000 0.000099  0.437663 0.585332 1 67 1.000000
0  -3.519513 -16.062473 -0.099060  0.000000 1.000000 0.000099  0.437663 0.585337 1 67 1.000000
lowpoly_glow
0  -3.542390 -16.073397 -0.085851  0.499961 0.000000 0.866048  0.437972 0.585334 1 67 1.000000
0  -3.519513 -16.062473 -0.099060  0.499961 0.000000 0.866048  0.437970 0.585338 1 67 1.000000
0  -3.542390 -16.062473 -0.085851  0.499961 0.000000 0.866048  0.437970 0.585334 1 67 1.000000
lowpoly_glow
0  -3.519513 -16.073397 -0.125476  0.499961 0.000000 -0.866048  0.437972 0.585338 1 67 1.000000
0  -3.542390 -16.062473 -0.138684  0.499961 0.000000 -0.866048  0.437974 0.585334 1 67 1.000000
0  -3.519513 -16.062473 -0.125476  0.499961 0.000000 -0.866048  0.437974 0.585338 1 67 1.000000
lowpoly_glow
0  -3.542390 -16.073397 -0.138684  -0.499961 0.000000 -0.866048  0.437972 0.585334 1 67 1.000000
0  -3.565267 -16.062473 -0.125476  -0.499961 0.000000 -0.866048  0.437974 0.585330 1 67 1.000000
0  -3.542390 -16.062473 -0.138684  -0.499961 0.000000 -0.866048  0.437974 0.585334 1 67 1.000000
lowpoly_glow
0  -3.565267 -16.073397 -0.099060  -0.499961 0.000000 0.866048  0.437972 0.585330 1 67 1.000000
0  -3.542390 -16.062473 -0.085851  -0.499961 0.000000 0.866048  0.437970 0.585334 1 67 1.000000
0  -3.565267 -16.062473 -0.099060  -0.499961 0.000000 0.866048  0.437970 0.585330 1 67 1.000000
lowpoly_glow
0  -3.519513 -16.073397 -0.099060  1.000000 0.000000 0.000000  0.437992 0.585330 1 67 1.000000
0  -3.519513 -16.062473 -0.125476  1.000000 0.000000 0.000000  0.437991 0.585334 1 67 1.000000
0  -3.519513 -16.062473 -0.099060  1.000000 0.000000 0.000000  0.437991 0.585330 1 67 1.000000
lowpoly_plastic
0  -3.696690 -10.324316 -0.441218  0.000000 0.000000 -1.000000  0.918790 0.513348 1 67 1.000000
0  -3.388036 -10.324316 -0.441218  0.000000 0.000000 -1.000000  0.918122 0.513348 1 67 1.000000
0  -3.181052 -12.424937 -0.441218  0.000000 0.000000 -1.000000  0.917673 0.508800 1 67 1.000000
lowpoly_plastic
0  -3.352081 -16.169294 -0.309865  0.000000 0.000000 -1.000000  0.069982 0.810837 1 67 1.000000
0  -3.352081 -16.484131 -0.309865  0.000000 0.000000 -1.000000  0.069982 0.810837 1 67 1.000000
0  -3.747738 -16.484131 -0.309865  0.000000 0.000000 -1.000000  0.069982 0.810837 1 67 1.000000
lowpoly_plastic
0  -3.433974 -16.225727 -0.248177  0.000000 -0.000000 1.000000  0.069982 0.810837 1 67 1.000000
0  -3.665845 -16.225727 -0.248177  0.000000 -0.000000 1.000000  0.069982 0.810837 1 67 1.000000
0  -3.665845 -16.428659 -0.248177  0.000000 -0.000000 1.000000  0.069982 0.810837 1 67 1.000000
lowpoly_plastic
0  -3.747738 -16.169294 -0.309865  -0.601677 0.000000 0.798740  0.069982 0.810837 1 67 1.000000
0  -3.747738 -16.484131 -0.309865  -0.601677 0.000000 0.798740  0.069982 0.810837 1 67 1.000000
0  -3.665845 -16.428659 -0.248177  -0.601677 0.000000 0.798740  0.069982 0.810837 1 67 1.000000
lowpoly_plastic
0  -3.352081 -16.169294 -0.309865  0.000000 0.737848 0.674967  0.069982 0.810837 1 67 1.000000
0  -3.747738 -16.169294 -0.309865  0.000000 0.737848 0.674967  0.069982 0.810837 1 67 1.000000
0  -3.665845 -16.225727 -0.248177  0.000000 0.737848 0.674967  0.069982 0.810837 1 67 1.000000
lowpoly_plastic
0  -3.352081 -16.484131 -0.309865  0.601670 0.000000 0.798745  0.069982 0.810837 1 67 1.000000
0  -3.352081 -16.169294 -0.309865  0.601670 0.000000 0.798745  0.069982 0.810837 1 67 1.000000
0  -3.433974 -16.225727 -0.248177  0.601670 0.000000 0.798745  0.069982 0.810837 1 67 1.000000
lowpoly_plastic
0  -3.747738 -16.484131 -0.309865  0.000000 -0.743573 0.668655  0.069982 0.810837 1 67 1.000000
0  -3.352081 -16.484131 -0.309865  0.000000 -0.743573 0.668655  0.069982 0.810837 1 67 1.000000
0  -3.433974 -16.428659 -0.248177  0.000000 -0.743573 0.668655  0.069982 0.810837 1 67 1.000000
lowpoly_plastic
0  -3.388036 -10.324316 -0.441218  0.000000 1.000000 0.000004  0.920811 0.513089 1 67 1.000000
0  -3.696690 -10.324316 -0.441218  0.000000 1.000000 0.000004  0.920811 0.512420 1 67 1.000000
0  -3.542390 -10.324316 -0.257932  0.000000 1.000000 0.000004  0.921203 0.512754 1 67 1.000000
lowpoly_plastic
0  -3.696690 -10.324316 -0.441218  0.000037 1.000000 -0.000030  0.920811 0.512420 1 67 1.000000
0  -3.697966 -10.324311 -0.287780  0.000037 1.000000 -0.000030  0.921139 0.512417 1 67 1.000000
0  -3.542390 -10.324316 -0.257932  0.000037 1.000000 -0.000030  0.921203 0.512754 1 67 1.000000
lowpoly_plastic
0  -3.696681 -10.230206 -0.441218  0.999969 -0.000925 0.007810  0.921855 0.513510 1 67 1.000000
0  -3.697908 -10.262219 -0.287855  0.999969 -0.000925 0.007810  0.921924 0.513178 1 67 1.000000
0  -3.697966 -10.324311 -0.287780  0.999969 -0.000925 0.007810  0.922059 0.513177 1 67 1.000000
lowpoly_plastic
0  -3.388036 -10.324316 -0.441218  -0.999838 -0.000030 0.017980  0.921397 0.513177 1 67 1.000000
0  -3.385240 -10.324316 -0.285722  -0.999838 -0.000030 0.017980  0.921734 0.513177 1 67 1.000000
0  -3.385243 -10.262224 -0.285726  -0.999838 -0.000030 0.017980  0.921734 0.513312 1 67 1.000000
lowpoly_plastic
0  -3.708724 -10.726694 -0.294962  -0.219924 0.001138 0.975516  0.920385 0.509934 1 67 1.000000
0  -3.542390 -10.743839 -0.257443  -0.219924 0.001138 0.975516  0.920024 0.509969 1 67 1.000000
0  -3.542390 -10.324316 -0.257932  -0.219924 0.001138 0.975516  0.920024 0.509060 1 67 1.000000
lowpoly_plastic
0  -3.385240 -10.324316 -0.285722  0.174136 0.001148 0.984721  0.919684 0.509062 1 67 1.000000
0  -3.542390 -10.324316 -0.257932  0.174136 0.001148 0.984721  0.920024 0.509060 1 67 1.000000
0  -3.542390 -10.743839 -0.257443  0.174136 0.001148 0.984721  0.920024 0.509969 1 67 1.000000
lowpoly_plastic
0  -3.374959 -10.726693 -0.293520  0.001764 -0.913134 -0.407657  0.922370 0.511658 1 67 1.000000
0  -3.708724 -10.726694 -0.294962  0.001764 -0.913134 -0.407657  0.922369 0.512381 1 67 1.000000
0  -3.795822 -10.697292 -0.361200  0.001764 -0.913134 -0.407657  0.922231 0.512570 1 67 1.000000
lowpoly_plastic
0  -3.287930 -11.187688 -0.359837  -0.002632 0.000053 0.999996  0.919473 0.510936 1 67 1.000000
0  -3.287949 -10.697285 -0.359863  -0.002632 0.000053 0.999996  0.919474 0.509874 1 67 1.000000
0  -3.795822 -10.697292 -0.361200  -0.002632 0.000053 0.999996  0.920574 0.509874 1 67 1.000000
lowpoly_plastic
0  -3.374941 -11.158279 -0.293497  0.000584 0.914481 -0.404629  0.922302 0.512759 1 67 1.000000
0  -3.287930 -11.187688 -0.359837  0.000584 0.914481 -0.404629  0.922434 0.512570 1 67 1.000000
0  -3.796290 -11.187694 -0.360584  0.000584 0.914481 -0.404629  0.922434 0.513671 1 67 1.000000
lowpoly_plastic
0  -3.542390 -12.424937 -0.257874  -0.216450 -0.000328 0.976294  0.920024 0.513608 1 67 1.000000
0  -3.542390 -11.141132 -0.257443  -0.216450 -0.000328 0.976294  0.920024 0.510829 1 67 1.000000
0  -3.709138 -11.158279 -0.294418  -0.216450 -0.000328 0.976294  0.920385 0.510868 1 67 1.000000
lowpoly_plastic
0  -3.708724 -10.726694 -0.294962  -0.604913 0.001960 0.796289  0.920385 0.509934 1 67 1.000000
0  -3.697966 -10.324311 -0.287780  -0.604913 0.001960 0.796289  0.920361 0.509062 1 67 1.000000
0  -3.795822 -10.697292 -0.361200  -0.604913 0.001960 0.796289  0.920574 0.509874 1 67 1.000000
lowpoly_plastic
0  -3.697966 -10.324311 -0.287780  -0.595090 0.001535 0.803657  0.920361 0.509062 1 67 1.000000
0  -3.697908 -10.262219 -0.287855  -0.595090 0.001535 0.803657  0.920361 0.508928 1 67 1.000000
0  -3.904856 -10.199451 -0.441218  -0.595090 0.001535 0.803657  0.920810 0.508801 1 67 1.000000
lowpoly_plastic
0  -3.795822 -10.697292 -0.361200  -0.596305 -0.001572 0.802757  0.920574 0.509874 1 67 1.000000
0  -3.697966 -10.324311 -0.287780  -0.596305 -0.001572 0.802757  0.920361 0.509062 1 67 1.000000
0  -3.904856 -10.199451 -0.441218  -0.596305 -0.001572 0.802757  0.920810 0.508801 1 67 1.000000
lowpoly_plastic
0  -3.904856 -10.199451 -0.441218  -0.595511 0.000127 0.803347  0.920810 0.508801 1 67 1.000000
0  -3.905330 -12.424937 -0.441218  -0.595511 0.000127 0.803347  0.920811 0.513619 1 67 1.000000
0  -3.796290 -11.187694 -0.360584  -0.595511 0.000127 0.803347  0.920575 0.510936 1 67 1.000000
lowpoly_plastic
0  -3.905330 -12.424937 -0.441218  -0.604784 0.001398 0.796388  0.920811 0.513619 1 67 1.000000
0  -3.756745 -12.424937 -0.328381  -0.604784 0.001398 0.796388  0.920489 0.513613 1 67 1.000000
0  -3.796290 -11.187694 -0.360584  -0.604784 0.001398 0.796388  0.920575 0.510936 1 67 1.000000
lowpoly_plastic
0  -3.756745 -12.424937 -0.328381  -0.604976 0.001388 0.796243  0.920489 0.513613 1 67 1.000000
0  -3.709138 -11.158279 -0.294418  -0.604976 0.001388 0.796243  0.920385 0.510868 1 67 1.000000
0  -3.796290 -11.187694 -0.360584  -0.604976 0.001388 0.796243  0.920575 0.510936 1 67 1.000000
lowpoly_plastic
0  -3.374941 -11.158279 -0.293497  0.210459 -0.000328 0.977603  0.919662 0.510868 1 67 1.000000
0  -3.542390 -11.141132 -0.257443  0.210459 -0.000328 0.977603  0.920024 0.510829 1 67 1.000000
0  -3.542390 -12.424937 -0.257874  0.210459 -0.000328 0.977603  0.919980 0.513609 1 67 1.000000
lowpoly_plastic
0  -3.181312 -10.199185 -0.441218  0.606320 0.000071 0.795221  0.919439 0.508857 1 67 1.000000
0  -3.385243 -10.262224 -0.285726  0.606320 0.000071 0.795221  0.919684 0.508927 1 67 1.000000
0  -3.385240 -10.324316 -0.285722  0.606320 0.000071 0.795221  0.919684 0.509062 1 67 1.000000
lowpoly_plastic
0  -3.385240 -10.324316 -0.285722  0.606315 0.000082 0.795225  0.919684 0.509062 1 67 1.000000
0  -3.374959 -10.726693 -0.293520  0.606315 0.000082 0.795225  0.919662 0.509934 1 67 1.000000
0  -3.287949 -10.697285 -0.359863  0.606315 0.000082 0.795225  0.919474 0.509874 1 67 1.000000
lowpoly_plastic
0  -3.287930 -11.187688 -0.359837  0.606332 0.000133 0.795212  0.919473 0.510936 1 67 1.000000
0  -3.374941 -11.158279 -0.293497  0.606332 0.000133 0.795212  0.919662 0.510868 1 67 1.000000
0  -3.332037 -12.424937 -0.325998  0.606332 0.000133 0.795212  0.919569 0.513613 1 67 1.000000
lowpoly_plastic
0  -3.181312 -10.199185 -0.441218  0.606311 0.000081 0.795228  0.919439 0.508857 1 67 1.000000
0  -3.385240 -10.324316 -0.285722  0.606311 0.000081 0.795228  0.919684 0.509062 1 67 1.000000
0  -3.287949 -10.697285 -0.359863  0.606311 0.000081 0.795228  0.919474 0.509874 1 67 1.000000
lowpoly_plastic
0  -3.287930 -11.187688 -0.359837  0.606654 0.000115 0.794966  0.919473 0.510936 1 67 1.000000
0  -3.332037 -12.424937 -0.325998  0.606654 0.000115 0.794966  0.919569 0.513613 1 67 1.000000
0  -3.181052 -12.424937 -0.441218  0.606654 0.000115 0.794966  0.919242 0.513619 1 67 1.000000
lowpoly_plastic
0  -3.181312 -10.199185 -0.441218  0.606355 0.000066 0.795194  0.919439 0.508857 1 67 1.000000
0  -3.287949 -10.697285 -0.359863  0.606355 0.000066 0.795194  0.919474 0.509874 1 67 1.000000
0  -3.287930 -11.187688 -0.359837  0.606355 0.000066 0.795194  0.919473 0.510936 1 67 1.000000
lowpoly_plastic
0  -3.181052 -12.424937 -0.441218  0.000000 -1.000000 0.000000  0.921793 0.511465 1 67 1.000000
0  -3.332037 -12.424937 -0.325998  0.000000 -1.000000 0.000000  0.921544 0.511138 1 67 1.000000
0  -3.756745 -12.424937 -0.328381  0.000000 -1.000000 0.000000  0.921549 0.510218 1 67 1.000000
lowpoly_plastic
0  -3.332037 -12.424937 -0.325998  0.000000 -1.000000 0.000000  0.921544 0.511138 1 67 1.000000
0  -3.542390 -12.424937 -0.257874  0.000000 -1.000000 0.000000  0.921397 0.510682 1 67 1.000000
0  -3.756745 -12.424937 -0.328381  0.000000 -1.000000 0.000000  0.921549 0.510218 1 67 1.000000
lowpoly_plastic
0  -3.287083 -10.262597 -0.275207  0.000000 -0.001550 -0.999999  0.006723 0.762509 1 67 1.000000
0  -3.255723 -10.742172 -0.274464  0.000000 -0.001550 -0.999999  0.006721 0.762509 1 67 1.000000
0  -3.828867 -10.742172 -0.274464  0.000000 -0.001550 -0.999999  0.006721 0.762507 1 67 1.000000
lowpoly_plastic
0  -3.255737 -11.187688 -0.359837  0.000000 -0.892051 0.451936  0.011583 0.750966 1 67 1.000000
0  -3.255737 -11.144761 -0.275107  0.000000 -0.892051 0.451936  0.011578 0.750966 1 67 1.000000
0  -3.828854 -11.144761 -0.275107  0.000000 -0.892051 0.451936  0.011578 0.750938 1 67 1.000000
lowpoly_plastic
0  -3.255737 -10.702394 -0.359837  1.000000 -0.000032 -0.000169  0.010421 0.752493 1 67 1.000000
0  -3.255723 -10.742172 -0.274464  1.000000 -0.000032 -0.000169  0.010425 0.752495 1 67 1.000000
0  -3.255737 -11.144761 -0.275107  1.000000 -0.000032 -0.000169  0.010428 0.752514 1 67 1.000000
lowpoly_plastic
0  -3.255737 -11.187688 -0.359837  0.000000 -0.000000 -1.000000  0.011481 0.752488 1 67 1.000000
0  -3.828854 -11.187688 -0.359837  0.000000 -0.000000 -1.000000  0.011481 0.752460 1 67 1.000000
0  -3.828854 -10.702394 -0.359837  0.000000 -0.000000 -1.000000  0.011505 0.752460 1 67 1.000000
lowpoly_plastic
0  -3.828854 -11.144761 -0.275107  -0.889659 -0.000758 0.456625  0.011557 0.752092 1 67 1.000000
0  -3.805047 -11.105354 -0.228659  -0.889659 -0.000758 0.456625  0.011555 0.752090 1 67 1.000000
0  -3.828867 -10.742172 -0.274464  -0.889659 -0.000758 0.456625  0.011560 0.752073 1 67 1.000000
lowpoly_plastic
0  -3.805047 -11.105354 -0.228659  -0.934673 -0.016511 0.355125  0.011555 0.752090 1 67 1.000000
0  -3.805047 -10.292068 -0.190845  -0.934673 -0.016511 0.355125  0.011558 0.752050 1 67 1.000000
0  -3.828867 -10.742172 -0.274464  -0.934673 -0.016511 0.355125  0.011560 0.752073 1 67 1.000000
lowpoly_plastic
0  -3.279543 -11.105354 -0.228659  0.966362 -0.011945 0.256909  0.010430 0.752512 1 67 1.000000
0  -3.279543 -10.292068 -0.190845  0.966362 -0.011945 0.256909  0.010426 0.752472 1 67 1.000000
0  -3.305388 -10.325483 -0.095180  0.966362 -0.011945 0.256909  0.010431 0.752473 1 67 1.000000
lowpoly_plastic
0  -3.436409 -11.105354 -0.221999  0.027463 -0.762105 0.646871  0.011575 0.750958 1 67 1.000000
0  -3.279543 -11.105354 -0.228659  0.027463 -0.762105 0.646871  0.011576 0.750965 1 67 1.000000
0  -3.298260 -11.074108 -0.191052  0.027463 -0.762105 0.646871  0.011574 0.750964 1 67 1.000000
lowpoly_plastic
0  -3.255737 -11.144761 -0.275107  0.000000 -0.803073 0.595880  0.011578 0.750966 1 67 1.000000
0  -3.436409 -11.105354 -0.221999  0.000000 -0.803073 0.595880  0.011575 0.750958 1 67 1.000000
0  -3.648181 -11.105354 -0.221999  0.000000 -0.803073 0.595880  0.011575 0.750947 1 67 1.000000
lowpoly_plastic
0  -3.805047 -11.105354 -0.228659  -0.027896 -0.753321 0.657062  0.011576 0.750939 1 67 1.000000
0  -3.648181 -11.105354 -0.221999  -0.027896 -0.753321 0.657062  0.011575 0.750947 1 67 1.000000
0  -3.722925 -11.044266 -0.155134  -0.027896 -0.753321 0.657062  0.011572 0.750944 1 67 1.000000
lowpoly_plastic
0  -3.578663 -10.592476 -0.175454  0.876606 -0.066904 0.476536  0.008229 0.763833 1 67 1.000000
0  -3.578663 -10.377163 -0.145224  0.876606 -0.066904 0.476536  0.008229 0.763832 1 67 1.000000
0  -3.625275 -10.377163 -0.059478  0.876606 -0.066904 0.476536  0.008229 0.763832 1 67 1.000000
lowpoly_plastic
0  -3.828854 -11.187688 -0.359837  -1.000000 -0.000033 0.000017  0.011561 0.752095 1 67 1.000000
0  -3.828854 -11.144761 -0.275107  -1.000000 -0.000033 0.000017  0.011557 0.752092 1 67 1.000000
0  -3.828867 -10.742172 -0.274464  -1.000000 -0.000033 0.000017  0.011560 0.752073 1 67 1.000000
lowpoly_plastic
0  -3.459315 -10.571688 -0.089194  -0.876246 -0.072767 0.476337  0.008229 0.763832 1 67 1.000000
0  -3.459315 -10.377163 -0.059478  -0.876246 -0.072767 0.476337  0.008229 0.763831 1 67 1.000000
0  -3.505928 -10.377163 -0.145224  -0.876246 -0.072767 0.476337  0.008229 0.763831 1 67 1.000000
lowpoly_plastic
0  -3.786330 -11.074108 -0.191052  -0.967141 -0.023216 0.253179  0.011553 0.752088 1 67 1.000000
0  -3.779202 -10.325483 -0.095180  -0.967141 -0.023216 0.253179  0.011553 0.752051 1 67 1.000000
0  -3.805047 -10.292068 -0.190845  -0.967141 -0.023216 0.253179  0.011558 0.752050 1 67 1.000000
lowpoly_plastic
0  -3.255737 -11.144761 -0.275107  0.889659 -0.000758 0.456625  0.010428 0.752514 1 67 1.000000
0  -3.255723 -10.742172 -0.274464  0.889659 -0.000758 0.456625  0.010425 0.752495 1 67 1.000000
0  -3.279543 -11.105354 -0.228659  0.889659 -0.000758 0.456625  0.010430 0.752512 1 67 1.000000
lowpoly_plastic
0  -3.255723 -10.742172 -0.274464  0.963546 0.001287 0.267541  0.010425 0.752495 1 67 1.000000
0  -3.265140 -10.273916 -0.242804  0.963546 0.001287 0.267541  0.010424 0.752472 1 67 1.000000
0  -3.279543 -10.292068 -0.190845  0.963546 0.001287 0.267541  0.010426 0.752472 1 67 1.000000
lowpoly_plastic
0  -3.505928 -10.592476 -0.175454  0.000000 -0.139036 0.990287  0.008230 0.763775 1 67 1.000000
0  -3.505928 -10.377163 -0.145224  0.000000 -0.139036 0.990287  0.008230 0.763775 1 67 1.000000
0  -3.578663 -10.377163 -0.145224  0.000000 -0.139036 0.990287  0.008230 0.763775 1 67 1.000000
lowpoly_plastic
0  -3.648181 -10.592476 -0.221999  -0.115887 -0.978064 0.173094  0.008226 0.763776 1 67 1.000000
0  -3.578663 -10.592476 -0.175454  -0.115887 -0.978064 0.173094  0.008225 0.763777 1 67 1.000000
0  -3.625275 -10.571688 -0.089194  -0.115887 -0.978064 0.173094  0.008225 0.763776 1 67 1.000000
lowpoly_plastic
0  -3.828854 -10.702394 -0.359837  0.000000 0.906431 0.422354  0.006836 0.762513 1 67 1.000000
0  -3.828867 -10.742172 -0.274464  0.000000 0.906431 0.422354  0.006837 0.762513 1 67 1.000000
0  -3.255723 -10.742172 -0.274464  0.000000 0.906431 0.422354  0.006837 0.762515 1 67 1.000000
lowpoly_metal
0  -3.564947 -10.946479 -0.221999  0.392554 -0.696684 0.600444  0.061424 0.627797 1 67 1.000000
0  -3.459420 -10.887019 -0.221999  0.392554 -0.696684 0.600444  0.061424 0.627778 1 67 1.000000
0  -3.470233 -10.884102 -0.211546  0.392554 -0.696684 0.600444  0.061426 0.627780 1 67 1.000000
lowpoly_plastic
0  -3.722944 -10.289293 -0.190133  0.000000 0.954132 0.299386  0.011577 0.750668 1 67 1.000000
0  -3.361646 -10.289293 -0.190133  0.000000 0.954132 0.299386  0.011577 0.750686 1 67 1.000000
0  -3.287083 -10.262597 -0.275207  0.000000 0.954132 0.299386  0.011572 0.750690 1 67 1.000000
lowpoly_plastic
0  -3.436409 -10.592476 -0.221999  0.000000 -1.000000 -0.000035  0.008226 0.763777 1 67 1.000000
0  -3.505928 -10.592476 -0.175454  0.000000 -1.000000 -0.000035  0.008225 0.763777 1 67 1.000000
0  -3.578663 -10.592476 -0.175454  0.000000 -1.000000 -0.000035  0.008225 0.763777 1 67 1.000000
lowpoly_plastic
0  -3.361665 -11.044266 -0.155134  -0.864673 -0.069419 0.497516  0.008216 0.763884 1 67 1.000000
0  -3.361665 -10.571688 -0.089194  -0.864673 -0.069419 0.497516  0.008216 0.763882 1 67 1.000000
0  -3.436409 -10.592476 -0.221999  -0.864673 -0.069419 0.497516  0.008217 0.763882 1 67 1.000000
lowpoly_plastic
0  -3.361665 -10.571688 -0.089194  0.000000 -0.972169 0.234280  0.008225 0.763777 1 67 1.000000
0  -3.459315 -10.571688 -0.089194  0.000000 -0.972169 0.234280  0.008225 0.763777 1 67 1.000000
0  -3.505928 -10.592476 -0.175454  0.000000 -0.972169 0.234280  0.008225 0.763777 1 67 1.000000
lowpoly_plastic
0  -3.648181 -11.105354 -0.221999  0.871459 0.000000 0.490468  0.008218 0.763884 1 67 1.000000
0  -3.648181 -10.592476 -0.221999  0.871459 0.000000 0.490468  0.008218 0.763882 1 67 1.000000
0  -3.722925 -10.571688 -0.089194  0.871459 0.000000 0.490468  0.008219 0.763882 1 67 1.000000
lowpoly_glow
0  -3.669260 -10.377315 -0.129846  -0.999380 -0.000111 0.035202  0.437974 0.585335 1 67 1.000000
0  -3.668227 -10.377413 -0.100534  -0.999380 -0.000111 0.035202  0.437974 0.585330 1 67 1.000000
0  -3.668227 -10.362631 -0.100484  -0.999380 -0.000111 0.035202  0.437976 0.585330 1 67 1.000000
lowpoly_glow
0  -3.416596 -10.377411 -0.101231  0.999887 -0.000071 0.015016  0.437979 0.585330 1 67 1.000000
0  -3.416156 -10.377312 -0.130551  0.999887 -0.000071 0.015016  0.437979 0.585335 1 67 1.000000
0  -3.416156 -10.362529 -0.130501  0.999887 -0.000071 0.015016  0.437976 0.585335 1 67 1.000000
lowpoly_glow
0  -3.466939 -10.377356 -0.131314  -0.999887 0.000072 -0.015017  0.437979 0.585335 1 67 1.000000
0  -3.467379 -10.377455 -0.101994  -0.999887 0.000072 -0.015017  0.437979 0.585330 1 67 1.000000
0  -3.467379 -10.362671 -0.101945  -0.999887 0.000072 -0.015017  0.437981 0.585330 1 67 1.000000
lowpoly_glow
0  -3.668227 -10.377413 -0.100534  -0.469139 -0.002964 0.883119  0.437958 0.585330 1 67 1.000000
0  -3.642326 -10.377483 -0.086772  -0.469139 -0.002964 0.883119  0.437958 0.585334 1 67 1.000000
0  -3.642326 -10.362700 -0.086722  -0.469139 -0.002964 0.883119  0.437955 0.585334 1 67 1.000000
lowpoly_plastic
0  -3.459315 -10.571688 -0.089194  0.000000 -0.151594 0.988443  0.011585 0.751626 1 67 1.000000
0  -3.361665 -10.571688 -0.089194  0.000000 -0.151594 0.988443  0.011580 0.751626 1 67 1.000000
0  -3.361646 -10.377239 -0.059373  0.000000 -0.151594 0.988443  0.011580 0.751616 1 67 1.000000
lowpoly_plastic
0  -3.625275 -10.571688 -0.089194  0.001184 -0.151011 0.988531  0.011577 0.751663 1 67 1.000000
0  -3.625275 -10.377163 -0.059478  0.001184 -0.151011 0.988531  0.011578 0.751653 1 67 1.000000
0  -3.722944 -10.377239 -0.059373  0.001184 -0.151011 0.988531  0.011582 0.751653 1 67 1.000000
lowpoly_plastic
0  -3.644391 -10.377285 -0.145396  0.000001 0.999996 0.002859  0.005334 0.764408 1 67 1.000000
0  -3.722944 -10.377163 -0.188208  0.000001 0.999996 0.002859  0.005334 0.764407 1 67 1.000000
0  -3.668227 -10.377413 -0.100534  0.000001 0.999996 0.002859  0.005335 0.764407 1 67 1.000000
lowpoly_plastic
0  -3.578663 -10.377163 -0.145224  0.000000 1.000000 -0.000076  0.005334 0.764409 1 67 1.000000
0  -3.505928 -10.377163 -0.145224  0.000000 1.000000 -0.000076  0.005334 0.764410 1 67 1.000000
0  -3.361646 -10.377163 -0.188208  0.000000 1.000000 -0.000076  0.005334 0.764411 1 67 1.000000
lowpoly_plastic
0  -3.361646 -10.289293 -0.190133  -1.000000 0.000000 0.000000  0.005354 0.764218 1 67 1.000000
0  -3.361646 -10.377163 -0.188208  -1.000000 0.000000 0.000000  0.005353 0.764218 1 67 1.000000
0  -3.361646 -10.377239 -0.059373  -1.000000 0.000000 0.000000  0.005353 0.764216 1 67 1.000000
lowpoly_plastic
0  -3.722944 -10.289293 -0.190133  0.000000 0.021901 0.999760  0.005339 0.764314 1 67 1.000000
0  -3.722944 -10.377163 -0.188208  0.000000 0.021901 0.999760  0.005340 0.764314 1 67 1.000000
0  -3.361646 -10.377163 -0.188208  0.000000 0.021901 0.999760  0.005340 0.764319 1 67 1.000000
lowpoly_plastic
0  -3.722944 -10.377239 -0.059373  1.000000 0.000003 0.000000  0.005354 0.764215 1 67 1.000000
0  -3.722944 -10.377163 -0.188208  1.000000 0.000003 0.000000  0.005354 0.764216 1 67 1.000000
0  -3.722944 -10.289293 -0.190133  1.000000 0.000003 0.000000  0.005353 0.764216 1 67 1.000000
lowpoly_plastic
0  -3.625275 -10.377163 -0.059478  -0.046820 -0.998902 -0.001735  0.005335 0.764408 1 67 1.000000
0  -3.618490 -10.377354 -0.131635  -0.046820 -0.998902 -0.001735  0.005334 0.764408 1 67 1.000000
0  -3.617457 -10.377454 -0.102323  -0.046820 -0.998902 -0.001735  0.005335 0.764408 1 67 1.000000
lowpoly_plastic
0  -3.441327 -10.377285 -0.145592  0.000952 -0.999994 -0.003353  0.005334 0.764410 1 67 1.000000
0  -3.416156 -10.377312 -0.130551  0.000952 -0.999994 -0.003353  0.005334 0.764411 1 67 1.000000
0  -3.416596 -10.377411 -0.101231  0.000952 -0.999994 -0.003353  0.005335 0.764411 1 67 1.000000
lowpoly_plastic
0  -3.459315 -10.377163 -0.059478  0.005865 0.999951 -0.007977  0.005335 0.764410 1 67 1.000000
0  -3.442208 -10.377482 -0.086953  0.005865 0.999951 -0.007977  0.005335 0.764410 1 67 1.000000
0  -3.467379 -10.377455 -0.101994  0.005865 0.999951 -0.007977  0.005335 0.764410 1 67 1.000000
lowpoly_metal
0  -3.519644 -10.782831 -0.221999  -0.392522 0.696631 0.600526  0.061430 0.627797 1 67 1.000000
0  -3.625170 -10.842291 -0.221999  -0.392522 0.696631 0.600526  0.061430 0.627778 1 67 1.000000
0  -3.614357 -10.845209 -0.211546  -0.392522 0.696631 0.600526  0.061432 0.627780 1 67 1.000000
lowpoly_metal
0  -3.459420 -10.887019 -0.221999  0.690619 0.399192 0.603068  0.061428 0.627796 1 67 1.000000
0  -3.519644 -10.782831 -0.221999  0.690619 0.399192 0.603068  0.061428 0.627778 1 67 1.000000
0  -3.522599 -10.793509 -0.211546  0.690619 0.399192 0.603068  0.061430 0.627780 1 67 1.000000
lowpoly_metal
0  -3.625170 -10.842291 -0.221999  -0.690701 -0.399243 0.602941  0.061426 0.627796 1 67 1.000000
0  -3.564947 -10.946479 -0.221999  -0.690701 -0.399243 0.602941  0.061426 0.627778 1 67 1.000000
0  -3.561991 -10.935803 -0.211546  -0.690701 -0.399243 0.602941  0.061428 0.627780 1 67 1.000000
lowpoly_glow
0  -3.642326 -10.362700 -0.086722  0.000907 0.999994 0.003360  0.437507 0.585330 1 67 1.000000
0  -3.617457 -10.362671 -0.102273  0.000907 0.999994 0.003360  0.437512 0.585332 1 67 1.000000
0  -3.669260 -10.362532 -0.129796  0.000907 0.999994 0.003360  0.437503 0.585337 1 67 1.000000
lowpoly_glow
0  -3.416596 -10.362628 -0.101182  -0.000896 0.999994 0.003442  0.437520 0.585337 1 67 1.000000
0  -3.416156 -10.362529 -0.130501  -0.000896 0.999994 0.003442  0.437516 0.585340 1 67 1.000000
0  -3.467379 -10.362671 -0.101945  -0.000896 0.999994 0.003442  0.437516 0.585330 1 67 1.000000
lowpoly_glow
0  -3.617457 -10.362671 -0.102273  0.000889 0.999994 0.003440  0.437512 0.585332 1 67 1.000000
0  -3.618490 -10.362571 -0.131585  0.000889 0.999994 0.003440  0.437512 0.585337 1 67 1.000000
0  -3.644391 -10.362501 -0.145347  0.000889 0.999994 0.003440  0.437507 0.585340 1 67 1.000000
lowpoly_glow
0  -3.416156 -10.362529 -0.130501  -0.000895 0.999994 0.003442  0.437516 0.585340 1 67 1.000000
0  -3.441327 -10.362501 -0.145542  -0.000895 0.999994 0.003442  0.437512 0.585337 1 67 1.000000
0  -3.466938 -10.362572 -0.131264  -0.000895 0.999994 0.003442  0.437512 0.585332 1 67 1.000000
lowpoly_glow
0  -3.617457 -10.377454 -0.102323  0.999380 0.000121 -0.035204  0.437984 0.585330 1 67 1.000000
0  -3.618490 -10.377354 -0.131635  0.999380 0.000121 -0.035204  0.437984 0.585335 1 67 1.000000
0  -3.618490 -10.362571 -0.131585  0.999380 0.000121 -0.035204  0.437981 0.585335 1 67 1.000000
lowpoly_glow
0  -3.642326 -10.377483 -0.086772  0.530176 -0.002866 0.847882  0.437958 0.585334 1 67 1.000000
0  -3.617457 -10.377454 -0.102323  0.530176 -0.002866 0.847882  0.437958 0.585339 1 67 1.000000
0  -3.617457 -10.362671 -0.102273  0.530176 -0.002866 0.847882  0.437955 0.585339 1 67 1.000000
lowpoly_glow
0  -3.644391 -10.377285 -0.145396  -0.530175 0.002841 -0.847884  0.437960 0.585334 1 67 1.000000
0  -3.669260 -10.377315 -0.129846  -0.530175 0.002841 -0.847884  0.437960 0.585330 1 67 1.000000
0  -3.669260 -10.362532 -0.129796  -0.530175 0.002841 -0.847884  0.437963 0.585330 1 67 1.000000
lowpoly_glow
0  -3.441327 -10.377285 -0.145592  -0.486961 0.002961 -0.873419  0.437958 0.585334 1 67 1.000000
0  -3.466939 -10.377356 -0.131314  -0.486961 0.002961 -0.873419  0.437958 0.585330 1 67 1.000000
0  -3.466938 -10.362572 -0.131264  -0.486961 0.002961 -0.873419  0.437960 0.585330 1 67 1.000000
lowpoly_glow
0  -3.618490 -10.377354 -0.131635  0.469166 0.002973 -0.883105  0.437960 0.585339 1 67 1.000000
0  -3.644391 -10.377285 -0.145396  0.469166 0.002973 -0.883105  0.437960 0.585334 1 67 1.000000
0  -3.644391 -10.362501 -0.145347  0.469166 0.002973 -0.883105  0.437963 0.585334 1 67 1.000000
lowpoly_glow
0  -3.467379 -10.377455 -0.101994  -0.512943 -0.002889 0.858418  0.437955 0.585330 1 67 1.000000
0  -3.442208 -10.377482 -0.086953  -0.512943 -0.002889 0.858418  0.437955 0.585334 1 67 1.000000
0  -3.442208 -10.362700 -0.086903  -0.512943 -0.002889 0.858418  0.437953 0.585334 1 67 1.000000
lowpoly_glow
0  -3.442208 -10.377482 -0.086953  0.486939 -0.002944 0.873431  0.437955 0.585334 1 67 1.000000
0  -3.416596 -10.377411 -0.101231  0.486939 -0.002944 0.873431  0.437955 0.585339 1 67 1.000000
0  -3.416596 -10.362628 -0.101182  0.486939 -0.002944 0.873431  0.437953 0.585339 1 67 1.000000
lowpoly_glow
0  -3.416156 -10.377312 -0.130551  0.512967 0.002890 -0.858403  0.437958 0.585339 1 67 1.000000
0  -3.441327 -10.377285 -0.145592  0.512967 0.002890 -0.858403  0.437958 0.585334 1 67 1.000000
0  -3.441327 -10.362501 -0.145542  0.512967 0.002890 -0.858403  0.437960 0.585334 1 67 1.000000
lowpoly_plastic
0  -3.584498 -16.552034 -0.287442  0.000000 -0.000000 -1.000000  0.008442 0.749260 1 67 1.000000
0  -3.584498 -16.073397 -0.287443  0.000000 -0.000000 -1.000000  0.008442 0.749236 1 67 1.000000
0  -3.500282 -16.073397 -0.287443  0.000000 -0.000000 -1.000000  0.008446 0.749236 1 67 1.000000
lowpoly_plastic
0  -3.572688 -16.552034 -0.111235  0.000000 -0.107508 0.994204  0.008455 0.750373 1 67 1.000000
0  -3.512091 -16.552034 -0.111235  0.000000 -0.107508 0.994204  0.008452 0.750373 1 67 1.000000
0  -3.511821 -16.073397 -0.059478  0.000000 -0.107508 0.994204  0.008452 0.750350 1 67 1.000000
lowpoly_plastic
0  -3.500282 -16.073397 -0.287443  0.998703 -0.006030 0.050554  0.008237 0.750486 1 67 1.000000
0  -3.511821 -16.073397 -0.059478  0.998703 -0.006030 0.050554  0.008248 0.750486 1 67 1.000000
0  -3.512091 -16.552034 -0.111235  0.998703 -0.006030 0.050554  0.008245 0.750509 1 67 1.000000
lowpoly_plastic
0  -3.584498 -16.552034 -0.287442  0.000000 -1.000000 0.000002  0.008502 0.749721 1 67 1.000000
0  -3.500282 -16.552034 -0.287442  0.000000 -1.000000 0.000002  0.008497 0.749721 1 67 1.000000
0  -3.512091 -16.552034 -0.111235  0.000000 -1.000000 0.000002  0.008498 0.749712 1 67 1.000000
lowpoly_plastic
0  -3.584498 -16.073397 -0.287443  -0.997762 0.000001 0.066871  0.008400 0.750218 1 67 1.000000
0  -3.584498 -16.552034 -0.287442  -0.997762 0.000001 0.066871  0.008400 0.750242 1 67 1.000000
0  -3.572688 -16.552034 -0.111235  -0.997762 0.000001 0.066871  0.008392 0.750242 1 67 1.000000
lowpoly_plastic
0  -3.542390 -16.073397 -0.138684  0.000000 -1.000000 0.000000  0.008493 0.749014 1 67 1.000000
0  -3.519513 -16.073397 -0.125476  0.000000 -1.000000 0.000000  0.008494 0.749014 1 67 1.000000
0  -3.519513 -16.073397 -0.099060  0.000000 -1.000000 0.000000  0.008494 0.749012 1 67 1.000000
lowpoly_plastic
0  -3.542390 -16.073397 -0.085851  0.000000 -1.000000 0.000000  0.008493 0.749012 1 67 1.000000
0  -3.565267 -16.073397 -0.099060  0.000000 -1.000000 0.000000  0.008492 0.749012 1 67 1.000000
0  -3.565267 -16.073397 -0.125476  0.000000 -1.000000 0.000000  0.008492 0.749014 1 67 1.000000
lowpoly_glow
0  -3.565267 -16.073397 -0.125476  -1.000000 0.000000 0.000000  0.437992 0.585334 1 67 1.000000
0  -3.565267 -16.073397 -0.099060  -1.000000 0.000000 0.000000  0.437992 0.585330 1 67 1.000000
0  -3.565267 -16.062473 -0.099060  -1.000000 0.000000 0.000000  0.437994 0.585330 1 67 1.000000
lowpoly_glow
0  -3.519513 -16.062473 -0.099060  0.000000 1.000000 0.000000  0.437663 0.585337 1 67 1.000000
0  -3.519513 -16.062473 -0.125476  0.000000 1.000000 0.000000  0.437660 0.585339 1 67 1.000000
0  -3.565267 -16.062473 -0.099060  0.000000 1.000000 0.000000  0.437660 0.585330 1 67 1.000000
lowpoly_glow
0  -3.519513 -16.062473 -0.125476  0.000000 1.000000 -0.000049  0.437660 0.585339 1 67 1.000000
0  -3.542390 -16.062473 -0.138684  0.000000 1.000000 -0.000049  0.437656 0.585337 1 67 1.000000
0  -3.565267 -16.062473 -0.099060  0.000000 1.000000 -0.000049  0.437660 0.585330 1 67 1.000000
lowpoly_glow
0  -3.542390 -16.062473 -0.138684  0.000000 1.000000 0.000000  0.437656 0.585337 1 67 1.000000
0  -3.565267 -16.062473 -0.125476  0.000000 1.000000 0.000000  0.437656 0.585332 1 67 1.000000
0  -3.565267 -16.062473 -0.099060  0.000000 1.000000 0.000000  0.437660 0.585330 1 67 1.000000
lowpoly_glow
0  -3.542390 -16.073397 -0.085851  0.500050 0.000000 0.865996  0.437972 0.585334 1 67 1.000000
0  -3.519513 -16.073397 -0.099060  0.500050 0.000000 0.865996  0.437972 0.585338 1 67 1.000000
0  -3.519513 -16.062473 -0.099060  0.500050 0.000000 0.865996  0.437970 0.585338 1 67 1.000000
lowpoly_glow
0  -3.519513 -16.073397 -0.125476  0.500050 0.000000 -0.865996  0.437972 0.585338 1 67 1.000000
0  -3.542390 -16.073397 -0.138684  0.500050 0.000000 -0.865996  0.437972 0.585334 1 67 1.000000
0  -3.542390 -16.062473 -0.138684  0.500050 0.000000 -0.865996  0.437974 0.585334 1 67 1.000000
lowpoly_glow
0  -3.542390 -16.073397 -0.138684  -0.500050 0.000000 -0.865996  0.437972 0.585334 1 67 1.000000
0  -3.565267 -16.073397 -0.125476  -0.500050 0.000000 -0.865996  0.437972 0.585330 1 67 1.000000
0  -3.565267 -16.062473 -0.125476  -0.500050 0.000000 -0.865996  0.437974 0.585330 1 67 1.000000
lowpoly_glow
0  -3.565267 -16.073397 -0.099060  -0.500051 0.000000 0.865996  0.437972 0.585330 1 67 1.000000
0  -3.542390 -16.073397 -0.085851  -0.500051 0.000000 0.865996  0.437972 0.585334 1 67 1.000000
0  -3.542390 -16.062473 -0.085851  -0.500051 0.000000 0.865996  0.437970 0.585334 1 67 1.000000
lowpoly_glow
0  -3.519513 -16.073397 -0.099060  1.000000 0.000000 0.000000  0.437992 0.585330 1 67 1.000000
0  -3.519513 -16.073397 -0.125476  1.000000 0.000000 0.000000  0.437992 0.585334 1 67 1.000000
0  -3.519513 -16.062473 -0.125476  1.000000 0.000000 0.000000  0.437991 0.585334 1 67 1.000000
lowpoly_plastic
0  -3.697329 -10.174256 -0.441218  0.000000 0.000001 -1.000000  0.918792 0.513673 1 67 1.000000
0  -3.696681 -10.230206 -0.441218  0.000000 0.000001 -1.000000  0.918790 0.513552 1 67 1.000000
0  -3.904856 -10.199451 -0.441218  0.000000 0.000001 -1.000000  0.919241 0.513618 1 67 1.000000
lowpoly_plastic
0  -3.696681 -10.230206 -0.441218  0.000000 0.000000 -1.000000  0.918790 0.513552 1 67 1.000000
0  -3.696690 -10.324316 -0.441218  0.000000 0.000000 -1.000000  0.918790 0.513348 1 67 1.000000
0  -3.904856 -10.199451 -0.441218  0.000000 0.000000 -1.000000  0.919241 0.513618 1 67 1.000000
lowpoly_plastic
0  -3.388036 -10.324316 -0.441218  0.000000 0.000000 -1.000000  0.918122 0.513348 1 67 1.000000
0  -3.388037 -10.230139 -0.441218  0.000000 0.000000 -1.000000  0.918122 0.513552 1 67 1.000000
0  -3.181312 -10.199185 -0.441218  0.000000 0.000000 -1.000000  0.917674 0.513619 1 67 1.000000
lowpoly_plastic
0  -3.388037 -10.230139 -0.441218  0.000000 0.000000 -1.000000  0.918122 0.513552 1 67 1.000000
0  -3.386405 -10.166266 -0.441218  0.000000 0.000000 -1.000000  0.918118 0.513690 1 67 1.000000
0  -3.181312 -10.199185 -0.441218  0.000000 0.000000 -1.000000  0.917674 0.513619 1 67 1.000000
lowpoly_plastic
0  -3.905330 -12.424937 -0.441218  -0.000000 0.000000 -1.000000  0.919242 0.508800 1 67 1.000000
0  -3.904856 -10.199451 -0.441218  -0.000000 0.000000 -1.000000  0.919241 0.513618 1 67 1.000000
0  -3.696690 -10.324316 -0.441218  -0.000000 0.000000 -1.000000  0.918790 0.513348 1 67 1.000000
lowpoly_plastic
0  -3.388036 -10.324316 -0.441218  0.000000 0.000000 -1.000000  0.918122 0.513348 1 67 1.000000
0  -3.181312 -10.199185 -0.441218  0.000000 0.000000 -1.000000  0.917674 0.513619 1 67 1.000000
0  -3.181052 -12.424937 -0.441218  0.000000 0.000000 -1.000000  0.917673 0.508800 1 67 1.000000
lowpoly_plastic
0  -3.905330 -12.424937 -0.441218  0.000000 0.000000 -1.000000  0.919242 0.508800 1 67 1.000000
0  -3.696690 -10.324316 -0.441218  0.000000 0.000000 -1.000000  0.918790 0.513348 1 67 1.000000
0  -3.181052 -12.424937 -0.441218  0.000000 0.000000 -1.000000  0.917673 0.508800 1 67 1.000000
end
