version 1
nodes
0 "ValveBiped.Bip01_Spine4" -1
1 "ValveBiped.Bip01_L_Clavicle" 0
2 "ValveBiped.Bip01_L_UpperArm" 1
3 "ValveBiped.Bip01_L_Forearm" 2
4 "ValveBiped.Bip01_L_Hand" 3
5 "ValveBiped.Bip01_L_Finger4" 4
6 "ValveBiped.Bip01_L_Finger41" 5
7 "ValveBiped.Bip01_L_Finger42" 6
8 "ValveBiped.Bip01_L_Finger3" 4
9 "ValveBiped.Bip01_L_Finger31" 8
10 "ValveBiped.Bip01_L_Finger32" 9
11 "ValveBiped.Bip01_L_Finger2" 4
12 "ValveBiped.Bip01_L_Finger21" 11
13 "ValveBiped.Bip01_L_Finger22" 12
14 "ValveBiped.Bip01_L_Finger1" 4
15 "ValveBiped.Bip01_L_Finger11" 14
16 "ValveBiped.Bip01_L_Finger12" 15
17 "ValveBiped.Bip01_L_Finger0" 4
18 "ValveBiped.Bip01_L_Finger01" 17
19 "ValveBiped.Bip01_L_Finger02" 18
20 "ValveBiped.Bip01_L_Ulna" 3
21 "ValveBiped.Bip01_L_Wrist" 3
22 "rig_l_upperarm" 1
23 "rig_l_forearm" 22
24 "rig_d_l_forearm" 23
25 "rig_d_l_upperarm" 22
26 "ValveBiped.Bip01_R_Clavicle" 0
27 "ValveBiped.Bip01_R_UpperArm" 26
28 "ValveBiped.Bip01_R_Forearm" 27
29 "ValveBiped.Bip01_R_Hand" 28
30 "ValveBiped.Bip01_R_Finger4" 29
31 "ValveBiped.Bip01_R_Finger41" 30
32 "ValveBiped.Bip01_R_Finger42" 31
33 "ValveBiped.Bip01_R_Finger3" 29
34 "ValveBiped.Bip01_R_Finger31" 33
35 "ValveBiped.Bip01_R_Finger32" 34
36 "ValveBiped.Bip01_R_Finger2" 29
37 "ValveBiped.Bip01_R_Finger21" 36
38 "ValveBiped.Bip01_R_Finger22" 37
39 "ValveBiped.Bip01_R_Finger1" 29
40 "ValveBiped.Bip01_R_Finger11" 39
41 "ValveBiped.Bip01_R_Finger12" 40
42 "ValveBiped.Bip01_R_Finger0" 29
43 "ValveBiped.Bip01_R_Finger01" 42
44 "ValveBiped.Bip01_R_Finger02" 43
45 "ValveBiped.Bip01_R_Ulna" 28
46 "ValveBiped.Bip01_R_Wrist" 28
47 "rig_r_upperarm" 26
48 "rig_r_forearm" 47
49 "rig_d_r_forearm" 48
50 "rig_d_r_upperarm" 47
51 "rig_r_hand" -1
52 "rig_d_r_hand" 51
53 "rig_d_r_wrist" 52
54 "rig_l_hand" -1
55 "rig_d_l_hand" 54
56 "rig_d_l_wrist" 54
57 "rig_l_pole" -1
58 "rig_r_pole" -1
59 "rig_l_clavicle" -1
60 "rig_d_l_clavicle" 59
61 "rig_r_clavicle" -1
62 "rig_d_r_clavicle" 61
63 "Camera" -1
64 "body" -1
65 "trigger" 64
66 "bullet1" 64
67 "slide" 64
68 "hammer" 64
69 "sliderelease" 64
70 "barrel" 64
71 "slidesg" 64
72 "grip_safety" 64
73 "safety" 64
74 "magrelease" 64
75 "sg_round" -1
76 "mag" -1
77 "bullet2" 76
78 "bullet3" 76
79 "bullet4" 78
80 "bullet5" 78
81 "bullet6" 78
82 "bullet7" 78
83 "bullet8" 78
84 "bullet9" 78
85 "bullet10" 78
86 "springstart" 76
87 "springend" 86
88 "sg_shell" -1
end
skeleton
time 0
0  0.000006 0.000000 0.000000  -1.570800 -1.391899 -1.570792
1  2.033349 1.000767 1.937657  -1.544956 -1.855077 -0.198630
2  6.027519 -0.000325 0.000208  -2.143567 0.785018 -0.668631
3  11.692112 0.000645 -0.000737  -0.000081 -0.000003 -1.062457
4  11.480341 -0.000210 -0.000731  1.977908 0.206141 0.313878
5  3.859507 -0.142824 -1.192079  -0.468169 0.151546 -0.880257
6  1.312591 0.000011 0.000008  -0.000027 0.000044 -0.439740
7  0.729356 0.000054 0.000049  0.000017 0.000021 -0.244317
8  3.942145 0.046328 -0.431542  -0.151817 0.073216 -0.811086
9  1.539110 0.000084 0.000004  -0.000007 0.000021 -0.247842
10  1.196333 0.000143 0.000029  0.000011 0.000018 -0.430770
11  3.883516 -0.047213 0.431351  0.085894 0.021858 -0.587909
12  1.719572 -0.000031 0.000017  0.000015 0.005518 -0.366533
13  1.209181 0.000090 0.000012  0.000004 0.003091 -0.216438
14  3.859681 -0.138419 1.332380  0.354466 -0.042717 -0.531784
15  1.719448 -0.000020 0.000028  0.000028 0.004066 -0.363025
16  1.099676 0.000050 0.000005  0.000003 0.002578 -0.244381
17  0.806014 -0.349039 1.321248  -1.222694 -0.679188 -0.788867
18  1.789818 -0.000006 -0.000018  0.000011 -0.000024 0.228523
19  1.207014 -0.000014 -0.000041  0.000002 -0.000008 0.362856
20  5.740633 0.000389 -0.000700  0.079065 0.000003 0.000063
21  11.481082 0.000133 -0.000803  0.075193 0.073684 0.050288
22  6.027525 -0.000330 0.000200  -2.352391 -0.091111 0.810625
23  0.000001 11.692099 -0.000007  -0.760917 -0.255891 -0.622326
24  0.000004 0.000009 -0.000000  0.868996 -0.000031 1.570739
25  0.000000 -0.000012 -0.000000  0.868960 0.000002 1.570712
26  2.033355 1.000772 -1.937609  1.473120 1.855075 -0.198639
27  6.027509 -0.000259 -0.000229  1.637176 -0.060228 -0.592196
28  11.691992 0.000163 0.000858  -0.000050 -0.000001 -0.007067
29  11.539204 0.000316 0.000816  -1.562466 0.108529 -0.061253
30  3.859438 -0.132760 1.193065  0.466290 -0.158048 -0.878823
31  1.312559 0.000023 0.000001  0.000013 -0.000043 -0.439709
32  0.729345 0.000065 -0.000027  -0.000023 -0.000019 -0.244286
33  3.942046 0.050138 0.431000  0.150091 -0.079181 -0.810189
34  1.539099 0.000006 0.000000  0.000009 -0.000007 -0.247824
35  1.196302 0.000075 -0.000004  -0.000007 -0.000009 -0.430781
36  3.883415 -0.050474 -0.431084  -0.085915 -0.026392 -0.587660
37  1.719564 -0.000085 -0.000004  -0.000006 -0.007962 -0.366486
38  1.209197 0.000034 0.000011  0.000002 -0.004461 -0.216413
39  3.859588 -0.149084 -1.331321  -0.354445 0.038578 -0.531955
40  1.719413 -0.000099 -0.000036  -0.000030 -0.006584 -0.363030
41  1.099674 0.000025 0.000006  0.000004 -0.004188 -0.244347
42  0.805982 -0.359850 -1.318338  1.221444 0.673631 -0.793558
43  1.789779 -0.000010 -0.000040  -0.000028 0.000031 0.228553
44  1.206995 -0.000006 0.000007  -0.000017 0.000020 0.362910
45  5.740573 0.000079 0.000723  0.026990 -0.000014 0.000028
46  11.492787 0.000137 0.000908  0.000504 0.000315 -0.022541
47  6.027515 -0.000273 -0.000228  0.074799 -0.634128 -2.207435
48  -0.000001 11.691977 -0.000007  -0.005397 0.000036 0.004562
49  0.000002 -0.000001 0.000001  2.272571 -0.000036 1.570860
50  -0.000008 -0.000014 0.000004  2.272645 -0.000036 1.570861
51  -22.620094 0.844507 -17.554111  -1.605366 2.379717 -0.041994
52  -0.000000 0.000001 -0.000000  0.008153 -0.000259 0.000009
53  0.000001 -0.000001 0.000000  1.565115 0.043565 -0.106862
54  22.730511 4.822210 -11.506547  1.605712 0.761853 0.042358
55  0.000000 -0.000002 -0.000000  0.000000 -0.000001 -0.000002
56  0.000031 0.000027 0.000001  -1.571901 -0.044449 -0.106509
57  15.265023 8.339654 -8.787539  1.570796 -0.000000 0.000000
58  -15.265000 8.339654 -8.787539  1.570796 -0.000000 0.000000
59  1.941978 -1.346989 1.821586  1.570796 -0.000000 0.000000
60  -0.004311 0.001230 -0.000371  0.006898 -0.005534 -0.284229
61  -1.937603 -1.346625 1.822824  1.570796 -0.000000 0.000000
62  0.000000 0.000000 0.000000  -0.078727 -3.136056 0.284226
63  0.000000 0.000000 0.000000  1.570796 -0.000000 0.000000
64  -3.534368 -10.111034 -2.851932  1.570796 -0.000000 0.000000
65  -0.008022 0.449004 2.449477  0.000000 -0.000000 0.000000
66  -0.008021 1.798499 0.936337  0.000000 -0.000000 0.000000
67  0.000000 2.151127 2.901127  0.000000 -0.000000 0.000000
68  -0.008023 1.347420 0.085285  0.000000 -0.000000 0.000000
69  0.230628 1.332312 3.105305  0.000000 -0.000000 0.000000
70  -0.008024 2.172907 7.984051  0.000000 -0.000000 0.000000
71  -0.008022 1.228065 5.810776  0.000000 -0.000000 0.000000
72  -0.008023 1.115505 -0.313082  0.000000 -0.000000 0.000000
73  -0.008023 1.345870 0.084164  1.570796 -0.000000 -0.000000
74  -0.008023 0.197514 1.902819  0.000000 -0.000000 0.000000
75  -3.542390 -12.021312 -0.689985  1.570796 -0.000000 0.000000
76  -3.534368 -10.839828 -0.901454  1.570796 -0.000000 0.000000
77  -0.008021 -0.653745 0.060182  0.000000 -0.000000 0.000000
78  -0.008021 -1.155510 -0.087180  0.000000 -0.000000 0.000000
79  0.000000 -0.501765 -0.147367  0.000000 -0.000000 0.000000
80  0.000000 -1.003531 -0.294728  0.000000 -0.000000 0.000000
81  0.000000 -1.505297 -0.442090  0.000000 -0.000000 0.000000
82  0.000000 -2.007061 -0.589454  0.000000 -0.000000 0.000000
83  0.000000 -2.508827 -0.736814  0.000000 -0.000000 0.000000
84  0.000000 -2.772560 -0.939010  0.000000 -0.000000 0.000000
85  0.000000 -3.071457 -1.220325  0.000000 -0.000000 0.000000
86  -0.283371 -4.518086 -0.534134  0.346743 -0.000000 -0.000000
87  -0.000000 4.582804 -0.219900  -0.051302 0.000000 0.000000
88  -3.542390 -12.021312 -0.689985  1.570796 -0.000000 0.000000
end
triangles
lowpoly_metal
0  -3.591982 -17.831009 -0.232510  -1.000000 0.000000 0.000000  0.043166 0.753078 1 67 1.000000
0  -3.591982 -17.831009 -0.259283  -1.000000 0.000000 0.000000  0.042975 0.753078 1 67 1.000000
0  -3.591982 -17.917507 0.011336  -1.000000 0.000000 0.000000  0.044905 0.752461 1 67 1.000000
lowpoly_metal
0  -3.591982 -18.624243 -0.259283  0.000000 0.000000 -1.000000  0.049789 0.747420 1 67 1.000000
0  -3.492797 -17.831009 -0.259283  0.000000 0.000000 -1.000000  0.049082 0.753078 1 67 1.000000
0  -3.492797 -18.624243 -0.259283  0.000000 0.000000 -1.000000  0.049082 0.747420 1 67 1.000000
lowpoly_metal
0  -3.591982 -18.624243 -0.259283  0.000000 0.000000 -1.000000  0.049789 0.747420 1 67 1.000000
0  -3.591982 -17.831009 -0.259283  0.000000 0.000000 -1.000000  0.049789 0.753078 1 67 1.000000
0  -3.492797 -17.831009 -0.259283  0.000000 0.000000 -1.000000  0.049082 0.753078 1 67 1.000000
lowpoly_metal
0  -3.492797 -17.831009 -0.259283  1.000000 0.000000 0.000000  0.044905 0.747420 1 67 1.000000
0  -3.492797 -17.831009 -0.232510  1.000000 0.000000 0.000000  0.045096 0.747420 1 67 1.000000
0  -3.492797 -17.917507 0.011336  1.000000 0.000000 0.000000  0.046836 0.748037 1 67 1.000000
lowpoly_metal
0  -3.492797 -17.831009 -0.259283  0.000000 1.000000 0.000000  0.050497 0.753946 1 67 1.000000
0  -3.591982 -17.831009 -0.232510  0.000000 1.000000 0.000000  0.049789 0.753757 1 67 1.000000
0  -3.492797 -17.831009 -0.232510  0.000000 1.000000 0.000000  0.050497 0.753757 1 67 1.000000
lowpoly_metal
0  -3.492797 -17.831009 -0.232510  0.000000 0.942462 0.334315  0.050497 0.753757 1 67 1.000000
0  -3.591982 -17.917507 0.011336  0.000000 0.942462 0.334315  0.049789 0.751938 1 67 1.000000
0  -3.492797 -17.917507 0.011336  0.000000 0.942462 0.334315  0.050497 0.751938 1 67 1.000000
lowpoly_metal
0  -3.591982 -18.624243 -0.259283  -1.000000 0.000000 0.000000  0.042975 0.747420 1 67 1.000000
0  -3.591982 -18.624243 -0.226007  -1.000000 0.000000 0.000000  0.043212 0.747420 1 67 1.000000
0  -3.591982 -17.917507 0.011336  -1.000000 0.000000 0.000000  0.044905 0.752461 1 67 1.000000
lowpoly_metal
0  -3.492797 -18.624243 -0.226007  1.000000 0.000000 0.000000  0.045143 0.753078 1 67 1.000000
0  -3.492797 -18.624243 -0.259283  1.000000 0.000000 0.000000  0.044905 0.753078 1 67 1.000000
0  -3.492797 -17.917507 0.011336  1.000000 0.000000 0.000000  0.046836 0.748037 1 67 1.000000
lowpoly_metal
0  -3.591982 -17.917507 0.011336  -1.000000 0.000000 0.000000  0.044905 0.752461 1 67 1.000000
0  -3.591982 -17.831009 -0.259283  -1.000000 0.000000 0.000000  0.042975 0.753078 1 67 1.000000
0  -3.591982 -18.624243 -0.259283  -1.000000 0.000000 0.000000  0.042975 0.747420 1 67 1.000000
lowpoly_metal
0  -3.591982 -18.624243 -0.259283  0.000000 -1.000000 0.000000  0.047544 0.754539 1 67 1.000000
0  -3.492797 -18.624243 -0.226007  0.000000 -1.000000 0.000000  0.046836 0.754307 1 67 1.000000
0  -3.591982 -18.624243 -0.226007  0.000000 -1.000000 0.000000  0.047544 0.754307 1 67 1.000000
lowpoly_metal
0  -3.492797 -18.624243 -0.259283  1.000000 0.000001 0.000000  0.044905 0.753078 1 67 1.000000
0  -3.492797 -17.831009 -0.259283  1.000000 0.000001 0.000000  0.044905 0.747420 1 67 1.000000
0  -3.492797 -17.917507 0.011336  1.000000 0.000001 0.000000  0.046836 0.748037 1 67 1.000000
lowpoly_metal
0  -3.492797 -18.389832 -0.008229  0.000000 -0.337620 0.941283  0.049789 0.750779 1 67 1.000000
0  -3.591982 -18.546406 -0.064389  0.000000 -0.337620 0.941283  0.050497 0.751938 1 67 1.000000
0  -3.492797 -18.546406 -0.064389  0.000000 -0.337620 0.941283  0.049789 0.751938 1 67 1.000000
lowpoly_metal
0  -3.492797 -18.546406 -0.064389  0.000000 -0.858641 0.512577  0.046836 0.753060 1 67 1.000000
0  -3.591982 -18.618595 -0.185319  0.000000 -0.858641 0.512577  0.047544 0.754015 1 67 1.000000
0  -3.492797 -18.618595 -0.185319  0.000000 -0.858641 0.512577  0.046836 0.754015 1 67 1.000000
lowpoly_metal
0  -3.591982 -18.389832 -0.008229  0.000000 -0.041386 0.999143  0.050497 0.750779 1 67 1.000000
0  -3.492797 -17.917507 0.011336  0.000000 -0.041386 0.999143  0.049789 0.747420 1 67 1.000000
0  -3.591982 -17.917507 0.011336  0.000000 -0.041386 0.999143  0.050497 0.747420 1 67 1.000000
lowpoly_metal
0  -3.492797 -18.624243 -0.226007  1.000000 0.000000 0.000000  0.045143 0.753078 1 67 1.000000
0  -3.492797 -18.389832 -0.008229  1.000000 0.000000 0.000000  0.046696 0.751406 1 67 1.000000
0  -3.492797 -18.618595 -0.185319  1.000000 0.000000 0.000000  0.045433 0.753038 1 67 1.000000
lowpoly_metal
0  -3.591982 -18.624243 -0.226007  0.000000 -0.990515 0.137403  0.047544 0.754307 1 67 1.000000
0  -3.492797 -18.618595 -0.185319  0.000000 -0.990515 0.137403  0.046836 0.754015 1 67 1.000000
0  -3.591982 -18.618595 -0.185319  0.000000 -0.990515 0.137403  0.047544 0.754015 1 67 1.000000
lowpoly_metal
0  -3.591982 -18.618595 -0.185319  -1.000000 0.000002 0.000000  0.043503 0.747460 1 67 1.000000
0  -3.591982 -18.546406 -0.064389  -1.000000 0.000002 0.000000  0.044365 0.747975 1 67 1.000000
0  -3.591982 -18.389832 -0.008229  -1.000000 0.000002 0.000000  0.044766 0.749092 1 67 1.000000
lowpoly_metal
0  -3.747387 -18.411392 -0.309865  -0.598708 0.001567 0.800966  0.049063 0.750240 1 67 1.000000
0  -3.676554 -18.143101 -0.257443  -0.598708 0.001567 0.800966  0.047117 0.750745 1 67 1.000000
0  -3.747388 -18.096554 -0.310481  -0.598708 0.001567 0.800966  0.046836 0.750240 1 67 1.000000
lowpoly_metal
0  -3.352081 -18.411392 -0.309865  0.594883 0.000000 0.803812  0.049063 0.753060 1 67 1.000000
0  -3.422915 -18.143101 -0.257443  0.594883 0.000000 0.803812  0.047117 0.752555 1 67 1.000000
0  -3.422915 -18.364830 -0.257443  0.594883 0.000000 0.803812  0.048686 0.752555 1 67 1.000000
lowpoly_metal
0  -3.676554 -18.143101 -0.257443  0.000000 0.000000 1.000000  0.047117 0.750745 1 67 1.000000
0  -3.422915 -18.364830 -0.257443  0.000000 0.000000 1.000000  0.048686 0.752555 1 67 1.000000
0  -3.422915 -18.143101 -0.257443  0.000000 0.000000 1.000000  0.047117 0.752555 1 67 1.000000
lowpoly_metal
0  -3.747387 -18.411392 -0.309865  0.000000 -0.001956 -0.999998  0.046836 0.747420 1 67 1.000000
0  -3.352081 -18.096554 -0.310481  0.000000 -0.001956 -0.999998  0.049082 0.750240 1 67 1.000000
0  -3.352081 -18.411392 -0.309865  0.000000 -0.001956 -0.999998  0.046836 0.750240 1 67 1.000000
lowpoly_metal
0  -3.676554 -18.364830 -0.257443  0.000000 -0.747658 0.664084  0.050497 0.747925 1 67 1.000000
0  -3.352081 -18.411392 -0.309865  0.000000 -0.747658 0.664084  0.050936 0.750240 1 67 1.000000
0  -3.422915 -18.364830 -0.257443  0.000000 -0.747658 0.664084  0.050497 0.749735 1 67 1.000000
lowpoly_metal
0  -3.747388 -18.096554 -0.310481  0.000000 0.751601 0.659618  0.050926 0.753060 1 67 1.000000
0  -3.422915 -18.143101 -0.257443  0.000000 0.751601 0.659618  0.050497 0.750745 1 67 1.000000
0  -3.352081 -18.096554 -0.310481  0.000000 0.751601 0.659618  0.050926 0.750240 1 67 1.000000
lowpoly_plastic
0  -3.904856 -10.463230 -0.441218  0.000000 -1.000000 0.000000  0.055511 0.787821 1 67 1.000000
0  -3.181312 -10.463230 -0.369396  0.000000 -1.000000 0.000000  0.056168 0.785652 1 67 1.000000
0  -3.904856 -10.463230 -0.369396  0.000000 -1.000000 0.000000  0.056311 0.787816 1 67 1.000000
lowpoly_plastic
0  -3.759830 -10.174256 -0.369396  -0.204828 0.978798 0.000000  0.056305 0.787725 1 67 1.000000
0  -3.904856 -10.204605 -0.441218  -0.204828 0.978798 0.000000  0.055511 0.787821 1 67 1.000000
0  -3.904856 -10.204605 -0.369396  -0.204828 0.978798 0.000000  0.056311 0.787816 1 67 1.000000
lowpoly_plastic
0  -3.181312 -10.204605 -0.369396  0.204828 0.978798 0.000000  0.056168 0.785652 1 67 1.000000
0  -3.326338 -10.174256 -0.441218  0.204828 0.978798 0.000000  0.054757 0.787821 1 67 1.000000
0  -3.326338 -10.174256 -0.369396  0.204828 0.978798 0.000000  0.056174 0.785743 1 67 1.000000
lowpoly_plastic
0  -3.181312 -10.204605 -0.369396  1.000000 0.000000 0.000000  0.056168 0.785652 1 67 1.000000
0  -3.181312 -10.463230 -0.441218  1.000000 0.000000 0.000000  0.054724 0.787821 1 67 1.000000
0  -3.181312 -10.204605 -0.441218  1.000000 0.000000 0.000000  0.054724 0.787821 1 67 1.000000
lowpoly_plastic
0  -3.759830 -10.174256 -0.441218  0.000000 1.000000 0.000000  0.055478 0.787821 1 67 1.000000
0  -3.326338 -10.174256 -0.369396  0.000000 1.000000 0.000000  0.056174 0.785743 1 67 1.000000
0  -3.326338 -10.174256 -0.441218  0.000000 1.000000 0.000000  0.054757 0.787821 1 67 1.000000
lowpoly_plastic
0  -3.904856 -10.463230 -0.441218  0.000000 0.000000 -1.000000  0.055511 0.787821 1 67 1.000000
0  -3.904856 -10.204605 -0.441218  0.000000 0.000000 -1.000000  0.055511 0.787821 1 67 1.000000
0  -3.759830 -10.174256 -0.441218  0.000000 0.000000 -1.000000  0.055478 0.787821 1 67 1.000000
lowpoly_plastic
0  -3.904856 -10.204605 -0.441218  -1.000000 0.000000 0.000000  0.055511 0.787821 1 67 1.000000
0  -3.904856 -10.463230 -0.369396  -1.000000 0.000000 0.000000  0.056311 0.787816 1 67 1.000000
0  -3.904856 -10.204605 -0.369396  -1.000000 0.000000 0.000000  0.056311 0.787816 1 67 1.000000
lowpoly_plastic
0  -3.181312 -10.463230 -0.369396  -0.000000 0.000000 1.000000  0.056168 0.785652 1 67 1.000000
0  -3.181312 -10.204605 -0.369396  -0.000000 0.000000 1.000000  0.056168 0.785652 1 67 1.000000
0  -3.326338 -10.174256 -0.369396  -0.000000 0.000000 1.000000  0.056174 0.785743 1 67 1.000000
lowpoly_plastic
0  -2.990248 -10.463230 -0.369396  0.707108 0.000000 0.707105  0.887019 0.513947 1 67 1.000000
0  -2.971097 -12.424937 -0.388546  0.707108 0.000000 0.707105  0.887043 0.511716 1 67 1.000000
0  -2.971098 -10.463230 -0.388546  0.707108 0.000000 0.707105  0.887043 0.513947 1 67 1.000000
lowpoly_plastic
0  -2.990248 -12.405787 -0.369396  0.000000 -0.707075 0.707139  0.887186 0.512994 1 67 1.000000
0  -4.113606 -12.424937 -0.388546  0.000000 -0.707075 0.707139  0.887209 0.511716 1 67 1.000000
0  -2.971097 -12.424937 -0.388546  0.000000 -0.707075 0.707139  0.887209 0.513015 1 67 1.000000
lowpoly_plastic
0  -2.971098 -10.463230 -0.441218  1.000000 0.000000 0.000000  0.887102 0.513947 1 67 1.000000
0  -2.971097 -12.424937 -0.388546  1.000000 0.000000 0.000000  0.887043 0.511716 1 67 1.000000
0  -2.971097 -12.424937 -0.441218  1.000000 0.000000 0.000000  0.887102 0.511716 1 67 1.000000
lowpoly_plastic
0  -2.971097 -12.424937 -0.441218  0.000000 -1.000000 0.000000  0.887269 0.513015 1 67 1.000000
0  -4.113606 -12.424937 -0.388546  0.000000 -1.000000 0.000000  0.887209 0.511716 1 67 1.000000
0  -4.113606 -12.424937 -0.441218  0.000000 -1.000000 0.000000  0.887269 0.511716 1 67 1.000000
lowpoly_plastic
0  -4.113606 -12.424937 -0.441218  -1.000000 0.000000 0.000000  0.887186 0.513947 1 67 1.000000
0  -4.113606 -10.463230 -0.388546  -1.000000 0.000000 0.000000  0.887127 0.511716 1 67 1.000000
0  -4.113606 -10.463230 -0.441218  -1.000000 0.000000 0.000000  0.887186 0.511716 1 67 1.000000
lowpoly_plastic
0  -4.094456 -12.405787 -0.369396  0.000000 0.000000 1.000000  0.859004 0.513925 1 67 1.000000
0  -2.990248 -10.463230 -0.369396  0.000000 0.000000 1.000000  0.857749 0.511716 1 67 1.000000
0  -4.094456 -10.463230 -0.369396  0.000000 0.000000 1.000000  0.859004 0.511716 1 67 1.000000
lowpoly_plastic
0  -4.094456 -12.405787 -0.369396  -0.707104 0.000000 0.707110  0.887102 0.513925 1 67 1.000000
0  -4.113606 -10.463230 -0.388546  -0.707104 0.000000 0.707110  0.887127 0.511716 1 67 1.000000
0  -4.113606 -12.424937 -0.388546  -0.707104 0.000000 0.707110  0.887127 0.513947 1 67 1.000000
lowpoly_plastic
0  -2.971097 -12.424937 -0.441218  0.000000 0.000000 -1.000000  0.856450 0.511716 1 67 1.000000
0  -4.113606 -10.463230 -0.441218  0.000000 0.000000 -1.000000  0.857749 0.513947 1 67 1.000000
0  -2.971098 -10.463230 -0.441218  0.000000 0.000000 -1.000000  0.856450 0.513947 1 67 1.000000
lowpoly_plastic
0  -2.990248 -10.463230 -0.369396  0.000000 1.000000 0.000000  0.887269 0.511738 1 67 1.000000
0  -2.971098 -10.463230 -0.388546  0.000000 1.000000 0.000000  0.887291 0.511716 1 67 1.000000
0  -2.971098 -10.463230 -0.441218  0.000000 1.000000 0.000000  0.887351 0.511716 1 67 1.000000
lowpoly_metal
0  -3.492797 -17.831009 -0.259283  0.000000 1.000000 0.000000  0.050497 0.753946 1 67 1.000000
0  -3.591982 -17.831009 -0.259283  0.000000 1.000000 0.000000  0.049789 0.753946 1 67 1.000000
0  -3.591982 -17.831009 -0.232510  0.000000 1.000000 0.000000  0.049789 0.753757 1 67 1.000000
lowpoly_metal
0  -3.492797 -17.831009 -0.232510  0.000000 0.942462 0.334313  0.050497 0.753757 1 67 1.000000
0  -3.591982 -17.831009 -0.232510  0.000000 0.942462 0.334313  0.049789 0.753757 1 67 1.000000
0  -3.591982 -17.917507 0.011336  0.000000 0.942462 0.334313  0.049789 0.751938 1 67 1.000000
lowpoly_metal
0  -3.591982 -18.624243 -0.259283  0.000000 -1.000000 0.000000  0.047544 0.754539 1 67 1.000000
0  -3.492797 -18.624243 -0.259283  0.000000 -1.000000 0.000000  0.046836 0.754539 1 67 1.000000
0  -3.492797 -18.624243 -0.226007  0.000000 -1.000000 0.000000  0.046836 0.754307 1 67 1.000000
lowpoly_metal
0  -3.492797 -18.389832 -0.008229  0.000000 -0.337623 0.941282  0.049789 0.750779 1 67 1.000000
0  -3.591982 -18.389832 -0.008229  0.000000 -0.337623 0.941282  0.050497 0.750779 1 67 1.000000
0  -3.591982 -18.546406 -0.064389  0.000000 -0.337623 0.941282  0.050497 0.751938 1 67 1.000000
lowpoly_metal
0  -3.492797 -18.546406 -0.064389  0.000000 -0.858650 0.512562  0.046836 0.753060 1 67 1.000000
0  -3.591982 -18.546406 -0.064389  0.000000 -0.858650 0.512562  0.047544 0.753060 1 67 1.000000
0  -3.591982 -18.618595 -0.185319  0.000000 -0.858650 0.512562  0.047544 0.754015 1 67 1.000000
lowpoly_metal
0  -3.591982 -18.389832 -0.008229  0.000000 -0.041386 0.999143  0.050497 0.750779 1 67 1.000000
0  -3.492797 -18.389832 -0.008229  0.000000 -0.041386 0.999143  0.049789 0.750779 1 67 1.000000
0  -3.492797 -17.917507 0.011336  0.000000 -0.041386 0.999143  0.049789 0.747420 1 67 1.000000
lowpoly_metal
0  -3.492797 -17.917507 0.011336  1.000000 0.000000 0.000000  0.046836 0.748037 1 67 1.000000
0  -3.492797 -18.389832 -0.008229  1.000000 0.000000 0.000000  0.046696 0.751406 1 67 1.000000
0  -3.492797 -18.624243 -0.226007  1.000000 0.000000 0.000000  0.045143 0.753078 1 67 1.000000
lowpoly_metal
0  -3.492797 -18.389832 -0.008229  1.000000 -0.000004 0.000000  0.046696 0.751406 1 67 1.000000
0  -3.492797 -18.546406 -0.064389  1.000000 -0.000004 0.000000  0.046296 0.752523 1 67 1.000000
0  -3.492797 -18.618595 -0.185319  1.000000 -0.000004 0.000000  0.045433 0.753038 1 67 1.000000
lowpoly_metal
0  -3.591982 -18.624243 -0.226007  0.000000 -0.990499 0.137518  0.047544 0.754307 1 67 1.000000
0  -3.492797 -18.624243 -0.226007  0.000000 -0.990499 0.137518  0.046836 0.754307 1 67 1.000000
0  -3.492797 -18.618595 -0.185319  0.000000 -0.990499 0.137518  0.046836 0.754015 1 67 1.000000
lowpoly_metal
0  -3.591982 -17.917507 0.011336  -1.000000 0.000000 0.000000  0.044905 0.752461 1 67 1.000000
0  -3.591982 -18.624243 -0.226007  -1.000000 0.000000 0.000000  0.043212 0.747420 1 67 1.000000
0  -3.591982 -18.389832 -0.008229  -1.000000 0.000000 0.000000  0.044766 0.749092 1 67 1.000000
lowpoly_metal
0  -3.591982 -18.624243 -0.226007  -1.000000 0.000000 0.000000  0.043212 0.747420 1 67 1.000000
0  -3.591982 -18.618595 -0.185319  -1.000000 0.000000 0.000000  0.043503 0.747460 1 67 1.000000
0  -3.591982 -18.389832 -0.008229  -1.000000 0.000000 0.000000  0.044766 0.749092 1 67 1.000000
lowpoly_metal
0  -3.747387 -18.411392 -0.309865  -0.594883 0.000000 0.803812  0.049063 0.750240 1 67 1.000000
0  -3.676554 -18.364830 -0.257443  -0.594883 0.000000 0.803812  0.048686 0.750745 1 67 1.000000
0  -3.676554 -18.143101 -0.257443  -0.594883 0.000000 0.803812  0.047117 0.750745 1 67 1.000000
lowpoly_metal
0  -3.352081 -18.411392 -0.309865  0.598713 0.001567 0.800963  0.049063 0.753060 1 67 1.000000
0  -3.352081 -18.096554 -0.310481  0.598713 0.001567 0.800963  0.046836 0.753060 1 67 1.000000
0  -3.422915 -18.143101 -0.257443  0.598713 0.001567 0.800963  0.047117 0.752555 1 67 1.000000
lowpoly_metal
0  -3.676554 -18.143101 -0.257443  0.000000 0.000000 1.000000  0.047117 0.750745 1 67 1.000000
0  -3.676554 -18.364830 -0.257443  0.000000 0.000000 1.000000  0.048686 0.750745 1 67 1.000000
0  -3.422915 -18.364830 -0.257443  0.000000 0.000000 1.000000  0.048686 0.752555 1 67 1.000000
lowpoly_metal
0  -3.747387 -18.411392 -0.309865  0.000000 -0.001956 -0.999998  0.046836 0.747420 1 67 1.000000
0  -3.747388 -18.096554 -0.310481  0.000000 -0.001956 -0.999998  0.049082 0.747420 1 67 1.000000
0  -3.352081 -18.096554 -0.310481  0.000000 -0.001956 -0.999998  0.049082 0.750240 1 67 1.000000
lowpoly_metal
0  -3.676554 -18.364830 -0.257443  0.000000 -0.747667 0.664074  0.050497 0.747925 1 67 1.000000
0  -3.747387 -18.411392 -0.309865  0.000000 -0.747667 0.664074  0.050936 0.747420 1 67 1.000000
0  -3.352081 -18.411392 -0.309865  0.000000 -0.747667 0.664074  0.050936 0.750240 1 67 1.000000
lowpoly_metal
0  -3.747388 -18.096554 -0.310481  0.000000 0.751619 0.659597  0.050926 0.753060 1 67 1.000000
0  -3.676554 -18.143101 -0.257443  0.000000 0.751619 0.659597  0.050497 0.752555 1 67 1.000000
0  -3.422915 -18.143101 -0.257443  0.000000 0.751619 0.659597  0.050497 0.750745 1 67 1.000000
lowpoly_plastic
0  -3.904856 -10.463230 -0.441218  0.000000 -1.000000 0.000000  0.055511 0.787821 1 67 1.000000
0  -3.181312 -10.463230 -0.441218  0.000000 -1.000000 0.000000  0.054724 0.787821 1 67 1.000000
0  -3.181312 -10.463230 -0.369396  0.000000 -1.000000 0.000000  0.056168 0.785652 1 67 1.000000
lowpoly_plastic
0  -3.759830 -10.174256 -0.369396  -0.204828 0.978798 0.000000  0.056305 0.787725 1 67 1.000000
0  -3.759830 -10.174256 -0.441218  -0.204828 0.978798 0.000000  0.055478 0.787821 1 67 1.000000
0  -3.904856 -10.204605 -0.441218  -0.204828 0.978798 0.000000  0.055511 0.787821 1 67 1.000000
lowpoly_plastic
0  -3.181312 -10.204605 -0.369396  0.204827 0.978798 0.000000  0.056168 0.785652 1 67 1.000000
0  -3.181312 -10.204605 -0.441218  0.204827 0.978798 0.000000  0.054724 0.787821 1 67 1.000000
0  -3.326338 -10.174256 -0.441218  0.204827 0.978798 0.000000  0.054757 0.787821 1 67 1.000000
lowpoly_plastic
0  -3.181312 -10.204605 -0.369396  1.000000 0.000002 0.000000  0.056168 0.785652 1 67 1.000000
0  -3.181312 -10.463230 -0.369396  1.000000 0.000002 0.000000  0.056168 0.785652 1 67 1.000000
0  -3.181312 -10.463230 -0.441218  1.000000 0.000002 0.000000  0.054724 0.787821 1 67 1.000000
lowpoly_plastic
0  -3.759830 -10.174256 -0.441218  0.000000 1.000000 0.000000  0.055478 0.787821 1 67 1.000000
0  -3.759830 -10.174256 -0.369396  0.000000 1.000000 0.000000  0.056305 0.787725 1 67 1.000000
0  -3.326338 -10.174256 -0.369396  0.000000 1.000000 0.000000  0.056174 0.785743 1 67 1.000000
lowpoly_plastic
0  -3.759830 -10.174256 -0.441218  0.000000 0.000000 -1.000000  0.055478 0.787821 1 67 1.000000
0  -3.326338 -10.174256 -0.441218  0.000000 0.000000 -1.000000  0.054757 0.787821 1 67 1.000000
0  -3.181312 -10.463230 -0.441218  0.000000 0.000000 -1.000000  0.054724 0.787821 1 67 1.000000
lowpoly_plastic
0  -3.326338 -10.174256 -0.441218  0.000000 0.000000 -1.000000  0.054757 0.787821 1 67 1.000000
0  -3.181312 -10.204605 -0.441218  0.000000 0.000000 -1.000000  0.054724 0.787821 1 67 1.000000
0  -3.181312 -10.463230 -0.441218  0.000000 0.000000 -1.000000  0.054724 0.787821 1 67 1.000000
lowpoly_plastic
0  -3.181312 -10.463230 -0.441218  0.000000 0.000000 -1.000000  0.054724 0.787821 1 67 1.000000
0  -3.904856 -10.463230 -0.441218  0.000000 0.000000 -1.000000  0.055511 0.787821 1 67 1.000000
0  -3.759830 -10.174256 -0.441218  0.000000 0.000000 -1.000000  0.055478 0.787821 1 67 1.000000
lowpoly_plastic
0  -3.904856 -10.204605 -0.441218  -1.000000 0.000000 0.000000  0.055511 0.787821 1 67 1.000000
0  -3.904856 -10.463230 -0.441218  -1.000000 0.000000 0.000000  0.055511 0.787821 1 67 1.000000
0  -3.904856 -10.463230 -0.369396  -1.000000 0.000000 0.000000  0.056311 0.787816 1 67 1.000000
lowpoly_plastic
0  -3.326338 -10.174256 -0.369396  0.000000 0.000000 1.000000  0.056174 0.785743 1 67 1.000000
0  -3.759830 -10.174256 -0.369396  0.000000 0.000000 1.000000  0.056305 0.787725 1 67 1.000000
0  -3.904856 -10.463230 -0.369396  0.000000 0.000000 1.000000  0.056311 0.787816 1 67 1.000000
lowpoly_plastic
0  -3.759830 -10.174256 -0.369396  0.000000 0.000000 1.000000  0.056305 0.787725 1 67 1.000000
0  -3.904856 -10.204605 -0.369396  0.000000 0.000000 1.000000  0.056311 0.787816 1 67 1.000000
0  -3.904856 -10.463230 -0.369396  0.000000 0.000000 1.000000  0.056311 0.787816 1 67 1.000000
lowpoly_plastic
0  -3.904856 -10.463230 -0.369396  0.000000 0.000000 1.000000  0.056311 0.787816 1 67 1.000000
0  -3.181312 -10.463230 -0.369396  0.000000 0.000000 1.000000  0.056168 0.785652 1 67 1.000000
0  -3.326338 -10.174256 -0.369396  0.000000 0.000000 1.000000  0.056174 0.785743 1 67 1.000000
lowpoly_plastic
0  -2.990248 -10.463230 -0.369396  0.707104 0.000000 0.707110  0.887019 0.513947 1 67 1.000000
0  -2.990248 -12.405787 -0.369396  0.707104 0.000000 0.707110  0.887019 0.511738 1 67 1.000000
0  -2.971097 -12.424937 -0.388546  0.707104 0.000000 0.707110  0.887043 0.511716 1 67 1.000000
lowpoly_plastic
0  -2.990248 -12.405787 -0.369396  0.000000 -0.707110 0.707104  0.887186 0.512994 1 67 1.000000
0  -4.094456 -12.405787 -0.369396  0.000000 -0.707110 0.707104  0.887186 0.511738 1 67 1.000000
0  -4.113606 -12.424937 -0.388546  0.000000 -0.707110 0.707104  0.887209 0.511716 1 67 1.000000
lowpoly_plastic
0  -2.971098 -10.463230 -0.441218  1.000000 0.000000 0.000000  0.887102 0.513947 1 67 1.000000
0  -2.971098 -10.463230 -0.388546  1.000000 0.000000 0.000000  0.887043 0.513947 1 67 1.000000
0  -2.971097 -12.424937 -0.388546  1.000000 0.000000 0.000000  0.887043 0.511716 1 67 1.000000
lowpoly_plastic
0  -2.971097 -12.424937 -0.441218  0.000000 -1.000000 0.000000  0.887269 0.513015 1 67 1.000000
0  -2.971097 -12.424937 -0.388546  0.000000 -1.000000 0.000000  0.887209 0.513015 1 67 1.000000
0  -4.113606 -12.424937 -0.388546  0.000000 -1.000000 0.000000  0.887209 0.511716 1 67 1.000000
lowpoly_plastic
0  -4.113606 -12.424937 -0.441218  -1.000000 0.000000 0.000000  0.887186 0.513947 1 67 1.000000
0  -4.113606 -12.424937 -0.388546  -1.000000 0.000000 0.000000  0.887127 0.513947 1 67 1.000000
0  -4.113606 -10.463230 -0.388546  -1.000000 0.000000 0.000000  0.887127 0.511716 1 67 1.000000
lowpoly_plastic
0  -4.094456 -12.405787 -0.369396  0.000000 0.000000 1.000000  0.859004 0.513925 1 67 1.000000
0  -2.990248 -12.405787 -0.369396  0.000000 0.000000 1.000000  0.857749 0.513925 1 67 1.000000
0  -2.990248 -10.463230 -0.369396  0.000000 0.000000 1.000000  0.857749 0.511716 1 67 1.000000
lowpoly_plastic
0  -4.094456 -12.405787 -0.369396  -0.707103 0.000000 0.707110  0.887102 0.513925 1 67 1.000000
0  -4.094456 -10.463230 -0.369396  -0.707103 0.000000 0.707110  0.887102 0.511716 1 67 1.000000
0  -4.113606 -10.463230 -0.388546  -0.707103 0.000000 0.707110  0.887127 0.511716 1 67 1.000000
lowpoly_plastic
0  -2.971097 -12.424937 -0.441218  0.000000 0.000000 -1.000000  0.856450 0.511716 1 67 1.000000
0  -4.113606 -12.424937 -0.441218  0.000000 0.000000 -1.000000  0.857749 0.511716 1 67 1.000000
0  -4.113606 -10.463230 -0.441218  0.000000 0.000000 -1.000000  0.857749 0.513947 1 67 1.000000
lowpoly_plastic
0  -2.971098 -10.463230 -0.441218  0.000000 1.000000 -0.000003  0.887351 0.511716 1 67 1.000000
0  -4.113606 -10.463230 -0.441218  0.000000 1.000000 -0.000003  0.887351 0.513015 1 67 1.000000
0  -4.094456 -10.463230 -0.369396  0.000000 1.000000 -0.000003  0.887269 0.512994 1 67 1.000000
lowpoly_plastic
0  -4.113606 -10.463230 -0.441218  0.000000 1.000000 0.000000  0.887351 0.513015 1 67 1.000000
0  -4.113606 -10.463230 -0.388546  0.000000 1.000000 0.000000  0.887291 0.513015 1 67 1.000000
0  -4.094456 -10.463230 -0.369396  0.000000 1.000000 0.000000  0.887269 0.512994 1 67 1.000000
lowpoly_plastic
0  -4.094456 -10.463230 -0.369396  0.000000 1.000000 -0.000017  0.887269 0.512994 1 67 1.000000
0  -2.990248 -10.463230 -0.369396  0.000000 1.000000 -0.000017  0.887269 0.511738 1 67 1.000000
0  -2.971098 -10.463230 -0.441218  0.000000 1.000000 -0.000017  0.887351 0.511716 1 67 1.000000
end
