version 1
nodes
0 "root" -1
end
skeleton
time 0
0 0 0 0 0 0 0
end
triangles
no_material
0  -0.440532 -0.314368 -5.311882  -0.575441 -0.422623 -0.700184  0.375000 0.000000 0
0  -0.440532 -0.048573 -0.117171  -0.592914 0.487478 0.640951  0.625000 0.250000 0
0  -0.440532 1.273744 -4.888507  -0.576846 0.708900 -0.405845  0.375000 0.250000 0
no_material
0  -0.440532 1.273744 -4.888507  -0.576846 0.708900 -0.405845  0.375000 0.250000 0
0  0.440532 -0.048573 -0.117171  0.592924 0.487471 0.640948  0.625000 0.500000 0
0  0.440532 1.273744 -4.888507  0.576818 0.708915 -0.405857  0.375000 0.500000 0
no_material
0  0.440532 1.273744 -4.888507  0.576818 0.708915 -0.405857  0.375000 0.500000 0
0  0.440532 -1.498698 -0.117171  0.566453 -0.644240 0.513893  0.625000 0.750000 0
0  0.440532 -0.314368 -5.311882  0.575476 -0.422615 -0.700160  0.375000 0.750000 0
no_material
0  0.440532 -0.314368 -5.311882  0.575476 -0.422615 -0.700160  0.375000 0.750000 0
0  -0.440532 -1.498698 -0.117171  -0.566470 -0.644228 0.513889  0.625000 1.000000 0
0  -0.440532 -0.314368 -5.311882  -0.575441 -0.422623 -0.700184  0.375000 1.000000 0
no_material
0  -0.440532 1.273744 -4.888507  -0.576846 0.708900 -0.405845  0.125000 0.500000 0
0  0.440532 -0.314368 -5.311882  0.575476 -0.422615 -0.700160  0.375000 0.750000 0
0  -0.440532 -0.314368 -5.311882  -0.575441 -0.422623 -0.700184  0.125000 0.750000 0
no_material
0  0.440532 -0.048573 -0.117171  0.592924 0.487471 0.640948  0.625000 0.500000 0
0  -0.440532 -1.498698 -0.117171  -0.566470 -0.644228 0.513889  0.875000 0.750000 0
0  0.440532 -1.498698 -0.117171  0.566453 -0.644240 0.513893  0.625000 0.750000 0
no_material
0  -0.440532 -0.314368 -5.311882  -0.575441 -0.422623 -0.700184  0.375000 0.000000 0
0  -0.440532 -1.498698 -0.117171  -0.566470 -0.644228 0.513889  0.625000 0.000000 0
0  -0.440532 -0.048573 -0.117171  -0.592914 0.487478 0.640951  0.625000 0.250000 0
no_material
0  -0.440532 1.273744 -4.888507  -0.576846 0.708900 -0.405845  0.375000 0.250000 0
0  -0.440532 -0.048573 -0.117171  -0.592914 0.487478 0.640951  0.625000 0.250000 0
0  0.440532 -0.048573 -0.117171  0.592924 0.487471 0.640948  0.625000 0.500000 0
no_material
0  0.440532 1.273744 -4.888507  0.576818 0.708915 -0.405857  0.375000 0.500000 0
0  0.440532 -0.048573 -0.117171  0.592924 0.487471 0.640948  0.625000 0.500000 0
0  0.440532 -1.498698 -0.117171  0.566453 -0.644240 0.513893  0.625000 0.750000 0
no_material
0  0.440532 -0.314368 -5.311882  0.575476 -0.422615 -0.700160  0.375000 0.750000 0
0  0.440532 -1.498698 -0.117171  0.566453 -0.644240 0.513893  0.625000 0.750000 0
0  -0.440532 -1.498698 -0.117171  -0.566470 -0.644228 0.513889  0.625000 1.000000 0
no_material
0  -0.440532 1.273744 -4.888507  -0.576846 0.708900 -0.405845  0.125000 0.500000 0
0  0.440532 1.273744 -4.888507  0.576818 0.708915 -0.405857  0.375000 0.500000 0
0  0.440532 -0.314368 -5.311882  0.575476 -0.422615 -0.700160  0.375000 0.750000 0
no_material
0  0.440532 -0.048573 -0.117171  0.592924 0.487471 0.640948  0.625000 0.500000 0
0  -0.440532 -0.048573 -0.117171  -0.592914 0.487478 0.640951  0.875000 0.500000 0
0  -0.440532 -1.498698 -0.117171  -0.566470 -0.644228 0.513889  0.875000 0.750000 0
end
