version 1
nodes
0 "root" -1
end
skeleton
time 0
0 0 0 0 0 0 0
end
triangles
no_material
0  -0.440532 0.059388 -6.951249  -0.572017 -0.399593 -0.716325  0.291470 -0.009196 0
0  -0.440532 -0.048573 -0.117171  -0.592902 0.487484 0.640958  0.625000 0.250000 0
0  -0.440532 1.691046 -6.394263  -0.580490 0.720085 -0.380143  0.298322 0.254400 0
no_material
0  -0.440532 1.691046 -6.394263  -0.580490 0.720085 -0.380143  0.298322 0.254400 0
0  0.440532 -0.048573 -0.117171  0.592921 0.487476 0.640947  0.625000 0.500000 0
0  0.440532 1.691046 -6.394263  0.580492 0.720078 -0.380152  0.375000 0.497666 0
no_material
0  0.440532 1.691046 -6.394263  0.580492 0.720078 -0.380152  0.375000 0.497666 0
0  0.440532 -1.498698 -0.117171  0.566448 -0.644243 0.513895  0.625000 0.750000 0
0  0.440532 0.059388 -6.951249  0.572054 -0.399593 -0.716295  0.375000 0.759301 0
no_material
0  0.440532 0.059388 -6.951249  0.572054 -0.399593 -0.716295  0.375000 0.759301 0
0  -0.440532 -1.498698 -0.117171  -0.566467 -0.644234 0.513884  0.625000 1.000000 0
0  -0.440532 0.059388 -6.951249  -0.572017 -0.399593 -0.716325  0.296104 1.000000 0
no_material
0  -0.440532 1.691046 -6.394263  -0.580490 0.720085 -0.380143  0.125000 0.497666 0
0  0.440532 0.059388 -6.951249  0.572054 -0.399593 -0.716295  0.375000 0.759301 0
0  -0.440532 0.059388 -6.951249  -0.572017 -0.399593 -0.716325  0.125000 0.759301 0
no_material
0  0.440532 -0.048573 -0.117171  0.592921 0.487476 0.640947  0.625000 0.500000 0
0  -0.440532 -1.498698 -0.117171  -0.566467 -0.644234 0.513884  0.875000 0.750000 0
0  0.440532 -1.498698 -0.117171  0.566448 -0.644243 0.513895  0.625000 0.750000 0
no_material
0  -0.440532 0.059388 -6.951249  -0.572017 -0.399593 -0.716325  0.291470 -0.009196 0
0  -0.440532 -1.498698 -0.117171  -0.566467 -0.644234 0.513884  0.625000 0.000000 0
0  -0.440532 -0.048573 -0.117171  -0.592902 0.487484 0.640958  0.625000 0.250000 0
no_material
0  -0.440532 1.691046 -6.394263  -0.580490 0.720085 -0.380143  0.298322 0.254400 0
0  -0.440532 -0.048573 -0.117171  -0.592902 0.487484 0.640958  0.625000 0.250000 0
0  0.440532 -0.048573 -0.117171  0.592921 0.487476 0.640947  0.625000 0.500000 0
no_material
0  0.440532 1.691046 -6.394263  0.580492 0.720078 -0.380152  0.375000 0.497666 0
0  0.440532 -0.048573 -0.117171  0.592921 0.487476 0.640947  0.625000 0.500000 0
0  0.440532 -1.498698 -0.117171  0.566448 -0.644243 0.513895  0.625000 0.750000 0
no_material
0  0.440532 0.059388 -6.951249  0.572054 -0.399593 -0.716295  0.375000 0.759301 0
0  0.440532 -1.498698 -0.117171  0.566448 -0.644243 0.513895  0.625000 0.750000 0
0  -0.440532 -1.498698 -0.117171  -0.566467 -0.644234 0.513884  0.625000 1.000000 0
no_material
0  -0.440532 1.691046 -6.394263  -0.580490 0.720085 -0.380143  0.125000 0.497666 0
0  0.440532 1.691046 -6.394263  0.580492 0.720078 -0.380152  0.375000 0.497666 0
0  0.440532 0.059388 -6.951249  0.572054 -0.399593 -0.716295  0.375000 0.759301 0
no_material
0  0.440532 -0.048573 -0.117171  0.592921 0.487476 0.640947  0.625000 0.500000 0
0  -0.440532 -0.048573 -0.117171  -0.592902 0.487484 0.640958  0.875000 0.500000 0
0  -0.440532 -1.498698 -0.117171  -0.566467 -0.644234 0.513884  0.875000 0.750000 0
end
