version 1
nodes
0 "root" -1
end
skeleton
time 0
0 0 0 0 0 0 0
end
triangles
no_material
0  -0.289063 0.961321 -8.468236  -0.584828 -0.435557 -0.684300  0.207597 0.058177 0
0  -0.289063 -0.048573 -0.117171  -0.594127 0.480675 0.644953  0.625000 0.250000 0
0  -0.289063 2.377901 -8.253168  -0.570398 0.693673 -0.439846  0.201422 0.259204 0
no_material
0  -0.289063 2.377901 -8.253168  -0.570398 0.693673 -0.439846  0.201422 0.259204 0
0  0.289063 -0.048573 -0.117171  0.594156 0.480678 0.644924  0.625000 0.500000 0
0  0.289063 2.377901 -8.253168  0.570364 0.693676 -0.439885  0.375655 0.493980 0
no_material
0  0.289063 2.377901 -8.253168  0.570364 0.693676 -0.439885  0.375655 0.493980 0
0  0.289063 -1.498698 -0.117171  0.563741 -0.661425 0.494686  0.625000 0.750000 0
0  0.289063 0.961321 -8.468236  0.584828 -0.435576 -0.684287  0.385253 0.693642 0
no_material
0  0.289063 0.961321 -8.468236  0.584828 -0.435576 -0.684287  0.385253 0.693642 0
0  -0.289063 -1.498698 -0.117171  -0.563760 -0.661436 0.494648  0.625000 1.000000 0
0  -0.289063 0.961321 -8.468236  -0.584828 -0.435557 -0.684300  0.218026 0.999756 0
no_material
0  -0.289063 2.377901 -8.253168  -0.570398 0.693673 -0.439846  0.124971 0.468970 0
0  0.289063 0.961321 -8.468236  0.584828 -0.435576 -0.684287  0.385253 0.693642 0
0  -0.289063 0.961321 -8.468236  -0.584828 -0.435557 -0.684300  0.125000 0.677571 0
no_material
0  0.289063 -0.048573 -0.117171  0.594156 0.480678 0.644924  0.625000 0.500000 0
0  -0.289063 -1.498698 -0.117171  -0.563760 -0.661436 0.494648  0.875000 0.750000 0
0  0.289063 -1.498698 -0.117171  0.563741 -0.661425 0.494686  0.625000 0.750000 0
no_material
0  -0.289063 0.961321 -8.468236  -0.584828 -0.435557 -0.684300  0.207597 0.058177 0
0  -0.289063 -1.498698 -0.117171  -0.563760 -0.661436 0.494648  0.625000 0.000000 0
0  -0.289063 -0.048573 -0.117171  -0.594127 0.480675 0.644953  0.625000 0.250000 0
no_material
0  -0.289063 2.377901 -8.253168  -0.570398 0.693673 -0.439846  0.201422 0.259204 0
0  -0.289063 -0.048573 -0.117171  -0.594127 0.480675 0.644953  0.625000 0.250000 0
0  0.289063 -0.048573 -0.117171  0.594156 0.480678 0.644924  0.625000 0.500000 0
no_material
0  0.289063 2.377901 -8.253168  0.570364 0.693676 -0.439885  0.375655 0.493980 0
0  0.289063 -0.048573 -0.117171  0.594156 0.480678 0.644924  0.625000 0.500000 0
0  0.289063 -1.498698 -0.117171  0.563741 -0.661425 0.494686  0.625000 0.750000 0
no_material
0  0.289063 0.961321 -8.468236  0.584828 -0.435576 -0.684287  0.385253 0.693642 0
0  0.289063 -1.498698 -0.117171  0.563741 -0.661425 0.494686  0.625000 0.750000 0
0  -0.289063 -1.498698 -0.117171  -0.563760 -0.661436 0.494648  0.625000 1.000000 0
no_material
0  -0.289063 2.377901 -8.253168  -0.570398 0.693673 -0.439846  0.124971 0.468970 0
0  0.289063 2.377901 -8.253168  0.570364 0.693676 -0.439885  0.375655 0.493980 0
0  0.289063 0.961321 -8.468236  0.584828 -0.435576 -0.684287  0.385253 0.693642 0
no_material
0  0.289063 -0.048573 -0.117171  0.594156 0.480678 0.644924  0.625000 0.500000 0
0  -0.289063 -0.048573 -0.117171  -0.594127 0.480675 0.644953  0.875000 0.500000 0
0  -0.289063 -1.498698 -0.117171  -0.563760 -0.661436 0.494648  0.875000 0.750000 0
end
