version 1
nodes
0 "ValveBiped.Bip01_Spine4" -1
1 "ValveBiped.Bip01_L_Clavicle" 0
2 "ValveBiped.Bip01_L_UpperArm" 1
3 "ValveBiped.Bip01_L_Forearm" 2
4 "ValveBiped.Bip01_L_Hand" 3
5 "ValveBiped.Bip01_L_Finger4" 4
6 "ValveBiped.Bip01_L_Finger41" 5
7 "ValveBiped.Bip01_L_Finger42" 6
8 "ValveBiped.Bip01_L_Finger3" 4
9 "ValveBiped.Bip01_L_Finger31" 8
10 "ValveBiped.Bip01_L_Finger32" 9
11 "ValveBiped.Bip01_L_Finger2" 4
12 "ValveBiped.Bip01_L_Finger21" 11
13 "ValveBiped.Bip01_L_Finger22" 12
14 "ValveBiped.Bip01_L_Finger1" 4
15 "ValveBiped.Bip01_L_Finger11" 14
16 "ValveBiped.Bip01_L_Finger12" 15
17 "ValveBiped.Bip01_L_Finger0" 4
18 "ValveBiped.Bip01_L_Finger01" 17
19 "ValveBiped.Bip01_L_Finger02" 18
20 "ValveBiped.Bip01_L_Ulna" 3
21 "ValveBiped.Bip01_L_Wrist" 3
22 "rig_l_upperarm" 1
23 "rig_l_forearm" 22
24 "rig_d_l_forearm" 23
25 "rig_d_l_upperarm" 22
26 "ValveBiped.Bip01_R_Clavicle" 0
27 "ValveBiped.Bip01_R_UpperArm" 26
28 "ValveBiped.Bip01_R_Forearm" 27
29 "ValveBiped.Bip01_R_Hand" 28
30 "ValveBiped.Bip01_R_Finger4" 29
31 "ValveBiped.Bip01_R_Finger41" 30
32 "ValveBiped.Bip01_R_Finger42" 31
33 "ValveBiped.Bip01_R_Finger3" 29
34 "ValveBiped.Bip01_R_Finger31" 33
35 "ValveBiped.Bip01_R_Finger32" 34
36 "ValveBiped.Bip01_R_Finger2" 29
37 "ValveBiped.Bip01_R_Finger21" 36
38 "ValveBiped.Bip01_R_Finger22" 37
39 "ValveBiped.Bip01_R_Finger1" 29
40 "ValveBiped.Bip01_R_Finger11" 39
41 "ValveBiped.Bip01_R_Finger12" 40
42 "ValveBiped.Bip01_R_Finger0" 29
43 "ValveBiped.Bip01_R_Finger01" 42
44 "ValveBiped.Bip01_R_Finger02" 43
45 "ValveBiped.Bip01_R_Ulna" 28
46 "ValveBiped.Bip01_R_Wrist" 28
47 "rig_r_upperarm" 26
48 "rig_r_forearm" 47
49 "rig_d_r_forearm" 48
50 "rig_d_r_upperarm" 47
51 "rig_r_hand" -1
52 "rig_d_r_hand" 51
53 "rig_d_r_wrist" 52
54 "rig_l_hand" -1
55 "rig_d_l_hand" 54
56 "rig_d_l_wrist" 54
57 "rig_l_pole" -1
58 "rig_r_pole" -1
59 "rig_l_clavicle" -1
60 "rig_d_l_clavicle" 59
61 "rig_r_clavicle" -1
62 "rig_d_r_clavicle" 61
63 "Camera" -1
64 "body" -1
65 "trigger" 64
66 "bullet1" 64
67 "slide" 64
68 "hammer" 64
69 "sliderelease" 64
70 "barrel" 64
71 "slidesg" 64
72 "grip_safety" 64
73 "safety" 64
74 "magrelease" 64
75 "sg_round" -1
76 "mag" -1
77 "bullet2" 76
78 "bullet3" 76
79 "bullet4" 78
80 "bullet5" 78
81 "bullet6" 78
82 "bullet7" 78
83 "bullet8" 78
84 "bullet9" 78
85 "bullet10" 78
86 "springstart" 76
87 "springend" 86
88 "sg_shell" -1
end
skeleton
time 0
0  0.000006 0.000000 0.000000  -1.570800 -1.391899 -1.570792
1  2.033349 1.000767 1.937657  -1.544959 -1.855077 -0.198628
2  6.027514 -0.000326 0.000201  -1.583279 0.045953 -0.585171
3  11.692119 0.000566 -0.000740  -0.000021 0.000000 -0.056690
4  11.481222 0.000172 -0.000744  1.576892 -0.106567 0.041958
5  3.859503 -0.142823 -1.192079  -0.468169 0.151546 -0.880257
6  1.312588 0.000011 0.000008  -0.000027 0.000044 -0.439740
7  0.729357 0.000056 0.000050  0.000017 0.000021 -0.244317
8  3.942138 0.046328 -0.431543  -0.151817 0.073216 -0.811086
9  1.539111 0.000085 0.000004  -0.000007 0.000021 -0.247842
10  1.196334 0.000148 0.000029  0.000011 0.000018 -0.430770
11  3.883507 -0.047213 0.431351  0.085894 0.021858 -0.587909
12  1.719572 -0.000031 0.000017  0.000015 0.005518 -0.366533
13  1.209178 0.000091 0.000012  0.000004 0.003091 -0.216438
14  3.859676 -0.138418 1.332380  0.354466 -0.042717 -0.531784
15  1.719446 -0.000019 0.000028  0.000028 0.004066 -0.363025
16  1.099675 0.000051 0.000006  0.000003 0.002578 -0.244381
17  0.806009 -0.349040 1.321248  -1.222694 -0.679188 -0.788867
18  1.789820 -0.000003 -0.000019  0.000011 -0.000024 0.228523
19  1.207014 -0.000015 -0.000042  0.000002 -0.000008 0.362856
20  5.740638 0.000389 -0.000699  0.003123 0.000003 0.000063
21  11.481261 0.000219 -0.000826  0.004954 0.000185 -0.001487
22  6.027524 -0.000330 0.000200  0.059585 -2.453119 -2.193916
23  0.000000 11.692099 -0.000007  -0.043310 -0.000838 -0.036607
24  0.000004 0.000008 0.000001  0.868996 -0.000031 1.570739
25  -0.000000 -0.000011 -0.000000  0.868960 0.000002 1.570712
26  2.033355 1.000772 -1.937609  1.473126 1.855076 -0.198632
27  6.027509 -0.000258 -0.000228  1.639675 -0.005935 -0.586606
28  11.691992 0.000194 0.000861  -0.000046 -0.000001 -0.056062
29  11.481178 0.000098 0.000827  -1.565089 0.106509 0.042007
30  3.859439 -0.132758 1.193065  0.466290 -0.158048 -0.878822
31  1.312557 0.000023 -0.000000  0.000013 -0.000043 -0.439709
32  0.729346 0.000066 -0.000027  -0.000023 -0.000019 -0.244286
33  3.942047 0.050141 0.431000  0.150091 -0.079181 -0.810189
34  1.539094 0.000005 -0.000000  0.000009 -0.000007 -0.247824
35  1.196299 0.000074 -0.000003  -0.000007 -0.000009 -0.430781
36  3.883414 -0.050470 -0.431084  -0.085915 -0.026392 -0.587660
37  1.719565 -0.000087 -0.000004  -0.000006 -0.007962 -0.366486
38  1.209198 0.000036 0.000011  0.000002 -0.004461 -0.216413
39  3.859589 -0.149081 -1.331321  -0.354445 0.038578 -0.531955
40  1.719414 -0.000098 -0.000036  -0.000030 -0.006584 -0.363030
41  1.099673 0.000026 0.000007  0.000004 -0.004188 -0.244347
42  0.805984 -0.359846 -1.318338  1.221444 0.673631 -0.793558
43  1.789779 -0.000009 -0.000044  -0.000028 0.000031 0.228553
44  1.206997 -0.000008 0.000005  -0.000017 0.000020 0.362910
45  5.740571 0.000079 0.000724  0.002082 -0.000014 0.000028
46  11.481178 0.000092 0.000935  -0.000021 -0.000087 -0.001749
47  6.027516 -0.000273 -0.000228  0.007375 -0.632954 -2.161838
48  0.000001 11.691978 -0.000006  -0.042810 0.000798 0.036188
49  0.000004 -0.000001 0.000000  2.272571 -0.000036 1.570860
50  -0.000007 -0.000014 0.000005  2.272645 -0.000036 1.570861
51  -22.676567 -0.984331 -17.554111  -1.605366 2.379717 -0.041994
52  0.000001 0.000002 -0.000000  0.008153 -0.000259 0.000009
53  -0.000000 -0.000001 0.000000  1.565115 0.043565 -0.106862
54  22.676517 -0.984221 -17.554199  1.605712 0.761853 0.042358
55  0.000001 -0.000003 -0.000000  0.000000 -0.000001 -0.000002
56  0.000032 0.000027 0.000001  -1.571901 -0.044449 -0.106509
57  15.265023 8.339654 -8.787539  1.570796 -0.000000 0.000000
58  -15.265000 8.339654 -8.787539  1.570796 -0.000000 0.000000
59  1.941978 -1.346989 1.821586  1.570796 -0.000000 0.000000
60  -0.004311 0.001230 -0.000371  0.006898 -0.005534 -0.284229
61  -1.937603 -1.346625 1.822824  1.570796 -0.000000 0.000000
62  0.000000 0.000000 0.000000  -0.078727 -3.136056 0.284226
63  0.000000 0.000000 0.000000  1.570796 -0.000000 0.000000
64  -3.534368 -10.111034 -2.851932  1.570796 -0.000000 0.000000
65  -0.008022 0.449004 2.449477  0.000000 -0.000000 0.000000
66  -0.008021 1.798499 0.936337  0.000000 -0.000000 0.000000
67  0.000000 2.151127 2.901127  0.000000 -0.000000 0.000000
68  -0.008023 1.347420 0.085285  0.000000 -0.000000 0.000000
69  0.230628 1.332312 3.105305  0.000000 -0.000000 0.000000
70  -0.008024 2.172907 7.984051  0.000000 -0.000000 0.000000
71  -0.008022 1.228065 5.810776  0.000000 -0.000000 0.000000
72  -0.008023 1.115505 -0.313082  0.000000 -0.000000 0.000000
73  -0.008023 1.345870 0.084164  1.570796 -0.000000 -0.000000
74  -0.008023 0.197514 1.902819  0.000000 -0.000000 0.000000
75  -3.542390 -12.021312 -0.689985  1.570796 -0.000000 0.000000
76  -3.534368 -10.839828 -0.901454  1.570796 -0.000000 0.000000
77  -0.008021 -0.653745 0.060182  0.000000 -0.000000 0.000000
78  -0.008021 -1.155510 -0.087180  0.000000 -0.000000 0.000000
79  0.000000 -0.501765 -0.147367  0.000000 -0.000000 0.000000
80  0.000000 -1.003531 -0.294728  0.000000 -0.000000 0.000000
81  0.000000 -1.505297 -0.442090  0.000000 -0.000000 0.000000
82  0.000000 -2.007061 -0.589454  0.000000 -0.000000 0.000000
83  0.000000 -2.508827 -0.736814  0.000000 -0.000000 0.000000
84  0.000000 -2.772560 -0.939010  0.000000 -0.000000 0.000000
85  0.000000 -3.071457 -1.220325  0.000000 -0.000000 0.000000
86  -0.283371 -4.518086 -0.534134  0.346743 -0.000000 -0.000000
87  -0.000000 4.582804 -0.219900  -0.051302 0.000000 0.000000
88  -3.542390 -12.021312 -0.689985  1.570796 -0.000000 0.000000
end
triangles
acryl
0  -3.928934 -11.102766 -1.903739  0.000000 -0.913134 0.407659  0.836011 0.826672 1 64 1.000000
0  -4.121974 -11.194360 -2.108903  0.000000 -0.913134 0.407659  0.881123 0.877657 1 64 1.000000
0  -3.928934 -11.194360 -2.108903  0.000000 -0.913134 0.407659  0.836011 0.877657 1 64 1.000000
acryl
0  -3.928935 -9.986450 -4.820624  0.000000 -0.913134 0.407659  0.836011 0.767213 1 64 1.000000
0  -4.121975 -10.078044 -5.025788  0.000000 -0.913134 0.407659  0.881123 0.818199 1 64 1.000000
0  -3.928935 -10.078044 -5.025788  0.000000 -0.913134 0.407659  0.836011 0.818199 1 64 1.000000
acryl
0  -3.928934 -11.194360 -2.108903  0.000000 0.407660 0.913134  0.912880 0.058152 1 64 1.000000
0  -4.121973 -11.399524 -2.017310  0.000000 0.407660 0.913134  0.874502 0.103265 1 64 1.000000
0  -3.928933 -11.399524 -2.017310  0.000000 0.407660 0.913134  0.874502 0.058152 1 64 1.000000
acryl
0  -4.121975 -9.986451 -4.820624  -0.587668 -0.738823 0.329830  0.881123 0.767213 1 64 1.000000
0  -4.152765 -10.066740 -5.055326  -0.587668 -0.738823 0.329830  0.888319 0.822025 1 64 1.000000
0  -4.121975 -10.078044 -5.025788  -0.587668 -0.738823 0.329830  0.881123 0.818199 1 64 1.000000
acryl
0  -4.121974 -11.194360 -2.108903  -0.470825 0.359645 0.805592  0.912880 0.103265 1 64 1.000000
0  -4.152765 -11.421229 -2.025617  -0.470825 0.359645 0.805592  0.874316 0.110460 1 64 1.000000
0  -4.121973 -11.399524 -2.017310  -0.470825 0.359645 0.805592  0.874502 0.103265 1 64 1.000000
acryl
0  -4.121974 -11.102767 -1.903739  -0.587644 -0.738840 0.329835  0.881123 0.826671 1 64 1.000000
0  -4.152765 -11.183056 -2.138441  -0.587644 -0.738840 0.329835  0.888319 0.881483 1 64 1.000000
0  -4.121974 -11.194360 -2.108903  -0.587644 -0.738840 0.329835  0.881123 0.877657 1 64 1.000000
acryl
0  -4.152765 -10.066740 -5.055326  -1.000000 0.000000 0.000000  0.187443 0.942724 1 64 1.000000
0  -4.152765 -10.407015 -5.287988  -1.000000 0.000000 0.000000  0.095475 0.970094 1 64 1.000000
0  -4.152765 -10.304914 -4.942502  -1.000000 0.000000 0.000000  0.142717 0.900562 1 64 1.000000
acryl
0  -4.152765 -9.964746 -4.812317  -1.000000 0.000004 0.000000  0.227358 0.895979 1 64 1.000000
0  -4.152765 -10.001648 -5.225407  -1.000000 0.000004 0.000000  0.189742 0.985221 1 64 1.000000
0  -4.152765 -10.066740 -5.055326  -1.000000 0.000004 0.000000  0.187443 0.942724 1 64 1.000000
acryl
0  -3.928936 -9.353840 -4.904105  0.004031 0.686314 -0.727294  0.880224 0.881546 1 64 1.000000
0  -4.118128 -9.522841 -5.064637  0.004031 0.686314 -0.727294  0.836011 0.926391 1 64 1.000000
0  -4.046166 -9.353513 -4.904446  0.004031 0.686314 -0.727294  0.852828 0.881483 1 64 1.000000
acryl
0  -3.928935 -11.880377 -1.438156  0.000043 -0.119061 0.992887  0.822008 0.417383 1 64 1.000000
0  -4.092677 -12.063569 -1.460116  0.000043 -0.119061 0.992887  0.860273 0.447722 1 64 1.000000
0  -3.928934 -12.063676 -1.460136  0.000043 -0.119061 0.992887  0.822008 0.447741 1 64 1.000000
acryl
0  -4.152765 -11.319235 -1.782609  -1.000000 0.000003 0.000000  0.143198 0.125006 1 64 1.000000
0  -4.152765 -11.421229 -2.025617  -1.000000 0.000003 0.000000  0.103282 0.171751 1 64 1.000000
0  -4.152765 -11.880377 -1.438156  -1.000000 0.000003 0.000000  0.043427 0.008178 1 64 1.000000
acryl
0  -3.928936 -11.020741 -1.423508  0.005757 0.001913 0.999982  0.822008 0.291324 1 64 1.000000
0  -4.152765 -11.467370 -1.421365  0.005757 0.001913 0.999982  0.874316 0.355020 1 64 1.000000
0  -3.928935 -11.471923 -1.422645  0.005757 0.001913 0.999982  0.822008 0.355909 1 64 1.000000
acryl
0  -3.928936 -10.799206 -1.488532  0.002136 0.920942 0.389693  0.746208 0.000000 1 64 1.000000
0  -4.046166 -9.353513 -4.904446  0.002136 0.920942 0.389693  0.718689 0.866828 1 64 1.000000
0  -4.089231 -10.798882 -1.488420  0.002136 0.920942 0.389693  0.708747 0.000000 1 64 1.000000
acryl
0  -3.928936 -10.799206 -1.488532  -0.051062 0.281268 0.958270  0.870128 0.639546 1 64 1.000000
0  -4.152765 -11.023043 -1.434760  -0.051062 0.281268 0.958270  0.836011 0.690458 1 64 1.000000
0  -3.928936 -11.020741 -1.423508  -0.051062 0.281268 0.958270  0.836011 0.638103 1 64 1.000000
acryl
0  -3.928936 -9.522785 -5.064105  0.001475 0.794292 -0.607534  0.758179 0.919136 1 64 1.000000
0  -4.152765 -9.596815 -5.161433  0.001475 0.794292 -0.607534  0.743961 0.866828 1 64 1.000000
0  -4.118128 -9.522841 -5.064637  0.001475 0.794292 -0.607534  0.758070 0.874923 1 64 1.000000
acryl
0  -4.152765 -11.421229 -2.025617  -1.000000 0.000000 0.000000  0.103282 0.171751 1 64 1.000000
0  -4.152765 -11.183056 -2.138441  -1.000000 0.000000 0.000000  0.148008 0.213914 1 64 1.000000
0  -4.152765 -10.202919 -4.699494  -1.000000 0.000000 0.000000  0.182632 0.853817 1 64 1.000000
acryl
0  -4.152765 -10.202919 -4.699494  -1.000000 0.000000 0.000000  0.182632 0.853817 1 64 1.000000
0  -4.152765 -11.081061 -1.895432  -1.000000 0.000000 0.000000  0.187923 0.167169 1 64 1.000000
0  -4.152765 -9.964746 -4.812317  -1.000000 0.000000 0.000000  0.227358 0.895979 1 64 1.000000
acryl
0  -4.152765 -10.304914 -4.942502  -1.000000 0.000000 0.000000  0.142717 0.900562 1 64 1.000000
0  -4.152765 -10.407015 -5.287988  -1.000000 0.000000 0.000000  0.095475 0.970094 1 64 1.000000
0  -4.152765 -11.880377 -1.438156  -1.000000 0.000000 0.000000  0.043427 0.008178 1 64 1.000000
acryl
0  -4.152765 -11.319235 -1.782609  -1.000000 0.000000 0.000000  0.143198 0.125006 1 64 1.000000
0  -4.152765 -11.880377 -1.438156  -1.000000 0.000000 0.000000  0.043427 0.008178 1 64 1.000000
0  -4.152765 -11.467370 -1.421365  -1.000000 0.000000 0.000000  0.136124 0.034038 1 64 1.000000
acryl
0  -4.152765 -11.081061 -1.895432  -1.000000 0.000000 0.000000  0.187923 0.167169 1 64 1.000000
0  -4.152765 -11.319235 -1.782609  -1.000000 0.000000 0.000000  0.143198 0.125006 1 64 1.000000
0  -4.152765 -11.467370 -1.421365  -1.000000 0.000000 0.000000  0.136124 0.034038 1 64 1.000000
acryl
0  -4.152765 -9.964746 -4.812317  -1.000000 -0.000002 0.000000  0.227358 0.895979 1 64 1.000000
0  -4.152765 -11.023043 -1.434760  -1.000000 -0.000002 0.000000  0.233608 0.068857 1 64 1.000000
0  -4.152765 -9.596815 -5.161433  -1.000000 -0.000002 0.000000  0.283991 1.000000 1 64 1.000000
acryl
0  -4.152765 -11.467370 -1.421365  -1.000000 0.000000 0.000000  0.136124 0.034038 1 64 1.000000
0  -4.152765 -11.023043 -1.434760  -1.000000 0.000000 0.000000  0.233608 0.068857 1 64 1.000000
0  -4.152765 -11.081061 -1.895432  -1.000000 0.000000 0.000000  0.187923 0.167169 1 64 1.000000
acryl
0  -3.928936 -9.529102 -5.296405  -0.536412 0.128765 -0.834075  0.874316 -0.000000 1 64 1.000000
0  -4.152765 -10.407015 -5.287988  -0.536412 0.128765 -0.834075  0.822008 0.202366 1 64 1.000000
0  -4.152765 -10.001648 -5.225407  -0.536412 0.128765 -0.834075  0.822008 0.106512 1 64 1.000000
acryl
0  -3.928935 -11.880377 -1.438156  0.000000 -0.040621 0.999175  0.822008 0.417383 1 64 1.000000
0  -4.152765 -11.467370 -1.421365  0.000000 -0.040621 0.999175  0.874316 0.355020 1 64 1.000000
0  -4.152765 -11.880377 -1.438156  0.000000 -0.040621 0.999175  0.874316 0.417384 1 64 1.000000
acryl
0  -3.155846 -11.102766 -1.903739  -0.000001 -0.913135 0.407658  0.835976 0.826672 1 64 1.000000
0  -2.962806 -11.194359 -2.108903  -0.000001 -0.913135 0.407658  0.790864 0.877657 1 64 1.000000
0  -2.962806 -11.102766 -1.903739  -0.000001 -0.913135 0.407658  0.790864 0.826672 1 64 1.000000
acryl
0  -3.155847 -9.986450 -4.820624  0.000000 -0.913134 0.407659  0.874316 0.452388 1 64 1.000000
0  -2.962807 -10.078043 -5.025788  0.000000 -0.913134 0.407659  0.829204 0.503373 1 64 1.000000
0  -2.962807 -9.986450 -4.820624  0.000000 -0.913134 0.407659  0.829204 0.452388 1 64 1.000000
acryl
0  -3.155846 -11.194360 -2.108903  -0.000001 0.407656 0.913136  0.912880 0.052309 1 64 1.000000
0  -2.962806 -11.399523 -2.017310  -0.000001 0.407656 0.913136  0.874502 0.007196 1 64 1.000000
0  -2.962806 -11.194359 -2.108903  -0.000001 0.407656 0.913136  0.912880 0.007196 1 64 1.000000
acryl
0  -2.962807 -9.986450 -4.820624  0.478923 -0.809450 0.339740  0.829204 0.452388 1 64 1.000000
0  -2.932014 -10.066739 -5.055326  0.478923 -0.809450 0.339740  0.822008 0.507199 1 64 1.000000
0  -2.932014 -9.964745 -4.812317  0.478923 -0.809450 0.339740  0.822008 0.447741 1 64 1.000000
acryl
0  -2.962806 -11.194359 -2.108903  0.578770 0.349113 0.736984  0.912880 0.007196 1 64 1.000000
0  -2.932014 -11.421228 -2.025617  0.578770 0.349113 0.736984  0.874316 0.000000 1 64 1.000000
0  -2.932014 -11.183054 -2.138441  0.578770 0.349113 0.736984  0.920267 0.000000 1 64 1.000000
acryl
0  -2.962806 -11.102766 -1.903739  0.478928 -0.809450 0.339733  0.790864 0.826672 1 64 1.000000
0  -2.932014 -11.183054 -2.138441  0.478928 -0.809450 0.339733  0.783668 0.881483 1 64 1.000000
0  -2.932014 -11.081060 -1.895432  0.478928 -0.809450 0.339733  0.783668 0.822025 1 64 1.000000
acryl
0  -3.060846 -10.760530 -5.490284  0.954595 -0.278499 -0.105772  0.708747 0.956939 1 64 1.000000
0  -2.932014 -11.822578 -1.531188  0.954595 -0.278499 -0.105772  0.662573 -0.000000 1 64 1.000000
0  -3.009521 -11.703060 -2.545386  0.954595 -0.278499 -0.105772  0.708747 0.234315 1 64 1.000000
acryl
0  -2.932014 -10.066739 -5.055326  1.000000 0.000341 0.000131  0.522324 0.909375 1 64 1.000000
0  -2.931867 -10.403578 -5.295014  1.000000 0.000341 0.000131  0.614277 0.938781 1 64 1.000000
0  -2.932014 -9.998863 -5.232681  1.000000 0.000341 0.000131  0.519824 0.953684 1 64 1.000000
acryl
0  -2.932014 -9.964745 -4.812317  1.000000 0.000000 0.000000  0.482375 0.862531 1 64 1.000000
0  -2.932014 -9.998863 -5.232681  1.000000 0.000000 0.000000  0.519824 0.953684 1 64 1.000000
0  -2.932014 -9.592176 -5.168013  1.000000 0.000000 0.000000  0.424765 0.968207 1 64 1.000000
acryl
0  -3.155847 -9.353840 -4.904105  -0.001978 0.687621 -0.726068  0.794954 0.881546 1 64 1.000000
0  -2.980161 -9.522840 -5.064637  -0.001978 0.687621 -0.726068  0.836011 0.926391 1 64 1.000000
0  -3.155847 -9.522785 -5.064105  -0.001978 0.687621 -0.726068  0.794954 0.926359 1 64 1.000000
acryl
0  -2.932014 -11.319234 -1.782609  1.000000 0.000000 0.000000  0.568466 0.091762 1 64 1.000000
0  -2.932014 -11.822578 -1.531188  1.000000 0.000000 0.000000  0.662573 -0.000000 1 64 1.000000
0  -2.932014 -11.421228 -2.025617  1.000000 0.000000 0.000000  0.608415 0.138606 1 64 1.000000
acryl
0  -3.155845 -10.885913 -1.534945  -0.007886 -0.002509 0.999966  0.927019 0.110460 1 64 1.000000
0  -2.932014 -11.409997 -1.534495  -0.007886 -0.002509 0.999966  0.874489 0.185428 1 64 1.000000
0  -2.932014 -10.924675 -1.533278  -0.007886 -0.002509 0.999966  0.874695 0.115560 1 64 1.000000
acryl
0  -3.155845 -10.760690 -1.569869  -0.001448 0.921342 0.388750  0.746208 -0.000000 1 64 1.000000
0  -3.038617 -9.353512 -4.904446  -0.001448 0.921342 0.388750  0.773725 0.845816 1 64 1.000000
0  -3.155847 -9.353840 -4.904105  -0.001448 0.921342 0.388750  0.746329 0.845716 1 64 1.000000
acryl
0  -3.155845 -10.760690 -1.569869  -0.001124 0.216325 0.976321  0.780888 0.899668 1 64 1.000000
0  -2.932014 -10.924675 -1.533278  -0.001124 0.216325 0.976321  0.762032 0.845816 1 64 1.000000
0  -2.995549 -10.760365 -1.569757  -0.001124 0.216325 0.976321  0.783668 0.862311 1 64 1.000000
acryl
0  -3.155847 -9.522785 -5.064105  0.284952 0.958188 -0.026054  0.885442 0.710257 1 64 1.000000
0  -2.932014 -9.592176 -5.168013  0.284952 0.958188 -0.026054  0.869386 0.762566 1 64 1.000000
0  -3.155847 -9.529102 -5.296405  0.284952 0.958188 -0.026054  0.836011 0.710257 1 64 1.000000
acryl
0  -3.158133 -11.986739 -1.659067  -0.019437 -0.952085 -0.305216  0.822008 0.000000 1 64 1.000000
0  -3.155846 -10.758736 -5.489833  -0.019437 -0.952085 -0.305216  0.821474 0.530360 1 64 1.000000
0  -3.060846 -10.760530 -5.490284  -0.019437 -0.952085 -0.305216  0.799273 0.530701 1 64 1.000000
acryl
0  -2.932014 -10.202919 -4.699494  1.000000 -0.000001 0.000000  0.527341 0.820479 1 64 1.000000
0  -2.932014 -11.183054 -2.138441  1.000000 -0.000001 0.000000  0.563449 0.180658 1 64 1.000000
0  -2.932014 -11.421228 -2.025617  1.000000 -0.000001 0.000000  0.608415 0.138606 1 64 1.000000
acryl
0  -2.932014 -10.202919 -4.699494  1.000000 -0.000002 0.000000  0.527341 0.820479 1 64 1.000000
0  -2.932014 -11.081060 -1.895432  1.000000 -0.000002 0.000000  0.523499 0.133814 1 64 1.000000
0  -2.932014 -11.183054 -2.138441  1.000000 -0.000002 0.000000  0.563449 0.180658 1 64 1.000000
acryl
0  -2.932014 -10.304913 -4.942502  1.000000 0.000573 0.000255  0.567291 0.867323 1 64 1.000000
0  -2.932014 -11.822578 -1.531188  1.000000 0.000573 0.000255  0.662573 -0.000000 1 64 1.000000
0  -2.931867 -10.403578 -5.295014  1.000000 0.000573 0.000255  0.614277 0.938781 1 64 1.000000
acryl
0  -2.932014 -11.319234 -1.782609  1.000000 0.000001 0.000000  0.568466 0.091762 1 64 1.000000
0  -2.932014 -11.409997 -1.534495  1.000000 0.000001 0.000000  0.571031 0.030075 1 64 1.000000
0  -2.932014 -11.822578 -1.531188  1.000000 0.000001 0.000000  0.662573 -0.000000 1 64 1.000000
acryl
0  -2.932014 -11.081060 -1.895432  1.000000 -0.000002 0.000000  0.523499 0.133814 1 64 1.000000
0  -2.932014 -11.409997 -1.534495  1.000000 -0.000002 0.000000  0.571031 0.030075 1 64 1.000000
0  -2.932014 -11.319234 -1.782609  1.000000 -0.000002 0.000000  0.568466 0.091762 1 64 1.000000
acryl
0  -2.932014 -9.964745 -4.812317  1.000000 0.000000 0.000000  0.482375 0.862531 1 64 1.000000
0  -2.932014 -10.924675 -1.533278  1.000000 0.000000 0.000000  0.462988 0.064314 1 64 1.000000
0  -2.932014 -11.081060 -1.895432  1.000000 0.000000 0.000000  0.523499 0.133814 1 64 1.000000
acryl
0  -2.932014 -11.409997 -1.534495  1.000000 0.000000 0.000000  0.571031 0.030075 1 64 1.000000
0  -2.932014 -11.081060 -1.895432  1.000000 0.000000 0.000000  0.523499 0.133814 1 64 1.000000
0  -2.932014 -10.924675 -1.533278  1.000000 0.000000 0.000000  0.462988 0.064314 1 64 1.000000
acryl
0  -3.060846 -10.760530 -5.490284  0.952386 -0.285306 -0.107526  0.708747 0.956939 1 64 1.000000
0  -2.931867 -10.403578 -5.295014  0.952386 -0.285306 -0.107526  0.614277 0.938781 1 64 1.000000
0  -2.932014 -11.822578 -1.531188  0.952386 -0.285306 -0.107526  0.662573 -0.000000 1 64 1.000000
acryl
0  -2.932014 -11.409997 -1.534495  0.000000 0.008016 0.999968  0.874489 0.185428 1 64 1.000000
0  -3.155844 -11.822578 -1.531188  0.000000 0.008016 0.999968  0.926624 0.244178 1 64 1.000000
0  -2.932014 -11.822578 -1.531188  0.000000 0.008016 0.999968  0.874316 0.244023 1 64 1.000000
acryl
0  -2.932014 -11.822578 -1.531188  0.000061 -0.614594 0.788844  0.874316 0.244023 1 64 1.000000
0  -3.158133 -11.986739 -1.659067  0.000061 -0.614594 0.788844  0.927019 0.291324 1 64 1.000000
0  -2.994074 -11.986729 -1.659071  0.000061 -0.614594 0.788844  0.888679 0.291209 1 64 1.000000
acryl
0  -2.980161 -9.522840 -5.064637  0.964815 0.246485 0.091528  0.402446 0.950151 1 64 1.000000
0  -3.038617 -9.353512 -4.904446  0.964815 0.246485 0.091528  0.353944 0.926563 1 64 1.000000
0  -2.995549 -10.760365 -1.569757  0.964815 0.246485 0.091528  0.429619 0.084154 1 64 1.000000
acryl
0  -4.089231 -10.798882 -1.488420  -0.948468 0.295940 0.113258  0.278096 0.096924 1 64 1.000000
0  -4.046166 -9.353513 -4.904446  -0.948468 0.295940 0.113258  0.353944 0.960386 1 64 1.000000
0  -4.118128 -9.522841 -5.064637  -0.948468 0.295940 0.113258  0.306542 0.983807 1 64 1.000000
acryl
0  -3.928936 -9.529102 -5.296405  0.001762 0.155395 -0.987851  0.874316 -0.000000 1 64 1.000000
0  -3.928934 -10.758736 -5.489833  0.001762 0.155395 -0.987851  0.874316 0.290893 1 64 1.000000
0  -4.023934 -10.760531 -5.490284  0.001762 0.155395 -0.987851  0.852115 0.291324 1 64 1.000000
acryl
0  -3.155847 -9.529102 -5.296405  -0.001761 0.155394 -0.987851  0.783668 0.530701 1 64 1.000000
0  -3.060846 -10.760530 -5.490284  -0.001761 0.155394 -0.987851  0.805869 0.822025 1 64 1.000000
0  -3.155846 -10.758736 -5.489833  -0.001761 0.155394 -0.987851  0.783668 0.821594 1 64 1.000000
acryl
0  -3.155847 -9.529102 -5.296405  0.521219 0.134019 -0.842834  0.783668 0.530701 1 64 1.000000
0  -2.932014 -9.592176 -5.168013  0.521219 0.134019 -0.842834  0.835977 0.540600 1 64 1.000000
0  -2.932014 -9.998863 -5.232681  0.521219 0.134019 -0.842834  0.835976 0.636834 1 64 1.000000
acryl
0  -3.009521 -11.703060 -2.545386  0.954594 -0.278501 -0.105772  0.708747 0.234315 1 64 1.000000
0  -2.932014 -11.822578 -1.531188  0.954594 -0.278501 -0.105772  0.662573 -0.000000 1 64 1.000000
0  -2.994074 -11.986729 -1.659071  0.954594 -0.278501 -0.105772  0.708747 0.016830 1 64 1.000000
acryl
0  -3.060846 -10.760530 -5.490284  0.000053 -0.952409 -0.304824  0.799273 0.530701 1 64 1.000000
0  -2.994074 -11.986729 -1.659071  0.000053 -0.952409 -0.304824  0.783668 0.000000 1 64 1.000000
0  -3.158133 -11.986739 -1.659067  0.000053 -0.952409 -0.304824  0.822008 0.000000 1 64 1.000000
acryl
0  -3.928934 -11.996403 -1.667877  0.002521 -0.951358 -0.308077  0.836011 0.530702 1 64 1.000000
0  -4.075863 -11.744855 -2.445867  0.002521 -0.951358 -0.308077  0.870347 0.638103 1 64 1.000000
0  -3.928934 -11.744496 -2.445772  0.002521 -0.951358 -0.308077  0.836011 0.638035 1 64 1.000000
acryl
0  -3.928934 -10.758736 -5.489833  0.019444 -0.951420 -0.307282  0.875312 0.686217 1 64 1.000000
0  -4.072757 -11.685983 -2.627953  0.019444 -0.951420 -0.307282  0.907927 0.291324 1 64 1.000000
0  -4.023934 -10.760531 -5.490284  0.019444 -0.951420 -0.307282  0.897514 0.686501 1 64 1.000000
acryl
0  -3.928934 -11.658732 -2.513198  0.000000 -0.615915 -0.787813  0.905756 0.840107 1 64 1.000000
0  -4.075863 -11.744855 -2.445867  0.000000 -0.615915 -0.787813  0.888319 0.805771 1 64 1.000000
0  -4.094836 -11.658732 -2.513198  0.000000 -0.615915 -0.787813  0.905756 0.801337 1 64 1.000000
acryl
0  -3.928934 -11.658732 -2.513198  0.002824 -0.973728 0.227696  0.888319 0.801337 1 64 1.000000
0  -4.072757 -11.685983 -2.627953  0.002824 -0.973728 0.227696  0.913395 0.767726 1 64 1.000000
0  -3.928934 -11.685538 -2.627836  0.002824 -0.973728 0.227696  0.913310 0.801337 1 64 1.000000
acryl
0  -4.092677 -12.063569 -1.460116  -0.000658 -0.951358 -0.308085  0.885443 0.710257 1 64 1.000000
0  -3.928934 -11.996403 -1.667877  -0.000658 -0.951358 -0.308085  0.914125 0.748524 1 64 1.000000
0  -3.928934 -12.063676 -1.460136  -0.000658 -0.951358 -0.308085  0.885461 0.748523 1 64 1.000000
acryl
0  -4.072757 -11.685983 -2.627953  -0.949132 -0.293980 -0.112801  0.000000 0.286846 1 64 1.000000
0  -4.094836 -11.658732 -2.513198  -0.949132 -0.293980 -0.112801  0.014685 0.263250 1 64 1.000000
0  -4.152765 -10.407015 -5.287988  -0.949132 -0.293980 -0.112801  0.095475 0.970094 1 64 1.000000
acryl
0  -4.094836 -11.658732 -2.513198  -0.948349 -0.296694 -0.112276  0.014685 0.263250 1 64 1.000000
0  -4.075863 -11.744855 -2.445867  -0.948349 -0.296694 -0.112276  0.000000 0.242122 1 64 1.000000
0  -4.152765 -11.880377 -1.438156  -0.948349 -0.296694 -0.112276  0.043427 0.008178 1 64 1.000000
acryl
0  -4.089133 -11.996394 -1.667881  -0.948084 -0.297508 -0.112362  0.000000 0.051032 1 64 1.000000
0  -4.152765 -11.880377 -1.438156  -0.948084 -0.297508 -0.112362  0.043427 0.008178 1 64 1.000000
0  -4.075863 -11.744855 -2.445867  -0.948084 -0.297508 -0.112362  0.000000 0.242122 1 64 1.000000
acryl
0  -4.152765 -11.880377 -1.438156  -0.948084 -0.297509 -0.112364  0.043427 0.008178 1 64 1.000000
0  -4.089133 -11.996394 -1.667881  -0.948084 -0.297509 -0.112364  0.000000 0.051032 1 64 1.000000
0  -4.092677 -12.063569 -1.460116  -0.948084 -0.297509 -0.112364  0.000000 0.000000 1 64 1.000000
acryl
0  -3.928934 -11.102766 -1.903739  0.000004 -0.913131 0.407667  0.836011 0.826672 1 64 1.000000
0  -4.121974 -11.102767 -1.903739  0.000004 -0.913131 0.407667  0.881123 0.826671 1 64 1.000000
0  -4.121974 -11.194360 -2.108903  0.000004 -0.913131 0.407667  0.881123 0.877657 1 64 1.000000
acryl
0  -3.928935 -9.986450 -4.820624  0.000005 -0.913131 0.407667  0.836011 0.767213 1 64 1.000000
0  -4.121975 -9.986451 -4.820624  0.000005 -0.913131 0.407667  0.881123 0.767213 1 64 1.000000
0  -4.121975 -10.078044 -5.025788  0.000005 -0.913131 0.407667  0.881123 0.818199 1 64 1.000000
acryl
0  -3.928934 -11.194360 -2.108903  0.000000 0.407655 0.913136  0.912880 0.058152 1 64 1.000000
0  -4.121974 -11.194360 -2.108903  0.000000 0.407655 0.913136  0.912880 0.103265 1 64 1.000000
0  -4.121973 -11.399524 -2.017310  0.000000 0.407655 0.913136  0.874502 0.103265 1 64 1.000000
acryl
0  -4.121975 -9.986451 -4.820624  -0.478957 -0.809430 0.339739  0.881123 0.767213 1 64 1.000000
0  -4.152765 -9.964746 -4.812317  -0.478957 -0.809430 0.339739  0.888319 0.762566 1 64 1.000000
0  -4.152765 -10.066740 -5.055326  -0.478957 -0.809430 0.339739  0.888319 0.822025 1 64 1.000000
acryl
0  -4.121974 -11.194360 -2.108903  -0.578786 0.349113 0.736972  0.912880 0.103265 1 64 1.000000
0  -4.152765 -11.183056 -2.138441  -0.578786 0.349113 0.736972  0.920267 0.110460 1 64 1.000000
0  -4.152765 -11.421229 -2.025617  -0.578786 0.349113 0.736972  0.874316 0.110460 1 64 1.000000
acryl
0  -4.121974 -11.102767 -1.903739  -0.478930 -0.809447 0.339737  0.881123 0.826671 1 64 1.000000
0  -4.152765 -11.081061 -1.895432  -0.478930 -0.809447 0.339737  0.888319 0.822025 1 64 1.000000
0  -4.152765 -11.183056 -2.138441  -0.478930 -0.809447 0.339737  0.888319 0.881483 1 64 1.000000
acryl
0  -4.152765 -10.066740 -5.055326  -1.000000 0.000000 0.000000  0.187443 0.942724 1 64 1.000000
0  -4.152765 -10.001648 -5.225407  -1.000000 0.000000 0.000000  0.189742 0.985221 1 64 1.000000
0  -4.152765 -10.407015 -5.287988  -1.000000 0.000000 0.000000  0.095475 0.970094 1 64 1.000000
acryl
0  -4.152765 -9.964746 -4.812317  -1.000000 0.000000 0.000000  0.227358 0.895979 1 64 1.000000
0  -4.152765 -9.596815 -5.161433  -1.000000 0.000000 0.000000  0.283991 1.000000 1 64 1.000000
0  -4.152765 -10.001648 -5.225407  -1.000000 0.000000 0.000000  0.189742 0.985221 1 64 1.000000
acryl
0  -3.928936 -9.353840 -4.904105  0.001834 0.687625 -0.726064  0.880224 0.881546 1 64 1.000000
0  -3.928936 -9.522785 -5.064105  0.001834 0.687625 -0.726064  0.880224 0.926359 1 64 1.000000
0  -4.118128 -9.522841 -5.064637  0.001834 0.687625 -0.726064  0.836011 0.926391 1 64 1.000000
acryl
0  -3.928935 -11.880377 -1.438156  0.000000 -0.119023 0.992892  0.822008 0.417383 1 64 1.000000
0  -4.152765 -11.880377 -1.438156  0.000000 -0.119023 0.992892  0.874316 0.417384 1 64 1.000000
0  -4.092677 -12.063569 -1.460116  0.000000 -0.119023 0.992892  0.860273 0.447722 1 64 1.000000
acryl
0  -3.928936 -11.020741 -1.423508  -0.050489 0.030094 0.998271  0.822008 0.291324 1 64 1.000000
0  -4.152765 -11.023043 -1.434760  -0.050489 0.030094 0.998271  0.874315 0.293730 1 64 1.000000
0  -4.152765 -11.467370 -1.421365  -0.050489 0.030094 0.998271  0.874316 0.355020 1 64 1.000000
acryl
0  -3.928936 -10.799206 -1.488532  0.001435 0.920936 0.389711  0.746208 0.000000 1 64 1.000000
0  -3.928936 -9.353840 -4.904105  0.001435 0.920936 0.389711  0.746085 0.866729 1 64 1.000000
0  -4.046166 -9.353513 -4.904446  0.001435 0.920936 0.389711  0.718689 0.866828 1 64 1.000000
acryl
0  -3.928936 -10.799206 -1.488532  0.001153 0.232497 0.972596  0.870128 0.639546 1 64 1.000000
0  -4.089231 -10.798882 -1.488420  0.001153 0.232497 0.972596  0.868550 0.676973 1 64 1.000000
0  -4.152765 -11.023043 -1.434760  0.001153 0.232497 0.972596  0.836011 0.690458 1 64 1.000000
acryl
0  -3.928936 -9.522785 -5.064105  -0.303737 0.952404 -0.025897  0.758179 0.919136 1 64 1.000000
0  -3.928936 -9.529102 -5.296405  -0.303737 0.952404 -0.025897  0.708747 0.919136 1 64 1.000000
0  -4.152765 -9.596815 -5.161433  -0.303737 0.952404 -0.025897  0.743961 0.866828 1 64 1.000000
acryl
0  -4.152765 -10.202919 -4.699494  -1.000000 -0.000003 0.000000  0.182632 0.853817 1 64 1.000000
0  -4.152765 -10.304914 -4.942502  -1.000000 -0.000003 0.000000  0.142717 0.900562 1 64 1.000000
0  -4.152765 -11.421229 -2.025617  -1.000000 -0.000003 0.000000  0.103282 0.171751 1 64 1.000000
acryl
0  -4.152765 -10.304914 -4.942502  -1.000000 -0.000001 0.000000  0.142717 0.900562 1 64 1.000000
0  -4.152765 -11.880377 -1.438156  -1.000000 -0.000001 0.000000  0.043427 0.008178 1 64 1.000000
0  -4.152765 -11.421229 -2.025617  -1.000000 -0.000001 0.000000  0.103282 0.171751 1 64 1.000000
acryl
0  -4.152765 -10.202919 -4.699494  -1.000000 0.000002 0.000000  0.182632 0.853817 1 64 1.000000
0  -4.152765 -11.183056 -2.138441  -1.000000 0.000002 0.000000  0.148008 0.213914 1 64 1.000000
0  -4.152765 -11.081061 -1.895432  -1.000000 0.000002 0.000000  0.187923 0.167169 1 64 1.000000
acryl
0  -4.152765 -9.964746 -4.812317  -1.000000 0.000001 0.000000  0.227358 0.895979 1 64 1.000000
0  -4.152765 -11.081061 -1.895432  -1.000000 0.000001 0.000000  0.187923 0.167169 1 64 1.000000
0  -4.152765 -11.023043 -1.434760  -1.000000 0.000001 0.000000  0.233608 0.068857 1 64 1.000000
acryl
0  -4.152765 -10.001648 -5.225407  -0.540747 0.131300 -0.830875  0.822008 0.106512 1 64 1.000000
0  -4.152765 -9.596815 -5.161433  -0.540747 0.131300 -0.830875  0.822008 0.010730 1 64 1.000000
0  -3.928936 -9.529102 -5.296405  -0.540747 0.131300 -0.830875  0.874316 -0.000000 1 64 1.000000
acryl
0  -3.928936 -9.529102 -5.296405  -0.675250 0.165267 -0.718835  0.874316 -0.000000 1 64 1.000000
0  -4.023934 -10.760531 -5.490284  -0.675250 0.165267 -0.718835  0.852115 0.291324 1 64 1.000000
0  -4.152765 -10.407015 -5.287988  -0.675250 0.165267 -0.718835  0.822008 0.202366 1 64 1.000000
acryl
0  -3.928935 -11.880377 -1.438156  0.004943 -0.037946 0.999268  0.822008 0.417383 1 64 1.000000
0  -3.928935 -11.471923 -1.422645  0.004943 -0.037946 0.999268  0.822008 0.355909 1 64 1.000000
0  -4.152765 -11.467370 -1.421365  0.004943 -0.037946 0.999268  0.874316 0.355020 1 64 1.000000
acryl
0  -3.155846 -11.102766 -1.903739  0.000005 -0.913134 0.407659  0.835976 0.826672 1 64 1.000000
0  -3.155846 -11.194360 -2.108903  0.000005 -0.913134 0.407659  0.835976 0.877657 1 64 1.000000
0  -2.962806 -11.194359 -2.108903  0.000005 -0.913134 0.407659  0.790864 0.877657 1 64 1.000000
acryl
0  -3.155847 -9.986450 -4.820624  0.000004 -0.913134 0.407659  0.874316 0.452388 1 64 1.000000
0  -3.155847 -10.078044 -5.025788  0.000004 -0.913134 0.407659  0.874316 0.503373 1 64 1.000000
0  -2.962807 -10.078043 -5.025788  0.000004 -0.913134 0.407659  0.829204 0.503373 1 64 1.000000
acryl
0  -3.155846 -11.194360 -2.108903  -0.000002 0.407660 0.913134  0.912880 0.052309 1 64 1.000000
0  -3.155846 -11.399524 -2.017310  -0.000002 0.407660 0.913134  0.874502 0.052309 1 64 1.000000
0  -2.962806 -11.399523 -2.017310  -0.000002 0.407660 0.913134  0.874502 0.007196 1 64 1.000000
acryl
0  -2.962807 -9.986450 -4.820624  0.587618 -0.738853 0.329850  0.829204 0.452388 1 64 1.000000
0  -2.962807 -10.078043 -5.025788  0.587618 -0.738853 0.329850  0.829204 0.503373 1 64 1.000000
0  -2.932014 -10.066739 -5.055326  0.587618 -0.738853 0.329850  0.822008 0.507199 1 64 1.000000
acryl
0  -2.962806 -11.194359 -2.108903  0.470822 0.359643 0.805595  0.912880 0.007196 1 64 1.000000
0  -2.962806 -11.399523 -2.017310  0.470822 0.359643 0.805595  0.874502 0.007196 1 64 1.000000
0  -2.932014 -11.421228 -2.025617  0.470822 0.359643 0.805595  0.874316 0.000000 1 64 1.000000
acryl
0  -2.962806 -11.102766 -1.903739  0.587641 -0.738839 0.329841  0.790864 0.826672 1 64 1.000000
0  -2.962806 -11.194359 -2.108903  0.587641 -0.738839 0.329841  0.790864 0.877657 1 64 1.000000
0  -2.932014 -11.183054 -2.138441  0.587641 -0.738839 0.329841  0.783668 0.881483 1 64 1.000000
acryl
0  -2.932014 -10.066739 -5.055326  1.000000 0.000173 0.000367  0.522324 0.909375 1 64 1.000000
0  -2.932014 -10.304913 -4.942502  1.000000 0.000173 0.000367  0.567291 0.867323 1 64 1.000000
0  -2.931867 -10.403578 -5.295014  1.000000 0.000173 0.000367  0.614277 0.938781 1 64 1.000000
acryl
0  -2.932014 -9.964745 -4.812317  1.000000 -0.000003 0.000000  0.482375 0.862531 1 64 1.000000
0  -2.932014 -10.066739 -5.055326  1.000000 -0.000003 0.000000  0.522324 0.909375 1 64 1.000000
0  -2.932014 -9.998863 -5.232681  1.000000 -0.000003 0.000000  0.519824 0.953684 1 64 1.000000
acryl
0  -3.155847 -9.353840 -4.904105  -0.004040 0.686492 -0.727126  0.794954 0.881546 1 64 1.000000
0  -3.038617 -9.353512 -4.904446  -0.004040 0.686492 -0.727126  0.822350 0.881483 1 64 1.000000
0  -2.980161 -9.522840 -5.064637  -0.004040 0.686492 -0.727126  0.836011 0.926391 1 64 1.000000
acryl
0  -3.155845 -10.885913 -1.534945  0.011930 0.005954 0.999911  0.927019 0.110460 1 64 1.000000
0  -3.155844 -11.407828 -1.531838  0.011930 0.005954 0.999911  0.926799 0.184782 1 64 1.000000
0  -2.932014 -11.409997 -1.534495  0.011930 0.005954 0.999911  0.874489 0.185428 1 64 1.000000
acryl
0  -3.155845 -10.760690 -1.569869  -0.002140 0.921349 0.388730  0.746208 -0.000000 1 64 1.000000
0  -2.995549 -10.760365 -1.569757  -0.002140 0.921349 0.388730  0.783668 -0.000000 1 64 1.000000
0  -3.038617 -9.353512 -4.904446  -0.002140 0.921349 0.388730  0.773725 0.845816 1 64 1.000000
acryl
0  -3.155845 -10.760690 -1.569869  0.039314 0.268427 0.962497  0.780888 0.899668 1 64 1.000000
0  -3.155845 -10.885913 -1.534945  0.039314 0.268427 0.962497  0.762032 0.898268 1 64 1.000000
0  -2.932014 -10.924675 -1.533278  0.039314 0.268427 0.962497  0.762032 0.845816 1 64 1.000000
acryl
0  -3.155847 -9.522785 -5.064105  -0.001422 0.830190 -0.557479  0.885442 0.710257 1 64 1.000000
0  -2.980161 -9.522840 -5.064637  -0.001422 0.830190 -0.557479  0.885333 0.751314 1 64 1.000000
0  -2.932014 -9.592176 -5.168013  -0.001422 0.830190 -0.557479  0.869386 0.762566 1 64 1.000000
acryl
0  -2.932014 -11.822578 -1.531188  1.000000 0.000000 0.000000  0.662573 -0.000000 1 64 1.000000
0  -2.932014 -10.304913 -4.942502  1.000000 0.000000 0.000000  0.567291 0.867323 1 64 1.000000
0  -2.932014 -11.421228 -2.025617  1.000000 0.000000 0.000000  0.608415 0.138606 1 64 1.000000
acryl
0  -2.932014 -10.304913 -4.942502  1.000000 0.000000 0.000000  0.567291 0.867323 1 64 1.000000
0  -2.932014 -10.202919 -4.699494  1.000000 0.000000 0.000000  0.527341 0.820479 1 64 1.000000
0  -2.932014 -11.421228 -2.025617  1.000000 0.000000 0.000000  0.608415 0.138606 1 64 1.000000
acryl
0  -2.932014 -10.202919 -4.699494  1.000000 0.000003 0.000000  0.527341 0.820479 1 64 1.000000
0  -2.932014 -9.964745 -4.812317  1.000000 0.000003 0.000000  0.482375 0.862531 1 64 1.000000
0  -2.932014 -11.081060 -1.895432  1.000000 0.000003 0.000000  0.523499 0.133814 1 64 1.000000
acryl
0  -2.932014 -9.964745 -4.812317  1.000000 0.000000 0.000000  0.482375 0.862531 1 64 1.000000
0  -2.932014 -9.592176 -5.168013  1.000000 0.000000 0.000000  0.424765 0.968207 1 64 1.000000
0  -2.932014 -10.924675 -1.533278  1.000000 0.000000 0.000000  0.462988 0.064314 1 64 1.000000
acryl
0  -2.932014 -11.409997 -1.534495  0.011888 0.001566 0.999928  0.874489 0.185428 1 64 1.000000
0  -3.155844 -11.407828 -1.531838  0.011888 0.001566 0.999928  0.926799 0.184782 1 64 1.000000
0  -3.155844 -11.822578 -1.531188  0.011888 0.001566 0.999928  0.926624 0.244178 1 64 1.000000
acryl
0  -2.932014 -11.822578 -1.531188  0.000000 -0.614528 0.788895  0.874316 0.244023 1 64 1.000000
0  -3.155844 -11.822578 -1.531188  0.000000 -0.614528 0.788895  0.926624 0.244178 1 64 1.000000
0  -3.158133 -11.986739 -1.659067  0.000000 -0.614528 0.788895  0.927019 0.291324 1 64 1.000000
acryl
0  -2.995549 -10.760365 -1.569757  0.912666 0.383985 0.139987  0.429619 0.084154 1 64 1.000000
0  -2.932014 -10.924675 -1.533278  0.912666 0.383985 0.139987  0.462988 0.064314 1 64 1.000000
0  -2.980161 -9.522840 -5.064637  0.912666 0.383985 0.139987  0.402446 0.950151 1 64 1.000000
acryl
0  -2.932014 -10.924675 -1.533278  0.902147 0.405068 0.148497  0.462988 0.064314 1 64 1.000000
0  -2.932014 -9.592176 -5.168013  0.902147 0.405068 0.148497  0.424765 0.968207 1 64 1.000000
0  -2.980161 -9.522840 -5.064637  0.902147 0.405068 0.148497  0.402446 0.950151 1 64 1.000000
acryl
0  -4.118128 -9.522841 -5.064637  -0.948476 0.295918 0.113252  0.306542 0.983807 1 64 1.000000
0  -4.152765 -9.596815 -5.161433  -0.948476 0.295918 0.113252  0.283991 1.000000 1 64 1.000000
0  -4.089231 -10.798882 -1.488420  -0.948476 0.295918 0.113252  0.278096 0.096924 1 64 1.000000
acryl
0  -4.152765 -9.596815 -5.161433  -0.948470 0.295935 0.113257  0.283991 1.000000 1 64 1.000000
0  -4.152765 -11.023043 -1.434760  -0.948470 0.295935 0.113257  0.233608 0.068857 1 64 1.000000
0  -4.089231 -10.798882 -1.488420  -0.948470 0.295935 0.113257  0.278096 0.096924 1 64 1.000000
acryl
0  -2.932014 -9.998863 -5.232681  0.515307 0.130640 -0.846990  0.835976 0.636834 1 64 1.000000
0  -2.931867 -10.403578 -5.295014  0.515307 0.130640 -0.846990  0.836011 0.732529 1 64 1.000000
0  -3.155847 -9.529102 -5.296405  0.515307 0.130640 -0.846990  0.783668 0.530701 1 64 1.000000
acryl
0  -2.931867 -10.403578 -5.295014  0.654937 0.166575 -0.737096  0.836011 0.732529 1 64 1.000000
0  -3.060846 -10.760530 -5.490284  0.654937 0.166575 -0.737096  0.805869 0.822025 1 64 1.000000
0  -3.155847 -9.529102 -5.296405  0.654937 0.166575 -0.737096  0.783668 0.530701 1 64 1.000000
acryl
0  -3.060846 -10.760530 -5.490284  -0.999707 0.000000 0.024186  0.799273 0.530701 1 64 1.000000
0  -3.009521 -11.703060 -2.545386  -0.999707 0.000000 0.024186  0.787278 0.122773 1 64 1.000000
0  -2.994074 -11.986729 -1.659071  -0.999707 0.000000 0.024186  0.783668 0.000000 1 64 1.000000
acryl
0  -3.928934 -11.996403 -1.667877  -0.000043 -0.951501 -0.307645  0.836011 0.530702 1 64 1.000000
0  -4.089133 -11.996394 -1.667881  -0.000043 -0.951501 -0.307645  0.873448 0.530701 1 64 1.000000
0  -4.075863 -11.744855 -2.445867  -0.000043 -0.951501 -0.307645  0.870347 0.638103 1 64 1.000000
acryl
0  -3.928934 -10.758736 -5.489833  0.003189 -0.951355 -0.308080  0.875312 0.686217 1 64 1.000000
0  -3.928934 -11.685538 -2.627836  0.003189 -0.951355 -0.308080  0.874316 0.291324 1 64 1.000000
0  -4.072757 -11.685983 -2.627953  0.003189 -0.951355 -0.308080  0.907927 0.291324 1 64 1.000000
acryl
0  -3.928934 -11.658732 -2.513198  0.002013 -0.618039 -0.786145  0.905756 0.840107 1 64 1.000000
0  -3.928934 -11.744496 -2.445772  0.002013 -0.618039 -0.786145  0.888405 0.840107 1 64 1.000000
0  -4.075863 -11.744855 -2.445867  0.002013 -0.618039 -0.786145  0.888319 0.805771 1 64 1.000000
acryl
0  -3.928934 -11.658732 -2.513198  0.000000 -0.972944 0.231039  0.888319 0.801337 1 64 1.000000
0  -4.094836 -11.658732 -2.513198  0.000000 -0.972944 0.231039  0.888319 0.762566 1 64 1.000000
0  -4.072757 -11.685983 -2.627953  0.000000 -0.972944 0.231039  0.913395 0.767726 1 64 1.000000
acryl
0  -4.092677 -12.063569 -1.460116  -0.000043 -0.951505 -0.307633  0.885443 0.710257 1 64 1.000000
0  -4.089133 -11.996394 -1.667881  -0.000043 -0.951505 -0.307633  0.914125 0.711086 1 64 1.000000
0  -3.928934 -11.996403 -1.667877  -0.000043 -0.951505 -0.307633  0.914125 0.748524 1 64 1.000000
acryl
0  -4.152765 -10.407015 -5.287988  -0.952367 -0.285038 -0.108403  0.095475 0.970094 1 64 1.000000
0  -4.023934 -10.760531 -5.490284  -0.952367 -0.285038 -0.108403  0.000000 0.989898 1 64 1.000000
0  -4.072757 -11.685983 -2.627953  -0.952367 -0.285038 -0.108403  0.000000 0.286846 1 64 1.000000
acryl
0  -4.094836 -11.658732 -2.513198  -0.950522 -0.290136 -0.111037  0.014685 0.263250 1 64 1.000000
0  -4.152765 -11.880377 -1.438156  -0.950522 -0.290136 -0.111037  0.043427 0.008178 1 64 1.000000
0  -4.152765 -10.407015 -5.287988  -0.950522 -0.290136 -0.111037  0.095475 0.970094 1 64 1.000000
end
