version 1
nodes
0 "ValveBiped.Bip01_Spine4" -1
1 "ValveBiped.Bip01_L_Clavicle" 0
2 "ValveBiped.Bip01_L_UpperArm" 1
3 "ValveBiped.Bip01_L_Forearm" 2
4 "ValveBiped.Bip01_L_Hand" 3
5 "ValveBiped.Bip01_L_Finger4" 4
6 "ValveBiped.Bip01_L_Finger41" 5
7 "ValveBiped.Bip01_L_Finger42" 6
8 "ValveBiped.Bip01_L_Finger3" 4
9 "ValveBiped.Bip01_L_Finger31" 8
10 "ValveBiped.Bip01_L_Finger32" 9
11 "ValveBiped.Bip01_L_Finger2" 4
12 "ValveBiped.Bip01_L_Finger21" 11
13 "ValveBiped.Bip01_L_Finger22" 12
14 "ValveBiped.Bip01_L_Finger1" 4
15 "ValveBiped.Bip01_L_Finger11" 14
16 "ValveBiped.Bip01_L_Finger12" 15
17 "ValveBiped.Bip01_L_Finger0" 4
18 "ValveBiped.Bip01_L_Finger01" 17
19 "ValveBiped.Bip01_L_Finger02" 18
20 "ValveBiped.Bip01_L_Ulna" 3
21 "ValveBiped.Bip01_L_Wrist" 3
22 "rig_l_upperarm" 1
23 "rig_l_forearm" 22
24 "rig_d_l_forearm" 23
25 "rig_d_l_upperarm" 22
26 "ValveBiped.Bip01_R_Clavicle" 0
27 "ValveBiped.Bip01_R_UpperArm" 26
28 "ValveBiped.Bip01_R_Forearm" 27
29 "ValveBiped.Bip01_R_Hand" 28
30 "ValveBiped.Bip01_R_Finger4" 29
31 "ValveBiped.Bip01_R_Finger41" 30
32 "ValveBiped.Bip01_R_Finger42" 31
33 "ValveBiped.Bip01_R_Finger3" 29
34 "ValveBiped.Bip01_R_Finger31" 33
35 "ValveBiped.Bip01_R_Finger32" 34
36 "ValveBiped.Bip01_R_Finger2" 29
37 "ValveBiped.Bip01_R_Finger21" 36
38 "ValveBiped.Bip01_R_Finger22" 37
39 "ValveBiped.Bip01_R_Finger1" 29
40 "ValveBiped.Bip01_R_Finger11" 39
41 "ValveBiped.Bip01_R_Finger12" 40
42 "ValveBiped.Bip01_R_Finger0" 29
43 "ValveBiped.Bip01_R_Finger01" 42
44 "ValveBiped.Bip01_R_Finger02" 43
45 "ValveBiped.Bip01_R_Ulna" 28
46 "ValveBiped.Bip01_R_Wrist" 28
47 "rig_r_upperarm" 26
48 "rig_r_forearm" 47
49 "rig_d_r_forearm" 48
50 "rig_d_r_upperarm" 47
51 "rig_r_hand" -1
52 "rig_d_r_hand" 51
53 "rig_d_r_wrist" 52
54 "rig_l_hand" -1
55 "rig_d_l_hand" 54
56 "rig_d_l_wrist" 54
57 "rig_l_pole" -1
58 "rig_r_pole" -1
59 "rig_l_clavicle" -1
60 "rig_d_l_clavicle" 59
61 "rig_r_clavicle" -1
62 "rig_d_r_clavicle" 61
63 "Camera" -1
64 "body" -1
65 "trigger" 64
66 "bullet1" 64
67 "slide" 64
68 "hammer" 64
69 "sliderelease" 64
70 "barrel" 64
71 "slidesg" 64
72 "grip_safety" 64
73 "safety" 64
74 "magrelease" 64
75 "sg_round" -1
76 "mag" -1
77 "bullet2" 76
78 "bullet3" 76
79 "bullet4" 78
80 "bullet5" 78
81 "bullet6" 78
82 "bullet7" 78
83 "bullet8" 78
84 "bullet9" 78
85 "bullet10" 78
86 "springstart" 76
87 "springend" 86
88 "sg_shell" -1
end
skeleton
time 0
0  0.000006 0.000000 0.000000  -1.570800 -1.391899 -1.570792
1  2.033349 1.000767 1.937657  -1.544959 -1.855077 -0.198628
2  6.027514 -0.000326 0.000201  -1.583279 0.045953 -0.585171
3  11.692119 0.000566 -0.000740  -0.000021 0.000000 -0.056690
4  11.481222 0.000172 -0.000744  1.576892 -0.106567 0.041958
5  3.859503 -0.142823 -1.192079  -0.468169 0.151546 -0.880257
6  1.312588 0.000011 0.000008  -0.000027 0.000044 -0.439740
7  0.729357 0.000056 0.000050  0.000017 0.000021 -0.244317
8  3.942138 0.046328 -0.431543  -0.151817 0.073216 -0.811086
9  1.539111 0.000085 0.000004  -0.000007 0.000021 -0.247842
10  1.196334 0.000148 0.000029  0.000011 0.000018 -0.430770
11  3.883507 -0.047213 0.431351  0.085894 0.021858 -0.587909
12  1.719572 -0.000031 0.000017  0.000015 0.005518 -0.366533
13  1.209178 0.000091 0.000012  0.000004 0.003091 -0.216438
14  3.859676 -0.138418 1.332380  0.354466 -0.042717 -0.531784
15  1.719446 -0.000019 0.000028  0.000028 0.004066 -0.363025
16  1.099675 0.000051 0.000006  0.000003 0.002578 -0.244381
17  0.806009 -0.349040 1.321248  -1.222694 -0.679188 -0.788867
18  1.789820 -0.000003 -0.000019  0.000011 -0.000024 0.228523
19  1.207014 -0.000015 -0.000042  0.000002 -0.000008 0.362856
20  5.740638 0.000389 -0.000699  0.003123 0.000003 0.000063
21  11.481261 0.000219 -0.000826  0.004954 0.000185 -0.001487
22  6.027524 -0.000330 0.000200  0.059585 -2.453119 -2.193916
23  0.000000 11.692099 -0.000007  -0.043310 -0.000838 -0.036607
24  0.000004 0.000008 0.000001  0.868996 -0.000031 1.570739
25  -0.000000 -0.000011 -0.000000  0.868960 0.000002 1.570712
26  2.033355 1.000772 -1.937609  1.473126 1.855076 -0.198632
27  6.027509 -0.000258 -0.000228  1.639675 -0.005935 -0.586606
28  11.691992 0.000194 0.000861  -0.000046 -0.000001 -0.056062
29  11.481178 0.000098 0.000827  -1.565089 0.106509 0.042007
30  3.859439 -0.132758 1.193065  0.466290 -0.158048 -0.878822
31  1.312557 0.000023 -0.000000  0.000013 -0.000043 -0.439709
32  0.729346 0.000066 -0.000027  -0.000023 -0.000019 -0.244286
33  3.942047 0.050141 0.431000  0.150091 -0.079181 -0.810189
34  1.539094 0.000005 -0.000000  0.000009 -0.000007 -0.247824
35  1.196299 0.000074 -0.000003  -0.000007 -0.000009 -0.430781
36  3.883414 -0.050470 -0.431084  -0.085915 -0.026392 -0.587660
37  1.719565 -0.000087 -0.000004  -0.000006 -0.007962 -0.366486
38  1.209198 0.000036 0.000011  0.000002 -0.004461 -0.216413
39  3.859589 -0.149081 -1.331321  -0.354445 0.038578 -0.531955
40  1.719414 -0.000098 -0.000036  -0.000030 -0.006584 -0.363030
41  1.099673 0.000026 0.000007  0.000004 -0.004188 -0.244347
42  0.805984 -0.359846 -1.318338  1.221444 0.673631 -0.793558
43  1.789779 -0.000009 -0.000044  -0.000028 0.000031 0.228553
44  1.206997 -0.000008 0.000005  -0.000017 0.000020 0.362910
45  5.740571 0.000079 0.000724  0.002082 -0.000014 0.000028
46  11.481178 0.000092 0.000935  -0.000021 -0.000087 -0.001749
47  6.027516 -0.000273 -0.000228  0.007375 -0.632954 -2.161838
48  0.000001 11.691978 -0.000006  -0.042810 0.000798 0.036188
49  0.000004 -0.000001 0.000000  2.272571 -0.000036 1.570860
50  -0.000007 -0.000014 0.000005  2.272645 -0.000036 1.570861
51  -22.676567 -0.984331 -17.554111  -1.605366 2.379717 -0.041994
52  0.000001 0.000002 -0.000000  0.008153 -0.000259 0.000009
53  -0.000000 -0.000001 0.000000  1.565115 0.043565 -0.106862
54  22.676517 -0.984221 -17.554199  1.605712 0.761853 0.042358
55  0.000001 -0.000003 -0.000000  0.000000 -0.000001 -0.000002
56  0.000032 0.000027 0.000001  -1.571901 -0.044449 -0.106509
57  15.265023 8.339654 -8.787539  1.570796 -0.000000 0.000000
58  -15.265000 8.339654 -8.787539  1.570796 -0.000000 0.000000
59  1.941978 -1.346989 1.821586  1.570796 -0.000000 0.000000
60  -0.004311 0.001230 -0.000371  0.006898 -0.005534 -0.284229
61  -1.937603 -1.346625 1.822824  1.570796 -0.000000 0.000000
62  0.000000 0.000000 0.000000  -0.078727 -3.136056 0.284226
63  0.000000 0.000000 0.000000  1.570796 -0.000000 0.000000
64  -3.534368 -10.111034 -2.851932  1.570796 -0.000000 0.000000
65  -0.008022 0.449004 2.449477  0.000000 -0.000000 0.000000
66  -0.008021 1.798499 0.936337  0.000000 -0.000000 0.000000
67  0.000000 2.151127 2.901127  0.000000 -0.000000 0.000000
68  -0.008023 1.347420 0.085285  0.000000 -0.000000 0.000000
69  0.230628 1.332312 3.105305  0.000000 -0.000000 0.000000
70  -0.008024 2.172907 7.984051  0.000000 -0.000000 0.000000
71  -0.008022 1.228065 5.810776  0.000000 -0.000000 0.000000
72  -0.008023 1.115505 -0.313082  0.000000 -0.000000 0.000000
73  -0.008023 1.345870 0.084164  1.570796 -0.000000 -0.000000
74  -0.008023 0.197514 1.902819  0.000000 -0.000000 0.000000
75  -3.542390 -12.021312 -0.689985  1.570796 -0.000000 0.000000
76  -3.534368 -10.839828 -0.901454  1.570796 -0.000000 0.000000
77  -0.008021 -0.653745 0.060182  0.000000 -0.000000 0.000000
78  -0.008021 -1.155510 -0.087180  0.000000 -0.000000 0.000000
79  0.000000 -0.501765 -0.147367  0.000000 -0.000000 0.000000
80  0.000000 -1.003531 -0.294728  0.000000 -0.000000 0.000000
81  0.000000 -1.505297 -0.442090  0.000000 -0.000000 0.000000
82  0.000000 -2.007061 -0.589454  0.000000 -0.000000 0.000000
83  0.000000 -2.508827 -0.736814  0.000000 -0.000000 0.000000
84  0.000000 -2.772560 -0.939010  0.000000 -0.000000 0.000000
85  0.000000 -3.071457 -1.220325  0.000000 -0.000000 0.000000
86  -0.283371 -4.518086 -0.534134  0.346743 -0.000000 -0.000000
87  -0.000000 4.582804 -0.219900  -0.051302 0.000000 0.000000
88  -3.542390 -12.021312 -0.689985  1.570796 -0.000000 0.000000
end
triangles
lowpoly_plastic
0  -3.850682 -10.075413 -5.029305  1.000000 0.000000 0.000001  0.073319 0.624796 1 64 1.000000
0  -3.850682 -10.191214 -4.726726  1.000000 0.000000 0.000001  0.073364 0.624751 1 64 1.000000
0  -3.850681 -10.284603 -4.935915  1.000000 0.000000 0.000001  0.073364 0.624796 1 64 1.000000
lowpoly_plastic
0  -3.850681 -10.284603 -4.935915  0.000000 -0.913136 0.407654  0.071425 0.628219 1 64 1.000000
0  -4.125001 -10.191214 -4.726726  0.000000 -0.913136 0.407654  0.071462 0.628273 1 64 1.000000
0  -4.125001 -10.284603 -4.935915  0.000000 -0.913136 0.407654  0.071425 0.628273 1 64 1.000000
lowpoly_metal
0  -4.193290 -9.972916 -4.849461  -0.970115 0.221569 -0.098914  0.047028 0.453551 1 64 1.000000
0  -4.193290 -10.065163 -5.056092  -0.970115 0.221569 -0.098914  0.046983 0.453551 1 64 1.000000
0  -4.221590 -10.122355 -4.906653  -0.970115 0.221569 -0.098914  0.047005 0.453529 1 64 1.000000
lowpoly_plastic
0  -4.125001 -10.075414 -5.029305  -0.000004 0.913139 -0.407648  0.073144 0.628220 1 64 1.000000
0  -3.850682 -9.982023 -4.820116  -0.000004 0.913139 -0.407648  0.073182 0.628274 1 64 1.000000
0  -3.850682 -10.075413 -5.029305  -0.000004 0.913139 -0.407648  0.073144 0.628274 1 64 1.000000
lowpoly_plastic
0  -3.850681 -10.284603 -4.935915  0.000001 -0.407654 -0.913136  0.071725 0.628292 1 64 1.000000
0  -4.125001 -10.075414 -5.029305  0.000001 -0.407654 -0.913136  0.071759 0.628238 1 64 1.000000
0  -3.850682 -10.075413 -5.029305  0.000001 -0.407654 -0.913136  0.071759 0.628292 1 64 1.000000
lowpoly_plastic
0  -4.125001 -10.191214 -4.726726  0.000000 0.407658 0.913135  0.071788 0.628282 1 64 1.000000
0  -3.850682 -9.982023 -4.820116  0.000000 0.407658 0.913135  0.071821 0.628228 1 64 1.000000
0  -4.125002 -9.982023 -4.820116  0.000000 0.407658 0.913135  0.071821 0.628282 1 64 1.000000
lowpoly_plastic
0  -4.125002 -9.982023 -4.820116  0.284689 0.390789 0.875349  0.071821 0.628282 1 64 1.000000
0  -4.160140 -9.968241 -4.814841  0.284689 0.390789 0.875349  0.071824 0.628289 1 64 1.000000
0  -4.193290 -9.994835 -4.792187  0.284689 0.390789 0.875349  0.071821 0.628296 1 64 1.000000
lowpoly_metal
0  -4.193290 -10.065163 -5.056092  -0.970115 -0.098923 -0.221567  0.046983 0.453551 1 64 1.000000
0  -4.193290 -10.271793 -4.963844  -0.970115 -0.098923 -0.221567  0.046983 0.453507 1 64 1.000000
0  -4.221590 -10.122355 -4.906653  -0.970115 -0.098923 -0.221567  0.047005 0.453529 1 64 1.000000
lowpoly_plastic
0  -4.125001 -10.191214 -4.726726  0.284680 -0.875349 0.390796  0.071462 0.628273 1 64 1.000000
0  -4.193290 -10.201465 -4.699940  0.284680 -0.875349 0.390796  0.071468 0.628286 1 64 1.000000
0  -4.193290 -10.293713 -4.906570  0.284680 -0.875349 0.390796  0.071431 0.628286 1 64 1.000000
lowpoly_plastic
0  -4.125001 -10.284603 -4.935915  0.284694 -0.390798 -0.875344  0.071725 0.628238 1 64 1.000000
0  -4.160140 -10.298387 -4.941190  0.284694 -0.390798 -0.875344  0.071722 0.628231 1 64 1.000000
0  -4.193290 -10.271793 -4.963844  0.284694 -0.390798 -0.875344  0.071726 0.628225 1 64 1.000000
lowpoly_plastic
0  -4.125001 -10.075414 -5.029305  0.284685 0.875353 -0.390784  0.073144 0.628220 1 64 1.000000
0  -4.193290 -10.065163 -5.056092  0.284685 0.875353 -0.390784  0.073138 0.628206 1 64 1.000000
0  -4.193290 -9.972916 -4.849461  0.284685 0.875353 -0.390784  0.073176 0.628206 1 64 1.000000
lowpoly_metal
0  -4.193290 -10.201465 -4.699940  -0.970115 0.098917 0.221566  0.049239 0.453868 1 64 1.000000
0  -4.193290 -9.994835 -4.792187  -0.970115 0.098917 0.221566  0.049284 0.453868 1 64 1.000000
0  -4.221590 -10.144274 -4.849379  -0.970115 0.098917 0.221566  0.049261 0.453890 1 64 1.000000
lowpoly_plastic
0  -4.193290 -9.972916 -4.849461  -0.679031 -0.262386 0.685617  0.073231 0.627453 1 64 1.000000
0  -4.160140 -10.298387 -4.941190  -0.679031 -0.262386 0.685617  0.073225 0.627519 1 64 1.000000
0  -4.160140 -9.968241 -4.814841  -0.679031 -0.262386 0.685617  0.073225 0.627450 1 64 1.000000
lowpoly_plastic
0  -4.193290 -9.994835 -4.792187  0.000000 0.357430 -0.933940  0.072898 0.628116 1 64 1.000000
0  -4.193290 -10.293713 -4.906570  0.000000 0.357430 -0.933940  0.072898 0.628179 1 64 1.000000
0  -4.221590 -10.144274 -4.849379  0.000000 0.357430 -0.933940  0.072893 0.628147 1 64 1.000000
lowpoly_plastic
0  -4.160140 -10.298387 -4.941190  -0.679027 0.262387 -0.685620  0.072905 0.628182 1 64 1.000000
0  -4.193290 -9.994835 -4.792187  -0.679027 0.262387 -0.685620  0.072898 0.628116 1 64 1.000000
0  -4.160140 -9.968241 -4.814841  -0.679027 0.262387 -0.685620  0.072905 0.628112 1 64 1.000000
lowpoly_plastic
0  -4.193290 -10.271793 -4.963844  -0.000013 -0.357433 0.933939  0.073231 0.627516 1 64 1.000000
0  -4.193290 -9.972916 -4.849461  -0.000013 -0.357433 0.933939  0.073231 0.627453 1 64 1.000000
0  -4.221590 -10.122355 -4.906653  -0.000013 -0.357433 0.933939  0.073237 0.627484 1 64 1.000000
lowpoly_metal
0  -4.193290 -10.293713 -4.906570  -0.970115 -0.221570 0.098914  0.049239 0.453913 1 64 1.000000
0  -4.193290 -10.201465 -4.699940  -0.970115 -0.221570 0.098914  0.049239 0.453868 1 64 1.000000
0  -4.221590 -10.144274 -4.849379  -0.970115 -0.221570 0.098914  0.049261 0.453890 1 64 1.000000
lowpoly_plastic
0  -3.850680 -11.191243 -2.113691  1.000000 0.000000 0.000001  0.073319 0.624796 1 64 1.000000
0  -3.850680 -11.307043 -1.811111  1.000000 0.000000 0.000001  0.073274 0.624751 1 64 1.000000
0  -3.850680 -11.400433 -2.020301  1.000000 0.000000 0.000001  0.073319 0.624751 1 64 1.000000
lowpoly_plastic
0  -3.850680 -11.400433 -2.020301  0.000000 -0.913137 0.407653  0.071932 0.628216 1 64 1.000000
0  -4.125000 -11.307043 -1.811111  0.000000 -0.913137 0.407653  0.071969 0.628271 1 64 1.000000
0  -4.125000 -11.400433 -2.020301  0.000000 -0.913137 0.407653  0.071932 0.628271 1 64 1.000000
lowpoly_metal
0  -4.193289 -11.088745 -1.933846  -0.970115 0.221569 -0.098916  0.047510 0.453869 1 64 1.000000
0  -4.193289 -11.180992 -2.140477  -0.970115 0.221569 -0.098916  0.047510 0.453914 1 64 1.000000
0  -4.221589 -11.238184 -1.991038  -0.970115 0.221569 -0.098916  0.047488 0.453891 1 64 1.000000
lowpoly_plastic
0  -4.125000 -11.191243 -2.113691  0.000000 0.913137 -0.407653  0.071260 0.628222 1 64 1.000000
0  -3.850681 -11.097853 -1.904501  0.000000 0.913137 -0.407653  0.071298 0.628276 1 64 1.000000
0  -3.850680 -11.191243 -2.113691  0.000000 0.913137 -0.407653  0.071260 0.628276 1 64 1.000000
lowpoly_plastic
0  -3.850680 -11.400433 -2.020301  0.000000 -0.407659 -0.913134  0.070554 0.628294 1 64 1.000000
0  -4.125000 -11.191243 -2.113691  0.000000 -0.407659 -0.913134  0.070588 0.628240 1 64 1.000000
0  -3.850680 -11.191243 -2.113691  0.000000 -0.407659 -0.913134  0.070588 0.628294 1 64 1.000000
lowpoly_plastic
0  -4.125000 -11.307043 -1.811111  -0.000001 0.407654 0.913136  0.070032 0.628283 1 64 1.000000
0  -3.850681 -11.097853 -1.904501  -0.000001 0.407654 0.913136  0.070066 0.628228 1 64 1.000000
0  -4.125000 -11.097854 -1.904501  -0.000001 0.407654 0.913136  0.070066 0.628283 1 64 1.000000
lowpoly_plastic
0  -4.125000 -11.097854 -1.904501  0.284674 0.390780 0.875358  0.070066 0.628283 1 64 1.000000
0  -4.160139 -11.084070 -1.899226  0.284674 0.390780 0.875358  0.070069 0.628290 1 64 1.000000
0  -4.193289 -11.110664 -1.876572  0.284674 0.390780 0.875358  0.070065 0.628296 1 64 1.000000
lowpoly_metal
0  -4.193289 -11.180992 -2.140477  -0.970114 -0.098916 -0.221571  0.047510 0.453914 1 64 1.000000
0  -4.193289 -11.387623 -2.048229  -0.970114 -0.098916 -0.221571  0.047465 0.453914 1 64 1.000000
0  -4.221589 -11.238184 -1.991038  -0.970114 -0.098916 -0.221571  0.047488 0.453891 1 64 1.000000
lowpoly_plastic
0  -4.125000 -11.307043 -1.811111  0.284687 -0.875347 0.390796  0.071969 0.628271 1 64 1.000000
0  -4.193289 -11.317294 -1.784325  0.284687 -0.875347 0.390796  0.071974 0.628284 1 64 1.000000
0  -4.193289 -11.409542 -1.990955  0.284687 -0.875347 0.390796  0.071938 0.628284 1 64 1.000000
lowpoly_plastic
0  -4.125000 -11.400433 -2.020301  0.284695 -0.390790 -0.875347  0.070554 0.628240 1 64 1.000000
0  -4.160139 -11.414216 -2.025576  0.284695 -0.390790 -0.875347  0.070551 0.628233 1 64 1.000000
0  -4.193289 -11.387623 -2.048229  0.284695 -0.390790 -0.875347  0.070555 0.628226 1 64 1.000000
lowpoly_plastic
0  -4.125000 -11.191243 -2.113691  0.284687 0.875352 -0.390783  0.071260 0.628222 1 64 1.000000
0  -4.193289 -11.180992 -2.140477  0.284687 0.875352 -0.390783  0.071255 0.628208 1 64 1.000000
0  -4.193289 -11.088745 -1.933846  0.284687 0.875352 -0.390783  0.071292 0.628208 1 64 1.000000
lowpoly_metal
0  -4.193289 -11.317294 -1.784325  -0.970115 0.098915 0.221570  0.048186 0.453869 1 64 1.000000
0  -4.193289 -11.110664 -1.876572  -0.970115 0.098915 0.221570  0.048231 0.453869 1 64 1.000000
0  -4.221589 -11.260103 -1.933764  -0.970115 0.098915 0.221570  0.048208 0.453891 1 64 1.000000
lowpoly_plastic
0  -4.193289 -11.088745 -1.933846  -0.679032 -0.262390 0.685615  0.072350 0.628069 1 64 1.000000
0  -4.160139 -11.414216 -2.025576  -0.679032 -0.262390 0.685615  0.072344 0.628135 1 64 1.000000
0  -4.160139 -11.084070 -1.899226  -0.679032 -0.262390 0.685615  0.072344 0.628066 1 64 1.000000
lowpoly_plastic
0  -4.193289 -11.110664 -1.876572  -0.000007 0.357423 -0.933943  0.073290 0.625336 1 64 1.000000
0  -4.193289 -11.409542 -1.990955  -0.000007 0.357423 -0.933943  0.073290 0.625399 1 64 1.000000
0  -4.221589 -11.260103 -1.933764  -0.000007 0.357423 -0.933943  0.073284 0.625368 1 64 1.000000
lowpoly_plastic
0  -4.160139 -11.414216 -2.025576  -0.679035 0.262386 -0.685613  0.073296 0.625402 1 64 1.000000
0  -4.193289 -11.110664 -1.876572  -0.679035 0.262386 -0.685613  0.073290 0.625336 1 64 1.000000
0  -4.160139 -11.084070 -1.899226  -0.679035 0.262386 -0.685613  0.073296 0.625332 1 64 1.000000
lowpoly_plastic
0  -4.193289 -11.387623 -2.048229  0.000007 -0.357423 0.933943  0.072350 0.628132 1 64 1.000000
0  -4.193289 -11.088745 -1.933846  0.000007 -0.357423 0.933943  0.072350 0.628069 1 64 1.000000
0  -4.221589 -11.238184 -1.991038  0.000007 -0.357423 0.933943  0.072356 0.628100 1 64 1.000000
lowpoly_metal
0  -4.193289 -11.409542 -1.990955  -0.970115 -0.221566 0.098919  0.048186 0.453914 1 64 1.000000
0  -4.193289 -11.317294 -1.784325  -0.970115 -0.221566 0.098919  0.048186 0.453869 1 64 1.000000
0  -4.221589 -11.260103 -1.933764  -0.970115 -0.221566 0.098919  0.048208 0.453891 1 64 1.000000
lowpoly_plastic
0  -3.234100 -10.075414 -5.029305  -1.000000 -0.000001 -0.000001  0.073056 0.626021 1 64 1.000000
0  -3.234100 -10.191214 -4.726726  -1.000000 -0.000001 -0.000001  0.073010 0.625976 1 64 1.000000
0  -3.234100 -9.982024 -4.820116  -1.000000 -0.000001 -0.000001  0.073056 0.625976 1 64 1.000000
lowpoly_plastic
0  -3.234100 -10.284603 -4.935915  0.000004 -0.913139 0.407649  0.070473 0.628287 1 64 1.000000
0  -2.959780 -10.191213 -4.726726  0.000004 -0.913139 0.407649  0.070510 0.628233 1 64 1.000000
0  -3.234100 -10.191214 -4.726726  0.000004 -0.913139 0.407649  0.070510 0.628287 1 64 1.000000
lowpoly_metal
0  -2.891491 -9.972914 -4.849461  0.970114 0.221571 -0.098916  0.046258 0.453870 1 64 1.000000
0  -2.863192 -10.122353 -4.906653  0.970114 0.221571 -0.098916  0.046280 0.453892 1 64 1.000000
0  -2.891491 -10.065161 -5.056092  0.970114 0.221571 -0.098916  0.046258 0.453914 1 64 1.000000
lowpoly_plastic
0  -2.959780 -10.075413 -5.029305  -0.000004 0.913130 -0.407668  0.070630 0.628261 1 64 1.000000
0  -3.234100 -9.982024 -4.820116  -0.000004 0.913130 -0.407668  0.070668 0.628207 1 64 1.000000
0  -2.959780 -9.982023 -4.820116  -0.000004 0.913130 -0.407668  0.070668 0.628261 1 64 1.000000
lowpoly_plastic
0  -3.234100 -10.284603 -4.935915  0.000000 -0.407658 -0.913135  0.071473 0.628224 1 64 1.000000
0  -2.959780 -10.075413 -5.029305  0.000000 -0.407658 -0.913135  0.071507 0.628278 1 64 1.000000
0  -2.959780 -10.284603 -4.935915  0.000000 -0.407658 -0.913135  0.071473 0.628278 1 64 1.000000
lowpoly_plastic
0  -2.959780 -10.191213 -4.726726  -0.000004 0.407655 0.913136  0.073385 0.627816 1 64 1.000000
0  -3.234100 -9.982024 -4.820116  -0.000004 0.407655 0.913136  0.073419 0.627870 1 64 1.000000
0  -3.234100 -10.191214 -4.726726  -0.000004 0.407655 0.913136  0.073386 0.627870 1 64 1.000000
lowpoly_plastic
0  -2.891491 -9.994833 -4.792187  -0.284713 0.390801 0.875336  0.073418 0.627802 1 64 1.000000
0  -2.924642 -9.968240 -4.814841  -0.284713 0.390801 0.875336  0.073422 0.627809 1 64 1.000000
0  -2.959780 -9.982023 -4.820116  -0.284713 0.390801 0.875336  0.073419 0.627816 1 64 1.000000
lowpoly_metal
0  -2.891491 -10.065161 -5.056092  0.970115 -0.098916 -0.221569  0.046258 0.453914 1 64 1.000000
0  -2.863192 -10.122353 -4.906653  0.970115 -0.098916 -0.221569  0.046280 0.453892 1 64 1.000000
0  -2.891491 -10.271791 -4.963844  0.970115 -0.098916 -0.221569  0.046302 0.453914 1 64 1.000000
lowpoly_plastic
0  -2.891491 -10.293711 -4.906570  -0.284681 -0.875353 0.390786  0.070479 0.628219 1 64 1.000000
0  -2.891491 -10.201464 -4.699940  -0.284681 -0.875353 0.390786  0.070515 0.628219 1 64 1.000000
0  -2.959780 -10.191213 -4.726726  -0.284681 -0.875353 0.390786  0.070510 0.628233 1 64 1.000000
lowpoly_plastic
0  -2.891491 -10.271791 -4.963844  -0.284677 -0.390778 -0.875358  0.071474 0.628292 1 64 1.000000
0  -2.924641 -10.298386 -4.941190  -0.284677 -0.390778 -0.875358  0.071470 0.628285 1 64 1.000000
0  -2.959780 -10.284603 -4.935915  -0.284677 -0.390778 -0.875358  0.071473 0.628278 1 64 1.000000
lowpoly_plastic
0  -2.891491 -9.972914 -4.849461  -0.284697 0.875349 -0.390783  0.070662 0.628274 1 64 1.000000
0  -2.891491 -10.065161 -5.056092  -0.284697 0.875349 -0.390783  0.070624 0.628274 1 64 1.000000
0  -2.959780 -10.075413 -5.029305  -0.284697 0.875349 -0.390783  0.070630 0.628261 1 64 1.000000
lowpoly_metal
0  -2.891491 -10.201464 -4.699940  0.970115 0.098917 0.221569  0.048039 0.453870 1 64 1.000000
0  -2.863192 -10.144272 -4.849379  0.970115 0.098917 0.221569  0.048017 0.453892 1 64 1.000000
0  -2.891491 -9.994833 -4.792187  0.970115 0.098917 0.221569  0.047994 0.453870 1 64 1.000000
lowpoly_plastic
0  -2.891491 -9.972914 -4.849461  0.679029 -0.262385 0.685619  0.073453 0.626868 1 64 1.000000
0  -2.924641 -10.298386 -4.941190  0.679029 -0.262385 0.685619  0.073459 0.626935 1 64 1.000000
0  -2.891491 -10.271791 -4.963844  0.679029 -0.262385 0.685619  0.073453 0.626931 1 64 1.000000
lowpoly_plastic
0  -2.891491 -9.994833 -4.792187  0.000000 0.357431 -0.933940  0.073453 0.626624 1 64 1.000000
0  -2.863192 -10.144272 -4.849379  0.000000 0.357431 -0.933940  0.073459 0.626656 1 64 1.000000
0  -2.891491 -10.293711 -4.906570  0.000000 0.357431 -0.933940  0.073453 0.626687 1 64 1.000000
lowpoly_plastic
0  -2.924641 -10.298386 -4.941190  0.679019 0.262391 -0.685627  0.073447 0.626690 1 64 1.000000
0  -2.891491 -9.994833 -4.792187  0.679019 0.262391 -0.685627  0.073453 0.626624 1 64 1.000000
0  -2.891491 -10.293711 -4.906570  0.679019 0.262391 -0.685627  0.073453 0.626687 1 64 1.000000
lowpoly_plastic
0  -2.891491 -10.271791 -4.963844  0.000013 -0.357431 0.933940  0.073453 0.626931 1 64 1.000000
0  -2.863192 -10.122353 -4.906653  0.000013 -0.357431 0.933940  0.073447 0.626900 1 64 1.000000
0  -2.891491 -9.972914 -4.849461  0.000013 -0.357431 0.933940  0.073453 0.626868 1 64 1.000000
lowpoly_metal
0  -2.891491 -10.293711 -4.906570  0.970115 -0.221569 0.098919  0.048039 0.453915 1 64 1.000000
0  -2.863192 -10.144272 -4.849379  0.970115 -0.221569 0.098919  0.048017 0.453892 1 64 1.000000
0  -2.891491 -10.201464 -4.699940  0.970115 -0.221569 0.098919  0.048039 0.453870 1 64 1.000000
lowpoly_plastic
0  -3.234099 -11.191243 -2.113691  -1.000000 -0.000001 0.000000  0.073229 0.624796 1 64 1.000000
0  -3.234099 -11.307043 -1.811111  -1.000000 -0.000001 0.000000  0.073274 0.624751 1 64 1.000000
0  -3.234099 -11.097854 -1.904501  -1.000000 -0.000001 0.000000  0.073274 0.624796 1 64 1.000000
lowpoly_plastic
0  -3.234099 -11.400434 -2.020301  0.000002 -0.913136 0.407655  0.070430 0.628287 1 64 1.000000
0  -2.959779 -11.307042 -1.811111  0.000002 -0.913136 0.407655  0.070467 0.628233 1 64 1.000000
0  -3.234099 -11.307043 -1.811111  0.000002 -0.913136 0.407655  0.070467 0.628287 1 64 1.000000
lowpoly_metal
0  -2.891491 -11.088743 -1.933846  0.970114 0.221570 -0.098919  0.049421 0.453871 1 64 1.000000
0  -2.863191 -11.238182 -1.991038  0.970114 0.221570 -0.098919  0.049443 0.453893 1 64 1.000000
0  -2.891491 -11.180991 -2.140477  0.970114 0.221570 -0.098919  0.049421 0.453915 1 64 1.000000
lowpoly_plastic
0  -2.959779 -11.191242 -2.113691  -0.000003 0.913131 -0.407667  0.071304 0.628263 1 64 1.000000
0  -3.234099 -11.097854 -1.904501  -0.000003 0.913131 -0.407667  0.071342 0.628208 1 64 1.000000
0  -2.959780 -11.097853 -1.904501  -0.000003 0.913131 -0.407667  0.071342 0.628263 1 64 1.000000
lowpoly_plastic
0  -3.234099 -11.400434 -2.020301  0.000001 -0.407657 -0.913135  0.070286 0.628221 1 64 1.000000
0  -2.959779 -11.191242 -2.113691  0.000001 -0.407657 -0.913135  0.070320 0.628276 1 64 1.000000
0  -2.959779 -11.400433 -2.020301  0.000001 -0.407657 -0.913135  0.070286 0.628276 1 64 1.000000
lowpoly_plastic
0  -2.959779 -11.307042 -1.811111  -0.000002 0.407657 0.913135  0.071042 0.628240 1 64 1.000000
0  -3.234099 -11.097854 -1.904501  -0.000002 0.407657 0.913135  0.071076 0.628295 1 64 1.000000
0  -3.234099 -11.307043 -1.811111  -0.000002 0.407657 0.913135  0.071042 0.628295 1 64 1.000000
lowpoly_plastic
0  -2.891491 -11.110662 -1.876572  -0.284708 0.390803 0.875337  0.071075 0.628227 1 64 1.000000
0  -2.924641 -11.084069 -1.899226  -0.284708 0.390803 0.875337  0.071078 0.628233 1 64 1.000000
0  -2.959780 -11.097853 -1.904501  -0.284708 0.390803 0.875337  0.071075 0.628240 1 64 1.000000
lowpoly_metal
0  -2.891491 -11.180991 -2.140477  0.970115 -0.098916 -0.221569  0.049421 0.453915 1 64 1.000000
0  -2.863191 -11.238182 -1.991038  0.970115 -0.098916 -0.221569  0.049443 0.453893 1 64 1.000000
0  -2.891491 -11.387622 -2.048229  0.970115 -0.098916 -0.221569  0.049466 0.453915 1 64 1.000000
lowpoly_plastic
0  -2.891491 -11.409541 -1.990955  -0.284689 -0.875351 0.390784  0.070436 0.628219 1 64 1.000000
0  -2.891491 -11.317293 -1.784325  -0.284689 -0.875351 0.390784  0.070473 0.628219 1 64 1.000000
0  -2.959779 -11.307042 -1.811111  -0.284689 -0.875351 0.390784  0.070467 0.628233 1 64 1.000000
lowpoly_plastic
0  -2.891491 -11.387622 -2.048229  -0.284685 -0.390787 -0.875351  0.070286 0.628289 1 64 1.000000
0  -2.924641 -11.414215 -2.025575  -0.284685 -0.390787 -0.875351  0.070283 0.628282 1 64 1.000000
0  -2.959779 -11.400433 -2.020301  -0.284685 -0.390787 -0.875351  0.070286 0.628276 1 64 1.000000
lowpoly_plastic
0  -2.891491 -11.088743 -1.933846  -0.284689 0.875347 -0.390793  0.071336 0.628276 1 64 1.000000
0  -2.891491 -11.180991 -2.140477  -0.284689 0.875347 -0.390793  0.071298 0.628276 1 64 1.000000
0  -2.959779 -11.191242 -2.113691  -0.284689 0.875347 -0.390793  0.071304 0.628263 1 64 1.000000
lowpoly_metal
0  -2.891491 -11.317293 -1.784325  0.970114 0.098920 0.221569  0.048785 0.453871 1 64 1.000000
0  -2.863191 -11.260101 -1.933764  0.970114 0.098920 0.221569  0.048763 0.453894 1 64 1.000000
0  -2.891491 -11.110662 -1.876572  0.970114 0.098920 0.221569  0.048740 0.453871 1 64 1.000000
lowpoly_plastic
0  -2.891491 -11.088743 -1.933846  0.679025 -0.262391 0.685621  0.073455 0.628068 1 64 1.000000
0  -2.924641 -11.414215 -2.025575  0.679025 -0.262391 0.685621  0.073461 0.628135 1 64 1.000000
0  -2.891491 -11.387622 -2.048229  0.679025 -0.262391 0.685621  0.073455 0.628132 1 64 1.000000
lowpoly_plastic
0  -2.891491 -11.110662 -1.876572  -0.000007 0.357429 -0.933940  0.073453 0.626428 1 64 1.000000
0  -2.863191 -11.260101 -1.933764  -0.000007 0.357429 -0.933940  0.073459 0.626460 1 64 1.000000
0  -2.891491 -11.409541 -1.990955  -0.000007 0.357429 -0.933940  0.073453 0.626491 1 64 1.000000
lowpoly_plastic
0  -2.924641 -11.414215 -2.025575  0.679027 0.262392 -0.685618  0.073447 0.626494 1 64 1.000000
0  -2.891491 -11.110662 -1.876572  0.679027 0.262392 -0.685618  0.073453 0.626428 1 64 1.000000
0  -2.891491 -11.409541 -1.990955  0.679027 0.262392 -0.685618  0.073453 0.626491 1 64 1.000000
lowpoly_plastic
0  -2.891491 -11.387622 -2.048229  0.000013 -0.357429 0.933940  0.073455 0.628132 1 64 1.000000
0  -2.863191 -11.238182 -1.991038  0.000013 -0.357429 0.933940  0.073449 0.628100 1 64 1.000000
0  -2.891491 -11.088743 -1.933846  0.000013 -0.357429 0.933940  0.073455 0.628068 1 64 1.000000
lowpoly_metal
0  -2.891491 -11.409541 -1.990955  0.970115 -0.221568 0.098918  0.048785 0.453916 1 64 1.000000
0  -2.863191 -11.260101 -1.933764  0.970115 -0.221568 0.098918  0.048763 0.453894 1 64 1.000000
0  -2.891491 -11.317293 -1.784325  0.970115 -0.221568 0.098918  0.048785 0.453871 1 64 1.000000
lowpoly_plastic
0  -3.850682 -10.075413 -5.029305  1.000000 0.000003 0.000001  0.073319 0.624796 1 64 1.000000
0  -3.850682 -9.982023 -4.820116  1.000000 0.000003 0.000001  0.073319 0.624751 1 64 1.000000
0  -3.850682 -10.191214 -4.726726  1.000000 0.000003 0.000001  0.073364 0.624751 1 64 1.000000
lowpoly_plastic
0  -3.850681 -10.284603 -4.935915  0.000000 -0.913136 0.407654  0.071425 0.628219 1 64 1.000000
0  -3.850682 -10.191214 -4.726726  0.000000 -0.913136 0.407654  0.071462 0.628219 1 64 1.000000
0  -4.125001 -10.191214 -4.726726  0.000000 -0.913136 0.407654  0.071462 0.628273 1 64 1.000000
lowpoly_plastic
0  -4.125001 -10.075414 -5.029305  0.000000 0.913134 -0.407660  0.073144 0.628220 1 64 1.000000
0  -4.125002 -9.982023 -4.820116  0.000000 0.913134 -0.407660  0.073182 0.628220 1 64 1.000000
0  -3.850682 -9.982023 -4.820116  0.000000 0.913134 -0.407660  0.073182 0.628274 1 64 1.000000
lowpoly_plastic
0  -3.850681 -10.284603 -4.935915  0.000000 -0.407657 -0.913135  0.071725 0.628292 1 64 1.000000
0  -4.125001 -10.284603 -4.935915  0.000000 -0.407657 -0.913135  0.071725 0.628238 1 64 1.000000
0  -4.125001 -10.075414 -5.029305  0.000000 -0.407657 -0.913135  0.071759 0.628238 1 64 1.000000
lowpoly_plastic
0  -4.125001 -10.191214 -4.726726  0.000000 0.407654 0.913136  0.071788 0.628282 1 64 1.000000
0  -3.850682 -10.191214 -4.726726  0.000000 0.407654 0.913136  0.071787 0.628228 1 64 1.000000
0  -3.850682 -9.982023 -4.820116  0.000000 0.407654 0.913136  0.071821 0.628228 1 64 1.000000
lowpoly_plastic
0  -4.193290 -10.201465 -4.699940  0.284701 0.390793 0.875343  0.071787 0.628295 1 64 1.000000
0  -4.125001 -10.191214 -4.726726  0.284701 0.390793 0.875343  0.071788 0.628282 1 64 1.000000
0  -4.193290 -9.994835 -4.792187  0.284701 0.390793 0.875343  0.071821 0.628296 1 64 1.000000
lowpoly_plastic
0  -4.125001 -10.191214 -4.726726  0.284670 0.390786 0.875356  0.071788 0.628282 1 64 1.000000
0  -4.125002 -9.982023 -4.820116  0.284670 0.390786 0.875356  0.071821 0.628282 1 64 1.000000
0  -4.193290 -9.994835 -4.792187  0.284670 0.390786 0.875356  0.071821 0.628296 1 64 1.000000
lowpoly_plastic
0  -4.160140 -10.298387 -4.941190  0.284702 -0.875367 0.390740  0.071425 0.628280 1 64 1.000000
0  -4.125001 -10.284603 -4.935915  0.284702 -0.875367 0.390740  0.071425 0.628273 1 64 1.000000
0  -4.193290 -10.293713 -4.906570  0.284702 -0.875367 0.390740  0.071431 0.628286 1 64 1.000000
lowpoly_plastic
0  -4.125001 -10.284603 -4.935915  0.284706 -0.875343 0.390790  0.071425 0.628273 1 64 1.000000
0  -4.125001 -10.191214 -4.726726  0.284706 -0.875343 0.390790  0.071462 0.628273 1 64 1.000000
0  -4.193290 -10.293713 -4.906570  0.284706 -0.875343 0.390790  0.071431 0.628286 1 64 1.000000
lowpoly_plastic
0  -4.193290 -10.065163 -5.056092  0.284698 -0.390788 -0.875347  0.071760 0.628225 1 64 1.000000
0  -4.125001 -10.075414 -5.029305  0.284698 -0.390788 -0.875347  0.071759 0.628238 1 64 1.000000
0  -4.193290 -10.271793 -4.963844  0.284698 -0.390788 -0.875347  0.071726 0.628225 1 64 1.000000
lowpoly_plastic
0  -4.125001 -10.075414 -5.029305  0.284685 -0.390787 -0.875351  0.071759 0.628238 1 64 1.000000
0  -4.125001 -10.284603 -4.935915  0.284685 -0.390787 -0.875351  0.071725 0.628238 1 64 1.000000
0  -4.193290 -10.271793 -4.963844  0.284685 -0.390787 -0.875351  0.071726 0.628225 1 64 1.000000
lowpoly_plastic
0  -4.160140 -9.968241 -4.814841  0.284679 0.875337 -0.390822  0.073182 0.628213 1 64 1.000000
0  -4.125002 -9.982023 -4.820116  0.284679 0.875337 -0.390822  0.073182 0.628220 1 64 1.000000
0  -4.193290 -9.972916 -4.849461  0.284679 0.875337 -0.390822  0.073176 0.628206 1 64 1.000000
lowpoly_plastic
0  -4.125002 -9.982023 -4.820116  0.284688 0.875349 -0.390789  0.073182 0.628220 1 64 1.000000
0  -4.125001 -10.075414 -5.029305  0.284688 0.875349 -0.390789  0.073144 0.628220 1 64 1.000000
0  -4.193290 -9.972916 -4.849461  0.284688 0.875349 -0.390789  0.073176 0.628206 1 64 1.000000
lowpoly_plastic
0  -4.193290 -9.972916 -4.849461  -0.679024 -0.262389 0.685623  0.073231 0.627453 1 64 1.000000
0  -4.193290 -10.271793 -4.963844  -0.679024 -0.262389 0.685623  0.073231 0.627516 1 64 1.000000
0  -4.160140 -10.298387 -4.941190  -0.679024 -0.262389 0.685623  0.073225 0.627519 1 64 1.000000
lowpoly_plastic
0  -4.160140 -10.298387 -4.941190  -0.679027 0.262387 -0.685620  0.072905 0.628182 1 64 1.000000
0  -4.193290 -10.293713 -4.906570  -0.679027 0.262387 -0.685620  0.072898 0.628179 1 64 1.000000
0  -4.193290 -9.994835 -4.792187  -0.679027 0.262387 -0.685620  0.072898 0.628116 1 64 1.000000
lowpoly_plastic
0  -3.850680 -11.191243 -2.113691  1.000000 0.000002 0.000001  0.073319 0.624796 1 64 1.000000
0  -3.850681 -11.097853 -1.904501  1.000000 0.000002 0.000001  0.073274 0.624796 1 64 1.000000
0  -3.850680 -11.307043 -1.811111  1.000000 0.000002 0.000001  0.073274 0.624751 1 64 1.000000
lowpoly_plastic
0  -3.850680 -11.400433 -2.020301  0.000000 -0.913133 0.407661  0.071932 0.628216 1 64 1.000000
0  -3.850680 -11.307043 -1.811111  0.000000 -0.913133 0.407661  0.071969 0.628216 1 64 1.000000
0  -4.125000 -11.307043 -1.811111  0.000000 -0.913133 0.407661  0.071969 0.628271 1 64 1.000000
lowpoly_plastic
0  -4.125000 -11.191243 -2.113691  -0.000003 0.913130 -0.407668  0.071260 0.628222 1 64 1.000000
0  -4.125000 -11.097854 -1.904501  -0.000003 0.913130 -0.407668  0.071298 0.628222 1 64 1.000000
0  -3.850681 -11.097853 -1.904501  -0.000003 0.913130 -0.407668  0.071298 0.628276 1 64 1.000000
lowpoly_plastic
0  -3.850680 -11.400433 -2.020301  0.000000 -0.407655 -0.913136  0.070554 0.628294 1 64 1.000000
0  -4.125000 -11.400433 -2.020301  0.000000 -0.407655 -0.913136  0.070554 0.628240 1 64 1.000000
0  -4.125000 -11.191243 -2.113691  0.000000 -0.407655 -0.913136  0.070588 0.628240 1 64 1.000000
lowpoly_plastic
0  -4.125000 -11.307043 -1.811111  0.000000 0.407659 0.913134  0.070032 0.628283 1 64 1.000000
0  -3.850680 -11.307043 -1.811111  0.000000 0.407659 0.913134  0.070032 0.628228 1 64 1.000000
0  -3.850681 -11.097853 -1.904501  0.000000 0.407659 0.913134  0.070066 0.628228 1 64 1.000000
lowpoly_plastic
0  -4.193289 -11.317294 -1.784325  0.284691 0.390795 0.875346  0.070032 0.628296 1 64 1.000000
0  -4.125000 -11.307043 -1.811111  0.284691 0.390795 0.875346  0.070032 0.628283 1 64 1.000000
0  -4.193289 -11.110664 -1.876572  0.284691 0.390795 0.875346  0.070065 0.628296 1 64 1.000000
lowpoly_plastic
0  -4.125000 -11.307043 -1.811111  0.284691 0.390791 0.875348  0.070032 0.628283 1 64 1.000000
0  -4.125000 -11.097854 -1.904501  0.284691 0.390791 0.875348  0.070066 0.628283 1 64 1.000000
0  -4.193289 -11.110664 -1.876572  0.284691 0.390791 0.875348  0.070065 0.628296 1 64 1.000000
lowpoly_plastic
0  -4.160139 -11.414216 -2.025576  0.284706 -0.875364 0.390742  0.071932 0.628278 1 64 1.000000
0  -4.125000 -11.400433 -2.020301  0.284706 -0.875364 0.390742  0.071932 0.628271 1 64 1.000000
0  -4.193289 -11.409542 -1.990955  0.284706 -0.875364 0.390742  0.071938 0.628284 1 64 1.000000
lowpoly_plastic
0  -4.125000 -11.400433 -2.020301  0.284699 -0.875350 0.390779  0.071932 0.628271 1 64 1.000000
0  -4.125000 -11.307043 -1.811111  0.284699 -0.875350 0.390779  0.071969 0.628271 1 64 1.000000
0  -4.193289 -11.409542 -1.990955  0.284699 -0.875350 0.390779  0.071938 0.628284 1 64 1.000000
lowpoly_plastic
0  -4.193289 -11.180992 -2.140477  0.284697 -0.390788 -0.875347  0.070588 0.628226 1 64 1.000000
0  -4.125000 -11.191243 -2.113691  0.284697 -0.390788 -0.875347  0.070588 0.628240 1 64 1.000000
0  -4.193289 -11.387623 -2.048229  0.284697 -0.390788 -0.875347  0.070555 0.628226 1 64 1.000000
lowpoly_plastic
0  -4.125000 -11.191243 -2.113691  0.284687 -0.390786 -0.875351  0.070588 0.628240 1 64 1.000000
0  -4.125000 -11.400433 -2.020301  0.284687 -0.390786 -0.875351  0.070554 0.628240 1 64 1.000000
0  -4.193289 -11.387623 -2.048229  0.284687 -0.390786 -0.875351  0.070555 0.628226 1 64 1.000000
lowpoly_plastic
0  -4.160139 -11.084070 -1.899226  0.284683 0.875315 -0.390870  0.071298 0.628215 1 64 1.000000
0  -4.125000 -11.097854 -1.904501  0.284683 0.875315 -0.390870  0.071298 0.628222 1 64 1.000000
0  -4.193289 -11.088745 -1.933846  0.284683 0.875315 -0.390870  0.071292 0.628208 1 64 1.000000
lowpoly_plastic
0  -4.125000 -11.097854 -1.904501  0.284693 0.875352 -0.390779  0.071298 0.628222 1 64 1.000000
0  -4.125000 -11.191243 -2.113691  0.284693 0.875352 -0.390779  0.071260 0.628222 1 64 1.000000
0  -4.193289 -11.088745 -1.933846  0.284693 0.875352 -0.390779  0.071292 0.628208 1 64 1.000000
lowpoly_plastic
0  -4.193289 -11.088745 -1.933846  -0.679019 -0.262388 0.685628  0.072350 0.628069 1 64 1.000000
0  -4.193289 -11.387623 -2.048229  -0.679019 -0.262388 0.685628  0.072350 0.628132 1 64 1.000000
0  -4.160139 -11.414216 -2.025576  -0.679019 -0.262388 0.685628  0.072344 0.628135 1 64 1.000000
lowpoly_plastic
0  -4.160139 -11.414216 -2.025576  -0.679028 0.262388 -0.685619  0.073296 0.625402 1 64 1.000000
0  -4.193289 -11.409542 -1.990955  -0.679028 0.262388 -0.685619  0.073290 0.625399 1 64 1.000000
0  -4.193289 -11.110664 -1.876572  -0.679028 0.262388 -0.685619  0.073290 0.625336 1 64 1.000000
lowpoly_plastic
0  -3.234100 -10.075414 -5.029305  -1.000000 0.000002 0.000000  0.073056 0.626021 1 64 1.000000
0  -3.234100 -10.284603 -4.935915  -1.000000 0.000002 0.000000  0.073010 0.626021 1 64 1.000000
0  -3.234100 -10.191214 -4.726726  -1.000000 0.000002 0.000000  0.073010 0.625976 1 64 1.000000
lowpoly_plastic
0  -3.234100 -10.284603 -4.935915  0.000000 -0.913135 0.407658  0.070473 0.628287 1 64 1.000000
0  -2.959780 -10.284603 -4.935915  0.000000 -0.913135 0.407658  0.070473 0.628233 1 64 1.000000
0  -2.959780 -10.191213 -4.726726  0.000000 -0.913135 0.407658  0.070510 0.628233 1 64 1.000000
lowpoly_plastic
0  -2.959780 -10.075413 -5.029305  -0.000003 0.913142 -0.407642  0.070630 0.628261 1 64 1.000000
0  -3.234100 -10.075414 -5.029305  -0.000003 0.913142 -0.407642  0.070630 0.628207 1 64 1.000000
0  -3.234100 -9.982024 -4.820116  -0.000003 0.913142 -0.407642  0.070668 0.628207 1 64 1.000000
lowpoly_plastic
0  -3.234100 -10.284603 -4.935915  0.000001 -0.407654 -0.913136  0.071473 0.628224 1 64 1.000000
0  -3.234100 -10.075414 -5.029305  0.000001 -0.407654 -0.913136  0.071507 0.628224 1 64 1.000000
0  -2.959780 -10.075413 -5.029305  0.000001 -0.407654 -0.913136  0.071507 0.628278 1 64 1.000000
lowpoly_plastic
0  -2.959780 -10.191213 -4.726726  -0.000002 0.407654 0.913136  0.073385 0.627816 1 64 1.000000
0  -2.959780 -9.982023 -4.820116  -0.000002 0.407654 0.913136  0.073419 0.627816 1 64 1.000000
0  -3.234100 -9.982024 -4.820116  -0.000002 0.407654 0.913136  0.073419 0.627870 1 64 1.000000
lowpoly_plastic
0  -2.959780 -9.982023 -4.820116  -0.284673 0.390788 0.875355  0.073419 0.627816 1 64 1.000000
0  -2.959780 -10.191213 -4.726726  -0.284673 0.390788 0.875355  0.073385 0.627816 1 64 1.000000
0  -2.891491 -9.994833 -4.792187  -0.284673 0.390788 0.875355  0.073418 0.627802 1 64 1.000000
lowpoly_plastic
0  -2.959780 -10.191213 -4.726726  -0.284704 0.390787 0.875345  0.073385 0.627816 1 64 1.000000
0  -2.891491 -10.201464 -4.699940  -0.284704 0.390787 0.875345  0.073385 0.627802 1 64 1.000000
0  -2.891491 -9.994833 -4.792187  -0.284704 0.390787 0.875345  0.073418 0.627802 1 64 1.000000
lowpoly_plastic
0  -2.959780 -10.191213 -4.726726  -0.284686 -0.875350 0.390788  0.070510 0.628233 1 64 1.000000
0  -2.959780 -10.284603 -4.935915  -0.284686 -0.875350 0.390788  0.070473 0.628233 1 64 1.000000
0  -2.891491 -10.293711 -4.906570  -0.284686 -0.875350 0.390788  0.070479 0.628219 1 64 1.000000
lowpoly_plastic
0  -2.959780 -10.284603 -4.935915  -0.284687 -0.875352 0.390783  0.070473 0.628233 1 64 1.000000
0  -2.924641 -10.298386 -4.941190  -0.284687 -0.875352 0.390783  0.070473 0.628226 1 64 1.000000
0  -2.891491 -10.293711 -4.906570  -0.284687 -0.875352 0.390783  0.070479 0.628219 1 64 1.000000
lowpoly_plastic
0  -2.959780 -10.284603 -4.935915  -0.284673 -0.390788 -0.875355  0.071473 0.628278 1 64 1.000000
0  -2.959780 -10.075413 -5.029305  -0.284673 -0.390788 -0.875355  0.071507 0.628278 1 64 1.000000
0  -2.891491 -10.271791 -4.963844  -0.284673 -0.390788 -0.875355  0.071474 0.628292 1 64 1.000000
lowpoly_plastic
0  -2.959780 -10.075413 -5.029305  -0.284699 -0.390790 -0.875346  0.071507 0.628278 1 64 1.000000
0  -2.891491 -10.065161 -5.056092  -0.284699 -0.390790 -0.875346  0.071507 0.628292 1 64 1.000000
0  -2.891491 -10.271791 -4.963844  -0.284699 -0.390790 -0.875346  0.071474 0.628292 1 64 1.000000
lowpoly_plastic
0  -2.959780 -10.075413 -5.029305  -0.284703 0.875347 -0.390784  0.070630 0.628261 1 64 1.000000
0  -2.959780 -9.982023 -4.820116  -0.284703 0.875347 -0.390784  0.070668 0.628261 1 64 1.000000
0  -2.891491 -9.972914 -4.849461  -0.284703 0.875347 -0.390784  0.070662 0.628274 1 64 1.000000
lowpoly_plastic
0  -2.959780 -9.982023 -4.820116  -0.284698 0.875351 -0.390778  0.070668 0.628261 1 64 1.000000
0  -2.924642 -9.968240 -4.814841  -0.284698 0.875351 -0.390778  0.070668 0.628268 1 64 1.000000
0  -2.891491 -9.972914 -4.849461  -0.284698 0.875351 -0.390778  0.070662 0.628274 1 64 1.000000
lowpoly_plastic
0  -2.891491 -9.972914 -4.849461  0.679028 -0.262397 0.685615  0.073453 0.626868 1 64 1.000000
0  -2.924642 -9.968240 -4.814841  0.679028 -0.262397 0.685615  0.073459 0.626865 1 64 1.000000
0  -2.924641 -10.298386 -4.941190  0.679028 -0.262397 0.685615  0.073459 0.626935 1 64 1.000000
lowpoly_plastic
0  -2.924641 -10.298386 -4.941190  0.679022 0.262398 -0.685621  0.073447 0.626690 1 64 1.000000
0  -2.924642 -9.968240 -4.814841  0.679022 0.262398 -0.685621  0.073447 0.626620 1 64 1.000000
0  -2.891491 -9.994833 -4.792187  0.679022 0.262398 -0.685621  0.073453 0.626624 1 64 1.000000
lowpoly_plastic
0  -3.234099 -11.191243 -2.113691  -1.000000 -0.000002 0.000000  0.073229 0.624796 1 64 1.000000
0  -3.234099 -11.400434 -2.020301  -1.000000 -0.000002 0.000000  0.073229 0.624751 1 64 1.000000
0  -3.234099 -11.307043 -1.811111  -1.000000 -0.000002 0.000000  0.073274 0.624751 1 64 1.000000
lowpoly_plastic
0  -3.234099 -11.400434 -2.020301  0.000003 -0.913136 0.407654  0.070430 0.628287 1 64 1.000000
0  -2.959779 -11.400433 -2.020301  0.000003 -0.913136 0.407654  0.070430 0.628233 1 64 1.000000
0  -2.959779 -11.307042 -1.811111  0.000003 -0.913136 0.407654  0.070467 0.628233 1 64 1.000000
lowpoly_plastic
0  -2.959779 -11.191242 -2.113691  -0.000002 0.913140 -0.407647  0.071304 0.628263 1 64 1.000000
0  -3.234099 -11.191243 -2.113691  -0.000002 0.913140 -0.407647  0.071304 0.628208 1 64 1.000000
0  -3.234099 -11.097854 -1.904501  -0.000002 0.913140 -0.407647  0.071342 0.628208 1 64 1.000000
lowpoly_plastic
0  -3.234099 -11.400434 -2.020301  0.000002 -0.407658 -0.913134  0.070286 0.628221 1 64 1.000000
0  -3.234099 -11.191243 -2.113691  0.000002 -0.407658 -0.913134  0.070320 0.628221 1 64 1.000000
0  -2.959779 -11.191242 -2.113691  0.000002 -0.407658 -0.913134  0.070320 0.628276 1 64 1.000000
lowpoly_plastic
0  -2.959779 -11.307042 -1.811111  -0.000002 0.407655 0.913136  0.071042 0.628240 1 64 1.000000
0  -2.959780 -11.097853 -1.904501  -0.000002 0.407655 0.913136  0.071075 0.628240 1 64 1.000000
0  -3.234099 -11.097854 -1.904501  -0.000002 0.407655 0.913136  0.071076 0.628295 1 64 1.000000
lowpoly_plastic
0  -2.959780 -11.097853 -1.904501  -0.284696 0.390785 0.875348  0.071075 0.628240 1 64 1.000000
0  -2.959779 -11.307042 -1.811111  -0.284696 0.390785 0.875348  0.071042 0.628240 1 64 1.000000
0  -2.891491 -11.110662 -1.876572  -0.284696 0.390785 0.875348  0.071075 0.628227 1 64 1.000000
lowpoly_plastic
0  -2.959779 -11.307042 -1.811111  -0.284688 0.390783 0.875352  0.071042 0.628240 1 64 1.000000
0  -2.891491 -11.317293 -1.784325  -0.284688 0.390783 0.875352  0.071041 0.628227 1 64 1.000000
0  -2.891491 -11.110662 -1.876572  -0.284688 0.390783 0.875352  0.071075 0.628227 1 64 1.000000
lowpoly_plastic
0  -2.959779 -11.307042 -1.811111  -0.284688 -0.875347 0.390794  0.070467 0.628233 1 64 1.000000
0  -2.959779 -11.400433 -2.020301  -0.284688 -0.875347 0.390794  0.070430 0.628233 1 64 1.000000
0  -2.891491 -11.409541 -1.990955  -0.284688 -0.875347 0.390794  0.070436 0.628219 1 64 1.000000
lowpoly_plastic
0  -2.959779 -11.400433 -2.020301  -0.284686 -0.875367 0.390752  0.070430 0.628233 1 64 1.000000
0  -2.924641 -11.414215 -2.025575  -0.284686 -0.875367 0.390752  0.070430 0.628226 1 64 1.000000
0  -2.891491 -11.409541 -1.990955  -0.284686 -0.875367 0.390752  0.070436 0.628219 1 64 1.000000
lowpoly_plastic
0  -2.959779 -11.400433 -2.020301  -0.284688 -0.390791 -0.875349  0.070286 0.628276 1 64 1.000000
0  -2.959779 -11.191242 -2.113691  -0.284688 -0.390791 -0.875349  0.070320 0.628276 1 64 1.000000
0  -2.891491 -11.387622 -2.048229  -0.284688 -0.390791 -0.875349  0.070286 0.628289 1 64 1.000000
lowpoly_plastic
0  -2.959779 -11.191242 -2.113691  -0.284695 -0.390783 -0.875350  0.070320 0.628276 1 64 1.000000
0  -2.891491 -11.180991 -2.140477  -0.284695 -0.390783 -0.875350  0.070320 0.628289 1 64 1.000000
0  -2.891491 -11.387622 -2.048229  -0.284695 -0.390783 -0.875350  0.070286 0.628289 1 64 1.000000
lowpoly_plastic
0  -2.959779 -11.191242 -2.113691  -0.284701 0.875346 -0.390788  0.071304 0.628263 1 64 1.000000
0  -2.959780 -11.097853 -1.904501  -0.284701 0.875346 -0.390788  0.071342 0.628263 1 64 1.000000
0  -2.891491 -11.088743 -1.933846  -0.284701 0.875346 -0.390788  0.071336 0.628276 1 64 1.000000
lowpoly_plastic
0  -2.959780 -11.097853 -1.904501  -0.284697 0.875353 -0.390775  0.071342 0.628263 1 64 1.000000
0  -2.924641 -11.084069 -1.899226  -0.284697 0.875353 -0.390775  0.071342 0.628270 1 64 1.000000
0  -2.891491 -11.088743 -1.933846  -0.284697 0.875353 -0.390775  0.071336 0.628276 1 64 1.000000
lowpoly_plastic
0  -2.891491 -11.088743 -1.933846  0.679025 -0.262395 0.685619  0.073455 0.628068 1 64 1.000000
0  -2.924641 -11.084069 -1.899226  0.679025 -0.262395 0.685619  0.073461 0.628066 1 64 1.000000
0  -2.924641 -11.414215 -2.025575  0.679025 -0.262395 0.685619  0.073461 0.628135 1 64 1.000000
lowpoly_plastic
0  -2.924641 -11.414215 -2.025575  0.679025 0.262394 -0.685620  0.073447 0.626494 1 64 1.000000
0  -2.924641 -11.084069 -1.899226  0.679025 0.262394 -0.685620  0.073447 0.626424 1 64 1.000000
0  -2.891491 -11.110662 -1.876572  0.679025 0.262394 -0.685620  0.073453 0.626428 1 64 1.000000
end
