version 1
nodes
0 "ValveBiped.Bip01_Spine4" -1
1 "ValveBiped.Bip01_L_Clavicle" 0
2 "ValveBiped.Bip01_L_UpperArm" 1
3 "ValveBiped.Bip01_L_Forearm" 2
4 "ValveBiped.Bip01_L_Hand" 3
5 "ValveBiped.Bip01_L_Finger4" 4
6 "ValveBiped.Bip01_L_Finger41" 5
7 "ValveBiped.Bip01_L_Finger42" 6
8 "ValveBiped.Bip01_L_Finger3" 4
9 "ValveBiped.Bip01_L_Finger31" 8
10 "ValveBiped.Bip01_L_Finger32" 9
11 "ValveBiped.Bip01_L_Finger2" 4
12 "ValveBiped.Bip01_L_Finger21" 11
13 "ValveBiped.Bip01_L_Finger22" 12
14 "ValveBiped.Bip01_L_Finger1" 4
15 "ValveBiped.Bip01_L_Finger11" 14
16 "ValveBiped.Bip01_L_Finger12" 15
17 "ValveBiped.Bip01_L_Finger0" 4
18 "ValveBiped.Bip01_L_Finger01" 17
19 "ValveBiped.Bip01_L_Finger02" 18
20 "ValveBiped.Bip01_L_Ulna" 3
21 "ValveBiped.Bip01_L_Wrist" 3
22 "rig_l_upperarm" 1
23 "rig_l_forearm" 22
24 "rig_d_l_forearm" 23
25 "rig_d_l_upperarm" 22
26 "ValveBiped.Bip01_R_Clavicle" 0
27 "ValveBiped.Bip01_R_UpperArm" 26
28 "ValveBiped.Bip01_R_Forearm" 27
29 "ValveBiped.Bip01_R_Hand" 28
30 "ValveBiped.Bip01_R_Finger4" 29
31 "ValveBiped.Bip01_R_Finger41" 30
32 "ValveBiped.Bip01_R_Finger42" 31
33 "ValveBiped.Bip01_R_Finger3" 29
34 "ValveBiped.Bip01_R_Finger31" 33
35 "ValveBiped.Bip01_R_Finger32" 34
36 "ValveBiped.Bip01_R_Finger2" 29
37 "ValveBiped.Bip01_R_Finger21" 36
38 "ValveBiped.Bip01_R_Finger22" 37
39 "ValveBiped.Bip01_R_Finger1" 29
40 "ValveBiped.Bip01_R_Finger11" 39
41 "ValveBiped.Bip01_R_Finger12" 40
42 "ValveBiped.Bip01_R_Finger0" 29
43 "ValveBiped.Bip01_R_Finger01" 42
44 "ValveBiped.Bip01_R_Finger02" 43
45 "ValveBiped.Bip01_R_Ulna" 28
46 "ValveBiped.Bip01_R_Wrist" 28
47 "rig_r_upperarm" 26
48 "rig_r_forearm" 47
49 "rig_d_r_forearm" 48
50 "rig_d_r_upperarm" 47
51 "rig_r_hand" -1
52 "rig_d_r_hand" 51
53 "rig_d_r_wrist" 52
54 "rig_l_hand" -1
55 "rig_d_l_hand" 54
56 "rig_d_l_wrist" 54
57 "rig_l_pole" -1
58 "rig_r_pole" -1
59 "rig_l_clavicle" -1
60 "rig_d_l_clavicle" 59
61 "rig_r_clavicle" -1
62 "rig_d_r_clavicle" 61
63 "Camera" -1
64 "body" -1
65 "trigger" 64
66 "bullet1" 64
67 "slide" 64
68 "hammer" 64
69 "sliderelease" 64
70 "barrel" 64
71 "slidesg" 64
72 "grip_safety" 64
73 "safety" 64
74 "magrelease" 64
75 "sg_round" -1
76 "mag" -1
77 "bullet2" 76
78 "bullet3" 76
79 "bullet4" 78
80 "bullet5" 78
81 "bullet6" 78
82 "bullet7" 78
83 "bullet8" 78
84 "bullet9" 78
85 "bullet10" 78
86 "springstart" 76
87 "springend" 86
88 "sg_shell" -1
end
skeleton
time 0
0  0.000006 0.000000 0.000000  -1.570800 -1.391899 -1.570792
1  2.033349 1.000767 1.937657  -1.544956 -1.855077 -0.198630
2  6.027519 -0.000325 0.000208  -2.143567 0.785018 -0.668631
3  11.692112 0.000645 -0.000737  -0.000081 -0.000003 -1.062457
4  11.480341 -0.000210 -0.000731  1.977908 0.206141 0.313878
5  3.859507 -0.142824 -1.192079  -0.468169 0.151546 -0.880257
6  1.312591 0.000011 0.000008  -0.000027 0.000044 -0.439740
7  0.729356 0.000054 0.000049  0.000017 0.000021 -0.244317
8  3.942145 0.046328 -0.431542  -0.151817 0.073216 -0.811086
9  1.539110 0.000084 0.000004  -0.000007 0.000021 -0.247842
10  1.196333 0.000143 0.000029  0.000011 0.000018 -0.430770
11  3.883516 -0.047213 0.431351  0.085894 0.021858 -0.587909
12  1.719572 -0.000031 0.000017  0.000015 0.005518 -0.366533
13  1.209181 0.000090 0.000012  0.000004 0.003091 -0.216438
14  3.859681 -0.138419 1.332380  0.354466 -0.042717 -0.531784
15  1.719448 -0.000020 0.000028  0.000028 0.004066 -0.363025
16  1.099676 0.000050 0.000005  0.000003 0.002578 -0.244381
17  0.806014 -0.349039 1.321248  -1.222694 -0.679188 -0.788867
18  1.789818 -0.000006 -0.000018  0.000011 -0.000024 0.228523
19  1.207014 -0.000014 -0.000041  0.000002 -0.000008 0.362856
20  5.740633 0.000389 -0.000700  0.079065 0.000003 0.000063
21  11.481082 0.000133 -0.000803  0.075193 0.073684 0.050288
22  6.027525 -0.000330 0.000200  -2.352391 -0.091111 0.810625
23  0.000001 11.692099 -0.000007  -0.760917 -0.255891 -0.622326
24  0.000004 0.000009 -0.000000  0.868996 -0.000031 1.570739
25  0.000000 -0.000012 -0.000000  0.868960 0.000002 1.570712
26  2.033355 1.000772 -1.937609  1.473120 1.855075 -0.198639
27  6.027509 -0.000259 -0.000229  1.637176 -0.060228 -0.592196
28  11.691992 0.000163 0.000858  -0.000050 -0.000001 -0.007067
29  11.539204 0.000316 0.000816  -1.562466 0.108529 -0.061253
30  3.859438 -0.132760 1.193065  0.466290 -0.158048 -0.878823
31  1.312559 0.000023 0.000001  0.000013 -0.000043 -0.439709
32  0.729345 0.000065 -0.000027  -0.000023 -0.000019 -0.244286
33  3.942046 0.050138 0.431000  0.150091 -0.079181 -0.810189
34  1.539099 0.000006 0.000000  0.000009 -0.000007 -0.247824
35  1.196302 0.000075 -0.000004  -0.000007 -0.000009 -0.430781
36  3.883415 -0.050474 -0.431084  -0.085915 -0.026392 -0.587660
37  1.719564 -0.000085 -0.000004  -0.000006 -0.007962 -0.366486
38  1.209197 0.000034 0.000011  0.000002 -0.004461 -0.216413
39  3.859588 -0.149084 -1.331321  -0.354445 0.038578 -0.531955
40  1.719413 -0.000099 -0.000036  -0.000030 -0.006584 -0.363030
41  1.099674 0.000025 0.000006  0.000004 -0.004188 -0.244347
42  0.805982 -0.359850 -1.318338  1.221444 0.673631 -0.793558
43  1.789779 -0.000010 -0.000040  -0.000028 0.000031 0.228553
44  1.206995 -0.000006 0.000007  -0.000017 0.000020 0.362910
45  5.740573 0.000079 0.000723  0.026990 -0.000014 0.000028
46  11.492787 0.000137 0.000908  0.000504 0.000315 -0.022541
47  6.027515 -0.000273 -0.000228  0.074799 -0.634128 -2.207435
48  -0.000001 11.691977 -0.000007  -0.005397 0.000036 0.004562
49  0.000002 -0.000001 0.000001  2.272571 -0.000036 1.570860
50  -0.000008 -0.000014 0.000004  2.272645 -0.000036 1.570861
51  -22.620094 0.844507 -17.554111  -1.605366 2.379717 -0.041994
52  -0.000000 0.000001 -0.000000  0.008153 -0.000259 0.000009
53  0.000001 -0.000001 0.000000  1.565115 0.043565 -0.106862
54  22.730511 4.822210 -11.506547  1.605712 0.761853 0.042358
55  0.000000 -0.000002 -0.000000  0.000000 -0.000001 -0.000002
56  0.000031 0.000027 0.000001  -1.571901 -0.044449 -0.106509
57  15.265023 8.339654 -8.787539  1.570796 -0.000000 0.000000
58  -15.265000 8.339654 -8.787539  1.570796 -0.000000 0.000000
59  1.941978 -1.346989 1.821586  1.570796 -0.000000 0.000000
60  -0.004311 0.001230 -0.000371  0.006898 -0.005534 -0.284229
61  -1.937603 -1.346625 1.822824  1.570796 -0.000000 0.000000
62  0.000000 0.000000 0.000000  -0.078727 -3.136056 0.284226
63  0.000000 0.000000 0.000000  1.570796 -0.000000 0.000000
64  -3.534368 -10.111034 -2.851932  1.570796 -0.000000 0.000000
65  -0.008022 0.449004 2.449477  0.000000 -0.000000 0.000000
66  -0.008021 1.798499 0.936337  0.000000 -0.000000 0.000000
67  0.000000 2.151127 2.901127  0.000000 -0.000000 0.000000
68  -0.008023 1.347420 0.085285  0.000000 -0.000000 0.000000
69  0.230628 1.332312 3.105305  0.000000 -0.000000 0.000000
70  -0.008024 2.172907 7.984051  0.000000 -0.000000 0.000000
71  -0.008022 1.228065 5.810776  0.000000 -0.000000 0.000000
72  -0.008023 1.115505 -0.313082  0.000000 -0.000000 0.000000
73  -0.008023 1.345870 0.084164  1.570796 -0.000000 -0.000000
74  -0.008023 0.197514 1.902819  0.000000 -0.000000 0.000000
75  -3.542390 -12.021312 -0.689985  1.570796 -0.000000 0.000000
76  -3.534368 -10.839828 -0.901454  1.570796 -0.000000 0.000000
77  -0.008021 -0.653745 0.060182  0.000000 -0.000000 0.000000
78  -0.008021 -1.155510 -0.087180  0.000000 -0.000000 0.000000
79  0.000000 -0.501765 -0.147367  0.000000 -0.000000 0.000000
80  0.000000 -1.003531 -0.294728  0.000000 -0.000000 0.000000
81  0.000000 -1.505297 -0.442090  0.000000 -0.000000 0.000000
82  0.000000 -2.007061 -0.589454  0.000000 -0.000000 0.000000
83  0.000000 -2.508827 -0.736814  0.000000 -0.000000 0.000000
84  0.000000 -2.772560 -0.939010  0.000000 -0.000000 0.000000
85  0.000000 -3.071457 -1.220325  0.000000 -0.000000 0.000000
86  -0.283371 -4.518086 -0.534134  0.346743 -0.000000 -0.000000
87  -0.000000 4.582804 -0.219900  -0.051302 0.000000 0.000000
88  -3.542390 -12.021312 -0.689985  1.570796 -0.000000 0.000000
end
triangles
lowpoly_plastic
0  -3.287084 -10.382462 -0.194054  0.000000 -0.001550 -0.999999  0.036244 0.783644 1 67 1.000000
0  -3.828867 -10.862037 -0.193311  0.000000 -0.001550 -0.999999  0.036220 0.783617 1 67 1.000000
0  -3.797508 -10.382462 -0.194054  0.000000 -0.001550 -0.999999  0.036244 0.783619 1 67 1.000000
lowpoly_plastic
0  -3.255737 -11.307552 -0.278683  0.000000 -0.892051 0.451935  0.006932 0.762593 1 67 1.000000
0  -3.828854 -11.264626 -0.193953  0.000000 -0.892051 0.451935  0.006928 0.762565 1 67 1.000000
0  -3.828854 -11.307552 -0.278683  0.000000 -0.892051 0.451935  0.006932 0.762565 1 67 1.000000
lowpoly_plastic
0  -3.255737 -10.822258 -0.278683  1.000000 0.000000 0.000000  0.005770 0.764120 1 67 1.000000
0  -3.255737 -11.264626 -0.193953  1.000000 0.000000 0.000000  0.005777 0.764141 1 67 1.000000
0  -3.255737 -11.307552 -0.278683  1.000000 0.000000 0.000000  0.005773 0.764143 1 67 1.000000
lowpoly_plastic
0  -3.255737 -11.307552 -0.278683  0.000000 -0.000000 -1.000000  0.006830 0.764115 1 67 1.000000
0  -3.828854 -10.822258 -0.278683  0.000000 -0.000000 -1.000000  0.006854 0.764086 1 67 1.000000
0  -3.255737 -10.822258 -0.278683  0.000000 -0.000000 -1.000000  0.006854 0.764115 1 67 1.000000
lowpoly_plastic
0  -3.805048 -10.411933 -0.109691  -0.963544 0.001287 0.267547  0.006908 0.763677 1 67 1.000000
0  -3.819451 -10.393781 -0.161651  -0.963544 0.001287 0.267547  0.006911 0.763676 1 67 1.000000
0  -3.828867 -10.862037 -0.193311  -0.963544 0.001287 0.267547  0.006909 0.763699 1 67 1.000000
lowpoly_plastic
0  -3.279543 -11.225220 -0.147505  0.875672 -0.053124 0.479975  0.005779 0.764139 1 67 1.000000
0  -3.305389 -10.445349 -0.014027  0.875672 -0.053124 0.479975  0.005781 0.764100 1 67 1.000000
0  -3.298261 -11.193974 -0.109898  0.875672 -0.053124 0.479975  0.005781 0.764137 1 67 1.000000
lowpoly_plastic
0  -3.805048 -11.225220 -0.147505  -0.027806 -0.755187 0.654919  0.006925 0.762566 1 67 1.000000
0  -3.828854 -11.264626 -0.193953  -0.027806 -0.755187 0.654919  0.006928 0.762565 1 67 1.000000
0  -3.648182 -11.225220 -0.140845  -0.027806 -0.755187 0.654919  0.006925 0.762574 1 67 1.000000
lowpoly_plastic
0  -3.786330 -11.193974 -0.109898  -0.444354 -0.123801 0.887256  0.006935 0.763314 1 67 1.000000
0  -3.722926 -11.164131 -0.073980  -0.444354 -0.123801 0.887256  0.006931 0.763313 1 67 1.000000
0  -3.722926 -10.691553 -0.008041  -0.444354 -0.123801 0.887256  0.006932 0.763289 1 67 1.000000
lowpoly_plastic
0  -3.436409 -11.225220 -0.140845  0.021530 -0.749973 0.661118  0.006925 0.762584 1 67 1.000000
0  -3.298261 -11.193974 -0.109898  0.021530 -0.749973 0.661118  0.006923 0.762591 1 67 1.000000
0  -3.361665 -11.164131 -0.073980  0.021530 -0.749973 0.661118  0.006921 0.762588 1 67 1.000000
lowpoly_plastic
0  -3.255737 -11.264626 -0.193953  0.027805 -0.755174 0.654934  0.006928 0.762593 1 67 1.000000
0  -3.279543 -11.225220 -0.147505  0.027805 -0.755174 0.654934  0.006925 0.762592 1 67 1.000000
0  -3.436409 -11.225220 -0.140845  0.027805 -0.755174 0.654934  0.006925 0.762584 1 67 1.000000
lowpoly_plastic
0  -3.255737 -11.264626 -0.193953  0.000000 -0.803065 0.595892  0.006928 0.762593 1 67 1.000000
0  -3.648182 -11.225220 -0.140845  0.000000 -0.803065 0.595892  0.006925 0.762574 1 67 1.000000
0  -3.828854 -11.264626 -0.193953  0.000000 -0.803065 0.595892  0.006928 0.762565 1 67 1.000000
lowpoly_plastic
0  -3.805048 -11.225220 -0.147505  -0.000015 -0.769147 0.639072  0.006925 0.762566 1 67 1.000000
0  -3.722926 -11.164131 -0.073980  -0.000015 -0.769147 0.639072  0.006921 0.762570 1 67 1.000000
0  -3.786330 -11.193974 -0.109898  -0.000015 -0.769147 0.639072  0.006923 0.762567 1 67 1.000000
lowpoly_plastic
0  -3.578663 -10.712341 -0.094300  0.869699 -0.074536 0.487922  0.055840 0.800880 1 67 1.000000
0  -3.625276 -10.497027 0.021675  0.869699 -0.074536 0.487922  0.055844 0.800869 1 67 1.000000
0  -3.625275 -10.691553 -0.008041  0.869699 -0.074536 0.487922  0.055844 0.800879 1 67 1.000000
lowpoly_plastic
0  -3.828854 -11.307552 -0.278683  -1.000000 0.000000 -0.000154  0.006911 0.763721 1 67 1.000000
0  -3.828867 -10.862037 -0.193311  -1.000000 0.000000 -0.000154  0.006909 0.763699 1 67 1.000000
0  -3.828854 -10.822258 -0.278683  -1.000000 0.000000 -0.000154  0.006914 0.763698 1 67 1.000000
lowpoly_plastic
0  -3.459316 -10.691553 -0.008041  -0.870724 -0.068374 0.486995  0.055840 0.800867 1 67 1.000000
0  -3.505928 -10.497027 -0.064070  -0.870724 -0.068374 0.486995  0.055844 0.800858 1 67 1.000000
0  -3.505928 -10.712341 -0.094300  -0.870724 -0.068374 0.486995  0.055844 0.800869 1 67 1.000000
lowpoly_plastic
0  -3.786330 -11.193974 -0.109898  -0.887845 -0.021371 0.459646  0.006903 0.763715 1 67 1.000000
0  -3.805048 -10.411933 -0.109691  -0.887845 -0.021371 0.459646  0.006908 0.763677 1 67 1.000000
0  -3.805048 -11.225220 -0.147505  -0.887845 -0.021371 0.459646  0.006905 0.763717 1 67 1.000000
lowpoly_plastic
0  -3.279543 -11.225220 -0.147505  0.934673 -0.016511 0.355124  0.005779 0.764139 1 67 1.000000
0  -3.255724 -10.862037 -0.193311  0.934673 -0.016511 0.355124  0.005774 0.764121 1 67 1.000000
0  -3.279543 -10.411933 -0.109691  0.934673 -0.016511 0.355124  0.005776 0.764099 1 67 1.000000
lowpoly_plastic
0  -3.505928 -10.712341 -0.094300  0.000000 -0.139037 0.990287  0.055861 0.800130 1 67 1.000000
0  -3.578663 -10.497027 -0.064070  0.000000 -0.139037 0.990287  0.055864 0.800120 1 67 1.000000
0  -3.578663 -10.712341 -0.094300  0.000000 -0.139037 0.990287  0.055864 0.800130 1 67 1.000000
lowpoly_plastic
0  -3.648182 -10.712341 -0.140845  0.000000 -0.987970 0.154644  0.055801 0.800142 1 67 1.000000
0  -3.625275 -10.691553 -0.008041  0.000000 -0.987970 0.154644  0.055794 0.800143 1 67 1.000000
0  -3.722926 -10.691553 -0.008041  0.000000 -0.987970 0.154644  0.055794 0.800138 1 67 1.000000
lowpoly_plastic
0  -3.797508 -10.382462 -0.194054  0.000031 0.944051 0.329800  0.006922 0.762291 1 67 1.000000
0  -3.819451 -10.393781 -0.161651  0.000031 0.944051 0.329800  0.006923 0.762290 1 67 1.000000
0  -3.805048 -10.411933 -0.109691  0.000031 0.944051 0.329800  0.006926 0.762291 1 67 1.000000
lowpoly_plastic
0  -3.361665 -11.164131 -0.073980  0.444355 -0.123800 0.887255  0.006930 0.763276 1 67 1.000000
0  -3.298261 -11.193974 -0.109898  0.444355 -0.123800 0.887255  0.006927 0.763277 1 67 1.000000
0  -3.361665 -10.691553 -0.008041  0.444355 -0.123800 0.887255  0.006930 0.763252 1 67 1.000000
lowpoly_plastic
0  -3.668228 -10.497279 -0.019380  0.003652 0.999993 0.000592  0.018172 0.808357 1 67 1.000000
0  -3.722944 -10.497027 -0.107055  0.003652 0.999993 0.000592  0.018157 0.808347 1 67 1.000000
0  -3.722944 -10.497104 0.021781  0.003652 0.999993 0.000592  0.018179 0.808347 1 67 1.000000
lowpoly_plastic
0  -3.298261 -11.193974 -0.109898  0.536215 -0.102196 0.837872  0.006927 0.763277 1 67 1.000000
0  -3.305389 -10.445349 -0.014027  0.536215 -0.102196 0.837872  0.006927 0.763240 1 67 1.000000
0  -3.361665 -10.691553 -0.008041  0.536215 -0.102196 0.837872  0.006930 0.763252 1 67 1.000000
lowpoly_plastic
0  -3.828854 -10.822258 -0.278683  0.000000 0.906431 0.422353  0.037716 0.783701 1 67 1.000000
0  -3.255724 -10.862037 -0.193311  0.000000 0.906431 0.422353  0.037721 0.783729 1 67 1.000000
0  -3.255737 -10.822258 -0.278683  0.000000 0.906431 0.422353  0.037716 0.783729 1 67 1.000000
lowpoly_plastic
0  -3.255724 -10.862037 -0.193311  0.835426 0.053782 -0.546965  0.005774 0.764121 1 67 1.000000
0  -3.287084 -10.382462 -0.194054  0.835426 0.053782 -0.546965  0.005772 0.764098 1 67 1.000000
0  -3.265140 -10.393781 -0.161651  0.835426 0.053782 -0.546965  0.005773 0.764098 1 67 1.000000
lowpoly_plastic
0  -3.797508 -10.382462 -0.194054  -0.835424 0.053782 -0.546968  0.006912 0.763676 1 67 1.000000
0  -3.828867 -10.862037 -0.193311  -0.835424 0.053782 -0.546968  0.006909 0.763699 1 67 1.000000
0  -3.819451 -10.393781 -0.161651  -0.835424 0.053782 -0.546968  0.006911 0.763676 1 67 1.000000
lowpoly_metal
0  -3.564947 -11.066343 -0.140845  0.392507 -0.696622 0.600546  0.061424 0.627797 1 67 1.000000
0  -3.470234 -11.003967 -0.130393  0.392507 -0.696622 0.600546  0.061426 0.627780 1 67 1.000000
0  -3.561992 -11.055668 -0.130393  0.392507 -0.696622 0.600546  0.061426 0.627796 1 67 1.000000
lowpoly_plastic
0  -3.361647 -10.459248 0.025759  0.014851 0.937221 0.348420  0.006933 0.762312 1 67 1.000000
0  -3.305389 -10.445349 -0.014027  0.014851 0.937221 0.348420  0.006931 0.762315 1 67 1.000000
0  -3.361647 -10.409159 -0.108980  0.014851 0.937221 0.348420  0.006926 0.762312 1 67 1.000000
lowpoly_plastic
0  -3.722944 -10.409159 -0.108980  0.000000 0.954122 0.299418  0.006926 0.762295 1 67 1.000000
0  -3.287084 -10.382462 -0.194054  0.000000 0.954122 0.299418  0.006922 0.762316 1 67 1.000000
0  -3.797508 -10.382462 -0.194054  0.000000 0.954122 0.299418  0.006922 0.762291 1 67 1.000000
lowpoly_plastic
0  -3.779202 -10.445349 -0.014027  0.000032 0.944079 0.329720  0.006931 0.762292 1 67 1.000000
0  -3.722944 -10.459248 0.025759  0.000032 0.944079 0.329720  0.006933 0.762295 1 67 1.000000
0  -3.805048 -10.411933 -0.109691  0.000032 0.944079 0.329720  0.006926 0.762291 1 67 1.000000
lowpoly_plastic
0  -3.436409 -10.712341 -0.140845  0.000000 -1.000000 0.000000  0.055801 0.800152 1 67 1.000000
0  -3.578663 -10.712341 -0.094300  0.000000 -1.000000 0.000000  0.055799 0.800145 1 67 1.000000
0  -3.648182 -10.712341 -0.140845  0.000000 -1.000000 0.000000  0.055801 0.800142 1 67 1.000000
lowpoly_plastic
0  -3.305389 -10.445349 -0.014027  0.034709 0.940533 0.337923  0.006931 0.762315 1 67 1.000000
0  -3.279543 -10.411933 -0.109691  0.034709 0.940533 0.337923  0.006926 0.762316 1 67 1.000000
0  -3.361647 -10.409159 -0.108980  0.034709 0.940533 0.337923  0.006926 0.762312 1 67 1.000000
lowpoly_plastic
0  -3.805048 -10.411933 -0.109691  -0.034670 0.936757 0.348259  0.006926 0.762291 1 67 1.000000
0  -3.722944 -10.459248 0.025759  -0.034670 0.936757 0.348259  0.006933 0.762295 1 67 1.000000
0  -3.722944 -10.409159 -0.108980  -0.034670 0.936757 0.348259  0.006926 0.762295 1 67 1.000000
lowpoly_plastic
0  -3.361665 -11.164131 -0.073980  -0.666733 -0.000000 0.745296  0.055678 0.801542 1 67 1.000000
0  -3.436409 -10.712341 -0.140845  -0.666733 -0.000000 0.745296  0.055684 0.801521 1 67 1.000000
0  -3.436409 -11.225220 -0.140845  -0.666733 -0.000000 0.745296  0.055681 0.801546 1 67 1.000000
lowpoly_plastic
0  -3.279543 -10.411933 -0.109691  -0.000031 0.944044 0.329818  0.006926 0.762316 1 67 1.000000
0  -3.265140 -10.393781 -0.161651  -0.000031 0.944044 0.329818  0.006923 0.762317 1 67 1.000000
0  -3.287084 -10.382462 -0.194054  -0.000031 0.944044 0.329818  0.006922 0.762316 1 67 1.000000
lowpoly_plastic
0  -3.361665 -10.691553 -0.008041  0.075418 -0.990769 0.112643  0.055794 0.800156 1 67 1.000000
0  -3.505928 -10.712341 -0.094300  0.075418 -0.990769 0.112643  0.055799 0.800149 1 67 1.000000
0  -3.436409 -10.712341 -0.140845  0.075418 -0.990769 0.112643  0.055801 0.800152 1 67 1.000000
lowpoly_plastic
0  -3.648182 -11.225220 -0.140845  0.611613 -0.109331 0.783566  0.055707 0.801546 1 67 1.000000
0  -3.722926 -10.691553 -0.008041  0.611613 -0.109331 0.783566  0.055710 0.801519 1 67 1.000000
0  -3.722926 -11.164131 -0.073980  0.611613 -0.109331 0.783566  0.055710 0.801542 1 67 1.000000
lowpoly_glow
0  -3.669260 -10.497179 -0.048692  -0.999380 -0.000103 0.035213  0.437974 0.585335 1 67 1.000000
0  -3.668227 -10.482496 -0.019330  -0.999380 -0.000103 0.035213  0.437976 0.585330 1 67 1.000000
0  -3.669260 -10.482396 -0.048643  -0.999380 -0.000103 0.035213  0.437976 0.585335 1 67 1.000000
lowpoly_glow
0  -3.416597 -10.497276 -0.020078  0.999887 -0.000034 0.015027  0.437979 0.585330 1 67 1.000000
0  -3.416156 -10.482394 -0.049347  0.999887 -0.000034 0.015027  0.437976 0.585335 1 67 1.000000
0  -3.416597 -10.482493 -0.020028  0.999887 -0.000034 0.015027  0.437976 0.585330 1 67 1.000000
lowpoly_glow
0  -3.466939 -10.497221 -0.050160  -0.999887 0.000069 -0.015026  0.437979 0.585335 1 67 1.000000
0  -3.467380 -10.482536 -0.020791  -0.999887 0.000069 -0.015026  0.437981 0.585330 1 67 1.000000
0  -3.466939 -10.482437 -0.050110  -0.999887 0.000069 -0.015026  0.437981 0.585335 1 67 1.000000
lowpoly_glow
0  -3.668228 -10.497279 -0.019380  -0.469196 -0.002990 0.883089  0.437958 0.585330 1 67 1.000000
0  -3.642326 -10.482565 -0.005569  -0.469196 -0.002990 0.883089  0.437955 0.585334 1 67 1.000000
0  -3.668227 -10.482496 -0.019330  -0.469196 -0.002990 0.883089  0.437955 0.585330 1 67 1.000000
lowpoly_plastic
0  -3.722944 -10.497104 0.021781  -0.609420 -0.120246 0.783676  0.006932 0.763280 1 67 1.000000
0  -3.779202 -10.445349 -0.014027  -0.609420 -0.120246 0.783676  0.006935 0.763277 1 67 1.000000
0  -3.722926 -10.691553 -0.008041  -0.609420 -0.120246 0.783676  0.006932 0.763289 1 67 1.000000
lowpoly_plastic
0  -3.779202 -10.445349 -0.014027  -0.536213 -0.102194 0.837873  0.006935 0.763277 1 67 1.000000
0  -3.786330 -11.193974 -0.109898  -0.536213 -0.102194 0.837873  0.006935 0.763314 1 67 1.000000
0  -3.722926 -10.691553 -0.008041  -0.536213 -0.102194 0.837873  0.006932 0.763289 1 67 1.000000
lowpoly_plastic
0  -3.361647 -10.497104 0.021781  0.609416 -0.120246 0.783679  0.006930 0.763243 1 67 1.000000
0  -3.361665 -10.691553 -0.008041  0.609416 -0.120246 0.783679  0.006930 0.763252 1 67 1.000000
0  -3.305389 -10.445349 -0.014027  0.609416 -0.120246 0.783679  0.006927 0.763240 1 67 1.000000
lowpoly_plastic
0  -3.722944 -10.497104 0.021781  -0.589191 -0.084466 0.803567  0.006932 0.763280 1 67 1.000000
0  -3.722944 -10.459248 0.025759  -0.589191 -0.084466 0.803567  0.006932 0.763278 1 67 1.000000
0  -3.779202 -10.445349 -0.014027  -0.589191 -0.084466 0.803567  0.006935 0.763277 1 67 1.000000
lowpoly_plastic
0  -3.361647 -10.497104 0.021781  0.589192 -0.084455 0.803567  0.006930 0.763243 1 67 1.000000
0  -3.305389 -10.445349 -0.014027  0.589192 -0.084455 0.803567  0.006927 0.763240 1 67 1.000000
0  -3.361647 -10.459248 0.025759  0.589192 -0.084455 0.803567  0.006930 0.763241 1 67 1.000000
lowpoly_plastic
0  -3.459316 -10.691553 -0.008041  -0.001185 -0.151011 0.988531  0.006935 0.763252 1 67 1.000000
0  -3.361647 -10.497104 0.021781  -0.001185 -0.151011 0.988531  0.006930 0.763243 1 67 1.000000
0  -3.459316 -10.497027 0.021675  -0.001185 -0.151011 0.988531  0.006934 0.763243 1 67 1.000000
lowpoly_plastic
0  -3.625275 -10.691553 -0.008041  0.000000 -0.151592 0.988443  0.006927 0.763289 1 67 1.000000
0  -3.722944 -10.497104 0.021781  0.000000 -0.151592 0.988443  0.006932 0.763280 1 67 1.000000
0  -3.722926 -10.691553 -0.008041  0.000000 -0.151592 0.988443  0.006932 0.763289 1 67 1.000000
lowpoly_plastic
0  -3.279543 -10.411933 -0.109691  0.034745 0.944452 0.326807  0.006926 0.762316 1 67 1.000000
0  -3.287084 -10.382462 -0.194054  0.034745 0.944452 0.326807  0.006922 0.762316 1 67 1.000000
0  -3.361647 -10.409159 -0.108980  0.034745 0.944452 0.326807  0.006926 0.762312 1 67 1.000000
lowpoly_plastic
0  -3.722944 -10.409159 -0.108980  -0.034745 0.944453 0.326805  0.006926 0.762295 1 67 1.000000
0  -3.797508 -10.382462 -0.194054  -0.034745 0.944453 0.326805  0.006922 0.762291 1 67 1.000000
0  -3.805048 -10.411933 -0.109691  -0.034745 0.944453 0.326805  0.006926 0.762291 1 67 1.000000
lowpoly_plastic
0  -3.644391 -10.497149 -0.064243  -0.000927 -0.999994 -0.003438  0.018165 0.808361 1 67 1.000000
0  -3.668228 -10.497279 -0.019380  -0.000927 -0.999994 -0.003438  0.018172 0.808357 1 67 1.000000
0  -3.669260 -10.497179 -0.048692  -0.000927 -0.999994 -0.003438  0.018167 0.808357 1 67 1.000000
lowpoly_plastic
0  -3.578663 -10.497027 -0.064070  -0.001874 0.999978 0.006300  0.018165 0.808372 1 67 1.000000
0  -3.722944 -10.497027 -0.107055  -0.001874 0.999978 0.006300  0.018157 0.808347 1 67 1.000000
0  -3.644391 -10.497149 -0.064243  -0.001874 0.999978 0.006300  0.018165 0.808361 1 67 1.000000
lowpoly_plastic
0  -3.578663 -10.497027 -0.064070  0.000000 1.000000 0.000000  0.018165 0.808372 1 67 1.000000
0  -3.361647 -10.497027 -0.107055  0.000000 1.000000 0.000000  0.018157 0.808409 1 67 1.000000
0  -3.722944 -10.497027 -0.107055  0.000000 1.000000 0.000000  0.018157 0.808347 1 67 1.000000
lowpoly_plastic
0  -3.361647 -10.409159 -0.108980  -1.000000 0.000007 0.000000  0.018424 0.805893 1 67 1.000000
0  -3.361647 -10.497104 0.021781  -1.000000 0.000007 0.000000  0.018409 0.805870 1 67 1.000000
0  -3.361647 -10.459248 0.025759  -1.000000 0.000007 0.000000  0.018415 0.805870 1 67 1.000000
lowpoly_plastic
0  -3.722944 -10.409159 -0.108980  0.000000 0.021901 0.999760  0.018229 0.807141 1 67 1.000000
0  -3.361647 -10.497027 -0.107055  0.000000 0.021901 0.999760  0.018244 0.807203 1 67 1.000000
0  -3.361647 -10.409159 -0.108980  0.000000 0.021901 0.999760  0.018229 0.807203 1 67 1.000000
lowpoly_plastic
0  -3.722944 -10.497104 0.021781  1.000000 0.000000 0.000000  0.018424 0.805848 1 67 1.000000
0  -3.722944 -10.409159 -0.108980  1.000000 0.000000 0.000000  0.018409 0.805870 1 67 1.000000
0  -3.722944 -10.459248 0.025759  1.000000 0.000000 0.000000  0.018418 0.805847 1 67 1.000000
lowpoly_plastic
0  -3.578663 -10.497027 -0.064070  -0.001880 0.999961 0.008675  0.018165 0.808372 1 67 1.000000
0  -3.644391 -10.497149 -0.064243  -0.001880 0.999961 0.008675  0.018165 0.808361 1 67 1.000000
0  -3.618490 -10.497219 -0.050481  -0.001880 0.999961 0.008675  0.018167 0.808365 1 67 1.000000
lowpoly_plastic
0  -3.625276 -10.497027 0.021675  -0.005909 0.999977 -0.003214  0.018179 0.808364 1 67 1.000000
0  -3.578663 -10.497027 -0.064070  -0.005909 0.999977 -0.003214  0.018165 0.808372 1 67 1.000000
0  -3.618490 -10.497219 -0.050481  -0.005909 0.999977 -0.003214  0.018167 0.808365 1 67 1.000000
lowpoly_plastic
0  -3.625276 -10.497027 0.021675  -0.006177 0.999950 -0.007893  0.018179 0.808364 1 67 1.000000
0  -3.617457 -10.497318 -0.021169  -0.006177 0.999950 -0.007893  0.018172 0.808365 1 67 1.000000
0  -3.642326 -10.497349 -0.005619  -0.006177 0.999950 -0.007893  0.018175 0.808361 1 67 1.000000
lowpoly_plastic
0  -3.642326 -10.497349 -0.005619  0.002903 0.999996 -0.000393  0.018175 0.808361 1 67 1.000000
0  -3.668228 -10.497279 -0.019380  0.002903 0.999996 -0.000393  0.018172 0.808357 1 67 1.000000
0  -3.722944 -10.497104 0.021781  0.002903 0.999996 -0.000393  0.018179 0.808347 1 67 1.000000
lowpoly_plastic
0  -3.625276 -10.497027 0.021675  -0.000793 0.999936 -0.011305  0.018179 0.808364 1 67 1.000000
0  -3.642326 -10.497349 -0.005619  -0.000793 0.999936 -0.011305  0.018175 0.808361 1 67 1.000000
0  -3.722944 -10.497104 0.021781  -0.000793 0.999936 -0.011305  0.018179 0.808347 1 67 1.000000
lowpoly_plastic
0  -3.505928 -10.497027 -0.064070  0.001911 0.999978 0.006346  0.018165 0.808385 1 67 1.000000
0  -3.441328 -10.497149 -0.064438  0.001911 0.999978 0.006346  0.018165 0.808396 1 67 1.000000
0  -3.361647 -10.497027 -0.107055  0.001911 0.999978 0.006346  0.018157 0.808409 1 67 1.000000
lowpoly_plastic
0  -3.441328 -10.497149 -0.064438  0.000016 0.999996 0.002936  0.018165 0.808396 1 67 1.000000
0  -3.416597 -10.497276 -0.020078  0.000016 0.999996 0.002936  0.018172 0.808400 1 67 1.000000
0  -3.361647 -10.497027 -0.107055  0.000016 0.999996 0.002936  0.018157 0.808409 1 67 1.000000
lowpoly_plastic
0  -3.416597 -10.497276 -0.020078  -0.003592 0.999993 0.000589  0.018172 0.808400 1 67 1.000000
0  -3.361647 -10.497104 0.021781  -0.003592 0.999993 0.000589  0.018179 0.808409 1 67 1.000000
0  -3.361647 -10.497027 -0.107055  -0.003592 0.999993 0.000589  0.018157 0.808409 1 67 1.000000
lowpoly_plastic
0  -3.505928 -10.497027 -0.064070  0.001923 0.999961 0.008618  0.018165 0.808385 1 67 1.000000
0  -3.466939 -10.497221 -0.050160  0.001923 0.999961 0.008618  0.018167 0.808391 1 67 1.000000
0  -3.441328 -10.497149 -0.064438  0.001923 0.999961 0.008618  0.018165 0.808396 1 67 1.000000
lowpoly_plastic
0  -3.459316 -10.497027 0.021675  0.006160 0.999976 -0.003318  0.018179 0.808393 1 67 1.000000
0  -3.466939 -10.497221 -0.050160  0.006160 0.999976 -0.003318  0.018167 0.808391 1 67 1.000000
0  -3.505928 -10.497027 -0.064070  0.006160 0.999976 -0.003318  0.018165 0.808385 1 67 1.000000
lowpoly_plastic
0  -3.459316 -10.497027 0.021675  0.049836 -0.998754 -0.002650  0.018179 0.808393 1 67 1.000000
0  -3.467380 -10.497319 -0.020841  0.049836 -0.998754 -0.002650  0.018172 0.808391 1 67 1.000000
0  -3.466939 -10.497221 -0.050160  0.049836 -0.998754 -0.002650  0.018167 0.808391 1 67 1.000000
lowpoly_plastic
0  -3.442209 -10.497347 -0.005800  -0.002918 0.999996 -0.000385  0.018175 0.808396 1 67 1.000000
0  -3.361647 -10.497104 0.021781  -0.002918 0.999996 -0.000385  0.018179 0.808409 1 67 1.000000
0  -3.416597 -10.497276 -0.020078  -0.002918 0.999996 -0.000385  0.018172 0.808400 1 67 1.000000
lowpoly_plastic
0  -3.459316 -10.497027 0.021675  0.000793 0.999939 -0.011053  0.018179 0.808393 1 67 1.000000
0  -3.361647 -10.497104 0.021781  0.000793 0.999939 -0.011053  0.018179 0.808409 1 67 1.000000
0  -3.442209 -10.497347 -0.005800  0.000793 0.999939 -0.011053  0.018175 0.808396 1 67 1.000000
lowpoly_plastic
0  -3.564947 -11.066343 -0.140845  0.000000 0.000000 1.000000  0.055598 0.801507 1 67 1.000000
0  -3.648182 -11.225220 -0.140845  0.000000 0.000000 1.000000  0.055602 0.801515 1 67 1.000000
0  -3.436409 -11.225220 -0.140845  0.000000 0.000000 1.000000  0.055592 0.801515 1 67 1.000000
lowpoly_plastic
0  -3.625170 -10.962156 -0.140845  0.000001 0.000000 1.000000  0.055601 0.801502 1 67 1.000000
0  -3.648182 -10.712341 -0.140845  0.000001 0.000000 1.000000  0.055602 0.801490 1 67 1.000000
0  -3.648182 -11.225220 -0.140845  0.000001 0.000000 1.000000  0.055602 0.801515 1 67 1.000000
lowpoly_plastic
0  -3.519644 -10.902697 -0.140845  0.000000 0.000000 1.000000  0.055596 0.801499 1 67 1.000000
0  -3.436409 -10.712341 -0.140845  0.000000 0.000000 1.000000  0.055592 0.801490 1 67 1.000000
0  -3.648182 -10.712341 -0.140845  0.000000 0.000000 1.000000  0.055602 0.801490 1 67 1.000000
lowpoly_plastic
0  -3.459421 -11.006885 -0.140845  0.000001 0.000000 1.000000  0.055593 0.801504 1 67 1.000000
0  -3.436409 -11.225220 -0.140845  0.000001 0.000000 1.000000  0.055592 0.801515 1 67 1.000000
0  -3.436409 -10.712341 -0.140845  0.000001 0.000000 1.000000  0.055592 0.801490 1 67 1.000000
lowpoly_plastic
0  -3.519644 -10.902697 -0.140845  -0.000001 0.000000 1.000000  0.055596 0.801499 1 67 1.000000
0  -3.459421 -11.006885 -0.140845  -0.000001 0.000000 1.000000  0.055593 0.801504 1 67 1.000000
0  -3.436409 -10.712341 -0.140845  -0.000001 0.000000 1.000000  0.055592 0.801490 1 67 1.000000
lowpoly_plastic
0  -3.625170 -10.962156 -0.140845  0.000000 0.000000 1.000000  0.055601 0.801502 1 67 1.000000
0  -3.519644 -10.902697 -0.140845  0.000000 0.000000 1.000000  0.055596 0.801499 1 67 1.000000
0  -3.648182 -10.712341 -0.140845  0.000000 0.000000 1.000000  0.055602 0.801490 1 67 1.000000
lowpoly_plastic
0  -3.564947 -11.066343 -0.140845  -0.000000 0.000000 1.000000  0.055598 0.801507 1 67 1.000000
0  -3.625170 -10.962156 -0.140845  -0.000000 0.000000 1.000000  0.055601 0.801502 1 67 1.000000
0  -3.648182 -11.225220 -0.140845  -0.000000 0.000000 1.000000  0.055602 0.801515 1 67 1.000000
lowpoly_plastic
0  -3.459421 -11.006885 -0.140845  0.000000 0.000000 1.000000  0.055593 0.801504 1 67 1.000000
0  -3.564947 -11.066343 -0.140845  0.000000 0.000000 1.000000  0.055598 0.801507 1 67 1.000000
0  -3.436409 -11.225220 -0.140845  0.000000 0.000000 1.000000  0.055592 0.801515 1 67 1.000000
lowpoly_metal
0  -3.561992 -11.055668 -0.130393  0.696405 -0.052990 0.715690  0.066362 0.729286 1 67 1.000000
0  -3.542296 -10.984520 -0.144290  0.696405 -0.052990 0.715690  0.066365 0.729298 1 67 1.000000
0  -3.556290 -10.980743 -0.130392  0.696405 -0.052990 0.715690  0.066362 0.729299 1 67 1.000000
lowpoly_metal
0  -3.519644 -10.902697 -0.140845  -0.392473 0.696547 0.600655  0.061430 0.627797 1 67 1.000000
0  -3.614357 -10.965075 -0.130393  -0.392473 0.696547 0.600655  0.061432 0.627780 1 67 1.000000
0  -3.522599 -10.913373 -0.130393  -0.392473 0.696547 0.600655  0.061432 0.627796 1 67 1.000000
lowpoly_metal
0  -3.459421 -11.006885 -0.140845  0.690674 0.399230 0.602980  0.061428 0.627796 1 67 1.000000
0  -3.522599 -10.913373 -0.130393  0.690674 0.399230 0.602980  0.061430 0.627780 1 67 1.000000
0  -3.470234 -11.003967 -0.130393  0.690674 0.399230 0.602980  0.061430 0.627796 1 67 1.000000
lowpoly_metal
0  -3.625170 -10.962156 -0.140845  -0.690707 -0.399251 0.602928  0.061426 0.627796 1 67 1.000000
0  -3.561992 -11.055668 -0.130393  -0.690707 -0.399251 0.602928  0.061428 0.627780 1 67 1.000000
0  -3.614357 -10.965075 -0.130393  -0.690707 -0.399251 0.602928  0.061428 0.627796 1 67 1.000000
lowpoly_metal
0  -3.522599 -10.913373 -0.130393  -0.696396 0.052999 0.715698  0.066130 0.729286 1 67 1.000000
0  -3.542296 -10.984520 -0.144290  -0.696396 0.052999 0.715698  0.066133 0.729298 1 67 1.000000
0  -3.528301 -10.988297 -0.130392  -0.696396 0.052999 0.715698  0.066130 0.729299 1 67 1.000000
lowpoly_metal
0  -3.522599 -10.913373 -0.130393  -0.000002 0.000003 1.000000  0.065452 0.623291 1 67 1.000000
0  -3.614357 -10.965075 -0.130393  -0.000002 0.000003 1.000000  0.065452 0.623309 1 67 1.000000
0  -3.556290 -10.980743 -0.130392  -0.000002 0.000003 1.000000  0.065445 0.623302 1 67 1.000000
lowpoly_metal
0  -3.556290 -10.980743 -0.130392  -0.000003 -0.000001 1.000000  0.065445 0.623302 1 67 1.000000
0  -3.614357 -10.965075 -0.130393  -0.000003 -0.000001 1.000000  0.065452 0.623309 1 67 1.000000
0  -3.561992 -11.055668 -0.130393  -0.000003 -0.000001 1.000000  0.065434 0.623309 1 67 1.000000
lowpoly_metal
0  -3.561992 -11.055668 -0.130393  0.000002 -0.000003 1.000000  0.065447 0.623334 1 67 1.000000
0  -3.470234 -11.003967 -0.130393  0.000002 -0.000003 1.000000  0.065434 0.623321 1 67 1.000000
0  -3.528301 -10.988297 -0.130392  0.000002 -0.000003 1.000000  0.065444 0.623321 1 67 1.000000
lowpoly_metal
0  -3.522599 -10.913373 -0.130393  0.625455 -0.312778 0.714826  0.070373 0.724798 1 67 1.000000
0  -3.556290 -10.980743 -0.130392  0.625455 -0.312778 0.714826  0.070366 0.724809 1 67 1.000000
0  -3.542296 -10.984520 -0.144290  0.625455 -0.312778 0.714826  0.070364 0.724807 1 67 1.000000
lowpoly_metal
0  -3.528301 -10.988297 -0.130392  0.000003 0.000002 1.000000  0.065444 0.623321 1 67 1.000000
0  -3.470234 -11.003967 -0.130393  0.000003 0.000002 1.000000  0.065434 0.623321 1 67 1.000000
0  -3.522599 -10.913373 -0.130393  0.000003 0.000002 1.000000  0.065447 0.623309 1 67 1.000000
lowpoly_metal
0  -3.561992 -11.055668 -0.130393  -0.625456 0.312773 0.714827  0.066131 0.729310 1 67 1.000000
0  -3.528301 -10.988297 -0.130392  -0.625456 0.312773 0.714827  0.066130 0.729299 1 67 1.000000
0  -3.542296 -10.984520 -0.144290  -0.625456 0.312773 0.714827  0.066133 0.729298 1 67 1.000000
lowpoly_glow
0  -3.642326 -10.482565 -0.005569  0.000852 0.999994 0.003333  0.437507 0.585330 1 67 1.000000
0  -3.669260 -10.482396 -0.048643  0.000852 0.999994 0.003333  0.437503 0.585337 1 67 1.000000
0  -3.668227 -10.482496 -0.019330  0.000852 0.999994 0.003333  0.437503 0.585332 1 67 1.000000
lowpoly_glow
0  -3.416597 -10.482493 -0.020028  -0.000896 0.999994 0.003362  0.437520 0.585337 1 67 1.000000
0  -3.467380 -10.482536 -0.020791  -0.000896 0.999994 0.003362  0.437516 0.585330 1 67 1.000000
0  -3.442208 -10.482565 -0.005750  -0.000896 0.999994 0.003362  0.437520 0.585332 1 67 1.000000
lowpoly_glow
0  -3.617457 -10.482536 -0.021119  0.000917 0.999994 0.003360  0.437512 0.585332 1 67 1.000000
0  -3.644391 -10.482367 -0.064193  0.000917 0.999994 0.003360  0.437507 0.585340 1 67 1.000000
0  -3.669260 -10.482396 -0.048643  0.000917 0.999994 0.003360  0.437503 0.585337 1 67 1.000000
lowpoly_glow
0  -3.416156 -10.482394 -0.049347  -0.000896 0.999994 0.003319  0.437516 0.585340 1 67 1.000000
0  -3.466939 -10.482437 -0.050110  -0.000896 0.999994 0.003319  0.437512 0.585332 1 67 1.000000
0  -3.467380 -10.482536 -0.020791  -0.000896 0.999994 0.003319  0.437516 0.585330 1 67 1.000000
lowpoly_glow
0  -3.617457 -10.497318 -0.021169  0.999380 0.000103 -0.035207  0.437984 0.585330 1 67 1.000000
0  -3.618490 -10.482436 -0.050431  0.999380 0.000103 -0.035207  0.437981 0.585335 1 67 1.000000
0  -3.617457 -10.482536 -0.021119  0.999380 0.000103 -0.035207  0.437981 0.585330 1 67 1.000000
lowpoly_glow
0  -3.642326 -10.497349 -0.005619  0.530199 -0.002852 0.847869  0.437958 0.585334 1 67 1.000000
0  -3.617457 -10.482536 -0.021119  0.530199 -0.002852 0.847869  0.437955 0.585339 1 67 1.000000
0  -3.642326 -10.482565 -0.005569  0.530199 -0.002852 0.847869  0.437955 0.585334 1 67 1.000000
lowpoly_glow
0  -3.644391 -10.497149 -0.064243  -0.530174 0.002852 -0.847884  0.437960 0.585334 1 67 1.000000
0  -3.669260 -10.482396 -0.048643  -0.530174 0.002852 -0.847884  0.437963 0.585330 1 67 1.000000
0  -3.644391 -10.482367 -0.064193  -0.530174 0.002852 -0.847884  0.437963 0.585334 1 67 1.000000
lowpoly_glow
0  -3.441328 -10.497149 -0.064438  -0.486939 0.002956 -0.873431  0.437958 0.585334 1 67 1.000000
0  -3.466939 -10.482437 -0.050110  -0.486939 0.002956 -0.873431  0.437960 0.585330 1 67 1.000000
0  -3.441327 -10.482366 -0.064388  -0.486939 0.002956 -0.873431  0.437960 0.585334 1 67 1.000000
lowpoly_glow
0  -3.618490 -10.497219 -0.050481  0.469142 0.002972 -0.883118  0.437960 0.585339 1 67 1.000000
0  -3.644391 -10.482367 -0.064193  0.469142 0.002972 -0.883118  0.437963 0.585334 1 67 1.000000
0  -3.618490 -10.482436 -0.050431  0.469142 0.002972 -0.883118  0.437963 0.585339 1 67 1.000000
lowpoly_glow
0  -3.467380 -10.497319 -0.020841  -0.512943 -0.002888 0.858418  0.437955 0.585330 1 67 1.000000
0  -3.442208 -10.482565 -0.005750  -0.512943 -0.002888 0.858418  0.437953 0.585334 1 67 1.000000
0  -3.467380 -10.482536 -0.020791  -0.512943 -0.002888 0.858418  0.437953 0.585330 1 67 1.000000
lowpoly_glow
0  -3.442209 -10.497347 -0.005800  0.486974 -0.002974 0.873412  0.437955 0.585334 1 67 1.000000
0  -3.416597 -10.482493 -0.020028  0.486974 -0.002974 0.873412  0.437953 0.585339 1 67 1.000000
0  -3.442208 -10.482565 -0.005750  0.486974 -0.002974 0.873412  0.437953 0.585334 1 67 1.000000
lowpoly_glow
0  -3.416156 -10.497177 -0.049397  0.513003 0.002888 -0.858382  0.437958 0.585339 1 67 1.000000
0  -3.441327 -10.482366 -0.064388  0.513003 0.002888 -0.858382  0.437960 0.585334 1 67 1.000000
0  -3.416156 -10.482394 -0.049347  0.513003 0.002888 -0.858382  0.437960 0.585339 1 67 1.000000
lowpoly_plastic
0  -3.584498 -17.586073 -0.206289  0.000000 -0.000000 -1.000000  0.008442 0.749260 1 67 1.000000
0  -3.500282 -17.107435 -0.206289  0.000000 -0.000000 -1.000000  0.008446 0.749236 1 67 1.000000
0  -3.500282 -17.586073 -0.206289  0.000000 -0.000000 -1.000000  0.008446 0.749260 1 67 1.000000
lowpoly_plastic
0  -3.572689 -17.586073 -0.030082  0.000000 -0.107509 0.994204  0.008455 0.750373 1 67 1.000000
0  -3.511822 -17.107435 0.021676  0.000000 -0.107509 0.994204  0.008452 0.750350 1 67 1.000000
0  -3.572959 -17.107435 0.021676  0.000000 -0.107509 0.994204  0.008455 0.750350 1 67 1.000000
lowpoly_plastic
0  -3.500282 -17.107435 -0.206289  0.997762 0.000000 0.066870  0.008237 0.750486 1 67 1.000000
0  -3.512091 -17.586073 -0.030082  0.997762 0.000000 0.066870  0.008245 0.750509 1 67 1.000000
0  -3.500282 -17.586073 -0.206289  0.997762 0.000000 0.066870  0.008237 0.750509 1 67 1.000000
lowpoly_plastic
0  -3.584498 -17.586073 -0.206289  0.000000 -1.000000 0.000000  0.008502 0.749721 1 67 1.000000
0  -3.512091 -17.586073 -0.030082  0.000000 -1.000000 0.000000  0.008498 0.749712 1 67 1.000000
0  -3.572689 -17.586073 -0.030082  0.000000 -1.000000 0.000000  0.008501 0.749712 1 67 1.000000
lowpoly_plastic
0  -3.584498 -17.107435 -0.206289  -0.998703 -0.006031 0.050554  0.008400 0.750218 1 67 1.000000
0  -3.572689 -17.586073 -0.030082  -0.998703 -0.006031 0.050554  0.008392 0.750242 1 67 1.000000
0  -3.572959 -17.107435 0.021676  -0.998703 -0.006031 0.050554  0.008389 0.750218 1 67 1.000000
lowpoly_plastic
0  -3.542390 -17.107435 -0.057530  0.000000 1.000000 0.000000  0.008493 0.749014 1 67 1.000000
0  -3.500282 -17.107435 -0.206289  0.000000 1.000000 0.000000  0.008495 0.749021 1 67 1.000000
0  -3.584498 -17.107435 -0.206289  0.000000 1.000000 0.000000  0.008491 0.749021 1 67 1.000000
lowpoly_plastic
0  -3.542390 -17.107435 -0.004698  0.000000 1.000000 0.000000  0.008493 0.749012 1 67 1.000000
0  -3.572959 -17.107435 0.021676  0.000000 1.000000 0.000000  0.008491 0.749010 1 67 1.000000
0  -3.511822 -17.107435 0.021676  0.000000 1.000000 0.000000  0.008494 0.749010 1 67 1.000000
lowpoly_plastic
0  -3.519513 -17.107435 -0.017906  0.000000 1.000000 0.000000  0.008494 0.749012 1 67 1.000000
0  -3.511822 -17.107435 0.021676  0.000000 1.000000 0.000000  0.008494 0.749010 1 67 1.000000
0  -3.500282 -17.107435 -0.206289  0.000000 1.000000 0.000000  0.008495 0.749021 1 67 1.000000
lowpoly_plastic
0  -3.565267 -17.107435 -0.044322  0.000000 1.000000 0.000000  0.008492 0.749014 1 67 1.000000
0  -3.584498 -17.107435 -0.206289  0.000000 1.000000 0.000000  0.008491 0.749021 1 67 1.000000
0  -3.572959 -17.107435 0.021676  0.000000 1.000000 0.000000  0.008491 0.749010 1 67 1.000000
lowpoly_plastic
0  -3.356894 -17.171850 -0.264467  0.000000 0.000000 -1.000000  0.006962 0.762657 1 67 1.000000
0  -3.727886 -17.320086 -0.264467  0.000000 0.000000 -1.000000  0.006955 0.762638 1 67 1.000000
0  -3.727886 -17.171850 -0.264467  0.000000 0.000000 -1.000000  0.006962 0.762638 1 67 1.000000
lowpoly_plastic
0  -3.356894 -17.171850 -0.170289  0.000000 0.000000 1.000000  0.006955 0.762693 1 67 1.000000
0  -3.727886 -17.320086 -0.170289  0.000000 0.000000 1.000000  0.006962 0.762675 1 67 1.000000
0  -3.356894 -17.320086 -0.170289  0.000000 0.000000 1.000000  0.006962 0.762693 1 67 1.000000
lowpoly_plastic
0  -3.727886 -17.171850 -0.264467  -1.000000 0.000000 0.000000  0.007037 0.763464 1 67 1.000000
0  -3.727886 -17.320086 -0.170289  -1.000000 0.000000 0.000000  0.007033 0.763471 1 67 1.000000
0  -3.727886 -17.171850 -0.170289  -1.000000 0.000000 0.000000  0.007033 0.763464 1 67 1.000000
lowpoly_plastic
0  -3.356894 -17.171850 -0.264467  0.000000 1.000000 0.000000  0.006987 0.762385 1 67 1.000000
0  -3.727886 -17.171850 -0.170289  0.000000 1.000000 0.000000  0.006991 0.762367 1 67 1.000000
0  -3.356894 -17.171850 -0.170289  0.000000 1.000000 0.000000  0.006991 0.762385 1 67 1.000000
lowpoly_plastic
0  -3.356894 -17.320086 -0.264467  1.000000 0.000000 0.000000  0.007033 0.763457 1 67 1.000000
0  -3.356894 -17.171850 -0.170289  1.000000 0.000000 0.000000  0.007037 0.763450 1 67 1.000000
0  -3.356894 -17.320086 -0.170289  1.000000 0.000000 0.000000  0.007037 0.763457 1 67 1.000000
lowpoly_plastic
0  -3.727886 -17.320086 -0.264467  0.000000 -1.000000 0.000000  0.006991 0.762401 1 67 1.000000
0  -3.356894 -17.320086 -0.170289  0.000000 -1.000000 0.000000  0.006987 0.762419 1 67 1.000000
0  -3.727886 -17.320086 -0.170289  0.000000 -1.000000 0.000000  0.006987 0.762401 1 67 1.000000
lowpoly_plastic
0  -3.542390 -17.107435 -0.057530  0.000000 1.000000 0.000012  0.008493 0.749014 1 67 1.000000
0  -3.519513 -17.107435 -0.017906  0.000000 1.000000 0.000012  0.008494 0.749012 1 67 1.000000
0  -3.500282 -17.107435 -0.206289  0.000000 1.000000 0.000012  0.008495 0.749021 1 67 1.000000
lowpoly_plastic
0  -3.565267 -17.107435 -0.044322  0.000000 1.000000 0.000000  0.008492 0.749014 1 67 1.000000
0  -3.542390 -17.107435 -0.057530  0.000000 1.000000 0.000000  0.008493 0.749014 1 67 1.000000
0  -3.584498 -17.107435 -0.206289  0.000000 1.000000 0.000000  0.008491 0.749021 1 67 1.000000
lowpoly_plastic
0  -3.542390 -17.107435 -0.004698  0.000000 1.000000 0.000000  0.008493 0.749012 1 67 1.000000
0  -3.565267 -17.107435 -0.044322  0.000000 1.000000 0.000000  0.008492 0.749014 1 67 1.000000
0  -3.572959 -17.107435 0.021676  0.000000 1.000000 0.000000  0.008491 0.749010 1 67 1.000000
lowpoly_plastic
0  -3.519513 -17.107435 -0.017906  0.000000 1.000000 0.000000  0.008494 0.749012 1 67 1.000000
0  -3.542390 -17.107435 -0.004698  0.000000 1.000000 0.000000  0.008493 0.749012 1 67 1.000000
0  -3.511822 -17.107435 0.021676  0.000000 1.000000 0.000000  0.008494 0.749010 1 67 1.000000
lowpoly_glow
0  -3.565267 -17.107435 -0.044322  -1.000000 0.000000 0.000000  0.437992 0.585334 1 67 1.000000
0  -3.565267 -17.096512 -0.017906  -1.000000 0.000000 0.000000  0.437994 0.585330 1 67 1.000000
0  -3.565267 -17.096512 -0.044322  -1.000000 0.000000 0.000000  0.437994 0.585334 1 67 1.000000
lowpoly_glow
0  -3.542390 -17.096512 -0.004698  -0.000083 1.000000 0.000000  0.437663 0.585332 1 67 1.000000
0  -3.519513 -17.096510 -0.017906  -0.000083 1.000000 0.000000  0.437663 0.585337 1 67 1.000000
0  -3.542390 -17.096512 -0.057530  -0.000083 1.000000 0.000000  0.437656 0.585337 1 67 1.000000
lowpoly_glow
0  -3.542390 -17.107435 -0.004698  0.500140 0.000000 0.865944  0.437972 0.585334 1 67 1.000000
0  -3.519513 -17.096510 -0.017906  0.500140 0.000000 0.865944  0.437970 0.585338 1 67 1.000000
0  -3.542390 -17.096512 -0.004698  0.500140 0.000000 0.865944  0.437970 0.585334 1 67 1.000000
lowpoly_glow
0  -3.519513 -17.107435 -0.044322  0.500027 0.000000 -0.866010  0.437972 0.585338 1 67 1.000000
0  -3.542390 -17.096512 -0.057530  0.500027 0.000000 -0.866010  0.437974 0.585334 1 67 1.000000
0  -3.519513 -17.096510 -0.044322  0.500027 0.000000 -0.866010  0.437974 0.585338 1 67 1.000000
lowpoly_glow
0  -3.542390 -17.107435 -0.057530  -0.499962 0.000000 -0.866048  0.437972 0.585334 1 67 1.000000
0  -3.565267 -17.096512 -0.044322  -0.499962 0.000000 -0.866048  0.437974 0.585330 1 67 1.000000
0  -3.542390 -17.096512 -0.057530  -0.499962 0.000000 -0.866048  0.437974 0.585334 1 67 1.000000
lowpoly_glow
0  -3.565267 -17.107435 -0.017906  -0.499962 0.000000 0.866048  0.437972 0.585330 1 67 1.000000
0  -3.542390 -17.096512 -0.004698  -0.499962 0.000000 0.866048  0.437970 0.585334 1 67 1.000000
0  -3.565267 -17.096512 -0.017906  -0.499962 0.000000 0.866048  0.437970 0.585330 1 67 1.000000
lowpoly_glow
0  -3.519513 -17.107435 -0.017906  1.000000 0.000000 0.000000  0.437992 0.585330 1 67 1.000000
0  -3.519513 -17.096510 -0.044322  1.000000 0.000000 0.000000  0.437991 0.585334 1 67 1.000000
0  -3.519513 -17.096510 -0.017906  1.000000 0.000000 0.000000  0.437991 0.585330 1 67 1.000000
lowpoly_plastic
0  -3.287084 -10.382462 -0.194054  0.000000 -0.001550 -0.999999  0.036244 0.783644 1 67 1.000000
0  -3.255724 -10.862037 -0.193311  0.000000 -0.001550 -0.999999  0.036220 0.783645 1 67 1.000000
0  -3.828867 -10.862037 -0.193311  0.000000 -0.001550 -0.999999  0.036220 0.783617 1 67 1.000000
lowpoly_plastic
0  -3.255737 -11.307552 -0.278683  0.000000 -0.892051 0.451936  0.006932 0.762593 1 67 1.000000
0  -3.255737 -11.264626 -0.193953  0.000000 -0.892051 0.451936  0.006928 0.762593 1 67 1.000000
0  -3.828854 -11.264626 -0.193953  0.000000 -0.892051 0.451936  0.006928 0.762565 1 67 1.000000
lowpoly_plastic
0  -3.255737 -10.822258 -0.278683  1.000000 -0.000032 -0.000169  0.005770 0.764120 1 67 1.000000
0  -3.255724 -10.862037 -0.193311  1.000000 -0.000032 -0.000169  0.005774 0.764121 1 67 1.000000
0  -3.255737 -11.264626 -0.193953  1.000000 -0.000032 -0.000169  0.005777 0.764141 1 67 1.000000
lowpoly_plastic
0  -3.255737 -11.307552 -0.278683  0.000000 -0.000000 -1.000000  0.006830 0.764115 1 67 1.000000
0  -3.828854 -11.307552 -0.278683  0.000000 -0.000000 -1.000000  0.006830 0.764086 1 67 1.000000
0  -3.828854 -10.822258 -0.278683  0.000000 -0.000000 -1.000000  0.006854 0.764086 1 67 1.000000
lowpoly_plastic
0  -3.828854 -11.264626 -0.193953  -0.889659 -0.000758 0.456625  0.006907 0.763719 1 67 1.000000
0  -3.805048 -11.225220 -0.147505  -0.889659 -0.000758 0.456625  0.006905 0.763717 1 67 1.000000
0  -3.828867 -10.862037 -0.193311  -0.889659 -0.000758 0.456625  0.006909 0.763699 1 67 1.000000
lowpoly_plastic
0  -3.805048 -11.225220 -0.147505  -0.934673 -0.016511 0.355124  0.006905 0.763717 1 67 1.000000
0  -3.805048 -10.411933 -0.109691  -0.934673 -0.016511 0.355124  0.006908 0.763677 1 67 1.000000
0  -3.828867 -10.862037 -0.193311  -0.934673 -0.016511 0.355124  0.006909 0.763699 1 67 1.000000
lowpoly_plastic
0  -3.279543 -11.225220 -0.147505  0.966362 -0.011946 0.256907  0.005779 0.764139 1 67 1.000000
0  -3.279543 -10.411933 -0.109691  0.966362 -0.011946 0.256907  0.005776 0.764099 1 67 1.000000
0  -3.305389 -10.445349 -0.014027  0.966362 -0.011946 0.256907  0.005781 0.764100 1 67 1.000000
lowpoly_plastic
0  -3.436409 -11.225220 -0.140845  0.027463 -0.762107 0.646868  0.006925 0.762584 1 67 1.000000
0  -3.279543 -11.225220 -0.147505  0.027463 -0.762107 0.646868  0.006925 0.762592 1 67 1.000000
0  -3.298261 -11.193974 -0.109898  0.027463 -0.762107 0.646868  0.006923 0.762591 1 67 1.000000
lowpoly_plastic
0  -3.255737 -11.264626 -0.193953  0.000000 -0.803089 0.595859  0.006928 0.762593 1 67 1.000000
0  -3.436409 -11.225220 -0.140845  0.000000 -0.803089 0.595859  0.006925 0.762584 1 67 1.000000
0  -3.648182 -11.225220 -0.140845  0.000000 -0.803089 0.595859  0.006925 0.762574 1 67 1.000000
lowpoly_plastic
0  -3.805048 -11.225220 -0.147505  -0.027896 -0.753321 0.657062  0.006925 0.762566 1 67 1.000000
0  -3.648182 -11.225220 -0.140845  -0.027896 -0.753321 0.657062  0.006925 0.762574 1 67 1.000000
0  -3.722926 -11.164131 -0.073980  -0.027896 -0.753321 0.657062  0.006921 0.762570 1 67 1.000000
lowpoly_plastic
0  -3.578663 -10.712341 -0.094300  0.876605 -0.066906 0.476536  0.055840 0.800880 1 67 1.000000
0  -3.578663 -10.497027 -0.064070  0.876605 -0.066906 0.476536  0.055840 0.800870 1 67 1.000000
0  -3.625276 -10.497027 0.021675  0.876605 -0.066906 0.476536  0.055844 0.800869 1 67 1.000000
lowpoly_plastic
0  -3.828854 -11.307552 -0.278683  -1.000000 -0.000033 0.000017  0.006911 0.763721 1 67 1.000000
0  -3.828854 -11.264626 -0.193953  -1.000000 -0.000033 0.000017  0.006907 0.763719 1 67 1.000000
0  -3.828867 -10.862037 -0.193311  -1.000000 -0.000033 0.000017  0.006909 0.763699 1 67 1.000000
lowpoly_plastic
0  -3.459316 -10.691553 -0.008041  -0.876248 -0.072764 0.476336  0.055840 0.800867 1 67 1.000000
0  -3.459316 -10.497027 0.021675  -0.876248 -0.072764 0.476336  0.055840 0.800858 1 67 1.000000
0  -3.505928 -10.497027 -0.064070  -0.876248 -0.072764 0.476336  0.055844 0.800858 1 67 1.000000
lowpoly_plastic
0  -3.786330 -11.193974 -0.109898  -0.967140 -0.023215 0.253181  0.006903 0.763715 1 67 1.000000
0  -3.779202 -10.445349 -0.014027  -0.967140 -0.023215 0.253181  0.006903 0.763678 1 67 1.000000
0  -3.805048 -10.411933 -0.109691  -0.967140 -0.023215 0.253181  0.006908 0.763677 1 67 1.000000
lowpoly_plastic
0  -3.255737 -11.264626 -0.193953  0.889659 -0.000758 0.456625  0.005777 0.764141 1 67 1.000000
0  -3.255724 -10.862037 -0.193311  0.889659 -0.000758 0.456625  0.005774 0.764121 1 67 1.000000
0  -3.279543 -11.225220 -0.147505  0.889659 -0.000758 0.456625  0.005779 0.764139 1 67 1.000000
lowpoly_plastic
0  -3.255724 -10.862037 -0.193311  0.963545 0.001286 0.267543  0.005774 0.764121 1 67 1.000000
0  -3.265140 -10.393781 -0.161651  0.963545 0.001286 0.267543  0.005773 0.764098 1 67 1.000000
0  -3.279543 -10.411933 -0.109691  0.963545 0.001286 0.267543  0.005776 0.764099 1 67 1.000000
lowpoly_plastic
0  -3.505928 -10.712341 -0.094300  0.000000 -0.139036 0.990287  0.055861 0.800130 1 67 1.000000
0  -3.505928 -10.497027 -0.064070  0.000000 -0.139036 0.990287  0.055861 0.800120 1 67 1.000000
0  -3.578663 -10.497027 -0.064070  0.000000 -0.139036 0.990287  0.055864 0.800120 1 67 1.000000
lowpoly_plastic
0  -3.648182 -10.712341 -0.140845  -0.115886 -0.978067 0.173079  0.055801 0.800142 1 67 1.000000
0  -3.578663 -10.712341 -0.094300  -0.115886 -0.978067 0.173079  0.055799 0.800145 1 67 1.000000
0  -3.625275 -10.691553 -0.008041  -0.115886 -0.978067 0.173079  0.055794 0.800143 1 67 1.000000
lowpoly_plastic
0  -3.828854 -10.822258 -0.278683  0.000000 0.906438 0.422340  0.037716 0.783701 1 67 1.000000
0  -3.828867 -10.862037 -0.193311  0.000000 0.906438 0.422340  0.037721 0.783701 1 67 1.000000
0  -3.255724 -10.862037 -0.193311  0.000000 0.906438 0.422340  0.037721 0.783729 1 67 1.000000
lowpoly_metal
0  -3.564947 -11.066343 -0.140845  0.392531 -0.696656 0.600491  0.061424 0.627797 1 67 1.000000
0  -3.459421 -11.006885 -0.140845  0.392531 -0.696656 0.600491  0.061424 0.627778 1 67 1.000000
0  -3.470234 -11.003967 -0.130393  0.392531 -0.696656 0.600491  0.061426 0.627780 1 67 1.000000
lowpoly_plastic
0  -3.722944 -10.409159 -0.108980  0.000000 0.954126 0.299406  0.006926 0.762295 1 67 1.000000
0  -3.361647 -10.409159 -0.108980  0.000000 0.954126 0.299406  0.006926 0.762312 1 67 1.000000
0  -3.287084 -10.382462 -0.194054  0.000000 0.954126 0.299406  0.006922 0.762316 1 67 1.000000
lowpoly_plastic
0  -3.436409 -10.712341 -0.140845  0.000000 -1.000000 0.000000  0.055801 0.800152 1 67 1.000000
0  -3.505928 -10.712341 -0.094300  0.000000 -1.000000 0.000000  0.055799 0.800149 1 67 1.000000
0  -3.578663 -10.712341 -0.094300  0.000000 -1.000000 0.000000  0.055799 0.800145 1 67 1.000000
lowpoly_plastic
0  -3.361665 -11.164131 -0.073980  -0.864673 -0.069420 0.497514  0.055678 0.801542 1 67 1.000000
0  -3.361665 -10.691553 -0.008041  -0.864673 -0.069420 0.497514  0.055678 0.801519 1 67 1.000000
0  -3.436409 -10.712341 -0.140845  -0.864673 -0.069420 0.497514  0.055684 0.801521 1 67 1.000000
lowpoly_plastic
0  -3.361665 -10.691553 -0.008041  0.000000 -0.972168 0.234286  0.055794 0.800156 1 67 1.000000
0  -3.459316 -10.691553 -0.008041  0.000000 -0.972168 0.234286  0.055794 0.800151 1 67 1.000000
0  -3.505928 -10.712341 -0.094300  0.000000 -0.972168 0.234286  0.055799 0.800149 1 67 1.000000
lowpoly_plastic
0  -3.648182 -11.225220 -0.140845  0.871460 0.000002 0.490467  0.055707 0.801546 1 67 1.000000
0  -3.648182 -10.712341 -0.140845  0.871460 0.000002 0.490467  0.055704 0.801521 1 67 1.000000
0  -3.722926 -10.691553 -0.008041  0.871460 0.000002 0.490467  0.055710 0.801519 1 67 1.000000
lowpoly_glow
0  -3.669260 -10.497179 -0.048692  -0.999380 -0.000111 0.035202  0.437974 0.585335 1 67 1.000000
0  -3.668228 -10.497279 -0.019380  -0.999380 -0.000111 0.035202  0.437974 0.585330 1 67 1.000000
0  -3.668227 -10.482496 -0.019330  -0.999380 -0.000111 0.035202  0.437976 0.585330 1 67 1.000000
lowpoly_glow
0  -3.416597 -10.497276 -0.020078  0.999887 -0.000071 0.015024  0.437979 0.585330 1 67 1.000000
0  -3.416156 -10.497177 -0.049397  0.999887 -0.000071 0.015024  0.437979 0.585335 1 67 1.000000
0  -3.416156 -10.482394 -0.049347  0.999887 -0.000071 0.015024  0.437976 0.585335 1 67 1.000000
lowpoly_glow
0  -3.466939 -10.497221 -0.050160  -0.999887 0.000038 -0.015027  0.437979 0.585335 1 67 1.000000
0  -3.467380 -10.497319 -0.020841  -0.999887 0.000038 -0.015027  0.437979 0.585330 1 67 1.000000
0  -3.467380 -10.482536 -0.020791  -0.999887 0.000038 -0.015027  0.437981 0.585330 1 67 1.000000
lowpoly_glow
0  -3.668228 -10.497279 -0.019380  -0.469168 -0.002964 0.883104  0.437958 0.585330 1 67 1.000000
0  -3.642326 -10.497349 -0.005619  -0.469168 -0.002964 0.883104  0.437958 0.585334 1 67 1.000000
0  -3.642326 -10.482565 -0.005569  -0.469168 -0.002964 0.883104  0.437955 0.585334 1 67 1.000000
lowpoly_plastic
0  -3.459316 -10.691553 -0.008041  0.000000 -0.151593 0.988443  0.006935 0.763252 1 67 1.000000
0  -3.361665 -10.691553 -0.008041  0.000000 -0.151593 0.988443  0.006930 0.763252 1 67 1.000000
0  -3.361647 -10.497104 0.021781  0.000000 -0.151593 0.988443  0.006930 0.763243 1 67 1.000000
lowpoly_plastic
0  -3.625275 -10.691553 -0.008041  0.001185 -0.151010 0.988532  0.006927 0.763289 1 67 1.000000
0  -3.625276 -10.497027 0.021675  0.001185 -0.151010 0.988532  0.006927 0.763280 1 67 1.000000
0  -3.722944 -10.497104 0.021781  0.001185 -0.151010 0.988532  0.006932 0.763280 1 67 1.000000
lowpoly_plastic
0  -3.644391 -10.497149 -0.064243  -0.000017 0.999996 0.002885  0.018165 0.808361 1 67 1.000000
0  -3.722944 -10.497027 -0.107055  -0.000017 0.999996 0.002885  0.018157 0.808347 1 67 1.000000
0  -3.668228 -10.497279 -0.019380  -0.000017 0.999996 0.002885  0.018172 0.808357 1 67 1.000000
lowpoly_plastic
0  -3.578663 -10.497027 -0.064070  0.000000 1.000000 0.000000  0.018165 0.808372 1 67 1.000000
0  -3.505928 -10.497027 -0.064070  0.000000 1.000000 0.000000  0.018165 0.808385 1 67 1.000000
0  -3.361647 -10.497027 -0.107055  0.000000 1.000000 0.000000  0.018157 0.808409 1 67 1.000000
lowpoly_plastic
0  -3.361647 -10.409159 -0.108980  -1.000000 0.000000 0.000000  0.018424 0.805893 1 67 1.000000
0  -3.361647 -10.497027 -0.107055  -1.000000 0.000000 0.000000  0.018409 0.805892 1 67 1.000000
0  -3.361647 -10.497104 0.021781  -1.000000 0.000000 0.000000  0.018409 0.805870 1 67 1.000000
lowpoly_plastic
0  -3.722944 -10.409159 -0.108980  0.000000 0.021901 0.999760  0.018229 0.807141 1 67 1.000000
0  -3.722944 -10.497027 -0.107055  0.000000 0.021901 0.999760  0.018244 0.807141 1 67 1.000000
0  -3.361647 -10.497027 -0.107055  0.000000 0.021901 0.999760  0.018244 0.807203 1 67 1.000000
lowpoly_plastic
0  -3.722944 -10.497104 0.021781  1.000000 -0.000002 0.000000  0.018424 0.805848 1 67 1.000000
0  -3.722944 -10.497027 -0.107055  1.000000 -0.000002 0.000000  0.018424 0.805869 1 67 1.000000
0  -3.722944 -10.409159 -0.108980  1.000000 -0.000002 0.000000  0.018409 0.805870 1 67 1.000000
lowpoly_plastic
0  -3.625276 -10.497027 0.021675  -0.046673 -0.998909 -0.001769  0.018179 0.808364 1 67 1.000000
0  -3.618490 -10.497219 -0.050481  -0.046673 -0.998909 -0.001769  0.018167 0.808365 1 67 1.000000
0  -3.617457 -10.497318 -0.021169  -0.046673 -0.998909 -0.001769  0.018172 0.808365 1 67 1.000000
lowpoly_plastic
0  -3.441328 -10.497149 -0.064438  0.000877 -0.999994 -0.003362  0.018165 0.808396 1 67 1.000000
0  -3.416156 -10.497177 -0.049397  0.000877 -0.999994 -0.003362  0.018167 0.808400 1 67 1.000000
0  -3.416597 -10.497276 -0.020078  0.000877 -0.999994 -0.003362  0.018172 0.808400 1 67 1.000000
lowpoly_plastic
0  -3.459316 -10.497027 0.021675  0.005865 0.999951 -0.008040  0.018179 0.808393 1 67 1.000000
0  -3.442209 -10.497347 -0.005800  0.005865 0.999951 -0.008040  0.018175 0.808396 1 67 1.000000
0  -3.467380 -10.497319 -0.020841  0.005865 0.999951 -0.008040  0.018172 0.808391 1 67 1.000000
lowpoly_metal
0  -3.519644 -10.902697 -0.140845  -0.392539 0.696658 0.600483  0.061430 0.627797 1 67 1.000000
0  -3.625170 -10.962156 -0.140845  -0.392539 0.696658 0.600483  0.061430 0.627778 1 67 1.000000
0  -3.614357 -10.965075 -0.130393  -0.392539 0.696658 0.600483  0.061432 0.627780 1 67 1.000000
lowpoly_metal
0  -3.459421 -11.006885 -0.140845  0.690631 0.399202 0.603048  0.061428 0.627796 1 67 1.000000
0  -3.519644 -10.902697 -0.140845  0.690631 0.399202 0.603048  0.061428 0.627778 1 67 1.000000
0  -3.522599 -10.913373 -0.130393  0.690631 0.399202 0.603048  0.061430 0.627780 1 67 1.000000
lowpoly_metal
0  -3.625170 -10.962156 -0.140845  -0.690632 -0.399202 0.603046  0.061426 0.627796 1 67 1.000000
0  -3.564947 -11.066343 -0.140845  -0.690632 -0.399202 0.603046  0.061426 0.627778 1 67 1.000000
0  -3.561992 -11.055668 -0.130393  -0.690632 -0.399202 0.603046  0.061428 0.627780 1 67 1.000000
lowpoly_glow
0  -3.642326 -10.482565 -0.005569  0.000935 0.999994 0.003360  0.437507 0.585330 1 67 1.000000
0  -3.617457 -10.482536 -0.021119  0.000935 0.999994 0.003360  0.437512 0.585332 1 67 1.000000
0  -3.669260 -10.482396 -0.048643  0.000935 0.999994 0.003360  0.437503 0.585337 1 67 1.000000
lowpoly_glow
0  -3.416597 -10.482493 -0.020028  -0.000896 0.999994 0.003362  0.437520 0.585337 1 67 1.000000
0  -3.416156 -10.482394 -0.049347  -0.000896 0.999994 0.003362  0.437516 0.585340 1 67 1.000000
0  -3.467380 -10.482536 -0.020791  -0.000896 0.999994 0.003362  0.437516 0.585330 1 67 1.000000
lowpoly_glow
0  -3.617457 -10.482536 -0.021119  0.000889 0.999994 0.003440  0.437512 0.585332 1 67 1.000000
0  -3.618490 -10.482436 -0.050431  0.000889 0.999994 0.003440  0.437512 0.585337 1 67 1.000000
0  -3.644391 -10.482367 -0.064193  0.000889 0.999994 0.003440  0.437507 0.585340 1 67 1.000000
lowpoly_glow
0  -3.416156 -10.482394 -0.049347  -0.000896 0.999993 0.003522  0.437516 0.585340 1 67 1.000000
0  -3.441327 -10.482366 -0.064388  -0.000896 0.999993 0.003522  0.437512 0.585337 1 67 1.000000
0  -3.466939 -10.482437 -0.050110  -0.000896 0.999993 0.003522  0.437512 0.585332 1 67 1.000000
lowpoly_glow
0  -3.617457 -10.497318 -0.021169  0.999380 0.000121 -0.035204  0.437984 0.585330 1 67 1.000000
0  -3.618490 -10.497219 -0.050481  0.999380 0.000121 -0.035204  0.437984 0.585335 1 67 1.000000
0  -3.618490 -10.482436 -0.050431  0.999380 0.000121 -0.035204  0.437981 0.585335 1 67 1.000000
lowpoly_glow
0  -3.642326 -10.497349 -0.005619  0.530149 -0.002866 0.847899  0.437958 0.585334 1 67 1.000000
0  -3.617457 -10.497318 -0.021169  0.530149 -0.002866 0.847899  0.437958 0.585339 1 67 1.000000
0  -3.617457 -10.482536 -0.021119  0.530149 -0.002866 0.847899  0.437955 0.585339 1 67 1.000000
lowpoly_glow
0  -3.644391 -10.497149 -0.064243  -0.530236 0.002858 -0.847845  0.437960 0.585334 1 67 1.000000
0  -3.669260 -10.497179 -0.048692  -0.530236 0.002858 -0.847845  0.437960 0.585330 1 67 1.000000
0  -3.669260 -10.482396 -0.048643  -0.530236 0.002858 -0.847845  0.437963 0.585330 1 67 1.000000
lowpoly_glow
0  -3.441328 -10.497149 -0.064438  -0.486905 0.002944 -0.873450  0.437958 0.585334 1 67 1.000000
0  -3.466939 -10.497221 -0.050160  -0.486905 0.002944 -0.873450  0.437958 0.585330 1 67 1.000000
0  -3.466939 -10.482437 -0.050110  -0.486905 0.002944 -0.873450  0.437960 0.585330 1 67 1.000000
lowpoly_glow
0  -3.618490 -10.497219 -0.050481  0.469198 0.002974 -0.883088  0.437960 0.585339 1 67 1.000000
0  -3.644391 -10.497149 -0.064243  0.469198 0.002974 -0.883088  0.437960 0.585334 1 67 1.000000
0  -3.644391 -10.482367 -0.064193  0.469198 0.002974 -0.883088  0.437963 0.585334 1 67 1.000000
lowpoly_glow
0  -3.467380 -10.497319 -0.020841  -0.512923 -0.002889 0.858429  0.437955 0.585330 1 67 1.000000
0  -3.442209 -10.497347 -0.005800  -0.512923 -0.002889 0.858429  0.437955 0.585334 1 67 1.000000
0  -3.442208 -10.482565 -0.005750  -0.512923 -0.002889 0.858429  0.437953 0.585334 1 67 1.000000
lowpoly_glow
0  -3.442209 -10.497347 -0.005800  0.486880 -0.002926 0.873464  0.437955 0.585334 1 67 1.000000
0  -3.416597 -10.497276 -0.020078  0.486880 -0.002926 0.873464  0.437955 0.585339 1 67 1.000000
0  -3.416597 -10.482493 -0.020028  0.486880 -0.002926 0.873464  0.437953 0.585339 1 67 1.000000
lowpoly_glow
0  -3.416156 -10.497177 -0.049397  0.512877 0.002889 -0.858457  0.437958 0.585339 1 67 1.000000
0  -3.441328 -10.497149 -0.064438  0.512877 0.002889 -0.858457  0.437958 0.585334 1 67 1.000000
0  -3.441327 -10.482366 -0.064388  0.512877 0.002889 -0.858457  0.437960 0.585334 1 67 1.000000
lowpoly_plastic
0  -3.584498 -17.586073 -0.206289  0.000000 -0.000000 -1.000000  0.008442 0.749260 1 67 1.000000
0  -3.584498 -17.107435 -0.206289  0.000000 -0.000000 -1.000000  0.008442 0.749236 1 67 1.000000
0  -3.500282 -17.107435 -0.206289  0.000000 -0.000000 -1.000000  0.008446 0.749236 1 67 1.000000
lowpoly_plastic
0  -3.572689 -17.586073 -0.030082  0.000000 -0.107508 0.994204  0.008455 0.750373 1 67 1.000000
0  -3.512091 -17.586073 -0.030082  0.000000 -0.107508 0.994204  0.008452 0.750373 1 67 1.000000
0  -3.511822 -17.107435 0.021676  0.000000 -0.107508 0.994204  0.008452 0.750350 1 67 1.000000
lowpoly_plastic
0  -3.500282 -17.107435 -0.206289  0.998703 -0.006030 0.050554  0.008237 0.750486 1 67 1.000000
0  -3.511822 -17.107435 0.021676  0.998703 -0.006030 0.050554  0.008248 0.750486 1 67 1.000000
0  -3.512091 -17.586073 -0.030082  0.998703 -0.006030 0.050554  0.008245 0.750509 1 67 1.000000
lowpoly_plastic
0  -3.584498 -17.586073 -0.206289  0.000000 -1.000000 0.000004  0.008502 0.749721 1 67 1.000000
0  -3.500282 -17.586073 -0.206289  0.000000 -1.000000 0.000004  0.008497 0.749721 1 67 1.000000
0  -3.512091 -17.586073 -0.030082  0.000000 -1.000000 0.000004  0.008498 0.749712 1 67 1.000000
lowpoly_plastic
0  -3.584498 -17.107435 -0.206289  -0.997762 0.000000 0.066871  0.008400 0.750218 1 67 1.000000
0  -3.584498 -17.586073 -0.206289  -0.997762 0.000000 0.066871  0.008400 0.750242 1 67 1.000000
0  -3.572689 -17.586073 -0.030082  -0.997762 0.000000 0.066871  0.008392 0.750242 1 67 1.000000
lowpoly_plastic
0  -3.356894 -17.171850 -0.264467  0.000000 0.000000 -1.000000  0.006962 0.762657 1 67 1.000000
0  -3.356894 -17.320086 -0.264467  0.000000 0.000000 -1.000000  0.006955 0.762657 1 67 1.000000
0  -3.727886 -17.320086 -0.264467  0.000000 0.000000 -1.000000  0.006955 0.762638 1 67 1.000000
lowpoly_plastic
0  -3.356894 -17.171850 -0.170289  0.000000 0.000000 1.000000  0.006955 0.762693 1 67 1.000000
0  -3.727886 -17.171850 -0.170289  0.000000 0.000000 1.000000  0.006955 0.762675 1 67 1.000000
0  -3.727886 -17.320086 -0.170289  0.000000 0.000000 1.000000  0.006962 0.762675 1 67 1.000000
lowpoly_plastic
0  -3.727886 -17.171850 -0.264467  -1.000000 0.000000 0.000000  0.007037 0.763464 1 67 1.000000
0  -3.727886 -17.320086 -0.264467  -1.000000 0.000000 0.000000  0.007037 0.763471 1 67 1.000000
0  -3.727886 -17.320086 -0.170289  -1.000000 0.000000 0.000000  0.007033 0.763471 1 67 1.000000
lowpoly_plastic
0  -3.356894 -17.171850 -0.264467  0.000000 1.000000 0.000000  0.006987 0.762385 1 67 1.000000
0  -3.727886 -17.171850 -0.264467  0.000000 1.000000 0.000000  0.006987 0.762367 1 67 1.000000
0  -3.727886 -17.171850 -0.170289  0.000000 1.000000 0.000000  0.006991 0.762367 1 67 1.000000
lowpoly_plastic
0  -3.356894 -17.320086 -0.264467  1.000000 0.000000 0.000000  0.007033 0.763457 1 67 1.000000
0  -3.356894 -17.171850 -0.264467  1.000000 0.000000 0.000000  0.007033 0.763450 1 67 1.000000
0  -3.356894 -17.171850 -0.170289  1.000000 0.000000 0.000000  0.007037 0.763450 1 67 1.000000
lowpoly_plastic
0  -3.727886 -17.320086 -0.264467  0.000000 -1.000000 0.000000  0.006991 0.762401 1 67 1.000000
0  -3.356894 -17.320086 -0.264467  0.000000 -1.000000 0.000000  0.006991 0.762419 1 67 1.000000
0  -3.356894 -17.320086 -0.170289  0.000000 -1.000000 0.000000  0.006987 0.762419 1 67 1.000000
lowpoly_plastic
0  -3.542390 -17.107435 -0.057530  0.000000 -1.000000 0.000000  0.008493 0.749014 1 67 1.000000
0  -3.519513 -17.107435 -0.044322  0.000000 -1.000000 0.000000  0.008494 0.749014 1 67 1.000000
0  -3.519513 -17.107435 -0.017906  0.000000 -1.000000 0.000000  0.008494 0.749012 1 67 1.000000
lowpoly_plastic
0  -3.542390 -17.107435 -0.004698  0.000000 -1.000000 0.000000  0.008493 0.749012 1 67 1.000000
0  -3.565267 -17.107435 -0.017906  0.000000 -1.000000 0.000000  0.008492 0.749012 1 67 1.000000
0  -3.565267 -17.107435 -0.044322  0.000000 -1.000000 0.000000  0.008492 0.749014 1 67 1.000000
lowpoly_glow
0  -3.565267 -17.107435 -0.044322  -1.000000 0.000000 0.000000  0.437992 0.585334 1 67 1.000000
0  -3.565267 -17.107435 -0.017906  -1.000000 0.000000 0.000000  0.437992 0.585330 1 67 1.000000
0  -3.565267 -17.096512 -0.017906  -1.000000 0.000000 0.000000  0.437994 0.585330 1 67 1.000000
lowpoly_glow
0  -3.519513 -17.096510 -0.017906  -0.000083 1.000000 0.000000  0.437663 0.585337 1 67 1.000000
0  -3.519513 -17.096510 -0.044322  -0.000083 1.000000 0.000000  0.437660 0.585339 1 67 1.000000
0  -3.542390 -17.096512 -0.057530  -0.000083 1.000000 0.000000  0.437656 0.585337 1 67 1.000000
lowpoly_glow
0  -3.542390 -17.096512 -0.057530  0.000000 1.000000 0.000000  0.437656 0.585337 1 67 1.000000
0  -3.565267 -17.096512 -0.044322  0.000000 1.000000 0.000000  0.437656 0.585332 1 67 1.000000
0  -3.565267 -17.096512 -0.017906  0.000000 1.000000 0.000000  0.437660 0.585330 1 67 1.000000
lowpoly_glow
0  -3.565267 -17.096512 -0.017906  0.000000 1.000000 0.000000  0.437660 0.585330 1 67 1.000000
0  -3.542390 -17.096512 -0.004698  0.000000 1.000000 0.000000  0.437663 0.585332 1 67 1.000000
0  -3.542390 -17.096512 -0.057530  0.000000 1.000000 0.000000  0.437656 0.585337 1 67 1.000000
lowpoly_glow
0  -3.542390 -17.107435 -0.004698  0.499938 0.000000 0.866061  0.437972 0.585334 1 67 1.000000
0  -3.519513 -17.107435 -0.017906  0.499938 0.000000 0.866061  0.437972 0.585338 1 67 1.000000
0  -3.519513 -17.096510 -0.017906  0.499938 0.000000 0.866061  0.437970 0.585338 1 67 1.000000
lowpoly_glow
0  -3.519513 -17.107435 -0.044322  0.500051 0.000000 -0.865996  0.437972 0.585338 1 67 1.000000
0  -3.542390 -17.107435 -0.057530  0.500051 0.000000 -0.865996  0.437972 0.585334 1 67 1.000000
0  -3.542390 -17.096512 -0.057530  0.500051 0.000000 -0.865996  0.437974 0.585334 1 67 1.000000
lowpoly_glow
0  -3.542390 -17.107435 -0.057530  -0.500051 0.000000 -0.865996  0.437972 0.585334 1 67 1.000000
0  -3.565267 -17.107435 -0.044322  -0.500051 0.000000 -0.865996  0.437972 0.585330 1 67 1.000000
0  -3.565267 -17.096512 -0.044322  -0.500051 0.000000 -0.865996  0.437974 0.585330 1 67 1.000000
lowpoly_glow
0  -3.565267 -17.107435 -0.017906  -0.500051 0.000000 0.865996  0.437972 0.585330 1 67 1.000000
0  -3.542390 -17.107435 -0.004698  -0.500051 0.000000 0.865996  0.437972 0.585334 1 67 1.000000
0  -3.542390 -17.096512 -0.004698  -0.500051 0.000000 0.865996  0.437970 0.585334 1 67 1.000000
lowpoly_glow
0  -3.519513 -17.107435 -0.017906  1.000000 0.000000 0.000000  0.437992 0.585330 1 67 1.000000
0  -3.519513 -17.107435 -0.044322  1.000000 0.000000 0.000000  0.437992 0.585334 1 67 1.000000
0  -3.519513 -17.096510 -0.044322  1.000000 0.000000 0.000000  0.437991 0.585334 1 67 1.000000
end
