version 1
nodes
0 "ValveBiped.Bip01_Spine4" -1
1 "ValveBiped.Bip01_L_Clavicle" 0
2 "ValveBiped.Bip01_L_UpperArm" 1
3 "ValveBiped.Bip01_L_Forearm" 2
4 "ValveBiped.Bip01_L_Hand" 3
5 "ValveBiped.Bip01_L_Finger4" 4
6 "ValveBiped.Bip01_L_Finger41" 5
7 "ValveBiped.Bip01_L_Finger42" 6
8 "ValveBiped.Bip01_L_Finger3" 4
9 "ValveBiped.Bip01_L_Finger31" 8
10 "ValveBiped.Bip01_L_Finger32" 9
11 "ValveBiped.Bip01_L_Finger2" 4
12 "ValveBiped.Bip01_L_Finger21" 11
13 "ValveBiped.Bip01_L_Finger22" 12
14 "ValveBiped.Bip01_L_Finger1" 4
15 "ValveBiped.Bip01_L_Finger11" 14
16 "ValveBiped.Bip01_L_Finger12" 15
17 "ValveBiped.Bip01_L_Finger0" 4
18 "ValveBiped.Bip01_L_Finger01" 17
19 "ValveBiped.Bip01_L_Finger02" 18
20 "ValveBiped.Bip01_L_Ulna" 3
21 "ValveBiped.Bip01_L_Wrist" 3
22 "rig_l_upperarm" 1
23 "rig_l_forearm" 22
24 "rig_d_l_forearm" 23
25 "rig_d_l_upperarm" 22
26 "ValveBiped.Bip01_R_Clavicle" 0
27 "ValveBiped.Bip01_R_UpperArm" 26
28 "ValveBiped.Bip01_R_Forearm" 27
29 "ValveBiped.Bip01_R_Hand" 28
30 "ValveBiped.Bip01_R_Finger4" 29
31 "ValveBiped.Bip01_R_Finger41" 30
32 "ValveBiped.Bip01_R_Finger42" 31
33 "ValveBiped.Bip01_R_Finger3" 29
34 "ValveBiped.Bip01_R_Finger31" 33
35 "ValveBiped.Bip01_R_Finger32" 34
36 "ValveBiped.Bip01_R_Finger2" 29
37 "ValveBiped.Bip01_R_Finger21" 36
38 "ValveBiped.Bip01_R_Finger22" 37
39 "ValveBiped.Bip01_R_Finger1" 29
40 "ValveBiped.Bip01_R_Finger11" 39
41 "ValveBiped.Bip01_R_Finger12" 40
42 "ValveBiped.Bip01_R_Finger0" 29
43 "ValveBiped.Bip01_R_Finger01" 42
44 "ValveBiped.Bip01_R_Finger02" 43
45 "ValveBiped.Bip01_R_Ulna" 28
46 "ValveBiped.Bip01_R_Wrist" 28
47 "rig_r_upperarm" 26
48 "rig_r_forearm" 47
49 "rig_d_r_forearm" 48
50 "rig_d_r_upperarm" 47
51 "rig_r_hand" -1
52 "rig_d_r_hand" 51
53 "rig_d_r_wrist" 52
54 "rig_l_hand" -1
55 "rig_d_l_hand" 54
56 "rig_d_l_wrist" 54
57 "rig_l_pole" -1
58 "rig_r_pole" -1
59 "rig_l_clavicle" -1
60 "rig_d_l_clavicle" 59
61 "rig_r_clavicle" -1
62 "rig_d_r_clavicle" 61
63 "Camera" -1
64 "body" -1
65 "trigger" 64
66 "bullet1" 64
67 "slide" 64
68 "hammer" 64
69 "sliderelease" 64
70 "barrel" 64
71 "slidesg" 64
72 "grip_safety" 64
73 "safety" 64
74 "magrelease" 64
75 "sg_round" -1
76 "mag" -1
77 "bullet2" 76
78 "bullet3" 76
79 "bullet4" 78
80 "bullet5" 78
81 "bullet6" 78
82 "bullet7" 78
83 "bullet8" 78
84 "bullet9" 78
85 "bullet10" 78
86 "springstart" 76
87 "springend" 86
88 "sg_shell" -1
end
skeleton
time 0
0  0.000006 0.000000 0.000000  -1.570800 -1.391899 -1.570792
1  2.033349 1.000767 1.937657  -1.544956 -1.855077 -0.198630
2  6.027519 -0.000325 0.000208  -2.143567 0.785018 -0.668631
3  11.692112 0.000645 -0.000737  -0.000081 -0.000003 -1.062457
4  11.480341 -0.000210 -0.000731  1.977908 0.206141 0.313878
5  3.859507 -0.142824 -1.192079  -0.468169 0.151546 -0.880257
6  1.312591 0.000011 0.000008  -0.000027 0.000044 -0.439740
7  0.729356 0.000054 0.000049  0.000017 0.000021 -0.244317
8  3.942145 0.046328 -0.431542  -0.151817 0.073216 -0.811086
9  1.539110 0.000084 0.000004  -0.000007 0.000021 -0.247842
10  1.196333 0.000143 0.000029  0.000011 0.000018 -0.430770
11  3.883516 -0.047213 0.431351  0.085894 0.021858 -0.587909
12  1.719572 -0.000031 0.000017  0.000015 0.005518 -0.366533
13  1.209181 0.000090 0.000012  0.000004 0.003091 -0.216438
14  3.859681 -0.138419 1.332380  0.354466 -0.042717 -0.531784
15  1.719448 -0.000020 0.000028  0.000028 0.004066 -0.363025
16  1.099676 0.000050 0.000005  0.000003 0.002578 -0.244381
17  0.806014 -0.349039 1.321248  -1.222694 -0.679188 -0.788867
18  1.789818 -0.000006 -0.000018  0.000011 -0.000024 0.228523
19  1.207014 -0.000014 -0.000041  0.000002 -0.000008 0.362856
20  5.740633 0.000389 -0.000700  0.079065 0.000003 0.000063
21  11.481082 0.000133 -0.000803  0.075193 0.073684 0.050288
22  6.027525 -0.000330 0.000200  -2.352391 -0.091111 0.810625
23  0.000001 11.692099 -0.000007  -0.760917 -0.255891 -0.622326
24  0.000004 0.000009 -0.000000  0.868996 -0.000031 1.570739
25  0.000000 -0.000012 -0.000000  0.868960 0.000002 1.570712
26  2.033355 1.000772 -1.937609  1.473120 1.855075 -0.198639
27  6.027509 -0.000259 -0.000229  1.637176 -0.060228 -0.592196
28  11.691992 0.000163 0.000858  -0.000050 -0.000001 -0.007067
29  11.539204 0.000316 0.000816  -1.562466 0.108529 -0.061253
30  3.859438 -0.132760 1.193065  0.466290 -0.158048 -0.878823
31  1.312559 0.000023 0.000001  0.000013 -0.000043 -0.439709
32  0.729345 0.000065 -0.000027  -0.000023 -0.000019 -0.244286
33  3.942046 0.050138 0.431000  0.150091 -0.079181 -0.810189
34  1.539099 0.000006 0.000000  0.000009 -0.000007 -0.247824
35  1.196302 0.000075 -0.000004  -0.000007 -0.000009 -0.430781
36  3.883415 -0.050474 -0.431084  -0.085915 -0.026392 -0.587660
37  1.719564 -0.000085 -0.000004  -0.000006 -0.007962 -0.366486
38  1.209197 0.000034 0.000011  0.000002 -0.004461 -0.216413
39  3.859588 -0.149084 -1.331321  -0.354445 0.038578 -0.531955
40  1.719413 -0.000099 -0.000036  -0.000030 -0.006584 -0.363030
41  1.099674 0.000025 0.000006  0.000004 -0.004188 -0.244347
42  0.805982 -0.359850 -1.318338  1.221444 0.673631 -0.793558
43  1.789779 -0.000010 -0.000040  -0.000028 0.000031 0.228553
44  1.206995 -0.000006 0.000007  -0.000017 0.000020 0.362910
45  5.740573 0.000079 0.000723  0.026990 -0.000014 0.000028
46  11.492787 0.000137 0.000908  0.000504 0.000315 -0.022541
47  6.027515 -0.000273 -0.000228  0.074799 -0.634128 -2.207435
48  -0.000001 11.691977 -0.000007  -0.005397 0.000036 0.004562
49  0.000002 -0.000001 0.000001  2.272571 -0.000036 1.570860
50  -0.000008 -0.000014 0.000004  2.272645 -0.000036 1.570861
51  -22.620094 0.844507 -17.554111  -1.605366 2.379717 -0.041994
52  -0.000000 0.000001 -0.000000  0.008153 -0.000259 0.000009
53  0.000001 -0.000001 0.000000  1.565115 0.043565 -0.106862
54  22.730511 4.822210 -11.506547  1.605712 0.761853 0.042358
55  0.000000 -0.000002 -0.000000  0.000000 -0.000001 -0.000002
56  0.000031 0.000027 0.000001  -1.571901 -0.044449 -0.106509
57  15.265023 8.339654 -8.787539  1.570796 -0.000000 0.000000
58  -15.265000 8.339654 -8.787539  1.570796 -0.000000 0.000000
59  1.941978 -1.346989 1.821586  1.570796 -0.000000 0.000000
60  -0.004311 0.001230 -0.000371  0.006898 -0.005534 -0.284229
61  -1.937603 -1.346625 1.822824  1.570796 -0.000000 0.000000
62  0.000000 0.000000 0.000000  -0.078727 -3.136056 0.284226
63  0.000000 0.000000 0.000000  1.570796 -0.000000 0.000000
64  -3.534368 -10.111034 -2.851932  1.570796 -0.000000 0.000000
65  -0.008022 0.449004 2.449477  0.000000 -0.000000 0.000000
66  -0.008021 1.798499 0.936337  0.000000 -0.000000 0.000000
67  0.000000 2.151127 2.901127  0.000000 -0.000000 0.000000
68  -0.008023 1.347420 0.085285  0.000000 -0.000000 0.000000
69  0.230628 1.332312 3.105305  0.000000 -0.000000 0.000000
70  -0.008024 2.172907 7.984051  0.000000 -0.000000 0.000000
71  -0.008022 1.228065 5.810776  0.000000 -0.000000 0.000000
72  -0.008023 1.115505 -0.313082  0.000000 -0.000000 0.000000
73  -0.008023 1.345870 0.084164  1.570796 -0.000000 -0.000000
74  -0.008023 0.197514 1.902819  0.000000 -0.000000 0.000000
75  -3.542390 -12.021312 -0.689985  1.570796 -0.000000 0.000000
76  -3.534368 -10.839828 -0.901454  1.570796 -0.000000 0.000000
77  -0.008021 -0.653745 0.060182  0.000000 -0.000000 0.000000
78  -0.008021 -1.155510 -0.087180  0.000000 -0.000000 0.000000
79  0.000000 -0.501765 -0.147367  0.000000 -0.000000 0.000000
80  0.000000 -1.003531 -0.294728  0.000000 -0.000000 0.000000
81  0.000000 -1.505297 -0.442090  0.000000 -0.000000 0.000000
82  0.000000 -2.007061 -0.589454  0.000000 -0.000000 0.000000
83  0.000000 -2.508827 -0.736814  0.000000 -0.000000 0.000000
84  0.000000 -2.772560 -0.939010  0.000000 -0.000000 0.000000
85  0.000000 -3.071457 -1.220325  0.000000 -0.000000 0.000000
86  -0.283371 -4.518086 -0.534134  0.346743 -0.000000 -0.000000
87  -0.000000 4.582804 -0.219900  -0.051302 0.000000 0.000000
88  -3.542390 -12.021312 -0.689985  1.570796 -0.000000 0.000000
end
triangles
lowpoly_plastic
0  -3.542389 -10.525338 -0.094603  0.000000 -1.000000 -0.000010  0.854847 0.510239 1 64 1.000000
0  -3.809569 -10.525338 0.029915  0.000000 -1.000000 -0.000010  0.854825 0.510193 1 64 1.000000
0  -3.929033 -10.525338 -0.094330  0.000000 -1.000000 -0.000010  0.854847 0.510173 1 64 1.000000
lowpoly_plastic
0  -3.542389 -10.262226 -0.094602  0.000007 1.000000 0.000000  0.878379 0.514634 1 64 1.000000
0  -3.809569 -10.262224 0.029915  0.000007 1.000000 0.000000  0.878358 0.514680 1 64 1.000000
0  -3.542389 -10.262226 0.029642  0.000007 1.000000 0.000000  0.878358 0.514634 1 64 1.000000
lowpoly_plastic
0  -3.275210 -10.525338 0.029915  0.000000 -1.000000 0.000000  0.854825 0.510285 1 64 1.000000
0  -3.542389 -10.525338 -0.094603  0.000000 -1.000000 0.000000  0.854847 0.510239 1 64 1.000000
0  -3.155746 -10.525338 -0.094330  0.000000 -1.000000 0.000000  0.854847 0.510305 1 64 1.000000
lowpoly_plastic
0  -3.542389 -10.262226 -0.094602  0.000000 1.000000 0.000000  0.878379 0.514634 1 64 1.000000
0  -3.275210 -10.262226 0.029915  0.000000 1.000000 0.000000  0.878358 0.514588 1 64 1.000000
0  -3.155746 -10.262226 -0.094330  0.000000 1.000000 0.000000  0.878379 0.514567 1 64 1.000000
lowpoly_plastic
0  -3.542391 -11.042466 0.029643  0.001021 0.000000 0.999999  0.879807 0.514613 1 64 1.000000
0  -3.809570 -11.209805 0.029916  0.001021 0.000000 0.999999  0.879779 0.514659 1 64 1.000000
0  -3.542391 -11.209805 0.029643  0.001021 0.000000 0.999999  0.879779 0.514613 1 64 1.000000
lowpoly_plastic
0  -3.275211 -11.388857 0.029916  0.720836 0.000000 0.693105  0.884381 0.511663 1 64 1.000000
0  -3.155748 -11.556198 -0.094329  0.720836 0.000000 0.693105  0.884403 0.511635 1 64 1.000000
0  -3.155747 -11.388857 -0.094329  0.720836 0.000000 0.693105  0.884403 0.511663 1 64 1.000000
lowpoly_plastic
0  -3.542391 -10.696073 0.029642  0.001022 0.000000 0.999999  0.879693 0.514613 1 64 1.000000
0  -3.809570 -10.863412 0.029916  0.001022 0.000000 0.999999  0.879664 0.514659 1 64 1.000000
0  -3.542391 -10.863412 0.029642  0.001022 0.000000 0.999999  0.879664 0.514613 1 64 1.000000
lowpoly_plastic
0  -3.275211 -10.696073 0.029916  0.720836 0.000000 0.693105  0.884381 0.512152 1 64 1.000000
0  -3.155747 -10.863412 -0.094329  0.720836 0.000000 0.693105  0.884403 0.512123 1 64 1.000000
0  -3.155747 -10.696073 -0.094329  0.720836 0.000000 0.693105  0.884403 0.512152 1 64 1.000000
lowpoly_plastic
0  -3.929034 -10.696073 -0.094329  -0.720840 0.000000 0.693101  0.884403 0.511893 1 64 1.000000
0  -3.809570 -10.863412 0.029916  -0.720840 0.000000 0.693101  0.884381 0.511922 1 64 1.000000
0  -3.809570 -10.696071 0.029916  -0.720840 0.000000 0.693101  0.884381 0.511893 1 64 1.000000
lowpoly_plastic
0  -3.542391 -10.863412 -0.094602  0.000000 -1.000000 0.000000  0.854911 0.510239 1 64 1.000000
0  -3.809570 -10.863412 0.029916  0.000000 -1.000000 0.000000  0.854889 0.510193 1 64 1.000000
0  -3.929034 -10.863412 -0.094329  0.000000 -1.000000 0.000000  0.854911 0.510173 1 64 1.000000
lowpoly_plastic
0  -3.542391 -10.696073 -0.094602  0.000007 1.000000 0.000000  0.854719 0.510239 1 64 1.000000
0  -3.809570 -10.696071 0.029916  0.000007 1.000000 0.000000  0.854697 0.510285 1 64 1.000000
0  -3.542391 -10.696073 0.029642  0.000007 1.000000 0.000000  0.854697 0.510239 1 64 1.000000
lowpoly_plastic
0  -3.275211 -10.863412 0.029916  0.000000 -1.000000 0.000000  0.854889 0.510285 1 64 1.000000
0  -3.542391 -10.863412 -0.094602  0.000000 -1.000000 0.000000  0.854911 0.510239 1 64 1.000000
0  -3.155747 -10.863412 -0.094329  0.000000 -1.000000 0.000000  0.854911 0.510305 1 64 1.000000
lowpoly_plastic
0  -3.542391 -10.696073 -0.094602  0.000000 1.000000 0.000005  0.854719 0.510239 1 64 1.000000
0  -3.275211 -10.696073 0.029916  0.000000 1.000000 0.000005  0.854697 0.510193 1 64 1.000000
0  -3.155747 -10.696073 -0.094329  0.000000 1.000000 0.000005  0.854719 0.510173 1 64 1.000000
lowpoly_plastic
0  -3.542391 -11.209805 -0.094602  0.000000 -1.000000 -0.000005  0.854825 0.510239 1 64 1.000000
0  -3.809570 -11.209805 0.029916  0.000000 -1.000000 -0.000005  0.854804 0.510193 1 64 1.000000
0  -3.929034 -11.209805 -0.094329  0.000000 -1.000000 -0.000005  0.854825 0.510173 1 64 1.000000
lowpoly_plastic
0  -3.542391 -11.042466 -0.094602  0.000007 1.000000 0.000000  0.854633 0.510239 1 64 1.000000
0  -3.809570 -11.042464 0.029916  0.000007 1.000000 0.000000  0.854612 0.510285 1 64 1.000000
0  -3.542391 -11.042466 0.029643  0.000007 1.000000 0.000000  0.854612 0.510239 1 64 1.000000
lowpoly_plastic
0  -3.275212 -11.209805 0.029916  0.000000 -1.000000 0.000000  0.854804 0.510285 1 64 1.000000
0  -3.542391 -11.209805 -0.094602  0.000000 -1.000000 0.000000  0.854825 0.510239 1 64 1.000000
0  -3.155747 -11.209805 -0.094329  0.000000 -1.000000 0.000000  0.854825 0.510305 1 64 1.000000
lowpoly_plastic
0  -3.542391 -11.042466 -0.094602  0.000000 1.000000 -0.000005  0.854633 0.510239 1 64 1.000000
0  -3.275212 -11.042466 0.029916  0.000000 1.000000 -0.000005  0.854612 0.510193 1 64 1.000000
0  -3.155747 -11.042466 -0.094329  0.000000 1.000000 -0.000005  0.854633 0.510173 1 64 1.000000
lowpoly_plastic
0  -3.542391 -11.556198 -0.094602  0.000000 -1.000000 0.000000  0.854783 0.510239 1 64 1.000000
0  -3.809570 -11.556198 0.029916  0.000000 -1.000000 0.000000  0.854761 0.510193 1 64 1.000000
0  -3.929034 -11.556198 -0.094329  0.000000 -1.000000 0.000000  0.854783 0.510173 1 64 1.000000
lowpoly_plastic
0  -3.542391 -11.388857 0.029642  0.001022 0.000000 0.999999  0.879721 0.514613 1 64 1.000000
0  -3.809570 -11.556198 0.029916  0.001022 0.000000 0.999999  0.879750 0.514567 1 64 1.000000
0  -3.542391 -11.556198 0.029642  0.001022 0.000000 0.999999  0.879750 0.514613 1 64 1.000000
lowpoly_plastic
0  -3.542391 -11.388857 -0.094602  0.000000 1.000000 0.000000  0.854505 0.510239 1 64 1.000000
0  -3.809570 -11.388857 0.029916  0.000000 1.000000 0.000000  0.854484 0.510285 1 64 1.000000
0  -3.542391 -11.388857 0.029642  0.000000 1.000000 0.000000  0.854484 0.510239 1 64 1.000000
lowpoly_plastic
0  -3.275211 -11.556198 0.029916  0.000000 -1.000000 0.000000  0.854761 0.510285 1 64 1.000000
0  -3.542391 -11.556198 -0.094602  0.000000 -1.000000 0.000000  0.854783 0.510239 1 64 1.000000
0  -3.155748 -11.556198 -0.094329  0.000000 -1.000000 0.000000  0.854783 0.510305 1 64 1.000000
lowpoly_plastic
0  -3.542391 -11.388857 -0.094602  0.000000 1.000000 -0.000015  0.854505 0.510239 1 64 1.000000
0  -3.275211 -11.388857 0.029916  0.000000 1.000000 -0.000015  0.854484 0.510193 1 64 1.000000
0  -3.155747 -11.388857 -0.094329  0.000000 1.000000 -0.000015  0.854505 0.510173 1 64 1.000000
lowpoly_plastic
0  -3.542391 -12.002395 -0.094602  0.000000 -1.000000 0.000000  0.854868 0.510239 1 64 1.000000
0  -3.809570 -12.002395 0.029916  0.000000 -1.000000 0.000000  0.854847 0.510193 1 64 1.000000
0  -3.929034 -12.002395 -0.094329  0.000000 -1.000000 0.000000  0.854868 0.510173 1 64 1.000000
lowpoly_plastic
0  -3.542391 -11.735250 -0.094602  0.000000 1.000000 0.000000  0.854590 0.510239 1 64 1.000000
0  -3.809570 -11.735250 0.029916  0.000000 1.000000 0.000000  0.854569 0.510285 1 64 1.000000
0  -3.542391 -11.735250 0.029642  0.000000 1.000000 0.000000  0.854569 0.510239 1 64 1.000000
lowpoly_plastic
0  -3.275212 -12.002395 0.029916  0.000000 -1.000000 0.000000  0.854847 0.510285 1 64 1.000000
0  -3.542391 -12.002395 -0.094602  0.000000 -1.000000 0.000000  0.854868 0.510239 1 64 1.000000
0  -3.155747 -12.002395 -0.094329  0.000000 -1.000000 0.000000  0.854868 0.510305 1 64 1.000000
lowpoly_plastic
0  -3.542391 -11.735250 -0.094602  0.000000 1.000000 -0.000005  0.854590 0.510239 1 64 1.000000
0  -3.275212 -11.735250 0.029916  0.000000 1.000000 -0.000005  0.854569 0.510193 1 64 1.000000
0  -3.155748 -11.735250 -0.094329  0.000000 1.000000 -0.000005  0.854590 0.510173 1 64 1.000000
lowpoly_plastic
0  -3.275210 -10.525338 0.029915  -0.001021 -0.000001 0.999999  0.880238 0.514429 1 64 1.000000
0  -3.542389 -10.262226 0.029642  -0.001021 -0.000001 0.999999  0.880284 0.514475 1 64 1.000000
0  -3.542389 -10.525338 0.029642  -0.001021 -0.000001 0.999999  0.880238 0.514475 1 64 1.000000
lowpoly_plastic
0  -3.813025 -12.002395 -0.197168  -1.000000 0.000001 0.000000  0.881855 0.514908 1 64 1.000000
0  -3.813024 -10.262360 -0.238093  -1.000000 0.000001 0.000000  0.881862 0.514567 1 64 1.000000
0  -3.813025 -12.002395 -0.238094  -1.000000 0.000001 0.000000  0.881862 0.514908 1 64 1.000000
lowpoly_plastic
0  -3.384292 -10.262360 -0.212271  0.000000 1.000000 0.000059  0.884091 0.508694 1 64 1.000000
0  -3.271756 -10.262360 -0.238093  0.000000 1.000000 0.000059  0.884087 0.508714 1 64 1.000000
0  -3.350578 -10.262360 -0.238093  0.000000 1.000000 0.000059  0.884087 0.508700 1 64 1.000000
lowpoly_plastic
0  -3.813024 -10.262360 -0.197166  0.000000 1.000000 0.000000  0.884094 0.508621 1 64 1.000000
0  -3.727229 -10.262360 -0.238093  0.000000 1.000000 0.000000  0.884087 0.508635 1 64 1.000000
0  -3.813024 -10.262360 -0.238093  0.000000 1.000000 0.000000  0.884087 0.508621 1 64 1.000000
lowpoly_plastic
0  -3.929034 -10.262360 -0.094328  0.000000 1.000000 0.000000  0.884111 0.508601 1 64 1.000000
0  -3.542390 -10.262360 -0.094600  0.000000 1.000000 0.000000  0.884111 0.508667 1 64 1.000000
0  -3.813024 -10.262360 -0.197166  0.000000 1.000000 0.000000  0.884094 0.508621 1 64 1.000000
lowpoly_plastic
0  -3.542390 -10.262360 -0.094600  0.000000 1.000000 0.000000  0.884111 0.508667 1 64 1.000000
0  -3.542390 -10.262360 -0.184446  0.000000 1.000000 0.000000  0.884096 0.508667 1 64 1.000000
0  -3.542390 -10.262360 -0.184446  0.000000 1.000000 0.000000  0.884096 0.508667 1 64 1.000000
lowpoly_plastic
0  -3.275211 -11.556198 0.029916  -0.001022 0.000000 0.999999  0.879750 0.514659 1 64 1.000000
0  -3.542391 -11.388857 0.029642  -0.001022 0.000000 0.999999  0.879721 0.514613 1 64 1.000000
0  -3.542391 -11.556198 0.029642  -0.001022 0.000000 0.999999  0.879750 0.514613 1 64 1.000000
lowpoly_plastic
0  -3.275212 -11.209805 0.029916  -0.001021 0.000000 1.000000  0.879779 0.514567 1 64 1.000000
0  -3.542391 -11.042466 0.029643  -0.001021 0.000000 1.000000  0.879807 0.514613 1 64 1.000000
0  -3.542391 -11.209805 0.029643  -0.001021 0.000000 1.000000  0.879779 0.514613 1 64 1.000000
lowpoly_plastic
0  -3.271757 -12.002395 -0.197168  0.663351 0.000000 -0.748309  0.884032 0.512084 1 64 1.000000
0  -3.155747 -10.262360 -0.094328  0.663351 0.000000 -0.748309  0.884052 0.511744 1 64 1.000000
0  -3.155748 -12.002395 -0.094329  0.663351 0.000000 -0.748309  0.884052 0.512084 1 64 1.000000
lowpoly_plastic
0  -3.730788 -11.363805 -0.238094  0.000001 0.000000 -1.000000  0.883154 0.513893 1 64 1.000000
0  -3.700174 -11.986385 -0.238094  0.000001 0.000000 -1.000000  0.883159 0.513982 1 64 1.000000
0  -3.813025 -12.002395 -0.238094  0.000001 0.000000 -1.000000  0.883140 0.514045 1 64 1.000000
lowpoly_plastic
0  -3.271757 -12.002395 -0.238094  1.000000 -0.000001 0.000000  0.881841 0.514908 1 64 1.000000
0  -3.271756 -10.262360 -0.197166  1.000000 -0.000001 0.000000  0.881848 0.514567 1 64 1.000000
0  -3.271757 -12.002395 -0.197168  1.000000 -0.000001 0.000000  0.881848 0.514908 1 64 1.000000
lowpoly_plastic
0  -3.275211 -10.863412 0.029916  -0.001022 0.000000 0.999999  0.879664 0.514567 1 64 1.000000
0  -3.542391 -10.696073 0.029642  -0.001022 0.000000 0.999999  0.879693 0.514613 1 64 1.000000
0  -3.542391 -10.863412 0.029642  -0.001022 0.000000 0.999999  0.879664 0.514613 1 64 1.000000
lowpoly_plastic
0  -3.271757 -12.002395 -0.238094  0.000000 0.000001 -1.000000  0.883233 0.514045 1 64 1.000000
0  -3.370970 -12.002395 -0.238094  0.000000 0.000001 -1.000000  0.883216 0.514045 1 64 1.000000
0  -3.350604 -11.614699 -0.238094  0.000000 0.000001 -1.000000  0.883219 0.513936 1 64 1.000000
lowpoly_plastic
0  -3.929034 -11.042466 -0.094329  -0.720839 0.000000 0.693102  0.884403 0.511750 1 64 1.000000
0  -3.809570 -11.209805 0.029916  -0.720839 0.000000 0.693102  0.884381 0.511778 1 64 1.000000
0  -3.809570 -11.042464 0.029916  -0.720839 0.000000 0.693102  0.884381 0.511750 1 64 1.000000
lowpoly_plastic
0  -3.542389 -10.262226 0.029642  0.001021 -0.000001 0.999999  0.880284 0.514475 1 64 1.000000
0  -3.809569 -10.525338 0.029915  0.001021 -0.000001 0.999999  0.880238 0.514520 1 64 1.000000
0  -3.542389 -10.525338 0.029642  0.001021 -0.000001 0.999999  0.880238 0.514475 1 64 1.000000
lowpoly_plastic
0  -3.542391 -12.002395 -0.094602  0.000706 -0.000001 1.000000  0.855716 0.509340 1 64 1.000000
0  -3.929034 -10.262360 -0.094328  0.000706 -0.000001 1.000000  0.855783 0.508999 1 64 1.000000
0  -3.929035 -12.002395 -0.094329  0.000706 -0.000001 1.000000  0.855783 0.509340 1 64 1.000000
lowpoly_plastic
0  -3.929034 -11.556198 -0.094329  -0.720836 0.000000 0.693106  0.884403 0.511692 1 64 1.000000
0  -3.809570 -11.388857 0.029916  -0.720836 0.000000 0.693106  0.884381 0.511663 1 64 1.000000
0  -3.929034 -11.388857 -0.094329  -0.720836 0.000000 0.693106  0.884403 0.511663 1 64 1.000000
lowpoly_plastic
0  -3.275212 -11.735250 0.029916  0.720839 0.000001 0.693102  0.884381 0.511979 1 64 1.000000
0  -3.155747 -12.002395 -0.094329  0.720839 0.000001 0.693102  0.884403 0.511951 1 64 1.000000
0  -3.155748 -11.735250 -0.094329  0.720839 0.000001 0.693102  0.884403 0.511979 1 64 1.000000
lowpoly_plastic
0  -3.929034 -11.735250 -0.094329  -0.720837 0.000000 0.693104  0.884403 0.512037 1 64 1.000000
0  -3.809570 -12.002395 0.029916  -0.720837 0.000000 0.693104  0.884381 0.512065 1 64 1.000000
0  -3.809570 -11.735250 0.029916  -0.720837 0.000000 0.693104  0.884381 0.512037 1 64 1.000000
lowpoly_plastic
0  -3.929035 -12.002395 -0.094329  -0.663350 0.000001 -0.748309  0.884039 0.512998 1 64 1.000000
0  -3.813024 -10.262360 -0.197166  -0.663350 0.000001 -0.748309  0.884059 0.512657 1 64 1.000000
0  -3.813025 -12.002395 -0.197168  -0.663350 0.000001 -0.748309  0.884059 0.512998 1 64 1.000000
lowpoly_plastic
0  -3.155748 -12.002395 -0.094329  -0.000706 -0.000001 1.000000  0.855650 0.509340 1 64 1.000000
0  -3.542390 -10.262360 -0.094600  -0.000706 -0.000001 1.000000  0.855716 0.508999 1 64 1.000000
0  -3.542391 -12.002395 -0.094602  -0.000706 -0.000001 1.000000  0.855716 0.509340 1 64 1.000000
lowpoly_plastic
0  -3.275212 -12.002395 0.029916  -0.001022 0.000000 0.999999  0.879836 0.514567 1 64 1.000000
0  -3.542391 -11.735250 0.029642  -0.001022 0.000000 0.999999  0.879865 0.514613 1 64 1.000000
0  -3.542391 -12.002395 0.029642  -0.001022 0.000000 0.999999  0.879836 0.514613 1 64 1.000000
lowpoly_plastic
0  -3.929033 -10.262226 -0.094330  -0.720839 -0.000001 0.693103  0.884315 0.509917 1 64 1.000000
0  -3.809569 -10.525338 0.029915  -0.720839 -0.000001 0.693103  0.884294 0.509962 1 64 1.000000
0  -3.809569 -10.262224 0.029915  -0.720839 -0.000001 0.693103  0.884294 0.509917 1 64 1.000000
lowpoly_plastic
0  -3.275212 -11.042466 0.029916  0.720838 0.000000 0.693103  0.884381 0.512008 1 64 1.000000
0  -3.155747 -11.209805 -0.094329  0.720838 0.000000 0.693103  0.884403 0.511979 1 64 1.000000
0  -3.155747 -11.042466 -0.094329  0.720838 0.000000 0.693103  0.884403 0.512008 1 64 1.000000
lowpoly_plastic
0  -3.275210 -10.262226 0.029915  0.720842 -0.000000 0.693100  0.884315 0.510007 1 64 1.000000
0  -3.155746 -10.525338 -0.094330  0.720842 -0.000000 0.693100  0.884294 0.510052 1 64 1.000000
0  -3.155746 -10.262226 -0.094330  0.720842 -0.000000 0.693100  0.884294 0.510007 1 64 1.000000
lowpoly_plastic
0  -3.542389 -10.525338 -0.094603  0.000000 -1.000000 0.000000  0.854847 0.510239 1 64 1.000000
0  -3.542389 -10.525338 0.029642  0.000000 -1.000000 0.000000  0.854825 0.510239 1 64 1.000000
0  -3.809569 -10.525338 0.029915  0.000000 -1.000000 0.000000  0.854825 0.510193 1 64 1.000000
lowpoly_plastic
0  -3.542389 -10.262226 -0.094602  -0.000000 1.000000 -0.000015  0.878379 0.514634 1 64 1.000000
0  -3.929033 -10.262226 -0.094330  -0.000000 1.000000 -0.000015  0.878379 0.514700 1 64 1.000000
0  -3.809569 -10.262224 0.029915  -0.000000 1.000000 -0.000015  0.878358 0.514680 1 64 1.000000
lowpoly_plastic
0  -3.275210 -10.525338 0.029915  0.000000 -1.000000 0.000000  0.854825 0.510285 1 64 1.000000
0  -3.542389 -10.525338 0.029642  0.000000 -1.000000 0.000000  0.854825 0.510239 1 64 1.000000
0  -3.542389 -10.525338 -0.094603  0.000000 -1.000000 0.000000  0.854847 0.510239 1 64 1.000000
lowpoly_plastic
0  -3.542389 -10.262226 -0.094602  0.000000 1.000000 0.000000  0.878379 0.514634 1 64 1.000000
0  -3.542389 -10.262226 0.029642  0.000000 1.000000 0.000000  0.878358 0.514634 1 64 1.000000
0  -3.275210 -10.262226 0.029915  0.000000 1.000000 0.000000  0.878358 0.514588 1 64 1.000000
lowpoly_plastic
0  -3.542391 -10.863412 -0.094602  0.000000 -1.000000 0.000000  0.854911 0.510239 1 64 1.000000
0  -3.542391 -10.863412 0.029642  0.000000 -1.000000 0.000000  0.854890 0.510239 1 64 1.000000
0  -3.809570 -10.863412 0.029916  0.000000 -1.000000 0.000000  0.854889 0.510193 1 64 1.000000
lowpoly_plastic
0  -3.542391 -10.696073 -0.094602  -0.000000 1.000000 -0.000015  0.854719 0.510239 1 64 1.000000
0  -3.929034 -10.696073 -0.094329  -0.000000 1.000000 -0.000015  0.854719 0.510305 1 64 1.000000
0  -3.809570 -10.696071 0.029916  -0.000000 1.000000 -0.000015  0.854697 0.510285 1 64 1.000000
lowpoly_plastic
0  -3.275211 -10.863412 0.029916  0.000000 -1.000000 0.000000  0.854889 0.510285 1 64 1.000000
0  -3.542391 -10.863412 0.029642  0.000000 -1.000000 0.000000  0.854890 0.510239 1 64 1.000000
0  -3.542391 -10.863412 -0.094602  0.000000 -1.000000 0.000000  0.854911 0.510239 1 64 1.000000
lowpoly_plastic
0  -3.542391 -10.696073 -0.094602  0.000000 1.000000 0.000000  0.854719 0.510239 1 64 1.000000
0  -3.542391 -10.696073 0.029642  0.000000 1.000000 0.000000  0.854697 0.510239 1 64 1.000000
0  -3.275211 -10.696073 0.029916  0.000000 1.000000 0.000000  0.854697 0.510193 1 64 1.000000
lowpoly_plastic
0  -3.542391 -11.209805 -0.094602  0.000000 -1.000000 0.000000  0.854825 0.510239 1 64 1.000000
0  -3.542391 -11.209805 0.029643  0.000000 -1.000000 0.000000  0.854804 0.510239 1 64 1.000000
0  -3.809570 -11.209805 0.029916  0.000000 -1.000000 0.000000  0.854804 0.510193 1 64 1.000000
lowpoly_plastic
0  -3.542391 -11.042466 -0.094602  -0.000000 1.000000 -0.000020  0.854633 0.510239 1 64 1.000000
0  -3.929034 -11.042466 -0.094329  -0.000000 1.000000 -0.000020  0.854633 0.510305 1 64 1.000000
0  -3.809570 -11.042464 0.029916  -0.000000 1.000000 -0.000020  0.854612 0.510285 1 64 1.000000
lowpoly_plastic
0  -3.275212 -11.209805 0.029916  0.000000 -1.000000 0.000000  0.854804 0.510285 1 64 1.000000
0  -3.542391 -11.209805 0.029643  0.000000 -1.000000 0.000000  0.854804 0.510239 1 64 1.000000
0  -3.542391 -11.209805 -0.094602  0.000000 -1.000000 0.000000  0.854825 0.510239 1 64 1.000000
lowpoly_plastic
0  -3.542391 -11.042466 -0.094602  0.000000 1.000000 0.000000  0.854633 0.510239 1 64 1.000000
0  -3.542391 -11.042466 0.029643  0.000000 1.000000 0.000000  0.854612 0.510239 1 64 1.000000
0  -3.275212 -11.042466 0.029916  0.000000 1.000000 0.000000  0.854612 0.510193 1 64 1.000000
lowpoly_plastic
0  -3.542391 -11.556198 -0.094602  0.000000 -1.000000 0.000000  0.854783 0.510239 1 64 1.000000
0  -3.542391 -11.556198 0.029642  0.000000 -1.000000 0.000000  0.854761 0.510239 1 64 1.000000
0  -3.809570 -11.556198 0.029916  0.000000 -1.000000 0.000000  0.854761 0.510193 1 64 1.000000
lowpoly_plastic
0  -3.542391 -11.388857 -0.094602  0.000000 1.000000 -0.000010  0.854505 0.510239 1 64 1.000000
0  -3.929034 -11.388857 -0.094329  0.000000 1.000000 -0.000010  0.854505 0.510305 1 64 1.000000
0  -3.809570 -11.388857 0.029916  0.000000 1.000000 -0.000010  0.854484 0.510285 1 64 1.000000
lowpoly_plastic
0  -3.275211 -11.556198 0.029916  0.000000 -1.000000 0.000000  0.854761 0.510285 1 64 1.000000
0  -3.542391 -11.556198 0.029642  0.000000 -1.000000 0.000000  0.854761 0.510239 1 64 1.000000
0  -3.542391 -11.556198 -0.094602  0.000000 -1.000000 0.000000  0.854783 0.510239 1 64 1.000000
lowpoly_plastic
0  -3.542391 -11.388857 -0.094602  0.000000 1.000000 0.000000  0.854505 0.510239 1 64 1.000000
0  -3.542391 -11.388857 0.029642  0.000000 1.000000 0.000000  0.854484 0.510239 1 64 1.000000
0  -3.275211 -11.388857 0.029916  0.000000 1.000000 0.000000  0.854484 0.510193 1 64 1.000000
lowpoly_plastic
0  -3.542391 -12.002395 -0.094602  0.000000 -1.000000 0.000000  0.854868 0.510239 1 64 1.000000
0  -3.542391 -12.002395 0.029642  0.000000 -1.000000 0.000000  0.854847 0.510239 1 64 1.000000
0  -3.809570 -12.002395 0.029916  0.000000 -1.000000 0.000000  0.854847 0.510193 1 64 1.000000
lowpoly_plastic
0  -3.542391 -11.735250 -0.094602  0.000000 1.000000 -0.000010  0.854590 0.510239 1 64 1.000000
0  -3.929034 -11.735250 -0.094329  0.000000 1.000000 -0.000010  0.854590 0.510305 1 64 1.000000
0  -3.809570 -11.735250 0.029916  0.000000 1.000000 -0.000010  0.854569 0.510285 1 64 1.000000
lowpoly_plastic
0  -3.275212 -12.002395 0.029916  0.000000 -1.000000 0.000000  0.854847 0.510285 1 64 1.000000
0  -3.542391 -12.002395 0.029642  0.000000 -1.000000 0.000000  0.854847 0.510239 1 64 1.000000
0  -3.542391 -12.002395 -0.094602  0.000000 -1.000000 0.000000  0.854868 0.510239 1 64 1.000000
lowpoly_plastic
0  -3.542391 -11.735250 -0.094602  0.000000 1.000000 0.000000  0.854590 0.510239 1 64 1.000000
0  -3.542391 -11.735250 0.029642  0.000000 1.000000 0.000000  0.854569 0.510239 1 64 1.000000
0  -3.275212 -11.735250 0.029916  0.000000 1.000000 0.000000  0.854569 0.510193 1 64 1.000000
lowpoly_plastic
0  -3.813024 -10.262360 -0.197166  0.000000 1.000000 0.000000  0.884094 0.508621 1 64 1.000000
0  -3.542390 -10.262360 -0.184446  0.000000 1.000000 0.000000  0.884096 0.508667 1 64 1.000000
0  -3.701816 -10.262360 -0.218956  0.000000 1.000000 0.000000  0.884090 0.508640 1 64 1.000000
lowpoly_plastic
0  -3.542390 -10.262360 -0.094600  0.000000 1.000000 0.000006  0.884111 0.508667 1 64 1.000000
0  -3.155747 -10.262360 -0.094328  0.000000 1.000000 0.000006  0.884111 0.508734 1 64 1.000000
0  -3.271756 -10.262360 -0.197166  0.000000 1.000000 0.000006  0.884094 0.508714 1 64 1.000000
lowpoly_plastic
0  -3.542391 -11.735250 0.029642  0.001022 0.000000 0.999999  0.879865 0.514613 1 64 1.000000
0  -3.809570 -12.002395 0.029916  0.001022 0.000000 0.999999  0.879836 0.514659 1 64 1.000000
0  -3.542391 -12.002395 0.029642  0.001022 0.000000 0.999999  0.879836 0.514613 1 64 1.000000
lowpoly_plastic
0  -3.813025 -12.002395 -0.197168  0.000000 -1.000000 0.000019  0.884106 0.510378 1 64 1.000000
0  -3.700175 -12.002395 -0.238094  0.000000 -1.000000 0.000019  0.884113 0.510398 1 64 1.000000
0  -3.542390 -12.002395 -0.184447  0.000000 -1.000000 0.000019  0.884103 0.510425 1 64 1.000000
lowpoly_plastic
0  -3.271757 -12.002395 -0.238094  0.000000 -1.000000 0.000000  0.884113 0.510471 1 64 1.000000
0  -3.271757 -12.002395 -0.197168  0.000000 -1.000000 0.000000  0.884106 0.510471 1 64 1.000000
0  -3.370970 -12.002395 -0.238094  0.000000 -1.000000 0.000000  0.884113 0.510454 1 64 1.000000
lowpoly_plastic
0  -3.813025 -12.002395 -0.197168  0.000000 -1.000000 0.000000  0.884106 0.510378 1 64 1.000000
0  -3.813025 -12.002395 -0.238094  0.000000 -1.000000 0.000000  0.884113 0.510378 1 64 1.000000
0  -3.700175 -12.002395 -0.238094  0.000000 -1.000000 0.000000  0.884113 0.510398 1 64 1.000000
lowpoly_plastic
0  -3.701816 -10.262360 -0.218956  0.000000 -1.000000 0.000000  0.864116 0.513460 1 64 1.000000
0  -3.542390 -10.262360 -0.184446  0.000000 -1.000000 0.000000  0.864143 0.513460 1 64 1.000000
0  -3.542390 -10.262360 -0.184446  0.000000 -1.000000 0.000000  0.864143 0.513460 1 64 1.000000
lowpoly_plastic
0  -3.384292 -10.262360 -0.212271  -0.608055 0.000012 -0.793895  0.864170 0.513460 1 64 1.000000
0  -3.350578 -10.262360 -0.238093  -0.608055 0.000012 -0.793895  0.864176 0.513460 1 64 1.000000
0  -3.350604 -11.614699 -0.238094  -0.608055 0.000012 -0.793895  0.864176 0.513692 1 64 1.000000
lowpoly_plastic
0  -3.701816 -10.262360 -0.218956  0.601567 -0.001943 -0.798820  0.864116 0.513460 1 64 1.000000
0  -3.730788 -11.363805 -0.238094  0.601567 -0.001943 -0.798820  0.864111 0.513649 1 64 1.000000
0  -3.727229 -10.262360 -0.238093  0.601567 -0.001943 -0.798820  0.864112 0.513460 1 64 1.000000
lowpoly_plastic
0  -3.542390 -10.962507 -0.292633  0.000000 -0.919209 0.393771  0.862413 0.514370 1 64 1.000000
0  -3.816234 -10.915953 -0.183957  0.000000 -0.919209 0.393771  0.862394 0.514323 1 64 1.000000
0  -3.816234 -10.962507 -0.292633  0.000000 -0.919209 0.393771  0.862413 0.514323 1 64 1.000000
lowpoly_plastic
0  -3.542390 -10.962507 -0.292633  0.000000 0.000000 -1.000000  0.863131 0.514101 1 64 1.000000
0  -3.816234 -10.612982 -0.292633  0.000000 0.000000 -1.000000  0.863044 0.514148 1 64 1.000000
0  -3.542390 -10.612982 -0.292633  0.000000 0.000000 -1.000000  0.863044 0.514101 1 64 1.000000
lowpoly_plastic
0  -3.816234 -10.962507 -0.292633  -1.000000 0.000000 0.000000  0.882695 0.514654 1 64 1.000000
0  -3.816234 -10.659536 -0.183957  -1.000000 0.000000 0.000000  0.882676 0.514575 1 64 1.000000
0  -3.816234 -10.612982 -0.292633  -1.000000 0.000000 0.000000  0.882695 0.514567 1 64 1.000000
lowpoly_plastic
0  -3.816234 -10.612982 -0.292633  0.000000 0.919209 0.393771  0.862457 0.514417 1 64 1.000000
0  -3.542390 -10.659536 -0.183957  0.000000 0.919209 0.393771  0.862438 0.514370 1 64 1.000000
0  -3.542390 -10.612982 -0.292633  0.000000 0.919209 0.393771  0.862457 0.514370 1 64 1.000000
lowpoly_plastic
0  -3.542390 -10.962507 -0.292633  0.000000 -0.919208 0.393771  0.862413 0.514370 1 64 1.000000
0  -3.268547 -10.915953 -0.183957  0.000000 -0.919208 0.393771  0.862394 0.514417 1 64 1.000000
0  -3.542390 -10.915953 -0.183957  0.000000 -0.919208 0.393771  0.862394 0.514370 1 64 1.000000
lowpoly_plastic
0  -3.542390 -10.962507 -0.292633  0.000000 0.000000 -1.000000  0.863131 0.514101 1 64 1.000000
0  -3.268547 -10.612982 -0.292633  0.000000 0.000000 -1.000000  0.863044 0.514054 1 64 1.000000
0  -3.268547 -10.962507 -0.292633  0.000000 0.000000 -1.000000  0.863131 0.514054 1 64 1.000000
lowpoly_plastic
0  -3.268547 -10.962507 -0.292633  1.000000 0.000002 -0.000000  0.882721 0.514567 1 64 1.000000
0  -3.268547 -10.659536 -0.183957  1.000000 0.000002 -0.000000  0.882702 0.514646 1 64 1.000000
0  -3.268547 -10.915953 -0.183957  1.000000 0.000002 -0.000000  0.882702 0.514575 1 64 1.000000
lowpoly_plastic
0  -3.268547 -10.612982 -0.292633  0.000000 0.919208 0.393771  0.862457 0.514323 1 64 1.000000
0  -3.542390 -10.659536 -0.183957  0.000000 0.919208 0.393771  0.862438 0.514370 1 64 1.000000
0  -3.268547 -10.659536 -0.183957  0.000000 0.919208 0.393771  0.862438 0.514323 1 64 1.000000
lowpoly_plastic
0  -3.816234 -10.915953 -0.183957  0.000000 -0.123263 -0.992374  0.881437 0.514567 1 64 1.000000
0  -3.542390 -11.271687 -0.139771  0.000000 -0.123263 -0.992374  0.881429 0.514614 1 64 1.000000
0  -3.816234 -11.271687 -0.139771  0.000000 -0.123263 -0.992374  0.881429 0.514567 1 64 1.000000
lowpoly_plastic
0  -3.542390 -10.915953 -0.183957  0.000000 -0.123264 -0.992374  0.881437 0.514614 1 64 1.000000
0  -3.268547 -11.271687 -0.139771  0.000000 -0.123264 -0.992374  0.881429 0.514661 1 64 1.000000
0  -3.542390 -11.271687 -0.139771  0.000000 -0.123264 -0.992374  0.881429 0.514614 1 64 1.000000
lowpoly_plastic
0  -3.268547 -10.659536 -0.183957  0.000000 0.216721 0.976234  0.881481 0.514567 1 64 1.000000
0  -3.542390 -10.858575 -0.139771  0.000000 0.216721 0.976234  0.881473 0.514614 1 64 1.000000
0  -3.268547 -10.858575 -0.139771  0.000000 0.216721 0.976234  0.881473 0.514567 1 64 1.000000
lowpoly_plastic
0  -3.542390 -10.659536 -0.183957  0.000000 0.216723 0.976233  0.881481 0.514614 1 64 1.000000
0  -3.816234 -10.858575 -0.139771  0.000000 0.216723 0.976233  0.881473 0.514661 1 64 1.000000
0  -3.542390 -10.858575 -0.139771  0.000000 0.216723 0.976233  0.881473 0.514614 1 64 1.000000
lowpoly_plastic
0  -3.268547 -10.915953 -0.183957  1.000000 0.000002 0.000005  0.882702 0.514575 1 64 1.000000
0  -3.268547 -10.858575 -0.139771  1.000000 0.000002 0.000005  0.882695 0.514646 1 64 1.000000
0  -3.268547 -11.271687 -0.139771  1.000000 0.000002 0.000005  0.882695 0.514575 1 64 1.000000
lowpoly_plastic
0  -3.816234 -10.659536 -0.183957  -1.000000 0.000000 -0.000003  0.882676 0.514575 1 64 1.000000
0  -3.816234 -11.271687 -0.139771  -1.000000 0.000000 -0.000003  0.882669 0.514646 1 64 1.000000
0  -3.816234 -10.858575 -0.139771  -1.000000 0.000000 -0.000003  0.882669 0.514575 1 64 1.000000
lowpoly_plastic
0  -3.350604 -11.614699 -0.238094  -0.298637 0.015689 -0.954238  0.864176 0.513692 1 64 1.000000
0  -3.370970 -12.002395 -0.238094  -0.298637 0.015689 -0.954238  0.864173 0.513800 1 64 1.000000
0  -3.542390 -12.002395 -0.184447  -0.298637 0.015689 -0.954238  0.864143 0.513800 1 64 1.000000
lowpoly_plastic
0  -3.511640 -17.406868 -0.288943  1.000000 0.000000 0.000000  0.007376 0.736000 1 71 1.000000
0  -3.511640 -17.484791 -0.216386  1.000000 0.000000 0.000000  0.007365 0.735988 1 71 1.000000
0  -3.511640 -17.484791 -0.288943  1.000000 0.000000 0.000000  0.007376 0.735988 1 71 1.000000
lowpoly_plastic
0  -3.511640 -17.484791 -0.288943  0.000000 -1.000000 0.000000  0.007596 0.747685 1 71 1.000000
0  -3.573140 -17.484791 -0.216386  0.000000 -1.000000 0.000000  0.007606 0.747675 1 71 1.000000
0  -3.573140 -17.484791 -0.288943  0.000000 -1.000000 0.000000  0.007606 0.747685 1 71 1.000000
lowpoly_plastic
0  -3.573140 -17.484791 -0.288943  -1.000000 0.000000 0.000000  0.007376 0.735988 1 71 1.000000
0  -3.573140 -17.406868 -0.216386  -1.000000 0.000000 0.000000  0.007386 0.736000 1 71 1.000000
0  -3.573140 -17.406868 -0.288943  -1.000000 0.000000 0.000000  0.007376 0.736000 1 71 1.000000
lowpoly_plastic
0  -3.573140 -17.406868 -0.288943  0.000000 1.000000 0.000000  0.007606 0.747685 1 71 1.000000
0  -3.511640 -17.406868 -0.216386  0.000000 1.000000 0.000000  0.007615 0.747675 1 71 1.000000
0  -3.511640 -17.406868 -0.288943  0.000000 1.000000 0.000000  0.007615 0.747685 1 71 1.000000
lowpoly_plastic
0  -3.511640 -17.484791 -0.288943  0.000000 0.000000 -1.000000  0.007277 0.747689 1 71 1.000000
0  -3.573140 -17.406868 -0.288943  0.000000 0.000000 -1.000000  0.007267 0.747677 1 71 1.000000
0  -3.511640 -17.406868 -0.288943  0.000000 0.000000 -1.000000  0.007277 0.747677 1 71 1.000000
lowpoly_plastic
0  -3.573140 -17.484791 -0.216386  0.000000 0.000000 -1.000000  0.005419 0.749211 1 71 1.000000
0  -3.492797 -17.557995 -0.216386  0.000000 0.000000 -1.000000  0.005431 0.749222 1 71 1.000000
0  -3.591982 -17.557995 -0.216386  0.000000 0.000000 -1.000000  0.005416 0.749222 1 71 1.000000
lowpoly_plastic
0  -3.591982 -17.135559 -0.189614  -1.000000 0.000000 0.000000  0.007331 0.737518 1 71 1.000000
0  -3.591982 -17.135559 -0.216386  -1.000000 0.000000 0.000000  0.007327 0.737518 1 71 1.000000
0  -3.591982 -17.353195 -0.143668  -1.000000 0.000000 0.000000  0.007338 0.737485 1 71 1.000000
lowpoly_plastic
0  -3.573140 -17.406868 -0.216386  0.000002 0.000000 -1.000000  0.005573 0.737511 1 71 1.000000
0  -3.591982 -17.557995 -0.216386  0.000002 0.000000 -1.000000  0.005570 0.737533 1 71 1.000000
0  -3.591982 -17.135559 -0.216386  0.000002 0.000000 -1.000000  0.005570 0.737470 1 71 1.000000
lowpoly_plastic
0  -3.511640 -17.484791 -0.216386  -0.000002 0.000000 -1.000000  0.005582 0.737522 1 71 1.000000
0  -3.492797 -17.135559 -0.216386  -0.000002 0.000000 -1.000000  0.005585 0.737470 1 71 1.000000
0  -3.492797 -17.557995 -0.216386  -0.000002 0.000000 -1.000000  0.005585 0.737533 1 71 1.000000
lowpoly_plastic
0  -3.511640 -17.406868 -0.216386  0.000000 0.000000 -1.000000  0.005428 0.749200 1 71 1.000000
0  -3.591982 -17.135559 -0.216386  0.000000 0.000000 -1.000000  0.005416 0.749159 1 71 1.000000
0  -3.492797 -17.135559 -0.216386  0.000000 0.000000 -1.000000  0.005431 0.749159 1 71 1.000000
lowpoly_plastic
0  -3.492797 -17.135559 -0.216386  1.000000 -0.000005 0.000000  0.007037 0.737518 1 71 1.000000
0  -3.492797 -17.135559 -0.189614  1.000000 -0.000005 0.000000  0.007033 0.737518 1 71 1.000000
0  -3.492797 -17.353195 -0.143668  1.000000 -0.000005 0.000000  0.007026 0.737485 1 71 1.000000
lowpoly_plastic
0  -3.492797 -17.469400 -0.036292  1.000000 0.000001 0.000000  0.007010 0.737468 1 71 1.000000
0  -3.492797 -17.557995 -0.183110  1.000000 0.000001 0.000000  0.007032 0.737455 1 71 1.000000
0  -3.492797 -17.353195 -0.143668  1.000000 0.000001 0.000000  0.007026 0.737485 1 71 1.000000
lowpoly_plastic
0  -3.492797 -17.135559 -0.216386  0.000000 1.000000 0.000000  0.007383 0.747459 1 71 1.000000
0  -3.591982 -17.135559 -0.189614  0.000000 1.000000 0.000000  0.007379 0.747473 1 71 1.000000
0  -3.492797 -17.135559 -0.189614  0.000000 1.000000 0.000000  0.007379 0.747459 1 71 1.000000
lowpoly_plastic
0  -3.591982 -17.557995 -0.183110  0.000000 -0.856196 0.516650  0.006108 0.748933 1 71 1.000000
0  -3.492797 -17.469400 -0.036292  0.000000 -0.856196 0.516650  0.006093 0.748909 1 71 1.000000
0  -3.591982 -17.469400 -0.036292  0.000000 -0.856196 0.516650  0.006108 0.748909 1 71 1.000000
lowpoly_plastic
0  -3.591982 -17.353195 -0.036292  0.000000 1.000000 0.000000  0.007323 0.747673 1 71 1.000000
0  -3.492797 -17.353195 -0.143668  0.000000 1.000000 0.000000  0.007338 0.747688 1 71 1.000000
0  -3.591982 -17.353195 -0.143668  0.000000 1.000000 0.000000  0.007323 0.747688 1 71 1.000000
lowpoly_plastic
0  -3.492797 -17.135559 -0.189614  0.000000 0.206560 0.978434  0.006824 0.749237 1 71 1.000000
0  -3.591982 -17.353195 -0.143668  0.000000 0.206560 0.978434  0.006809 0.749205 1 71 1.000000
0  -3.492797 -17.353195 -0.143668  0.000000 0.206560 0.978434  0.006824 0.749205 1 71 1.000000
lowpoly_plastic
0  -3.591982 -17.469400 -0.036292  0.000000 0.000000 1.000000  0.007839 0.747530 1 71 1.000000
0  -3.492797 -17.353195 -0.036292  0.000000 0.000000 1.000000  0.007853 0.747547 1 71 1.000000
0  -3.591982 -17.353195 -0.036292  0.000000 0.000000 1.000000  0.007839 0.747547 1 71 1.000000
lowpoly_plastic
0  -3.591982 -17.557995 -0.216386  -1.000000 -0.000009 0.000000  0.007327 0.737455 1 71 1.000000
0  -3.591982 -17.557995 -0.183110  -1.000000 -0.000009 0.000000  0.007332 0.737455 1 71 1.000000
0  -3.591982 -17.353195 -0.143668  -1.000000 -0.000009 0.000000  0.007338 0.737485 1 71 1.000000
lowpoly_plastic
0  -3.492797 -17.353195 -0.143668  1.000000 0.000000 0.000000  0.007026 0.737485 1 71 1.000000
0  -3.492797 -17.353195 -0.036292  1.000000 0.000000 0.000000  0.007010 0.737485 1 71 1.000000
0  -3.492797 -17.469400 -0.036292  1.000000 0.000000 0.000000  0.007010 0.737468 1 71 1.000000
lowpoly_plastic
0  -3.492797 -17.557995 -0.183110  1.000000 0.000000 0.000000  0.007032 0.737455 1 71 1.000000
0  -3.492797 -17.557995 -0.216386  1.000000 0.000000 0.000000  0.007037 0.737455 1 71 1.000000
0  -3.492797 -17.353195 -0.143668  1.000000 0.000000 0.000000  0.007026 0.737485 1 71 1.000000
lowpoly_plastic
0  -3.591982 -17.557995 -0.183110  -1.000000 0.000000 0.000000  0.007332 0.737455 1 71 1.000000
0  -3.591982 -17.469400 -0.036292  -1.000000 0.000000 0.000000  0.007354 0.737468 1 71 1.000000
0  -3.591982 -17.353195 -0.143668  -1.000000 0.000000 0.000000  0.007338 0.737485 1 71 1.000000
lowpoly_plastic
0  -3.591982 -17.353195 -0.143668  -1.000000 0.000001 0.000002  0.007338 0.737485 1 71 1.000000
0  -3.591982 -17.135559 -0.216386  -1.000000 0.000001 0.000002  0.007327 0.737518 1 71 1.000000
0  -3.591982 -17.557995 -0.216386  -1.000000 0.000001 0.000002  0.007327 0.737455 1 71 1.000000
lowpoly_plastic
0  -3.591982 -17.557995 -0.216386  0.000000 -1.000000 0.000000  0.006108 0.748937 1 71 1.000000
0  -3.492797 -17.557995 -0.183110  0.000000 -1.000000 0.000000  0.006093 0.748933 1 71 1.000000
0  -3.591982 -17.557995 -0.183110  0.000000 -1.000000 0.000000  0.006108 0.748933 1 71 1.000000
lowpoly_plastic
0  -3.492797 -17.557995 -0.216386  1.000000 0.000000 0.000000  0.007037 0.737455 1 71 1.000000
0  -3.492797 -17.135559 -0.216386  1.000000 0.000000 0.000000  0.007037 0.737518 1 71 1.000000
0  -3.492797 -17.353195 -0.143668  1.000000 0.000000 0.000000  0.007026 0.737485 1 71 1.000000
lowpoly_plastic
0  -3.591982 -17.469400 -0.036292  -1.000000 0.000000 0.000000  0.007354 0.737468 1 71 1.000000
0  -3.591982 -17.353195 -0.036292  -1.000000 0.000000 0.000000  0.007354 0.737485 1 71 1.000000
0  -3.591982 -17.353195 -0.143668  -1.000000 0.000000 0.000000  0.007338 0.737485 1 71 1.000000
lowpoly_plastic
0  -3.542391 -11.042466 0.029643  0.001021 0.000000 0.999999  0.879807 0.514613 1 64 1.000000
0  -3.809570 -11.042464 0.029916  0.001021 0.000000 0.999999  0.879807 0.514659 1 64 1.000000
0  -3.809570 -11.209805 0.029916  0.001021 0.000000 0.999999  0.879779 0.514659 1 64 1.000000
lowpoly_plastic
0  -3.275211 -11.388857 0.029916  0.720840 0.000000 0.693101  0.884381 0.511663 1 64 1.000000
0  -3.275211 -11.556198 0.029916  0.720840 0.000000 0.693101  0.884381 0.511635 1 64 1.000000
0  -3.155748 -11.556198 -0.094329  0.720840 0.000000 0.693101  0.884403 0.511635 1 64 1.000000
lowpoly_plastic
0  -3.542391 -10.696073 0.029642  0.001022 0.000000 0.999999  0.879693 0.514613 1 64 1.000000
0  -3.809570 -10.696071 0.029916  0.001022 0.000000 0.999999  0.879693 0.514659 1 64 1.000000
0  -3.809570 -10.863412 0.029916  0.001022 0.000000 0.999999  0.879664 0.514659 1 64 1.000000
lowpoly_plastic
0  -3.275211 -10.696073 0.029916  0.720841 0.000000 0.693101  0.884381 0.512152 1 64 1.000000
0  -3.275211 -10.863412 0.029916  0.720841 0.000000 0.693101  0.884381 0.512123 1 64 1.000000
0  -3.155747 -10.863412 -0.094329  0.720841 0.000000 0.693101  0.884403 0.512123 1 64 1.000000
lowpoly_plastic
0  -3.929034 -10.696073 -0.094329  -0.720840 0.000000 0.693101  0.884403 0.511893 1 64 1.000000
0  -3.929034 -10.863412 -0.094329  -0.720840 0.000000 0.693101  0.884403 0.511922 1 64 1.000000
0  -3.809570 -10.863412 0.029916  -0.720840 0.000000 0.693101  0.884381 0.511922 1 64 1.000000
lowpoly_plastic
0  -3.542391 -11.388857 0.029642  0.001022 0.000000 0.999999  0.879721 0.514613 1 64 1.000000
0  -3.809570 -11.388857 0.029916  0.001022 0.000000 0.999999  0.879721 0.514567 1 64 1.000000
0  -3.809570 -11.556198 0.029916  0.001022 0.000000 0.999999  0.879750 0.514567 1 64 1.000000
lowpoly_plastic
0  -3.275210 -10.525338 0.029915  -0.001021 -0.000001 0.999999  0.880238 0.514429 1 64 1.000000
0  -3.275210 -10.262226 0.029915  -0.001021 -0.000001 0.999999  0.880284 0.514429 1 64 1.000000
0  -3.542389 -10.262226 0.029642  -0.001021 -0.000001 0.999999  0.880284 0.514475 1 64 1.000000
lowpoly_plastic
0  -3.813025 -12.002395 -0.197168  -1.000000 0.000000 0.000000  0.881855 0.514908 1 64 1.000000
0  -3.813024 -10.262360 -0.197166  -1.000000 0.000000 0.000000  0.881855 0.514567 1 64 1.000000
0  -3.813024 -10.262360 -0.238093  -1.000000 0.000000 0.000000  0.881862 0.514567 1 64 1.000000
lowpoly_plastic
0  -3.384292 -10.262360 -0.212271  0.000000 1.000000 0.000000  0.884091 0.508694 1 64 1.000000
0  -3.271756 -10.262360 -0.197166  0.000000 1.000000 0.000000  0.884094 0.508714 1 64 1.000000
0  -3.271756 -10.262360 -0.238093  0.000000 1.000000 0.000000  0.884087 0.508714 1 64 1.000000
lowpoly_plastic
0  -3.813024 -10.262360 -0.197166  0.000000 1.000000 0.000022  0.884094 0.508621 1 64 1.000000
0  -3.701816 -10.262360 -0.218956  0.000000 1.000000 0.000022  0.884090 0.508640 1 64 1.000000
0  -3.727229 -10.262360 -0.238093  0.000000 1.000000 0.000022  0.884087 0.508635 1 64 1.000000
lowpoly_plastic
0  -3.542390 -10.262360 -0.094600  0.000000 1.000000 0.000000  0.884111 0.508667 1 64 1.000000
0  -3.271756 -10.262360 -0.197166  0.000000 1.000000 0.000000  0.884094 0.508714 1 64 1.000000
0  -3.384292 -10.262360 -0.212271  0.000000 1.000000 0.000000  0.884091 0.508694 1 64 1.000000
lowpoly_plastic
0  -3.542390 -10.262360 -0.094600  0.000000 1.000000 0.000000  0.884111 0.508667 1 64 1.000000
0  -3.384292 -10.262360 -0.212271  0.000000 1.000000 0.000000  0.884091 0.508694 1 64 1.000000
0  -3.542390 -10.262360 -0.184446  0.000000 1.000000 0.000000  0.884096 0.508667 1 64 1.000000
lowpoly_plastic
0  -3.275211 -11.556198 0.029916  -0.001022 0.000000 0.999999  0.879750 0.514659 1 64 1.000000
0  -3.275211 -11.388857 0.029916  -0.001022 0.000000 0.999999  0.879721 0.514659 1 64 1.000000
0  -3.542391 -11.388857 0.029642  -0.001022 0.000000 0.999999  0.879721 0.514613 1 64 1.000000
lowpoly_plastic
0  -3.275212 -11.209805 0.029916  -0.001021 0.000000 0.999999  0.879779 0.514567 1 64 1.000000
0  -3.275212 -11.042466 0.029916  -0.001021 0.000000 0.999999  0.879807 0.514567 1 64 1.000000
0  -3.542391 -11.042466 0.029643  -0.001021 0.000000 0.999999  0.879807 0.514613 1 64 1.000000
lowpoly_plastic
0  -3.271757 -12.002395 -0.197168  0.663350 0.000000 -0.748309  0.884032 0.512084 1 64 1.000000
0  -3.271756 -10.262360 -0.197166  0.663350 0.000000 -0.748309  0.884032 0.511744 1 64 1.000000
0  -3.155747 -10.262360 -0.094328  0.663350 0.000000 -0.748309  0.884052 0.511744 1 64 1.000000
lowpoly_plastic
0  -3.700175 -12.002395 -0.238094  0.000000 0.000009 -1.000000  0.883159 0.514045 1 64 1.000000
0  -3.813025 -12.002395 -0.238094  0.000000 0.000009 -1.000000  0.883140 0.514045 1 64 1.000000
0  -3.700174 -11.986385 -0.238094  0.000000 0.000009 -1.000000  0.883159 0.513982 1 64 1.000000
lowpoly_plastic
0  -3.813025 -12.002395 -0.238094  0.000001 0.000000 -1.000000  0.883140 0.514045 1 64 1.000000
0  -3.813024 -10.262360 -0.238093  0.000001 0.000000 -1.000000  0.883140 0.513704 1 64 1.000000
0  -3.730788 -11.363805 -0.238094  0.000001 0.000000 -1.000000  0.883154 0.513893 1 64 1.000000
lowpoly_plastic
0  -3.813024 -10.262360 -0.238093  0.000000 0.000000 -1.000000  0.883140 0.513704 1 64 1.000000
0  -3.727229 -10.262360 -0.238093  0.000000 0.000000 -1.000000  0.883155 0.513704 1 64 1.000000
0  -3.730788 -11.363805 -0.238094  0.000000 0.000000 -1.000000  0.883154 0.513893 1 64 1.000000
lowpoly_plastic
0  -3.271757 -12.002395 -0.238094  1.000000 -0.000000 0.000000  0.881841 0.514908 1 64 1.000000
0  -3.271756 -10.262360 -0.238093  1.000000 -0.000000 0.000000  0.881841 0.514567 1 64 1.000000
0  -3.271756 -10.262360 -0.197166  1.000000 -0.000000 0.000000  0.881848 0.514567 1 64 1.000000
lowpoly_plastic
0  -3.275211 -10.863412 0.029916  -0.001022 0.000000 0.999999  0.879664 0.514567 1 64 1.000000
0  -3.275211 -10.696073 0.029916  -0.001022 0.000000 0.999999  0.879693 0.514567 1 64 1.000000
0  -3.542391 -10.696073 0.029642  -0.001022 0.000000 0.999999  0.879693 0.514613 1 64 1.000000
lowpoly_plastic
0  -3.350604 -11.614699 -0.238094  0.000000 0.000000 -1.000000  0.883219 0.513936 1 64 1.000000
0  -3.350578 -10.262360 -0.238093  0.000000 0.000000 -1.000000  0.883219 0.513704 1 64 1.000000
0  -3.271756 -10.262360 -0.238093  0.000000 0.000000 -1.000000  0.883233 0.513704 1 64 1.000000
lowpoly_plastic
0  -3.271756 -10.262360 -0.238093  -0.000001 0.000000 -1.000000  0.883233 0.513704 1 64 1.000000
0  -3.271757 -12.002395 -0.238094  -0.000001 0.000000 -1.000000  0.883233 0.514045 1 64 1.000000
0  -3.350604 -11.614699 -0.238094  -0.000001 0.000000 -1.000000  0.883219 0.513936 1 64 1.000000
lowpoly_plastic
0  -3.929034 -11.042466 -0.094329  -0.720838 0.000000 0.693103  0.884403 0.511750 1 64 1.000000
0  -3.929034 -11.209805 -0.094329  -0.720838 0.000000 0.693103  0.884403 0.511778 1 64 1.000000
0  -3.809570 -11.209805 0.029916  -0.720838 0.000000 0.693103  0.884381 0.511778 1 64 1.000000
lowpoly_plastic
0  -3.542389 -10.262226 0.029642  0.001021 -0.000001 0.999999  0.880284 0.514475 1 64 1.000000
0  -3.809569 -10.262224 0.029915  0.001021 -0.000001 0.999999  0.880284 0.514520 1 64 1.000000
0  -3.809569 -10.525338 0.029915  0.001021 -0.000001 0.999999  0.880238 0.514520 1 64 1.000000
lowpoly_plastic
0  -3.542391 -12.002395 -0.094602  0.000705 -0.000001 1.000000  0.855716 0.509340 1 64 1.000000
0  -3.542390 -10.262360 -0.094600  0.000705 -0.000001 1.000000  0.855716 0.508999 1 64 1.000000
0  -3.929034 -10.262360 -0.094328  0.000705 -0.000001 1.000000  0.855783 0.508999 1 64 1.000000
lowpoly_plastic
0  -3.929034 -11.556198 -0.094329  -0.720841 0.000000 0.693101  0.884403 0.511692 1 64 1.000000
0  -3.809570 -11.556198 0.029916  -0.720841 0.000000 0.693101  0.884381 0.511692 1 64 1.000000
0  -3.809570 -11.388857 0.029916  -0.720841 0.000000 0.693101  0.884381 0.511663 1 64 1.000000
lowpoly_plastic
0  -3.275212 -11.735250 0.029916  0.720837 0.000000 0.693104  0.884381 0.511979 1 64 1.000000
0  -3.275212 -12.002395 0.029916  0.720837 0.000000 0.693104  0.884381 0.511951 1 64 1.000000
0  -3.155747 -12.002395 -0.094329  0.720837 0.000000 0.693104  0.884403 0.511951 1 64 1.000000
lowpoly_plastic
0  -3.929034 -11.735250 -0.094329  -0.720837 0.000000 0.693104  0.884403 0.512037 1 64 1.000000
0  -3.929034 -12.002395 -0.094329  -0.720837 0.000000 0.693104  0.884403 0.512065 1 64 1.000000
0  -3.809570 -12.002395 0.029916  -0.720837 0.000000 0.693104  0.884381 0.512065 1 64 1.000000
lowpoly_plastic
0  -3.929035 -12.002395 -0.094329  -0.663349 0.000001 -0.748310  0.884039 0.512998 1 64 1.000000
0  -3.929034 -10.262360 -0.094328  -0.663349 0.000001 -0.748310  0.884039 0.512657 1 64 1.000000
0  -3.813024 -10.262360 -0.197166  -0.663349 0.000001 -0.748310  0.884059 0.512657 1 64 1.000000
lowpoly_plastic
0  -3.155748 -12.002395 -0.094329  -0.000705 -0.000001 1.000000  0.855650 0.509340 1 64 1.000000
0  -3.155747 -10.262360 -0.094328  -0.000705 -0.000001 1.000000  0.855650 0.508999 1 64 1.000000
0  -3.542390 -10.262360 -0.094600  -0.000705 -0.000001 1.000000  0.855716 0.508999 1 64 1.000000
lowpoly_plastic
0  -3.275212 -12.002395 0.029916  -0.001022 0.000000 0.999999  0.879836 0.514567 1 64 1.000000
0  -3.275212 -11.735250 0.029916  -0.001022 0.000000 0.999999  0.879865 0.514567 1 64 1.000000
0  -3.542391 -11.735250 0.029642  -0.001022 0.000000 0.999999  0.879865 0.514613 1 64 1.000000
lowpoly_plastic
0  -3.929033 -10.262226 -0.094330  -0.720839 -0.000001 0.693103  0.884315 0.509917 1 64 1.000000
0  -3.929033 -10.525338 -0.094330  -0.720839 -0.000001 0.693103  0.884315 0.509962 1 64 1.000000
0  -3.809569 -10.525338 0.029915  -0.720839 -0.000001 0.693103  0.884294 0.509962 1 64 1.000000
lowpoly_plastic
0  -3.275212 -11.042466 0.029916  0.720839 0.000000 0.693103  0.884381 0.512008 1 64 1.000000
0  -3.275212 -11.209805 0.029916  0.720839 0.000000 0.693103  0.884381 0.511979 1 64 1.000000
0  -3.155747 -11.209805 -0.094329  0.720839 0.000000 0.693103  0.884403 0.511979 1 64 1.000000
lowpoly_plastic
0  -3.275210 -10.262226 0.029915  0.720839 -0.000003 0.693103  0.884315 0.510007 1 64 1.000000
0  -3.275210 -10.525338 0.029915  0.720839 -0.000003 0.693103  0.884315 0.510052 1 64 1.000000
0  -3.155746 -10.525338 -0.094330  0.720839 -0.000003 0.693103  0.884294 0.510052 1 64 1.000000
lowpoly_plastic
0  -3.813024 -10.262360 -0.197166  0.000000 1.000000 0.000000  0.884094 0.508621 1 64 1.000000
0  -3.542390 -10.262360 -0.094600  0.000000 1.000000 0.000000  0.884111 0.508667 1 64 1.000000
0  -3.542390 -10.262360 -0.184446  0.000000 1.000000 0.000000  0.884096 0.508667 1 64 1.000000
lowpoly_plastic
0  -3.542391 -11.735250 0.029642  0.001022 0.000000 0.999999  0.879865 0.514613 1 64 1.000000
0  -3.809570 -11.735250 0.029916  0.001022 0.000000 0.999999  0.879865 0.514659 1 64 1.000000
0  -3.809570 -12.002395 0.029916  0.001022 0.000000 0.999999  0.879836 0.514659 1 64 1.000000
lowpoly_plastic
0  -3.370970 -12.002395 -0.238094  0.000000 -1.000000 0.000000  0.884113 0.510454 1 64 1.000000
0  -3.271757 -12.002395 -0.197168  0.000000 -1.000000 0.000000  0.884106 0.510471 1 64 1.000000
0  -3.542390 -12.002395 -0.184447  0.000000 -1.000000 0.000000  0.884103 0.510425 1 64 1.000000
lowpoly_plastic
0  -3.271757 -12.002395 -0.197168  0.000000 -1.000000 0.000000  0.884106 0.510471 1 64 1.000000
0  -3.155748 -12.002395 -0.094329  0.000000 -1.000000 0.000000  0.884088 0.510491 1 64 1.000000
0  -3.542390 -12.002395 -0.184447  0.000000 -1.000000 0.000000  0.884103 0.510425 1 64 1.000000
lowpoly_plastic
0  -3.155748 -12.002395 -0.094329  0.000000 -1.000000 0.000000  0.884088 0.510491 1 64 1.000000
0  -3.929035 -12.002395 -0.094329  0.000000 -1.000000 0.000000  0.884088 0.510358 1 64 1.000000
0  -3.542390 -12.002395 -0.184447  0.000000 -1.000000 0.000000  0.884103 0.510425 1 64 1.000000
lowpoly_plastic
0  -3.929035 -12.002395 -0.094329  0.000000 -1.000000 -0.000016  0.884088 0.510358 1 64 1.000000
0  -3.813025 -12.002395 -0.197168  0.000000 -1.000000 -0.000016  0.884106 0.510378 1 64 1.000000
0  -3.542390 -12.002395 -0.184447  0.000000 -1.000000 -0.000016  0.884103 0.510425 1 64 1.000000
lowpoly_plastic
0  -3.542390 -12.002395 -0.184447  0.321903 0.000000 -0.946773  0.864143 0.513800 1 64 1.000000
0  -3.700175 -12.002395 -0.238094  0.321903 0.000000 -0.946773  0.864116 0.513800 1 64 1.000000
0  -3.700174 -11.986385 -0.238094  0.321903 0.000000 -0.946773  0.864116 0.513738 1 64 1.000000
lowpoly_plastic
0  -3.700174 -11.986385 -0.238094  0.323312 0.015898 -0.946159  0.864116 0.513738 1 64 1.000000
0  -3.730788 -11.363805 -0.238094  0.323312 0.015898 -0.946159  0.864111 0.513649 1 64 1.000000
0  -3.542390 -12.002395 -0.184447  0.323312 0.015898 -0.946159  0.864143 0.513800 1 64 1.000000
lowpoly_plastic
0  -3.730788 -11.363805 -0.238094  0.211547 0.011416 -0.977301  0.864111 0.513649 1 64 1.000000
0  -3.701816 -10.262360 -0.218956  0.211547 0.011416 -0.977301  0.864116 0.513460 1 64 1.000000
0  -3.542390 -10.262360 -0.184446  0.211547 0.011416 -0.977301  0.864143 0.513460 1 64 1.000000
lowpoly_plastic
0  -3.542390 -12.002395 -0.184447  0.273867 0.000000 -0.961767  0.864143 0.513800 1 64 1.000000
0  -3.730788 -11.363805 -0.238094  0.273867 0.000000 -0.961767  0.864111 0.513649 1 64 1.000000
0  -3.542390 -10.262360 -0.184446  0.273867 0.000000 -0.961767  0.864143 0.513460 1 64 1.000000
lowpoly_plastic
0  -3.542390 -10.962507 -0.292633  0.000000 -0.919214 0.393758  0.862413 0.514370 1 64 1.000000
0  -3.542390 -10.915953 -0.183957  0.000000 -0.919214 0.393758  0.862394 0.514370 1 64 1.000000
0  -3.816234 -10.915953 -0.183957  0.000000 -0.919214 0.393758  0.862394 0.514323 1 64 1.000000
lowpoly_plastic
0  -3.542390 -10.962507 -0.292633  0.000000 0.000000 -1.000000  0.863131 0.514101 1 64 1.000000
0  -3.816234 -10.962507 -0.292633  0.000000 0.000000 -1.000000  0.863131 0.514148 1 64 1.000000
0  -3.816234 -10.612982 -0.292633  0.000000 0.000000 -1.000000  0.863044 0.514148 1 64 1.000000
lowpoly_plastic
0  -3.816234 -10.962507 -0.292633  -1.000000 0.000000 0.000000  0.882695 0.514654 1 64 1.000000
0  -3.816234 -10.915953 -0.183957  -1.000000 0.000000 0.000000  0.882676 0.514646 1 64 1.000000
0  -3.816234 -10.659536 -0.183957  -1.000000 0.000000 0.000000  0.882676 0.514575 1 64 1.000000
lowpoly_plastic
0  -3.816234 -10.612982 -0.292633  0.000000 0.919209 0.393771  0.862457 0.514417 1 64 1.000000
0  -3.816234 -10.659536 -0.183957  0.000000 0.919209 0.393771  0.862438 0.514417 1 64 1.000000
0  -3.542390 -10.659536 -0.183957  0.000000 0.919209 0.393771  0.862438 0.514370 1 64 1.000000
lowpoly_plastic
0  -3.542390 -10.962507 -0.292633  0.000000 -0.919214 0.393759  0.862413 0.514370 1 64 1.000000
0  -3.268547 -10.962507 -0.292633  0.000000 -0.919214 0.393759  0.862413 0.514417 1 64 1.000000
0  -3.268547 -10.915953 -0.183957  0.000000 -0.919214 0.393759  0.862394 0.514417 1 64 1.000000
lowpoly_plastic
0  -3.542390 -10.962507 -0.292633  0.000000 0.000000 -1.000000  0.863131 0.514101 1 64 1.000000
0  -3.542390 -10.612982 -0.292633  0.000000 0.000000 -1.000000  0.863044 0.514101 1 64 1.000000
0  -3.268547 -10.612982 -0.292633  0.000000 0.000000 -1.000000  0.863044 0.514054 1 64 1.000000
lowpoly_plastic
0  -3.268547 -10.962507 -0.292633  1.000000 0.000000 0.000000  0.882721 0.514567 1 64 1.000000
0  -3.268547 -10.612982 -0.292633  1.000000 0.000000 0.000000  0.882721 0.514654 1 64 1.000000
0  -3.268547 -10.659536 -0.183957  1.000000 0.000000 0.000000  0.882702 0.514646 1 64 1.000000
lowpoly_plastic
0  -3.268547 -10.612982 -0.292633  0.000000 0.919208 0.393771  0.862457 0.514323 1 64 1.000000
0  -3.542390 -10.612982 -0.292633  0.000000 0.919208 0.393771  0.862457 0.514370 1 64 1.000000
0  -3.542390 -10.659536 -0.183957  0.000000 0.919208 0.393771  0.862438 0.514370 1 64 1.000000
lowpoly_plastic
0  -3.816234 -10.915953 -0.183957  0.000000 -0.123264 -0.992374  0.881437 0.514567 1 64 1.000000
0  -3.542390 -10.915953 -0.183957  0.000000 -0.123264 -0.992374  0.881437 0.514614 1 64 1.000000
0  -3.542390 -11.271687 -0.139771  0.000000 -0.123264 -0.992374  0.881429 0.514614 1 64 1.000000
lowpoly_plastic
0  -3.542390 -10.915953 -0.183957  0.000000 -0.123263 -0.992374  0.881437 0.514614 1 64 1.000000
0  -3.268547 -10.915953 -0.183957  0.000000 -0.123263 -0.992374  0.881437 0.514661 1 64 1.000000
0  -3.268547 -11.271687 -0.139771  0.000000 -0.123263 -0.992374  0.881429 0.514661 1 64 1.000000
lowpoly_plastic
0  -3.268547 -10.659536 -0.183957  0.000000 0.216721 0.976233  0.881481 0.514567 1 64 1.000000
0  -3.542390 -10.659536 -0.183957  0.000000 0.216721 0.976233  0.881481 0.514614 1 64 1.000000
0  -3.542390 -10.858575 -0.139771  0.000000 0.216721 0.976233  0.881473 0.514614 1 64 1.000000
lowpoly_plastic
0  -3.542390 -10.659536 -0.183957  0.000000 0.216719 0.976234  0.881481 0.514614 1 64 1.000000
0  -3.816234 -10.659536 -0.183957  0.000000 0.216719 0.976234  0.881481 0.514661 1 64 1.000000
0  -3.816234 -10.858575 -0.139771  0.000000 0.216719 0.976234  0.881473 0.514661 1 64 1.000000
lowpoly_plastic
0  -3.268547 -10.915953 -0.183957  1.000000 0.000000 0.000004  0.882702 0.514575 1 64 1.000000
0  -3.268547 -10.659536 -0.183957  1.000000 0.000000 0.000004  0.882702 0.514646 1 64 1.000000
0  -3.268547 -10.858575 -0.139771  1.000000 0.000000 0.000004  0.882695 0.514646 1 64 1.000000
lowpoly_plastic
0  -3.816234 -10.659536 -0.183957  -1.000000 0.000000 0.000005  0.882676 0.514575 1 64 1.000000
0  -3.816234 -10.915953 -0.183957  -1.000000 0.000000 0.000005  0.882676 0.514646 1 64 1.000000
0  -3.816234 -11.271687 -0.139771  -1.000000 0.000000 0.000005  0.882669 0.514646 1 64 1.000000
lowpoly_plastic
0  -3.542390 -12.002395 -0.184447  -0.269383 0.000000 -0.963033  0.864143 0.513800 1 64 1.000000
0  -3.542390 -10.262360 -0.184446  -0.269383 0.000000 -0.963033  0.864143 0.513460 1 64 1.000000
0  -3.350604 -11.614699 -0.238094  -0.269383 0.000000 -0.963033  0.864176 0.513692 1 64 1.000000
lowpoly_plastic
0  -3.542390 -10.262360 -0.184446  -0.173313 0.014486 -0.984760  0.864143 0.513460 1 64 1.000000
0  -3.384292 -10.262360 -0.212271  -0.173313 0.014486 -0.984760  0.864170 0.513460 1 64 1.000000
0  -3.350604 -11.614699 -0.238094  -0.173313 0.014486 -0.984760  0.864176 0.513692 1 64 1.000000
lowpoly_plastic
0  -3.511640 -17.406868 -0.288943  1.000000 0.000000 0.000000  0.007376 0.736000 1 71 1.000000
0  -3.511640 -17.406868 -0.216386  1.000000 0.000000 0.000000  0.007365 0.736000 1 71 1.000000
0  -3.511640 -17.484791 -0.216386  1.000000 0.000000 0.000000  0.007365 0.735988 1 71 1.000000
lowpoly_plastic
0  -3.511640 -17.484791 -0.288943  0.000000 -1.000000 0.000000  0.007596 0.747685 1 71 1.000000
0  -3.511640 -17.484791 -0.216386  0.000000 -1.000000 0.000000  0.007596 0.747675 1 71 1.000000
0  -3.573140 -17.484791 -0.216386  0.000000 -1.000000 0.000000  0.007606 0.747675 1 71 1.000000
lowpoly_plastic
0  -3.573140 -17.484791 -0.288943  -1.000000 0.000000 0.000000  0.007376 0.735988 1 71 1.000000
0  -3.573140 -17.484791 -0.216386  -1.000000 0.000000 0.000000  0.007386 0.735988 1 71 1.000000
0  -3.573140 -17.406868 -0.216386  -1.000000 0.000000 0.000000  0.007386 0.736000 1 71 1.000000
lowpoly_plastic
0  -3.573140 -17.406868 -0.288943  0.000000 1.000000 0.000000  0.007606 0.747685 1 71 1.000000
0  -3.573140 -17.406868 -0.216386  0.000000 1.000000 0.000000  0.007606 0.747675 1 71 1.000000
0  -3.511640 -17.406868 -0.216386  0.000000 1.000000 0.000000  0.007615 0.747675 1 71 1.000000
lowpoly_plastic
0  -3.511640 -17.484791 -0.288943  0.000000 0.000000 -1.000000  0.007277 0.747689 1 71 1.000000
0  -3.573140 -17.484791 -0.288943  0.000000 0.000000 -1.000000  0.007267 0.747689 1 71 1.000000
0  -3.573140 -17.406868 -0.288943  0.000000 0.000000 -1.000000  0.007267 0.747677 1 71 1.000000
lowpoly_plastic
0  -3.573140 -17.484791 -0.216386  0.000000 0.000000 -1.000000  0.005419 0.749211 1 71 1.000000
0  -3.511640 -17.484791 -0.216386  0.000000 0.000000 -1.000000  0.005428 0.749211 1 71 1.000000
0  -3.492797 -17.557995 -0.216386  0.000000 0.000000 -1.000000  0.005431 0.749222 1 71 1.000000
lowpoly_plastic
0  -3.573140 -17.406868 -0.216386  -0.000003 0.000000 -1.000000  0.005573 0.737511 1 71 1.000000
0  -3.573140 -17.484791 -0.216386  -0.000003 0.000000 -1.000000  0.005573 0.737522 1 71 1.000000
0  -3.591982 -17.557995 -0.216386  -0.000003 0.000000 -1.000000  0.005570 0.737533 1 71 1.000000
lowpoly_plastic
0  -3.511640 -17.484791 -0.216386  0.000005 0.000000 -1.000000  0.005582 0.737522 1 71 1.000000
0  -3.511640 -17.406868 -0.216386  0.000005 0.000000 -1.000000  0.005582 0.737511 1 71 1.000000
0  -3.492797 -17.135559 -0.216386  0.000005 0.000000 -1.000000  0.005585 0.737470 1 71 1.000000
lowpoly_plastic
0  -3.511640 -17.406868 -0.216386  0.000000 0.000000 -1.000000  0.005428 0.749200 1 71 1.000000
0  -3.573140 -17.406868 -0.216386  0.000000 0.000000 -1.000000  0.005419 0.749200 1 71 1.000000
0  -3.591982 -17.135559 -0.216386  0.000000 0.000000 -1.000000  0.005416 0.749159 1 71 1.000000
lowpoly_plastic
0  -3.492797 -17.135559 -0.216386  0.000000 1.000000 0.000000  0.007383 0.747459 1 71 1.000000
0  -3.591982 -17.135559 -0.216386  0.000000 1.000000 0.000000  0.007383 0.747473 1 71 1.000000
0  -3.591982 -17.135559 -0.189614  0.000000 1.000000 0.000000  0.007379 0.747473 1 71 1.000000
lowpoly_plastic
0  -3.591982 -17.557995 -0.183110  0.000000 -0.856196 0.516650  0.006108 0.748933 1 71 1.000000
0  -3.492797 -17.557995 -0.183110  0.000000 -0.856196 0.516650  0.006093 0.748933 1 71 1.000000
0  -3.492797 -17.469400 -0.036292  0.000000 -0.856196 0.516650  0.006093 0.748909 1 71 1.000000
lowpoly_plastic
0  -3.591982 -17.353195 -0.036292  0.000000 1.000000 0.000000  0.007323 0.747673 1 71 1.000000
0  -3.492797 -17.353195 -0.036292  0.000000 1.000000 0.000000  0.007338 0.747673 1 71 1.000000
0  -3.492797 -17.353195 -0.143668  0.000000 1.000000 0.000000  0.007338 0.747688 1 71 1.000000
lowpoly_plastic
0  -3.492797 -17.135559 -0.189614  0.000000 0.206558 0.978434  0.006824 0.749237 1 71 1.000000
0  -3.591982 -17.135559 -0.189614  0.000000 0.206558 0.978434  0.006809 0.749237 1 71 1.000000
0  -3.591982 -17.353195 -0.143668  0.000000 0.206558 0.978434  0.006809 0.749205 1 71 1.000000
lowpoly_plastic
0  -3.591982 -17.469400 -0.036292  0.000000 0.000000 1.000000  0.007839 0.747530 1 71 1.000000
0  -3.492797 -17.469400 -0.036292  0.000000 0.000000 1.000000  0.007853 0.747530 1 71 1.000000
0  -3.492797 -17.353195 -0.036292  0.000000 0.000000 1.000000  0.007853 0.747547 1 71 1.000000
lowpoly_plastic
0  -3.591982 -17.557995 -0.216386  0.000000 -1.000000 0.000000  0.006108 0.748937 1 71 1.000000
0  -3.492797 -17.557995 -0.216386  0.000000 -1.000000 0.000000  0.006093 0.748937 1 71 1.000000
0  -3.492797 -17.557995 -0.183110  0.000000 -1.000000 0.000000  0.006093 0.748933 1 71 1.000000
end
