version 1
nodes
0 "ValveBiped.Bip01_Spine4" -1
1 "ValveBiped.Bip01_L_Clavicle" 0
2 "ValveBiped.Bip01_L_UpperArm" 1
3 "ValveBiped.Bip01_L_Forearm" 2
4 "ValveBiped.Bip01_L_Hand" 3
5 "ValveBiped.Bip01_L_Finger4" 4
6 "ValveBiped.Bip01_L_Finger41" 5
7 "ValveBiped.Bip01_L_Finger42" 6
8 "ValveBiped.Bip01_L_Finger3" 4
9 "ValveBiped.Bip01_L_Finger31" 8
10 "ValveBiped.Bip01_L_Finger32" 9
11 "ValveBiped.Bip01_L_Finger2" 4
12 "ValveBiped.Bip01_L_Finger21" 11
13 "ValveBiped.Bip01_L_Finger22" 12
14 "ValveBiped.Bip01_L_Finger1" 4
15 "ValveBiped.Bip01_L_Finger11" 14
16 "ValveBiped.Bip01_L_Finger12" 15
17 "ValveBiped.Bip01_L_Finger0" 4
18 "ValveBiped.Bip01_L_Finger01" 17
19 "ValveBiped.Bip01_L_Finger02" 18
20 "ValveBiped.Bip01_L_Ulna" 3
21 "ValveBiped.Bip01_L_Wrist" 3
22 "rig_l_upperarm" 1
23 "rig_l_forearm" 22
24 "rig_d_l_forearm" 23
25 "rig_d_l_upperarm" 22
26 "ValveBiped.Bip01_R_Clavicle" 0
27 "ValveBiped.Bip01_R_UpperArm" 26
28 "ValveBiped.Bip01_R_Forearm" 27
29 "ValveBiped.Bip01_R_Hand" 28
30 "ValveBiped.Bip01_R_Finger4" 29
31 "ValveBiped.Bip01_R_Finger41" 30
32 "ValveBiped.Bip01_R_Finger42" 31
33 "ValveBiped.Bip01_R_Finger3" 29
34 "ValveBiped.Bip01_R_Finger31" 33
35 "ValveBiped.Bip01_R_Finger32" 34
36 "ValveBiped.Bip01_R_Finger2" 29
37 "ValveBiped.Bip01_R_Finger21" 36
38 "ValveBiped.Bip01_R_Finger22" 37
39 "ValveBiped.Bip01_R_Finger1" 29
40 "ValveBiped.Bip01_R_Finger11" 39
41 "ValveBiped.Bip01_R_Finger12" 40
42 "ValveBiped.Bip01_R_Finger0" 29
43 "ValveBiped.Bip01_R_Finger01" 42
44 "ValveBiped.Bip01_R_Finger02" 43
45 "ValveBiped.Bip01_R_Ulna" 28
46 "ValveBiped.Bip01_R_Wrist" 28
47 "rig_r_upperarm" 26
48 "rig_r_forearm" 47
49 "rig_d_r_forearm" 48
50 "rig_d_r_upperarm" 47
51 "rig_r_hand" -1
52 "rig_d_r_hand" 51
53 "rig_d_r_wrist" 52
54 "rig_l_hand" -1
55 "rig_d_l_hand" 54
56 "rig_d_l_wrist" 54
57 "rig_l_pole" -1
58 "rig_r_pole" -1
59 "rig_l_clavicle" -1
60 "rig_d_l_clavicle" 59
61 "rig_r_clavicle" -1
62 "rig_d_r_clavicle" 61
63 "Camera" -1
64 "body" -1
65 "trigger" 64
66 "bullet1" 64
67 "slide" 64
68 "hammer" 64
69 "sliderelease" 64
70 "barrel" 64
71 "slidesg" 64
72 "grip_safety" 64
73 "safety" 64
74 "magrelease" 64
75 "sg_round" -1
76 "mag" -1
77 "bullet2" 76
78 "bullet3" 76
79 "bullet4" 78
80 "bullet5" 78
81 "bullet6" 78
82 "bullet7" 78
83 "bullet8" 78
84 "bullet9" 78
85 "bullet10" 78
86 "springstart" 76
87 "springend" 86
88 "sg_shell" -1
end
skeleton
time 0
0  0.000006 0.000000 0.000000  -1.570800 -1.391899 -1.570792
1  2.033349 1.000767 1.937657  -1.544959 -1.855077 -0.198628
2  6.027514 -0.000326 0.000201  -1.583279 0.045953 -0.585171
3  11.692119 0.000566 -0.000740  -0.000021 0.000000 -0.056690
4  11.481222 0.000172 -0.000744  1.576892 -0.106567 0.041958
5  3.859503 -0.142823 -1.192079  -0.468169 0.151546 -0.880257
6  1.312588 0.000011 0.000008  -0.000027 0.000044 -0.439740
7  0.729357 0.000056 0.000050  0.000017 0.000021 -0.244317
8  3.942138 0.046328 -0.431543  -0.151817 0.073216 -0.811086
9  1.539111 0.000085 0.000004  -0.000007 0.000021 -0.247842
10  1.196334 0.000148 0.000029  0.000011 0.000018 -0.430770
11  3.883507 -0.047213 0.431351  0.085894 0.021858 -0.587909
12  1.719572 -0.000031 0.000017  0.000015 0.005518 -0.366533
13  1.209178 0.000091 0.000012  0.000004 0.003091 -0.216438
14  3.859676 -0.138418 1.332380  0.354466 -0.042717 -0.531784
15  1.719446 -0.000019 0.000028  0.000028 0.004066 -0.363025
16  1.099675 0.000051 0.000006  0.000003 0.002578 -0.244381
17  0.806009 -0.349040 1.321248  -1.222694 -0.679188 -0.788867
18  1.789820 -0.000003 -0.000019  0.000011 -0.000024 0.228523
19  1.207014 -0.000015 -0.000042  0.000002 -0.000008 0.362856
20  5.740638 0.000389 -0.000699  0.003123 0.000003 0.000063
21  11.481261 0.000219 -0.000826  0.004954 0.000185 -0.001487
22  6.027524 -0.000330 0.000200  0.059585 -2.453119 -2.193916
23  0.000000 11.692099 -0.000007  -0.043310 -0.000838 -0.036607
24  0.000004 0.000008 0.000001  0.868996 -0.000031 1.570739
25  -0.000000 -0.000011 -0.000000  0.868960 0.000002 1.570712
26  2.033355 1.000772 -1.937609  1.473126 1.855076 -0.198632
27  6.027509 -0.000258 -0.000228  1.639675 -0.005935 -0.586606
28  11.691992 0.000194 0.000861  -0.000046 -0.000001 -0.056062
29  11.481178 0.000098 0.000827  -1.565089 0.106509 0.042007
30  3.859439 -0.132758 1.193065  0.466290 -0.158048 -0.878822
31  1.312557 0.000023 -0.000000  0.000013 -0.000043 -0.439709
32  0.729346 0.000066 -0.000027  -0.000023 -0.000019 -0.244286
33  3.942047 0.050141 0.431000  0.150091 -0.079181 -0.810189
34  1.539094 0.000005 -0.000000  0.000009 -0.000007 -0.247824
35  1.196299 0.000074 -0.000003  -0.000007 -0.000009 -0.430781
36  3.883414 -0.050470 -0.431084  -0.085915 -0.026392 -0.587660
37  1.719565 -0.000087 -0.000004  -0.000006 -0.007962 -0.366486
38  1.209198 0.000036 0.000011  0.000002 -0.004461 -0.216413
39  3.859589 -0.149081 -1.331321  -0.354445 0.038578 -0.531955
40  1.719414 -0.000098 -0.000036  -0.000030 -0.006584 -0.363030
41  1.099673 0.000026 0.000007  0.000004 -0.004188 -0.244347
42  0.805984 -0.359846 -1.318338  1.221444 0.673631 -0.793558
43  1.789779 -0.000009 -0.000044  -0.000028 0.000031 0.228553
44  1.206997 -0.000008 0.000005  -0.000017 0.000020 0.362910
45  5.740571 0.000079 0.000724  0.002082 -0.000014 0.000028
46  11.481178 0.000092 0.000935  -0.000021 -0.000087 -0.001749
47  6.027516 -0.000273 -0.000228  0.007375 -0.632954 -2.161838
48  0.000001 11.691978 -0.000006  -0.042810 0.000798 0.036188
49  0.000004 -0.000001 0.000000  2.272571 -0.000036 1.570860
50  -0.000007 -0.000014 0.000005  2.272645 -0.000036 1.570861
51  -22.676567 -0.984331 -17.554111  -1.605366 2.379717 -0.041994
52  0.000001 0.000002 -0.000000  0.008153 -0.000259 0.000009
53  -0.000000 -0.000001 0.000000  1.565115 0.043565 -0.106862
54  22.676517 -0.984221 -17.554199  1.605712 0.761853 0.042358
55  0.000001 -0.000003 -0.000000  0.000000 -0.000001 -0.000002
56  0.000032 0.000027 0.000001  -1.571901 -0.044449 -0.106509
57  15.265023 8.339654 -8.787539  1.570796 -0.000000 0.000000
58  -15.265000 8.339654 -8.787539  1.570796 -0.000000 0.000000
59  1.941978 -1.346989 1.821586  1.570796 -0.000000 0.000000
60  -0.004311 0.001230 -0.000371  0.006898 -0.005534 -0.284229
61  -1.937603 -1.346625 1.822824  1.570796 -0.000000 0.000000
62  0.000000 0.000000 0.000000  -0.078727 -3.136056 0.284226
63  0.000000 0.000000 0.000000  1.570796 -0.000000 0.000000
64  -3.534368 -10.111034 -2.851932  1.570796 -0.000000 0.000000
65  -0.008022 0.449004 2.449477  0.000000 -0.000000 0.000000
66  -0.008021 1.798499 0.936337  0.000000 -0.000000 0.000000
67  0.000000 2.151127 2.901127  0.000000 -0.000000 0.000000
68  -0.008023 1.347420 0.085285  0.000000 -0.000000 0.000000
69  0.230628 1.332312 3.105305  0.000000 -0.000000 0.000000
70  -0.008024 2.172907 7.984051  0.000000 -0.000000 0.000000
71  -0.008022 1.228065 5.810776  0.000000 -0.000000 0.000000
72  -0.008023 1.115505 -0.313082  0.000000 -0.000000 0.000000
73  -0.008023 1.345870 0.084164  1.570796 -0.000000 -0.000000
74  -0.008023 0.197514 1.902819  0.000000 -0.000000 0.000000
75  -3.542390 -12.021312 -0.689985  1.570796 -0.000000 0.000000
76  -3.534368 -10.839828 -0.901454  1.570796 -0.000000 0.000000
77  -0.008021 -0.653745 0.060182  0.000000 -0.000000 0.000000
78  -0.008021 -1.155510 -0.087180  0.000000 -0.000000 0.000000
79  0.000000 -0.501765 -0.147367  0.000000 -0.000000 0.000000
80  0.000000 -1.003531 -0.294728  0.000000 -0.000000 0.000000
81  0.000000 -1.505297 -0.442090  0.000000 -0.000000 0.000000
82  0.000000 -2.007061 -0.589454  0.000000 -0.000000 0.000000
83  0.000000 -2.508827 -0.736814  0.000000 -0.000000 0.000000
84  0.000000 -2.772560 -0.939010  0.000000 -0.000000 0.000000
85  0.000000 -3.071457 -1.220325  0.000000 -0.000000 0.000000
86  -0.283371 -4.518086 -0.534134  0.346743 -0.000000 -0.000000
87  -0.000000 4.582804 -0.219900  -0.051302 0.000000 0.000000
88  -3.542390 -12.021312 -0.689985  1.570796 -0.000000 0.000000
end
triangles
Material
0  -3.932374 -11.259258 -1.939328  -0.999996 0.000811 -0.002572  0.418954 0.979429 1 64 1.000000
0  -3.932538 -11.332159 -1.899430  -0.999996 0.000811 -0.002572  0.400465 0.998302 1 64 1.000000
0  -3.932537 -11.313450 -1.893605  -0.999996 0.000811 -0.002572  0.406694 0.998345 1 64 1.000000
Material
0  -3.932374 -11.259258 -1.939328  -1.000000 0.000180 -0.001055  0.418954 0.979429 1 64 1.000000
0  -3.932437 -11.282179 -1.883869  -1.000000 0.000180 -0.001055  0.417106 0.998417 1 64 1.000000
0  -3.932446 -11.225327 -1.866169  -1.000000 0.000180 -0.001055  0.436035 0.998548 1 64 1.000000
Material
0  -3.933881 -11.658733 -2.513198  -0.999996 0.002528 0.000897  0.244415 0.841777 1 64 1.000000
0  -3.932177 -10.155476 -4.823462  -0.999996 0.002528 0.000897  0.488223 0.000132 1 64 1.000000
0  -3.932210 -10.167288 -4.827054  -0.999996 0.002528 0.000897  0.484298 0.000131 1 64 1.000000
Material
0  -3.933881 -11.658733 -2.513198  -1.000000 0.000366 -0.000486  0.244415 0.841777 1 64 1.000000
0  -3.932210 -10.167288 -4.827054  -1.000000 0.000366 -0.000486  0.484298 0.000131 1 64 1.000000
0  -3.932368 -10.890734 -5.046941  -1.000000 0.000366 -0.000486  0.243919 0.000088 1 64 1.000000
Material
0  -3.152132 -11.251147 -1.960526  0.999925 -0.007194 -0.009878  0.419462 0.972232 1 64 1.000000
0  -3.152116 -11.332601 -1.899568  0.999925 -0.007194 -0.009878  0.400318 0.998301 1 64 1.000000
0  -3.152508 -11.370789 -1.911457  0.999925 -0.007194 -0.009878  0.387603 0.998213 1 64 1.000000
Material
0  -3.152132 -11.251147 -1.960526  1.000000 0.000159 -0.000700  0.419462 0.972232 1 64 1.000000
0  -3.152066 -11.149442 -1.842543  1.000000 0.000159 -0.000700  0.461301 0.998723 1 64 1.000000
0  -3.152073 -11.279605 -1.883068  1.000000 0.000159 -0.000700  0.417963 0.998423 1 64 1.000000
Material
0  -3.933881 -11.658733 -2.513198  0.938019 -0.313944 -0.146830  0.244415 0.841777 1 64 1.000000
0  -3.933146 -11.656845 -2.512535  0.938019 -0.313944 -0.146830  0.245051 0.841804 1 64 1.000000
0  -3.932865 -11.865318 -2.065424  0.938019 -0.313944 -0.146830  0.222948 0.997071 1 64 1.000000
Material
0  -3.933881 -11.658733 -2.513198  0.938545 -0.330774 -0.098598  0.244415 0.841777 1 64 1.000000
0  -3.932217 -10.897985 -5.049145  0.938545 -0.330774 -0.098598  0.241510 0.000088 1 64 1.000000
0  -3.933146 -11.656845 -2.512535  0.938545 -0.330774 -0.098598  0.245051 0.841804 1 64 1.000000
Material
0  -3.932446 -11.225327 -1.866169  -0.999999 0.000430 -0.001173  0.436035 0.998548 1 64 1.000000
0  -3.932442 -11.165559 -1.847561  -0.999999 0.000430 -0.001173  0.455935 0.998686 1 64 1.000000
0  -3.932374 -11.259258 -1.939328  -0.999999 0.000430 -0.001173  0.418954 0.979429 1 64 1.000000
Material
0  -3.154198 -11.855351 -2.062321  0.999994 -0.003339 -0.000482  0.226266 0.997094 1 64 1.000000
0  -3.152176 -10.822037 -5.026060  0.999994 -0.003339 -0.000482  0.266745 0.000093 1 64 1.000000
0  -3.152132 -11.251147 -1.960526  0.999994 -0.003339 -0.000482  0.419462 0.972232 1 64 1.000000
Material
0  -3.932537 -11.313450 -1.893605  -0.999995 0.003167 0.000180  0.406694 0.998345 1 64 1.000000
0  -3.932437 -11.282179 -1.883869  -0.999995 0.003167 0.000180  0.417106 0.998417 1 64 1.000000
0  -3.932374 -11.259258 -1.939328  -0.999995 0.003167 0.000180  0.418954 0.979429 1 64 1.000000
Material
0  -3.933881 -11.834598 -2.055860  -0.999997 0.002429 0.000934  0.233177 0.997142 1 64 1.000000
0  -3.932374 -11.259258 -1.939328  -0.999997 0.002429 0.000934  0.418954 0.979429 1 64 1.000000
0  -3.933881 -11.658733 -2.513198  -0.999997 0.002429 0.000934  0.244415 0.841777 1 64 1.000000
Material
0  -3.152111 -11.072825 -1.818689  0.999998 0.001036 -0.001454  0.486810 0.998900 1 64 1.000000
0  -3.152066 -11.149442 -1.842543  0.999998 0.001036 -0.001454  0.461301 0.998723 1 64 1.000000
0  -3.152132 -11.251147 -1.960526  0.999998 0.001036 -0.001454  0.419462 0.972232 1 64 1.000000
Material
0  -3.152073 -11.279605 -1.883068  1.000000 -0.000502 -0.000948  0.417963 0.998423 1 64 1.000000
0  -3.152116 -11.332601 -1.899568  1.000000 -0.000502 -0.000948  0.400318 0.998301 1 64 1.000000
0  -3.152132 -11.251147 -1.960526  1.000000 -0.000502 -0.000948  0.419462 0.972232 1 64 1.000000
Material
0  -3.932374 -11.259258 -1.939328  -1.000000 -0.000497 -0.000228  0.418954 0.979429 1 64 1.000000
0  -3.932442 -11.165559 -1.847561  -1.000000 -0.000497 -0.000228  0.455935 0.998686 1 64 1.000000
0  -3.932700 -10.709710 -1.705636  -1.000000 -0.000497 -0.000228  0.607711 0.999739 1 64 1.000000
Material
0  -3.152176 -10.822037 -5.026060  1.000000 0.000605 0.000070  0.266745 0.000093 1 64 1.000000
0  -3.152594 -10.155476 -4.823463  1.000000 0.000605 0.000070  0.488223 0.000131 1 64 1.000000
0  -3.152132 -11.251147 -1.960526  1.000000 0.000605 0.000070  0.419462 0.972232 1 64 1.000000
Material
0  -3.932607 -9.529802 -4.633294  -1.000000 -0.000597 -0.000297  0.696115 0.000168 1 64 1.000000
0  -3.932177 -10.155476 -4.823462  -1.000000 -0.000597 -0.000297  0.488223 0.000132 1 64 1.000000
0  -3.932374 -11.259258 -1.939328  -1.000000 -0.000597 -0.000297  0.418954 0.979429 1 64 1.000000
Material
0  -3.932794 -11.683186 -2.627738  -0.999834 -0.017237 -0.005816  0.226394 0.809195 1 64 1.000000
0  -3.932368 -10.890734 -5.046941  -0.999834 -0.017237 -0.005816  0.243919 0.000088 1 64 1.000000
0  -3.932211 -10.898998 -5.049567  -0.999834 -0.017237 -0.005816  0.241163 0.000053 1 64 1.000000
Material
0  -3.152076 -10.706234 -1.704554  1.000000 -0.000077 -0.000052  0.608868 0.999747 1 64 1.000000
0  -3.152111 -11.072825 -1.818689  1.000000 -0.000077 -0.000052  0.486810 0.998900 1 64 1.000000
0  -3.152132 -11.251147 -1.960526  1.000000 -0.000077 -0.000052  0.419462 0.972232 1 64 1.000000
Material
0  -3.933881 -11.658733 -2.513198  -0.999996 0.002497 0.000887  0.244415 0.841777 1 64 1.000000
0  -3.932374 -11.259258 -1.939328  -0.999996 0.002497 0.000887  0.418954 0.979429 1 64 1.000000
0  -3.932177 -10.155476 -4.823462  -0.999996 0.002497 0.000887  0.488223 0.000132 1 64 1.000000
Material
0  -3.933146 -11.656845 -2.512535  -0.999980 -0.005980 -0.002162  0.245051 0.841804 1 64 1.000000
0  -3.932780 -11.742556 -2.444418  -0.999980 -0.005980 -0.002162  0.225273 0.870443 1 64 1.000000
0  -3.932865 -11.865318 -2.065424  -0.999980 -0.005980 -0.002162  0.222948 0.997071 1 64 1.000000
Material
0  -3.932865 -11.865318 -2.065424  -0.999499 -0.029538 -0.011359  0.222948 0.997071 1 64 1.000000
0  -3.933881 -11.834598 -2.055860  -0.999499 -0.029538 -0.011359  0.233177 0.997142 1 64 1.000000
0  -3.933881 -11.658733 -2.513198  -0.999499 -0.029538 -0.011359  0.244415 0.841777 1 64 1.000000
Material
0  -3.933881 -11.658733 -2.513198  -0.999802 -0.018866 -0.006340  0.244415 0.841777 1 64 1.000000
0  -3.932368 -10.890734 -5.046941  -0.999802 -0.018866 -0.006340  0.243919 0.000088 1 64 1.000000
0  -3.932217 -10.897985 -5.049145  -0.999802 -0.018866 -0.006340  0.241510 0.000088 1 64 1.000000
Material
0  -3.932217 -10.897985 -5.049145  -0.999985 -0.005096 -0.001891  0.241510 0.000088 1 64 1.000000
0  -3.932794 -11.683186 -2.627738  -0.999985 -0.005096 -0.001891  0.226394 0.809195 1 64 1.000000
0  -3.933146 -11.656845 -2.512535  -0.999985 -0.005096 -0.001891  0.245051 0.841804 1 64 1.000000
Material
0  -3.152132 -11.251147 -1.960526  0.999994 -0.003340 -0.000480  0.419462 0.972232 1 64 1.000000
0  -3.152508 -11.370789 -1.911457  0.999994 -0.003340 -0.000480  0.387603 0.998213 1 64 1.000000
0  -3.154198 -11.855351 -2.062321  0.999994 -0.003340 -0.000480  0.226266 0.997094 1 64 1.000000
Material
0  -3.154198 -11.855351 -2.062321  0.999994 -0.003335 -0.000482  0.226266 0.997094 1 64 1.000000
0  -3.152441 -10.897985 -5.049145  0.999994 -0.003335 -0.000482  0.241510 0.000088 1 64 1.000000
0  -3.152176 -10.822037 -5.026060  0.999994 -0.003335 -0.000482  0.266745 0.000093 1 64 1.000000
Material
0  -3.933881 -11.834598 -2.055860  -0.999997 0.002519 0.000497  0.233177 0.997142 1 64 1.000000
0  -3.932538 -11.332159 -1.899430  -0.999997 0.002519 0.000497  0.400465 0.998302 1 64 1.000000
0  -3.932374 -11.259258 -1.939328  -0.999997 0.002519 0.000497  0.418954 0.979429 1 64 1.000000
Material
0  -3.932700 -10.709710 -1.705636  -1.000000 -0.000499 -0.000231  0.607711 0.999739 1 64 1.000000
0  -3.932637 -9.477411 -4.617371  -1.000000 -0.000499 -0.000231  0.713523 0.000170 1 64 1.000000
0  -3.932607 -9.529802 -4.633294  -1.000000 -0.000499 -0.000231  0.696115 0.000168 1 64 1.000000
Material
0  -3.932607 -9.529802 -4.633294  -1.000000 -0.000496 -0.000231  0.696115 0.000168 1 64 1.000000
0  -3.932374 -11.259258 -1.939328  -1.000000 -0.000496 -0.000231  0.418954 0.979429 1 64 1.000000
0  -3.932700 -10.709710 -1.705636  -1.000000 -0.000496 -0.000231  0.607711 0.999739 1 64 1.000000
Material
0  -3.932794 -11.683186 -2.627738  0.999802 0.018835 0.006378  0.226394 0.809195 1 64 1.000000
0  -3.932217 -10.897985 -5.049145  0.999802 0.018835 0.006378  0.241510 0.000088 1 64 1.000000
0  -3.932368 -10.890734 -5.046941  0.999802 0.018835 0.006378  0.243919 0.000088 1 64 1.000000
Material
0  -3.152132 -11.251147 -1.960526  1.000000 -0.000023 -0.000170  0.419462 0.972232 1 64 1.000000
0  -3.152594 -10.155476 -4.823463  1.000000 -0.000023 -0.000170  0.488223 0.000131 1 64 1.000000
0  -3.152076 -10.706234 -1.704554  1.000000 -0.000023 -0.000170  0.608868 0.999747 1 64 1.000000
Material
0  -3.152594 -10.155476 -4.823463  1.000000 -0.000587 -0.000270  0.488223 0.000131 1 64 1.000000
0  -3.152140 -9.477098 -4.617276  1.000000 -0.000587 -0.000270  0.713627 0.000171 1 64 1.000000
0  -3.152076 -10.706234 -1.704554  1.000000 -0.000587 -0.000270  0.608868 0.999747 1 64 1.000000
end
