version 1
nodes
0 "ValveBiped.Bip01_Spine4" -1
1 "ValveBiped.Bip01_L_Clavicle" 0
2 "ValveBiped.Bip01_L_UpperArm" 1
3 "ValveBiped.Bip01_L_Forearm" 2
4 "ValveBiped.Bip01_L_Hand" 3
5 "ValveBiped.Bip01_L_Finger4" 4
6 "ValveBiped.Bip01_L_Finger41" 5
7 "ValveBiped.Bip01_L_Finger42" 6
8 "ValveBiped.Bip01_L_Finger3" 4
9 "ValveBiped.Bip01_L_Finger31" 8
10 "ValveBiped.Bip01_L_Finger32" 9
11 "ValveBiped.Bip01_L_Finger2" 4
12 "ValveBiped.Bip01_L_Finger21" 11
13 "ValveBiped.Bip01_L_Finger22" 12
14 "ValveBiped.Bip01_L_Finger1" 4
15 "ValveBiped.Bip01_L_Finger11" 14
16 "ValveBiped.Bip01_L_Finger12" 15
17 "ValveBiped.Bip01_L_Finger0" 4
18 "ValveBiped.Bip01_L_Finger01" 17
19 "ValveBiped.Bip01_L_Finger02" 18
20 "ValveBiped.Bip01_L_Ulna" 3
21 "ValveBiped.Bip01_L_Wrist" 3
22 "rig_l_upperarm" 1
23 "rig_l_forearm" 22
24 "rig_d_l_forearm" 23
25 "rig_d_l_upperarm" 22
26 "ValveBiped.Bip01_R_Clavicle" 0
27 "ValveBiped.Bip01_R_UpperArm" 26
28 "ValveBiped.Bip01_R_Forearm" 27
29 "ValveBiped.Bip01_R_Hand" 28
30 "ValveBiped.Bip01_R_Finger4" 29
31 "ValveBiped.Bip01_R_Finger41" 30
32 "ValveBiped.Bip01_R_Finger42" 31
33 "ValveBiped.Bip01_R_Finger3" 29
34 "ValveBiped.Bip01_R_Finger31" 33
35 "ValveBiped.Bip01_R_Finger32" 34
36 "ValveBiped.Bip01_R_Finger2" 29
37 "ValveBiped.Bip01_R_Finger21" 36
38 "ValveBiped.Bip01_R_Finger22" 37
39 "ValveBiped.Bip01_R_Finger1" 29
40 "ValveBiped.Bip01_R_Finger11" 39
41 "ValveBiped.Bip01_R_Finger12" 40
42 "ValveBiped.Bip01_R_Finger0" 29
43 "ValveBiped.Bip01_R_Finger01" 42
44 "ValveBiped.Bip01_R_Finger02" 43
45 "ValveBiped.Bip01_R_Ulna" 28
46 "ValveBiped.Bip01_R_Wrist" 28
47 "rig_r_upperarm" 26
48 "rig_r_forearm" 47
49 "rig_d_r_forearm" 48
50 "rig_d_r_upperarm" 47
51 "rig_r_hand" -1
52 "rig_d_r_hand" 51
53 "rig_d_r_wrist" 52
54 "rig_l_hand" -1
55 "rig_d_l_hand" 54
56 "rig_d_l_wrist" 54
57 "rig_l_pole" -1
58 "rig_r_pole" -1
59 "rig_l_clavicle" -1
60 "rig_d_l_clavicle" 59
61 "rig_r_clavicle" -1
62 "rig_d_r_clavicle" 61
63 "Camera" -1
64 "body" -1
65 "trigger" 64
66 "bullet1" 64
67 "slide" 64
68 "hammer" 64
69 "sliderelease" 64
70 "barrel" 64
71 "slidesg" 64
72 "grip_safety" 64
73 "safety" 64
74 "magrelease" 64
75 "sg_round" -1
76 "mag" -1
77 "bullet2" 76
78 "bullet3" 76
79 "bullet4" 78
80 "bullet5" 78
81 "bullet6" 78
82 "bullet7" 78
83 "bullet8" 78
84 "bullet9" 78
85 "bullet10" 78
86 "springstart" 76
87 "springend" 86
88 "sg_shell" -1
end
skeleton
time 0
0  0.000006 0.000000 0.000000  -1.570800 -1.391899 -1.570792
1  2.033349 1.000767 1.937657  -1.544956 -1.855077 -0.198630
2  6.027519 -0.000325 0.000208  -2.143567 0.785018 -0.668631
3  11.692112 0.000645 -0.000737  -0.000081 -0.000003 -1.062457
4  11.480341 -0.000210 -0.000731  1.977908 0.206141 0.313878
5  3.859507 -0.142824 -1.192079  -0.468169 0.151546 -0.880257
6  1.312591 0.000011 0.000008  -0.000027 0.000044 -0.439740
7  0.729356 0.000054 0.000049  0.000017 0.000021 -0.244317
8  3.942145 0.046328 -0.431542  -0.151817 0.073216 -0.811086
9  1.539110 0.000084 0.000004  -0.000007 0.000021 -0.247842
10  1.196333 0.000143 0.000029  0.000011 0.000018 -0.430770
11  3.883516 -0.047213 0.431351  0.085894 0.021858 -0.587909
12  1.719572 -0.000031 0.000017  0.000015 0.005518 -0.366533
13  1.209181 0.000090 0.000012  0.000004 0.003091 -0.216438
14  3.859681 -0.138419 1.332380  0.354466 -0.042717 -0.531784
15  1.719448 -0.000020 0.000028  0.000028 0.004066 -0.363025
16  1.099676 0.000050 0.000005  0.000003 0.002578 -0.244381
17  0.806014 -0.349039 1.321248  -1.222694 -0.679188 -0.788867
18  1.789818 -0.000006 -0.000018  0.000011 -0.000024 0.228523
19  1.207014 -0.000014 -0.000041  0.000002 -0.000008 0.362856
20  5.740633 0.000389 -0.000700  0.079065 0.000003 0.000063
21  11.481082 0.000133 -0.000803  0.075193 0.073684 0.050288
22  6.027525 -0.000330 0.000200  -2.352391 -0.091111 0.810625
23  0.000001 11.692099 -0.000007  -0.760917 -0.255891 -0.622326
24  0.000004 0.000009 -0.000000  0.868996 -0.000031 1.570739
25  0.000000 -0.000012 -0.000000  0.868960 0.000002 1.570712
26  2.033355 1.000772 -1.937609  1.473120 1.855075 -0.198639
27  6.027509 -0.000259 -0.000229  1.637176 -0.060228 -0.592196
28  11.691992 0.000163 0.000858  -0.000050 -0.000001 -0.007067
29  11.539204 0.000316 0.000816  -1.562466 0.108529 -0.061253
30  3.859438 -0.132760 1.193065  0.466290 -0.158048 -0.878823
31  1.312559 0.000023 0.000001  0.000013 -0.000043 -0.439709
32  0.729345 0.000065 -0.000027  -0.000023 -0.000019 -0.244286
33  3.942046 0.050138 0.431000  0.150091 -0.079181 -0.810189
34  1.539099 0.000006 0.000000  0.000009 -0.000007 -0.247824
35  1.196302 0.000075 -0.000004  -0.000007 -0.000009 -0.430781
36  3.883415 -0.050474 -0.431084  -0.085915 -0.026392 -0.587660
37  1.719564 -0.000085 -0.000004  -0.000006 -0.007962 -0.366486
38  1.209197 0.000034 0.000011  0.000002 -0.004461 -0.216413
39  3.859588 -0.149084 -1.331321  -0.354445 0.038578 -0.531955
40  1.719413 -0.000099 -0.000036  -0.000030 -0.006584 -0.363030
41  1.099674 0.000025 0.000006  0.000004 -0.004188 -0.244347
42  0.805982 -0.359850 -1.318338  1.221444 0.673631 -0.793558
43  1.789779 -0.000010 -0.000040  -0.000028 0.000031 0.228553
44  1.206995 -0.000006 0.000007  -0.000017 0.000020 0.362910
45  5.740573 0.000079 0.000723  0.026990 -0.000014 0.000028
46  11.492787 0.000137 0.000908  0.000504 0.000315 -0.022541
47  6.027515 -0.000273 -0.000228  0.074799 -0.634128 -2.207435
48  -0.000001 11.691977 -0.000007  -0.005397 0.000036 0.004562
49  0.000002 -0.000001 0.000001  2.272571 -0.000036 1.570860
50  -0.000008 -0.000014 0.000004  2.272645 -0.000036 1.570861
51  -22.620094 0.844507 -17.554111  -1.605366 2.379717 -0.041994
52  -0.000000 0.000001 -0.000000  0.008153 -0.000259 0.000009
53  0.000001 -0.000001 0.000000  1.565115 0.043565 -0.106862
54  22.730511 4.822210 -11.506547  1.605712 0.761853 0.042358
55  0.000000 -0.000002 -0.000000  0.000000 -0.000001 -0.000002
56  0.000031 0.000027 0.000001  -1.571901 -0.044449 -0.106509
57  15.265023 8.339654 -8.787539  1.570796 -0.000000 0.000000
58  -15.265000 8.339654 -8.787539  1.570796 -0.000000 0.000000
59  1.941978 -1.346989 1.821586  1.570796 -0.000000 0.000000
60  -0.004311 0.001230 -0.000371  0.006898 -0.005534 -0.284229
61  -1.937603 -1.346625 1.822824  1.570796 -0.000000 0.000000
62  0.000000 0.000000 0.000000  -0.078727 -3.136056 0.284226
63  0.000000 0.000000 0.000000  1.570796 -0.000000 0.000000
64  -3.534368 -10.111034 -2.851932  1.570796 -0.000000 0.000000
65  -0.008022 0.449004 2.449477  0.000000 -0.000000 0.000000
66  -0.008021 1.798499 0.936337  0.000000 -0.000000 0.000000
67  0.000000 2.151127 2.901127  0.000000 -0.000000 0.000000
68  -0.008023 1.347420 0.085285  0.000000 -0.000000 0.000000
69  0.230628 1.332312 3.105305  0.000000 -0.000000 0.000000
70  -0.008024 2.172907 7.984051  0.000000 -0.000000 0.000000
71  -0.008022 1.228065 5.810776  0.000000 -0.000000 0.000000
72  -0.008023 1.115505 -0.313082  0.000000 -0.000000 0.000000
73  -0.008023 1.345870 0.084164  1.570796 -0.000000 -0.000000
74  -0.008023 0.197514 1.902819  0.000000 -0.000000 0.000000
75  -3.542390 -12.021312 -0.689985  1.570796 -0.000000 0.000000
76  -3.534368 -10.839828 -0.901454  1.570796 -0.000000 0.000000
77  -0.008021 -0.653745 0.060182  0.000000 -0.000000 0.000000
78  -0.008021 -1.155510 -0.087180  0.000000 -0.000000 0.000000
79  0.000000 -0.501765 -0.147367  0.000000 -0.000000 0.000000
80  0.000000 -1.003531 -0.294728  0.000000 -0.000000 0.000000
81  0.000000 -1.505297 -0.442090  0.000000 -0.000000 0.000000
82  0.000000 -2.007061 -0.589454  0.000000 -0.000000 0.000000
83  0.000000 -2.508827 -0.736814  0.000000 -0.000000 0.000000
84  0.000000 -2.772560 -0.939010  0.000000 -0.000000 0.000000
85  0.000000 -3.071457 -1.220325  0.000000 -0.000000 0.000000
86  -0.283371 -4.518086 -0.534134  0.346743 -0.000000 -0.000000
87  -0.000000 4.582804 -0.219900  -0.051302 0.000000 0.000000
88  -3.542390 -12.021312 -0.689985  1.570796 -0.000000 0.000000
end
triangles
Material
0  -3.085776 -15.538198 -0.562135  0.951924 0.000067 0.306335  0.000000 0.874425 1 67 1.000000
0  -3.077031 -14.375703 -0.589996  0.988767 0.000112 0.149467  0.999997 0.806610 1 67 1.000000
0  -3.090871 -14.377604 -0.546555  0.951955 0.000069 0.306239  0.999997 0.844090 1 67 1.000000
Material
0  -3.117806 -14.381235 -0.463655  0.951326 0.000010 0.308186  0.999996 0.915613 1 67 1.000000
0  -3.138202 -15.177473 -0.400518  0.947556 -0.000010 0.319589  0.316720 0.999998 1 67 1.000000
0  -3.125146 -15.543503 -0.440961  0.951348 0.000007 0.308118  -0.000000 0.978969 1 67 1.000000
Material
0  -3.090871 -14.377604 -0.546555  0.951955 0.000069 0.306239  0.999997 0.844090 1 67 1.000000
0  -3.125146 -15.543503 -0.440961  0.951348 0.000007 0.308118  -0.000000 0.978969 1 67 1.000000
0  -3.085776 -15.538198 -0.562135  0.951924 0.000067 0.306335  0.000000 0.874425 1 67 1.000000
Material
0  -3.076800 -15.511679 -1.167895  1.000000 0.000164 0.000376  0.000001 0.351794 1 67 1.000000
0  -3.076974 -14.348463 -1.212221  0.999999 0.000103 0.001622  0.999997 0.269774 1 67 1.000000
0  -3.076981 -14.349270 -1.193764  1.000000 0.000167 0.000380  0.999998 0.285698 1 67 1.000000
Material
0  -3.076995 -14.350965 -1.155048  1.000000 0.000145 0.000237  0.999998 0.319101 1 67 1.000000
0  -3.076900 -15.536978 -0.589996  0.987469 0.000112 0.157816  0.000000 0.850386 1 67 1.000000
0  -3.076876 -15.521112 -0.952397  1.000000 0.000135 0.000196  0.000001 0.537718 1 67 1.000000
Material
0  -3.076876 -15.521112 -0.952397  1.000000 0.000135 0.000196  0.000001 0.537718 1 67 1.000000
0  -3.076981 -14.349270 -1.193764  1.000000 0.000167 0.000380  0.999998 0.285698 1 67 1.000000
0  -3.076995 -14.350965 -1.155048  1.000000 0.000145 0.000237  0.999998 0.319101 1 67 1.000000
Material
0  -3.076760 -15.507181 -1.270627  0.999999 0.000102 0.001602  0.000001 0.263160 1 67 1.000000
0  -3.076734 -14.344822 -1.296107  0.999996 0.000040 0.002860  0.999998 0.198026 1 67 1.000000
0  -3.076974 -14.348463 -1.212221  0.999999 0.000103 0.001622  0.999997 0.269774 1 67 1.000000
Material
0  -3.138197 -14.383999 -0.400510  0.820774 -0.000011 0.571253  0.999996 0.970092 1 67 1.000000
0  -3.183455 -14.385515 -0.365847  0.608054 -0.000012 0.793895  0.999997 0.999999 1 67 1.000000
0  -3.138202 -15.177473 -0.400518  0.947556 -0.000010 0.319589  0.316720 0.999998 1 67 1.000000
Material
0  -3.076689 -15.506098 -1.296107  -0.003764 -0.000000 -0.999993  0.000001 0.241803 1 67 1.000000
0  -3.154902 -14.344835 -1.295812  -0.003771 -0.000000 -0.999993  0.999997 0.198280 1 67 1.000000
0  -3.076734 -14.344822 -1.296107  -0.003771 -0.000000 -0.999993  0.999998 0.198026 1 67 1.000000
Material
0  -3.961483 -15.544559 -0.413969  -0.964219 0.000845 0.265104  0.999999 0.999997 1 67 1.000000
0  -4.008025 -14.375706 -0.589921  -0.991028 0.001455 0.133643  0.000003 0.806610 1 67 1.000000
0  -4.008946 -15.536978 -0.590210  -0.990723 0.000617 0.135897  1.000000 0.850386 1 67 1.000000
Material
0  -3.952441 -15.177461 -0.393135  -0.910182 -0.000344 0.414207  0.683280 0.999998 1 67 1.000000
0  -3.953125 -14.383987 -0.393979  -0.824162 0.001403 0.566352  0.000004 0.970092 1 67 1.000000
0  -3.961483 -15.544559 -0.413969  -0.964219 0.000845 0.265104  0.999999 0.999997 1 67 1.000000
Material
0  -4.009728 -15.511663 -1.167891  -1.000000 -0.000000 -0.000095  0.999999 0.351794 1 67 1.000000
0  -4.009724 -14.348463 -1.212221  -0.999931 0.000588 -0.011762  0.000003 0.269774 1 67 1.000000
0  -4.009719 -15.507181 -1.270627  -0.999337 0.000028 -0.036396  0.999999 0.263160 1 67 1.000000
Material
0  -4.009730 -14.350965 -1.155048  -0.999999 0.000305 0.001183  0.000002 0.319101 1 67 1.000000
0  -4.008946 -15.536978 -0.590210  -0.990723 0.000617 0.135897  1.000000 0.850386 1 67 1.000000
0  -4.008025 -14.375706 -0.589921  -0.991028 0.001455 0.133643  0.000003 0.806610 1 67 1.000000
Material
0  -4.009751 -15.521112 -0.952391  -0.999999 0.000230 0.001228  0.999999 0.537718 1 67 1.000000
0  -4.009726 -14.349270 -1.193764  -1.000000 -0.000003 -0.000107  0.000002 0.285698 1 67 1.000000
0  -4.009728 -15.511663 -1.167891  -1.000000 -0.000000 -0.000095  0.999999 0.351794 1 67 1.000000
Material
0  -4.009719 -15.507181 -1.270627  -0.999337 0.000028 -0.036396  0.999999 0.263160 1 67 1.000000
0  -4.007716 -14.344822 -1.297381  -0.999704 0.001164 -0.024299  0.000002 0.198026 1 67 1.000000
0  -4.007717 -15.506098 -1.297381  -0.997210 0.000001 -0.074648  0.999999 0.241803 1 67 1.000000
Material
0  -3.953125 -14.383987 -0.393979  -0.824162 0.001403 0.566352  0.000004 0.970092 1 67 1.000000
0  -3.952441 -15.177461 -0.393135  -0.910182 -0.000344 0.414207  0.683280 0.999998 1 67 1.000000
0  -3.905878 -14.385505 -0.359788  -0.586256 0.000356 0.810126  0.000003 0.999999 1 67 1.000000
Material
0  -4.007717 -15.506098 -1.297381  0.020557 0.000002 -0.999789  0.999999 0.241803 1 67 1.000000
0  -3.931485 -14.344842 -1.295811  0.020590 0.000000 -0.999788  0.000003 0.198280 1 67 1.000000
0  -3.931485 -15.506111 -1.295813  0.020556 0.000002 -0.999789  0.999999 0.242057 1 67 1.000000
Material
0  -3.154911 -14.341445 -1.372514  1.000000 -0.000004 -0.000137  0.999999 0.131478 1 64 1.000000
0  -3.154902 -15.506110 -1.295812  1.000000 0.000001 -0.000121  0.000001 0.242057 1 64 1.000000
0  -3.154904 -15.505217 -1.315497  1.000000 0.000012 -0.000201  0.000001 0.224447 1 64 1.000000
Material
0  -3.154902 -15.502726 -1.372401  1.000000 -0.000000 0.000000  0.000002 0.175352 1 64 1.000000
0  -3.154902 -15.493827 -1.575643  1.000000 -0.000000 0.000000  0.000003 0.000001 1 64 1.000000
0  -3.154902 -14.610644 -1.536978  1.000000 -0.000000 0.000000  0.761986 0.000003 1 64 1.000000
Material
0  -3.154912 -14.341310 -1.375624  1.000000 0.000003 -0.000050  0.999997 0.128795 1 64 1.000000
0  -3.154904 -15.505217 -1.315497  1.000000 0.000012 -0.000201  0.000001 0.224447 1 64 1.000000
0  -3.154905 -15.505180 -1.316316  1.000000 0.000017 -0.000132  0.000002 0.223740 1 64 1.000000
Material
0  -3.154905 -15.505180 -1.316316  1.000000 0.000017 -0.000132  0.000002 0.223740 1 64 1.000000
0  -3.154902 -14.612429 -1.537056  1.000000 0.000009 0.000045  0.760446 0.000003 1 64 1.000000
0  -3.154912 -14.341310 -1.375624  1.000000 0.000003 -0.000050  0.999997 0.128795 1 64 1.000000
Material
0  -3.931476 -14.341445 -1.372514  -1.000000 -0.000005 -0.000098  0.000001 0.131478 1 64 1.000000
0  -3.931485 -15.506111 -1.295813  -1.000000 -0.000000 -0.000133  0.999999 0.242057 1 64 1.000000
0  -3.931485 -14.344842 -1.295811  -1.000000 -0.000000 -0.000121  0.000003 0.198280 1 64 1.000000
Material
0  -3.931485 -15.502726 -1.372402  -1.000000 -0.000000 -0.000000  0.999998 0.175352 1 64 1.000000
0  -3.931486 -14.610644 -1.536978  -1.000000 -0.000000 -0.000000  0.238014 0.000003 1 64 1.000000
0  -3.931485 -15.493828 -1.575643  -1.000000 -0.000000 -0.000000  0.999997 0.000001 1 64 1.000000
Material
0  -3.931476 -14.341310 -1.375624  -1.000000 0.000004 -0.000014  0.000003 0.128795 1 64 1.000000
0  -3.931483 -15.505217 -1.315497  -1.000000 -0.000002 -0.000071  0.999999 0.224447 1 64 1.000000
0  -3.931476 -14.341445 -1.372514  -1.000000 -0.000005 -0.000098  0.000001 0.131478 1 64 1.000000
Material
0  -3.931476 -14.341310 -1.375624  -1.000000 0.000004 -0.000014  0.000003 0.128795 1 64 1.000000
0  -3.931486 -14.612429 -1.537056  -1.000000 0.000010 0.000045  0.239554 0.000003 1 64 1.000000
0  -3.931483 -15.505181 -1.316317  -1.000000 0.000001 0.000022  0.999998 0.223740 1 64 1.000000
Material
0  -3.085776 -15.538198 -0.562135  0.951924 0.000067 0.306335  0.000000 0.874425 1 67 1.000000
0  -3.076900 -15.536978 -0.589996  0.987469 0.000112 0.157816  0.000000 0.850386 1 67 1.000000
0  -3.077031 -14.375703 -0.589996  0.988767 0.000112 0.149467  0.999997 0.806610 1 67 1.000000
Material
0  -3.138197 -14.383999 -0.400510  0.820774 -0.000011 0.571253  0.999996 0.970092 1 67 1.000000
0  -3.138202 -15.177473 -0.400518  0.947556 -0.000010 0.319589  0.316720 0.999998 1 67 1.000000
0  -3.117806 -14.381235 -0.463655  0.951326 0.000010 0.308186  0.999996 0.915613 1 67 1.000000
Material
0  -3.138202 -15.177473 -0.400518  0.947556 -0.000010 0.319589  0.316720 0.999998 1 67 1.000000
0  -3.133017 -15.544568 -0.416589  0.951614 -0.000011 0.307295  0.000001 0.999997 1 67 1.000000
0  -3.125146 -15.543503 -0.440961  0.951348 0.000007 0.308118  -0.000000 0.978969 1 67 1.000000
Material
0  -3.090871 -14.377604 -0.546555  0.951955 0.000069 0.306239  0.999997 0.844090 1 67 1.000000
0  -3.117806 -14.381235 -0.463655  0.951326 0.000010 0.308186  0.999996 0.915613 1 67 1.000000
0  -3.125146 -15.543503 -0.440961  0.951348 0.000007 0.308118  -0.000000 0.978969 1 67 1.000000
Material
0  -3.076800 -15.511679 -1.167895  1.000000 0.000164 0.000376  0.000001 0.351794 1 67 1.000000
0  -3.076760 -15.507181 -1.270627  0.999999 0.000102 0.001602  0.000001 0.263160 1 67 1.000000
0  -3.076974 -14.348463 -1.212221  0.999999 0.000103 0.001622  0.999997 0.269774 1 67 1.000000
Material
0  -3.076995 -14.350965 -1.155048  1.000000 0.000145 0.000237  0.999998 0.319101 1 67 1.000000
0  -3.077031 -14.375703 -0.589996  0.988767 0.000112 0.149467  0.999997 0.806610 1 67 1.000000
0  -3.076900 -15.536978 -0.589996  0.987469 0.000112 0.157816  0.000000 0.850386 1 67 1.000000
Material
0  -3.076876 -15.521112 -0.952397  1.000000 0.000135 0.000196  0.000001 0.537718 1 67 1.000000
0  -3.076800 -15.511679 -1.167895  1.000000 0.000164 0.000376  0.000001 0.351794 1 67 1.000000
0  -3.076981 -14.349270 -1.193764  1.000000 0.000167 0.000380  0.999998 0.285698 1 67 1.000000
Material
0  -3.076760 -15.507181 -1.270627  0.999999 0.000102 0.001602  0.000001 0.263160 1 67 1.000000
0  -3.076689 -15.506098 -1.296107  0.999996 0.000039 0.002799  0.000001 0.241803 1 67 1.000000
0  -3.076734 -14.344822 -1.296107  0.999996 0.000040 0.002860  0.999998 0.198026 1 67 1.000000
Material
0  -3.076689 -15.506098 -1.296107  -0.003764 -0.000000 -0.999993  0.000001 0.241803 1 67 1.000000
0  -3.154902 -15.506110 -1.295812  -0.003764 0.000000 -0.999993  0.000001 0.242057 1 67 1.000000
0  -3.154902 -14.344835 -1.295812  -0.003771 -0.000000 -0.999993  0.999997 0.198280 1 67 1.000000
Material
0  -3.961483 -15.544559 -0.413969  -0.964219 0.000845 0.265104  0.999999 0.999997 1 67 1.000000
0  -3.953125 -14.383987 -0.393979  -0.824162 0.001403 0.566352  0.000004 0.970092 1 67 1.000000
0  -4.008025 -14.375706 -0.589921  -0.991028 0.001455 0.133643  0.000003 0.806610 1 67 1.000000
Material
0  -4.009728 -15.511663 -1.167891  -1.000000 -0.000000 -0.000095  0.999999 0.351794 1 67 1.000000
0  -4.009726 -14.349270 -1.193764  -1.000000 -0.000003 -0.000107  0.000002 0.285698 1 67 1.000000
0  -4.009724 -14.348463 -1.212221  -0.999931 0.000588 -0.011762  0.000003 0.269774 1 67 1.000000
Material
0  -4.009730 -14.350965 -1.155048  -0.999999 0.000305 0.001183  0.000002 0.319101 1 67 1.000000
0  -4.009751 -15.521112 -0.952391  -0.999999 0.000230 0.001228  0.999999 0.537718 1 67 1.000000
0  -4.008946 -15.536978 -0.590210  -0.990723 0.000617 0.135897  1.000000 0.850386 1 67 1.000000
Material
0  -4.009751 -15.521112 -0.952391  -0.999999 0.000230 0.001228  0.999999 0.537718 1 67 1.000000
0  -4.009730 -14.350965 -1.155048  -0.999999 0.000305 0.001183  0.000002 0.319101 1 67 1.000000
0  -4.009726 -14.349270 -1.193764  -1.000000 -0.000003 -0.000107  0.000002 0.285698 1 67 1.000000
Material
0  -4.009719 -15.507181 -1.270627  -0.999337 0.000028 -0.036396  0.999999 0.263160 1 67 1.000000
0  -4.009724 -14.348463 -1.212221  -0.999931 0.000588 -0.011762  0.000003 0.269774 1 67 1.000000
0  -4.007716 -14.344822 -1.297381  -0.999704 0.001164 -0.024299  0.000002 0.198026 1 67 1.000000
Material
0  -4.007717 -15.506098 -1.297381  0.020557 0.000002 -0.999789  0.999999 0.241803 1 67 1.000000
0  -4.007716 -14.344822 -1.297381  0.020591 -0.000000 -0.999788  0.000002 0.198026 1 67 1.000000
0  -3.931485 -14.344842 -1.295811  0.020590 0.000000 -0.999788  0.000003 0.198280 1 67 1.000000
Material
0  -3.154911 -14.341445 -1.372514  1.000000 -0.000004 -0.000137  0.999999 0.131478 1 64 1.000000
0  -3.154902 -14.344835 -1.295812  1.000000 0.000000 -0.000118  0.999997 0.198280 1 64 1.000000
0  -3.154902 -15.506110 -1.295812  1.000000 0.000001 -0.000121  0.000001 0.242057 1 64 1.000000
Material
0  -3.154912 -14.341310 -1.375624  1.000000 0.000003 -0.000050  0.999997 0.128795 1 64 1.000000
0  -3.154911 -14.341445 -1.372514  1.000000 -0.000004 -0.000137  0.999999 0.131478 1 64 1.000000
0  -3.154904 -15.505217 -1.315497  1.000000 0.000012 -0.000201  0.000001 0.224447 1 64 1.000000
Material
0  -3.154902 -15.502720 -1.372533  1.000000 0.000010 0.000047  0.000002 0.175238 1 64 1.000000
0  -3.154902 -14.612429 -1.537056  1.000000 0.000009 0.000045  0.760446 0.000003 1 64 1.000000
0  -3.154905 -15.505180 -1.316316  1.000000 0.000017 -0.000132  0.000002 0.223740 1 64 1.000000
Material
0  -3.154902 -14.612429 -1.537056  1.000000 0.000009 0.000045  0.760446 0.000003 1 64 1.000000
0  -3.154906 -14.334773 -1.524901  1.000000 0.000014 0.000039  0.999999 0.000003 1 64 1.000000
0  -3.154912 -14.341310 -1.375624  1.000000 0.000003 -0.000050  0.999997 0.128795 1 64 1.000000
Material
0  -3.931476 -14.341445 -1.372514  -1.000000 -0.000005 -0.000098  0.000001 0.131478 1 64 1.000000
0  -3.931483 -15.505217 -1.315497  -1.000000 -0.000002 -0.000071  0.999999 0.224447 1 64 1.000000
0  -3.931485 -15.506111 -1.295813  -1.000000 -0.000000 -0.000133  0.999999 0.242057 1 64 1.000000
Material
0  -3.931476 -14.341310 -1.375624  -1.000000 0.000004 -0.000014  0.000003 0.128795 1 64 1.000000
0  -3.931483 -15.505181 -1.316317  -1.000000 0.000001 0.000022  0.999998 0.223740 1 64 1.000000
0  -3.931483 -15.505217 -1.315497  -1.000000 -0.000002 -0.000071  0.999999 0.224447 1 64 1.000000
Material
0  -3.931481 -14.334772 -1.524901  -1.000000 0.000017 0.000037  0.000001 0.000003 1 64 1.000000
0  -3.931486 -14.612429 -1.537056  -1.000000 0.000010 0.000045  0.239554 0.000003 1 64 1.000000
0  -3.931476 -14.341310 -1.375624  -1.000000 0.000004 -0.000014  0.000003 0.128795 1 64 1.000000
Material
0  -3.931486 -14.612429 -1.537056  -1.000000 0.000010 0.000045  0.239554 0.000003 1 64 1.000000
0  -3.931485 -15.502720 -1.372533  -1.000000 0.000006 0.000047  0.999998 0.175238 1 64 1.000000
0  -3.931483 -15.505181 -1.316317  -1.000000 0.000001 0.000022  0.999998 0.223740 1 64 1.000000
end
