version 1
nodes
0 "ValveBiped.Bip01_Spine4" -1
1 "ValveBiped.Bip01_L_Clavicle" 0
2 "ValveBiped.Bip01_L_UpperArm" 1
3 "ValveBiped.Bip01_L_Forearm" 2
4 "ValveBiped.Bip01_L_Hand" 3
5 "ValveBiped.Bip01_L_Finger4" 4
6 "ValveBiped.Bip01_L_Finger41" 5
7 "ValveBiped.Bip01_L_Finger42" 6
8 "ValveBiped.Bip01_L_Finger3" 4
9 "ValveBiped.Bip01_L_Finger31" 8
10 "ValveBiped.Bip01_L_Finger32" 9
11 "ValveBiped.Bip01_L_Finger2" 4
12 "ValveBiped.Bip01_L_Finger21" 11
13 "ValveBiped.Bip01_L_Finger22" 12
14 "ValveBiped.Bip01_L_Finger1" 4
15 "ValveBiped.Bip01_L_Finger11" 14
16 "ValveBiped.Bip01_L_Finger12" 15
17 "ValveBiped.Bip01_L_Finger0" 4
18 "ValveBiped.Bip01_L_Finger01" 17
19 "ValveBiped.Bip01_L_Finger02" 18
20 "ValveBiped.Bip01_L_Ulna" 3
21 "ValveBiped.Bip01_L_Wrist" 3
22 "rig_l_upperarm" 1
23 "rig_l_forearm" 22
24 "rig_d_l_forearm" 23
25 "rig_d_l_upperarm" 22
26 "ValveBiped.Bip01_R_Clavicle" 0
27 "ValveBiped.Bip01_R_UpperArm" 26
28 "ValveBiped.Bip01_R_Forearm" 27
29 "ValveBiped.Bip01_R_Hand" 28
30 "ValveBiped.Bip01_R_Finger4" 29
31 "ValveBiped.Bip01_R_Finger41" 30
32 "ValveBiped.Bip01_R_Finger42" 31
33 "ValveBiped.Bip01_R_Finger3" 29
34 "ValveBiped.Bip01_R_Finger31" 33
35 "ValveBiped.Bip01_R_Finger32" 34
36 "ValveBiped.Bip01_R_Finger2" 29
37 "ValveBiped.Bip01_R_Finger21" 36
38 "ValveBiped.Bip01_R_Finger22" 37
39 "ValveBiped.Bip01_R_Finger1" 29
40 "ValveBiped.Bip01_R_Finger11" 39
41 "ValveBiped.Bip01_R_Finger12" 40
42 "ValveBiped.Bip01_R_Finger0" 29
43 "ValveBiped.Bip01_R_Finger01" 42
44 "ValveBiped.Bip01_R_Finger02" 43
45 "ValveBiped.Bip01_R_Ulna" 28
46 "ValveBiped.Bip01_R_Wrist" 28
47 "rig_r_upperarm" 26
48 "rig_r_forearm" 47
49 "rig_d_r_forearm" 48
50 "rig_d_r_upperarm" 47
51 "rig_r_hand" -1
52 "rig_d_r_hand" 51
53 "rig_d_r_wrist" 52
54 "rig_l_hand" -1
55 "rig_d_l_hand" 54
56 "rig_d_l_wrist" 54
57 "rig_l_pole" -1
58 "rig_r_pole" -1
59 "rig_l_clavicle" -1
60 "rig_d_l_clavicle" 59
61 "rig_r_clavicle" -1
62 "rig_d_r_clavicle" 61
63 "Camera" -1
64 "body" -1
65 "trigger" 64
66 "bullet1" 64
67 "slide" 64
68 "hammer" 64
69 "sliderelease" 64
70 "barrel" 64
71 "slidesg" 64
72 "grip_safety" 64
73 "safety" 64
74 "magrelease" 64
75 "sg_round" -1
76 "mag" -1
77 "bullet2" 76
78 "bullet3" 76
79 "bullet4" 78
80 "bullet5" 78
81 "bullet6" 78
82 "bullet7" 78
83 "bullet8" 78
84 "bullet9" 78
85 "bullet10" 78
86 "springstart" 76
87 "springend" 86
88 "sg_shell" -1
end
skeleton
time 0
0  0.000006 0.000000 0.000000  -1.570800 -1.391899 -1.570792
1  2.033349 1.000767 1.937657  -1.544956 -1.855077 -0.198630
2  6.027519 -0.000325 0.000208  -2.143567 0.785018 -0.668631
3  11.692112 0.000645 -0.000737  -0.000081 -0.000003 -1.062457
4  11.480341 -0.000210 -0.000731  1.977908 0.206141 0.313878
5  3.859507 -0.142824 -1.192079  -0.468169 0.151546 -0.880257
6  1.312591 0.000011 0.000008  -0.000027 0.000044 -0.439740
7  0.729356 0.000054 0.000049  0.000017 0.000021 -0.244317
8  3.942145 0.046328 -0.431542  -0.151817 0.073216 -0.811086
9  1.539110 0.000084 0.000004  -0.000007 0.000021 -0.247842
10  1.196333 0.000143 0.000029  0.000011 0.000018 -0.430770
11  3.883516 -0.047213 0.431351  0.085894 0.021858 -0.587909
12  1.719572 -0.000031 0.000017  0.000015 0.005518 -0.366533
13  1.209181 0.000090 0.000012  0.000004 0.003091 -0.216438
14  3.859681 -0.138419 1.332380  0.354466 -0.042717 -0.531784
15  1.719448 -0.000020 0.000028  0.000028 0.004066 -0.363025
16  1.099676 0.000050 0.000005  0.000003 0.002578 -0.244381
17  0.806014 -0.349039 1.321248  -1.222694 -0.679188 -0.788867
18  1.789818 -0.000006 -0.000018  0.000011 -0.000024 0.228523
19  1.207014 -0.000014 -0.000041  0.000002 -0.000008 0.362856
20  5.740633 0.000389 -0.000700  0.079065 0.000003 0.000063
21  11.481082 0.000133 -0.000803  0.075193 0.073684 0.050288
22  6.027525 -0.000330 0.000200  -2.352391 -0.091111 0.810625
23  0.000001 11.692099 -0.000007  -0.760917 -0.255891 -0.622326
24  0.000004 0.000009 -0.000000  0.868996 -0.000031 1.570739
25  0.000000 -0.000012 -0.000000  0.868960 0.000002 1.570712
26  2.033355 1.000772 -1.937609  1.473120 1.855075 -0.198639
27  6.027509 -0.000259 -0.000229  1.637176 -0.060228 -0.592196
28  11.691992 0.000163 0.000858  -0.000050 -0.000001 -0.007067
29  11.539204 0.000316 0.000816  -1.562466 0.108529 -0.061253
30  3.859438 -0.132760 1.193065  0.466290 -0.158048 -0.878823
31  1.312559 0.000023 0.000001  0.000013 -0.000043 -0.439709
32  0.729345 0.000065 -0.000027  -0.000023 -0.000019 -0.244286
33  3.942046 0.050138 0.431000  0.150091 -0.079181 -0.810189
34  1.539099 0.000006 0.000000  0.000009 -0.000007 -0.247824
35  1.196302 0.000075 -0.000004  -0.000007 -0.000009 -0.430781
36  3.883415 -0.050474 -0.431084  -0.085915 -0.026392 -0.587660
37  1.719564 -0.000085 -0.000004  -0.000006 -0.007962 -0.366486
38  1.209197 0.000034 0.000011  0.000002 -0.004461 -0.216413
39  3.859588 -0.149084 -1.331321  -0.354445 0.038578 -0.531955
40  1.719413 -0.000099 -0.000036  -0.000030 -0.006584 -0.363030
41  1.099674 0.000025 0.000006  0.000004 -0.004188 -0.244347
42  0.805982 -0.359850 -1.318338  1.221444 0.673631 -0.793558
43  1.789779 -0.000010 -0.000040  -0.000028 0.000031 0.228553
44  1.206995 -0.000006 0.000007  -0.000017 0.000020 0.362910
45  5.740573 0.000079 0.000723  0.026990 -0.000014 0.000028
46  11.492787 0.000137 0.000908  0.000504 0.000315 -0.022541
47  6.027515 -0.000273 -0.000228  0.074799 -0.634128 -2.207435
48  -0.000001 11.691977 -0.000007  -0.005397 0.000036 0.004562
49  0.000002 -0.000001 0.000001  2.272571 -0.000036 1.570860
50  -0.000008 -0.000014 0.000004  2.272645 -0.000036 1.570861
51  -22.620094 0.844507 -17.554111  -1.605366 2.379717 -0.041994
52  -0.000000 0.000001 -0.000000  0.008153 -0.000259 0.000009
53  0.000001 -0.000001 0.000000  1.565115 0.043565 -0.106862
54  22.730511 4.822210 -11.506547  1.605712 0.761853 0.042358
55  0.000000 -0.000002 -0.000000  0.000000 -0.000001 -0.000002
56  0.000031 0.000027 0.000001  -1.571901 -0.044449 -0.106509
57  15.265023 8.339654 -8.787539  1.570796 -0.000000 0.000000
58  -15.265000 8.339654 -8.787539  1.570796 -0.000000 0.000000
59  1.941978 -1.346989 1.821586  1.570796 -0.000000 0.000000
60  -0.004311 0.001230 -0.000371  0.006898 -0.005534 -0.284229
61  -1.937603 -1.346625 1.822824  1.570796 -0.000000 0.000000
62  0.000000 0.000000 0.000000  -0.078727 -3.136056 0.284226
63  0.000000 0.000000 0.000000  1.570796 -0.000000 0.000000
64  -3.534368 -10.111034 -2.851932  1.570796 -0.000000 0.000000
65  -0.008022 0.449004 2.449477  0.000000 -0.000000 0.000000
66  -0.008021 1.798499 0.936337  0.000000 -0.000000 0.000000
67  0.000000 2.151127 2.901127  0.000000 -0.000000 0.000000
68  -0.008023 1.347420 0.085285  0.000000 -0.000000 0.000000
69  0.230628 1.332312 3.105305  0.000000 -0.000000 0.000000
70  -0.008024 2.172907 7.984051  0.000000 -0.000000 0.000000
71  -0.008022 1.228065 5.810776  0.000000 -0.000000 0.000000
72  -0.008023 1.115505 -0.313082  0.000000 -0.000000 0.000000
73  -0.008023 1.345870 0.084164  1.570796 -0.000000 -0.000000
74  -0.008023 0.197514 1.902819  0.000000 -0.000000 0.000000
75  -3.542390 -12.021312 -0.689985  1.570796 -0.000000 0.000000
76  -3.534368 -10.839828 -0.901454  1.570796 -0.000000 0.000000
77  -0.008021 -0.653745 0.060182  0.000000 -0.000000 0.000000
78  -0.008021 -1.155510 -0.087180  0.000000 -0.000000 0.000000
79  0.000000 -0.501765 -0.147367  0.000000 -0.000000 0.000000
80  0.000000 -1.003531 -0.294728  0.000000 -0.000000 0.000000
81  0.000000 -1.505297 -0.442090  0.000000 -0.000000 0.000000
82  0.000000 -2.007061 -0.589454  0.000000 -0.000000 0.000000
83  0.000000 -2.508827 -0.736814  0.000000 -0.000000 0.000000
84  0.000000 -2.772560 -0.939010  0.000000 -0.000000 0.000000
85  0.000000 -3.071457 -1.220325  0.000000 -0.000000 0.000000
86  -0.283371 -4.518086 -0.534134  0.346743 -0.000000 -0.000000
87  -0.000000 4.582804 -0.219900  -0.051302 0.000000 0.000000
88  -3.542390 -12.021312 -0.689985  1.570796 -0.000000 0.000000
end
triangles
lowpoly_plastic
0  -3.542390 -15.312269 -2.510670  0.000000 0.167931 -0.985799  0.627634 0.473528 1 64 1.000000
0  -3.812598 -14.872795 -2.435806  0.000000 0.167931 -0.985799  0.627621 0.473513 1 64 1.000000
0  -3.542390 -14.872795 -2.435806  0.000000 0.167931 -0.985799  0.627634 0.473513 1 64 1.000000
lowpoly_plastic
0  -4.073176 -15.162483 -2.005520  -1.000000 -0.000000 0.000000  0.628875 0.457675 1 64 1.000000
0  -4.073176 -14.699268 -2.175546  -1.000000 -0.000000 0.000000  0.628897 0.457683 1 64 1.000000
0  -4.073176 -15.505404 -2.293134  -1.000000 -0.000000 0.000000  0.628858 0.457688 1 64 1.000000
lowpoly_plastic
0  -4.073176 -14.526269 -2.005520  -1.000000 0.000000 0.000000  0.628905 0.457675 1 64 1.000000
0  -4.073176 -13.938261 -2.398481  -1.000000 0.000000 0.000000  0.628933 0.457693 1 64 1.000000
0  -4.073176 -14.699268 -2.175546  -1.000000 0.000000 0.000000  0.628897 0.457683 1 64 1.000000
lowpoly_plastic
0  -3.542390 -15.485852 -1.856557  0.000000 0.000000 1.000000  0.629298 0.482353 1 64 1.000000
0  -3.148077 -17.576557 -1.856557  0.000000 0.000000 1.000000  0.629279 0.482452 1 64 1.000000
0  -3.148077 -15.485853 -1.856557  0.000000 0.000000 1.000000  0.629279 0.482353 1 64 1.000000
lowpoly_plastic
0  -3.542389 -17.987865 -2.309448  0.000000 -0.978936 -0.204169  0.629045 0.472086 1 64 1.000000
0  -3.811613 -17.859316 -2.925829  0.000000 -0.978936 -0.204169  0.629058 0.472116 1 64 1.000000
0  -3.542389 -17.859316 -2.925829  0.000000 -0.978936 -0.204169  0.629045 0.472116 1 64 1.000000
lowpoly_plastic
0  -3.272182 -15.445017 -3.306958  0.000000 0.769191 0.639019  0.627865 0.473586 1 64 1.000000
0  -3.542390 -14.709982 -4.191723  0.000000 0.769191 0.639019  0.627878 0.473551 1 64 1.000000
0  -3.542390 -15.445017 -3.306958  0.000000 0.769191 0.639019  0.627878 0.473586 1 64 1.000000
lowpoly_plastic
0  -3.148077 -15.485853 -1.856557  -0.000001 0.000000 1.000000  0.629279 0.482353 1 64 1.000000
0  -3.542390 -14.996668 -1.856557  -0.000001 0.000000 1.000000  0.629298 0.482329 1 64 1.000000
0  -3.542390 -15.485852 -1.856557  -0.000001 0.000000 1.000000  0.629298 0.482353 1 64 1.000000
lowpoly_plastic
0  -4.073176 -16.768650 -3.880921  -1.000000 0.000000 0.000000  0.628798 0.457764 1 64 1.000000
0  -4.073176 -14.960019 -4.335845  -1.000000 0.000000 0.000000  0.628884 0.457786 1 64 1.000000
0  -4.073176 -16.699081 -4.192746  -1.000000 0.000000 0.000000  0.628801 0.457779 1 64 1.000000
lowpoly_plastic
0  -4.073176 -15.485853 -2.005520  -1.000000 0.000005 0.000000  0.628859 0.457675 1 64 1.000000
0  -4.073176 -15.505404 -2.293134  -1.000000 0.000005 0.000000  0.628858 0.457688 1 64 1.000000
0  -4.073176 -15.904917 -2.837260  -1.000000 0.000005 0.000000  0.628839 0.457714 1 64 1.000000
lowpoly_plastic
0  -4.073176 -17.583138 -2.005520  -0.768922 -0.618504 0.161897  0.629147 0.465038 1 64 1.000000
0  -4.073176 -17.682623 -2.385594  -0.768922 -0.618504 0.161897  0.629142 0.465056 1 64 1.000000
0  -3.811612 -17.987865 -2.309448  -0.768922 -0.618504 0.161897  0.629128 0.465053 1 64 1.000000
lowpoly_plastic
0  -3.542390 -17.335262 -3.570119  0.000000 -0.424224 -0.905557  0.629045 0.472153 1 64 1.000000
0  -3.273166 -17.838898 -3.334182  0.000000 -0.424224 -0.905557  0.629032 0.472134 1 64 1.000000
0  -3.542389 -17.838898 -3.334182  0.000000 -0.424224 -0.905557  0.629045 0.472134 1 64 1.000000
lowpoly_plastic
0  -3.542389 -17.838898 -3.334182  0.000000 -0.998752 -0.049938  0.629045 0.472134 1 64 1.000000
0  -3.273166 -17.859316 -2.925829  0.000000 -0.998752 -0.049938  0.629032 0.472116 1 64 1.000000
0  -3.542389 -17.859316 -2.925829  0.000000 -0.998752 -0.049938  0.629045 0.472116 1 64 1.000000
lowpoly_plastic
0  -3.273166 -17.987865 -2.309448  0.000000 -0.884819 0.465936  0.629032 0.472086 1 64 1.000000
0  -3.542389 -17.749378 -1.856557  0.000000 -0.884819 0.465936  0.629045 0.472069 1 64 1.000000
0  -3.542389 -17.987865 -2.309448  0.000000 -0.884819 0.465936  0.629045 0.472086 1 64 1.000000
lowpoly_plastic
0  -3.011603 -17.053520 -3.498110  0.733632 -0.545162 -0.405688  0.628869 0.465432 1 64 1.000000
0  -3.273166 -17.090252 -3.921756  0.733632 -0.545162 -0.405688  0.628871 0.465452 1 64 1.000000
0  -3.011603 -16.768650 -3.880921  0.733632 -0.545162 -0.405688  0.628856 0.465451 1 64 1.000000
lowpoly_plastic
0  -3.812598 -15.587940 -2.886128  -0.737339 0.639640 0.217238  0.629242 0.465080 1 64 1.000000
0  -4.073176 -15.697412 -3.448241  -0.737339 0.639640 0.217238  0.629237 0.465107 1 64 1.000000
0  -4.073176 -15.904917 -2.837260  -0.737339 0.639640 0.217238  0.629227 0.465078 1 64 1.000000
lowpoly_plastic
0  -4.073176 -17.682623 -2.385594  -1.000000 -0.000001 -0.000000  0.628755 0.457693 1 64 1.000000
0  -4.073176 -15.904917 -2.837260  -1.000000 -0.000001 -0.000000  0.628839 0.457714 1 64 1.000000
0  -4.073176 -17.525459 -2.910699  -1.000000 -0.000001 -0.000000  0.628762 0.457718 1 64 1.000000
lowpoly_plastic
0  -3.011603 -15.823875 -5.565224  1.000000 0.000000 0.000000  0.628423 0.458167 1 64 1.000000
0  -3.011603 -14.771362 -4.848603  1.000000 0.000000 0.000000  0.628373 0.458133 1 64 1.000000
0  -3.011603 -16.187874 -5.082046  1.000000 0.000000 0.000000  0.628440 0.458144 1 64 1.000000
lowpoly_plastic
0  -4.073176 -16.699081 -4.192746  -1.000000 -0.000000 0.000000  0.628801 0.457779 1 64 1.000000
0  -4.073176 -14.960019 -4.335845  -1.000000 -0.000000 0.000000  0.628884 0.457786 1 64 1.000000
0  -4.073176 -16.399448 -4.456379  -1.000000 -0.000000 0.000000  0.628816 0.457792 1 64 1.000000
lowpoly_plastic
0  -3.542390 -15.303013 -6.062769  0.000000 0.100662 -0.994921  0.628609 0.472346 1 64 1.000000
0  -3.811613 -16.097185 -6.143120  0.000000 0.100662 -0.994921  0.628596 0.472370 1 64 1.000000
0  -3.812598 -15.303013 -6.062769  0.000000 0.100662 -0.994921  0.628596 0.472346 1 64 1.000000
lowpoly_plastic
0  -3.148078 -14.426949 -1.856557  0.000000 0.000000 1.000000  0.629279 0.482302 1 64 1.000000
0  -3.542390 -13.938261 -1.856557  0.000000 0.000000 1.000000  0.629298 0.482279 1 64 1.000000
0  -3.542390 -14.426949 -1.856557  0.000000 0.000000 1.000000  0.629298 0.482302 1 64 1.000000
lowpoly_plastic
0  -3.542390 -17.090252 -3.921756  0.000000 -0.820474 -0.571685  0.629045 0.472172 1 64 1.000000
0  -3.273166 -17.335262 -3.570119  0.000000 -0.820474 -0.571685  0.629032 0.472153 1 64 1.000000
0  -3.542390 -17.335262 -3.570119  0.000000 -0.820474 -0.571685  0.629045 0.472153 1 64 1.000000
lowpoly_plastic
0  -3.812598 -15.303013 -6.062769  -0.000002 0.100662 -0.994921  0.629371 0.464982 1 64 1.000000
0  -3.811613 -16.097185 -6.143120  -0.000002 0.100662 -0.994921  0.629371 0.465007 1 64 1.000000
0  -4.073177 -15.703908 -6.103330  -0.000002 0.100662 -0.994921  0.629358 0.464995 1 64 1.000000
lowpoly_plastic
0  -3.272182 -14.601252 -5.550156  0.000000 0.971051 -0.238870  0.628621 0.472307 1 64 1.000000
0  -3.542390 -14.444552 -4.913146  0.000000 0.971051 -0.238870  0.628609 0.472277 1 64 1.000000
0  -3.272182 -14.444552 -4.913146  0.000000 0.971051 -0.238870  0.628621 0.472277 1 64 1.000000
lowpoly_plastic
0  -3.542390 -15.587940 -2.886128  0.000000 0.806065 -0.591828  0.627634 0.473550 1 64 1.000000
0  -3.812598 -15.312269 -2.510670  0.000000 0.806065 -0.591828  0.627621 0.473528 1 64 1.000000
0  -3.542390 -15.312269 -2.510670  0.000000 0.806065 -0.591828  0.627634 0.473528 1 64 1.000000
lowpoly_plastic
0  -3.011603 -14.771362 -4.848603  1.000000 0.000000 0.000000  0.628373 0.458133 1 64 1.000000
0  -3.011603 -16.226469 -4.758973  1.000000 0.000000 0.000000  0.628442 0.458129 1 64 1.000000
0  -3.011603 -16.187874 -5.082046  1.000000 0.000000 0.000000  0.628440 0.458144 1 64 1.000000
lowpoly_plastic
0  -4.073176 -17.510406 -3.261537  -1.000000 0.000000 0.000000  0.628763 0.457735 1 64 1.000000
0  -4.073176 -15.697412 -3.448241  -1.000000 0.000000 0.000000  0.628849 0.457744 1 64 1.000000
0  -4.073176 -17.053520 -3.498109  -1.000000 0.000000 0.000000  0.628785 0.457746 1 64 1.000000
lowpoly_plastic
0  -3.542390 -16.754494 -4.486644  0.000000 -0.635014 -0.772501  0.629045 0.472203 1 64 1.000000
0  -3.273166 -17.022194 -4.266588  0.000000 -0.635014 -0.772501  0.629032 0.472189 1 64 1.000000
0  -3.542390 -17.022194 -4.266588  0.000000 -0.635014 -0.772501  0.629045 0.472189 1 64 1.000000
lowpoly_plastic
0  -3.542390 -16.150875 -5.569253  0.000000 -0.795699 -0.605692  0.629045 0.472261 1 64 1.000000
0  -3.273167 -16.484528 -5.130935  0.000000 -0.795699 -0.605692  0.629032 0.472236 1 64 1.000000
0  -3.542390 -16.484528 -5.130935  0.000000 -0.795699 -0.605692  0.629045 0.472236 1 64 1.000000
lowpoly_plastic
0  -3.811613 -17.838898 -3.334182  0.000000 -0.424227 -0.905556  0.629058 0.472134 1 64 1.000000
0  -3.542390 -17.335262 -3.570119  0.000000 -0.424227 -0.905556  0.629045 0.472153 1 64 1.000000
0  -3.542389 -17.838898 -3.334182  0.000000 -0.424227 -0.905556  0.629045 0.472134 1 64 1.000000
lowpoly_plastic
0  -3.811613 -17.335262 -3.570119  -0.000001 -0.820473 -0.571685  0.629058 0.472153 1 64 1.000000
0  -3.542390 -17.090252 -3.921756  -0.000001 -0.820473 -0.571685  0.629045 0.472172 1 64 1.000000
0  -3.542390 -17.335262 -3.570119  -0.000001 -0.820473 -0.571685  0.629045 0.472153 1 64 1.000000
lowpoly_plastic
0  -4.073176 -14.960019 -4.335845  -1.000000 0.000001 0.000000  0.628884 0.457786 1 64 1.000000
0  -4.073176 -16.226469 -4.758973  -1.000000 0.000001 0.000000  0.628824 0.457806 1 64 1.000000
0  -4.073176 -16.399448 -4.456379  -1.000000 0.000001 0.000000  0.628816 0.457792 1 64 1.000000
lowpoly_plastic
0  -3.542390 -14.444552 -4.913146  0.000000 0.971051 -0.238870  0.628609 0.472277 1 64 1.000000
0  -3.812598 -14.601252 -5.550156  0.000000 0.971051 -0.238870  0.628596 0.472307 1 64 1.000000
0  -3.812598 -14.444552 -4.913146  0.000000 0.971051 -0.238870  0.628596 0.472277 1 64 1.000000
lowpoly_plastic
0  -3.542390 -15.587940 -2.886128  0.000000 0.946882 0.321583  0.627634 0.473550 1 64 1.000000
0  -3.812598 -15.445017 -3.306958  0.000000 0.946882 0.321583  0.627621 0.473563 1 64 1.000000
0  -3.812598 -15.587940 -2.886128  0.000000 0.946882 0.321583  0.627621 0.473550 1 64 1.000000
lowpoly_plastic
0  -4.073176 -15.697412 -3.448241  -1.000000 -0.000000 0.000000  0.628849 0.457744 1 64 1.000000
0  -4.073176 -16.768650 -3.880921  -1.000000 -0.000000 0.000000  0.628798 0.457764 1 64 1.000000
0  -4.073176 -17.053520 -3.498109  -1.000000 -0.000000 0.000000  0.628785 0.457746 1 64 1.000000
lowpoly_plastic
0  -4.073177 -15.823875 -5.565224  -1.000000 0.000001 0.000000  0.628843 0.457844 1 64 1.000000
0  -4.073177 -15.703908 -6.103330  -1.000000 0.000001 0.000000  0.628849 0.457870 1 64 1.000000
0  -4.073177 -15.774426 -6.110465  -1.000000 0.000001 0.000000  0.628846 0.457870 1 64 1.000000
lowpoly_plastic
0  -3.811613 -16.150875 -5.569253  0.000000 -0.995652 -0.093147  0.629058 0.472261 1 64 1.000000
0  -3.542390 -16.097185 -6.143120  0.000000 -0.995652 -0.093147  0.629045 0.472288 1 64 1.000000
0  -3.542390 -16.150875 -5.569253  0.000000 -0.995652 -0.093147  0.629045 0.472261 1 64 1.000000
lowpoly_plastic
0  -3.542390 -14.709982 -4.191723  0.000000 0.938494 0.345297  0.628609 0.472256 1 64 1.000000
0  -3.812598 -14.444552 -4.913146  0.000000 0.938494 0.345297  0.628596 0.472277 1 64 1.000000
0  -3.812598 -14.709982 -4.191723  0.000000 0.938494 0.345297  0.628596 0.472256 1 64 1.000000
lowpoly_plastic
0  -3.936702 -14.426949 -1.856557  -0.737339 0.000000 0.675523  0.629685 0.465806 1 64 1.000000
0  -4.073176 -13.938261 -2.005520  -0.737339 0.000000 0.675523  0.629708 0.465813 1 64 1.000000
0  -4.073176 -14.526269 -2.005520  -0.737339 0.000000 0.675523  0.629680 0.465813 1 64 1.000000
lowpoly_plastic
0  -3.011603 -13.938261 -2.398481  0.647811 -0.150807 -0.746724  0.628721 0.465380 1 64 1.000000
0  -3.272182 -14.872795 -2.435806  0.647811 -0.150807 -0.746724  0.628765 0.465382 1 64 1.000000
0  -3.272182 -13.938261 -2.624543  0.647811 -0.150807 -0.746724  0.628721 0.465391 1 64 1.000000
lowpoly_plastic
0  -3.272182 -14.872795 -2.435806  0.687770 0.121907 -0.715620  0.628765 0.465382 1 64 1.000000
0  -3.011603 -15.505404 -2.293134  0.687770 0.121907 -0.715620  0.628795 0.465375 1 64 1.000000
0  -3.272182 -15.312269 -2.510670  0.687770 0.121907 -0.715620  0.628786 0.465385 1 64 1.000000
lowpoly_plastic
0  -3.272182 -15.587940 -2.886128  0.737337 0.639643 0.217237  0.628799 0.465403 1 64 1.000000
0  -3.011603 -15.697412 -3.448242  0.737337 0.639643 0.217237  0.628805 0.465430 1 64 1.000000
0  -3.272182 -15.445017 -3.306958  0.737337 0.639643 0.217237  0.628793 0.465423 1 64 1.000000
lowpoly_plastic
0  -4.073177 -14.946979 -5.554417  -0.613644 0.463538 -0.639197  0.629358 0.464953 1 64 1.000000
0  -3.812598 -15.303013 -6.062769  -0.613644 0.463538 -0.639197  0.629371 0.464982 1 64 1.000000
0  -4.073177 -15.703908 -6.103330  -0.613644 0.463538 -0.639197  0.629358 0.464995 1 64 1.000000
lowpoly_plastic
0  -3.542390 -13.938261 -1.856557  0.000000 1.000000 0.000000  0.628598 0.483583 1 64 1.000000
0  -3.542390 -13.938261 -2.624543  0.000000 1.000000 0.000000  0.628629 0.483583 1 64 1.000000
0  -4.073176 -13.938261 -2.398481  0.000000 1.000000 0.000000  0.628620 0.483608 1 64 1.000000
lowpoly_plastic
0  -3.011603 -14.960019 -4.335845  0.737339 0.519606 0.431672  0.628769 0.465472 1 64 1.000000
0  -3.272182 -15.445017 -3.306958  0.737339 0.519606 0.431672  0.628793 0.465423 1 64 1.000000
0  -3.011603 -15.697412 -3.448242  0.737339 0.519606 0.431672  0.628805 0.465430 1 64 1.000000
lowpoly_plastic
0  -3.272182 -14.601252 -5.550156  0.788853 0.596399 -0.148391  0.628752 0.465530 1 64 1.000000
0  -3.011603 -14.771362 -4.848603  0.788853 0.596399 -0.148391  0.628760 0.465497 1 64 1.000000
0  -3.011604 -14.946979 -5.554417  0.788853 0.596399 -0.148391  0.628769 0.465530 1 64 1.000000
lowpoly_plastic
0  -3.811613 -17.090252 -3.921756  0.000000 -0.981076 -0.193623  0.629058 0.472172 1 64 1.000000
0  -3.542390 -17.022194 -4.266588  0.000000 -0.981076 -0.193623  0.629045 0.472189 1 64 1.000000
0  -3.542390 -17.090252 -3.921756  0.000000 -0.981076 -0.193623  0.629045 0.472172 1 64 1.000000
lowpoly_plastic
0  -3.011603 -17.682623 -2.385594  0.778260 -0.601575 -0.180055  0.628899 0.465379 1 64 1.000000
0  -3.273166 -17.859316 -2.925829  0.778260 -0.601575 -0.180055  0.628908 0.465405 1 64 1.000000
0  -3.011603 -17.525459 -2.910699  0.778260 -0.601575 -0.180055  0.628892 0.465404 1 64 1.000000
lowpoly_plastic
0  -4.073176 -14.960019 -4.335845  -1.000000 0.000000 0.000000  0.628884 0.457786 1 64 1.000000
0  -4.073176 -16.187874 -5.082046  -1.000000 0.000000 0.000000  0.628826 0.457821 1 64 1.000000
0  -4.073176 -16.226469 -4.758973  -1.000000 0.000000 0.000000  0.628824 0.457806 1 64 1.000000
lowpoly_plastic
0  -3.011603 -16.768650 -3.880921  0.784996 -0.604635 -0.134898  0.628856 0.465451 1 64 1.000000
0  -3.273166 -17.022194 -4.266588  0.784996 -0.604635 -0.134898  0.628868 0.465469 1 64 1.000000
0  -3.011603 -16.699081 -4.192747  0.784996 -0.604635 -0.134898  0.628852 0.465465 1 64 1.000000
lowpoly_plastic
0  -4.073176 -16.768650 -3.880921  -0.777544 -0.616927 -0.121762  0.629186 0.465128 1 64 1.000000
0  -3.811613 -17.022194 -4.266588  -0.777544 -0.616927 -0.121762  0.629174 0.465146 1 64 1.000000
0  -3.811613 -17.090252 -3.921756  -0.777544 -0.616927 -0.121762  0.629170 0.465130 1 64 1.000000
lowpoly_plastic
0  -4.073177 -14.771362 -4.848603  -1.000000 -0.000001 0.000001  0.628893 0.457810 1 64 1.000000
0  -4.073177 -15.823875 -5.565224  -1.000000 -0.000001 0.000001  0.628843 0.457844 1 64 1.000000
0  -4.073176 -16.187874 -5.082046  -1.000000 -0.000001 0.000001  0.628826 0.457821 1 64 1.000000
lowpoly_plastic
0  -3.011603 -15.823875 -5.565224  0.778462 -0.625127 -0.056693  0.628811 0.465531 1 64 1.000000
0  -3.273167 -16.097185 -6.143120  0.778462 -0.625127 -0.056693  0.628824 0.465558 1 64 1.000000
0  -3.011604 -15.774426 -6.110465  0.778462 -0.625127 -0.056693  0.628808 0.465557 1 64 1.000000
lowpoly_plastic
0  -3.011603 -17.510406 -3.261537  0.594719 -0.369658 -0.713906  0.628891 0.465421 1 64 1.000000
0  -3.273166 -17.335262 -3.570119  0.594719 -0.369658 -0.713906  0.628883 0.465436 1 64 1.000000
0  -3.011603 -17.053520 -3.498110  0.594719 -0.369658 -0.713906  0.628869 0.465432 1 64 1.000000
lowpoly_plastic
0  -4.073176 -16.399448 -4.456379  -0.768728 -0.536668 -0.347915  0.629203 0.465155 1 64 1.000000
0  -3.811613 -16.541243 -4.815595  -0.768728 -0.536668 -0.347915  0.629197 0.465172 1 64 1.000000
0  -3.811613 -16.754494 -4.486644  -0.768728 -0.536668 -0.347915  0.629186 0.465156 1 64 1.000000
lowpoly_plastic
0  -3.011603 -16.699081 -4.192747  0.701208 -0.470955 -0.535265  0.628852 0.465465 1 64 1.000000
0  -3.273167 -16.754494 -4.486644  0.701208 -0.470955 -0.535265  0.628855 0.465479 1 64 1.000000
0  -3.011603 -16.399448 -4.456379  0.701208 -0.470955 -0.535265  0.628838 0.465478 1 64 1.000000
lowpoly_plastic
0  -3.011603 -16.399448 -4.456379  0.755230 -0.569046 -0.325293  0.628838 0.465478 1 64 1.000000
0  -3.273167 -16.541243 -4.815595  0.755230 -0.569046 -0.325293  0.628845 0.465495 1 64 1.000000
0  -3.011603 -16.226469 -4.758973  0.755230 -0.569046 -0.325293  0.628830 0.465492 1 64 1.000000
lowpoly_plastic
0  -3.542389 -17.749378 -1.856557  0.000000 -0.884819 0.465935  0.629045 0.472069 1 64 1.000000
0  -3.811612 -17.987865 -2.309448  0.000000 -0.884819 0.465935  0.629058 0.472086 1 64 1.000000
0  -3.542389 -17.987865 -2.309448  0.000000 -0.884819 0.465935  0.629045 0.472086 1 64 1.000000
lowpoly_plastic
0  -3.936702 -14.996668 -1.856557  -0.737340 -0.000000 0.675521  0.629658 0.465806 1 64 1.000000
0  -4.073176 -14.526269 -2.005520  -0.737340 -0.000000 0.675521  0.629680 0.465813 1 64 1.000000
0  -4.073176 -15.162483 -2.005520  -0.737340 -0.000000 0.675521  0.629650 0.465813 1 64 1.000000
lowpoly_plastic
0  -3.936702 -15.485853 -1.856557  -0.737338 0.000000 0.675524  0.629634 0.465806 1 64 1.000000
0  -4.073176 -15.162483 -2.005520  -0.737338 0.000000 0.675524  0.629650 0.465813 1 64 1.000000
0  -4.073176 -15.485853 -2.005520  -0.737338 0.000000 0.675524  0.629634 0.465813 1 64 1.000000
lowpoly_plastic
0  -3.148078 -14.426949 -1.856557  0.737338 0.000000 0.675524  0.629131 0.466129 1 64 1.000000
0  -3.011603 -13.938261 -2.005520  0.737338 0.000000 0.675524  0.629108 0.466136 1 64 1.000000
0  -3.148078 -13.938261 -1.856557  0.737338 0.000000 0.675524  0.629108 0.466129 1 64 1.000000
lowpoly_plastic
0  -3.148077 -15.485853 -1.856557  0.737338 0.000000 0.675524  0.629182 0.466129 1 64 1.000000
0  -3.011603 -17.583138 -2.005521  0.737338 0.000000 0.675524  0.629282 0.466136 1 64 1.000000
0  -3.011603 -15.485853 -2.005521  0.737338 0.000000 0.675524  0.629182 0.466136 1 64 1.000000
lowpoly_plastic
0  -3.812598 -14.872795 -2.435806  -0.647812 -0.150807 -0.746724  0.629276 0.465059 1 64 1.000000
0  -4.073176 -13.938261 -2.398481  -0.647812 -0.150807 -0.746724  0.629321 0.465057 1 64 1.000000
0  -3.812598 -13.938261 -2.624543  -0.647812 -0.150807 -0.746724  0.629321 0.465068 1 64 1.000000
lowpoly_plastic
0  -3.542390 -13.938261 -1.856557  0.000000 0.000000 1.000000  0.629298 0.482279 1 64 1.000000
0  -3.936702 -14.426949 -1.856557  0.000000 0.000000 1.000000  0.629317 0.482302 1 64 1.000000
0  -3.542390 -14.426949 -1.856557  0.000000 0.000000 1.000000  0.629298 0.482302 1 64 1.000000
lowpoly_plastic
0  -3.011603 -14.699268 -2.175546  1.000000 0.000000 0.000000  0.628369 0.458006 1 64 1.000000
0  -3.011603 -15.162483 -2.005521  1.000000 0.000000 0.000000  0.628392 0.457998 1 64 1.000000
0  -3.011603 -15.505404 -2.293134  1.000000 0.000000 0.000000  0.628408 0.458011 1 64 1.000000
lowpoly_plastic
0  -3.011603 -13.938261 -2.398481  1.000000 0.000001 -0.000000  0.628333 0.458016 1 64 1.000000
0  -3.011603 -14.526269 -2.005520  1.000000 0.000001 -0.000000  0.628361 0.457998 1 64 1.000000
0  -3.011603 -14.699268 -2.175546  1.000000 0.000001 -0.000000  0.628369 0.458006 1 64 1.000000
lowpoly_plastic
0  -4.073176 -17.682623 -2.385594  -0.734692 -0.664112 -0.138503  0.629142 0.465056 1 64 1.000000
0  -3.811613 -17.859316 -2.925829  -0.734692 -0.664112 -0.138503  0.629134 0.465082 1 64 1.000000
0  -3.811612 -17.987865 -2.309448  -0.734692 -0.664112 -0.138503  0.629128 0.465053 1 64 1.000000
lowpoly_plastic
0  -3.542390 -14.426949 -1.856557  0.000000 0.000000 1.000000  0.629298 0.482302 1 64 1.000000
0  -3.936702 -14.996668 -1.856557  0.000000 0.000000 1.000000  0.629317 0.482329 1 64 1.000000
0  -3.542390 -14.996668 -1.856557  0.000000 0.000000 1.000000  0.629298 0.482329 1 64 1.000000
lowpoly_plastic
0  -3.272182 -15.312269 -2.510670  0.000000 0.806065 -0.591828  0.627647 0.473528 1 64 1.000000
0  -3.542390 -15.587940 -2.886128  0.000000 0.806065 -0.591828  0.627634 0.473550 1 64 1.000000
0  -3.542390 -15.312269 -2.510670  0.000000 0.806065 -0.591828  0.627634 0.473528 1 64 1.000000
lowpoly_plastic
0  -3.542390 -16.541243 -4.815595  -0.000002 -0.839104 -0.543972  0.629045 0.472221 1 64 1.000000
0  -3.273167 -16.754494 -4.486644  -0.000002 -0.839104 -0.543972  0.629032 0.472203 1 64 1.000000
0  -3.542390 -16.754494 -4.486644  -0.000002 -0.839104 -0.543972  0.629045 0.472203 1 64 1.000000
lowpoly_plastic
0  -3.011603 -16.768650 -3.880921  1.000000 0.000000 0.000000  0.628468 0.458087 1 64 1.000000
0  -3.011603 -16.699081 -4.192747  1.000000 0.000000 0.000000  0.628465 0.458102 1 64 1.000000
0  -3.011603 -14.960019 -4.335845  1.000000 0.000000 0.000000  0.628382 0.458109 1 64 1.000000
lowpoly_plastic
0  -3.011603 -15.505404 -2.293134  1.000000 0.000000 0.000000  0.628408 0.458011 1 64 1.000000
0  -3.011603 -15.485853 -2.005521  1.000000 0.000000 0.000000  0.628407 0.457998 1 64 1.000000
0  -3.011603 -15.904916 -2.837260  1.000000 0.000000 0.000000  0.628427 0.458037 1 64 1.000000
lowpoly_plastic
0  -3.273166 -17.987865 -2.309448  0.768922 -0.618505 0.161896  0.628914 0.465376 1 64 1.000000
0  -3.011603 -17.682623 -2.385594  0.768922 -0.618505 0.161896  0.628899 0.465379 1 64 1.000000
0  -3.011603 -17.583138 -2.005521  0.768922 -0.618505 0.161896  0.628894 0.465361 1 64 1.000000
lowpoly_plastic
0  -3.148077 -14.996668 -1.856557  0.000000 0.000000 1.000000  0.629279 0.482329 1 64 1.000000
0  -3.542390 -14.426949 -1.856557  0.000000 0.000000 1.000000  0.629298 0.482302 1 64 1.000000
0  -3.542390 -14.996668 -1.856557  0.000000 0.000000 1.000000  0.629298 0.482329 1 64 1.000000
lowpoly_plastic
0  -3.542390 -14.996668 -1.856557  0.000000 0.000000 1.000000  0.629298 0.482329 1 64 1.000000
0  -3.936702 -15.485853 -1.856557  0.000000 0.000000 1.000000  0.629317 0.482353 1 64 1.000000
0  -3.542390 -15.485852 -1.856557  0.000000 0.000000 1.000000  0.629298 0.482353 1 64 1.000000
lowpoly_plastic
0  -3.811613 -17.859316 -2.925829  0.000000 -0.998752 -0.049938  0.629058 0.472116 1 64 1.000000
0  -3.542389 -17.838898 -3.334182  0.000000 -0.998752 -0.049938  0.629045 0.472134 1 64 1.000000
0  -3.542389 -17.859316 -2.925829  0.000000 -0.998752 -0.049938  0.629045 0.472116 1 64 1.000000
lowpoly_plastic
0  -4.073176 -15.485853 -2.005520  -1.000000 -0.000000 0.000000  0.628859 0.457675 1 64 1.000000
0  -4.073176 -17.682623 -2.385594  -1.000000 -0.000000 0.000000  0.628755 0.457693 1 64 1.000000
0  -4.073176 -17.583138 -2.005520  -1.000000 -0.000000 0.000000  0.628759 0.457675 1 64 1.000000
lowpoly_plastic
0  -4.073176 -15.904917 -2.837260  -1.000000 0.000000 0.000001  0.628839 0.457714 1 64 1.000000
0  -4.073176 -17.510406 -3.261537  -1.000000 0.000000 0.000001  0.628763 0.457735 1 64 1.000000
0  -4.073176 -17.525459 -2.910699  -1.000000 0.000000 0.000001  0.628762 0.457718 1 64 1.000000
lowpoly_plastic
0  -3.011603 -15.904916 -2.837260  1.000000 0.000000 0.000000  0.628427 0.458037 1 64 1.000000
0  -3.011603 -17.682623 -2.385594  1.000000 0.000000 0.000000  0.628512 0.458016 1 64 1.000000
0  -3.011603 -17.525459 -2.910699  1.000000 0.000000 0.000000  0.628504 0.458041 1 64 1.000000
lowpoly_plastic
0  -3.812598 -14.872795 -2.435806  -0.665741 0.107703 -0.738369  0.629276 0.465059 1 64 1.000000
0  -4.073176 -15.505404 -2.293134  -0.665741 0.107703 -0.738369  0.629246 0.465052 1 64 1.000000
0  -4.073176 -14.699268 -2.175546  -0.665741 0.107703 -0.738369  0.629284 0.465046 1 64 1.000000
lowpoly_plastic
0  -3.011603 -16.699081 -4.192747  1.000000 0.000000 0.000000  0.628465 0.458102 1 64 1.000000
0  -3.011603 -16.399448 -4.456379  1.000000 0.000000 0.000000  0.628450 0.458115 1 64 1.000000
0  -3.011603 -14.960019 -4.335845  1.000000 0.000000 0.000000  0.628382 0.458109 1 64 1.000000
lowpoly_plastic
0  -3.542390 -14.601252 -5.550156  0.000000 0.589858 -0.807507  0.628609 0.472307 1 64 1.000000
0  -3.812598 -15.303013 -6.062769  0.000000 0.589858 -0.807507  0.628596 0.472346 1 64 1.000000
0  -3.812598 -14.601252 -5.550156  0.000000 0.589858 -0.807507  0.628596 0.472307 1 64 1.000000
lowpoly_plastic
0  -3.542390 -14.872795 -2.435806  0.000000 0.167931 -0.985799  0.627634 0.473513 1 64 1.000000
0  -3.272182 -15.312269 -2.510670  0.000000 0.167931 -0.985799  0.627647 0.473528 1 64 1.000000
0  -3.542390 -15.312269 -2.510670  0.000000 0.167931 -0.985799  0.627634 0.473528 1 64 1.000000
lowpoly_plastic
0  -3.542390 -16.484528 -5.130935  0.000000 -0.984208 -0.177017  0.629045 0.472236 1 64 1.000000
0  -3.273167 -16.541243 -4.815595  0.000000 -0.984208 -0.177017  0.629032 0.472221 1 64 1.000000
0  -3.542390 -16.541243 -4.815595  0.000000 -0.984208 -0.177017  0.629045 0.472221 1 64 1.000000
lowpoly_plastic
0  -3.011604 -15.703908 -6.103330  0.000000 0.100664 -0.994920  0.629409 0.464995 1 64 1.000000
0  -3.011604 -15.774426 -6.110465  0.000000 0.100664 -0.994920  0.629409 0.464997 1 64 1.000000
0  -3.273167 -16.097185 -6.143120  0.000000 0.100664 -0.994920  0.629396 0.465007 1 64 1.000000
lowpoly_plastic
0  -3.272182 -15.303013 -6.062769  0.000000 0.589857 -0.807507  0.628621 0.472346 1 64 1.000000
0  -3.542390 -14.601252 -5.550156  0.000000 0.589857 -0.807507  0.628609 0.472307 1 64 1.000000
0  -3.272182 -14.601252 -5.550156  0.000000 0.589857 -0.807507  0.628621 0.472307 1 64 1.000000
lowpoly_plastic
0  -3.812598 -15.445017 -3.306958  0.000000 0.769191 0.639019  0.627891 0.473586 1 64 1.000000
0  -3.542390 -14.709982 -4.191723  0.000000 0.769191 0.639019  0.627878 0.473551 1 64 1.000000
0  -3.812598 -14.709982 -4.191723  0.000000 0.769191 0.639019  0.627891 0.473551 1 64 1.000000
lowpoly_plastic
0  -4.073177 -14.771362 -4.848603  -0.788852 0.596399 -0.148391  0.629281 0.465174 1 64 1.000000
0  -3.812598 -14.601252 -5.550156  -0.788852 0.596399 -0.148391  0.629289 0.465207 1 64 1.000000
0  -4.073177 -14.946979 -5.554417  -0.788852 0.596399 -0.148391  0.629273 0.465207 1 64 1.000000
lowpoly_plastic
0  -3.011603 -17.510406 -3.261537  1.000000 0.000000 0.000000  0.628503 0.458058 1 64 1.000000
0  -3.011603 -17.053520 -3.498110  1.000000 0.000000 0.000000  0.628482 0.458069 1 64 1.000000
0  -3.011603 -15.697412 -3.448242  1.000000 0.000000 0.000000  0.628417 0.458066 1 64 1.000000
lowpoly_plastic
0  -3.811613 -16.754494 -4.486644  0.000002 -0.839105 -0.543970  0.629058 0.472203 1 64 1.000000
0  -3.542390 -16.541243 -4.815595  0.000002 -0.839105 -0.543970  0.629045 0.472221 1 64 1.000000
0  -3.542390 -16.754494 -4.486644  0.000002 -0.839105 -0.543970  0.629045 0.472203 1 64 1.000000
lowpoly_plastic
0  -3.542390 -14.872795 -2.435806  0.000000 -0.197961 -0.980210  0.629211 0.472774 1 64 1.000000
0  -3.812598 -13.938261 -2.624543  0.000000 -0.197961 -0.980210  0.629234 0.472762 1 64 1.000000
0  -3.542390 -13.938261 -2.624543  0.000000 -0.197961 -0.980210  0.629234 0.472774 1 64 1.000000
lowpoly_plastic
0  -3.811613 -16.484528 -5.130934  0.000000 -0.795700 -0.605691  0.629058 0.472236 1 64 1.000000
0  -3.542390 -16.150875 -5.569253  0.000000 -0.795700 -0.605691  0.629045 0.472261 1 64 1.000000
0  -3.542390 -16.484528 -5.130935  0.000000 -0.795700 -0.605691  0.629045 0.472236 1 64 1.000000
lowpoly_plastic
0  -3.542390 -16.097185 -6.143120  0.000000 -0.995652 -0.093147  0.629045 0.472288 1 64 1.000000
0  -3.273167 -16.150875 -5.569253  0.000000 -0.995652 -0.093147  0.629032 0.472261 1 64 1.000000
0  -3.542390 -16.150875 -5.569253  0.000000 -0.995652 -0.093147  0.629045 0.472261 1 64 1.000000
lowpoly_plastic
0  -3.011603 -16.226469 -4.758973  1.000000 0.000000 -0.000001  0.628442 0.458129 1 64 1.000000
0  -3.011603 -14.960019 -4.335845  1.000000 0.000000 -0.000001  0.628382 0.458109 1 64 1.000000
0  -3.011603 -16.399448 -4.456379  1.000000 0.000000 -0.000001  0.628450 0.458115 1 64 1.000000
lowpoly_plastic
0  -3.811613 -17.022194 -4.266588  0.000000 -0.635017 -0.772498  0.629058 0.472189 1 64 1.000000
0  -3.542390 -16.754494 -4.486644  0.000000 -0.635017 -0.772498  0.629045 0.472203 1 64 1.000000
0  -3.542390 -17.022194 -4.266588  0.000000 -0.635017 -0.772498  0.629045 0.472189 1 64 1.000000
lowpoly_plastic
0  -3.811613 -16.541243 -4.815595  0.000000 -0.984208 -0.177017  0.629058 0.472221 1 64 1.000000
0  -3.542390 -16.484528 -5.130935  0.000000 -0.984208 -0.177017  0.629045 0.472236 1 64 1.000000
0  -3.542390 -16.541243 -4.815595  0.000000 -0.984208 -0.177017  0.629045 0.472221 1 64 1.000000
lowpoly_plastic
0  -3.011603 -16.768650 -3.880921  1.000000 0.000000 -0.000000  0.628468 0.458087 1 64 1.000000
0  -3.011603 -15.697412 -3.448242  1.000000 0.000000 -0.000000  0.628417 0.458066 1 64 1.000000
0  -3.011603 -17.053520 -3.498110  1.000000 0.000000 -0.000000  0.628482 0.458069 1 64 1.000000
lowpoly_plastic
0  -3.011603 -15.823875 -5.565224  1.000000 0.000001 -0.000000  0.628423 0.458167 1 64 1.000000
0  -3.011604 -15.703908 -6.103330  1.000000 0.000001 -0.000000  0.628417 0.458193 1 64 1.000000
0  -3.011604 -14.946979 -5.554417  1.000000 0.000001 -0.000000  0.628381 0.458167 1 64 1.000000
lowpoly_plastic
0  -3.542390 -17.022194 -4.266588  0.000000 -0.981076 -0.193623  0.629045 0.472189 1 64 1.000000
0  -3.273166 -17.090252 -3.921756  0.000000 -0.981076 -0.193623  0.629032 0.472172 1 64 1.000000
0  -3.542390 -17.090252 -3.921756  0.000000 -0.981076 -0.193623  0.629045 0.472172 1 64 1.000000
lowpoly_plastic
0  -3.272182 -14.709982 -4.191723  0.000000 0.938494 0.345297  0.628621 0.472256 1 64 1.000000
0  -3.542390 -14.444552 -4.913146  0.000000 0.938494 0.345297  0.628609 0.472277 1 64 1.000000
0  -3.542390 -14.709982 -4.191723  0.000000 0.938494 0.345297  0.628609 0.472256 1 64 1.000000
lowpoly_plastic
0  -3.812598 -15.587940 -2.886128  -0.737338 0.544512 -0.399799  0.629242 0.465080 1 64 1.000000
0  -4.073176 -15.505404 -2.293134  -0.737338 0.544512 -0.399799  0.629246 0.465052 1 64 1.000000
0  -3.812598 -15.312269 -2.510670  -0.737338 0.544512 -0.399799  0.629255 0.465062 1 64 1.000000
lowpoly_plastic
0  -3.011603 -15.904916 -2.837260  1.000000 -0.000000 -0.000001  0.628427 0.458037 1 64 1.000000
0  -3.011603 -17.583138 -2.005521  1.000000 -0.000000 -0.000001  0.628507 0.457998 1 64 1.000000
0  -3.011603 -17.682623 -2.385594  1.000000 -0.000000 -0.000001  0.628512 0.458016 1 64 1.000000
lowpoly_plastic
0  -4.073176 -16.699081 -4.192746  -0.708002 -0.448457 -0.545546  0.629189 0.465142 1 64 1.000000
0  -3.811613 -16.754494 -4.486644  -0.708002 -0.448457 -0.545546  0.629186 0.465156 1 64 1.000000
0  -3.811613 -17.022194 -4.266588  -0.708002 -0.448457 -0.545546  0.629174 0.465146 1 64 1.000000
lowpoly_plastic
0  -3.011603 -15.505404 -2.293134  0.737338 0.544514 -0.399795  0.628795 0.465375 1 64 1.000000
0  -3.272182 -15.587940 -2.886128  0.737338 0.544514 -0.399795  0.628799 0.465403 1 64 1.000000
0  -3.272182 -15.312269 -2.510670  0.737338 0.544514 -0.399795  0.628786 0.465385 1 64 1.000000
lowpoly_plastic
0  -3.272182 -15.303013 -6.062769  0.613646 0.463537 -0.639197  0.629396 0.464982 1 64 1.000000
0  -3.011604 -14.946979 -5.554417  0.613646 0.463537 -0.639197  0.629409 0.464953 1 64 1.000000
0  -3.011604 -15.703908 -6.103330  0.613646 0.463537 -0.639197  0.629409 0.464995 1 64 1.000000
lowpoly_plastic
0  -4.073177 -14.771362 -4.848603  -0.737336 0.633978 0.233254  0.629281 0.465174 1 64 1.000000
0  -3.812598 -14.709982 -4.191723  -0.737336 0.633978 0.233254  0.629284 0.465142 1 64 1.000000
0  -3.812598 -14.444552 -4.913146  -0.737336 0.633978 0.233254  0.629296 0.465177 1 64 1.000000
lowpoly_plastic
0  -3.542389 -17.749378 -1.856557  -0.000001 0.000000 1.000000  0.629298 0.482461 1 64 1.000000
0  -3.936702 -15.485853 -1.856557  -0.000001 0.000000 1.000000  0.629317 0.482353 1 64 1.000000
0  -3.936701 -17.576557 -1.856557  -0.000001 0.000000 1.000000  0.629317 0.482452 1 64 1.000000
lowpoly_plastic
0  -4.073176 -14.960019 -4.335845  -0.737338 0.519605 0.431674  0.629272 0.465149 1 64 1.000000
0  -3.812598 -15.445017 -3.306958  -0.737338 0.519605 0.431674  0.629249 0.465100 1 64 1.000000
0  -3.812598 -14.709982 -4.191723  -0.737338 0.519605 0.431674  0.629284 0.465142 1 64 1.000000
lowpoly_plastic
0  -3.272182 -15.445017 -3.306958  0.000000 0.946881 0.321583  0.627647 0.473563 1 64 1.000000
0  -3.542390 -15.587940 -2.886128  0.000000 0.946881 0.321583  0.627634 0.473550 1 64 1.000000
0  -3.272182 -15.587940 -2.886128  0.000000 0.946881 0.321583  0.627647 0.473550 1 64 1.000000
lowpoly_plastic
0  -3.011603 -17.510406 -3.261537  1.000000 0.000000 0.000000  0.628503 0.458058 1 64 1.000000
0  -3.011603 -15.904916 -2.837260  1.000000 0.000000 0.000000  0.628427 0.458037 1 64 1.000000
0  -3.011603 -17.525459 -2.910699  1.000000 0.000000 0.000000  0.628504 0.458041 1 64 1.000000
lowpoly_plastic
0  -4.073176 -17.510406 -3.261537  -0.787486 -0.615767 -0.026416  0.629150 0.465098 1 64 1.000000
0  -3.811613 -17.859316 -2.925829  -0.787486 -0.615767 -0.026416  0.629134 0.465082 1 64 1.000000
0  -4.073176 -17.525459 -2.910699  -0.787486 -0.615767 -0.026416  0.629150 0.465081 1 64 1.000000
lowpoly_plastic
0  -3.273166 -17.859316 -2.925829  0.787486 -0.615766 -0.026416  0.628908 0.465405 1 64 1.000000
0  -3.011603 -17.510406 -3.261537  0.787486 -0.615766 -0.026416  0.628891 0.465421 1 64 1.000000
0  -3.011603 -17.525459 -2.910699  0.787486 -0.615766 -0.026416  0.628892 0.465404 1 64 1.000000
lowpoly_plastic
0  -4.073176 -16.187874 -5.082046  -0.773548 -0.629264 -0.075170  0.629213 0.465185 1 64 1.000000
0  -3.811613 -16.541243 -4.815595  -0.773548 -0.629264 -0.075170  0.629197 0.465172 1 64 1.000000
0  -4.073176 -16.226469 -4.758973  -0.773548 -0.629264 -0.075170  0.629212 0.465169 1 64 1.000000
lowpoly_plastic
0  -3.811613 -16.150875 -5.569253  -0.709851 -0.562578 -0.423812  0.629215 0.465208 1 64 1.000000
0  -4.073176 -16.187874 -5.082046  -0.709851 -0.562578 -0.423812  0.629213 0.465185 1 64 1.000000
0  -4.073177 -15.823875 -5.565224  -0.709851 -0.562578 -0.423812  0.629231 0.465208 1 64 1.000000
lowpoly_plastic
0  -3.273167 -16.541243 -4.815595  0.773548 -0.629264 -0.075170  0.628845 0.465495 1 64 1.000000
0  -3.011603 -16.187874 -5.082046  0.773548 -0.629264 -0.075170  0.628828 0.465508 1 64 1.000000
0  -3.011603 -16.226469 -4.758973  0.773548 -0.629264 -0.075170  0.628830 0.465492 1 64 1.000000
lowpoly_plastic
0  -3.811613 -17.749378 -1.856557  -0.642445 -0.465003 0.609127  0.629139 0.465031 1 64 1.000000
0  -3.936701 -17.576557 -1.856557  -0.642445 -0.465003 0.609127  0.629147 0.465031 1 64 1.000000
0  -4.073176 -17.583138 -2.005520  -0.642445 -0.465003 0.609127  0.629147 0.465038 1 64 1.000000
lowpoly_plastic
0  -4.073176 -17.053520 -3.498109  -0.721218 -0.568349 -0.396010  0.629172 0.465109 1 64 1.000000
0  -3.811613 -17.090252 -3.921756  -0.721218 -0.568349 -0.396010  0.629170 0.465130 1 64 1.000000
0  -3.811613 -17.335262 -3.570119  -0.721218 -0.568349 -0.396010  0.629159 0.465113 1 64 1.000000
lowpoly_plastic
0  -4.073176 -17.510406 -3.261537  -0.617120 -0.333810 -0.712555  0.629150 0.465098 1 64 1.000000
0  -3.811613 -17.335262 -3.570119  -0.617120 -0.333810 -0.712555  0.629159 0.465113 1 64 1.000000
0  -3.811613 -17.838898 -3.334182  -0.617120 -0.333810 -0.712555  0.629135 0.465102 1 64 1.000000
lowpoly_plastic
0  -3.273167 -16.150875 -5.569253  0.712577 -0.558257 -0.424952  0.628826 0.465531 1 64 1.000000
0  -3.011603 -16.187874 -5.082046  0.712577 -0.558257 -0.424952  0.628828 0.465508 1 64 1.000000
0  -3.273167 -16.484528 -5.130935  0.712577 -0.558257 -0.424952  0.628842 0.465510 1 64 1.000000
lowpoly_plastic
0  -3.542390 -13.938261 -2.624543  0.000000 -0.197962 -0.980210  0.629234 0.472774 1 64 1.000000
0  -3.272182 -14.872795 -2.435806  0.000000 -0.197962 -0.980210  0.629211 0.472787 1 64 1.000000
0  -3.542390 -14.872795 -2.435806  0.000000 -0.197962 -0.980210  0.629211 0.472774 1 64 1.000000
lowpoly_plastic
0  -3.148077 -14.996668 -1.856557  0.737336 0.000000 0.675526  0.629159 0.466129 1 64 1.000000
0  -3.011603 -14.526269 -2.005520  0.737336 0.000000 0.675526  0.629136 0.466136 1 64 1.000000
0  -3.148078 -14.426949 -1.856557  0.737336 0.000000 0.675526  0.629131 0.466129 1 64 1.000000
lowpoly_plastic
0  -3.148077 -15.485853 -1.856557  0.737338 0.000000 0.675524  0.629182 0.466129 1 64 1.000000
0  -3.011603 -15.162483 -2.005521  0.737338 0.000000 0.675524  0.629167 0.466136 1 64 1.000000
0  -3.148077 -14.996668 -1.856557  0.737338 0.000000 0.675524  0.629159 0.466129 1 64 1.000000
lowpoly_plastic
0  -3.011603 -14.771362 -4.848603  0.737337 0.633975 0.233258  0.628760 0.465497 1 64 1.000000
0  -3.272182 -14.709982 -4.191723  0.737337 0.633975 0.233258  0.628757 0.465465 1 64 1.000000
0  -3.011603 -14.960019 -4.335845  0.737337 0.633975 0.233258  0.628769 0.465472 1 64 1.000000
lowpoly_plastic
0  -4.073177 -15.823875 -5.565224  -0.779932 -0.623142 -0.058302  0.629231 0.465208 1 64 1.000000
0  -3.811613 -16.097185 -6.143120  -0.779932 -0.623142 -0.058302  0.629218 0.465235 1 64 1.000000
0  -3.811613 -16.150875 -5.569253  -0.779932 -0.623142 -0.058302  0.629215 0.465208 1 64 1.000000
lowpoly_plastic
0  -3.011603 -13.938261 -2.398481  0.000000 1.000000 0.000000  0.628620 0.483557 1 64 1.000000
0  -3.542390 -13.938261 -1.856557  0.000000 1.000000 0.000000  0.628598 0.483583 1 64 1.000000
0  -3.011603 -13.938261 -2.005520  0.000000 1.000000 0.000000  0.628604 0.483557 1 64 1.000000
lowpoly_plastic
0  -4.073176 -15.162483 -2.005520  -1.000000 0.000000 0.000000  0.628875 0.457675 1 64 1.000000
0  -4.073176 -14.526269 -2.005520  -1.000000 0.000000 0.000000  0.628905 0.457675 1 64 1.000000
0  -4.073176 -14.699268 -2.175546  -1.000000 0.000000 0.000000  0.628897 0.457683 1 64 1.000000
lowpoly_plastic
0  -4.073176 -14.526269 -2.005520  -1.000000 0.000000 0.000000  0.628905 0.457675 1 64 1.000000
0  -4.073176 -13.938261 -2.005520  -1.000000 0.000000 0.000000  0.628933 0.457675 1 64 1.000000
0  -4.073176 -13.938261 -2.398481  -1.000000 0.000000 0.000000  0.628933 0.457693 1 64 1.000000
lowpoly_plastic
0  -3.811613 -17.749378 -1.856557  0.000000 0.000000 1.000000  0.629311 0.482461 1 64 1.000000
0  -3.542389 -17.749378 -1.856557  0.000000 0.000000 1.000000  0.629298 0.482461 1 64 1.000000
0  -3.936701 -17.576557 -1.856557  0.000000 0.000000 1.000000  0.629317 0.482452 1 64 1.000000
lowpoly_plastic
0  -4.073176 -15.485853 -2.005520  -1.000000 0.000000 0.000000  0.628859 0.457675 1 64 1.000000
0  -4.073176 -15.162483 -2.005520  -1.000000 0.000000 0.000000  0.628875 0.457675 1 64 1.000000
0  -4.073176 -15.505404 -2.293134  -1.000000 0.000000 0.000000  0.628858 0.457688 1 64 1.000000
lowpoly_plastic
0  -3.811612 -17.987865 -2.309448  -0.637627 -0.681617 0.358928  0.629128 0.465053 1 64 1.000000
0  -3.811613 -17.749378 -1.856557  -0.637627 -0.681617 0.358928  0.629139 0.465031 1 64 1.000000
0  -4.073176 -17.583138 -2.005520  -0.637627 -0.681617 0.358928  0.629147 0.465038 1 64 1.000000
lowpoly_plastic
0  -3.011603 -17.583138 -2.005521  0.642445 -0.465005 0.609126  0.628894 0.465361 1 64 1.000000
0  -3.148077 -17.576557 -1.856557  0.642445 -0.465005 0.609126  0.628894 0.465354 1 64 1.000000
0  -3.273166 -17.749378 -1.856557  0.642445 -0.465005 0.609126  0.628902 0.465354 1 64 1.000000
lowpoly_plastic
0  -3.542390 -15.303013 -6.062769  0.000000 0.100662 -0.994921  0.628609 0.472346 1 64 1.000000
0  -3.273167 -16.097185 -6.143120  0.000000 0.100662 -0.994921  0.628621 0.472370 1 64 1.000000
0  -3.542390 -16.097185 -6.143120  0.000000 0.100662 -0.994921  0.628609 0.472370 1 64 1.000000
lowpoly_plastic
0  -3.811613 -16.097185 -6.143120  0.000003 0.100664 -0.994920  0.629371 0.465007 1 64 1.000000
0  -4.073177 -15.774426 -6.110465  0.000003 0.100664 -0.994920  0.629358 0.464997 1 64 1.000000
0  -4.073177 -15.703908 -6.103330  0.000003 0.100664 -0.994920  0.629358 0.464995 1 64 1.000000
lowpoly_plastic
0  -4.073176 -15.697412 -3.448241  -1.000000 0.000000 0.000000  0.628849 0.457744 1 64 1.000000
0  -4.073176 -14.960019 -4.335845  -1.000000 0.000000 0.000000  0.628884 0.457786 1 64 1.000000
0  -4.073176 -16.768650 -3.880921  -1.000000 0.000000 0.000000  0.628798 0.457764 1 64 1.000000
lowpoly_plastic
0  -4.073177 -15.823875 -5.565224  -1.000000 0.000000 0.000000  0.628843 0.457844 1 64 1.000000
0  -4.073177 -14.946979 -5.554417  -1.000000 0.000000 0.000000  0.628885 0.457844 1 64 1.000000
0  -4.073177 -15.703908 -6.103330  -1.000000 0.000000 0.000000  0.628849 0.457870 1 64 1.000000
lowpoly_plastic
0  -4.073177 -14.946979 -5.554417  -0.609793 0.467496 -0.640000  0.629358 0.464953 1 64 1.000000
0  -3.812598 -14.601252 -5.550156  -0.609793 0.467496 -0.640000  0.629371 0.464943 1 64 1.000000
0  -3.812598 -15.303013 -6.062769  -0.609793 0.467496 -0.640000  0.629371 0.464982 1 64 1.000000
lowpoly_plastic
0  -3.936702 -14.996668 -1.856557  -0.737336 0.000000 0.675526  0.629658 0.465806 1 64 1.000000
0  -3.936702 -14.426949 -1.856557  -0.737336 0.000000 0.675526  0.629685 0.465806 1 64 1.000000
0  -4.073176 -14.526269 -2.005520  -0.737336 0.000000 0.675526  0.629680 0.465813 1 64 1.000000
lowpoly_plastic
0  -3.936702 -15.485853 -1.856557  -0.737338 0.000000 0.675524  0.629634 0.465806 1 64 1.000000
0  -3.936702 -14.996668 -1.856557  -0.737338 0.000000 0.675524  0.629658 0.465806 1 64 1.000000
0  -4.073176 -15.162483 -2.005520  -0.737338 0.000000 0.675524  0.629650 0.465813 1 64 1.000000
lowpoly_plastic
0  -3.542390 -13.938261 -2.624543  0.000000 1.000000 0.000000  0.628629 0.483583 1 64 1.000000
0  -3.812598 -13.938261 -2.624543  0.000000 1.000000 0.000000  0.628629 0.483595 1 64 1.000000
0  -4.073176 -13.938261 -2.398481  0.000000 1.000000 0.000000  0.628620 0.483608 1 64 1.000000
lowpoly_plastic
0  -4.073176 -13.938261 -2.398481  0.000000 1.000000 0.000000  0.628620 0.483608 1 64 1.000000
0  -4.073176 -13.938261 -2.005520  0.000000 1.000000 0.000000  0.628604 0.483608 1 64 1.000000
0  -3.542390 -13.938261 -1.856557  0.000000 1.000000 0.000000  0.628598 0.483583 1 64 1.000000
lowpoly_plastic
0  -4.073176 -13.938261 -2.005520  0.000000 1.000000 0.000000  0.628604 0.483608 1 64 1.000000
0  -3.936702 -13.938261 -1.856557  0.000000 1.000000 0.000000  0.628598 0.483601 1 64 1.000000
0  -3.542390 -13.938261 -1.856557  0.000000 1.000000 0.000000  0.628598 0.483583 1 64 1.000000
lowpoly_plastic
0  -3.011603 -14.699268 -2.175546  1.000000 -0.000000 0.000000  0.628369 0.458006 1 64 1.000000
0  -3.011603 -14.526269 -2.005520  1.000000 -0.000000 0.000000  0.628361 0.457998 1 64 1.000000
0  -3.011603 -15.162483 -2.005521  1.000000 -0.000000 0.000000  0.628392 0.457998 1 64 1.000000
lowpoly_plastic
0  -3.011603 -13.938261 -2.398481  1.000000 0.000000 0.000000  0.628333 0.458016 1 64 1.000000
0  -3.011603 -13.938261 -2.005520  1.000000 0.000000 0.000000  0.628333 0.457998 1 64 1.000000
0  -3.011603 -14.526269 -2.005520  1.000000 0.000000 0.000000  0.628361 0.457998 1 64 1.000000
lowpoly_plastic
0  -3.542389 -17.749378 -1.856557  0.000000 0.000000 1.000000  0.629298 0.482461 1 64 1.000000
0  -3.273166 -17.749378 -1.856557  0.000000 0.000000 1.000000  0.629285 0.482461 1 64 1.000000
0  -3.148077 -17.576557 -1.856557  0.000000 0.000000 1.000000  0.629279 0.482452 1 64 1.000000
lowpoly_plastic
0  -3.011603 -15.505404 -2.293134  1.000000 0.000000 0.000000  0.628408 0.458011 1 64 1.000000
0  -3.011603 -15.162483 -2.005521  1.000000 0.000000 0.000000  0.628392 0.457998 1 64 1.000000
0  -3.011603 -15.485853 -2.005521  1.000000 0.000000 0.000000  0.628407 0.457998 1 64 1.000000
lowpoly_plastic
0  -3.273166 -17.987865 -2.309448  0.637627 -0.681617 0.358929  0.628914 0.465376 1 64 1.000000
0  -3.011603 -17.583138 -2.005521  0.637627 -0.681617 0.358929  0.628894 0.465361 1 64 1.000000
0  -3.273166 -17.749378 -1.856557  0.637627 -0.681617 0.358929  0.628902 0.465354 1 64 1.000000
lowpoly_plastic
0  -4.073176 -17.583138 -2.005520  -0.737338 0.000000 0.675525  0.629534 0.465813 1 64 1.000000
0  -3.936702 -15.485853 -1.856557  -0.737338 0.000000 0.675525  0.629634 0.465806 1 64 1.000000
0  -4.073176 -15.485853 -2.005520  -0.737338 0.000000 0.675525  0.629634 0.465813 1 64 1.000000
lowpoly_plastic
0  -3.272182 -15.303013 -6.062769  0.000002 0.100662 -0.994921  0.629396 0.464982 1 64 1.000000
0  -3.011604 -15.703908 -6.103330  0.000002 0.100662 -0.994921  0.629409 0.464995 1 64 1.000000
0  -3.273167 -16.097185 -6.143120  0.000002 0.100662 -0.994921  0.629396 0.465007 1 64 1.000000
lowpoly_plastic
0  -3.011603 -16.768650 -3.880921  1.000000 0.000000 -0.000000  0.628468 0.458087 1 64 1.000000
0  -3.011603 -14.960019 -4.335845  1.000000 0.000000 -0.000000  0.628382 0.458109 1 64 1.000000
0  -3.011603 -15.697412 -3.448242  1.000000 0.000000 -0.000000  0.628417 0.458066 1 64 1.000000
lowpoly_plastic
0  -3.011603 -15.823875 -5.565224  1.000000 -0.000003 -0.000000  0.628423 0.458167 1 64 1.000000
0  -3.011604 -15.774426 -6.110465  1.000000 -0.000003 -0.000000  0.628421 0.458193 1 64 1.000000
0  -3.011604 -15.703908 -6.103330  1.000000 -0.000003 -0.000000  0.628417 0.458193 1 64 1.000000
lowpoly_plastic
0  -3.272182 -15.303013 -6.062769  0.609793 0.467497 -0.639999  0.629396 0.464982 1 64 1.000000
0  -3.272182 -14.601252 -5.550156  0.609793 0.467497 -0.639999  0.629396 0.464943 1 64 1.000000
0  -3.011604 -14.946979 -5.554417  0.609793 0.467497 -0.639999  0.629409 0.464953 1 64 1.000000
lowpoly_plastic
0  -3.148077 -14.996668 -1.856557  0.737339 0.000000 0.675522  0.629159 0.466129 1 64 1.000000
0  -3.011603 -15.162483 -2.005521  0.737339 0.000000 0.675522  0.629167 0.466136 1 64 1.000000
0  -3.011603 -14.526269 -2.005520  0.737339 0.000000 0.675522  0.629136 0.466136 1 64 1.000000
lowpoly_plastic
0  -3.148077 -15.485853 -1.856557  0.737340 0.000000 0.675522  0.629182 0.466129 1 64 1.000000
0  -3.011603 -15.485853 -2.005521  0.737340 0.000000 0.675522  0.629182 0.466136 1 64 1.000000
0  -3.011603 -15.162483 -2.005521  0.737340 0.000000 0.675522  0.629167 0.466136 1 64 1.000000
lowpoly_plastic
0  -3.011603 -13.938261 -2.398481  0.000000 1.000000 0.000000  0.628620 0.483557 1 64 1.000000
0  -3.272182 -13.938261 -2.624543  0.000000 1.000000 0.000000  0.628629 0.483570 1 64 1.000000
0  -3.542390 -13.938261 -2.624543  0.000000 1.000000 0.000000  0.628629 0.483583 1 64 1.000000
lowpoly_plastic
0  -3.542390 -13.938261 -1.856557  0.000000 1.000000 -0.000004  0.628598 0.483583 1 64 1.000000
0  -3.148078 -13.938261 -1.856557  0.000000 1.000000 -0.000004  0.628598 0.483564 1 64 1.000000
0  -3.011603 -13.938261 -2.005520  0.000000 1.000000 -0.000004  0.628604 0.483557 1 64 1.000000
lowpoly_plastic
0  -3.273166 -17.859316 -2.925829  -0.000000 -0.978935 -0.204170  0.629032 0.472116 1 64 1.000000
0  -3.542389 -17.987865 -2.309448  -0.000000 -0.978935 -0.204170  0.629045 0.472086 1 64 1.000000
0  -3.542389 -17.859316 -2.925829  -0.000000 -0.978935 -0.204170  0.629045 0.472116 1 64 1.000000
lowpoly_plastic
0  -3.542390 -15.312269 -2.510670  0.000000 0.167931 -0.985799  0.627634 0.473528 1 64 1.000000
0  -3.812598 -15.312269 -2.510670  0.000000 0.167931 -0.985799  0.627621 0.473528 1 64 1.000000
0  -3.812598 -14.872795 -2.435806  0.000000 0.167931 -0.985799  0.627621 0.473513 1 64 1.000000
lowpoly_plastic
0  -3.542390 -15.485852 -1.856557  -0.000000 0.000000 1.000000  0.629298 0.482353 1 64 1.000000
0  -3.542389 -17.749378 -1.856557  -0.000000 0.000000 1.000000  0.629298 0.482461 1 64 1.000000
0  -3.148077 -17.576557 -1.856557  -0.000000 0.000000 1.000000  0.629279 0.482452 1 64 1.000000
lowpoly_plastic
0  -3.542389 -17.987865 -2.309448  0.000000 -0.978938 -0.204159  0.629045 0.472086 1 64 1.000000
0  -3.811612 -17.987865 -2.309448  0.000000 -0.978938 -0.204159  0.629058 0.472086 1 64 1.000000
0  -3.811613 -17.859316 -2.925829  0.000000 -0.978938 -0.204159  0.629058 0.472116 1 64 1.000000
lowpoly_plastic
0  -3.272182 -15.445017 -3.306958  0.000000 0.769192 0.639018  0.627865 0.473586 1 64 1.000000
0  -3.272182 -14.709982 -4.191723  0.000000 0.769192 0.639018  0.627865 0.473551 1 64 1.000000
0  -3.542390 -14.709982 -4.191723  0.000000 0.769192 0.639018  0.627878 0.473551 1 64 1.000000
lowpoly_plastic
0  -3.148077 -15.485853 -1.856557  0.000000 0.000000 1.000000  0.629279 0.482353 1 64 1.000000
0  -3.148077 -14.996668 -1.856557  0.000000 0.000000 1.000000  0.629279 0.482329 1 64 1.000000
0  -3.542390 -14.996668 -1.856557  0.000000 0.000000 1.000000  0.629298 0.482329 1 64 1.000000
lowpoly_plastic
0  -3.542390 -17.335262 -3.570119  0.000000 -0.424227 -0.905556  0.629045 0.472153 1 64 1.000000
0  -3.273166 -17.335262 -3.570119  0.000000 -0.424227 -0.905556  0.629032 0.472153 1 64 1.000000
0  -3.273166 -17.838898 -3.334182  0.000000 -0.424227 -0.905556  0.629032 0.472134 1 64 1.000000
lowpoly_plastic
0  -3.542389 -17.838898 -3.334182  0.000000 -0.998752 -0.049938  0.629045 0.472134 1 64 1.000000
0  -3.273166 -17.838898 -3.334182  0.000000 -0.998752 -0.049938  0.629032 0.472134 1 64 1.000000
0  -3.273166 -17.859316 -2.925829  0.000000 -0.998752 -0.049938  0.629032 0.472116 1 64 1.000000
lowpoly_plastic
0  -3.273166 -17.987865 -2.309448  0.000000 -0.884816 0.465941  0.629032 0.472086 1 64 1.000000
0  -3.273166 -17.749378 -1.856557  0.000000 -0.884816 0.465941  0.629032 0.472069 1 64 1.000000
0  -3.542389 -17.749378 -1.856557  0.000000 -0.884816 0.465941  0.629045 0.472069 1 64 1.000000
lowpoly_plastic
0  -3.011603 -17.053520 -3.498110  0.721218 -0.568349 -0.396010  0.628869 0.465432 1 64 1.000000
0  -3.273166 -17.335262 -3.570119  0.721218 -0.568349 -0.396010  0.628883 0.465436 1 64 1.000000
0  -3.273166 -17.090252 -3.921756  0.721218 -0.568349 -0.396010  0.628871 0.465452 1 64 1.000000
lowpoly_plastic
0  -3.812598 -15.587940 -2.886128  -0.737337 0.639643 0.217237  0.629242 0.465080 1 64 1.000000
0  -3.812598 -15.445017 -3.306958  -0.737337 0.639643 0.217237  0.629249 0.465100 1 64 1.000000
0  -4.073176 -15.697412 -3.448241  -0.737337 0.639643 0.217237  0.629237 0.465107 1 64 1.000000
lowpoly_plastic
0  -3.011603 -15.823875 -5.565224  1.000000 0.000000 -0.000000  0.628423 0.458167 1 64 1.000000
0  -3.011604 -14.946979 -5.554417  1.000000 0.000000 -0.000000  0.628381 0.458167 1 64 1.000000
0  -3.011603 -14.771362 -4.848603  1.000000 0.000000 -0.000000  0.628373 0.458133 1 64 1.000000
lowpoly_plastic
0  -3.542390 -15.303013 -6.062769  0.000000 0.100662 -0.994921  0.628609 0.472346 1 64 1.000000
0  -3.542390 -16.097185 -6.143120  0.000000 0.100662 -0.994921  0.628609 0.472370 1 64 1.000000
0  -3.811613 -16.097185 -6.143120  0.000000 0.100662 -0.994921  0.628596 0.472370 1 64 1.000000
lowpoly_plastic
0  -3.148078 -14.426949 -1.856557  0.000000 0.000000 1.000000  0.629279 0.482302 1 64 1.000000
0  -3.148078 -13.938261 -1.856557  0.000000 0.000000 1.000000  0.629279 0.482279 1 64 1.000000
0  -3.542390 -13.938261 -1.856557  0.000000 0.000000 1.000000  0.629298 0.482279 1 64 1.000000
lowpoly_plastic
0  -3.542390 -17.090252 -3.921756  0.000000 -0.820474 -0.571685  0.629045 0.472172 1 64 1.000000
0  -3.273166 -17.090252 -3.921756  0.000000 -0.820474 -0.571685  0.629032 0.472172 1 64 1.000000
0  -3.273166 -17.335262 -3.570119  0.000000 -0.820474 -0.571685  0.629032 0.472153 1 64 1.000000
lowpoly_plastic
0  -3.272182 -14.601252 -5.550156  0.000000 0.971051 -0.238871  0.628621 0.472307 1 64 1.000000
0  -3.542390 -14.601252 -5.550156  0.000000 0.971051 -0.238871  0.628609 0.472307 1 64 1.000000
0  -3.542390 -14.444552 -4.913146  0.000000 0.971051 -0.238871  0.628609 0.472277 1 64 1.000000
lowpoly_plastic
0  -3.542390 -15.587940 -2.886128  0.000000 0.806061 -0.591833  0.627634 0.473550 1 64 1.000000
0  -3.812598 -15.587940 -2.886128  0.000000 0.806061 -0.591833  0.627621 0.473550 1 64 1.000000
0  -3.812598 -15.312269 -2.510670  0.000000 0.806061 -0.591833  0.627621 0.473528 1 64 1.000000
lowpoly_plastic
0  -3.011603 -14.771362 -4.848603  1.000000 0.000000 0.000000  0.628373 0.458133 1 64 1.000000
0  -3.011603 -14.960019 -4.335845  1.000000 0.000000 0.000000  0.628382 0.458109 1 64 1.000000
0  -3.011603 -16.226469 -4.758973  1.000000 0.000000 0.000000  0.628442 0.458129 1 64 1.000000
lowpoly_plastic
0  -3.542390 -16.754494 -4.486644  -0.000003 -0.635017 -0.772498  0.629045 0.472203 1 64 1.000000
0  -3.273167 -16.754494 -4.486644  -0.000003 -0.635017 -0.772498  0.629032 0.472203 1 64 1.000000
0  -3.273166 -17.022194 -4.266588  -0.000003 -0.635017 -0.772498  0.629032 0.472189 1 64 1.000000
lowpoly_plastic
0  -3.542390 -16.150875 -5.569253  0.000000 -0.795696 -0.605696  0.629045 0.472261 1 64 1.000000
0  -3.273167 -16.150875 -5.569253  0.000000 -0.795696 -0.605696  0.629032 0.472261 1 64 1.000000
0  -3.273167 -16.484528 -5.130935  0.000000 -0.795696 -0.605696  0.629032 0.472236 1 64 1.000000
lowpoly_plastic
0  -3.811613 -17.838898 -3.334182  -0.000002 -0.424223 -0.905558  0.629058 0.472134 1 64 1.000000
0  -3.811613 -17.335262 -3.570119  -0.000002 -0.424223 -0.905558  0.629058 0.472153 1 64 1.000000
0  -3.542390 -17.335262 -3.570119  -0.000002 -0.424223 -0.905558  0.629045 0.472153 1 64 1.000000
lowpoly_plastic
0  -3.811613 -17.335262 -3.570119  -0.000001 -0.820474 -0.571684  0.629058 0.472153 1 64 1.000000
0  -3.811613 -17.090252 -3.921756  -0.000001 -0.820474 -0.571684  0.629058 0.472172 1 64 1.000000
0  -3.542390 -17.090252 -3.921756  -0.000001 -0.820474 -0.571684  0.629045 0.472172 1 64 1.000000
lowpoly_plastic
0  -3.542390 -14.444552 -4.913146  0.000000 0.971051 -0.238873  0.628609 0.472277 1 64 1.000000
0  -3.542390 -14.601252 -5.550156  0.000000 0.971051 -0.238873  0.628609 0.472307 1 64 1.000000
0  -3.812598 -14.601252 -5.550156  0.000000 0.971051 -0.238873  0.628596 0.472307 1 64 1.000000
lowpoly_plastic
0  -3.542390 -15.587940 -2.886128  0.000000 0.946884 0.321576  0.627634 0.473550 1 64 1.000000
0  -3.542390 -15.445017 -3.306958  0.000000 0.946884 0.321576  0.627634 0.473563 1 64 1.000000
0  -3.812598 -15.445017 -3.306958  0.000000 0.946884 0.321576  0.627621 0.473563 1 64 1.000000
lowpoly_plastic
0  -3.811613 -16.150875 -5.569253  0.000000 -0.995652 -0.093153  0.629058 0.472261 1 64 1.000000
0  -3.811613 -16.097185 -6.143120  0.000000 -0.995652 -0.093153  0.629058 0.472288 1 64 1.000000
0  -3.542390 -16.097185 -6.143120  0.000000 -0.995652 -0.093153  0.629045 0.472288 1 64 1.000000
lowpoly_plastic
0  -3.542390 -14.709982 -4.191723  0.000000 0.938494 0.345295  0.628609 0.472256 1 64 1.000000
0  -3.542390 -14.444552 -4.913146  0.000000 0.938494 0.345295  0.628609 0.472277 1 64 1.000000
0  -3.812598 -14.444552 -4.913146  0.000000 0.938494 0.345295  0.628596 0.472277 1 64 1.000000
lowpoly_plastic
0  -3.936702 -14.426949 -1.856557  -0.737337 0.000000 0.675525  0.629685 0.465806 1 64 1.000000
0  -3.936702 -13.938261 -1.856557  -0.737337 0.000000 0.675525  0.629708 0.465806 1 64 1.000000
0  -4.073176 -13.938261 -2.005520  -0.737337 0.000000 0.675525  0.629708 0.465813 1 64 1.000000
lowpoly_plastic
0  -3.011603 -13.938261 -2.398481  0.753388 -0.184866 -0.631056  0.628721 0.465380 1 64 1.000000
0  -3.011603 -14.699268 -2.175546  0.753388 -0.184866 -0.631056  0.628757 0.465369 1 64 1.000000
0  -3.272182 -14.872795 -2.435806  0.753388 -0.184866 -0.631056  0.628765 0.465382 1 64 1.000000
lowpoly_plastic
0  -3.272182 -14.872795 -2.435806  0.665740 0.107703 -0.738370  0.628765 0.465382 1 64 1.000000
0  -3.011603 -14.699268 -2.175546  0.665740 0.107703 -0.738370  0.628757 0.465369 1 64 1.000000
0  -3.011603 -15.505404 -2.293134  0.665740 0.107703 -0.738370  0.628795 0.465375 1 64 1.000000
lowpoly_plastic
0  -3.272182 -15.587940 -2.886128  0.737338 0.639641 0.217235  0.628799 0.465403 1 64 1.000000
0  -3.011603 -15.904916 -2.837260  0.737338 0.639641 0.217235  0.628814 0.465401 1 64 1.000000
0  -3.011603 -15.697412 -3.448242  0.737338 0.639641 0.217235  0.628805 0.465430 1 64 1.000000
lowpoly_plastic
0  -3.542390 -13.938261 -1.856557  0.000000 1.000000 0.000000  0.628598 0.483583 1 64 1.000000
0  -3.011603 -13.938261 -2.398481  0.000000 1.000000 0.000000  0.628620 0.483557 1 64 1.000000
0  -3.542390 -13.938261 -2.624543  0.000000 1.000000 0.000000  0.628629 0.483583 1 64 1.000000
lowpoly_plastic
0  -3.011603 -14.960019 -4.335845  0.737339 0.519606 0.431673  0.628769 0.465472 1 64 1.000000
0  -3.272182 -14.709982 -4.191723  0.737339 0.519606 0.431673  0.628757 0.465465 1 64 1.000000
0  -3.272182 -15.445017 -3.306958  0.737339 0.519606 0.431673  0.628793 0.465423 1 64 1.000000
lowpoly_plastic
0  -3.272182 -14.601252 -5.550156  0.787330 0.598684 -0.147272  0.628752 0.465530 1 64 1.000000
0  -3.272182 -14.444552 -4.913146  0.787330 0.598684 -0.147272  0.628745 0.465500 1 64 1.000000
0  -3.011603 -14.771362 -4.848603  0.787330 0.598684 -0.147272  0.628760 0.465497 1 64 1.000000
lowpoly_plastic
0  -3.811613 -17.090252 -3.921756  0.000000 -0.981072 -0.193642  0.629058 0.472172 1 64 1.000000
0  -3.811613 -17.022194 -4.266588  0.000000 -0.981072 -0.193642  0.629058 0.472189 1 64 1.000000
0  -3.542390 -17.022194 -4.266588  0.000000 -0.981072 -0.193642  0.629045 0.472189 1 64 1.000000
lowpoly_plastic
0  -3.011603 -17.682623 -2.385594  0.734692 -0.664111 -0.138503  0.628899 0.465379 1 64 1.000000
0  -3.273166 -17.987865 -2.309448  0.734692 -0.664111 -0.138503  0.628914 0.465376 1 64 1.000000
0  -3.273166 -17.859316 -2.925829  0.734692 -0.664111 -0.138503  0.628908 0.465405 1 64 1.000000
lowpoly_plastic
0  -4.073176 -14.960019 -4.335845  -1.000000 0.000000 0.000001  0.628884 0.457786 1 64 1.000000
0  -4.073177 -14.771362 -4.848603  -1.000000 0.000000 0.000001  0.628893 0.457810 1 64 1.000000
0  -4.073176 -16.187874 -5.082046  -1.000000 0.000000 0.000001  0.628826 0.457821 1 64 1.000000
lowpoly_plastic
0  -3.011603 -16.768650 -3.880921  0.777544 -0.616927 -0.121759  0.628856 0.465451 1 64 1.000000
0  -3.273166 -17.090252 -3.921756  0.777544 -0.616927 -0.121759  0.628871 0.465452 1 64 1.000000
0  -3.273166 -17.022194 -4.266588  0.777544 -0.616927 -0.121759  0.628868 0.465469 1 64 1.000000
lowpoly_plastic
0  -4.073176 -16.768650 -3.880921  -0.784995 -0.604636 -0.134899  0.629186 0.465128 1 64 1.000000
0  -4.073176 -16.699081 -4.192746  -0.784995 -0.604636 -0.134899  0.629189 0.465142 1 64 1.000000
0  -3.811613 -17.022194 -4.266588  -0.784995 -0.604636 -0.134899  0.629174 0.465146 1 64 1.000000
lowpoly_plastic
0  -4.073177 -14.771362 -4.848603  -1.000000 -0.000001 0.000000  0.628893 0.457810 1 64 1.000000
0  -4.073177 -14.946979 -5.554417  -1.000000 -0.000001 0.000000  0.628885 0.457844 1 64 1.000000
0  -4.073177 -15.823875 -5.565224  -1.000000 -0.000001 0.000000  0.628843 0.457844 1 64 1.000000
lowpoly_plastic
0  -3.011603 -15.823875 -5.565224  0.779932 -0.623142 -0.058302  0.628811 0.465531 1 64 1.000000
0  -3.273167 -16.150875 -5.569253  0.779932 -0.623142 -0.058302  0.628826 0.465531 1 64 1.000000
0  -3.273167 -16.097185 -6.143120  0.779932 -0.623142 -0.058302  0.628824 0.465558 1 64 1.000000
lowpoly_plastic
0  -3.011603 -17.510406 -3.261537  0.617122 -0.333809 -0.712553  0.628891 0.465421 1 64 1.000000
0  -3.273166 -17.838898 -3.334182  0.617122 -0.333809 -0.712553  0.628907 0.465424 1 64 1.000000
0  -3.273166 -17.335262 -3.570119  0.617122 -0.333809 -0.712553  0.628883 0.465436 1 64 1.000000
lowpoly_plastic
0  -4.073176 -16.399448 -4.456379  -0.755229 -0.569046 -0.325292  0.629203 0.465155 1 64 1.000000
0  -4.073176 -16.226469 -4.758973  -0.755229 -0.569046 -0.325292  0.629212 0.465169 1 64 1.000000
0  -3.811613 -16.541243 -4.815595  -0.755229 -0.569046 -0.325292  0.629197 0.465172 1 64 1.000000
lowpoly_plastic
0  -3.011603 -16.699081 -4.192747  0.707998 -0.448458 -0.545549  0.628852 0.465465 1 64 1.000000
0  -3.273166 -17.022194 -4.266588  0.707998 -0.448458 -0.545549  0.628868 0.465469 1 64 1.000000
0  -3.273167 -16.754494 -4.486644  0.707998 -0.448458 -0.545549  0.628855 0.465479 1 64 1.000000
lowpoly_plastic
0  -3.011603 -16.399448 -4.456379  0.768728 -0.536668 -0.347915  0.628838 0.465478 1 64 1.000000
0  -3.273167 -16.754494 -4.486644  0.768728 -0.536668 -0.347915  0.628855 0.465479 1 64 1.000000
0  -3.273167 -16.541243 -4.815595  0.768728 -0.536668 -0.347915  0.628845 0.465495 1 64 1.000000
lowpoly_plastic
0  -3.542389 -17.749378 -1.856557  0.000000 -0.884816 0.465940  0.629045 0.472069 1 64 1.000000
0  -3.811613 -17.749378 -1.856557  0.000000 -0.884816 0.465940  0.629058 0.472069 1 64 1.000000
0  -3.811612 -17.987865 -2.309448  0.000000 -0.884816 0.465940  0.629058 0.472086 1 64 1.000000
lowpoly_plastic
0  -3.148078 -14.426949 -1.856557  0.737339 0.000001 0.675523  0.629131 0.466129 1 64 1.000000
0  -3.011603 -14.526269 -2.005520  0.737339 0.000001 0.675523  0.629136 0.466136 1 64 1.000000
0  -3.011603 -13.938261 -2.005520  0.737339 0.000001 0.675523  0.629108 0.466136 1 64 1.000000
lowpoly_plastic
0  -3.148077 -15.485853 -1.856557  0.737339 0.000000 0.675523  0.629182 0.466129 1 64 1.000000
0  -3.148077 -17.576557 -1.856557  0.737339 0.000000 0.675523  0.629282 0.466129 1 64 1.000000
0  -3.011603 -17.583138 -2.005521  0.737339 0.000000 0.675523  0.629282 0.466136 1 64 1.000000
lowpoly_plastic
0  -3.812598 -14.872795 -2.435806  -0.753389 -0.184866 -0.631055  0.629276 0.465059 1 64 1.000000
0  -4.073176 -14.699268 -2.175546  -0.753389 -0.184866 -0.631055  0.629284 0.465046 1 64 1.000000
0  -4.073176 -13.938261 -2.398481  -0.753389 -0.184866 -0.631055  0.629321 0.465057 1 64 1.000000
lowpoly_plastic
0  -3.542390 -13.938261 -1.856557  0.000000 0.000000 1.000000  0.629298 0.482279 1 64 1.000000
0  -3.936702 -13.938261 -1.856557  0.000000 0.000000 1.000000  0.629317 0.482279 1 64 1.000000
0  -3.936702 -14.426949 -1.856557  0.000000 0.000000 1.000000  0.629317 0.482302 1 64 1.000000
lowpoly_plastic
0  -4.073176 -17.682623 -2.385594  -0.778260 -0.601574 -0.180055  0.629142 0.465056 1 64 1.000000
0  -4.073176 -17.525459 -2.910699  -0.778260 -0.601574 -0.180055  0.629150 0.465081 1 64 1.000000
0  -3.811613 -17.859316 -2.925829  -0.778260 -0.601574 -0.180055  0.629134 0.465082 1 64 1.000000
lowpoly_plastic
0  -3.542390 -14.426949 -1.856557  0.000000 0.000000 1.000000  0.629298 0.482302 1 64 1.000000
0  -3.936702 -14.426949 -1.856557  0.000000 0.000000 1.000000  0.629317 0.482302 1 64 1.000000
0  -3.936702 -14.996668 -1.856557  0.000000 0.000000 1.000000  0.629317 0.482329 1 64 1.000000
lowpoly_plastic
0  -3.272182 -15.312269 -2.510670  0.000000 0.806057 -0.591838  0.627647 0.473528 1 64 1.000000
0  -3.272182 -15.587940 -2.886128  0.000000 0.806057 -0.591838  0.627647 0.473550 1 64 1.000000
0  -3.542390 -15.587940 -2.886128  0.000000 0.806057 -0.591838  0.627634 0.473550 1 64 1.000000
lowpoly_plastic
0  -3.542390 -16.541243 -4.815595  0.000000 -0.839104 -0.543971  0.629045 0.472221 1 64 1.000000
0  -3.273167 -16.541243 -4.815595  0.000000 -0.839104 -0.543971  0.629032 0.472221 1 64 1.000000
0  -3.273167 -16.754494 -4.486644  0.000000 -0.839104 -0.543971  0.629032 0.472203 1 64 1.000000
lowpoly_plastic
0  -3.148077 -14.996668 -1.856557  0.000000 0.000000 1.000000  0.629279 0.482329 1 64 1.000000
0  -3.148078 -14.426949 -1.856557  0.000000 0.000000 1.000000  0.629279 0.482302 1 64 1.000000
0  -3.542390 -14.426949 -1.856557  0.000000 0.000000 1.000000  0.629298 0.482302 1 64 1.000000
lowpoly_plastic
0  -3.542390 -14.996668 -1.856557  0.000000 0.000000 1.000000  0.629298 0.482329 1 64 1.000000
0  -3.936702 -14.996668 -1.856557  0.000000 0.000000 1.000000  0.629317 0.482329 1 64 1.000000
0  -3.936702 -15.485853 -1.856557  0.000000 0.000000 1.000000  0.629317 0.482353 1 64 1.000000
lowpoly_plastic
0  -3.811613 -17.859316 -2.925829  0.000000 -0.998752 -0.049938  0.629058 0.472116 1 64 1.000000
0  -3.811613 -17.838898 -3.334182  0.000000 -0.998752 -0.049938  0.629058 0.472134 1 64 1.000000
0  -3.542389 -17.838898 -3.334182  0.000000 -0.998752 -0.049938  0.629045 0.472134 1 64 1.000000
lowpoly_plastic
0  -4.073176 -15.485853 -2.005520  -1.000000 -0.000000 0.000000  0.628859 0.457675 1 64 1.000000
0  -4.073176 -15.904917 -2.837260  -1.000000 -0.000000 0.000000  0.628839 0.457714 1 64 1.000000
0  -4.073176 -17.682623 -2.385594  -1.000000 -0.000000 0.000000  0.628755 0.457693 1 64 1.000000
lowpoly_plastic
0  -4.073176 -15.904917 -2.837260  -1.000000 0.000000 0.000000  0.628839 0.457714 1 64 1.000000
0  -4.073176 -15.697412 -3.448241  -1.000000 0.000000 0.000000  0.628849 0.457744 1 64 1.000000
0  -4.073176 -17.510406 -3.261537  -1.000000 0.000000 0.000000  0.628763 0.457735 1 64 1.000000
lowpoly_plastic
0  -3.812598 -14.872795 -2.435806  -0.687770 0.121907 -0.715620  0.629276 0.465059 1 64 1.000000
0  -3.812598 -15.312269 -2.510670  -0.687770 0.121907 -0.715620  0.629255 0.465062 1 64 1.000000
0  -4.073176 -15.505404 -2.293134  -0.687770 0.121907 -0.715620  0.629246 0.465052 1 64 1.000000
lowpoly_plastic
0  -3.542390 -14.601252 -5.550156  0.000000 0.589856 -0.807509  0.628609 0.472307 1 64 1.000000
0  -3.542390 -15.303013 -6.062769  0.000000 0.589856 -0.807509  0.628609 0.472346 1 64 1.000000
0  -3.812598 -15.303013 -6.062769  0.000000 0.589856 -0.807509  0.628596 0.472346 1 64 1.000000
lowpoly_plastic
0  -3.542390 -14.872795 -2.435806  0.000000 0.167931 -0.985799  0.627634 0.473513 1 64 1.000000
0  -3.272182 -14.872795 -2.435806  0.000000 0.167931 -0.985799  0.627647 0.473513 1 64 1.000000
0  -3.272182 -15.312269 -2.510670  0.000000 0.167931 -0.985799  0.627647 0.473528 1 64 1.000000
lowpoly_plastic
0  -3.542390 -16.484528 -5.130935  0.000000 -0.984208 -0.177014  0.629045 0.472236 1 64 1.000000
0  -3.273167 -16.484528 -5.130935  0.000000 -0.984208 -0.177014  0.629032 0.472236 1 64 1.000000
0  -3.273167 -16.541243 -4.815595  0.000000 -0.984208 -0.177014  0.629032 0.472221 1 64 1.000000
lowpoly_plastic
0  -3.272182 -15.303013 -6.062769  0.000000 0.589858 -0.807507  0.628621 0.472346 1 64 1.000000
0  -3.542390 -15.303013 -6.062769  0.000000 0.589858 -0.807507  0.628609 0.472346 1 64 1.000000
0  -3.542390 -14.601252 -5.550156  0.000000 0.589858 -0.807507  0.628609 0.472307 1 64 1.000000
lowpoly_plastic
0  -3.812598 -15.445017 -3.306958  0.000000 0.769190 0.639020  0.627891 0.473586 1 64 1.000000
0  -3.542390 -15.445017 -3.306958  0.000000 0.769190 0.639020  0.627878 0.473586 1 64 1.000000
0  -3.542390 -14.709982 -4.191723  0.000000 0.769190 0.639020  0.627878 0.473551 1 64 1.000000
lowpoly_plastic
0  -4.073177 -14.771362 -4.848603  -0.787331 0.598683 -0.147270  0.629281 0.465174 1 64 1.000000
0  -3.812598 -14.444552 -4.913146  -0.787331 0.598683 -0.147270  0.629296 0.465177 1 64 1.000000
0  -3.812598 -14.601252 -5.550156  -0.787331 0.598683 -0.147270  0.629289 0.465207 1 64 1.000000
lowpoly_plastic
0  -3.811613 -16.754494 -4.486644  0.000000 -0.839104 -0.543971  0.629058 0.472203 1 64 1.000000
0  -3.811613 -16.541243 -4.815595  0.000000 -0.839104 -0.543971  0.629058 0.472221 1 64 1.000000
0  -3.542390 -16.541243 -4.815595  0.000000 -0.839104 -0.543971  0.629045 0.472221 1 64 1.000000
lowpoly_plastic
0  -3.542390 -14.872795 -2.435806  0.000000 -0.197962 -0.980210  0.629211 0.472774 1 64 1.000000
0  -3.812598 -14.872795 -2.435806  0.000000 -0.197962 -0.980210  0.629211 0.472762 1 64 1.000000
0  -3.812598 -13.938261 -2.624543  0.000000 -0.197962 -0.980210  0.629234 0.472762 1 64 1.000000
lowpoly_plastic
0  -3.811613 -16.484528 -5.130934  0.000000 -0.795696 -0.605696  0.629058 0.472236 1 64 1.000000
0  -3.811613 -16.150875 -5.569253  0.000000 -0.795696 -0.605696  0.629058 0.472261 1 64 1.000000
0  -3.542390 -16.150875 -5.569253  0.000000 -0.795696 -0.605696  0.629045 0.472261 1 64 1.000000
lowpoly_plastic
0  -3.542390 -16.097185 -6.143120  0.000000 -0.995652 -0.093153  0.629045 0.472288 1 64 1.000000
0  -3.273167 -16.097185 -6.143120  0.000000 -0.995652 -0.093153  0.629032 0.472288 1 64 1.000000
0  -3.273167 -16.150875 -5.569253  0.000000 -0.995652 -0.093153  0.629032 0.472261 1 64 1.000000
lowpoly_plastic
0  -3.811613 -17.022194 -4.266588  0.000003 -0.635015 -0.772500  0.629058 0.472189 1 64 1.000000
0  -3.811613 -16.754494 -4.486644  0.000003 -0.635015 -0.772500  0.629058 0.472203 1 64 1.000000
0  -3.542390 -16.754494 -4.486644  0.000003 -0.635015 -0.772500  0.629045 0.472203 1 64 1.000000
lowpoly_plastic
0  -3.811613 -16.541243 -4.815595  0.000000 -0.984208 -0.177017  0.629058 0.472221 1 64 1.000000
0  -3.811613 -16.484528 -5.130934  0.000000 -0.984208 -0.177017  0.629058 0.472236 1 64 1.000000
0  -3.542390 -16.484528 -5.130935  0.000000 -0.984208 -0.177017  0.629045 0.472236 1 64 1.000000
lowpoly_plastic
0  -3.542390 -17.022194 -4.266588  0.000000 -0.981074 -0.193632  0.629045 0.472189 1 64 1.000000
0  -3.273166 -17.022194 -4.266588  0.000000 -0.981074 -0.193632  0.629032 0.472189 1 64 1.000000
0  -3.273166 -17.090252 -3.921756  0.000000 -0.981074 -0.193632  0.629032 0.472172 1 64 1.000000
lowpoly_plastic
0  -3.272182 -14.709982 -4.191723  0.000000 0.938495 0.345294  0.628621 0.472256 1 64 1.000000
0  -3.272182 -14.444552 -4.913146  0.000000 0.938495 0.345294  0.628621 0.472277 1 64 1.000000
0  -3.542390 -14.444552 -4.913146  0.000000 0.938495 0.345294  0.628609 0.472277 1 64 1.000000
lowpoly_plastic
0  -3.812598 -15.587940 -2.886128  -0.737339 0.544514 -0.399795  0.629242 0.465080 1 64 1.000000
0  -4.073176 -15.904917 -2.837260  -0.737339 0.544514 -0.399795  0.629227 0.465078 1 64 1.000000
0  -4.073176 -15.505404 -2.293134  -0.737339 0.544514 -0.399795  0.629246 0.465052 1 64 1.000000
lowpoly_plastic
0  -3.011603 -15.904916 -2.837260  1.000000 0.000000 -0.000000  0.628427 0.458037 1 64 1.000000
0  -3.011603 -15.485853 -2.005521  1.000000 0.000000 -0.000000  0.628407 0.457998 1 64 1.000000
0  -3.011603 -17.583138 -2.005521  1.000000 0.000000 -0.000000  0.628507 0.457998 1 64 1.000000
lowpoly_plastic
0  -4.073176 -16.699081 -4.192746  -0.701209 -0.470954 -0.535265  0.629189 0.465142 1 64 1.000000
0  -4.073176 -16.399448 -4.456379  -0.701209 -0.470954 -0.535265  0.629203 0.465155 1 64 1.000000
0  -3.811613 -16.754494 -4.486644  -0.701209 -0.470954 -0.535265  0.629186 0.465156 1 64 1.000000
lowpoly_plastic
0  -3.011603 -15.505404 -2.293134  0.737338 0.544514 -0.399795  0.628795 0.465375 1 64 1.000000
0  -3.011603 -15.904916 -2.837260  0.737338 0.544514 -0.399795  0.628814 0.465401 1 64 1.000000
0  -3.272182 -15.587940 -2.886128  0.737338 0.544514 -0.399795  0.628799 0.465403 1 64 1.000000
lowpoly_plastic
0  -4.073177 -14.771362 -4.848603  -0.737339 0.633973 0.233258  0.629281 0.465174 1 64 1.000000
0  -4.073176 -14.960019 -4.335845  -0.737339 0.633973 0.233258  0.629272 0.465149 1 64 1.000000
0  -3.812598 -14.709982 -4.191723  -0.737339 0.633973 0.233258  0.629284 0.465142 1 64 1.000000
lowpoly_plastic
0  -3.542389 -17.749378 -1.856557  0.000000 0.000000 1.000000  0.629298 0.482461 1 64 1.000000
0  -3.542390 -15.485852 -1.856557  0.000000 0.000000 1.000000  0.629298 0.482353 1 64 1.000000
0  -3.936702 -15.485853 -1.856557  0.000000 0.000000 1.000000  0.629317 0.482353 1 64 1.000000
lowpoly_plastic
0  -4.073176 -14.960019 -4.335845  -0.737338 0.519608 0.431672  0.629272 0.465149 1 64 1.000000
0  -4.073176 -15.697412 -3.448241  -0.737338 0.519608 0.431672  0.629237 0.465107 1 64 1.000000
0  -3.812598 -15.445017 -3.306958  -0.737338 0.519608 0.431672  0.629249 0.465100 1 64 1.000000
lowpoly_plastic
0  -3.272182 -15.445017 -3.306958  0.000000 0.946880 0.321587  0.627647 0.473563 1 64 1.000000
0  -3.542390 -15.445017 -3.306958  0.000000 0.946880 0.321587  0.627634 0.473563 1 64 1.000000
0  -3.542390 -15.587940 -2.886128  0.000000 0.946880 0.321587  0.627634 0.473550 1 64 1.000000
lowpoly_plastic
0  -3.011603 -17.510406 -3.261537  1.000000 0.000000 -0.000000  0.628503 0.458058 1 64 1.000000
0  -3.011603 -15.697412 -3.448242  1.000000 0.000000 -0.000000  0.628417 0.458066 1 64 1.000000
0  -3.011603 -15.904916 -2.837260  1.000000 0.000000 -0.000000  0.628427 0.458037 1 64 1.000000
lowpoly_plastic
0  -4.073176 -17.510406 -3.261537  -0.785242 -0.618416 -0.030921  0.629150 0.465098 1 64 1.000000
0  -3.811613 -17.838898 -3.334182  -0.785242 -0.618416 -0.030921  0.629135 0.465102 1 64 1.000000
0  -3.811613 -17.859316 -2.925829  -0.785242 -0.618416 -0.030921  0.629134 0.465082 1 64 1.000000
lowpoly_plastic
0  -3.273166 -17.859316 -2.925829  0.785242 -0.618416 -0.030921  0.628908 0.465405 1 64 1.000000
0  -3.273166 -17.838898 -3.334182  0.785242 -0.618416 -0.030921  0.628907 0.465424 1 64 1.000000
0  -3.011603 -17.510406 -3.261537  0.785242 -0.618416 -0.030921  0.628891 0.465421 1 64 1.000000
lowpoly_plastic
0  -4.073176 -16.187874 -5.082046  -0.754416 -0.646030 -0.116197  0.629213 0.465185 1 64 1.000000
0  -3.811613 -16.484528 -5.130934  -0.754416 -0.646030 -0.116197  0.629199 0.465187 1 64 1.000000
0  -3.811613 -16.541243 -4.815595  -0.754416 -0.646030 -0.116197  0.629197 0.465172 1 64 1.000000
lowpoly_plastic
0  -3.811613 -16.150875 -5.569253  -0.712577 -0.558257 -0.424952  0.629215 0.465208 1 64 1.000000
0  -3.811613 -16.484528 -5.130934  -0.712577 -0.558257 -0.424952  0.629199 0.465187 1 64 1.000000
0  -4.073176 -16.187874 -5.082046  -0.712577 -0.558257 -0.424952  0.629213 0.465185 1 64 1.000000
lowpoly_plastic
0  -3.273167 -16.541243 -4.815595  0.754415 -0.646031 -0.116197  0.628845 0.465495 1 64 1.000000
0  -3.273167 -16.484528 -5.130935  0.754415 -0.646031 -0.116197  0.628842 0.465510 1 64 1.000000
0  -3.011603 -16.187874 -5.082046  0.754415 -0.646031 -0.116197  0.628828 0.465508 1 64 1.000000
lowpoly_plastic
0  -4.073176 -17.053520 -3.498109  -0.733634 -0.545162 -0.405684  0.629172 0.465109 1 64 1.000000
0  -4.073176 -16.768650 -3.880921  -0.733634 -0.545162 -0.405684  0.629186 0.465128 1 64 1.000000
0  -3.811613 -17.090252 -3.921756  -0.733634 -0.545162 -0.405684  0.629170 0.465130 1 64 1.000000
lowpoly_plastic
0  -4.073176 -17.510406 -3.261537  -0.594718 -0.369658 -0.713907  0.629150 0.465098 1 64 1.000000
0  -4.073176 -17.053520 -3.498109  -0.594718 -0.369658 -0.713907  0.629172 0.465109 1 64 1.000000
0  -3.811613 -17.335262 -3.570119  -0.594718 -0.369658 -0.713907  0.629159 0.465113 1 64 1.000000
lowpoly_plastic
0  -3.273167 -16.150875 -5.569253  0.709851 -0.562578 -0.423813  0.628826 0.465531 1 64 1.000000
0  -3.011603 -15.823875 -5.565224  0.709851 -0.562578 -0.423813  0.628811 0.465531 1 64 1.000000
0  -3.011603 -16.187874 -5.082046  0.709851 -0.562578 -0.423813  0.628828 0.465508 1 64 1.000000
lowpoly_plastic
0  -3.542390 -13.938261 -2.624543  0.000000 -0.197962 -0.980210  0.629234 0.472774 1 64 1.000000
0  -3.272182 -13.938261 -2.624543  0.000000 -0.197962 -0.980210  0.629234 0.472787 1 64 1.000000
0  -3.272182 -14.872795 -2.435806  0.000000 -0.197962 -0.980210  0.629211 0.472787 1 64 1.000000
lowpoly_plastic
0  -3.011603 -14.771362 -4.848603  0.737336 0.633978 0.233254  0.628760 0.465497 1 64 1.000000
0  -3.272182 -14.444552 -4.913146  0.737336 0.633978 0.233254  0.628745 0.465500 1 64 1.000000
0  -3.272182 -14.709982 -4.191723  0.737336 0.633978 0.233254  0.628757 0.465465 1 64 1.000000
lowpoly_plastic
0  -4.073177 -15.823875 -5.565224  -0.778461 -0.625128 -0.056693  0.629231 0.465208 1 64 1.000000
0  -4.073177 -15.774426 -6.110465  -0.778461 -0.625128 -0.056693  0.629233 0.465234 1 64 1.000000
0  -3.811613 -16.097185 -6.143120  -0.778461 -0.625128 -0.056693  0.629218 0.465235 1 64 1.000000
lowpoly_plastic
0  -3.542390 -15.303013 -6.062769  0.000000 0.100662 -0.994921  0.628609 0.472346 1 64 1.000000
0  -3.272182 -15.303013 -6.062769  0.000000 0.100662 -0.994921  0.628621 0.472346 1 64 1.000000
0  -3.273167 -16.097185 -6.143120  0.000000 0.100662 -0.994921  0.628621 0.472370 1 64 1.000000
lowpoly_plastic
0  -4.073176 -17.583138 -2.005520  -0.737339 -0.000001 0.675523  0.629534 0.465813 1 64 1.000000
0  -3.936701 -17.576557 -1.856557  -0.737339 -0.000001 0.675523  0.629535 0.465806 1 64 1.000000
0  -3.936702 -15.485853 -1.856557  -0.737339 -0.000001 0.675523  0.629634 0.465806 1 64 1.000000
lowpoly_plastic
0  -3.273166 -17.859316 -2.925829  0.000000 -0.978938 -0.204158  0.629032 0.472116 1 64 1.000000
0  -3.273166 -17.987865 -2.309448  0.000000 -0.978938 -0.204158  0.629032 0.472086 1 64 1.000000
0  -3.542389 -17.987865 -2.309448  0.000000 -0.978938 -0.204158  0.629045 0.472086 1 64 1.000000
end
