version 1
nodes
0 "ValveBiped.Bip01_Spine4" -1
1 "ValveBiped.Bip01_L_Clavicle" 0
2 "ValveBiped.Bip01_L_UpperArm" 1
3 "ValveBiped.Bip01_L_Forearm" 2
4 "ValveBiped.Bip01_L_Hand" 3
5 "ValveBiped.Bip01_L_Finger4" 4
6 "ValveBiped.Bip01_L_Finger41" 5
7 "ValveBiped.Bip01_L_Finger42" 6
8 "ValveBiped.Bip01_L_Finger3" 4
9 "ValveBiped.Bip01_L_Finger31" 8
10 "ValveBiped.Bip01_L_Finger32" 9
11 "ValveBiped.Bip01_L_Finger2" 4
12 "ValveBiped.Bip01_L_Finger21" 11
13 "ValveBiped.Bip01_L_Finger22" 12
14 "ValveBiped.Bip01_L_Finger1" 4
15 "ValveBiped.Bip01_L_Finger11" 14
16 "ValveBiped.Bip01_L_Finger12" 15
17 "ValveBiped.Bip01_L_Finger0" 4
18 "ValveBiped.Bip01_L_Finger01" 17
19 "ValveBiped.Bip01_L_Finger02" 18
20 "ValveBiped.Bip01_L_Ulna" 3
21 "ValveBiped.Bip01_L_Wrist" 3
22 "rig_l_upperarm" 1
23 "rig_l_forearm" 22
24 "rig_d_l_forearm" 23
25 "rig_d_l_upperarm" 22
26 "ValveBiped.Bip01_R_Clavicle" 0
27 "ValveBiped.Bip01_R_UpperArm" 26
28 "ValveBiped.Bip01_R_Forearm" 27
29 "ValveBiped.Bip01_R_Hand" 28
30 "ValveBiped.Bip01_R_Finger4" 29
31 "ValveBiped.Bip01_R_Finger41" 30
32 "ValveBiped.Bip01_R_Finger42" 31
33 "ValveBiped.Bip01_R_Finger3" 29
34 "ValveBiped.Bip01_R_Finger31" 33
35 "ValveBiped.Bip01_R_Finger32" 34
36 "ValveBiped.Bip01_R_Finger2" 29
37 "ValveBiped.Bip01_R_Finger21" 36
38 "ValveBiped.Bip01_R_Finger22" 37
39 "ValveBiped.Bip01_R_Finger1" 29
40 "ValveBiped.Bip01_R_Finger11" 39
41 "ValveBiped.Bip01_R_Finger12" 40
42 "ValveBiped.Bip01_R_Finger0" 29
43 "ValveBiped.Bip01_R_Finger01" 42
44 "ValveBiped.Bip01_R_Finger02" 43
45 "ValveBiped.Bip01_R_Ulna" 28
46 "ValveBiped.Bip01_R_Wrist" 28
47 "rig_r_upperarm" 26
48 "rig_r_forearm" 47
49 "rig_d_r_forearm" 48
50 "rig_d_r_upperarm" 47
51 "rig_r_hand" -1
52 "rig_d_r_hand" 51
53 "rig_d_r_wrist" 52
54 "rig_l_hand" -1
55 "rig_d_l_hand" 54
56 "rig_d_l_wrist" 54
57 "rig_l_pole" -1
58 "rig_r_pole" -1
59 "rig_l_clavicle" -1
60 "rig_d_l_clavicle" 59
61 "rig_r_clavicle" -1
62 "rig_d_r_clavicle" 61
63 "Camera" -1
64 "body" -1
65 "trigger" 64
66 "bolt" 64
67 "barrel" 64
68 "magrel" 64
69 "chandle" 64
70 "boltrelease" 64
71 "laseradj" 64
72 "mag" -1
73 "bullet1" 72
74 "bullet2" 72
75 "bullet3" 72
76 "round1" 72
77 "round2" 72
78 "round3" 72
79 "mag2" -1
end
skeleton
time 0
0  0.000006 0.000000 0.000000  -1.570800 -1.391899 -1.570792
1  -3.333990 2.359167 1.335070  -1.544956 -1.855077 -0.198630
2  6.027525 -0.000323 0.000193  -0.725017 -0.923176 -1.513779
3  11.692110 0.000642 -0.000741  -0.551974 -0.000007 -1.189457
4  11.480262 0.000138 -0.000777  2.489351 -0.669981 -0.265279
5  3.806287 -0.372256 -1.110994  -0.529793 -0.073810 -1.897370
6  1.312590 0.000013 0.000008  0.103432 -0.025446 -0.129301
7  0.729355 0.000052 0.000050  -0.076005 -0.077877 -0.849610
8  3.942143 0.046273 -0.431513  -0.300837 0.240743 -1.342798
9  1.539112 0.000083 0.000004  0.288969 -0.244282 -1.112656
10  1.196333 0.000147 0.000028  -0.004944 0.004446 -0.737404
11  3.883505 -0.047269 0.431381  -0.156587 0.297040 -1.174331
12  1.719572 -0.000027 0.000015  0.319275 -0.218446 -1.398918
13  1.209178 0.000094 0.000012  0.001029 0.002802 -0.648631
14  3.859662 -0.138476 1.332408  0.084999 0.365849 -0.950111
15  1.719449 -0.000012 0.000022  0.624915 -0.234597 -1.649343
16  1.099674 0.000049 0.000005  0.001249 0.007265 -0.897875
17  0.805993 -0.349050 1.321252  -1.004830 -0.436822 -0.698668
18  1.789819 -0.000004 -0.000018  0.109460 -0.013079 0.104637
19  1.207018 -0.000010 -0.000043  -0.168957 0.349224 1.324858
20  5.740637 0.000409 -0.000703  0.108404 0.000003 0.000071
21  11.481060 0.000232 -0.000814  0.162545 -0.122530 0.002544
22  6.027526 -0.000330 0.000203  1.588329 -0.647501 1.598753
23  0.000002 11.692098 -0.000007  -0.841221 -0.314761 -0.681758
24  0.000003 0.000008 -0.000001  0.317109 -0.000031 1.570738
25  -0.000000 -0.000011 0.000000  0.868957 0.000002 1.570712
26  -4.110751 -3.692282 2.046260  1.473120 1.855075 -0.198639
27  6.027510 -0.000259 -0.000227  1.519188 0.733606 -0.629044
28  11.691990 0.000244 0.000858  0.617933 0.000057 -1.634932
29  11.479294 -0.000357 0.001262  -1.795470 1.012778 0.360231
30  3.840239 -0.256104 1.127581  0.295546 0.139683 -1.669741
31  1.312558 0.000025 0.000001  0.010552 -0.001809 -0.117851
32  0.729345 0.000066 -0.000027  0.000413 -0.002204 -1.216053
33  3.942046 0.050109 0.430998  0.289854 0.021571 -1.314220
34  1.539095 0.000010 -0.000000  0.003529 -0.030507 -0.899996
35  1.196299 0.000077 -0.000003  0.003213 -0.000660 -1.346235
36  3.883411 -0.050502 -0.431086  0.205962 -0.055410 -1.138183
37  1.719562 -0.000079 -0.000003  -0.025251 0.013579 -1.531538
38  1.209195 0.000036 0.000011  0.025602 -0.125409 -0.740152
39  3.806435 -0.112147 -1.295328  -0.259019 0.073159 -0.811452
40  1.719414 -0.000099 -0.000033  0.051940 0.150487 -1.216918
41  1.099673 0.000025 0.000008  -0.230661 0.148282 -0.903266
42  0.805979 -0.359854 -1.318337  1.328333 0.252814 -0.645919
43  1.789778 -0.000008 -0.000042  0.068853 0.027685 -0.239620
44  1.206996 -0.000005 0.000006  0.004778 0.068187 0.264913
45  5.740572 0.000055 0.000725  0.017661 -0.000014 0.000021
46  11.480803 -0.000036 0.001002  -0.069987 0.172619 0.076690
47  6.027514 -0.000273 -0.000237  -0.890550 -0.533115 -1.639072
48  -0.000001 11.691974 -0.000006  -1.108857 0.552301 0.858385
49  0.000005 -0.000002 -0.000001  2.890460 -0.000041 1.570856
50  -0.000007 -0.000015 0.000005  2.272644 -0.000030 1.570865
51  -3.130425 -11.392326 -6.986777  -0.193736 -2.922314 1.077886
52  -0.000000 0.000000 0.000000  0.008153 -0.000259 0.000009
53  0.000000 -0.000000 0.000001  1.565115 0.043565 -0.106862
54  -1.673698 -18.681755 -7.574580  0.400529 -0.483397 -1.526692
55  -0.000001 0.000000 0.000000  0.000000 -0.000000 -0.000002
56  0.000031 0.000029 0.000001  -1.571902 -0.044449 -0.106509
57  8.802561 -11.771522 -19.009918  1.570796 -0.000000 0.000000
58  -15.265000 7.133661 -18.583086  1.570796 -0.000000 0.000000
59  1.339387 -1.728622 -3.701813  1.570796 -0.000000 0.000000
60  -0.004311 0.001230 -0.000371  0.006898 -0.005534 -0.284229
61  2.046263 4.364841 -3.388127  1.570796 -0.000000 0.000000
62  0.000000 0.000000 0.000000  -0.078727 -3.136056 0.284226
63  0.000000 0.000000 0.000000  1.570796 -0.000000 0.000000
64  -3.274067 -15.341454 -4.433983  1.570796 -0.000000 0.000000
65  0.000000 0.106749 0.631994  0.367463 -0.000000 0.000000
66  0.000000 0.621414 -1.027760  0.000000 -0.000000 0.000000
67  0.000000 0.532204 8.683752  0.000000 -0.000000 0.000000
68  -0.000000 -1.186305 0.340612  0.000000 -0.000000 0.000000
69  0.000000 1.996277 -5.696260  0.000000 -0.000000 0.000000
70  0.000000 0.111713 1.276772  0.000000 -0.000000 0.000000
71  -1.117962 0.703408 5.154791  0.021679 -0.015647 0.000000
72  -3.346308 -14.955638 -7.617660  1.570796 -0.000000 0.000000
73  0.036712 3.547556 -0.615411  -0.000000 0.000000 -0.000000
74  -0.076920 3.276581 -0.615410  -0.000000 0.000000 -0.000000
75  0.045456 3.053679 -0.615411  -0.000000 0.000000 -0.000000
76  -0.000000 1.834484 -0.723263  -0.000000 0.000000 -0.000000
77  -0.000000 1.834484 -0.560888  -0.000000 0.000000 -0.000000
78  -0.000000 1.834484 -0.409514  -0.000000 0.000000 -0.000000
79  -3.085819 -14.993874 -6.906840  1.593314 -0.053389 -0.015666
time 1
0  0.000006 0.000000 0.000000  -1.570800 -1.391899 -1.570792
1  -3.333990 2.359167 1.335070  -1.544956 -1.855077 -0.198630
2  6.027524 -0.000323 0.000194  -0.761255 -0.871574 -1.441342
3  11.692107 0.000643 -0.000740  -0.551982 -0.000015 -1.352108
4  11.480158 0.000039 -0.000836  2.585017 -0.717758 -0.218684
5  3.806285 -0.372255 -1.110992  -0.529793 -0.073810 -1.897370
6  1.312590 0.000014 0.000008  0.103432 -0.025446 -0.129301
7  0.729355 0.000052 0.000050  -0.076005 -0.077877 -0.849610
8  3.942142 0.046273 -0.431512  -0.300837 0.240742 -1.342798
9  1.539109 0.000083 0.000005  0.288969 -0.244282 -1.112656
10  1.196331 0.000149 0.000029  -0.004944 0.004446 -0.737404
11  3.883503 -0.047269 0.431382  -0.156588 0.297040 -1.174330
12  1.719575 -0.000026 0.000015  0.319275 -0.218446 -1.398918
13  1.209180 0.000092 0.000012  0.001029 0.002802 -0.648631
14  3.859661 -0.138476 1.332410  0.084999 0.365849 -0.950111
15  1.719450 -0.000011 0.000022  0.624915 -0.234597 -1.649343
16  1.099675 0.000048 0.000006  0.001249 0.007265 -0.897875
17  0.805995 -0.349050 1.321253  -1.004831 -0.436822 -0.698668
18  1.789820 -0.000004 -0.000017  0.109460 -0.013079 0.104637
19  1.207016 -0.000010 -0.000045  -0.168957 0.349224 1.324858
20  5.740637 0.000410 -0.000701  0.114354 0.000003 0.000071
21  11.481041 0.000213 -0.000825  0.179586 -0.128792 0.022383
22  6.027526 -0.000330 0.000203  1.620697 -0.697823 1.622677
23  0.000001 11.692099 -0.000007  -0.941036 -0.396412 -0.752095
24  0.000003 0.000008 0.000000  0.317109 -0.000031 1.570739
25  -0.000000 -0.000012 -0.000001  0.868957 0.000002 1.570712
26  -4.110751 -3.692282 2.046260  1.473120 1.855075 -0.198639
27  6.027509 -0.000259 -0.000228  1.512423 0.663441 -0.631348
28  11.691992 0.000241 0.000859  0.617935 0.000066 -1.764395
29  11.479998 -0.000071 0.001061  -1.675717 1.043147 0.461880
30  3.840239 -0.256104 1.127580  0.295546 0.139683 -1.669742
31  1.312558 0.000027 -0.000000  0.010552 -0.001809 -0.117851
32  0.729345 0.000065 -0.000027  0.000413 -0.002204 -1.216053
33  3.942047 0.050109 0.430996  0.289854 0.021571 -1.314220
34  1.539098 0.000009 -0.000000  0.003529 -0.030507 -0.899996
35  1.196300 0.000075 -0.000004  0.003213 -0.000660 -1.346235
36  3.883413 -0.050502 -0.431087  0.205962 -0.055410 -1.138183
37  1.719562 -0.000078 -0.000004  -0.025251 0.013579 -1.531538
38  1.209195 0.000034 0.000012  0.025602 -0.125409 -0.740152
39  3.806437 -0.112148 -1.295329  -0.230067 0.065010 -0.768707
40  1.719413 -0.000099 -0.000033  0.043529 0.130594 -1.256461
41  1.099674 0.000023 0.000006  -0.196123 0.130961 -0.868805
42  0.805979 -0.359854 -1.318339  1.328333 0.252814 -0.645919
43  1.789779 -0.000009 -0.000042  0.068853 0.027685 -0.239620
44  1.206998 -0.000007 0.000005  0.004778 0.068187 0.264913
45  5.740571 0.000055 0.000723  0.041855 -0.000014 0.000021
46  11.480943 0.000023 0.000962  -0.058793 0.180462 0.083245
47  6.027514 -0.000273 -0.000237  -0.823188 -0.573951 -1.672452
48  -0.000000 11.691974 -0.000006  -1.184736 0.628462 0.899751
49  0.000004 -0.000002 -0.000000  2.890460 -0.000041 1.570856
50  -0.000006 -0.000015 0.000005  2.272644 -0.000030 1.570865
51  -3.148870 -10.256300 -6.996741  -0.128179 -2.942877 1.085385
52  0.000001 0.000000 0.000001  0.008153 -0.000259 0.000009
53  0.000001 -0.000000 -0.000001  1.565115 0.043565 -0.106862
54  -1.505898 -17.518929 -7.394517  0.475109 -0.497842 -1.540739
55  -0.000001 -0.000001 0.000001  0.000000 -0.000000 -0.000002
56  0.000029 0.000029 0.000002  -1.571901 -0.044449 -0.106509
57  8.802561 -11.771522 -19.009918  1.570796 -0.000000 0.000000
58  -15.265000 7.133661 -18.583086  1.570796 -0.000000 0.000000
59  1.339387 -1.728622 -3.701813  1.570796 -0.000000 0.000000
60  -0.004311 0.001230 -0.000371  0.006898 -0.005534 -0.284229
61  2.046263 4.364841 -3.388127  1.570796 -0.000000 0.000000
62  0.000000 0.000000 0.000000  -0.078727 -3.136056 0.284226
63  0.000000 0.000000 0.000000  1.570796 -0.000000 0.000000
64  -3.379840 -14.178553 -4.409157  1.558090 -0.066137 0.021526
65  0.000000 0.106750 0.631994  0.365752 -0.000000 0.000000
66  0.000001 0.621415 -4.027760  -0.000000 -0.000000 0.000000
67  0.000001 0.532204 8.683752  -0.000000 -0.000000 0.000000
68  0.000000 -1.186305 0.340613  -0.000000 -0.000000 0.000000
69  0.000000 1.996278 -5.696260  -0.000000 -0.000000 0.000000
70  0.000000 0.111714 1.276773  -0.140442 -0.000000 0.000000
71  -1.117961 0.703409 5.154791  0.021679 -0.015647 -0.000000
72  -3.248675 -13.830317 -7.595283  1.558090 -0.066137 0.021526
73  0.036713 3.547557 -0.615412  -0.000000 -0.000000 0.000000
74  -0.076920 3.276582 -0.615411  -0.000000 -0.000000 0.000000
75  0.045456 3.053680 -0.615412  -0.000000 -0.000000 0.000000
76  0.000000 1.834485 -0.723264  -0.000000 -0.000000 0.000000
77  0.000000 1.834484 -0.560889  -0.000000 -0.000000 0.000000
78  0.000000 1.834485 -0.409516  -0.000000 -0.000000 0.000000
79  -3.035182 -13.854930 -6.868374  1.581588 -0.119714 0.006454
time 2
0  0.000006 0.000000 0.000000  -1.570800 -1.391899 -1.570792
1  -3.333990 2.359167 1.335070  -1.544956 -1.855077 -0.198630
2  6.027525 -0.000323 0.000193  -0.740117 -0.887764 -1.468653
3  11.692109 0.000643 -0.000741  -0.551980 -0.000013 -1.307839
4  11.480459 0.000181 -0.000751  2.546845 -0.717080 -0.259641
5  3.806285 -0.372254 -1.110992  -0.529793 -0.073810 -1.897370
6  1.312590 0.000008 0.000007  0.103432 -0.025446 -0.129301
7  0.729355 0.000053 0.000049  -0.076005 -0.077877 -0.849610
8  3.942143 0.046274 -0.431513  -0.300837 0.240743 -1.342798
9  1.539112 0.000084 0.000005  0.288969 -0.244282 -1.112656
10  1.196333 0.000146 0.000029  -0.004944 0.004446 -0.737404
11  3.883504 -0.047268 0.431382  -0.156588 0.297040 -1.174330
12  1.719574 -0.000027 0.000015  0.319275 -0.218446 -1.398918
13  1.209178 0.000090 0.000011  0.001029 0.002802 -0.648631
14  3.859662 -0.138474 1.332410  0.084999 0.365849 -0.950111
15  1.719450 -0.000012 0.000021  0.624915 -0.234597 -1.649343
16  1.099672 0.000050 0.000004  0.001249 0.007265 -0.897875
17  0.805995 -0.349049 1.321253  -1.004831 -0.436822 -0.698668
18  1.789821 -0.000003 -0.000018  0.109460 -0.013079 0.104637
19  1.207014 -0.000011 -0.000044  -0.168957 0.349224 1.324858
20  5.740637 0.000408 -0.000705  0.105215 0.000003 0.000071
21  11.481101 0.000240 -0.000809  0.170545 -0.131266 0.011866
22  6.027526 -0.000330 0.000203  1.601929 -0.682520 1.623604
23  0.000002 11.692099 -0.000008  -0.914171 -0.373544 -0.733603
24  0.000003 0.000008 -0.000004  0.317109 -0.000031 1.570738
25  -0.000000 -0.000011 -0.000001  0.868957 0.000002 1.570712
26  -4.110751 -3.692282 2.046260  1.473120 1.855075 -0.198639
27  6.027509 -0.000259 -0.000228  1.518890 0.674136 -0.627150
28  11.691991 0.000242 0.000856  0.617935 0.000064 -1.736524
29  11.480253 0.000066 0.000964  -1.782260 1.028968 0.375158
30  3.840238 -0.256104 1.127581  0.295546 0.139683 -1.669741
31  1.312558 0.000026 0.000000  0.010552 -0.001809 -0.117851
32  0.729345 0.000066 -0.000028  0.000413 -0.002204 -1.216053
33  3.942046 0.050109 0.430997  0.289854 0.021571 -1.314219
34  1.539096 0.000010 -0.000000  0.003529 -0.030507 -0.899996
35  1.196299 0.000076 -0.000003  0.003213 -0.000660 -1.346235
36  3.883411 -0.050502 -0.431086  0.205962 -0.055410 -1.138183
37  1.719564 -0.000079 -0.000003  -0.025251 0.013579 -1.531538
38  1.209197 0.000036 0.000010  0.025602 -0.125409 -0.740152
39  3.806435 -0.112147 -1.295329  -0.155950 0.037824 -0.657740
40  1.719409 -0.000099 -0.000034  0.025340 0.076965 -1.359089
41  1.099673 0.000025 0.000007  -0.108737 0.080056 -0.781627
42  0.805979 -0.359854 -1.318338  1.328333 0.252814 -0.645919
43  1.789780 -0.000009 -0.000042  0.068853 0.027685 -0.239620
44  1.206997 -0.000006 0.000005  0.004778 0.068187 0.264913
45  5.740571 0.000056 0.000725  0.027073 -0.000014 0.000021
46  11.480994 0.000049 0.000942  -0.069299 0.175922 0.078153
47  6.027514 -0.000273 -0.000237  -0.831099 -0.564168 -1.668001
48  -0.000002 11.691973 -0.000006  -1.168387 0.611849 0.891259
49  0.000003 -0.000000 0.000000  2.890460 -0.000041 1.570856
50  -0.000006 -0.000015 0.000005  2.272644 -0.000030 1.570865
51  -3.231532 -10.507679 -7.013200  -0.170272 -2.905844 1.085594
52  0.000001 0.000000 0.000000  0.008153 -0.000259 0.000009
53  -0.000000 -0.000001 0.000000  1.565115 0.043565 -0.106862
54  -1.674031 -17.789808 -7.398064  0.413296 -0.509238 -1.519771
55  0.000000 -0.000000 0.000001  0.000000 -0.000000 -0.000002
56  0.000031 0.000029 0.000002  -1.571901 -0.044449 -0.106509
57  8.802561 -11.771522 -19.009918  1.570796 -0.000000 0.000000
58  -15.265000 7.133661 -18.583086  1.570796 -0.000000 0.000000
59  1.339387 -1.728622 -3.701813  1.570796 -0.000000 0.000000
60  -0.004311 0.001230 -0.000371  0.006898 -0.005534 -0.284229
61  2.046263 4.364841 -3.388127  1.570796 -0.000000 0.000000
62  0.000000 0.000000 0.000000  -0.078727 -3.136056 0.284226
63  0.000000 0.000000 0.000000  1.570796 -0.000000 0.000000
64  -3.356619 -14.392788 -4.363053  1.545437 -0.012276 0.013156
65  -0.000000 0.106749 0.631994  0.354101 -0.000000 -0.000000
66  -0.000000 0.621414 -3.753305  -0.000000 -0.000000 -0.000000
67  0.000001 0.532204 8.683750  -0.000000 -0.000000 -0.000000
68  -0.000000 -1.186305 0.340612  -0.000000 -0.000000 -0.000000
69  0.000000 1.996277 -5.696261  -0.000000 -0.000000 -0.000000
70  0.000000 0.111713 1.276771  -0.280884 -0.000000 -0.000000
71  -1.117962 0.703408 5.154790  0.021679 -0.015647 0.000000
72  -3.393673 -14.088284 -7.556136  1.545437 -0.012276 0.013156
73  0.036712 3.547556 -0.615410  -0.000000 0.000000 0.000000
74  -0.076920 3.276580 -0.615410  -0.000000 0.000000 0.000000
75  0.045456 3.053679 -0.615411  -0.000000 0.000000 0.000000
76  -0.000000 1.834484 -0.723263  -0.000000 0.000000 0.000000
77  -0.000000 1.834484 -0.560888  -0.000000 0.000000 0.000000
78  -0.000000 1.834484 -0.409515  -0.000000 0.000000 0.000000
79  -3.141695 -14.105171 -6.841431  1.568097 -0.066045 -0.001160
time 3
0  0.000006 0.000000 0.000000  -1.570800 -1.391899 -1.570792
1  -3.333990 2.359167 1.335070  -1.544956 -1.855077 -0.198630
2  6.027525 -0.000323 0.000193  -0.714063 -0.909747 -1.505701
3  11.692110 0.000643 -0.000740  -0.551976 -0.000009 -1.235732
4  11.480038 0.000043 -0.000834  2.479690 -0.711444 -0.279983
5  3.806287 -0.372255 -1.110992  -0.529793 -0.073810 -1.897370
6  1.312591 0.000009 0.000008  0.103432 -0.025446 -0.129301
7  0.729355 0.000053 0.000049  -0.076005 -0.077877 -0.849610
8  3.942142 0.046273 -0.431512  -0.300837 0.240743 -1.342798
9  1.539112 0.000084 0.000004  0.288969 -0.244282 -1.112656
10  1.196335 0.000144 0.000030  -0.004944 0.004446 -0.737404
11  3.883505 -0.047269 0.431381  -0.156588 0.297040 -1.174330
12  1.719572 -0.000026 0.000014  0.319275 -0.218446 -1.398918
13  1.209178 0.000091 0.000013  0.001029 0.002802 -0.648631
14  3.859664 -0.138476 1.332408  0.084999 0.365849 -0.950111
15  1.719449 -0.000012 0.000022  0.624915 -0.234597 -1.649343
16  1.099674 0.000050 0.000005  0.001249 0.007265 -0.897875
17  0.805994 -0.349050 1.321254  -1.004831 -0.436822 -0.698668
18  1.789820 -0.000004 -0.000018  0.109460 -0.013079 0.104637
19  1.207015 -0.000012 -0.000044  -0.168957 0.349224 1.324858
20  5.740637 0.000411 -0.000703  0.096414 0.000003 0.000071
21  11.481015 0.000214 -0.000825  0.157739 -0.131042 0.002484
22  6.027526 -0.000330 0.000203  1.580306 -0.661075 1.620405
23  0.000001 11.692099 -0.000008  -0.869941 -0.337313 -0.702435
24  0.000002 0.000008 -0.000000  0.317109 -0.000030 1.570739
25  -0.000001 -0.000011 -0.000001  0.868957 0.000002 1.570712
26  -4.110751 -3.692282 2.046260  1.473120 1.855075 -0.198639
27  6.027509 -0.000259 -0.000227  1.526946 0.702706 -0.622244
28  11.691990 0.000243 0.000856  0.617934 0.000061 -1.686831
29  11.478844 -0.000557 0.001407  -1.863443 1.013687 0.329115
30  3.840240 -0.256104 1.127580  0.295546 0.139683 -1.669742
31  1.312558 0.000025 0.000000  0.010552 -0.001809 -0.117851
32  0.729346 0.000067 -0.000027  0.000413 -0.002203 -1.216053
33  3.942047 0.050108 0.430996  0.289854 0.021571 -1.314220
34  1.539096 0.000009 0.000000  0.003529 -0.030507 -0.899996
35  1.196299 0.000076 -0.000004  0.003213 -0.000660 -1.346235
36  3.883413 -0.050503 -0.431088  0.205962 -0.055410 -1.138183
37  1.719563 -0.000078 -0.000005  -0.025251 0.013579 -1.531538
38  1.209197 0.000036 0.000010  0.025602 -0.125409 -0.740152
39  3.806436 -0.112149 -1.295329  -0.085344 0.002687 -0.549142
40  1.719411 -0.000100 -0.000035  0.012788 0.021774 -1.460453
41  1.099673 0.000024 0.000007  -0.026345 0.021982 -0.699455
42  0.805979 -0.359854 -1.318338  1.328334 0.252814 -0.645919
43  1.789779 -0.000010 -0.000043  0.068853 0.027685 -0.239620
44  1.206997 -0.000007 0.000005  0.004778 0.068187 0.264913
45  5.740572 0.000057 0.000725  0.012260 -0.000014 0.000021
46  11.480713 -0.000075 0.001031  -0.079027 0.171557 0.077562
47  6.027514 -0.000273 -0.000237  -0.856296 -0.544270 -1.654953
48  -0.000001 11.691974 -0.000007  -1.139270 0.582518 0.875548
49  0.000003 -0.000001 -0.000001  2.890460 -0.000041 1.570856
50  -0.000007 -0.000015 0.000005  2.272644 -0.000030 1.570865
51  -3.261415 -10.953178 -6.952744  -0.224346 -2.889748 1.083007
52  0.000001 -0.000000 0.000001  0.008153 -0.000259 0.000009
53  0.000001 -0.000001 -0.000000  1.565115 0.043565 -0.106862
54  -1.842923 -18.253817 -7.493031  0.352561 -0.495826 -1.506154
55  -0.000000 0.000000 0.000000  0.000000 -0.000000 -0.000002
56  0.000030 0.000029 0.000002  -1.571901 -0.044449 -0.106509
57  8.802561 -11.771522 -19.009918  1.570796 -0.000000 0.000000
58  -15.265000 7.133661 -18.583086  1.570796 -0.000000 0.000000
59  1.339387 -1.728622 -3.701813  1.570796 -0.000000 0.000000
60  -0.004311 0.001230 -0.000371  0.006898 -0.005534 -0.284229
61  2.046263 4.364841 -3.388127  1.570796 -0.000000 0.000000
62  0.000000 0.000000 0.000000  -0.078727 -3.136056 0.284226
63  0.000000 0.000000 0.000000  1.570796 -0.000000 0.000000
64  -3.305532 -14.864107 -4.338228  1.556037 0.041578 -0.002332
65  0.000000 0.106749 0.631994  0.322726 0.000000 -0.000000
66  -0.000000 0.621414 -3.753307  -0.000000 0.000000 -0.000000
67  0.000000 0.532204 8.683752  -0.000000 0.000000 -0.000000
68  -0.000000 -1.186305 0.340612  -0.000000 0.000000 -0.000000
69  -0.000000 1.996276 -5.696260  -0.000000 0.000000 -0.000000
70  0.000000 0.111714 1.276770  -0.280884 -0.000000 -0.000000
71  -1.117961 0.703408 5.154789  0.021679 -0.015647 -0.000000
72  -3.509474 -14.524844 -7.521493  1.556037 0.041578 -0.002332
73  0.036712 3.547556 -0.615410  -0.000000 -0.000000 0.000000
74  -0.076920 3.276580 -0.615409  -0.000000 -0.000000 0.000000
75  0.045456 3.053679 -0.615410  -0.000000 -0.000000 0.000000
76  -0.000000 1.834484 -0.723264  -0.000000 -0.000000 0.000000
77  -0.000000 1.834484 -0.560888  -0.000000 -0.000000 0.000000
78  0.000000 1.834484 -0.409515  -0.000000 -0.000000 0.000000
79  -3.219710 -14.553263 -6.821629  1.577917 -0.012042 -0.017187
time 4
0  0.000006 0.000000 0.000000  -1.570800 -1.391899 -1.570792
1  -3.333990 2.359167 1.335070  -1.544956 -1.855077 -0.198630
2  6.027525 -0.000323 0.000193  -0.713828 -0.925069 -1.522048
3  11.692111 0.000644 -0.000740  -0.551974 -0.000006 -1.183637
4  11.480289 0.000149 -0.000772  2.460087 -0.679950 -0.264698
5  3.806288 -0.372256 -1.110992  -0.529793 -0.073810 -1.897370
6  1.312589 0.000013 0.000008  0.103432 -0.025446 -0.129301
7  0.729355 0.000051 0.000050  -0.076004 -0.077877 -0.849610
8  3.942143 0.046273 -0.431511  -0.300837 0.240743 -1.342798
9  1.539110 0.000086 0.000006  0.288969 -0.244282 -1.112656
10  1.196332 0.000146 0.000029  -0.004944 0.004446 -0.737404
11  3.883506 -0.047269 0.431382  -0.156588 0.297040 -1.174330
12  1.719572 -0.000027 0.000014  0.319275 -0.218446 -1.398918
13  1.209178 0.000092 0.000013  0.001029 0.002802 -0.648631
14  3.859663 -0.138475 1.332411  0.084999 0.365849 -0.950111
15  1.719448 -0.000011 0.000022  0.624915 -0.234597 -1.649343
16  1.099675 0.000049 0.000005  0.001249 0.007265 -0.897875
17  0.805995 -0.349051 1.321253  -1.004831 -0.436822 -0.698668
18  1.789819 -0.000001 -0.000018  0.109460 -0.013079 0.104637
19  1.207015 -0.000011 -0.000044  -0.168957 0.349224 1.324858
20  5.740637 0.000412 -0.000704  0.102132 0.000003 0.000070
21  11.481067 0.000236 -0.000814  0.156747 -0.124106 0.001309
22  6.027526 -0.000330 0.000203  1.579832 -0.645757 1.604534
23  0.000001 11.692100 -0.000008  -0.837589 -0.311964 -0.679119
24  0.000002 0.000008 -0.000001  0.317109 -0.000031 1.570739
25  -0.000001 -0.000011 -0.000001  0.868957 0.000002 1.570712
26  -4.110751 -3.692282 2.046260  1.473120 1.855075 -0.198639
27  6.027510 -0.000259 -0.000227  1.523532 0.735223 -0.625800
28  11.691991 0.000243 0.000858  0.617933 0.000057 -1.638075
29  11.479270 -0.000364 0.001270  -1.830523 1.016070 0.354121
30  3.840238 -0.256104 1.127581  0.295546 0.139683 -1.669742
31  1.312558 0.000026 0.000000  0.010552 -0.001809 -0.117851
32  0.729345 0.000064 -0.000028  0.000413 -0.002204 -1.216053
33  3.942046 0.050108 0.430998  0.289854 0.021571 -1.314219
34  1.539097 0.000009 -0.000000  0.003529 -0.030507 -0.899996
35  1.196300 0.000075 -0.000004  0.003213 -0.000660 -1.346235
36  3.883411 -0.050502 -0.431086  0.205962 -0.055410 -1.138183
37  1.719563 -0.000079 -0.000003  -0.025251 0.013579 -1.531538
38  1.209198 0.000035 0.000011  0.025602 -0.125409 -0.740152
39  3.806435 -0.112149 -1.295328  -0.059568 -0.012643 -0.508518
40  1.719411 -0.000100 -0.000036  0.009490 0.000462 -1.498854
41  1.099673 0.000025 0.000007  0.003697 -0.001836 -0.669499
42  0.805979 -0.359854 -1.318337  1.328333 0.252814 -0.645919
43  1.789779 -0.000009 -0.000043  0.068853 0.027685 -0.239620
44  1.206996 -0.000007 0.000005  0.004778 0.068187 0.264913
45  5.740572 0.000056 0.000725  0.013044 -0.000014 0.000021
46  11.480799 -0.000037 0.001003  -0.075435 0.172372 0.078950
47  6.027514 -0.000273 -0.000237  -0.890155 -0.529524 -1.638939
48  -0.000000 11.691973 -0.000006  -1.110700 0.554118 0.859446
49  0.000004 -0.000001 -0.000001  2.890460 -0.000041 1.570856
50  -0.000007 -0.000015 0.000005  2.272644 -0.000030 1.570865
51  -3.140572 -11.374582 -6.913918  -0.220087 -2.914228 1.074228
52  0.000002 -0.000001 -0.000001  0.008153 -0.000259 0.000009
53  -0.000000 -0.000000 0.000001  1.565115 0.043565 -0.106862
54  -1.769635 -18.674253 -7.576218  0.370997 -0.477095 -1.522541
55  -0.000000 -0.000001 -0.000000  0.000000 -0.000000 -0.000002
56  0.000031 0.000028 0.000000  -1.571901 -0.044449 -0.106509
57  8.802561 -11.771522 -19.009918  1.570796 -0.000000 0.000000
58  -15.265000 7.133661 -18.583086  1.570796 -0.000000 0.000000
59  1.339387 -1.728622 -3.701813  1.570796 -0.000000 0.000000
60  -0.004311 0.001230 -0.000371  0.006898 -0.005534 -0.284229
61  2.046263 4.364841 -3.388127  1.570796 -0.000000 0.000000
62  0.000000 0.000000 0.000000  -0.078727 -3.136056 0.284226
63  0.000000 0.000000 0.000000  1.570796 -0.000000 0.000000
64  -3.254446 -15.335426 -4.377829  1.575757 0.026478 -0.009428
65  -0.000000 0.106749 0.631994  0.261799 0.000000 0.000000
66  0.000000 0.621414 -3.753307  0.000000 0.000000 0.000000
67  0.000001 0.532204 8.683752  0.000000 0.000000 0.000000
68  -0.000000 -1.186305 0.340612  0.000000 0.000000 0.000000
69  -0.000000 1.996277 -5.696261  0.000000 0.000000 0.000000
70  0.000000 0.111714 1.276770  -0.280884 -0.000000 -0.000000
71  -1.117961 0.703408 5.154789  0.021679 -0.015647 -0.000000
72  -3.407104 -14.932365 -7.556524  1.575757 0.026478 -0.009428
73  0.036713 3.547557 -0.615412  0.000000 0.000000 -0.000000
74  -0.076920 3.276582 -0.615409  0.000000 0.000000 -0.000000
75  0.045457 3.053680 -0.615411  0.000000 0.000000 -0.000000
76  0.000000 1.834484 -0.723263  0.000000 0.000000 -0.000000
77  0.000001 1.834484 -0.560888  0.000000 0.000000 -0.000000
78  0.000000 1.834485 -0.409515  0.000000 0.000000 -0.000000
79  -3.128299 -14.976758 -6.853048  1.597859 -0.026836 -0.025342
time 5
0  0.000006 0.000000 0.000000  -1.570800 -1.391899 -1.570792
1  -3.333990 2.359167 1.335070  -1.544956 -1.855077 -0.198630
2  6.027525 -0.000323 0.000193  -0.724231 -0.928654 -1.519887
3  11.692111 0.000642 -0.000740  -0.551973 -0.000006 -1.167121
4  11.480381 0.000184 -0.000745  2.471550 -0.660129 -0.252935
5  3.806288 -0.372255 -1.110991  -0.529793 -0.073810 -1.897370
6  1.312590 0.000010 0.000007  0.103432 -0.025446 -0.129301
7  0.729355 0.000059 0.000050  -0.076005 -0.077877 -0.849610
8  3.942144 0.046273 -0.431511  -0.300837 0.240743 -1.342798
9  1.539112 0.000084 0.000005  0.288969 -0.244282 -1.112656
10  1.196331 0.000146 0.000029  -0.004944 0.004446 -0.737404
11  3.883508 -0.047269 0.431382  -0.156588 0.297040 -1.174330
12  1.719573 -0.000026 0.000016  0.319275 -0.218446 -1.398918
13  1.209181 0.000091 0.000011  0.001029 0.002802 -0.648631
14  3.859664 -0.138475 1.332411  0.084999 0.365849 -0.950111
15  1.719450 -0.000011 0.000022  0.624915 -0.234597 -1.649343
16  1.099677 0.000049 0.000007  0.001249 0.007265 -0.897875
17  0.805994 -0.349050 1.321255  -1.004831 -0.436822 -0.698668
18  1.789821 -0.000004 -0.000018  0.109460 -0.013079 0.104637
19  1.207013 -0.000011 -0.000043  -0.168957 0.349224 1.324858
20  5.740635 0.000408 -0.000704  0.109312 0.000003 0.000071
21  11.481084 0.000240 -0.000808  0.160456 -0.119780 0.002758
22  6.027526 -0.000330 0.000203  1.587543 -0.642039 1.593746
23  0.000001 11.692099 -0.000007  -0.827259 -0.304079 -0.671589
24  0.000003 0.000008 -0.000001  0.317109 -0.000031 1.570739
25  -0.000001 -0.000011 0.000000  0.868957 0.000002 1.570712
26  -4.110751 -3.692282 2.046260  1.473120 1.855075 -0.198639
27  6.027510 -0.000259 -0.000227  1.517752 0.748940 -0.630668
28  11.691992 0.000244 0.000857  0.617933 0.000055 -1.615190
29  11.479428 -0.000297 0.001221  -1.781861 1.015955 0.381660
30  3.840239 -0.256104 1.127581  0.295546 0.139683 -1.669742
31  1.312558 0.000025 0.000000  0.010552 -0.001809 -0.117851
32  0.729345 0.000066 -0.000027  0.000413 -0.002204 -1.216053
33  3.942046 0.050109 0.430996  0.289854 0.021571 -1.314220
34  1.539098 0.000010 0.000001  0.003529 -0.030507 -0.899996
35  1.196299 0.000074 -0.000005  0.003213 -0.000660 -1.346235
36  3.883411 -0.050502 -0.431087  0.205962 -0.055410 -1.138183
37  1.719562 -0.000080 -0.000003  -0.025251 0.013579 -1.531538
38  1.209196 0.000036 0.000011  0.025602 -0.125409 -0.740152
39  3.806435 -0.112149 -1.295329  -0.059607 0.003204 -0.512042
40  1.719412 -0.000100 -0.000035  0.010952 0.008928 -1.408323
41  1.099673 0.000022 0.000007  -0.001114 0.001738 -0.674340
42  0.805979 -0.359854 -1.318339  1.328334 0.252814 -0.645919
43  1.789780 -0.000009 -0.000042  0.068853 0.027685 -0.239620
44  1.206998 -0.000006 0.000005  0.004778 0.068187 0.264913
45  5.740573 0.000055 0.000724  0.017391 -0.000014 0.000021
46  11.480831 -0.000023 0.000994  -0.069380 0.173190 0.079262
47  6.027514 -0.000273 -0.000237  -0.906211 -0.525796 -1.631817
48  -0.000001 11.691973 -0.000006  -1.097277 0.540925 0.851658
49  0.000002 -0.000001 -0.000001  2.890460 -0.000041 1.570856
50  -0.000006 -0.000015 0.000005  2.272644 -0.000030 1.570865
51  -3.059236 -11.562248 -6.942146  -0.199847 -2.936777 1.073057
52  0.000000 -0.000000 0.000000  0.008153 -0.000259 0.000009
53  -0.000000 0.000000 -0.000001  1.565115 0.043565 -0.106862
54  -1.646037 -18.850437 -7.641074  0.403057 -0.467910 -1.533964
55  0.000002 0.000000 -0.000000  0.000000 -0.000000 -0.000002
56  0.000031 0.000029 0.000000  -1.571901 -0.044449 -0.106509
57  8.802561 -11.771522 -19.009918  1.570796 -0.000000 0.000000
58  -15.265000 7.133661 -18.583086  1.570796 -0.000000 0.000000
59  1.339387 -1.728622 -3.701813  1.570796 -0.000000 0.000000
60  -0.004311 0.001230 -0.000371  0.006898 -0.005534 -0.284229
61  2.046263 4.364841 -3.388127  1.570796 -0.000000 0.000000
62  0.000000 0.000000 0.000000  -0.078727 -3.136056 0.284226
63  0.000000 0.000000 0.000000  1.570796 -0.000000 0.000000
64  -3.231224 -15.549662 -4.451373  1.586366 -0.001571 -0.006127
65  0.000000 0.106750 0.631995  0.111175 0.000000 0.000000
66  0.000000 0.621415 -3.753306  0.000000 0.000000 0.000000
67  0.000001 0.532204 8.683753  0.000000 0.000000 0.000000
68  0.000000 -1.186304 0.340613  0.000000 0.000000 0.000000
69  0.000000 1.996278 -5.696261  0.000000 0.000000 0.000000
70  -0.000000 0.111714 1.276770  -0.280884 -0.000000 -0.000000
71  -1.117962 0.703409 5.154792  0.021679 -0.015647 -0.000000
72  -3.295805 -15.113922 -7.628767  1.586366 -0.001571 -0.006127
73  0.036713 3.547557 -0.615411  0.000000 -0.000000 -0.000000
74  -0.076920 3.276581 -0.615409  0.000000 -0.000000 -0.000000
75  0.045456 3.053679 -0.615410  0.000000 -0.000000 -0.000000
76  0.000000 1.834485 -0.723263  0.000000 -0.000000 -0.000000
77  0.000000 1.834484 -0.560888  0.000000 -0.000000 -0.000000
78  0.000000 1.834485 -0.409514  0.000000 -0.000000 -0.000000
79  -3.036740 -15.164810 -6.918220  1.608929 -0.054710 -0.022624
time 6
0  0.000006 0.000000 0.000000  -1.570800 -1.391899 -1.570792
1  -3.333990 2.359167 1.335070  -1.544956 -1.855077 -0.198630
2  6.027525 -0.000323 0.000193  -0.732293 -0.925666 -1.512285
3  11.692112 0.000642 -0.000740  -0.551973 -0.000006 -1.174982
4  11.480335 0.000168 -0.000758  2.489419 -0.656906 -0.252627
5  3.806288 -0.372255 -1.110992  -0.529793 -0.073810 -1.897370
6  1.312590 0.000012 0.000007  0.103432 -0.025446 -0.129301
7  0.729355 0.000054 0.000050  -0.076004 -0.077877 -0.849610
8  3.942142 0.046273 -0.431511  -0.300837 0.240743 -1.342798
9  1.539111 0.000084 0.000004  0.288969 -0.244282 -1.112656
10  1.196333 0.000144 0.000029  -0.004944 0.004446 -0.737404
11  3.883503 -0.047269 0.431382  -0.156588 0.297040 -1.174330
12  1.719572 -0.000028 0.000014  0.319275 -0.218446 -1.398918
13  1.209181 0.000091 0.000010  0.001029 0.002802 -0.648631
14  3.859662 -0.138475 1.332410  0.084999 0.365849 -0.950111
15  1.719449 -0.000012 0.000022  0.624915 -0.234597 -1.649343
16  1.099676 0.000048 0.000006  0.001249 0.007265 -0.897875
17  0.805993 -0.349050 1.321253  -1.004831 -0.436822 -0.698668
18  1.789819 -0.000005 -0.000017  0.109460 -0.013079 0.104637
19  1.207018 -0.000010 -0.000044  -0.168957 0.349224 1.324858
20  5.740636 0.000410 -0.000703  0.112686 0.000003 0.000071
21  11.481076 0.000239 -0.000811  0.163886 -0.119297 0.003839
22  6.027526 -0.000330 0.000203  1.593710 -0.644865 1.591199
23  0.000001 11.692099 -0.000008  -0.832180 -0.307823 -0.675181
24  0.000002 0.000008 -0.000003  0.317109 -0.000031 1.570739
25  -0.000001 -0.000011 -0.000001  0.868957 0.000002 1.570712
26  -4.110751 -3.692282 2.046260  1.473120 1.855075 -0.198639
27  6.027510 -0.000259 -0.000227  1.514715 0.745970 -0.632894
28  11.691992 0.000243 0.000857  0.617933 0.000055 -1.616733
29  11.479416 -0.000300 0.001224  -1.761627 1.013960 0.386204
30  3.840240 -0.256103 1.127580  0.295546 0.139683 -1.669742
31  1.312558 0.000025 -0.000001  0.010552 -0.001809 -0.117850
32  0.729345 0.000064 -0.000026  0.000413 -0.002204 -1.216053
33  3.942049 0.050109 0.430996  0.289854 0.021571 -1.314220
34  1.539097 0.000010 -0.000001  0.003529 -0.030507 -0.899996
35  1.196299 0.000076 -0.000004  0.003213 -0.000660 -1.346235
36  3.883412 -0.050501 -0.431088  0.205962 -0.055410 -1.138183
37  1.719562 -0.000079 -0.000004  -0.025251 0.013579 -1.531538
38  1.209196 0.000035 0.000011  0.025602 -0.125409 -0.740152
39  3.806436 -0.112148 -1.295328  -0.060703 0.037698 -0.519711
40  1.719413 -0.000100 -0.000034  0.017588 0.030145 -1.213545
41  1.099673 0.000025 0.000006  -0.015933 0.012737 -0.688823
42  0.805980 -0.359854 -1.318339  1.328333 0.252814 -0.645919
43  1.789779 -0.000009 -0.000042  0.068853 0.027685 -0.239620
44  1.206996 -0.000007 0.000005  0.004778 0.068187 0.264913
45  5.740572 0.000056 0.000723  0.020140 -0.000014 0.000021
46  11.480828 -0.000024 0.000994  -0.066303 0.173320 0.078148
47  6.027514 -0.000273 -0.000237  -0.904709 -0.529275 -1.632734
48  -0.000001 11.691974 -0.000006  -1.098183 0.541811 0.852188
49  0.000004 -0.000001 -0.000001  2.890460 -0.000041 1.570856
50  -0.000006 -0.000016 0.000005  2.272644 -0.000030 1.570865
51  -3.052743 -11.543211 -6.990331  -0.184920 -2.941473 1.076262
52  0.000001 0.000001 -0.000000  0.008153 -0.000259 0.000009
53  0.000002 0.000000 -0.000001  1.565115 0.043565 -0.106862
54  -1.584104 -18.824373 -7.646890  0.419857 -0.471284 -1.535361
55  -0.000003 0.000001 0.000000  0.000000 -0.000000 -0.000002
56  0.000029 0.000029 0.000001  -1.571901 -0.044449 -0.106509
57  8.802561 -11.771522 -19.009918  1.570796 -0.000000 0.000000
58  -15.265000 7.133661 -18.583086  1.570796 -0.000000 0.000000
59  1.339387 -1.728622 -3.701813  1.570796 -0.000000 0.000000
60  -0.004311 0.001230 -0.000371  0.006898 -0.005534 -0.284229
61  2.046263 4.364841 -3.388127  1.570796 -0.000000 0.000000
62  0.000000 0.000000 0.000000  -0.078727 -3.136056 0.284226
63  0.000000 0.000000 0.000000  1.570796 -0.000000 0.000000
64  -3.237664 -15.524670 -4.490974  1.583581 -0.016673 0.000105
65  -0.000000 0.106750 0.631997  0.000000 -0.000000 -0.000000
66  -0.000000 0.621414 -3.753305  0.000000 -0.000000 -0.000000
67  0.000000 0.532204 8.683755  0.000000 -0.000000 -0.000000
68  -0.000000 -1.186306 0.340613  0.000000 -0.000000 -0.000000
69  -0.000000 1.996277 -5.696259  0.000000 -0.000000 -0.000000
70  -0.000000 0.111713 1.276772  -0.280884 -0.000000 -0.000000
71  -1.117962 0.703408 5.154793  0.021679 -0.015647 -0.000000
72  -3.256947 -15.098186 -7.670221  1.583581 -0.016673 0.000105
73  0.036712 3.547556 -0.615411  0.000000 -0.000000 -0.000000
74  -0.076920 3.276581 -0.615410  0.000000 -0.000000 -0.000000
75  0.045456 3.053680 -0.615411  0.000000 -0.000000 -0.000000
76  -0.000000 1.834484 -0.723264  0.000000 -0.000000 -0.000000
77  -0.000000 1.834484 -0.560888  0.000000 -0.000000 -0.000000
78  -0.000000 1.834484 -0.409514  0.000000 -0.000000 -0.000000
79  -3.008332 -15.145480 -6.955704  1.606388 -0.069856 -0.016260
time 7
0  0.000006 0.000000 0.000000  -1.570800 -1.391899 -1.570792
1  -3.333990 2.359167 1.335070  -1.544956 -1.855077 -0.198630
2  6.027525 -0.000323 0.000193  -0.731373 -0.924546 -1.511648
3  11.692111 0.000644 -0.000740  -0.551973 -0.000006 -1.180522
4  11.480308 0.000155 -0.000765  2.494204 -0.662085 -0.260071
5  3.806291 -0.372256 -1.110995  -0.529793 -0.073810 -1.897370
6  1.312590 0.000009 0.000008  0.103432 -0.025446 -0.129301
7  0.729354 0.000055 0.000049  -0.076005 -0.077877 -0.849610
8  3.942143 0.046273 -0.431511  -0.300837 0.240743 -1.342798
9  1.539112 0.000084 0.000004  0.288969 -0.244282 -1.112656
10  1.196333 0.000148 0.000029  -0.004944 0.004446 -0.737404
11  3.883505 -0.047269 0.431381  -0.156588 0.297040 -1.174330
12  1.719574 -0.000026 0.000014  0.319275 -0.218446 -1.398918
13  1.209179 0.000091 0.000011  0.001029 0.002802 -0.648631
14  3.859663 -0.138476 1.332409  0.084999 0.365849 -0.950111
15  1.719448 -0.000010 0.000022  0.624915 -0.234597 -1.649343
16  1.099674 0.000048 0.000007  0.001249 0.007265 -0.897875
17  0.805995 -0.349051 1.321253  -1.004831 -0.436822 -0.698668
18  1.789818 -0.000006 -0.000018  0.109460 -0.013079 0.104637
19  1.207016 -0.000012 -0.000044  -0.168957 0.349224 1.324858
20  5.740637 0.000410 -0.000701  0.111698 0.000003 0.000071
21  11.481071 0.000235 -0.000811  0.164111 -0.120773 0.003221
22  6.027526 -0.000330 0.000203  1.593070 -0.646006 1.592955
23  0.000001 11.692100 -0.000008  -0.835644 -0.310472 -0.677704
24  0.000002 0.000008 -0.000002  0.317109 -0.000030 1.570739
25  -0.000000 -0.000011 -0.000001  0.868957 0.000002 1.570712
26  -4.110751 -3.692282 2.046260  1.473120 1.855075 -0.198639
27  6.027510 -0.000259 -0.000227  1.516326 0.740920 -0.631478
28  11.691992 0.000243 0.000858  0.617933 0.000056 -1.622001
29  11.479379 -0.000320 0.001234  -1.772330 1.009561 0.373807
30  3.840239 -0.256104 1.127580  0.295546 0.139683 -1.669742
31  1.312558 0.000025 0.000000  0.010552 -0.001809 -0.117851
32  0.729345 0.000066 -0.000028  0.000413 -0.002204 -1.216053
33  3.942046 0.050109 0.430995  0.289854 0.021571 -1.314219
34  1.539097 0.000011 0.000001  0.003529 -0.030507 -0.899996
35  1.196299 0.000074 -0.000003  0.003213 -0.000660 -1.346235
36  3.883411 -0.050501 -0.431088  0.205962 -0.055410 -1.138183
37  1.719563 -0.000079 -0.000004  -0.025251 0.013579 -1.531538
38  1.209197 0.000035 0.000011  0.025602 -0.125409 -0.740152
39  3.806434 -0.112148 -1.295328  -0.063584 0.055322 -0.523649
40  1.719413 -0.000100 -0.000035  0.024953 0.048927 -1.122630
41  1.099674 0.000025 0.000007  -0.034737 0.026628 -0.706438
42  0.805979 -0.359854 -1.318339  1.328333 0.252814 -0.645919
43  1.789780 -0.000009 -0.000042  0.068853 0.027685 -0.239620
44  1.206997 -0.000007 0.000005  0.004778 0.068187 0.264913
45  5.740573 0.000055 0.000724  0.019248 -0.000014 0.000021
46  11.480822 -0.000028 0.000996  -0.067054 0.172375 0.076929
47  6.027514 -0.000273 -0.000237  -0.899037 -0.530997 -1.635277
48  -0.000002 11.691974 -0.000007  -1.101273 0.544842 0.853991
49  0.000004 -0.000001 -0.000001  2.890460 -0.000041 1.570856
50  -0.000007 -0.000016 0.000005  2.272644 -0.000030 1.570865
51  -3.092591 -11.498432 -7.005736  -0.185747 -2.934070 1.079928
52  0.000001 -0.000001 0.000000  0.008153 -0.000259 0.000009
53  -0.000000 0.000000 -0.000001  1.565115 0.043565 -0.106862
54  -1.601168 -18.778334 -7.623834  0.414858 -0.477258 -1.529579
55  0.000000 -0.000000 0.000001  0.000000 -0.000000 -0.000002
56  0.000032 0.000028 0.000002  -1.571902 -0.044449 -0.106509
57  8.802561 -11.771522 -19.009918  1.570796 -0.000000 0.000000
58  -15.265000 7.133661 -18.583086  1.570796 -0.000000 0.000000
59  1.339387 -1.728622 -3.701813  1.570796 -0.000000 0.000000
60  -0.004311 0.001230 -0.000371  0.006898 -0.005534 -0.284229
61  2.046263 4.364841 -3.388127  1.570796 -0.000000 0.000000
62  0.000000 0.000000 0.000000  -0.078727 -3.136056 0.284226
63  0.000000 0.000000 0.000000  1.570796 -0.000000 0.000000
64  -3.253021 -15.465073 -4.481251  1.577448 -0.012446 0.003692
65  0.000000 0.106750 0.631995  0.000000 -0.000000 0.000000
66  0.000000 0.621415 -3.753308  0.000000 -0.000000 0.000000
67  0.000001 0.532204 8.683751  0.000000 -0.000000 0.000000
68  -0.000000 -1.186304 0.340611  0.000000 -0.000000 0.000000
69  0.000000 1.996277 -5.696262  0.000000 -0.000000 0.000000
70  0.000000 0.111714 1.276770  -0.280884 -0.000000 -0.000000
71  -1.117961 0.703408 5.154789  0.021679 -0.015647 -0.000000
72  -3.287168 -15.058211 -7.662943  1.577448 -0.012446 0.003692
73  0.036712 3.547557 -0.615410  0.000000 -0.000000 0.000000
74  -0.076920 3.276581 -0.615409  0.000000 -0.000000 0.000000
75  0.045456 3.053679 -0.615411  0.000000 -0.000000 0.000000
76  0.000000 1.834484 -0.723263  0.000000 -0.000000 0.000000
77  -0.000000 1.834484 -0.560887  0.000000 -0.000000 0.000000
78  0.000000 1.834484 -0.409514  0.000000 -0.000000 0.000000
79  -3.035386 -15.100246 -6.949206  1.600175 -0.065729 -0.012341
time 8
0  0.000006 0.000000 0.000000  -1.570800 -1.391899 -1.570792
1  -3.333990 2.359167 1.335070  -1.544956 -1.855077 -0.198630
2  6.027525 -0.000323 0.000193  -0.726646 -0.924137 -1.513864
3  11.692110 0.000643 -0.000739  -0.551974 -0.000006 -1.184401
4  11.480285 0.000148 -0.000768  2.492463 -0.667493 -0.267576
5  3.806287 -0.372255 -1.110992  -0.529793 -0.073810 -1.897370
6  1.312590 0.000010 0.000008  0.103432 -0.025446 -0.129301
7  0.729355 0.000054 0.000050  -0.076005 -0.077877 -0.849610
8  3.942142 0.046273 -0.431511  -0.300837 0.240743 -1.342798
9  1.539111 0.000086 0.000005  0.288969 -0.244282 -1.112656
10  1.196332 0.000146 0.000028  -0.004944 0.004446 -0.737404
11  3.883504 -0.047269 0.431382  -0.156588 0.297040 -1.174330
12  1.719572 -0.000027 0.000015  0.319275 -0.218446 -1.398918
13  1.209180 0.000091 0.000011  0.001029 0.002802 -0.648631
14  3.859662 -0.138476 1.332410  0.084999 0.365849 -0.950111
15  1.719448 -0.000012 0.000024  0.624915 -0.234597 -1.649343
16  1.099673 0.000050 0.000005  0.001249 0.007265 -0.897875
17  0.805994 -0.349050 1.321253  -1.004830 -0.436822 -0.698668
18  1.789819 -0.000005 -0.000018  0.109460 -0.013079 0.104637
19  1.207015 -0.000013 -0.000044  -0.168957 0.349224 1.324858
20  5.740636 0.000410 -0.000702  0.109501 0.000003 0.000071
21  11.481065 0.000235 -0.000811  0.163127 -0.122241 0.002142
22  6.027526 -0.000330 0.000203  1.589523 -0.646511 1.596649
23  0.000000 11.692098 -0.000008  -0.838066 -0.312331 -0.679466
24  0.000001 0.000009 -0.000002  0.317109 -0.000031 1.570739
25  -0.000001 -0.000011 -0.000001  0.868957 0.000002 1.570712
26  -4.110751 -3.692282 2.046260  1.473120 1.855075 -0.198639
27  6.027510 -0.000259 -0.000227  1.518372 0.735710 -0.629736
28  11.691991 0.000244 0.000857  0.617933 0.000056 -1.628645
29  11.479333 -0.000339 0.001249  -1.791271 1.008603 0.358653
30  3.840240 -0.256103 1.127581  0.295546 0.139683 -1.669742
31  1.312558 0.000026 -0.000000  0.010552 -0.001809 -0.117851
32  0.729344 0.000067 -0.000028  0.000413 -0.002204 -1.216053
33  3.942046 0.050109 0.430997  0.289854 0.021571 -1.314219
34  1.539096 0.000010 -0.000000  0.003529 -0.030507 -0.899996
35  1.196299 0.000075 -0.000004  0.003213 -0.000660 -1.346235
36  3.883412 -0.050501 -0.431087  0.205962 -0.055410 -1.138183
37  1.719563 -0.000080 -0.000004  -0.025251 0.013579 -1.531538
38  1.209197 0.000035 0.000012  0.025602 -0.125409 -0.740152
39  3.806435 -0.112147 -1.295327  -0.072416 0.058158 -0.521230
40  1.719413 -0.000100 -0.000035  0.029459 0.064400 -1.127570
41  1.099675 0.000025 0.000006  -0.056616 0.042529 -0.726276
42  0.805978 -0.359853 -1.318338  1.328333 0.252814 -0.645919
43  1.789779 -0.000010 -0.000042  0.068853 0.027685 -0.239620
44  1.206997 -0.000006 0.000005  0.004778 0.068187 0.264913
45  5.740572 0.000055 0.000724  0.017544 -0.000014 0.000021
46  11.480811 -0.000033 0.000999  -0.069075 0.171944 0.075991
47  6.027514 -0.000273 -0.000237  -0.892992 -0.532507 -1.637977
48  -0.000001 11.691974 -0.000006  -1.105170 0.548671 0.856254
49  0.000003 -0.000002 -0.000000  2.890460 -0.000041 1.570856
50  -0.000007 -0.000015 0.000005  2.272644 -0.000030 1.570865
51  -3.131583 -11.443047 -7.010134  -0.191151 -2.924262 1.080338
52  0.000000 0.000000 -0.000000  0.008153 -0.000259 0.000009
53  -0.000000 0.000000 -0.000000  1.565115 0.043565 -0.106862
54  -1.651061 -18.727745 -7.597148  0.404103 -0.483012 -1.525340
55  -0.000002 0.000000 -0.000001  0.000000 -0.000000 -0.000002
56  0.000030 0.000029 0.000000  -1.571901 -0.044449 -0.106509
57  8.802561 -11.771522 -19.009918  1.570796 -0.000000 0.000000
58  -15.265000 7.133661 -18.583086  1.570796 -0.000000 0.000000
59  1.339387 -1.728622 -3.701813  1.570796 -0.000000 0.000000
60  -0.004311 0.001230 -0.000371  0.006898 -0.005534 -0.284229
61  2.046263 4.364841 -3.388127  1.570796 -0.000000 0.000000
62  0.000000 0.000000 0.000000  -0.078727 -3.136056 0.284226
63  0.000000 0.000000 0.000000  1.570796 -0.000000 0.000000
64  -3.271350 -15.393942 -4.459861  1.571317 -0.003145 0.003011
65  -0.000000 0.106750 0.631996  -0.000000 0.000000 0.000000
66  -0.000000 0.621415 -3.753307  -0.000000 0.000000 0.000000
67  0.000000 0.532204 8.683752  -0.000000 0.000000 0.000000
68  -0.000001 -1.186305 0.340613  -0.000000 0.000000 0.000000
69  -0.000001 1.996278 -5.696260  -0.000000 0.000000 0.000000
70  -0.000001 0.111714 1.276771  -0.280884 -0.000000 -0.000000
71  -1.117962 0.703409 5.154790  0.021679 -0.015647 0.000000
72  -3.334745 -15.006659 -7.643548  1.571317 -0.003145 0.003011
73  0.036713 3.547556 -0.615412  -0.000000 0.000000 0.000000
74  -0.076920 3.276580 -0.615410  -0.000000 0.000000 0.000000
75  0.045457 3.053679 -0.615412  -0.000000 0.000000 0.000000
76  -0.000000 1.834484 -0.723263  -0.000000 0.000000 0.000000
77  0.000000 1.834484 -0.560888  -0.000000 0.000000 0.000000
78  -0.000000 1.834484 -0.409515  -0.000000 0.000000 0.000000
79  -3.076378 -15.044488 -6.931933  1.593885 -0.056526 -0.012686
time 9
0  0.000006 0.000000 0.000000  -1.570800 -1.391899 -1.570792
1  -3.333990 2.359167 1.335070  -1.544956 -1.855077 -0.198630
2  6.027525 -0.000323 0.000193  -0.721833 -0.923522 -1.515918
3  11.692110 0.000644 -0.000740  -0.551974 -0.000007 -1.187678
4  11.480267 0.000140 -0.000770  2.487776 -0.673554 -0.271628
5  3.806288 -0.372256 -1.110993  -0.529793 -0.073810 -1.897370
6  1.312590 0.000011 0.000008  0.103432 -0.025446 -0.129301
7  0.729354 0.000051 0.000049  -0.076005 -0.077877 -0.849610
8  3.942142 0.046272 -0.431513  -0.300837 0.240743 -1.342798
9  1.539111 0.000082 0.000005  0.288969 -0.244282 -1.112656
10  1.196331 0.000150 0.000029  -0.004944 0.004446 -0.737404
11  3.883503 -0.047270 0.431381  -0.156588 0.297040 -1.174330
12  1.719572 -0.000027 0.000015  0.319275 -0.218446 -1.398918
13  1.209180 0.000089 0.000013  0.001029 0.002802 -0.648631
14  3.859660 -0.138476 1.332410  0.084999 0.365849 -0.950111
15  1.719447 -0.000012 0.000023  0.624915 -0.234597 -1.649343
16  1.099673 0.000050 0.000006  0.001249 0.007265 -0.897875
17  0.805994 -0.349051 1.321252  -1.004831 -0.436822 -0.698668
18  1.789819 -0.000005 -0.000018  0.109460 -0.013079 0.104637
19  1.207016 -0.000012 -0.000044  -0.168957 0.349224 1.324858
20  5.740636 0.000409 -0.000702  0.107151 0.000003 0.000071
21  11.481060 0.000232 -0.000811  0.161744 -0.123581 0.001542
22  6.027526 -0.000330 0.000203  1.585911 -0.647207 1.600612
23  0.000001 11.692099 -0.000008  -0.840112 -0.313905 -0.680952
24  0.000002 0.000009 -0.000002  0.317109 -0.000030 1.570739
25  -0.000001 -0.000011 -0.000001  0.868957 0.000002 1.570712
26  -4.110751 -3.692282 2.046260  1.473120 1.855075 -0.198639
27  6.027510 -0.000259 -0.000227  1.520690 0.731538 -0.627836
28  11.691990 0.000243 0.000857  0.617933 0.000057 -1.635050
29  11.479294 -0.000356 0.001263  -1.806717 1.008456 0.350247
30  3.840240 -0.256103 1.127581  0.295546 0.139683 -1.669742
31  1.312558 0.000027 0.000000  0.010552 -0.001809 -0.117851
32  0.729345 0.000065 -0.000028  0.000413 -0.002203 -1.216053
33  3.942047 0.050109 0.430997  0.289854 0.021571 -1.314220
34  1.539097 0.000009 0.000000  0.003529 -0.030507 -0.899996
35  1.196299 0.000076 -0.000004  0.003213 -0.000660 -1.346235
36  3.883413 -0.050502 -0.431087  0.205962 -0.055410 -1.138183
37  1.719562 -0.000080 -0.000004  -0.025251 0.013579 -1.531538
38  1.209197 0.000037 0.000011  0.025602 -0.125409 -0.740152
39  3.806436 -0.112149 -1.295328  -0.091709 0.062072 -0.512998
40  1.719413 -0.000100 -0.000034  0.033767 0.081428 -1.142999
41  1.099674 0.000026 0.000006  -0.085388 0.062596 -0.752162
42  0.805979 -0.359854 -1.318338  1.328333 0.252814 -0.645919
43  1.789777 -0.000009 -0.000042  0.068853 0.027685 -0.239620
44  1.206996 -0.000004 0.000005  0.004778 0.068187 0.264913
45  5.740574 0.000055 0.000724  0.016027 -0.000014 0.000021
46  11.480804 -0.000035 0.001002  -0.071029 0.171648 0.075938
47  6.027514 -0.000273 -0.000237  -0.887827 -0.533267 -1.640253
48  -0.000000 11.691973 -0.000007  -1.108927 0.552369 0.858424
49  0.000003 -0.000001 -0.000001  2.890460 -0.000041 1.570856
50  -0.000006 -0.000015 0.000005  2.272644 -0.000030 1.570865
51  -3.164052 -11.390846 -7.001044  -0.198199 -2.917406 1.080196
52  -0.000000 0.000000 -0.000000  0.008153 -0.000259 0.000009
53  0.000001 -0.000000 0.000000  1.565115 0.043565 -0.106862
54  -1.701235 -18.679665 -7.581283  0.393462 -0.485379 -1.522072
55  0.000002 -0.000000 0.000001  0.000000 -0.000000 -0.000002
56  0.000032 0.000028 0.000001  -1.571901 -0.044449 -0.106509
57  8.802561 -11.771522 -19.009918  1.570796 -0.000000 0.000000
58  -15.265000 7.133661 -18.583086  1.570796 -0.000000 0.000000
59  1.339387 -1.728622 -3.701813  1.570796 -0.000000 0.000000
60  -0.004311 0.001230 -0.000371  0.006898 -0.005534 -0.284229
61  2.046263 4.364841 -3.388127  1.570796 -0.000000 0.000000
62  0.000000 0.000000 0.000000  -0.078727 -3.136056 0.284226
63  0.000000 0.000000 0.000000  1.570796 -0.000000 0.000000
64  -3.286707 -15.334345 -4.438471  1.568530 0.006157 0.001322
65  0.000000 0.106750 0.631994  0.000000 -0.000000 0.000000
66  0.000000 0.621415 -3.753306  0.000000 -0.000000 0.000000
67  0.000001 0.532205 8.683751  0.000000 -0.000000 0.000000
68  -0.000000 -1.186305 0.340613  0.000000 -0.000000 0.000000
69  0.000000 1.996278 -5.696260  0.000000 -0.000000 0.000000
70  0.000001 0.111714 1.276770  -0.280884 -0.000000 -0.000000
71  -1.117961 0.703409 5.154791  0.021679 -0.015647 0.000000
72  -3.379054 -14.955868 -7.622509  1.568530 0.006157 0.001322
73  0.036712 3.547556 -0.615412  0.000000 -0.000000 0.000000
74  -0.076920 3.276580 -0.615410  0.000000 -0.000000 0.000000
75  0.045456 3.053679 -0.615411  0.000000 -0.000000 0.000000
76  -0.000000 1.834484 -0.723263  0.000000 -0.000000 0.000000
77  -0.000000 1.834484 -0.560890  0.000000 -0.000000 0.000000
78  -0.000000 1.834484 -0.409517  0.000000 -0.000000 0.000000
79  -3.114145 -14.992144 -6.913221  1.590949 -0.047268 -0.014218
time 10
0  0.000006 0.000000 0.000000  -1.570800 -1.391899 -1.570792
1  -3.333990 2.359167 1.335070  -1.544956 -1.855077 -0.198630
2  6.027525 -0.000323 0.000193  -0.719396 -0.923041 -1.516781
3  11.692111 0.000642 -0.000740  -0.551974 -0.000007 -1.189117
4  11.480261 0.000136 -0.000774  2.483851 -0.676583 -0.271448
5  3.806287 -0.372255 -1.110992  -0.529793 -0.073810 -1.897370
6  1.312589 0.000010 0.000008  0.103432 -0.025446 -0.129301
7  0.729355 0.000053 0.000049  -0.076005 -0.077877 -0.849610
8  3.942144 0.046273 -0.431512  -0.300837 0.240743 -1.342798
9  1.539113 0.000085 0.000005  0.288969 -0.244282 -1.112656
10  1.196333 0.000147 0.000029  -0.004944 0.004446 -0.737404
11  3.883505 -0.047269 0.431382  -0.156587 0.297040 -1.174330
12  1.719573 -0.000027 0.000015  0.319275 -0.218446 -1.398918
13  1.209179 0.000087 0.000012  0.001029 0.002802 -0.648631
14  3.859663 -0.138476 1.332410  0.084999 0.365849 -0.950111
15  1.719451 -0.000013 0.000022  0.624915 -0.234597 -1.649343
16  1.099674 0.000050 0.000006  0.001249 0.007265 -0.897875
17  0.805993 -0.349050 1.321254  -1.004831 -0.436822 -0.698668
18  1.789819 -0.000002 -0.000018  0.109460 -0.013079 0.104637
19  1.207016 -0.000012 -0.000045  -0.168957 0.349224 1.324858
20  5.740637 0.000409 -0.000701  0.105979 0.000003 0.000071
21  11.481059 0.000231 -0.000812  0.160878 -0.124097 0.001533
22  6.027526 -0.000330 0.000203  1.584082 -0.647723 1.602795
23  0.000003 11.692098 -0.000008  -0.841009 -0.314597 -0.681603
24  0.000003 0.000008 -0.000001  0.317109 -0.000031 1.570739
25  -0.000001 -0.000011 -0.000000  0.868957 0.000002 1.570712
26  -4.110751 -3.692282 2.046260  1.473120 1.855075 -0.198639
27  6.027510 -0.000259 -0.000227  1.521801 0.729966 -0.626944
28  11.691991 0.000243 0.000857  0.617933 0.000057 -1.638282
29  11.479269 -0.000366 0.001268  -1.812104 1.009458 0.349969
30  3.840240 -0.256103 1.127581  0.295546 0.139683 -1.669742
31  1.312558 0.000027 -0.000000  0.010552 -0.001809 -0.117850
32  0.729346 0.000066 -0.000027  0.000413 -0.002204 -1.216053
33  3.942048 0.050109 0.430997  0.289854 0.021571 -1.314220
34  1.539096 0.000011 0.000000  0.003529 -0.030507 -0.899996
35  1.196300 0.000074 -0.000003  0.003213 -0.000660 -1.346235
36  3.883412 -0.050502 -0.431086  0.205962 -0.055410 -1.138183
37  1.719564 -0.000078 -0.000004  -0.025251 0.013579 -1.531538
38  1.209196 0.000037 0.000010  0.025602 -0.125409 -0.740152
39  3.806435 -0.112148 -1.295327  -0.119848 0.067080 -0.499798
40  1.719412 -0.000100 -0.000034  0.037405 0.099159 -1.167537
41  1.099675 0.000024 0.000007  -0.119586 0.085127 -0.782855
42  0.805979 -0.359853 -1.318337  1.328333 0.252814 -0.645919
43  1.789778 -0.000008 -0.000042  0.068853 0.027685 -0.239620
44  1.206996 -0.000006 0.000005  0.004778 0.068187 0.264913
45  5.740571 0.000055 0.000723  0.015475 -0.000014 0.000021
46  11.480797 -0.000037 0.001003  -0.071927 0.171696 0.076405
47  6.027514 -0.000273 -0.000237  -0.885769 -0.533396 -1.641148
48  -0.000000 11.691973 -0.000006  -1.110822 0.554238 0.859515
49  0.000004 -0.000002 -0.000001  2.890460 -0.000041 1.570856
50  -0.000007 -0.000015 0.000005  2.272644 -0.000030 1.570865
51  -3.174676 -11.364979 -6.990168  -0.202228 -2.915785 1.079409
52  -0.000001 -0.000000 -0.000000  0.008153 -0.000259 0.000009
53  0.000001 -0.000000 0.000001  1.565115 0.043565 -0.106862
54  -1.726622 -18.656002 -7.579636  0.388712 -0.484750 -1.521543
55  0.000001 -0.000000 -0.000001  0.000000 -0.000000 -0.000002
56  0.000031 0.000028 -0.000000  -1.571901 -0.044449 -0.106509
57  8.802561 -11.771522 -19.009918  1.570796 -0.000000 0.000000
58  -15.265000 7.133661 -18.583086  1.570796 -0.000000 0.000000
59  1.339387 -1.728622 -3.701813  1.570796 -0.000000 0.000000
60  -0.004311 0.001230 -0.000371  0.006898 -0.005534 -0.284229
61  2.046263 4.364841 -3.388127  1.570796 -0.000000 0.000000
62  0.000000 0.000000 0.000000  -0.078727 -3.136056 0.284226
63  0.000000 0.000000 0.000000  1.570796 -0.000000 0.000000
64  -3.293147 -15.309353 -4.428748  1.568954 0.010385 -0.000361
65  0.000000 0.106750 0.631994  -0.000000 0.000000 -0.000000
66  -0.000000 0.621414 -3.753306  -0.000000 0.000000 -0.000000
67  0.000000 0.532204 8.683753  -0.000000 0.000000 -0.000000
68  -0.000000 -1.186305 0.340613  -0.000000 0.000000 -0.000000
69  -0.000000 1.996277 -5.696260  -0.000000 0.000000 -0.000000
70  -0.000000 0.111714 1.276770  -0.280884 -0.000000 -0.000000
71  -1.117962 0.703408 5.154791  0.021679 -0.015647 -0.000000
72  -3.398316 -14.929366 -7.612208  1.568954 0.010385 -0.000361
73  0.036712 3.547556 -0.615410  -0.000000 0.000000 -0.000000
74  -0.076920 3.276581 -0.615408  -0.000000 0.000000 -0.000000
75  0.045456 3.053679 -0.615409  -0.000000 0.000000 -0.000000
76  0.000000 1.834484 -0.723262  -0.000000 0.000000 -0.000000
77  0.000000 1.834484 -0.560888  -0.000000 0.000000 -0.000000
78  0.000000 1.834484 -0.409513  -0.000000 0.000000 -0.000000
79  -3.130472 -14.966390 -6.904063  1.591307 -0.043034 -0.015920
time 11
0  0.000006 0.000000 0.000000  -1.570800 -1.391899 -1.570792
1  -3.333990 2.359167 1.335070  -1.544956 -1.855077 -0.198630
2  6.027525 -0.000323 0.000193  -0.720369 -0.922883 -1.516072
3  11.692111 0.000643 -0.000740  -0.551974 -0.000007 -1.189489
4  11.480259 0.000136 -0.000778  2.484581 -0.674832 -0.268998
5  3.806287 -0.372255 -1.110992  -0.529793 -0.073810 -1.897370
6  1.312590 0.000012 0.000008  0.103432 -0.025446 -0.129301
7  0.729356 0.000051 0.000050  -0.076005 -0.077877 -0.849610
8  3.942142 0.046274 -0.431510  -0.300837 0.240743 -1.342798
9  1.539110 0.000081 0.000006  0.288969 -0.244282 -1.112656
10  1.196332 0.000144 0.000029  -0.004944 0.004446 -0.737404
11  3.883506 -0.047269 0.431382  -0.156588 0.297040 -1.174330
12  1.719573 -0.000027 0.000015  0.319275 -0.218446 -1.398918
13  1.209178 0.000091 0.000012  0.001029 0.002802 -0.648631
14  3.859663 -0.138475 1.332410  0.084999 0.365849 -0.950111
15  1.719447 -0.000013 0.000020  0.624915 -0.234597 -1.649343
16  1.099672 0.000051 0.000005  0.001249 0.007265 -0.897875
17  0.805995 -0.349050 1.321255  -1.004831 -0.436822 -0.698668
18  1.789819 -0.000005 -0.000017  0.109460 -0.013079 0.104637
19  1.207015 -0.000012 -0.000043  -0.168957 0.349224 1.324858
20  5.740637 0.000410 -0.000703  0.106579 0.000003 0.000071
21  11.481059 0.000231 -0.000816  0.161231 -0.123625 0.001899
22  6.027526 -0.000330 0.000203  1.584823 -0.647867 1.602283
23  0.000001 11.692100 -0.000007  -0.841242 -0.314776 -0.681772
24  0.000002 0.000008 -0.000002  0.317109 -0.000031 1.570738
25  -0.000001 -0.000011 -0.000000  0.868957 0.000002 1.570712
26  -4.110751 -3.692282 2.046260  1.473120 1.855075 -0.198639
27  6.027510 -0.000259 -0.000227  1.521074 0.730608 -0.627515
28  11.691991 0.000243 0.000856  0.617933 0.000057 -1.638131
29  11.479269 -0.000365 0.001270  -1.807217 1.011429 0.353879
30  3.840241 -0.256104 1.127580  0.295546 0.139683 -1.669742
31  1.312558 0.000026 -0.000001  0.010552 -0.001809 -0.117850
32  0.729345 0.000067 -0.000027  0.000413 -0.002204 -1.216053
33  3.942047 0.050109 0.430996  0.289854 0.021571 -1.314220
34  1.539096 0.000009 0.000000  0.003529 -0.030507 -0.899996
35  1.196299 0.000074 -0.000005  0.003213 -0.000660 -1.346235
36  3.883412 -0.050502 -0.431087  0.205962 -0.055410 -1.138183
37  1.719564 -0.000079 -0.000003  -0.025251 0.013579 -1.531538
38  1.209197 0.000037 0.000012  0.025602 -0.125409 -0.740152
39  3.806436 -0.112147 -1.295329  -0.152949 0.072919 -0.483685
40  1.719412 -0.000100 -0.000035  0.039979 0.116142 -1.197601
41  1.099675 0.000026 0.000005  -0.155867 0.107463 -0.815429
42  0.805979 -0.359854 -1.318339  1.328333 0.252814 -0.645919
43  1.789778 -0.000009 -0.000043  0.068853 0.027685 -0.239620
44  1.206996 -0.000007 0.000005  0.004778 0.068187 0.264913
45  5.740572 0.000056 0.000723  0.016169 -0.000014 0.000021
46  11.480798 -0.000038 0.001003  -0.071443 0.172144 0.076657
47  6.027514 -0.000273 -0.000237  -0.886735 -0.533516 -1.640743
48  -0.000002 11.691974 -0.000007  -1.110733 0.554151 0.859465
49  0.000002 -0.000001 -0.000001  2.890460 -0.000041 1.570856
50  -0.000007 -0.000015 0.000005  2.272644 -0.000030 1.570865
51  -3.162331 -11.366030 -6.988424  -0.200076 -2.917965 1.078171
52  -0.000001 -0.000000 0.000000  0.008153 -0.000259 0.000009
53  0.000000 -0.000000 -0.000001  1.565115 0.043565 -0.106862
54  -1.718106 -18.657595 -7.580515  0.392012 -0.483959 -1.523838
55  -0.000002 0.000001 0.000000  0.000000 -0.000000 -0.000002
56  0.000030 0.000029 0.000001  -1.571901 -0.044449 -0.106509
57  8.802561 -11.771522 -19.009918  1.570796 -0.000000 0.000000
58  -15.265000 7.133661 -18.583086  1.570796 -0.000000 0.000000
59  1.339387 -1.728622 -3.701813  1.570796 -0.000000 0.000000
60  -0.004311 0.001230 -0.000371  0.006898 -0.005534 -0.284229
61  2.046263 4.364841 -3.388127  1.570796 -0.000000 0.000000
62  0.000000 0.000000 0.000000  -0.078727 -3.136056 0.284226
63  0.000000 0.000000 0.000000  1.570796 -0.000000 0.000000
64  -3.291162 -15.312692 -4.431032  1.569887 0.007507 -0.001111
65  -0.000000 0.106749 0.631995  -0.000000 -0.000000 0.000000
66  -0.000000 0.621414 -3.753305  -0.000000 -0.000000 0.000000
67  0.000000 0.532204 8.683751  -0.000000 -0.000000 0.000000
68  -0.000000 -1.186305 0.340612  -0.000000 -0.000000 0.000000
69  -0.000000 1.996277 -5.696261  -0.000000 -0.000000 0.000000
70  -0.000000 0.111714 1.276771  -0.280884 -0.000000 -0.000000
71  -1.117962 0.703408 5.154790  0.021679 -0.015647 0.000000
72  -3.386878 -14.929666 -7.614427  1.569887 0.007507 -0.001111
73  0.036712 3.547556 -0.615410  -0.000000 0.000000 0.000000
74  -0.076920 3.276581 -0.615408  -0.000000 0.000000 0.000000
75  0.045456 3.053680 -0.615410  -0.000000 0.000000 0.000000
76  0.000000 1.834484 -0.723262  -0.000000 0.000000 0.000000
77  -0.000000 1.834484 -0.560887  -0.000000 0.000000 0.000000
78  -0.000000 1.834484 -0.409514  -0.000000 0.000000 0.000000
79  -3.121102 -14.967550 -6.905548  1.592286 -0.045898 -0.016722
time 12
0  0.000006 0.000000 0.000000  -1.570800 -1.391899 -1.570792
1  -3.333990 2.359167 1.335070  -1.544956 -1.855077 -0.198630
2  6.027525 -0.000323 0.000193  -0.723008 -0.922565 -1.514264
3  11.692110 0.000643 -0.000740  -0.551974 -0.000007 -1.190574
4  11.480253 0.000135 -0.000777  2.487920 -0.672348 -0.265976
5  3.806286 -0.372255 -1.110991  -0.529793 -0.073810 -1.897370
6  1.312590 0.000012 0.000008  0.103432 -0.025446 -0.129301
7  0.729355 0.000052 0.000050  -0.076005 -0.077877 -0.849610
8  3.942142 0.046273 -0.431513  -0.300837 0.240743 -1.342798
9  1.539113 0.000083 0.000005  0.288969 -0.244282 -1.112656
10  1.196331 0.000146 0.000029  -0.004944 0.004446 -0.737404
11  3.883503 -0.047269 0.431381  -0.156588 0.297040 -1.174330
12  1.719574 -0.000026 0.000015  0.319275 -0.218446 -1.398918
13  1.209179 0.000091 0.000012  0.001029 0.002802 -0.648631
14  3.859661 -0.138475 1.332410  0.084999 0.365849 -0.950111
15  1.719450 -0.000010 0.000023  0.624915 -0.234597 -1.649343
16  1.099675 0.000049 0.000007  0.001249 0.007265 -0.897875
17  0.805993 -0.349050 1.321253  -1.004830 -0.436822 -0.698668
18  1.789819 -0.000003 -0.000019  0.109460 -0.013079 0.104637
19  1.207016 -0.000011 -0.000043  -0.168957 0.349224 1.324858
20  5.740637 0.000410 -0.000702  0.107757 0.000003 0.000071
21  11.481061 0.000233 -0.000812  0.162123 -0.123001 0.002503
22  6.027526 -0.000330 0.000203  1.586830 -0.648146 1.600775
23  0.000003 11.692097 -0.000007  -0.841918 -0.315298 -0.682263
24  0.000001 0.000008 -0.000002  0.317109 -0.000031 1.570738
25  -0.000000 -0.000012 -0.000000  0.868957 0.000002 1.570712
26  -4.110751 -3.692282 2.046260  1.473120 1.855075 -0.198639
27  6.027510 -0.000259 -0.000227  1.520017 0.731626 -0.628348
28  11.691991 0.000244 0.000856  0.617933 0.000057 -1.637415
29  11.479275 -0.000363 0.001267  -1.798313 1.012768 0.359570
30  3.840237 -0.256104 1.127581  0.295546 0.139683 -1.669742
31  1.312559 0.000026 -0.000001  0.010552 -0.001809 -0.117851
32  0.729345 0.000064 -0.000028  0.000413 -0.002203 -1.216053
33  3.942044 0.050109 0.430997  0.289854 0.021571 -1.314220
34  1.539096 0.000011 0.000000  0.003529 -0.030507 -0.899996
35  1.196300 0.000076 -0.000003  0.003213 -0.000660 -1.346235
36  3.883410 -0.050502 -0.431086  0.205962 -0.055410 -1.138183
37  1.719564 -0.000079 -0.000003  -0.025251 0.013579 -1.531538
38  1.209196 0.000036 0.000011  0.025602 -0.125409 -0.740152
39  3.806434 -0.112149 -1.295329  -0.185378 0.078877 -0.467642
40  1.719411 -0.000099 -0.000034  0.041397 0.130650 -1.227790
41  1.099674 0.000026 0.000007  -0.189438 0.126720 -0.845615
42  0.805977 -0.359854 -1.318337  1.328333 0.252814 -0.645919
43  1.789778 -0.000009 -0.000043  0.068853 0.027685 -0.239620
44  1.206996 -0.000006 0.000005  0.004778 0.068187 0.264913
45  5.740572 0.000056 0.000724  0.017336 -0.000014 0.000021
46  11.480800 -0.000036 0.001003  -0.070410 0.172547 0.076842
47  6.027514 -0.000273 -0.000237  -0.888221 -0.533644 -1.640115
48  -0.000000 11.691973 -0.000006  -1.110313 0.553736 0.859223
49  0.000003 -0.000001 0.000000  2.890460 -0.000041 1.570856
50  -0.000006 -0.000015 0.000005  2.272644 -0.000030 1.570865
51  -3.145889 -11.371553 -6.988284  -0.195698 -2.921312 1.077702
52  0.000000 0.000000 0.000001  0.008153 -0.000259 0.000009
53  -0.000003 -0.000000 0.000001  1.565115 0.043565 -0.106862
54  -1.694899 -18.661858 -7.579400  0.398092 -0.483277 -1.526171
55  -0.000000 -0.000001 -0.000001  0.000000 -0.000000 -0.000002
56  0.000032 0.000028 -0.000000  -1.571901 -0.044449 -0.106509
57  8.802561 -11.771522 -19.009918  1.570796 -0.000000 0.000000
58  -15.265000 7.133661 -18.583086  1.570796 -0.000000 0.000000
59  1.339387 -1.728622 -3.701813  1.570796 -0.000000 0.000000
60  -0.004311 0.001230 -0.000371  0.006898 -0.005534 -0.284229
61  2.046263 4.364841 -3.388127  1.570796 -0.000000 0.000000
62  0.000000 0.000000 0.000000  -0.078727 -3.136056 0.284226
63  0.000000 0.000000 0.000000  1.570796 -0.000000 0.000000
64  -3.286431 -15.320653 -4.435274  1.570819 0.002161 -0.000612
65  0.000000 0.106749 0.631994  -0.000000 0.000000 0.000000
66  -0.000000 0.621414 -3.753305  -0.000000 0.000000 0.000000
67  0.000001 0.532203 8.683751  -0.000000 0.000000 0.000000
68  -0.000000 -1.186305 0.340612  -0.000000 0.000000 0.000000
69  0.000000 1.996277 -5.696261  -0.000000 0.000000 0.000000
70  0.000000 0.111713 1.276769  -0.280884 -0.000000 -0.000000
71  -1.117961 0.703408 5.154790  0.021679 -0.015647 0.000000
72  -3.365316 -14.934717 -7.618778  1.570819 0.002161 -0.000612
73  0.036712 3.547556 -0.615411  -0.000000 0.000000 0.000000
74  -0.076920 3.276581 -0.615409  -0.000000 0.000000 0.000000
75  0.045456 3.053679 -0.615410  -0.000000 0.000000 0.000000
76  -0.000000 1.834484 -0.723263  -0.000000 0.000000 0.000000
77  -0.000000 1.834484 -0.560888  -0.000000 0.000000 0.000000
78  -0.000000 1.834484 -0.409516  -0.000000 0.000000 0.000000
79  -3.103315 -14.973130 -6.908524  1.593303 -0.051228 -0.016278
time 13
0  0.000006 0.000000 0.000000  -1.570800 -1.391899 -1.570792
1  -3.333990 2.359167 1.335070  -1.544956 -1.855077 -0.198630
2  6.027525 -0.000323 0.000193  -0.724779 -0.922549 -1.513259
3  11.692110 0.000643 -0.000740  -0.551974 -0.000007 -1.190765
4  11.480254 0.000132 -0.000780  2.489842 -0.670745 -0.264569
5  3.806288 -0.372255 -1.110993  -0.529793 -0.073810 -1.897370
6  1.312590 0.000010 0.000009  0.103432 -0.025446 -0.129301
7  0.729356 0.000054 0.000050  -0.076004 -0.077877 -0.849610
8  3.942143 0.046274 -0.431513  -0.300837 0.240743 -1.342798
9  1.539110 0.000084 0.000006  0.288969 -0.244282 -1.112656
10  1.196331 0.000147 0.000029  -0.004944 0.004446 -0.737404
11  3.883505 -0.047269 0.431380  -0.156587 0.297040 -1.174330
12  1.719573 -0.000026 0.000016  0.319275 -0.218446 -1.398918
13  1.209182 0.000091 0.000011  0.001029 0.002802 -0.648632
14  3.859662 -0.138475 1.332410  0.084999 0.365849 -0.950111
15  1.719449 -0.000012 0.000023  0.624915 -0.234597 -1.649343
16  1.099674 0.000048 0.000004  0.001249 0.007265 -0.897875
17  0.805993 -0.349049 1.321253  -1.004831 -0.436822 -0.698668
18  1.789818 -0.000003 -0.000018  0.109460 -0.013079 0.104637
19  1.207016 -0.000011 -0.000043  -0.168957 0.349224 1.324858
20  5.740637 0.000409 -0.000703  0.108441 0.000003 0.000071
21  11.481060 0.000230 -0.000816  0.162629 -0.122631 0.002774
22  6.027526 -0.000330 0.000203  1.588172 -0.648132 1.599558
23  -0.000000 11.692100 -0.000007  -0.842037 -0.315390 -0.682349
24  0.000002 0.000008 0.000000  0.317109 -0.000030 1.570739
25  -0.000001 -0.000011 -0.000001  0.868957 0.000002 1.570712
26  -4.110751 -3.692282 2.046260  1.473120 1.855075 -0.198639
27  6.027510 -0.000259 -0.000227  1.519332 0.732576 -0.628899
28  11.691990 0.000243 0.000856  0.617933 0.000057 -1.636385
29  11.479283 -0.000360 0.001267  -1.793672 1.013138 0.362173
30  3.840239 -0.256104 1.127581  0.295546 0.139683 -1.669742
31  1.312558 0.000025 0.000000  0.010552 -0.001809 -0.117851
32  0.729345 0.000064 -0.000028  0.000413 -0.002204 -1.216053
33  3.942046 0.050109 0.430997  0.289854 0.021571 -1.314220
34  1.539096 0.000011 -0.000000  0.003529 -0.030507 -0.899996
35  1.196299 0.000076 -0.000004  0.003213 -0.000660 -1.346235
36  3.883411 -0.050501 -0.431087  0.205962 -0.055410 -1.138183
37  1.719565 -0.000078 -0.000004  -0.025251 0.013579 -1.531538
38  1.209196 0.000037 0.000011  0.025602 -0.125409 -0.740152
39  3.806435 -0.112148 -1.295329  -0.211636 0.083947 -0.454555
40  1.719411 -0.000099 -0.000034  0.041928 0.141319 -1.252647
41  1.099674 0.000025 0.000007  -0.215703 0.140864 -0.869264
42  0.805979 -0.359854 -1.318338  1.328334 0.252814 -0.645919
43  1.789778 -0.000008 -0.000042  0.068853 0.027685 -0.239620
44  1.206997 -0.000006 0.000006  0.004778 0.068187 0.264913
45  5.740572 0.000057 0.000725  0.017908 -0.000014 0.000021
46  11.480803 -0.000036 0.001003  -0.069839 0.172701 0.076870
47  6.027514 -0.000273 -0.000237  -0.889470 -0.533572 -1.639573
48  -0.000001 11.691973 -0.000007  -1.109710 0.553141 0.858876
49  0.000004 -0.000001 -0.000001  2.890460 -0.000041 1.570856
50  -0.000007 -0.000015 0.000005  2.272644 -0.000030 1.570865
51  -3.135039 -11.379897 -6.988486  -0.193305 -2.923047 1.077723
52  -0.000001 -0.000001 0.000001  0.008153 -0.000259 0.000009
53  -0.000000 -0.000000 0.000000  1.565115 0.043565 -0.106862
54  -1.678393 -18.669165 -7.578499  0.401360 -0.482982 -1.527147
55  -0.000001 -0.000000 -0.000001  0.000000 -0.000000 -0.000002
56  0.000031 0.000029 -0.000000  -1.571901 -0.044449 -0.106509
57  8.802561 -11.771522 -19.009918  1.570796 -0.000000 0.000000
58  -15.265000 7.133661 -18.583086  1.570796 -0.000000 0.000000
59  1.339387 -1.728622 -3.701813  1.570796 -0.000000 0.000000
60  -0.004311 0.001230 -0.000371  0.006898 -0.005534 -0.284229
61  2.046263 4.364841 -3.388127  1.570796 -0.000000 0.000000
62  0.000000 0.000000 0.000000  -0.078727 -3.136056 0.284226
63  0.000000 0.000000 0.000000  1.570796 -0.000000 0.000000
64  -3.280783 -15.330154 -4.437559  1.571243 -0.000717 -0.000069
65  -0.000000 0.106749 0.631995  0.000000 0.000000 -0.000000
66  -0.000000 0.621415 -3.753305  0.000000 0.000000 -0.000000
67  0.000000 0.532204 8.683752  0.000000 0.000000 -0.000000
68  -0.000000 -1.186305 0.340613  0.000000 0.000000 -0.000000
69  -0.000000 1.996277 -5.696261  0.000000 0.000000 -0.000000
70  -0.000000 0.111714 1.276771  -0.280884 -0.000000 -0.000000
71  -1.117961 0.703409 5.154789  0.021679 -0.015647 -0.000000
72  -3.350715 -14.942912 -7.621114  1.571243 -0.000717 -0.000069
73  0.036712 3.547557 -0.615410  0.000000 0.000000 -0.000000
74  -0.076920 3.276581 -0.615408  0.000000 0.000000 -0.000000
75  0.045456 3.053680 -0.615410  0.000000 0.000000 -0.000000
76  -0.000000 1.834484 -0.723262  0.000000 0.000000 -0.000000
77  -0.000000 1.834484 -0.560887  0.000000 0.000000 -0.000000
78  -0.000000 1.834484 -0.409514  0.000000 0.000000 -0.000000
79  -3.090739 -14.981484 -6.910125  1.593772 -0.054099 -0.015760
time 14
0  0.000006 0.000000 0.000000  -1.570800 -1.391899 -1.570792
1  -3.333990 2.359167 1.335070  -1.544956 -1.855077 -0.198630
2  6.027525 -0.000323 0.000193  -0.725016 -0.922937 -1.513531
3  11.692111 0.000644 -0.000739  -0.551974 -0.000007 -1.189906
4  11.480258 0.000133 -0.000780  2.489552 -0.670194 -0.264953
5  3.806291 -0.372256 -1.110992  -0.529793 -0.073810 -1.897370
6  1.312590 0.000012 0.000008  0.103432 -0.025446 -0.129301
7  0.729355 0.000052 0.000050  -0.076005 -0.077877 -0.849610
8  3.942142 0.046273 -0.431511  -0.300837 0.240742 -1.342798
9  1.539110 0.000085 0.000006  0.288969 -0.244282 -1.112656
10  1.196332 0.000142 0.000030  -0.004944 0.004446 -0.737404
11  3.883506 -0.047269 0.431382  -0.156587 0.297040 -1.174330
12  1.719575 -0.000026 0.000014  0.319275 -0.218446 -1.398918
13  1.209179 0.000093 0.000011  0.001029 0.002802 -0.648631
14  3.859662 -0.138475 1.332411  0.084999 0.365849 -0.950111
15  1.719448 -0.000010 0.000021  0.624915 -0.234597 -1.649343
16  1.099674 0.000049 0.000005  0.001249 0.007265 -0.897875
17  0.805996 -0.349051 1.321254  -1.004830 -0.436822 -0.698668
18  1.789819 -0.000002 -0.000019  0.109460 -0.013079 0.104637
19  1.207014 -0.000010 -0.000044  -0.168957 0.349224 1.324858
20  5.740637 0.000410 -0.000704  0.108442 0.000003 0.000070
21  11.481060 0.000231 -0.000816  0.162587 -0.122551 0.002637
22  6.027526 -0.000330 0.000203  1.588337 -0.647740 1.598997
23  0.000001 11.692098 -0.000008  -0.841501 -0.314977 -0.681961
24  0.000001 0.000008 -0.000001  0.317109 -0.000031 1.570738
25  -0.000001 -0.000011 -0.000001  0.868957 0.000002 1.570712
26  -4.110751 -3.692282 2.046260  1.473120 1.855075 -0.198639
27  6.027510 -0.000259 -0.000227  1.519189 0.733285 -0.629032
28  11.691991 0.000244 0.000858  0.617933 0.000057 -1.635382
29  11.479290 -0.000358 0.001263  -1.794645 1.012925 0.361055
30  3.840238 -0.256103 1.127580  0.295546 0.139683 -1.669742
31  1.312558 0.000023 -0.000000  0.010552 -0.001809 -0.117851
32  0.729345 0.000066 -0.000027  0.000413 -0.002204 -1.216053
33  3.942045 0.050110 0.430997  0.289854 0.021571 -1.314220
34  1.539096 0.000010 0.000001  0.003529 -0.030507 -0.899996
35  1.196300 0.000077 -0.000004  0.003213 -0.000660 -1.346235
36  3.883411 -0.050502 -0.431087  0.205962 -0.055410 -1.138183
37  1.719563 -0.000079 -0.000004  -0.025251 0.013579 -1.531538
38  1.209198 0.000036 0.000011  0.025602 -0.125409 -0.740152
39  3.806436 -0.112147 -1.295329  -0.228156 0.087259 -0.446288
40  1.719412 -0.000100 -0.000034  0.042005 0.147580 -1.268467
41  1.099673 0.000025 0.000006  -0.231841 0.149164 -0.883809
42  0.805978 -0.359853 -1.318338  1.328333 0.252814 -0.645919
43  1.789780 -0.000009 -0.000042  0.068853 0.027685 -0.239620
44  1.206997 -0.000005 0.000005  0.004778 0.068187 0.264913
45  5.740573 0.000056 0.000723  0.017764 -0.000014 0.000021
46  11.480804 -0.000036 0.001001  -0.069913 0.172654 0.076760
47  6.027514 -0.000273 -0.000237  -0.890234 -0.533284 -1.639221
48  -0.000001 11.691973 -0.000006  -1.109122 0.552561 0.858537
49  0.000004 -0.000001 -0.000001  2.890460 -0.000041 1.570856
50  -0.000006 -0.000015 0.000005  2.272644 -0.000030 1.570865
51  -3.131461 -11.388419 -6.987632  -0.193521 -2.922680 1.077831
52  0.000000 0.000000 0.000000  0.008153 -0.000259 0.000009
53  -0.000000 0.000000 0.000000  1.565115 0.043565 -0.106862
54  -1.674586 -18.677729 -7.576539  0.400945 -0.483189 -1.526894
55  -0.000001 0.000001 0.000001  0.000000 -0.000000 -0.000002
56  0.000029 0.000029 0.000002  -1.571902 -0.044449 -0.106509
57  8.802561 -11.771522 -19.009918  1.570796 -0.000000 0.000000
58  -15.265000 7.133661 -18.583086  1.570796 -0.000000 0.000000
59  1.339387 -1.728622 -3.701813  1.570796 -0.000000 0.000000
60  -0.004311 0.001230 -0.000371  0.006898 -0.005534 -0.284229
61  2.046263 4.364841 -3.388127  1.570796 -0.000000 0.000000
62  0.000000 0.000000 0.000000  -0.078727 -3.136056 0.284226
63  0.000000 0.000000 0.000000  1.570796 -0.000000 0.000000
64  -3.276052 -15.338116 -4.435771  1.571020 -0.000358 -0.000009
65  -0.000000 0.106749 0.631994  0.000000 -0.000000 -0.000000
66  -0.000000 0.621414 -3.753305  0.000000 -0.000000 -0.000000
67  0.000000 0.532204 8.683749  0.000000 -0.000000 -0.000000
68  -0.000001 -1.186305 0.340612  0.000000 -0.000000 -0.000000
69  -0.000000 1.996277 -5.696260  0.000000 -0.000000 -0.000000
70  -0.000000 0.111714 1.276771  -0.280884 -0.000000 -0.000000
71  -1.117961 0.703408 5.154790  0.021679 -0.015647 -0.000000
72  -3.347148 -14.951589 -7.619388  1.571020 -0.000358 -0.000009
73  0.036713 3.547557 -0.615411  0.000000 -0.000000 -0.000000
74  -0.076920 3.276581 -0.615410  0.000000 -0.000000 -0.000000
75  0.045457 3.053680 -0.615411  0.000000 -0.000000 -0.000000
76  0.000000 1.834484 -0.723263  0.000000 -0.000000 -0.000000
77  0.000000 1.834485 -0.560888  0.000000 -0.000000 -0.000000
78  0.000000 1.834484 -0.409514  0.000000 -0.000000 -0.000000
79  -3.086915 -14.989986 -6.908483  1.593543 -0.053744 -0.015687
time 15
0  0.000006 0.000000 0.000000  -1.570800 -1.391899 -1.570792
1  -3.333990 2.359167 1.335070  -1.544956 -1.855077 -0.198630
2  6.027525 -0.000323 0.000193  -0.725017 -0.923176 -1.513779
3  11.692110 0.000642 -0.000741  -0.551974 -0.000007 -1.189457
4  11.480262 0.000138 -0.000777  2.489351 -0.669981 -0.265279
5  3.806287 -0.372256 -1.110994  -0.529793 -0.073810 -1.897370
6  1.312590 0.000013 0.000008  0.103432 -0.025446 -0.129301
7  0.729355 0.000052 0.000050  -0.076005 -0.077877 -0.849610
8  3.942143 0.046273 -0.431513  -0.300837 0.240743 -1.342798
9  1.539112 0.000083 0.000004  0.288969 -0.244282 -1.112656
10  1.196333 0.000147 0.000028  -0.004944 0.004446 -0.737404
11  3.883505 -0.047269 0.431381  -0.156587 0.297040 -1.174331
12  1.719572 -0.000027 0.000015  0.319275 -0.218446 -1.398918
13  1.209178 0.000094 0.000012  0.001029 0.002802 -0.648631
14  3.859662 -0.138476 1.332408  0.084999 0.365849 -0.950111
15  1.719449 -0.000012 0.000022  0.624915 -0.234597 -1.649343
16  1.099674 0.000049 0.000005  0.001249 0.007265 -0.897875
17  0.805993 -0.349050 1.321252  -1.004830 -0.436822 -0.698668
18  1.789819 -0.000004 -0.000018  0.109460 -0.013079 0.104637
19  1.207018 -0.000010 -0.000043  -0.168957 0.349224 1.324858
20  5.740637 0.000409 -0.000703  0.108404 0.000003 0.000071
21  11.481060 0.000232 -0.000814  0.162545 -0.122530 0.002544
22  6.027526 -0.000330 0.000203  1.588329 -0.647501 1.598753
23  0.000002 11.692098 -0.000007  -0.841221 -0.314761 -0.681758
24  0.000003 0.000008 -0.000001  0.317109 -0.000031 1.570738
25  -0.000000 -0.000011 0.000000  0.868957 0.000002 1.570712
26  -4.110751 -3.692282 2.046260  1.473120 1.855075 -0.198639
27  6.027510 -0.000259 -0.000227  1.519188 0.733606 -0.629044
28  11.691990 0.000244 0.000858  0.617933 0.000057 -1.634932
29  11.479294 -0.000357 0.001262  -1.795470 1.012778 0.360231
30  3.840239 -0.256104 1.127581  0.295546 0.139683 -1.669741
31  1.312558 0.000025 0.000001  0.010552 -0.001809 -0.117851
32  0.729345 0.000066 -0.000027  0.000413 -0.002204 -1.216053
33  3.942046 0.050109 0.430998  0.289854 0.021571 -1.314220
34  1.539095 0.000010 -0.000000  0.003529 -0.030507 -0.899996
35  1.196299 0.000077 -0.000003  0.003213 -0.000660 -1.346235
36  3.883411 -0.050502 -0.431086  0.205962 -0.055410 -1.138183
37  1.719562 -0.000079 -0.000003  -0.025251 0.013579 -1.531538
38  1.209195 0.000036 0.000011  0.025602 -0.125409 -0.740152
39  3.806436 -0.112148 -1.295329  -0.233658 0.088381 -0.443525
40  1.719412 -0.000100 -0.000034  0.041984 0.149566 -1.273773
41  1.099674 0.000025 0.000006  -0.237119 0.151816 -0.888566
42  0.805979 -0.359854 -1.318337  1.328333 0.252814 -0.645919
43  1.789778 -0.000008 -0.000042  0.068853 0.027685 -0.239620
44  1.206996 -0.000005 0.000006  0.004778 0.068187 0.264913
45  5.740572 0.000055 0.000725  0.017661 -0.000014 0.000021
46  11.480803 -0.000036 0.001002  -0.069987 0.172619 0.076690
47  6.027514 -0.000273 -0.000237  -0.890550 -0.533115 -1.639072
48  -0.000001 11.691974 -0.000006  -1.108857 0.552301 0.858385
49  0.000005 -0.000002 -0.000001  2.890460 -0.000041 1.570856
50  -0.000007 -0.000015 0.000005  2.272644 -0.000030 1.570865
51  -3.130425 -11.392326 -6.986777  -0.193736 -2.922314 1.077886
52  -0.000000 0.000000 0.000000  0.008153 -0.000259 0.000009
53  0.000000 -0.000000 0.000001  1.565115 0.043565 -0.106862
54  -1.673698 -18.681755 -7.574580  0.400529 -0.483397 -1.526692
55  -0.000001 0.000000 0.000000  0.000000 -0.000000 -0.000002
56  0.000031 0.000029 0.000001  -1.571902 -0.044449 -0.106509
57  8.802561 -11.771522 -19.009918  1.570796 -0.000000 0.000000
58  -15.265000 7.133661 -18.583086  1.570796 -0.000000 0.000000
59  1.339387 -1.728622 -3.701813  1.570796 -0.000000 0.000000
60  -0.004311 0.001230 -0.000371  0.006898 -0.005534 -0.284229
61  2.046263 4.364841 -3.388127  1.570796 -0.000000 0.000000
62  0.000000 0.000000 0.000000  -0.078727 -3.136056 0.284226
63  0.000000 0.000000 0.000000  1.570796 -0.000000 0.000000
64  -3.274067 -15.341454 -4.433983  1.570796 -0.000000 0.000000
65  0.000000 0.106749 0.631994  0.000000 -0.000000 0.000000
66  0.000000 0.621414 -3.753305  0.000000 -0.000000 0.000000
67  0.000000 0.532204 8.683752  0.000000 -0.000000 0.000000
68  -0.000000 -1.186305 0.340612  0.000000 -0.000000 0.000000
69  0.000000 1.996277 -5.696260  0.000000 -0.000000 0.000000
70  0.000000 0.111713 1.276772  -0.280884 -0.000000 -0.000000
71  -1.117962 0.703408 5.154791  0.021679 -0.015647 0.000000
72  -3.346308 -14.955638 -7.617660  1.570796 -0.000000 0.000000
73  0.036712 3.547556 -0.615411  -0.000000 0.000000 -0.000000
74  -0.076920 3.276581 -0.615410  -0.000000 0.000000 -0.000000
75  0.045456 3.053679 -0.615411  -0.000000 0.000000 -0.000000
76  -0.000000 1.834484 -0.723263  -0.000000 0.000000 -0.000000
77  -0.000000 1.834484 -0.560888  -0.000000 0.000000 -0.000000
78  -0.000000 1.834484 -0.409514  -0.000000 0.000000 -0.000000
79  -3.085819 -14.993874 -6.906840  1.593314 -0.053389 -0.015666
end
