version 1
nodes
0 "ValveBiped.Bip01_Spine4" -1
1 "ValveBiped.Bip01_L_Clavicle" 0
2 "ValveBiped.Bip01_L_UpperArm" 1
3 "ValveBiped.Bip01_L_Forearm" 2
4 "ValveBiped.Bip01_L_Hand" 3
5 "ValveBiped.Bip01_L_Finger4" 4
6 "ValveBiped.Bip01_L_Finger41" 5
7 "ValveBiped.Bip01_L_Finger42" 6
8 "ValveBiped.Bip01_L_Finger3" 4
9 "ValveBiped.Bip01_L_Finger31" 8
10 "ValveBiped.Bip01_L_Finger32" 9
11 "ValveBiped.Bip01_L_Finger2" 4
12 "ValveBiped.Bip01_L_Finger21" 11
13 "ValveBiped.Bip01_L_Finger22" 12
14 "ValveBiped.Bip01_L_Finger1" 4
15 "ValveBiped.Bip01_L_Finger11" 14
16 "ValveBiped.Bip01_L_Finger12" 15
17 "ValveBiped.Bip01_L_Finger0" 4
18 "ValveBiped.Bip01_L_Finger01" 17
19 "ValveBiped.Bip01_L_Finger02" 18
20 "ValveBiped.Bip01_L_Ulna" 3
21 "ValveBiped.Bip01_L_Wrist" 3
22 "rig_l_upperarm" 1
23 "rig_l_forearm" 22
24 "rig_d_l_forearm" 23
25 "rig_d_l_upperarm" 22
26 "ValveBiped.Bip01_R_Clavicle" 0
27 "ValveBiped.Bip01_R_UpperArm" 26
28 "ValveBiped.Bip01_R_Forearm" 27
29 "ValveBiped.Bip01_R_Hand" 28
30 "ValveBiped.Bip01_R_Finger4" 29
31 "ValveBiped.Bip01_R_Finger41" 30
32 "ValveBiped.Bip01_R_Finger42" 31
33 "ValveBiped.Bip01_R_Finger3" 29
34 "ValveBiped.Bip01_R_Finger31" 33
35 "ValveBiped.Bip01_R_Finger32" 34
36 "ValveBiped.Bip01_R_Finger2" 29
37 "ValveBiped.Bip01_R_Finger21" 36
38 "ValveBiped.Bip01_R_Finger22" 37
39 "ValveBiped.Bip01_R_Finger1" 29
40 "ValveBiped.Bip01_R_Finger11" 39
41 "ValveBiped.Bip01_R_Finger12" 40
42 "ValveBiped.Bip01_R_Finger0" 29
43 "ValveBiped.Bip01_R_Finger01" 42
44 "ValveBiped.Bip01_R_Finger02" 43
45 "ValveBiped.Bip01_R_Ulna" 28
46 "ValveBiped.Bip01_R_Wrist" 28
47 "rig_r_upperarm" 26
48 "rig_r_forearm" 47
49 "rig_d_r_forearm" 48
50 "rig_d_r_upperarm" 47
51 "rig_r_hand" -1
52 "rig_d_r_hand" 51
53 "rig_d_r_wrist" 52
54 "rig_l_hand" -1
55 "rig_d_l_hand" 54
56 "rig_d_l_wrist" 54
57 "rig_l_pole" -1
58 "rig_r_pole" -1
59 "rig_l_clavicle" -1
60 "rig_d_l_clavicle" 59
61 "rig_r_clavicle" -1
62 "rig_d_r_clavicle" 61
63 "Camera" -1
64 "body" -1
65 "trigger" 64
66 "bolt" 64
67 "barrel" 64
68 "magrel" 64
69 "chandle" 64
70 "boltrelease" 64
71 "laseradj" 64
72 "mag" -1
73 "bullet1" 72
74 "bullet2" 72
75 "bullet3" 72
76 "round1" 72
77 "round2" 72
78 "round3" 72
79 "mag2" -1
end
skeleton
time 0
0  0.000006 0.000000 0.000000  -1.570800 -1.391899 -1.570792
1  -3.333990 2.359167 1.335070  -1.544956 -1.855077 -0.198630
2  6.027525 -0.000323 0.000193  -0.725017 -0.923176 -1.513779
3  11.692110 0.000642 -0.000741  -0.551974 -0.000007 -1.189457
4  11.480262 0.000138 -0.000777  2.489351 -0.669981 -0.265279
5  3.806287 -0.372256 -1.110994  -0.529793 -0.073810 -1.897370
6  1.312590 0.000013 0.000008  0.103432 -0.025446 -0.129301
7  0.729355 0.000052 0.000050  -0.076005 -0.077877 -0.849610
8  3.942143 0.046273 -0.431513  -0.300837 0.240743 -1.342798
9  1.539112 0.000083 0.000004  0.288969 -0.244282 -1.112656
10  1.196333 0.000147 0.000028  -0.004944 0.004446 -0.737404
11  3.883505 -0.047269 0.431381  -0.156587 0.297040 -1.174331
12  1.719572 -0.000027 0.000015  0.319275 -0.218446 -1.398918
13  1.209178 0.000094 0.000012  0.001029 0.002802 -0.648631
14  3.859662 -0.138476 1.332408  0.084999 0.365849 -0.950111
15  1.719449 -0.000012 0.000022  0.624915 -0.234597 -1.649343
16  1.099674 0.000049 0.000005  0.001249 0.007265 -0.897875
17  0.805993 -0.349050 1.321252  -1.004830 -0.436822 -0.698668
18  1.789819 -0.000004 -0.000018  0.109460 -0.013079 0.104637
19  1.207018 -0.000010 -0.000043  -0.168957 0.349224 1.324858
20  5.740637 0.000409 -0.000703  0.108404 0.000003 0.000071
21  11.481060 0.000232 -0.000814  0.162545 -0.122530 0.002544
22  6.027526 -0.000330 0.000203  1.588329 -0.647501 1.598753
23  0.000002 11.692098 -0.000007  -0.841221 -0.314761 -0.681758
24  0.000003 0.000008 -0.000001  0.317109 -0.000031 1.570738
25  -0.000000 -0.000011 0.000000  0.868957 0.000002 1.570712
26  -4.110751 -3.692282 2.046260  1.473120 1.855075 -0.198639
27  6.027510 -0.000259 -0.000227  1.519188 0.733606 -0.629044
28  11.691990 0.000244 0.000858  0.617933 0.000057 -1.634932
29  11.479294 -0.000357 0.001262  -1.795470 1.012778 0.360231
30  3.840239 -0.256104 1.127581  0.295546 0.139683 -1.669741
31  1.312558 0.000025 0.000001  0.010552 -0.001809 -0.117851
32  0.729345 0.000066 -0.000027  0.000413 -0.002204 -1.216053
33  3.942046 0.050109 0.430998  0.289854 0.021571 -1.314220
34  1.539095 0.000010 -0.000000  0.003529 -0.030507 -0.899996
35  1.196299 0.000077 -0.000003  0.003213 -0.000660 -1.346235
36  3.883411 -0.050502 -0.431086  0.205962 -0.055410 -1.138183
37  1.719562 -0.000079 -0.000003  -0.025251 0.013579 -1.531538
38  1.209195 0.000036 0.000011  0.025602 -0.125409 -0.740152
39  3.806435 -0.112147 -1.295328  -0.259019 0.073159 -0.811452
40  1.719414 -0.000099 -0.000033  0.051940 0.150487 -1.216918
41  1.099673 0.000025 0.000008  -0.230661 0.148282 -0.903266
42  0.805979 -0.359854 -1.318337  1.328333 0.252814 -0.645919
43  1.789778 -0.000008 -0.000042  0.068853 0.027685 -0.239620
44  1.206996 -0.000005 0.000006  0.004778 0.068187 0.264913
45  5.740572 0.000055 0.000725  0.017661 -0.000014 0.000021
46  11.480803 -0.000036 0.001002  -0.069987 0.172619 0.076690
47  6.027514 -0.000273 -0.000237  -0.890550 -0.533115 -1.639072
48  -0.000001 11.691974 -0.000006  -1.108857 0.552301 0.858385
49  0.000005 -0.000002 -0.000001  2.890460 -0.000041 1.570856
50  -0.000007 -0.000015 0.000005  2.272644 -0.000030 1.570865
51  -3.130425 -11.392326 -6.986777  -0.193736 -2.922314 1.077886
52  -0.000000 0.000000 0.000000  0.008153 -0.000259 0.000009
53  0.000000 -0.000000 0.000001  1.565115 0.043565 -0.106862
54  -1.673698 -18.681755 -7.574580  0.400529 -0.483397 -1.526692
55  -0.000001 0.000000 0.000000  0.000000 -0.000000 -0.000002
56  0.000031 0.000029 0.000001  -1.571902 -0.044449 -0.106509
57  8.802561 -11.771522 -19.009918  1.570796 -0.000000 0.000000
58  -15.265000 7.133661 -18.583086  1.570796 -0.000000 0.000000
59  1.339387 -1.728622 -3.701813  1.570796 -0.000000 0.000000
60  -0.004311 0.001230 -0.000371  0.006898 -0.005534 -0.284229
61  2.046263 4.364841 -3.388127  1.570796 -0.000000 0.000000
62  0.000000 0.000000 0.000000  -0.078727 -3.136056 0.284226
63  0.000000 0.000000 0.000000  1.570796 -0.000000 0.000000
64  -3.274067 -15.341454 -4.433983  1.570796 -0.000000 0.000000
65  0.000000 0.106749 0.631994  0.367463 -0.000000 0.000000
66  0.000000 0.621414 -1.027760  0.000000 -0.000000 0.000000
67  0.000000 0.532204 8.683752  0.000000 -0.000000 0.000000
68  -0.000000 -1.186305 0.340612  0.000000 -0.000000 0.000000
69  0.000000 1.996277 -5.696260  0.000000 -0.000000 0.000000
70  0.000000 0.111713 1.276772  0.000000 -0.000000 0.000000
71  -1.117962 0.703408 5.154791  0.021679 -0.015647 0.000000
72  -3.346308 -14.955638 -7.617660  1.570796 -0.000000 0.000000
73  0.036712 3.547556 -0.615411  -0.000000 0.000000 -0.000000
74  -0.076920 3.276581 -0.615410  -0.000000 0.000000 -0.000000
75  0.045456 3.053679 -0.615411  -0.000000 0.000000 -0.000000
76  -0.000000 1.834484 -0.723263  -0.000000 0.000000 -0.000000
77  -0.000000 1.834484 -0.560888  -0.000000 0.000000 -0.000000
78  -0.000000 1.834484 -0.409514  -0.000000 0.000000 -0.000000
79  -3.085819 -14.993874 -6.906840  1.593314 -0.053389 -0.015666
time 1
0  0.000006 0.000000 0.000000  -1.570800 -1.391899 -1.570792
1  -3.333990 2.359167 1.335070  -1.544956 -1.855077 -0.198630
2  6.027525 -0.000323 0.000193  -0.736900 -0.895953 -1.478910
3  11.692111 0.000644 -0.000741  -0.551978 -0.000010 -1.265758
4  11.480777 0.000330 -0.000655  2.503202 -0.704157 -0.246122
5  3.806291 -0.372255 -1.110994  -0.529793 -0.073810 -1.897370
6  1.312590 0.000011 0.000008  0.103432 -0.025446 -0.129301
7  0.729355 0.000053 0.000050  -0.076005 -0.077877 -0.849610
8  3.942147 0.046273 -0.431513  -0.300837 0.240742 -1.342798
9  1.539111 0.000085 0.000007  0.288969 -0.244282 -1.112656
10  1.196332 0.000144 0.000029  -0.004944 0.004446 -0.737404
11  3.883508 -0.047269 0.431380  -0.156588 0.297040 -1.174330
12  1.719572 -0.000027 0.000016  0.319275 -0.218446 -1.398918
13  1.209178 0.000094 0.000011  0.001029 0.002802 -0.648631
14  3.859665 -0.138475 1.332409  0.084999 0.365849 -0.950111
15  1.719450 -0.000010 0.000022  0.624915 -0.234597 -1.649343
16  1.099673 0.000050 0.000004  0.001249 0.007265 -0.897875
17  0.805997 -0.349049 1.321253  -1.004831 -0.436822 -0.698668
18  1.789819 -0.000004 -0.000018  0.109460 -0.013079 0.104637
19  1.207015 -0.000010 -0.000045  -0.168957 0.349224 1.324858
20  5.740636 0.000409 -0.000703  0.104375 0.000003 0.000071
21  11.481163 0.000270 -0.000790  0.164182 -0.127744 0.009925
22  6.027526 -0.000330 0.000203  1.598841 -0.674435 1.617789
23  0.000002 11.692099 -0.000008  -0.888433 -0.352243 -0.715571
24  0.000001 0.000009 -0.000000  0.317109 -0.000031 1.570738
25  -0.000000 -0.000011 -0.000002  0.868957 0.000002 1.570712
26  -4.110751 -3.692282 2.046260  1.473120 1.855075 -0.198639
27  6.027509 -0.000259 -0.000227  1.515185 0.698318 -0.630750
28  11.691990 0.000243 0.000856  0.617934 0.000062 -1.701643
29  11.480575 0.000246 0.000835  -1.785146 1.033345 0.392068
30  3.840239 -0.256103 1.127581  0.295546 0.139683 -1.669741
31  1.312558 0.000025 -0.000001  0.010552 -0.001809 -0.117851
32  0.729345 0.000064 -0.000027  0.000413 -0.002204 -1.216053
33  3.942046 0.050109 0.430998  0.289854 0.021571 -1.314219
34  1.539098 0.000011 0.000000  0.003529 -0.030507 -0.899996
35  1.196300 0.000076 -0.000004  0.003213 -0.000660 -1.346235
36  3.883412 -0.050502 -0.431087  0.205962 -0.055410 -1.138183
37  1.719564 -0.000078 -0.000004  -0.025251 0.013579 -1.531538
38  1.209196 0.000034 0.000011  0.025602 -0.125409 -0.740152
39  3.806435 -0.112146 -1.295328  -0.230067 0.065010 -0.768708
40  1.719412 -0.000099 -0.000033  0.043529 0.130594 -1.256461
41  1.099673 0.000024 0.000007  -0.196123 0.130961 -0.868806
42  0.805979 -0.359854 -1.318337  1.328333 0.252814 -0.645919
43  1.789779 -0.000009 -0.000043  0.068853 0.027685 -0.239620
44  1.206996 -0.000006 0.000006  0.004778 0.068187 0.264913
45  5.740572 0.000055 0.000725  0.022820 -0.000014 0.000021
46  11.481060 0.000086 0.000917  -0.071157 0.176331 0.081474
47  6.027514 -0.000273 -0.000237  -0.857328 -0.554236 -1.655338
48  0.000000 11.691973 -0.000005  -1.147947 0.591221 0.880306
49  0.000004 -0.000002 -0.000000  2.890460 -0.000041 1.570856
50  -0.000006 -0.000015 0.000005  2.272644 -0.000030 1.570865
51  -3.126335 -10.816183 -6.988039  -0.192050 -2.922638 1.077520
52  -0.000001 0.000000 0.000001  0.008153 -0.000259 0.000009
53  0.000000 -0.000000 0.000001  1.565115 0.043565 -0.106862
54  -1.668667 -18.105900 -7.569907  0.402314 -0.483959 -1.527522
55  0.000003 0.000000 0.000000  0.000000 -0.000000 -0.000002
56  0.000033 0.000029 0.000001  -1.571902 -0.044449 -0.106509
57  8.802561 -11.771522 -19.009918  1.570796 -0.000000 0.000000
58  -15.265000 7.133661 -18.583086  1.570796 -0.000000 0.000000
59  1.339387 -1.728622 -3.701813  1.570796 -0.000000 0.000000
60  -0.004311 0.001230 -0.000371  0.006898 -0.005534 -0.284229
61  2.046263 4.364841 -3.388127  1.570796 -0.000000 0.000000
62  0.000000 0.000000 0.000000  -0.078727 -3.136056 0.284226
63  0.000000 0.000000 0.000000  1.570796 -0.000000 0.000000
64  -3.274069 -14.764051 -4.433530  1.570303 -0.001603 0.000001
65  -0.000000 0.106749 0.631995  0.365752 -0.000000 0.000000
66  -0.000000 0.621414 -4.027759  0.000000 -0.000000 0.000000
67  0.000000 0.532204 8.683753  0.000000 -0.000000 0.000000
68  -0.000001 -1.186305 0.340613  0.000000 -0.000000 0.000000
69  -0.000000 1.996277 -5.696261  0.000000 -0.000000 0.000000
70  -0.000000 0.111714 1.276772  0.000000 -0.000000 0.000000
71  -1.117961 0.703408 5.154793  0.021679 -0.015647 0.000000
72  -3.341206 -14.379807 -7.617508  1.570303 -0.001603 0.000001
73  0.036712 3.547556 -0.615410  0.000000 0.000000 0.000000
74  -0.076920 3.276581 -0.615409  0.000000 0.000000 0.000000
75  0.045456 3.053679 -0.615409  0.000000 0.000000 0.000000
76  -0.000000 1.834484 -0.723262  0.000000 0.000000 0.000000
77  -0.000000 1.834484 -0.560888  0.000000 0.000000 0.000000
78  -0.000000 1.834484 -0.409514  0.000000 0.000000 0.000000
79  -3.081857 -14.417692 -6.906253  1.592845 -0.055000 -0.015640
time 2
0  0.000006 0.000000 0.000000  -1.570800 -1.391899 -1.570792
1  -3.333990 2.359167 1.335070  -1.544956 -1.855077 -0.198630
2  6.027525 -0.000323 0.000193  -0.734617 -0.901170 -1.485587
3  11.692111 0.000642 -0.000740  -0.551977 -0.000009 -1.251324
4  11.479570 -0.000171 -0.000964  2.500288 -0.697693 -0.250396
5  3.806288 -0.372254 -1.110992  -0.529793 -0.073810 -1.897370
6  1.312590 0.000012 0.000008  0.103432 -0.025446 -0.129301
7  0.729355 0.000054 0.000050  -0.076005 -0.077877 -0.849610
8  3.942144 0.046274 -0.431512  -0.300837 0.240743 -1.342798
9  1.539111 0.000083 0.000005  0.288969 -0.244282 -1.112656
10  1.196332 0.000145 0.000029  -0.004944 0.004446 -0.737404
11  3.883506 -0.047268 0.431382  -0.156588 0.297040 -1.174330
12  1.719573 -0.000025 0.000015  0.319275 -0.218446 -1.398918
13  1.209181 0.000092 0.000012  0.001029 0.002802 -0.648631
14  3.859663 -0.138475 1.332410  0.084999 0.365849 -0.950111
15  1.719446 -0.000012 0.000022  0.624915 -0.234597 -1.649343
16  1.099674 0.000049 0.000005  0.001249 0.007265 -0.897875
17  0.805995 -0.349049 1.321254  -1.004830 -0.436822 -0.698668
18  1.789819 -0.000004 -0.000019  0.109460 -0.013079 0.104637
19  1.207016 -0.000011 -0.000044  -0.168957 0.349224 1.324858
20  5.740636 0.000412 -0.000703  0.105017 0.000003 0.000071
21  11.480923 0.000173 -0.000851  0.163784 -0.126801 0.008382
22  6.027526 -0.000330 0.000203  1.596738 -0.669285 1.614208
23  0.000000 11.692099 -0.000007  -0.879557 -0.345038 -0.709284
24  0.000003 0.000009 -0.000000  0.317109 -0.000030 1.570739
25  -0.000001 -0.000011 -0.000000  0.868957 0.000002 1.570712
26  -4.110751 -3.692282 2.046260  1.473120 1.855075 -0.198639
27  6.027509 -0.000259 -0.000227  1.515954 0.704915 -0.630434
28  11.691992 0.000244 0.000858  0.617934 0.000061 -1.689029
29  11.478739 -0.000618 0.001449  -1.789120 1.029476 0.384162
30  3.840240 -0.256104 1.127581  0.295546 0.139683 -1.669742
31  1.312558 0.000027 -0.000000  0.010552 -0.001809 -0.117851
32  0.729346 0.000064 -0.000027  0.000413 -0.002203 -1.216053
33  3.942047 0.050110 0.430996  0.289854 0.021571 -1.314220
34  1.539097 0.000009 0.000000  0.003529 -0.030507 -0.899996
35  1.196299 0.000075 -0.000003  0.003213 -0.000660 -1.346235
36  3.883412 -0.050501 -0.431088  0.205962 -0.055410 -1.138183
37  1.719563 -0.000078 -0.000004  -0.025251 0.013579 -1.531538
38  1.209198 0.000033 0.000010  0.025602 -0.125409 -0.740152
39  3.806435 -0.112147 -1.295329  -0.155950 0.037824 -0.657740
40  1.719412 -0.000099 -0.000035  0.025340 0.076966 -1.359089
41  1.099673 0.000022 0.000007  -0.108737 0.080056 -0.781627
42  0.805979 -0.359854 -1.318339  1.328333 0.252814 -0.645919
43  1.789780 -0.000010 -0.000042  0.068853 0.027685 -0.239620
44  1.206998 -0.000007 0.000005  0.004778 0.068187 0.264913
45  5.740573 0.000056 0.000724  0.021634 -0.000014 0.000021
46  11.480693 -0.000087 0.001040  -0.071118 0.175612 0.080434
47  6.027514 -0.000273 -0.000237  -0.863585 -0.550299 -1.652236
48  0.000001 11.691973 -0.000005  -1.140558 0.583807 0.876258
49  0.000004 -0.000001 -0.000001  2.890460 -0.000041 1.570856
50  -0.000006 -0.000015 0.000005  2.272644 -0.000030 1.570865
51  -3.128273 -10.924589 -6.989305  -0.192782 -2.921695 1.077500
52  0.000000 -0.000000 -0.000001  0.008153 -0.000259 0.000009
53  0.000000 0.000000 -0.000000  1.565115 0.043565 -0.106862
54  -1.672536 -18.214851 -7.569144  0.401075 -0.484405 -1.527124
55  0.000001 0.000001 0.000001  0.000000 -0.000000 -0.000002
56  0.000031 0.000029 0.000002  -1.571901 -0.044449 -0.106509
57  8.802561 -11.771522 -19.009918  1.570796 -0.000000 0.000000
58  -15.265000 7.133661 -18.583086  1.570796 -0.000000 0.000000
59  1.339387 -1.728622 -3.701813  1.570796 -0.000000 0.000000
60  -0.004311 0.001230 -0.000371  0.006898 -0.005534 -0.284229
61  2.046263 4.364841 -3.388127  1.570796 -0.000000 0.000000
62  0.000000 0.000000 0.000000  -0.078727 -3.136056 0.284226
63  0.000000 0.000000 0.000000  1.570796 -0.000000 0.000000
64  -3.273963 -14.871170 -4.432691  1.569810 -0.000527 -0.000178
65  -0.000000 0.106749 0.631995  0.354101 0.000000 0.000000
66  0.000000 0.621414 -1.027760  -0.000000 0.000000 0.000000
67  0.000001 0.532203 8.683753  -0.000000 0.000000 0.000000
68  -0.000000 -1.186306 0.340612  -0.000000 0.000000 0.000000
69  0.000000 1.996276 -5.696260  -0.000000 0.000000 0.000000
70  -0.000000 0.111713 1.276770  -0.000000 0.000000 0.000000
71  -1.117962 0.703408 5.154792  0.021679 -0.015647 0.000000
72  -3.344458 -14.488483 -7.616784  1.569810 -0.000527 -0.000178
73  0.036713 3.547557 -0.615410  -0.000000 0.000000 0.000000
74  -0.076920 3.276581 -0.615408  -0.000000 0.000000 0.000000
75  0.045457 3.053680 -0.615410  -0.000000 0.000000 0.000000
76  0.000000 1.834484 -0.723263  -0.000000 0.000000 0.000000
77  0.000000 1.834484 -0.560887  -0.000000 0.000000 0.000000
78  0.000000 1.834484 -0.409514  -0.000000 0.000000 0.000000
79  -3.084351 -14.526064 -6.905789  1.592334 -0.053932 -0.015791
time 3
0  0.000006 0.000000 0.000000  -1.570800 -1.391899 -1.570792
1  -3.333990 2.359167 1.335070  -1.544956 -1.855077 -0.198630
2  6.027525 -0.000323 0.000193  -0.729841 -0.912150 -1.499638
3  11.692111 0.000645 -0.000740  -0.551976 -0.000008 -1.220417
4  11.480106 0.000073 -0.000816  2.493862 -0.683961 -0.257751
5  3.806286 -0.372255 -1.110992  -0.529793 -0.073810 -1.897370
6  1.312590 0.000012 0.000008  0.103432 -0.025446 -0.129301
7  0.729355 0.000053 0.000050  -0.076004 -0.077877 -0.849610
8  3.942141 0.046273 -0.431511  -0.300837 0.240743 -1.342798
9  1.539111 0.000085 0.000005  0.288969 -0.244282 -1.112656
10  1.196332 0.000146 0.000028  -0.004944 0.004446 -0.737404
11  3.883504 -0.047269 0.431382  -0.156588 0.297040 -1.174330
12  1.719574 -0.000027 0.000016  0.319275 -0.218446 -1.398918
13  1.209179 0.000090 0.000012  0.001029 0.002802 -0.648631
14  3.859663 -0.138476 1.332410  0.084999 0.365849 -0.950111
15  1.719447 -0.000013 0.000023  0.624915 -0.234597 -1.649343
16  1.099673 0.000049 0.000006  0.001249 0.007265 -0.897875
17  0.805992 -0.349050 1.321254  -1.004830 -0.436822 -0.698668
18  1.789819 -0.000004 -0.000018  0.109460 -0.013079 0.104637
19  1.207013 -0.000013 -0.000043  -0.168957 0.349224 1.324858
20  5.740637 0.000411 -0.000704  0.106551 0.000003 0.000071
21  11.481030 0.000220 -0.000822  0.162989 -0.124680 0.005414
22  6.027526 -0.000330 0.000203  1.592465 -0.658427 1.606550
23  0.000002 11.692099 -0.000008  -0.860466 -0.329787 -0.695651
24  0.000002 0.000009 0.000000  0.317109 -0.000031 1.570739
25  -0.000000 -0.000011 -0.000002  0.868957 0.000002 1.570712
26  -4.110751 -3.692282 2.046260  1.473120 1.855075 -0.198639
27  6.027510 -0.000259 -0.000227  1.517650 0.719262 -0.629700
28  11.691992 0.000243 0.000858  0.617934 0.000059 -1.662120
29  11.479112 -0.000431 0.001315  -1.793666 1.021401 0.371642
30  3.840238 -0.256103 1.127581  0.295546 0.139683 -1.669741
31  1.312558 0.000027 -0.000000  0.010552 -0.001809 -0.117851
32  0.729345 0.000066 -0.000027  0.000413 -0.002204 -1.216053
33  3.942046 0.050110 0.430997  0.289854 0.021571 -1.314219
34  1.539095 0.000012 0.000000  0.003529 -0.030507 -0.899996
35  1.196300 0.000074 -0.000004  0.003213 -0.000660 -1.346235
36  3.883410 -0.050501 -0.431087  0.205962 -0.055410 -1.138183
37  1.719562 -0.000079 -0.000004  -0.025251 0.013579 -1.531538
38  1.209198 0.000034 0.000012  0.025602 -0.125409 -0.740152
39  3.806434 -0.112147 -1.295329  -0.085344 0.002687 -0.549142
40  1.719411 -0.000099 -0.000034  0.012788 0.021774 -1.460453
41  1.099673 0.000023 0.000007  -0.026345 0.021982 -0.699455
42  0.805977 -0.359852 -1.318338  1.328333 0.252814 -0.645919
43  1.789779 -0.000009 -0.000042  0.068853 0.027685 -0.239620
44  1.206996 -0.000006 0.000005  0.004778 0.068187 0.264913
45  5.740571 0.000054 0.000725  0.019481 -0.000014 0.000021
46  11.480766 -0.000051 0.001012  -0.070735 0.174140 0.078602
47  6.027514 -0.000273 -0.000237  -0.877092 -0.541684 -1.645596
48  -0.000001 11.691973 -0.000006  -1.124793 0.568075 0.867471
49  0.000004 -0.000001 -0.000001  2.890460 -0.000041 1.570856
50  -0.000006 -0.000015 0.000005  2.272644 -0.000030 1.570865
51  -3.129307 -11.158972 -6.986962  -0.194004 -2.921641 1.077435
52  -0.000001 0.000000 0.000001  0.008153 -0.000259 0.000009
53  -0.000001 0.000001 0.000000  1.565115 0.043565 -0.106862
54  -1.676616 -18.449415 -7.572145  0.399886 -0.483840 -1.526903
55  0.000000 0.000000 0.000000  0.000000 -0.000000 -0.000002
56  0.000030 0.000029 0.000001  -1.571902 -0.044449 -0.106509
57  8.802561 -11.771522 -19.009918  1.570796 -0.000000 0.000000
58  -15.265000 7.133661 -18.583086  1.570796 -0.000000 0.000000
59  1.339387 -1.728622 -3.701813  1.570796 -0.000000 0.000000
60  -0.004311 0.001230 -0.000371  0.006898 -0.005534 -0.284229
61  2.046263 4.364841 -3.388127  1.570796 -0.000000 0.000000
62  0.000000 0.000000 0.000000  -0.078727 -3.136056 0.284226
63  0.000000 0.000000 0.000000  1.570796 -0.000000 0.000000
64  -3.273558 -15.106829 -4.432238  1.570328 0.000549 -0.000510
65  0.000000 0.106749 0.631995  0.322726 -0.000000 0.000000
66  0.000000 0.621414 -1.027760  -0.000000 -0.000000 0.000000
67  0.000000 0.532204 8.683752  -0.000000 -0.000000 0.000000
68  -0.000000 -1.186305 0.340613  -0.000000 -0.000000 0.000000
69  0.000000 1.996277 -5.696259  -0.000000 -0.000000 0.000000
70  -0.000000 0.111714 1.276773  -0.000000 -0.000000 0.000000
71  -1.117962 0.703408 5.154790  0.021679 -0.015647 0.000000
72  -3.347351 -14.722467 -7.616055  1.570328 0.000549 -0.000510
73  0.036712 3.547556 -0.615410  -0.000000 -0.000000 0.000000
74  -0.076920 3.276581 -0.615409  -0.000000 -0.000000 0.000000
75  0.045456 3.053679 -0.615410  -0.000000 -0.000000 0.000000
76  -0.000000 1.834484 -0.723262  -0.000000 -0.000000 0.000000
77  -0.000000 1.834484 -0.560887  -0.000000 -0.000000 0.000000
78  -0.000000 1.834484 -0.409514  -0.000000 -0.000000 0.000000
79  -3.086492 -14.760505 -6.905361  1.592836 -0.052848 -0.016150
time 4
0  0.000006 0.000000 0.000000  -1.570800 -1.391899 -1.570792
1  -3.333990 2.359167 1.335070  -1.544956 -1.855077 -0.198630
2  6.027525 -0.000323 0.000193  -0.724960 -0.923190 -1.513825
3  11.692110 0.000642 -0.000741  -0.551974 -0.000007 -1.189338
4  11.480260 0.000136 -0.000778  2.488621 -0.669566 -0.264370
5  3.806285 -0.372255 -1.110992  -0.529793 -0.073810 -1.897370
6  1.312590 0.000010 0.000007  0.103432 -0.025446 -0.129301
7  0.729355 0.000052 0.000049  -0.076005 -0.077877 -0.849610
8  3.942140 0.046273 -0.431512  -0.300837 0.240743 -1.342798
9  1.539110 0.000085 0.000005  0.288969 -0.244282 -1.112656
10  1.196333 0.000149 0.000029  -0.004944 0.004446 -0.737404
11  3.883503 -0.047269 0.431381  -0.156588 0.297040 -1.174330
12  1.719575 -0.000027 0.000016  0.319275 -0.218446 -1.398918
13  1.209179 0.000089 0.000012  0.001029 0.002802 -0.648631
14  3.859660 -0.138475 1.332411  0.084999 0.365849 -0.950111
15  1.719451 -0.000013 0.000022  0.624915 -0.234597 -1.649343
16  1.099675 0.000050 0.000006  0.001249 0.007265 -0.897875
17  0.805992 -0.349050 1.321254  -1.004831 -0.436822 -0.698668
18  1.789819 -0.000003 -0.000019  0.109460 -0.013079 0.104637
19  1.207015 -0.000012 -0.000044  -0.168957 0.349224 1.324858
20  5.740636 0.000410 -0.000704  0.108428 0.000003 0.000071
21  11.481060 0.000232 -0.000816  0.162481 -0.122389 0.002626
22  6.027526 -0.000330 0.000203  1.588285 -0.647488 1.598779
23  0.000002 11.692099 -0.000007  -0.841147 -0.314704 -0.681704
24  0.000002 0.000008 0.000000  0.317109 -0.000030 1.570739
25  -0.000000 -0.000011 0.000000  0.868957 0.000002 1.570712
26  -4.110751 -3.692282 2.046260  1.473120 1.855075 -0.198639
27  6.027510 -0.000259 -0.000227  1.519017 0.733891 -0.629183
28  11.691991 0.000244 0.000857  0.617933 0.000057 -1.634962
29  11.479294 -0.000357 0.001263  -1.794841 1.013722 0.361415
30  3.840239 -0.256104 1.127581  0.295546 0.139683 -1.669741
31  1.312559 0.000025 -0.000001  0.010552 -0.001809 -0.117850
32  0.729345 0.000064 -0.000028  0.000413 -0.002204 -1.216053
33  3.942046 0.050109 0.430998  0.289854 0.021571 -1.314219
34  1.539097 0.000010 0.000000  0.003529 -0.030507 -0.899996
35  1.196300 0.000076 -0.000004  0.003213 -0.000660 -1.346235
36  3.883411 -0.050503 -0.431087  0.205962 -0.055410 -1.138183
37  1.719564 -0.000080 -0.000004  -0.025251 0.013579 -1.531538
38  1.209197 0.000037 0.000011  0.025602 -0.125409 -0.740152
39  3.806436 -0.112148 -1.295328  -0.059568 -0.012643 -0.508518
40  1.719412 -0.000099 -0.000035  0.009490 0.000462 -1.498854
41  1.099673 0.000022 0.000007  0.003697 -0.001836 -0.669499
42  0.805979 -0.359854 -1.318338  1.328333 0.252814 -0.645919
43  1.789778 -0.000009 -0.000042  0.068853 0.027685 -0.239620
44  1.206996 -0.000005 0.000005  0.004778 0.068187 0.264913
45  5.740573 0.000056 0.000724  0.017765 -0.000014 0.000021
46  11.480803 -0.000036 0.001002  -0.069991 0.172800 0.076846
47  6.027514 -0.000273 -0.000237  -0.890908 -0.533071 -1.638915
48  -0.000001 11.691973 -0.000007  -1.108875 0.552318 0.858395
49  0.000004 -0.000002 -0.000001  2.890460 -0.000041 1.570856
50  -0.000007 -0.000015 0.000004  2.272644 -0.000030 1.570865
51  -3.125922 -11.392202 -6.984235  -0.193777 -2.922852 1.077207
52  -0.000001 0.000000 -0.000000  0.008153 -0.000259 0.000009
53  -0.000000 -0.000000 0.000001  1.565115 0.043565 -0.106862
54  -1.674079 -18.682341 -7.575310  0.400801 -0.482914 -1.527506
55  -0.000001 -0.000000 0.000000  0.000000 -0.000000 -0.000002
56  0.000031 0.000029 0.000001  -1.571902 -0.044449 -0.106509
57  8.802561 -11.771522 -19.009918  1.570796 -0.000000 0.000000
58  -15.265000 7.133661 -18.583086  1.570796 -0.000000 0.000000
59  1.339387 -1.728622 -3.701813  1.570796 -0.000000 0.000000
60  -0.004311 0.001230 -0.000371  0.006898 -0.005534 -0.284229
61  2.046263 4.364841 -3.388127  1.570796 -0.000000 0.000000
62  0.000000 0.000000 0.000000  -0.078727 -3.136056 0.284226
63  0.000000 0.000000 0.000000  1.570796 -0.000000 0.000000
64  -3.272839 -15.342487 -4.433418  1.571289 -0.000219 -0.000688
65  -0.000000 0.106750 0.631995  0.261799 0.000000 -0.000000
66  -0.000000 0.621414 -1.027759  -0.000000 0.000000 -0.000000
67  0.000000 0.532204 8.683753  -0.000000 0.000000 -0.000000
68  -0.000000 -1.186305 0.340613  -0.000000 0.000000 -0.000000
69  -0.000000 1.996277 -5.696261  -0.000000 0.000000 -0.000000
70  -0.000000 0.111714 1.276772  -0.000000 0.000000 -0.000000
71  -1.117962 0.703409 5.154793  0.021679 -0.015647 0.000000
72  -3.344117 -14.955053 -7.616920  1.571289 -0.000219 -0.000688
73  0.036712 3.547556 -0.615410  -0.000000 0.000000 0.000000
74  -0.076920 3.276581 -0.615408  -0.000000 0.000000 0.000000
75  0.045456 3.053679 -0.615409  -0.000000 0.000000 0.000000
76  -0.000000 1.834484 -0.723262  -0.000000 0.000000 0.000000
77  -0.000000 1.834484 -0.560886  -0.000000 0.000000 0.000000
78  -0.000000 1.834484 -0.409513  -0.000000 0.000000 0.000000
79  -3.083811 -14.993820 -6.906063  1.593811 -0.053601 -0.016380
time 5
0  0.000006 0.000000 0.000000  -1.570800 -1.391899 -1.570792
1  -3.333990 2.359167 1.335070  -1.544956 -1.855077 -0.198630
2  6.027525 -0.000323 0.000193  -0.723013 -0.928145 -1.520059
3  11.692111 0.000643 -0.000741  -0.551973 -0.000006 -1.175383
4  11.480334 0.000170 -0.000756  2.487270 -0.662758 -0.267168
5  3.806289 -0.372255 -1.110993  -0.529793 -0.073810 -1.897370
6  1.312589 0.000009 0.000008  0.103432 -0.025446 -0.129301
7  0.729356 0.000050 0.000050  -0.076005 -0.077877 -0.849610
8  3.942142 0.046274 -0.431511  -0.300837 0.240743 -1.342798
9  1.539112 0.000086 0.000004  0.288969 -0.244282 -1.112656
10  1.196333 0.000147 0.000029  -0.004944 0.004446 -0.737404
11  3.883507 -0.047268 0.431381  -0.156588 0.297040 -1.174330
12  1.719572 -0.000027 0.000015  0.319275 -0.218446 -1.398918
13  1.209181 0.000093 0.000012  0.001029 0.002802 -0.648631
14  3.859664 -0.138475 1.332409  0.084999 0.365849 -0.950111
15  1.719451 -0.000010 0.000022  0.624915 -0.234597 -1.649343
16  1.099672 0.000049 0.000005  0.001249 0.007265 -0.897875
17  0.805995 -0.349050 1.321253  -1.004831 -0.436822 -0.698667
18  1.789818 -0.000005 -0.000018  0.109460 -0.013079 0.104637
19  1.207014 -0.000012 -0.000044  -0.168957 0.349224 1.324858
20  5.740637 0.000411 -0.000703  0.109502 0.000003 0.000070
21  11.481075 0.000239 -0.000810  0.162463 -0.121293 0.001455
22  6.027526 -0.000330 0.000203  1.586649 -0.642568 1.595084
23  0.000001 11.692100 -0.000008  -0.832431 -0.308014 -0.675364
24  0.000002 0.000008 -0.000002  0.317109 -0.000031 1.570738
25  -0.000001 -0.000011 -0.000001  0.868957 0.000002 1.570712
26  -4.110751 -3.692282 2.046260  1.473120 1.855075 -0.198639
27  6.027510 -0.000259 -0.000227  1.519476 0.740574 -0.629062
28  11.691992 0.000243 0.000856  0.617933 0.000056 -1.622508
29  11.479375 -0.000320 0.001237  -1.793589 1.010136 0.357676
30  3.840239 -0.256104 1.127581  0.295546 0.139683 -1.669742
31  1.312559 0.000025 0.000001  0.010552 -0.001809 -0.117850
32  0.729345 0.000064 -0.000027  0.000413 -0.002204 -1.216053
33  3.942046 0.050108 0.430997  0.289854 0.021571 -1.314220
34  1.539097 0.000010 -0.000000  0.003529 -0.030507 -0.899996
35  1.196300 0.000075 -0.000005  0.003213 -0.000660 -1.346235
36  3.883411 -0.050503 -0.431087  0.205962 -0.055410 -1.138183
37  1.719562 -0.000078 -0.000004  -0.025251 0.013579 -1.531538
38  1.209196 0.000038 0.000011  0.025602 -0.125409 -0.740152
39  3.806436 -0.112149 -1.295328  -0.059607 0.003204 -0.512042
40  1.719411 -0.000100 -0.000035  0.010952 0.008928 -1.408323
41  1.099673 0.000024 0.000007  -0.001114 0.001738 -0.674340
42  0.805979 -0.359854 -1.318338  1.328333 0.252814 -0.645919
43  1.789780 -0.000010 -0.000042  0.068853 0.027685 -0.239620
44  1.206996 -0.000004 0.000006  0.004778 0.068187 0.264913
45  5.740571 0.000055 0.000723  0.017209 -0.000014 0.000021
46  11.480820 -0.000028 0.000996  -0.069425 0.172204 0.076040
47  6.027514 -0.000273 -0.000237  -0.897254 -0.529219 -1.635888
48  -0.000000 11.691973 -0.000006  -1.101571 0.545134 0.854164
49  0.000004 -0.000000 -0.000000  2.890460 -0.000041 1.570856
50  -0.000006 -0.000015 0.000005  2.272644 -0.000030 1.570865
51  -3.123087 -11.497959 -6.984171  -0.192741 -2.923983 1.077273
52  -0.000000 -0.000000 -0.000001  0.008153 -0.000259 0.000009
53  0.000000 -0.000001 0.000000  1.565115 0.043565 -0.106862
54  -1.668285 -18.787371 -7.576943  0.402435 -0.482459 -1.527974
55  0.000001 -0.000001 -0.000000  0.000000 -0.000000 -0.000002
56  0.000033 0.000028 0.000000  -1.571901 -0.044449 -0.106509
57  8.802561 -11.771522 -19.009918  1.570796 -0.000000 0.000000
58  -15.265000 7.133661 -18.583086  1.570796 -0.000000 0.000000
59  1.339387 -1.728622 -3.701813  1.570796 -0.000000 0.000000
60  -0.004311 0.001230 -0.000371  0.006898 -0.005534 -0.284229
61  2.046263 4.364841 -3.388127  1.570796 -0.000000 0.000000
62  0.000000 0.000000 0.000000  -0.078727 -3.136056 0.284226
63  0.000000 0.000000 0.000000  1.570796 -0.000000 0.000000
64  -3.272496 -15.449606 -4.435610  1.571807 -0.001645 -0.000398
65  0.000000 0.106749 0.631995  0.111175 0.000000 -0.000000
66  0.000000 0.621414 -1.027761  -0.000000 0.000000 -0.000000
67  0.000001 0.532204 8.683752  -0.000000 0.000000 -0.000000
68  0.000000 -1.186305 0.340612  -0.000000 0.000000 -0.000000
69  0.000000 1.996277 -5.696261  -0.000000 0.000000 -0.000000
70  0.000000 0.111714 1.276770  -0.000000 0.000000 -0.000000
71  -1.117961 0.703408 5.154790  0.021679 -0.015647 -0.000000
72  -3.339345 -15.060546 -7.619009  1.571807 -0.001645 -0.000398
73  0.036713 3.547556 -0.615412  -0.000000 0.000000 0.000000
74  -0.076920 3.276581 -0.615410  -0.000000 0.000000 0.000000
75  0.045456 3.053679 -0.615411  -0.000000 0.000000 0.000000
76  -0.000000 1.834484 -0.723264  -0.000000 0.000000 0.000000
77  -0.000000 1.834484 -0.560889  -0.000000 0.000000 0.000000
78  -0.000000 1.834484 -0.409515  -0.000000 0.000000 0.000000
79  -3.080041 -15.099605 -6.907801  1.594352 -0.055018 -0.016120
time 6
0  0.000006 0.000000 0.000000  -1.570800 -1.391899 -1.570792
1  -3.333990 2.359167 1.335070  -1.544956 -1.855077 -0.198630
2  6.027525 -0.000323 0.000193  -0.723811 -0.927438 -1.518878
3  11.692110 0.000644 -0.000739  -0.551973 -0.000006 -1.177432
4  11.480321 0.000163 -0.000762  2.488608 -0.663431 -0.266800
5  3.806288 -0.372256 -1.110992  -0.529793 -0.073810 -1.897370
6  1.312590 0.000010 0.000008  0.103432 -0.025446 -0.129301
7  0.729354 0.000051 0.000049  -0.076005 -0.077877 -0.849610
8  3.942141 0.046273 -0.431511  -0.300837 0.240743 -1.342798
9  1.539110 0.000082 0.000004  0.288969 -0.244282 -1.112656
10  1.196332 0.000144 0.000028  -0.004944 0.004446 -0.737404
11  3.883503 -0.047269 0.431382  -0.156588 0.297040 -1.174330
12  1.719573 -0.000027 0.000015  0.319275 -0.218446 -1.398918
13  1.209178 0.000093 0.000012  0.001029 0.002802 -0.648631
14  3.859662 -0.138475 1.332411  0.084999 0.365849 -0.950111
15  1.719450 -0.000011 0.000021  0.624915 -0.234597 -1.649343
16  1.099677 0.000047 0.000005  0.001249 0.007265 -0.897875
17  0.805993 -0.349050 1.321254  -1.004831 -0.436822 -0.698668
18  1.789819 -0.000002 -0.000018  0.109460 -0.013079 0.104637
19  1.207015 -0.000013 -0.000043  -0.168957 0.349224 1.324858
20  5.740636 0.000411 -0.000703  0.109590 0.000003 0.000071
21  11.481071 0.000238 -0.000812  0.162687 -0.121406 0.001675
22  6.027526 -0.000330 0.000203  1.587270 -0.643261 1.595255
23  0.000002 11.692099 -0.000007  -0.833713 -0.308994 -0.676298
24  0.000003 0.000009 -0.000003  0.317109 -0.000031 1.570739
25  -0.000000 -0.000011 -0.000001  0.868957 0.000002 1.570712
26  -4.110751 -3.692282 2.046260  1.473120 1.855075 -0.198639
27  6.027510 -0.000259 -0.000227  1.519344 0.739725 -0.629134
28  11.691992 0.000243 0.000857  0.617933 0.000056 -1.623918
29  11.479369 -0.000324 0.001239  -1.792290 1.010183 0.358589
30  3.840239 -0.256104 1.127580  0.295546 0.139683 -1.669742
31  1.312558 0.000026 0.000000  0.010552 -0.001809 -0.117851
32  0.729345 0.000066 -0.000028  0.000413 -0.002203 -1.216053
33  3.942045 0.050110 0.430996  0.289854 0.021571 -1.314220
34  1.539095 0.000010 -0.000000  0.003529 -0.030507 -0.899996
35  1.196300 0.000076 -0.000003  0.003213 -0.000660 -1.346235
36  3.883410 -0.050502 -0.431088  0.205962 -0.055410 -1.138183
37  1.719563 -0.000077 -0.000004  -0.025251 0.013579 -1.531538
38  1.209196 0.000036 0.000011  0.025602 -0.125409 -0.740152
39  3.806433 -0.112148 -1.295328  -0.060703 0.037698 -0.519711
40  1.719415 -0.000100 -0.000034  0.017588 0.030145 -1.213546
41  1.099674 0.000024 0.000007  -0.015933 0.012737 -0.688823
42  0.805977 -0.359854 -1.318339  1.328333 0.252814 -0.645919
43  1.789780 -0.000009 -0.000042  0.068853 0.027685 -0.239620
44  1.206995 -0.000005 0.000005  0.004778 0.068187 0.264913
45  5.740573 0.000055 0.000724  0.017448 -0.000014 0.000021
46  11.480819 -0.000029 0.000997  -0.069277 0.172231 0.076081
47  6.027514 -0.000273 -0.000237  -0.896484 -0.529755 -1.636260
48  -0.000001 11.691974 -0.000006  -1.102398 0.545946 0.854645
49  0.000004 -0.000001 0.000001  2.890460 -0.000041 1.570856
50  -0.000007 -0.000015 0.000005  2.272644 -0.000030 1.570865
51  -3.123549 -11.485813 -6.985907  -0.191966 -2.924197 1.077646
52  0.000001 -0.000001 -0.000000  0.008153 -0.000259 0.000009
53  -0.000002 0.000000 -0.000000  1.565115 0.043565 -0.106862
54  -1.664359 -18.774538 -7.576324  0.403293 -0.482661 -1.527833
55  -0.000001 0.000000 0.000000  0.000000 -0.000000 -0.000002
56  0.000031 0.000030 0.000001  -1.571902 -0.044449 -0.106509
57  8.802561 -11.771522 -19.009918  1.570796 -0.000000 0.000000
58  -15.265000 7.133661 -18.583086  1.570796 -0.000000 0.000000
59  1.339387 -1.728622 -3.701813  1.570796 -0.000000 0.000000
60  -0.004311 0.001230 -0.000371  0.006898 -0.005534 -0.284229
61  2.046263 4.364841 -3.388127  1.570796 -0.000000 0.000000
62  0.000000 0.000000 0.000000  -0.078727 -3.136056 0.284226
63  0.000000 0.000000 0.000000  1.570796 -0.000000 0.000000
64  -3.272782 -15.437109 -4.436790  1.571638 -0.002413 0.000142
65  -0.000000 0.106750 0.631995  -0.000000 0.000000 -0.000000
66  -0.000000 0.621415 -1.027760  -0.000000 0.000000 -0.000000
67  0.000000 0.532204 8.683751  -0.000000 0.000000 -0.000000
68  -0.000000 -1.186304 0.340613  -0.000000 0.000000 -0.000000
69  -0.000000 1.996277 -5.696260  -0.000000 0.000000 -0.000000
70  -0.000000 0.111714 1.276770  -0.000000 0.000000 -0.000000
71  -1.117962 0.703408 5.154792  0.021679 -0.015647 -0.000000
72  -3.337396 -15.048623 -7.620306  1.571638 -0.002413 0.000142
73  0.036713 3.547556 -0.615410  0.000000 -0.000000 -0.000000
74  -0.076920 3.276580 -0.615409  0.000000 -0.000000 -0.000000
75  0.045456 3.053679 -0.615410  0.000000 -0.000000 -0.000000
76  0.000000 1.834484 -0.723262  0.000000 -0.000000 -0.000000
77  0.000000 1.834484 -0.560887  0.000000 -0.000000 -0.000000
78  0.000000 1.834484 -0.409514  0.000000 -0.000000 -0.000000
79  -3.078619 -15.087421 -6.908892  1.594194 -0.055789 -0.015571
time 7
0  0.000006 0.000000 0.000000  -1.570800 -1.391899 -1.570792
1  -3.333990 2.359167 1.335070  -1.544956 -1.855077 -0.198630
2  6.027525 -0.000323 0.000193  -0.724382 -0.926073 -1.517142
3  11.692110 0.000644 -0.000740  -0.551973 -0.000006 -1.181332
4  11.480304 0.000153 -0.000766  2.489321 -0.665555 -0.266477
5  3.806286 -0.372255 -1.110992  -0.529793 -0.073810 -1.897370
6  1.312590 0.000010 0.000008  0.103432 -0.025446 -0.129301
7  0.729355 0.000052 0.000049  -0.076005 -0.077877 -0.849610
8  3.942142 0.046273 -0.431511  -0.300837 0.240743 -1.342798
9  1.539111 0.000083 0.000005  0.288969 -0.244282 -1.112656
10  1.196332 0.000144 0.000029  -0.004944 0.004446 -0.737404
11  3.883503 -0.047269 0.431382  -0.156588 0.297040 -1.174330
12  1.719574 -0.000025 0.000015  0.319275 -0.218446 -1.398918
13  1.209178 0.000092 0.000012  0.001029 0.002802 -0.648631
14  3.859661 -0.138475 1.332410  0.084999 0.365849 -0.950111
15  1.719448 -0.000013 0.000021  0.624915 -0.234597 -1.649343
16  1.099674 0.000050 0.000006  0.001249 0.007265 -0.897875
17  0.805993 -0.349050 1.321254  -1.004831 -0.436822 -0.698668
18  1.789820 -0.000002 -0.000019  0.109460 -0.013079 0.104637
19  1.207014 -0.000012 -0.000043  -0.168957 0.349224 1.324858
20  5.740637 0.000409 -0.000703  0.109273 0.000003 0.000071
21  11.481068 0.000234 -0.000814  0.162718 -0.121785 0.001959
22  6.027526 -0.000330 0.000203  1.587747 -0.644616 1.596248
23  0.000003 11.692098 -0.000008  -0.836150 -0.310860 -0.678073
24  0.000002 0.000009 -0.000001  0.317109 -0.000030 1.570739
25  -0.000000 -0.000012 -0.000001  0.868957 0.000002 1.570712
26  -4.110751 -3.692282 2.046260  1.473120 1.855075 -0.198639
27  6.027510 -0.000259 -0.000227  1.519334 0.737759 -0.629075
28  11.691992 0.000245 0.000856  0.617933 0.000056 -1.627323
29  11.479343 -0.000336 0.001247  -1.792963 1.010648 0.359057
30  3.840239 -0.256104 1.127581  0.295546 0.139683 -1.669742
31  1.312558 0.000026 -0.000000  0.010552 -0.001809 -0.117851
32  0.729345 0.000065 -0.000028  0.000413 -0.002204 -1.216053
33  3.942044 0.050109 0.430996  0.289854 0.021571 -1.314220
34  1.539097 0.000010 -0.000001  0.003529 -0.030507 -0.899996
35  1.196299 0.000076 -0.000003  0.003213 -0.000660 -1.346235
36  3.883409 -0.050502 -0.431088  0.205962 -0.055410 -1.138183
37  1.719563 -0.000080 -0.000004  -0.025251 0.013579 -1.531538
38  1.209196 0.000037 0.000011  0.025602 -0.125409 -0.740152
39  3.806432 -0.112148 -1.295328  -0.063584 0.055322 -0.523649
40  1.719413 -0.000100 -0.000034  0.024953 0.048927 -1.122630
41  1.099675 0.000027 0.000007  -0.034737 0.026628 -0.706438
42  0.805977 -0.359854 -1.318338  1.328333 0.252814 -0.645919
43  1.789780 -0.000009 -0.000042  0.068853 0.027685 -0.239620
44  1.206998 -0.000007 0.000005  0.004778 0.068187 0.264913
45  5.740572 0.000055 0.000724  0.017542 -0.000014 0.000021
46  11.480813 -0.000032 0.000999  -0.069434 0.172294 0.076232
47  6.027514 -0.000273 -0.000237  -0.894561 -0.530811 -1.637166
48  -0.000001 11.691975 -0.000007  -1.104395 0.547908 0.855805
49  0.000005 -0.000001 -0.000000  2.890460 -0.000041 1.570856
50  -0.000008 -0.000015 0.000004  2.272644 -0.000030 1.570865
51  -3.126767 -11.456925 -6.986856  -0.192276 -2.923612 1.078004
52  0.000001 -0.000000 0.000000  0.008153 -0.000259 0.000009
53  -0.000001 -0.000000 -0.000000  1.565115 0.043565 -0.106862
54  -1.665772 -18.745441 -7.575350  0.402662 -0.483010 -1.527248
55  0.000001 0.000000 0.000000  0.000000 -0.000000 -0.000002
56  0.000033 0.000029 0.000001  -1.571901 -0.044449 -0.106509
57  8.802561 -11.771522 -19.009918  1.570796 -0.000000 0.000000
58  -15.265000 7.133661 -18.583086  1.570796 -0.000000 0.000000
59  1.339387 -1.728622 -3.701813  1.570796 -0.000000 0.000000
60  -0.004311 0.001230 -0.000371  0.006898 -0.005534 -0.284229
61  2.046263 4.364841 -3.388127  1.570796 -0.000000 0.000000
62  0.000000 0.000000 0.000000  -0.078727 -3.136056 0.284226
63  0.000000 0.000000 0.000000  1.570796 -0.000000 0.000000
64  -3.273464 -15.407311 -4.436187  1.571265 -0.001870 0.000434
65  0.000000 0.106749 0.631994  0.000000 0.000000 0.000000
66  0.000000 0.621414 -1.027759  0.000000 0.000000 0.000000
67  0.000001 0.532204 8.683752  0.000000 0.000000 0.000000
68  0.000000 -1.186305 0.340613  0.000000 0.000000 0.000000
69  0.000000 1.996276 -5.696260  0.000000 0.000000 0.000000
70  0.000000 0.111714 1.276772  0.000000 0.000000 0.000000
71  -1.117961 0.703408 5.154792  0.021679 -0.015647 -0.000000
72  -3.339919 -15.020032 -7.619812  1.571265 -0.001870 0.000434
73  0.036712 3.547556 -0.615412  0.000000 0.000000 0.000000
74  -0.076921 3.276581 -0.615409  0.000000 0.000000 0.000000
75  0.045456 3.053680 -0.615411  0.000000 0.000000 0.000000
76  -0.000000 1.834484 -0.723263  0.000000 0.000000 0.000000
77  -0.000000 1.834484 -0.560889  0.000000 0.000000 0.000000
78  -0.000000 1.834484 -0.409516  0.000000 0.000000 0.000000
79  -3.080744 -15.058490 -6.908524  1.593813 -0.055252 -0.015258
time 8
0  0.000006 0.000000 0.000000  -1.570800 -1.391899 -1.570792
1  -3.333990 2.359167 1.335070  -1.544956 -1.855077 -0.198630
2  6.027525 -0.000323 0.000193  -0.724631 -0.924545 -1.515417
3  11.692109 0.000643 -0.000741  -0.551974 -0.000007 -1.185641
4  11.480279 0.000144 -0.000772  2.489347 -0.668041 -0.266077
5  3.806287 -0.372255 -1.110992  -0.529793 -0.073810 -1.897370
6  1.312590 0.000009 0.000008  0.103432 -0.025446 -0.129301
7  0.729354 0.000053 0.000049  -0.076005 -0.077877 -0.849610
8  3.942145 0.046273 -0.431512  -0.300837 0.240742 -1.342798
9  1.539112 0.000086 0.000005  0.288969 -0.244282 -1.112656
10  1.196333 0.000147 0.000030  -0.004944 0.004446 -0.737404
11  3.883504 -0.047269 0.431382  -0.156588 0.297040 -1.174330
12  1.719572 -0.000026 0.000017  0.319275 -0.218446 -1.398918
13  1.209178 0.000091 0.000011  0.001029 0.002802 -0.648631
14  3.859662 -0.138475 1.332410  0.084999 0.365849 -0.950111
15  1.719450 -0.000013 0.000022  0.624915 -0.234597 -1.649343
16  1.099674 0.000049 0.000005  0.001249 0.007265 -0.897875
17  0.805995 -0.349050 1.321254  -1.004831 -0.436822 -0.698668
18  1.789820 -0.000002 -0.000018  0.109460 -0.013079 0.104637
19  1.207015 -0.000011 -0.000043  -0.168957 0.349224 1.324858
20  5.740637 0.000409 -0.000703  0.108771 0.000003 0.000071
21  11.481065 0.000232 -0.000813  0.162609 -0.122221 0.002238
22  6.027526 -0.000330 0.000203  1.587988 -0.646139 1.597629
23  0.000002 11.692098 -0.000008  -0.838841 -0.312926 -0.680029
24  0.000003 0.000008 -0.000002  0.317109 -0.000031 1.570739
25  -0.000001 -0.000011 -0.000001  0.868957 0.000002 1.570712
26  -4.110751 -3.692282 2.046260  1.473120 1.855075 -0.198639
27  6.027510 -0.000259 -0.000227  1.519324 0.735466 -0.629004
28  11.691991 0.000243 0.000858  0.617933 0.000056 -1.631401
29  11.479316 -0.000347 0.001254  -1.794684 1.011610 0.359304
30  3.840239 -0.256103 1.127581  0.295546 0.139683 -1.669741
31  1.312558 0.000026 -0.000000  0.010552 -0.001809 -0.117850
32  0.729345 0.000064 -0.000028  0.000413 -0.002204 -1.216053
33  3.942045 0.050109 0.430998  0.289854 0.021571 -1.314219
34  1.539096 0.000012 -0.000000  0.003529 -0.030507 -0.899996
35  1.196299 0.000074 -0.000004  0.003213 -0.000660 -1.346235
36  3.883411 -0.050502 -0.431086  0.205962 -0.055410 -1.138183
37  1.719564 -0.000079 -0.000004  -0.025251 0.013579 -1.531538
38  1.209197 0.000037 0.000011  0.025602 -0.125409 -0.740152
39  3.806435 -0.112148 -1.295326  -0.072416 0.058158 -0.521230
40  1.719412 -0.000100 -0.000035  0.029460 0.064400 -1.127570
41  1.099675 0.000025 0.000007  -0.056616 0.042529 -0.726276
42  0.805978 -0.359854 -1.318337  1.328333 0.252814 -0.645919
43  1.789779 -0.000009 -0.000042  0.068853 0.027685 -0.239620
44  1.206996 -0.000005 0.000005  0.004778 0.068187 0.264913
45  5.740573 0.000055 0.000723  0.017555 -0.000014 0.000021
46  11.480808 -0.000033 0.001000  -0.069761 0.172429 0.076443
47  6.027514 -0.000273 -0.000237  -0.892316 -0.532040 -1.638227
48  0.000000 11.691974 -0.000007  -1.106787 0.550261 0.857190
49  0.000004 0.000000 -0.000001  2.890460 -0.000041 1.570856
50  -0.000007 -0.000015 0.000005  2.272644 -0.000030 1.570865
51  -3.130013 -11.422334 -6.987176  -0.193173 -2.922719 1.078043
52  -0.000001 -0.000000 -0.000000  0.008153 -0.000259 0.000009
53  -0.000000 -0.000000 0.000001  1.565115 0.043565 -0.106862
54  -1.670855 -18.711294 -7.574696  0.401296 -0.483330 -1.526770
55  -0.000000 -0.000000 0.000001  0.000000 -0.000000 -0.000002
56  0.000031 0.000028 0.000001  -1.571901 -0.044449 -0.106509
57  8.802561 -11.771522 -19.009918  1.570796 -0.000000 0.000000
58  -15.265000 7.133661 -18.583086  1.570796 -0.000000 0.000000
59  1.339387 -1.728622 -3.701813  1.570796 -0.000000 0.000000
60  -0.004311 0.001230 -0.000371  0.006898 -0.005534 -0.284229
61  2.046263 4.364841 -3.388127  1.570796 -0.000000 0.000000
62  0.000000 0.000000 0.000000  -0.078727 -3.136056 0.284226
63  0.000000 0.000000 0.000000  1.570796 -0.000000 0.000000
64  -3.274277 -15.371746 -4.434859  1.570893 -0.000675 0.000279
65  -0.000000 0.106749 0.631994  -0.000000 -0.000000 0.000000
66  -0.000000 0.621415 -1.027759  -0.000000 -0.000000 0.000000
67  0.000000 0.532204 8.683751  -0.000000 -0.000000 0.000000
68  -0.000000 -1.186305 0.340613  -0.000000 -0.000000 0.000000
69  0.000000 1.996277 -5.696261  -0.000000 -0.000000 0.000000
70  0.000000 0.111714 1.276772  -0.000000 -0.000000 0.000000
71  -1.117961 0.703409 5.154789  0.021679 -0.015647 0.000000
72  -3.344476 -14.985641 -7.618546  1.570893 -0.000675 0.000279
73  0.036712 3.547556 -0.615410  -0.000000 -0.000000 0.000000
74  -0.076920 3.276581 -0.615409  -0.000000 -0.000000 0.000000
75  0.045456 3.053679 -0.615408  -0.000000 -0.000000 0.000000
76  0.000000 1.834484 -0.723261  -0.000000 -0.000000 0.000000
77  0.000000 1.834484 -0.560887  -0.000000 -0.000000 0.000000
78  0.000000 1.834484 -0.409513  -0.000000 -0.000000 0.000000
79  -3.084456 -15.023874 -6.907555  1.593421 -0.054063 -0.015393
time 9
0  0.000006 0.000000 0.000000  -1.570800 -1.391899 -1.570792
1  -3.333990 2.359167 1.335070  -1.544956 -1.855077 -0.198630
2  6.027525 -0.000323 0.000193  -0.724673 -0.923278 -1.514077
3  11.692110 0.000643 -0.000740  -0.551974 -0.000007 -1.189150
4  11.480260 0.000138 -0.000778  2.488981 -0.670158 -0.265610
5  3.806286 -0.372255 -1.110993  -0.529793 -0.073810 -1.897370
6  1.312590 0.000013 0.000008  0.103432 -0.025446 -0.129301
7  0.729355 0.000051 0.000050  -0.076005 -0.077877 -0.849610
8  3.942143 0.046273 -0.431512  -0.300837 0.240743 -1.342798
9  1.539110 0.000084 0.000004  0.288969 -0.244282 -1.112656
10  1.196334 0.000144 0.000029  -0.004944 0.004446 -0.737404
11  3.883505 -0.047269 0.431380  -0.156588 0.297040 -1.174330
12  1.719574 -0.000027 0.000015  0.319275 -0.218446 -1.398918
13  1.209177 0.000091 0.000013  0.001029 0.002802 -0.648631
14  3.859664 -0.138476 1.332408  0.084999 0.365849 -0.950111
15  1.719448 -0.000011 0.000021  0.624915 -0.234597 -1.649343
16  1.099674 0.000052 0.000006  0.001249 0.007265 -0.897875
17  0.805993 -0.349050 1.321253  -1.004830 -0.436822 -0.698668
18  1.789818 -0.000005 -0.000018  0.109460 -0.013079 0.104637
19  1.207016 -0.000012 -0.000043  -0.168957 0.349224 1.324858
20  5.740637 0.000410 -0.000704  0.108297 0.000003 0.000071
21  11.481059 0.000233 -0.000816  0.162452 -0.122581 0.002470
22  6.027526 -0.000330 0.000203  1.588066 -0.647405 1.598888
23  0.000001 11.692099 -0.000008  -0.841030 -0.314613 -0.681619
24  0.000004 0.000008 -0.000001  0.317109 -0.000031 1.570739
25  -0.000001 -0.000011 -0.000001  0.868957 0.000002 1.570712
26  -4.110751 -3.692282 2.046260  1.473120 1.855075 -0.198639
27  6.027510 -0.000259 -0.000227  1.519328 0.733573 -0.628936
28  11.691990 0.000244 0.000857  0.617933 0.000057 -1.634861
29  11.479291 -0.000358 0.001261  -1.796322 1.012602 0.359656
30  3.840240 -0.256105 1.127580  0.295546 0.139683 -1.669742
31  1.312558 0.000025 -0.000000  0.010552 -0.001809 -0.117850
32  0.729345 0.000065 -0.000028  0.000413 -0.002204 -1.216053
33  3.942047 0.050108 0.430996  0.289854 0.021571 -1.314220
34  1.539097 0.000011 -0.000000  0.003529 -0.030507 -0.899996
35  1.196299 0.000078 -0.000003  0.003213 -0.000660 -1.346235
36  3.883412 -0.050503 -0.431087  0.205962 -0.055410 -1.138183
37  1.719562 -0.000080 -0.000004  -0.025251 0.013579 -1.531538
38  1.209196 0.000036 0.000011  0.025602 -0.125409 -0.740152
39  3.806434 -0.112149 -1.295329  -0.091709 0.062072 -0.512998
40  1.719414 -0.000100 -0.000035  0.033767 0.081428 -1.142999
41  1.099674 0.000025 0.000007  -0.085388 0.062596 -0.752162
42  0.805980 -0.359855 -1.318339  1.328333 0.252814 -0.645919
43  1.789780 -0.000008 -0.000043  0.068853 0.027685 -0.239620
44  1.206995 -0.000007 0.000005  0.004778 0.068187 0.264913
45  5.740572 0.000055 0.000724  0.017539 -0.000014 0.000021
46  11.480803 -0.000037 0.001002  -0.070082 0.172571 0.076667
47  6.027514 -0.000273 -0.000237  -0.890453 -0.533044 -1.639108
48  -0.000001 11.691974 -0.000007  -1.108816 0.552260 0.858361
49  0.000003 -0.000001 -0.000001  2.890460 -0.000041 1.570856
50  -0.000007 -0.000015 0.000005  2.272644 -0.000030 1.570865
51  -3.132388 -11.393016 -6.986690  -0.194169 -2.922004 1.077916
52  0.000002 -0.000000 -0.000000  0.008153 -0.000259 0.000009
53  0.000001 -0.000001 -0.000001  1.565115 0.043565 -0.106862
54  -1.676437 -18.682579 -7.574715  0.399940 -0.483447 -1.526483
55  0.000000 -0.000000 0.000001  0.000000 -0.000000 -0.000002
56  0.000032 0.000028 0.000002  -1.571902 -0.044449 -0.106509
57  8.802561 -11.771522 -19.009918  1.570796 -0.000000 0.000000
58  -15.265000 7.133661 -18.583086  1.570796 -0.000000 0.000000
59  1.339387 -1.728622 -3.701813  1.570796 -0.000000 0.000000
60  -0.004311 0.001230 -0.000371  0.006898 -0.005534 -0.284229
61  2.046263 4.364841 -3.388127  1.570796 -0.000000 0.000000
62  0.000000 0.000000 0.000000  -0.078727 -3.136056 0.284226
63  0.000000 0.000000 0.000000  1.570796 -0.000000 0.000000
64  -3.274959 -15.341948 -4.433532  1.570723 0.000519 -0.000065
65  -0.000000 0.106750 0.631995  0.000000 0.000000 0.000000
66  -0.000000 0.621415 -1.027760  0.000000 0.000000 0.000000
67  0.000000 0.532204 8.683753  0.000000 0.000000 0.000000
68  -0.000000 -1.186305 0.340613  0.000000 0.000000 0.000000
69  -0.000000 1.996277 -5.696260  0.000000 0.000000 0.000000
70  -0.000000 0.111714 1.276772  0.000000 0.000000 0.000000
71  -1.117961 0.703409 5.154790  0.021679 -0.015647 -0.000000
72  -3.348828 -14.956360 -7.617199  1.570723 0.000519 -0.000065
73  0.036712 3.547557 -0.615410  0.000000 0.000000 0.000000
74  -0.076920 3.276581 -0.615410  0.000000 0.000000 0.000000
75  0.045456 3.053680 -0.615411  0.000000 0.000000 0.000000
76  0.000000 1.834484 -0.723262  0.000000 0.000000 0.000000
77  0.000000 1.834484 -0.560888  0.000000 0.000000 0.000000
78  0.000000 1.834484 -0.409514  0.000000 0.000000 0.000000
79  -3.087973 -14.994561 -6.906512  1.593233 -0.052871 -0.015726
time 10
0  0.000006 0.000000 0.000000  -1.570800 -1.391899 -1.570792
1  -3.333990 2.359167 1.335070  -1.544956 -1.855077 -0.198630
2  6.027525 -0.000323 0.000193  -0.724596 -0.922752 -1.513573
3  11.692111 0.000643 -0.000740  -0.551974 -0.000007 -1.190562
4  11.480254 0.000133 -0.000777  2.488566 -0.670994 -0.265239
5  3.806288 -0.372256 -1.110991  -0.529793 -0.073810 -1.897370
6  1.312590 0.000011 0.000008  0.103432 -0.025446 -0.129301
7  0.729355 0.000053 0.000049  -0.076005 -0.077877 -0.849610
8  3.942143 0.046273 -0.431511  -0.300837 0.240743 -1.342798
9  1.539112 0.000082 0.000004  0.288969 -0.244282 -1.112656
10  1.196329 0.000144 0.000029  -0.004944 0.004446 -0.737404
11  3.883504 -0.047269 0.431382  -0.156588 0.297040 -1.174330
12  1.719571 -0.000028 0.000016  0.319276 -0.218446 -1.398918
13  1.209178 0.000093 0.000012  0.001029 0.002802 -0.648631
14  3.859662 -0.138475 1.332412  0.084999 0.365849 -0.950111
15  1.719447 -0.000010 0.000022  0.624915 -0.234597 -1.649343
16  1.099674 0.000048 0.000006  0.001249 0.007265 -0.897875
17  0.805995 -0.349050 1.321254  -1.004830 -0.436822 -0.698668
18  1.789819 -0.000004 -0.000018  0.109460 -0.013079 0.104637
19  1.207013 -0.000011 -0.000044  -0.168957 0.349224 1.324858
20  5.740638 0.000409 -0.000702  0.108080 0.000003 0.000071
21  11.481060 0.000231 -0.000813  0.162350 -0.122709 0.002577
22  6.027526 -0.000330 0.000203  1.588026 -0.647933 1.599478
23  0.000001 11.692101 -0.000007  -0.841910 -0.315292 -0.682257
24  0.000003 0.000009 -0.000001  0.317109 -0.000030 1.570739
25  -0.000001 -0.000011 -0.000000  0.868957 0.000002 1.570712
26  -4.110751 -3.692282 2.046260  1.473120 1.855075 -0.198639
27  6.027510 -0.000259 -0.000227  1.519309 0.732812 -0.628925
28  11.691991 0.000243 0.000857  0.617933 0.000057 -1.636346
29  11.479282 -0.000359 0.001266  -1.797008 1.013242 0.360011
30  3.840238 -0.256103 1.127582  0.295546 0.139683 -1.669742
31  1.312558 0.000026 -0.000000  0.010552 -0.001809 -0.117850
32  0.729344 0.000065 -0.000027  0.000413 -0.002204 -1.216053
33  3.942045 0.050109 0.430997  0.289854 0.021571 -1.314220
34  1.539098 0.000011 0.000000  0.003529 -0.030507 -0.899996
35  1.196299 0.000077 -0.000004  0.003213 -0.000660 -1.346235
36  3.883410 -0.050501 -0.431087  0.205962 -0.055410 -1.138183
37  1.719562 -0.000079 -0.000004  -0.025251 0.013579 -1.531538
38  1.209196 0.000037 0.000011  0.025602 -0.125409 -0.740152
39  3.806433 -0.112147 -1.295328  -0.119847 0.067080 -0.499798
40  1.719416 -0.000100 -0.000035  0.037405 0.099159 -1.167537
41  1.099675 0.000024 0.000006  -0.119586 0.085127 -0.782855
42  0.805977 -0.359853 -1.318338  1.328333 0.252814 -0.645919
43  1.789778 -0.000008 -0.000042  0.068853 0.027685 -0.239620
44  1.206997 -0.000006 0.000005  0.004778 0.068187 0.264913
45  5.740572 0.000057 0.000724  0.017538 -0.000014 0.000021
46  11.480803 -0.000036 0.001002  -0.070237 0.172671 0.076798
47  6.027514 -0.000273 -0.000237  -0.889714 -0.533461 -1.639459
48  -0.000001 11.691974 -0.000007  -1.109687 0.553118 0.858862
49  0.000003 -0.000001 -0.000000  2.890460 -0.000041 1.570856
50  -0.000007 -0.000015 0.000005  2.272644 -0.000030 1.570865
51  -3.132704 -11.380446 -6.985973  -0.194683 -2.921790 1.077684
52  0.000000 -0.000000 0.000000  0.008153 -0.000259 0.000009
53  -0.000001 -0.000000 0.000001  1.565115 0.043565 -0.106862
54  -1.679576 -18.670483 -7.575138  0.399330 -0.483374 -1.526542
55  0.000001 0.000000 0.000001  0.000000 -0.000000 -0.000002
56  0.000032 0.000029 0.000001  -1.571902 -0.044449 -0.106509
57  8.802561 -11.771522 -19.009918  1.570796 -0.000000 0.000000
58  -15.265000 7.133661 -18.583086  1.570796 -0.000000 0.000000
59  1.339387 -1.728622 -3.701813  1.570796 -0.000000 0.000000
60  -0.004311 0.001230 -0.000371  0.006898 -0.005534 -0.284229
61  2.046263 4.364841 -3.388127  1.570796 -0.000000 0.000000
62  0.000000 0.000000 0.000000  -0.078727 -3.136056 0.284226
63  0.000000 0.000000 0.000000  1.570796 -0.000000 0.000000
64  -3.275245 -15.329452 -4.432929  1.570772 0.001062 -0.000408
65  0.000000 0.106749 0.631995  0.000000 -0.000000 -0.000000
66  0.000000 0.621414 -1.027759  0.000000 -0.000000 -0.000000
67  0.000000 0.532204 8.683752  0.000000 -0.000000 -0.000000
68  -0.000000 -1.186305 0.340613  0.000000 -0.000000 -0.000000
69  0.000000 1.996277 -5.696259  0.000000 -0.000000 -0.000000
70  -0.000000 0.111713 1.276771  0.000000 -0.000000 -0.000000
71  -1.117962 0.703408 5.154791  0.021679 -0.015647 -0.000000
72  -3.350710 -14.943685 -7.616536  1.570772 0.001062 -0.000408
73  0.036712 3.547556 -0.615412  -0.000000 -0.000000 -0.000000
74  -0.076921 3.276581 -0.615410  -0.000000 -0.000000 -0.000000
75  0.045456 3.053679 -0.615412  -0.000000 -0.000000 -0.000000
76  -0.000000 1.834484 -0.723264  -0.000000 -0.000000 -0.000000
77  -0.000000 1.834484 -0.560888  -0.000000 -0.000000 -0.000000
78  -0.000000 1.834484 -0.409515  -0.000000 -0.000000 -0.000000
79  -3.089483 -14.982011 -6.905993  1.593272 -0.052328 -0.016072
time 11
0  0.000006 0.000000 0.000000  -1.570800 -1.391899 -1.570792
1  -3.333990 2.359167 1.335070  -1.544956 -1.855077 -0.198630
2  6.027525 -0.000323 0.000193  -0.724636 -0.922772 -1.513572
3  11.692111 0.000644 -0.000741  -0.551974 -0.000007 -1.190455
4  11.480253 0.000132 -0.000776  2.488523 -0.670742 -0.264943
5  3.806288 -0.372256 -1.110994  -0.529793 -0.073810 -1.897370
6  1.312589 0.000010 0.000008  0.103432 -0.025446 -0.129301
7  0.729355 0.000052 0.000049  -0.076005 -0.077877 -0.849610
8  3.942143 0.046273 -0.431512  -0.300837 0.240743 -1.342798
9  1.539111 0.000083 0.000004  0.288969 -0.244282 -1.112656
10  1.196331 0.000145 0.000029  -0.004944 0.004446 -0.737404
11  3.883505 -0.047269 0.431381  -0.156588 0.297040 -1.174330
12  1.719572 -0.000027 0.000015  0.319275 -0.218446 -1.398918
13  1.209176 0.000093 0.000010  0.001029 0.002802 -0.648631
14  3.859662 -0.138476 1.332409  0.084999 0.365849 -0.950111
15  1.719447 -0.000012 0.000023  0.624915 -0.234597 -1.649343
16  1.099675 0.000050 0.000006  0.001249 0.007265 -0.897875
17  0.805993 -0.349050 1.321253  -1.004831 -0.436822 -0.698667
18  1.789818 -0.000007 -0.000019  0.109460 -0.013079 0.104637
19  1.207014 -0.000011 -0.000044  -0.168957 0.349224 1.324858
20  5.740638 0.000409 -0.000702  0.108145 0.000003 0.000071
21  11.481058 0.000231 -0.000815  0.162371 -0.122643 0.002608
22  6.027526 -0.000330 0.000203  1.588055 -0.647912 1.599430
23  0.000000 11.692100 -0.000008  -0.841843 -0.315241 -0.682209
24  0.000003 0.000008 -0.000001  0.317109 -0.000030 1.570739
25  -0.000002 -0.000011 -0.000001  0.868957 0.000002 1.570712
26  -4.110751 -3.692282 2.046260  1.473120 1.855075 -0.198639
27  6.027510 -0.000259 -0.000227  1.519228 0.732937 -0.628991
28  11.691991 0.000243 0.000856  0.617933 0.000057 -1.636241
29  11.479281 -0.000361 0.001267  -1.796480 1.013500 0.360476
30  3.840240 -0.256103 1.127581  0.295546 0.139683 -1.669742
31  1.312558 0.000027 0.000000  0.010552 -0.001809 -0.117851
32  0.729346 0.000067 -0.000027  0.000413 -0.002203 -1.216053
33  3.942047 0.050109 0.430997  0.289854 0.021571 -1.314219
34  1.539097 0.000010 0.000000  0.003529 -0.030507 -0.899996
35  1.196300 0.000074 -0.000004  0.003213 -0.000660 -1.346235
36  3.883412 -0.050502 -0.431087  0.205962 -0.055410 -1.138183
37  1.719564 -0.000078 -0.000003  -0.025251 0.013579 -1.531538
38  1.209196 0.000036 0.000011  0.025602 -0.125409 -0.740152
39  3.806436 -0.112148 -1.295328  -0.152949 0.072919 -0.483685
40  1.719414 -0.000100 -0.000035  0.039979 0.116142 -1.197601
41  1.099674 0.000025 0.000007  -0.155867 0.107463 -0.815429
42  0.805979 -0.359853 -1.318338  1.328333 0.252814 -0.645919
43  1.789781 -0.000010 -0.000042  0.068853 0.027685 -0.239620
44  1.206996 -0.000007 0.000005  0.004778 0.068187 0.264913
45  5.740572 0.000056 0.000725  0.017606 -0.000014 0.000021
46  11.480801 -0.000036 0.001003  -0.070189 0.172728 0.076833
47  6.027514 -0.000273 -0.000237  -0.889874 -0.533445 -1.639389
48  -0.000000 11.691974 -0.000006  -1.109625 0.553058 0.858827
49  0.000004 -0.000001 -0.000001  2.890460 -0.000041 1.570856
50  -0.000007 -0.000015 0.000005  2.272644 -0.000030 1.570865
51  -3.131213 -11.381315 -6.985723  -0.194493 -2.922068 1.077487
52  -0.000001 -0.000001 -0.000000  0.008153 -0.000259 0.000009
53  0.000001 0.000000 0.000000  1.565115 0.043565 -0.106862
54  -1.679049 -18.671482 -7.575610  0.399670 -0.483230 -1.526857
55  0.000000 0.000000 0.000000  0.000000 -0.000000 -0.000002
56  0.000032 0.000029 0.000001  -1.571901 -0.044449 -0.106509
57  8.802561 -11.771522 -19.009918  1.570796 -0.000000 0.000000
58  -15.265000 7.133661 -18.583086  1.570796 -0.000000 0.000000
59  1.339387 -1.728622 -3.701813  1.570796 -0.000000 0.000000
60  -0.004311 0.001230 -0.000371  0.006898 -0.005534 -0.284229
61  2.046263 4.364841 -3.388127  1.570796 -0.000000 0.000000
62  0.000000 0.000000 0.000000  -0.078727 -3.136056 0.284226
63  0.000000 0.000000 0.000000  1.570796 -0.000000 0.000000
64  -3.275123 -15.330700 -4.433343  1.570929 0.000768 -0.000564
65  0.000000 0.106750 0.631995  0.000000 -0.000000 0.000000
66  0.000000 0.621415 -1.027759  0.000000 -0.000000 0.000000
67  0.000001 0.532204 8.683751  0.000000 -0.000000 0.000000
68  -0.000000 -1.186304 0.340613  0.000000 -0.000000 0.000000
69  0.000000 1.996277 -5.696260  0.000000 -0.000000 0.000000
70  0.000000 0.111714 1.276773  0.000000 -0.000000 0.000000
71  -1.117961 0.703409 5.154792  0.021679 -0.015647 0.000000
72  -3.349589 -14.944419 -7.616912  1.570929 0.000768 -0.000564
73  0.036713 3.547557 -0.615412  -0.000000 -0.000000 0.000000
74  -0.076920 3.276581 -0.615410  -0.000000 -0.000000 0.000000
75  0.045457 3.053679 -0.615411  -0.000000 -0.000000 0.000000
76  0.000000 1.834484 -0.723264  -0.000000 -0.000000 0.000000
77  0.000000 1.834484 -0.560888  -0.000000 -0.000000 0.000000
78  0.000000 1.834484 -0.409515  -0.000000 -0.000000 0.000000
79  -3.088577 -14.982897 -6.906298  1.593435 -0.052620 -0.016236
time 12
0  0.000006 0.000000 0.000000  -1.570800 -1.391899 -1.570792
1  -3.333990 2.359167 1.335070  -1.544956 -1.855077 -0.198630
2  6.027525 -0.000323 0.000193  -0.724925 -0.922777 -1.513415
3  11.692111 0.000644 -0.000740  -0.551974 -0.000007 -1.190383
4  11.480254 0.000134 -0.000777  2.488903 -0.670582 -0.264681
5  3.806289 -0.372254 -1.110992  -0.529793 -0.073810 -1.897370
6  1.312590 0.000015 0.000007  0.103432 -0.025446 -0.129301
7  0.729354 0.000055 0.000050  -0.076005 -0.077877 -0.849610
8  3.942144 0.046274 -0.431512  -0.300837 0.240743 -1.342798
9  1.539111 0.000082 0.000005  0.288969 -0.244282 -1.112656
10  1.196333 0.000144 0.000028  -0.004944 0.004446 -0.737404
11  3.883505 -0.047269 0.431382  -0.156588 0.297040 -1.174330
12  1.719574 -0.000026 0.000015  0.319275 -0.218446 -1.398918
13  1.209177 0.000092 0.000012  0.001029 0.002802 -0.648631
14  3.859662 -0.138475 1.332411  0.084999 0.365849 -0.950111
15  1.719451 -0.000011 0.000023  0.624915 -0.234597 -1.649343
16  1.099673 0.000051 0.000006  0.001249 0.007265 -0.897875
17  0.805995 -0.349049 1.321254  -1.004831 -0.436822 -0.698668
18  1.789819 -0.000004 -0.000018  0.109460 -0.013079 0.104637
19  1.207016 -0.000012 -0.000043  -0.168957 0.349224 1.324858
20  5.740637 0.000410 -0.000703  0.108273 0.000003 0.000071
21  11.481060 0.000232 -0.000814  0.162462 -0.122600 0.002672
22  6.027526 -0.000330 0.000203  1.588274 -0.647902 1.599224
23  0.000001 11.692099 -0.000007  -0.841799 -0.315207 -0.682177
24  0.000003 0.000008 -0.000001  0.317109 -0.000030 1.570739
25  -0.000001 -0.000011 -0.000000  0.868957 0.000002 1.570712
26  -4.110751 -3.692282 2.046260  1.473120 1.855075 -0.198639
27  6.027510 -0.000259 -0.000227  1.519201 0.733122 -0.629017
28  11.691991 0.000244 0.000857  0.617933 0.000057 -1.635960
29  11.479284 -0.000358 0.001265  -1.795378 1.013323 0.361210
30  3.840241 -0.256104 1.127581  0.295546 0.139683 -1.669742
31  1.312558 0.000027 -0.000001  0.010552 -0.001809 -0.117850
32  0.729345 0.000066 -0.000027  0.000413 -0.002204 -1.216053
33  3.942047 0.050110 0.430997  0.289854 0.021571 -1.314220
34  1.539097 0.000010 -0.000000  0.003529 -0.030507 -0.899996
35  1.196299 0.000074 -0.000004  0.003213 -0.000660 -1.346235
36  3.883412 -0.050502 -0.431087  0.205962 -0.055410 -1.138183
37  1.719565 -0.000078 -0.000003  -0.025251 0.013579 -1.531538
38  1.209198 0.000036 0.000011  0.025602 -0.125409 -0.740152
39  3.806436 -0.112147 -1.295328  -0.185378 0.078877 -0.467642
40  1.719413 -0.000100 -0.000034  0.041397 0.130650 -1.227790
41  1.099674 0.000024 0.000006  -0.189438 0.126720 -0.845615
42  0.805979 -0.359854 -1.318338  1.328333 0.252814 -0.645919
43  1.789781 -0.000009 -0.000042  0.068853 0.027685 -0.239620
44  1.206997 -0.000006 0.000005  0.004778 0.068187 0.264913
45  5.740572 0.000057 0.000725  0.017708 -0.000014 0.000021
46  11.480801 -0.000035 0.001003  -0.070056 0.172709 0.076860
47  6.027514 -0.000273 -0.000237  -0.890068 -0.533364 -1.639299
48  -0.000000 11.691974 -0.000006  -1.109460 0.552895 0.858732
49  0.000003 -0.000002 -0.000000  2.890460 -0.000041 1.570856
50  -0.000007 -0.000015 0.000005  2.272644 -0.000030 1.570865
51  -3.130476 -11.383706 -6.985562  -0.194104 -2.922517 1.077643
52  0.000001 0.000000 -0.000001  0.008153 -0.000259 0.000009
53  0.000000 0.000000 0.000000  1.565115 0.043565 -0.106862
54  -1.676231 -18.673397 -7.576226  0.400298 -0.483039 -1.526907
55  -0.000002 0.000001 0.000000  0.000000 -0.000000 -0.000002
56  0.000030 0.000029 0.000000  -1.571901 -0.044449 -0.106509
57  8.802561 -11.771522 -19.009918  1.570796 -0.000000 0.000000
58  -15.265000 7.133661 -18.583086  1.570796 -0.000000 0.000000
59  1.339387 -1.728622 -3.701813  1.570796 -0.000000 0.000000
60  -0.004311 0.001230 -0.000371  0.006898 -0.005534 -0.284229
61  2.046263 4.364841 -3.388127  1.570796 -0.000000 0.000000
62  0.000000 0.000000 0.000000  -0.078727 -3.136056 0.284226
63  0.000000 0.000000 0.000000  1.570796 -0.000000 0.000000
64  -3.274831 -15.333676 -4.434113  1.571145 0.000220 -0.000323
65  -0.000000 0.106749 0.631995  0.000000 -0.000000 -0.000000
66  -0.000000 0.621414 -1.027760  0.000000 -0.000000 -0.000000
67  0.000000 0.532203 8.683752  0.000000 -0.000000 -0.000000
68  -0.000000 -1.186305 0.340613  0.000000 -0.000000 -0.000000
69  -0.000000 1.996277 -5.696260  0.000000 -0.000000 -0.000000
70  -0.000000 0.111713 1.276770  0.000000 -0.000000 -0.000000
71  -1.117961 0.703408 5.154790  0.021679 -0.015647 -0.000000
72  -3.347648 -14.946728 -7.617639  1.571145 0.000220 -0.000323
73  0.036712 3.547557 -0.615411  0.000000 -0.000000 0.000000
74  -0.076921 3.276581 -0.615409  0.000000 -0.000000 0.000000
75  0.045456 3.053680 -0.615409  0.000000 -0.000000 0.000000
76  -0.000001 1.834485 -0.723262  0.000000 -0.000000 0.000000
77  -0.000001 1.834484 -0.560887  0.000000 -0.000000 0.000000
78  -0.000001 1.834484 -0.409514  0.000000 -0.000000 0.000000
79  -3.087015 -14.985295 -6.906890  1.593660 -0.053164 -0.016007
time 13
0  0.000006 0.000000 0.000000  -1.570800 -1.391899 -1.570792
1  -3.333990 2.359167 1.335070  -1.544956 -1.855077 -0.198630
2  6.027525 -0.000323 0.000193  -0.725118 -0.922851 -1.513385
3  11.692110 0.000643 -0.000740  -0.551974 -0.000007 -1.190153
4  11.480253 0.000135 -0.000780  2.489193 -0.670468 -0.264671
5  3.806287 -0.372255 -1.110992  -0.529793 -0.073810 -1.897370
6  1.312590 0.000010 0.000007  0.103432 -0.025446 -0.129301
7  0.729355 0.000054 0.000050  -0.076005 -0.077877 -0.849610
8  3.942142 0.046273 -0.431512  -0.300837 0.240743 -1.342798
9  1.539110 0.000082 0.000006  0.288969 -0.244282 -1.112656
10  1.196330 0.000145 0.000030  -0.004944 0.004446 -0.737404
11  3.883502 -0.047269 0.431383  -0.156588 0.297040 -1.174330
12  1.719573 -0.000024 0.000016  0.319276 -0.218446 -1.398918
13  1.209178 0.000091 0.000012  0.001029 0.002802 -0.648631
14  3.859662 -0.138476 1.332410  0.084999 0.365849 -0.950111
15  1.719450 -0.000010 0.000022  0.624915 -0.234597 -1.649343
16  1.099675 0.000050 0.000006  0.001249 0.007265 -0.897875
17  0.805993 -0.349050 1.321253  -1.004831 -0.436822 -0.698667
18  1.789819 -0.000004 -0.000018  0.109460 -0.013079 0.104637
19  1.207016 -0.000010 -0.000045  -0.168957 0.349224 1.324858
20  5.740636 0.000411 -0.000705  0.108357 0.000003 0.000071
21  11.481058 0.000233 -0.000816  0.162521 -0.122581 0.002685
22  6.027526 -0.000330 0.000203  1.588417 -0.647824 1.599014
23  0.000002 11.692098 -0.000008  -0.841655 -0.315096 -0.682072
24  0.000002 0.000009 -0.000000  0.317109 -0.000031 1.570739
25  -0.000001 -0.000012 -0.000001  0.868957 0.000002 1.570712
26  -4.110751 -3.692282 2.046260  1.473120 1.855075 -0.198639
27  6.027510 -0.000259 -0.000227  1.519221 0.733325 -0.629009
28  11.691990 0.000244 0.000856  0.617933 0.000057 -1.635578
29  11.479287 -0.000359 0.001265  -1.794780 1.012995 0.361475
30  3.840241 -0.256104 1.127579  0.295546 0.139683 -1.669742
31  1.312558 0.000026 -0.000000  0.010552 -0.001809 -0.117851
32  0.729344 0.000065 -0.000028  0.000413 -0.002203 -1.216053
33  3.942047 0.050109 0.430996  0.289854 0.021571 -1.314220
34  1.539097 0.000010 -0.000000  0.003529 -0.030507 -0.899996
35  1.196299 0.000076 -0.000004  0.003213 -0.000660 -1.346235
36  3.883412 -0.050502 -0.431089  0.205962 -0.055410 -1.138183
37  1.719563 -0.000079 -0.000004  -0.025251 0.013579 -1.531538
38  1.209196 0.000037 0.000012  0.025602 -0.125409 -0.740152
39  3.806437 -0.112148 -1.295330  -0.211636 0.083947 -0.454555
40  1.719414 -0.000099 -0.000033  0.041928 0.141319 -1.252647
41  1.099674 0.000026 0.000007  -0.215703 0.140864 -0.869264
42  0.805979 -0.359854 -1.318339  1.328333 0.252814 -0.645919
43  1.789778 -0.000009 -0.000042  0.068853 0.027685 -0.239620
44  1.206997 -0.000006 0.000005  0.004778 0.068187 0.264913
45  5.740572 0.000055 0.000724  0.017743 -0.000014 0.000021
46  11.480802 -0.000037 0.001003  -0.069968 0.172655 0.076849
47  6.027514 -0.000273 -0.000237  -0.890259 -0.533243 -1.639207
48  -0.000001 11.691976 -0.000007  -1.109236 0.552674 0.858603
49  0.000004 -0.000001 -0.000001  2.890460 -0.000041 1.570856
50  -0.000007 -0.000015 0.000004  2.272644 -0.000030 1.570865
51  -3.130466 -11.386969 -6.985548  -0.193885 -2.922743 1.077872
52  -0.000001 0.000000 0.000000  0.008153 -0.000259 0.000009
53  0.000001 -0.000000 -0.000001  1.565115 0.043565 -0.106862
54  -1.674035 -18.676201 -7.576496  0.400636 -0.482954 -1.526788
55  0.000001 0.000000 -0.000000  0.000000 -0.000000 -0.000002
56  0.000030 0.000029 0.000001  -1.571901 -0.044449 -0.106509
57  8.802561 -11.771522 -19.009918  1.570796 -0.000000 0.000000
58  -15.265000 7.133661 -18.583086  1.570796 -0.000000 0.000000
59  1.339387 -1.728622 -3.701813  1.570796 -0.000000 0.000000
60  -0.004311 0.001230 -0.000371  0.006898 -0.005534 -0.284229
61  2.046263 4.364841 -3.388127  1.570796 -0.000000 0.000000
62  0.000000 0.000000 0.000000  -0.078727 -3.136056 0.284226
63  0.000000 0.000000 0.000000  1.570796 -0.000000 0.000000
64  -3.274482 -15.337229 -4.434527  1.571243 -0.000074 -0.000047
65  -0.000000 0.106749 0.631994  0.000000 0.000000 -0.000000
66  -0.000000 0.621415 -1.027760  0.000000 0.000000 -0.000000
67  0.000001 0.532204 8.683754  0.000000 0.000000 -0.000000
68  -0.000000 -1.186305 0.340612  0.000000 0.000000 -0.000000
69  -0.000000 1.996277 -5.696261  0.000000 0.000000 -0.000000
70  -0.000000 0.111714 1.276771  0.000000 0.000000 -0.000000
71  -1.117962 0.703408 5.154790  0.021679 -0.015647 -0.000000
72  -3.346468 -14.949987 -7.618036  1.571243 -0.000074 -0.000047
73  0.036712 3.547556 -0.615412  0.000000 -0.000000 0.000000
74  -0.076921 3.276581 -0.615410  0.000000 -0.000000 0.000000
75  0.045456 3.053679 -0.615410  0.000000 -0.000000 0.000000
76  -0.000000 1.834484 -0.723263  0.000000 -0.000000 0.000000
77  -0.000000 1.834484 -0.560889  0.000000 -0.000000 0.000000
78  -0.000000 1.834484 -0.409515  0.000000 -0.000000 0.000000
79  -3.086034 -14.988554 -6.907214  1.593762 -0.053457 -0.015737
time 14
0  0.000006 0.000000 0.000000  -1.570800 -1.391899 -1.570792
1  -3.333990 2.359167 1.335070  -1.544956 -1.855077 -0.198630
2  6.027525 -0.000323 0.000193  -0.725050 -0.923094 -1.513675
3  11.692111 0.000643 -0.000740  -0.551974 -0.000007 -1.189642
4  11.480260 0.000137 -0.000776  2.489365 -0.670075 -0.265176
5  3.806286 -0.372255 -1.110993  -0.529793 -0.073810 -1.897370
6  1.312589 0.000012 0.000008  0.103432 -0.025446 -0.129301
7  0.729355 0.000051 0.000050  -0.076004 -0.077877 -0.849610
8  3.942143 0.046273 -0.431512  -0.300837 0.240743 -1.342798
9  1.539111 0.000085 0.000005  0.288969 -0.244282 -1.112656
10  1.196332 0.000145 0.000029  -0.004944 0.004446 -0.737404
11  3.883505 -0.047269 0.431380  -0.156588 0.297040 -1.174330
12  1.719573 -0.000026 0.000016  0.319275 -0.218446 -1.398918
13  1.209180 0.000093 0.000012  0.001029 0.002802 -0.648631
14  3.859663 -0.138476 1.332407  0.084999 0.365849 -0.950111
15  1.719452 -0.000011 0.000023  0.624915 -0.234597 -1.649343
16  1.099674 0.000048 0.000005  0.001249 0.007265 -0.897875
17  0.805993 -0.349050 1.321253  -1.004831 -0.436822 -0.698668
18  1.789819 -0.000004 -0.000018  0.109460 -0.013079 0.104637
19  1.207016 -0.000011 -0.000045  -0.168957 0.349224 1.324858
20  5.740636 0.000410 -0.000703  0.108399 0.000003 0.000071
21  11.481059 0.000233 -0.000814  0.162548 -0.122541 0.002572
22  6.027526 -0.000330 0.000203  1.588357 -0.647583 1.598814
23  0.000001 11.692099 -0.000008  -0.841337 -0.314850 -0.681841
24  0.000002 0.000008 -0.000001  0.317109 -0.000031 1.570738
25  -0.000001 -0.000011 -0.000001  0.868957 0.000002 1.570712
26  -4.110751 -3.692282 2.046260  1.473120 1.855075 -0.198639
27  6.027510 -0.000259 -0.000227  1.519178 0.733518 -0.629048
28  11.691991 0.000244 0.000857  0.617933 0.000057 -1.635095
29  11.479292 -0.000357 0.001263  -1.795338 1.012837 0.360435
30  3.840239 -0.256103 1.127581  0.295546 0.139683 -1.669742
31  1.312558 0.000024 -0.000001  0.010552 -0.001809 -0.117851
32  0.729344 0.000063 -0.000028  0.000413 -0.002204 -1.216053
33  3.942046 0.050109 0.430998  0.289854 0.021571 -1.314220
34  1.539097 0.000010 -0.000000  0.003529 -0.030507 -0.899996
35  1.196300 0.000076 -0.000004  0.003213 -0.000660 -1.346235
36  3.883411 -0.050502 -0.431086  0.205962 -0.055410 -1.138183
37  1.719563 -0.000080 -0.000004  -0.025251 0.013579 -1.531538
38  1.209196 0.000036 0.000012  0.025602 -0.125409 -0.740152
39  3.806437 -0.112148 -1.295328  -0.228156 0.087259 -0.446288
40  1.719411 -0.000099 -0.000035  0.042005 0.147580 -1.268467
41  1.099673 0.000025 0.000006  -0.231841 0.149164 -0.883809
42  0.805978 -0.359853 -1.318338  1.328333 0.252814 -0.645919
43  1.789778 -0.000009 -0.000042  0.068853 0.027685 -0.239620
44  1.206997 -0.000007 0.000005  0.004778 0.068187 0.264913
45  5.740572 0.000057 0.000724  0.017681 -0.000014 0.000021
46  11.480803 -0.000034 0.001002  -0.069981 0.172630 0.076714
47  6.027514 -0.000273 -0.000237  -0.890468 -0.533168 -1.639112
48  -0.000001 11.691974 -0.000006  -1.108953 0.552395 0.858440
49  0.000004 -0.000002 -0.000001  2.890460 -0.000041 1.570856
50  -0.000007 -0.000015 0.000005  2.272644 -0.000030 1.570865
51  -3.130430 -11.390929 -6.986811  -0.193731 -2.922384 1.077879
52  -0.000000 0.000000 -0.000000  0.008153 -0.000259 0.000009
53  -0.000000 0.000000 0.000001  1.565115 0.043565 -0.106862
54  -1.673723 -18.680328 -7.574989  0.400574 -0.483339 -1.526719
55  0.000002 0.000001 -0.000001  0.000000 -0.000000 -0.000002
56  0.000032 0.000029 -0.000000  -1.571902 -0.044449 -0.106509
57  8.802561 -11.771522 -19.009918  1.570796 -0.000000 0.000000
58  -15.265000 7.133661 -18.583086  1.570796 -0.000000 0.000000
59  1.339387 -1.728622 -3.701813  1.570796 -0.000000 0.000000
60  -0.004311 0.001230 -0.000371  0.006898 -0.005534 -0.284229
61  2.046263 4.364841 -3.388127  1.570796 -0.000000 0.000000
62  0.000000 0.000000 0.000000  -0.078727 -3.136056 0.284226
63  0.000000 0.000000 0.000000  1.570796 -0.000000 0.000000
64  -3.274190 -15.340206 -4.434255  1.570855 -0.000037 -0.000006
65  -0.000000 0.106749 0.631995  -0.000000 0.000000 -0.000000
66  -0.000000 0.621414 -1.027759  -0.000000 0.000000 -0.000000
67  0.000000 0.532203 8.683753  -0.000000 0.000000 -0.000000
68  -0.000000 -1.186305 0.340612  -0.000000 0.000000 -0.000000
69  -0.000000 1.996277 -5.696260  -0.000000 0.000000 -0.000000
70  0.000000 0.111713 1.276771  -0.000000 0.000000 -0.000000
71  -1.117961 0.703408 5.154790  0.021679 -0.015647 0.000000
72  -3.346310 -14.954202 -7.617912  1.570855 -0.000037 -0.000006
73  0.036712 3.547556 -0.615410  -0.000000 -0.000000 -0.000000
74  -0.076920 3.276581 -0.615409  -0.000000 -0.000000 -0.000000
75  0.045456 3.053679 -0.615410  -0.000000 -0.000000 -0.000000
76  0.000000 1.834484 -0.723262  -0.000000 -0.000000 -0.000000
77  0.000000 1.834484 -0.560887  -0.000000 -0.000000 -0.000000
78  0.000000 1.834484 -0.409513  -0.000000 -0.000000 -0.000000
79  -3.085848 -14.992481 -6.907084  1.593374 -0.053426 -0.015675
time 15
0  0.000006 0.000000 0.000000  -1.570800 -1.391899 -1.570792
1  -3.333990 2.359167 1.335070  -1.544956 -1.855077 -0.198630
2  6.027525 -0.000323 0.000193  -0.725017 -0.923176 -1.513779
3  11.692110 0.000642 -0.000741  -0.551974 -0.000007 -1.189457
4  11.480262 0.000138 -0.000777  2.489351 -0.669981 -0.265279
5  3.806287 -0.372256 -1.110994  -0.529793 -0.073810 -1.897370
6  1.312590 0.000013 0.000008  0.103432 -0.025446 -0.129301
7  0.729355 0.000052 0.000050  -0.076005 -0.077877 -0.849610
8  3.942143 0.046273 -0.431513  -0.300837 0.240743 -1.342798
9  1.539112 0.000083 0.000004  0.288969 -0.244282 -1.112656
10  1.196333 0.000147 0.000028  -0.004944 0.004446 -0.737404
11  3.883505 -0.047269 0.431381  -0.156587 0.297040 -1.174331
12  1.719572 -0.000027 0.000015  0.319275 -0.218446 -1.398918
13  1.209178 0.000094 0.000012  0.001029 0.002802 -0.648631
14  3.859662 -0.138476 1.332408  0.084999 0.365849 -0.950111
15  1.719449 -0.000012 0.000022  0.624915 -0.234597 -1.649343
16  1.099674 0.000049 0.000005  0.001249 0.007265 -0.897875
17  0.805993 -0.349050 1.321252  -1.004830 -0.436822 -0.698668
18  1.789819 -0.000004 -0.000018  0.109460 -0.013079 0.104637
19  1.207018 -0.000010 -0.000043  -0.168957 0.349224 1.324858
20  5.740637 0.000409 -0.000703  0.108404 0.000003 0.000071
21  11.481060 0.000232 -0.000814  0.162545 -0.122530 0.002544
22  6.027526 -0.000330 0.000203  1.588329 -0.647501 1.598753
23  0.000002 11.692098 -0.000007  -0.841221 -0.314761 -0.681758
24  0.000003 0.000008 -0.000001  0.317109 -0.000031 1.570738
25  -0.000000 -0.000011 0.000000  0.868957 0.000002 1.570712
26  -4.110751 -3.692282 2.046260  1.473120 1.855075 -0.198639
27  6.027510 -0.000259 -0.000227  1.519188 0.733606 -0.629044
28  11.691990 0.000244 0.000858  0.617933 0.000057 -1.634932
29  11.479294 -0.000357 0.001262  -1.795470 1.012778 0.360231
30  3.840239 -0.256104 1.127581  0.295546 0.139683 -1.669741
31  1.312558 0.000025 0.000001  0.010552 -0.001809 -0.117851
32  0.729345 0.000066 -0.000027  0.000413 -0.002204 -1.216053
33  3.942046 0.050109 0.430998  0.289854 0.021571 -1.314220
34  1.539095 0.000010 -0.000000  0.003529 -0.030507 -0.899996
35  1.196299 0.000077 -0.000003  0.003213 -0.000660 -1.346235
36  3.883411 -0.050502 -0.431086  0.205962 -0.055410 -1.138183
37  1.719562 -0.000079 -0.000003  -0.025251 0.013579 -1.531538
38  1.209195 0.000036 0.000011  0.025602 -0.125409 -0.740152
39  3.806436 -0.112148 -1.295329  -0.233658 0.088381 -0.443525
40  1.719412 -0.000100 -0.000034  0.041984 0.149566 -1.273773
41  1.099674 0.000025 0.000006  -0.237119 0.151816 -0.888566
42  0.805979 -0.359854 -1.318337  1.328333 0.252814 -0.645919
43  1.789778 -0.000008 -0.000042  0.068853 0.027685 -0.239620
44  1.206996 -0.000005 0.000006  0.004778 0.068187 0.264913
45  5.740572 0.000055 0.000725  0.017661 -0.000014 0.000021
46  11.480803 -0.000036 0.001002  -0.069987 0.172619 0.076690
47  6.027514 -0.000273 -0.000237  -0.890550 -0.533115 -1.639072
48  -0.000001 11.691974 -0.000006  -1.108857 0.552301 0.858385
49  0.000005 -0.000002 -0.000001  2.890460 -0.000041 1.570856
50  -0.000007 -0.000015 0.000005  2.272644 -0.000030 1.570865
51  -3.130425 -11.392326 -6.986777  -0.193736 -2.922314 1.077886
52  -0.000000 0.000000 0.000000  0.008153 -0.000259 0.000009
53  0.000000 -0.000000 0.000001  1.565115 0.043565 -0.106862
54  -1.673698 -18.681755 -7.574580  0.400529 -0.483397 -1.526692
55  -0.000001 0.000000 0.000000  0.000000 -0.000000 -0.000002
56  0.000031 0.000029 0.000001  -1.571902 -0.044449 -0.106509
57  8.802561 -11.771522 -19.009918  1.570796 -0.000000 0.000000
58  -15.265000 7.133661 -18.583086  1.570796 -0.000000 0.000000
59  1.339387 -1.728622 -3.701813  1.570796 -0.000000 0.000000
60  -0.004311 0.001230 -0.000371  0.006898 -0.005534 -0.284229
61  2.046263 4.364841 -3.388127  1.570796 -0.000000 0.000000
62  0.000000 0.000000 0.000000  -0.078727 -3.136056 0.284226
63  0.000000 0.000000 0.000000  1.570796 -0.000000 0.000000
64  -3.274067 -15.341454 -4.433983  1.570796 -0.000000 0.000000
65  0.000000 0.106749 0.631994  0.000000 -0.000000 0.000000
66  0.000000 0.621414 -1.027760  0.000000 -0.000000 0.000000
67  0.000000 0.532204 8.683752  0.000000 -0.000000 0.000000
68  -0.000000 -1.186305 0.340612  0.000000 -0.000000 0.000000
69  0.000000 1.996277 -5.696260  0.000000 -0.000000 0.000000
70  0.000000 0.111713 1.276772  0.000000 -0.000000 0.000000
71  -1.117962 0.703408 5.154791  0.021679 -0.015647 0.000000
72  -3.346308 -14.955638 -7.617660  1.570796 -0.000000 0.000000
73  0.036712 3.547556 -0.615411  -0.000000 0.000000 -0.000000
74  -0.076920 3.276581 -0.615410  -0.000000 0.000000 -0.000000
75  0.045456 3.053679 -0.615411  -0.000000 0.000000 -0.000000
76  -0.000000 1.834484 -0.723263  -0.000000 0.000000 -0.000000
77  -0.000000 1.834484 -0.560888  -0.000000 0.000000 -0.000000
78  -0.000000 1.834484 -0.409514  -0.000000 0.000000 -0.000000
79  -3.085819 -14.993874 -6.906840  1.593314 -0.053389 -0.015666
end
