version 1
nodes
0 "ValveBiped.Bip01_Spine4" -1
1 "ValveBiped.Bip01_L_Clavicle" 0
2 "ValveBiped.Bip01_L_UpperArm" 1
3 "ValveBiped.Bip01_L_Forearm" 2
4 "ValveBiped.Bip01_L_Hand" 3
5 "ValveBiped.Bip01_L_Finger4" 4
6 "ValveBiped.Bip01_L_Finger41" 5
7 "ValveBiped.Bip01_L_Finger42" 6
8 "ValveBiped.Bip01_L_Finger3" 4
9 "ValveBiped.Bip01_L_Finger31" 8
10 "ValveBiped.Bip01_L_Finger32" 9
11 "ValveBiped.Bip01_L_Finger2" 4
12 "ValveBiped.Bip01_L_Finger21" 11
13 "ValveBiped.Bip01_L_Finger22" 12
14 "ValveBiped.Bip01_L_Finger1" 4
15 "ValveBiped.Bip01_L_Finger11" 14
16 "ValveBiped.Bip01_L_Finger12" 15
17 "ValveBiped.Bip01_L_Finger0" 4
18 "ValveBiped.Bip01_L_Finger01" 17
19 "ValveBiped.Bip01_L_Finger02" 18
20 "ValveBiped.Bip01_L_Ulna" 3
21 "ValveBiped.Bip01_L_Wrist" 3
22 "rig_l_upperarm" 1
23 "rig_l_forearm" 22
24 "rig_d_l_forearm" 23
25 "rig_d_l_upperarm" 22
26 "ValveBiped.Bip01_R_Clavicle" 0
27 "ValveBiped.Bip01_R_UpperArm" 26
28 "ValveBiped.Bip01_R_Forearm" 27
29 "ValveBiped.Bip01_R_Hand" 28
30 "ValveBiped.Bip01_R_Finger4" 29
31 "ValveBiped.Bip01_R_Finger41" 30
32 "ValveBiped.Bip01_R_Finger42" 31
33 "ValveBiped.Bip01_R_Finger3" 29
34 "ValveBiped.Bip01_R_Finger31" 33
35 "ValveBiped.Bip01_R_Finger32" 34
36 "ValveBiped.Bip01_R_Finger2" 29
37 "ValveBiped.Bip01_R_Finger21" 36
38 "ValveBiped.Bip01_R_Finger22" 37
39 "ValveBiped.Bip01_R_Finger1" 29
40 "ValveBiped.Bip01_R_Finger11" 39
41 "ValveBiped.Bip01_R_Finger12" 40
42 "ValveBiped.Bip01_R_Finger0" 29
43 "ValveBiped.Bip01_R_Finger01" 42
44 "ValveBiped.Bip01_R_Finger02" 43
45 "ValveBiped.Bip01_R_Ulna" 28
46 "ValveBiped.Bip01_R_Wrist" 28
47 "rig_r_upperarm" 26
48 "rig_r_forearm" 47
49 "rig_d_r_forearm" 48
50 "rig_d_r_upperarm" 47
51 "rig_r_hand" -1
52 "rig_d_r_hand" 51
53 "rig_d_r_wrist" 52
54 "rig_l_hand" -1
55 "rig_d_l_hand" 54
56 "rig_d_l_wrist" 54
57 "rig_l_pole" -1
58 "rig_r_pole" -1
59 "rig_l_clavicle" -1
60 "rig_d_l_clavicle" 59
61 "rig_r_clavicle" -1
62 "rig_d_r_clavicle" 61
63 "Camera" -1
64 "body" -1
65 "trigger" 64
66 "bolt" 64
67 "chandle" 64
68 "chandle_left" 67
69 "chandle_right" 67
70 "barrel" 64
71 "magrel" 64
72 "dustcover" 64
73 "selector" 64
74 "mag" -1
75 "bullet1" 74
76 "bullet2" 74
77 "bullet3" 74
78 "bullet4" 74
79 "fakemag" -1
80 "fakerounds" 79
end
skeleton
time 0
0  0.000006 0.000000 0.000000  -1.570800 -1.391899 -1.570792
1  2.033349 1.000767 1.937657  -1.544959 -1.855077 -0.198628
2  6.027514 -0.000326 0.000201  -1.583279 0.045953 -0.585171
3  11.692119 0.000566 -0.000740  -0.000021 0.000000 -0.056690
4  11.481222 0.000172 -0.000744  1.576892 -0.106567 0.041958
5  3.859503 -0.142823 -1.192079  -0.468169 0.151546 -0.880257
6  1.312588 0.000011 0.000008  -0.000027 0.000044 -0.439740
7  0.729357 0.000056 0.000050  0.000017 0.000021 -0.244317
8  3.942138 0.046328 -0.431543  -0.151817 0.073216 -0.811086
9  1.539111 0.000085 0.000004  -0.000007 0.000021 -0.247842
10  1.196334 0.000148 0.000029  0.000011 0.000018 -0.430770
11  3.883507 -0.047213 0.431351  0.085894 0.021858 -0.587909
12  1.719572 -0.000031 0.000017  0.000015 0.005518 -0.366533
13  1.209178 0.000091 0.000012  0.000004 0.003091 -0.216438
14  3.859676 -0.138418 1.332380  0.354466 -0.042717 -0.531784
15  1.719446 -0.000019 0.000028  0.000028 0.004066 -0.363025
16  1.099675 0.000051 0.000006  0.000003 0.002578 -0.244381
17  0.806009 -0.349040 1.321248  -1.222694 -0.679188 -0.788867
18  1.789820 -0.000003 -0.000019  0.000011 -0.000024 0.228523
19  1.207014 -0.000015 -0.000042  0.000002 -0.000008 0.362856
20  5.740638 0.000389 -0.000699  0.003123 0.000003 0.000063
21  11.481261 0.000219 -0.000826  0.004954 0.000185 -0.001487
22  6.027524 -0.000330 0.000200  0.059585 -2.453119 -2.193916
23  0.000000 11.692099 -0.000007  -0.043310 -0.000838 -0.036607
24  0.000004 0.000008 0.000001  0.868996 -0.000031 1.570739
25  -0.000000 -0.000011 -0.000000  0.868960 0.000002 1.570712
26  2.033355 1.000772 -1.937609  1.473126 1.855076 -0.198632
27  6.027509 -0.000258 -0.000228  1.639675 -0.005935 -0.586606
28  11.691992 0.000194 0.000861  -0.000046 -0.000001 -0.056062
29  11.481178 0.000098 0.000827  -1.565089 0.106509 0.042007
30  3.859439 -0.132758 1.193065  0.466290 -0.158048 -0.878822
31  1.312557 0.000023 -0.000000  0.000013 -0.000043 -0.439709
32  0.729346 0.000066 -0.000027  -0.000023 -0.000019 -0.244286
33  3.942047 0.050141 0.431000  0.150091 -0.079181 -0.810189
34  1.539094 0.000005 -0.000000  0.000009 -0.000007 -0.247824
35  1.196299 0.000074 -0.000003  -0.000007 -0.000009 -0.430781
36  3.883414 -0.050470 -0.431084  -0.085915 -0.026392 -0.587660
37  1.719565 -0.000087 -0.000004  -0.000006 -0.007962 -0.366486
38  1.209198 0.000036 0.000011  0.000002 -0.004461 -0.216413
39  3.859589 -0.149081 -1.331321  -0.354445 0.038578 -0.531955
40  1.719414 -0.000098 -0.000036  -0.000030 -0.006584 -0.363030
41  1.099673 0.000026 0.000007  0.000004 -0.004188 -0.244347
42  0.805984 -0.359846 -1.318338  1.221444 0.673631 -0.793558
43  1.789779 -0.000009 -0.000044  -0.000028 0.000031 0.228553
44  1.206997 -0.000008 0.000005  -0.000017 0.000020 0.362910
45  5.740571 0.000079 0.000724  0.002082 -0.000014 0.000028
46  11.481178 0.000092 0.000935  -0.000021 -0.000087 -0.001749
47  6.027516 -0.000273 -0.000228  0.007375 -0.632954 -2.161838
48  0.000001 11.691978 -0.000006  -0.042810 0.000798 0.036188
49  0.000004 -0.000001 0.000000  2.272571 -0.000036 1.570860
50  -0.000007 -0.000014 0.000005  2.272645 -0.000036 1.570861
51  -22.676567 -0.984331 -17.554111  -1.605366 2.379717 -0.041994
52  0.000001 0.000002 -0.000000  0.008153 -0.000259 0.000009
53  -0.000000 -0.000001 0.000000  1.565115 0.043565 -0.106862
54  22.676517 -0.984221 -17.554199  1.605712 0.761853 0.042358
55  0.000001 -0.000003 -0.000000  0.000000 -0.000001 -0.000002
56  0.000032 0.000027 0.000001  -1.571901 -0.044449 -0.106509
57  15.265023 8.339654 -8.787539  1.570796 -0.000000 0.000000
58  -15.265000 8.339654 -8.787539  1.570796 -0.000000 0.000000
59  1.941978 -1.346989 1.821586  1.570796 -0.000000 0.000000
60  -0.004311 0.001230 -0.000371  0.006898 -0.005534 -0.284229
61  -1.937603 -1.346625 1.822824  1.570796 -0.000000 0.000000
62  0.000000 0.000000 0.000000  -0.078727 -3.136056 0.284226
63  0.000000 0.000000 0.000000  1.570796 -0.000000 0.000000
64  -3.590840 -11.939873 -2.851932  1.570796 -0.000000 0.000000
65  0.048105 -2.944859 0.933263  0.000000 -0.000000 0.000000
66  0.048105 -1.112260 5.803837  0.000000 -0.000000 0.000000
67  0.012182 0.342952 -1.564841  0.000000 -0.000000 0.000000
68  0.411392 0.000000 0.275188  0.000000 -0.000000 0.000000
69  -0.336341 0.000000 0.275188  0.000000 -0.000000 0.000000
70  0.008646 -0.801641 17.435257  0.000000 -0.000000 0.000000
71  0.012183 -2.217320 2.645869  0.000000 -0.000000 0.000000
72  -0.783611 -1.065574 3.970099  0.000000 -0.000000 0.000000
73  0.048111 -2.252711 -0.283001  0.000000 -0.000000 0.000000
74  -3.588360 -16.646259 -6.949106  1.570796 -0.000000 0.000000
75  0.219581 2.828346 -1.224765  0.000000 -0.000000 0.000000
76  -0.190705 2.547956 -1.236751  0.000000 -0.000000 0.000000
77  0.096524 2.361211 -1.211062  0.000000 -0.000000 0.000000
78  0.096524 2.146662 -1.211062  0.000000 -0.000000 0.000000
79  -3.588360 -16.646259 -6.949106  1.570796 -0.000000 0.000000
80  0.017809 1.799356 -0.402361  0.000000 -0.000000 0.000000
end
triangles
lowpoly_plastic.005
0  -3.542730 -12.208692 -5.957757  0.000000 -1.000000 -0.000010  0.544635 0.566836 1 64 1.000000
0  -3.072815 -12.208694 -5.760027  0.000000 -1.000000 -0.000010  0.544861 0.566937 1 64 1.000000
0  -3.542730 -12.208694 -5.760027  0.000000 -1.000000 -0.000010  0.544635 0.566937 1 64 1.000000
lowpoly_plastic.005
0  -3.340648 -9.052865 -8.605740  -0.000003 0.856463 0.516209  0.539757 0.564256 1 64 1.000000
0  -3.542730 -9.978404 -7.070142  -0.000003 0.856463 0.516209  0.539866 0.565091 1 64 1.000000
0  -3.340649 -9.978404 -7.070141  -0.000003 0.856463 0.516209  0.539757 0.565091 1 64 1.000000
lowpoly_plastic.005
0  -3.542730 -11.189637 -9.188648  0.000000 -0.956279 0.292457  0.550541 0.554905 1 64 1.000000
0  -3.322462 -11.060998 -8.768017  0.000000 -0.956279 0.292457  0.550429 0.554694 1 64 1.000000
0  -3.542730 -11.060998 -8.768017  0.000000 -0.956279 0.292457  0.550541 0.554694 1 64 1.000000
lowpoly_plastic.005
0  -3.542730 -11.157008 -9.482687  0.000000 -0.993899 -0.110295  0.550541 0.555055 1 64 1.000000
0  -3.322461 -11.189637 -9.188648  0.000000 -0.993899 -0.110295  0.550429 0.554905 1 64 1.000000
0  -3.542730 -11.189637 -9.188648  0.000000 -0.993899 -0.110295  0.550541 0.554905 1 64 1.000000
lowpoly_plastic.005
0  -3.072814 -10.666786 -8.736162  1.000000 0.000001 0.000002  0.539783 0.561646 1 64 1.000000
0  -3.072813 -9.393173 -9.390001  1.000000 0.000001 0.000002  0.539327 0.562186 1 64 1.000000
0  -3.072814 -9.240368 -9.028681  1.000000 0.000001 0.000002  0.539189 0.562044 1 64 1.000000
lowpoly_plastic.005
0  -3.072814 -10.666786 -8.736162  1.000000 -0.000000 0.000000  0.539783 0.561646 1 64 1.000000
0  -3.072814 -10.341459 -7.065911  1.000000 -0.000000 0.000000  0.539320 0.560917 1 64 1.000000
0  -3.072814 -11.655276 -6.947409  1.000000 -0.000000 0.000000  0.539843 0.560701 1 64 1.000000
lowpoly_plastic.005
0  -3.340649 -10.049266 -6.934926  0.000000 0.885738 0.464186  0.539757 0.565163 1 64 1.000000
0  -3.542730 -9.978404 -7.070142  0.000000 0.885738 0.464186  0.539866 0.565091 1 64 1.000000
0  -3.542730 -10.049266 -6.934926  0.000000 0.885738 0.464186  0.539866 0.565163 1 64 1.000000
lowpoly_plastic.005
0  -3.322462 -11.060998 -8.768017  0.734012 -0.609482 -0.299596  0.539970 0.561589 1 64 1.000000
0  -3.072814 -11.655276 -6.947409  0.734012 -0.609482 -0.299596  0.539843 0.560701 1 64 1.000000
0  -3.322462 -11.906648 -7.047672  0.734012 -0.609482 -0.299596  0.540031 0.560624 1 64 1.000000
lowpoly_plastic.005
0  -3.322462 -11.060998 -8.768017  0.827305 -0.537193 0.164286  0.539970 0.561589 1 64 1.000000
0  -3.072814 -10.795267 -9.156282  0.827305 -0.537193 0.164286  0.539921 0.561821 1 64 1.000000
0  -3.072814 -10.666786 -8.736162  0.827305 -0.537193 0.164286  0.539783 0.561646 1 64 1.000000
lowpoly_plastic.005
0  -3.322461 -11.157008 -9.482687  0.845647 -0.530487 -0.058871  0.540149 0.561909 1 64 1.000000
0  -3.072814 -10.795267 -9.156282  0.845647 -0.530487 -0.058871  0.539921 0.561821 1 64 1.000000
0  -3.322461 -11.189637 -9.188648  0.845647 -0.530487 -0.058871  0.540108 0.561764 1 64 1.000000
lowpoly_plastic.005
0  -3.340648 -8.896770 -9.000483  0.000000 0.929932 0.367730  0.539757 0.564047 1 64 1.000000
0  -3.542730 -9.052865 -8.605740  0.000000 0.929932 0.367730  0.539866 0.564256 1 64 1.000000
0  -3.340648 -9.052865 -8.605740  0.000000 0.929932 0.367730  0.539757 0.564256 1 64 1.000000
lowpoly_plastic.005
0  -3.340649 -9.978404 -7.070141  0.755395 0.561215 0.338256  0.539157 0.560985 1 64 1.000000
0  -3.072813 -9.396627 -8.633520  0.755395 0.561215 0.338256  0.539186 0.561829 1 64 1.000000
0  -3.340648 -9.052865 -8.605740  0.755395 0.561215 0.338256  0.539025 0.561878 1 64 1.000000
lowpoly_plastic.005
0  -3.340648 -9.052865 -8.605740  0.776347 0.586142 0.231781  0.539025 0.561878 1 64 1.000000
0  -3.072814 -9.240368 -9.028681  0.776347 0.586142 0.231781  0.539189 0.562044 1 64 1.000000
0  -3.340648 -8.896770 -9.000483  0.776347 0.586142 0.231781  0.539029 0.562093 1 64 1.000000
lowpoly_plastic.005
0  -3.072814 -9.240368 -9.028681  0.751915 0.607192 -0.256791  0.539189 0.562044 1 64 1.000000
0  -3.340648 -9.053966 -9.372177  0.751915 0.607192 -0.256791  0.539170 0.562240 1 64 1.000000
0  -3.340648 -8.896770 -9.000483  0.751915 0.607192 -0.256791  0.539029 0.562093 1 64 1.000000
lowpoly_plastic.005
0  -3.542730 -11.906648 -7.047672  0.000000 -0.316457 -0.948607  0.540367 0.567173 1 64 1.000000
0  -3.322462 -12.207194 -6.947409  0.000000 -0.316457 -0.948607  0.540222 0.567285 1 64 1.000000
0  -3.542730 -12.207194 -6.947409  0.000000 -0.316457 -0.948607  0.540222 0.567173 1 64 1.000000
lowpoly_plastic.005
0  -3.072813 -9.393173 -9.390001  0.000000 0.052476 -0.998622  0.550439 0.552869 1 64 1.000000
0  -3.072814 -10.761356 -9.461897  0.000000 0.052476 -0.998622  0.550439 0.553541 1 64 1.000000
0  -3.542730 -9.053966 -9.372177  0.000000 0.052476 -0.998622  0.550213 0.552703 1 64 1.000000
lowpoly_plastic.005
0  -3.542730 -11.060998 -8.768017  0.000000 -0.897437 -0.441143  0.550541 0.554694 1 64 1.000000
0  -3.322462 -11.906648 -7.047672  0.000000 -0.897437 -0.441143  0.550429 0.553808 1 64 1.000000
0  -3.542730 -11.906648 -7.047672  0.000000 -0.897437 -0.441143  0.550541 0.553808 1 64 1.000000
lowpoly_plastic.005
0  -3.072814 -10.666786 -8.736162  1.000000 0.000000 -0.000001  0.539783 0.561646 1 64 1.000000
0  -3.072814 -9.240368 -9.028681  1.000000 0.000000 -0.000001  0.539189 0.562044 1 64 1.000000
0  -3.072813 -9.396627 -8.633520  1.000000 0.000000 -0.000001  0.539186 0.561829 1 64 1.000000
lowpoly_plastic.005
0  -3.322462 -11.906648 -7.047672  0.372686 -0.000000 -0.927957  0.540367 0.567285 1 64 1.000000
0  -3.072814 -11.655276 -6.947409  0.372686 -0.000000 -0.927957  0.539969 0.560592 1 64 1.000000
0  -3.072815 -12.207659 -6.947409  0.372686 -0.000000 -0.927957  0.540090 0.560377 1 64 1.000000
lowpoly_plastic.005
0  -3.340648 -9.053966 -9.372177  0.000006 0.921019 -0.389517  0.539757 0.563870 1 64 1.000000
0  -3.542730 -8.896770 -9.000484  0.000006 0.921019 -0.389517  0.539865 0.564047 1 64 1.000000
0  -3.340648 -8.896770 -9.000483  0.000006 0.921019 -0.389517  0.539757 0.564047 1 64 1.000000
lowpoly_plastic.005
0  -3.340649 -10.049266 -6.934926  0.766456 0.568908 0.298142  0.539164 0.560908 1 64 1.000000
0  -3.072814 -10.341459 -7.065911  0.766456 0.568908 0.298142  0.539320 0.560917 1 64 1.000000
0  -3.340649 -9.978404 -7.070141  0.766456 0.568908 0.298142  0.539157 0.560985 1 64 1.000000
lowpoly_plastic.005
0  -3.072815 -12.208694 -5.957757  -0.000004 -0.999999 -0.001044  0.544861 0.566836 1 64 1.000000
0  -3.542730 -12.208692 -5.957757  -0.000004 -0.999999 -0.001044  0.544635 0.566836 1 64 1.000000
0  -3.072815 -12.207659 -6.947409  -0.000004 -0.999999 -0.001044  0.544861 0.566489 1 64 1.000000
lowpoly_plastic.005
0  -3.542730 -12.207194 -6.947409  0.000000 0.000000 -1.000000  0.544635 0.566334 1 64 1.000000
0  -3.322462 -12.207194 -6.947409  0.000000 0.000000 -1.000000  0.544746 0.566334 1 64 1.000000
0  -3.072815 -12.207659 -6.947409  0.000000 0.000000 -1.000000  0.544861 0.566489 1 64 1.000000
lowpoly_plastic.005
0  -3.072815 -12.208694 -5.957757  1.000000 0.000000 0.000000  0.539961 0.560054 1 64 1.000000
0  -3.072815 -12.207659 -6.947409  1.000000 0.000000 0.000000  0.540090 0.560377 1 64 1.000000
0  -3.072814 -11.655276 -6.947409  1.000000 0.000000 0.000000  0.539969 0.560592 1 64 1.000000
lowpoly_plastic.005
0  -3.542730 -11.157008 -9.482687  0.000000 0.052475 -0.998622  0.550213 0.553735 1 64 1.000000
0  -3.542730 -9.053966 -9.372177  0.000000 0.052475 -0.998622  0.550213 0.552703 1 64 1.000000
0  -3.072814 -10.761356 -9.461897  0.000000 0.052475 -0.998622  0.550439 0.553541 1 64 1.000000
lowpoly_plastic.005
0  -3.340648 -9.053966 -9.372177  0.000000 0.052474 -0.998622  0.550322 0.552703 1 64 1.000000
0  -3.072813 -9.393173 -9.390001  0.000000 0.052474 -0.998622  0.550439 0.552869 1 64 1.000000
0  -3.542730 -9.053966 -9.372177  0.000000 0.052474 -0.998622  0.550213 0.552703 1 64 1.000000
lowpoly_plastic.005
0  -3.072814 -10.761356 -9.461897  0.000000 0.052474 -0.998622  0.550439 0.553541 1 64 1.000000
0  -3.322461 -11.157008 -9.482687  0.000000 0.052474 -0.998622  0.550325 0.553735 1 64 1.000000
0  -3.542730 -11.157008 -9.482687  0.000000 0.052474 -0.998622  0.550213 0.553735 1 64 1.000000
lowpoly_plastic.005
0  -3.072814 -10.795267 -9.156282  1.000000 -0.000001 -0.000002  0.539921 0.561821 1 64 1.000000
0  -3.072814 -10.761356 -9.461897  1.000000 -0.000001 -0.000002  0.539963 0.561971 1 64 1.000000
0  -3.072813 -9.393173 -9.390001  1.000000 -0.000001 -0.000002  0.539327 0.562186 1 64 1.000000
lowpoly_plastic.005
0  -3.326328 -10.584037 -5.957757  0.725108 0.687160 0.045057  0.539715 0.565691 1 64 1.000000
0  -3.072814 -10.864514 -5.760027  0.725108 0.687160 0.045057  0.539639 0.565691 1 64 1.000000
0  -3.072814 -10.851550 -5.957757  0.725108 0.687160 0.045057  0.539639 0.565691 1 64 1.000000
lowpoly_plastic.005
0  -3.326328 -10.584037 -5.957757  0.000000 0.997858 0.065419  0.539715 0.565691 1 64 1.000000
0  -3.542730 -10.597001 -5.760027  0.000000 0.997858 0.065419  0.539866 0.565691 1 64 1.000000
0  -3.326328 -10.597001 -5.760027  0.000000 0.997858 0.065419  0.539715 0.565691 1 64 1.000000
lowpoly_plastic.005
0  -3.072815 -12.208694 -5.760027  1.000000 -0.000000 -0.000000  0.539924 0.559961 1 64 1.000000
0  -3.072814 -10.851550 -5.957757  1.000000 -0.000000 -0.000000  0.539289 0.560323 1 64 1.000000
0  -3.072814 -10.864514 -5.760027  1.000000 -0.000000 -0.000000  0.539253 0.560229 1 64 1.000000
lowpoly_plastic.005
0  -3.340649 -10.049266 -6.934926  0.775213 0.575648 0.260144  0.539164 0.560908 1 64 1.000000
0  -3.072814 -10.851550 -5.957757  0.775213 0.575648 0.260144  0.539237 0.560424 1 64 1.000000
0  -3.072814 -10.409013 -6.937007  0.775213 0.575648 0.260144  0.539327 0.560844 1 64 1.000000
lowpoly_plastic.005
0  -3.326328 -10.584037 -5.957757  0.000002 0.877228 0.480074  0.539655 0.565627 1 64 1.000000
0  -3.542730 -10.049266 -6.934926  0.000002 0.877228 0.480074  0.539866 0.565163 1 64 1.000000
0  -3.542730 -10.584036 -5.957757  0.000002 0.877228 0.480074  0.539866 0.565691 1 64 1.000000
lowpoly_plastic.005
0  -3.072814 -10.851550 -5.957757  1.000000 -0.000000 0.000000  0.539289 0.560323 1 64 1.000000
0  -3.072814 -11.655276 -6.947409  1.000000 -0.000000 0.000000  0.539969 0.560592 1 64 1.000000
0  -3.072814 -10.409013 -6.937007  1.000000 -0.000000 0.000000  0.539327 0.560844 1 64 1.000000
lowpoly_plastic.005
0  -3.072815 -12.207659 -6.947409  -0.000988 -0.999998 -0.001515  0.544861 0.566489 1 64 1.000000
0  -3.542730 -12.208692 -5.957757  -0.000988 -0.999998 -0.001515  0.544635 0.566836 1 64 1.000000
0  -3.542730 -12.207194 -6.947409  -0.000988 -0.999998 -0.001515  0.544635 0.566334 1 64 1.000000
lowpoly_plastic.005
0  -3.072814 -10.409013 -6.937007  1.000000 0.000000 0.000002  0.539327 0.560844 1 64 1.000000
0  -3.072814 -11.655276 -6.947409  1.000000 0.000000 0.000002  0.539843 0.560701 1 64 1.000000
0  -3.072814 -10.341459 -7.065911  1.000000 0.000000 0.000002  0.539320 0.560917 1 64 1.000000
lowpoly_plastic.005
0  -3.322462 -12.207194 -6.947409  -0.000585 -0.316458 -0.948606  0.540222 0.567285 1 64 1.000000
0  -3.322462 -11.906648 -7.047672  -0.000585 -0.316458 -0.948606  0.540367 0.567285 1 64 1.000000
0  -3.072815 -12.207659 -6.947409  -0.000585 -0.316458 -0.948606  0.540090 0.560377 1 64 1.000000
lowpoly_plastic.005
0  -3.542730 -12.208692 -5.957757  0.000004 -1.000000 -0.000002  0.544635 0.566836 1 64 1.000000
0  -4.012645 -12.208694 -5.760027  0.000004 -1.000000 -0.000002  0.544861 0.566937 1 64 1.000000
0  -4.012645 -12.208694 -5.957757  0.000004 -1.000000 -0.000002  0.544861 0.566836 1 64 1.000000
lowpoly_plastic.005
0  -3.744812 -9.052865 -8.605740  0.000000 0.856463 0.516209  0.539757 0.564256 1 64 1.000000
0  -3.542730 -9.978404 -7.070142  0.000000 0.856463 0.516209  0.539866 0.565091 1 64 1.000000
0  -3.542730 -9.052865 -8.605740  0.000000 0.856463 0.516209  0.539866 0.564256 1 64 1.000000
lowpoly_plastic.005
0  -3.542730 -11.189637 -9.188648  0.000000 -0.956280 0.292452  0.550541 0.554905 1 64 1.000000
0  -3.762999 -11.060998 -8.768017  0.000000 -0.956280 0.292452  0.550429 0.554694 1 64 1.000000
0  -3.762999 -11.189637 -9.188648  0.000000 -0.956280 0.292452  0.550429 0.554905 1 64 1.000000
lowpoly_plastic.005
0  -3.542730 -11.157008 -9.482687  0.000000 -0.993900 -0.110286  0.550541 0.555055 1 64 1.000000
0  -3.762999 -11.189637 -9.188648  0.000000 -0.993900 -0.110286  0.550429 0.554905 1 64 1.000000
0  -3.762999 -11.157008 -9.482687  0.000000 -0.993900 -0.110286  0.550429 0.555055 1 64 1.000000
lowpoly_plastic.005
0  -4.012646 -10.666786 -8.736162  -1.000000 -0.000000 0.000000  0.539783 0.561646 1 64 1.000000
0  -4.012648 -9.393173 -9.390001  -1.000000 -0.000000 0.000000  0.539327 0.562186 1 64 1.000000
0  -4.012646 -10.795267 -9.156282  -1.000000 -0.000000 0.000000  0.539921 0.561821 1 64 1.000000
lowpoly_plastic.005
0  -4.012646 -10.666786 -8.736162  -1.000000 0.000000 -0.000000  0.539783 0.561646 1 64 1.000000
0  -4.012647 -10.341459 -7.065911  -1.000000 0.000000 -0.000000  0.539320 0.560917 1 64 1.000000
0  -4.012647 -9.396627 -8.633520  -1.000000 0.000000 -0.000000  0.539186 0.561829 1 64 1.000000
lowpoly_plastic.005
0  -3.744811 -10.049266 -6.934926  0.000000 0.885737 0.464187  0.539757 0.565163 1 64 1.000000
0  -3.542730 -9.978404 -7.070142  0.000000 0.885737 0.464187  0.539866 0.565091 1 64 1.000000
0  -3.744811 -9.978404 -7.070141  0.000000 0.885737 0.464187  0.539757 0.565091 1 64 1.000000
lowpoly_plastic.005
0  -3.762999 -11.060998 -8.768017  -0.822073 -0.498350 -0.275396  0.539970 0.561589 1 64 1.000000
0  -4.012646 -11.655276 -6.947409  -0.822073 -0.498350 -0.275396  0.539843 0.560701 1 64 1.000000
0  -4.012646 -10.666786 -8.736162  -0.822073 -0.498350 -0.275396  0.539783 0.561646 1 64 1.000000
lowpoly_plastic.005
0  -3.762999 -11.060998 -8.768017  -0.827305 -0.537193 0.164287  0.539970 0.561589 1 64 1.000000
0  -4.012646 -10.795267 -9.156282  -0.827305 -0.537193 0.164287  0.539921 0.561821 1 64 1.000000
0  -3.762999 -11.189637 -9.188648  -0.827305 -0.537193 0.164287  0.540108 0.561764 1 64 1.000000
lowpoly_plastic.005
0  -3.762999 -11.157008 -9.482687  -0.845645 -0.530490 -0.058860  0.540149 0.561909 1 64 1.000000
0  -4.012646 -10.795267 -9.156282  -0.845645 -0.530490 -0.058860  0.539921 0.561821 1 64 1.000000
0  -4.012646 -10.761356 -9.461897  -0.845645 -0.530490 -0.058860  0.539963 0.561971 1 64 1.000000
lowpoly_plastic.005
0  -3.744812 -8.896770 -9.000483  0.000006 0.929935 0.367724  0.539757 0.564047 1 64 1.000000
0  -3.542730 -9.052865 -8.605740  0.000006 0.929935 0.367724  0.539866 0.564256 1 64 1.000000
0  -3.542730 -8.896770 -9.000484  0.000006 0.929935 0.367724  0.539865 0.564047 1 64 1.000000
lowpoly_plastic.005
0  -3.744811 -9.978404 -7.070141  -0.755393 0.561216 0.338257  0.539157 0.560985 1 64 1.000000
0  -4.012647 -9.396627 -8.633520  -0.755393 0.561216 0.338257  0.539186 0.561829 1 64 1.000000
0  -4.012647 -10.341459 -7.065911  -0.755393 0.561216 0.338257  0.539320 0.560917 1 64 1.000000
lowpoly_plastic.005
0  -3.744812 -9.052865 -8.605740  -0.776346 0.586143 0.231782  0.539025 0.561878 1 64 1.000000
0  -4.012647 -9.240368 -9.028681  -0.776346 0.586143 0.231782  0.539189 0.562044 1 64 1.000000
0  -4.012647 -9.396627 -8.633520  -0.776346 0.586143 0.231782  0.539186 0.561829 1 64 1.000000
lowpoly_plastic.005
0  -4.012647 -9.240368 -9.028681  -0.751914 0.607195 -0.256787  0.539189 0.562044 1 64 1.000000
0  -3.744812 -9.053966 -9.372177  -0.751914 0.607195 -0.256787  0.539170 0.562240 1 64 1.000000
0  -4.012648 -9.393173 -9.390001  -0.751914 0.607195 -0.256787  0.539327 0.562186 1 64 1.000000
lowpoly_plastic.005
0  -3.542730 -11.906648 -7.047672  0.000000 -0.316458 -0.948606  0.540367 0.567173 1 64 1.000000
0  -3.762998 -12.207194 -6.947409  0.000000 -0.316458 -0.948606  0.540222 0.567285 1 64 1.000000
0  -3.762998 -11.906648 -7.047672  0.000000 -0.316458 -0.948606  0.540367 0.567285 1 64 1.000000
lowpoly_plastic.005
0  -4.012648 -9.393173 -9.390001  0.000000 0.052476 -0.998622  0.550439 0.552869 1 64 1.000000
0  -3.542730 -9.053966 -9.372177  0.000000 0.052476 -0.998622  0.550213 0.552703 1 64 1.000000
0  -4.012646 -10.761356 -9.461897  0.000000 0.052476 -0.998622  0.550439 0.553541 1 64 1.000000
lowpoly_plastic.005
0  -3.542730 -11.060998 -8.768017  0.000000 -0.897437 -0.441142  0.550541 0.554694 1 64 1.000000
0  -3.762998 -11.906648 -7.047672  0.000000 -0.897437 -0.441142  0.550429 0.553808 1 64 1.000000
0  -3.762999 -11.060998 -8.768017  0.000000 -0.897437 -0.441142  0.550429 0.554694 1 64 1.000000
lowpoly_plastic.005
0  -4.012646 -10.666786 -8.736162  -1.000000 0.000000 -0.000000  0.539783 0.561646 1 64 1.000000
0  -4.012647 -9.396627 -8.633520  -1.000000 0.000000 -0.000000  0.539186 0.561829 1 64 1.000000
0  -4.012647 -9.240368 -9.028681  -1.000000 0.000000 -0.000000  0.539189 0.562044 1 64 1.000000
lowpoly_plastic.005
0  -3.762998 -11.906648 -7.047672  -0.372686 0.000000 -0.927957  0.540367 0.567285 1 64 1.000000
0  -4.012645 -12.207659 -6.947409  -0.372686 0.000000 -0.927957  0.540090 0.560377 1 64 1.000000
0  -4.012646 -11.655276 -6.947409  -0.372686 0.000000 -0.927957  0.539969 0.560592 1 64 1.000000
lowpoly_plastic.005
0  -3.744812 -9.053966 -9.372177  0.000000 0.921021 -0.389514  0.539757 0.563870 1 64 1.000000
0  -3.542730 -8.896770 -9.000484  0.000000 0.921021 -0.389514  0.539865 0.564047 1 64 1.000000
0  -3.542730 -9.053966 -9.372177  0.000000 0.921021 -0.389514  0.539866 0.563870 1 64 1.000000
lowpoly_plastic.005
0  -3.744811 -10.049266 -6.934926  -0.766452 0.568907 0.298155  0.539164 0.560908 1 64 1.000000
0  -4.012647 -10.341459 -7.065911  -0.766452 0.568907 0.298155  0.539320 0.560917 1 64 1.000000
0  -4.012646 -10.409013 -6.937007  -0.766452 0.568907 0.298155  0.539327 0.560844 1 64 1.000000
lowpoly_plastic.005
0  -4.012645 -12.208694 -5.957757  0.000004 -1.000000 -0.001044  0.544861 0.566836 1 64 1.000000
0  -4.012645 -12.207659 -6.947409  0.000004 -1.000000 -0.001044  0.544861 0.566489 1 64 1.000000
0  -3.542730 -12.208692 -5.957757  0.000004 -1.000000 -0.001044  0.544635 0.566836 1 64 1.000000
lowpoly_plastic.005
0  -3.542730 -12.207194 -6.947409  0.000000 0.000000 -1.000000  0.544635 0.566334 1 64 1.000000
0  -4.012645 -12.207659 -6.947409  0.000000 0.000000 -1.000000  0.544861 0.566489 1 64 1.000000
0  -3.762998 -12.207194 -6.947409  0.000000 0.000000 -1.000000  0.544746 0.566334 1 64 1.000000
lowpoly_plastic.005
0  -4.012645 -12.208694 -5.957757  -1.000000 -0.000002 -0.000000  0.539961 0.560054 1 64 1.000000
0  -4.012646 -11.655276 -6.947409  -1.000000 -0.000002 -0.000000  0.539969 0.560592 1 64 1.000000
0  -4.012645 -12.207659 -6.947409  -1.000000 -0.000002 -0.000000  0.540090 0.560377 1 64 1.000000
lowpoly_plastic.005
0  -3.542730 -11.157008 -9.482687  0.000000 0.052475 -0.998622  0.550213 0.553735 1 64 1.000000
0  -4.012646 -10.761356 -9.461897  0.000000 0.052475 -0.998622  0.550439 0.553541 1 64 1.000000
0  -3.542730 -9.053966 -9.372177  0.000000 0.052475 -0.998622  0.550213 0.552703 1 64 1.000000
lowpoly_plastic.005
0  -3.744812 -9.053966 -9.372177  0.000000 0.052474 -0.998622  0.550322 0.552703 1 64 1.000000
0  -3.542730 -9.053966 -9.372177  0.000000 0.052474 -0.998622  0.550213 0.552703 1 64 1.000000
0  -4.012648 -9.393173 -9.390001  0.000000 0.052474 -0.998622  0.550439 0.552869 1 64 1.000000
lowpoly_plastic.005
0  -4.012646 -10.761356 -9.461897  0.000000 0.052474 -0.998622  0.550439 0.553541 1 64 1.000000
0  -3.542730 -11.157008 -9.482687  0.000000 0.052474 -0.998622  0.550213 0.553735 1 64 1.000000
0  -3.762999 -11.157008 -9.482687  0.000000 0.052474 -0.998622  0.550325 0.553735 1 64 1.000000
lowpoly_plastic.005
0  -4.012646 -10.795267 -9.156282  -1.000000 -0.000001 -0.000000  0.539921 0.561821 1 64 1.000000
0  -4.012648 -9.393173 -9.390001  -1.000000 -0.000001 -0.000000  0.539327 0.562186 1 64 1.000000
0  -4.012646 -10.761356 -9.461897  -1.000000 -0.000001 -0.000000  0.539963 0.561971 1 64 1.000000
lowpoly_plastic.005
0  -3.759132 -10.584037 -5.957757  -0.725108 0.687160 0.045050  0.539715 0.565691 1 64 1.000000
0  -4.012646 -10.864514 -5.760027  -0.725108 0.687160 0.045050  0.539639 0.565691 1 64 1.000000
0  -3.759132 -10.597001 -5.760027  -0.725108 0.687160 0.045050  0.539715 0.565691 1 64 1.000000
lowpoly_plastic.005
0  -3.759132 -10.584037 -5.957757  -0.000005 0.997856 0.065441  0.539715 0.565691 1 64 1.000000
0  -3.542730 -10.597001 -5.760027  -0.000005 0.997856 0.065441  0.539866 0.565691 1 64 1.000000
0  -3.542730 -10.584036 -5.957757  -0.000005 0.997856 0.065441  0.539866 0.565691 1 64 1.000000
lowpoly_plastic.005
0  -4.012645 -12.208694 -5.760027  -1.000000 -0.000001 0.000002  0.539924 0.559961 1 64 1.000000
0  -4.012646 -10.851550 -5.957757  -1.000000 -0.000001 0.000002  0.539289 0.560323 1 64 1.000000
0  -4.012645 -12.208694 -5.957757  -1.000000 -0.000001 0.000002  0.539961 0.560054 1 64 1.000000
lowpoly_plastic.005
0  -3.744811 -10.049266 -6.934926  -0.681669 0.645994 0.343539  0.539164 0.560908 1 64 1.000000
0  -4.012646 -10.851550 -5.957757  -0.681669 0.645994 0.343539  0.539237 0.560424 1 64 1.000000
0  -3.759132 -10.584037 -5.957757  -0.681669 0.645994 0.343539  0.539214 0.560423 1 64 1.000000
lowpoly_plastic.005
0  -3.759132 -10.584037 -5.957757  0.000000 0.877226 0.480078  0.539655 0.565627 1 64 1.000000
0  -3.542730 -10.049266 -6.934926  0.000000 0.877226 0.480078  0.539866 0.565163 1 64 1.000000
0  -3.744811 -10.049266 -6.934926  0.000000 0.877226 0.480078  0.539757 0.565163 1 64 1.000000
lowpoly_plastic.005
0  -4.012646 -10.851550 -5.957757  -1.000000 0.000000 0.000000  0.539289 0.560323 1 64 1.000000
0  -4.012646 -11.655276 -6.947409  -1.000000 0.000000 0.000000  0.539969 0.560592 1 64 1.000000
0  -4.012645 -12.208694 -5.957757  -1.000000 0.000000 0.000000  0.539961 0.560054 1 64 1.000000
lowpoly_plastic.005
0  -4.012645 -12.207659 -6.947409  0.000988 -0.999998 -0.001515  0.544861 0.566489 1 64 1.000000
0  -3.542730 -12.207194 -6.947409  0.000988 -0.999998 -0.001515  0.544635 0.566334 1 64 1.000000
0  -3.542730 -12.208692 -5.957757  0.000988 -0.999998 -0.001515  0.544635 0.566836 1 64 1.000000
lowpoly_plastic.005
0  -4.012646 -10.409013 -6.937007  -1.000000 -0.000000 0.000003  0.539327 0.560844 1 64 1.000000
0  -4.012647 -10.341459 -7.065911  -1.000000 -0.000000 0.000003  0.539320 0.560917 1 64 1.000000
0  -4.012646 -11.655276 -6.947409  -1.000000 -0.000000 0.000003  0.539843 0.560701 1 64 1.000000
lowpoly_plastic.005
0  -3.762998 -12.207194 -6.947409  0.000585 -0.316459 -0.948606  0.540222 0.567285 1 64 1.000000
0  -4.012645 -12.207659 -6.947409  0.000585 -0.316459 -0.948606  0.540090 0.560377 1 64 1.000000
0  -3.762998 -11.906648 -7.047672  0.000585 -0.316459 -0.948606  0.540367 0.567285 1 64 1.000000
lowpoly_plastic.005
0  -3.542730 -12.208692 -5.957757  -0.000004 -1.000000 0.000000  0.544635 0.566836 1 64 1.000000
0  -3.072815 -12.208694 -5.957757  -0.000004 -1.000000 0.000000  0.544861 0.566836 1 64 1.000000
0  -3.072815 -12.208694 -5.760027  -0.000004 -1.000000 0.000000  0.544861 0.566937 1 64 1.000000
lowpoly_plastic.005
0  -3.340648 -9.052865 -8.605740  0.000000 0.856463 0.516209  0.539757 0.564256 1 64 1.000000
0  -3.542730 -9.052865 -8.605740  0.000000 0.856463 0.516209  0.539866 0.564256 1 64 1.000000
0  -3.542730 -9.978404 -7.070142  0.000000 0.856463 0.516209  0.539866 0.565091 1 64 1.000000
lowpoly_plastic.005
0  -3.542730 -11.189637 -9.188648  0.000000 -0.956280 0.292452  0.550541 0.554905 1 64 1.000000
0  -3.322461 -11.189637 -9.188648  0.000000 -0.956280 0.292452  0.550429 0.554905 1 64 1.000000
0  -3.322462 -11.060998 -8.768017  0.000000 -0.956280 0.292452  0.550429 0.554694 1 64 1.000000
lowpoly_plastic.005
0  -3.542730 -11.157008 -9.482687  0.000000 -0.993900 -0.110286  0.550541 0.555055 1 64 1.000000
0  -3.322461 -11.157008 -9.482687  0.000000 -0.993900 -0.110286  0.550429 0.555055 1 64 1.000000
0  -3.322461 -11.189637 -9.188648  0.000000 -0.993900 -0.110286  0.550429 0.554905 1 64 1.000000
lowpoly_plastic.005
0  -3.072814 -10.666786 -8.736162  1.000000 -0.000001 0.000000  0.539783 0.561646 1 64 1.000000
0  -3.072814 -10.795267 -9.156282  1.000000 -0.000001 0.000000  0.539921 0.561821 1 64 1.000000
0  -3.072813 -9.393173 -9.390001  1.000000 -0.000001 0.000000  0.539327 0.562186 1 64 1.000000
lowpoly_plastic.005
0  -3.072814 -10.666786 -8.736162  1.000000 0.000000 0.000000  0.539783 0.561646 1 64 1.000000
0  -3.072813 -9.396627 -8.633520  1.000000 0.000000 0.000000  0.539186 0.561829 1 64 1.000000
0  -3.072814 -10.341459 -7.065911  1.000000 0.000000 0.000000  0.539320 0.560917 1 64 1.000000
lowpoly_plastic.005
0  -3.340649 -10.049266 -6.934926  0.000000 0.885737 0.464188  0.539757 0.565163 1 64 1.000000
0  -3.340649 -9.978404 -7.070141  0.000000 0.885737 0.464188  0.539757 0.565091 1 64 1.000000
0  -3.542730 -9.978404 -7.070142  0.000000 0.885737 0.464188  0.539866 0.565091 1 64 1.000000
lowpoly_plastic.005
0  -3.322462 -11.060998 -8.768017  0.822072 -0.498352 -0.275396  0.539970 0.561589 1 64 1.000000
0  -3.072814 -10.666786 -8.736162  0.822072 -0.498352 -0.275396  0.539783 0.561646 1 64 1.000000
0  -3.072814 -11.655276 -6.947409  0.822072 -0.498352 -0.275396  0.539843 0.560701 1 64 1.000000
lowpoly_plastic.005
0  -3.322462 -11.060998 -8.768017  0.827305 -0.537193 0.164287  0.539970 0.561589 1 64 1.000000
0  -3.322461 -11.189637 -9.188648  0.827305 -0.537193 0.164287  0.540108 0.561764 1 64 1.000000
0  -3.072814 -10.795267 -9.156282  0.827305 -0.537193 0.164287  0.539921 0.561821 1 64 1.000000
lowpoly_plastic.005
0  -3.322461 -11.157008 -9.482687  0.845646 -0.530489 -0.058861  0.540149 0.561909 1 64 1.000000
0  -3.072814 -10.761356 -9.461897  0.845646 -0.530489 -0.058861  0.539963 0.561971 1 64 1.000000
0  -3.072814 -10.795267 -9.156282  0.845646 -0.530489 -0.058861  0.539921 0.561821 1 64 1.000000
lowpoly_plastic.005
0  -3.340648 -8.896770 -9.000483  -0.000006 0.929935 0.367723  0.539757 0.564047 1 64 1.000000
0  -3.542730 -8.896770 -9.000484  -0.000006 0.929935 0.367723  0.539865 0.564047 1 64 1.000000
0  -3.542730 -9.052865 -8.605740  -0.000006 0.929935 0.367723  0.539866 0.564256 1 64 1.000000
lowpoly_plastic.005
0  -3.340649 -9.978404 -7.070141  0.755394 0.561214 0.338257  0.539157 0.560985 1 64 1.000000
0  -3.072814 -10.341459 -7.065911  0.755394 0.561214 0.338257  0.539320 0.560917 1 64 1.000000
0  -3.072813 -9.396627 -8.633520  0.755394 0.561214 0.338257  0.539186 0.561829 1 64 1.000000
lowpoly_plastic.005
0  -3.340648 -9.052865 -8.605740  0.776347 0.586143 0.231781  0.539025 0.561878 1 64 1.000000
0  -3.072813 -9.396627 -8.633520  0.776347 0.586143 0.231781  0.539186 0.561829 1 64 1.000000
0  -3.072814 -9.240368 -9.028681  0.776347 0.586143 0.231781  0.539189 0.562044 1 64 1.000000
lowpoly_plastic.005
0  -3.072814 -9.240368 -9.028681  0.751914 0.607195 -0.256787  0.539189 0.562044 1 64 1.000000
0  -3.072813 -9.393173 -9.390001  0.751914 0.607195 -0.256787  0.539327 0.562186 1 64 1.000000
0  -3.340648 -9.053966 -9.372177  0.751914 0.607195 -0.256787  0.539170 0.562240 1 64 1.000000
lowpoly_plastic.005
0  -3.542730 -11.906648 -7.047672  0.000000 -0.316458 -0.948606  0.540367 0.567173 1 64 1.000000
0  -3.322462 -11.906648 -7.047672  0.000000 -0.316458 -0.948606  0.540367 0.567285 1 64 1.000000
0  -3.322462 -12.207194 -6.947409  0.000000 -0.316458 -0.948606  0.540222 0.567285 1 64 1.000000
lowpoly_plastic.005
0  -3.542730 -11.060998 -8.768017  0.000000 -0.897437 -0.441143  0.550541 0.554694 1 64 1.000000
0  -3.322462 -11.060998 -8.768017  0.000000 -0.897437 -0.441143  0.550429 0.554694 1 64 1.000000
0  -3.322462 -11.906648 -7.047672  0.000000 -0.897437 -0.441143  0.550429 0.553808 1 64 1.000000
lowpoly_plastic.005
0  -3.340648 -9.053966 -9.372177  0.000000 0.921021 -0.389513  0.539757 0.563870 1 64 1.000000
0  -3.542730 -9.053966 -9.372177  0.000000 0.921021 -0.389513  0.539866 0.563870 1 64 1.000000
0  -3.542730 -8.896770 -9.000484  0.000000 0.921021 -0.389513  0.539865 0.564047 1 64 1.000000
lowpoly_plastic.005
0  -3.340649 -10.049266 -6.934926  0.766454 0.568906 0.298152  0.539164 0.560908 1 64 1.000000
0  -3.072814 -10.409013 -6.937007  0.766454 0.568906 0.298152  0.539327 0.560844 1 64 1.000000
0  -3.072814 -10.341459 -7.065911  0.766454 0.568906 0.298152  0.539320 0.560917 1 64 1.000000
lowpoly_plastic.005
0  -3.326328 -10.584037 -5.957757  0.725108 0.687160 0.045050  0.539715 0.565691 1 64 1.000000
0  -3.326328 -10.597001 -5.760027  0.725108 0.687160 0.045050  0.539715 0.565691 1 64 1.000000
0  -3.072814 -10.864514 -5.760027  0.725108 0.687160 0.045050  0.539639 0.565691 1 64 1.000000
lowpoly_plastic.005
0  -3.326328 -10.584037 -5.957757  0.000005 0.997856 0.065441  0.539715 0.565691 1 64 1.000000
0  -3.542730 -10.584036 -5.957757  0.000005 0.997856 0.065441  0.539866 0.565691 1 64 1.000000
0  -3.542730 -10.597001 -5.760027  0.000005 0.997856 0.065441  0.539866 0.565691 1 64 1.000000
lowpoly_plastic.005
0  -3.072815 -12.208694 -5.760027  1.000000 -0.000000 0.000000  0.539924 0.559961 1 64 1.000000
0  -3.072815 -12.208694 -5.957757  1.000000 -0.000000 0.000000  0.539961 0.560054 1 64 1.000000
0  -3.072814 -10.851550 -5.957757  1.000000 -0.000000 0.000000  0.539289 0.560323 1 64 1.000000
lowpoly_plastic.005
0  -3.340649 -10.049266 -6.934926  0.681669 0.645994 0.343539  0.539164 0.560908 1 64 1.000000
0  -3.326328 -10.584037 -5.957757  0.681669 0.645994 0.343539  0.539214 0.560423 1 64 1.000000
0  -3.072814 -10.851550 -5.957757  0.681669 0.645994 0.343539  0.539237 0.560424 1 64 1.000000
lowpoly_plastic.005
0  -3.326328 -10.584037 -5.957757  0.000000 0.877226 0.480078  0.539655 0.565627 1 64 1.000000
0  -3.340649 -10.049266 -6.934926  0.000000 0.877226 0.480078  0.539757 0.565163 1 64 1.000000
0  -3.542730 -10.049266 -6.934926  0.000000 0.877226 0.480078  0.539866 0.565163 1 64 1.000000
lowpoly_plastic.005
0  -3.072814 -10.851550 -5.957757  1.000000 -0.000001 0.000000  0.539289 0.560323 1 64 1.000000
0  -3.072815 -12.208694 -5.957757  1.000000 -0.000001 0.000000  0.539961 0.560054 1 64 1.000000
0  -3.072814 -11.655276 -6.947409  1.000000 -0.000001 0.000000  0.539969 0.560592 1 64 1.000000
lowpoly_plastic.005
0  -3.542730 -12.208692 -5.957757  0.000000 -1.000000 -0.000010  0.544635 0.566836 1 64 1.000000
0  -3.542730 -12.208694 -5.760027  0.000000 -1.000000 -0.000010  0.544635 0.566937 1 64 1.000000
0  -4.012645 -12.208694 -5.760027  0.000000 -1.000000 -0.000010  0.544861 0.566937 1 64 1.000000
lowpoly_plastic.005
0  -3.744812 -9.052865 -8.605740  0.000003 0.856463 0.516209  0.539757 0.564256 1 64 1.000000
0  -3.744811 -9.978404 -7.070141  0.000003 0.856463 0.516209  0.539757 0.565091 1 64 1.000000
0  -3.542730 -9.978404 -7.070142  0.000003 0.856463 0.516209  0.539866 0.565091 1 64 1.000000
lowpoly_plastic.005
0  -3.542730 -11.189637 -9.188648  0.000000 -0.956279 0.292457  0.550541 0.554905 1 64 1.000000
0  -3.542730 -11.060998 -8.768017  0.000000 -0.956279 0.292457  0.550541 0.554694 1 64 1.000000
0  -3.762999 -11.060998 -8.768017  0.000000 -0.956279 0.292457  0.550429 0.554694 1 64 1.000000
lowpoly_plastic.005
0  -3.542730 -11.157008 -9.482687  0.000000 -0.993899 -0.110295  0.550541 0.555055 1 64 1.000000
0  -3.542730 -11.189637 -9.188648  0.000000 -0.993899 -0.110295  0.550541 0.554905 1 64 1.000000
0  -3.762999 -11.189637 -9.188648  0.000000 -0.993899 -0.110295  0.550429 0.554905 1 64 1.000000
lowpoly_plastic.005
0  -4.012646 -10.666786 -8.736162  -1.000000 -0.000001 0.000003  0.539783 0.561646 1 64 1.000000
0  -4.012647 -9.240368 -9.028681  -1.000000 -0.000001 0.000003  0.539189 0.562044 1 64 1.000000
0  -4.012648 -9.393173 -9.390001  -1.000000 -0.000001 0.000003  0.539327 0.562186 1 64 1.000000
lowpoly_plastic.005
0  -4.012646 -10.666786 -8.736162  -1.000000 -0.000001 -0.000000  0.539783 0.561646 1 64 1.000000
0  -4.012646 -11.655276 -6.947409  -1.000000 -0.000001 -0.000000  0.539843 0.560701 1 64 1.000000
0  -4.012647 -10.341459 -7.065911  -1.000000 -0.000001 -0.000000  0.539320 0.560917 1 64 1.000000
lowpoly_plastic.005
0  -3.744811 -10.049266 -6.934926  0.000000 0.885738 0.464186  0.539757 0.565163 1 64 1.000000
0  -3.542730 -10.049266 -6.934926  0.000000 0.885738 0.464186  0.539866 0.565163 1 64 1.000000
0  -3.542730 -9.978404 -7.070142  0.000000 0.885738 0.464186  0.539866 0.565091 1 64 1.000000
lowpoly_plastic.005
0  -3.762999 -11.060998 -8.768017  -0.734013 -0.609482 -0.299596  0.539970 0.561589 1 64 1.000000
0  -3.762998 -11.906648 -7.047672  -0.734013 -0.609482 -0.299596  0.540031 0.560624 1 64 1.000000
0  -4.012646 -11.655276 -6.947409  -0.734013 -0.609482 -0.299596  0.539843 0.560701 1 64 1.000000
lowpoly_plastic.005
0  -3.762999 -11.060998 -8.768017  -0.827305 -0.537193 0.164286  0.539970 0.561589 1 64 1.000000
0  -4.012646 -10.666786 -8.736162  -0.827305 -0.537193 0.164286  0.539783 0.561646 1 64 1.000000
0  -4.012646 -10.795267 -9.156282  -0.827305 -0.537193 0.164286  0.539921 0.561821 1 64 1.000000
lowpoly_plastic.005
0  -3.762999 -11.157008 -9.482687  -0.845647 -0.530486 -0.058871  0.540149 0.561909 1 64 1.000000
0  -3.762999 -11.189637 -9.188648  -0.845647 -0.530486 -0.058871  0.540108 0.561764 1 64 1.000000
0  -4.012646 -10.795267 -9.156282  -0.845647 -0.530486 -0.058871  0.539921 0.561821 1 64 1.000000
lowpoly_plastic.005
0  -3.744812 -8.896770 -9.000483  0.000000 0.929932 0.367730  0.539757 0.564047 1 64 1.000000
0  -3.744812 -9.052865 -8.605740  0.000000 0.929932 0.367730  0.539757 0.564256 1 64 1.000000
0  -3.542730 -9.052865 -8.605740  0.000000 0.929932 0.367730  0.539866 0.564256 1 64 1.000000
lowpoly_plastic.005
0  -3.744811 -9.978404 -7.070141  -0.755395 0.561214 0.338256  0.539157 0.560985 1 64 1.000000
0  -3.744812 -9.052865 -8.605740  -0.755395 0.561214 0.338256  0.539025 0.561878 1 64 1.000000
0  -4.012647 -9.396627 -8.633520  -0.755395 0.561214 0.338256  0.539186 0.561829 1 64 1.000000
lowpoly_plastic.005
0  -3.744812 -9.052865 -8.605740  -0.776347 0.586142 0.231781  0.539025 0.561878 1 64 1.000000
0  -3.744812 -8.896770 -9.000483  -0.776347 0.586142 0.231781  0.539029 0.562093 1 64 1.000000
0  -4.012647 -9.240368 -9.028681  -0.776347 0.586142 0.231781  0.539189 0.562044 1 64 1.000000
lowpoly_plastic.005
0  -4.012647 -9.240368 -9.028681  -0.751915 0.607192 -0.256791  0.539189 0.562044 1 64 1.000000
0  -3.744812 -8.896770 -9.000483  -0.751915 0.607192 -0.256791  0.539029 0.562093 1 64 1.000000
0  -3.744812 -9.053966 -9.372177  -0.751915 0.607192 -0.256791  0.539170 0.562240 1 64 1.000000
lowpoly_plastic.005
0  -3.542730 -11.906648 -7.047672  0.000000 -0.316457 -0.948607  0.540367 0.567173 1 64 1.000000
0  -3.542730 -12.207194 -6.947409  0.000000 -0.316457 -0.948607  0.540222 0.567173 1 64 1.000000
0  -3.762998 -12.207194 -6.947409  0.000000 -0.316457 -0.948607  0.540222 0.567285 1 64 1.000000
lowpoly_plastic.005
0  -3.542730 -11.060998 -8.768017  0.000000 -0.897437 -0.441143  0.550541 0.554694 1 64 1.000000
0  -3.542730 -11.906648 -7.047672  0.000000 -0.897437 -0.441143  0.550541 0.553808 1 64 1.000000
0  -3.762998 -11.906648 -7.047672  0.000000 -0.897437 -0.441143  0.550429 0.553808 1 64 1.000000
lowpoly_plastic.005
0  -3.744812 -9.053966 -9.372177  -0.000006 0.921020 -0.389516  0.539757 0.563870 1 64 1.000000
0  -3.744812 -8.896770 -9.000483  -0.000006 0.921020 -0.389516  0.539757 0.564047 1 64 1.000000
0  -3.542730 -8.896770 -9.000484  -0.000006 0.921020 -0.389516  0.539865 0.564047 1 64 1.000000
lowpoly_plastic.005
0  -3.744811 -10.049266 -6.934926  -0.766457 0.568907 0.298142  0.539164 0.560908 1 64 1.000000
0  -3.744811 -9.978404 -7.070141  -0.766457 0.568907 0.298142  0.539157 0.560985 1 64 1.000000
0  -4.012647 -10.341459 -7.065911  -0.766457 0.568907 0.298142  0.539320 0.560917 1 64 1.000000
lowpoly_plastic.005
0  -3.759132 -10.584037 -5.957757  -0.725108 0.687160 0.045057  0.539715 0.565691 1 64 1.000000
0  -4.012646 -10.851550 -5.957757  -0.725108 0.687160 0.045057  0.539639 0.565691 1 64 1.000000
0  -4.012646 -10.864514 -5.760027  -0.725108 0.687160 0.045057  0.539639 0.565691 1 64 1.000000
lowpoly_plastic.005
0  -3.759132 -10.584037 -5.957757  0.000000 0.997858 0.065419  0.539715 0.565691 1 64 1.000000
0  -3.759132 -10.597001 -5.760027  0.000000 0.997858 0.065419  0.539715 0.565691 1 64 1.000000
0  -3.542730 -10.597001 -5.760027  0.000000 0.997858 0.065419  0.539866 0.565691 1 64 1.000000
lowpoly_plastic.005
0  -4.012645 -12.208694 -5.760027  -1.000000 -0.000000 -0.000000  0.539924 0.559961 1 64 1.000000
0  -4.012646 -10.864514 -5.760027  -1.000000 -0.000000 -0.000000  0.539253 0.560229 1 64 1.000000
0  -4.012646 -10.851550 -5.957757  -1.000000 -0.000000 -0.000000  0.539289 0.560323 1 64 1.000000
lowpoly_plastic.005
0  -3.744811 -10.049266 -6.934926  -0.775213 0.575647 0.260144  0.539164 0.560908 1 64 1.000000
0  -4.012646 -10.409013 -6.937007  -0.775213 0.575647 0.260144  0.539327 0.560844 1 64 1.000000
0  -4.012646 -10.851550 -5.957757  -0.775213 0.575647 0.260144  0.539237 0.560424 1 64 1.000000
lowpoly_plastic.005
0  -3.759132 -10.584037 -5.957757  -0.000002 0.877228 0.480073  0.539655 0.565627 1 64 1.000000
0  -3.542730 -10.584036 -5.957757  -0.000002 0.877228 0.480073  0.539866 0.565691 1 64 1.000000
0  -3.542730 -10.049266 -6.934926  -0.000002 0.877228 0.480073  0.539866 0.565163 1 64 1.000000
lowpoly_plastic.005
0  -4.012646 -10.851550 -5.957757  -1.000000 0.000000 0.000000  0.539289 0.560323 1 64 1.000000
0  -4.012646 -10.409013 -6.937007  -1.000000 0.000000 0.000000  0.539327 0.560844 1 64 1.000000
0  -4.012646 -11.655276 -6.947409  -1.000000 0.000000 0.000000  0.539969 0.560592 1 64 1.000000
end
