version 1
nodes
0 "blender_implicit" -1
1 "ValveBiped.Bip01_Spine4" -1
2 "ValveBiped.Bip01_L_Clavicle" 1
3 "ValveBiped.Bip01_L_UpperArm" 2
4 "ValveBiped.Bip01_L_Forearm" 3
5 "ValveBiped.Bip01_L_Hand" 4
6 "ValveBiped.Bip01_L_Finger4" 5
7 "ValveBiped.Bip01_L_Finger41" 6
8 "ValveBiped.Bip01_L_Finger42" 7
9 "ValveBiped.Bip01_L_Finger3" 5
10 "ValveBiped.Bip01_L_Finger31" 9
11 "ValveBiped.Bip01_L_Finger32" 10
12 "ValveBiped.Bip01_L_Finger2" 5
13 "ValveBiped.Bip01_L_Finger21" 12
14 "ValveBiped.Bip01_L_Finger22" 13
15 "ValveBiped.Bip01_L_Finger1" 5
16 "ValveBiped.Bip01_L_Finger11" 15
17 "ValveBiped.Bip01_L_Finger12" 16
18 "ValveBiped.Bip01_L_Finger0" 5
19 "ValveBiped.Bip01_L_Finger01" 18
20 "ValveBiped.Bip01_L_Finger02" 19
21 "ValveBiped.Bip01_L_Ulna" 4
22 "ValveBiped.Bip01_L_Wrist" 4
23 "rig_l_upperarm" 2
24 "rig_l_forearm" 23
25 "rig_d_l_forearm" 24
26 "rig_d_l_upperarm" 23
27 "ValveBiped.Bip01_R_Clavicle" 1
28 "ValveBiped.Bip01_R_UpperArm" 27
29 "ValveBiped.Bip01_R_Forearm" 28
30 "ValveBiped.Bip01_R_Hand" 29
31 "ValveBiped.Bip01_R_Finger4" 30
32 "ValveBiped.Bip01_R_Finger41" 31
33 "ValveBiped.Bip01_R_Finger42" 32
34 "ValveBiped.Bip01_R_Finger3" 30
35 "ValveBiped.Bip01_R_Finger31" 34
36 "ValveBiped.Bip01_R_Finger32" 35
37 "ValveBiped.Bip01_R_Finger2" 30
38 "ValveBiped.Bip01_R_Finger21" 37
39 "ValveBiped.Bip01_R_Finger22" 38
40 "ValveBiped.Bip01_R_Finger1" 30
41 "ValveBiped.Bip01_R_Finger11" 40
42 "ValveBiped.Bip01_R_Finger12" 41
43 "ValveBiped.Bip01_R_Finger0" 30
44 "ValveBiped.Bip01_R_Finger01" 43
45 "ValveBiped.Bip01_R_Finger02" 44
46 "ValveBiped.Bip01_R_Ulna" 29
47 "ValveBiped.Bip01_R_Wrist" 29
48 "rig_r_upperarm" 27
49 "rig_r_forearm" 48
50 "rig_d_r_forearm" 49
51 "rig_d_r_upperarm" 48
52 "rig_r_hand" -1
53 "rig_d_r_hand" 52
54 "rig_d_r_wrist" 53
55 "rig_l_hand" -1
56 "rig_d_l_hand" 55
57 "rig_d_l_wrist" 55
58 "rig_l_pole" -1
59 "rig_r_pole" -1
60 "rig_l_clavicle" -1
61 "rig_d_l_clavicle" 60
62 "rig_r_clavicle" -1
63 "rig_d_r_clavicle" 62
64 "Camera" -1
65 "body" -1
66 "trigger" 65
67 "boltprot" 65
68 "bolt" 67
69 "hammer" 67
70 "magrel" 65
71 "mag" -1
72 "round1" 71
73 "round2" 71
74 "round3" 71
end
skeleton
time 0
0  0 0 0  0 0 0
1  0.000006 0.000000 0.000000  -1.570800 -1.391899 -1.570792
2  2.033349 1.000767 1.937657  -1.544956 -1.855077 -0.198630
3  6.027514 -0.000325 0.000205  -1.652955 0.191603 -0.543421
4  11.692116 0.000648 -0.000740  -0.000036 0.000009 -0.432884
5  11.480583 0.000050 -0.000728  1.650634 -0.092836 0.261130
6  3.859507 -0.142881 -1.192049  -0.468164 0.151540 -0.880272
7  1.312590 0.000015 0.000009  -0.000026 0.000045 -0.439738
8  0.729355 0.000053 0.000050  0.000017 0.000021 -0.244318
9  3.942144 0.046271 -0.431512  -0.151810 0.073212 -0.811101
10  1.539109 0.000083 0.000006  -0.000007 0.000021 -0.247841
11  1.196330 0.000145 0.000030  0.000012 0.000019 -0.430771
12  3.883506 -0.047273 0.431382  0.085898 0.021851 -0.587925
13  1.719573 -0.000025 0.000015  0.000015 0.005519 -0.366533
14  1.209179 0.000088 0.000012  0.000004 0.003092 -0.216437
15  3.859662 -0.138478 1.332410  0.354468 -0.042725 -0.531804
16  1.719447 -0.000007 0.000022  0.000029 0.004070 -0.363021
17  1.099675 0.000048 0.000005  0.000003 0.002579 -0.244381
18  0.805994 -0.349051 1.321254  -1.222687 -0.679194 -0.788886
19  1.789820 -0.000002 -0.000020  0.000012 -0.000024 0.228522
20  1.207015 -0.000010 -0.000040  0.000002 -0.000008 0.362857
21  5.740634 0.000410 -0.000703  0.058597 0.000003 0.000071
22  11.481129 0.000221 -0.000804  0.019173 0.004831 0.043766
23  6.027524 -0.000330 0.000203  -2.907607 -0.606664 0.892243
24  0.000000 11.692098 -0.000007  -0.326488 -0.045544 -0.274549
25  0.000003 0.000009 -0.000002  0.868996 -0.000031 1.570739
26  -0.000001 -0.000011 -0.000001  0.868957 0.000002 1.570712
27  2.033355 1.000772 -1.937609  1.473120 1.855075 -0.198639
28  6.027507 -0.000258 -0.000239  1.618784 -0.163589 -0.610569
29  11.691988 0.000245 0.000857  -0.000018 -0.000002 -0.453142
30  11.480968 0.000040 0.000817  -1.539829 0.081598 0.286299
31  3.859436 -0.132787 1.193062  0.466289 -0.158048 -0.878829
32  1.312555 0.000022 0.000000  0.000013 -0.000043 -0.439712
33  0.729346 0.000065 -0.000028  -0.000023 -0.000019 -0.244285
34  3.942044 0.050110 0.430997  0.150090 -0.079180 -0.810196
35  1.539100 0.000006 -0.000000  0.000009 -0.000008 -0.247824
36  1.196298 0.000076 -0.000004  -0.000007 -0.000009 -0.430783
37  3.883411 -0.050502 -0.431087  -0.085915 -0.026391 -0.587669
38  1.719564 -0.000080 -0.000004  -0.000007 -0.007962 -0.366484
39  1.209196 0.000036 0.000011  0.000002 -0.004460 -0.216413
40  3.859583 -0.149109 -1.331323  -0.354445 0.038579 -0.531964
41  1.719414 -0.000100 -0.000035  -0.000030 -0.006585 -0.363031
42  1.099671 0.000023 0.000006  0.000004 -0.004187 -0.244346
43  0.805978 -0.359852 -1.318338  1.221444 0.673632 -0.793566
44  1.789781 -0.000009 -0.000046  -0.000028 0.000031 0.228552
45  1.206995 -0.000005 0.000006  -0.000017 0.000020 0.362911
46  5.740570 0.000055 0.000725  -0.045554 -0.000014 0.000021
47  11.481135 0.000044 0.000914  0.005679 -0.004320 0.046534
48  6.027514 -0.000273 -0.000237  0.205055 -0.643655 -2.305609
49  -0.000001 11.691974 -0.000006  -0.341341 0.049805 0.286916
50  0.000003 -0.000000 0.000001  2.272569 -0.000041 1.570856
51  -0.000006 -0.000015 0.000005  2.272644 -0.000030 1.570865
52  -21.990076 -1.846167 -17.364054  -1.607814 2.338392 -0.050266
53  -0.000003 -0.000000 -0.000000  0.008153 -0.000259 0.000009
54  -0.000000 0.000001 0.000000  1.565115 0.043565 -0.106862
55  23.316473 -1.910260 -16.261993  1.603333 0.720529 0.034207
56  -0.000003 0.000001 -0.000000  0.000000 -0.000000 -0.000002
57  0.000029 0.000031 0.000001  -1.571901 -0.044449 -0.106509
58  15.265023 8.339654 -8.787539  1.570796 -0.000000 0.000000
59  -15.265000 8.339654 -8.787539  1.570796 -0.000000 0.000000
60  1.941978 -1.346989 1.821586  1.570796 -0.000000 0.000000
61  -0.004311 0.001230 -0.000371  0.006898 -0.005534 -0.284229
62  -1.937603 -1.346625 1.822824  1.570796 -0.000000 0.000000
63  0.000000 0.000000 0.000000  -0.078727 -3.136056 0.284226
64  0.000000 0.000000 0.000000  1.570796 -0.000000 0.000000
65  -3.579263 -15.969442 -2.768752  1.570796 -0.000000 0.000000
66  0.000002 -2.923558 -1.408042  0.000000 -0.000000 0.000000
67  -0.000002 -0.601197 -2.062164  0.000000 -0.000000 0.000000
68  0.004380 -0.039407 6.613115  0.000000 -0.000000 0.000000
69  0.000002 -0.021786 -0.115849  0.000000 -0.000000 0.000000
70  0.000002 -3.304881 0.259169  0.000000 -0.000000 0.000000
71  -3.579264 -20.706579 -4.028905  1.570796 -0.000000 0.000000
72  0.057100 0.204433 -2.709597  0.000000 -0.000000 0.000000
73  0.111673 -0.283001 -2.709597  0.000000 -0.000000 0.000000
74  -0.128217 -0.750370 -2.709597  0.000000 -0.000000 0.000000
end
triangles
lowpoly_plastic
0  -2.889389 -24.510580 -3.482175  0.923879 0.000000 -0.382684  0.045905 0.669746 1 65 1.000000
0  -3.092296 -47.502995 -3.972042  0.923879 0.000000 -0.382684  0.045869 0.669890 1 65 1.000000
0  -3.092298 -24.510580 -3.972040  0.923879 0.000000 -0.382684  0.045869 0.669746 1 65 1.000000
lowpoly_plastic
0  -3.092298 -24.510580 -3.972040  0.382682 0.000000 -0.923880  0.045869 0.669746 1 65 1.000000
0  -3.582160 -47.502995 -4.174950  0.382682 0.000000 -0.923880  0.045833 0.669890 1 65 1.000000
0  -3.582162 -24.510580 -4.174948  0.382682 0.000000 -0.923880  0.045833 0.669746 1 65 1.000000
lowpoly_plastic
0  -3.582162 -24.510580 -4.174948  -0.382684 0.000000 -0.923879  0.045833 0.669746 1 65 1.000000
0  -4.072023 -47.502995 -3.972042  -0.382684 0.000000 -0.923879  0.045797 0.669890 1 65 1.000000
0  -4.072026 -24.510580 -3.972040  -0.382684 0.000000 -0.923879  0.045797 0.669746 1 65 1.000000
lowpoly_plastic
0  -4.072026 -24.510580 -3.972040  -0.923879 -0.000000 -0.382684  0.045797 0.669746 1 65 1.000000
0  -4.274933 -47.502995 -3.482177  -0.923879 -0.000000 -0.382684  0.045761 0.669890 1 65 1.000000
0  -4.274934 -24.510580 -3.482175  -0.923879 -0.000000 -0.382684  0.045761 0.669746 1 65 1.000000
lowpoly_plastic
0  -4.274934 -24.510580 -3.482175  -0.923879 -0.000000 0.382684  0.045761 0.669746 1 65 1.000000
0  -4.072023 -47.502995 -2.992312  -0.923879 -0.000000 0.382684  0.045725 0.669890 1 65 1.000000
0  -4.072026 -24.510580 -2.992311  -0.923879 -0.000000 0.382684  0.045725 0.669746 1 65 1.000000
lowpoly_plastic
0  -4.072026 -24.510580 -2.992311  -0.382684 -0.000000 0.923879  0.045725 0.669746 1 65 1.000000
0  -3.582160 -47.502995 -2.789404  -0.382684 -0.000000 0.923879  0.045688 0.669890 1 65 1.000000
0  -3.582162 -24.510580 -2.789403  -0.382684 -0.000000 0.923879  0.045688 0.669746 1 65 1.000000
lowpoly_plastic
0  -3.884102 -24.496643 -3.482175  0.923880 0.000000 -0.382682  0.074747 0.899733 1 65 1.000000
0  -3.795663 -47.516930 -3.268674  0.923880 0.000000 -0.382682  0.074585 0.899740 1 65 1.000000
0  -3.884099 -47.516930 -3.482178  0.923880 0.000000 -0.382682  0.074603 0.899733 1 65 1.000000
lowpoly_plastic
0  -3.582162 -24.510580 -2.789403  0.382683 -0.000000 0.923880  0.045688 0.669746 1 65 1.000000
0  -3.092296 -47.502995 -2.992312  0.382683 -0.000000 0.923880  0.045652 0.669890 1 65 1.000000
0  -3.092298 -24.510580 -2.992311  0.382683 -0.000000 0.923880  0.045652 0.669746 1 65 1.000000
lowpoly_plastic
0  -3.092298 -24.510580 -2.992311  0.923879 0.000000 0.382684  0.045652 0.669746 1 65 1.000000
0  -2.889387 -47.502995 -3.482177  0.923879 0.000000 0.382684  0.045616 0.669890 1 65 1.000000
0  -2.889389 -24.510580 -3.482175  0.923879 0.000000 0.382684  0.045616 0.669746 1 65 1.000000
lowpoly_plastic
0  -3.795666 -24.496643 -3.268672  0.382682 0.000000 -0.923880  0.074730 0.899740 1 65 1.000000
0  -3.582160 -47.516930 -3.180239  0.382682 0.000000 -0.923880  0.074578 0.899757 1 65 1.000000
0  -3.795663 -47.516930 -3.268674  0.382682 0.000000 -0.923880  0.074585 0.899740 1 65 1.000000
lowpoly_plastic
0  -3.368659 -24.496643 -3.695679  0.035633 0.999256 -0.014758  0.045850 0.669691 1 65 1.000000
0  -2.889389 -24.510580 -3.482175  0.035633 0.999256 -0.014758  0.045833 0.669743 1 65 1.000000
0  -3.092298 -24.510580 -3.972040  0.035633 0.999256 -0.014758  0.045882 0.669723 1 65 1.000000
lowpoly_plastic
0  -3.280220 -47.516930 -3.482178  0.035628 -0.999256 -0.014763  0.045688 0.669698 1 65 1.000000
0  -3.092296 -47.502995 -3.972042  0.035628 -0.999256 -0.014763  0.045737 0.669723 1 65 1.000000
0  -2.889387 -47.502995 -3.482177  0.035628 -0.999256 -0.014763  0.045688 0.669743 1 65 1.000000
lowpoly_plastic
0  -3.582163 -24.496643 -3.784114  0.014760 0.999256 -0.035619  0.045857 0.669674 1 65 1.000000
0  -3.092298 -24.510580 -3.972040  0.014760 0.999256 -0.035619  0.045882 0.669723 1 65 1.000000
0  -3.582162 -24.510580 -4.174948  0.014760 0.999256 -0.035619  0.045902 0.669674 1 65 1.000000
lowpoly_plastic
0  -3.368656 -47.516930 -3.695682  0.014758 -0.999256 -0.035639  0.045706 0.669691 1 65 1.000000
0  -3.582160 -47.502995 -4.174950  0.014758 -0.999256 -0.035639  0.045758 0.669674 1 65 1.000000
0  -3.092296 -47.502995 -3.972042  0.014758 -0.999256 -0.035639  0.045737 0.669723 1 65 1.000000
lowpoly_plastic
0  -3.795666 -24.496643 -3.695679  -0.014760 0.999256 -0.035619  0.045850 0.669657 1 65 1.000000
0  -3.582162 -24.510580 -4.174948  -0.014760 0.999256 -0.035619  0.045902 0.669674 1 65 1.000000
0  -4.072026 -24.510580 -3.972040  -0.014760 0.999256 -0.035619  0.045882 0.669625 1 65 1.000000
lowpoly_plastic
0  -3.582160 -47.516930 -3.784117  -0.014758 -0.999256 -0.035639  0.045713 0.669674 1 65 1.000000
0  -4.072023 -47.502995 -3.972042  -0.014758 -0.999256 -0.035639  0.045737 0.669625 1 65 1.000000
0  -3.582160 -47.502995 -4.174950  -0.014758 -0.999256 -0.035639  0.045758 0.669674 1 65 1.000000
lowpoly_plastic
0  -3.884102 -24.496643 -3.482175  -0.035633 0.999256 -0.014758  0.045833 0.669649 1 65 1.000000
0  -4.072026 -24.510580 -3.972040  -0.035633 0.999256 -0.014758  0.045882 0.669625 1 65 1.000000
0  -4.274934 -24.510580 -3.482175  -0.035633 0.999256 -0.014758  0.045833 0.669605 1 65 1.000000
lowpoly_plastic
0  -3.795663 -47.516930 -3.695682  -0.035628 -0.999256 -0.014763  0.045706 0.669657 1 65 1.000000
0  -4.274933 -47.502995 -3.482177  -0.035628 -0.999256 -0.014763  0.045688 0.669605 1 65 1.000000
0  -4.072023 -47.502995 -3.972042  -0.035628 -0.999256 -0.014763  0.045737 0.669625 1 65 1.000000
lowpoly_plastic
0  -3.795666 -24.496643 -3.268672  -0.035633 0.999256 0.014758  0.045815 0.669657 1 65 1.000000
0  -4.274934 -24.510580 -3.482175  -0.035633 0.999256 0.014758  0.045833 0.669605 1 65 1.000000
0  -4.072026 -24.510580 -2.992311  -0.035633 0.999256 0.014758  0.045784 0.669625 1 65 1.000000
lowpoly_plastic
0  -3.884099 -47.516930 -3.482178  -0.035628 -0.999256 0.014763  0.045688 0.669649 1 65 1.000000
0  -4.072023 -47.502995 -2.992312  -0.035628 -0.999256 0.014763  0.045640 0.669625 1 65 1.000000
0  -4.274933 -47.502995 -3.482177  -0.035628 -0.999256 0.014763  0.045688 0.669605 1 65 1.000000
lowpoly_plastic
0  -3.582163 -24.496643 -3.180236  -0.014760 0.999256 0.035629  0.045808 0.669674 1 65 1.000000
0  -4.072026 -24.510580 -2.992311  -0.014760 0.999256 0.035629  0.045784 0.669625 1 65 1.000000
0  -3.582162 -24.510580 -2.789403  -0.014760 0.999256 0.035629  0.045763 0.669674 1 65 1.000000
lowpoly_plastic
0  -3.795663 -47.516930 -3.268674  -0.014758 -0.999256 0.035639  0.045671 0.669657 1 65 1.000000
0  -3.582160 -47.502995 -2.789404  -0.014758 -0.999256 0.035639  0.045619 0.669674 1 65 1.000000
0  -4.072023 -47.502995 -2.992312  -0.014758 -0.999256 0.035639  0.045640 0.669625 1 65 1.000000
lowpoly_plastic
0  -3.368659 -24.496643 -3.268672  0.014760 0.999256 0.035629  0.045815 0.669691 1 65 1.000000
0  -3.582162 -24.510580 -2.789403  0.014760 0.999256 0.035629  0.045763 0.669674 1 65 1.000000
0  -3.092298 -24.510580 -2.992311  0.014760 0.999256 0.035629  0.045784 0.669723 1 65 1.000000
lowpoly_plastic
0  -3.582160 -47.516930 -3.180239  0.014758 -0.999256 0.035639  0.045664 0.669674 1 65 1.000000
0  -3.092296 -47.502995 -2.992312  0.014758 -0.999256 0.035639  0.045640 0.669723 1 65 1.000000
0  -3.582160 -47.502995 -2.789404  0.014758 -0.999256 0.035639  0.045619 0.669674 1 65 1.000000
lowpoly_plastic
0  -3.280223 -24.496643 -3.482175  0.035633 0.999256 0.014763  0.045833 0.669698 1 65 1.000000
0  -3.092298 -24.510580 -2.992311  0.035633 0.999256 0.014763  0.045784 0.669723 1 65 1.000000
0  -2.889389 -24.510580 -3.482175  0.035633 0.999256 0.014763  0.045833 0.669743 1 65 1.000000
lowpoly_plastic
0  -3.368656 -47.516930 -3.268674  0.035628 -0.999256 0.014763  0.045671 0.669691 1 65 1.000000
0  -2.889387 -47.502995 -3.482177  0.035628 -0.999256 0.014763  0.045688 0.669743 1 65 1.000000
0  -3.092296 -47.502995 -2.992312  0.035628 -0.999256 0.014763  0.045640 0.669723 1 65 1.000000
lowpoly_plastic
0  -3.795666 -24.496643 -3.695679  0.923880 0.000000 0.382682  0.074764 0.899740 1 65 1.000000
0  -3.884099 -47.516930 -3.482178  0.923880 0.000000 0.382682  0.074603 0.899733 1 65 1.000000
0  -3.795663 -47.516930 -3.695682  0.923880 0.000000 0.382682  0.074620 0.899740 1 65 1.000000
lowpoly_plastic
0  -3.582163 -24.496643 -3.784114  0.382682 -0.000000 0.923880  0.074771 0.899757 1 65 1.000000
0  -3.795663 -47.516930 -3.695682  0.382682 -0.000000 0.923880  0.074620 0.899740 1 65 1.000000
0  -3.582160 -47.516930 -3.784117  0.382682 -0.000000 0.923880  0.074627 0.899757 1 65 1.000000
lowpoly_plastic
0  -3.368659 -24.496643 -3.695679  -0.382681 -0.000000 0.923881  0.074764 0.899774 1 65 1.000000
0  -3.582160 -47.516930 -3.784117  -0.382681 -0.000000 0.923881  0.074627 0.899757 1 65 1.000000
0  -3.368656 -47.516930 -3.695682  -0.382681 -0.000000 0.923881  0.074620 0.899774 1 65 1.000000
lowpoly_plastic
0  -3.280223 -24.496643 -3.482175  -0.923880 -0.000000 0.382682  0.074747 0.899782 1 65 1.000000
0  -3.368656 -47.516930 -3.695682  -0.923880 -0.000000 0.382682  0.074620 0.899774 1 65 1.000000
0  -3.280220 -47.516930 -3.482178  -0.923880 -0.000000 0.382682  0.074603 0.899782 1 65 1.000000
lowpoly_plastic
0  -3.368659 -24.496643 -3.268672  -0.923880 -0.000000 -0.382683  0.074730 0.899774 1 65 1.000000
0  -3.280220 -47.516930 -3.482178  -0.923880 -0.000000 -0.382683  0.074603 0.899782 1 65 1.000000
0  -3.368656 -47.516930 -3.268674  -0.923880 -0.000000 -0.382683  0.074585 0.899774 1 65 1.000000
lowpoly_plastic
0  -3.582163 -24.496643 -3.180236  -0.382679 0.000000 -0.923881  0.074722 0.899757 1 65 1.000000
0  -3.368656 -47.516930 -3.268674  -0.382679 0.000000 -0.923881  0.074585 0.899774 1 65 1.000000
0  -3.582160 -47.516930 -3.180239  -0.382679 0.000000 -0.923881  0.074578 0.899757 1 65 1.000000
lowpoly_plastic
0  -3.859851 -45.354713 -2.334692  -0.775327 -0.000003 0.631560  0.010794 0.751639 1 65 1.000000
0  -3.964950 -45.156784 -2.463718  -0.775327 -0.000003 0.631560  0.010658 0.751633 1 65 1.000000
0  -3.964950 -45.354713 -2.463718  -0.775327 -0.000003 0.631560  0.010658 0.751429 1 65 1.000000
lowpoly_plastic
0  -3.304515 -46.216282 -2.334692  0.000000 0.000000 1.000000  0.010786 0.751567 1 65 1.000000
0  -3.859851 -46.018364 -2.334692  0.000000 0.000000 1.000000  0.010788 0.751639 1 65 1.000000
0  -3.859851 -46.216282 -2.334692  0.000000 0.000000 1.000000  0.010786 0.751639 1 65 1.000000
lowpoly_plastic
0  -3.859851 -44.711285 -2.334692  -0.775321 0.000000 0.631568  0.010730 0.751423 1 65 1.000000
0  -3.964950 -44.923927 -2.463718  -0.775321 0.000000 0.631568  0.010658 0.751429 1 65 1.000000
0  -3.859851 -44.923927 -2.334692  -0.775321 0.000000 0.631568  0.010692 0.751436 1 65 1.000000
lowpoly_plastic
0  -3.964950 -45.785496 -2.463718  0.000000 0.000000 1.000000  0.033964 0.837761 1 65 1.000000
0  -3.199416 -46.018364 -2.463718  0.000000 0.000000 1.000000  0.034036 0.837700 1 65 1.000000
0  -3.199416 -45.785496 -2.463718  0.000000 0.000000 1.000000  0.033964 0.837700 1 65 1.000000
lowpoly_plastic
0  -3.304515 -45.785496 -2.334692  0.000000 0.000000 1.000000  0.010790 0.751567 1 65 1.000000
0  -3.859851 -45.587570 -2.334692  0.000000 0.000000 1.000000  0.010792 0.751639 1 65 1.000000
0  -3.859851 -45.785496 -2.334692  0.000000 0.000000 1.000000  0.010790 0.751639 1 65 1.000000
lowpoly_plastic
0  -3.304515 -46.216282 -2.334692  0.775337 0.000000 0.631548  0.010786 0.751567 1 65 1.000000
0  -3.199416 -46.018364 -2.463718  0.775337 0.000000 0.631548  0.010658 0.751573 1 65 1.000000
0  -3.304515 -46.018364 -2.334692  0.775337 0.000000 0.631548  0.010788 0.751567 1 65 1.000000
lowpoly_plastic
0  -3.304515 -46.633667 -2.334693  0.000001 0.000000 1.000000  0.010736 0.751567 1 65 1.000000
0  -3.859851 -46.435738 -2.334692  0.000001 0.000000 1.000000  0.010738 0.751639 1 65 1.000000
0  -3.859851 -46.633667 -2.334692  0.000001 0.000000 1.000000  0.010736 0.751639 1 65 1.000000
lowpoly_plastic
0  -3.304515 -44.923927 -2.334692  0.000001 0.000000 1.000000  0.010798 0.751567 1 65 1.000000
0  -3.859851 -44.711285 -2.334692  0.000001 0.000000 1.000000  0.010803 0.751639 1 65 1.000000
0  -3.859851 -44.923927 -2.334692  0.000001 0.000000 1.000000  0.010798 0.751639 1 65 1.000000
lowpoly_plastic
0  -3.199416 -45.354713 -2.463718  0.000000 -1.000000 0.000048  0.034036 0.837616 1 65 1.000000
0  -3.859851 -45.354713 -2.334692  0.000000 -1.000000 0.000048  0.034069 0.837564 1 65 1.000000
0  -3.964950 -45.354713 -2.463718  0.000000 -1.000000 0.000048  0.034036 0.837556 1 65 1.000000
lowpoly_plastic
0  -3.199416 -46.633667 -2.463718  0.000000 -1.000000 0.000000  0.034036 0.837616 1 65 1.000000
0  -3.859851 -46.633667 -2.334692  0.000000 -1.000000 0.000000  0.034069 0.837564 1 65 1.000000
0  -3.964950 -46.633667 -2.463718  0.000000 -1.000000 0.000000  0.034036 0.837556 1 65 1.000000
lowpoly_plastic
0  -3.859851 -45.785496 -2.334692  -0.775335 0.000000 0.631550  0.010790 0.751639 1 65 1.000000
0  -3.964950 -45.587570 -2.463718  -0.775335 0.000000 0.631550  0.010658 0.751633 1 65 1.000000
0  -3.964950 -45.785496 -2.463718  -0.775335 0.000000 0.631550  0.010658 0.751429 1 65 1.000000
lowpoly_plastic
0  -3.199416 -45.785496 -2.463718  0.000000 -1.000000 0.000010  0.034036 0.837616 1 65 1.000000
0  -3.859851 -45.785496 -2.334692  0.000000 -1.000000 0.000010  0.034069 0.837564 1 65 1.000000
0  -3.964950 -45.785496 -2.463718  0.000000 -1.000000 0.000010  0.034036 0.837556 1 65 1.000000
lowpoly_plastic
0  -3.964950 -46.633667 -2.463718  0.000001 0.000000 1.000000  0.033964 0.837761 1 65 1.000000
0  -3.199416 -46.866524 -2.463718  0.000001 0.000000 1.000000  0.034036 0.837700 1 65 1.000000
0  -3.199416 -46.633667 -2.463718  0.000001 0.000000 1.000000  0.033964 0.837700 1 65 1.000000
lowpoly_plastic
0  -3.964950 -46.018364 -2.463718  0.000000 1.000000 0.000000  0.034036 0.837761 1 65 1.000000
0  -3.304515 -46.018364 -2.334692  0.000000 1.000000 0.000000  0.034069 0.837708 1 65 1.000000
0  -3.199416 -46.018364 -2.463718  0.000000 1.000000 0.000000  0.034036 0.837700 1 65 1.000000
lowpoly_plastic
0  -3.199416 -46.216282 -2.463718  0.000000 -1.000000 0.000000  0.034036 0.837616 1 65 1.000000
0  -3.859851 -46.216282 -2.334692  0.000000 -1.000000 0.000000  0.034069 0.837564 1 65 1.000000
0  -3.964950 -46.216282 -2.463718  0.000000 -1.000000 0.000000  0.034036 0.837556 1 65 1.000000
lowpoly_plastic
0  -3.964950 -45.156784 -2.463718  0.000000 1.000000 0.000000  0.034036 0.837761 1 65 1.000000
0  -3.304515 -45.156784 -2.334692  0.000000 1.000000 0.000000  0.034069 0.837708 1 65 1.000000
0  -3.199416 -45.156784 -2.463718  0.000000 1.000000 0.000000  0.034036 0.837700 1 65 1.000000
lowpoly_plastic
0  -3.964950 -46.435738 -2.463718  0.000000 1.000000 -0.000048  0.034036 0.837761 1 65 1.000000
0  -3.304515 -46.435738 -2.334692  0.000000 1.000000 -0.000048  0.034069 0.837708 1 65 1.000000
0  -3.199416 -46.435738 -2.463718  0.000000 1.000000 -0.000048  0.034036 0.837700 1 65 1.000000
lowpoly_plastic
0  -3.964950 -45.587570 -2.463718  0.000000 1.000000 0.000010  0.034036 0.837761 1 65 1.000000
0  -3.304515 -45.587570 -2.334692  0.000000 1.000000 0.000010  0.034069 0.837708 1 65 1.000000
0  -3.199416 -45.587570 -2.463718  0.000000 1.000000 0.000010  0.034036 0.837700 1 65 1.000000
lowpoly_plastic
0  -3.964950 -46.866524 -2.463718  0.000000 1.000000 -0.000039  0.034036 0.837761 1 65 1.000000
0  -3.304515 -46.866524 -2.334693  0.000000 1.000000 -0.000039  0.034069 0.837708 1 65 1.000000
0  -3.199416 -46.866524 -2.463718  0.000000 1.000000 -0.000039  0.034036 0.837700 1 65 1.000000
lowpoly_plastic
0  -3.304515 -45.354713 -2.334692  0.000000 0.000000 1.000000  0.010794 0.751567 1 65 1.000000
0  -3.859851 -45.156784 -2.334692  0.000000 0.000000 1.000000  0.010796 0.751639 1 65 1.000000
0  -3.859851 -45.354713 -2.334692  0.000000 0.000000 1.000000  0.010794 0.751639 1 65 1.000000
lowpoly_plastic
0  -3.199416 -44.923927 -2.463718  0.775320 0.000000 0.631569  0.010730 0.751500 1 65 1.000000
0  -3.304515 -44.711285 -2.334692  0.775320 0.000000 0.631569  0.010730 0.751495 1 65 1.000000
0  -3.304515 -44.923927 -2.334692  0.775320 0.000000 0.631569  0.010730 0.751500 1 65 1.000000
lowpoly_plastic
0  -3.199416 -45.785496 -2.463718  0.775322 0.000000 0.631567  0.010658 0.751489 1 65 1.000000
0  -3.304515 -45.587570 -2.334692  0.775322 0.000000 0.631567  0.010792 0.751567 1 65 1.000000
0  -3.304515 -45.785496 -2.334692  0.775322 0.000000 0.631567  0.010790 0.751567 1 65 1.000000
lowpoly_plastic
0  -3.299905 -44.711285 -2.559590  0.690278 0.000000 -0.723544  0.010730 0.751495 1 65 1.000000
0  -3.199416 -44.923927 -2.463718  0.690278 0.000000 -0.723544  0.010586 0.751573 1 65 1.000000
0  -3.199416 -45.156784 -2.463718  0.690278 0.000000 -0.723544  0.010658 0.751573 1 65 1.000000
lowpoly_plastic
0  -3.964950 -45.354713 -2.463718  0.000000 0.000000 1.000000  0.033964 0.837761 1 65 1.000000
0  -3.199416 -45.587570 -2.463718  0.000000 0.000000 1.000000  0.034036 0.837700 1 65 1.000000
0  -3.199416 -45.354713 -2.463718  0.000000 0.000000 1.000000  0.033964 0.837700 1 65 1.000000
lowpoly_plastic
0  -3.964950 -44.923927 -2.463718  0.000000 0.000000 1.000000  0.033964 0.837761 1 65 1.000000
0  -3.199416 -45.156784 -2.463718  0.000000 0.000000 1.000000  0.034036 0.837700 1 65 1.000000
0  -3.199416 -44.923927 -2.463718  0.000000 0.000000 1.000000  0.033964 0.837700 1 65 1.000000
lowpoly_plastic
0  -3.964950 -46.018364 -2.463718  -0.775337 0.000000 0.631548  0.010658 0.751633 1 65 1.000000
0  -3.859851 -46.216282 -2.334692  -0.775337 0.000000 0.631548  0.010786 0.751639 1 65 1.000000
0  -3.859851 -46.018364 -2.334692  -0.775337 0.000000 0.631548  0.010788 0.751639 1 65 1.000000
lowpoly_plastic
0  -3.964950 -46.435738 -2.463718  -0.775327 0.000000 0.631560  0.010658 0.751633 1 65 1.000000
0  -3.859851 -46.633667 -2.334692  -0.775327 0.000000 0.631560  0.010736 0.751639 1 65 1.000000
0  -3.859851 -46.435738 -2.334692  -0.775327 0.000000 0.631560  0.010738 0.751639 1 65 1.000000
lowpoly_plastic
0  -3.304515 -45.354713 -2.334692  0.775327 0.000000 0.631560  0.010794 0.751567 1 65 1.000000
0  -3.199416 -45.156784 -2.463718  0.775327 0.000000 0.631560  0.010658 0.751573 1 65 1.000000
0  -3.304515 -45.156784 -2.334692  0.775327 0.000000 0.631560  0.010796 0.751567 1 65 1.000000
lowpoly_plastic
0  -3.864461 -44.711285 -2.559590  0.000000 1.000000 0.000000  0.010730 0.751423 1 65 1.000000
0  -3.859851 -44.711285 -2.334692  0.000000 1.000000 0.000000  0.010730 0.751423 1 65 1.000000
0  -3.299905 -44.711285 -2.559590  0.000000 1.000000 0.000000  0.010730 0.751495 1 65 1.000000
lowpoly_plastic
0  -3.199416 -44.923927 -2.463718  0.000000 -1.000000 -0.000019  0.034036 0.837616 1 65 1.000000
0  -3.859851 -44.923927 -2.334692  0.000000 -1.000000 -0.000019  0.034069 0.837564 1 65 1.000000
0  -3.964950 -44.923927 -2.463718  0.000000 -1.000000 -0.000019  0.034036 0.837556 1 65 1.000000
lowpoly_plastic
0  -3.304515 -46.435738 -2.334692  0.775328 0.000000 0.631559  0.010738 0.751567 1 65 1.000000
0  -3.199416 -46.633667 -2.463718  0.775328 0.000000 0.631559  0.010658 0.751489 1 65 1.000000
0  -3.199416 -46.435738 -2.463718  0.775328 0.000000 0.631559  0.010658 0.751573 1 65 1.000000
lowpoly_plastic
0  -3.864461 -46.866524 -3.099111  0.000000 -1.000000 0.000000  0.010550 0.751423 1 65 1.000000
0  -3.299905 -46.866524 -2.559590  0.000000 -1.000000 0.000000  0.010550 0.751423 1 65 1.000000
0  -3.864461 -46.866524 -2.559590  0.000000 -1.000000 0.000000  0.010550 0.751423 1 65 1.000000
lowpoly_plastic
0  -3.964950 -46.866524 -2.463718  0.000000 1.000000 0.000000  0.010658 0.751633 1 65 1.000000
0  -3.299905 -46.866524 -2.559590  0.000000 1.000000 0.000000  0.010550 0.751423 1 65 1.000000
0  -3.864461 -46.866524 -2.559590  0.000000 1.000000 0.000000  0.010550 0.751423 1 65 1.000000
lowpoly_plastic
0  -3.299905 -44.711285 -2.559590  1.000000 0.000000 0.000000  0.010730 0.751495 1 65 1.000000
0  -3.299905 -46.866524 -3.099111  1.000000 0.000000 0.000000  0.010550 0.751423 1 65 1.000000
0  -3.299905 -44.711285 -2.954873  1.000000 0.000000 0.000000  0.010658 0.751495 1 65 1.000000
lowpoly_plastic
0  -3.864461 -44.711285 -2.954873  -1.000000 -0.000000 0.000000  0.010658 0.751423 1 65 1.000000
0  -3.864461 -46.866524 -2.559590  -1.000000 -0.000000 0.000000  0.010550 0.751423 1 65 1.000000
0  -3.864461 -44.711285 -2.559590  -1.000000 -0.000000 0.000000  0.010730 0.751423 1 65 1.000000
lowpoly_plastic
0  -3.299905 -44.711285 -2.954873  0.000000 0.066775 -0.997768  0.010658 0.751495 1 65 1.000000
0  -3.864461 -46.866524 -3.099111  0.000000 0.066775 -0.997768  0.010550 0.751423 1 65 1.000000
0  -3.864461 -44.711285 -2.954873  0.000000 0.066775 -0.997768  0.010658 0.751423 1 65 1.000000
lowpoly_plastic
0  -3.964950 -47.080841 -2.463718  0.000000 -1.000000 0.000053  0.010658 0.751633 1 65 1.000000
0  -3.304515 -47.080841 -2.334693  0.000000 -1.000000 0.000053  0.010692 0.751581 1 65 1.000000
0  -3.859851 -47.080841 -2.334692  0.000000 -1.000000 0.000053  0.010692 0.751626 1 65 1.000000
lowpoly_plastic
0  -3.864461 -47.080841 -3.099111  0.000000 -1.000000 0.000000  0.010550 0.751423 1 65 1.000000
0  -3.299905 -47.080841 -2.559590  0.000000 -1.000000 0.000000  0.010550 0.751423 1 65 1.000000
0  -3.864461 -47.080841 -2.559590  0.000000 -1.000000 0.000000  0.010550 0.751423 1 65 1.000000
lowpoly_plastic
0  -3.964950 -47.080841 -2.463718  0.000000 -1.000000 0.000000  0.010658 0.751633 1 65 1.000000
0  -3.299905 -47.080841 -2.559590  0.000000 -1.000000 0.000000  0.010550 0.751423 1 65 1.000000
0  -3.199416 -47.080841 -2.463718  0.000000 -1.000000 0.000000  0.010658 0.751573 1 65 1.000000
lowpoly_plastic
0  -3.304515 -46.866524 -2.334693  0.775326 0.000000 0.631561  0.010692 0.751581 1 65 1.000000
0  -3.199416 -47.080841 -2.463718  0.775326 0.000000 0.631561  0.010658 0.751573 1 65 1.000000
0  -3.199416 -46.866524 -2.463718  0.775326 0.000000 0.631561  0.010658 0.751573 1 65 1.000000
lowpoly_plastic
0  -3.859851 -46.866524 -2.334692  0.000001 0.000000 1.000000  0.010692 0.751626 1 65 1.000000
0  -3.304515 -47.080841 -2.334693  0.000001 0.000000 1.000000  0.010692 0.751581 1 65 1.000000
0  -3.304515 -46.866524 -2.334693  0.000001 0.000000 1.000000  0.010692 0.751581 1 65 1.000000
lowpoly_plastic
0  -3.964950 -46.866524 -2.463718  -0.775341 0.000000 0.631543  0.010658 0.751633 1 65 1.000000
0  -3.859851 -47.080841 -2.334692  -0.775341 0.000000 0.631543  0.010692 0.751626 1 65 1.000000
0  -3.859851 -46.866524 -2.334692  -0.775341 0.000000 0.631543  0.010692 0.751626 1 65 1.000000
lowpoly_plastic
0  -3.864461 -46.866524 -2.559590  -0.690301 0.000000 -0.723522  0.010550 0.751423 1 65 1.000000
0  -3.964950 -47.080841 -2.463718  -0.690301 0.000000 -0.723522  0.010658 0.751633 1 65 1.000000
0  -3.964950 -46.866524 -2.463718  -0.690301 0.000000 -0.723522  0.010658 0.751633 1 65 1.000000
lowpoly_plastic
0  -3.864461 -47.080841 -2.559590  -1.000000 0.000000 0.000000  0.010550 0.751423 1 65 1.000000
0  -3.864461 -46.866524 -3.099111  -1.000000 0.000000 0.000000  0.010550 0.751423 1 65 1.000000
0  -3.864461 -47.080841 -3.099111  -1.000000 0.000000 0.000000  0.010550 0.751423 1 65 1.000000
lowpoly_plastic
0  -3.864461 -47.080841 -3.099111  -0.000001 0.000001 -1.000000  0.010550 0.751423 1 65 1.000000
0  -3.299905 -46.866524 -3.099111  -0.000001 0.000001 -1.000000  0.010550 0.751423 1 65 1.000000
0  -3.299905 -47.080841 -3.099111  -0.000001 0.000001 -1.000000  0.010550 0.751423 1 65 1.000000
lowpoly_plastic
0  -3.299905 -47.080841 -3.099111  1.000000 0.000000 0.000000  0.010550 0.751423 1 65 1.000000
0  -3.299905 -46.866524 -2.559590  1.000000 0.000000 0.000000  0.010550 0.751423 1 65 1.000000
0  -3.299905 -47.080841 -2.559590  1.000000 0.000000 0.000000  0.010550 0.751423 1 65 1.000000
lowpoly_plastic
0  -3.199416 -46.866524 -2.463718  0.690285 0.000000 -0.723538  0.010658 0.751573 1 65 1.000000
0  -3.299905 -47.080841 -2.559590  0.690285 0.000000 -0.723538  0.010550 0.751423 1 65 1.000000
0  -3.299905 -46.866524 -2.559590  0.690285 0.000000 -0.723538  0.010550 0.751423 1 65 1.000000
lowpoly_plastic
0  -3.199416 -45.785496 -2.463718  0.690295 0.000000 -0.723528  0.010550 0.751423 1 65 1.000000
0  -3.199416 -46.018364 -2.463718  0.690295 0.000000 -0.723528  0.010550 0.751423 1 65 1.000000
0  -3.299905 -46.866524 -2.559590  0.690295 0.000000 -0.723528  0.010550 0.751423 1 65 1.000000
lowpoly_plastic
0  -3.964950 -45.587570 -2.463718  -0.690280 0.000000 -0.723542  0.010550 0.751423 1 65 1.000000
0  -3.964950 -45.354713 -2.463718  -0.690280 0.000000 -0.723542  0.010550 0.751423 1 65 1.000000
0  -3.864461 -44.711285 -2.559590  -0.690280 0.000000 -0.723542  0.010550 0.751423 1 65 1.000000
lowpoly_plastic
0  -3.964950 -46.435738 -2.463718  0.000000 0.000000 1.000000  0.033928 0.837550 1 65 1.000000
0  -3.199416 -46.216282 -2.463718  0.000000 0.000000 1.000000  0.034036 0.837616 1 65 1.000000
0  -3.964950 -46.216282 -2.463718  0.000000 0.000000 1.000000  0.033928 0.837550 1 65 1.000000
lowpoly_plastic
0  -3.194820 -26.259380 -3.705804  0.498850 -0.067765 -0.864035  0.037052 0.751096 1 65 1.000000
0  -3.582160 -23.795725 -4.122655  0.498850 -0.067765 -0.864035  0.037100 0.751096 1 65 1.000000
0  -3.027483 -23.795725 -3.802412  0.498850 -0.067765 -0.864035  0.037052 0.751096 1 65 1.000000
lowpoly_plastic
0  -3.027483 -23.795725 -3.802412  1.000000 -0.000000 0.000000  0.037052 0.751096 1 65 1.000000
0  -3.027483 -20.625225 -3.161925  1.000000 -0.000000 0.000000  0.037004 0.751096 1 65 1.000000
0  -3.027483 -23.795725 -3.161926  1.000000 -0.000000 0.000000  0.037004 0.751096 1 65 1.000000
lowpoly_plastic
0  -3.194820 -26.259380 -3.258547  0.498852 -0.067769 0.864034  0.037292 0.751096 1 65 1.000000
0  -3.582160 -23.795725 -2.841682  0.498852 -0.067769 0.864034  0.037244 0.751096 1 65 1.000000
0  -3.582156 -26.259380 -3.034918  0.498852 -0.067769 0.864034  0.037244 0.751096 1 65 1.000000
lowpoly_plastic
0  -3.969492 -26.259380 -3.258546  -0.997701 -0.067770 0.000000  0.037196 0.751096 1 65 1.000000
0  -4.136838 -23.795725 -3.802411  -0.997701 -0.067770 0.000000  0.037148 0.751096 1 65 1.000000
0  -3.969492 -26.259380 -3.705804  -0.997701 -0.067770 0.000000  0.037148 0.751096 1 65 1.000000
lowpoly_plastic
0  -3.194820 -26.259380 -3.258547  0.997701 -0.067766 0.000000  0.037004 0.751096 1 65 1.000000
0  -3.027483 -23.795725 -3.802412  0.997701 -0.067766 0.000000  0.037052 0.751096 1 65 1.000000
0  -3.027483 -23.795725 -3.161926  0.997701 -0.067766 0.000000  0.037004 0.751096 1 65 1.000000
lowpoly_plastic
0  -3.969492 -26.259380 -3.705804  -0.498852 -0.067766 -0.864034  0.037148 0.751096 1 65 1.000000
0  -3.582160 -23.795725 -4.122655  -0.498852 -0.067766 -0.864034  0.037100 0.751096 1 65 1.000000
0  -3.582156 -26.259380 -3.929433  -0.498852 -0.067766 -0.864034  0.037100 0.751096 1 65 1.000000
lowpoly_plastic
0  -3.969492 -26.259380 -3.258546  -0.498850 -0.067771 0.864035  0.037196 0.751096 1 65 1.000000
0  -3.582160 -23.795725 -2.841682  -0.498850 -0.067771 0.864035  0.037244 0.751096 1 65 1.000000
0  -4.136838 -23.795725 -3.161925  -0.498850 -0.067771 0.864035  0.037196 0.751096 1 65 1.000000
lowpoly_plastic
0  -3.582160 -20.625225 -2.841681  0.005263 0.999945 0.009122  0.037244 0.751096 1 65 1.000000
0  -3.255780 -20.622822 -3.293731  0.001002 0.999929 0.011891  0.037292 0.750952 1 65 1.000000
0  -3.582161 -20.622822 -3.105295  0.005263 0.999945 0.009122  0.037244 0.750952 1 65 1.000000
lowpoly_plastic
0  -4.136838 -23.795725 -3.802411  -0.500001 0.000000 -0.866025  0.037148 0.751096 1 65 1.000000
0  -3.582160 -20.625225 -4.122654  -0.500001 0.000000 -0.866025  0.037100 0.751096 1 65 1.000000
0  -3.582160 -23.795725 -4.122655  -0.500001 0.000000 -0.866025  0.037100 0.751096 1 65 1.000000
lowpoly_plastic
0  -3.582160 -23.795725 -2.841682  -0.500001 0.000000 0.866025  0.037244 0.751096 1 65 1.000000
0  -4.136838 -20.625225 -3.161925  -0.500001 0.000000 0.866025  0.037196 0.751096 1 65 1.000000
0  -4.136838 -23.795725 -3.161925  -0.500001 0.000000 0.866025  0.037196 0.751096 1 65 1.000000
lowpoly_plastic
0  -3.582160 -23.795725 -4.122655  0.500001 0.000000 -0.866025  0.037100 0.751096 1 65 1.000000
0  -3.027483 -20.625225 -3.802411  0.500001 0.000000 -0.866025  0.037052 0.751096 1 65 1.000000
0  -3.027483 -23.795725 -3.802412  0.500001 0.000000 -0.866025  0.037052 0.751096 1 65 1.000000
lowpoly_plastic
0  -4.136838 -23.795725 -3.161925  -1.000000 0.000000 0.000000  0.037196 0.751096 1 65 1.000000
0  -4.136838 -20.625225 -3.802411  -1.000000 0.000000 0.000000  0.037148 0.751096 1 65 1.000000
0  -4.136838 -23.795725 -3.802411  -1.000000 0.000000 0.000000  0.037148 0.751096 1 65 1.000000
lowpoly_plastic
0  -3.027483 -23.795725 -3.161926  0.500001 -0.000000 0.866025  0.037292 0.751096 1 65 1.000000
0  -3.582160 -20.625225 -2.841681  0.500001 -0.000000 0.866025  0.037244 0.751096 1 65 1.000000
0  -3.582160 -23.795725 -2.841682  0.500001 -0.000000 0.866025  0.037244 0.751096 1 65 1.000000
lowpoly_plastic
0  -3.429072 -22.668459 -3.570556  -0.474186 0.317140 0.821322  0.037052 0.750952 1 65 1.000000
0  -3.582158 -22.150232 -3.859045  -0.474186 0.317140 0.821322  0.037100 0.750952 1 65 1.000000
0  -3.582158 -22.668459 -3.658940  -0.474186 0.317140 0.821322  0.037100 0.750952 1 65 1.000000
lowpoly_plastic
0  -3.255776 -22.150232 -3.293736  -1.000000 -0.000002 0.000000  0.037004 0.750952 1 65 1.000000
0  -3.255780 -20.622822 -3.670604  -1.000000 -0.000002 0.000000  0.037052 0.750952 1 65 1.000000
0  -3.255776 -22.150232 -3.670609  -1.000000 -0.000002 0.000000  0.037052 0.750952 1 65 1.000000
lowpoly_plastic
0  -3.735245 -22.668459 -3.570556  0.948379 0.317139 0.000000  0.037148 0.750952 1 65 1.000000
0  -3.908539 -22.150232 -3.293736  0.948379 0.317139 0.000000  0.037196 0.750952 1 65 1.000000
0  -3.735245 -22.668459 -3.393787  0.948379 0.317139 0.000000  0.037196 0.750952 1 65 1.000000
lowpoly_plastic
0  -3.429072 -22.668459 -3.393787  -0.474192 0.317138 -0.821320  0.037292 0.750952 1 65 1.000000
0  -3.582157 -22.150232 -3.105300  -0.474192 0.317138 -0.821320  0.037244 0.750952 1 65 1.000000
0  -3.255776 -22.150232 -3.293736  -0.474192 0.317138 -0.821320  0.037292 0.750952 1 65 1.000000
lowpoly_plastic
0  -3.429072 -22.668459 -3.570556  -0.948380 0.317137 0.000000  0.037052 0.750952 1 65 1.000000
0  -3.255776 -22.150232 -3.293736  -0.948380 0.317137 0.000000  0.037004 0.750952 1 65 1.000000
0  -3.255776 -22.150232 -3.670609  -0.948380 0.317137 0.000000  0.037052 0.750952 1 65 1.000000
lowpoly_plastic
0  -3.735245 -22.668459 -3.570556  0.474191 0.317139 0.821320  0.037148 0.750952 1 65 1.000000
0  -3.582158 -22.150232 -3.859045  0.474191 0.317139 0.821320  0.037100 0.750952 1 65 1.000000
0  -3.908539 -22.150232 -3.670609  0.474191 0.317139 0.821320  0.037148 0.750952 1 65 1.000000
lowpoly_plastic
0  -3.735245 -22.668459 -3.393787  0.474192 0.317134 -0.821321  0.037196 0.750952 1 65 1.000000
0  -3.582157 -22.150232 -3.105300  0.474192 0.317134 -0.821321  0.037244 0.750952 1 65 1.000000
0  -3.582158 -22.668459 -3.305402  0.474192 0.317134 -0.821321  0.037244 0.750952 1 65 1.000000
lowpoly_plastic
0  -3.582160 -20.625225 -2.841681  -0.005263 0.999945 0.009111  0.037244 0.751096 1 65 1.000000
0  -3.908542 -20.622822 -3.293731  -0.003189 0.999900 0.013802  0.037196 0.750952 1 65 1.000000
0  -4.136838 -20.625225 -3.161925  -0.003300 0.999985 0.004372  0.037196 0.751096 1 65 1.000000
lowpoly_plastic
0  -3.908539 -22.150232 -3.670609  0.500000 -0.000002 0.866026  0.037148 0.750952 1 65 1.000000
0  -3.582161 -20.622822 -3.859040  0.500000 -0.000002 0.866026  0.037100 0.750952 1 65 1.000000
0  -3.908542 -20.622822 -3.670604  0.500000 -0.000002 0.866026  0.037148 0.750952 1 65 1.000000
lowpoly_plastic
0  -3.908539 -22.150232 -3.293736  0.499999 0.000004 -0.866026  0.037196 0.750952 1 65 1.000000
0  -3.582161 -20.622822 -3.105295  0.499999 0.000004 -0.866026  0.037244 0.750952 1 65 1.000000
0  -3.582157 -22.150232 -3.105300  0.499999 0.000004 -0.866026  0.037244 0.750952 1 65 1.000000
lowpoly_plastic
0  -3.582158 -22.150232 -3.859045  -0.500000 -0.000004 0.866026  0.037100 0.750952 1 65 1.000000
0  -3.255780 -20.622822 -3.670604  -0.500000 -0.000004 0.866026  0.037052 0.750952 1 65 1.000000
0  -3.582161 -20.622822 -3.859040  -0.500000 -0.000004 0.866026  0.037100 0.750952 1 65 1.000000
lowpoly_plastic
0  -3.908539 -22.150232 -3.293736  1.000000 0.000002 0.000000  0.037196 0.750952 1 65 1.000000
0  -3.908542 -20.622822 -3.670604  1.000000 0.000002 0.000000  0.037148 0.750952 1 65 1.000000
0  -3.908542 -20.622822 -3.293731  1.000000 0.000002 0.000000  0.037196 0.750952 1 65 1.000000
lowpoly_plastic
0  -3.582157 -22.150232 -3.105300  -0.500001 0.000002 -0.866025  0.037244 0.750952 1 65 1.000000
0  -3.255780 -20.622822 -3.293731  -0.500001 0.000002 -0.866025  0.037292 0.750952 1 65 1.000000
0  -3.255776 -22.150232 -3.293736  -0.500001 0.000002 -0.866025  0.037292 0.750952 1 65 1.000000
lowpoly_plastic
0  -3.027483 -20.625225 -3.161925  0.011970 0.999916 -0.004922  0.037292 0.751096 1 65 1.000000
0  -3.255780 -20.622822 -3.670604  0.010526 0.999945 0.000000  0.037052 0.750952 1 65 1.000000
0  -3.255780 -20.622822 -3.293731  0.015480 0.999879 0.001328  0.037292 0.750952 1 65 1.000000
lowpoly_plastic
0  -3.582160 -20.625225 -4.122654  0.005263 0.999945 -0.009111  0.037100 0.751096 1 65 1.000000
0  -3.255780 -20.622822 -3.670604  0.005263 0.999945 -0.009111  0.037052 0.750952 1 65 1.000000
0  -3.027483 -20.625225 -3.802411  0.005263 0.999945 -0.009111  0.037052 0.751096 1 65 1.000000
lowpoly_plastic
0  -3.582160 -20.625225 -4.122654  -0.005263 0.999945 -0.009111  0.037100 0.751096 1 65 1.000000
0  -3.908542 -20.622822 -3.670604  -0.005263 0.999945 -0.009111  0.037148 0.750952 1 65 1.000000
0  -3.582161 -20.622822 -3.859040  -0.005263 0.999945 -0.009111  0.037100 0.750952 1 65 1.000000
lowpoly_plastic
0  -4.136838 -20.625225 -3.161925  -0.013957 0.999895 -0.003813  0.037196 0.751096 1 65 1.000000
0  -3.908542 -20.622822 -3.670604  -0.010526 0.999945 0.000000  0.037148 0.750952 1 65 1.000000
0  -4.136838 -20.625225 -3.802411  -0.010526 0.999945 0.000000  0.037148 0.751096 1 65 1.000000
lowpoly_plastic
0  -3.194820 -26.259380 -3.705804  0.498852 -0.067764 -0.864034  0.037052 0.751096 1 65 1.000000
0  -3.582156 -26.259380 -3.929433  0.498852 -0.067764 -0.864034  0.037100 0.751096 1 65 1.000000
0  -3.582160 -23.795725 -4.122655  0.498852 -0.067764 -0.864034  0.037100 0.751096 1 65 1.000000
lowpoly_plastic
0  -3.027483 -23.795725 -3.802412  1.000000 0.000000 0.000000  0.037052 0.751096 1 65 1.000000
0  -3.027483 -20.625225 -3.802411  1.000000 0.000000 0.000000  0.037052 0.751096 1 65 1.000000
0  -3.027483 -20.625225 -3.161925  1.000000 0.000000 0.000000  0.037004 0.751096 1 65 1.000000
lowpoly_plastic
0  -3.194820 -26.259380 -3.258547  0.498850 -0.067769 0.864035  0.037292 0.751096 1 65 1.000000
0  -3.027483 -23.795725 -3.161926  0.498850 -0.067769 0.864035  0.037292 0.751096 1 65 1.000000
0  -3.582160 -23.795725 -2.841682  0.498850 -0.067769 0.864035  0.037244 0.751096 1 65 1.000000
lowpoly_plastic
0  -3.969492 -26.259380 -3.258546  -0.997701 -0.067769 0.000000  0.037196 0.751096 1 65 1.000000
0  -4.136838 -23.795725 -3.161925  -0.997701 -0.067769 0.000000  0.037196 0.751096 1 65 1.000000
0  -4.136838 -23.795725 -3.802411  -0.997701 -0.067769 0.000000  0.037148 0.751096 1 65 1.000000
lowpoly_plastic
0  -3.194820 -26.259380 -3.258547  0.997701 -0.067766 0.000000  0.037004 0.751096 1 65 1.000000
0  -3.194820 -26.259380 -3.705804  0.997701 -0.067766 0.000000  0.037052 0.751096 1 65 1.000000
0  -3.027483 -23.795725 -3.802412  0.997701 -0.067766 0.000000  0.037052 0.751096 1 65 1.000000
lowpoly_plastic
0  -3.969492 -26.259380 -3.705804  -0.498851 -0.067766 -0.864035  0.037148 0.751096 1 65 1.000000
0  -4.136838 -23.795725 -3.802411  -0.498851 -0.067766 -0.864035  0.037148 0.751096 1 65 1.000000
0  -3.582160 -23.795725 -4.122655  -0.498851 -0.067766 -0.864035  0.037100 0.751096 1 65 1.000000
lowpoly_plastic
0  -3.969492 -26.259380 -3.258546  -0.498851 -0.067771 0.864034  0.037196 0.751096 1 65 1.000000
0  -3.582156 -26.259380 -3.034918  -0.498851 -0.067771 0.864034  0.037244 0.751096 1 65 1.000000
0  -3.582160 -23.795725 -2.841682  -0.498851 -0.067771 0.864034  0.037244 0.751096 1 65 1.000000
lowpoly_plastic
0  -3.582160 -20.625225 -2.841681  0.005263 0.999945 0.009111  0.037244 0.751096 1 65 1.000000
0  -3.027483 -20.625225 -3.161925  0.003301 0.999985 0.004372  0.037292 0.751096 1 65 1.000000
0  -3.255780 -20.622822 -3.293731  0.003189 0.999900 0.013802  0.037292 0.750952 1 65 1.000000
lowpoly_plastic
0  -4.136838 -23.795725 -3.802411  -0.499999 0.000000 -0.866026  0.037148 0.751096 1 65 1.000000
0  -4.136838 -20.625225 -3.802411  -0.499999 0.000000 -0.866026  0.037148 0.751096 1 65 1.000000
0  -3.582160 -20.625225 -4.122654  -0.499999 0.000000 -0.866026  0.037100 0.751096 1 65 1.000000
lowpoly_plastic
0  -3.582160 -23.795725 -2.841682  -0.500001 -0.000000 0.866025  0.037244 0.751096 1 65 1.000000
0  -3.582160 -20.625225 -2.841681  -0.500001 -0.000000 0.866025  0.037244 0.751096 1 65 1.000000
0  -4.136838 -20.625225 -3.161925  -0.500001 -0.000000 0.866025  0.037196 0.751096 1 65 1.000000
lowpoly_plastic
0  -3.582160 -23.795725 -4.122655  0.499999 0.000000 -0.866026  0.037100 0.751096 1 65 1.000000
0  -3.582160 -20.625225 -4.122654  0.499999 0.000000 -0.866026  0.037100 0.751096 1 65 1.000000
0  -3.027483 -20.625225 -3.802411  0.499999 0.000000 -0.866026  0.037052 0.751096 1 65 1.000000
lowpoly_plastic
0  -4.136838 -23.795725 -3.161925  -1.000000 0.000000 0.000000  0.037196 0.751096 1 65 1.000000
0  -4.136838 -20.625225 -3.161925  -1.000000 0.000000 0.000000  0.037196 0.751096 1 65 1.000000
0  -4.136838 -20.625225 -3.802411  -1.000000 0.000000 0.000000  0.037148 0.751096 1 65 1.000000
lowpoly_plastic
0  -3.027483 -23.795725 -3.161926  0.500001 -0.000000 0.866025  0.037292 0.751096 1 65 1.000000
0  -3.027483 -20.625225 -3.161925  0.500001 -0.000000 0.866025  0.037292 0.751096 1 65 1.000000
0  -3.582160 -20.625225 -2.841681  0.500001 -0.000000 0.866025  0.037244 0.751096 1 65 1.000000
lowpoly_plastic
0  -3.429072 -22.668459 -3.570556  -0.474188 0.317140 0.821321  0.037052 0.750952 1 65 1.000000
0  -3.255776 -22.150232 -3.670609  -0.474188 0.317140 0.821321  0.037052 0.750952 1 65 1.000000
0  -3.582158 -22.150232 -3.859045  -0.474188 0.317140 0.821321  0.037100 0.750952 1 65 1.000000
lowpoly_plastic
0  -3.255776 -22.150232 -3.293736  -1.000000 -0.000002 0.000000  0.037004 0.750952 1 65 1.000000
0  -3.255780 -20.622822 -3.293731  -1.000000 -0.000002 0.000000  0.037004 0.750952 1 65 1.000000
0  -3.255780 -20.622822 -3.670604  -1.000000 -0.000002 0.000000  0.037052 0.750952 1 65 1.000000
lowpoly_plastic
0  -3.735245 -22.668459 -3.570556  0.948380 0.317137 0.000000  0.037148 0.750952 1 65 1.000000
0  -3.908539 -22.150232 -3.670609  0.948380 0.317137 0.000000  0.037148 0.750952 1 65 1.000000
0  -3.908539 -22.150232 -3.293736  0.948380 0.317137 0.000000  0.037196 0.750952 1 65 1.000000
lowpoly_plastic
0  -3.429072 -22.668459 -3.393787  -0.474193 0.317137 -0.821319  0.037292 0.750952 1 65 1.000000
0  -3.582158 -22.668459 -3.305402  -0.474193 0.317137 -0.821319  0.037244 0.750952 1 65 1.000000
0  -3.582157 -22.150232 -3.105300  -0.474193 0.317137 -0.821319  0.037244 0.750952 1 65 1.000000
lowpoly_plastic
0  -3.429072 -22.668459 -3.570556  -0.948378 0.317141 0.000000  0.037052 0.750952 1 65 1.000000
0  -3.429072 -22.668459 -3.393787  -0.948378 0.317141 0.000000  0.037004 0.750952 1 65 1.000000
0  -3.255776 -22.150232 -3.293736  -0.948378 0.317141 0.000000  0.037004 0.750952 1 65 1.000000
lowpoly_plastic
0  -3.735245 -22.668459 -3.570556  0.474186 0.317141 0.821322  0.037148 0.750952 1 65 1.000000
0  -3.582158 -22.668459 -3.658940  0.474186 0.317141 0.821322  0.037100 0.750952 1 65 1.000000
0  -3.582158 -22.150232 -3.859045  0.474186 0.317141 0.821322  0.037100 0.750952 1 65 1.000000
lowpoly_plastic
0  -3.735245 -22.668459 -3.393787  0.474190 0.317136 -0.821321  0.037196 0.750952 1 65 1.000000
0  -3.908539 -22.150232 -3.293736  0.474190 0.317136 -0.821321  0.037196 0.750952 1 65 1.000000
0  -3.582157 -22.150232 -3.105300  0.474190 0.317136 -0.821321  0.037244 0.750952 1 65 1.000000
lowpoly_plastic
0  -3.582160 -20.625225 -2.841681  -0.005263 0.999945 0.009111  0.037244 0.751096 1 65 1.000000
0  -3.582161 -20.622822 -3.105295  -0.005263 0.999945 0.009111  0.037244 0.750952 1 65 1.000000
0  -3.908542 -20.622822 -3.293731  -0.000962 0.999929 0.011906  0.037196 0.750952 1 65 1.000000
lowpoly_plastic
0  -3.908539 -22.150232 -3.670609  0.499999 -0.000002 0.866026  0.037148 0.750952 1 65 1.000000
0  -3.582158 -22.150232 -3.859045  0.499999 -0.000002 0.866026  0.037100 0.750952 1 65 1.000000
0  -3.582161 -20.622822 -3.859040  0.499999 -0.000002 0.866026  0.037100 0.750952 1 65 1.000000
lowpoly_plastic
0  -3.908539 -22.150232 -3.293736  0.500000 0.000004 -0.866026  0.037196 0.750952 1 65 1.000000
0  -3.908542 -20.622822 -3.293731  0.500000 0.000004 -0.866026  0.037196 0.750952 1 65 1.000000
0  -3.582161 -20.622822 -3.105295  0.500000 0.000004 -0.866026  0.037244 0.750952 1 65 1.000000
lowpoly_plastic
0  -3.582158 -22.150232 -3.859045  -0.499999 -0.000004 0.866026  0.037100 0.750952 1 65 1.000000
0  -3.255776 -22.150232 -3.670609  -0.499999 -0.000004 0.866026  0.037052 0.750952 1 65 1.000000
0  -3.255780 -20.622822 -3.670604  -0.499999 -0.000004 0.866026  0.037052 0.750952 1 65 1.000000
lowpoly_plastic
0  -3.908539 -22.150232 -3.293736  1.000000 0.000002 0.000000  0.037196 0.750952 1 65 1.000000
0  -3.908539 -22.150232 -3.670609  1.000000 0.000002 0.000000  0.037148 0.750952 1 65 1.000000
0  -3.908542 -20.622822 -3.670604  1.000000 0.000002 0.000000  0.037148 0.750952 1 65 1.000000
lowpoly_plastic
0  -3.582157 -22.150232 -3.105300  -0.499999 0.000002 -0.866026  0.037244 0.750952 1 65 1.000000
0  -3.582161 -20.622822 -3.105295  -0.499999 0.000002 -0.866026  0.037244 0.750952 1 65 1.000000
0  -3.255780 -20.622822 -3.293731  -0.499999 0.000002 -0.866026  0.037292 0.750952 1 65 1.000000
lowpoly_plastic
0  -3.027483 -20.625225 -3.161925  0.013957 0.999895 -0.003813  0.037292 0.751096 1 65 1.000000
0  -3.027483 -20.625225 -3.802411  0.010526 0.999945 0.000000  0.037052 0.751096 1 65 1.000000
0  -3.255780 -20.622822 -3.670604  0.010526 0.999945 0.000000  0.037052 0.750952 1 65 1.000000
lowpoly_plastic
0  -3.582160 -20.625225 -4.122654  0.005263 0.999945 -0.009122  0.037100 0.751096 1 65 1.000000
0  -3.582161 -20.622822 -3.859040  0.005263 0.999945 -0.009122  0.037100 0.750952 1 65 1.000000
0  -3.255780 -20.622822 -3.670604  0.005263 0.999945 -0.009122  0.037052 0.750952 1 65 1.000000
lowpoly_plastic
0  -3.582160 -20.625225 -4.122654  -0.005263 0.999945 -0.009111  0.037100 0.751096 1 65 1.000000
0  -4.136838 -20.625225 -3.802411  -0.005263 0.999945 -0.009111  0.037148 0.751096 1 65 1.000000
0  -3.908542 -20.622822 -3.670604  -0.005263 0.999945 -0.009111  0.037148 0.750952 1 65 1.000000
lowpoly_plastic
0  -4.136838 -20.625225 -3.161925  -0.011970 0.999916 -0.004922  0.037196 0.751096 1 65 1.000000
0  -3.908542 -20.622822 -3.293731  -0.015481 0.999879 0.001328  0.037196 0.750952 1 65 1.000000
0  -3.908542 -20.622822 -3.670604  -0.010526 0.999945 0.000000  0.037148 0.750952 1 65 1.000000
lowpoly_plastic
0  -2.889389 -24.510580 -3.482175  0.923879 0.000000 -0.382685  0.045905 0.669746 1 65 1.000000
0  -2.889387 -47.502995 -3.482177  0.923879 0.000000 -0.382685  0.045905 0.669890 1 65 1.000000
0  -3.092296 -47.502995 -3.972042  0.923879 0.000000 -0.382685  0.045869 0.669890 1 65 1.000000
lowpoly_plastic
0  -3.092298 -24.510580 -3.972040  0.382684 0.000000 -0.923879  0.045869 0.669746 1 65 1.000000
0  -3.092296 -47.502995 -3.972042  0.382684 0.000000 -0.923879  0.045869 0.669890 1 65 1.000000
0  -3.582160 -47.502995 -4.174950  0.382684 0.000000 -0.923879  0.045833 0.669890 1 65 1.000000
lowpoly_plastic
0  -3.582162 -24.510580 -4.174948  -0.382682 0.000000 -0.923880  0.045833 0.669746 1 65 1.000000
0  -3.582160 -47.502995 -4.174950  -0.382682 0.000000 -0.923880  0.045833 0.669890 1 65 1.000000
0  -4.072023 -47.502995 -3.972042  -0.382682 0.000000 -0.923880  0.045797 0.669890 1 65 1.000000
lowpoly_plastic
0  -4.072026 -24.510580 -3.972040  -0.923879 -0.000000 -0.382686  0.045797 0.669746 1 65 1.000000
0  -4.072023 -47.502995 -3.972042  -0.923879 -0.000000 -0.382686  0.045797 0.669890 1 65 1.000000
0  -4.274933 -47.502995 -3.482177  -0.923879 -0.000000 -0.382686  0.045761 0.669890 1 65 1.000000
lowpoly_plastic
0  -4.274934 -24.510580 -3.482175  -0.923879 -0.000000 0.382685  0.045761 0.669746 1 65 1.000000
0  -4.274933 -47.502995 -3.482177  -0.923879 -0.000000 0.382685  0.045761 0.669890 1 65 1.000000
0  -4.072023 -47.502995 -2.992312  -0.923879 -0.000000 0.382685  0.045725 0.669890 1 65 1.000000
lowpoly_plastic
0  -4.072026 -24.510580 -2.992311  -0.382683 -0.000000 0.923880  0.045725 0.669746 1 65 1.000000
0  -4.072023 -47.502995 -2.992312  -0.382683 -0.000000 0.923880  0.045725 0.669890 1 65 1.000000
0  -3.582160 -47.502995 -2.789404  -0.382683 -0.000000 0.923880  0.045688 0.669890 1 65 1.000000
lowpoly_plastic
0  -3.884102 -24.496643 -3.482175  0.923880 0.000000 -0.382683  0.074747 0.899733 1 65 1.000000
0  -3.795666 -24.496643 -3.268672  0.923880 0.000000 -0.382683  0.074730 0.899740 1 65 1.000000
0  -3.795663 -47.516930 -3.268674  0.923880 0.000000 -0.382683  0.074585 0.899740 1 65 1.000000
lowpoly_plastic
0  -3.582162 -24.510580 -2.789403  0.382684 -0.000000 0.923879  0.045688 0.669746 1 65 1.000000
0  -3.582160 -47.502995 -2.789404  0.382684 -0.000000 0.923879  0.045688 0.669890 1 65 1.000000
0  -3.092296 -47.502995 -2.992312  0.382684 -0.000000 0.923879  0.045652 0.669890 1 65 1.000000
lowpoly_plastic
0  -3.092298 -24.510580 -2.992311  0.923880 0.000000 0.382684  0.045652 0.669746 1 65 1.000000
0  -3.092296 -47.502995 -2.992312  0.923880 0.000000 0.382684  0.045652 0.669890 1 65 1.000000
0  -2.889387 -47.502995 -3.482177  0.923880 0.000000 0.382684  0.045616 0.669890 1 65 1.000000
lowpoly_plastic
0  -3.795666 -24.496643 -3.268672  0.382682 0.000000 -0.923880  0.074730 0.899740 1 65 1.000000
0  -3.582163 -24.496643 -3.180236  0.382682 0.000000 -0.923880  0.074722 0.899757 1 65 1.000000
0  -3.582160 -47.516930 -3.180239  0.382682 0.000000 -0.923880  0.074578 0.899757 1 65 1.000000
lowpoly_plastic
0  -3.368659 -24.496643 -3.695679  0.035633 0.999256 -0.014755  0.045850 0.669691 1 65 1.000000
0  -3.280223 -24.496643 -3.482175  0.035633 0.999256 -0.014755  0.045833 0.669698 1 65 1.000000
0  -2.889389 -24.510580 -3.482175  0.035633 0.999256 -0.014755  0.045833 0.669743 1 65 1.000000
lowpoly_plastic
0  -3.280220 -47.516930 -3.482178  0.035629 -0.999256 -0.014755  0.045688 0.669698 1 65 1.000000
0  -3.368656 -47.516930 -3.695682  0.035629 -0.999256 -0.014755  0.045706 0.669691 1 65 1.000000
0  -3.092296 -47.502995 -3.972042  0.035629 -0.999256 -0.014755  0.045737 0.669723 1 65 1.000000
lowpoly_plastic
0  -3.582163 -24.496643 -3.784114  0.014760 0.999256 -0.035643  0.045857 0.669674 1 65 1.000000
0  -3.368659 -24.496643 -3.695679  0.014760 0.999256 -0.035643  0.045850 0.669691 1 65 1.000000
0  -3.092298 -24.510580 -3.972040  0.014760 0.999256 -0.035643  0.045882 0.669723 1 65 1.000000
lowpoly_plastic
0  -3.368656 -47.516930 -3.695682  0.014758 -0.999256 -0.035629  0.045706 0.669691 1 65 1.000000
0  -3.582160 -47.516930 -3.784117  0.014758 -0.999256 -0.035629  0.045713 0.669674 1 65 1.000000
0  -3.582160 -47.502995 -4.174950  0.014758 -0.999256 -0.035629  0.045758 0.669674 1 65 1.000000
lowpoly_plastic
0  -3.795666 -24.496643 -3.695679  -0.014760 0.999256 -0.035634  0.045850 0.669657 1 65 1.000000
0  -3.582163 -24.496643 -3.784114  -0.014760 0.999256 -0.035634  0.045857 0.669674 1 65 1.000000
0  -3.582162 -24.510580 -4.174948  -0.014760 0.999256 -0.035634  0.045902 0.669674 1 65 1.000000
lowpoly_plastic
0  -3.582160 -47.516930 -3.784117  -0.014758 -0.999256 -0.035632  0.045713 0.669674 1 65 1.000000
0  -3.795663 -47.516930 -3.695682  -0.014758 -0.999256 -0.035632  0.045706 0.669657 1 65 1.000000
0  -4.072023 -47.502995 -3.972042  -0.014758 -0.999256 -0.035632  0.045737 0.669625 1 65 1.000000
lowpoly_plastic
0  -3.884102 -24.496643 -3.482175  -0.035633 0.999256 -0.014767  0.045833 0.669649 1 65 1.000000
0  -3.795666 -24.496643 -3.695679  -0.035633 0.999256 -0.014767  0.045850 0.669657 1 65 1.000000
0  -4.072026 -24.510580 -3.972040  -0.035633 0.999256 -0.014767  0.045882 0.669625 1 65 1.000000
lowpoly_plastic
0  -3.795663 -47.516930 -3.695682  -0.035628 -0.999256 -0.014755  0.045706 0.669657 1 65 1.000000
0  -3.884099 -47.516930 -3.482178  -0.035628 -0.999256 -0.014755  0.045688 0.669649 1 65 1.000000
0  -4.274933 -47.502995 -3.482177  -0.035628 -0.999256 -0.014755  0.045688 0.669605 1 65 1.000000
lowpoly_plastic
0  -3.795666 -24.496643 -3.268672  -0.035633 0.999256 0.014778  0.045815 0.669657 1 65 1.000000
0  -3.884102 -24.496643 -3.482175  -0.035633 0.999256 0.014778  0.045833 0.669649 1 65 1.000000
0  -4.274934 -24.510580 -3.482175  -0.035633 0.999256 0.014778  0.045833 0.669605 1 65 1.000000
lowpoly_plastic
0  -3.884099 -47.516930 -3.482178  -0.035628 -0.999256 0.014755  0.045688 0.669649 1 65 1.000000
0  -3.795663 -47.516930 -3.268674  -0.035628 -0.999256 0.014755  0.045671 0.669657 1 65 1.000000
0  -4.072023 -47.502995 -2.992312  -0.035628 -0.999256 0.014755  0.045640 0.669625 1 65 1.000000
lowpoly_plastic
0  -3.582163 -24.496643 -3.180236  -0.014760 0.999256 0.035632  0.045808 0.669674 1 65 1.000000
0  -3.795666 -24.496643 -3.268672  -0.014760 0.999256 0.035632  0.045815 0.669657 1 65 1.000000
0  -4.072026 -24.510580 -2.992311  -0.014760 0.999256 0.035632  0.045784 0.669625 1 65 1.000000
lowpoly_plastic
0  -3.795663 -47.516930 -3.268674  -0.014758 -0.999257 0.035612  0.045671 0.669657 1 65 1.000000
0  -3.582160 -47.516930 -3.180239  -0.014758 -0.999257 0.035612  0.045664 0.669674 1 65 1.000000
0  -3.582160 -47.502995 -2.789404  -0.014758 -0.999257 0.035612  0.045619 0.669674 1 65 1.000000
lowpoly_plastic
0  -3.368659 -24.496643 -3.268672  0.014760 0.999256 0.035629  0.045815 0.669691 1 65 1.000000
0  -3.582163 -24.496643 -3.180236  0.014760 0.999256 0.035629  0.045808 0.669674 1 65 1.000000
0  -3.582162 -24.510580 -2.789403  0.014760 0.999256 0.035629  0.045763 0.669674 1 65 1.000000
lowpoly_plastic
0  -3.582160 -47.516930 -3.180239  0.014758 -0.999256 0.035632  0.045664 0.669674 1 65 1.000000
0  -3.368656 -47.516930 -3.268674  0.014758 -0.999256 0.035632  0.045671 0.669691 1 65 1.000000
0  -3.092296 -47.502995 -2.992312  0.014758 -0.999256 0.035632  0.045640 0.669723 1 65 1.000000
lowpoly_plastic
0  -3.280223 -24.496643 -3.482175  0.035633 0.999256 0.014755  0.045833 0.669698 1 65 1.000000
0  -3.368659 -24.496643 -3.268672  0.035633 0.999256 0.014755  0.045815 0.669691 1 65 1.000000
0  -3.092298 -24.510580 -2.992311  0.035633 0.999256 0.014755  0.045784 0.669723 1 65 1.000000
lowpoly_plastic
0  -3.368656 -47.516930 -3.268674  0.035628 -0.999256 0.014755  0.045671 0.669691 1 65 1.000000
0  -3.280220 -47.516930 -3.482178  0.035628 -0.999256 0.014755  0.045688 0.669698 1 65 1.000000
0  -2.889387 -47.502995 -3.482177  0.035628 -0.999256 0.014755  0.045688 0.669743 1 65 1.000000
lowpoly_plastic
0  -3.795666 -24.496643 -3.695679  0.923880 0.000000 0.382682  0.074764 0.899740 1 65 1.000000
0  -3.884102 -24.496643 -3.482175  0.923880 0.000000 0.382682  0.074747 0.899733 1 65 1.000000
0  -3.884099 -47.516930 -3.482178  0.923880 0.000000 0.382682  0.074603 0.899733 1 65 1.000000
lowpoly_plastic
0  -3.582163 -24.496643 -3.784114  0.382682 -0.000000 0.923880  0.074771 0.899757 1 65 1.000000
0  -3.795666 -24.496643 -3.695679  0.382682 -0.000000 0.923880  0.074764 0.899740 1 65 1.000000
0  -3.795663 -47.516930 -3.695682  0.382682 -0.000000 0.923880  0.074620 0.899740 1 65 1.000000
lowpoly_plastic
0  -3.368659 -24.496643 -3.695679  -0.382682 -0.000000 0.923880  0.074764 0.899774 1 65 1.000000
0  -3.582163 -24.496643 -3.784114  -0.382682 -0.000000 0.923880  0.074771 0.899757 1 65 1.000000
0  -3.582160 -47.516930 -3.784117  -0.382682 -0.000000 0.923880  0.074627 0.899757 1 65 1.000000
lowpoly_plastic
0  -3.280223 -24.496643 -3.482175  -0.923880 -0.000000 0.382682  0.074747 0.899782 1 65 1.000000
0  -3.368659 -24.496643 -3.695679  -0.923880 -0.000000 0.382682  0.074764 0.899774 1 65 1.000000
0  -3.368656 -47.516930 -3.695682  -0.923880 -0.000000 0.382682  0.074620 0.899774 1 65 1.000000
lowpoly_plastic
0  -3.368659 -24.496643 -3.268672  -0.923880 -0.000000 -0.382682  0.074730 0.899774 1 65 1.000000
0  -3.280223 -24.496643 -3.482175  -0.923880 -0.000000 -0.382682  0.074747 0.899782 1 65 1.000000
0  -3.280220 -47.516930 -3.482178  -0.923880 -0.000000 -0.382682  0.074603 0.899782 1 65 1.000000
lowpoly_plastic
0  -3.582163 -24.496643 -3.180236  -0.382684 0.000000 -0.923879  0.074722 0.899757 1 65 1.000000
0  -3.368659 -24.496643 -3.268672  -0.382684 0.000000 -0.923879  0.074730 0.899774 1 65 1.000000
0  -3.368656 -47.516930 -3.268674  -0.382684 0.000000 -0.923879  0.074585 0.899774 1 65 1.000000
lowpoly_plastic
0  -3.859851 -45.354713 -2.334692  -0.775342 0.000000 0.631542  0.010794 0.751639 1 65 1.000000
0  -3.859851 -45.156784 -2.334692  -0.775342 0.000000 0.631542  0.010692 0.751626 1 65 1.000000
0  -3.964950 -45.156784 -2.463718  -0.775342 0.000000 0.631542  0.010658 0.751633 1 65 1.000000
lowpoly_plastic
0  -3.304515 -46.216282 -2.334692  0.000000 0.000000 1.000000  0.010786 0.751567 1 65 1.000000
0  -3.304515 -46.018364 -2.334692  0.000000 0.000000 1.000000  0.010788 0.751567 1 65 1.000000
0  -3.859851 -46.018364 -2.334692  0.000000 0.000000 1.000000  0.010788 0.751639 1 65 1.000000
lowpoly_plastic
0  -3.859851 -44.711285 -2.334692  -0.775347 0.000000 0.631535  0.010730 0.751423 1 65 1.000000
0  -3.964950 -44.711285 -2.463718  -0.775347 0.000000 0.631535  0.010730 0.751423 1 65 1.000000
0  -3.964950 -44.923927 -2.463718  -0.775347 0.000000 0.631535  0.010658 0.751429 1 65 1.000000
lowpoly_plastic
0  -3.964950 -45.785496 -2.463718  0.000000 0.000000 1.000000  0.033964 0.837761 1 65 1.000000
0  -3.964950 -46.018364 -2.463718  0.000000 0.000000 1.000000  0.034036 0.837761 1 65 1.000000
0  -3.199416 -46.018364 -2.463718  0.000000 0.000000 1.000000  0.034036 0.837700 1 65 1.000000
lowpoly_plastic
0  -3.304515 -45.785496 -2.334692  0.000000 0.000000 1.000000  0.010790 0.751567 1 65 1.000000
0  -3.304515 -45.587570 -2.334692  0.000000 0.000000 1.000000  0.010792 0.751567 1 65 1.000000
0  -3.859851 -45.587570 -2.334692  0.000000 0.000000 1.000000  0.010792 0.751639 1 65 1.000000
lowpoly_plastic
0  -3.304515 -46.216282 -2.334692  0.775338 0.000000 0.631547  0.010786 0.751567 1 65 1.000000
0  -3.199416 -46.216282 -2.463718  0.775338 0.000000 0.631547  0.010658 0.751489 1 65 1.000000
0  -3.199416 -46.018364 -2.463718  0.775338 0.000000 0.631547  0.010658 0.751573 1 65 1.000000
lowpoly_plastic
0  -3.304515 -46.633667 -2.334693  0.000000 -0.000002 1.000000  0.010736 0.751567 1 65 1.000000
0  -3.304515 -46.435738 -2.334692  0.000000 -0.000002 1.000000  0.010738 0.751567 1 65 1.000000
0  -3.859851 -46.435738 -2.334692  0.000000 -0.000002 1.000000  0.010738 0.751639 1 65 1.000000
lowpoly_plastic
0  -3.304515 -44.923927 -2.334692  0.000001 0.000000 1.000000  0.010798 0.751567 1 65 1.000000
0  -3.304515 -44.711285 -2.334692  0.000001 0.000000 1.000000  0.010803 0.751567 1 65 1.000000
0  -3.859851 -44.711285 -2.334692  0.000001 0.000000 1.000000  0.010803 0.751639 1 65 1.000000
lowpoly_plastic
0  -3.199416 -45.354713 -2.463718  0.000000 -1.000000 -0.000053  0.034036 0.837616 1 65 1.000000
0  -3.304515 -45.354713 -2.334692  0.000000 -1.000000 -0.000053  0.034069 0.837609 1 65 1.000000
0  -3.859851 -45.354713 -2.334692  0.000000 -1.000000 -0.000053  0.034069 0.837564 1 65 1.000000
lowpoly_plastic
0  -3.199416 -46.633667 -2.463718  0.000000 -1.000000 0.000000  0.034036 0.837616 1 65 1.000000
0  -3.304515 -46.633667 -2.334693  0.000000 -1.000000 0.000000  0.034069 0.837609 1 65 1.000000
0  -3.859851 -46.633667 -2.334692  0.000000 -1.000000 0.000000  0.034069 0.837564 1 65 1.000000
lowpoly_plastic
0  -3.859851 -45.785496 -2.334692  -0.775336 0.000000 0.631549  0.010790 0.751639 1 65 1.000000
0  -3.859851 -45.587570 -2.334692  -0.775336 0.000000 0.631549  0.010692 0.751626 1 65 1.000000
0  -3.964950 -45.587570 -2.463718  -0.775336 0.000000 0.631549  0.010658 0.751633 1 65 1.000000
lowpoly_plastic
0  -3.199416 -45.785496 -2.463718  0.000000 -1.000000 0.000000  0.034036 0.837616 1 65 1.000000
0  -3.304515 -45.785496 -2.334692  0.000000 -1.000000 0.000000  0.034069 0.837609 1 65 1.000000
0  -3.859851 -45.785496 -2.334692  0.000000 -1.000000 0.000000  0.034069 0.837564 1 65 1.000000
lowpoly_plastic
0  -3.964950 -46.633667 -2.463718  0.000000 0.000000 1.000000  0.033964 0.837761 1 65 1.000000
0  -3.964950 -46.866524 -2.463718  0.000000 0.000000 1.000000  0.034036 0.837761 1 65 1.000000
0  -3.199416 -46.866524 -2.463718  0.000000 0.000000 1.000000  0.034036 0.837700 1 65 1.000000
lowpoly_plastic
0  -3.964950 -46.018364 -2.463718  0.000000 1.000000 0.000053  0.034036 0.837761 1 65 1.000000
0  -3.859851 -46.018364 -2.334692  0.000000 1.000000 0.000053  0.034069 0.837753 1 65 1.000000
0  -3.304515 -46.018364 -2.334692  0.000000 1.000000 0.000053  0.034069 0.837708 1 65 1.000000
lowpoly_plastic
0  -3.199416 -46.216282 -2.463718  0.000000 -1.000000 0.000000  0.034036 0.837616 1 65 1.000000
0  -3.304515 -46.216282 -2.334692  0.000000 -1.000000 0.000000  0.034069 0.837609 1 65 1.000000
0  -3.859851 -46.216282 -2.334692  0.000000 -1.000000 0.000000  0.034069 0.837564 1 65 1.000000
lowpoly_plastic
0  -3.964950 -45.156784 -2.463718  0.000000 1.000000 0.000053  0.034036 0.837761 1 65 1.000000
0  -3.859851 -45.156784 -2.334692  0.000000 1.000000 0.000053  0.034069 0.837753 1 65 1.000000
0  -3.304515 -45.156784 -2.334692  0.000000 1.000000 0.000053  0.034069 0.837708 1 65 1.000000
lowpoly_plastic
0  -3.964950 -46.435738 -2.463718  0.000000 1.000000 0.000000  0.034036 0.837761 1 65 1.000000
0  -3.859851 -46.435738 -2.334692  0.000000 1.000000 0.000000  0.034069 0.837753 1 65 1.000000
0  -3.304515 -46.435738 -2.334692  0.000000 1.000000 0.000000  0.034069 0.837708 1 65 1.000000
lowpoly_plastic
0  -3.964950 -45.587570 -2.463718  0.000000 1.000000 0.000053  0.034036 0.837761 1 65 1.000000
0  -3.859851 -45.587570 -2.334692  0.000000 1.000000 0.000053  0.034069 0.837753 1 65 1.000000
0  -3.304515 -45.587570 -2.334692  0.000000 1.000000 0.000053  0.034069 0.837708 1 65 1.000000
lowpoly_plastic
0  -3.964950 -46.866524 -2.463718  0.000000 1.000000 0.000053  0.034036 0.837761 1 65 1.000000
0  -3.859851 -46.866524 -2.334692  0.000000 1.000000 0.000053  0.034069 0.837753 1 65 1.000000
0  -3.304515 -46.866524 -2.334693  0.000000 1.000000 0.000053  0.034069 0.837708 1 65 1.000000
lowpoly_plastic
0  -3.304515 -45.354713 -2.334692  0.000000 0.000000 1.000000  0.010794 0.751567 1 65 1.000000
0  -3.304515 -45.156784 -2.334692  0.000000 0.000000 1.000000  0.010796 0.751567 1 65 1.000000
0  -3.859851 -45.156784 -2.334692  0.000000 0.000000 1.000000  0.010796 0.751639 1 65 1.000000
lowpoly_plastic
0  -3.199416 -44.923927 -2.463718  0.775347 0.000000 0.631535  0.010730 0.751500 1 65 1.000000
0  -3.199416 -44.711285 -2.463718  0.775347 0.000000 0.631535  0.010730 0.751495 1 65 1.000000
0  -3.304515 -44.711285 -2.334692  0.775347 0.000000 0.631535  0.010730 0.751495 1 65 1.000000
lowpoly_plastic
0  -3.199416 -45.785496 -2.463718  0.775335 0.000000 0.631550  0.010658 0.751489 1 65 1.000000
0  -3.199416 -45.587570 -2.463718  0.775335 0.000000 0.631550  0.010658 0.751573 1 65 1.000000
0  -3.304515 -45.587570 -2.334692  0.775335 0.000000 0.631550  0.010792 0.751567 1 65 1.000000
lowpoly_plastic
0  -3.299905 -44.711285 -2.559590  0.690293 0.000000 -0.723530  0.010730 0.751495 1 65 1.000000
0  -3.199416 -44.711285 -2.463718  0.690293 0.000000 -0.723530  0.010730 0.751495 1 65 1.000000
0  -3.199416 -44.923927 -2.463718  0.690293 0.000000 -0.723530  0.010586 0.751573 1 65 1.000000
lowpoly_plastic
0  -3.964950 -45.354713 -2.463718  0.000000 0.000000 1.000000  0.033964 0.837761 1 65 1.000000
0  -3.964950 -45.587570 -2.463718  0.000000 0.000000 1.000000  0.034036 0.837761 1 65 1.000000
0  -3.199416 -45.587570 -2.463718  0.000000 0.000000 1.000000  0.034036 0.837700 1 65 1.000000
lowpoly_plastic
0  -3.964950 -44.923927 -2.463718  0.000001 0.000000 1.000000  0.033964 0.837761 1 65 1.000000
0  -3.964950 -45.156784 -2.463718  0.000001 0.000000 1.000000  0.034036 0.837761 1 65 1.000000
0  -3.199416 -45.156784 -2.463718  0.000001 0.000000 1.000000  0.034036 0.837700 1 65 1.000000
lowpoly_plastic
0  -3.964950 -46.018364 -2.463718  -0.775338 0.000000 0.631547  0.010658 0.751633 1 65 1.000000
0  -3.964950 -46.216282 -2.463718  -0.775338 0.000000 0.631547  0.010658 0.751429 1 65 1.000000
0  -3.859851 -46.216282 -2.334692  -0.775338 0.000000 0.631547  0.010786 0.751639 1 65 1.000000
lowpoly_plastic
0  -3.964950 -46.435738 -2.463718  -0.775327 0.000000 0.631560  0.010658 0.751633 1 65 1.000000
0  -3.964950 -46.633667 -2.463718  -0.775327 0.000000 0.631560  0.010658 0.751429 1 65 1.000000
0  -3.859851 -46.633667 -2.334692  -0.775327 0.000000 0.631560  0.010736 0.751639 1 65 1.000000
lowpoly_plastic
0  -3.304515 -45.354713 -2.334692  0.775327 0.000000 0.631560  0.010794 0.751567 1 65 1.000000
0  -3.199416 -45.354713 -2.463718  0.775327 0.000000 0.631560  0.010658 0.751489 1 65 1.000000
0  -3.199416 -45.156784 -2.463718  0.775327 0.000000 0.631560  0.010658 0.751573 1 65 1.000000
lowpoly_plastic
0  -3.864461 -44.711285 -2.559590  0.000000 1.000000 0.000041  0.010730 0.751423 1 65 1.000000
0  -3.964950 -44.711285 -2.463718  0.000000 1.000000 0.000041  0.010730 0.751423 1 65 1.000000
0  -3.859851 -44.711285 -2.334692  0.000000 1.000000 0.000041  0.010730 0.751423 1 65 1.000000
lowpoly_plastic
0  -3.859851 -44.711285 -2.334692  0.000000 1.000000 0.000005  0.010730 0.751423 1 65 1.000000
0  -3.304515 -44.711285 -2.334692  0.000000 1.000000 0.000005  0.010730 0.751495 1 65 1.000000
0  -3.299905 -44.711285 -2.559590  0.000000 1.000000 0.000005  0.010730 0.751495 1 65 1.000000
lowpoly_plastic
0  -3.304515 -44.711285 -2.334692  0.000000 1.000000 0.000000  0.010730 0.751495 1 65 1.000000
0  -3.199416 -44.711285 -2.463718  0.000000 1.000000 0.000000  0.010730 0.751495 1 65 1.000000
0  -3.299905 -44.711285 -2.559590  0.000000 1.000000 0.000000  0.010730 0.751495 1 65 1.000000
lowpoly_plastic
0  -3.299905 -44.711285 -2.559590  0.000000 1.000000 0.000000  0.010730 0.751495 1 65 1.000000
0  -3.299905 -44.711285 -2.954873  0.000000 1.000000 0.000000  0.010658 0.751495 1 65 1.000000
0  -3.864461 -44.711285 -2.954873  0.000000 1.000000 0.000000  0.010658 0.751423 1 65 1.000000
lowpoly_plastic
0  -3.864461 -44.711285 -2.954873  0.000000 1.000000 0.000000  0.010658 0.751423 1 65 1.000000
0  -3.864461 -44.711285 -2.559590  0.000000 1.000000 0.000000  0.010730 0.751423 1 65 1.000000
0  -3.299905 -44.711285 -2.559590  0.000000 1.000000 0.000000  0.010730 0.751495 1 65 1.000000
lowpoly_plastic
0  -3.199416 -44.923927 -2.463718  0.000000 -1.000000 0.000000  0.034036 0.837616 1 65 1.000000
0  -3.304515 -44.923927 -2.334692  0.000000 -1.000000 0.000000  0.034069 0.837609 1 65 1.000000
0  -3.859851 -44.923927 -2.334692  0.000000 -1.000000 0.000000  0.034069 0.837564 1 65 1.000000
lowpoly_plastic
0  -3.304515 -46.435738 -2.334692  0.775326 -0.000002 0.631561  0.010738 0.751567 1 65 1.000000
0  -3.304515 -46.633667 -2.334693  0.775326 -0.000002 0.631561  0.010692 0.751481 1 65 1.000000
0  -3.199416 -46.633667 -2.463718  0.775326 -0.000002 0.631561  0.010658 0.751489 1 65 1.000000
lowpoly_plastic
0  -3.864461 -46.866524 -3.099111  0.000000 -1.000000 0.000000  0.010550 0.751423 1 65 1.000000
0  -3.299905 -46.866524 -3.099111  0.000000 -1.000000 0.000000  0.010550 0.751423 1 65 1.000000
0  -3.299905 -46.866524 -2.559590  0.000000 -1.000000 0.000000  0.010550 0.751423 1 65 1.000000
lowpoly_plastic
0  -3.964950 -46.866524 -2.463718  0.000000 1.000000 0.000026  0.010658 0.751633 1 65 1.000000
0  -3.199416 -46.866524 -2.463718  0.000000 1.000000 0.000026  0.010658 0.751573 1 65 1.000000
0  -3.299905 -46.866524 -2.559590  0.000000 1.000000 0.000026  0.010550 0.751423 1 65 1.000000
lowpoly_plastic
0  -3.299905 -44.711285 -2.559590  1.000000 -0.000000 0.000000  0.010730 0.751495 1 65 1.000000
0  -3.299905 -46.866524 -2.559590  1.000000 -0.000000 0.000000  0.010550 0.751423 1 65 1.000000
0  -3.299905 -46.866524 -3.099111  1.000000 -0.000000 0.000000  0.010550 0.751423 1 65 1.000000
lowpoly_plastic
0  -3.864461 -44.711285 -2.954873  -1.000000 0.000000 0.000000  0.010658 0.751423 1 65 1.000000
0  -3.864461 -46.866524 -3.099111  -1.000000 0.000000 0.000000  0.010550 0.751423 1 65 1.000000
0  -3.864461 -46.866524 -2.559590  -1.000000 0.000000 0.000000  0.010550 0.751423 1 65 1.000000
lowpoly_plastic
0  -3.299905 -44.711285 -2.954873  0.000000 0.066775 -0.997768  0.010658 0.751495 1 65 1.000000
0  -3.299905 -46.866524 -3.099111  0.000000 0.066775 -0.997768  0.010550 0.751423 1 65 1.000000
0  -3.864461 -46.866524 -3.099111  0.000000 0.066775 -0.997768  0.010550 0.751423 1 65 1.000000
lowpoly_plastic
0  -3.964950 -47.080841 -2.463718  0.000000 -1.000000 -0.000019  0.010658 0.751633 1 65 1.000000
0  -3.199416 -47.080841 -2.463718  0.000000 -1.000000 -0.000019  0.010658 0.751573 1 65 1.000000
0  -3.304515 -47.080841 -2.334693  0.000000 -1.000000 -0.000019  0.010692 0.751581 1 65 1.000000
lowpoly_plastic
0  -3.864461 -47.080841 -3.099111  0.000000 -1.000000 0.000000  0.010550 0.751423 1 65 1.000000
0  -3.299905 -47.080841 -3.099111  0.000000 -1.000000 0.000000  0.010550 0.751423 1 65 1.000000
0  -3.299905 -47.080841 -2.559590  0.000000 -1.000000 0.000000  0.010550 0.751423 1 65 1.000000
lowpoly_plastic
0  -3.964950 -47.080841 -2.463718  0.000000 -1.000000 0.000000  0.010658 0.751633 1 65 1.000000
0  -3.864461 -47.080841 -2.559590  0.000000 -1.000000 0.000000  0.010550 0.751423 1 65 1.000000
0  -3.299905 -47.080841 -2.559590  0.000000 -1.000000 0.000000  0.010550 0.751423 1 65 1.000000
lowpoly_plastic
0  -3.304515 -46.866524 -2.334693  0.775328 0.000000 0.631559  0.010692 0.751581 1 65 1.000000
0  -3.304515 -47.080841 -2.334693  0.775328 0.000000 0.631559  0.010692 0.751581 1 65 1.000000
0  -3.199416 -47.080841 -2.463718  0.775328 0.000000 0.631559  0.010658 0.751573 1 65 1.000000
lowpoly_plastic
0  -3.859851 -46.866524 -2.334692  0.000001 0.000000 1.000000  0.010692 0.751626 1 65 1.000000
0  -3.859851 -47.080841 -2.334692  0.000001 0.000000 1.000000  0.010692 0.751626 1 65 1.000000
0  -3.304515 -47.080841 -2.334693  0.000001 0.000000 1.000000  0.010692 0.751581 1 65 1.000000
lowpoly_plastic
0  -3.964950 -46.866524 -2.463718  -0.775328 0.000000 0.631559  0.010658 0.751633 1 65 1.000000
0  -3.964950 -47.080841 -2.463718  -0.775328 0.000000 0.631559  0.010658 0.751633 1 65 1.000000
0  -3.859851 -47.080841 -2.334692  -0.775328 0.000000 0.631559  0.010692 0.751626 1 65 1.000000
lowpoly_plastic
0  -3.864461 -46.866524 -2.559590  -0.690285 0.000000 -0.723538  0.010550 0.751423 1 65 1.000000
0  -3.864461 -47.080841 -2.559590  -0.690285 0.000000 -0.723538  0.010550 0.751423 1 65 1.000000
0  -3.964950 -47.080841 -2.463718  -0.690285 0.000000 -0.723538  0.010658 0.751633 1 65 1.000000
lowpoly_plastic
0  -3.864461 -47.080841 -2.559590  -1.000000 0.000000 0.000000  0.010550 0.751423 1 65 1.000000
0  -3.864461 -46.866524 -2.559590  -1.000000 0.000000 0.000000  0.010550 0.751423 1 65 1.000000
0  -3.864461 -46.866524 -3.099111  -1.000000 0.000000 0.000000  0.010550 0.751423 1 65 1.000000
lowpoly_plastic
0  -3.864461 -47.080841 -3.099111  0.000000 0.000000 -1.000000  0.010550 0.751423 1 65 1.000000
0  -3.864461 -46.866524 -3.099111  0.000000 0.000000 -1.000000  0.010550 0.751423 1 65 1.000000
0  -3.299905 -46.866524 -3.099111  0.000000 0.000000 -1.000000  0.010550 0.751423 1 65 1.000000
lowpoly_plastic
0  -3.299905 -47.080841 -3.099111  1.000000 0.000002 0.000000  0.010550 0.751423 1 65 1.000000
0  -3.299905 -46.866524 -3.099111  1.000000 0.000002 0.000000  0.010550 0.751423 1 65 1.000000
0  -3.299905 -46.866524 -2.559590  1.000000 0.000002 0.000000  0.010550 0.751423 1 65 1.000000
lowpoly_plastic
0  -3.199416 -46.866524 -2.463718  0.690285 0.000000 -0.723538  0.010658 0.751573 1 65 1.000000
0  -3.199416 -47.080841 -2.463718  0.690285 0.000000 -0.723538  0.010658 0.751573 1 65 1.000000
0  -3.299905 -47.080841 -2.559590  0.690285 0.000000 -0.723538  0.010550 0.751423 1 65 1.000000
lowpoly_plastic
0  -3.299905 -44.711285 -2.559590  0.690307 0.000000 -0.723517  0.010550 0.751423 1 65 1.000000
0  -3.199416 -45.156784 -2.463718  0.690307 0.000000 -0.723517  0.010550 0.751423 1 65 1.000000
0  -3.199416 -45.354713 -2.463718  0.690307 0.000000 -0.723517  0.010550 0.751423 1 65 1.000000
lowpoly_plastic
0  -3.299905 -44.711285 -2.559590  0.690278 0.000000 -0.723544  0.010550 0.751423 1 65 1.000000
0  -3.199416 -45.354713 -2.463718  0.690278 0.000000 -0.723544  0.010550 0.751423 1 65 1.000000
0  -3.199416 -45.587570 -2.463718  0.690278 0.000000 -0.723544  0.010550 0.751423 1 65 1.000000
lowpoly_plastic
0  -3.199416 -46.866524 -2.463718  0.690293 0.000000 -0.723530  0.010550 0.751423 1 65 1.000000
0  -3.299905 -46.866524 -2.559590  0.690293 0.000000 -0.723530  0.010550 0.751423 1 65 1.000000
0  -3.199416 -46.633667 -2.463718  0.690293 0.000000 -0.723530  0.010550 0.751423 1 65 1.000000
lowpoly_plastic
0  -3.299905 -46.866524 -2.559590  0.690290 0.000000 -0.723533  0.010550 0.751423 1 65 1.000000
0  -3.299905 -44.711285 -2.559590  0.690290 0.000000 -0.723533  0.010550 0.751423 1 65 1.000000
0  -3.199416 -45.785496 -2.463718  0.690290 0.000000 -0.723533  0.010550 0.751423 1 65 1.000000
lowpoly_plastic
0  -3.199416 -46.633667 -2.463718  0.690290 0.000000 -0.723533  0.010550 0.751423 1 65 1.000000
0  -3.299905 -46.866524 -2.559590  0.690290 0.000000 -0.723533  0.010550 0.751423 1 65 1.000000
0  -3.199416 -46.435738 -2.463718  0.690290 0.000000 -0.723533  0.010550 0.751423 1 65 1.000000
lowpoly_plastic
0  -3.199416 -46.216282 -2.463718  0.690285 0.000002 -0.723538  0.010550 0.751423 1 65 1.000000
0  -3.199416 -46.435738 -2.463718  0.690285 0.000002 -0.723538  0.010550 0.751423 1 65 1.000000
0  -3.299905 -46.866524 -2.559590  0.690285 0.000002 -0.723538  0.010550 0.751423 1 65 1.000000
lowpoly_plastic
0  -3.199416 -46.216282 -2.463718  0.690284 0.000000 -0.723538  0.010550 0.751423 1 65 1.000000
0  -3.299905 -46.866524 -2.559590  0.690284 0.000000 -0.723538  0.010550 0.751423 1 65 1.000000
0  -3.199416 -46.018364 -2.463718  0.690284 0.000000 -0.723538  0.010550 0.751423 1 65 1.000000
lowpoly_plastic
0  -3.299905 -44.711285 -2.559590  0.690292 0.000000 -0.723531  0.010550 0.751423 1 65 1.000000
0  -3.199416 -45.587570 -2.463718  0.690292 0.000000 -0.723531  0.010550 0.751423 1 65 1.000000
0  -3.199416 -45.785496 -2.463718  0.690292 0.000000 -0.723531  0.010550 0.751423 1 65 1.000000
lowpoly_plastic
0  -3.964950 -45.354713 -2.463718  -0.690312 0.000000 -0.723512  0.010550 0.751423 1 65 1.000000
0  -3.964950 -45.156784 -2.463718  -0.690312 0.000000 -0.723512  0.010550 0.751423 1 65 1.000000
0  -3.864461 -44.711285 -2.559590  -0.690312 0.000000 -0.723512  0.010550 0.751423 1 65 1.000000
lowpoly_plastic
0  -3.964950 -45.156784 -2.463718  -0.690278 0.000000 -0.723544  0.010550 0.751423 1 65 1.000000
0  -3.964950 -44.923927 -2.463718  -0.690278 0.000000 -0.723544  0.010550 0.751423 1 65 1.000000
0  -3.864461 -44.711285 -2.559590  -0.690278 0.000000 -0.723544  0.010550 0.751423 1 65 1.000000
lowpoly_plastic
0  -3.964950 -44.923927 -2.463718  -0.690293 0.000000 -0.723530  0.010550 0.751423 1 65 1.000000
0  -3.964950 -44.711285 -2.463718  -0.690293 0.000000 -0.723530  0.010550 0.751423 1 65 1.000000
0  -3.864461 -44.711285 -2.559590  -0.690293 0.000000 -0.723530  0.010550 0.751423 1 65 1.000000
lowpoly_plastic
0  -3.864461 -44.711285 -2.559590  -0.690290 0.000000 -0.723533  0.010550 0.751423 1 65 1.000000
0  -3.864461 -46.866524 -2.559590  -0.690290 0.000000 -0.723533  0.010550 0.751423 1 65 1.000000
0  -3.964950 -45.785496 -2.463718  -0.690290 0.000000 -0.723533  0.010550 0.751423 1 65 1.000000
lowpoly_plastic
0  -3.864461 -46.866524 -2.559590  -0.690293 0.000000 -0.723530  0.010550 0.751423 1 65 1.000000
0  -3.964950 -46.866524 -2.463718  -0.690293 0.000000 -0.723530  0.010550 0.751423 1 65 1.000000
0  -3.964950 -46.633667 -2.463718  -0.690293 0.000000 -0.723530  0.010550 0.751423 1 65 1.000000
lowpoly_plastic
0  -3.964950 -46.435738 -2.463718  -0.690290 0.000000 -0.723533  0.010550 0.751423 1 65 1.000000
0  -3.864461 -46.866524 -2.559590  -0.690290 0.000000 -0.723533  0.010550 0.751423 1 65 1.000000
0  -3.964950 -46.633667 -2.463718  -0.690290 0.000000 -0.723533  0.010550 0.751423 1 65 1.000000
lowpoly_plastic
0  -3.964950 -46.435738 -2.463718  -0.690305 0.000000 -0.723519  0.010550 0.751423 1 65 1.000000
0  -3.964950 -46.216282 -2.463718  -0.690305 0.000000 -0.723519  0.010550 0.751423 1 65 1.000000
0  -3.864461 -46.866524 -2.559590  -0.690305 0.000000 -0.723519  0.010550 0.751423 1 65 1.000000
lowpoly_plastic
0  -3.964950 -46.216282 -2.463718  -0.690284 0.000000 -0.723538  0.010550 0.751423 1 65 1.000000
0  -3.964950 -46.018364 -2.463718  -0.690284 0.000000 -0.723538  0.010550 0.751423 1 65 1.000000
0  -3.864461 -46.866524 -2.559590  -0.690284 0.000000 -0.723538  0.010550 0.751423 1 65 1.000000
lowpoly_plastic
0  -3.964950 -46.018364 -2.463718  -0.690303 0.000000 -0.723520  0.010550 0.751423 1 65 1.000000
0  -3.964950 -45.785496 -2.463718  -0.690303 0.000000 -0.723520  0.010550 0.751423 1 65 1.000000
0  -3.864461 -46.866524 -2.559590  -0.690303 0.000000 -0.723520  0.010550 0.751423 1 65 1.000000
lowpoly_plastic
0  -3.864461 -44.711285 -2.559590  -0.690292 0.000000 -0.723531  0.010550 0.751423 1 65 1.000000
0  -3.964950 -45.785496 -2.463718  -0.690292 0.000000 -0.723531  0.010550 0.751423 1 65 1.000000
0  -3.964950 -45.587570 -2.463718  -0.690292 0.000000 -0.723531  0.010550 0.751423 1 65 1.000000
lowpoly_plastic
0  -3.964950 -46.435738 -2.463718  0.000000 -0.000001 1.000000  0.033928 0.837550 1 65 1.000000
0  -3.199416 -46.435738 -2.463718  0.000000 -0.000001 1.000000  0.033928 0.837550 1 65 1.000000
0  -3.199416 -46.216282 -2.463718  0.000000 -0.000001 1.000000  0.034036 0.837616 1 65 1.000000
end
