version 1
nodes
0 "root" -1
end
skeleton
time 0
0 0 0 0 0 0 0
end
triangles
no_material
0  -0.414135 0.017690 -3.254757  -0.584409 -0.607239 -0.538262  0.375000 0.000000 0
0  -0.414135 3.481412 0.130791  -0.577188 0.578445 0.576417  0.625000 0.250000 0
0  -0.414135 3.468010 -3.685663  -0.571288 0.542129 -0.616219  0.375000 0.250000 0
no_material
0  -0.414135 3.468010 -3.685663  -0.571288 0.542129 -0.616219  0.375000 0.250000 0
0  0.414135 3.481412 0.130791  0.577179 0.578451 0.576419  0.625000 0.500000 0
0  0.414135 3.468010 -3.685663  0.571289 0.542127 -0.616221  0.375000 0.500000 0
no_material
0  0.414135 3.468010 -3.685663  0.571289 0.542127 -0.616221  0.375000 0.500000 0
0  0.414135 0.004289 0.130791  0.577163 -0.578586 0.576300  0.625000 0.750000 0
0  0.414135 0.017690 -3.254757  0.584399 -0.607245 -0.538267  0.375000 0.750000 0
no_material
0  0.414135 0.017690 -3.254757  0.584399 -0.607245 -0.538267  0.375000 0.750000 0
0  -0.414135 0.004289 0.130791  -0.577158 -0.578588 0.576303  0.625000 1.000000 0
0  -0.414135 0.017690 -3.254757  -0.584409 -0.607239 -0.538262  0.375000 1.000000 0
no_material
0  -0.414135 3.468010 -3.685663  -0.571288 0.542129 -0.616219  0.125000 0.500000 0
0  0.414135 0.017690 -3.254757  0.584399 -0.607245 -0.538267  0.375000 0.750000 0
0  -0.414135 0.017690 -3.254757  -0.584409 -0.607239 -0.538262  0.125000 0.750000 0
no_material
0  0.414135 3.481412 0.130791  0.577179 0.578451 0.576419  0.625000 0.500000 0
0  -0.414135 0.004289 0.130791  -0.577158 -0.578588 0.576303  0.875000 0.750000 0
0  0.414135 0.004289 0.130791  0.577163 -0.578586 0.576300  0.625000 0.750000 0
no_material
0  -0.414135 0.017690 -3.254757  -0.584409 -0.607239 -0.538262  0.375000 0.000000 0
0  -0.414135 0.004289 0.130791  -0.577158 -0.578588 0.576303  0.625000 0.000000 0
0  -0.414135 3.481412 0.130791  -0.577188 0.578445 0.576417  0.625000 0.250000 0
no_material
0  -0.414135 3.468010 -3.685663  -0.571288 0.542129 -0.616219  0.375000 0.250000 0
0  -0.414135 3.481412 0.130791  -0.577188 0.578445 0.576417  0.625000 0.250000 0
0  0.414135 3.481412 0.130791  0.577179 0.578451 0.576419  0.625000 0.500000 0
no_material
0  0.414135 3.468010 -3.685663  0.571289 0.542127 -0.616221  0.375000 0.500000 0
0  0.414135 3.481412 0.130791  0.577179 0.578451 0.576419  0.625000 0.500000 0
0  0.414135 0.004289 0.130791  0.577163 -0.578586 0.576300  0.625000 0.750000 0
no_material
0  0.414135 0.017690 -3.254757  0.584399 -0.607245 -0.538267  0.375000 0.750000 0
0  0.414135 0.004289 0.130791  0.577163 -0.578586 0.576300  0.625000 0.750000 0
0  -0.414135 0.004289 0.130791  -0.577158 -0.578588 0.576303  0.625000 1.000000 0
no_material
0  -0.414135 3.468010 -3.685663  -0.571288 0.542129 -0.616219  0.125000 0.500000 0
0  0.414135 3.468010 -3.685663  0.571289 0.542127 -0.616221  0.375000 0.500000 0
0  0.414135 0.017690 -3.254757  0.584399 -0.607245 -0.538267  0.375000 0.750000 0
no_material
0  0.414135 3.481412 0.130791  0.577179 0.578451 0.576419  0.625000 0.500000 0
0  -0.414135 3.481412 0.130791  -0.577188 0.578445 0.576417  0.875000 0.500000 0
0  -0.414135 0.004289 0.130791  -0.577158 -0.578588 0.576303  0.875000 0.750000 0
end
