version 1
nodes
0 "blender_implicit" -1
1 "ValveBiped.Bip01_Spine4" -1
2 "ValveBiped.Bip01_L_Clavicle" 1
3 "ValveBiped.Bip01_L_UpperArm" 2
4 "ValveBiped.Bip01_L_Forearm" 3
5 "ValveBiped.Bip01_L_Hand" 4
6 "ValveBiped.Bip01_L_Finger4" 5
7 "ValveBiped.Bip01_L_Finger41" 6
8 "ValveBiped.Bip01_L_Finger42" 7
9 "ValveBiped.Bip01_L_Finger3" 5
10 "ValveBiped.Bip01_L_Finger31" 9
11 "ValveBiped.Bip01_L_Finger32" 10
12 "ValveBiped.Bip01_L_Finger2" 5
13 "ValveBiped.Bip01_L_Finger21" 12
14 "ValveBiped.Bip01_L_Finger22" 13
15 "ValveBiped.Bip01_L_Finger1" 5
16 "ValveBiped.Bip01_L_Finger11" 15
17 "ValveBiped.Bip01_L_Finger12" 16
18 "ValveBiped.Bip01_L_Finger0" 5
19 "ValveBiped.Bip01_L_Finger01" 18
20 "ValveBiped.Bip01_L_Finger02" 19
21 "ValveBiped.Bip01_L_Ulna" 4
22 "ValveBiped.Bip01_L_Wrist" 4
23 "rig_l_upperarm" 2
24 "rig_l_forearm" 23
25 "rig_d_l_forearm" 24
26 "rig_d_l_upperarm" 23
27 "ValveBiped.Bip01_R_Clavicle" 1
28 "ValveBiped.Bip01_R_UpperArm" 27
29 "ValveBiped.Bip01_R_Forearm" 28
30 "ValveBiped.Bip01_R_Hand" 29
31 "ValveBiped.Bip01_R_Finger4" 30
32 "ValveBiped.Bip01_R_Finger41" 31
33 "ValveBiped.Bip01_R_Finger42" 32
34 "ValveBiped.Bip01_R_Finger3" 30
35 "ValveBiped.Bip01_R_Finger31" 34
36 "ValveBiped.Bip01_R_Finger32" 35
37 "ValveBiped.Bip01_R_Finger2" 30
38 "ValveBiped.Bip01_R_Finger21" 37
39 "ValveBiped.Bip01_R_Finger22" 38
40 "ValveBiped.Bip01_R_Finger1" 30
41 "ValveBiped.Bip01_R_Finger11" 40
42 "ValveBiped.Bip01_R_Finger12" 41
43 "ValveBiped.Bip01_R_Finger0" 30
44 "ValveBiped.Bip01_R_Finger01" 43
45 "ValveBiped.Bip01_R_Finger02" 44
46 "ValveBiped.Bip01_R_Ulna" 29
47 "ValveBiped.Bip01_R_Wrist" 29
48 "rig_r_upperarm" 27
49 "rig_r_forearm" 48
50 "rig_d_r_forearm" 49
51 "rig_d_r_upperarm" 48
52 "rig_r_hand" -1
53 "rig_d_r_hand" 52
54 "rig_d_r_wrist" 53
55 "rig_l_hand" -1
56 "rig_d_l_hand" 55
57 "rig_d_l_wrist" 55
58 "rig_l_pole" -1
59 "rig_r_pole" -1
60 "rig_l_clavicle" -1
61 "rig_d_l_clavicle" 60
62 "rig_r_clavicle" -1
63 "rig_d_r_clavicle" 62
64 "Camera" -1
65 "body" -1
66 "trigger" 65
67 "boltprot" 65
68 "bolt" 67
69 "hammer" 67
70 "magrel" 65
71 "mag" -1
72 "round1" 71
73 "round2" 71
74 "round3" 71
end
skeleton
time 0
0  0 0 0  0 0 0
1  0.000006 0.000000 0.000000  -1.570800 -1.391899 -1.570792
2  2.033349 1.000767 1.937657  -1.544956 -1.855077 -0.198630
3  6.027514 -0.000325 0.000205  -1.652955 0.191603 -0.543421
4  11.692116 0.000648 -0.000740  -0.000036 0.000009 -0.432884
5  11.480583 0.000050 -0.000728  1.650634 -0.092836 0.261130
6  3.859507 -0.142881 -1.192049  -0.468164 0.151540 -0.880272
7  1.312590 0.000015 0.000009  -0.000026 0.000045 -0.439738
8  0.729355 0.000053 0.000050  0.000017 0.000021 -0.244318
9  3.942144 0.046271 -0.431512  -0.151810 0.073212 -0.811101
10  1.539109 0.000083 0.000006  -0.000007 0.000021 -0.247841
11  1.196330 0.000145 0.000030  0.000012 0.000019 -0.430771
12  3.883506 -0.047273 0.431382  0.085898 0.021851 -0.587925
13  1.719573 -0.000025 0.000015  0.000015 0.005519 -0.366533
14  1.209179 0.000088 0.000012  0.000004 0.003092 -0.216437
15  3.859662 -0.138478 1.332410  0.354468 -0.042725 -0.531804
16  1.719447 -0.000007 0.000022  0.000029 0.004070 -0.363021
17  1.099675 0.000048 0.000005  0.000003 0.002579 -0.244381
18  0.805994 -0.349051 1.321254  -1.222687 -0.679194 -0.788886
19  1.789820 -0.000002 -0.000020  0.000012 -0.000024 0.228522
20  1.207015 -0.000010 -0.000040  0.000002 -0.000008 0.362857
21  5.740634 0.000410 -0.000703  0.058597 0.000003 0.000071
22  11.481129 0.000221 -0.000804  0.019173 0.004831 0.043766
23  6.027524 -0.000330 0.000203  -2.907607 -0.606664 0.892243
24  0.000000 11.692098 -0.000007  -0.326488 -0.045544 -0.274549
25  0.000003 0.000009 -0.000002  0.868996 -0.000031 1.570739
26  -0.000001 -0.000011 -0.000001  0.868957 0.000002 1.570712
27  2.033355 1.000772 -1.937609  1.473120 1.855075 -0.198639
28  6.027507 -0.000258 -0.000239  1.618784 -0.163589 -0.610569
29  11.691988 0.000245 0.000857  -0.000018 -0.000002 -0.453142
30  11.480968 0.000040 0.000817  -1.539829 0.081598 0.286299
31  3.859436 -0.132787 1.193062  0.466289 -0.158048 -0.878829
32  1.312555 0.000022 0.000000  0.000013 -0.000043 -0.439712
33  0.729346 0.000065 -0.000028  -0.000023 -0.000019 -0.244285
34  3.942044 0.050110 0.430997  0.150090 -0.079180 -0.810196
35  1.539100 0.000006 -0.000000  0.000009 -0.000008 -0.247824
36  1.196298 0.000076 -0.000004  -0.000007 -0.000009 -0.430783
37  3.883411 -0.050502 -0.431087  -0.085915 -0.026391 -0.587669
38  1.719564 -0.000080 -0.000004  -0.000007 -0.007962 -0.366484
39  1.209196 0.000036 0.000011  0.000002 -0.004460 -0.216413
40  3.859583 -0.149109 -1.331323  -0.354445 0.038579 -0.531964
41  1.719414 -0.000100 -0.000035  -0.000030 -0.006585 -0.363031
42  1.099671 0.000023 0.000006  0.000004 -0.004187 -0.244346
43  0.805978 -0.359852 -1.318338  1.221444 0.673632 -0.793566
44  1.789781 -0.000009 -0.000046  -0.000028 0.000031 0.228552
45  1.206995 -0.000005 0.000006  -0.000017 0.000020 0.362911
46  5.740570 0.000055 0.000725  -0.045554 -0.000014 0.000021
47  11.481135 0.000044 0.000914  0.005679 -0.004320 0.046534
48  6.027514 -0.000273 -0.000237  0.205055 -0.643655 -2.305609
49  -0.000001 11.691974 -0.000006  -0.341341 0.049805 0.286916
50  0.000003 -0.000000 0.000001  2.272569 -0.000041 1.570856
51  -0.000006 -0.000015 0.000005  2.272644 -0.000030 1.570865
52  -21.990076 -1.846167 -17.364054  -1.607814 2.338392 -0.050266
53  -0.000003 -0.000000 -0.000000  0.008153 -0.000259 0.000009
54  -0.000000 0.000001 0.000000  1.565115 0.043565 -0.106862
55  23.316473 -1.910260 -16.261993  1.603333 0.720529 0.034207
56  -0.000003 0.000001 -0.000000  0.000000 -0.000000 -0.000002
57  0.000029 0.000031 0.000001  -1.571901 -0.044449 -0.106509
58  15.265023 8.339654 -8.787539  1.570796 -0.000000 0.000000
59  -15.265000 8.339654 -8.787539  1.570796 -0.000000 0.000000
60  1.941978 -1.346989 1.821586  1.570796 -0.000000 0.000000
61  -0.004311 0.001230 -0.000371  0.006898 -0.005534 -0.284229
62  -1.937603 -1.346625 1.822824  1.570796 -0.000000 0.000000
63  0.000000 0.000000 0.000000  -0.078727 -3.136056 0.284226
64  0.000000 0.000000 0.000000  1.570796 -0.000000 0.000000
65  -3.579263 -15.969442 -2.768752  1.570796 -0.000000 0.000000
66  0.000002 -2.923558 -1.408042  0.000000 -0.000000 0.000000
67  -0.000002 -0.601197 -2.062164  0.000000 -0.000000 0.000000
68  0.004380 -0.039407 6.613115  0.000000 -0.000000 0.000000
69  0.000002 -0.021786 -0.115849  0.000000 -0.000000 0.000000
70  0.000002 -3.304881 0.259169  0.000000 -0.000000 0.000000
71  -3.579264 -20.706579 -4.028905  1.570796 -0.000000 0.000000
72  0.057100 0.204433 -2.709597  0.000000 -0.000000 0.000000
73  0.111673 -0.283001 -2.709597  0.000000 -0.000000 0.000000
74  -0.128217 -0.750370 -2.709597  0.000000 -0.000000 0.000000
end
triangles
lowpoly_plastic
0  -3.582160 -49.088066 -2.316339  0.000000 0.000000 1.000000  0.006241 0.761820 1 65 1.000000
0  -3.828798 -49.299858 -2.316339  0.000000 0.000000 1.000000  0.006686 0.761438 1 65 1.000000
0  -3.582160 -49.299858 -2.316339  0.000000 0.000000 1.000000  0.006241 0.761438 1 65 1.000000
lowpoly_plastic
0  -3.828798 -49.088066 -2.316339  1.000000 0.000000 0.000000  0.005118 0.764841 1 65 1.000000
0  -3.828798 -49.299858 -2.089454  1.000000 0.000000 0.000000  0.004710 0.765224 1 65 1.000000
0  -3.828798 -49.299858 -2.316339  1.000000 0.000000 0.000000  0.005118 0.765224 1 65 1.000000
lowpoly_plastic
0  -3.828798 -49.088066 -2.089454  0.985420 0.000000 0.170141  0.004710 0.764841 1 65 1.000000
0  -3.871304 -49.299858 -1.843262  0.985420 0.000000 0.170141  0.004261 0.765224 1 65 1.000000
0  -3.828798 -49.299858 -2.089454  0.985420 0.000000 0.170141  0.004710 0.765224 1 65 1.000000
lowpoly_plastic
0  -3.871304 -49.088066 -1.843262  0.960658 0.000000 0.277734  0.004261 0.764841 1 65 1.000000
0  -3.939057 -49.088066 -1.608904  0.960658 0.000000 0.277734  0.003828 0.764841 1 65 1.000000
0  -3.871304 -49.299858 -1.843262  0.960658 0.000000 0.277734  0.004261 0.765224 1 65 1.000000
lowpoly_plastic
0  -4.019433 -49.088066 -1.608904  -0.960658 0.000000 -0.277734  0.005198 0.761438 1 65 1.000000
0  -3.951680 -49.088066 -1.843262  -0.960658 0.000000 -0.277734  0.005198 0.761872 1 65 1.000000
0  -3.951680 -49.299858 -1.843262  -0.960658 0.000000 -0.277734  0.005580 0.761872 1 65 1.000000
lowpoly_plastic
0  -3.951680 -49.088066 -1.843262  -0.985421 0.000000 -0.170132  0.005198 0.761872 1 65 1.000000
0  -3.909174 -49.299858 -2.089454  -0.985421 0.000000 -0.170132  0.005580 0.762322 1 65 1.000000
0  -3.951680 -49.299858 -1.843262  -0.985421 0.000000 -0.170132  0.005580 0.761872 1 65 1.000000
lowpoly_plastic
0  -3.909174 -49.088066 -2.089454  -1.000000 0.000000 0.000000  0.005198 0.762322 1 65 1.000000
0  -3.909174 -49.299858 -2.316339  -1.000000 0.000000 0.000000  0.005580 0.762729 1 65 1.000000
0  -3.909174 -49.299858 -2.089454  -1.000000 0.000000 0.000000  0.005580 0.762322 1 65 1.000000
lowpoly_plastic
0  -3.909174 -48.650238 -2.089454  -1.000000 0.000000 0.000000  0.004210 0.762322 1 65 1.000000
0  -3.909174 -49.088066 -2.316339  -1.000000 0.000000 0.000000  0.005198 0.762729 1 65 1.000000
0  -3.909174 -49.088066 -2.089454  -1.000000 0.000000 0.000000  0.005198 0.762322 1 65 1.000000
lowpoly_plastic
0  -3.951680 -48.650238 -1.843262  -0.985420 0.000000 -0.170138  0.004210 0.761872 1 65 1.000000
0  -3.909174 -49.088066 -2.089454  -0.985420 0.000000 -0.170138  0.005198 0.762322 1 65 1.000000
0  -3.951680 -49.088066 -1.843262  -0.985420 0.000000 -0.170138  0.005198 0.761872 1 65 1.000000
lowpoly_plastic
0  -4.019433 -48.650238 -1.608904  -0.960660 0.000000 -0.277726  0.004210 0.761438 1 65 1.000000
0  -3.951680 -49.088066 -1.843262  -0.960660 0.000000 -0.277726  0.005198 0.761872 1 65 1.000000
0  -4.019433 -49.088066 -1.608904  -0.960660 0.000000 -0.277726  0.005198 0.761438 1 65 1.000000
lowpoly_plastic
0  -3.939057 -48.650238 -1.608904  0.000000 0.000000 1.000000  0.005191 0.764459 1 65 1.000000
0  -4.019433 -49.088066 -1.608904  0.000000 0.000000 1.000000  0.005336 0.763471 1 65 1.000000
0  -3.939057 -49.088066 -1.608904  0.000000 0.000000 1.000000  0.005191 0.763471 1 65 1.000000
lowpoly_plastic
0  -3.871304 -48.650238 -1.843262  0.960660 0.000000 0.277726  0.004261 0.763853 1 65 1.000000
0  -3.939057 -49.088066 -1.608904  0.960660 0.000000 0.277726  0.003828 0.764841 1 65 1.000000
0  -3.871304 -49.088066 -1.843262  0.960660 0.000000 0.277726  0.004261 0.764841 1 65 1.000000
lowpoly_plastic
0  -3.828798 -48.650238 -2.089454  0.985420 0.000000 0.170138  0.004710 0.763853 1 65 1.000000
0  -3.871304 -49.088066 -1.843262  0.985420 0.000000 0.170138  0.004261 0.764841 1 65 1.000000
0  -3.828798 -49.088066 -2.089454  0.985420 0.000000 0.170138  0.004710 0.764841 1 65 1.000000
lowpoly_plastic
0  -3.828798 -48.650238 -2.316339  1.000000 0.000000 0.000000  0.005118 0.763853 1 65 1.000000
0  -3.828798 -49.088066 -2.089454  1.000000 0.000000 0.000000  0.004710 0.764841 1 65 1.000000
0  -3.828798 -49.088066 -2.316339  1.000000 0.000000 0.000000  0.005118 0.764841 1 65 1.000000
lowpoly_plastic
0  -3.582160 -48.650238 -2.316339  0.000000 0.000000 1.000000  0.006241 0.762808 1 65 1.000000
0  -3.828798 -49.088066 -2.316339  0.000000 0.000000 1.000000  0.006686 0.761820 1 65 1.000000
0  -3.582160 -49.088066 -2.316339  0.000000 0.000000 1.000000  0.006241 0.761820 1 65 1.000000
lowpoly_plastic
0  -3.582160 -48.438446 -2.316339  0.000000 0.000000 1.000000  0.006241 0.763190 1 65 1.000000
0  -3.828798 -48.650238 -2.316339  0.000000 0.000000 1.000000  0.006686 0.762808 1 65 1.000000
0  -3.582160 -48.650238 -2.316339  0.000000 0.000000 1.000000  0.006241 0.762808 1 65 1.000000
lowpoly_plastic
0  -3.828798 -48.438446 -2.316339  1.000000 0.000000 0.000000  0.005118 0.763471 1 65 1.000000
0  -3.828798 -48.650238 -2.089454  1.000000 0.000000 0.000000  0.004710 0.763853 1 65 1.000000
0  -3.828798 -48.650238 -2.316339  1.000000 0.000000 0.000000  0.005118 0.763853 1 65 1.000000
lowpoly_plastic
0  -3.828798 -48.438446 -2.089454  0.985421 0.000000 0.170133  0.004710 0.763471 1 65 1.000000
0  -3.871304 -48.650238 -1.843262  0.985421 0.000000 0.170133  0.004261 0.763853 1 65 1.000000
0  -3.828798 -48.650238 -2.089454  0.985421 0.000000 0.170133  0.004710 0.763853 1 65 1.000000
lowpoly_plastic
0  -3.871304 -48.438446 -1.843262  0.960658 0.000000 0.277734  0.004261 0.763471 1 65 1.000000
0  -3.939057 -48.650238 -1.608904  0.960658 0.000000 0.277734  0.003828 0.763854 1 65 1.000000
0  -3.871304 -48.650238 -1.843262  0.960658 0.000000 0.277734  0.004261 0.763853 1 65 1.000000
lowpoly_plastic
0  -3.939057 -48.650238 -1.608904  0.000000 0.741914 0.670495  0.006097 0.761453 1 65 1.000000
0  -3.951680 -48.438446 -1.843262  0.000000 0.741914 0.670495  0.006158 0.761835 1 65 1.000000
0  -4.019433 -48.650238 -1.608904  0.000000 0.741914 0.670495  0.006241 0.761438 1 65 1.000000
lowpoly_plastic
0  -4.019433 -48.650238 -1.608904  -0.960658 0.000000 -0.277734  0.004210 0.761438 1 65 1.000000
0  -3.951680 -48.438446 -1.843262  -0.960658 0.000000 -0.277734  0.003828 0.761872 1 65 1.000000
0  -3.951680 -48.650238 -1.843262  -0.960658 0.000000 -0.277734  0.004210 0.761872 1 65 1.000000
lowpoly_plastic
0  -3.951680 -48.438446 -1.843262  -0.985420 0.000000 -0.170141  0.003828 0.761872 1 65 1.000000
0  -3.909174 -48.650238 -2.089454  -0.985420 0.000000 -0.170141  0.004210 0.762322 1 65 1.000000
0  -3.951680 -48.650238 -1.843262  -0.985420 0.000000 -0.170141  0.004210 0.761872 1 65 1.000000
lowpoly_plastic
0  -3.909174 -48.438446 -2.089454  -1.000000 0.000000 0.000000  0.003828 0.762322 1 65 1.000000
0  -3.909174 -48.650238 -2.316339  -1.000000 0.000000 0.000000  0.004210 0.762729 1 65 1.000000
0  -3.909174 -48.650238 -2.089454  -1.000000 0.000000 0.000000  0.004210 0.762322 1 65 1.000000
lowpoly_plastic
0  -3.871304 -49.299858 -1.843262  0.000000 -0.741923 0.670485  0.003392 0.761885 1 65 1.000000
0  -4.019433 -49.088066 -1.608904  0.000000 -0.741923 0.670485  0.003168 0.761438 1 65 1.000000
0  -3.951680 -49.299858 -1.843262  0.000000 -0.741923 0.670485  0.003248 0.761871 1 65 1.000000
lowpoly_plastic
0  -3.828798 -49.299858 -2.089454  0.000000 -1.000000 -0.000024  0.003425 0.762335 1 65 1.000000
0  -3.951680 -49.299858 -1.843262  0.000000 -1.000000 -0.000024  0.003248 0.761871 1 65 1.000000
0  -3.909174 -49.299858 -2.089454  0.000000 -1.000000 -0.000024  0.003281 0.762320 1 65 1.000000
lowpoly_plastic
0  -3.828798 -49.299858 -2.316339  0.000000 -1.000000 0.000000  0.003385 0.762742 1 65 1.000000
0  -3.909174 -49.299858 -2.089454  0.000000 -1.000000 0.000000  0.003281 0.762320 1 65 1.000000
0  -3.909174 -49.299858 -2.316339  0.000000 -1.000000 0.000000  0.003241 0.762728 1 65 1.000000
lowpoly_plastic
0  -3.871304 -48.438446 -1.843262  0.000000 1.000000 0.000000  0.006014 0.761849 1 65 1.000000
0  -3.909174 -48.438446 -2.089454  0.000000 1.000000 0.000000  0.006126 0.762282 1 65 1.000000
0  -3.951680 -48.438446 -1.843262  0.000000 1.000000 0.000000  0.006158 0.761835 1 65 1.000000
lowpoly_plastic
0  -3.828798 -48.438446 -2.089454  0.000000 1.000000 0.000000  0.005982 0.762297 1 65 1.000000
0  -3.909174 -48.438446 -2.316339  0.000000 1.000000 0.000000  0.006167 0.762688 1 65 1.000000
0  -3.909174 -48.438446 -2.089454  0.000000 1.000000 0.000000  0.006126 0.762282 1 65 1.000000
lowpoly_plastic
0  -3.614213 -48.891899 -1.854542  0.000000 0.000000 1.000000  0.005175 0.764104 1 65 1.000000
0  -3.582160 -48.891899 -1.854542  0.000000 0.000000 1.000000  0.005118 0.764104 1 65 1.000000
0  -3.604762 -48.663162 -1.854542  0.000000 0.000000 1.000000  0.005158 0.763534 1 65 1.000000
lowpoly_plastic
0  -3.582160 -48.891899 -1.854542  0.000000 -0.513234 0.858249  0.005118 0.764104 1 65 1.000000
0  -3.622893 -49.143105 -2.004769  0.000000 -0.513234 0.858249  0.005191 0.764613 1 65 1.000000
0  -3.582160 -49.143105 -2.004769  0.000000 -0.513234 0.858249  0.005118 0.764613 1 65 1.000000
lowpoly_plastic
0  -3.582160 -49.143105 -2.004769  0.000000 -0.893316 0.449429  0.005440 0.763471 1 65 1.000000
0  -3.639757 -49.299858 -2.316339  0.000000 -0.893316 0.449429  0.005544 0.764057 1 65 1.000000
0  -3.582160 -49.299858 -2.316339  0.000000 -0.893316 0.449429  0.005440 0.764057 1 65 1.000000
lowpoly_plastic
0  -3.614213 -48.637848 -1.854542  0.000000 1.000000 -0.000027  0.005382 0.763471 1 65 1.000000
0  -3.604762 -48.637848 -1.854542  0.000000 1.000000 -0.000027  0.005399 0.763471 1 65 1.000000
0  -3.613930 -48.637848 -2.091209  0.000000 1.000000 -0.000027  0.005383 0.763898 1 65 1.000000
lowpoly_plastic
0  -3.639757 -48.637848 -2.316339  -0.998538 0.000000 0.054048  0.006404 0.763487 1 65 1.000000
0  -3.639757 -49.299858 -2.316339  -0.998538 0.000000 0.054048  0.006404 0.764880 1 65 1.000000
0  -3.622893 -49.143105 -2.004769  -0.998538 0.000000 0.054048  0.005848 0.764597 1 65 1.000000
lowpoly_plastic
0  -3.614213 -48.637848 -1.854542  -0.998473 0.000731 0.055230  0.005580 0.763487 1 65 1.000000
0  -3.639757 -48.637848 -2.316339  -0.998473 0.000731 0.055230  0.006404 0.763487 1 65 1.000000
0  -3.622893 -49.143105 -2.004769  -0.998473 0.000731 0.055230  0.005848 0.764597 1 65 1.000000
lowpoly_plastic
0  -3.614213 -48.891899 -1.854542  -0.998335 0.000000 0.057681  0.005580 0.764144 1 65 1.000000
0  -3.614213 -48.637848 -1.854542  -0.998335 0.000000 0.057681  0.005580 0.763487 1 65 1.000000
0  -3.622893 -49.143105 -2.004769  -0.998335 0.000000 0.057681  0.005848 0.764597 1 65 1.000000
lowpoly_plastic
0  -3.909174 -48.438446 -2.316339  -1.000000 0.000000 0.000000  0.003828 0.762729 1 65 1.000000
0  -3.909174 -48.650238 -2.877634  -1.000000 0.000000 0.000000  0.004210 0.763471 1 65 1.000000
0  -3.909174 -48.650238 -2.316339  -1.000000 0.000000 0.000000  0.004210 0.762729 1 65 1.000000
lowpoly_plastic
0  -3.828798 -48.438446 -2.316339  0.000000 1.000000 0.000000  0.006023 0.762702 1 65 1.000000
0  -3.909174 -48.438446 -2.877634  0.000000 1.000000 0.000000  0.006241 0.763428 1 65 1.000000
0  -3.909174 -48.438446 -2.316339  0.000000 1.000000 0.000000  0.006167 0.762688 1 65 1.000000
lowpoly_plastic
0  -3.828798 -49.299858 -2.316339  0.000000 -1.000000 0.000000  0.003385 0.762742 1 65 1.000000
0  -3.582160 -49.299858 -2.877634  0.000000 -1.000000 0.000000  0.003755 0.763529 1 65 1.000000
0  -3.582160 -49.299858 -2.316339  0.000000 -1.000000 0.000000  0.003828 0.762785 1 65 1.000000
lowpoly_plastic
0  -3.909174 -49.299858 -2.316339  0.000000 -1.000000 0.000000  0.003241 0.762728 1 65 1.000000
0  -3.828798 -49.299858 -2.877634  0.000000 -1.000000 0.000000  0.003312 0.763486 1 65 1.000000
0  -3.828798 -49.299858 -2.316339  0.000000 -1.000000 0.000000  0.003385 0.762742 1 65 1.000000
lowpoly_plastic
0  -3.909174 -49.088066 -2.316339  -1.000000 0.000000 0.000000  0.005198 0.762729 1 65 1.000000
0  -3.909174 -49.299858 -2.877634  -1.000000 0.000000 0.000000  0.005580 0.763471 1 65 1.000000
0  -3.909174 -49.299858 -2.316339  -1.000000 0.000000 0.000000  0.005580 0.762729 1 65 1.000000
lowpoly_plastic
0  -3.909174 -48.650238 -2.316339  -1.000000 0.000000 0.000000  0.004210 0.762729 1 65 1.000000
0  -3.909174 -49.088066 -2.877634  -1.000000 0.000000 0.000000  0.005198 0.763471 1 65 1.000000
0  -3.909174 -49.088066 -2.316339  -1.000000 0.000000 0.000000  0.005198 0.762729 1 65 1.000000
lowpoly_plastic
0  -3.582160 -48.438446 -2.316339  0.000000 1.000000 0.000000  0.005580 0.762747 1 65 1.000000
0  -3.828798 -48.438446 -2.877634  0.000000 1.000000 0.000000  0.006097 0.763443 1 65 1.000000
0  -3.828798 -48.438446 -2.316339  0.000000 1.000000 0.000000  0.006023 0.762702 1 65 1.000000
lowpoly_plastic
0  -3.582160 -49.088066 -2.316339  0.000000 0.000000 1.000000  0.006241 0.761820 1 65 1.000000
0  -3.335522 -49.299858 -2.316339  0.000000 0.000000 1.000000  0.006686 0.761438 1 65 1.000000
0  -3.335522 -49.088066 -2.316339  0.000000 0.000000 1.000000  0.006686 0.761820 1 65 1.000000
lowpoly_plastic
0  -3.335522 -49.088066 -2.316339  -1.000000 0.000000 0.000000  0.005118 0.764841 1 65 1.000000
0  -3.335522 -49.299858 -2.089454  -1.000000 0.000000 0.000000  0.004710 0.765224 1 65 1.000000
0  -3.335522 -49.088066 -2.089454  -1.000000 0.000000 0.000000  0.004710 0.764841 1 65 1.000000
lowpoly_plastic
0  -3.335522 -49.088066 -2.089454  -0.985420 0.000000 0.170141  0.004710 0.764841 1 65 1.000000
0  -3.293016 -49.299858 -1.843262  -0.985420 0.000000 0.170141  0.004261 0.765224 1 65 1.000000
0  -3.293016 -49.088066 -1.843262  -0.985420 0.000000 0.170141  0.004261 0.764841 1 65 1.000000
lowpoly_plastic
0  -3.293016 -49.088066 -1.843262  -0.960658 0.000000 0.277734  0.004261 0.764841 1 65 1.000000
0  -3.293016 -49.299858 -1.843262  -0.960658 0.000000 0.277734  0.004261 0.765224 1 65 1.000000
0  -3.225262 -49.088066 -1.608904  -0.960658 0.000000 0.277734  0.003828 0.764841 1 65 1.000000
lowpoly_plastic
0  -3.144886 -49.088066 -1.608904  0.960660 0.000000 -0.277726  0.005198 0.761438 1 65 1.000000
0  -3.212639 -49.299858 -1.843262  0.960660 0.000000 -0.277726  0.005580 0.761872 1 65 1.000000
0  -3.212639 -49.088066 -1.843262  0.960660 0.000000 -0.277726  0.005198 0.761872 1 65 1.000000
lowpoly_plastic
0  -3.212639 -49.088066 -1.843262  0.985420 0.000000 -0.170141  0.005198 0.761872 1 65 1.000000
0  -3.255146 -49.299858 -2.089454  0.985420 0.000000 -0.170141  0.005580 0.762322 1 65 1.000000
0  -3.255146 -49.088066 -2.089454  0.985420 0.000000 -0.170141  0.005198 0.762322 1 65 1.000000
lowpoly_plastic
0  -3.255146 -49.088066 -2.089454  1.000000 0.000000 0.000000  0.005198 0.762322 1 65 1.000000
0  -3.255146 -49.299858 -2.316339  1.000000 0.000000 0.000000  0.005580 0.762729 1 65 1.000000
0  -3.255146 -49.088066 -2.316339  1.000000 0.000000 0.000000  0.005198 0.762729 1 65 1.000000
lowpoly_plastic
0  -3.255146 -48.650238 -2.089454  1.000000 0.000000 0.000000  0.004210 0.762322 1 65 1.000000
0  -3.255146 -49.088066 -2.316339  1.000000 0.000000 0.000000  0.005198 0.762729 1 65 1.000000
0  -3.255146 -48.650238 -2.316339  1.000000 0.000000 0.000000  0.004210 0.762729 1 65 1.000000
lowpoly_plastic
0  -3.212639 -48.650238 -1.843262  0.985420 0.000000 -0.170142  0.004210 0.761872 1 65 1.000000
0  -3.255146 -49.088066 -2.089454  0.985420 0.000000 -0.170142  0.005198 0.762322 1 65 1.000000
0  -3.255146 -48.650238 -2.089454  0.985420 0.000000 -0.170142  0.004210 0.762322 1 65 1.000000
lowpoly_plastic
0  -3.144886 -48.650238 -1.608904  0.960660 0.000000 -0.277726  0.004210 0.761438 1 65 1.000000
0  -3.212639 -49.088066 -1.843262  0.960660 0.000000 -0.277726  0.005198 0.761872 1 65 1.000000
0  -3.212639 -48.650238 -1.843262  0.960660 0.000000 -0.277726  0.004210 0.761872 1 65 1.000000
lowpoly_plastic
0  -3.225262 -48.650238 -1.608904  0.000000 0.000000 1.000000  0.005191 0.764459 1 65 1.000000
0  -3.144886 -49.088066 -1.608904  0.000000 0.000000 1.000000  0.005336 0.763471 1 65 1.000000
0  -3.144886 -48.650238 -1.608904  0.000000 0.000000 1.000000  0.005336 0.764459 1 65 1.000000
lowpoly_plastic
0  -3.293016 -48.650238 -1.843262  -0.960659 0.000000 0.277730  0.004261 0.763853 1 65 1.000000
0  -3.225262 -49.088066 -1.608904  -0.960659 0.000000 0.277730  0.003828 0.764841 1 65 1.000000
0  -3.225262 -48.650238 -1.608904  -0.960659 0.000000 0.277730  0.003828 0.763854 1 65 1.000000
lowpoly_plastic
0  -3.335522 -48.650238 -2.089454  -0.985420 0.000000 0.170138  0.004710 0.763853 1 65 1.000000
0  -3.293016 -49.088066 -1.843262  -0.985420 0.000000 0.170138  0.004261 0.764841 1 65 1.000000
0  -3.293016 -48.650238 -1.843262  -0.985420 0.000000 0.170138  0.004261 0.763853 1 65 1.000000
lowpoly_plastic
0  -3.335522 -48.650238 -2.316339  -1.000000 0.000000 0.000000  0.005118 0.763853 1 65 1.000000
0  -3.335522 -49.088066 -2.089454  -1.000000 0.000000 0.000000  0.004710 0.764841 1 65 1.000000
0  -3.335522 -48.650238 -2.089454  -1.000000 0.000000 0.000000  0.004710 0.763853 1 65 1.000000
lowpoly_plastic
0  -3.582160 -48.650238 -2.316339  0.000000 0.000000 1.000000  0.006241 0.762808 1 65 1.000000
0  -3.335522 -49.088066 -2.316339  0.000000 0.000000 1.000000  0.006686 0.761820 1 65 1.000000
0  -3.335522 -48.650238 -2.316339  0.000000 0.000000 1.000000  0.006686 0.762808 1 65 1.000000
lowpoly_plastic
0  -3.582160 -48.438446 -2.316339  0.000000 0.000000 1.000000  0.006241 0.763190 1 65 1.000000
0  -3.335522 -48.650238 -2.316339  0.000000 0.000000 1.000000  0.006686 0.762808 1 65 1.000000
0  -3.335522 -48.438446 -2.316339  0.000000 0.000000 1.000000  0.006686 0.763190 1 65 1.000000
lowpoly_plastic
0  -3.335522 -48.438446 -2.316339  -1.000000 0.000000 0.000000  0.005118 0.763471 1 65 1.000000
0  -3.335522 -48.650238 -2.089454  -1.000000 0.000000 0.000000  0.004710 0.763853 1 65 1.000000
0  -3.335522 -48.438446 -2.089454  -1.000000 0.000000 0.000000  0.004710 0.763471 1 65 1.000000
lowpoly_plastic
0  -3.335522 -48.438446 -2.089454  -0.985420 0.000000 0.170141  0.004710 0.763471 1 65 1.000000
0  -3.293016 -48.650238 -1.843262  -0.985420 0.000000 0.170141  0.004261 0.763853 1 65 1.000000
0  -3.293016 -48.438446 -1.843262  -0.985420 0.000000 0.170141  0.004261 0.763471 1 65 1.000000
lowpoly_plastic
0  -3.293016 -48.438446 -1.843262  -0.960660 0.000000 0.277726  0.004261 0.763471 1 65 1.000000
0  -3.293016 -48.650238 -1.843262  -0.960660 0.000000 0.277726  0.004261 0.763853 1 65 1.000000
0  -3.225262 -48.650238 -1.608904  -0.960660 0.000000 0.277726  0.003828 0.763854 1 65 1.000000
lowpoly_plastic
0  -3.225262 -48.650238 -1.608904  0.000000 0.741923 0.670485  0.006097 0.761453 1 65 1.000000
0  -3.212639 -48.438446 -1.843262  0.000000 0.741923 0.670485  0.006158 0.761835 1 65 1.000000
0  -3.293016 -48.438446 -1.843262  0.000000 0.741923 0.670485  0.006014 0.761849 1 65 1.000000
lowpoly_plastic
0  -3.144886 -48.650238 -1.608904  0.960660 0.000000 -0.277726  0.004210 0.761438 1 65 1.000000
0  -3.212639 -48.650238 -1.843262  0.960660 0.000000 -0.277726  0.004210 0.761872 1 65 1.000000
0  -3.212639 -48.438446 -1.843262  0.960660 0.000000 -0.277726  0.003828 0.761872 1 65 1.000000
lowpoly_plastic
0  -3.212639 -48.438446 -1.843262  0.985420 0.000000 -0.170141  0.003828 0.761872 1 65 1.000000
0  -3.255146 -48.650238 -2.089454  0.985420 0.000000 -0.170141  0.004210 0.762322 1 65 1.000000
0  -3.255146 -48.438446 -2.089454  0.985420 0.000000 -0.170141  0.003828 0.762322 1 65 1.000000
lowpoly_plastic
0  -3.255146 -48.438446 -2.089454  1.000000 0.000000 0.000000  0.003828 0.762322 1 65 1.000000
0  -3.255146 -48.650238 -2.316339  1.000000 0.000000 0.000000  0.004210 0.762729 1 65 1.000000
0  -3.255146 -48.438446 -2.316339  1.000000 0.000000 0.000000  0.003828 0.762729 1 65 1.000000
lowpoly_plastic
0  -3.293016 -49.299858 -1.843262  0.000000 -0.741919 0.670489  0.003392 0.761885 1 65 1.000000
0  -3.144886 -49.088066 -1.608904  0.000000 -0.741919 0.670489  0.003168 0.761438 1 65 1.000000
0  -3.225262 -49.088066 -1.608904  0.000000 -0.741919 0.670489  0.003312 0.761452 1 65 1.000000
lowpoly_plastic
0  -3.335522 -49.299858 -2.089454  0.000000 -1.000000 0.000024  0.003425 0.762335 1 65 1.000000
0  -3.212639 -49.299858 -1.843262  0.000000 -1.000000 0.000024  0.003248 0.761871 1 65 1.000000
0  -3.293016 -49.299858 -1.843262  0.000000 -1.000000 0.000024  0.003392 0.761885 1 65 1.000000
lowpoly_plastic
0  -3.335522 -49.299858 -2.316339  0.000000 -1.000000 0.000000  0.003385 0.762742 1 65 1.000000
0  -3.255146 -49.299858 -2.089454  0.000000 -1.000000 0.000000  0.003281 0.762320 1 65 1.000000
0  -3.335522 -49.299858 -2.089454  0.000000 -1.000000 0.000000  0.003425 0.762335 1 65 1.000000
lowpoly_plastic
0  -3.293016 -48.438446 -1.843262  0.000000 1.000000 0.000000  0.006014 0.761849 1 65 1.000000
0  -3.255146 -48.438446 -2.089454  0.000000 1.000000 0.000000  0.006126 0.762282 1 65 1.000000
0  -3.335522 -48.438446 -2.089454  0.000000 1.000000 0.000000  0.005982 0.762297 1 65 1.000000
lowpoly_plastic
0  -3.335522 -48.438446 -2.089454  0.000000 1.000000 0.000000  0.005982 0.762297 1 65 1.000000
0  -3.255146 -48.438446 -2.316339  0.000000 1.000000 0.000000  0.006167 0.762688 1 65 1.000000
0  -3.335522 -48.438446 -2.316339  0.000000 1.000000 0.000000  0.006023 0.762702 1 65 1.000000
lowpoly_plastic
0  -3.550107 -48.637848 -1.854542  0.000000 0.000000 1.000000  0.005175 0.763471 1 65 1.000000
0  -3.559558 -48.637848 -1.854542  0.000000 0.000000 1.000000  0.005158 0.763471 1 65 1.000000
0  -3.559558 -48.663162 -1.854542  0.000000 0.000000 1.000000  0.005158 0.763534 1 65 1.000000
lowpoly_plastic
0  -3.582160 -48.891899 -1.854542  0.000000 -0.513252 0.858238  0.005118 0.764104 1 65 1.000000
0  -3.541427 -49.143105 -2.004769  0.000000 -0.513252 0.858238  0.005191 0.764613 1 65 1.000000
0  -3.550107 -48.891899 -1.854542  0.000000 -0.513252 0.858238  0.005175 0.764104 1 65 1.000000
lowpoly_plastic
0  -3.582160 -49.143105 -2.004769  0.000000 -0.893324 0.449414  0.005440 0.763471 1 65 1.000000
0  -3.524563 -49.299858 -2.316339  0.000000 -0.893324 0.449414  0.005544 0.764057 1 65 1.000000
0  -3.541427 -49.143105 -2.004769  0.000000 -0.893324 0.449414  0.005513 0.763471 1 65 1.000000
lowpoly_plastic
0  -3.550390 -48.637848 -2.091209  0.000000 1.000000 0.000000  0.005383 0.763898 1 65 1.000000
0  -3.550107 -48.637848 -1.854542  0.000000 1.000000 0.000000  0.005382 0.763471 1 65 1.000000
0  -3.524563 -48.637848 -2.316339  0.000000 1.000000 0.000000  0.005336 0.764305 1 65 1.000000
lowpoly_plastic
0  -3.524563 -48.637848 -2.316339  0.998538 0.000000 0.054049  0.006404 0.763487 1 65 1.000000
0  -3.541427 -49.143105 -2.004769  0.998538 0.000000 0.054049  0.005848 0.764597 1 65 1.000000
0  -3.524563 -49.299858 -2.316339  0.998538 0.000000 0.054049  0.006404 0.764880 1 65 1.000000
lowpoly_plastic
0  -3.550107 -48.637848 -1.854542  0.998473 0.000731 0.055230  0.005580 0.763487 1 65 1.000000
0  -3.541427 -49.143105 -2.004769  0.998473 0.000731 0.055230  0.005848 0.764597 1 65 1.000000
0  -3.524563 -48.637848 -2.316339  0.998473 0.000731 0.055230  0.006404 0.763487 1 65 1.000000
lowpoly_plastic
0  -3.550107 -48.891899 -1.854542  0.998335 0.000000 0.057679  0.005580 0.764144 1 65 1.000000
0  -3.541427 -49.143105 -2.004769  0.998335 0.000000 0.057679  0.005848 0.764597 1 65 1.000000
0  -3.550107 -48.637848 -1.854542  0.998335 0.000000 0.057679  0.005580 0.763487 1 65 1.000000
lowpoly_plastic
0  -3.255146 -48.438446 -2.316339  1.000000 0.000000 0.000000  0.003828 0.762729 1 65 1.000000
0  -3.255146 -48.650238 -2.877634  1.000000 0.000000 0.000000  0.004210 0.763471 1 65 1.000000
0  -3.255146 -48.438446 -2.877634  1.000000 0.000000 0.000000  0.003828 0.763471 1 65 1.000000
lowpoly_plastic
0  -3.335522 -48.438446 -2.316339  0.000000 1.000000 0.000000  0.006023 0.762702 1 65 1.000000
0  -3.255146 -48.438446 -2.877634  0.000000 1.000000 0.000000  0.006241 0.763428 1 65 1.000000
0  -3.335522 -48.438446 -2.877634  0.000000 1.000000 0.000000  0.006097 0.763443 1 65 1.000000
lowpoly_plastic
0  -3.335522 -49.299858 -2.316339  0.000000 -1.000000 0.000000  0.003385 0.762742 1 65 1.000000
0  -3.582160 -49.299858 -2.877634  0.000000 -1.000000 0.000000  0.003755 0.763529 1 65 1.000000
0  -3.335522 -49.299858 -2.877634  0.000000 -1.000000 0.000000  0.003312 0.763486 1 65 1.000000
lowpoly_plastic
0  -3.255146 -49.299858 -2.316339  0.000000 -1.000000 0.000000  0.003241 0.762728 1 65 1.000000
0  -3.335522 -49.299858 -2.877634  0.000000 -1.000000 0.000000  0.003312 0.763486 1 65 1.000000
0  -3.255146 -49.299858 -2.877634  0.000000 -1.000000 0.000000  0.003168 0.763472 1 65 1.000000
lowpoly_plastic
0  -3.255146 -49.088066 -2.316339  1.000000 0.000000 0.000000  0.005198 0.762729 1 65 1.000000
0  -3.255146 -49.299858 -2.877634  1.000000 0.000000 0.000000  0.005580 0.763471 1 65 1.000000
0  -3.255146 -49.088066 -2.877634  1.000000 0.000000 0.000000  0.005198 0.763471 1 65 1.000000
lowpoly_plastic
0  -3.255146 -48.650238 -2.316339  1.000000 0.000000 0.000000  0.004210 0.762729 1 65 1.000000
0  -3.255146 -49.088066 -2.877634  1.000000 0.000000 0.000000  0.005198 0.763471 1 65 1.000000
0  -3.255146 -48.650238 -2.877634  1.000000 0.000000 0.000000  0.004210 0.763471 1 65 1.000000
lowpoly_plastic
0  -3.582160 -48.438446 -2.316339  0.000000 1.000000 0.000000  0.005580 0.762747 1 65 1.000000
0  -3.335522 -48.438446 -2.877634  0.000000 1.000000 0.000000  0.006097 0.763443 1 65 1.000000
0  -3.582160 -48.438446 -2.877634  0.000000 1.000000 0.000000  0.005654 0.763487 1 65 1.000000
lowpoly_plastic
0  -3.582160 -48.663162 -2.091209  0.000000 1.000000 0.000000  0.005440 0.764305 1 65 1.000000
0  -3.604762 -48.663162 -1.854542  0.000000 1.000000 0.000000  0.005382 0.763475 1 65 1.000000
0  -3.582160 -48.663162 -1.854542  0.000000 1.000000 0.000000  0.005440 0.763475 1 65 1.000000
lowpoly_plastic
0  -3.582160 -48.663162 -2.091209  0.000000 1.000000 -0.000045  0.005440 0.764305 1 65 1.000000
0  -3.582160 -48.663162 -1.854542  0.000000 1.000000 -0.000045  0.005440 0.763475 1 65 1.000000
0  -3.559558 -48.663162 -1.854542  0.000000 1.000000 -0.000045  0.005382 0.763475 1 65 1.000000
lowpoly_plastic
0  -3.604762 -48.637848 -1.854542  0.999251 0.000000 -0.038702  0.005382 0.763475 1 65 1.000000
0  -3.613930 -48.663162 -2.091209  0.999251 0.000000 -0.038702  0.005336 0.764305 1 65 1.000000
0  -3.613930 -48.637848 -2.091209  0.999251 0.000000 -0.038702  0.005336 0.764305 1 65 1.000000
lowpoly_plastic
0  -3.550390 -48.637848 -2.091209  -0.999251 0.000000 -0.038702  0.005336 0.764305 1 65 1.000000
0  -3.559558 -48.663162 -1.854542  -0.999251 0.000000 -0.038702  0.005382 0.763475 1 65 1.000000
0  -3.559558 -48.637848 -1.854542  -0.999251 0.000000 -0.038702  0.005382 0.763475 1 65 1.000000
lowpoly_plastic
0  -3.550390 -48.663162 -2.091209  0.000000 0.000000 1.000000  0.005336 0.764305 1 65 1.000000
0  -3.550390 -48.637848 -2.091209  0.000000 0.000000 1.000000  0.005336 0.764305 1 65 1.000000
0  -3.582160 -48.637848 -2.091209  0.000000 0.000000 1.000000  0.005440 0.764305 1 65 1.000000
lowpoly_plastic
0  -3.613930 -48.637848 -2.091209  0.000000 0.000000 1.000000  0.005336 0.764305 1 65 1.000000
0  -3.582160 -48.663162 -2.091209  0.000000 0.000000 1.000000  0.005440 0.764305 1 65 1.000000
0  -3.582160 -48.637848 -2.091209  0.000000 0.000000 1.000000  0.005440 0.764305 1 65 1.000000
lowpoly_glow
0  -3.582160 -48.663162 -2.091209  0.000000 -1.000000 0.000008  0.087290 0.025171 1 65 1.000000
0  -3.604717 -48.663162 -1.854542  0.000000 -1.000000 0.000008  0.087233 0.024338 1 65 1.000000
0  -3.613930 -48.663162 -2.091209  0.000000 -1.000000 0.000008  0.087186 0.025171 1 65 1.000000
lowpoly_glow
0  -3.582160 -48.663162 -2.091209  0.000000 -1.000000 0.000000  0.087290 0.025171 1 65 1.000000
0  -3.559603 -48.663162 -1.854542  0.000000 -1.000000 0.000000  0.087233 0.024338 1 65 1.000000
0  -3.582160 -48.663162 -1.854542  0.000000 -1.000000 0.000000  0.087290 0.024338 1 65 1.000000
lowpoly_glow
0  -3.582160 -48.628616 -2.091209  0.000000 1.000000 0.000000  0.087290 0.025171 1 65 1.000000
0  -3.604717 -48.628616 -1.854542  0.000000 1.000000 0.000000  0.087233 0.024338 1 65 1.000000
0  -3.582160 -48.628616 -1.854542  0.000000 1.000000 0.000000  0.087290 0.024338 1 65 1.000000
lowpoly_glow
0  -3.582160 -48.628616 -2.091209  0.000000 1.000000 0.000000  0.087290 0.025171 1 65 1.000000
0  -3.559603 -48.628616 -1.854542  0.000000 1.000000 0.000000  0.087233 0.024338 1 65 1.000000
0  -3.550390 -48.628616 -2.091209  0.000000 1.000000 0.000000  0.087186 0.025171 1 65 1.000000
lowpoly_glow
0  -3.613930 -48.663162 -2.091209  -0.999243 0.000000 0.038901  0.087186 0.025171 1 65 1.000000
0  -3.604717 -48.628616 -1.854542  -0.999243 0.000000 0.038901  0.087233 0.024338 1 65 1.000000
0  -3.613930 -48.628616 -2.091209  -0.999243 0.000000 0.038901  0.087186 0.025171 1 65 1.000000
lowpoly_glow
0  -3.559603 -48.663162 -1.854542  0.999243 0.000000 0.038901  0.087233 0.024338 1 65 1.000000
0  -3.550390 -48.628616 -2.091209  0.999243 0.000000 0.038901  0.087186 0.025171 1 65 1.000000
0  -3.559603 -48.628616 -1.854542  0.999243 0.000000 0.038901  0.087233 0.024338 1 65 1.000000
lowpoly_glow
0  -3.550390 -48.663162 -2.091209  0.000000 0.000000 -1.000000  0.087186 0.025171 1 65 1.000000
0  -3.582160 -48.628616 -2.091209  0.000000 0.000000 -1.000000  0.087290 0.025171 1 65 1.000000
0  -3.550390 -48.628616 -2.091209  0.000000 0.000000 -1.000000  0.087186 0.025171 1 65 1.000000
lowpoly_glow
0  -3.604717 -48.663162 -1.854542  0.000000 0.000000 1.000000  0.087233 0.024338 1 65 1.000000
0  -3.582160 -48.628616 -1.854542  0.000000 0.000000 1.000000  0.087290 0.024338 1 65 1.000000
0  -3.604717 -48.628616 -1.854542  0.000000 0.000000 1.000000  0.087233 0.024338 1 65 1.000000
lowpoly_glow
0  -3.582160 -48.663162 -2.091209  0.000000 0.000000 -1.000000  0.087290 0.025171 1 65 1.000000
0  -3.613930 -48.628616 -2.091209  0.000000 0.000000 -1.000000  0.087186 0.025171 1 65 1.000000
0  -3.582160 -48.628616 -2.091209  0.000000 0.000000 -1.000000  0.087290 0.025171 1 65 1.000000
lowpoly_glow
0  -3.582160 -48.663162 -1.854542  0.000000 0.000000 1.000000  0.087290 0.024338 1 65 1.000000
0  -3.559603 -48.628616 -1.854542  0.000000 0.000000 1.000000  0.087233 0.024338 1 65 1.000000
0  -3.582160 -48.628616 -1.854542  0.000000 0.000000 1.000000  0.087290 0.024338 1 65 1.000000
lowpoly_plastic
0  -3.582160 -49.088066 -2.316339  0.000000 0.000000 1.000000  0.006241 0.761820 1 65 1.000000
0  -3.828798 -49.088066 -2.316339  0.000000 0.000000 1.000000  0.006686 0.761820 1 65 1.000000
0  -3.828798 -49.299858 -2.316339  0.000000 0.000000 1.000000  0.006686 0.761438 1 65 1.000000
lowpoly_plastic
0  -3.828798 -49.088066 -2.316339  1.000000 0.000000 0.000000  0.005118 0.764841 1 65 1.000000
0  -3.828798 -49.088066 -2.089454  1.000000 0.000000 0.000000  0.004710 0.764841 1 65 1.000000
0  -3.828798 -49.299858 -2.089454  1.000000 0.000000 0.000000  0.004710 0.765224 1 65 1.000000
lowpoly_plastic
0  -3.828798 -49.088066 -2.089454  0.985420 0.000000 0.170141  0.004710 0.764841 1 65 1.000000
0  -3.871304 -49.088066 -1.843262  0.985420 0.000000 0.170141  0.004261 0.764841 1 65 1.000000
0  -3.871304 -49.299858 -1.843262  0.985420 0.000000 0.170141  0.004261 0.765224 1 65 1.000000
lowpoly_plastic
0  -3.951680 -49.088066 -1.843262  -0.985420 0.000000 -0.170141  0.005198 0.761872 1 65 1.000000
0  -3.909174 -49.088066 -2.089454  -0.985420 0.000000 -0.170141  0.005198 0.762322 1 65 1.000000
0  -3.909174 -49.299858 -2.089454  -0.985420 0.000000 -0.170141  0.005580 0.762322 1 65 1.000000
lowpoly_plastic
0  -3.909174 -49.088066 -2.089454  -1.000000 0.000000 0.000000  0.005198 0.762322 1 65 1.000000
0  -3.909174 -49.088066 -2.316339  -1.000000 0.000000 0.000000  0.005198 0.762729 1 65 1.000000
0  -3.909174 -49.299858 -2.316339  -1.000000 0.000000 0.000000  0.005580 0.762729 1 65 1.000000
lowpoly_plastic
0  -3.909174 -48.650238 -2.089454  -1.000000 0.000000 0.000000  0.004210 0.762322 1 65 1.000000
0  -3.909174 -48.650238 -2.316339  -1.000000 0.000000 0.000000  0.004210 0.762729 1 65 1.000000
0  -3.909174 -49.088066 -2.316339  -1.000000 0.000000 0.000000  0.005198 0.762729 1 65 1.000000
lowpoly_plastic
0  -3.951680 -48.650238 -1.843262  -0.985420 0.000000 -0.170138  0.004210 0.761872 1 65 1.000000
0  -3.909174 -48.650238 -2.089454  -0.985420 0.000000 -0.170138  0.004210 0.762322 1 65 1.000000
0  -3.909174 -49.088066 -2.089454  -0.985420 0.000000 -0.170138  0.005198 0.762322 1 65 1.000000
lowpoly_plastic
0  -4.019433 -48.650238 -1.608904  -0.960660 0.000000 -0.277726  0.004210 0.761438 1 65 1.000000
0  -3.951680 -48.650238 -1.843262  -0.960660 0.000000 -0.277726  0.004210 0.761872 1 65 1.000000
0  -3.951680 -49.088066 -1.843262  -0.960660 0.000000 -0.277726  0.005198 0.761872 1 65 1.000000
lowpoly_plastic
0  -3.939057 -48.650238 -1.608904  0.000000 0.000000 1.000000  0.005191 0.764459 1 65 1.000000
0  -4.019433 -48.650238 -1.608904  0.000000 0.000000 1.000000  0.005336 0.764459 1 65 1.000000
0  -4.019433 -49.088066 -1.608904  0.000000 0.000000 1.000000  0.005336 0.763471 1 65 1.000000
lowpoly_plastic
0  -3.871304 -48.650238 -1.843262  0.960660 0.000000 0.277726  0.004261 0.763853 1 65 1.000000
0  -3.939057 -48.650238 -1.608904  0.960660 0.000000 0.277726  0.003828 0.763854 1 65 1.000000
0  -3.939057 -49.088066 -1.608904  0.960660 0.000000 0.277726  0.003828 0.764841 1 65 1.000000
lowpoly_plastic
0  -3.828798 -48.650238 -2.089454  0.985420 0.000000 0.170142  0.004710 0.763853 1 65 1.000000
0  -3.871304 -48.650238 -1.843262  0.985420 0.000000 0.170142  0.004261 0.763853 1 65 1.000000
0  -3.871304 -49.088066 -1.843262  0.985420 0.000000 0.170142  0.004261 0.764841 1 65 1.000000
lowpoly_plastic
0  -3.828798 -48.650238 -2.316339  1.000000 0.000000 0.000000  0.005118 0.763853 1 65 1.000000
0  -3.828798 -48.650238 -2.089454  1.000000 0.000000 0.000000  0.004710 0.763853 1 65 1.000000
0  -3.828798 -49.088066 -2.089454  1.000000 0.000000 0.000000  0.004710 0.764841 1 65 1.000000
lowpoly_plastic
0  -3.582160 -48.650238 -2.316339  0.000000 0.000000 1.000000  0.006241 0.762808 1 65 1.000000
0  -3.828798 -48.650238 -2.316339  0.000000 0.000000 1.000000  0.006686 0.762808 1 65 1.000000
0  -3.828798 -49.088066 -2.316339  0.000000 0.000000 1.000000  0.006686 0.761820 1 65 1.000000
lowpoly_plastic
0  -3.582160 -48.438446 -2.316339  0.000000 0.000000 1.000000  0.006241 0.763190 1 65 1.000000
0  -3.828798 -48.438446 -2.316339  0.000000 0.000000 1.000000  0.006686 0.763190 1 65 1.000000
0  -3.828798 -48.650238 -2.316339  0.000000 0.000000 1.000000  0.006686 0.762808 1 65 1.000000
lowpoly_plastic
0  -3.828798 -48.438446 -2.316339  1.000000 0.000000 0.000000  0.005118 0.763471 1 65 1.000000
0  -3.828798 -48.438446 -2.089454  1.000000 0.000000 0.000000  0.004710 0.763471 1 65 1.000000
0  -3.828798 -48.650238 -2.089454  1.000000 0.000000 0.000000  0.004710 0.763853 1 65 1.000000
lowpoly_plastic
0  -3.828798 -48.438446 -2.089454  0.985420 0.000000 0.170141  0.004710 0.763471 1 65 1.000000
0  -3.871304 -48.438446 -1.843262  0.985420 0.000000 0.170141  0.004261 0.763471 1 65 1.000000
0  -3.871304 -48.650238 -1.843262  0.985420 0.000000 0.170141  0.004261 0.763853 1 65 1.000000
lowpoly_plastic
0  -3.939057 -48.650238 -1.608904  0.000000 0.741931 0.670477  0.006097 0.761453 1 65 1.000000
0  -3.871304 -48.438446 -1.843262  0.000000 0.741931 0.670477  0.006014 0.761849 1 65 1.000000
0  -3.951680 -48.438446 -1.843262  0.000000 0.741931 0.670477  0.006158 0.761835 1 65 1.000000
lowpoly_plastic
0  -3.951680 -48.438446 -1.843262  -0.985420 0.000000 -0.170141  0.003828 0.761872 1 65 1.000000
0  -3.909174 -48.438446 -2.089454  -0.985420 0.000000 -0.170141  0.003828 0.762322 1 65 1.000000
0  -3.909174 -48.650238 -2.089454  -0.985420 0.000000 -0.170141  0.004210 0.762322 1 65 1.000000
lowpoly_plastic
0  -3.909174 -48.438446 -2.089454  -1.000000 0.000000 0.000000  0.003828 0.762322 1 65 1.000000
0  -3.909174 -48.438446 -2.316339  -1.000000 0.000000 0.000000  0.003828 0.762729 1 65 1.000000
0  -3.909174 -48.650238 -2.316339  -1.000000 0.000000 0.000000  0.004210 0.762729 1 65 1.000000
lowpoly_plastic
0  -3.871304 -49.299858 -1.843262  0.000000 -0.741921 0.670487  0.003392 0.761885 1 65 1.000000
0  -3.939057 -49.088066 -1.608904  0.000000 -0.741921 0.670487  0.003312 0.761452 1 65 1.000000
0  -4.019433 -49.088066 -1.608904  0.000000 -0.741921 0.670487  0.003168 0.761438 1 65 1.000000
lowpoly_plastic
0  -3.828798 -49.299858 -2.089454  0.000000 -1.000000 0.000000  0.003425 0.762335 1 65 1.000000
0  -3.871304 -49.299858 -1.843262  0.000000 -1.000000 0.000000  0.003392 0.761885 1 65 1.000000
0  -3.951680 -49.299858 -1.843262  0.000000 -1.000000 0.000000  0.003248 0.761871 1 65 1.000000
lowpoly_plastic
0  -3.828798 -49.299858 -2.316339  0.000000 -1.000000 0.000000  0.003385 0.762742 1 65 1.000000
0  -3.828798 -49.299858 -2.089454  0.000000 -1.000000 0.000000  0.003425 0.762335 1 65 1.000000
0  -3.909174 -49.299858 -2.089454  0.000000 -1.000000 0.000000  0.003281 0.762320 1 65 1.000000
lowpoly_plastic
0  -3.871304 -48.438446 -1.843262  0.000000 1.000000 0.000000  0.006014 0.761849 1 65 1.000000
0  -3.828798 -48.438446 -2.089454  0.000000 1.000000 0.000000  0.005982 0.762297 1 65 1.000000
0  -3.909174 -48.438446 -2.089454  0.000000 1.000000 0.000000  0.006126 0.762282 1 65 1.000000
lowpoly_plastic
0  -3.828798 -48.438446 -2.089454  0.000000 1.000000 0.000000  0.005982 0.762297 1 65 1.000000
0  -3.828798 -48.438446 -2.316339  0.000000 1.000000 0.000000  0.006023 0.762702 1 65 1.000000
0  -3.909174 -48.438446 -2.316339  0.000000 1.000000 0.000000  0.006167 0.762688 1 65 1.000000
lowpoly_plastic
0  -3.604762 -48.637848 -1.854542  0.000000 0.000000 1.000000  0.005158 0.763471 1 65 1.000000
0  -3.614213 -48.637848 -1.854542  0.000000 0.000000 1.000000  0.005175 0.763471 1 65 1.000000
0  -3.604762 -48.663162 -1.854542  0.000000 0.000000 1.000000  0.005158 0.763534 1 65 1.000000
lowpoly_plastic
0  -3.614213 -48.637848 -1.854542  0.000000 0.000000 1.000000  0.005175 0.763471 1 65 1.000000
0  -3.614213 -48.891899 -1.854542  0.000000 0.000000 1.000000  0.005175 0.764104 1 65 1.000000
0  -3.604762 -48.663162 -1.854542  0.000000 0.000000 1.000000  0.005158 0.763534 1 65 1.000000
lowpoly_plastic
0  -3.582160 -48.891899 -1.854542  0.000000 0.000000 1.000000  0.005118 0.764104 1 65 1.000000
0  -3.582160 -48.663162 -1.854542  0.000000 0.000000 1.000000  0.005118 0.763534 1 65 1.000000
0  -3.582160 -48.663162 -1.854542  0.000000 0.000000 1.000000  0.005118 0.763534 1 65 1.000000
lowpoly_plastic
0  -3.582160 -48.891899 -1.854542  0.000000 0.000000 1.000000  0.005118 0.764104 1 65 1.000000
0  -3.582160 -48.663162 -1.854542  0.000000 0.000000 1.000000  0.005118 0.763534 1 65 1.000000
0  -3.604762 -48.663162 -1.854542  0.000000 0.000000 1.000000  0.005158 0.763534 1 65 1.000000
lowpoly_plastic
0  -3.582160 -48.891899 -1.854542  0.000000 -0.513252 0.858238  0.005118 0.764104 1 65 1.000000
0  -3.614213 -48.891899 -1.854542  0.000000 -0.513252 0.858238  0.005175 0.764104 1 65 1.000000
0  -3.622893 -49.143105 -2.004769  0.000000 -0.513252 0.858238  0.005191 0.764613 1 65 1.000000
lowpoly_plastic
0  -3.582160 -49.143105 -2.004769  0.000000 -0.893320 0.449421  0.005440 0.763471 1 65 1.000000
0  -3.622893 -49.143105 -2.004769  0.000000 -0.893320 0.449421  0.005513 0.763471 1 65 1.000000
0  -3.639757 -49.299858 -2.316339  0.000000 -0.893320 0.449421  0.005544 0.764057 1 65 1.000000
lowpoly_plastic
0  -3.582160 -48.637848 -2.091209  0.000000 0.000000 1.000000  0.005440 0.763898 1 65 1.000000
0  -3.582160 -48.637848 -2.316339  0.000000 0.000000 1.000000  0.005440 0.764305 1 65 1.000000
0  -3.582160 -48.637848 -2.091209  0.000000 0.000000 1.000000  0.005440 0.763898 1 65 1.000000
lowpoly_plastic
0  -3.582160 -48.637848 -2.316339  0.000000 1.000000 -0.000018  0.005440 0.764305 1 65 1.000000
0  -3.639757 -48.637848 -2.316339  0.000000 1.000000 -0.000018  0.005336 0.764305 1 65 1.000000
0  -3.613930 -48.637848 -2.091209  0.000000 1.000000 -0.000018  0.005383 0.763898 1 65 1.000000
lowpoly_plastic
0  -3.582160 -48.637848 -2.091209  0.000000 1.000000 0.000000  0.005440 0.763898 1 65 1.000000
0  -3.582160 -48.637848 -2.316339  0.000000 1.000000 0.000000  0.005440 0.764305 1 65 1.000000
0  -3.613930 -48.637848 -2.091209  0.000000 1.000000 0.000000  0.005383 0.763898 1 65 1.000000
lowpoly_plastic
0  -3.639757 -48.637848 -2.316339  0.000000 1.000000 0.000027  0.005336 0.764305 1 65 1.000000
0  -3.614213 -48.637848 -1.854542  0.000000 1.000000 0.000027  0.005382 0.763471 1 65 1.000000
0  -3.613930 -48.637848 -2.091209  0.000000 1.000000 0.000027  0.005383 0.763898 1 65 1.000000
lowpoly_plastic
0  -3.909174 -48.438446 -2.316339  -1.000000 0.000000 0.000000  0.003828 0.762729 1 65 1.000000
0  -3.909174 -48.438446 -2.877634  -1.000000 0.000000 0.000000  0.003828 0.763471 1 65 1.000000
0  -3.909174 -48.650238 -2.877634  -1.000000 0.000000 0.000000  0.004210 0.763471 1 65 1.000000
lowpoly_plastic
0  -3.828798 -48.438446 -2.316339  0.000000 1.000000 0.000000  0.006023 0.762702 1 65 1.000000
0  -3.828798 -48.438446 -2.877634  0.000000 1.000000 0.000000  0.006097 0.763443 1 65 1.000000
0  -3.909174 -48.438446 -2.877634  0.000000 1.000000 0.000000  0.006241 0.763428 1 65 1.000000
lowpoly_plastic
0  -3.828798 -49.299858 -2.316339  0.000000 -1.000000 0.000000  0.003385 0.762742 1 65 1.000000
0  -3.828798 -49.299858 -2.877634  0.000000 -1.000000 0.000000  0.003312 0.763486 1 65 1.000000
0  -3.582160 -49.299858 -2.877634  0.000000 -1.000000 0.000000  0.003755 0.763529 1 65 1.000000
lowpoly_plastic
0  -3.909174 -49.299858 -2.316339  0.000000 -1.000000 0.000000  0.003241 0.762728 1 65 1.000000
0  -3.909174 -49.299858 -2.877634  0.000000 -1.000000 0.000000  0.003168 0.763472 1 65 1.000000
0  -3.828798 -49.299858 -2.877634  0.000000 -1.000000 0.000000  0.003312 0.763486 1 65 1.000000
lowpoly_plastic
0  -3.909174 -49.088066 -2.316339  -1.000000 0.000000 0.000000  0.005198 0.762729 1 65 1.000000
0  -3.909174 -49.088066 -2.877634  -1.000000 0.000000 0.000000  0.005198 0.763471 1 65 1.000000
0  -3.909174 -49.299858 -2.877634  -1.000000 0.000000 0.000000  0.005580 0.763471 1 65 1.000000
lowpoly_plastic
0  -3.909174 -48.650238 -2.316339  -1.000000 0.000000 0.000000  0.004210 0.762729 1 65 1.000000
0  -3.909174 -48.650238 -2.877634  -1.000000 0.000000 0.000000  0.004210 0.763471 1 65 1.000000
0  -3.909174 -49.088066 -2.877634  -1.000000 0.000000 0.000000  0.005198 0.763471 1 65 1.000000
lowpoly_plastic
0  -3.582160 -48.438446 -2.316339  0.000000 1.000000 0.000000  0.005580 0.762747 1 65 1.000000
0  -3.582160 -48.438446 -2.877634  0.000000 1.000000 0.000000  0.005654 0.763487 1 65 1.000000
0  -3.828798 -48.438446 -2.877634  0.000000 1.000000 0.000000  0.006097 0.763443 1 65 1.000000
lowpoly_plastic
0  -3.582160 -49.088066 -2.316339  0.000000 0.000000 1.000000  0.006241 0.761820 1 65 1.000000
0  -3.582160 -49.299858 -2.316339  0.000000 0.000000 1.000000  0.006241 0.761438 1 65 1.000000
0  -3.335522 -49.299858 -2.316339  0.000000 0.000000 1.000000  0.006686 0.761438 1 65 1.000000
lowpoly_plastic
0  -3.335522 -49.088066 -2.316339  -1.000000 0.000000 0.000000  0.005118 0.764841 1 65 1.000000
0  -3.335522 -49.299858 -2.316339  -1.000000 0.000000 0.000000  0.005118 0.765224 1 65 1.000000
0  -3.335522 -49.299858 -2.089454  -1.000000 0.000000 0.000000  0.004710 0.765224 1 65 1.000000
lowpoly_plastic
0  -3.335522 -49.088066 -2.089454  -0.985421 0.000000 0.170133  0.004710 0.764841 1 65 1.000000
0  -3.335522 -49.299858 -2.089454  -0.985421 0.000000 0.170133  0.004710 0.765224 1 65 1.000000
0  -3.293016 -49.299858 -1.843262  -0.985421 0.000000 0.170133  0.004261 0.765224 1 65 1.000000
lowpoly_plastic
0  -3.212639 -49.088066 -1.843262  0.985420 0.000000 -0.170141  0.005198 0.761872 1 65 1.000000
0  -3.212639 -49.299858 -1.843262  0.985420 0.000000 -0.170141  0.005580 0.761872 1 65 1.000000
0  -3.255146 -49.299858 -2.089454  0.985420 0.000000 -0.170141  0.005580 0.762322 1 65 1.000000
lowpoly_plastic
0  -3.255146 -49.088066 -2.089454  1.000000 0.000000 0.000000  0.005198 0.762322 1 65 1.000000
0  -3.255146 -49.299858 -2.089454  1.000000 0.000000 0.000000  0.005580 0.762322 1 65 1.000000
0  -3.255146 -49.299858 -2.316339  1.000000 0.000000 0.000000  0.005580 0.762729 1 65 1.000000
lowpoly_plastic
0  -3.255146 -48.650238 -2.089454  1.000000 0.000000 0.000000  0.004210 0.762322 1 65 1.000000
0  -3.255146 -49.088066 -2.089454  1.000000 0.000000 0.000000  0.005198 0.762322 1 65 1.000000
0  -3.255146 -49.088066 -2.316339  1.000000 0.000000 0.000000  0.005198 0.762729 1 65 1.000000
lowpoly_plastic
0  -3.212639 -48.650238 -1.843262  0.985420 0.000000 -0.170138  0.004210 0.761872 1 65 1.000000
0  -3.212639 -49.088066 -1.843262  0.985420 0.000000 -0.170138  0.005198 0.761872 1 65 1.000000
0  -3.255146 -49.088066 -2.089454  0.985420 0.000000 -0.170138  0.005198 0.762322 1 65 1.000000
lowpoly_plastic
0  -3.144886 -48.650238 -1.608904  0.960660 0.000000 -0.277726  0.004210 0.761438 1 65 1.000000
0  -3.144886 -49.088066 -1.608904  0.960660 0.000000 -0.277726  0.005198 0.761438 1 65 1.000000
0  -3.212639 -49.088066 -1.843262  0.960660 0.000000 -0.277726  0.005198 0.761872 1 65 1.000000
lowpoly_plastic
0  -3.225262 -48.650238 -1.608904  0.000000 0.000000 1.000000  0.005191 0.764459 1 65 1.000000
0  -3.225262 -49.088066 -1.608904  0.000000 0.000000 1.000000  0.005191 0.763471 1 65 1.000000
0  -3.144886 -49.088066 -1.608904  0.000000 0.000000 1.000000  0.005336 0.763471 1 65 1.000000
lowpoly_plastic
0  -3.293016 -48.650238 -1.843262  -0.960660 0.000000 0.277726  0.004261 0.763853 1 65 1.000000
0  -3.293016 -49.088066 -1.843262  -0.960660 0.000000 0.277726  0.004261 0.764841 1 65 1.000000
0  -3.225262 -49.088066 -1.608904  -0.960660 0.000000 0.277726  0.003828 0.764841 1 65 1.000000
lowpoly_plastic
0  -3.335522 -48.650238 -2.089454  -0.985420 0.000000 0.170138  0.004710 0.763853 1 65 1.000000
0  -3.335522 -49.088066 -2.089454  -0.985420 0.000000 0.170138  0.004710 0.764841 1 65 1.000000
0  -3.293016 -49.088066 -1.843262  -0.985420 0.000000 0.170138  0.004261 0.764841 1 65 1.000000
lowpoly_plastic
0  -3.335522 -48.650238 -2.316339  -1.000000 0.000000 0.000000  0.005118 0.763853 1 65 1.000000
0  -3.335522 -49.088066 -2.316339  -1.000000 0.000000 0.000000  0.005118 0.764841 1 65 1.000000
0  -3.335522 -49.088066 -2.089454  -1.000000 0.000000 0.000000  0.004710 0.764841 1 65 1.000000
lowpoly_plastic
0  -3.582160 -48.650238 -2.316339  0.000000 0.000000 1.000000  0.006241 0.762808 1 65 1.000000
0  -3.582160 -49.088066 -2.316339  0.000000 0.000000 1.000000  0.006241 0.761820 1 65 1.000000
0  -3.335522 -49.088066 -2.316339  0.000000 0.000000 1.000000  0.006686 0.761820 1 65 1.000000
lowpoly_plastic
0  -3.582160 -48.438446 -2.316339  0.000000 0.000000 1.000000  0.006241 0.763190 1 65 1.000000
0  -3.582160 -48.650238 -2.316339  0.000000 0.000000 1.000000  0.006241 0.762808 1 65 1.000000
0  -3.335522 -48.650238 -2.316339  0.000000 0.000000 1.000000  0.006686 0.762808 1 65 1.000000
lowpoly_plastic
0  -3.335522 -48.438446 -2.316339  -1.000000 0.000000 0.000000  0.005118 0.763471 1 65 1.000000
0  -3.335522 -48.650238 -2.316339  -1.000000 0.000000 0.000000  0.005118 0.763853 1 65 1.000000
0  -3.335522 -48.650238 -2.089454  -1.000000 0.000000 0.000000  0.004710 0.763853 1 65 1.000000
lowpoly_plastic
0  -3.335522 -48.438446 -2.089454  -0.985420 0.000000 0.170141  0.004710 0.763471 1 65 1.000000
0  -3.335522 -48.650238 -2.089454  -0.985420 0.000000 0.170141  0.004710 0.763853 1 65 1.000000
0  -3.293016 -48.650238 -1.843262  -0.985420 0.000000 0.170141  0.004261 0.763853 1 65 1.000000
lowpoly_plastic
0  -3.225262 -48.650238 -1.608904  0.000000 0.741921 0.670487  0.006097 0.761453 1 65 1.000000
0  -3.144886 -48.650238 -1.608904  0.000000 0.741921 0.670487  0.006241 0.761438 1 65 1.000000
0  -3.212639 -48.438446 -1.843262  0.000000 0.741921 0.670487  0.006158 0.761835 1 65 1.000000
lowpoly_plastic
0  -3.212639 -48.438446 -1.843262  0.985421 0.000000 -0.170132  0.003828 0.761872 1 65 1.000000
0  -3.212639 -48.650238 -1.843262  0.985421 0.000000 -0.170132  0.004210 0.761872 1 65 1.000000
0  -3.255146 -48.650238 -2.089454  0.985421 0.000000 -0.170132  0.004210 0.762322 1 65 1.000000
lowpoly_plastic
0  -3.255146 -48.438446 -2.089454  1.000000 0.000000 0.000000  0.003828 0.762322 1 65 1.000000
0  -3.255146 -48.650238 -2.089454  1.000000 0.000000 0.000000  0.004210 0.762322 1 65 1.000000
0  -3.255146 -48.650238 -2.316339  1.000000 0.000000 0.000000  0.004210 0.762729 1 65 1.000000
lowpoly_plastic
0  -3.293016 -49.299858 -1.843262  0.000000 -0.741935 0.670472  0.003392 0.761885 1 65 1.000000
0  -3.212639 -49.299858 -1.843262  0.000000 -0.741935 0.670472  0.003248 0.761871 1 65 1.000000
0  -3.144886 -49.088066 -1.608904  0.000000 -0.741935 0.670472  0.003168 0.761438 1 65 1.000000
lowpoly_plastic
0  -3.335522 -49.299858 -2.089454  0.000000 -1.000000 0.000000  0.003425 0.762335 1 65 1.000000
0  -3.255146 -49.299858 -2.089454  0.000000 -1.000000 0.000000  0.003281 0.762320 1 65 1.000000
0  -3.212639 -49.299858 -1.843262  0.000000 -1.000000 0.000000  0.003248 0.761871 1 65 1.000000
lowpoly_plastic
0  -3.335522 -49.299858 -2.316339  0.000000 -1.000000 0.000000  0.003385 0.762742 1 65 1.000000
0  -3.255146 -49.299858 -2.316339  0.000000 -1.000000 0.000000  0.003241 0.762728 1 65 1.000000
0  -3.255146 -49.299858 -2.089454  0.000000 -1.000000 0.000000  0.003281 0.762320 1 65 1.000000
lowpoly_plastic
0  -3.293016 -48.438446 -1.843262  0.000000 1.000000 -0.000024  0.006014 0.761849 1 65 1.000000
0  -3.212639 -48.438446 -1.843262  0.000000 1.000000 -0.000024  0.006158 0.761835 1 65 1.000000
0  -3.255146 -48.438446 -2.089454  0.000000 1.000000 -0.000024  0.006126 0.762282 1 65 1.000000
lowpoly_plastic
0  -3.335522 -48.438446 -2.089454  0.000000 1.000000 0.000000  0.005982 0.762297 1 65 1.000000
0  -3.255146 -48.438446 -2.089454  0.000000 1.000000 0.000000  0.006126 0.762282 1 65 1.000000
0  -3.255146 -48.438446 -2.316339  0.000000 1.000000 0.000000  0.006167 0.762688 1 65 1.000000
lowpoly_plastic
0  -3.559558 -48.663162 -1.854542  0.000000 0.000000 1.000000  0.005158 0.763534 1 65 1.000000
0  -3.582160 -48.663162 -1.854542  0.000000 0.000000 1.000000  0.005118 0.763534 1 65 1.000000
0  -3.582160 -48.891899 -1.854542  0.000000 0.000000 1.000000  0.005118 0.764104 1 65 1.000000
lowpoly_plastic
0  -3.582160 -48.891899 -1.854542  0.000000 0.000000 1.000000  0.005118 0.764104 1 65 1.000000
0  -3.550107 -48.891899 -1.854542  0.000000 0.000000 1.000000  0.005175 0.764104 1 65 1.000000
0  -3.559558 -48.663162 -1.854542  0.000000 0.000000 1.000000  0.005158 0.763534 1 65 1.000000
lowpoly_plastic
0  -3.550107 -48.891899 -1.854542  -0.000006 0.000000 1.000000  0.005175 0.764104 1 65 1.000000
0  -3.550107 -48.637848 -1.854542  -0.000006 0.000000 1.000000  0.005175 0.763471 1 65 1.000000
0  -3.559558 -48.663162 -1.854542  -0.000006 0.000000 1.000000  0.005158 0.763534 1 65 1.000000
lowpoly_plastic
0  -3.582160 -48.891899 -1.854542  0.000000 -0.513241 0.858245  0.005118 0.764104 1 65 1.000000
0  -3.582160 -49.143105 -2.004769  0.000000 -0.513241 0.858245  0.005118 0.764613 1 65 1.000000
0  -3.541427 -49.143105 -2.004769  0.000000 -0.513241 0.858245  0.005191 0.764613 1 65 1.000000
lowpoly_plastic
0  -3.582160 -49.143105 -2.004769  0.000000 -0.893306 0.449448  0.005440 0.763471 1 65 1.000000
0  -3.582160 -49.299858 -2.316339  0.000000 -0.893306 0.449448  0.005440 0.764057 1 65 1.000000
0  -3.524563 -49.299858 -2.316339  0.000000 -0.893306 0.449448  0.005544 0.764057 1 65 1.000000
lowpoly_plastic
0  -3.550390 -48.637848 -2.091209  0.000000 1.000000 0.000000  0.005383 0.763898 1 65 1.000000
0  -3.559558 -48.637848 -1.854542  0.000000 1.000000 0.000000  0.005399 0.763471 1 65 1.000000
0  -3.550107 -48.637848 -1.854542  0.000000 1.000000 0.000000  0.005382 0.763471 1 65 1.000000
lowpoly_plastic
0  -3.524563 -48.637848 -2.316339  0.000000 1.000000 0.000018  0.005336 0.764305 1 65 1.000000
0  -3.582160 -48.637848 -2.316339  0.000000 1.000000 0.000018  0.005440 0.764305 1 65 1.000000
0  -3.550390 -48.637848 -2.091209  0.000000 1.000000 0.000018  0.005383 0.763898 1 65 1.000000
lowpoly_plastic
0  -3.582160 -48.637848 -2.316339  0.000000 1.000000 0.000000  0.005440 0.764305 1 65 1.000000
0  -3.582160 -48.637848 -2.091209  0.000000 1.000000 0.000000  0.005440 0.763898 1 65 1.000000
0  -3.550390 -48.637848 -2.091209  0.000000 1.000000 0.000000  0.005383 0.763898 1 65 1.000000
lowpoly_plastic
0  -3.255146 -48.438446 -2.316339  1.000000 0.000000 0.000000  0.003828 0.762729 1 65 1.000000
0  -3.255146 -48.650238 -2.316339  1.000000 0.000000 0.000000  0.004210 0.762729 1 65 1.000000
0  -3.255146 -48.650238 -2.877634  1.000000 0.000000 0.000000  0.004210 0.763471 1 65 1.000000
lowpoly_plastic
0  -3.335522 -48.438446 -2.316339  0.000000 1.000000 0.000000  0.006023 0.762702 1 65 1.000000
0  -3.255146 -48.438446 -2.316339  0.000000 1.000000 0.000000  0.006167 0.762688 1 65 1.000000
0  -3.255146 -48.438446 -2.877634  0.000000 1.000000 0.000000  0.006241 0.763428 1 65 1.000000
lowpoly_plastic
0  -3.335522 -49.299858 -2.316339  0.000000 -1.000000 0.000000  0.003385 0.762742 1 65 1.000000
0  -3.582160 -49.299858 -2.316339  0.000000 -1.000000 0.000000  0.003828 0.762785 1 65 1.000000
0  -3.582160 -49.299858 -2.877634  0.000000 -1.000000 0.000000  0.003755 0.763529 1 65 1.000000
lowpoly_plastic
0  -3.255146 -49.299858 -2.316339  0.000000 -1.000000 0.000000  0.003241 0.762728 1 65 1.000000
0  -3.335522 -49.299858 -2.316339  0.000000 -1.000000 0.000000  0.003385 0.762742 1 65 1.000000
0  -3.335522 -49.299858 -2.877634  0.000000 -1.000000 0.000000  0.003312 0.763486 1 65 1.000000
lowpoly_plastic
0  -3.255146 -49.088066 -2.316339  1.000000 0.000000 0.000000  0.005198 0.762729 1 65 1.000000
0  -3.255146 -49.299858 -2.316339  1.000000 0.000000 0.000000  0.005580 0.762729 1 65 1.000000
0  -3.255146 -49.299858 -2.877634  1.000000 0.000000 0.000000  0.005580 0.763471 1 65 1.000000
lowpoly_plastic
0  -3.255146 -48.650238 -2.316339  1.000000 0.000000 0.000000  0.004210 0.762729 1 65 1.000000
0  -3.255146 -49.088066 -2.316339  1.000000 0.000000 0.000000  0.005198 0.762729 1 65 1.000000
0  -3.255146 -49.088066 -2.877634  1.000000 0.000000 0.000000  0.005198 0.763471 1 65 1.000000
lowpoly_plastic
0  -3.582160 -48.438446 -2.316339  0.000000 1.000000 0.000000  0.005580 0.762747 1 65 1.000000
0  -3.335522 -48.438446 -2.316339  0.000000 1.000000 0.000000  0.006023 0.762702 1 65 1.000000
0  -3.335522 -48.438446 -2.877634  0.000000 1.000000 0.000000  0.006097 0.763443 1 65 1.000000
lowpoly_plastic
0  -3.582160 -48.663162 -2.091209  0.000000 1.000000 -0.000008  0.005440 0.764305 1 65 1.000000
0  -3.613930 -48.663162 -2.091209  0.000000 1.000000 -0.000008  0.005336 0.764305 1 65 1.000000
0  -3.604762 -48.663162 -1.854542  0.000000 1.000000 -0.000008  0.005382 0.763475 1 65 1.000000
lowpoly_plastic
0  -3.559558 -48.663162 -1.854542  0.000000 1.000000 0.000032  0.005382 0.763475 1 65 1.000000
0  -3.550390 -48.663162 -2.091209  0.000000 1.000000 0.000032  0.005336 0.764305 1 65 1.000000
0  -3.582160 -48.663162 -2.091209  0.000000 1.000000 0.000032  0.005440 0.764305 1 65 1.000000
lowpoly_plastic
0  -3.582160 -48.663162 -2.091209  0.000000 1.000000 0.000000  0.005440 0.764305 1 65 1.000000
0  -3.582160 -48.663162 -1.854542  0.000000 1.000000 0.000000  0.005440 0.763475 1 65 1.000000
0  -3.582160 -48.663162 -1.854542  0.000000 1.000000 0.000000  0.005440 0.763475 1 65 1.000000
lowpoly_plastic
0  -3.604762 -48.637848 -1.854542  0.999250 0.000000 -0.038712  0.005382 0.763475 1 65 1.000000
0  -3.604762 -48.663162 -1.854542  0.999250 0.000000 -0.038712  0.005382 0.763475 1 65 1.000000
0  -3.613930 -48.663162 -2.091209  0.999250 0.000000 -0.038712  0.005336 0.764305 1 65 1.000000
lowpoly_plastic
0  -3.550390 -48.637848 -2.091209  -0.999250 0.000000 -0.038712  0.005336 0.764305 1 65 1.000000
0  -3.550390 -48.663162 -2.091209  -0.999250 0.000000 -0.038712  0.005336 0.764305 1 65 1.000000
0  -3.559558 -48.663162 -1.854542  -0.999250 0.000000 -0.038712  0.005382 0.763475 1 65 1.000000
lowpoly_plastic
0  -3.582160 -48.637848 -2.091209  0.000000 0.000000 1.000000  0.005440 0.764305 1 65 1.000000
0  -3.582160 -48.637848 -2.091209  0.000000 0.000000 1.000000  0.005440 0.764305 1 65 1.000000
0  -3.582160 -48.663162 -2.091209  0.000000 0.000000 1.000000  0.005440 0.764305 1 65 1.000000
lowpoly_plastic
0  -3.582160 -48.663162 -2.091209  0.000000 0.000000 1.000000  0.005440 0.764305 1 65 1.000000
0  -3.550390 -48.663162 -2.091209  0.000000 0.000000 1.000000  0.005336 0.764305 1 65 1.000000
0  -3.582160 -48.637848 -2.091209  0.000000 0.000000 1.000000  0.005440 0.764305 1 65 1.000000
lowpoly_plastic
0  -3.613930 -48.637848 -2.091209  0.000000 0.000000 1.000000  0.005336 0.764305 1 65 1.000000
0  -3.613930 -48.663162 -2.091209  0.000000 0.000000 1.000000  0.005336 0.764305 1 65 1.000000
0  -3.582160 -48.663162 -2.091209  0.000000 0.000000 1.000000  0.005440 0.764305 1 65 1.000000
lowpoly_glow
0  -3.582160 -48.663162 -2.091209  0.000000 -1.000000 0.000000  0.087290 0.025171 1 65 1.000000
0  -3.582160 -48.663162 -1.854542  0.000000 -1.000000 0.000000  0.087290 0.024338 1 65 1.000000
0  -3.604717 -48.663162 -1.854542  0.000000 -1.000000 0.000000  0.087233 0.024338 1 65 1.000000
lowpoly_glow
0  -3.582160 -48.663162 -2.091209  0.000000 -1.000000 -0.000024  0.087290 0.025171 1 65 1.000000
0  -3.550390 -48.663162 -2.091209  0.000000 -1.000000 -0.000024  0.087186 0.025171 1 65 1.000000
0  -3.559603 -48.663162 -1.854542  0.000000 -1.000000 -0.000024  0.087233 0.024338 1 65 1.000000
lowpoly_glow
0  -3.582160 -48.628616 -2.091209  0.000000 1.000000 0.000000  0.087290 0.025171 1 65 1.000000
0  -3.613930 -48.628616 -2.091209  0.000000 1.000000 0.000000  0.087186 0.025171 1 65 1.000000
0  -3.604717 -48.628616 -1.854542  0.000000 1.000000 0.000000  0.087233 0.024338 1 65 1.000000
lowpoly_glow
0  -3.582160 -48.628616 -2.091209  0.000000 1.000000 0.000000  0.087290 0.025171 1 65 1.000000
0  -3.582160 -48.628616 -1.854542  0.000000 1.000000 0.000000  0.087290 0.024338 1 65 1.000000
0  -3.559603 -48.628616 -1.854542  0.000000 1.000000 0.000000  0.087233 0.024338 1 65 1.000000
lowpoly_glow
0  -3.613930 -48.663162 -2.091209  -0.999243 0.000000 0.038894  0.087186 0.025171 1 65 1.000000
0  -3.604717 -48.663162 -1.854542  -0.999243 0.000000 0.038894  0.087233 0.024338 1 65 1.000000
0  -3.604717 -48.628616 -1.854542  -0.999243 0.000000 0.038894  0.087233 0.024338 1 65 1.000000
lowpoly_glow
0  -3.559603 -48.663162 -1.854542  0.999243 0.000000 0.038894  0.087233 0.024338 1 65 1.000000
0  -3.550390 -48.663162 -2.091209  0.999243 0.000000 0.038894  0.087186 0.025171 1 65 1.000000
0  -3.550390 -48.628616 -2.091209  0.999243 0.000000 0.038894  0.087186 0.025171 1 65 1.000000
lowpoly_glow
0  -3.550390 -48.663162 -2.091209  0.000000 0.000000 -1.000000  0.087186 0.025171 1 65 1.000000
0  -3.582160 -48.663162 -2.091209  0.000000 0.000000 -1.000000  0.087290 0.025171 1 65 1.000000
0  -3.582160 -48.628616 -2.091209  0.000000 0.000000 -1.000000  0.087290 0.025171 1 65 1.000000
lowpoly_glow
0  -3.604717 -48.663162 -1.854542  0.000000 0.000000 1.000000  0.087233 0.024338 1 65 1.000000
0  -3.582160 -48.663162 -1.854542  0.000000 0.000000 1.000000  0.087290 0.024338 1 65 1.000000
0  -3.582160 -48.628616 -1.854542  0.000000 0.000000 1.000000  0.087290 0.024338 1 65 1.000000
lowpoly_glow
0  -3.582160 -48.663162 -2.091209  0.000000 0.000000 -1.000000  0.087290 0.025171 1 65 1.000000
0  -3.613930 -48.663162 -2.091209  0.000000 0.000000 -1.000000  0.087186 0.025171 1 65 1.000000
0  -3.613930 -48.628616 -2.091209  0.000000 0.000000 -1.000000  0.087186 0.025171 1 65 1.000000
lowpoly_glow
0  -3.582160 -48.663162 -1.854542  0.000000 0.000000 1.000000  0.087290 0.024338 1 65 1.000000
0  -3.559603 -48.663162 -1.854542  0.000000 0.000000 1.000000  0.087233 0.024338 1 65 1.000000
0  -3.559603 -48.628616 -1.854542  0.000000 0.000000 1.000000  0.087233 0.024338 1 65 1.000000
end
