version 1
nodes
0 "blender_implicit" -1
1 "ValveBiped.Bip01_Spine4" -1
2 "ValveBiped.Bip01_L_Clavicle" 1
3 "ValveBiped.Bip01_L_UpperArm" 2
4 "ValveBiped.Bip01_L_Forearm" 3
5 "ValveBiped.Bip01_L_Hand" 4
6 "ValveBiped.Bip01_L_Finger4" 5
7 "ValveBiped.Bip01_L_Finger41" 6
8 "ValveBiped.Bip01_L_Finger42" 7
9 "ValveBiped.Bip01_L_Finger3" 5
10 "ValveBiped.Bip01_L_Finger31" 9
11 "ValveBiped.Bip01_L_Finger32" 10
12 "ValveBiped.Bip01_L_Finger2" 5
13 "ValveBiped.Bip01_L_Finger21" 12
14 "ValveBiped.Bip01_L_Finger22" 13
15 "ValveBiped.Bip01_L_Finger1" 5
16 "ValveBiped.Bip01_L_Finger11" 15
17 "ValveBiped.Bip01_L_Finger12" 16
18 "ValveBiped.Bip01_L_Finger0" 5
19 "ValveBiped.Bip01_L_Finger01" 18
20 "ValveBiped.Bip01_L_Finger02" 19
21 "ValveBiped.Bip01_L_Ulna" 4
22 "ValveBiped.Bip01_L_Wrist" 4
23 "rig_l_upperarm" 2
24 "rig_l_forearm" 23
25 "rig_d_l_forearm" 24
26 "rig_d_l_upperarm" 23
27 "ValveBiped.Bip01_R_Clavicle" 1
28 "ValveBiped.Bip01_R_UpperArm" 27
29 "ValveBiped.Bip01_R_Forearm" 28
30 "ValveBiped.Bip01_R_Hand" 29
31 "ValveBiped.Bip01_R_Finger4" 30
32 "ValveBiped.Bip01_R_Finger41" 31
33 "ValveBiped.Bip01_R_Finger42" 32
34 "ValveBiped.Bip01_R_Finger3" 30
35 "ValveBiped.Bip01_R_Finger31" 34
36 "ValveBiped.Bip01_R_Finger32" 35
37 "ValveBiped.Bip01_R_Finger2" 30
38 "ValveBiped.Bip01_R_Finger21" 37
39 "ValveBiped.Bip01_R_Finger22" 38
40 "ValveBiped.Bip01_R_Finger1" 30
41 "ValveBiped.Bip01_R_Finger11" 40
42 "ValveBiped.Bip01_R_Finger12" 41
43 "ValveBiped.Bip01_R_Finger0" 30
44 "ValveBiped.Bip01_R_Finger01" 43
45 "ValveBiped.Bip01_R_Finger02" 44
46 "ValveBiped.Bip01_R_Ulna" 29
47 "ValveBiped.Bip01_R_Wrist" 29
48 "rig_r_upperarm" 27
49 "rig_r_forearm" 48
50 "rig_d_r_forearm" 49
51 "rig_d_r_upperarm" 48
52 "rig_r_hand" -1
53 "rig_d_r_hand" 52
54 "rig_d_r_wrist" 53
55 "rig_l_hand" -1
56 "rig_d_l_hand" 55
57 "rig_d_l_wrist" 55
58 "rig_l_pole" -1
59 "rig_r_pole" -1
60 "rig_l_clavicle" -1
61 "rig_d_l_clavicle" 60
62 "rig_r_clavicle" -1
63 "rig_d_r_clavicle" 62
64 "Camera" -1
65 "body" -1
66 "trigger" 65
67 "boltprot" 65
68 "bolt" 67
69 "hammer" 67
70 "magrel" 65
71 "mag" -1
72 "round1" 71
73 "round2" 71
74 "round3" 71
end
skeleton
time 0
0  0 0 0  0 0 0
1  0.000006 0.000000 0.000000  -1.570800 -1.391899 -1.570792
2  2.033349 1.000767 1.937657  -1.544956 -1.855077 -0.198630
3  6.027514 -0.000325 0.000205  -1.652955 0.191603 -0.543421
4  11.692116 0.000648 -0.000740  -0.000036 0.000009 -0.432884
5  11.480583 0.000050 -0.000728  1.650634 -0.092836 0.261130
6  3.859507 -0.142881 -1.192049  -0.468164 0.151540 -0.880272
7  1.312590 0.000015 0.000009  -0.000026 0.000045 -0.439738
8  0.729355 0.000053 0.000050  0.000017 0.000021 -0.244318
9  3.942144 0.046271 -0.431512  -0.151810 0.073212 -0.811101
10  1.539109 0.000083 0.000006  -0.000007 0.000021 -0.247841
11  1.196330 0.000145 0.000030  0.000012 0.000019 -0.430771
12  3.883506 -0.047273 0.431382  0.085898 0.021851 -0.587925
13  1.719573 -0.000025 0.000015  0.000015 0.005519 -0.366533
14  1.209179 0.000088 0.000012  0.000004 0.003092 -0.216437
15  3.859662 -0.138478 1.332410  0.354468 -0.042725 -0.531804
16  1.719447 -0.000007 0.000022  0.000029 0.004070 -0.363021
17  1.099675 0.000048 0.000005  0.000003 0.002579 -0.244381
18  0.805994 -0.349051 1.321254  -1.222687 -0.679194 -0.788886
19  1.789820 -0.000002 -0.000020  0.000012 -0.000024 0.228522
20  1.207015 -0.000010 -0.000040  0.000002 -0.000008 0.362857
21  5.740634 0.000410 -0.000703  0.058597 0.000003 0.000071
22  11.481129 0.000221 -0.000804  0.019173 0.004831 0.043766
23  6.027524 -0.000330 0.000203  -2.907607 -0.606664 0.892243
24  0.000000 11.692098 -0.000007  -0.326488 -0.045544 -0.274549
25  0.000003 0.000009 -0.000002  0.868996 -0.000031 1.570739
26  -0.000001 -0.000011 -0.000001  0.868957 0.000002 1.570712
27  2.033355 1.000772 -1.937609  1.473120 1.855075 -0.198639
28  6.027507 -0.000258 -0.000239  1.618784 -0.163589 -0.610569
29  11.691988 0.000245 0.000857  -0.000018 -0.000002 -0.453142
30  11.480968 0.000040 0.000817  -1.539829 0.081598 0.286299
31  3.859436 -0.132787 1.193062  0.466289 -0.158048 -0.878829
32  1.312555 0.000022 0.000000  0.000013 -0.000043 -0.439712
33  0.729346 0.000065 -0.000028  -0.000023 -0.000019 -0.244285
34  3.942044 0.050110 0.430997  0.150090 -0.079180 -0.810196
35  1.539100 0.000006 -0.000000  0.000009 -0.000008 -0.247824
36  1.196298 0.000076 -0.000004  -0.000007 -0.000009 -0.430783
37  3.883411 -0.050502 -0.431087  -0.085915 -0.026391 -0.587669
38  1.719564 -0.000080 -0.000004  -0.000007 -0.007962 -0.366484
39  1.209196 0.000036 0.000011  0.000002 -0.004460 -0.216413
40  3.859583 -0.149109 -1.331323  -0.354445 0.038579 -0.531964
41  1.719414 -0.000100 -0.000035  -0.000030 -0.006585 -0.363031
42  1.099671 0.000023 0.000006  0.000004 -0.004187 -0.244346
43  0.805978 -0.359852 -1.318338  1.221444 0.673632 -0.793566
44  1.789781 -0.000009 -0.000046  -0.000028 0.000031 0.228552
45  1.206995 -0.000005 0.000006  -0.000017 0.000020 0.362911
46  5.740570 0.000055 0.000725  -0.045554 -0.000014 0.000021
47  11.481135 0.000044 0.000914  0.005679 -0.004320 0.046534
48  6.027514 -0.000273 -0.000237  0.205055 -0.643655 -2.305609
49  -0.000001 11.691974 -0.000006  -0.341341 0.049805 0.286916
50  0.000003 -0.000000 0.000001  2.272569 -0.000041 1.570856
51  -0.000006 -0.000015 0.000005  2.272644 -0.000030 1.570865
52  -21.990076 -1.846167 -17.364054  -1.607814 2.338392 -0.050266
53  -0.000003 -0.000000 -0.000000  0.008153 -0.000259 0.000009
54  -0.000000 0.000001 0.000000  1.565115 0.043565 -0.106862
55  23.316473 -1.910260 -16.261993  1.603333 0.720529 0.034207
56  -0.000003 0.000001 -0.000000  0.000000 -0.000000 -0.000002
57  0.000029 0.000031 0.000001  -1.571901 -0.044449 -0.106509
58  15.265023 8.339654 -8.787539  1.570796 -0.000000 0.000000
59  -15.265000 8.339654 -8.787539  1.570796 -0.000000 0.000000
60  1.941978 -1.346989 1.821586  1.570796 -0.000000 0.000000
61  -0.004311 0.001230 -0.000371  0.006898 -0.005534 -0.284229
62  -1.937603 -1.346625 1.822824  1.570796 -0.000000 0.000000
63  0.000000 0.000000 0.000000  -0.078727 -3.136056 0.284226
64  0.000000 0.000000 0.000000  1.570796 -0.000000 0.000000
65  -3.579263 -15.969442 -2.768752  1.570796 -0.000000 0.000000
66  0.000002 -2.923558 -1.408042  0.000000 -0.000000 0.000000
67  -0.000002 -0.601197 -2.062164  0.000000 -0.000000 0.000000
68  0.004380 -0.039407 6.613115  0.000000 -0.000000 0.000000
69  0.000002 -0.021786 -0.115849  0.000000 -0.000000 0.000000
70  0.000002 -3.304881 0.259169  0.000000 -0.000000 0.000000
71  -3.579264 -20.706579 -4.028905  1.570796 -0.000000 0.000000
72  0.057100 0.204433 -2.709597  0.000000 -0.000000 0.000000
73  0.111673 -0.283001 -2.709597  0.000000 -0.000000 0.000000
74  -0.128217 -0.750370 -2.709597  0.000000 -0.000000 0.000000
end
triangles
lowpoly_plastic
0  -3.952880 -15.544040 -1.933105  -0.461434 0.000000 0.887174  0.086086 0.628693 1 65 1.000000
0  -4.031961 -15.150292 -1.974237  -0.461437 0.000000 0.887173  0.086203 0.628111 1 65 1.000000
0  -4.031961 -15.567838 -1.974237  -0.461434 0.000000 0.887175  0.086203 0.628730 1 65 1.000000
lowpoly_plastic
0  -4.031961 -15.567838 -1.974237  -0.890608 0.000000 0.454771  0.088232 0.627229 1 65 1.000000
0  -4.083895 -15.150292 -2.075941  -0.890607 0.000000 0.454773  0.088395 0.626612 1 65 1.000000
0  -4.083895 -15.626678 -2.075941  -0.890609 0.000000 0.454771  0.088385 0.627318 1 65 1.000000
lowpoly_plastic
0  -4.083895 -15.626678 -2.075941  -1.000000 0.000000 0.000071  0.088385 0.627318 1 65 1.000000
0  -4.083906 -15.150292 -2.229343  -1.000000 0.000000 0.000071  0.088622 0.626615 1 65 1.000000
0  -4.083906 -15.715431 -2.229343  -1.000000 0.000000 0.000071  0.088611 0.627453 1 65 1.000000
lowpoly_plastic
0  -4.031961 -15.150292 -1.974237  0.000000 1.000000 0.000000  0.086264 0.627969 1 65 1.000000
0  -3.952880 -15.150292 -2.229343  0.000000 1.000000 -0.000001  0.086643 0.627851 1 65 1.000000
0  -4.083895 -15.150292 -2.075941  0.000000 1.000000 -0.000001  0.086415 0.628046 1 65 1.000000
lowpoly_plastic
0  -4.083895 -15.626678 -2.075941  -0.000007 -0.865574 0.500780  0.087753 0.628391 1 65 1.000000
0  -3.952880 -15.715431 -2.229343  -0.000001 -0.865571 0.500787  0.087559 0.628638 1 65 1.000000
0  -4.031961 -15.567838 -1.974237  0.000002 -0.865574 0.500782  0.087676 0.628227 1 65 1.000000
lowpoly_plastic
0  -3.952880 -15.150292 -2.229343  1.000000 -0.000001 0.000000  0.027735 0.725616 1 65 1.000000
0  -3.952880 -15.316181 -2.056217  1.000000 -0.000002 0.000000  0.027478 0.725370 1 65 1.000000
0  -3.952880 -15.316181 -2.229343  1.000000 0.000000 0.000000  0.027735 0.725370 1 65 1.000000
lowpoly_plastic
0  -3.952880 -15.150292 -1.933105  1.000000 0.000000 0.000000  0.027296 0.725616 1 65 1.000000
0  -3.952880 -15.423251 -2.056217  1.000000 0.000000 0.000000  0.027478 0.725212 1 65 1.000000
0  -3.952880 -15.316181 -2.056217  1.000000 0.000000 0.000000  0.027478 0.725370 1 65 1.000000
lowpoly_plastic
0  -3.952880 -15.544040 -1.933105  1.000000 0.000002 0.000000  0.027296 0.725032 1 65 1.000000
0  -3.952880 -15.490095 -2.123062  1.000000 0.000002 0.000000  0.027577 0.725112 1 65 1.000000
0  -3.952880 -15.423251 -2.056217  1.000000 0.000000 0.000000  0.027478 0.725212 1 65 1.000000
lowpoly_plastic
0  -3.952880 -15.490095 -2.229343  1.000000 0.000000 0.000000  0.027735 0.725112 1 65 1.000000
0  -3.952880 -15.490095 -2.123062  1.000000 0.000000 0.000000  0.027577 0.725112 1 65 1.000000
0  -3.952880 -15.715431 -2.229343  1.000000 0.000000 0.000000  0.027735 0.724778 1 65 1.000000
lowpoly_plastic
0  -3.952880 -15.490095 -2.123062  0.000000 0.707124 -0.707089  0.038814 0.749839 1 65 1.000000
0  -3.970950 -15.423251 -2.056217  0.000000 0.707124 -0.707089  0.038787 0.749740 1 65 1.000000
0  -3.952880 -15.423251 -2.056217  0.000000 0.707124 -0.707089  0.038814 0.749740 1 65 1.000000
lowpoly_plastic
0  -3.952880 -15.423251 -2.056217  0.000000 0.000000 -1.000000  0.038814 0.749740 1 65 1.000000
0  -3.970950 -15.316181 -2.056217  0.000000 0.000000 -1.000000  0.038787 0.749581 1 65 1.000000
0  -3.952880 -15.316181 -2.056217  0.000000 0.000000 -1.000000  0.038814 0.749581 1 65 1.000000
lowpoly_plastic
0  -3.952880 -15.490095 -2.229343  0.000000 1.000000 0.000000  0.040459 0.749854 1 65 1.000000
0  -3.970950 -15.490095 -2.123062  0.000000 1.000000 0.000000  0.040432 0.749696 1 65 1.000000
0  -3.952880 -15.490095 -2.123062  0.000000 1.000000 0.000000  0.040459 0.749696 1 65 1.000000
lowpoly_plastic
0  -3.952880 -15.316181 -2.056217  0.000000 -1.000000 0.000000  0.040379 0.749696 1 65 1.000000
0  -3.970950 -15.316181 -2.229343  0.000000 -1.000000 0.000000  0.040406 0.749949 1 65 1.000000
0  -3.952880 -15.316181 -2.229343  0.000000 -1.000000 0.000000  0.040379 0.749949 1 65 1.000000
lowpoly_plastic
0  -3.970950 -15.490095 -2.123062  1.000000 0.000000 0.000000  0.040023 0.749954 1 65 1.000000
0  -3.970950 -15.316181 -2.229343  1.000000 0.000000 0.000000  0.039866 0.749696 1 65 1.000000
0  -3.970950 -15.423251 -2.056217  1.000000 0.000000 0.000000  0.040122 0.749855 1 65 1.000000
lowpoly_plastic
0  -3.952880 -15.150292 -2.229343  0.000000 -0.000001 1.000000  0.028340 0.721801 1 65 1.000000
0  -3.582160 -15.316181 -2.229343  0.000000 -0.000001 1.000000  0.027816 0.722047 1 65 1.000000
0  -3.582160 -15.150292 -2.229343  0.000000 -0.000001 1.000000  0.027816 0.721801 1 65 1.000000
lowpoly_plastic
0  -3.952880 -15.490095 -2.229343  0.000000 0.000000 1.000000  0.028340 0.722305 1 65 1.000000
0  -3.582160 -15.715431 -2.229343  0.000000 0.000000 1.000000  0.027816 0.722639 1 65 1.000000
0  -3.582160 -15.490095 -2.229343  0.000000 0.000000 1.000000  0.027816 0.722305 1 65 1.000000
lowpoly_plastic
0  -3.970950 -15.316181 -2.229343  0.000000 0.000001 1.000000  0.038908 0.746850 1 65 1.000000
0  -3.582160 -15.490095 -2.229343  0.000000 0.000001 1.000000  0.038358 0.747108 1 65 1.000000
0  -3.582160 -15.316181 -2.229343  0.000000 0.000001 1.000000  0.038358 0.746850 1 65 1.000000
lowpoly_plastic
0  -3.952880 -15.150292 -2.229343  0.000000 1.000000 0.000000  0.086643 0.627851 1 65 1.000000
0  -3.582160 -15.150292 -2.499053  0.000000 1.000000 0.000000  0.087043 0.627328 1 65 1.000000
0  -3.952880 -15.150292 -2.499053  0.000000 1.000000 0.000000  0.087043 0.627851 1 65 1.000000
lowpoly_plastic
0  -4.083906 -15.150292 -2.229343  0.000000 1.000000 0.000000  0.086643 0.628046 1 65 1.000000
0  -3.952880 -15.150292 -2.499053  0.000000 1.000000 0.000000  0.087043 0.627851 1 65 1.000000
0  -4.083906 -15.150292 -2.499053  0.000000 1.000000 0.000000  0.087043 0.628046 1 65 1.000000
lowpoly_plastic
0  -3.952880 -15.150292 -2.499053  0.000000 1.000000 0.000000  0.087043 0.627851 1 65 1.000000
0  -3.582160 -15.150292 -2.592802  0.000000 1.000000 0.000000  0.087182 0.627328 1 65 1.000000
0  -3.952880 -15.150292 -2.592802  0.000000 1.000000 0.000000  0.087182 0.627851 1 65 1.000000
lowpoly_plastic
0  -3.952880 -15.150292 -2.499053  0.000000 1.000000 0.000000  0.087043 0.627851 1 65 1.000000
0  -3.952880 -15.150292 -2.592802  0.000000 1.000000 0.000000  0.087182 0.627851 1 65 1.000000
0  -4.083906 -15.150292 -2.499053  0.000000 1.000000 0.000000  0.087043 0.628046 1 65 1.000000
lowpoly_plastic
0  -3.982050 -16.188715 -2.372183  -0.352255 -0.813269 0.463152  0.089196 0.625138 1 65 1.000000
0  -4.010543 -16.115652 -2.265558  -0.352255 -0.813269 0.463152  0.089022 0.625177 1 65 1.000000
0  -4.083906 -16.142210 -2.367990  -0.352255 -0.813269 0.463152  0.089178 0.625069 1 65 1.000000
lowpoly_plastic
0  -4.010543 -16.115652 -2.265558  -0.336271 -0.816376 0.469523  0.089022 0.625177 1 65 1.000000
0  -3.982050 -16.188715 -2.372183  -0.336271 -0.816376 0.469523  0.089196 0.625138 1 65 1.000000
0  -3.842398 -16.188715 -2.272169  -0.336271 -0.816376 0.469523  0.089050 0.625427 1 65 1.000000
lowpoly_plastic
0  -4.010543 -16.115652 -2.265558  -0.709380 -0.365292 0.602778  0.088650 0.628047 1 65 1.000000
0  -4.083900 -15.948190 -2.250405  -0.709380 -0.365292 0.602778  0.088637 0.627799 1 65 1.000000
0  -4.083906 -16.142210 -2.367990  -0.709380 -0.365292 0.602778  0.088807 0.628089 1 65 1.000000
lowpoly_plastic
0  -3.982050 -16.188715 -2.372183  -0.389135 -0.877554 0.280129  0.089196 0.625138 1 65 1.000000
0  -4.083906 -16.142210 -2.367990  -0.389135 -0.877554 0.280129  0.089178 0.625069 1 65 1.000000
0  -4.083906 -16.188715 -2.513677  -0.389135 -0.877554 0.280129  0.089403 0.625069 1 65 1.000000
lowpoly_plastic
0  -4.083906 -15.715431 -2.504115  -1.000000 0.000000 0.000000  0.089018 0.627459 1 65 1.000000
0  -4.083906 -15.150292 -2.229343  -1.000000 0.000000 0.000000  0.088622 0.626615 1 65 1.000000
0  -4.083906 -15.150292 -2.499053  -1.000000 0.000000 0.000000  0.089022 0.626620 1 65 1.000000
lowpoly_plastic
0  -4.083900 -15.948190 -2.250405  -1.000000 -0.000001 0.000021  0.088637 0.627799 1 65 1.000000
0  -4.083906 -15.715431 -2.504115  -1.000000 -0.000008 0.000010  0.089018 0.627459 1 65 1.000000
0  -4.083906 -16.142210 -2.367990  -1.000000 0.000004 0.000011  0.088807 0.628089 1 65 1.000000
lowpoly_plastic
0  -3.952880 -16.188715 -2.592802  -0.525953 0.013746 -0.850403  0.087636 0.626609 1 65 1.000000
0  -4.083906 -15.715431 -2.504115  -0.551937 0.003456 -0.833879  0.087442 0.625907 1 65 1.000000
0  -3.952880 -15.715431 -2.592802  -0.560533 0.000000 -0.828132  0.087636 0.625907 1 65 1.000000
lowpoly_plastic
0  -3.952880 -15.150292 -2.592802  -0.578196 0.006018 -0.815876  0.087636 0.625069 1 65 1.000000
0  -4.083906 -15.715431 -2.504115  -0.564326 0.001285 -0.825551  0.087442 0.625907 1 65 1.000000
0  -4.083906 -15.150292 -2.499053  -0.581874 0.007284 -0.813247  0.087442 0.625069 1 65 1.000000
lowpoly_plastic
0  -3.952880 -16.188715 -2.592802  0.000000 0.000000 -1.000000  0.087636 0.626609 1 65 1.000000
0  -3.582160 -15.715431 -2.592802  0.000000 0.000000 -1.000000  0.088160 0.625907 1 65 1.000000
0  -3.582160 -16.188715 -2.592802  0.000000 0.000000 -1.000000  0.088160 0.626609 1 65 1.000000
lowpoly_plastic
0  -3.582160 -15.150292 -2.592802  0.000000 0.000000 -1.000000  0.088160 0.625069 1 65 1.000000
0  -3.952880 -15.715431 -2.592802  0.000000 0.000000 -1.000000  0.087636 0.625907 1 65 1.000000
0  -3.952880 -15.150292 -2.592802  0.000000 0.000000 -1.000000  0.087636 0.625069 1 65 1.000000
lowpoly_plastic
0  -3.982050 -16.188715 -2.372183  0.000000 -1.000000 0.000008  0.089196 0.625138 1 65 1.000000
0  -4.083906 -16.188715 -2.513677  0.000000 -1.000000 0.000000  0.089403 0.625069 1 65 1.000000
0  -3.952880 -16.188715 -2.592802  0.000000 -1.000000 0.000002  0.089519 0.625263 1 65 1.000000
lowpoly_plastic
0  -3.952880 -15.715431 -2.229343  0.000001 -0.090119 0.995931  0.087247 0.625907 1 65 1.000000
0  -4.083906 -15.715431 -2.229343  0.000000 -0.090120 0.995931  0.087442 0.625907 1 65 1.000000
0  -4.083900 -15.948190 -2.250405  0.000003 -0.090119 0.995931  0.087442 0.626253 1 65 1.000000
lowpoly_plastic
0  -3.211439 -15.544040 -1.933105  0.461436 0.000000 0.887173  0.086086 0.628693 1 65 1.000000
0  -3.132358 -15.150292 -1.974237  0.461435 0.000000 0.887174  0.086203 0.628111 1 65 1.000000
0  -3.211439 -15.150292 -1.933105  0.461435 0.000000 0.887174  0.086086 0.628109 1 65 1.000000
lowpoly_plastic
0  -3.132358 -15.567838 -1.974237  0.890609 0.000000 0.454769  0.088232 0.627229 1 65 1.000000
0  -3.080425 -15.150292 -2.075941  0.890608 0.000000 0.454771  0.088395 0.626612 1 65 1.000000
0  -3.132358 -15.150292 -1.974237  0.890608 0.000000 0.454772  0.088241 0.626609 1 65 1.000000
lowpoly_plastic
0  -3.080425 -15.626678 -2.075941  1.000000 0.000000 0.000075  0.088385 0.627318 1 65 1.000000
0  -3.080414 -15.150292 -2.229343  1.000000 0.000000 0.000075  0.088622 0.626615 1 65 1.000000
0  -3.080425 -15.150292 -2.075941  1.000000 0.000000 0.000075  0.088395 0.626612 1 65 1.000000
lowpoly_plastic
0  -3.080425 -15.150292 -2.075941  0.000000 1.000000 -0.000008  0.086415 0.628046 1 65 1.000000
0  -3.211439 -15.150292 -2.229343  0.000000 1.000000 -0.000003  0.086643 0.627851 1 65 1.000000
0  -3.132358 -15.150292 -1.974237  0.000000 1.000000 -0.000003  0.086264 0.627969 1 65 1.000000
lowpoly_plastic
0  -3.132358 -15.567838 -1.974237  -0.000003 -0.865573 0.500782  0.087676 0.628227 1 65 1.000000
0  -3.211439 -15.715431 -2.229343  0.000001 -0.865570 0.500789  0.087559 0.628638 1 65 1.000000
0  -3.080425 -15.626678 -2.075941  0.000006 -0.865568 0.500792  0.087753 0.628391 1 65 1.000000
lowpoly_plastic
0  -3.211439 -15.150292 -2.229343  -1.000000 -0.000002 0.000000  0.027735 0.725616 1 65 1.000000
0  -3.211439 -15.316181 -2.056217  -1.000000 -0.000001 0.000000  0.027478 0.725370 1 65 1.000000
0  -3.211439 -15.150292 -1.933105  -1.000000 0.000000 0.000000  0.027296 0.725616 1 65 1.000000
lowpoly_plastic
0  -3.211439 -15.150292 -1.933105  -1.000000 0.000000 0.000000  0.027296 0.725616 1 65 1.000000
0  -3.211439 -15.423251 -2.056217  -1.000000 0.000000 0.000000  0.027478 0.725212 1 65 1.000000
0  -3.211439 -15.544040 -1.933105  -1.000000 0.000000 0.000000  0.027296 0.725032 1 65 1.000000
lowpoly_plastic
0  -3.211439 -15.544040 -1.933105  -1.000000 0.000001 0.000000  0.027296 0.725032 1 65 1.000000
0  -3.211439 -15.490095 -2.123062  -1.000000 0.000001 0.000000  0.027577 0.725112 1 65 1.000000
0  -3.211439 -15.715431 -2.229343  -1.000000 0.000002 0.000000  0.027735 0.724778 1 65 1.000000
lowpoly_plastic
0  -3.211439 -15.490095 -2.229343  -1.000000 0.000000 0.000000  0.027735 0.725112 1 65 1.000000
0  -3.211439 -15.715431 -2.229343  -1.000000 0.000000 0.000000  0.027735 0.724778 1 65 1.000000
0  -3.211439 -15.490095 -2.123062  -1.000000 0.000000 0.000000  0.027577 0.725112 1 65 1.000000
lowpoly_plastic
0  -3.211439 -15.490095 -2.123062  0.000000 0.707123 -0.707090  0.038814 0.749839 1 65 1.000000
0  -3.193370 -15.423251 -2.056217  0.000000 0.707117 -0.707097  0.038787 0.749740 1 65 1.000000
0  -3.193370 -15.490095 -2.123062  0.000000 0.707124 -0.707089  0.038787 0.749839 1 65 1.000000
lowpoly_plastic
0  -3.211439 -15.423251 -2.056217  0.000000 0.000000 -1.000000  0.038814 0.749740 1 65 1.000000
0  -3.193370 -15.316181 -2.056217  0.000000 0.000000 -1.000000  0.038787 0.749581 1 65 1.000000
0  -3.193370 -15.423251 -2.056217  0.000000 0.000000 -1.000000  0.038787 0.749740 1 65 1.000000
lowpoly_plastic
0  -3.211439 -15.490095 -2.229343  0.000000 1.000000 0.000000  0.040459 0.749854 1 65 1.000000
0  -3.193370 -15.490095 -2.123062  0.000000 1.000000 0.000000  0.040432 0.749696 1 65 1.000000
0  -3.193370 -15.490095 -2.229343  0.000000 1.000000 0.000000  0.040432 0.749854 1 65 1.000000
lowpoly_plastic
0  -3.211439 -15.316181 -2.056217  0.000000 -1.000000 0.000000  0.040379 0.749696 1 65 1.000000
0  -3.193370 -15.316181 -2.229343  0.000000 -1.000000 0.000000  0.040406 0.749949 1 65 1.000000
0  -3.193370 -15.316181 -2.056217  0.000000 -1.000000 0.000000  0.040406 0.749696 1 65 1.000000
lowpoly_plastic
0  -3.193370 -15.423251 -2.056217  -1.000000 0.000000 0.000000  0.040122 0.749855 1 65 1.000000
0  -3.193370 -15.316181 -2.229343  -1.000000 0.000001 0.000000  0.039866 0.749696 1 65 1.000000
0  -3.193370 -15.490095 -2.123062  -1.000000 0.000001 0.000000  0.040023 0.749954 1 65 1.000000
lowpoly_plastic
0  -3.211439 -15.150292 -2.229343  0.000000 -0.000001 1.000000  0.028340 0.721801 1 65 1.000000
0  -3.582160 -15.316181 -2.229343  0.000000 -0.000001 1.000000  0.027816 0.722047 1 65 1.000000
0  -3.211439 -15.316181 -2.229343  0.000000 -0.000001 1.000000  0.028340 0.722047 1 65 1.000000
lowpoly_plastic
0  -3.211439 -15.490095 -2.229343  0.000000 0.000000 1.000000  0.028340 0.722305 1 65 1.000000
0  -3.582160 -15.715431 -2.229343  0.000000 0.000000 1.000000  0.027816 0.722639 1 65 1.000000
0  -3.211439 -15.715431 -2.229343  0.000000 0.000000 1.000000  0.028340 0.722639 1 65 1.000000
lowpoly_plastic
0  -3.193370 -15.316181 -2.229343  0.000000 0.000001 1.000000  0.038908 0.746850 1 65 1.000000
0  -3.582160 -15.490095 -2.229343  0.000000 0.000001 1.000000  0.038358 0.747108 1 65 1.000000
0  -3.193370 -15.490095 -2.229343  0.000000 0.000001 1.000000  0.038908 0.747108 1 65 1.000000
lowpoly_plastic
0  -3.211439 -15.150292 -2.229343  0.000000 1.000000 0.000000  0.086643 0.627851 1 65 1.000000
0  -3.582160 -15.150292 -2.499053  0.000000 1.000000 0.000000  0.087043 0.627328 1 65 1.000000
0  -3.582160 -15.150292 -2.229343  0.000000 1.000000 0.000000  0.086643 0.627328 1 65 1.000000
lowpoly_plastic
0  -3.080414 -15.150292 -2.229343  0.000000 1.000000 0.000000  0.086643 0.628046 1 65 1.000000
0  -3.211439 -15.150292 -2.499053  0.000000 1.000000 0.000000  0.087043 0.627851 1 65 1.000000
0  -3.211439 -15.150292 -2.229343  0.000000 1.000000 0.000000  0.086643 0.627851 1 65 1.000000
lowpoly_plastic
0  -3.211439 -15.150292 -2.499053  0.000000 1.000000 0.000000  0.087043 0.627851 1 65 1.000000
0  -3.582160 -15.150292 -2.592802  0.000000 1.000000 0.000000  0.087182 0.627328 1 65 1.000000
0  -3.582160 -15.150292 -2.499053  0.000000 1.000000 0.000000  0.087043 0.627328 1 65 1.000000
lowpoly_plastic
0  -3.211439 -15.150292 -2.499053  0.000000 1.000000 0.000000  0.087043 0.627851 1 65 1.000000
0  -3.080414 -15.150292 -2.499053  0.000000 1.000000 0.000000  0.087043 0.628046 1 65 1.000000
0  -3.211439 -15.150292 -2.592802  0.000000 1.000000 0.000000  0.087182 0.627851 1 65 1.000000
lowpoly_plastic
0  -3.182270 -16.188715 -2.372183  0.352252 -0.813272 0.463149  0.089196 0.625138 1 65 1.000000
0  -3.080414 -16.142210 -2.367990  0.352252 -0.813272 0.463149  0.089178 0.625069 1 65 1.000000
0  -3.153776 -16.115652 -2.265558  0.352252 -0.813272 0.463149  0.089022 0.625177 1 65 1.000000
lowpoly_plastic
0  -3.153776 -16.115652 -2.265558  0.336268 -0.816368 0.469540  0.089022 0.625177 1 65 1.000000
0  -3.321922 -16.188715 -2.272169  0.336268 -0.816368 0.469540  0.089050 0.625427 1 65 1.000000
0  -3.182270 -16.188715 -2.372183  0.336268 -0.816368 0.469540  0.089196 0.625138 1 65 1.000000
lowpoly_plastic
0  -3.153776 -16.115652 -2.265558  0.709384 -0.365294 0.602772  0.088650 0.628047 1 65 1.000000
0  -3.080414 -16.142210 -2.367990  0.709384 -0.365294 0.602772  0.088807 0.628089 1 65 1.000000
0  -3.080419 -15.948190 -2.250405  0.709384 -0.365294 0.602772  0.088637 0.627799 1 65 1.000000
lowpoly_plastic
0  -3.182270 -16.188715 -2.372183  0.389135 -0.877554 0.280129  0.089196 0.625138 1 65 1.000000
0  -3.080414 -16.188715 -2.513677  0.389135 -0.877554 0.280129  0.089403 0.625069 1 65 1.000000
0  -3.080414 -16.142210 -2.367990  0.389135 -0.877554 0.280129  0.089178 0.625069 1 65 1.000000
lowpoly_plastic
0  -3.080414 -15.715431 -2.504115  1.000000 0.000000 0.000000  0.089018 0.627459 1 65 1.000000
0  -3.080414 -15.150292 -2.229343  1.000000 0.000000 0.000000  0.088622 0.626615 1 65 1.000000
0  -3.080414 -15.715431 -2.229343  1.000000 0.000000 0.000000  0.088611 0.627453 1 65 1.000000
lowpoly_plastic
0  -3.080414 -16.142210 -2.367990  1.000000 0.000003 0.000011  0.088807 0.628089 1 65 1.000000
0  -3.080414 -15.715431 -2.504115  1.000000 -0.000008 0.000010  0.089018 0.627459 1 65 1.000000
0  -3.080419 -15.948190 -2.250405  1.000000 -0.000002 0.000020  0.088637 0.627799 1 65 1.000000
lowpoly_plastic
0  -3.211439 -16.188715 -2.592802  0.525953 0.013746 -0.850403  0.087636 0.626609 1 65 1.000000
0  -3.080414 -15.715431 -2.504115  0.551937 0.003456 -0.833879  0.087442 0.625907 1 65 1.000000
0  -3.080414 -16.188715 -2.513677  0.516858 0.017293 -0.855896  0.087442 0.626609 1 65 1.000000
lowpoly_plastic
0  -3.211439 -15.150292 -2.592802  0.578196 0.006018 -0.815876  0.087636 0.625069 1 65 1.000000
0  -3.080414 -15.715431 -2.504115  0.564326 0.001285 -0.825551  0.087442 0.625907 1 65 1.000000
0  -3.211439 -15.715431 -2.592802  0.560530 0.000000 -0.828134  0.087636 0.625907 1 65 1.000000
lowpoly_plastic
0  -3.211439 -16.188715 -2.592802  0.000000 0.000000 -1.000000  0.087636 0.626609 1 65 1.000000
0  -3.582160 -15.715431 -2.592802  0.000000 0.000000 -1.000000  0.088160 0.625907 1 65 1.000000
0  -3.211439 -15.715431 -2.592802  0.000000 0.000000 -1.000000  0.087636 0.625907 1 65 1.000000
lowpoly_plastic
0  -3.582160 -15.150292 -2.592802  0.000000 0.000000 -1.000000  0.088160 0.625069 1 65 1.000000
0  -3.211439 -15.715431 -2.592802  0.000000 0.000000 -1.000000  0.087636 0.625907 1 65 1.000000
0  -3.582160 -15.715431 -2.592802  0.000000 0.000000 -1.000000  0.088160 0.625907 1 65 1.000000
lowpoly_plastic
0  -3.211439 -16.188715 -2.592802  0.000000 -1.000000 0.000004  0.089519 0.625263 1 65 1.000000
0  -3.321922 -16.188715 -2.272169  0.000000 -1.000000 0.000002  0.089050 0.625427 1 65 1.000000
0  -3.582160 -16.188715 -2.592802  0.000000 -1.000000 0.000000  0.089519 0.625786 1 65 1.000000
lowpoly_plastic
0  -3.080419 -15.948190 -2.250405  -0.000003 -0.090119 0.995931  0.087442 0.626253 1 65 1.000000
0  -3.211439 -15.715431 -2.229343  -0.000001 -0.090119 0.995931  0.087247 0.625907 1 65 1.000000
0  -3.321922 -16.188715 -2.272169  -0.000001 -0.090119 0.995931  0.087083 0.626610 1 65 1.000000
lowpoly_plastic
0  -3.932768 -15.396440 -2.059411  0.000000 -1.000000 -0.000001  0.032688 0.731292 1 65 1.000000
0  -3.231544 -15.396440 -2.059411  0.000000 -1.000000 0.000002  0.032688 0.732332 1 65 1.000000
0  -3.582156 -15.396440 -2.016144  0.000000 -1.000000 0.000020  0.032583 0.731812 1 65 1.000000
lowpoly_plastic
0  -3.727384 -15.396440 -1.608904  0.000000 -1.000000 0.000000  0.032020 0.731597 1 65 1.000000
0  -3.722107 -15.396440 -1.773741  0.000000 -1.000000 0.000000  0.032285 0.731641 1 65 1.000000
0  -3.582156 -15.396440 -1.692941  0.000000 -1.000000 0.000000  0.032186 0.731812 1 65 1.000000
lowpoly_plastic
0  -3.231544 -15.396440 -2.059411  0.000000 0.000000 1.000000  0.030404 0.732333 1 65 1.000000
0  -3.932768 -15.425259 -2.059411  0.000000 0.000000 1.000000  0.030425 0.731293 1 65 1.000000
0  -3.231544 -15.425259 -2.059411  0.000000 0.000000 1.000000  0.030425 0.732333 1 65 1.000000
lowpoly_plastic
0  -3.231544 -15.425259 -2.059411  0.000000 -1.000000 0.000000  0.030180 0.732333 1 65 1.000000
0  -3.932768 -15.425259 -2.195548  0.000000 -1.000000 0.000000  0.030382 0.731293 1 65 1.000000
0  -3.231544 -15.425259 -2.195548  0.000000 -1.000000 0.000000  0.030382 0.732333 1 65 1.000000
lowpoly_plastic
0  -3.231544 -15.425259 -2.195548  0.000000 -0.538487 -0.842634  0.032517 0.729751 1 65 1.000000
0  -3.932768 -15.371951 -2.229614  0.000000 -0.538487 -0.842634  0.032596 0.728711 1 65 1.000000
0  -3.231544 -15.371951 -2.229614  0.000000 -0.538487 -0.842634  0.032596 0.729751 1 65 1.000000
lowpoly_plastic
0  -3.231544 -15.318188 -2.059411  0.000000 -1.000000 0.000000  0.030180 0.731293 1 65 1.000000
0  -3.932768 -15.318188 -2.195548  0.000000 -1.000000 0.000000  0.030382 0.730252 1 65 1.000000
0  -3.231544 -15.318188 -2.195548  0.000000 -1.000000 0.000000  0.030382 0.731293 1 65 1.000000
lowpoly_plastic
0  -3.932768 -15.371951 -2.229614  0.000000 0.535225 -0.844710  0.032596 0.728711 1 65 1.000000
0  -3.231544 -15.318188 -2.195548  0.000000 0.535225 -0.844710  0.032676 0.729751 1 65 1.000000
0  -3.231544 -15.371951 -2.229614  0.000000 0.535225 -0.844710  0.032596 0.729751 1 65 1.000000
lowpoly_plastic
0  -3.932768 -15.318188 -2.059411  0.000000 0.000000 -1.000000  0.030425 0.730252 1 65 1.000000
0  -3.231544 -15.347465 -2.059411  0.000000 0.000000 -1.000000  0.030382 0.731293 1 65 1.000000
0  -3.932768 -15.347465 -2.059411  0.000000 0.000000 -1.000000  0.030382 0.730252 1 65 1.000000
lowpoly_plastic
0  -3.932768 -15.347465 -2.059411  0.000000 -1.000000 0.000000  0.032688 0.730252 1 65 1.000000
0  -3.231544 -15.347465 -2.059411  0.000000 -1.000000 0.000001  0.032688 0.731292 1 65 1.000000
0  -3.582156 -15.347465 -2.016144  0.000000 -1.000000 -0.000020  0.032583 0.730772 1 65 1.000000
lowpoly_plastic
0  -3.727384 -15.347465 -1.608904  0.000000 -1.000000 -0.000004  0.032020 0.730556 1 65 1.000000
0  -3.722107 -15.347465 -1.773741  0.000000 -1.000000 0.000000  0.032285 0.730600 1 65 1.000000
0  -3.582156 -15.347465 -1.692941  0.000000 -1.000000 -0.000010  0.032186 0.730772 1 65 1.000000
lowpoly_plastic
0  -3.727384 -15.396440 -1.608904  0.000000 -0.000002 1.000000  0.030946 0.732234 1 65 1.000000
0  -3.436927 -15.347465 -1.608904  0.000000 -0.000000 1.000000  0.030982 0.731803 1 65 1.000000
0  -3.727384 -15.347465 -1.608904  0.000000 -0.000002 1.000000  0.030982 0.732234 1 65 1.000000
lowpoly_plastic
0  -3.932768 -15.396440 -1.814288  -0.707114 -0.000007 0.707099  0.029004 0.732056 1 65 1.000000
0  -3.727384 -15.347465 -1.608904  -0.707101 0.000003 0.707112  0.029077 0.731752 1 65 1.000000
0  -3.932768 -15.347465 -1.814288  -0.707116 -0.000008 0.707097  0.029077 0.732056 1 65 1.000000
lowpoly_plastic
0  -3.436927 -15.396440 -1.608904  0.707114 0.000000 0.707099  0.030152 0.731688 1 65 1.000000
0  -3.231544 -15.347465 -1.814288  0.707102 0.000000 0.707112  0.030079 0.731993 1 65 1.000000
0  -3.436927 -15.347465 -1.608904  0.707116 0.000000 0.707097  0.030079 0.731688 1 65 1.000000
lowpoly_plastic
0  -3.932768 -15.396440 -2.059411  -1.000000 0.000001 0.000000  0.029004 0.732420 1 65 1.000000
0  -3.932768 -15.347465 -1.814288  -1.000000 0.000006 0.000000  0.029077 0.732056 1 65 1.000000
0  -3.932768 -15.347465 -2.059411  -1.000000 0.000000 0.000000  0.029077 0.732420 1 65 1.000000
lowpoly_plastic
0  -3.231544 -15.396440 -1.814288  1.000000 0.000000 0.000000  0.030152 0.731993 1 65 1.000000
0  -3.231544 -15.347465 -2.059411  1.000000 0.000000 0.000000  0.030079 0.732356 1 65 1.000000
0  -3.231544 -15.347465 -1.814288  1.000000 0.000000 0.000000  0.030079 0.731993 1 65 1.000000
lowpoly_plastic
0  -3.582156 -15.347465 -2.016144  -0.500002 0.000000 0.866024  0.018726 0.762794 1 65 1.000000
0  -3.442205 -15.396440 -1.935343  -0.500002 0.000000 0.866024  0.018653 0.762695 1 65 1.000000
0  -3.442205 -15.347465 -1.935343  -0.500002 0.000000 0.866024  0.018726 0.762695 1 65 1.000000
lowpoly_plastic
0  -3.442205 -15.349971 -1.862724  -1.000000 -0.000003 0.000000  0.018722 0.762600 1 65 1.000000
0  -3.442205 -15.396440 -1.814288  -1.000000 -0.000001 0.000000  0.018653 0.762537 1 65 1.000000
0  -3.442205 -15.349971 -1.846361  -1.000000 -0.000009 0.000000  0.018722 0.762579 1 65 1.000000
lowpoly_plastic
0  -3.442205 -15.396440 -1.773741  -0.500003 0.000000 -0.866024  0.018581 0.762840 1 65 1.000000
0  -3.582156 -15.347465 -1.692941  -0.500002 0.000000 -0.866024  0.018653 0.762669 1 65 1.000000
0  -3.442205 -15.347465 -1.773741  -0.500003 0.000000 -0.866024  0.018653 0.762840 1 65 1.000000
lowpoly_plastic
0  -3.582156 -15.396440 -1.692941  0.500002 0.000000 -0.866024  0.018581 0.762669 1 65 1.000000
0  -3.722107 -15.347465 -1.773741  0.500003 0.000000 -0.866024  0.018653 0.762497 1 65 1.000000
0  -3.582156 -15.347465 -1.692941  0.500002 0.000000 -0.866024  0.018653 0.762669 1 65 1.000000
lowpoly_plastic
0  -3.722107 -15.349971 -1.862724  1.000000 0.000000 0.000000  0.018730 0.762600 1 65 1.000000
0  -3.722107 -15.349971 -1.846361  1.000000 -0.000000 0.000000  0.018730 0.762579 1 65 1.000000
0  -3.722107 -15.396440 -1.814288  1.000000 0.000007 0.000000  0.018799 0.762537 1 65 1.000000
lowpoly_plastic
0  -3.722107 -15.347465 -1.935343  0.500002 0.000000 0.866024  0.018726 0.762695 1 65 1.000000
0  -3.582156 -15.396440 -2.016144  0.500002 0.000000 0.866024  0.018799 0.762794 1 65 1.000000
0  -3.582156 -15.347465 -2.016144  0.500002 0.000000 0.866024  0.018726 0.762794 1 65 1.000000
lowpoly_metal
0  -4.087522 -15.323338 -2.168886  0.000000 0.866018 -0.500013  0.085048 0.467109 1 65 1.000000
0  -3.076790 -15.347645 -2.210987  0.000000 0.866018 -0.500013  0.085085 0.465610 1 65 1.000000
0  -4.087522 -15.347645 -2.210987  0.000000 0.866018 -0.500013  0.085085 0.467109 1 65 1.000000
lowpoly_metal
0  -4.087522 -15.347645 -2.210987  0.000000 0.000000 -1.000000  0.082266 0.467151 1 65 1.000000
0  -3.076790 -15.396258 -2.210987  0.000000 0.000000 -1.000000  0.082194 0.468651 1 65 1.000000
0  -4.087522 -15.396258 -2.210987  0.000000 0.000000 -1.000000  0.082194 0.467151 1 65 1.000000
lowpoly_metal
0  -4.087522 -15.396258 -2.210987  0.000000 -0.866018 -0.500013  0.082194 0.467151 1 65 1.000000
0  -3.076790 -15.420567 -2.168886  0.000000 -0.866018 -0.500013  0.082131 0.468651 1 65 1.000000
0  -4.087522 -15.420567 -2.168886  0.000000 -0.866018 -0.500013  0.082131 0.467151 1 65 1.000000
lowpoly_metal
0  -4.087522 -15.420567 -2.168886  0.000000 -0.866019 0.500011  0.082131 0.467151 1 65 1.000000
0  -3.076790 -15.396258 -2.126786  0.000000 -0.866019 0.500011  0.082069 0.468651 1 65 1.000000
0  -4.087522 -15.396258 -2.126786  0.000000 -0.866019 0.500011  0.082069 0.467151 1 65 1.000000
lowpoly_metal
0  -3.076790 -15.347645 -2.210987  1.000000 0.000002 0.000000  0.084977 0.468991 1 65 1.000000
0  -3.076790 -15.323338 -2.168886  1.000000 0.000015 0.000000  0.084915 0.468955 1 65 1.000000
0  -3.076790 -15.347645 -2.126786  1.000000 0.000004 0.000000  0.084915 0.468883 1 65 1.000000
lowpoly_metal
0  -4.087522 -15.396258 -2.126786  0.000000 0.000000 1.000000  0.084940 0.467109 1 65 1.000000
0  -3.076790 -15.347645 -2.126786  0.000000 0.000000 1.000000  0.084976 0.465610 1 65 1.000000
0  -4.087522 -15.347645 -2.126786  0.000000 0.000000 1.000000  0.084976 0.467109 1 65 1.000000
lowpoly_metal
0  -4.087522 -15.347645 -2.126786  0.000000 0.866019 0.500011  0.084976 0.467109 1 65 1.000000
0  -3.076790 -15.323338 -2.168886  0.000000 0.866019 0.500011  0.085048 0.465610 1 65 1.000000
0  -4.087522 -15.323338 -2.168886  0.000000 0.866019 0.500011  0.085048 0.467109 1 65 1.000000
lowpoly_metal
0  -4.087522 -15.396258 -2.210987  -1.000000 0.000000 0.000000  0.084977 0.468846 1 65 1.000000
0  -4.087522 -15.420567 -2.168886  -1.000000 0.000000 0.000000  0.084915 0.468810 1 65 1.000000
0  -4.087522 -15.396258 -2.126786  -1.000000 0.000000 0.000000  0.084915 0.468738 1 65 1.000000
lowpoly_plastic
0  -3.932768 -15.318188 -2.059411  0.000000 1.000000 0.000000  0.030180 0.730252 1 65 1.000000
0  -3.955768 -15.318188 -2.195548  0.000000 1.000000 0.000000  0.030382 0.730252 1 65 1.000000
0  -3.955768 -15.318188 -2.059411  0.000000 1.000000 0.000000  0.030180 0.730252 1 65 1.000000
lowpoly_plastic
0  -3.231544 -15.425259 -2.195548  0.000000 -0.538478 -0.842640  0.032517 0.729751 1 65 1.000000
0  -3.208544 -15.371951 -2.229614  0.000000 -0.538478 -0.842640  0.032596 0.729751 1 65 1.000000
0  -3.208544 -15.425259 -2.195548  0.000000 -0.538478 -0.842639  0.032517 0.729751 1 65 1.000000
lowpoly_plastic
0  -3.955768 -15.425259 -2.195548  -1.000000 0.000000 0.000000  0.030382 0.731293 1 65 1.000000
0  -3.955768 -15.396440 -2.059411  -1.000000 0.000000 0.000000  0.029004 0.732420 1 65 1.000000
0  -3.955768 -15.347465 -2.059411  -1.000000 0.000000 0.000000  0.030382 0.730252 1 65 1.000000
lowpoly_plastic
0  -3.932768 -15.371951 -2.229614  0.000000 -0.538490 -0.842632  0.032596 0.728711 1 65 1.000000
0  -3.955768 -15.425259 -2.195548  0.000000 -0.538481 -0.842637  0.032517 0.728711 1 65 1.000000
0  -3.955768 -15.371951 -2.229614  0.000000 -0.538493 -0.842630  0.032596 0.728711 1 65 1.000000
lowpoly_plastic
0  -3.932768 -15.425259 -2.195548  0.000000 -1.000000 0.000000  0.030382 0.731293 1 65 1.000000
0  -3.955768 -15.425259 -2.059411  0.000000 -1.000000 0.000000  0.030180 0.731293 1 65 1.000000
0  -3.955768 -15.425259 -2.195548  0.000000 -1.000000 0.000000  0.030382 0.731293 1 65 1.000000
lowpoly_plastic
0  -3.932768 -15.425259 -2.059411  0.000000 0.000000 1.000000  0.030425 0.731293 1 65 1.000000
0  -3.955768 -15.396440 -2.059411  0.000000 0.000000 1.000000  0.030404 0.731293 1 65 1.000000
0  -3.955768 -15.425259 -2.059411  0.000000 0.000000 1.000000  0.030425 0.731293 1 65 1.000000
lowpoly_plastic
0  -3.932768 -15.318188 -2.195548  0.000000 0.535234 -0.844704  0.032676 0.728711 1 65 1.000000
0  -3.955768 -15.371951 -2.229614  0.000000 0.535226 -0.844709  0.032596 0.728711 1 65 1.000000
0  -3.955768 -15.318188 -2.195548  0.000000 0.535237 -0.844702  0.032676 0.728711 1 65 1.000000
lowpoly_plastic
0  -3.932768 -15.347465 -2.059411  0.000000 0.000000 1.000000  0.030382 0.730252 1 65 1.000000
0  -3.955768 -15.318188 -2.059411  0.000000 0.000000 1.000000  0.030425 0.730252 1 65 1.000000
0  -3.955768 -15.347465 -2.059411  0.000000 0.000000 1.000000  0.030382 0.730252 1 65 1.000000
lowpoly_plastic
0  -3.932768 -15.396440 -2.059411  0.000000 0.000000 1.000000  0.029004 0.732420 1 65 1.000000
0  -3.955768 -15.347465 -2.059411  0.000000 0.000000 1.000000  0.029077 0.732420 1 65 1.000000
0  -3.955768 -15.396440 -2.059411  0.000000 0.000000 1.000000  0.029004 0.732420 1 65 1.000000
lowpoly_plastic
0  -3.208544 -15.347465 -2.059411  1.000000 0.000000 0.000000  0.030382 0.731293 1 65 1.000000
0  -3.208544 -15.425259 -2.195548  1.000000 0.000000 0.000000  0.030382 0.732333 1 65 1.000000
0  -3.208544 -15.318188 -2.195548  1.000000 0.000000 0.000000  0.032676 0.729751 1 65 1.000000
lowpoly_plastic
0  -3.231544 -15.425259 -2.059411  0.000000 -1.000000 0.000000  0.030180 0.732333 1 65 1.000000
0  -3.208544 -15.425259 -2.195548  0.000000 -1.000000 0.000000  0.030382 0.732333 1 65 1.000000
0  -3.208544 -15.425259 -2.059411  0.000000 -1.000000 0.000000  0.030180 0.732333 1 65 1.000000
lowpoly_plastic
0  -3.231544 -15.396440 -2.059411  0.000000 0.000000 1.000000  0.030404 0.732333 1 65 1.000000
0  -3.208544 -15.425259 -2.059411  0.000000 0.000000 1.000000  0.030425 0.732333 1 65 1.000000
0  -3.208544 -15.396440 -2.059411  0.000000 0.000000 1.000000  0.030404 0.732333 1 65 1.000000
lowpoly_plastic
0  -3.231544 -15.318188 -2.059411  0.000000 0.000000 1.000000  0.030425 0.731293 1 65 1.000000
0  -3.208544 -15.347465 -2.059411  0.000000 0.000000 1.000000  0.030382 0.731293 1 65 1.000000
0  -3.208544 -15.318188 -2.059411  0.000000 0.000000 1.000000  0.030425 0.731293 1 65 1.000000
lowpoly_plastic
0  -3.231544 -15.318188 -2.195548  0.000000 1.000000 0.000000  0.030382 0.731293 1 65 1.000000
0  -3.208544 -15.318188 -2.059411  0.000000 1.000000 0.000000  0.030180 0.731293 1 65 1.000000
0  -3.208544 -15.318188 -2.195548  0.000000 1.000000 0.000000  0.030382 0.731293 1 65 1.000000
lowpoly_plastic
0  -3.231544 -15.371951 -2.229614  0.000000 0.535233 -0.844705  0.032596 0.729751 1 65 1.000000
0  -3.208544 -15.318188 -2.195548  0.000000 0.535212 -0.844718  0.032676 0.729751 1 65 1.000000
0  -3.208544 -15.371951 -2.229614  0.000000 0.535241 -0.844699  0.032596 0.729751 1 65 1.000000
lowpoly_plastic
0  -3.231544 -15.347465 -2.059411  0.000000 0.000000 1.000000  0.030079 0.732356 1 65 1.000000
0  -3.208544 -15.396440 -2.059411  0.000000 0.000000 1.000000  0.030152 0.732356 1 65 1.000000
0  -3.208544 -15.347465 -2.059411  0.000000 0.000000 1.000000  0.030079 0.732356 1 65 1.000000
lowpoly_glow
0  -3.442205 -15.349971 -1.846361  0.000000 -1.000000 0.000000  0.081852 0.026689 1 65 1.000000
0  -3.357656 -15.349971 -1.867380  0.000000 -1.000000 0.000000  0.082878 0.030791 1 65 1.000000
0  -3.357656 -15.349971 -1.841705  0.000000 -1.000000 0.000000  0.082878 0.026689 1 65 1.000000
lowpoly_glow
0  -3.806657 -15.349971 -1.841705  0.000000 -1.000000 0.000000  0.078776 0.026689 1 65 1.000000
0  -3.722107 -15.349971 -1.862724  0.000000 -1.000000 0.000000  0.080827 0.030791 1 65 1.000000
0  -3.722107 -15.349971 -1.846361  0.000000 -1.000000 0.000000  0.080827 0.026689 1 65 1.000000
lowpoly_glow
0  -3.442205 -15.344827 -1.846361  0.000000 1.000000 0.000000  0.081852 0.026689 1 65 1.000000
0  -3.357656 -15.344827 -1.867380  0.000000 1.000000 0.000000  0.082878 0.030791 1 65 1.000000
0  -3.442205 -15.344827 -1.862724  0.000000 1.000000 0.000000  0.081852 0.030791 1 65 1.000000
lowpoly_glow
0  -3.806657 -15.344827 -1.841705  0.000000 1.000000 0.000000  0.078776 0.026689 1 65 1.000000
0  -3.722107 -15.344827 -1.862724  0.000000 1.000000 0.000000  0.080827 0.030791 1 65 1.000000
0  -3.806657 -15.344827 -1.867380  0.000000 1.000000 0.000000  0.078776 0.030791 1 65 1.000000
lowpoly_glow
0  -3.722107 -15.349971 -1.846361  1.000000 0.000000 0.000000  0.080827 0.026689 1 65 1.000000
0  -3.722107 -15.344827 -1.862724  1.000000 0.000000 0.000000  0.080827 0.030791 1 65 1.000000
0  -3.722107 -15.344827 -1.846361  1.000000 0.000000 0.000000  0.080827 0.026689 1 65 1.000000
lowpoly_glow
0  -3.806657 -15.349971 -1.841705  0.054969 0.000000 0.998488  0.078776 0.026689 1 65 1.000000
0  -3.722107 -15.344827 -1.846361  0.054993 0.000000 0.998487  0.080827 0.026689 1 65 1.000000
0  -3.806657 -15.344827 -1.841705  0.054968 0.000000 0.998488  0.078776 0.026689 1 65 1.000000
lowpoly_glow
0  -3.357656 -15.349971 -1.841705  1.000000 0.000000 0.000000  0.082878 0.026689 1 65 1.000000
0  -3.357656 -15.344827 -1.867380  1.000000 0.000000 0.000000  0.082878 0.030791 1 65 1.000000
0  -3.357656 -15.344827 -1.841705  1.000000 0.000000 0.000000  0.082878 0.026689 1 65 1.000000
lowpoly_glow
0  -3.806657 -15.349971 -1.867380  -1.000000 0.000000 0.000000  0.078776 0.030791 1 65 1.000000
0  -3.806657 -15.344827 -1.841705  -1.000000 0.000000 0.000000  0.078776 0.026689 1 65 1.000000
0  -3.806657 -15.344827 -1.867380  -1.000000 0.000000 0.000000  0.078776 0.030791 1 65 1.000000
lowpoly_glow
0  -3.442205 -15.349971 -1.862724  -1.000000 0.000000 0.000000  0.081852 0.030791 1 65 1.000000
0  -3.442205 -15.344827 -1.846361  -1.000000 0.000000 0.000000  0.081852 0.026689 1 65 1.000000
0  -3.442205 -15.344827 -1.862724  -1.000000 0.000000 0.000000  0.081852 0.030791 1 65 1.000000
lowpoly_glow
0  -3.722107 -15.349971 -1.862724  0.054969 0.000000 -0.998488  0.080827 0.030791 1 65 1.000000
0  -3.806657 -15.344827 -1.867380  0.054997 0.000000 -0.998486  0.078776 0.030791 1 65 1.000000
0  -3.722107 -15.344827 -1.862724  0.054968 0.000000 -0.998488  0.080827 0.030791 1 65 1.000000
lowpoly_glow
0  -3.442205 -15.349971 -1.846361  -0.054993 0.000000 0.998487  0.081852 0.026689 1 65 1.000000
0  -3.357656 -15.344827 -1.841705  -0.054969 0.000000 0.998488  0.082878 0.026689 1 65 1.000000
0  -3.442205 -15.344827 -1.846361  -0.054994 0.000000 0.998487  0.081852 0.026689 1 65 1.000000
lowpoly_glow
0  -3.357656 -15.349971 -1.867380  -0.054997 0.000000 -0.998486  0.082878 0.030791 1 65 1.000000
0  -3.442205 -15.344827 -1.862724  -0.054969 0.000000 -0.998488  0.081852 0.030791 1 65 1.000000
0  -3.357656 -15.344827 -1.867380  -0.054998 0.000000 -0.998486  0.082878 0.030791 1 65 1.000000
lowpoly_plastic
0  -3.952880 -15.544040 -1.933105  -0.461434 0.000000 0.887174  0.086086 0.628693 1 65 1.000000
0  -3.952880 -15.150292 -1.933105  -0.461438 0.000000 0.887172  0.086086 0.628109 1 65 1.000000
0  -4.031961 -15.150292 -1.974237  -0.461437 0.000000 0.887173  0.086203 0.628111 1 65 1.000000
lowpoly_plastic
0  -4.031961 -15.567838 -1.974237  -0.890608 0.000000 0.454771  0.088232 0.627229 1 65 1.000000
0  -4.031961 -15.150292 -1.974237  -0.890607 0.000000 0.454774  0.088241 0.626609 1 65 1.000000
0  -4.083895 -15.150292 -2.075941  -0.890607 0.000000 0.454773  0.088395 0.626612 1 65 1.000000
lowpoly_plastic
0  -4.083895 -15.626678 -2.075941  -1.000000 0.000000 0.000071  0.088385 0.627318 1 65 1.000000
0  -4.083895 -15.150292 -2.075941  -1.000000 0.000000 0.000071  0.088395 0.626612 1 65 1.000000
0  -4.083906 -15.150292 -2.229343  -1.000000 0.000000 0.000071  0.088622 0.626615 1 65 1.000000
lowpoly_plastic
0  -3.952880 -15.150292 -1.933105  0.000000 1.000000 0.000000  0.086203 0.627851 1 65 1.000000
0  -3.952880 -15.150292 -2.229343  0.000000 1.000000 -0.000001  0.086643 0.627851 1 65 1.000000
0  -4.031961 -15.150292 -1.974237  0.000000 1.000000 0.000000  0.086264 0.627969 1 65 1.000000
lowpoly_plastic
0  -3.952880 -15.150292 -2.229343  0.000000 1.000000 -0.000001  0.086643 0.627851 1 65 1.000000
0  -4.083906 -15.150292 -2.229343  0.000000 1.000000 -0.000002  0.086643 0.628046 1 65 1.000000
0  -4.083895 -15.150292 -2.075941  0.000000 1.000000 -0.000001  0.086415 0.628046 1 65 1.000000
lowpoly_plastic
0  -4.083906 -15.715431 -2.229343  0.000000 -0.865568 0.500791  0.087753 0.628638 1 65 1.000000
0  -3.952880 -15.715431 -2.229343  -0.000001 -0.865571 0.500787  0.087559 0.628638 1 65 1.000000
0  -4.083895 -15.626678 -2.075941  -0.000007 -0.865574 0.500780  0.087753 0.628391 1 65 1.000000
lowpoly_plastic
0  -3.952880 -15.715431 -2.229343  -0.000001 -0.865571 0.500787  0.087559 0.628638 1 65 1.000000
0  -3.952880 -15.544040 -1.933105  0.000007 -0.865573 0.500784  0.087559 0.628161 1 65 1.000000
0  -4.031961 -15.567838 -1.974237  0.000002 -0.865574 0.500782  0.087676 0.628227 1 65 1.000000
lowpoly_plastic
0  -3.952880 -15.150292 -2.229343  1.000000 -0.000001 0.000000  0.027735 0.725616 1 65 1.000000
0  -3.952880 -15.150292 -1.933105  1.000000 -0.000002 0.000000  0.027296 0.725616 1 65 1.000000
0  -3.952880 -15.316181 -2.056217  1.000000 -0.000002 0.000000  0.027478 0.725370 1 65 1.000000
lowpoly_plastic
0  -3.952880 -15.150292 -1.933105  1.000000 0.000000 0.000000  0.027296 0.725616 1 65 1.000000
0  -3.952880 -15.544040 -1.933105  1.000000 0.000000 0.000000  0.027296 0.725032 1 65 1.000000
0  -3.952880 -15.423251 -2.056217  1.000000 0.000000 0.000000  0.027478 0.725212 1 65 1.000000
lowpoly_plastic
0  -3.952880 -15.544040 -1.933105  1.000000 0.000002 0.000000  0.027296 0.725032 1 65 1.000000
0  -3.952880 -15.715431 -2.229343  1.000000 0.000002 0.000000  0.027735 0.724778 1 65 1.000000
0  -3.952880 -15.490095 -2.123062  1.000000 0.000002 0.000000  0.027577 0.725112 1 65 1.000000
lowpoly_plastic
0  -3.952880 -15.490095 -2.123062  0.000000 0.707124 -0.707089  0.038814 0.749839 1 65 1.000000
0  -3.970950 -15.490095 -2.123062  0.000000 0.707124 -0.707089  0.038787 0.749839 1 65 1.000000
0  -3.970950 -15.423251 -2.056217  0.000000 0.707124 -0.707089  0.038787 0.749740 1 65 1.000000
lowpoly_plastic
0  -3.952880 -15.423251 -2.056217  0.000000 0.000000 -1.000000  0.038814 0.749740 1 65 1.000000
0  -3.970950 -15.423251 -2.056217  0.000000 0.000000 -1.000000  0.038787 0.749740 1 65 1.000000
0  -3.970950 -15.316181 -2.056217  0.000000 0.000000 -1.000000  0.038787 0.749581 1 65 1.000000
lowpoly_plastic
0  -3.952880 -15.490095 -2.229343  0.000000 1.000000 0.000000  0.040459 0.749854 1 65 1.000000
0  -3.970950 -15.490095 -2.229343  0.000000 1.000000 0.000000  0.040432 0.749854 1 65 1.000000
0  -3.970950 -15.490095 -2.123062  0.000000 1.000000 0.000000  0.040432 0.749696 1 65 1.000000
lowpoly_plastic
0  -3.952880 -15.316181 -2.056217  0.000000 -1.000000 0.000000  0.040379 0.749696 1 65 1.000000
0  -3.970950 -15.316181 -2.056217  0.000000 -1.000000 0.000000  0.040406 0.749696 1 65 1.000000
0  -3.970950 -15.316181 -2.229343  0.000000 -1.000000 0.000000  0.040406 0.749949 1 65 1.000000
lowpoly_plastic
0  -3.970950 -15.490095 -2.229343  1.000000 0.000000 0.000000  0.039866 0.749954 1 65 1.000000
0  -3.970950 -15.316181 -2.229343  1.000000 0.000000 0.000000  0.039866 0.749696 1 65 1.000000
0  -3.970950 -15.490095 -2.123062  1.000000 0.000000 0.000000  0.040023 0.749954 1 65 1.000000
lowpoly_plastic
0  -3.970950 -15.316181 -2.229343  1.000000 0.000000 0.000000  0.039866 0.749696 1 65 1.000000
0  -3.970950 -15.316181 -2.056217  1.000000 0.000000 0.000000  0.040122 0.749696 1 65 1.000000
0  -3.970950 -15.423251 -2.056217  1.000000 0.000000 0.000000  0.040122 0.749855 1 65 1.000000
lowpoly_plastic
0  -3.952880 -15.150292 -2.229343  0.000000 -0.000001 1.000000  0.028340 0.721801 1 65 1.000000
0  -3.952880 -15.316181 -2.229343  0.000000 -0.000001 1.000000  0.028340 0.722047 1 65 1.000000
0  -3.582160 -15.316181 -2.229343  0.000000 -0.000001 1.000000  0.027816 0.722047 1 65 1.000000
lowpoly_plastic
0  -3.952880 -15.490095 -2.229343  0.000000 0.000000 1.000000  0.028340 0.722305 1 65 1.000000
0  -3.952880 -15.715431 -2.229343  0.000000 0.000000 1.000000  0.028340 0.722639 1 65 1.000000
0  -3.582160 -15.715431 -2.229343  0.000000 0.000000 1.000000  0.027816 0.722639 1 65 1.000000
lowpoly_plastic
0  -3.970950 -15.316181 -2.229343  0.000000 0.000001 1.000000  0.038908 0.746850 1 65 1.000000
0  -3.970950 -15.490095 -2.229343  0.000000 0.000001 1.000000  0.038908 0.747108 1 65 1.000000
0  -3.582160 -15.490095 -2.229343  0.000000 0.000001 1.000000  0.038358 0.747108 1 65 1.000000
lowpoly_plastic
0  -3.952880 -15.150292 -2.229343  0.000000 1.000000 0.000000  0.086643 0.627851 1 65 1.000000
0  -3.582160 -15.150292 -2.229343  0.000000 1.000000 0.000000  0.086643 0.627328 1 65 1.000000
0  -3.582160 -15.150292 -2.499053  0.000000 1.000000 0.000000  0.087043 0.627328 1 65 1.000000
lowpoly_plastic
0  -4.083906 -15.150292 -2.229343  0.000000 1.000000 0.000000  0.086643 0.628046 1 65 1.000000
0  -3.952880 -15.150292 -2.229343  0.000000 1.000000 0.000000  0.086643 0.627851 1 65 1.000000
0  -3.952880 -15.150292 -2.499053  0.000000 1.000000 0.000000  0.087043 0.627851 1 65 1.000000
lowpoly_plastic
0  -3.952880 -15.150292 -2.499053  0.000000 1.000000 0.000000  0.087043 0.627851 1 65 1.000000
0  -3.582160 -15.150292 -2.499053  0.000000 1.000000 0.000000  0.087043 0.627328 1 65 1.000000
0  -3.582160 -15.150292 -2.592802  0.000000 1.000000 0.000000  0.087182 0.627328 1 65 1.000000
lowpoly_plastic
0  -4.083906 -15.715431 -2.504115  -1.000000 0.000000 0.000000  0.089018 0.627459 1 65 1.000000
0  -4.083906 -15.715431 -2.229343  -1.000000 0.000000 0.000000  0.088611 0.627453 1 65 1.000000
0  -4.083906 -15.150292 -2.229343  -1.000000 0.000000 0.000000  0.088622 0.626615 1 65 1.000000
lowpoly_plastic
0  -4.083906 -15.715431 -2.229343  -1.000000 -0.000026 0.000000  0.088611 0.627453 1 65 1.000000
0  -4.083906 -15.715431 -2.504115  -1.000000 -0.000008 0.000010  0.089018 0.627459 1 65 1.000000
0  -4.083900 -15.948190 -2.250405  -1.000000 -0.000001 0.000021  0.088637 0.627799 1 65 1.000000
lowpoly_plastic
0  -4.083906 -15.715431 -2.504115  -1.000000 -0.000008 0.000010  0.089018 0.627459 1 65 1.000000
0  -4.083906 -16.188715 -2.513677  -1.000000 0.000000 0.000000  0.089022 0.628161 1 65 1.000000
0  -4.083906 -16.142210 -2.367990  -1.000000 0.000004 0.000011  0.088807 0.628089 1 65 1.000000
lowpoly_plastic
0  -3.952880 -16.188715 -2.592802  -0.525953 0.013746 -0.850403  0.087636 0.626609 1 65 1.000000
0  -4.083906 -16.188715 -2.513677  -0.516858 0.017293 -0.855896  0.087442 0.626609 1 65 1.000000
0  -4.083906 -15.715431 -2.504115  -0.551937 0.003456 -0.833879  0.087442 0.625907 1 65 1.000000
lowpoly_plastic
0  -3.952880 -15.150292 -2.592802  -0.578196 0.006018 -0.815876  0.087636 0.625069 1 65 1.000000
0  -3.952880 -15.715431 -2.592802  -0.560530 0.000000 -0.828134  0.087636 0.625907 1 65 1.000000
0  -4.083906 -15.715431 -2.504115  -0.564326 0.001285 -0.825551  0.087442 0.625907 1 65 1.000000
lowpoly_plastic
0  -3.952880 -16.188715 -2.592802  0.000000 0.000000 -1.000000  0.087636 0.626609 1 65 1.000000
0  -3.952880 -15.715431 -2.592802  0.000000 0.000000 -1.000000  0.087636 0.625907 1 65 1.000000
0  -3.582160 -15.715431 -2.592802  0.000000 0.000000 -1.000000  0.088160 0.625907 1 65 1.000000
lowpoly_plastic
0  -3.582160 -15.150292 -2.592802  0.000000 0.000000 -1.000000  0.088160 0.625069 1 65 1.000000
0  -3.582160 -15.715431 -2.592802  0.000000 0.000000 -1.000000  0.088160 0.625907 1 65 1.000000
0  -3.952880 -15.715431 -2.592802  0.000000 0.000000 -1.000000  0.087636 0.625907 1 65 1.000000
lowpoly_plastic
0  -3.952880 -16.188715 -2.592802  0.000000 -1.000000 0.000002  0.089519 0.625263 1 65 1.000000
0  -3.582160 -16.188715 -2.592802  0.000000 -1.000000 0.000000  0.089519 0.625786 1 65 1.000000
0  -3.842398 -16.188715 -2.272169  0.000000 -1.000000 0.000003  0.089050 0.625427 1 65 1.000000
lowpoly_plastic
0  -3.582160 -16.188715 -2.592802  0.000000 -1.000000 0.000000  0.089519 0.625786 1 65 1.000000
0  -3.582160 -16.188715 -2.272169  0.000000 -1.000000 0.000000  0.089050 0.625786 1 65 1.000000
0  -3.842398 -16.188715 -2.272169  0.000000 -1.000000 0.000003  0.089050 0.625427 1 65 1.000000
lowpoly_plastic
0  -3.842398 -16.188715 -2.272169  0.000000 -1.000000 0.000003  0.089050 0.625427 1 65 1.000000
0  -3.982050 -16.188715 -2.372183  0.000000 -1.000000 0.000008  0.089196 0.625138 1 65 1.000000
0  -3.952880 -16.188715 -2.592802  0.000000 -1.000000 0.000002  0.089519 0.625263 1 65 1.000000
lowpoly_plastic
0  -4.010543 -16.115652 -2.265558  0.000005 -0.090117 0.995931  0.087333 0.626501 1 65 1.000000
0  -3.842398 -16.188715 -2.272169  0.000001 -0.090119 0.995931  0.087083 0.626610 1 65 1.000000
0  -4.083900 -15.948190 -2.250405  0.000003 -0.090119 0.995931  0.087442 0.626253 1 65 1.000000
lowpoly_plastic
0  -3.842398 -16.188715 -2.272169  0.000001 -0.090119 0.995931  0.087083 0.626610 1 65 1.000000
0  -3.582160 -16.188715 -2.272169  0.000000 -0.090119 0.995931  0.086724 0.626610 1 65 1.000000
0  -3.582160 -15.715431 -2.229343  0.000000 -0.090119 0.995931  0.086724 0.625907 1 65 1.000000
lowpoly_plastic
0  -4.083900 -15.948190 -2.250405  0.000003 -0.090119 0.995931  0.087442 0.626253 1 65 1.000000
0  -3.842398 -16.188715 -2.272169  0.000001 -0.090119 0.995931  0.087083 0.626610 1 65 1.000000
0  -3.952880 -15.715431 -2.229343  0.000001 -0.090119 0.995931  0.087247 0.625907 1 65 1.000000
lowpoly_plastic
0  -3.582160 -15.715431 -2.229343  0.000000 -0.090119 0.995931  0.086724 0.625907 1 65 1.000000
0  -3.952880 -15.715431 -2.229343  0.000001 -0.090119 0.995931  0.087247 0.625907 1 65 1.000000
0  -3.842398 -16.188715 -2.272169  0.000001 -0.090119 0.995931  0.087083 0.626610 1 65 1.000000
lowpoly_plastic
0  -3.211439 -15.544040 -1.933105  0.461436 0.000000 0.887173  0.086086 0.628693 1 65 1.000000
0  -3.132358 -15.567838 -1.974237  0.461436 0.000000 0.887173  0.086203 0.628730 1 65 1.000000
0  -3.132358 -15.150292 -1.974237  0.461435 0.000000 0.887174  0.086203 0.628111 1 65 1.000000
lowpoly_plastic
0  -3.132358 -15.567838 -1.974237  0.890609 0.000000 0.454769  0.088232 0.627229 1 65 1.000000
0  -3.080425 -15.626678 -2.075941  0.890610 0.000000 0.454769  0.088385 0.627318 1 65 1.000000
0  -3.080425 -15.150292 -2.075941  0.890608 0.000000 0.454771  0.088395 0.626612 1 65 1.000000
lowpoly_plastic
0  -3.080425 -15.626678 -2.075941  1.000000 0.000000 0.000075  0.088385 0.627318 1 65 1.000000
0  -3.080414 -15.715431 -2.229343  1.000000 0.000000 0.000075  0.088611 0.627453 1 65 1.000000
0  -3.080414 -15.150292 -2.229343  1.000000 0.000000 0.000075  0.088622 0.626615 1 65 1.000000
lowpoly_plastic
0  -3.080414 -15.150292 -2.229343  0.000000 1.000000 0.000000  0.086643 0.628046 1 65 1.000000
0  -3.211439 -15.150292 -2.229343  0.000000 1.000000 -0.000003  0.086643 0.627851 1 65 1.000000
0  -3.080425 -15.150292 -2.075941  0.000000 1.000000 -0.000008  0.086415 0.628046 1 65 1.000000
lowpoly_plastic
0  -3.211439 -15.150292 -2.229343  0.000000 1.000000 -0.000003  0.086643 0.627851 1 65 1.000000
0  -3.211439 -15.150292 -1.933105  0.000000 1.000000 0.000000  0.086203 0.627851 1 65 1.000000
0  -3.132358 -15.150292 -1.974237  0.000000 1.000000 -0.000003  0.086264 0.627969 1 65 1.000000
lowpoly_plastic
0  -3.211439 -15.544040 -1.933105  -0.000007 -0.865576 0.500778  0.087559 0.628161 1 65 1.000000
0  -3.211439 -15.715431 -2.229343  0.000001 -0.865570 0.500789  0.087559 0.628638 1 65 1.000000
0  -3.132358 -15.567838 -1.974237  -0.000003 -0.865573 0.500782  0.087676 0.628227 1 65 1.000000
lowpoly_plastic
0  -3.211439 -15.715431 -2.229343  0.000001 -0.865570 0.500789  0.087559 0.628638 1 65 1.000000
0  -3.080414 -15.715431 -2.229343  0.000000 -0.865569 0.500790  0.087753 0.628638 1 65 1.000000
0  -3.080425 -15.626678 -2.075941  0.000006 -0.865568 0.500792  0.087753 0.628391 1 65 1.000000
lowpoly_plastic
0  -3.211439 -15.150292 -2.229343  -1.000000 -0.000002 0.000000  0.027735 0.725616 1 65 1.000000
0  -3.211439 -15.316181 -2.229343  -1.000000 -0.000004 0.000000  0.027735 0.725370 1 65 1.000000
0  -3.211439 -15.316181 -2.056217  -1.000000 -0.000001 0.000000  0.027478 0.725370 1 65 1.000000
lowpoly_plastic
0  -3.211439 -15.150292 -1.933105  -1.000000 0.000000 0.000000  0.027296 0.725616 1 65 1.000000
0  -3.211439 -15.316181 -2.056217  -1.000000 0.000000 0.000000  0.027478 0.725370 1 65 1.000000
0  -3.211439 -15.423251 -2.056217  -1.000000 0.000000 0.000000  0.027478 0.725212 1 65 1.000000
lowpoly_plastic
0  -3.211439 -15.544040 -1.933105  -1.000000 0.000001 0.000000  0.027296 0.725032 1 65 1.000000
0  -3.211439 -15.423251 -2.056217  -1.000000 -0.000002 0.000000  0.027478 0.725212 1 65 1.000000
0  -3.211439 -15.490095 -2.123062  -1.000000 0.000001 0.000000  0.027577 0.725112 1 65 1.000000
lowpoly_plastic
0  -3.211439 -15.490095 -2.123062  0.000000 0.707123 -0.707090  0.038814 0.749839 1 65 1.000000
0  -3.211439 -15.423251 -2.056217  0.000000 0.707116 -0.707098  0.038814 0.749740 1 65 1.000000
0  -3.193370 -15.423251 -2.056217  0.000000 0.707117 -0.707097  0.038787 0.749740 1 65 1.000000
lowpoly_plastic
0  -3.211439 -15.423251 -2.056217  0.000000 0.000000 -1.000000  0.038814 0.749740 1 65 1.000000
0  -3.211439 -15.316181 -2.056217  0.000000 0.000000 -1.000000  0.038814 0.749581 1 65 1.000000
0  -3.193370 -15.316181 -2.056217  0.000000 0.000000 -1.000000  0.038787 0.749581 1 65 1.000000
lowpoly_plastic
0  -3.211439 -15.490095 -2.229343  0.000000 1.000000 0.000000  0.040459 0.749854 1 65 1.000000
0  -3.211439 -15.490095 -2.123062  0.000000 1.000000 0.000000  0.040459 0.749696 1 65 1.000000
0  -3.193370 -15.490095 -2.123062  0.000000 1.000000 0.000000  0.040432 0.749696 1 65 1.000000
lowpoly_plastic
0  -3.211439 -15.316181 -2.056217  0.000000 -1.000000 0.000000  0.040379 0.749696 1 65 1.000000
0  -3.211439 -15.316181 -2.229343  0.000000 -1.000000 0.000000  0.040379 0.749949 1 65 1.000000
0  -3.193370 -15.316181 -2.229343  0.000000 -1.000000 0.000000  0.040406 0.749949 1 65 1.000000
lowpoly_plastic
0  -3.193370 -15.316181 -2.056217  -1.000000 0.000000 0.000000  0.040122 0.749696 1 65 1.000000
0  -3.193370 -15.316181 -2.229343  -1.000000 0.000001 0.000000  0.039866 0.749696 1 65 1.000000
0  -3.193370 -15.423251 -2.056217  -1.000000 0.000000 0.000000  0.040122 0.749855 1 65 1.000000
lowpoly_plastic
0  -3.193370 -15.316181 -2.229343  -1.000000 0.000001 0.000000  0.039866 0.749696 1 65 1.000000
0  -3.193370 -15.490095 -2.229343  -1.000000 0.000003 0.000000  0.039866 0.749954 1 65 1.000000
0  -3.193370 -15.490095 -2.123062  -1.000000 0.000001 0.000000  0.040023 0.749954 1 65 1.000000
lowpoly_plastic
0  -3.211439 -15.150292 -2.229343  0.000000 -0.000001 1.000000  0.028340 0.721801 1 65 1.000000
0  -3.582160 -15.150292 -2.229343  0.000000 -0.000001 1.000000  0.027816 0.721801 1 65 1.000000
0  -3.582160 -15.316181 -2.229343  0.000000 -0.000001 1.000000  0.027816 0.722047 1 65 1.000000
lowpoly_plastic
0  -3.211439 -15.490095 -2.229343  0.000000 0.000000 1.000000  0.028340 0.722305 1 65 1.000000
0  -3.582160 -15.490095 -2.229343  0.000000 0.000000 1.000000  0.027816 0.722305 1 65 1.000000
0  -3.582160 -15.715431 -2.229343  0.000000 0.000000 1.000000  0.027816 0.722639 1 65 1.000000
lowpoly_plastic
0  -3.193370 -15.316181 -2.229343  0.000000 0.000001 1.000000  0.038908 0.746850 1 65 1.000000
0  -3.582160 -15.316181 -2.229343  0.000000 0.000001 1.000000  0.038358 0.746850 1 65 1.000000
0  -3.582160 -15.490095 -2.229343  0.000000 0.000001 1.000000  0.038358 0.747108 1 65 1.000000
lowpoly_plastic
0  -3.211439 -15.150292 -2.229343  0.000000 1.000000 0.000000  0.086643 0.627851 1 65 1.000000
0  -3.211439 -15.150292 -2.499053  0.000000 1.000000 0.000000  0.087043 0.627851 1 65 1.000000
0  -3.582160 -15.150292 -2.499053  0.000000 1.000000 0.000000  0.087043 0.627328 1 65 1.000000
lowpoly_plastic
0  -3.080414 -15.150292 -2.229343  0.000000 1.000000 0.000000  0.086643 0.628046 1 65 1.000000
0  -3.080414 -15.150292 -2.499053  0.000000 1.000000 0.000000  0.087043 0.628046 1 65 1.000000
0  -3.211439 -15.150292 -2.499053  0.000000 1.000000 0.000000  0.087043 0.627851 1 65 1.000000
lowpoly_plastic
0  -3.211439 -15.150292 -2.499053  0.000000 1.000000 0.000000  0.087043 0.627851 1 65 1.000000
0  -3.211439 -15.150292 -2.592802  0.000000 1.000000 0.000000  0.087182 0.627851 1 65 1.000000
0  -3.582160 -15.150292 -2.592802  0.000000 1.000000 0.000000  0.087182 0.627328 1 65 1.000000
lowpoly_plastic
0  -3.080414 -15.715431 -2.504115  1.000000 0.000000 0.000000  0.089018 0.627459 1 65 1.000000
0  -3.080414 -15.150292 -2.499053  1.000000 0.000000 0.000000  0.089022 0.626620 1 65 1.000000
0  -3.080414 -15.150292 -2.229343  1.000000 0.000000 0.000000  0.088622 0.626615 1 65 1.000000
lowpoly_plastic
0  -3.080414 -16.188715 -2.513677  1.000000 0.000000 0.000000  0.089022 0.628161 1 65 1.000000
0  -3.080414 -15.715431 -2.504115  1.000000 -0.000008 0.000010  0.089018 0.627459 1 65 1.000000
0  -3.080414 -16.142210 -2.367990  1.000000 0.000003 0.000011  0.088807 0.628089 1 65 1.000000
lowpoly_plastic
0  -3.080414 -15.715431 -2.504115  1.000000 -0.000008 0.000010  0.089018 0.627459 1 65 1.000000
0  -3.080414 -15.715431 -2.229343  1.000000 -0.000023 0.000000  0.088611 0.627453 1 65 1.000000
0  -3.080419 -15.948190 -2.250405  1.000000 -0.000002 0.000020  0.088637 0.627799 1 65 1.000000
lowpoly_plastic
0  -3.211439 -16.188715 -2.592802  0.525953 0.013746 -0.850403  0.087636 0.626609 1 65 1.000000
0  -3.211439 -15.715431 -2.592802  0.560533 0.000000 -0.828132  0.087636 0.625907 1 65 1.000000
0  -3.080414 -15.715431 -2.504115  0.551937 0.003456 -0.833879  0.087442 0.625907 1 65 1.000000
lowpoly_plastic
0  -3.211439 -15.150292 -2.592802  0.578196 0.006018 -0.815876  0.087636 0.625069 1 65 1.000000
0  -3.080414 -15.150292 -2.499053  0.581874 0.007284 -0.813247  0.087442 0.625069 1 65 1.000000
0  -3.080414 -15.715431 -2.504115  0.564326 0.001285 -0.825551  0.087442 0.625907 1 65 1.000000
lowpoly_plastic
0  -3.211439 -16.188715 -2.592802  0.000000 0.000000 -1.000000  0.087636 0.626609 1 65 1.000000
0  -3.582160 -16.188715 -2.592802  0.000000 0.000000 -1.000000  0.088160 0.626609 1 65 1.000000
0  -3.582160 -15.715431 -2.592802  0.000000 0.000000 -1.000000  0.088160 0.625907 1 65 1.000000
lowpoly_plastic
0  -3.582160 -15.150292 -2.592802  0.000000 0.000000 -1.000000  0.088160 0.625069 1 65 1.000000
0  -3.211439 -15.150292 -2.592802  0.000000 0.000000 -1.000000  0.087636 0.625069 1 65 1.000000
0  -3.211439 -15.715431 -2.592802  0.000000 0.000000 -1.000000  0.087636 0.625907 1 65 1.000000
lowpoly_plastic
0  -3.211439 -16.188715 -2.592802  0.000000 -1.000000 0.000004  0.089519 0.625263 1 65 1.000000
0  -3.080414 -16.188715 -2.513677  0.000000 -1.000000 0.000009  0.089403 0.625069 1 65 1.000000
0  -3.182270 -16.188715 -2.372183  0.000000 -1.000000 0.000008  0.089196 0.625138 1 65 1.000000
lowpoly_plastic
0  -3.182270 -16.188715 -2.372183  0.000000 -1.000000 0.000008  0.089196 0.625138 1 65 1.000000
0  -3.321922 -16.188715 -2.272169  0.000000 -1.000000 0.000002  0.089050 0.625427 1 65 1.000000
0  -3.211439 -16.188715 -2.592802  0.000000 -1.000000 0.000004  0.089519 0.625263 1 65 1.000000
lowpoly_plastic
0  -3.321922 -16.188715 -2.272169  0.000000 -1.000000 0.000002  0.089050 0.625427 1 65 1.000000
0  -3.582160 -16.188715 -2.272169  0.000000 -1.000000 0.000000  0.089050 0.625786 1 65 1.000000
0  -3.582160 -16.188715 -2.592802  0.000000 -1.000000 0.000000  0.089519 0.625786 1 65 1.000000
lowpoly_plastic
0  -3.153776 -16.115652 -2.265558  -0.000005 -0.090118 0.995931  0.087333 0.626501 1 65 1.000000
0  -3.080419 -15.948190 -2.250405  -0.000003 -0.090119 0.995931  0.087442 0.626253 1 65 1.000000
0  -3.321922 -16.188715 -2.272169  -0.000001 -0.090119 0.995931  0.087083 0.626610 1 65 1.000000
lowpoly_plastic
0  -3.080419 -15.948190 -2.250405  -0.000003 -0.090119 0.995931  0.087442 0.626253 1 65 1.000000
0  -3.080414 -15.715431 -2.229343  0.000000 -0.090120 0.995931  0.087442 0.625907 1 65 1.000000
0  -3.211439 -15.715431 -2.229343  -0.000001 -0.090119 0.995931  0.087247 0.625907 1 65 1.000000
lowpoly_plastic
0  -3.211439 -15.715431 -2.229343  -0.000001 -0.090119 0.995931  0.087247 0.625907 1 65 1.000000
0  -3.582160 -15.715431 -2.229343  0.000000 -0.090119 0.995931  0.086724 0.625907 1 65 1.000000
0  -3.321922 -16.188715 -2.272169  -0.000001 -0.090119 0.995931  0.087083 0.626610 1 65 1.000000
lowpoly_plastic
0  -3.582160 -15.715431 -2.229343  0.000000 -0.090119 0.995931  0.086724 0.625907 1 65 1.000000
0  -3.582160 -16.188715 -2.272169  0.000000 -0.090119 0.995931  0.086724 0.626610 1 65 1.000000
0  -3.321922 -16.188715 -2.272169  -0.000001 -0.090119 0.995931  0.087083 0.626610 1 65 1.000000
lowpoly_plastic
0  -3.722107 -15.396440 -1.935343  0.000000 -1.000000 -0.000007  0.032484 0.731641 1 65 1.000000
0  -3.722107 -15.396440 -1.814288  0.000000 -1.000000 0.000000  0.032325 0.731641 1 65 1.000000
0  -3.932768 -15.396440 -1.814288  0.000000 -1.000000 0.000000  0.032325 0.731292 1 65 1.000000
lowpoly_plastic
0  -3.231544 -15.396440 -2.059411  0.000000 -1.000000 0.000002  0.032688 0.732332 1 65 1.000000
0  -3.231544 -15.396440 -1.814288  0.000000 -1.000000 0.000000  0.032325 0.732332 1 65 1.000000
0  -3.442205 -15.396440 -1.935343  0.000000 -1.000000 0.000000  0.032484 0.731984 1 65 1.000000
lowpoly_plastic
0  -3.231544 -15.396440 -1.814288  0.000000 -1.000000 0.000000  0.032325 0.732332 1 65 1.000000
0  -3.442205 -15.396440 -1.814288  0.000000 -1.000000 0.000000  0.032325 0.731984 1 65 1.000000
0  -3.442205 -15.396440 -1.935343  0.000000 -1.000000 0.000000  0.032484 0.731984 1 65 1.000000
lowpoly_plastic
0  -3.722107 -15.396440 -1.935343  0.000000 -1.000000 -0.000007  0.032484 0.731641 1 65 1.000000
0  -3.932768 -15.396440 -1.814288  0.000000 -1.000000 0.000000  0.032325 0.731292 1 65 1.000000
0  -3.932768 -15.396440 -2.059411  0.000000 -1.000000 -0.000001  0.032688 0.731292 1 65 1.000000
lowpoly_plastic
0  -3.231544 -15.396440 -2.059411  0.000000 -1.000000 0.000002  0.032688 0.732332 1 65 1.000000
0  -3.442205 -15.396440 -1.935343  0.000000 -1.000000 0.000000  0.032484 0.731984 1 65 1.000000
0  -3.582156 -15.396440 -2.016144  0.000000 -1.000000 0.000020  0.032583 0.731812 1 65 1.000000
lowpoly_plastic
0  -3.582156 -15.396440 -2.016144  0.000000 -1.000000 0.000020  0.032583 0.731812 1 65 1.000000
0  -3.722107 -15.396440 -1.935343  0.000000 -1.000000 -0.000007  0.032484 0.731641 1 65 1.000000
0  -3.932768 -15.396440 -2.059411  0.000000 -1.000000 -0.000001  0.032688 0.731292 1 65 1.000000
lowpoly_plastic
0  -3.442205 -15.396440 -1.773741  0.000000 -1.000000 -0.000003  0.032285 0.731984 1 65 1.000000
0  -3.442205 -15.396440 -1.814288  0.000000 -1.000000 0.000000  0.032325 0.731984 1 65 1.000000
0  -3.231544 -15.396440 -1.814288  0.000000 -1.000000 -0.000006  0.032325 0.732332 1 65 1.000000
lowpoly_plastic
0  -3.231544 -15.396440 -1.814288  0.000000 -1.000000 -0.000006  0.032325 0.732332 1 65 1.000000
0  -3.436927 -15.396440 -1.608904  0.000000 -1.000000 -0.000003  0.032020 0.732028 1 65 1.000000
0  -3.442205 -15.396440 -1.773741  0.000000 -1.000000 -0.000003  0.032285 0.731984 1 65 1.000000
lowpoly_plastic
0  -3.436927 -15.396440 -1.608904  0.000000 -1.000000 -0.000003  0.032020 0.732028 1 65 1.000000
0  -3.727384 -15.396440 -1.608904  0.000000 -1.000000 0.000000  0.032020 0.731597 1 65 1.000000
0  -3.582156 -15.396440 -1.692941  0.000000 -1.000000 0.000000  0.032186 0.731812 1 65 1.000000
lowpoly_plastic
0  -3.442205 -15.396440 -1.773741  0.000000 -1.000000 -0.000003  0.032285 0.731984 1 65 1.000000
0  -3.436927 -15.396440 -1.608904  0.000000 -1.000000 -0.000003  0.032020 0.732028 1 65 1.000000
0  -3.582156 -15.396440 -1.692941  0.000000 -1.000000 0.000000  0.032186 0.731812 1 65 1.000000
lowpoly_plastic
0  -3.727384 -15.396440 -1.608904  0.000000 -1.000000 0.000000  0.032020 0.731597 1 65 1.000000
0  -3.932768 -15.396440 -1.814288  0.000000 -1.000000 0.000000  0.032325 0.731292 1 65 1.000000
0  -3.722107 -15.396440 -1.773741  0.000000 -1.000000 0.000000  0.032285 0.731641 1 65 1.000000
lowpoly_plastic
0  -3.932768 -15.396440 -1.814288  0.000000 -1.000000 0.000000  0.032325 0.731292 1 65 1.000000
0  -3.722107 -15.396440 -1.814288  0.000000 -1.000000 0.000000  0.032325 0.731641 1 65 1.000000
0  -3.722107 -15.396440 -1.773741  0.000000 -1.000000 0.000000  0.032285 0.731641 1 65 1.000000
lowpoly_plastic
0  -3.231544 -15.396440 -2.059411  0.000000 0.000000 1.000000  0.030404 0.732333 1 65 1.000000
0  -3.932768 -15.396440 -2.059411  0.000000 0.000000 1.000000  0.030404 0.731293 1 65 1.000000
0  -3.932768 -15.425259 -2.059411  0.000000 0.000000 1.000000  0.030425 0.731293 1 65 1.000000
lowpoly_plastic
0  -3.231544 -15.425259 -2.059411  0.000000 -1.000000 0.000000  0.030180 0.732333 1 65 1.000000
0  -3.932768 -15.425259 -2.059411  0.000000 -1.000000 0.000000  0.030180 0.731293 1 65 1.000000
0  -3.932768 -15.425259 -2.195548  0.000000 -1.000000 0.000000  0.030382 0.731293 1 65 1.000000
lowpoly_plastic
0  -3.231544 -15.425259 -2.195548  0.000000 -0.538487 -0.842634  0.032517 0.729751 1 65 1.000000
0  -3.932768 -15.425259 -2.195548  0.000000 -0.538487 -0.842634  0.032517 0.728711 1 65 1.000000
0  -3.932768 -15.371951 -2.229614  0.000000 -0.538487 -0.842634  0.032596 0.728711 1 65 1.000000
lowpoly_plastic
0  -3.231544 -15.318188 -2.059411  0.000000 -1.000000 0.000000  0.030180 0.731293 1 65 1.000000
0  -3.932768 -15.318188 -2.059411  0.000000 -1.000000 0.000000  0.030180 0.730252 1 65 1.000000
0  -3.932768 -15.318188 -2.195548  0.000000 -1.000000 0.000000  0.030382 0.730252 1 65 1.000000
lowpoly_plastic
0  -3.932768 -15.371951 -2.229614  0.000000 0.535225 -0.844710  0.032596 0.728711 1 65 1.000000
0  -3.932768 -15.318188 -2.195548  0.000000 0.535225 -0.844710  0.032676 0.728711 1 65 1.000000
0  -3.231544 -15.318188 -2.195548  0.000000 0.535225 -0.844710  0.032676 0.729751 1 65 1.000000
lowpoly_plastic
0  -3.932768 -15.318188 -2.059411  0.000000 0.000000 -1.000000  0.030425 0.730252 1 65 1.000000
0  -3.231544 -15.318188 -2.059411  0.000000 0.000000 -1.000000  0.030425 0.731293 1 65 1.000000
0  -3.231544 -15.347465 -2.059411  0.000000 0.000000 -1.000000  0.030382 0.731293 1 65 1.000000
lowpoly_plastic
0  -3.806657 -15.347465 -1.841705  0.000000 -1.000000 -0.000045  0.032365 0.730460 1 65 1.000000
0  -3.722107 -15.347465 -1.846361  0.000000 -1.000000 0.000000  0.032367 0.730600 1 65 1.000000
0  -3.722107 -15.347465 -1.814288  0.000000 -1.000000 -0.000016  0.032325 0.730600 1 65 1.000000
lowpoly_plastic
0  -3.231544 -15.347465 -1.814288  0.000000 -1.000000 0.000000  0.032325 0.731292 1 65 1.000000
0  -3.442205 -15.347465 -1.814288  0.000000 -1.000000 0.000000  0.032325 0.730943 1 65 1.000000
0  -3.357656 -15.347465 -1.841705  0.000000 -1.000000 0.000000  0.032365 0.731084 1 65 1.000000
lowpoly_plastic
0  -3.442205 -15.347465 -1.814288  0.000000 -1.000000 0.000000  0.032325 0.730943 1 65 1.000000
0  -3.442205 -15.347465 -1.846361  0.000000 -1.000000 0.000000  0.032367 0.730943 1 65 1.000000
0  -3.357656 -15.347465 -1.841705  0.000000 -1.000000 0.000000  0.032365 0.731084 1 65 1.000000
lowpoly_plastic
0  -3.806657 -15.347465 -1.841705  0.000000 -1.000000 -0.000045  0.032365 0.730460 1 65 1.000000
0  -3.722107 -15.347465 -1.814288  0.000000 -1.000000 -0.000016  0.032325 0.730600 1 65 1.000000
0  -3.932768 -15.347465 -1.814288  0.000000 -1.000000 -0.000011  0.032325 0.730252 1 65 1.000000
lowpoly_plastic
0  -3.722107 -15.347465 -1.935343  0.000000 -1.000000 0.000003  0.032484 0.730600 1 65 1.000000
0  -3.722107 -15.347465 -1.862724  0.000000 -1.000000 0.000000  0.032388 0.730600 1 65 1.000000
0  -3.806657 -15.347465 -1.867380  0.000000 -1.000000 0.000003  0.032402 0.730458 1 65 1.000000
lowpoly_plastic
0  -3.806657 -15.347465 -1.867380  0.000000 -1.000000 0.000003  0.032402 0.730458 1 65 1.000000
0  -3.806657 -15.347465 -1.841705  0.000000 -1.000000 -0.000045  0.032365 0.730460 1 65 1.000000
0  -3.932768 -15.347465 -1.814288  0.000000 -1.000000 -0.000011  0.032325 0.730252 1 65 1.000000
lowpoly_plastic
0  -3.231544 -15.347465 -2.059411  0.000000 -1.000000 0.000001  0.032688 0.731292 1 65 1.000000
0  -3.231544 -15.347465 -1.814288  0.000000 -1.000000 0.000000  0.032325 0.731292 1 65 1.000000
0  -3.357656 -15.347465 -1.867380  0.000000 -1.000000 0.000000  0.032402 0.731085 1 65 1.000000
lowpoly_plastic
0  -3.231544 -15.347465 -1.814288  0.000000 -1.000000 0.000000  0.032325 0.731292 1 65 1.000000
0  -3.357656 -15.347465 -1.841705  0.000000 -1.000000 0.000000  0.032365 0.731084 1 65 1.000000
0  -3.357656 -15.347465 -1.867380  0.000000 -1.000000 0.000000  0.032402 0.731085 1 65 1.000000
lowpoly_plastic
0  -3.357656 -15.347465 -1.867380  0.000000 -1.000000 0.000000  0.032402 0.731085 1 65 1.000000
0  -3.442205 -15.347465 -1.862724  0.000000 -1.000000 0.000000  0.032388 0.730943 1 65 1.000000
0  -3.442205 -15.347465 -1.935343  0.000000 -1.000000 0.000007  0.032484 0.730943 1 65 1.000000
lowpoly_plastic
0  -3.806657 -15.347465 -1.867380  0.000000 -1.000000 0.000003  0.032402 0.730458 1 65 1.000000
0  -3.932768 -15.347465 -1.814288  0.000000 -1.000000 -0.000011  0.032325 0.730252 1 65 1.000000
0  -3.932768 -15.347465 -2.059411  0.000000 -1.000000 0.000000  0.032688 0.730252 1 65 1.000000
lowpoly_plastic
0  -3.722107 -15.347465 -1.935343  0.000000 -1.000000 0.000003  0.032484 0.730600 1 65 1.000000
0  -3.806657 -15.347465 -1.867380  0.000000 -1.000000 0.000003  0.032402 0.730458 1 65 1.000000
0  -3.932768 -15.347465 -2.059411  0.000000 -1.000000 0.000000  0.032688 0.730252 1 65 1.000000
lowpoly_plastic
0  -3.231544 -15.347465 -2.059411  0.000000 -1.000000 0.000001  0.032688 0.731292 1 65 1.000000
0  -3.357656 -15.347465 -1.867380  0.000000 -1.000000 0.000000  0.032402 0.731085 1 65 1.000000
0  -3.442205 -15.347465 -1.935343  0.000000 -1.000000 0.000007  0.032484 0.730943 1 65 1.000000
lowpoly_plastic
0  -3.582156 -15.347465 -2.016144  0.000000 -1.000000 -0.000020  0.032583 0.730772 1 65 1.000000
0  -3.722107 -15.347465 -1.935343  0.000000 -1.000000 0.000003  0.032484 0.730600 1 65 1.000000
0  -3.932768 -15.347465 -2.059411  0.000000 -1.000000 0.000000  0.032688 0.730252 1 65 1.000000
lowpoly_plastic
0  -3.231544 -15.347465 -2.059411  0.000000 -1.000000 0.000001  0.032688 0.731292 1 65 1.000000
0  -3.442205 -15.347465 -1.935343  0.000000 -1.000000 0.000007  0.032484 0.730943 1 65 1.000000
0  -3.582156 -15.347465 -2.016144  0.000000 -1.000000 -0.000020  0.032583 0.730772 1 65 1.000000
lowpoly_plastic
0  -3.442205 -15.347465 -1.773741  0.000000 -1.000000 -0.000003  0.032285 0.730943 1 65 1.000000
0  -3.442205 -15.347465 -1.814288  0.000000 -1.000000 0.000000  0.032325 0.730943 1 65 1.000000
0  -3.231544 -15.347465 -1.814288  0.000000 -1.000000 -0.000005  0.032325 0.731292 1 65 1.000000
lowpoly_plastic
0  -3.231544 -15.347465 -1.814288  0.000000 -1.000000 -0.000005  0.032325 0.731292 1 65 1.000000
0  -3.436927 -15.347465 -1.608904  0.000000 -1.000000 -0.000007  0.032020 0.730987 1 65 1.000000
0  -3.442205 -15.347465 -1.773741  0.000000 -1.000000 -0.000003  0.032285 0.730943 1 65 1.000000
lowpoly_plastic
0  -3.436927 -15.347465 -1.608904  0.000000 -1.000000 -0.000007  0.032020 0.730987 1 65 1.000000
0  -3.727384 -15.347465 -1.608904  0.000000 -1.000000 -0.000004  0.032020 0.730556 1 65 1.000000
0  -3.582156 -15.347465 -1.692941  0.000000 -1.000000 -0.000010  0.032186 0.730772 1 65 1.000000
lowpoly_plastic
0  -3.442205 -15.347465 -1.773741  0.000000 -1.000000 -0.000003  0.032285 0.730943 1 65 1.000000
0  -3.436927 -15.347465 -1.608904  0.000000 -1.000000 -0.000007  0.032020 0.730987 1 65 1.000000
0  -3.582156 -15.347465 -1.692941  0.000000 -1.000000 -0.000010  0.032186 0.730772 1 65 1.000000
lowpoly_plastic
0  -3.727384 -15.347465 -1.608904  0.000000 -1.000000 -0.000004  0.032020 0.730556 1 65 1.000000
0  -3.932768 -15.347465 -1.814288  0.000000 -1.000000 0.000000  0.032325 0.730252 1 65 1.000000
0  -3.722107 -15.347465 -1.773741  0.000000 -1.000000 0.000000  0.032285 0.730600 1 65 1.000000
lowpoly_plastic
0  -3.932768 -15.347465 -1.814288  0.000000 -1.000000 0.000000  0.032325 0.730252 1 65 1.000000
0  -3.722107 -15.347465 -1.814288  0.000000 -1.000000 0.000000  0.032325 0.730600 1 65 1.000000
0  -3.722107 -15.347465 -1.773741  0.000000 -1.000000 0.000000  0.032285 0.730600 1 65 1.000000
lowpoly_plastic
0  -3.727384 -15.396440 -1.608904  0.000000 -0.000002 1.000000  0.030946 0.732234 1 65 1.000000
0  -3.436927 -15.396440 -1.608904  0.000000 0.000000 1.000000  0.030946 0.731803 1 65 1.000000
0  -3.436927 -15.347465 -1.608904  0.000000 -0.000000 1.000000  0.030982 0.731803 1 65 1.000000
lowpoly_plastic
0  -3.932768 -15.396440 -1.814288  -0.707114 -0.000007 0.707099  0.029004 0.732056 1 65 1.000000
0  -3.727384 -15.396440 -1.608904  -0.707099 0.000004 0.707114  0.029004 0.731752 1 65 1.000000
0  -3.727384 -15.347465 -1.608904  -0.707101 0.000003 0.707112  0.029077 0.731752 1 65 1.000000
lowpoly_plastic
0  -3.436927 -15.396440 -1.608904  0.707114 0.000000 0.707099  0.030152 0.731688 1 65 1.000000
0  -3.231544 -15.396440 -1.814288  0.707100 0.000000 0.707114  0.030152 0.731993 1 65 1.000000
0  -3.231544 -15.347465 -1.814288  0.707102 0.000000 0.707112  0.030079 0.731993 1 65 1.000000
lowpoly_plastic
0  -3.932768 -15.396440 -2.059411  -1.000000 0.000001 0.000000  0.029004 0.732420 1 65 1.000000
0  -3.932768 -15.396440 -1.814288  -1.000000 0.000007 0.000000  0.029004 0.732056 1 65 1.000000
0  -3.932768 -15.347465 -1.814288  -1.000000 0.000006 0.000000  0.029077 0.732056 1 65 1.000000
lowpoly_plastic
0  -3.231544 -15.396440 -1.814288  1.000000 0.000000 0.000000  0.030152 0.731993 1 65 1.000000
0  -3.231544 -15.396440 -2.059411  1.000000 0.000000 0.000000  0.030152 0.732356 1 65 1.000000
0  -3.231544 -15.347465 -2.059411  1.000000 0.000000 0.000000  0.030079 0.732356 1 65 1.000000
lowpoly_plastic
0  -3.582156 -15.347465 -2.016144  -0.500002 0.000000 0.866024  0.018726 0.762794 1 65 1.000000
0  -3.582156 -15.396440 -2.016144  -0.500002 0.000000 0.866024  0.018653 0.762794 1 65 1.000000
0  -3.442205 -15.396440 -1.935343  -0.500002 0.000000 0.866024  0.018653 0.762695 1 65 1.000000
lowpoly_plastic
0  -3.442205 -15.349971 -1.862724  -1.000000 -0.000003 0.000000  0.018722 0.762600 1 65 1.000000
0  -3.442205 -15.347465 -1.862724  -1.000000 0.000000 0.000000  0.018726 0.762600 1 65 1.000000
0  -3.442205 -15.347465 -1.935343  -1.000000 0.000000 0.000000  0.018726 0.762695 1 65 1.000000
lowpoly_plastic
0  -3.442205 -15.347465 -1.935343  -1.000000 0.000000 0.000000  0.018726 0.762695 1 65 1.000000
0  -3.442205 -15.396440 -1.935343  -1.000000 0.000000 0.000000  0.018653 0.762695 1 65 1.000000
0  -3.442205 -15.349971 -1.862724  -1.000000 -0.000003 0.000000  0.018722 0.762600 1 65 1.000000
lowpoly_plastic
0  -3.442205 -15.396440 -1.935343  -1.000000 0.000000 0.000000  0.018653 0.762695 1 65 1.000000
0  -3.442205 -15.396440 -1.814288  -1.000000 -0.000001 0.000000  0.018653 0.762537 1 65 1.000000
0  -3.442205 -15.349971 -1.862724  -1.000000 -0.000003 0.000000  0.018722 0.762600 1 65 1.000000
lowpoly_plastic
0  -3.442205 -15.396440 -1.814288  -1.000000 -0.000001 0.000000  0.018653 0.762537 1 65 1.000000
0  -3.442205 -15.396440 -1.773741  -1.000000 0.000000 0.000000  0.018653 0.762497 1 65 1.000000
0  -3.442205 -15.347465 -1.773741  -1.000000 0.000000 0.000000  0.018726 0.762497 1 65 1.000000
lowpoly_plastic
0  -3.442205 -15.347465 -1.814288  -1.000000 0.000000 0.000000  0.018726 0.762537 1 65 1.000000
0  -3.442205 -15.347465 -1.846361  -1.000000 0.000000 0.000000  0.018726 0.762579 1 65 1.000000
0  -3.442205 -15.349971 -1.846361  -1.000000 -0.000009 0.000000  0.018722 0.762579 1 65 1.000000
lowpoly_plastic
0  -3.442205 -15.396440 -1.814288  -1.000000 -0.000001 0.000000  0.018653 0.762537 1 65 1.000000
0  -3.442205 -15.347465 -1.773741  -1.000000 0.000000 0.000000  0.018726 0.762497 1 65 1.000000
0  -3.442205 -15.347465 -1.814288  -1.000000 0.000000 0.000000  0.018726 0.762537 1 65 1.000000
lowpoly_plastic
0  -3.442205 -15.396440 -1.814288  -1.000000 -0.000001 0.000000  0.018653 0.762537 1 65 1.000000
0  -3.442205 -15.347465 -1.814288  -1.000000 0.000000 0.000000  0.018726 0.762537 1 65 1.000000
0  -3.442205 -15.349971 -1.846361  -1.000000 -0.000009 0.000000  0.018722 0.762579 1 65 1.000000
lowpoly_plastic
0  -3.442205 -15.396440 -1.773741  -0.500003 0.000000 -0.866024  0.018581 0.762840 1 65 1.000000
0  -3.582156 -15.396440 -1.692941  -0.500002 0.000000 -0.866024  0.018581 0.762669 1 65 1.000000
0  -3.582156 -15.347465 -1.692941  -0.500002 0.000000 -0.866024  0.018653 0.762669 1 65 1.000000
lowpoly_plastic
0  -3.582156 -15.396440 -1.692941  0.500002 0.000000 -0.866024  0.018581 0.762669 1 65 1.000000
0  -3.722107 -15.396440 -1.773741  0.500003 0.000000 -0.866024  0.018581 0.762497 1 65 1.000000
0  -3.722107 -15.347465 -1.773741  0.500003 0.000000 -0.866024  0.018653 0.762497 1 65 1.000000
lowpoly_plastic
0  -3.722107 -15.349971 -1.846361  1.000000 -0.000000 0.000000  0.018730 0.762579 1 65 1.000000
0  -3.722107 -15.347465 -1.846361  1.000000 0.000000 0.000000  0.018726 0.762579 1 65 1.000000
0  -3.722107 -15.347465 -1.814288  1.000000 0.000003 0.000000  0.018726 0.762537 1 65 1.000000
lowpoly_plastic
0  -3.722107 -15.347465 -1.814288  1.000000 0.000003 0.000000  0.018726 0.762537 1 65 1.000000
0  -3.722107 -15.347465 -1.773741  1.000000 0.000000 0.000000  0.018726 0.762497 1 65 1.000000
0  -3.722107 -15.396440 -1.773741  1.000000 0.000008 0.000000  0.018799 0.762497 1 65 1.000000
lowpoly_plastic
0  -3.722107 -15.396440 -1.814288  1.000000 0.000007 0.000000  0.018799 0.762537 1 65 1.000000
0  -3.722107 -15.396440 -1.935343  1.000000 0.000000 0.000000  0.018799 0.762695 1 65 1.000000
0  -3.722107 -15.349971 -1.862724  1.000000 0.000000 0.000000  0.018730 0.762600 1 65 1.000000
lowpoly_plastic
0  -3.722107 -15.396440 -1.935343  1.000000 0.000000 0.000000  0.018799 0.762695 1 65 1.000000
0  -3.722107 -15.347465 -1.935343  1.000000 0.000000 0.000000  0.018726 0.762695 1 65 1.000000
0  -3.722107 -15.349971 -1.862724  1.000000 0.000000 0.000000  0.018730 0.762600 1 65 1.000000
lowpoly_plastic
0  -3.722107 -15.347465 -1.814288  1.000000 0.000003 0.000000  0.018726 0.762537 1 65 1.000000
0  -3.722107 -15.396440 -1.773741  1.000000 0.000008 0.000000  0.018799 0.762497 1 65 1.000000
0  -3.722107 -15.396440 -1.814288  1.000000 0.000007 0.000000  0.018799 0.762537 1 65 1.000000
lowpoly_plastic
0  -3.722107 -15.349971 -1.846361  1.000000 -0.000000 0.000000  0.018730 0.762579 1 65 1.000000
0  -3.722107 -15.347465 -1.814288  1.000000 0.000003 0.000000  0.018726 0.762537 1 65 1.000000
0  -3.722107 -15.396440 -1.814288  1.000000 0.000007 0.000000  0.018799 0.762537 1 65 1.000000
lowpoly_plastic
0  -3.722107 -15.347465 -1.935343  1.000000 0.000000 0.000000  0.018726 0.762695 1 65 1.000000
0  -3.722107 -15.347465 -1.862724  1.000000 0.000000 0.000000  0.018726 0.762600 1 65 1.000000
0  -3.722107 -15.349971 -1.862724  1.000000 0.000000 0.000000  0.018730 0.762600 1 65 1.000000
lowpoly_plastic
0  -3.722107 -15.347465 -1.935343  0.500002 0.000000 0.866024  0.018726 0.762695 1 65 1.000000
0  -3.722107 -15.396440 -1.935343  0.500002 0.000000 0.866024  0.018799 0.762695 1 65 1.000000
0  -3.582156 -15.396440 -2.016144  0.500002 0.000000 0.866024  0.018799 0.762794 1 65 1.000000
lowpoly_metal
0  -4.087522 -15.323338 -2.168886  0.000000 0.866018 -0.500013  0.085048 0.467109 1 65 1.000000
0  -3.076790 -15.323338 -2.168886  0.000000 0.866018 -0.500013  0.085048 0.465610 1 65 1.000000
0  -3.076790 -15.347645 -2.210987  0.000000 0.866018 -0.500013  0.085085 0.465610 1 65 1.000000
lowpoly_metal
0  -4.087522 -15.347645 -2.210987  0.000000 0.000000 -1.000000  0.082266 0.467151 1 65 1.000000
0  -3.076790 -15.347645 -2.210987  0.000000 0.000000 -1.000000  0.082266 0.468651 1 65 1.000000
0  -3.076790 -15.396258 -2.210987  0.000000 0.000000 -1.000000  0.082194 0.468651 1 65 1.000000
lowpoly_metal
0  -4.087522 -15.396258 -2.210987  0.000000 -0.866018 -0.500013  0.082194 0.467151 1 65 1.000000
0  -3.076790 -15.396258 -2.210987  0.000000 -0.866018 -0.500013  0.082194 0.468651 1 65 1.000000
0  -3.076790 -15.420567 -2.168886  0.000000 -0.866018 -0.500013  0.082131 0.468651 1 65 1.000000
lowpoly_metal
0  -4.087522 -15.420567 -2.168886  0.000000 -0.866019 0.500011  0.082131 0.467151 1 65 1.000000
0  -3.076790 -15.420567 -2.168886  0.000000 -0.866019 0.500011  0.082131 0.468651 1 65 1.000000
0  -3.076790 -15.396258 -2.126786  0.000000 -0.866019 0.500011  0.082069 0.468651 1 65 1.000000
lowpoly_metal
0  -3.076790 -15.347645 -2.126786  1.000000 0.000004 0.000000  0.084915 0.468883 1 65 1.000000
0  -3.076790 -15.396258 -2.126786  1.000000 -0.000004 0.000000  0.084977 0.468846 1 65 1.000000
0  -3.076790 -15.347645 -2.210987  1.000000 0.000002 0.000000  0.084977 0.468991 1 65 1.000000
lowpoly_metal
0  -3.076790 -15.396258 -2.126786  1.000000 -0.000004 0.000000  0.084977 0.468846 1 65 1.000000
0  -3.076790 -15.420567 -2.168886  1.000000 -0.000005 0.000000  0.085040 0.468883 1 65 1.000000
0  -3.076790 -15.347645 -2.210987  1.000000 0.000002 0.000000  0.084977 0.468991 1 65 1.000000
lowpoly_metal
0  -3.076790 -15.420567 -2.168886  1.000000 -0.000005 0.000000  0.085040 0.468883 1 65 1.000000
0  -3.076790 -15.396258 -2.210987  1.000000 0.000000 0.000000  0.085040 0.468955 1 65 1.000000
0  -3.076790 -15.347645 -2.210987  1.000000 0.000002 0.000000  0.084977 0.468991 1 65 1.000000
lowpoly_metal
0  -4.087522 -15.396258 -2.126786  0.000000 0.000000 1.000000  0.084940 0.467109 1 65 1.000000
0  -3.076790 -15.396258 -2.126786  0.000000 0.000000 1.000000  0.084940 0.465610 1 65 1.000000
0  -3.076790 -15.347645 -2.126786  0.000000 0.000000 1.000000  0.084976 0.465610 1 65 1.000000
lowpoly_metal
0  -4.087522 -15.347645 -2.126786  0.000000 0.866019 0.500011  0.084976 0.467109 1 65 1.000000
0  -3.076790 -15.347645 -2.126786  0.000000 0.866019 0.500011  0.084976 0.465610 1 65 1.000000
0  -3.076790 -15.323338 -2.168886  0.000000 0.866019 0.500011  0.085048 0.465610 1 65 1.000000
lowpoly_metal
0  -4.087522 -15.396258 -2.126786  -1.000000 0.000000 0.000000  0.084915 0.468738 1 65 1.000000
0  -4.087522 -15.347645 -2.126786  -1.000000 0.000000 0.000000  0.084977 0.468702 1 65 1.000000
0  -4.087522 -15.396258 -2.210987  -1.000000 0.000000 0.000000  0.084977 0.468846 1 65 1.000000
lowpoly_metal
0  -4.087522 -15.347645 -2.126786  -1.000000 0.000000 0.000000  0.084977 0.468702 1 65 1.000000
0  -4.087522 -15.323338 -2.168886  -1.000000 0.000000 0.000000  0.085040 0.468738 1 65 1.000000
0  -4.087522 -15.396258 -2.210987  -1.000000 0.000000 0.000000  0.084977 0.468846 1 65 1.000000
lowpoly_metal
0  -4.087522 -15.323338 -2.168886  -1.000000 0.000000 0.000000  0.085040 0.468738 1 65 1.000000
0  -4.087522 -15.347645 -2.210987  -1.000000 0.000000 0.000000  0.085040 0.468810 1 65 1.000000
0  -4.087522 -15.396258 -2.210987  -1.000000 0.000000 0.000000  0.084977 0.468846 1 65 1.000000
lowpoly_plastic
0  -3.932768 -15.318188 -2.059411  0.000000 1.000000 0.000000  0.030180 0.730252 1 65 1.000000
0  -3.932768 -15.318188 -2.195548  0.000000 1.000000 0.000000  0.030382 0.730252 1 65 1.000000
0  -3.955768 -15.318188 -2.195548  0.000000 1.000000 0.000000  0.030382 0.730252 1 65 1.000000
lowpoly_plastic
0  -3.231544 -15.425259 -2.195548  0.000000 -0.538478 -0.842640  0.032517 0.729751 1 65 1.000000
0  -3.231544 -15.371951 -2.229614  0.000000 -0.538478 -0.842639  0.032596 0.729751 1 65 1.000000
0  -3.208544 -15.371951 -2.229614  0.000000 -0.538478 -0.842640  0.032596 0.729751 1 65 1.000000
lowpoly_plastic
0  -3.955768 -15.318188 -2.059411  -1.000000 0.000000 0.000000  0.030180 0.730252 1 65 1.000000
0  -3.955768 -15.318188 -2.195548  -1.000000 0.000000 0.000000  0.032676 0.728711 1 65 1.000000
0  -3.955768 -15.347465 -2.059411  -1.000000 0.000000 0.000000  0.030382 0.730252 1 65 1.000000
lowpoly_plastic
0  -3.955768 -15.318188 -2.195548  -1.000000 0.000000 0.000000  0.032676 0.728711 1 65 1.000000
0  -3.955768 -15.371951 -2.229614  -1.000000 0.000000 0.000000  0.032596 0.728711 1 65 1.000000
0  -3.955768 -15.425259 -2.195548  -1.000000 0.000000 0.000000  0.030382 0.731293 1 65 1.000000
lowpoly_plastic
0  -3.955768 -15.347465 -2.059411  -1.000000 0.000000 0.000000  0.030382 0.730252 1 65 1.000000
0  -3.955768 -15.318188 -2.195548  -1.000000 0.000000 0.000000  0.032676 0.728711 1 65 1.000000
0  -3.955768 -15.425259 -2.195548  -1.000000 0.000000 0.000000  0.030382 0.731293 1 65 1.000000
lowpoly_plastic
0  -3.955768 -15.425259 -2.195548  -1.000000 0.000000 0.000000  0.030382 0.731293 1 65 1.000000
0  -3.955768 -15.425259 -2.059411  -1.000000 0.000000 0.000000  0.030180 0.731293 1 65 1.000000
0  -3.955768 -15.396440 -2.059411  -1.000000 0.000000 0.000000  0.029004 0.732420 1 65 1.000000
lowpoly_plastic
0  -3.932768 -15.371951 -2.229614  0.000000 -0.538490 -0.842632  0.032596 0.728711 1 65 1.000000
0  -3.932768 -15.425259 -2.195548  0.000000 -0.538478 -0.842639  0.032517 0.728711 1 65 1.000000
0  -3.955768 -15.425259 -2.195548  0.000000 -0.538481 -0.842637  0.032517 0.728711 1 65 1.000000
lowpoly_plastic
0  -3.932768 -15.425259 -2.195548  0.000000 -1.000000 0.000000  0.030382 0.731293 1 65 1.000000
0  -3.932768 -15.425259 -2.059411  0.000000 -1.000000 0.000000  0.030180 0.731293 1 65 1.000000
0  -3.955768 -15.425259 -2.059411  0.000000 -1.000000 0.000000  0.030180 0.731293 1 65 1.000000
lowpoly_plastic
0  -3.932768 -15.425259 -2.059411  0.000000 0.000000 1.000000  0.030425 0.731293 1 65 1.000000
0  -3.932768 -15.396440 -2.059411  0.000000 0.000000 1.000000  0.030404 0.731293 1 65 1.000000
0  -3.955768 -15.396440 -2.059411  0.000000 0.000000 1.000000  0.030404 0.731293 1 65 1.000000
lowpoly_plastic
0  -3.932768 -15.318188 -2.195548  0.000000 0.535234 -0.844704  0.032676 0.728711 1 65 1.000000
0  -3.932768 -15.371951 -2.229614  0.000000 0.535223 -0.844711  0.032596 0.728711 1 65 1.000000
0  -3.955768 -15.371951 -2.229614  0.000000 0.535226 -0.844709  0.032596 0.728711 1 65 1.000000
lowpoly_plastic
0  -3.932768 -15.347465 -2.059411  0.000000 0.000000 1.000000  0.030382 0.730252 1 65 1.000000
0  -3.932768 -15.318188 -2.059411  0.000000 0.000000 1.000000  0.030425 0.730252 1 65 1.000000
0  -3.955768 -15.318188 -2.059411  0.000000 0.000000 1.000000  0.030425 0.730252 1 65 1.000000
lowpoly_plastic
0  -3.932768 -15.396440 -2.059411  0.000000 0.000000 1.000000  0.029004 0.732420 1 65 1.000000
0  -3.932768 -15.347465 -2.059411  0.000000 0.000000 1.000000  0.029077 0.732420 1 65 1.000000
0  -3.955768 -15.347465 -2.059411  0.000000 0.000000 1.000000  0.029077 0.732420 1 65 1.000000
lowpoly_plastic
0  -3.208544 -15.396440 -2.059411  1.000000 0.000000 0.000000  0.030152 0.732356 1 65 1.000000
0  -3.208544 -15.425259 -2.059411  1.000000 0.000000 0.000000  0.030180 0.732333 1 65 1.000000
0  -3.208544 -15.425259 -2.195548  1.000000 0.000000 0.000000  0.030382 0.732333 1 65 1.000000
lowpoly_plastic
0  -3.208544 -15.425259 -2.195548  1.000000 0.000000 0.000000  0.030382 0.732333 1 65 1.000000
0  -3.208544 -15.371951 -2.229614  1.000000 0.000000 0.000000  0.032596 0.729751 1 65 1.000000
0  -3.208544 -15.318188 -2.195548  1.000000 0.000000 0.000000  0.032676 0.729751 1 65 1.000000
lowpoly_plastic
0  -3.208544 -15.318188 -2.195548  1.000000 0.000000 0.000000  0.032676 0.729751 1 65 1.000000
0  -3.208544 -15.318188 -2.059411  1.000000 0.000000 0.000000  0.030180 0.731293 1 65 1.000000
0  -3.208544 -15.347465 -2.059411  1.000000 0.000000 0.000000  0.030382 0.731293 1 65 1.000000
lowpoly_plastic
0  -3.208544 -15.347465 -2.059411  1.000000 0.000000 0.000000  0.030382 0.731293 1 65 1.000000
0  -3.208544 -15.396440 -2.059411  1.000000 0.000000 0.000000  0.030152 0.732356 1 65 1.000000
0  -3.208544 -15.425259 -2.195548  1.000000 0.000000 0.000000  0.030382 0.732333 1 65 1.000000
lowpoly_plastic
0  -3.231544 -15.425259 -2.059411  0.000000 -1.000000 0.000000  0.030180 0.732333 1 65 1.000000
0  -3.231544 -15.425259 -2.195548  0.000000 -1.000000 0.000000  0.030382 0.732333 1 65 1.000000
0  -3.208544 -15.425259 -2.195548  0.000000 -1.000000 0.000000  0.030382 0.732333 1 65 1.000000
lowpoly_plastic
0  -3.231544 -15.396440 -2.059411  0.000000 0.000000 1.000000  0.030404 0.732333 1 65 1.000000
0  -3.231544 -15.425259 -2.059411  0.000000 0.000000 1.000000  0.030425 0.732333 1 65 1.000000
0  -3.208544 -15.425259 -2.059411  0.000000 0.000000 1.000000  0.030425 0.732333 1 65 1.000000
lowpoly_plastic
0  -3.231544 -15.318188 -2.059411  0.000000 0.000000 1.000000  0.030425 0.731293 1 65 1.000000
0  -3.231544 -15.347465 -2.059411  0.000000 0.000000 1.000000  0.030382 0.731293 1 65 1.000000
0  -3.208544 -15.347465 -2.059411  0.000000 0.000000 1.000000  0.030382 0.731293 1 65 1.000000
lowpoly_plastic
0  -3.231544 -15.318188 -2.195548  0.000000 1.000000 0.000000  0.030382 0.731293 1 65 1.000000
0  -3.231544 -15.318188 -2.059411  0.000000 1.000000 0.000000  0.030180 0.731293 1 65 1.000000
0  -3.208544 -15.318188 -2.059411  0.000000 1.000000 0.000000  0.030180 0.731293 1 65 1.000000
lowpoly_plastic
0  -3.231544 -15.371951 -2.229614  0.000000 0.535233 -0.844705  0.032596 0.729751 1 65 1.000000
0  -3.231544 -15.318188 -2.195548  0.000000 0.535204 -0.844723  0.032676 0.729751 1 65 1.000000
0  -3.208544 -15.318188 -2.195548  0.000000 0.535212 -0.844718  0.032676 0.729751 1 65 1.000000
lowpoly_plastic
0  -3.231544 -15.347465 -2.059411  0.000000 0.000000 1.000000  0.030079 0.732356 1 65 1.000000
0  -3.231544 -15.396440 -2.059411  0.000000 0.000000 1.000000  0.030152 0.732356 1 65 1.000000
0  -3.208544 -15.396440 -2.059411  0.000000 0.000000 1.000000  0.030152 0.732356 1 65 1.000000
lowpoly_glow
0  -3.442205 -15.349971 -1.846361  0.000000 -1.000000 0.000000  0.081852 0.026689 1 65 1.000000
0  -3.442205 -15.349971 -1.862724  0.000000 -1.000000 0.000000  0.081852 0.030791 1 65 1.000000
0  -3.357656 -15.349971 -1.867380  0.000000 -1.000000 0.000000  0.082878 0.030791 1 65 1.000000
lowpoly_glow
0  -3.806657 -15.349971 -1.841705  0.000000 -1.000000 0.000000  0.078776 0.026689 1 65 1.000000
0  -3.806657 -15.349971 -1.867380  0.000000 -1.000000 0.000000  0.078776 0.030791 1 65 1.000000
0  -3.722107 -15.349971 -1.862724  0.000000 -1.000000 0.000000  0.080827 0.030791 1 65 1.000000
lowpoly_glow
0  -3.442205 -15.344827 -1.846361  0.000000 1.000000 0.000000  0.081852 0.026689 1 65 1.000000
0  -3.357656 -15.344827 -1.841705  0.000000 1.000000 0.000000  0.082878 0.026689 1 65 1.000000
0  -3.357656 -15.344827 -1.867380  0.000000 1.000000 0.000000  0.082878 0.030791 1 65 1.000000
lowpoly_glow
0  -3.806657 -15.344827 -1.841705  0.000000 1.000000 0.000000  0.078776 0.026689 1 65 1.000000
0  -3.722107 -15.344827 -1.846361  0.000000 1.000000 0.000000  0.080827 0.026689 1 65 1.000000
0  -3.722107 -15.344827 -1.862724  0.000000 1.000000 0.000000  0.080827 0.030791 1 65 1.000000
lowpoly_glow
0  -3.722107 -15.349971 -1.846361  1.000000 0.000000 0.000000  0.080827 0.026689 1 65 1.000000
0  -3.722107 -15.349971 -1.862724  1.000000 0.000000 0.000000  0.080827 0.030791 1 65 1.000000
0  -3.722107 -15.344827 -1.862724  1.000000 0.000000 0.000000  0.080827 0.030791 1 65 1.000000
lowpoly_glow
0  -3.806657 -15.349971 -1.841705  0.054969 0.000000 0.998488  0.078776 0.026689 1 65 1.000000
0  -3.722107 -15.349971 -1.846361  0.054994 0.000000 0.998487  0.080827 0.026689 1 65 1.000000
0  -3.722107 -15.344827 -1.846361  0.054993 0.000000 0.998487  0.080827 0.026689 1 65 1.000000
lowpoly_glow
0  -3.357656 -15.349971 -1.841705  1.000000 0.000000 0.000000  0.082878 0.026689 1 65 1.000000
0  -3.357656 -15.349971 -1.867380  1.000000 0.000000 0.000000  0.082878 0.030791 1 65 1.000000
0  -3.357656 -15.344827 -1.867380  1.000000 0.000000 0.000000  0.082878 0.030791 1 65 1.000000
lowpoly_glow
0  -3.806657 -15.349971 -1.867380  -1.000000 0.000000 0.000000  0.078776 0.030791 1 65 1.000000
0  -3.806657 -15.349971 -1.841705  -1.000000 0.000000 0.000000  0.078776 0.026689 1 65 1.000000
0  -3.806657 -15.344827 -1.841705  -1.000000 0.000000 0.000000  0.078776 0.026689 1 65 1.000000
lowpoly_glow
0  -3.442205 -15.349971 -1.862724  -1.000000 0.000000 0.000000  0.081852 0.030791 1 65 1.000000
0  -3.442205 -15.349971 -1.846361  -1.000000 0.000000 0.000000  0.081852 0.026689 1 65 1.000000
0  -3.442205 -15.344827 -1.846361  -1.000000 0.000000 0.000000  0.081852 0.026689 1 65 1.000000
lowpoly_glow
0  -3.722107 -15.349971 -1.862724  0.054969 0.000000 -0.998488  0.080827 0.030791 1 65 1.000000
0  -3.806657 -15.349971 -1.867380  0.054998 0.000000 -0.998486  0.078776 0.030791 1 65 1.000000
0  -3.806657 -15.344827 -1.867380  0.054997 0.000000 -0.998486  0.078776 0.030791 1 65 1.000000
lowpoly_glow
0  -3.442205 -15.349971 -1.846361  -0.054993 0.000000 0.998487  0.081852 0.026689 1 65 1.000000
0  -3.357656 -15.349971 -1.841705  -0.054968 0.000000 0.998488  0.082878 0.026689 1 65 1.000000
0  -3.357656 -15.344827 -1.841705  -0.054969 0.000000 0.998488  0.082878 0.026689 1 65 1.000000
lowpoly_glow
0  -3.357656 -15.349971 -1.867380  -0.054997 0.000000 -0.998486  0.082878 0.030791 1 65 1.000000
0  -3.442205 -15.349971 -1.862724  -0.054968 0.000000 -0.998488  0.081852 0.030791 1 65 1.000000
0  -3.442205 -15.344827 -1.862724  -0.054969 0.000000 -0.998488  0.081852 0.030791 1 65 1.000000
end
