version 1
nodes
0 "ValveBiped.Bip01_Spine4" -1
1 "ValveBiped.Bip01_L_Clavicle" 0
2 "ValveBiped.Bip01_L_UpperArm" 1
3 "ValveBiped.Bip01_L_Forearm" 2
4 "ValveBiped.Bip01_L_Hand" 3
5 "ValveBiped.Bip01_L_Finger4" 4
6 "ValveBiped.Bip01_L_Finger41" 5
7 "ValveBiped.Bip01_L_Finger42" 6
8 "ValveBiped.Bip01_L_Finger3" 4
9 "ValveBiped.Bip01_L_Finger31" 8
10 "ValveBiped.Bip01_L_Finger32" 9
11 "ValveBiped.Bip01_L_Finger2" 4
12 "ValveBiped.Bip01_L_Finger21" 11
13 "ValveBiped.Bip01_L_Finger22" 12
14 "ValveBiped.Bip01_L_Finger1" 4
15 "ValveBiped.Bip01_L_Finger11" 14
16 "ValveBiped.Bip01_L_Finger12" 15
17 "ValveBiped.Bip01_L_Finger0" 4
18 "ValveBiped.Bip01_L_Finger01" 17
19 "ValveBiped.Bip01_L_Finger02" 18
20 "ValveBiped.Bip01_L_Ulna" 3
21 "ValveBiped.Bip01_L_Wrist" 3
22 "rig_l_upperarm" 1
23 "rig_l_forearm" 22
24 "rig_d_l_forearm" 23
25 "rig_d_l_upperarm" 22
26 "ValveBiped.Bip01_R_Clavicle" 0
27 "ValveBiped.Bip01_R_UpperArm" 26
28 "ValveBiped.Bip01_R_Forearm" 27
29 "ValveBiped.Bip01_R_Hand" 28
30 "ValveBiped.Bip01_R_Finger4" 29
31 "ValveBiped.Bip01_R_Finger41" 30
32 "ValveBiped.Bip01_R_Finger42" 31
33 "ValveBiped.Bip01_R_Finger3" 29
34 "ValveBiped.Bip01_R_Finger31" 33
35 "ValveBiped.Bip01_R_Finger32" 34
36 "ValveBiped.Bip01_R_Finger2" 29
37 "ValveBiped.Bip01_R_Finger21" 36
38 "ValveBiped.Bip01_R_Finger22" 37
39 "ValveBiped.Bip01_R_Finger1" 29
40 "ValveBiped.Bip01_R_Finger11" 39
41 "ValveBiped.Bip01_R_Finger12" 40
42 "ValveBiped.Bip01_R_Finger0" 29
43 "ValveBiped.Bip01_R_Finger01" 42
44 "ValveBiped.Bip01_R_Finger02" 43
45 "ValveBiped.Bip01_R_Ulna" 28
46 "ValveBiped.Bip01_R_Wrist" 28
47 "rig_r_upperarm" 26
48 "rig_r_forearm" 47
49 "rig_d_r_forearm" 48
50 "rig_d_r_upperarm" 47
51 "rig_r_hand" -1
52 "rig_d_r_hand" 51
53 "rig_d_r_wrist" 52
54 "rig_l_hand" -1
55 "rig_d_l_hand" 54
56 "rig_d_l_wrist" 54
57 "rig_l_pole" -1
58 "rig_r_pole" -1
59 "rig_l_clavicle" -1
60 "rig_d_l_clavicle" 59
61 "rig_r_clavicle" -1
62 "rig_d_r_clavicle" 61
63 "Camera" -1
64 "body" -1
65 "trigger" 64
66 "bolt" 64
67 "barrel" 64
68 "magrel" 64
69 "chandle" 64
70 "boltrelease" 64
71 "laseradj" 64
72 "mag" -1
73 "bullet1" 72
74 "bullet2" 72
75 "bullet3" 72
76 "round1" 72
77 "round2" 72
78 "round3" 72
79 "mag2" -1
end
skeleton
time 0
0  0.000006 0.000000 0.000000  -1.570800 -1.391899 -1.570792
1  2.033349 1.000767 1.937657  -1.544956 -1.855077 -0.198630
2  6.027515 -0.000325 0.000206  -1.505242 0.319441 -0.625103
3  11.692120 0.000650 -0.000739  -0.000006 -0.000000 -0.007142
4  13.981890 0.007122 -0.000887  1.516565 -0.219059 -0.234851
5  3.859513 -0.142883 -1.192049  -0.468164 0.151540 -0.880272
6  1.312591 0.000010 0.000007  -0.000026 0.000045 -0.439738
7  0.729354 0.000052 0.000049  0.000017 0.000021 -0.244318
8  3.942146 0.046272 -0.431512  -0.151810 0.073212 -0.811101
9  1.539113 0.000083 0.000005  -0.000007 0.000021 -0.247841
10  1.196335 0.000145 0.000030  0.000012 0.000019 -0.430771
11  3.883508 -0.047273 0.431381  0.085898 0.021851 -0.587925
12  1.719574 -0.000026 0.000014  0.000015 0.005519 -0.366533
13  1.209182 0.000093 0.000012  0.000004 0.003092 -0.216437
14  3.859668 -0.138478 1.332410  0.354468 -0.042725 -0.531804
15  1.719449 -0.000014 0.000023  0.000029 0.004070 -0.363021
16  1.099670 0.000050 0.000006  0.000003 0.002579 -0.244381
17  0.805998 -0.349052 1.321254  -1.222687 -0.679194 -0.788886
18  1.789820 -0.000002 -0.000017  0.000012 -0.000024 0.228522
19  1.207011 -0.000014 -0.000044  0.000002 -0.000008 0.362858
20  5.740637 0.000410 -0.000703  -0.080120 0.000003 0.000071
21  11.981389 0.001634 -0.000839  -0.008467 -0.021537 -0.058656
22  6.027524 -0.000330 0.000203  -2.710732 -0.719638 0.651452
23  0.000001 11.692101 -0.000007  -0.005486 -0.000058 -0.004638
24  0.000003 0.000008 -0.000002  0.868996 -0.000030 1.570739
25  -0.000001 -0.000012 -0.000001  0.868957 0.000002 1.570712
26  2.033355 1.000772 -1.937609  1.473120 1.855075 -0.198639
27  6.027508 -0.000258 -0.000242  1.489393 -0.294193 -0.675068
28  11.691986 0.000245 0.000856  -0.000051 -0.000000 -0.007108
29  15.888907 0.012262 0.001130  -1.416093 0.218734 -0.271393
30  3.859436 -0.132785 1.193062  0.466291 -0.158048 -0.878829
31  1.312558 0.000026 0.000001  0.000011 -0.000044 -0.439710
32  0.729345 0.000062 -0.000028  -0.000023 -0.000019 -0.244286
33  3.942046 0.050109 0.430998  0.150090 -0.079180 -0.810199
34  1.539096 0.000009 -0.000001  0.000010 -0.000008 -0.247820
35  1.196297 0.000075 -0.000003  -0.000007 -0.000009 -0.430782
36  3.883409 -0.050501 -0.431087  -0.085915 -0.026391 -0.587671
37  1.719563 -0.000077 -0.000004  -0.000006 -0.007962 -0.366483
38  1.209197 0.000037 0.000011  0.000002 -0.004460 -0.216413
39  3.859585 -0.149113 -1.331323  -0.354446 0.038580 -0.531963
40  1.719412 -0.000100 -0.000034  -0.000028 -0.006585 -0.363032
41  1.099675 0.000025 0.000006  0.000004 -0.004187 -0.244346
42  0.805978 -0.359855 -1.318339  1.221444 0.673631 -0.793566
43  1.789778 -0.000008 -0.000043  -0.000028 0.000031 0.228552
44  1.206998 -0.000007 0.000006  -0.000017 0.000020 0.362911
45  5.740573 0.000056 0.000724  0.115590 -0.000014 0.000021
46  12.362727 0.002488 0.000975  0.031224 0.020008 -0.068857
47  6.027514 -0.000273 -0.000237  0.404071 -0.741307 -2.527030
48  -0.000000 11.691973 -0.000006  -0.005439 0.000036 0.004598
49  0.000004 -0.000002 -0.000001  2.272569 -0.000041 1.570856
50  -0.000006 -0.000015 0.000005  2.272644 -0.000030 1.570865
51  -23.122208 7.682197 -20.878065  -1.605366 2.379717 -0.041994
52  -0.000000 -0.000001 -0.000000  0.008153 -0.000259 0.000009
53  -0.000002 0.000000 0.000000  1.565115 0.043565 -0.106862
54  22.765793 6.583928 -19.088528  1.654271 0.703922 0.079136
55  0.000003 -0.000001 -0.000000  0.000000 -0.000000 -0.000002
56  0.000033 0.000029 0.000001  -1.571901 -0.044449 -0.106509
57  15.265023 8.339654 -8.787539  1.570796 -0.000000 0.000000
58  -15.265000 8.339654 -8.787539  1.570796 -0.000000 0.000000
59  1.941978 -1.346989 1.821586  1.570796 -0.000000 0.000000
60  -0.004311 0.001230 -0.000371  0.006898 -0.005534 -0.284229
61  -1.937603 -1.346625 1.822824  1.570796 -0.000000 0.000000
62  0.000000 0.000000 0.000000  -0.078727 -3.136056 0.284226
63  0.000000 0.000000 0.000000  1.570796 -0.000000 0.000000
64  -3.867668 -7.481349 -6.398460  1.570796 -0.000000 0.000000
65  0.000000 0.106749 0.631995  0.000000 -0.000000 0.000000
66  0.000000 0.621414 -1.027760  0.000000 -0.000000 0.000000
67  0.000000 0.532204 8.683752  0.000000 -0.000000 0.000000
68  -0.000000 -1.186305 0.340613  0.000000 -0.000000 0.000000
69  0.000000 1.996277 -5.696260  0.000000 -0.000000 0.000000
70  0.000000 0.111713 1.276771  0.000000 -0.000000 0.000000
71  -1.117961 0.703408 5.154790  0.000000 -0.000000 0.000000
72  -3.867669 -7.978369 -11.192551  1.570796 -0.000000 0.000000
73  0.036712 3.547556 -0.615411  0.000000 -0.000000 0.000000
74  -0.076920 3.276581 -0.615409  0.000000 -0.000000 0.000000
75  0.045456 3.053679 -0.615410  0.000000 -0.000000 0.000000
76  0.000000 1.834484 -0.723263  0.000000 -0.000000 0.000000
77  0.000000 1.834484 -0.560888  0.000000 -0.000000 0.000000
78  0.000000 1.834484 -0.409514  0.000000 -0.000000 0.000000
79  -3.607180 16.983395 -18.481731  1.593314 -0.053389 -0.015666
end
triangles
lowpoly_metal
0  -3.152004 -1.820943 -5.403903  0.917969 0.000000 0.396653  0.064884 0.750969 1 64 1.000000
0  -3.433740 -1.352658 -4.751887  0.917969 0.000000 0.396653  0.064884 0.750968 1 64 1.000000
0  -3.433740 -1.820943 -4.751887  0.917969 0.000000 0.396653  0.064884 0.750968 1 64 1.000000
lowpoly_metal
0  -4.480319 -1.820943 -6.806252  0.000000 0.459055 -0.888408  0.064887 0.750970 1 64 1.000000
0  -3.261017 -1.352658 -6.564281  0.000000 0.459055 -0.888408  0.064887 0.750970 1 64 1.000000
0  -3.261017 -1.820943 -6.806252  0.000000 0.459055 -0.888408  0.064887 0.750970 1 64 1.000000
lowpoly_metal
0  -4.307596 -1.820943 -4.751887  -0.917968 0.000000 0.396654  0.064885 0.750968 1 64 1.000000
0  -4.589332 -1.352658 -5.403903  -0.917968 0.000000 0.396654  0.064885 0.750969 1 64 1.000000
0  -4.589332 -1.820943 -5.403903  -0.917968 0.000000 0.396654  0.064885 0.750969 1 64 1.000000
lowpoly_metal
0  -4.480319 -1.820943 -5.986955  -1.000000 -0.000001 0.000000  0.064885 0.750969 1 64 1.000000
0  -4.480319 -1.352658 -6.564281  -1.000000 -0.000001 0.000000  0.064885 0.750970 1 64 1.000000
0  -4.480319 -1.820943 -6.806252  -1.000000 -0.000001 0.000000  0.064885 0.750970 1 64 1.000000
lowpoly_metal
0  -3.433740 -1.820943 -4.751887  0.000000 0.000000 1.000000  0.064884 0.750968 1 64 1.000000
0  -4.307596 -1.352658 -4.751887  0.000000 0.000000 1.000000  0.064885 0.750968 1 64 1.000000
0  -4.307596 -1.820943 -4.751887  0.000000 0.000000 1.000000  0.064885 0.750968 1 64 1.000000
lowpoly_metal
0  -3.261017 -1.820943 -5.986955  0.982967 0.000000 -0.183783  0.064884 0.750969 1 64 1.000000
0  -3.152004 -1.352658 -5.403903  0.982967 0.000000 -0.183783  0.064884 0.750969 1 64 1.000000
0  -3.152004 -1.820943 -5.403903  0.982967 0.000000 -0.183783  0.064884 0.750969 1 64 1.000000
lowpoly_metal
0  -3.261017 -1.820943 -6.806252  1.000000 0.000000 0.000000  0.064884 0.750970 1 64 1.000000
0  -3.261017 -1.352658 -5.986955  1.000000 0.000000 0.000000  0.064884 0.750969 1 64 1.000000
0  -3.261017 -1.820943 -5.986955  1.000000 0.000000 0.000000  0.064884 0.750969 1 64 1.000000
lowpoly_metal
0  -4.589332 -1.820943 -5.403903  -0.982967 0.000000 -0.183784  0.064885 0.750969 1 64 1.000000
0  -4.480319 -1.352658 -5.986955  -0.982967 0.000000 -0.183784  0.064885 0.750969 1 64 1.000000
0  -4.480319 -1.820943 -5.986955  -0.982967 0.000000 -0.183784  0.064885 0.750969 1 64 1.000000
lowpoly_metal
0  -4.480319 -1.820943 -5.986955  0.000000 -1.000000 0.000000  0.064885 0.750969 1 64 1.000000
0  -3.261017 -1.820943 -6.806252  0.000000 -1.000000 0.000000  0.064884 0.750970 1 64 1.000000
0  -3.261017 -1.820943 -5.986955  0.000000 -1.000000 0.000000  0.064884 0.750969 1 64 1.000000
lowpoly_metal
0  -4.307596 -1.352658 -4.751887  0.000000 1.000000 0.000000  0.064885 0.750968 1 64 1.000000
0  -3.152004 -1.352658 -5.403903  0.000000 1.000000 0.000000  0.064884 0.750969 1 64 1.000000
0  -4.589332 -1.352658 -5.403903  0.000000 1.000000 0.000000  0.064885 0.750969 1 64 1.000000
lowpoly_metal
0  -4.589332 -1.352658 -5.403903  0.000000 1.000000 0.000000  0.064885 0.750969 1 64 1.000000
0  -3.261017 -1.352658 -5.986955  0.000000 1.000000 0.000000  0.064884 0.750969 1 64 1.000000
0  -4.480319 -1.352658 -5.986955  0.000000 1.000000 0.000000  0.064885 0.750969 1 64 1.000000
lowpoly_metal
0  -3.261017 -1.352658 -6.564281  0.000000 1.000000 0.000000  0.064884 0.750970 1 64 1.000000
0  -4.480319 -1.352658 -5.986955  0.000000 1.000000 0.000000  0.064885 0.750969 1 64 1.000000
0  -3.261017 -1.352658 -5.986955  0.000000 1.000000 0.000000  0.064884 0.750969 1 64 1.000000
lowpoly_metal
0  -3.409845 -0.224205 -4.989408  -0.000016 0.999997 -0.002270  0.058582 0.625847 1 64 1.000000
0  -3.362124 -0.225143 -5.402834  -0.000016 0.999997 -0.002270  0.058531 0.626019 1 64 1.000000
0  -3.508955 -0.224412 -5.079741  -0.000016 0.999997 -0.002270  0.058531 0.625868 1 64 1.000000
lowpoly_plastic
0  -3.384108 -1.006020 -5.837921  0.910397 -0.000875 -0.413734  0.006455 0.738269 1 64 1.000000
0  -3.185563 -1.351155 -5.400305  0.910397 -0.000875 -0.413734  0.006543 0.737922 1 64 1.000000
0  -3.384108 -1.352218 -5.837189  0.910397 -0.000875 -0.413734  0.006543 0.738269 1 64 1.000000
lowpoly_metal
0  -4.364752 -0.016416 -5.403308  -0.000028 -0.999997 0.002255  0.060118 0.623429 1 64 1.000000
0  -4.250728 -0.017215 -5.756299  -0.000028 -0.999997 0.002255  0.060277 0.623412 1 64 1.000000
0  -4.217921 -0.017149 -5.726399  -0.000028 -0.999997 0.002255  0.060270 0.623429 1 64 1.000000
lowpoly_metal
0  -3.409845 -0.226083 -5.816258  0.000000 0.999997 -0.002273  0.058445 0.626177 1 64 1.000000
0  -3.362124 -0.225143 -5.402834  0.000000 0.999997 -0.002273  0.058531 0.626019 1 64 1.000000
0  -3.221961 -0.225143 -5.402834  0.000000 0.999997 -0.002273  0.058582 0.626040 1 64 1.000000
lowpoly_metal
0  -3.863438 -0.015376 -4.946387  0.000004 -0.999997 0.002253  0.060011 0.623688 1 64 1.000000
0  -4.250729 -0.015612 -5.050314  0.000004 -0.999997 0.002253  0.059994 0.623529 1 64 1.000000
0  -4.217921 -0.015679 -5.080215  0.000004 -0.999997 0.002253  0.060011 0.623536 1 64 1.000000
lowpoly_metal
0  -4.217921 -0.017149 -5.726399  -0.000013 -0.999997 0.002224  0.060270 0.623429 1 64 1.000000
0  -3.863438 -0.017545 -5.902516  -0.000013 -0.999997 0.002224  0.060394 0.623529 1 64 1.000000
0  -3.863438 -0.017451 -5.860228  -0.000013 -0.999997 0.002224  0.060377 0.623536 1 64 1.000000
lowpoly_metal
0  -3.863438 -0.226472 -5.987505  0.000002 0.999997 -0.002278  0.058251 0.626177 1 64 1.000000
0  -3.508955 -0.225877 -5.725924  0.000002 0.999997 -0.002278  0.058424 0.626126 1 64 1.000000
0  -3.409845 -0.226083 -5.816258  0.000002 0.999997 -0.002278  0.058445 0.626177 1 64 1.000000
lowpoly_metal
0  -3.863438 -0.223817 -4.818161  0.000007 0.999997 -0.002264  0.058445 0.625709 1 64 1.000000
0  -3.508955 -0.224412 -5.079741  0.000007 0.999997 -0.002264  0.058531 0.625868 1 64 1.000000
0  -3.863438 -0.224107 -4.945913  0.000007 0.999997 -0.002264  0.058424 0.625761 1 64 1.000000
lowpoly_metal
0  -4.250729 5.445278 -5.062710  -0.000002 0.999997 -0.002270  0.058472 0.626169 1 64 1.000000
0  -3.863439 5.445611 -4.916495  -0.000002 0.999997 -0.002270  0.058472 0.625776 1 64 1.000000
0  -3.863439 5.443344 -5.914912  -0.000002 0.999997 -0.002270  0.059420 0.626169 1 64 1.000000
lowpoly_metal
0  -4.411149 -0.016416 -5.403308  -0.910398 0.000939 0.413732  0.073420 0.539586 1 64 1.000000
0  -4.250729 5.445278 -5.062710  -0.910398 0.000939 0.413732  0.073056 0.533975 1 64 1.000000
0  -4.411149 5.444477 -5.415703  -0.910398 0.000939 0.413732  0.073420 0.533975 1 64 1.000000
lowpoly_metal
0  -4.317032 -0.691467 -4.988348  -0.910397 0.000940 0.413734  0.068619 0.538737 1 64 1.000000
0  -4.504916 -0.225143 -5.402834  -0.910397 0.000940 0.413734  0.069100 0.539164 1 64 1.000000
0  -4.504916 -0.692405 -5.401773  -0.910397 0.000940 0.413734  0.068619 0.539164 1 64 1.000000
lowpoly_metal
0  -4.217921 -0.225877 -5.725924  -0.353201 -0.002127 -0.935545  0.058301 0.624770 1 64 1.000000
0  -3.863438 -0.017451 -5.860228  -0.353201 -0.002127 -0.935545  0.058211 0.624630 1 64 1.000000
0  -3.863438 -0.226182 -5.859754  -0.353201 -0.002127 -0.935545  0.058301 0.624630 1 64 1.000000
lowpoly_metal
0  -4.411149 -0.016416 -5.403308  -0.910395 -0.000940 -0.413738  0.073420 0.539586 1 64 1.000000
0  -4.250729 5.443675 -5.768698  -0.910395 -0.000940 -0.413738  0.073781 0.533975 1 64 1.000000
0  -4.250728 -0.017215 -5.756299  -0.910395 -0.000940 -0.413738  0.073781 0.539586 1 64 1.000000
lowpoly_metal
0  -4.250729 -0.015612 -5.050314  -0.353200 0.002124 0.935545  0.074506 0.533975 1 64 1.000000
0  -3.863439 5.445611 -4.916495  -0.353200 0.002124 0.935545  0.074869 0.539586 1 64 1.000000
0  -4.250729 5.445278 -5.062710  -0.353200 0.002124 0.935545  0.074506 0.539586 1 64 1.000000
lowpoly_metal
0  -3.315728 -0.016416 -5.403308  0.910397 0.000939 0.413734  0.072695 0.533975 1 64 1.000000
0  -3.476149 5.445278 -5.062710  0.910397 0.000939 0.413734  0.072330 0.539586 1 64 1.000000
0  -3.476149 -0.015612 -5.050314  0.910397 0.000939 0.413734  0.072330 0.533975 1 64 1.000000
lowpoly_metal
0  -3.622593 1.260718 -6.235171  0.000000 -0.002270 -0.999997  0.088441 0.640740 1 64 1.000000
0  -4.104285 5.283680 -6.244303  0.000000 -0.002270 -0.999997  0.088688 0.643008 1 64 1.000000
0  -3.622594 5.283680 -6.244303  0.000000 -0.002270 -0.999997  0.088441 0.643008 1 64 1.000000
lowpoly_plastic
0  -3.863438 -1.010305 -4.816376  -0.353198 0.002125 0.935546  0.008696 0.736221 1 64 1.000000
0  -4.317032 -0.691467 -4.988348  -0.353198 0.002125 0.935546  0.008520 0.735993 1 64 1.000000
0  -4.317032 -1.010696 -4.987622  -0.353198 0.002125 0.935546  0.008696 0.735993 1 64 1.000000
lowpoly_plastic
0  -3.863438 -0.693732 -5.986445  0.000005 0.999997 -0.002275  0.007165 0.737242 1 64 1.000000
0  -3.508955 -0.693139 -5.724865  0.000005 0.999997 -0.002275  0.007205 0.736873 1 64 1.000000
0  -3.409845 -0.693345 -5.815199  0.000005 0.999997 -0.002275  0.007316 0.737011 1 64 1.000000
lowpoly_metal
0  -4.104285 5.283680 -6.244303  0.000000 0.999997 -0.002269  0.088193 0.641176 1 64 1.000000
0  -3.622594 5.285026 -5.651451  0.000000 0.999997 -0.002269  0.088441 0.640842 1 64 1.000000
0  -3.622594 5.283680 -6.244303  0.000000 0.999997 -0.002269  0.088441 0.641176 1 64 1.000000
lowpoly_metal
0  -3.622594 5.285026 -5.651451  1.000000 0.000000 -0.000000  0.089604 0.640557 1 64 1.000000
0  -3.622593 1.260718 -6.235171  1.000000 0.000000 -0.000000  0.089270 0.642825 1 64 1.000000
0  -3.622594 5.283680 -6.244303  1.000000 0.000000 -0.000000  0.089270 0.640557 1 64 1.000000
lowpoly_metal
0  -4.250728 -0.017215 -5.756299  -0.353207 -0.002124 -0.935543  0.074506 0.533975 1 64 1.000000
0  -3.863439 5.443344 -5.914912  -0.353207 -0.002124 -0.935543  0.074144 0.539586 1 64 1.000000
0  -3.863438 -0.017545 -5.902516  -0.353207 -0.002124 -0.935543  0.074144 0.533975 1 64 1.000000
lowpoly_metal
0  -3.476149 -0.015612 -5.050314  0.353207 0.002124 0.935543  0.075232 0.533975 1 64 1.000000
0  -3.863439 5.445611 -4.916495  0.353207 0.002124 0.935543  0.074869 0.539586 1 64 1.000000
0  -3.863438 -0.015279 -4.904097  0.353207 0.002124 0.935543  0.074869 0.533975 1 64 1.000000
lowpoly_metal
0  -3.863438 -0.226182 -5.859754  0.353202 -0.002126 -0.935545  0.058301 0.624630 1 64 1.000000
0  -3.508955 -0.017149 -5.726399  0.353202 -0.002126 -0.935545  0.058211 0.624490 1 64 1.000000
0  -3.508955 -0.225877 -5.725924  0.353202 -0.002126 -0.935545  0.058301 0.624490 1 64 1.000000
lowpoly_metal
0  -4.104284 1.260718 -6.235171  -1.000000 -0.000000 0.000000  0.089270 0.642825 1 64 1.000000
0  -4.104285 5.285026 -5.651451  -1.000000 -0.000000 0.000000  0.088936 0.640557 1 64 1.000000
0  -4.104285 5.283680 -6.244303  -1.000000 -0.000000 0.000000  0.089270 0.640557 1 64 1.000000
lowpoly_metal
0  -3.362124 -0.225143 -5.402834  0.910397 0.000939 0.413735  0.058121 0.624631 1 64 1.000000
0  -3.508955 -0.015679 -5.080215  0.910397 0.000939 0.413735  0.058030 0.624490 1 64 1.000000
0  -3.508955 -0.224412 -5.079741  0.910397 0.000939 0.413735  0.058121 0.624490 1 64 1.000000
lowpoly_metal
0  -3.863438 -0.224107 -4.945913  -0.353200 0.002124 0.935546  0.058392 0.624630 1 64 1.000000
0  -4.217921 -0.015679 -5.080215  -0.353200 0.002124 0.935546  0.058301 0.624490 1 64 1.000000
0  -4.217921 -0.224412 -5.079741  -0.353200 0.002124 0.935546  0.058392 0.624490 1 64 1.000000
lowpoly_metal
0  -3.863438 -0.017545 -5.902516  0.353204 -0.002124 -0.935544  0.074144 0.533975 1 64 1.000000
0  -3.476149 5.443675 -5.768698  0.353204 -0.002124 -0.935544  0.073781 0.539586 1 64 1.000000
0  -3.476149 -0.017215 -5.756299  0.353204 -0.002124 -0.935544  0.073781 0.533975 1 64 1.000000
lowpoly_metal
0  -3.508955 -0.224412 -5.079741  0.353201 0.002125 0.935545  0.058392 0.624770 1 64 1.000000
0  -3.863438 -0.015376 -4.946387  0.353201 0.002125 0.935545  0.058301 0.624630 1 64 1.000000
0  -3.863438 -0.224107 -4.945913  0.353201 0.002125 0.935545  0.058392 0.624630 1 64 1.000000
lowpoly_metal
0  -4.364752 -0.225143 -5.402834  -0.910398 0.000940 0.413734  0.058121 0.624631 1 64 1.000000
0  -4.217921 -0.015679 -5.080215  -0.910398 0.000940 0.413734  0.058211 0.624490 1 64 1.000000
0  -4.364752 -0.016416 -5.403308  -0.910398 0.000940 0.413734  0.058211 0.624631 1 64 1.000000
lowpoly_metal
0  -4.317032 -0.226083 -5.816258  -0.353198 -0.002121 -0.935546  0.068620 0.538216 1 64 1.000000
0  -3.863438 -0.693732 -5.986445  -0.353198 -0.002121 -0.935546  0.069100 0.537791 1 64 1.000000
0  -4.317032 -0.693345 -5.815199  -0.353198 -0.002121 -0.935546  0.069100 0.538216 1 64 1.000000
lowpoly_metal
0  -3.863438 -0.226472 -5.987505  0.353201 -0.002122 -0.935545  0.068620 0.537791 1 64 1.000000
0  -3.409845 -0.693345 -5.815199  0.353201 -0.002122 -0.935545  0.069100 0.537366 1 64 1.000000
0  -3.863438 -0.693732 -5.986445  0.353201 -0.002122 -0.935545  0.069100 0.537791 1 64 1.000000
lowpoly_metal
0  -3.863438 -0.691079 -4.817101  -0.353200 0.002123 0.935545  0.072423 0.533550 1 64 1.000000
0  -4.317032 -0.224205 -4.989408  -0.353200 0.002123 0.935545  0.072903 0.533975 1 64 1.000000
0  -4.317032 -0.691467 -4.988348  -0.353200 0.002123 0.935545  0.072423 0.533975 1 64 1.000000
lowpoly_plastic
0  -3.863438 -1.006459 -6.018884  0.353199 -0.001983 -0.935546  0.009682 0.736221 1 64 1.000000
0  -3.384108 -1.352218 -5.837189  0.353199 -0.001983 -0.935546  0.009770 0.735993 1 64 1.000000
0  -3.863438 -1.352658 -6.018150  0.353199 -0.001983 -0.935546  0.009770 0.736221 1 64 1.000000
lowpoly_plastic
0  -3.185563 -1.004956 -5.401037  0.910397 0.000875 0.413734  0.006455 0.737922 1 64 1.000000
0  -3.384108 -1.350091 -4.963421  0.910397 0.000875 0.413734  0.006543 0.737693 1 64 1.000000
0  -3.185563 -1.351155 -5.400305  0.910397 0.000875 0.413734  0.006543 0.737922 1 64 1.000000
lowpoly_metal
0  -3.409845 -0.226083 -5.816258  0.910398 -0.000937 -0.413733  0.072330 0.532848 1 64 1.000000
0  -3.221961 -0.692405 -5.401773  0.910398 -0.000937 -0.413733  0.071850 0.533270 1 64 1.000000
0  -3.409845 -0.693345 -5.815199  0.910398 -0.000937 -0.413733  0.071850 0.532848 1 64 1.000000
lowpoly_metal
0  -3.221961 -0.225143 -5.402834  0.910397 0.000938 0.413734  0.072330 0.533270 1 64 1.000000
0  -3.409845 -0.691467 -4.988348  0.910397 0.000938 0.413734  0.071850 0.533697 1 64 1.000000
0  -3.221961 -0.692405 -5.401773  0.910397 0.000938 0.413734  0.071850 0.533270 1 64 1.000000
lowpoly_metal
0  -3.863438 -0.223817 -4.818161  0.000006 0.999997 -0.002282  0.058445 0.625709 1 64 1.000000
0  -4.217921 -0.224412 -5.079741  0.000006 0.999997 -0.002282  0.058272 0.625761 1 64 1.000000
0  -4.317032 -0.224205 -4.989408  0.000006 0.999997 -0.002282  0.058251 0.625709 1 64 1.000000
lowpoly_metal
0  -4.504916 -0.692405 -5.401773  -0.910398 -0.000938 -0.413732  0.068619 0.539164 1 64 1.000000
0  -4.317032 -0.226083 -5.816258  -0.910398 -0.000938 -0.413732  0.069100 0.539586 1 64 1.000000
0  -4.317032 -0.693345 -5.815199  -0.910398 -0.000938 -0.413732  0.068619 0.539586 1 64 1.000000
lowpoly_metal
0  -3.476149 -0.017215 -5.756299  0.910396 -0.000939 -0.413737  0.073056 0.533975 1 64 1.000000
0  -3.315729 5.444477 -5.415703  0.910396 -0.000939 -0.413737  0.072695 0.539586 1 64 1.000000
0  -3.315728 -0.016416 -5.403308  0.910396 -0.000939 -0.413737  0.072695 0.533975 1 64 1.000000
lowpoly_plastic
0  -3.384108 -1.352218 -5.837189  0.000000 -0.999997 0.002434  0.007570 0.736832 1 64 1.000000
0  -4.342769 -1.350091 -4.963421  0.000000 -0.999997 0.002434  0.008212 0.736474 1 64 1.000000
0  -4.342769 -1.352218 -5.837189  0.000000 -0.999997 0.002434  0.007992 0.737007 1 64 1.000000
lowpoly_metal
0  -3.508955 -0.015679 -5.080215  -0.000019 -0.999997 0.002269  0.060118 0.623795 1 64 1.000000
0  -3.315728 -0.016416 -5.403308  -0.000019 -0.999997 0.002269  0.060277 0.623812 1 64 1.000000
0  -3.476149 -0.015612 -5.050314  -0.000019 -0.999997 0.002269  0.060111 0.623812 1 64 1.000000
lowpoly_metal
0  -4.504916 -0.225143 -5.402834  -0.000005 0.999997 -0.002275  0.058114 0.625847 1 64 1.000000
0  -4.217921 -0.225877 -5.725924  -0.000005 0.999997 -0.002275  0.058165 0.626019 1 64 1.000000
0  -4.317032 -0.226083 -5.816258  -0.000005 0.999997 -0.002275  0.058114 0.626040 1 64 1.000000
lowpoly_metal
0  -4.317032 -0.224205 -4.989408  0.000000 0.999997 -0.002268  0.058251 0.625709 1 64 1.000000
0  -4.364752 -0.225143 -5.402834  0.000000 0.999997 -0.002268  0.058165 0.625868 1 64 1.000000
0  -4.504916 -0.225143 -5.402834  0.000000 0.999997 -0.002268  0.058114 0.625847 1 64 1.000000
lowpoly_plastic
0  -3.863438 -0.691079 -4.817101  0.000011 0.999997 -0.002295  0.006848 0.736479 1 64 1.000000
0  -4.217921 -0.691675 -5.078681  0.000011 0.999997 -0.002295  0.006739 0.736680 1 64 1.000000
0  -4.317032 -0.691467 -4.988348  0.000011 0.999997 -0.002295  0.006674 0.736653 1 64 1.000000
lowpoly_metal
0  -3.508955 -0.015679 -5.080215  0.000013 -0.999997 0.002300  0.060118 0.623795 1 64 1.000000
0  -3.863438 -0.015279 -4.904097  0.000013 -0.999997 0.002300  0.059994 0.623694 1 64 1.000000
0  -3.863438 -0.015376 -4.946387  0.000013 -0.999997 0.002300  0.060011 0.623688 1 64 1.000000
lowpoly_plastic
0  -3.409845 -0.691467 -4.988348  -0.000030 0.999997 -0.002274  0.007095 0.736479 1 64 1.000000
0  -3.362124 -0.692405 -5.401773  -0.000030 0.999997 -0.002274  0.007205 0.736680 1 64 1.000000
0  -3.508955 -0.691675 -5.078681  -0.000030 0.999997 -0.002274  0.007068 0.736544 1 64 1.000000
lowpoly_metal
0  -4.317032 -0.226083 -5.816258  -0.000000 0.999997 -0.002272  0.058114 0.626040 1 64 1.000000
0  -3.863438 -0.226182 -5.859754  -0.000000 0.999997 -0.002272  0.058272 0.626126 1 64 1.000000
0  -3.863438 -0.226472 -5.987505  -0.000000 0.999997 -0.002272  0.058251 0.626177 1 64 1.000000
lowpoly_metal
0  -3.863439 5.445611 -4.916495  0.000002 0.999997 -0.002270  0.058472 0.625776 1 64 1.000000
0  -3.476149 5.445278 -5.062710  0.000002 0.999997 -0.002270  0.058750 0.625499 1 64 1.000000
0  -3.863439 5.443344 -5.914912  0.000002 0.999997 -0.002270  0.059420 0.626169 1 64 1.000000
lowpoly_metal
0  -3.476149 5.445278 -5.062710  -0.000000 0.999997 -0.002271  0.058750 0.625499 1 64 1.000000
0  -3.315729 5.444477 -5.415703  -0.000000 0.999997 -0.002271  0.059142 0.625499 1 64 1.000000
0  -3.863439 5.443344 -5.914912  -0.000000 0.999997 -0.002271  0.059420 0.626169 1 64 1.000000
lowpoly_metal
0  -3.315729 5.444477 -5.415703  0.000004 0.999997 -0.002274  0.059142 0.625499 1 64 1.000000
0  -3.476149 5.443675 -5.768698  0.000004 0.999997 -0.002274  0.059420 0.625776 1 64 1.000000
0  -3.863439 5.443344 -5.914912  0.000004 0.999997 -0.002274  0.059420 0.626169 1 64 1.000000
lowpoly_metal
0  -3.863439 5.443344 -5.914912  -0.000004 0.999997 -0.002272  0.061881 0.624938 1 64 1.000000
0  -4.250729 5.443675 -5.768698  -0.000004 0.999997 -0.002272  0.061603 0.625216 1 64 1.000000
0  -4.411149 5.444477 -5.415703  -0.000004 0.999997 -0.002272  0.061210 0.625216 1 64 1.000000
lowpoly_metal
0  -4.411149 5.444477 -5.415703  0.000000 0.999997 -0.002271  0.058750 0.626446 1 64 1.000000
0  -4.250729 5.445278 -5.062710  0.000000 0.999997 -0.002271  0.058472 0.626169 1 64 1.000000
0  -3.863439 5.443344 -5.914912  0.000000 0.999997 -0.002271  0.059420 0.626169 1 64 1.000000
lowpoly_metal
0  -3.409845 -0.693345 -5.815199  0.000003 -0.999997 0.002272  0.069885 0.538476 1 64 1.000000
0  -3.221961 -0.692405 -5.401773  0.000003 -0.999997 0.002272  0.069425 0.538476 1 64 1.000000
0  -3.409845 -0.691467 -4.988348  0.000003 -0.999997 0.002272  0.069100 0.538151 1 64 1.000000
lowpoly_metal
0  -3.409845 -0.691467 -4.988348  0.000000 -0.999998 0.002264  0.069100 0.538151 1 64 1.000000
0  -3.863438 -0.691079 -4.817101  0.000000 -0.999998 0.002264  0.069100 0.537691 1 64 1.000000
0  -4.317032 -0.691467 -4.988348  0.000000 -0.999998 0.002264  0.069425 0.537366 1 64 1.000000
lowpoly_metal
0  -4.317032 -0.691467 -4.988348  -0.000003 -0.999997 0.002272  0.069425 0.537366 1 64 1.000000
0  -4.504916 -0.692405 -5.401773  -0.000003 -0.999997 0.002272  0.069885 0.537366 1 64 1.000000
0  -4.317032 -0.693345 -5.815199  -0.000003 -0.999997 0.002272  0.070210 0.537691 1 64 1.000000
lowpoly_metal
0  -4.317032 -0.693345 -5.815199  0.000000 -0.999997 0.002263  0.070210 0.537691 1 64 1.000000
0  -3.863438 -0.693732 -5.986445  0.000000 -0.999997 0.002263  0.070210 0.538151 1 64 1.000000
0  -3.409845 -0.693345 -5.815199  0.000000 -0.999997 0.002263  0.069885 0.538476 1 64 1.000000
lowpoly_plastic
0  -4.504916 -1.011633 -5.401049  -0.910397 -0.000941 -0.413736  0.006498 0.736895 1 64 1.000000
0  -4.317031 -0.693345 -5.815199  -0.910397 -0.000941 -0.413736  0.006674 0.737242 1 64 1.000000
0  -4.317031 -1.012572 -5.814474  -0.910397 -0.000941 -0.413736  0.006498 0.737242 1 64 1.000000
lowpoly_metal
0  -3.622593 1.260718 -6.235171  0.000000 -0.878209 -0.478276  0.088688 0.640557 1 64 1.000000
0  -4.104284 0.937448 -5.641582  0.000000 -0.878209 -0.478276  0.088936 0.640217 1 64 1.000000
0  -4.104284 1.260718 -6.235171  0.000000 -0.878209 -0.478276  0.088936 0.640557 1 64 1.000000
lowpoly_metal
0  -3.622594 5.285026 -5.651451  0.000000 0.002270 0.999997  0.088936 0.643008 1 64 1.000000
0  -4.104284 0.937448 -5.641582  0.000000 0.002270 0.999997  0.088688 0.640557 1 64 1.000000
0  -3.622593 0.937448 -5.641582  0.000000 0.002270 0.999997  0.088936 0.640557 1 64 1.000000
lowpoly_metal
0  -3.409845 -0.224205 -4.989408  0.353201 0.002123 0.935545  0.072903 0.533125 1 64 1.000000
0  -3.863438 -0.691079 -4.817101  0.353201 0.002123 0.935545  0.072423 0.533550 1 64 1.000000
0  -3.409845 -0.691467 -4.988348  0.353201 0.002123 0.935545  0.072423 0.533125 1 64 1.000000
lowpoly_plastic
0  -4.342769 -1.006020 -5.837921  -0.353199 -0.001979 -0.935546  0.009682 0.736449 1 64 1.000000
0  -3.863438 -1.352658 -6.018150  -0.353199 -0.001979 -0.935546  0.009770 0.736221 1 64 1.000000
0  -4.342769 -1.352218 -5.837189  -0.353199 -0.001979 -0.935546  0.009770 0.736449 1 64 1.000000
lowpoly_metal
0  -4.217921 -0.225877 -5.725924  -0.910397 -0.000943 -0.413735  0.058121 0.624770 1 64 1.000000
0  -4.364752 -0.016416 -5.403308  -0.910397 -0.000943 -0.413735  0.058211 0.624631 1 64 1.000000
0  -4.217921 -0.017149 -5.726399  -0.910397 -0.000943 -0.413735  0.058211 0.624770 1 64 1.000000
lowpoly_metal
0  -3.863438 -0.017451 -5.860228  0.000009 -0.999998 0.002235  0.060377 0.623536 1 64 1.000000
0  -3.476149 -0.017215 -5.756299  0.000009 -0.999998 0.002235  0.060394 0.623695 1 64 1.000000
0  -3.508955 -0.017149 -5.726399  0.000009 -0.999998 0.002235  0.060377 0.623688 1 64 1.000000
lowpoly_metal
0  -3.508955 -0.225877 -5.725924  0.910396 -0.000940 -0.413736  0.058121 0.624770 1 64 1.000000
0  -3.362124 -0.016416 -5.403308  0.910396 -0.000940 -0.413736  0.058030 0.624631 1 64 1.000000
0  -3.362124 -0.225143 -5.402834  0.910396 -0.000940 -0.413736  0.058121 0.624631 1 64 1.000000
lowpoly_plastic
0  -4.317032 -1.010696 -4.987622  -0.910398 0.000939 0.413732  0.006498 0.736665 1 64 1.000000
0  -4.504916 -0.692405 -5.401773  -0.910398 0.000939 0.413732  0.006674 0.736895 1 64 1.000000
0  -4.504916 -1.011633 -5.401049  -0.910398 0.000939 0.413732  0.006498 0.736895 1 64 1.000000
lowpoly_plastic
0  -3.384108 -1.003891 -4.964154  0.353203 0.001981 0.935545  0.008784 0.736449 1 64 1.000000
0  -3.863438 -1.349650 -4.782456  0.353203 0.001981 0.935545  0.008872 0.736221 1 64 1.000000
0  -3.384108 -1.350091 -4.963421  0.353203 0.001981 0.935545  0.008872 0.736449 1 64 1.000000
lowpoly_plastic
0  -4.504916 -0.692405 -5.401773  -0.000005 0.999997 -0.002275  0.006674 0.736900 1 64 1.000000
0  -4.217921 -0.693139 -5.724865  -0.000005 0.999997 -0.002275  0.006875 0.737009 1 64 1.000000
0  -4.317031 -0.693345 -5.815199  -0.000005 0.999997 -0.002275  0.006895 0.737186 1 64 1.000000
lowpoly_plastic
0  -3.409845 -0.693345 -5.815199  0.000000 0.999997 -0.002272  0.007316 0.737011 1 64 1.000000
0  -3.362124 -0.692405 -5.401773  0.000000 0.999997 -0.002272  0.007205 0.736680 1 64 1.000000
0  -3.221961 -0.692405 -5.401773  0.000000 0.999997 -0.002272  0.007270 0.736653 1 64 1.000000
lowpoly_plastic
0  -4.317032 -0.691467 -4.988348  0.000000 0.999997 -0.002270  0.006674 0.736653 1 64 1.000000
0  -4.364752 -0.692405 -5.401773  0.000000 0.999997 -0.002270  0.006739 0.736873 1 64 1.000000
0  -4.504916 -0.692405 -5.401773  0.000000 0.999997 -0.002270  0.006674 0.736900 1 64 1.000000
lowpoly_plastic
0  -3.863438 -0.691079 -4.817101  -0.000000 0.999997 -0.002278  0.006848 0.736479 1 64 1.000000
0  -3.508955 -0.691675 -5.078681  -0.000000 0.999997 -0.002278  0.007068 0.736544 1 64 1.000000
0  -3.863438 -0.691370 -4.944852  -0.000000 0.999997 -0.002278  0.006875 0.736544 1 64 1.000000
lowpoly_metal
0  -4.364752 -0.016416 -5.403308  0.000000 -0.999997 0.002278  0.060118 0.623429 1 64 1.000000
0  -4.250729 -0.015612 -5.050314  0.000000 -0.999997 0.002278  0.059994 0.623529 1 64 1.000000
0  -4.411149 -0.016416 -5.403308  0.000000 -0.999997 0.002278  0.060111 0.623412 1 64 1.000000
lowpoly_metal
0  -3.362124 -0.016416 -5.403308  0.000000 -0.999997 0.002264  0.060270 0.623795 1 64 1.000000
0  -3.476149 -0.017215 -5.756299  0.000000 -0.999997 0.002264  0.060394 0.623695 1 64 1.000000
0  -3.315728 -0.016416 -5.403308  0.000000 -0.999997 0.002264  0.060277 0.623812 1 64 1.000000
lowpoly_plastic
0  -4.317031 -0.693345 -5.815199  -0.000003 0.999997 -0.002272  0.006895 0.737186 1 64 1.000000
0  -3.863438 -0.693442 -5.858695  -0.000003 0.999997 -0.002272  0.007068 0.737009 1 64 1.000000
0  -3.863438 -0.693732 -5.986445  -0.000003 0.999997 -0.002272  0.007165 0.737242 1 64 1.000000
lowpoly_plastic
0  -3.384108 -1.352218 -5.837189  -0.000004 -0.999997 0.002434  0.007570 0.736832 1 64 1.000000
0  -3.185563 -1.351155 -5.400305  -0.000004 -0.999997 0.002434  0.007616 0.736474 1 64 1.000000
0  -3.384108 -1.350091 -4.963421  -0.000004 -0.999997 0.002434  0.007791 0.736300 1 64 1.000000
lowpoly_plastic
0  -3.384108 -1.350091 -4.963421  0.000000 -0.999997 0.002432  0.007791 0.736300 1 64 1.000000
0  -3.863438 -1.349650 -4.782456  0.000000 -0.999997 0.002432  0.008038 0.736300 1 64 1.000000
0  -4.342769 -1.350091 -4.963421  0.000000 -0.999997 0.002432  0.008212 0.736474 1 64 1.000000
lowpoly_plastic
0  -4.342769 -1.350091 -4.963421  0.000000 -0.999997 0.002435  0.008212 0.736474 1 64 1.000000
0  -4.541313 -1.351154 -5.400305  0.000000 -0.999997 0.002435  0.008212 0.736721 1 64 1.000000
0  -4.342769 -1.352218 -5.837189  0.000000 -0.999997 0.002435  0.007992 0.737007 1 64 1.000000
lowpoly_plastic
0  -4.342769 -1.352218 -5.837189  0.000000 -0.999997 0.002433  0.007992 0.737007 1 64 1.000000
0  -3.863438 -1.352658 -6.018150  0.000000 -0.999997 0.002433  0.007722 0.737063 1 64 1.000000
0  -3.384108 -1.352218 -5.837189  0.000000 -0.999997 0.002433  0.007570 0.736832 1 64 1.000000
lowpoly_plastic
0  -4.504916 -0.692405 -5.401773  0.000000 0.999997 -0.002271  0.006674 0.736900 1 64 1.000000
0  -4.364752 -0.692405 -5.401773  0.000000 0.999997 -0.002271  0.006739 0.736873 1 64 1.000000
0  -4.217921 -0.693139 -5.724865  0.000000 0.999997 -0.002271  0.006875 0.737009 1 64 1.000000
lowpoly_plastic
0  -3.409845 -0.693345 -5.815199  0.000006 0.999997 -0.002274  0.007316 0.737011 1 64 1.000000
0  -3.508955 -0.693139 -5.724865  0.000006 0.999997 -0.002274  0.007205 0.736873 1 64 1.000000
0  -3.362124 -0.692405 -5.401773  0.000006 0.999997 -0.002274  0.007205 0.736680 1 64 1.000000
lowpoly_metal
0  -3.409845 -0.693345 -5.815199  0.000000 -0.999997 0.002271  0.069885 0.538476 1 64 1.000000
0  -4.317032 -0.691467 -4.988348  0.000000 -0.999997 0.002271  0.069425 0.537366 1 64 1.000000
0  -4.317032 -0.693345 -5.815199  0.000000 -0.999997 0.002271  0.070210 0.537691 1 64 1.000000
lowpoly_plastic
0  -3.409845 -0.691467 -4.988348  0.353199 0.002125 0.935546  0.008520 0.736449 1 64 1.000000
0  -3.863438 -1.010305 -4.816376  0.353199 0.002125 0.935546  0.008696 0.736221 1 64 1.000000
0  -3.409845 -1.010696 -4.987622  0.353199 0.002125 0.935546  0.008696 0.736449 1 64 1.000000
lowpoly_plastic
0  -4.342769 -1.003891 -4.964154  0.179773 0.980108 -0.084086  0.006410 0.736665 1 64 1.000000
0  -4.504916 -1.011633 -5.401049  0.179773 0.980108 -0.084086  0.006498 0.736895 1 64 1.000000
0  -4.541313 -1.004956 -5.401037  0.179773 0.980108 -0.084086  0.006410 0.736895 1 64 1.000000
lowpoly_plastic
0  -4.317031 -0.693345 -5.815199  -0.353202 -0.002127 -0.935545  0.009418 0.736449 1 64 1.000000
0  -3.863438 -1.012960 -5.985720  -0.353202 -0.002127 -0.935545  0.009594 0.736221 1 64 1.000000
0  -4.317031 -1.012572 -5.814474  -0.353202 -0.002127 -0.935545  0.009594 0.736449 1 64 1.000000
lowpoly_plastic
0  -4.541313 -1.004956 -5.401037  0.178128 0.980866 0.078562  0.006410 0.736895 1 64 1.000000
0  -4.317031 -1.012572 -5.814474  0.178128 0.980866 0.078562  0.006498 0.737242 1 64 1.000000
0  -4.342769 -1.006020 -5.837921  0.178128 0.980866 0.078562  0.006410 0.737242 1 64 1.000000
lowpoly_plastic
0  -3.221961 -0.692405 -5.401773  0.910397 0.000939 0.413734  0.006191 0.737922 1 64 1.000000
0  -3.409845 -1.010696 -4.987622  0.910397 0.000939 0.413734  0.006367 0.737693 1 64 1.000000
0  -3.221961 -1.011633 -5.401049  0.910397 0.000939 0.413734  0.006367 0.737922 1 64 1.000000
lowpoly_plastic
0  -3.863438 -0.693732 -5.986445  0.353203 -0.002126 -0.935544  0.009418 0.736221 1 64 1.000000
0  -3.409845 -1.012572 -5.814474  0.353203 -0.002126 -0.935544  0.009594 0.735993 1 64 1.000000
0  -3.863438 -1.012960 -5.985720  0.353203 -0.002126 -0.935544  0.009594 0.736221 1 64 1.000000
lowpoly_plastic
0  -3.863438 -1.003452 -4.783189  0.074976 0.976725 -0.200964  0.008784 0.736221 1 64 1.000000
0  -4.317032 -1.010696 -4.987622  0.074976 0.976725 -0.200964  0.008696 0.735993 1 64 1.000000
0  -4.342769 -1.003891 -4.964154  0.074976 0.976725 -0.200964  0.008784 0.735993 1 64 1.000000
lowpoly_plastic
0  -3.409845 -0.693345 -5.815199  0.910397 -0.000941 -0.413735  0.006191 0.738269 1 64 1.000000
0  -3.221961 -1.011633 -5.401049  0.910397 -0.000941 -0.413735  0.006367 0.737922 1 64 1.000000
0  -3.409845 -1.012572 -5.814474  0.910397 -0.000941 -0.413735  0.006367 0.738269 1 64 1.000000
lowpoly_plastic
0  -3.863438 -1.349650 -4.782456  -0.353203 0.001981 0.935545  0.008872 0.736221 1 64 1.000000
0  -4.342769 -1.003891 -4.964154  -0.353203 0.001981 0.935545  0.008784 0.735993 1 64 1.000000
0  -4.342769 -1.350091 -4.963421  -0.353203 0.001981 0.935545  0.008872 0.735993 1 64 1.000000
lowpoly_plastic
0  -4.541313 -1.351154 -5.400305  -0.910398 -0.000874 -0.413733  0.006322 0.736895 1 64 1.000000
0  -4.342769 -1.006020 -5.837921  -0.910398 -0.000874 -0.413733  0.006410 0.737242 1 64 1.000000
0  -4.342769 -1.352218 -5.837189  -0.910398 -0.000874 -0.413733  0.006322 0.737242 1 64 1.000000
lowpoly_plastic
0  -4.342769 -1.350091 -4.963421  -0.910398 0.000877 0.413733  0.006322 0.736665 1 64 1.000000
0  -4.541313 -1.004956 -5.401037  -0.910398 0.000877 0.413733  0.006410 0.736895 1 64 1.000000
0  -4.541313 -1.351154 -5.400305  -0.910398 0.000877 0.413733  0.006322 0.736895 1 64 1.000000
lowpoly_plastic
0  -3.409845 -1.010696 -4.987622  -0.074977 0.976724 -0.200968  0.008696 0.736449 1 64 1.000000
0  -3.863438 -1.003452 -4.783189  -0.074977 0.976724 -0.200968  0.008784 0.736221 1 64 1.000000
0  -3.384108 -1.003891 -4.964154  -0.074977 0.976724 -0.200968  0.008784 0.736449 1 64 1.000000
lowpoly_plastic
0  -4.317031 -1.012572 -5.814474  0.073620 0.978507 0.192627  0.009594 0.736449 1 64 1.000000
0  -3.863438 -1.006459 -6.018884  0.073620 0.978507 0.192627  0.009682 0.736221 1 64 1.000000
0  -4.342769 -1.006020 -5.837921  0.073620 0.978507 0.192627  0.009682 0.736449 1 64 1.000000
lowpoly_plastic
0  -3.221961 -1.011633 -5.401049  -0.179773 0.980108 -0.084086  0.006367 0.737922 1 64 1.000000
0  -3.384108 -1.003891 -4.964154  -0.179773 0.980108 -0.084086  0.006455 0.737693 1 64 1.000000
0  -3.185563 -1.004956 -5.401037  -0.179773 0.980108 -0.084086  0.006455 0.737922 1 64 1.000000
lowpoly_plastic
0  -3.863438 -1.012960 -5.985720  -0.073329 0.978681 0.191851  0.009594 0.736221 1 64 1.000000
0  -3.384108 -1.006020 -5.837921  -0.073329 0.978681 0.191851  0.009682 0.735993 1 64 1.000000
0  -3.863438 -1.006459 -6.018884  -0.073329 0.978681 0.191851  0.009682 0.736221 1 64 1.000000
lowpoly_plastic
0  -3.409845 -1.012572 -5.814474  -0.178134 0.980865 0.078564  0.006367 0.738269 1 64 1.000000
0  -3.185563 -1.004956 -5.401037  -0.178134 0.980865 0.078564  0.006455 0.737922 1 64 1.000000
0  -3.384108 -1.006020 -5.837921  -0.178134 0.980865 0.078564  0.006455 0.738269 1 64 1.000000
lowpoly_metal
0  -3.152004 -1.820943 -5.403903  0.917969 0.000000 0.396653  0.064884 0.750969 1 64 1.000000
0  -3.152004 -1.352658 -5.403903  0.917969 0.000000 0.396653  0.064884 0.750969 1 64 1.000000
0  -3.433740 -1.352658 -4.751887  0.917969 0.000000 0.396653  0.064884 0.750968 1 64 1.000000
lowpoly_metal
0  -4.480319 -1.820943 -6.806252  0.000000 0.459055 -0.888408  0.064887 0.750970 1 64 1.000000
0  -4.480319 -1.352658 -6.564281  0.000000 0.459055 -0.888408  0.064887 0.750970 1 64 1.000000
0  -3.261017 -1.352658 -6.564281  0.000000 0.459055 -0.888408  0.064887 0.750970 1 64 1.000000
lowpoly_metal
0  -4.307596 -1.820943 -4.751887  -0.917968 0.000000 0.396654  0.064885 0.750968 1 64 1.000000
0  -4.307596 -1.352658 -4.751887  -0.917968 0.000000 0.396654  0.064885 0.750968 1 64 1.000000
0  -4.589332 -1.352658 -5.403903  -0.917968 0.000000 0.396654  0.064885 0.750969 1 64 1.000000
lowpoly_metal
0  -4.480319 -1.820943 -5.986955  -1.000000 0.000000 0.000000  0.064885 0.750969 1 64 1.000000
0  -4.480319 -1.352658 -5.986955  -1.000000 0.000000 0.000000  0.064885 0.750969 1 64 1.000000
0  -4.480319 -1.352658 -6.564281  -1.000000 0.000000 0.000000  0.064885 0.750970 1 64 1.000000
lowpoly_metal
0  -3.433740 -1.820943 -4.751887  0.000000 0.000000 1.000000  0.064884 0.750968 1 64 1.000000
0  -3.433740 -1.352658 -4.751887  0.000000 0.000000 1.000000  0.064884 0.750968 1 64 1.000000
0  -4.307596 -1.352658 -4.751887  0.000000 0.000000 1.000000  0.064885 0.750968 1 64 1.000000
lowpoly_metal
0  -3.261017 -1.820943 -5.986955  0.982967 0.000000 -0.183784  0.064884 0.750969 1 64 1.000000
0  -3.261017 -1.352658 -5.986955  0.982967 0.000000 -0.183784  0.064884 0.750969 1 64 1.000000
0  -3.152004 -1.352658 -5.403903  0.982967 0.000000 -0.183784  0.064884 0.750969 1 64 1.000000
lowpoly_metal
0  -3.261017 -1.820943 -6.806252  1.000000 0.000001 0.000000  0.064884 0.750970 1 64 1.000000
0  -3.261017 -1.352658 -6.564281  1.000000 0.000001 0.000000  0.064884 0.750970 1 64 1.000000
0  -3.261017 -1.352658 -5.986955  1.000000 0.000001 0.000000  0.064884 0.750969 1 64 1.000000
lowpoly_metal
0  -4.589332 -1.820943 -5.403903  -0.982967 0.000000 -0.183783  0.064885 0.750969 1 64 1.000000
0  -4.589332 -1.352658 -5.403903  -0.982967 0.000000 -0.183783  0.064885 0.750969 1 64 1.000000
0  -4.480319 -1.352658 -5.986955  -0.982967 0.000000 -0.183783  0.064885 0.750969 1 64 1.000000
lowpoly_metal
0  -4.307596 -1.820943 -4.751887  0.000000 -1.000000 0.000000  0.064885 0.750968 1 64 1.000000
0  -4.589332 -1.820943 -5.403903  0.000000 -1.000000 0.000000  0.064885 0.750969 1 64 1.000000
0  -3.433740 -1.820943 -4.751887  0.000000 -1.000000 0.000000  0.064884 0.750968 1 64 1.000000
lowpoly_metal
0  -4.589332 -1.820943 -5.403903  0.000000 -1.000000 0.000001  0.064885 0.750969 1 64 1.000000
0  -4.480319 -1.820943 -5.986955  0.000000 -1.000000 0.000001  0.064885 0.750969 1 64 1.000000
0  -3.152004 -1.820943 -5.403903  0.000000 -1.000000 0.000001  0.064884 0.750969 1 64 1.000000
lowpoly_metal
0  -3.433740 -1.820943 -4.751887  0.000000 -1.000000 -0.000001  0.064884 0.750968 1 64 1.000000
0  -4.589332 -1.820943 -5.403903  0.000000 -1.000000 -0.000001  0.064885 0.750969 1 64 1.000000
0  -3.152004 -1.820943 -5.403903  0.000000 -1.000000 -0.000001  0.064884 0.750969 1 64 1.000000
lowpoly_metal
0  -4.480319 -1.820943 -5.986955  0.000000 -1.000000 0.000000  0.064885 0.750969 1 64 1.000000
0  -4.480319 -1.820943 -6.806252  0.000000 -1.000000 0.000000  0.064887 0.750970 1 64 1.000000
0  -3.261017 -1.820943 -6.806252  0.000000 -1.000000 0.000000  0.064884 0.750970 1 64 1.000000
lowpoly_metal
0  -3.261017 -1.820943 -5.986955  0.000000 -1.000000 0.000000  0.064884 0.750969 1 64 1.000000
0  -3.152004 -1.820943 -5.403903  0.000000 -1.000000 0.000000  0.064884 0.750969 1 64 1.000000
0  -4.480319 -1.820943 -5.986955  0.000000 -1.000000 0.000000  0.064885 0.750969 1 64 1.000000
lowpoly_metal
0  -4.307596 -1.352658 -4.751887  0.000000 1.000000 0.000000  0.064885 0.750968 1 64 1.000000
0  -3.433740 -1.352658 -4.751887  0.000000 1.000000 0.000000  0.064884 0.750968 1 64 1.000000
0  -3.152004 -1.352658 -5.403903  0.000000 1.000000 0.000000  0.064884 0.750969 1 64 1.000000
lowpoly_metal
0  -4.589332 -1.352658 -5.403903  0.000000 1.000000 -0.000000  0.064885 0.750969 1 64 1.000000
0  -3.152004 -1.352658 -5.403903  0.000000 1.000000 -0.000000  0.064884 0.750969 1 64 1.000000
0  -3.261017 -1.352658 -5.986955  0.000000 1.000000 -0.000000  0.064884 0.750969 1 64 1.000000
lowpoly_metal
0  -3.261017 -1.352658 -6.564281  0.000000 1.000000 0.000000  0.064884 0.750970 1 64 1.000000
0  -4.480319 -1.352658 -6.564281  0.000000 1.000000 0.000000  0.064885 0.750970 1 64 1.000000
0  -4.480319 -1.352658 -5.986955  0.000000 1.000000 0.000000  0.064885 0.750969 1 64 1.000000
lowpoly_metal
0  -3.409845 -0.224205 -4.989408  0.000000 0.999997 -0.002268  0.058582 0.625847 1 64 1.000000
0  -3.221961 -0.225143 -5.402834  0.000000 0.999997 -0.002268  0.058582 0.626040 1 64 1.000000
0  -3.362124 -0.225143 -5.402834  0.000000 0.999997 -0.002268  0.058531 0.626019 1 64 1.000000
lowpoly_plastic
0  -3.384108 -1.006020 -5.837921  0.910397 -0.000875 -0.413734  0.006455 0.738269 1 64 1.000000
0  -3.185563 -1.004956 -5.401037  0.910397 -0.000875 -0.413734  0.006455 0.737922 1 64 1.000000
0  -3.185563 -1.351155 -5.400305  0.910397 -0.000875 -0.413734  0.006543 0.737922 1 64 1.000000
lowpoly_metal
0  -4.364752 -0.016416 -5.403308  0.000000 -0.999997 0.002264  0.060118 0.623429 1 64 1.000000
0  -4.411149 -0.016416 -5.403308  0.000000 -0.999997 0.002264  0.060111 0.623412 1 64 1.000000
0  -4.250728 -0.017215 -5.756299  0.000000 -0.999997 0.002264  0.060277 0.623412 1 64 1.000000
lowpoly_metal
0  -3.409845 -0.226083 -5.816258  0.000006 0.999997 -0.002273  0.058445 0.626177 1 64 1.000000
0  -3.508955 -0.225877 -5.725924  0.000006 0.999997 -0.002273  0.058424 0.626126 1 64 1.000000
0  -3.362124 -0.225143 -5.402834  0.000006 0.999997 -0.002273  0.058531 0.626019 1 64 1.000000
lowpoly_metal
0  -3.863438 -0.015376 -4.946387  -0.000008 -0.999997 0.002300  0.060011 0.623688 1 64 1.000000
0  -3.863438 -0.015279 -4.904097  -0.000008 -0.999997 0.002300  0.059994 0.623694 1 64 1.000000
0  -4.250729 -0.015612 -5.050314  -0.000008 -0.999997 0.002300  0.059994 0.623529 1 64 1.000000
lowpoly_metal
0  -4.217921 -0.017149 -5.726399  -0.000009 -0.999997 0.002234  0.060270 0.623429 1 64 1.000000
0  -4.250728 -0.017215 -5.756299  -0.000009 -0.999997 0.002234  0.060277 0.623412 1 64 1.000000
0  -3.863438 -0.017545 -5.902516  -0.000009 -0.999997 0.002234  0.060394 0.623529 1 64 1.000000
lowpoly_metal
0  -3.863438 -0.226472 -5.987505  -0.000002 0.999997 -0.002272  0.058251 0.626177 1 64 1.000000
0  -3.863438 -0.226182 -5.859754  -0.000002 0.999997 -0.002272  0.058272 0.626126 1 64 1.000000
0  -3.508955 -0.225877 -5.725924  -0.000002 0.999997 -0.002272  0.058424 0.626126 1 64 1.000000
lowpoly_metal
0  -3.863438 -0.223817 -4.818161  -0.000006 0.999997 -0.002282  0.058445 0.625709 1 64 1.000000
0  -3.409845 -0.224205 -4.989408  -0.000006 0.999997 -0.002282  0.058582 0.625847 1 64 1.000000
0  -3.508955 -0.224412 -5.079741  -0.000006 0.999997 -0.002282  0.058531 0.625868 1 64 1.000000
lowpoly_metal
0  -4.411149 -0.016416 -5.403308  -0.910397 0.000939 0.413734  0.073420 0.539586 1 64 1.000000
0  -4.250729 -0.015612 -5.050314  -0.910397 0.000939 0.413734  0.073056 0.539586 1 64 1.000000
0  -4.250729 5.445278 -5.062710  -0.910397 0.000939 0.413734  0.073056 0.533975 1 64 1.000000
lowpoly_metal
0  -4.317032 -0.691467 -4.988348  -0.910398 0.000939 0.413733  0.068619 0.538737 1 64 1.000000
0  -4.317032 -0.224205 -4.989408  -0.910398 0.000939 0.413733  0.069100 0.538737 1 64 1.000000
0  -4.504916 -0.225143 -5.402834  -0.910398 0.000939 0.413733  0.069100 0.539164 1 64 1.000000
lowpoly_metal
0  -4.217921 -0.225877 -5.725924  -0.353203 -0.002127 -0.935544  0.058301 0.624770 1 64 1.000000
0  -4.217921 -0.017149 -5.726399  -0.353203 -0.002127 -0.935544  0.058211 0.624770 1 64 1.000000
0  -3.863438 -0.017451 -5.860228  -0.353203 -0.002127 -0.935544  0.058211 0.624630 1 64 1.000000
lowpoly_metal
0  -4.411149 -0.016416 -5.403308  -0.910398 -0.000939 -0.413733  0.073420 0.539586 1 64 1.000000
0  -4.411149 5.444477 -5.415703  -0.910398 -0.000939 -0.413733  0.073420 0.533975 1 64 1.000000
0  -4.250729 5.443675 -5.768698  -0.910398 -0.000939 -0.413733  0.073781 0.533975 1 64 1.000000
lowpoly_metal
0  -4.250729 -0.015612 -5.050314  -0.353206 0.002124 0.935543  0.074506 0.533975 1 64 1.000000
0  -3.863438 -0.015279 -4.904097  -0.353206 0.002124 0.935543  0.074869 0.533975 1 64 1.000000
0  -3.863439 5.445611 -4.916495  -0.353206 0.002124 0.935543  0.074869 0.539586 1 64 1.000000
lowpoly_metal
0  -3.315728 -0.016416 -5.403308  0.910398 0.000939 0.413732  0.072695 0.533975 1 64 1.000000
0  -3.315729 5.444477 -5.415703  0.910398 0.000939 0.413732  0.072695 0.539586 1 64 1.000000
0  -3.476149 5.445278 -5.062710  0.910398 0.000939 0.413732  0.072330 0.539586 1 64 1.000000
lowpoly_metal
0  -3.622593 1.260718 -6.235171  0.000000 -0.002270 -0.999997  0.088441 0.640740 1 64 1.000000
0  -4.104284 1.260718 -6.235171  0.000000 -0.002270 -0.999997  0.088688 0.640740 1 64 1.000000
0  -4.104285 5.283680 -6.244303  0.000000 -0.002270 -0.999997  0.088688 0.643008 1 64 1.000000
lowpoly_plastic
0  -3.863438 -1.010305 -4.816376  -0.353202 0.002126 0.935544  0.008696 0.736221 1 64 1.000000
0  -3.863438 -0.691079 -4.817101  -0.353202 0.002126 0.935544  0.008520 0.736221 1 64 1.000000
0  -4.317032 -0.691467 -4.988348  -0.353202 0.002126 0.935544  0.008520 0.735993 1 64 1.000000
lowpoly_plastic
0  -3.863438 -0.693732 -5.986445  0.000002 0.999997 -0.002271  0.007165 0.737242 1 64 1.000000
0  -3.863438 -0.693442 -5.858695  0.000002 0.999997 -0.002271  0.007068 0.737009 1 64 1.000000
0  -3.508955 -0.693139 -5.724865  0.000002 0.999997 -0.002271  0.007205 0.736873 1 64 1.000000
lowpoly_metal
0  -4.104285 5.283680 -6.244303  0.000000 0.999997 -0.002271  0.088193 0.641176 1 64 1.000000
0  -4.104285 5.285026 -5.651451  0.000000 0.999997 -0.002271  0.088193 0.640842 1 64 1.000000
0  -3.622594 5.285026 -5.651451  0.000000 0.999997 -0.002271  0.088441 0.640842 1 64 1.000000
lowpoly_metal
0  -3.622594 5.285026 -5.651451  1.000000 0.000000 0.000000  0.089604 0.640557 1 64 1.000000
0  -3.622593 0.937448 -5.641582  1.000000 0.000000 0.000000  0.089604 0.643008 1 64 1.000000
0  -3.622593 1.260718 -6.235171  1.000000 0.000000 0.000000  0.089270 0.642825 1 64 1.000000
lowpoly_metal
0  -4.250728 -0.017215 -5.756299  -0.353199 -0.002124 -0.935546  0.074506 0.533975 1 64 1.000000
0  -4.250729 5.443675 -5.768698  -0.353199 -0.002124 -0.935546  0.074506 0.539586 1 64 1.000000
0  -3.863439 5.443344 -5.914912  -0.353199 -0.002124 -0.935546  0.074144 0.539586 1 64 1.000000
lowpoly_metal
0  -3.476149 -0.015612 -5.050314  0.353200 0.002124 0.935545  0.075232 0.533975 1 64 1.000000
0  -3.476149 5.445278 -5.062710  0.353200 0.002124 0.935545  0.075232 0.539586 1 64 1.000000
0  -3.863439 5.445611 -4.916495  0.353200 0.002124 0.935545  0.074869 0.539586 1 64 1.000000
lowpoly_metal
0  -3.863438 -0.226182 -5.859754  0.353202 -0.002127 -0.935544  0.058301 0.624630 1 64 1.000000
0  -3.863438 -0.017451 -5.860228  0.353202 -0.002127 -0.935544  0.058211 0.624630 1 64 1.000000
0  -3.508955 -0.017149 -5.726399  0.353202 -0.002127 -0.935544  0.058211 0.624490 1 64 1.000000
lowpoly_metal
0  -4.104284 1.260718 -6.235171  -1.000000 -0.000000 -0.000000  0.089270 0.642825 1 64 1.000000
0  -4.104284 0.937448 -5.641582  -1.000000 -0.000000 -0.000000  0.088936 0.643008 1 64 1.000000
0  -4.104285 5.285026 -5.651451  -1.000000 -0.000000 -0.000000  0.088936 0.640557 1 64 1.000000
lowpoly_metal
0  -3.362124 -0.225143 -5.402834  0.910398 0.000940 0.413734  0.058121 0.624631 1 64 1.000000
0  -3.362124 -0.016416 -5.403308  0.910398 0.000940 0.413734  0.058030 0.624631 1 64 1.000000
0  -3.508955 -0.015679 -5.080215  0.910398 0.000940 0.413734  0.058030 0.624490 1 64 1.000000
lowpoly_metal
0  -3.863438 -0.224107 -4.945913  -0.353200 0.002125 0.935545  0.058392 0.624630 1 64 1.000000
0  -3.863438 -0.015376 -4.946387  -0.353200 0.002125 0.935545  0.058301 0.624630 1 64 1.000000
0  -4.217921 -0.015679 -5.080215  -0.353200 0.002125 0.935545  0.058301 0.624490 1 64 1.000000
lowpoly_metal
0  -3.863438 -0.017545 -5.902516  0.353201 -0.002124 -0.935545  0.074144 0.533975 1 64 1.000000
0  -3.863439 5.443344 -5.914912  0.353201 -0.002124 -0.935545  0.074144 0.539586 1 64 1.000000
0  -3.476149 5.443675 -5.768698  0.353201 -0.002124 -0.935545  0.073781 0.539586 1 64 1.000000
lowpoly_metal
0  -3.508955 -0.224412 -5.079741  0.353199 0.002124 0.935546  0.058392 0.624770 1 64 1.000000
0  -3.508955 -0.015679 -5.080215  0.353199 0.002124 0.935546  0.058301 0.624770 1 64 1.000000
0  -3.863438 -0.015376 -4.946387  0.353199 0.002124 0.935546  0.058301 0.624630 1 64 1.000000
lowpoly_metal
0  -4.364752 -0.225143 -5.402834  -0.910397 0.000938 0.413735  0.058121 0.624631 1 64 1.000000
0  -4.217921 -0.224412 -5.079741  -0.910397 0.000938 0.413735  0.058121 0.624490 1 64 1.000000
0  -4.217921 -0.015679 -5.080215  -0.910397 0.000938 0.413735  0.058211 0.624490 1 64 1.000000
lowpoly_metal
0  -4.317032 -0.226083 -5.816258  -0.353204 -0.002122 -0.935544  0.068620 0.538216 1 64 1.000000
0  -3.863438 -0.226472 -5.987505  -0.353204 -0.002122 -0.935544  0.068620 0.537791 1 64 1.000000
0  -3.863438 -0.693732 -5.986445  -0.353204 -0.002122 -0.935544  0.069100 0.537791 1 64 1.000000
lowpoly_metal
0  -3.863438 -0.226472 -5.987505  0.353202 -0.002120 -0.935545  0.068620 0.537791 1 64 1.000000
0  -3.409845 -0.226083 -5.816258  0.353202 -0.002120 -0.935545  0.068620 0.537366 1 64 1.000000
0  -3.409845 -0.693345 -5.815199  0.353202 -0.002120 -0.935545  0.069100 0.537366 1 64 1.000000
lowpoly_metal
0  -3.863438 -0.691079 -4.817101  -0.353203 0.002122 0.935544  0.072423 0.533550 1 64 1.000000
0  -3.863438 -0.223817 -4.818161  -0.353203 0.002122 0.935544  0.072903 0.533550 1 64 1.000000
0  -4.317032 -0.224205 -4.989408  -0.353203 0.002122 0.935544  0.072903 0.533975 1 64 1.000000
lowpoly_plastic
0  -3.863438 -1.006459 -6.018884  0.353203 -0.001979 -0.935545  0.009682 0.736221 1 64 1.000000
0  -3.384108 -1.006020 -5.837921  0.353203 -0.001979 -0.935545  0.009682 0.735993 1 64 1.000000
0  -3.384108 -1.352218 -5.837189  0.353203 -0.001979 -0.935545  0.009770 0.735993 1 64 1.000000
lowpoly_plastic
0  -3.185563 -1.004956 -5.401037  0.910397 0.000876 0.413734  0.006455 0.737922 1 64 1.000000
0  -3.384108 -1.003891 -4.964154  0.910397 0.000876 0.413734  0.006455 0.737693 1 64 1.000000
0  -3.384108 -1.350091 -4.963421  0.910397 0.000876 0.413734  0.006543 0.737693 1 64 1.000000
lowpoly_metal
0  -3.409845 -0.226083 -5.816258  0.910396 -0.000940 -0.413738  0.072330 0.532848 1 64 1.000000
0  -3.221961 -0.225143 -5.402834  0.910396 -0.000940 -0.413738  0.072330 0.533270 1 64 1.000000
0  -3.221961 -0.692405 -5.401773  0.910396 -0.000940 -0.413738  0.071850 0.533270 1 64 1.000000
lowpoly_metal
0  -3.221961 -0.225143 -5.402834  0.910397 0.000940 0.413735  0.072330 0.533270 1 64 1.000000
0  -3.409845 -0.224205 -4.989408  0.910397 0.000940 0.413735  0.072330 0.533697 1 64 1.000000
0  -3.409845 -0.691467 -4.988348  0.910397 0.000940 0.413735  0.071850 0.533697 1 64 1.000000
lowpoly_metal
0  -3.863438 -0.223817 -4.818161  -0.000007 0.999997 -0.002264  0.058445 0.625709 1 64 1.000000
0  -3.863438 -0.224107 -4.945913  -0.000007 0.999997 -0.002264  0.058424 0.625761 1 64 1.000000
0  -4.217921 -0.224412 -5.079741  -0.000007 0.999997 -0.002264  0.058272 0.625761 1 64 1.000000
lowpoly_metal
0  -4.504916 -0.692405 -5.401773  -0.910396 -0.000939 -0.413736  0.068619 0.539164 1 64 1.000000
0  -4.504916 -0.225143 -5.402834  -0.910396 -0.000939 -0.413736  0.069100 0.539164 1 64 1.000000
0  -4.317032 -0.226083 -5.816258  -0.910396 -0.000939 -0.413736  0.069100 0.539586 1 64 1.000000
lowpoly_metal
0  -3.476149 -0.017215 -5.756299  0.910398 -0.000939 -0.413732  0.073056 0.533975 1 64 1.000000
0  -3.476149 5.443675 -5.768698  0.910398 -0.000939 -0.413732  0.073056 0.539586 1 64 1.000000
0  -3.315729 5.444477 -5.415703  0.910398 -0.000939 -0.413732  0.072695 0.539586 1 64 1.000000
lowpoly_plastic
0  -3.384108 -1.352218 -5.837189  0.000000 -0.999997 0.002434  0.007570 0.736832 1 64 1.000000
0  -3.384108 -1.350091 -4.963421  0.000000 -0.999997 0.002434  0.007791 0.736300 1 64 1.000000
0  -4.342769 -1.350091 -4.963421  0.000000 -0.999997 0.002434  0.008212 0.736474 1 64 1.000000
lowpoly_metal
0  -3.508955 -0.015679 -5.080215  0.000000 -0.999997 0.002281  0.060118 0.623795 1 64 1.000000
0  -3.362124 -0.016416 -5.403308  0.000000 -0.999997 0.002281  0.060270 0.623795 1 64 1.000000
0  -3.315728 -0.016416 -5.403308  0.000000 -0.999997 0.002281  0.060277 0.623812 1 64 1.000000
lowpoly_metal
0  -4.504916 -0.225143 -5.402834  0.000000 0.999997 -0.002271  0.058114 0.625847 1 64 1.000000
0  -4.364752 -0.225143 -5.402834  0.000000 0.999997 -0.002271  0.058165 0.625868 1 64 1.000000
0  -4.217921 -0.225877 -5.725924  0.000000 0.999997 -0.002271  0.058165 0.626019 1 64 1.000000
lowpoly_metal
0  -4.317032 -0.224205 -4.989408  0.000016 0.999997 -0.002270  0.058251 0.625709 1 64 1.000000
0  -4.217921 -0.224412 -5.079741  0.000016 0.999997 -0.002270  0.058272 0.625761 1 64 1.000000
0  -4.364752 -0.225143 -5.402834  0.000016 0.999997 -0.002270  0.058165 0.625868 1 64 1.000000
lowpoly_plastic
0  -3.863438 -0.691079 -4.817101  0.000000 0.999997 -0.002278  0.006848 0.736479 1 64 1.000000
0  -3.863438 -0.691370 -4.944852  0.000000 0.999997 -0.002278  0.006875 0.736544 1 64 1.000000
0  -4.217921 -0.691675 -5.078681  0.000000 0.999997 -0.002278  0.006739 0.736680 1 64 1.000000
lowpoly_metal
0  -3.508955 -0.015679 -5.080215  -0.000008 -0.999997 0.002257  0.060118 0.623795 1 64 1.000000
0  -3.476149 -0.015612 -5.050314  -0.000008 -0.999997 0.002257  0.060111 0.623812 1 64 1.000000
0  -3.863438 -0.015279 -4.904097  -0.000008 -0.999997 0.002257  0.059994 0.623694 1 64 1.000000
lowpoly_plastic
0  -3.409845 -0.691467 -4.988348  0.000000 0.999997 -0.002270  0.007095 0.736479 1 64 1.000000
0  -3.221961 -0.692405 -5.401773  0.000000 0.999997 -0.002270  0.007270 0.736653 1 64 1.000000
0  -3.362124 -0.692405 -5.401773  0.000000 0.999997 -0.002270  0.007205 0.736680 1 64 1.000000
lowpoly_metal
0  -4.317032 -0.226083 -5.816258  -0.000001 0.999997 -0.002280  0.058114 0.626040 1 64 1.000000
0  -4.217921 -0.225877 -5.725924  -0.000001 0.999997 -0.002280  0.058165 0.626019 1 64 1.000000
0  -3.863438 -0.226182 -5.859754  -0.000001 0.999997 -0.002280  0.058272 0.626126 1 64 1.000000
lowpoly_plastic
0  -4.504916 -1.011633 -5.401049  -0.910397 -0.000939 -0.413735  0.006498 0.736895 1 64 1.000000
0  -4.504916 -0.692405 -5.401773  -0.910397 -0.000939 -0.413735  0.006674 0.736895 1 64 1.000000
0  -4.317031 -0.693345 -5.815199  -0.910397 -0.000939 -0.413735  0.006674 0.737242 1 64 1.000000
lowpoly_metal
0  -3.622593 1.260718 -6.235171  0.000000 -0.878209 -0.478277  0.088688 0.640557 1 64 1.000000
0  -3.622593 0.937448 -5.641582  0.000000 -0.878209 -0.478277  0.088688 0.640217 1 64 1.000000
0  -4.104284 0.937448 -5.641582  0.000000 -0.878209 -0.478277  0.088936 0.640217 1 64 1.000000
lowpoly_metal
0  -3.622594 5.285026 -5.651451  0.000000 0.002270 0.999997  0.088936 0.643008 1 64 1.000000
0  -4.104285 5.285026 -5.651451  0.000000 0.002270 0.999997  0.088688 0.643008 1 64 1.000000
0  -4.104284 0.937448 -5.641582  0.000000 0.002270 0.999997  0.088688 0.640557 1 64 1.000000
lowpoly_metal
0  -3.409845 -0.224205 -4.989408  0.353204 0.002121 0.935544  0.072903 0.533125 1 64 1.000000
0  -3.863438 -0.223817 -4.818161  0.353204 0.002121 0.935544  0.072903 0.533550 1 64 1.000000
0  -3.863438 -0.691079 -4.817101  0.353204 0.002121 0.935544  0.072423 0.533550 1 64 1.000000
lowpoly_plastic
0  -4.342769 -1.006020 -5.837921  -0.353202 -0.001983 -0.935545  0.009682 0.736449 1 64 1.000000
0  -3.863438 -1.006459 -6.018884  -0.353202 -0.001983 -0.935545  0.009682 0.736221 1 64 1.000000
0  -3.863438 -1.352658 -6.018150  -0.353202 -0.001983 -0.935545  0.009770 0.736221 1 64 1.000000
lowpoly_metal
0  -4.217921 -0.225877 -5.725924  -0.910396 -0.000937 -0.413736  0.058121 0.624770 1 64 1.000000
0  -4.364752 -0.225143 -5.402834  -0.910396 -0.000937 -0.413736  0.058121 0.624631 1 64 1.000000
0  -4.364752 -0.016416 -5.403308  -0.910396 -0.000937 -0.413736  0.058211 0.624631 1 64 1.000000
lowpoly_metal
0  -3.863438 -0.017451 -5.860228  0.000012 -0.999997 0.002224  0.060377 0.623536 1 64 1.000000
0  -3.863438 -0.017545 -5.902516  0.000012 -0.999997 0.002224  0.060394 0.623529 1 64 1.000000
0  -3.476149 -0.017215 -5.756299  0.000012 -0.999997 0.002224  0.060394 0.623695 1 64 1.000000
lowpoly_metal
0  -3.508955 -0.225877 -5.725924  0.910397 -0.000943 -0.413735  0.058121 0.624770 1 64 1.000000
0  -3.508955 -0.017149 -5.726399  0.910397 -0.000943 -0.413735  0.058030 0.624770 1 64 1.000000
0  -3.362124 -0.016416 -5.403308  0.910397 -0.000943 -0.413735  0.058030 0.624631 1 64 1.000000
lowpoly_plastic
0  -4.317032 -1.010696 -4.987622  -0.910398 0.000939 0.413733  0.006498 0.736665 1 64 1.000000
0  -4.317032 -0.691467 -4.988348  -0.910398 0.000939 0.413733  0.006674 0.736665 1 64 1.000000
0  -4.504916 -0.692405 -5.401773  -0.910398 0.000939 0.413733  0.006674 0.736895 1 64 1.000000
lowpoly_plastic
0  -3.384108 -1.003891 -4.964154  0.353204 0.001982 0.935544  0.008784 0.736449 1 64 1.000000
0  -3.863438 -1.003452 -4.783189  0.353204 0.001982 0.935544  0.008784 0.736221 1 64 1.000000
0  -3.863438 -1.349650 -4.782456  0.353204 0.001982 0.935544  0.008872 0.736221 1 64 1.000000
lowpoly_plastic
0  -4.317032 -0.691467 -4.988348  0.000030 0.999997 -0.002274  0.006674 0.736653 1 64 1.000000
0  -4.217921 -0.691675 -5.078681  0.000030 0.999997 -0.002274  0.006739 0.736680 1 64 1.000000
0  -4.364752 -0.692405 -5.401773  0.000030 0.999997 -0.002274  0.006739 0.736873 1 64 1.000000
lowpoly_plastic
0  -3.863438 -0.691079 -4.817101  -0.000011 0.999997 -0.002294  0.006848 0.736479 1 64 1.000000
0  -3.409845 -0.691467 -4.988348  -0.000011 0.999997 -0.002294  0.007095 0.736479 1 64 1.000000
0  -3.508955 -0.691675 -5.078681  -0.000011 0.999997 -0.002294  0.007068 0.736544 1 64 1.000000
lowpoly_metal
0  -4.364752 -0.016416 -5.403308  0.000021 -0.999997 0.002271  0.060118 0.623429 1 64 1.000000
0  -4.217921 -0.015679 -5.080215  0.000021 -0.999997 0.002271  0.060011 0.623536 1 64 1.000000
0  -4.250729 -0.015612 -5.050314  0.000021 -0.999997 0.002271  0.059994 0.623529 1 64 1.000000
lowpoly_metal
0  -3.362124 -0.016416 -5.403308  0.000028 -0.999997 0.002255  0.060270 0.623795 1 64 1.000000
0  -3.508955 -0.017149 -5.726399  0.000028 -0.999997 0.002255  0.060377 0.623688 1 64 1.000000
0  -3.476149 -0.017215 -5.756299  0.000028 -0.999997 0.002255  0.060394 0.623695 1 64 1.000000
lowpoly_plastic
0  -4.317031 -0.693345 -5.815199  -0.000004 0.999997 -0.002276  0.006895 0.737186 1 64 1.000000
0  -4.217921 -0.693139 -5.724865  -0.000004 0.999997 -0.002276  0.006875 0.737009 1 64 1.000000
0  -3.863438 -0.693442 -5.858695  -0.000004 0.999997 -0.002276  0.007068 0.737009 1 64 1.000000
lowpoly_metal
0  -3.409845 -0.693345 -5.815199  0.000000 -0.999997 0.002272  0.069885 0.538476 1 64 1.000000
0  -3.409845 -0.691467 -4.988348  0.000000 -0.999997 0.002272  0.069100 0.538151 1 64 1.000000
0  -4.317032 -0.691467 -4.988348  0.000000 -0.999997 0.002272  0.069425 0.537366 1 64 1.000000
lowpoly_plastic
0  -3.409845 -0.691467 -4.988348  0.353203 0.002126 0.935544  0.008520 0.736449 1 64 1.000000
0  -3.863438 -0.691079 -4.817101  0.353203 0.002126 0.935544  0.008520 0.736221 1 64 1.000000
0  -3.863438 -1.010305 -4.816376  0.353203 0.002126 0.935544  0.008696 0.736221 1 64 1.000000
lowpoly_plastic
0  -4.342769 -1.003891 -4.964154  0.181693 0.979693 -0.084794  0.006410 0.736665 1 64 1.000000
0  -4.317032 -1.010696 -4.987622  0.181693 0.979693 -0.084794  0.006498 0.736665 1 64 1.000000
0  -4.504916 -1.011633 -5.401049  0.181693 0.979693 -0.084794  0.006498 0.736895 1 64 1.000000
lowpoly_plastic
0  -4.317031 -0.693345 -5.815199  -0.353201 -0.002126 -0.935545  0.009418 0.736449 1 64 1.000000
0  -3.863438 -0.693732 -5.986445  -0.353201 -0.002126 -0.935545  0.009418 0.736221 1 64 1.000000
0  -3.863438 -1.012960 -5.985720  -0.353201 -0.002126 -0.935545  0.009594 0.736221 1 64 1.000000
lowpoly_plastic
0  -4.541313 -1.004956 -5.401037  0.179893 0.980466 0.079526  0.006410 0.736895 1 64 1.000000
0  -4.504916 -1.011633 -5.401049  0.179893 0.980466 0.079526  0.006498 0.736895 1 64 1.000000
0  -4.317031 -1.012572 -5.814474  0.179893 0.980466 0.079526  0.006498 0.737242 1 64 1.000000
lowpoly_plastic
0  -3.221961 -0.692405 -5.401773  0.910397 0.000940 0.413735  0.006191 0.737922 1 64 1.000000
0  -3.409845 -0.691467 -4.988348  0.910397 0.000940 0.413735  0.006191 0.737693 1 64 1.000000
0  -3.409845 -1.010696 -4.987622  0.910397 0.000940 0.413735  0.006367 0.737693 1 64 1.000000
lowpoly_plastic
0  -3.863438 -0.693732 -5.986445  0.353200 -0.002127 -0.935546  0.009418 0.736221 1 64 1.000000
0  -3.409845 -0.693345 -5.815199  0.353200 -0.002127 -0.935546  0.009418 0.735993 1 64 1.000000
0  -3.409845 -1.012572 -5.814474  0.353200 -0.002127 -0.935546  0.009594 0.735993 1 64 1.000000
lowpoly_plastic
0  -3.863438 -1.003452 -4.783189  0.075293 0.976556 -0.201664  0.008784 0.736221 1 64 1.000000
0  -3.863438 -1.010305 -4.816376  0.075293 0.976556 -0.201664  0.008696 0.736221 1 64 1.000000
0  -4.317032 -1.010696 -4.987622  0.075293 0.976556 -0.201664  0.008696 0.735993 1 64 1.000000
lowpoly_plastic
0  -3.409845 -0.693345 -5.815199  0.910397 -0.000940 -0.413735  0.006191 0.738269 1 64 1.000000
0  -3.221961 -0.692405 -5.401773  0.910397 -0.000940 -0.413735  0.006191 0.737922 1 64 1.000000
0  -3.221961 -1.011633 -5.401049  0.910397 -0.000940 -0.413735  0.006367 0.737922 1 64 1.000000
lowpoly_plastic
0  -3.863438 -1.349650 -4.782456  -0.353204 0.001981 0.935545  0.008872 0.736221 1 64 1.000000
0  -3.863438 -1.003452 -4.783189  -0.353204 0.001981 0.935545  0.008784 0.736221 1 64 1.000000
0  -4.342769 -1.003891 -4.964154  -0.353204 0.001981 0.935545  0.008784 0.735993 1 64 1.000000
lowpoly_plastic
0  -4.541313 -1.351154 -5.400305  -0.910398 -0.000877 -0.413733  0.006322 0.736895 1 64 1.000000
0  -4.541313 -1.004956 -5.401037  -0.910398 -0.000877 -0.413733  0.006410 0.736895 1 64 1.000000
0  -4.342769 -1.006020 -5.837921  -0.910398 -0.000877 -0.413733  0.006410 0.737242 1 64 1.000000
lowpoly_plastic
0  -4.342769 -1.350091 -4.963421  -0.910398 0.000875 0.413733  0.006322 0.736665 1 64 1.000000
0  -4.342769 -1.003891 -4.964154  -0.910398 0.000875 0.413733  0.006410 0.736665 1 64 1.000000
0  -4.541313 -1.004956 -5.401037  -0.910398 0.000875 0.413733  0.006410 0.736895 1 64 1.000000
lowpoly_plastic
0  -3.409845 -1.010696 -4.987622  -0.075292 0.976557 -0.201660  0.008696 0.736449 1 64 1.000000
0  -3.863438 -1.010305 -4.816376  -0.075292 0.976557 -0.201660  0.008696 0.736221 1 64 1.000000
0  -3.863438 -1.003452 -4.783189  -0.075292 0.976557 -0.201660  0.008784 0.736221 1 64 1.000000
lowpoly_plastic
0  -4.317031 -1.012572 -5.814474  0.073268 0.978686 0.191850  0.009594 0.736449 1 64 1.000000
0  -3.863438 -1.012960 -5.985720  0.073268 0.978686 0.191850  0.009594 0.736221 1 64 1.000000
0  -3.863438 -1.006459 -6.018884  0.073268 0.978686 0.191850  0.009682 0.736221 1 64 1.000000
lowpoly_plastic
0  -3.221961 -1.011633 -5.401049  -0.181699 0.979692 -0.084794  0.006367 0.737922 1 64 1.000000
0  -3.409845 -1.010696 -4.987622  -0.181699 0.979692 -0.084794  0.006367 0.737693 1 64 1.000000
0  -3.384108 -1.003891 -4.964154  -0.181699 0.979692 -0.084794  0.006455 0.737693 1 64 1.000000
lowpoly_plastic
0  -3.863438 -1.012960 -5.985720  -0.073577 0.978501 0.192671  0.009594 0.736221 1 64 1.000000
0  -3.409845 -1.012572 -5.814474  -0.073577 0.978501 0.192671  0.009594 0.735993 1 64 1.000000
0  -3.384108 -1.006020 -5.837921  -0.073577 0.978501 0.192671  0.009682 0.735993 1 64 1.000000
lowpoly_plastic
0  -3.409845 -1.012572 -5.814474  -0.179892 0.980467 0.079524  0.006367 0.738269 1 64 1.000000
0  -3.221961 -1.011633 -5.401049  -0.179892 0.980467 0.079524  0.006367 0.737922 1 64 1.000000
0  -3.185563 -1.004956 -5.401037  -0.179892 0.980467 0.079524  0.006455 0.737922 1 64 1.000000
end
