version 1
nodes
0 "ValveBiped.Bip01_Spine4" -1
1 "ValveBiped.Bip01_L_Clavicle" 0
2 "ValveBiped.Bip01_L_UpperArm" 1
3 "ValveBiped.Bip01_L_Forearm" 2
4 "ValveBiped.Bip01_L_Hand" 3
5 "ValveBiped.Bip01_L_Finger4" 4
6 "ValveBiped.Bip01_L_Finger41" 5
7 "ValveBiped.Bip01_L_Finger42" 6
8 "ValveBiped.Bip01_L_Finger3" 4
9 "ValveBiped.Bip01_L_Finger31" 8
10 "ValveBiped.Bip01_L_Finger32" 9
11 "ValveBiped.Bip01_L_Finger2" 4
12 "ValveBiped.Bip01_L_Finger21" 11
13 "ValveBiped.Bip01_L_Finger22" 12
14 "ValveBiped.Bip01_L_Finger1" 4
15 "ValveBiped.Bip01_L_Finger11" 14
16 "ValveBiped.Bip01_L_Finger12" 15
17 "ValveBiped.Bip01_L_Finger0" 4
18 "ValveBiped.Bip01_L_Finger01" 17
19 "ValveBiped.Bip01_L_Finger02" 18
20 "ValveBiped.Bip01_L_Ulna" 3
21 "ValveBiped.Bip01_L_Wrist" 3
22 "rig_l_upperarm" 1
23 "rig_l_forearm" 22
24 "rig_d_l_forearm" 23
25 "rig_d_l_upperarm" 22
26 "ValveBiped.Bip01_R_Clavicle" 0
27 "ValveBiped.Bip01_R_UpperArm" 26
28 "ValveBiped.Bip01_R_Forearm" 27
29 "ValveBiped.Bip01_R_Hand" 28
30 "ValveBiped.Bip01_R_Finger4" 29
31 "ValveBiped.Bip01_R_Finger41" 30
32 "ValveBiped.Bip01_R_Finger42" 31
33 "ValveBiped.Bip01_R_Finger3" 29
34 "ValveBiped.Bip01_R_Finger31" 33
35 "ValveBiped.Bip01_R_Finger32" 34
36 "ValveBiped.Bip01_R_Finger2" 29
37 "ValveBiped.Bip01_R_Finger21" 36
38 "ValveBiped.Bip01_R_Finger22" 37
39 "ValveBiped.Bip01_R_Finger1" 29
40 "ValveBiped.Bip01_R_Finger11" 39
41 "ValveBiped.Bip01_R_Finger12" 40
42 "ValveBiped.Bip01_R_Finger0" 29
43 "ValveBiped.Bip01_R_Finger01" 42
44 "ValveBiped.Bip01_R_Finger02" 43
45 "ValveBiped.Bip01_R_Ulna" 28
46 "ValveBiped.Bip01_R_Wrist" 28
47 "rig_r_upperarm" 26
48 "rig_r_forearm" 47
49 "rig_d_r_forearm" 48
50 "rig_d_r_upperarm" 47
51 "rig_r_hand" -1
52 "rig_d_r_hand" 51
53 "rig_d_r_wrist" 52
54 "rig_l_hand" -1
55 "rig_d_l_hand" 54
56 "rig_d_l_wrist" 54
57 "rig_l_pole" -1
58 "rig_r_pole" -1
59 "rig_l_clavicle" -1
60 "rig_d_l_clavicle" 59
61 "rig_r_clavicle" -1
62 "rig_d_r_clavicle" 61
63 "Camera" -1
64 "body" -1
65 "trigger" 64
66 "bolt" 64
67 "chandle" 66
68 "barrel" 64
69 "magrel" 64
70 "fireselector" 64
71 "fireselector_inverted" 64
72 "magrel9mm" 64
73 "fakemag" -1
74 "fakerounds" 73
75 "mag" -1
76 "bullet1" 75
77 "bullet3" 75
78 "bullet2" 75
79 "bullet4" 75
80 "bizonmag" -1
81 "fakeroundsbizon" 80
82 "fakebizonmag" -1
83 "bullet1bizon" 82
84 "bullet2bizon" 82
end
skeleton
time 0
0  0.000006 0.000000 0.000000  -1.570800 -1.391899 -1.570792
1  2.033349 1.000767 1.937657  -1.544956 -1.855077 -0.198630
2  6.027515 -0.000324 0.000201  -1.583284 0.045954 -0.585171
3  11.692119 0.000650 -0.000737  -0.000012 0.000001 -0.056696
4  11.481224 0.000160 -0.000727  1.576889 -0.106574 0.041971
5  3.859504 -0.142825 -1.192079  -0.468169 0.151546 -0.880257
6  1.312590 0.000009 0.000007  -0.000027 0.000044 -0.439740
7  0.729357 0.000054 0.000049  0.000017 0.000021 -0.244317
8  3.942141 0.046330 -0.431543  -0.151817 0.073216 -0.811086
9  1.539113 0.000082 0.000004  -0.000007 0.000021 -0.247842
10  1.196331 0.000148 0.000029  0.000011 0.000018 -0.430770
11  3.883512 -0.047212 0.431351  0.085894 0.021858 -0.587909
12  1.719573 -0.000030 0.000017  0.000015 0.005518 -0.366533
13  1.209181 0.000090 0.000012  0.000004 0.003091 -0.216438
14  3.859679 -0.138420 1.332380  0.354466 -0.042717 -0.531784
15  1.719446 -0.000022 0.000029  0.000028 0.004066 -0.363025
16  1.099675 0.000049 0.000005  0.000003 0.002578 -0.244381
17  0.806011 -0.349039 1.321247  -1.222694 -0.679188 -0.788867
18  1.789819 -0.000005 -0.000017  0.000011 -0.000024 0.228523
19  1.207014 -0.000014 -0.000043  0.000002 -0.000008 0.362856
20  5.740638 0.000388 -0.000698  0.003035 0.000003 0.000063
21  11.481259 0.000207 -0.000799  0.004953 0.000188 -0.001556
22  6.027525 -0.000330 0.000200  0.059595 -2.453119 -2.193920
23  0.000000 11.692101 -0.000007  -0.043320 -0.000838 -0.036616
24  0.000003 0.000010 0.000000  0.868996 -0.000031 1.570739
25  -0.000001 -0.000012 -0.000001  0.868960 0.000002 1.570712
26  2.033355 1.000772 -1.937609  1.473120 1.855075 -0.198639
27  6.027509 -0.000259 -0.000228  1.639678 -0.005914 -0.586605
28  11.691991 0.000163 0.000859  -0.000047 -0.000002 -0.056019
29  11.481180 0.000159 0.000812  -1.565090 0.106510 0.041985
30  3.859439 -0.132758 1.193065  0.466290 -0.158048 -0.878823
31  1.312561 0.000024 -0.000000  0.000013 -0.000043 -0.439709
32  0.729345 0.000064 -0.000028  -0.000023 -0.000019 -0.244286
33  3.942048 0.050138 0.431000  0.150091 -0.079181 -0.810189
34  1.539098 0.000005 0.000000  0.000009 -0.000007 -0.247824
35  1.196302 0.000078 -0.000004  -0.000007 -0.000009 -0.430781
36  3.883415 -0.050474 -0.431084  -0.085915 -0.026392 -0.587660
37  1.719563 -0.000083 -0.000004  -0.000006 -0.007962 -0.366486
38  1.209197 0.000034 0.000011  0.000002 -0.004461 -0.216413
39  3.859589 -0.149084 -1.331321  -0.354445 0.038578 -0.531955
40  1.719413 -0.000097 -0.000038  -0.000030 -0.006584 -0.363030
41  1.099675 0.000021 0.000007  0.000004 -0.004188 -0.244347
42  0.805983 -0.359850 -1.318338  1.221444 0.673631 -0.793558
43  1.789779 -0.000010 -0.000040  -0.000028 0.000031 0.228553
44  1.206993 -0.000007 0.000005  -0.000017 0.000020 0.362910
45  5.740573 0.000079 0.000720  0.002190 -0.000014 0.000028
46  11.481181 0.000106 0.000906  -0.000016 -0.000090 -0.001837
47  6.027515 -0.000273 -0.000228  0.007346 -0.632954 -2.161819
48  -0.000001 11.691978 -0.000007  -0.042770 0.000797 0.036154
49  0.000002 0.000000 0.000000  2.272571 -0.000036 1.570860
50  -0.000008 -0.000013 0.000005  2.272645 -0.000036 1.570861
51  -22.676567 -0.984331 -17.554111  -1.605366 2.379717 -0.041994
52  0.000001 0.000002 -0.000000  0.008153 -0.000259 0.000009
53  -0.000000 -0.000001 0.000000  1.565115 0.043565 -0.106862
54  22.676517 -0.984221 -17.554199  1.605712 0.761853 0.042358
55  0.000001 -0.000003 -0.000000  0.000000 -0.000001 -0.000002
56  0.000032 0.000027 0.000001  -1.571901 -0.044449 -0.106509
57  15.265023 8.339654 -8.787539  1.570796 -0.000000 0.000000
58  -15.265000 8.339654 -8.787539  1.570796 -0.000000 0.000000
59  1.941978 -1.346989 1.821586  1.570796 -0.000000 0.000000
60  -0.004311 0.001230 -0.000371  0.006898 -0.005534 -0.284229
61  -1.937603 -1.346625 1.822824  1.570796 -0.000000 0.000000
62  0.000000 0.000000 0.000000  -0.078727 -3.136056 0.284226
63  0.000000 0.000000 0.000000  1.570796 -0.000000 0.000000
64  -3.590840 -11.939873 -2.851932  1.570796 -0.000000 0.000000
65  0.048105 -2.944859 0.933263  0.000000 -0.000000 0.000000
66  0.048105 -1.112260 5.803837  0.000000 -0.000000 0.000000
67  -1.140610 -0.098565 1.093603  0.000000 -0.000000 0.000000
68  0.217551 -1.673973 20.274757  0.000000 -0.000000 0.000000
69  0.217546 -3.706013 2.941690  0.000000 -0.000000 0.000000
70  0.048105 -1.885239 -0.022553  0.000000 -0.000000 0.000000
71  -0.082569 -1.959166 -0.004310  0.000000 -0.000000 0.000000
72  0.217546 -3.788155 3.509795  0.000000 -0.000000 0.000000
73  -3.588360 -16.646259 -6.949106  1.570796 -0.000000 0.000000
74  0.017809 1.799356 -0.402361  0.000000 -0.000000 0.000000
75  -3.588360 -16.646259 -6.949106  1.570796 -0.000000 0.000000
76  0.088237 2.028859 -0.387793  0.000000 -0.000000 0.000000
77  0.089166 1.580731 -0.409891  0.000000 -0.000000 0.000000
78  -0.263817 1.788471 -0.409405  0.000000 -0.000000 0.000000
79  -0.263817 1.287951 -0.409405  0.000000 -0.000000 0.000000
80  -3.588360 -24.729397 -6.123081  1.570796 -0.000000 0.000000
81  0.017809 0.973330 -8.485498  0.000000 -0.000000 0.000000
82  -3.588360 -24.729397 -6.123081  1.570796 -0.000000 0.000000
83  0.088237 1.202834 -8.470930  0.000000 -0.000000 0.000000
84  -0.263817 0.962445 -8.492542  0.000000 -0.000000 0.000000
end
triangles
Material
0  -3.954739 -18.538795 -9.119998  -1.000000 0.000001 0.000000  0.958075 0.664796 1 75 1.000000
0  -3.954739 -18.500149 -9.620789  -1.000000 0.000001 0.000000  0.846410 0.464481 1 75 1.000000
0  -3.954739 -18.733814 -9.573878  -1.000000 0.000001 0.000000  0.952277 0.439313 1 75 1.000000
Material
0  -3.143125 -18.365063 -8.665195  1.000000 0.000000 0.000000  0.027124 0.886597 1 75 1.000000
0  -3.143125 -18.305847 -9.170353  1.000000 0.000000 0.000000  0.148153 0.688398 1 75 1.000000
0  -3.143125 -18.156799 -8.772635  1.000000 0.000000 0.000000  0.134015 0.881810 1 75 1.000000
Material
0  -3.143125 -18.129017 -8.698094  0.644841 0.256055 0.720150  0.131303 0.918030 1 75 1.000000
0  -3.095989 -18.142906 -8.735364  0.644841 0.256055 0.720150  0.132660 0.899921 1 75 1.000000
0  -3.095989 -17.988661 -8.790208  0.644841 0.256055 0.720150  0.207105 0.906632 1 75 1.000000
Material
0  -3.143125 -18.156799 -8.772635  0.644893 -0.256048 -0.720106  0.134015 0.881810 1 75 1.000000
0  -3.095989 -17.988661 -8.790208  0.644893 -0.256048 -0.720106  0.207105 0.906632 1 75 1.000000
0  -3.095989 -18.142906 -8.735364  0.644893 -0.256048 -0.720106  0.132660 0.899921 1 75 1.000000
Material
0  -3.143125 -18.156799 -8.772635  0.642213 -0.351433 -0.681217  0.134015 0.881810 1 75 1.000000
0  -3.095989 -18.142906 -8.735364  0.642213 -0.351433 -0.681217  0.132660 0.899921 1 75 1.000000
0  -3.143125 -18.365063 -8.665195  0.642213 -0.351433 -0.681217  0.027124 0.886597 1 75 1.000000
Material
0  -3.143125 -18.365063 -8.665195  0.635819 0.106550 0.764449  0.027124 0.886597 1 75 1.000000
0  -3.095989 -18.142906 -8.735364  0.635819 0.106550 0.764449  0.132660 0.899921 1 75 1.000000
0  -3.143125 -18.129017 -8.698094  0.635819 0.106550 0.764449  0.131303 0.918030 1 75 1.000000
Material
0  -3.954739 -18.156799 -8.772635  -0.644887 -0.256049 -0.720111  0.865985 0.881810 1 75 1.000000
0  -4.001875 -18.142906 -8.735364  -0.644887 -0.256049 -0.720111  0.867340 0.899921 1 75 1.000000
0  -4.001875 -17.988661 -8.790208  -0.644887 -0.256049 -0.720111  0.792895 0.906632 1 75 1.000000
Material
0  -4.001875 -17.988661 -8.790208  -0.644841 0.256051 0.720151  0.792895 0.906632 1 75 1.000000
0  -4.001875 -18.142906 -8.735364  -0.644841 0.256051 0.720151  0.867340 0.899921 1 75 1.000000
0  -3.954739 -18.129017 -8.698094  -0.644841 0.256051 0.720151  0.868697 0.918030 1 75 1.000000
Material
0  -3.954739 -18.365063 -8.665195  -0.635819 0.106550 0.764449  0.972876 0.886597 1 75 1.000000
0  -3.954739 -18.129017 -8.698094  -0.635819 0.106550 0.764449  0.868697 0.918030 1 75 1.000000
0  -4.001875 -18.142906 -8.735364  -0.635819 0.106550 0.764449  0.867340 0.899921 1 75 1.000000
Material
0  -3.954739 -18.156799 -8.772635  -0.642213 -0.351433 -0.681217  0.865985 0.881810 1 75 1.000000
0  -3.954739 -18.365063 -8.665195  -0.642213 -0.351433 -0.681217  0.972876 0.886597 1 75 1.000000
0  -4.001875 -18.142906 -8.735364  -0.642213 -0.351433 -0.681217  0.867340 0.899921 1 75 1.000000
Material
0  -3.954739 -18.538795 -9.119998  -0.635822 0.163076 0.754412  0.958075 0.664796 1 75 1.000000
0  -3.954739 -18.305847 -9.170353  -0.635822 0.163076 0.754412  0.851847 0.688398 1 75 1.000000
0  -4.001875 -18.322472 -9.206488  -0.635822 0.163076 0.754412  0.851841 0.670237 1 75 1.000000
Material
0  -3.143125 -18.500149 -9.620789  0.644868 0.298512 0.703588  0.153590 0.464481 1 75 1.000000
0  -3.095988 -18.516237 -9.657165  0.644868 0.298512 0.703588  0.153865 0.446322 1 75 1.000000
0  -3.095989 -18.365534 -9.721104  0.644868 0.298512 0.703588  0.228577 0.448584 1 75 1.000000
Material
0  -3.143125 -18.532326 -9.693541  0.644868 -0.298512 -0.703588  0.154139 0.428164 1 75 1.000000
0  -3.095989 -18.365534 -9.721104  0.644868 -0.298512 -0.703588  0.228577 0.448584 1 75 1.000000
0  -3.095988 -18.516237 -9.657165  0.644868 -0.298512 -0.703588  0.153865 0.446322 1 75 1.000000
Material
0  -3.954739 -18.339094 -9.242621  -0.642205 -0.401101 -0.653216  0.851834 0.652077 1 75 1.000000
0  -3.954739 -18.538795 -9.119998  -0.642205 -0.401101 -0.653216  0.958075 0.664796 1 75 1.000000
0  -4.001875 -18.322472 -9.206488  -0.642205 -0.401101 -0.653216  0.851841 0.670237 1 75 1.000000
Material
0  -3.954739 -18.532326 -9.693541  -0.644869 -0.298513 -0.703587  0.845861 0.428164 1 75 1.000000
0  -4.001875 -18.516237 -9.657165  -0.644869 -0.298513 -0.703587  0.846135 0.446322 1 75 1.000000
0  -4.001875 -18.365534 -9.721104  -0.644869 -0.298513 -0.703587  0.771423 0.448584 1 75 1.000000
Material
0  -3.143125 -18.733814 -9.573878  0.635835 0.151921 0.756726  0.047723 0.439313 1 75 1.000000
0  -3.095988 -18.516237 -9.657165  0.635835 0.151921 0.756726  0.153865 0.446322 1 75 1.000000
0  -3.143125 -18.500149 -9.620789  0.635835 0.151921 0.756726  0.153590 0.464481 1 75 1.000000
Material
0  -3.143125 -18.532326 -9.693541  0.642199 -0.391410 -0.659074  0.154139 0.428164 1 75 1.000000
0  -3.095988 -18.516237 -9.657165  0.642199 -0.391410 -0.659074  0.153865 0.446322 1 75 1.000000
0  -3.143125 -18.733814 -9.573878  0.642199 -0.391410 -0.659074  0.047723 0.439313 1 75 1.000000
Material
0  -4.001875 -18.365534 -9.721104  -0.644863 0.298517 0.703590  0.771423 0.448584 1 75 1.000000
0  -4.001875 -18.516237 -9.657165  -0.644863 0.298517 0.703590  0.846135 0.446322 1 75 1.000000
0  -3.954739 -18.500149 -9.620789  -0.644863 0.298517 0.703590  0.846410 0.464481 1 75 1.000000
Material
0  -3.143125 -18.305847 -9.170353  0.644884 0.308845 0.699099  0.148153 0.688398 1 75 1.000000
0  -3.095989 -18.322472 -9.206488  0.644884 0.308845 0.699099  0.148159 0.670237 1 75 1.000000
0  -3.095989 -18.170238 -9.273741  0.644884 0.308845 0.699099  0.224139 0.671417 1 75 1.000000
Material
0  -3.143125 -18.339094 -9.242621  0.644833 -0.308854 -0.699142  0.148166 0.652077 1 75 1.000000
0  -3.095989 -18.170238 -9.273741  0.644833 -0.308854 -0.699142  0.224139 0.671417 1 75 1.000000
0  -3.095989 -18.322472 -9.206488  0.644833 -0.308854 -0.699142  0.148159 0.670237 1 75 1.000000
Material
0  -3.954739 -18.339094 -9.242621  -0.644832 -0.308856 -0.699141  0.851834 0.652077 1 75 1.000000
0  -4.001875 -18.322472 -9.206488  -0.644832 -0.308856 -0.699141  0.851841 0.670237 1 75 1.000000
0  -4.001875 -18.170238 -9.273741  -0.644832 -0.308856 -0.699141  0.775861 0.671417 1 75 1.000000
Material
0  -3.143125 -18.538795 -9.119998  0.635826 0.163078 0.754408  0.041925 0.664796 1 75 1.000000
0  -3.095989 -18.322472 -9.206488  0.635826 0.163078 0.754408  0.148159 0.670237 1 75 1.000000
0  -3.143125 -18.305847 -9.170353  0.635826 0.163078 0.754408  0.148153 0.688398 1 75 1.000000
Material
0  -3.143125 -18.339094 -9.242621  0.642209 -0.401103 -0.653211  0.148166 0.652077 1 75 1.000000
0  -3.095989 -18.322472 -9.206488  0.642209 -0.401103 -0.653211  0.148159 0.670237 1 75 1.000000
0  -3.143125 -18.538795 -9.119998  0.642209 -0.401103 -0.653211  0.041925 0.664796 1 75 1.000000
Material
0  -4.001875 -18.170238 -9.273741  -0.644879 0.308849 0.699102  0.775861 0.671417 1 75 1.000000
0  -4.001875 -18.322472 -9.206488  -0.644879 0.308849 0.699102  0.851841 0.670237 1 75 1.000000
0  -3.954739 -18.305847 -9.170353  -0.644879 0.308849 0.699102  0.851847 0.688398 1 75 1.000000
Material
0  -3.095989 -18.170238 -9.273741  0.961697 -0.251673 0.108629  0.224139 0.671417 1 75 1.000000
0  -3.143125 -18.500149 -9.620789  0.961697 -0.251673 0.108629  0.153590 0.464481 1 75 1.000000
0  -3.095989 -18.365534 -9.721104  0.961697 -0.251673 0.108629  0.228577 0.448584 1 75 1.000000
Material
0  -3.954739 -18.733814 -9.573878  -0.635835 0.151920 0.756726  0.952277 0.439313 1 75 1.000000
0  -3.954739 -18.500149 -9.620789  -0.635835 0.151920 0.756726  0.846410 0.464481 1 75 1.000000
0  -4.001875 -18.516237 -9.657165  -0.635835 0.151920 0.756726  0.846135 0.446322 1 75 1.000000
Material
0  -3.954739 -18.532326 -9.693541  -0.642199 -0.391410 -0.659074  0.845861 0.428164 1 75 1.000000
0  -3.954739 -18.733814 -9.573878  -0.642199 -0.391410 -0.659074  0.952277 0.439313 1 75 1.000000
0  -4.001875 -18.516237 -9.657165  -0.642199 -0.391410 -0.659074  0.846135 0.446322 1 75 1.000000
Material
0  -3.143125 -18.538795 -9.119998  1.000000 0.000003 0.000000  0.041925 0.664796 1 75 1.000000
0  -3.143125 -18.500149 -9.620789  1.000000 0.000003 0.000000  0.153590 0.464481 1 75 1.000000
0  -3.143125 -18.339094 -9.242621  1.000000 0.000003 0.000000  0.148166 0.652077 1 75 1.000000
Material
0  -4.001875 -18.170238 -9.273741  -0.961680 -0.251718 0.108673  0.775861 0.671417 1 75 1.000000
0  -3.954739 -18.500149 -9.620789  -0.961680 -0.251718 0.108674  0.846410 0.464481 1 75 1.000000
0  -3.954739 -18.339094 -9.242621  -0.961680 -0.251718 0.108673  0.851834 0.652077 1 75 1.000000
Material
0  -3.143125 -18.773039 -10.160814  0.961743 -0.232712 0.144555  0.143544 0.188400 1 75 1.000000
0  -3.095988 -18.840658 -10.583276  0.961755 -0.232666 0.144549  0.196177 0.000276 1 75 1.000000
0  -3.095988 -18.610653 -10.216594  0.961743 -0.232712 0.144555  0.221542 0.196277 1 75 1.000000
Material
0  -4.001875 -17.988661 -8.790208  -0.960917 -0.259231 0.097150  0.792895 0.906632 1 75 1.000000
0  -3.954739 -18.305847 -9.170353  -0.960917 -0.259231 0.097150  0.851847 0.688398 1 75 1.000000
0  -3.954739 -18.156799 -8.772635  -0.960917 -0.259231 0.097150  0.865985 0.881810 1 75 1.000000
Material
0  -3.954739 -18.365063 -8.665195  -1.000000 0.000001 0.000000  0.972876 0.886597 1 75 1.000000
0  -3.954739 -18.305847 -9.170353  -1.000000 0.000001 0.000000  0.851847 0.688398 1 75 1.000000
0  -3.954739 -18.538795 -9.119998  -1.000000 0.000001 0.000000  0.958075 0.664796 1 75 1.000000
Material
0  -3.143125 -18.729458 -10.094265  0.644860 0.408976 0.645673  0.148909 0.224322 1 75 1.000000
0  -3.095988 -18.751247 -10.127541  0.644860 0.408976 0.645673  0.146227 0.206361 1 75 1.000000
0  -3.095988 -18.610653 -10.216594  0.644860 0.408976 0.645673  0.221542 0.196277 1 75 1.000000
Material
0  -3.143125 -18.773039 -10.160814  0.644833 -0.408988 -0.645693  0.143544 0.188400 1 75 1.000000
0  -3.095988 -18.610653 -10.216594  0.644833 -0.408988 -0.645693  0.221542 0.196277 1 75 1.000000
0  -3.095988 -18.751247 -10.127541  0.644833 -0.408988 -0.645693  0.146227 0.206361 1 75 1.000000
Material
0  -3.143125 -18.773039 -10.160814  0.642185 -0.493406 -0.586642  0.143544 0.188400 1 75 1.000000
0  -3.095988 -18.751247 -10.127541  0.642185 -0.493406 -0.586642  0.146227 0.206361 1 75 1.000000
0  -3.143125 -18.952381 -10.009974  0.642185 -0.493406 -0.586642  0.040358 0.216709 1 75 1.000000
Material
0  -3.143125 -18.952381 -10.009974  0.635846 0.272977 0.721930  0.040358 0.216709 1 75 1.000000
0  -3.095988 -18.751247 -10.127541  0.635846 0.272977 0.721930  0.146227 0.206361 1 75 1.000000
0  -3.143125 -18.729458 -10.094265  0.635846 0.272977 0.721930  0.148909 0.224322 1 75 1.000000
Material
0  -3.954739 -18.773039 -10.160814  -0.644835 -0.408983 -0.645694  0.856456 0.188400 1 75 1.000000
0  -4.001875 -18.751247 -10.127541  -0.644835 -0.408983 -0.645694  0.853773 0.206361 1 75 1.000000
0  -4.001875 -18.610653 -10.216594  -0.644835 -0.408983 -0.645694  0.778458 0.196277 1 75 1.000000
Material
0  -4.001875 -18.610653 -10.216594  -0.644857 0.408977 0.645676  0.778458 0.196277 1 75 1.000000
0  -4.001875 -18.751247 -10.127541  -0.644857 0.408977 0.645676  0.853773 0.206361 1 75 1.000000
0  -3.954739 -18.729458 -10.094265  -0.644857 0.408977 0.645676  0.851091 0.224322 1 75 1.000000
Material
0  -3.954739 -18.952381 -10.009974  -0.635846 0.272977 0.721930  0.959642 0.216709 1 75 1.000000
0  -3.954739 -18.729458 -10.094265  -0.635846 0.272977 0.721930  0.851091 0.224322 1 75 1.000000
0  -4.001875 -18.751247 -10.127541  -0.635846 0.272977 0.721930  0.853773 0.206361 1 75 1.000000
Material
0  -3.954739 -18.773039 -10.160814  -0.642186 -0.493403 -0.586644  0.856456 0.188400 1 75 1.000000
0  -3.954739 -18.952381 -10.009974  -0.642186 -0.493403 -0.586644  0.959642 0.216709 1 75 1.000000
0  -4.001875 -18.751247 -10.127541  -0.642186 -0.493403 -0.586644  0.853773 0.206361 1 75 1.000000
Material
0  -3.095989 -17.988661 -8.790208  0.960776 -0.259622 0.097494  0.207105 0.906632 1 75 1.000000
0  -3.143125 -18.305847 -9.170353  0.960776 -0.259622 0.097494  0.148153 0.688398 1 75 1.000000
0  -3.095989 -18.170238 -9.273741  0.960776 -0.259622 0.097494  0.224139 0.671417 1 75 1.000000
Material
0  -4.001875 -17.909662 -8.831319  -1.000000 -0.000003 0.000000  0.752281 0.904668 1 75 1.000000
0  -4.001875 -18.262012 -9.752222  -1.000000 -0.000003 0.000000  0.722546 0.455448 1 75 1.000000
0  -4.001875 -18.170238 -9.273741  -1.000000 -0.000003 0.000000  0.775861 0.671417 1 75 1.000000
Material
0  -4.001875 -18.365534 -9.721104  -1.000000 0.000000 0.000000  0.771423 0.448584 1 75 1.000000
0  -4.001875 -18.262012 -9.752222  -1.000000 0.000000 0.000000  0.722546 0.455448 1 75 1.000000
0  -4.001875 -18.610653 -10.216594  -1.000000 0.000000 0.000000  0.778458 0.196277 1 75 1.000000
Material
0  -3.143125 -19.203838 -10.416054  1.000000 0.000001 0.000000  0.013619 0.000272 1 75 1.000000
0  -3.143125 -18.773039 -10.160814  1.000000 0.000001 0.000000  0.143544 0.188400 1 75 1.000000
0  -3.143125 -18.952381 -10.009974  1.000000 0.000001 0.000000  0.040358 0.216709 1 75 1.000000
Material
0  -4.001875 -18.840658 -10.583274  -0.961730 -0.232758 0.144562  0.803823 0.000277 1 75 1.000000
0  -3.954739 -18.773039 -10.160814  -0.961730 -0.232758 0.144562  0.856456 0.188400 1 75 1.000000
0  -4.001875 -18.610653 -10.216594  -0.961731 -0.232758 0.144561  0.778458 0.196277 1 75 1.000000
Material
0  -4.001875 -18.262012 -9.752222  -0.999849 -0.015858 0.007124  0.722546 0.455448 1 75 1.000000
0  -4.029547 -16.389875 -9.468470  -0.999849 -0.015858 0.007124  0.000296 0.930655 1 75 1.000000
0  -4.029952 -17.098413 -11.007306  -0.999849 -0.015858 0.007124  0.000276 0.157135 1 75 1.000000
Material
0  -4.001875 -18.747215 -10.626302  -1.000000 -0.000003 0.000000  0.756851 0.000277 1 75 1.000000
0  -4.001875 -18.610653 -10.216594  -1.000000 -0.000003 0.000000  0.778458 0.196277 1 75 1.000000
0  -4.001875 -18.262012 -9.752222  -1.000000 -0.000003 0.000000  0.722546 0.455448 1 75 1.000000
Material
0  -3.954739 -18.733814 -9.573878  -1.000000 -0.000001 0.000000  0.952277 0.439313 1 75 1.000000
0  -3.954739 -18.729458 -10.094265  -1.000000 -0.000001 0.000000  0.851091 0.224322 1 75 1.000000
0  -3.954739 -18.952381 -10.009974  -1.000000 -0.000001 0.000000  0.959642 0.216709 1 75 1.000000
Material
0  -4.001875 -18.365534 -9.721104  -0.959823 -0.251639 0.124171  0.771423 0.448584 1 75 1.000000
0  -3.954739 -18.729458 -10.094265  -0.959823 -0.251639 0.124171  0.851091 0.224322 1 75 1.000000
0  -3.954739 -18.532326 -9.693541  -0.959823 -0.251639 0.124171  0.845861 0.428164 1 75 1.000000
Material
0  -4.001875 -18.262012 -9.752222  -1.000000 0.000005 0.000000  0.722546 0.455448 1 75 1.000000
0  -4.001875 -18.365534 -9.721104  -1.000000 0.000005 0.000000  0.771423 0.448584 1 75 1.000000
0  -4.001875 -18.170238 -9.273741  -1.000000 0.000005 0.000000  0.775861 0.671417 1 75 1.000000
Material
0  -4.001875 -17.988661 -8.790208  -1.000000 0.000000 0.000000  0.792895 0.906632 1 75 1.000000
0  -4.001875 -17.871803 -8.619591  -1.000000 0.000000 0.000000  0.777014 0.999709 1 75 1.000000
0  -4.001875 -17.909662 -8.831319  -1.000000 0.000000 0.000000  0.752281 0.904668 1 75 1.000000
Material
0  -3.095989 -18.262012 -9.752222  1.000000 -0.000003 0.000000  0.277454 0.455448 1 75 1.000000
0  -3.095989 -17.909662 -8.831319  1.000000 -0.000003 0.000000  0.247719 0.904668 1 75 1.000000
0  -3.095989 -18.170238 -9.273741  1.000000 -0.000003 0.000000  0.224139 0.671417 1 75 1.000000
Material
0  -3.095989 -17.909662 -8.831319  1.000000 -0.000002 0.000000  0.247719 0.904668 1 75 1.000000
0  -3.095989 -17.844975 -8.631943  1.000000 -0.000002 0.000000  0.236472 0.999709 1 75 1.000000
0  -3.095989 -17.871803 -8.619591  1.000000 -0.000002 0.000000  0.222986 0.999709 1 75 1.000000
Material
0  -3.095988 -18.610653 -10.216594  1.000000 0.000003 0.000000  0.221542 0.196277 1 75 1.000000
0  -3.095988 -18.840658 -10.583276  1.000000 0.000003 0.000000  0.196177 0.000276 1 75 1.000000
0  -3.095988 -18.756891 -10.621845  1.000000 0.000003 0.000000  0.238284 0.000278 1 75 1.000000
Material
0  -3.095989 -18.365534 -9.721104  1.000000 0.000000 0.000000  0.228577 0.448584 1 75 1.000000
0  -3.095988 -18.610653 -10.216594  1.000000 0.000000 0.000000  0.221542 0.196277 1 75 1.000000
0  -3.095989 -18.262012 -9.752222  1.000000 0.000000 0.000000  0.277454 0.455448 1 75 1.000000
Material
0  -3.095989 -17.871803 -8.619591  1.000000 0.000000 0.000000  0.222986 0.999709 1 75 1.000000
0  -3.095989 -17.988661 -8.790208  1.000000 0.000000 0.000000  0.207105 0.906632 1 75 1.000000
0  -3.095989 -17.909662 -8.831319  1.000000 0.000000 0.000000  0.247719 0.904668 1 75 1.000000
Material
0  -3.095989 -18.170238 -9.273741  1.000000 0.000001 0.000000  0.224139 0.671417 1 75 1.000000
0  -3.095989 -18.365534 -9.721104  1.000000 0.000001 0.000000  0.228577 0.448584 1 75 1.000000
0  -3.095989 -18.262012 -9.752222  1.000000 0.000001 0.000000  0.277454 0.455448 1 75 1.000000
Material
0  -3.095989 -17.988661 -8.790208  0.960917 -0.259231 0.097148  0.207105 0.906632 1 75 1.000000
0  -3.143125 -18.156799 -8.772635  0.960917 -0.259231 0.097148  0.134015 0.881810 1 75 1.000000
0  -3.143125 -18.305847 -9.170353  0.960917 -0.259231 0.097148  0.148153 0.688398 1 75 1.000000
Material
0  -3.090801 -18.473503 -10.752328  0.999851 -0.015087 0.008378  0.380733 0.000281 1 75 1.000000
0  -3.067847 -17.119432 -11.052958  0.999851 -0.015087 0.008378  0.999725 0.134189 1 75 1.000000
0  -3.067913 -17.098413 -11.007306  0.999851 -0.015087 0.008378  0.999724 0.157135 1 75 1.000000
Material
0  -4.001875 -18.170238 -9.273741  -0.960775 -0.259627 0.097494  0.775861 0.671417 1 75 1.000000
0  -3.954739 -18.305847 -9.170353  -0.960775 -0.259627 0.097494  0.851847 0.688398 1 75 1.000000
0  -4.001875 -17.988661 -8.790208  -0.960775 -0.259627 0.097494  0.792895 0.906632 1 75 1.000000
Material
0  -3.095989 -18.365534 -9.721104  0.959829 -0.251622 0.124153  0.228577 0.448584 1 75 1.000000
0  -3.143125 -18.729458 -10.094265  0.959817 -0.251655 0.124184  0.148909 0.224322 1 75 1.000000
0  -3.095988 -18.610653 -10.216594  0.959817 -0.251654 0.124186  0.221542 0.196277 1 75 1.000000
Material
0  -3.954739 -18.773039 -10.160814  -1.000000 -0.000002 0.000000  0.856456 0.188400 1 75 1.000000
0  -3.954739 -19.203838 -10.416054  -1.000000 -0.000002 0.000000  0.986381 0.000272 1 75 1.000000
0  -3.954739 -18.952381 -10.009974  -1.000000 -0.000002 0.000000  0.959642 0.216709 1 75 1.000000
Material
0  -3.143125 -18.733814 -9.573878  1.000000 0.000000 0.000000  0.047723 0.439313 1 75 1.000000
0  -3.143125 -18.729458 -10.094265  1.000000 0.000000 0.000000  0.148909 0.224322 1 75 1.000000
0  -3.143125 -18.532326 -9.693541  1.000000 0.000000 0.000000  0.154139 0.428164 1 75 1.000000
Material
0  -3.143125 -19.203838 -10.416054  0.976558 -0.195670 0.089711  0.013619 0.000272 1 75 1.000000
0  -3.143125 -18.952381 -10.009974  0.976556 -0.195696 0.089676  0.040358 0.216709 1 75 1.000000
0  -3.164812 -19.223042 -10.387980  0.976556 -0.195695 0.089675  0.000295 0.008248 1 75 1.000000
Material
0  -3.954739 -18.314871 -8.415585  -0.990425 -0.126127 0.056127  0.999728 0.999704 1 75 1.000000
0  -3.954739 -18.280701 -8.431317  -0.990425 -0.126132 0.056116  0.982552 0.999705 1 75 1.000000
0  -3.954739 -18.365063 -8.665195  -0.990425 -0.126130 0.056119  0.972876 0.886597 1 75 1.000000
Material
0  -3.095989 -17.909662 -8.831319  1.000000 0.000000 0.000000  0.247719 0.904668 1 75 1.000000
0  -3.095989 -17.988661 -8.790208  1.000000 0.000000 0.000000  0.207105 0.906632 1 75 1.000000
0  -3.095989 -18.170238 -9.273741  1.000000 0.000000 0.000000  0.224139 0.671417 1 75 1.000000
Material
0  -4.001875 -17.909662 -8.831319  -1.000000 0.000000 0.000000  0.752281 0.904668 1 75 1.000000
0  -4.001875 -18.170238 -9.273741  -1.000000 0.000000 0.000000  0.775861 0.671417 1 75 1.000000
0  -4.001875 -17.988661 -8.790208  -1.000000 0.000000 0.000000  0.792895 0.906632 1 75 1.000000
Material
0  -3.164812 -19.223042 -10.387980  0.825053 -0.474740 0.306445  0.000295 0.008248 1 75 1.000000
0  -3.163121 -19.230345 -10.403849  0.825053 -0.474740 0.306445  0.000295 0.000272 1 75 1.000000
0  -3.153576 -19.217558 -10.409737  0.825053 -0.474740 0.306445  0.006724 0.000272 1 75 1.000000
Material
0  -3.944288 -19.217558 -10.409737  -0.825024 -0.474749 0.306510  0.993276 0.000272 1 75 1.000000
0  -3.934742 -19.230345 -10.403849  -0.825024 -0.474749 0.306510  0.999704 0.000272 1 75 1.000000
0  -3.933051 -19.223042 -10.387980  -0.825024 -0.474749 0.306510  0.999706 0.008248 1 75 1.000000
Material
0  -4.030016 -17.119432 -11.052958  -0.999862 -0.015785 0.005250  0.000275 0.134189 1 75 1.000000
0  -4.029479 -17.242077 -11.319323  -0.999862 -0.015785 0.005250  0.000272 0.000296 1 75 1.000000
0  -4.007062 -18.473503 -10.752328  -0.999862 -0.015785 0.005250  0.619267 0.000281 1 75 1.000000
Material
0  -3.954739 -18.280701 -8.431317  -1.000000 0.000001 0.000000  0.982552 0.999705 1 75 1.000000
0  -3.954739 -18.129017 -8.698094  -1.000000 0.000001 0.000000  0.868697 0.918030 1 75 1.000000
0  -3.954739 -18.365063 -8.665195  -1.000000 0.000001 0.000000  0.972876 0.886597 1 75 1.000000
Material
0  -4.001875 -17.918159 -8.598246  -0.961195 -0.259372 0.093975  0.800316 0.999708 1 75 1.000000
0  -3.954739 -18.129017 -8.698094  -0.961195 -0.259372 0.093975  0.868697 0.918030 1 75 1.000000
0  -3.954739 -18.068623 -8.528967  -0.961204 -0.259353 0.093932  0.875948 0.999707 1 75 1.000000
Material
0  -3.143125 -18.280701 -8.431318  1.000000 0.000000 0.000000  0.017448 0.999704 1 75 1.000000
0  -3.143125 -18.129017 -8.698094  1.000000 0.000000 0.000000  0.131303 0.918030 1 75 1.000000
0  -3.143125 -18.068623 -8.528967  1.000000 0.000000 0.000000  0.124052 0.999707 1 75 1.000000
Material
0  -4.001875 -17.871803 -8.619591  -1.000000 0.000000 0.000000  0.777014 0.999709 1 75 1.000000
0  -4.001875 -17.844975 -8.631943  -1.000000 0.000000 0.000000  0.763528 0.999709 1 75 1.000000
0  -4.001875 -17.909662 -8.831319  -1.000000 0.000000 0.000000  0.752281 0.904668 1 75 1.000000
Material
0  -4.001875 -18.756891 -10.621845  -1.000000 0.000006 0.000000  0.761716 0.000278 1 75 1.000000
0  -4.001875 -18.840658 -10.583274  -1.000000 0.000006 0.000000  0.803823 0.000277 1 75 1.000000
0  -4.001875 -18.610653 -10.216594  -1.000000 0.000006 0.000000  0.778458 0.196277 1 75 1.000000
Material
0  -3.090801 -18.473503 -10.752328  0.999863 -0.016028 0.004153  0.380733 0.000281 1 75 1.000000
0  -3.068707 -17.242077 -11.319323  0.999863 -0.016028 0.004153  0.999728 0.000296 1 75 1.000000
0  -3.067847 -17.119432 -11.052958  0.999863 -0.016028 0.004153  0.999725 0.134189 1 75 1.000000
Material
0  -3.095988 -18.747215 -10.626302  1.000000 0.000000 0.000000  0.243149 0.000277 1 75 1.000000
0  -3.095988 -18.610653 -10.216594  1.000000 0.000000 0.000000  0.221542 0.196277 1 75 1.000000
0  -3.095988 -18.756891 -10.621845  1.000000 0.000000 0.000000  0.238284 0.000278 1 75 1.000000
Material
0  -4.029883 -16.326603 -9.331058  -0.999858 -0.016046 0.005206  0.000296 0.999728 1 75 1.000000
0  -4.001875 -17.909662 -8.831319  -0.999858 -0.016046 0.005206  0.752281 0.904668 1 75 1.000000
0  -4.001875 -17.844975 -8.631943  -0.999858 -0.016046 0.005206  0.763528 0.999709 1 75 1.000000
Material
0  -4.007062 -18.473503 -10.752328  -0.999851 -0.015091 0.008376  0.619267 0.000281 1 75 1.000000
0  -4.001875 -18.747215 -10.626302  -0.999851 -0.015091 0.008376  0.756851 0.000277 1 75 1.000000
0  -4.001875 -18.262012 -9.752222  -0.999851 -0.015091 0.008376  0.722546 0.455448 1 75 1.000000
Material
0  -3.067981 -16.326603 -9.331058  0.999858 -0.016118 0.004979  0.999704 0.999728 1 75 1.000000
0  -3.095989 -17.909662 -8.831319  0.999858 -0.016118 0.004979  0.247719 0.904668 1 75 1.000000
0  -3.068317 -16.389875 -9.468470  0.999858 -0.016118 0.004979  0.999704 0.930655 1 75 1.000000
Material
0  -3.068317 -16.389875 -9.468470  0.999850 -0.015844 0.007029  0.999704 0.930655 1 75 1.000000
0  -3.095989 -18.262012 -9.752222  0.999850 -0.015844 0.007029  0.277454 0.455448 1 75 1.000000
0  -3.067913 -17.098413 -11.007306  0.999850 -0.015844 0.007029  0.999724 0.157135 1 75 1.000000
Material
0  -3.095989 -17.918159 -8.598246  0.961185 -0.259390 0.094022  0.199684 0.999708 1 75 1.000000
0  -3.143125 -18.129017 -8.698094  0.961185 -0.259390 0.094022  0.131303 0.918030 1 75 1.000000
0  -3.095989 -17.988661 -8.790208  0.961185 -0.259390 0.094022  0.207105 0.906632 1 75 1.000000
Material
0  -3.954739 -18.538795 -9.119998  -1.000000 0.000001 0.000000  0.958075 0.664796 1 73 1.000000
0  -3.954739 -18.500149 -9.620789  -1.000000 0.000001 0.000000  0.846410 0.464481 1 73 1.000000
0  -3.954739 -18.733814 -9.573878  -1.000000 0.000001 0.000000  0.952277 0.439313 1 73 1.000000
Material
0  -3.143125 -18.365063 -8.665195  1.000000 0.000000 0.000000  0.027124 0.886597 1 73 1.000000
0  -3.143125 -18.305847 -9.170353  1.000000 0.000000 0.000000  0.148153 0.688398 1 73 1.000000
0  -3.143125 -18.156799 -8.772635  1.000000 0.000000 0.000000  0.134015 0.881810 1 73 1.000000
Material
0  -3.143125 -18.129017 -8.698094  0.644841 0.256055 0.720150  0.131303 0.918030 1 73 1.000000
0  -3.095989 -18.142906 -8.735364  0.644841 0.256055 0.720150  0.132660 0.899921 1 73 1.000000
0  -3.095989 -17.988661 -8.790208  0.644841 0.256055 0.720150  0.207105 0.906632 1 73 1.000000
Material
0  -3.143125 -18.156799 -8.772635  0.644893 -0.256048 -0.720106  0.134015 0.881810 1 73 1.000000
0  -3.095989 -17.988661 -8.790208  0.644893 -0.256048 -0.720106  0.207105 0.906632 1 73 1.000000
0  -3.095989 -18.142906 -8.735364  0.644893 -0.256048 -0.720106  0.132660 0.899921 1 73 1.000000
Material
0  -3.143125 -18.156799 -8.772635  0.642213 -0.351433 -0.681217  0.134015 0.881810 1 73 1.000000
0  -3.095989 -18.142906 -8.735364  0.642213 -0.351433 -0.681217  0.132660 0.899921 1 73 1.000000
0  -3.143125 -18.365063 -8.665195  0.642213 -0.351433 -0.681217  0.027124 0.886597 1 73 1.000000
Material
0  -3.143125 -18.365063 -8.665195  0.635819 0.106550 0.764449  0.027124 0.886597 1 73 1.000000
0  -3.095989 -18.142906 -8.735364  0.635819 0.106550 0.764449  0.132660 0.899921 1 73 1.000000
0  -3.143125 -18.129017 -8.698094  0.635819 0.106550 0.764449  0.131303 0.918030 1 73 1.000000
Material
0  -3.954739 -18.156799 -8.772635  -0.644887 -0.256049 -0.720111  0.865985 0.881810 1 73 1.000000
0  -4.001875 -18.142906 -8.735364  -0.644887 -0.256049 -0.720111  0.867340 0.899921 1 73 1.000000
0  -4.001875 -17.988661 -8.790208  -0.644887 -0.256049 -0.720111  0.792895 0.906632 1 73 1.000000
Material
0  -4.001875 -17.988661 -8.790208  -0.644841 0.256051 0.720151  0.792895 0.906632 1 73 1.000000
0  -4.001875 -18.142906 -8.735364  -0.644841 0.256051 0.720151  0.867340 0.899921 1 73 1.000000
0  -3.954739 -18.129017 -8.698094  -0.644841 0.256051 0.720151  0.868697 0.918030 1 73 1.000000
Material
0  -3.954739 -18.365063 -8.665195  -0.635819 0.106550 0.764449  0.972876 0.886597 1 73 1.000000
0  -3.954739 -18.129017 -8.698094  -0.635819 0.106550 0.764449  0.868697 0.918030 1 73 1.000000
0  -4.001875 -18.142906 -8.735364  -0.635819 0.106550 0.764449  0.867340 0.899921 1 73 1.000000
Material
0  -3.954739 -18.156799 -8.772635  -0.642213 -0.351433 -0.681217  0.865985 0.881810 1 73 1.000000
0  -3.954739 -18.365063 -8.665195  -0.642213 -0.351433 -0.681217  0.972876 0.886597 1 73 1.000000
0  -4.001875 -18.142906 -8.735364  -0.642213 -0.351433 -0.681217  0.867340 0.899921 1 73 1.000000
Material
0  -3.954739 -18.538795 -9.119998  -0.635822 0.163076 0.754412  0.958075 0.664796 1 73 1.000000
0  -3.954739 -18.305847 -9.170353  -0.635822 0.163076 0.754412  0.851847 0.688398 1 73 1.000000
0  -4.001875 -18.322472 -9.206488  -0.635822 0.163076 0.754412  0.851841 0.670237 1 73 1.000000
Material
0  -3.143125 -18.500149 -9.620789  0.644868 0.298512 0.703588  0.153590 0.464481 1 73 1.000000
0  -3.095988 -18.516237 -9.657165  0.644868 0.298512 0.703588  0.153865 0.446322 1 73 1.000000
0  -3.095989 -18.365534 -9.721104  0.644868 0.298512 0.703588  0.228577 0.448584 1 73 1.000000
Material
0  -3.143125 -18.532326 -9.693541  0.644868 -0.298512 -0.703588  0.154139 0.428164 1 73 1.000000
0  -3.095989 -18.365534 -9.721104  0.644868 -0.298512 -0.703588  0.228577 0.448584 1 73 1.000000
0  -3.095988 -18.516237 -9.657165  0.644868 -0.298512 -0.703588  0.153865 0.446322 1 73 1.000000
Material
0  -3.954739 -18.339094 -9.242621  -0.642205 -0.401101 -0.653216  0.851834 0.652077 1 73 1.000000
0  -3.954739 -18.538795 -9.119998  -0.642205 -0.401101 -0.653216  0.958075 0.664796 1 73 1.000000
0  -4.001875 -18.322472 -9.206488  -0.642205 -0.401101 -0.653216  0.851841 0.670237 1 73 1.000000
Material
0  -3.954739 -18.532326 -9.693541  -0.644869 -0.298513 -0.703587  0.845861 0.428164 1 73 1.000000
0  -4.001875 -18.516237 -9.657165  -0.644869 -0.298513 -0.703587  0.846135 0.446322 1 73 1.000000
0  -4.001875 -18.365534 -9.721104  -0.644869 -0.298513 -0.703587  0.771423 0.448584 1 73 1.000000
Material
0  -3.143125 -18.733814 -9.573878  0.635835 0.151921 0.756726  0.047723 0.439313 1 73 1.000000
0  -3.095988 -18.516237 -9.657165  0.635835 0.151921 0.756726  0.153865 0.446322 1 73 1.000000
0  -3.143125 -18.500149 -9.620789  0.635835 0.151921 0.756726  0.153590 0.464481 1 73 1.000000
Material
0  -3.143125 -18.532326 -9.693541  0.642199 -0.391410 -0.659074  0.154139 0.428164 1 73 1.000000
0  -3.095988 -18.516237 -9.657165  0.642199 -0.391410 -0.659074  0.153865 0.446322 1 73 1.000000
0  -3.143125 -18.733814 -9.573878  0.642199 -0.391410 -0.659074  0.047723 0.439313 1 73 1.000000
Material
0  -4.001875 -18.365534 -9.721104  -0.644863 0.298517 0.703590  0.771423 0.448584 1 73 1.000000
0  -4.001875 -18.516237 -9.657165  -0.644863 0.298517 0.703590  0.846135 0.446322 1 73 1.000000
0  -3.954739 -18.500149 -9.620789  -0.644863 0.298517 0.703590  0.846410 0.464481 1 73 1.000000
Material
0  -3.143125 -18.305847 -9.170353  0.644884 0.308845 0.699099  0.148153 0.688398 1 73 1.000000
0  -3.095989 -18.322472 -9.206488  0.644884 0.308845 0.699099  0.148159 0.670237 1 73 1.000000
0  -3.095989 -18.170238 -9.273741  0.644884 0.308845 0.699099  0.224139 0.671417 1 73 1.000000
Material
0  -3.143125 -18.339094 -9.242621  0.644833 -0.308854 -0.699142  0.148166 0.652077 1 73 1.000000
0  -3.095989 -18.170238 -9.273741  0.644833 -0.308854 -0.699142  0.224139 0.671417 1 73 1.000000
0  -3.095989 -18.322472 -9.206488  0.644833 -0.308854 -0.699142  0.148159 0.670237 1 73 1.000000
Material
0  -3.954739 -18.339094 -9.242621  -0.644832 -0.308856 -0.699141  0.851834 0.652077 1 73 1.000000
0  -4.001875 -18.322472 -9.206488  -0.644832 -0.308856 -0.699141  0.851841 0.670237 1 73 1.000000
0  -4.001875 -18.170238 -9.273741  -0.644832 -0.308856 -0.699141  0.775861 0.671417 1 73 1.000000
Material
0  -3.143125 -18.538795 -9.119998  0.635826 0.163078 0.754408  0.041925 0.664796 1 73 1.000000
0  -3.095989 -18.322472 -9.206488  0.635826 0.163078 0.754408  0.148159 0.670237 1 73 1.000000
0  -3.143125 -18.305847 -9.170353  0.635826 0.163078 0.754408  0.148153 0.688398 1 73 1.000000
Material
0  -3.143125 -18.339094 -9.242621  0.642209 -0.401103 -0.653211  0.148166 0.652077 1 73 1.000000
0  -3.095989 -18.322472 -9.206488  0.642209 -0.401103 -0.653211  0.148159 0.670237 1 73 1.000000
0  -3.143125 -18.538795 -9.119998  0.642209 -0.401103 -0.653211  0.041925 0.664796 1 73 1.000000
Material
0  -4.001875 -18.170238 -9.273741  -0.644879 0.308849 0.699102  0.775861 0.671417 1 73 1.000000
0  -4.001875 -18.322472 -9.206488  -0.644879 0.308849 0.699102  0.851841 0.670237 1 73 1.000000
0  -3.954739 -18.305847 -9.170353  -0.644879 0.308849 0.699102  0.851847 0.688398 1 73 1.000000
Material
0  -3.095989 -18.170238 -9.273741  0.961697 -0.251673 0.108629  0.224139 0.671417 1 73 1.000000
0  -3.143125 -18.500149 -9.620789  0.961697 -0.251673 0.108629  0.153590 0.464481 1 73 1.000000
0  -3.095989 -18.365534 -9.721104  0.961697 -0.251673 0.108629  0.228577 0.448584 1 73 1.000000
Material
0  -3.954739 -18.733814 -9.573878  -0.635835 0.151920 0.756726  0.952277 0.439313 1 73 1.000000
0  -3.954739 -18.500149 -9.620789  -0.635835 0.151920 0.756726  0.846410 0.464481 1 73 1.000000
0  -4.001875 -18.516237 -9.657165  -0.635835 0.151920 0.756726  0.846135 0.446322 1 73 1.000000
Material
0  -3.954739 -18.532326 -9.693541  -0.642199 -0.391410 -0.659074  0.845861 0.428164 1 73 1.000000
0  -3.954739 -18.733814 -9.573878  -0.642199 -0.391410 -0.659074  0.952277 0.439313 1 73 1.000000
0  -4.001875 -18.516237 -9.657165  -0.642199 -0.391410 -0.659074  0.846135 0.446322 1 73 1.000000
Material
0  -3.143125 -18.538795 -9.119998  1.000000 0.000003 0.000000  0.041925 0.664796 1 73 1.000000
0  -3.143125 -18.500149 -9.620789  1.000000 0.000003 0.000000  0.153590 0.464481 1 73 1.000000
0  -3.143125 -18.339094 -9.242621  1.000000 0.000003 0.000000  0.148166 0.652077 1 73 1.000000
Material
0  -4.001875 -18.170238 -9.273741  -0.961680 -0.251718 0.108673  0.775861 0.671417 1 73 1.000000
0  -3.954739 -18.500149 -9.620789  -0.961680 -0.251718 0.108674  0.846410 0.464481 1 73 1.000000
0  -3.954739 -18.339094 -9.242621  -0.961680 -0.251718 0.108673  0.851834 0.652077 1 73 1.000000
Material
0  -3.143125 -18.773039 -10.160814  0.961743 -0.232712 0.144555  0.143544 0.188400 1 73 1.000000
0  -3.095988 -18.840658 -10.583276  0.961755 -0.232666 0.144549  0.196177 0.000276 1 73 1.000000
0  -3.095988 -18.610653 -10.216594  0.961743 -0.232712 0.144555  0.221542 0.196277 1 73 1.000000
Material
0  -4.001875 -17.988661 -8.790208  -0.960917 -0.259231 0.097150  0.792895 0.906632 1 73 1.000000
0  -3.954739 -18.305847 -9.170353  -0.960917 -0.259231 0.097150  0.851847 0.688398 1 73 1.000000
0  -3.954739 -18.156799 -8.772635  -0.960917 -0.259231 0.097150  0.865985 0.881810 1 73 1.000000
Material
0  -3.954739 -18.365063 -8.665195  -1.000000 0.000001 0.000000  0.972876 0.886597 1 73 1.000000
0  -3.954739 -18.305847 -9.170353  -1.000000 0.000001 0.000000  0.851847 0.688398 1 73 1.000000
0  -3.954739 -18.538795 -9.119998  -1.000000 0.000001 0.000000  0.958075 0.664796 1 73 1.000000
Material
0  -3.143125 -18.729458 -10.094265  0.644860 0.408976 0.645673  0.148909 0.224322 1 73 1.000000
0  -3.095988 -18.751247 -10.127541  0.644860 0.408976 0.645673  0.146227 0.206361 1 73 1.000000
0  -3.095988 -18.610653 -10.216594  0.644860 0.408976 0.645673  0.221542 0.196277 1 73 1.000000
Material
0  -3.143125 -18.773039 -10.160814  0.644833 -0.408988 -0.645693  0.143544 0.188400 1 73 1.000000
0  -3.095988 -18.610653 -10.216594  0.644833 -0.408988 -0.645693  0.221542 0.196277 1 73 1.000000
0  -3.095988 -18.751247 -10.127541  0.644833 -0.408988 -0.645693  0.146227 0.206361 1 73 1.000000
Material
0  -3.143125 -18.773039 -10.160814  0.642185 -0.493406 -0.586642  0.143544 0.188400 1 73 1.000000
0  -3.095988 -18.751247 -10.127541  0.642185 -0.493406 -0.586642  0.146227 0.206361 1 73 1.000000
0  -3.143125 -18.952381 -10.009974  0.642185 -0.493406 -0.586642  0.040358 0.216709 1 73 1.000000
Material
0  -3.143125 -18.952381 -10.009974  0.635846 0.272977 0.721930  0.040358 0.216709 1 73 1.000000
0  -3.095988 -18.751247 -10.127541  0.635846 0.272977 0.721930  0.146227 0.206361 1 73 1.000000
0  -3.143125 -18.729458 -10.094265  0.635846 0.272977 0.721930  0.148909 0.224322 1 73 1.000000
Material
0  -3.954739 -18.773039 -10.160814  -0.644835 -0.408983 -0.645694  0.856456 0.188400 1 73 1.000000
0  -4.001875 -18.751247 -10.127541  -0.644835 -0.408983 -0.645694  0.853773 0.206361 1 73 1.000000
0  -4.001875 -18.610653 -10.216594  -0.644835 -0.408983 -0.645694  0.778458 0.196277 1 73 1.000000
Material
0  -4.001875 -18.610653 -10.216594  -0.644857 0.408977 0.645676  0.778458 0.196277 1 73 1.000000
0  -4.001875 -18.751247 -10.127541  -0.644857 0.408977 0.645676  0.853773 0.206361 1 73 1.000000
0  -3.954739 -18.729458 -10.094265  -0.644857 0.408977 0.645676  0.851091 0.224322 1 73 1.000000
Material
0  -3.954739 -18.952381 -10.009974  -0.635846 0.272977 0.721930  0.959642 0.216709 1 73 1.000000
0  -3.954739 -18.729458 -10.094265  -0.635846 0.272977 0.721930  0.851091 0.224322 1 73 1.000000
0  -4.001875 -18.751247 -10.127541  -0.635846 0.272977 0.721930  0.853773 0.206361 1 73 1.000000
Material
0  -3.954739 -18.773039 -10.160814  -0.642186 -0.493403 -0.586644  0.856456 0.188400 1 73 1.000000
0  -3.954739 -18.952381 -10.009974  -0.642186 -0.493403 -0.586644  0.959642 0.216709 1 73 1.000000
0  -4.001875 -18.751247 -10.127541  -0.642186 -0.493403 -0.586644  0.853773 0.206361 1 73 1.000000
Material
0  -3.095989 -17.988661 -8.790208  0.960776 -0.259622 0.097494  0.207105 0.906632 1 73 1.000000
0  -3.143125 -18.305847 -9.170353  0.960776 -0.259622 0.097494  0.148153 0.688398 1 73 1.000000
0  -3.095989 -18.170238 -9.273741  0.960776 -0.259622 0.097494  0.224139 0.671417 1 73 1.000000
Material
0  -4.001875 -17.909662 -8.831319  -1.000000 -0.000003 0.000000  0.752281 0.904668 1 73 1.000000
0  -4.001875 -18.262012 -9.752222  -1.000000 -0.000003 0.000000  0.722546 0.455448 1 73 1.000000
0  -4.001875 -18.170238 -9.273741  -1.000000 -0.000003 0.000000  0.775861 0.671417 1 73 1.000000
Material
0  -4.001875 -18.365534 -9.721104  -1.000000 0.000000 0.000000  0.771423 0.448584 1 73 1.000000
0  -4.001875 -18.262012 -9.752222  -1.000000 0.000000 0.000000  0.722546 0.455448 1 73 1.000000
0  -4.001875 -18.610653 -10.216594  -1.000000 0.000000 0.000000  0.778458 0.196277 1 73 1.000000
Material
0  -3.143125 -19.203838 -10.416054  1.000000 0.000001 0.000000  0.013619 0.000272 1 73 1.000000
0  -3.143125 -18.773039 -10.160814  1.000000 0.000001 0.000000  0.143544 0.188400 1 73 1.000000
0  -3.143125 -18.952381 -10.009974  1.000000 0.000001 0.000000  0.040358 0.216709 1 73 1.000000
Material
0  -4.001875 -18.840658 -10.583274  -0.961730 -0.232758 0.144562  0.803823 0.000277 1 73 1.000000
0  -3.954739 -18.773039 -10.160814  -0.961730 -0.232758 0.144562  0.856456 0.188400 1 73 1.000000
0  -4.001875 -18.610653 -10.216594  -0.961731 -0.232758 0.144561  0.778458 0.196277 1 73 1.000000
Material
0  -4.001875 -18.262012 -9.752222  -0.999849 -0.015858 0.007124  0.722546 0.455448 1 73 1.000000
0  -4.029547 -16.389875 -9.468470  -0.999849 -0.015858 0.007124  0.000296 0.930655 1 73 1.000000
0  -4.029952 -17.098413 -11.007306  -0.999849 -0.015858 0.007124  0.000276 0.157135 1 73 1.000000
Material
0  -4.001875 -18.747215 -10.626302  -1.000000 -0.000003 0.000000  0.756851 0.000277 1 73 1.000000
0  -4.001875 -18.610653 -10.216594  -1.000000 -0.000003 0.000000  0.778458 0.196277 1 73 1.000000
0  -4.001875 -18.262012 -9.752222  -1.000000 -0.000003 0.000000  0.722546 0.455448 1 73 1.000000
Material
0  -3.954739 -18.733814 -9.573878  -1.000000 -0.000001 0.000000  0.952277 0.439313 1 73 1.000000
0  -3.954739 -18.729458 -10.094265  -1.000000 -0.000001 0.000000  0.851091 0.224322 1 73 1.000000
0  -3.954739 -18.952381 -10.009974  -1.000000 -0.000001 0.000000  0.959642 0.216709 1 73 1.000000
Material
0  -4.001875 -18.365534 -9.721104  -0.959823 -0.251639 0.124171  0.771423 0.448584 1 73 1.000000
0  -3.954739 -18.729458 -10.094265  -0.959823 -0.251639 0.124171  0.851091 0.224322 1 73 1.000000
0  -3.954739 -18.532326 -9.693541  -0.959823 -0.251639 0.124171  0.845861 0.428164 1 73 1.000000
Material
0  -4.001875 -18.262012 -9.752222  -1.000000 0.000005 0.000000  0.722546 0.455448 1 73 1.000000
0  -4.001875 -18.365534 -9.721104  -1.000000 0.000005 0.000000  0.771423 0.448584 1 73 1.000000
0  -4.001875 -18.170238 -9.273741  -1.000000 0.000005 0.000000  0.775861 0.671417 1 73 1.000000
Material
0  -4.001875 -17.988661 -8.790208  -1.000000 0.000000 0.000000  0.792895 0.906632 1 73 1.000000
0  -4.001875 -17.871803 -8.619591  -1.000000 0.000000 0.000000  0.777014 0.999709 1 73 1.000000
0  -4.001875 -17.909662 -8.831319  -1.000000 0.000000 0.000000  0.752281 0.904668 1 73 1.000000
Material
0  -3.095989 -18.262012 -9.752222  1.000000 -0.000003 0.000000  0.277454 0.455448 1 73 1.000000
0  -3.095989 -17.909662 -8.831319  1.000000 -0.000003 0.000000  0.247719 0.904668 1 73 1.000000
0  -3.095989 -18.170238 -9.273741  1.000000 -0.000003 0.000000  0.224139 0.671417 1 73 1.000000
Material
0  -3.095989 -17.909662 -8.831319  1.000000 -0.000002 0.000000  0.247719 0.904668 1 73 1.000000
0  -3.095989 -17.844975 -8.631943  1.000000 -0.000002 0.000000  0.236472 0.999709 1 73 1.000000
0  -3.095989 -17.871803 -8.619591  1.000000 -0.000002 0.000000  0.222986 0.999709 1 73 1.000000
Material
0  -3.095988 -18.610653 -10.216594  1.000000 0.000003 0.000000  0.221542 0.196277 1 73 1.000000
0  -3.095988 -18.840658 -10.583276  1.000000 0.000003 0.000000  0.196177 0.000276 1 73 1.000000
0  -3.095988 -18.756891 -10.621845  1.000000 0.000003 0.000000  0.238284 0.000278 1 73 1.000000
Material
0  -3.095989 -18.365534 -9.721104  1.000000 0.000000 0.000000  0.228577 0.448584 1 73 1.000000
0  -3.095988 -18.610653 -10.216594  1.000000 0.000000 0.000000  0.221542 0.196277 1 73 1.000000
0  -3.095989 -18.262012 -9.752222  1.000000 0.000000 0.000000  0.277454 0.455448 1 73 1.000000
Material
0  -3.095989 -17.871803 -8.619591  1.000000 0.000000 0.000000  0.222986 0.999709 1 73 1.000000
0  -3.095989 -17.988661 -8.790208  1.000000 0.000000 0.000000  0.207105 0.906632 1 73 1.000000
0  -3.095989 -17.909662 -8.831319  1.000000 0.000000 0.000000  0.247719 0.904668 1 73 1.000000
Material
0  -3.095989 -18.170238 -9.273741  1.000000 0.000001 0.000000  0.224139 0.671417 1 73 1.000000
0  -3.095989 -18.365534 -9.721104  1.000000 0.000001 0.000000  0.228577 0.448584 1 73 1.000000
0  -3.095989 -18.262012 -9.752222  1.000000 0.000001 0.000000  0.277454 0.455448 1 73 1.000000
Material
0  -3.095989 -17.988661 -8.790208  0.960917 -0.259231 0.097148  0.207105 0.906632 1 73 1.000000
0  -3.143125 -18.156799 -8.772635  0.960917 -0.259231 0.097148  0.134015 0.881810 1 73 1.000000
0  -3.143125 -18.305847 -9.170353  0.960917 -0.259231 0.097148  0.148153 0.688398 1 73 1.000000
Material
0  -3.090801 -18.473503 -10.752328  0.999851 -0.015087 0.008378  0.380733 0.000281 1 73 1.000000
0  -3.067847 -17.119432 -11.052958  0.999851 -0.015087 0.008378  0.999725 0.134189 1 73 1.000000
0  -3.067913 -17.098413 -11.007306  0.999851 -0.015087 0.008378  0.999724 0.157135 1 73 1.000000
Material
0  -4.001875 -18.170238 -9.273741  -0.960775 -0.259627 0.097494  0.775861 0.671417 1 73 1.000000
0  -3.954739 -18.305847 -9.170353  -0.960775 -0.259627 0.097494  0.851847 0.688398 1 73 1.000000
0  -4.001875 -17.988661 -8.790208  -0.960775 -0.259627 0.097494  0.792895 0.906632 1 73 1.000000
Material
0  -3.095989 -18.365534 -9.721104  0.959829 -0.251622 0.124153  0.228577 0.448584 1 73 1.000000
0  -3.143125 -18.729458 -10.094265  0.959817 -0.251655 0.124184  0.148909 0.224322 1 73 1.000000
0  -3.095988 -18.610653 -10.216594  0.959817 -0.251654 0.124186  0.221542 0.196277 1 73 1.000000
Material
0  -3.954739 -18.773039 -10.160814  -1.000000 -0.000002 0.000000  0.856456 0.188400 1 73 1.000000
0  -3.954739 -19.203838 -10.416054  -1.000000 -0.000002 0.000000  0.986381 0.000272 1 73 1.000000
0  -3.954739 -18.952381 -10.009974  -1.000000 -0.000002 0.000000  0.959642 0.216709 1 73 1.000000
Material
0  -3.143125 -18.733814 -9.573878  1.000000 0.000000 0.000000  0.047723 0.439313 1 73 1.000000
0  -3.143125 -18.729458 -10.094265  1.000000 0.000000 0.000000  0.148909 0.224322 1 73 1.000000
0  -3.143125 -18.532326 -9.693541  1.000000 0.000000 0.000000  0.154139 0.428164 1 73 1.000000
Material
0  -3.143125 -19.203838 -10.416054  0.976558 -0.195670 0.089711  0.013619 0.000272 1 73 1.000000
0  -3.143125 -18.952381 -10.009974  0.976556 -0.195696 0.089676  0.040358 0.216709 1 73 1.000000
0  -3.164812 -19.223042 -10.387980  0.976556 -0.195695 0.089675  0.000295 0.008248 1 73 1.000000
Material
0  -3.954739 -18.314871 -8.415585  -0.990425 -0.126127 0.056127  0.999728 0.999704 1 73 1.000000
0  -3.954739 -18.280701 -8.431317  -0.990425 -0.126132 0.056116  0.982552 0.999705 1 73 1.000000
0  -3.954739 -18.365063 -8.665195  -0.990425 -0.126130 0.056119  0.972876 0.886597 1 73 1.000000
Material
0  -3.095989 -17.909662 -8.831319  1.000000 0.000000 0.000000  0.247719 0.904668 1 73 1.000000
0  -3.095989 -17.988661 -8.790208  1.000000 0.000000 0.000000  0.207105 0.906632 1 73 1.000000
0  -3.095989 -18.170238 -9.273741  1.000000 0.000000 0.000000  0.224139 0.671417 1 73 1.000000
Material
0  -4.001875 -17.909662 -8.831319  -1.000000 0.000000 0.000000  0.752281 0.904668 1 73 1.000000
0  -4.001875 -18.170238 -9.273741  -1.000000 0.000000 0.000000  0.775861 0.671417 1 73 1.000000
0  -4.001875 -17.988661 -8.790208  -1.000000 0.000000 0.000000  0.792895 0.906632 1 73 1.000000
Material
0  -3.164812 -19.223042 -10.387980  0.825053 -0.474740 0.306445  0.000295 0.008248 1 73 1.000000
0  -3.163121 -19.230345 -10.403849  0.825053 -0.474740 0.306445  0.000295 0.000272 1 73 1.000000
0  -3.153576 -19.217558 -10.409737  0.825053 -0.474740 0.306445  0.006724 0.000272 1 73 1.000000
Material
0  -3.944288 -19.217558 -10.409737  -0.825024 -0.474749 0.306510  0.993276 0.000272 1 73 1.000000
0  -3.934742 -19.230345 -10.403849  -0.825024 -0.474749 0.306510  0.999704 0.000272 1 73 1.000000
0  -3.933051 -19.223042 -10.387980  -0.825024 -0.474749 0.306510  0.999706 0.008248 1 73 1.000000
Material
0  -4.030016 -17.119432 -11.052958  -0.999862 -0.015785 0.005250  0.000275 0.134189 1 73 1.000000
0  -4.029479 -17.242077 -11.319323  -0.999862 -0.015785 0.005250  0.000272 0.000296 1 73 1.000000
0  -4.007062 -18.473503 -10.752328  -0.999862 -0.015785 0.005250  0.619267 0.000281 1 73 1.000000
Material
0  -3.954739 -18.280701 -8.431317  -1.000000 0.000001 0.000000  0.982552 0.999705 1 73 1.000000
0  -3.954739 -18.129017 -8.698094  -1.000000 0.000001 0.000000  0.868697 0.918030 1 73 1.000000
0  -3.954739 -18.365063 -8.665195  -1.000000 0.000001 0.000000  0.972876 0.886597 1 73 1.000000
Material
0  -4.001875 -17.918159 -8.598246  -0.961195 -0.259372 0.093975  0.800316 0.999708 1 73 1.000000
0  -3.954739 -18.129017 -8.698094  -0.961195 -0.259372 0.093975  0.868697 0.918030 1 73 1.000000
0  -3.954739 -18.068623 -8.528967  -0.961204 -0.259353 0.093932  0.875948 0.999707 1 73 1.000000
Material
0  -3.143125 -18.280701 -8.431318  1.000000 0.000000 0.000000  0.017448 0.999704 1 73 1.000000
0  -3.143125 -18.129017 -8.698094  1.000000 0.000000 0.000000  0.131303 0.918030 1 73 1.000000
0  -3.143125 -18.068623 -8.528967  1.000000 0.000000 0.000000  0.124052 0.999707 1 73 1.000000
Material
0  -4.001875 -17.871803 -8.619591  -1.000000 0.000000 0.000000  0.777014 0.999709 1 73 1.000000
0  -4.001875 -17.844975 -8.631943  -1.000000 0.000000 0.000000  0.763528 0.999709 1 73 1.000000
0  -4.001875 -17.909662 -8.831319  -1.000000 0.000000 0.000000  0.752281 0.904668 1 73 1.000000
Material
0  -4.001875 -18.756891 -10.621845  -1.000000 0.000006 0.000000  0.761716 0.000278 1 73 1.000000
0  -4.001875 -18.840658 -10.583274  -1.000000 0.000006 0.000000  0.803823 0.000277 1 73 1.000000
0  -4.001875 -18.610653 -10.216594  -1.000000 0.000006 0.000000  0.778458 0.196277 1 73 1.000000
Material
0  -3.090801 -18.473503 -10.752328  0.999863 -0.016028 0.004153  0.380733 0.000281 1 73 1.000000
0  -3.068707 -17.242077 -11.319323  0.999863 -0.016028 0.004153  0.999728 0.000296 1 73 1.000000
0  -3.067847 -17.119432 -11.052958  0.999863 -0.016028 0.004153  0.999725 0.134189 1 73 1.000000
Material
0  -3.095988 -18.747215 -10.626302  1.000000 0.000000 0.000000  0.243149 0.000277 1 73 1.000000
0  -3.095988 -18.610653 -10.216594  1.000000 0.000000 0.000000  0.221542 0.196277 1 73 1.000000
0  -3.095988 -18.756891 -10.621845  1.000000 0.000000 0.000000  0.238284 0.000278 1 73 1.000000
Material
0  -4.029883 -16.326603 -9.331058  -0.999858 -0.016046 0.005206  0.000296 0.999728 1 73 1.000000
0  -4.001875 -17.909662 -8.831319  -0.999858 -0.016046 0.005206  0.752281 0.904668 1 73 1.000000
0  -4.001875 -17.844975 -8.631943  -0.999858 -0.016046 0.005206  0.763528 0.999709 1 73 1.000000
Material
0  -4.007062 -18.473503 -10.752328  -0.999851 -0.015091 0.008376  0.619267 0.000281 1 73 1.000000
0  -4.001875 -18.747215 -10.626302  -0.999851 -0.015091 0.008376  0.756851 0.000277 1 73 1.000000
0  -4.001875 -18.262012 -9.752222  -0.999851 -0.015091 0.008376  0.722546 0.455448 1 73 1.000000
Material
0  -3.067981 -16.326603 -9.331058  0.999858 -0.016118 0.004979  0.999704 0.999728 1 73 1.000000
0  -3.095989 -17.909662 -8.831319  0.999858 -0.016118 0.004979  0.247719 0.904668 1 73 1.000000
0  -3.068317 -16.389875 -9.468470  0.999858 -0.016118 0.004979  0.999704 0.930655 1 73 1.000000
Material
0  -3.068317 -16.389875 -9.468470  0.999850 -0.015844 0.007029  0.999704 0.930655 1 73 1.000000
0  -3.095989 -18.262012 -9.752222  0.999850 -0.015844 0.007029  0.277454 0.455448 1 73 1.000000
0  -3.067913 -17.098413 -11.007306  0.999850 -0.015844 0.007029  0.999724 0.157135 1 73 1.000000
Material
0  -3.095989 -17.918159 -8.598246  0.961185 -0.259390 0.094022  0.199684 0.999708 1 73 1.000000
0  -3.143125 -18.129017 -8.698094  0.961185 -0.259390 0.094022  0.131303 0.918030 1 73 1.000000
0  -3.095989 -17.988661 -8.790208  0.961185 -0.259390 0.094022  0.207105 0.906632 1 73 1.000000
Material
0  -3.954739 -18.538795 -9.119998  -1.000000 0.000000 0.000000  0.958075 0.664796 1 75 1.000000
0  -3.954739 -18.339094 -9.242621  -1.000000 0.000000 0.000000  0.851834 0.652077 1 75 1.000000
0  -3.954739 -18.500149 -9.620789  -1.000000 0.000000 0.000000  0.846410 0.464481 1 75 1.000000
Material
0  -3.143125 -18.365063 -8.665195  1.000000 0.000000 0.000000  0.027124 0.886597 1 75 1.000000
0  -3.143125 -18.538795 -9.119998  1.000000 0.000000 0.000000  0.041925 0.664796 1 75 1.000000
0  -3.143125 -18.305847 -9.170353  1.000000 0.000000 0.000000  0.148153 0.688398 1 75 1.000000
Material
0  -3.095989 -18.170238 -9.273741  0.961692 -0.251687 0.108642  0.224139 0.671417 1 75 1.000000
0  -3.143125 -18.339094 -9.242621  0.961704 -0.251654 0.108610  0.148166 0.652077 1 75 1.000000
0  -3.143125 -18.500149 -9.620789  0.961692 -0.251687 0.108643  0.153590 0.464481 1 75 1.000000
Material
0  -3.143125 -18.538795 -9.119998  1.000000 -0.000001 0.000000  0.041925 0.664796 1 75 1.000000
0  -3.143125 -18.733814 -9.573878  1.000000 -0.000001 0.000000  0.047723 0.439313 1 75 1.000000
0  -3.143125 -18.500149 -9.620789  1.000000 -0.000001 0.000000  0.153590 0.464481 1 75 1.000000
Material
0  -4.001875 -18.170238 -9.273741  -0.961683 -0.251709 0.108663  0.775861 0.671417 1 75 1.000000
0  -4.001875 -18.365534 -9.721104  -0.961696 -0.251676 0.108631  0.771423 0.448584 1 75 1.000000
0  -3.954739 -18.500149 -9.620789  -0.961684 -0.251708 0.108664  0.846410 0.464481 1 75 1.000000
Material
0  -3.143125 -18.773039 -10.160814  0.961748 -0.232690 0.144552  0.143544 0.188400 1 75 1.000000
0  -3.143125 -18.988314 -10.510965  0.961748 -0.232690 0.144552  0.121131 0.002068 1 75 1.000000
0  -3.095988 -18.840658 -10.583276  0.961748 -0.232690 0.144552  0.196177 0.000276 1 75 1.000000
Material
0  -3.954739 -18.365063 -8.665195  -1.000000 0.000000 0.000000  0.972876 0.886597 1 75 1.000000
0  -3.954739 -18.156799 -8.772635  -1.000000 0.000000 0.000000  0.865985 0.881810 1 75 1.000000
0  -3.954739 -18.305847 -9.170353  -1.000000 0.000000 0.000000  0.851847 0.688398 1 75 1.000000
Material
0  -3.143125 -19.203838 -10.416054  1.000000 0.000000 0.000000  0.013619 0.000272 1 75 1.000000
0  -3.143125 -18.988314 -10.510965  1.000000 0.000000 0.000000  0.121131 0.002068 1 75 1.000000
0  -3.143125 -18.773039 -10.160814  1.000000 0.000000 0.000000  0.143544 0.188400 1 75 1.000000
Material
0  -4.001875 -18.840658 -10.583274  -0.961748 -0.232693 0.144553  0.803823 0.000277 1 75 1.000000
0  -3.954739 -18.988314 -10.510965  -0.961748 -0.232693 0.144553  0.878869 0.002068 1 75 1.000000
0  -3.954739 -18.773039 -10.160814  -0.961748 -0.232693 0.144553  0.856456 0.188400 1 75 1.000000
Material
0  -4.001875 -18.262012 -9.752222  -0.999851 -0.015832 0.006951  0.722546 0.455448 1 75 1.000000
0  -4.001875 -17.909662 -8.831319  -0.999850 -0.015832 0.006951  0.752281 0.904668 1 75 1.000000
0  -4.029547 -16.389875 -9.468470  -0.999851 -0.015832 0.006951  0.000296 0.930655 1 75 1.000000
Material
0  -4.001875 -18.747215 -10.626302  -1.000000 -0.000052 0.000000  0.756851 0.000277 1 75 1.000000
0  -4.001875 -18.756891 -10.621845  -1.000000 -0.000052 0.000000  0.761716 0.000278 1 75 1.000000
0  -4.001875 -18.610653 -10.216594  -1.000000 -0.000052 0.000000  0.778458 0.196277 1 75 1.000000
Material
0  -3.954739 -18.733814 -9.573878  -1.000000 0.000000 0.000000  0.952277 0.439313 1 75 1.000000
0  -3.954739 -18.532326 -9.693541  -1.000000 0.000000 0.000000  0.845861 0.428164 1 75 1.000000
0  -3.954739 -18.729458 -10.094265  -1.000000 0.000000 0.000000  0.851091 0.224322 1 75 1.000000
Material
0  -4.001875 -18.365534 -9.721104  -0.959816 -0.251655 0.124186  0.771423 0.448584 1 75 1.000000
0  -4.001875 -18.610653 -10.216594  -0.959842 -0.251590 0.124120  0.778458 0.196277 1 75 1.000000
0  -3.954739 -18.729458 -10.094265  -0.959842 -0.251590 0.124120  0.851091 0.224322 1 75 1.000000
Material
0  -4.001875 -17.988661 -8.790208  -1.000000 0.000004 0.000000  0.792895 0.906632 1 75 1.000000
0  -4.001875 -17.918159 -8.598246  -1.000000 0.000004 0.000000  0.800316 0.999708 1 75 1.000000
0  -4.001875 -17.871803 -8.619591  -1.000000 0.000004 0.000000  0.777014 0.999709 1 75 1.000000
Material
0  -3.095989 -17.871803 -8.619591  1.000000 0.000000 0.000000  0.222986 0.999709 1 75 1.000000
0  -3.095989 -17.918159 -8.598246  1.000000 0.000000 0.000000  0.199684 0.999708 1 75 1.000000
0  -3.095989 -17.988661 -8.790208  1.000000 0.000000 0.000000  0.207105 0.906632 1 75 1.000000
Material
0  -3.067913 -17.098413 -11.007306  0.999851 -0.015089 0.008377  0.999724 0.157135 1 75 1.000000
0  -3.095989 -18.262012 -9.752222  0.999851 -0.015089 0.008377  0.277454 0.455448 1 75 1.000000
0  -3.090801 -18.473503 -10.752328  0.999851 -0.015089 0.008377  0.380733 0.000281 1 75 1.000000
Material
0  -3.095989 -18.262012 -9.752222  0.999851 -0.015090 0.008377  0.277454 0.455448 1 75 1.000000
0  -3.095988 -18.747215 -10.626302  0.999851 -0.015090 0.008377  0.243149 0.000277 1 75 1.000000
0  -3.090801 -18.473503 -10.752328  0.999851 -0.015090 0.008377  0.380733 0.000281 1 75 1.000000
Material
0  -3.095989 -18.365534 -9.721104  0.959847 -0.251576 0.124106  0.228577 0.448584 1 75 1.000000
0  -3.143125 -18.532326 -9.693541  0.959822 -0.251641 0.124172  0.154139 0.428164 1 75 1.000000
0  -3.143125 -18.729458 -10.094265  0.959809 -0.251673 0.124205  0.148909 0.224322 1 75 1.000000
Material
0  -3.954739 -18.773039 -10.160814  -1.000000 0.000001 0.000000  0.856456 0.188400 1 75 1.000000
0  -3.954739 -18.988314 -10.510965  -1.000000 0.000001 0.000000  0.878869 0.002068 1 75 1.000000
0  -3.954739 -19.203838 -10.416054  -1.000000 0.000001 0.000000  0.986381 0.000272 1 75 1.000000
Material
0  -3.143125 -18.733814 -9.573878  1.000000 0.000001 0.000000  0.047723 0.439313 1 75 1.000000
0  -3.143125 -18.952381 -10.009974  1.000000 0.000001 0.000000  0.040358 0.216709 1 75 1.000000
0  -3.143125 -18.729458 -10.094265  1.000000 0.000001 0.000000  0.148909 0.224322 1 75 1.000000
Material
0  -3.143125 -18.952381 -10.009974  0.976573 -0.195618 0.089663  0.040358 0.216709 1 75 1.000000
0  -3.143125 -18.733814 -9.573878  0.976573 -0.195617 0.089666  0.047723 0.439313 1 75 1.000000
0  -3.164812 -19.223042 -10.387980  0.976573 -0.195619 0.089661  0.000295 0.008248 1 75 1.000000
Material
0  -3.143125 -18.733814 -9.573878  0.976577 -0.195605 0.089649  0.047723 0.439313 1 75 1.000000
0  -3.143125 -18.538795 -9.119998  0.976577 -0.195606 0.089648  0.041925 0.664796 1 75 1.000000
0  -3.164812 -19.223042 -10.387980  0.976577 -0.195605 0.089648  0.000295 0.008248 1 75 1.000000
Material
0  -3.143125 -18.538795 -9.119998  0.976576 -0.195611 0.089645  0.041925 0.664796 1 75 1.000000
0  -3.143125 -18.365063 -8.665195  0.976575 -0.195609 0.089654  0.027124 0.886597 1 75 1.000000
0  -3.155854 -18.314871 -8.415585  0.976575 -0.195609 0.089656  0.000272 0.999704 1 75 1.000000
Material
0  -3.143125 -18.365063 -8.665195  0.976565 -0.195656 0.089663  0.027124 0.886597 1 75 1.000000
0  -3.143125 -18.280701 -8.431318  0.976565 -0.195659 0.089657  0.017448 0.999704 1 75 1.000000
0  -3.155854 -18.314871 -8.415585  0.976565 -0.195658 0.089654  0.000272 0.999704 1 75 1.000000
Material
0  -3.155854 -18.314871 -8.415585  0.976575 -0.195612 0.089652  0.000272 0.999704 1 75 1.000000
0  -3.164812 -19.223042 -10.387980  0.976575 -0.195610 0.089655  0.000295 0.008248 1 75 1.000000
0  -3.143125 -18.538795 -9.119998  0.976575 -0.195611 0.089653  0.041925 0.664796 1 75 1.000000
Material
0  -3.164812 -19.223042 -10.387980  0.976557 -0.195662 0.089739  0.000295 0.008248 1 75 1.000000
0  -3.153576 -19.217558 -10.409737  0.976561 -0.195658 0.089701  0.006724 0.000272 1 75 1.000000
0  -3.143125 -19.203838 -10.416054  0.976560 -0.195661 0.089711  0.013619 0.000272 1 75 1.000000
Material
0  -3.954739 -18.365063 -8.665195  -0.990425 -0.126129 0.056122  0.972876 0.886597 1 75 1.000000
0  -3.954739 -18.538795 -9.119998  -0.990425 -0.126125 0.056131  0.958075 0.664796 1 75 1.000000
0  -3.954739 -18.314871 -8.415585  -0.990425 -0.126122 0.056137  0.999728 0.999704 1 75 1.000000
Material
0  -3.954739 -18.538795 -9.119998  -0.990415 -0.126196 0.056156  0.958075 0.664796 1 75 1.000000
0  -3.954739 -18.733814 -9.573878  -0.990415 -0.126195 0.056159  0.952277 0.439313 1 75 1.000000
0  -3.933051 -19.223042 -10.387980  -0.990415 -0.126196 0.056156  0.999706 0.008248 1 75 1.000000
Material
0  -3.954739 -18.314871 -8.415585  -0.990417 -0.126181 0.056155  0.999728 0.999704 1 75 1.000000
0  -3.954739 -18.538795 -9.119998  -0.990416 -0.126183 0.056151  0.958075 0.664796 1 75 1.000000
0  -3.933051 -19.223042 -10.387980  -0.990416 -0.126184 0.056151  0.999706 0.008248 1 75 1.000000
Material
0  -3.954739 -18.733814 -9.573878  -0.990403 -0.126265 0.056198  0.952277 0.439313 1 75 1.000000
0  -3.954739 -18.952381 -10.009974  -0.990403 -0.126267 0.056195  0.959642 0.216709 1 75 1.000000
0  -3.933051 -19.223042 -10.387980  -0.990403 -0.126274 0.056183  0.999706 0.008248 1 75 1.000000
Material
0  -3.954739 -18.952381 -10.009974  -0.990410 -0.126224 0.056167  0.959642 0.216709 1 75 1.000000
0  -3.954739 -19.203838 -10.416054  -0.990410 -0.126233 0.056155  0.986381 0.000272 1 75 1.000000
0  -3.933051 -19.223042 -10.387980  -0.990409 -0.126249 0.056130  0.999706 0.008248 1 75 1.000000
Material
0  -3.954739 -19.203838 -10.416054  -0.990416 -0.126183 0.056157  0.986381 0.000272 1 75 1.000000
0  -3.944288 -19.217558 -10.409737  -0.990415 -0.126174 0.056191  0.993276 0.000272 1 75 1.000000
0  -3.933051 -19.223042 -10.387980  -0.990414 -0.126203 0.056148  0.999706 0.008248 1 75 1.000000
Material
0  -3.954739 -18.280701 -8.431317  -1.000000 -0.000003 0.000000  0.982552 0.999705 1 75 1.000000
0  -3.954739 -18.068623 -8.528967  -1.000000 -0.000003 0.000000  0.875948 0.999707 1 75 1.000000
0  -3.954739 -18.129017 -8.698094  -1.000000 -0.000003 0.000000  0.868697 0.918030 1 75 1.000000
Material
0  -4.001875 -17.918159 -8.598246  -0.961157 -0.259447 0.094153  0.800316 0.999708 1 75 1.000000
0  -4.001875 -17.988661 -8.790208  -0.961157 -0.259447 0.094153  0.792895 0.906632 1 75 1.000000
0  -3.954739 -18.129017 -8.698094  -0.961157 -0.259447 0.094153  0.868697 0.918030 1 75 1.000000
Material
0  -3.143125 -18.280701 -8.431318  1.000000 -0.000001 0.000000  0.017448 0.999704 1 75 1.000000
0  -3.143125 -18.365063 -8.665195  1.000000 -0.000001 0.000000  0.027124 0.886597 1 75 1.000000
0  -3.143125 -18.129017 -8.698094  1.000000 -0.000001 0.000000  0.131303 0.918030 1 75 1.000000
Material
0  -3.095988 -18.747215 -10.626302  1.000000 0.000000 -0.000000  0.243149 0.000277 1 75 1.000000
0  -3.095989 -18.262012 -9.752222  1.000000 0.000000 -0.000000  0.277454 0.455448 1 75 1.000000
0  -3.095988 -18.610653 -10.216594  1.000000 0.000000 -0.000000  0.221542 0.196277 1 75 1.000000
Material
0  -4.029883 -16.326603 -9.331058  -0.999858 -0.016016 0.005294  0.000296 0.999728 1 75 1.000000
0  -4.029547 -16.389875 -9.468470  -0.999858 -0.016122 0.004976  0.000296 0.930655 1 75 1.000000
0  -4.001875 -17.909662 -8.831319  -0.999858 -0.016122 0.004976  0.752281 0.904668 1 75 1.000000
Material
0  -4.001875 -18.262012 -9.752222  -0.999851 -0.015090 0.008376  0.722546 0.455448 1 75 1.000000
0  -4.029952 -17.098413 -11.007306  -0.999851 -0.015090 0.008376  0.000276 0.157135 1 75 1.000000
0  -4.007062 -18.473503 -10.752328  -0.999851 -0.015090 0.008376  0.619267 0.000281 1 75 1.000000
Material
0  -4.029952 -17.098413 -11.007306  -0.999851 -0.015090 0.008369  0.000276 0.157135 1 75 1.000000
0  -4.030016 -17.119432 -11.052958  -0.999851 -0.015090 0.008369  0.000275 0.134189 1 75 1.000000
0  -4.007062 -18.473503 -10.752328  -0.999851 -0.015090 0.008369  0.619267 0.000281 1 75 1.000000
Material
0  -3.067981 -16.326603 -9.331058  0.999858 -0.016046 0.005206  0.999704 0.999728 1 75 1.000000
0  -3.095989 -17.844975 -8.631943  0.999858 -0.016046 0.005206  0.236472 0.999709 1 75 1.000000
0  -3.095989 -17.909662 -8.831319  0.999858 -0.016046 0.005206  0.247719 0.904668 1 75 1.000000
Material
0  -3.068317 -16.389875 -9.468470  0.999849 -0.015847 0.007045  0.999704 0.930655 1 75 1.000000
0  -3.095989 -17.909662 -8.831319  0.999849 -0.015847 0.007045  0.247719 0.904668 1 75 1.000000
0  -3.095989 -18.262012 -9.752222  0.999849 -0.015846 0.007045  0.277454 0.455448 1 75 1.000000
Material
0  -3.095989 -17.918159 -8.598246  0.961204 -0.259352 0.093933  0.199684 0.999708 1 75 1.000000
0  -3.143125 -18.068623 -8.528967  0.961195 -0.259370 0.093976  0.124052 0.999707 1 75 1.000000
0  -3.143125 -18.129017 -8.698094  0.961204 -0.259352 0.093933  0.131303 0.918030 1 75 1.000000
Material
0  -3.954739 -18.538795 -9.119998  -1.000000 0.000000 0.000000  0.958075 0.664796 1 73 1.000000
0  -3.954739 -18.339094 -9.242621  -1.000000 0.000000 0.000000  0.851834 0.652077 1 73 1.000000
0  -3.954739 -18.500149 -9.620789  -1.000000 0.000000 0.000000  0.846410 0.464481 1 73 1.000000
Material
0  -3.143125 -18.365063 -8.665195  1.000000 0.000000 0.000000  0.027124 0.886597 1 73 1.000000
0  -3.143125 -18.538795 -9.119998  1.000000 0.000000 0.000000  0.041925 0.664796 1 73 1.000000
0  -3.143125 -18.305847 -9.170353  1.000000 0.000000 0.000000  0.148153 0.688398 1 73 1.000000
Material
0  -3.095989 -18.170238 -9.273741  0.961692 -0.251687 0.108642  0.224139 0.671417 1 73 1.000000
0  -3.143125 -18.339094 -9.242621  0.961704 -0.251654 0.108610  0.148166 0.652077 1 73 1.000000
0  -3.143125 -18.500149 -9.620789  0.961692 -0.251687 0.108643  0.153590 0.464481 1 73 1.000000
Material
0  -3.143125 -18.538795 -9.119998  1.000000 -0.000001 0.000000  0.041925 0.664796 1 73 1.000000
0  -3.143125 -18.733814 -9.573878  1.000000 -0.000001 0.000000  0.047723 0.439313 1 73 1.000000
0  -3.143125 -18.500149 -9.620789  1.000000 -0.000001 0.000000  0.153590 0.464481 1 73 1.000000
Material
0  -4.001875 -18.170238 -9.273741  -0.961683 -0.251709 0.108663  0.775861 0.671417 1 73 1.000000
0  -4.001875 -18.365534 -9.721104  -0.961696 -0.251676 0.108631  0.771423 0.448584 1 73 1.000000
0  -3.954739 -18.500149 -9.620789  -0.961684 -0.251708 0.108664  0.846410 0.464481 1 73 1.000000
Material
0  -3.143125 -18.773039 -10.160814  0.961748 -0.232690 0.144552  0.143544 0.188400 1 73 1.000000
0  -3.143125 -18.988314 -10.510965  0.961748 -0.232690 0.144552  0.121131 0.002068 1 73 1.000000
0  -3.095988 -18.840658 -10.583276  0.961748 -0.232690 0.144552  0.196177 0.000276 1 73 1.000000
Material
0  -3.954739 -18.365063 -8.665195  -1.000000 0.000000 0.000000  0.972876 0.886597 1 73 1.000000
0  -3.954739 -18.156799 -8.772635  -1.000000 0.000000 0.000000  0.865985 0.881810 1 73 1.000000
0  -3.954739 -18.305847 -9.170353  -1.000000 0.000000 0.000000  0.851847 0.688398 1 73 1.000000
Material
0  -3.143125 -19.203838 -10.416054  1.000000 0.000000 0.000000  0.013619 0.000272 1 73 1.000000
0  -3.143125 -18.988314 -10.510965  1.000000 0.000000 0.000000  0.121131 0.002068 1 73 1.000000
0  -3.143125 -18.773039 -10.160814  1.000000 0.000000 0.000000  0.143544 0.188400 1 73 1.000000
Material
0  -4.001875 -18.840658 -10.583274  -0.961748 -0.232693 0.144553  0.803823 0.000277 1 73 1.000000
0  -3.954739 -18.988314 -10.510965  -0.961748 -0.232693 0.144553  0.878869 0.002068 1 73 1.000000
0  -3.954739 -18.773039 -10.160814  -0.961748 -0.232693 0.144553  0.856456 0.188400 1 73 1.000000
Material
0  -4.001875 -18.262012 -9.752222  -0.999851 -0.015832 0.006951  0.722546 0.455448 1 73 1.000000
0  -4.001875 -17.909662 -8.831319  -0.999850 -0.015832 0.006951  0.752281 0.904668 1 73 1.000000
0  -4.029547 -16.389875 -9.468470  -0.999851 -0.015832 0.006951  0.000296 0.930655 1 73 1.000000
Material
0  -4.001875 -18.747215 -10.626302  -1.000000 -0.000052 0.000000  0.756851 0.000277 1 73 1.000000
0  -4.001875 -18.756891 -10.621845  -1.000000 -0.000052 0.000000  0.761716 0.000278 1 73 1.000000
0  -4.001875 -18.610653 -10.216594  -1.000000 -0.000052 0.000000  0.778458 0.196277 1 73 1.000000
Material
0  -3.954739 -18.733814 -9.573878  -1.000000 0.000000 0.000000  0.952277 0.439313 1 73 1.000000
0  -3.954739 -18.532326 -9.693541  -1.000000 0.000000 0.000000  0.845861 0.428164 1 73 1.000000
0  -3.954739 -18.729458 -10.094265  -1.000000 0.000000 0.000000  0.851091 0.224322 1 73 1.000000
Material
0  -4.001875 -18.365534 -9.721104  -0.959816 -0.251655 0.124186  0.771423 0.448584 1 73 1.000000
0  -4.001875 -18.610653 -10.216594  -0.959842 -0.251590 0.124120  0.778458 0.196277 1 73 1.000000
0  -3.954739 -18.729458 -10.094265  -0.959842 -0.251590 0.124120  0.851091 0.224322 1 73 1.000000
Material
0  -4.001875 -17.988661 -8.790208  -1.000000 0.000004 0.000000  0.792895 0.906632 1 73 1.000000
0  -4.001875 -17.918159 -8.598246  -1.000000 0.000004 0.000000  0.800316 0.999708 1 73 1.000000
0  -4.001875 -17.871803 -8.619591  -1.000000 0.000004 0.000000  0.777014 0.999709 1 73 1.000000
Material
0  -3.095989 -17.871803 -8.619591  1.000000 0.000000 0.000000  0.222986 0.999709 1 73 1.000000
0  -3.095989 -17.918159 -8.598246  1.000000 0.000000 0.000000  0.199684 0.999708 1 73 1.000000
0  -3.095989 -17.988661 -8.790208  1.000000 0.000000 0.000000  0.207105 0.906632 1 73 1.000000
Material
0  -3.067913 -17.098413 -11.007306  0.999851 -0.015089 0.008377  0.999724 0.157135 1 73 1.000000
0  -3.095989 -18.262012 -9.752222  0.999851 -0.015089 0.008377  0.277454 0.455448 1 73 1.000000
0  -3.090801 -18.473503 -10.752328  0.999851 -0.015089 0.008377  0.380733 0.000281 1 73 1.000000
Material
0  -3.095989 -18.262012 -9.752222  0.999851 -0.015090 0.008377  0.277454 0.455448 1 73 1.000000
0  -3.095988 -18.747215 -10.626302  0.999851 -0.015090 0.008377  0.243149 0.000277 1 73 1.000000
0  -3.090801 -18.473503 -10.752328  0.999851 -0.015090 0.008377  0.380733 0.000281 1 73 1.000000
Material
0  -3.095989 -18.365534 -9.721104  0.959847 -0.251576 0.124106  0.228577 0.448584 1 73 1.000000
0  -3.143125 -18.532326 -9.693541  0.959822 -0.251641 0.124172  0.154139 0.428164 1 73 1.000000
0  -3.143125 -18.729458 -10.094265  0.959809 -0.251673 0.124205  0.148909 0.224322 1 73 1.000000
Material
0  -3.954739 -18.773039 -10.160814  -1.000000 0.000001 0.000000  0.856456 0.188400 1 73 1.000000
0  -3.954739 -18.988314 -10.510965  -1.000000 0.000001 0.000000  0.878869 0.002068 1 73 1.000000
0  -3.954739 -19.203838 -10.416054  -1.000000 0.000001 0.000000  0.986381 0.000272 1 73 1.000000
Material
0  -3.143125 -18.733814 -9.573878  1.000000 0.000001 0.000000  0.047723 0.439313 1 73 1.000000
0  -3.143125 -18.952381 -10.009974  1.000000 0.000001 0.000000  0.040358 0.216709 1 73 1.000000
0  -3.143125 -18.729458 -10.094265  1.000000 0.000001 0.000000  0.148909 0.224322 1 73 1.000000
Material
0  -3.143125 -18.952381 -10.009974  0.976573 -0.195618 0.089663  0.040358 0.216709 1 73 1.000000
0  -3.143125 -18.733814 -9.573878  0.976573 -0.195617 0.089666  0.047723 0.439313 1 73 1.000000
0  -3.164812 -19.223042 -10.387980  0.976573 -0.195619 0.089661  0.000295 0.008248 1 73 1.000000
Material
0  -3.143125 -18.733814 -9.573878  0.976577 -0.195605 0.089649  0.047723 0.439313 1 73 1.000000
0  -3.143125 -18.538795 -9.119998  0.976577 -0.195606 0.089648  0.041925 0.664796 1 73 1.000000
0  -3.164812 -19.223042 -10.387980  0.976577 -0.195605 0.089648  0.000295 0.008248 1 73 1.000000
Material
0  -3.143125 -18.538795 -9.119998  0.976576 -0.195611 0.089645  0.041925 0.664796 1 73 1.000000
0  -3.143125 -18.365063 -8.665195  0.976575 -0.195609 0.089654  0.027124 0.886597 1 73 1.000000
0  -3.155854 -18.314871 -8.415585  0.976575 -0.195609 0.089656  0.000272 0.999704 1 73 1.000000
Material
0  -3.143125 -18.365063 -8.665195  0.976565 -0.195656 0.089663  0.027124 0.886597 1 73 1.000000
0  -3.143125 -18.280701 -8.431318  0.976565 -0.195659 0.089657  0.017448 0.999704 1 73 1.000000
0  -3.155854 -18.314871 -8.415585  0.976565 -0.195658 0.089654  0.000272 0.999704 1 73 1.000000
Material
0  -3.155854 -18.314871 -8.415585  0.976575 -0.195612 0.089652  0.000272 0.999704 1 73 1.000000
0  -3.164812 -19.223042 -10.387980  0.976575 -0.195610 0.089655  0.000295 0.008248 1 73 1.000000
0  -3.143125 -18.538795 -9.119998  0.976575 -0.195611 0.089653  0.041925 0.664796 1 73 1.000000
Material
0  -3.164812 -19.223042 -10.387980  0.976557 -0.195662 0.089739  0.000295 0.008248 1 73 1.000000
0  -3.153576 -19.217558 -10.409737  0.976561 -0.195658 0.089701  0.006724 0.000272 1 73 1.000000
0  -3.143125 -19.203838 -10.416054  0.976560 -0.195661 0.089711  0.013619 0.000272 1 73 1.000000
Material
0  -3.954739 -18.365063 -8.665195  -0.990425 -0.126129 0.056122  0.972876 0.886597 1 73 1.000000
0  -3.954739 -18.538795 -9.119998  -0.990425 -0.126125 0.056131  0.958075 0.664796 1 73 1.000000
0  -3.954739 -18.314871 -8.415585  -0.990425 -0.126122 0.056137  0.999728 0.999704 1 73 1.000000
Material
0  -3.954739 -18.538795 -9.119998  -0.990415 -0.126196 0.056156  0.958075 0.664796 1 73 1.000000
0  -3.954739 -18.733814 -9.573878  -0.990415 -0.126195 0.056159  0.952277 0.439313 1 73 1.000000
0  -3.933051 -19.223042 -10.387980  -0.990415 -0.126196 0.056156  0.999706 0.008248 1 73 1.000000
Material
0  -3.954739 -18.314871 -8.415585  -0.990417 -0.126181 0.056155  0.999728 0.999704 1 73 1.000000
0  -3.954739 -18.538795 -9.119998  -0.990416 -0.126183 0.056151  0.958075 0.664796 1 73 1.000000
0  -3.933051 -19.223042 -10.387980  -0.990416 -0.126184 0.056151  0.999706 0.008248 1 73 1.000000
Material
0  -3.954739 -18.733814 -9.573878  -0.990403 -0.126265 0.056198  0.952277 0.439313 1 73 1.000000
0  -3.954739 -18.952381 -10.009974  -0.990403 -0.126267 0.056195  0.959642 0.216709 1 73 1.000000
0  -3.933051 -19.223042 -10.387980  -0.990403 -0.126274 0.056183  0.999706 0.008248 1 73 1.000000
Material
0  -3.954739 -18.952381 -10.009974  -0.990410 -0.126224 0.056167  0.959642 0.216709 1 73 1.000000
0  -3.954739 -19.203838 -10.416054  -0.990410 -0.126233 0.056155  0.986381 0.000272 1 73 1.000000
0  -3.933051 -19.223042 -10.387980  -0.990409 -0.126249 0.056130  0.999706 0.008248 1 73 1.000000
Material
0  -3.954739 -19.203838 -10.416054  -0.990416 -0.126183 0.056157  0.986381 0.000272 1 73 1.000000
0  -3.944288 -19.217558 -10.409737  -0.990415 -0.126174 0.056191  0.993276 0.000272 1 73 1.000000
0  -3.933051 -19.223042 -10.387980  -0.990414 -0.126203 0.056148  0.999706 0.008248 1 73 1.000000
Material
0  -3.954739 -18.280701 -8.431317  -1.000000 -0.000003 0.000000  0.982552 0.999705 1 73 1.000000
0  -3.954739 -18.068623 -8.528967  -1.000000 -0.000003 0.000000  0.875948 0.999707 1 73 1.000000
0  -3.954739 -18.129017 -8.698094  -1.000000 -0.000003 0.000000  0.868697 0.918030 1 73 1.000000
Material
0  -4.001875 -17.918159 -8.598246  -0.961157 -0.259447 0.094153  0.800316 0.999708 1 73 1.000000
0  -4.001875 -17.988661 -8.790208  -0.961157 -0.259447 0.094153  0.792895 0.906632 1 73 1.000000
0  -3.954739 -18.129017 -8.698094  -0.961157 -0.259447 0.094153  0.868697 0.918030 1 73 1.000000
Material
0  -3.143125 -18.280701 -8.431318  1.000000 -0.000001 0.000000  0.017448 0.999704 1 73 1.000000
0  -3.143125 -18.365063 -8.665195  1.000000 -0.000001 0.000000  0.027124 0.886597 1 73 1.000000
0  -3.143125 -18.129017 -8.698094  1.000000 -0.000001 0.000000  0.131303 0.918030 1 73 1.000000
Material
0  -3.095988 -18.747215 -10.626302  1.000000 0.000000 -0.000000  0.243149 0.000277 1 73 1.000000
0  -3.095989 -18.262012 -9.752222  1.000000 0.000000 -0.000000  0.277454 0.455448 1 73 1.000000
0  -3.095988 -18.610653 -10.216594  1.000000 0.000000 -0.000000  0.221542 0.196277 1 73 1.000000
Material
0  -4.029883 -16.326603 -9.331058  -0.999858 -0.016016 0.005294  0.000296 0.999728 1 73 1.000000
0  -4.029547 -16.389875 -9.468470  -0.999858 -0.016122 0.004976  0.000296 0.930655 1 73 1.000000
0  -4.001875 -17.909662 -8.831319  -0.999858 -0.016122 0.004976  0.752281 0.904668 1 73 1.000000
Material
0  -4.001875 -18.262012 -9.752222  -0.999851 -0.015090 0.008376  0.722546 0.455448 1 73 1.000000
0  -4.029952 -17.098413 -11.007306  -0.999851 -0.015090 0.008376  0.000276 0.157135 1 73 1.000000
0  -4.007062 -18.473503 -10.752328  -0.999851 -0.015090 0.008376  0.619267 0.000281 1 73 1.000000
Material
0  -4.029952 -17.098413 -11.007306  -0.999851 -0.015090 0.008369  0.000276 0.157135 1 73 1.000000
0  -4.030016 -17.119432 -11.052958  -0.999851 -0.015090 0.008369  0.000275 0.134189 1 73 1.000000
0  -4.007062 -18.473503 -10.752328  -0.999851 -0.015090 0.008369  0.619267 0.000281 1 73 1.000000
Material
0  -3.067981 -16.326603 -9.331058  0.999858 -0.016046 0.005206  0.999704 0.999728 1 73 1.000000
0  -3.095989 -17.844975 -8.631943  0.999858 -0.016046 0.005206  0.236472 0.999709 1 73 1.000000
0  -3.095989 -17.909662 -8.831319  0.999858 -0.016046 0.005206  0.247719 0.904668 1 73 1.000000
Material
0  -3.068317 -16.389875 -9.468470  0.999849 -0.015847 0.007045  0.999704 0.930655 1 73 1.000000
0  -3.095989 -17.909662 -8.831319  0.999849 -0.015847 0.007045  0.247719 0.904668 1 73 1.000000
0  -3.095989 -18.262012 -9.752222  0.999849 -0.015846 0.007045  0.277454 0.455448 1 73 1.000000
Material
0  -3.095989 -17.918159 -8.598246  0.961204 -0.259352 0.093933  0.199684 0.999708 1 73 1.000000
0  -3.143125 -18.068623 -8.528967  0.961195 -0.259370 0.093976  0.124052 0.999707 1 73 1.000000
0  -3.143125 -18.129017 -8.698094  0.961204 -0.259352 0.093933  0.131303 0.918030 1 73 1.000000
end
