version 1
nodes
0 "ValveBiped.Bip01_Spine4" -1
1 "ValveBiped.Bip01_L_Clavicle" 0
2 "ValveBiped.Bip01_L_UpperArm" 1
3 "ValveBiped.Bip01_L_Forearm" 2
4 "ValveBiped.Bip01_L_Hand" 3
5 "ValveBiped.Bip01_L_Finger4" 4
6 "ValveBiped.Bip01_L_Finger41" 5
7 "ValveBiped.Bip01_L_Finger42" 6
8 "ValveBiped.Bip01_L_Finger3" 4
9 "ValveBiped.Bip01_L_Finger31" 8
10 "ValveBiped.Bip01_L_Finger32" 9
11 "ValveBiped.Bip01_L_Finger2" 4
12 "ValveBiped.Bip01_L_Finger21" 11
13 "ValveBiped.Bip01_L_Finger22" 12
14 "ValveBiped.Bip01_L_Finger1" 4
15 "ValveBiped.Bip01_L_Finger11" 14
16 "ValveBiped.Bip01_L_Finger12" 15
17 "ValveBiped.Bip01_L_Finger0" 4
18 "ValveBiped.Bip01_L_Finger01" 17
19 "ValveBiped.Bip01_L_Finger02" 18
20 "ValveBiped.Bip01_L_Ulna" 3
21 "ValveBiped.Bip01_L_Wrist" 3
22 "rig_l_upperarm" 1
23 "rig_l_forearm" 22
24 "rig_d_l_forearm" 23
25 "rig_d_l_upperarm" 22
26 "ValveBiped.Bip01_R_Clavicle" 0
27 "ValveBiped.Bip01_R_UpperArm" 26
28 "ValveBiped.Bip01_R_Forearm" 27
29 "ValveBiped.Bip01_R_Hand" 28
30 "ValveBiped.Bip01_R_Finger4" 29
31 "ValveBiped.Bip01_R_Finger41" 30
32 "ValveBiped.Bip01_R_Finger42" 31
33 "ValveBiped.Bip01_R_Finger3" 29
34 "ValveBiped.Bip01_R_Finger31" 33
35 "ValveBiped.Bip01_R_Finger32" 34
36 "ValveBiped.Bip01_R_Finger2" 29
37 "ValveBiped.Bip01_R_Finger21" 36
38 "ValveBiped.Bip01_R_Finger22" 37
39 "ValveBiped.Bip01_R_Finger1" 29
40 "ValveBiped.Bip01_R_Finger11" 39
41 "ValveBiped.Bip01_R_Finger12" 40
42 "ValveBiped.Bip01_R_Finger0" 29
43 "ValveBiped.Bip01_R_Finger01" 42
44 "ValveBiped.Bip01_R_Finger02" 43
45 "ValveBiped.Bip01_R_Ulna" 28
46 "ValveBiped.Bip01_R_Wrist" 28
47 "rig_r_upperarm" 26
48 "rig_r_forearm" 47
49 "rig_d_r_forearm" 48
50 "rig_d_r_upperarm" 47
51 "rig_r_hand" -1
52 "rig_d_r_hand" 51
53 "rig_d_r_wrist" 52
54 "rig_l_hand" -1
55 "rig_d_l_hand" 54
56 "rig_d_l_wrist" 54
57 "rig_l_pole" -1
58 "rig_r_pole" -1
59 "rig_l_clavicle" -1
60 "rig_d_l_clavicle" 59
61 "rig_r_clavicle" -1
62 "rig_d_r_clavicle" 61
63 "Camera" -1
64 "body" -1
65 "trigger" 64
66 "bolt" 64
67 "chandle" 66
68 "barrel" 64
69 "magrel" 64
70 "fireselector" 64
71 "fireselector_inverted" 64
72 "magrel9mm" 64
73 "fakemag" -1
74 "fakerounds" 73
75 "mag" -1
76 "bullet1" 75
77 "bullet3" 75
78 "bullet2" 75
79 "bullet4" 75
80 "bizonmag" -1
81 "fakeroundsbizon" 80
82 "fakebizonmag" -1
83 "bullet1bizon" 82
84 "bullet2bizon" 82
end
skeleton
time 0
0  0.000006 0.000000 0.000000  -1.570800 -1.391899 -1.570792
1  2.033349 1.000767 1.937657  -1.544956 -1.855077 -0.198630
2  6.027515 -0.000324 0.000201  -1.583284 0.045954 -0.585171
3  11.692119 0.000650 -0.000737  -0.000012 0.000001 -0.056696
4  11.481224 0.000160 -0.000727  1.576889 -0.106574 0.041971
5  3.859504 -0.142825 -1.192079  -0.468169 0.151546 -0.880257
6  1.312590 0.000009 0.000007  -0.000027 0.000044 -0.439740
7  0.729357 0.000054 0.000049  0.000017 0.000021 -0.244317
8  3.942141 0.046330 -0.431543  -0.151817 0.073216 -0.811086
9  1.539113 0.000082 0.000004  -0.000007 0.000021 -0.247842
10  1.196331 0.000148 0.000029  0.000011 0.000018 -0.430770
11  3.883512 -0.047212 0.431351  0.085894 0.021858 -0.587909
12  1.719573 -0.000030 0.000017  0.000015 0.005518 -0.366533
13  1.209181 0.000090 0.000012  0.000004 0.003091 -0.216438
14  3.859679 -0.138420 1.332380  0.354466 -0.042717 -0.531784
15  1.719446 -0.000022 0.000029  0.000028 0.004066 -0.363025
16  1.099675 0.000049 0.000005  0.000003 0.002578 -0.244381
17  0.806011 -0.349039 1.321247  -1.222694 -0.679188 -0.788867
18  1.789819 -0.000005 -0.000017  0.000011 -0.000024 0.228523
19  1.207014 -0.000014 -0.000043  0.000002 -0.000008 0.362856
20  5.740638 0.000388 -0.000698  0.003035 0.000003 0.000063
21  11.481259 0.000207 -0.000799  0.004953 0.000188 -0.001556
22  6.027525 -0.000330 0.000200  0.059595 -2.453119 -2.193920
23  0.000000 11.692101 -0.000007  -0.043320 -0.000838 -0.036616
24  0.000003 0.000010 0.000000  0.868996 -0.000031 1.570739
25  -0.000001 -0.000012 -0.000001  0.868960 0.000002 1.570712
26  2.033355 1.000772 -1.937609  1.473120 1.855075 -0.198639
27  6.027509 -0.000259 -0.000228  1.639678 -0.005914 -0.586605
28  11.691991 0.000163 0.000859  -0.000047 -0.000002 -0.056019
29  11.481180 0.000159 0.000812  -1.565090 0.106510 0.041985
30  3.859439 -0.132758 1.193065  0.466290 -0.158048 -0.878823
31  1.312561 0.000024 -0.000000  0.000013 -0.000043 -0.439709
32  0.729345 0.000064 -0.000028  -0.000023 -0.000019 -0.244286
33  3.942048 0.050138 0.431000  0.150091 -0.079181 -0.810189
34  1.539098 0.000005 0.000000  0.000009 -0.000007 -0.247824
35  1.196302 0.000078 -0.000004  -0.000007 -0.000009 -0.430781
36  3.883415 -0.050474 -0.431084  -0.085915 -0.026392 -0.587660
37  1.719563 -0.000083 -0.000004  -0.000006 -0.007962 -0.366486
38  1.209197 0.000034 0.000011  0.000002 -0.004461 -0.216413
39  3.859589 -0.149084 -1.331321  -0.354445 0.038578 -0.531955
40  1.719413 -0.000097 -0.000038  -0.000030 -0.006584 -0.363030
41  1.099675 0.000021 0.000007  0.000004 -0.004188 -0.244347
42  0.805983 -0.359850 -1.318338  1.221444 0.673631 -0.793558
43  1.789779 -0.000010 -0.000040  -0.000028 0.000031 0.228553
44  1.206993 -0.000007 0.000005  -0.000017 0.000020 0.362910
45  5.740573 0.000079 0.000720  0.002190 -0.000014 0.000028
46  11.481181 0.000106 0.000906  -0.000016 -0.000090 -0.001837
47  6.027515 -0.000273 -0.000228  0.007346 -0.632954 -2.161819
48  -0.000001 11.691978 -0.000007  -0.042770 0.000797 0.036154
49  0.000002 0.000000 0.000000  2.272571 -0.000036 1.570860
50  -0.000008 -0.000013 0.000005  2.272645 -0.000036 1.570861
51  -22.676567 -0.984331 -17.554111  -1.605366 2.379717 -0.041994
52  0.000001 0.000002 -0.000000  0.008153 -0.000259 0.000009
53  -0.000000 -0.000001 0.000000  1.565115 0.043565 -0.106862
54  22.676517 -0.984221 -17.554199  1.605712 0.761853 0.042358
55  0.000001 -0.000003 -0.000000  0.000000 -0.000001 -0.000002
56  0.000032 0.000027 0.000001  -1.571901 -0.044449 -0.106509
57  15.265023 8.339654 -8.787539  1.570796 -0.000000 0.000000
58  -15.265000 8.339654 -8.787539  1.570796 -0.000000 0.000000
59  1.941978 -1.346989 1.821586  1.570796 -0.000000 0.000000
60  -0.004311 0.001230 -0.000371  0.006898 -0.005534 -0.284229
61  -1.937603 -1.346625 1.822824  1.570796 -0.000000 0.000000
62  0.000000 0.000000 0.000000  -0.078727 -3.136056 0.284226
63  0.000000 0.000000 0.000000  1.570796 -0.000000 0.000000
64  -3.590840 -11.939873 -2.851932  1.570796 -0.000000 0.000000
65  0.048105 -2.944859 0.933263  0.000000 -0.000000 0.000000
66  0.048105 -1.112260 5.803837  0.000000 -0.000000 0.000000
67  -1.140610 -0.098565 1.093603  0.000000 -0.000000 0.000000
68  0.217551 -1.673973 20.274757  0.000000 -0.000000 0.000000
69  0.217546 -3.706013 2.941690  0.000000 -0.000000 0.000000
70  0.048105 -1.885239 -0.022553  0.000000 -0.000000 0.000000
71  -0.082569 -1.959166 -0.004310  0.000000 -0.000000 0.000000
72  0.217546 -3.788155 3.509795  0.000000 -0.000000 0.000000
73  -3.588360 -16.646259 -6.949106  1.570796 -0.000000 0.000000
74  0.017809 1.799356 -0.402361  0.000000 -0.000000 0.000000
75  -3.588360 -16.646259 -6.949106  1.570796 -0.000000 0.000000
76  0.088237 2.028859 -0.387793  0.000000 -0.000000 0.000000
77  0.089166 1.580731 -0.409891  0.000000 -0.000000 0.000000
78  -0.263817 1.788471 -0.409405  0.000000 -0.000000 0.000000
79  -0.263817 1.287951 -0.409405  0.000000 -0.000000 0.000000
80  -3.588360 -24.729397 -6.123081  1.570796 -0.000000 0.000000
81  0.017809 0.973330 -8.485498  0.000000 -0.000000 0.000000
82  -3.588360 -24.729397 -6.123081  1.570796 -0.000000 0.000000
83  0.088237 1.202834 -8.470930  0.000000 -0.000000 0.000000
84  -0.263817 0.962445 -8.492542  0.000000 -0.000000 0.000000
end
triangles
Material
0  -3.095989 -17.146315 -5.936792  0.781650 -0.205394 0.588928  0.209271 0.943795 1 75 1.000000
0  -3.143125 -17.214050 -5.897856  0.781650 -0.205394 0.588928  0.172491 0.956566 1 75 1.000000
0  -3.143125 -17.428556 -5.972666  0.781650 -0.205394 0.588928  0.074422 0.900010 1 75 1.000000
Material
0  -3.954739 -17.214050 -5.897856  -0.575125 -0.269395 0.772436  0.827509 0.956566 1 75 1.000000
0  -4.038762 -17.146315 -5.936792  -0.575125 -0.269395 0.772436  0.790729 0.943795 1 75 1.000000
0  -3.954739 -17.428556 -5.972666  -0.575125 -0.269395 0.772436  0.925578 0.900010 1 75 1.000000
Material
0  -3.143125 -17.428556 -5.972666  0.976902 -0.206572 0.054687  0.074422 0.900010 1 75 1.000000
0  -3.095989 -17.321440 -6.410067  0.976902 -0.206572 0.054691  0.167503 0.695811 1 75 1.000000
0  -3.095989 -17.146315 -5.936792  0.976902 -0.206572 0.054690  0.209271 0.943795 1 75 1.000000
Material
0  -3.143125 -17.214050 -5.897856  1.000000 0.000000 0.000000  0.172491 0.956566 1 75 1.000000
0  -3.143125 -17.389608 -5.776278  1.000000 0.000000 0.000000  0.075245 0.999780 1 75 1.000000
0  -3.143125 -17.428556 -5.972666  1.000000 0.000000 0.000000  0.074422 0.900010 1 75 1.000000
Material
0  -3.143125 -17.474693 -6.335286  0.644866 0.165732 0.746110  0.085524 0.718186 1 75 1.000000
0  -3.095989 -17.483906 -6.373979  0.644866 0.165732 0.746110  0.084609 0.698386 1 75 1.000000
0  -3.095989 -17.321440 -6.410067  0.644866 0.165732 0.746110  0.167503 0.695811 1 75 1.000000
Material
0  -3.143125 -17.493118 -6.412672  0.644866 -0.165732 -0.746110  0.083693 0.678586 1 75 1.000000
0  -3.095989 -17.321440 -6.410067  0.644866 -0.165732 -0.746110  0.167503 0.695811 1 75 1.000000
0  -3.095989 -17.483906 -6.373979  0.644866 -0.165732 -0.746110  0.084609 0.698386 1 75 1.000000
Material
0  -3.143125 -17.493118 -6.412672  0.642231 -0.265168 -0.719184  0.083693 0.678586 1 75 1.000000
0  -3.130274 -17.650536 -6.343155  0.642231 -0.265168 -0.719184  0.000165 0.697997 1 75 1.000000
0  -3.143125 -17.652571 -6.353880  0.642231 -0.265168 -0.719184  0.000165 0.692557 1 75 1.000000
Material
0  -3.954739 -17.493118 -6.412672  -0.644866 -0.165732 -0.746110  0.916307 0.678586 1 75 1.000000
0  -4.001875 -17.483906 -6.373979  -0.644866 -0.165732 -0.746110  0.915391 0.698386 1 75 1.000000
0  -4.001875 -17.321440 -6.410067  -0.644866 -0.165732 -0.746110  0.832497 0.695811 1 75 1.000000
Material
0  -4.001875 -17.321440 -6.410067  -0.644860 0.165733 0.746115  0.832497 0.695811 1 75 1.000000
0  -4.001875 -17.483906 -6.373979  -0.644860 0.165733 0.746115  0.915391 0.698386 1 75 1.000000
0  -3.954739 -17.474693 -6.335286  -0.644860 0.165733 0.746115  0.914476 0.718186 1 75 1.000000
Material
0  -3.954739 -17.493118 -6.412672  -0.642193 -0.265184 -0.719212  0.916307 0.678586 1 75 1.000000
0  -3.967590 -17.650536 -6.343155  -0.642193 -0.265184 -0.719212  0.999835 0.697997 1 75 1.000000
0  -4.001875 -17.483906 -6.373979  -0.642193 -0.265184 -0.719212  0.915391 0.698386 1 75 1.000000
Material
0  -3.143125 -17.576870 -6.815083  0.644857 0.154713 0.748480  0.080076 0.473786 1 75 1.000000
0  -3.095989 -17.585510 -6.853908  0.644857 0.154713 0.748480  0.079452 0.453974 1 75 1.000000
0  -3.095989 -17.425194 -6.887046  0.644857 0.154713 0.748480  0.161021 0.452645 1 75 1.000000
Material
0  -3.143125 -17.594151 -6.892733  0.644871 -0.154710 -0.748469  0.078830 0.434163 1 75 1.000000
0  -3.095989 -17.425194 -6.887046  0.644871 -0.154710 -0.748469  0.161021 0.452645 1 75 1.000000
0  -3.095989 -17.585510 -6.853908  0.644871 -0.154710 -0.748469  0.079452 0.453974 1 75 1.000000
Material
0  -3.143125 -17.594151 -6.892733  0.642226 -0.254524 -0.723024  0.078830 0.434163 1 75 1.000000
0  -3.128177 -17.742361 -6.827281  0.642226 -0.254524 -0.723024  0.000187 0.452439 1 75 1.000000
0  -3.143125 -17.744720 -6.839727  0.642226 -0.254524 -0.723024  0.000187 0.446126 1 75 1.000000
Material
0  -3.954739 -17.594151 -6.892733  -0.644871 -0.154712 -0.748469  0.921170 0.434163 1 75 1.000000
0  -4.001875 -17.585510 -6.853908  -0.644871 -0.154712 -0.748469  0.920548 0.453974 1 75 1.000000
0  -4.001875 -17.425194 -6.887046  -0.644871 -0.154712 -0.748469  0.838979 0.452645 1 75 1.000000
Material
0  -4.001875 -17.425194 -6.887046  -0.644854 0.154715 0.748483  0.838979 0.452645 1 75 1.000000
0  -4.001875 -17.585510 -6.853908  -0.644854 0.154715 0.748483  0.920548 0.453974 1 75 1.000000
0  -3.954739 -17.576870 -6.815083  -0.644854 0.154715 0.748483  0.919924 0.473786 1 75 1.000000
Material
0  -3.954739 -17.594151 -6.892733  -0.642199 -0.254528 -0.723046  0.921170 0.434163 1 75 1.000000
0  -3.969687 -17.742361 -6.827281  -0.642199 -0.254528 -0.723046  0.999813 0.452439 1 75 1.000000
0  -4.001875 -17.585510 -6.853908  -0.642199 -0.254528 -0.723046  0.920548 0.453974 1 75 1.000000
Material
0  -3.954739 -17.710167 -7.383304  -0.642202 -0.307578 -0.702120  0.932393 0.183202 1 75 1.000000
0  -3.973619 -17.834236 -7.311685  -0.642202 -0.307578 -0.702120  0.999790 0.206740 1 75 1.000000
0  -4.001875 -17.698664 -7.345229  -0.642202 -0.307578 -0.702120  0.930299 0.202912 1 75 1.000000
Material
0  -3.143125 -17.687160 -7.307154  0.644875 0.209906 0.734898  0.071795 0.222622 1 75 1.000000
0  -3.095989 -17.698664 -7.345229  0.644875 0.209906 0.734898  0.069701 0.202912 1 75 1.000000
0  -3.095989 -17.538637 -7.390936  0.644875 0.209906 0.734898  0.152295 0.195402 1 75 1.000000
Material
0  -3.143125 -17.710167 -7.383304  0.644876 -0.209903 -0.734899  0.067607 0.183202 1 75 1.000000
0  -3.095989 -17.538637 -7.390936  0.644876 -0.209903 -0.734899  0.152295 0.195402 1 75 1.000000
0  -3.095989 -17.698664 -7.345229  0.644876 -0.209903 -0.734899  0.069701 0.202912 1 75 1.000000
Material
0  -3.954739 -17.710167 -7.383304  -0.644870 -0.209902 -0.734904  0.932393 0.183202 1 75 1.000000
0  -4.001875 -17.698664 -7.345229  -0.644870 -0.209902 -0.734904  0.930299 0.202912 1 75 1.000000
0  -4.001875 -17.538637 -7.390936  -0.644870 -0.209902 -0.734904  0.847705 0.195402 1 75 1.000000
Material
0  -3.143125 -17.710167 -7.383304  0.642213 -0.307571 -0.702113  0.067607 0.183202 1 75 1.000000
0  -3.124245 -17.834236 -7.311685  0.642213 -0.307571 -0.702113  0.000210 0.206740 1 75 1.000000
0  -3.143125 -17.837261 -7.327628  0.642213 -0.307571 -0.702113  0.000211 0.198654 1 75 1.000000
Material
0  -4.001875 -17.538637 -7.390936  -0.644868 0.209902 0.734906  0.847705 0.195402 1 75 1.000000
0  -4.001875 -17.698664 -7.345229  -0.644868 0.209902 0.734906  0.930299 0.202912 1 75 1.000000
0  -3.954739 -17.687160 -7.307154  -0.644868 0.209902 0.734906  0.928205 0.222622 1 75 1.000000
Material
0  -3.095989 -17.321440 -6.410067  0.961684 -0.268131 0.057179  0.167503 0.695811 1 75 1.000000
0  -3.143125 -17.576870 -6.815083  0.961684 -0.268131 0.057179  0.080076 0.473786 1 75 1.000000
0  -3.095989 -17.425194 -6.887046  0.961684 -0.268132 0.057179  0.161021 0.452645 1 75 1.000000
Material
0  -4.001875 -17.321440 -6.410067  -0.961680 -0.268145 0.057188  0.832497 0.695811 1 75 1.000000
0  -3.954739 -17.576870 -6.815083  -0.961680 -0.268145 0.057187  0.919924 0.473786 1 75 1.000000
0  -3.954739 -17.493118 -6.412672  -0.961680 -0.268145 0.057188  0.916307 0.678586 1 75 1.000000
Material
0  -3.143125 -17.710167 -7.383304  0.961804 -0.263870 0.072843  0.067607 0.183202 1 75 1.000000
0  -3.095989 -17.644993 -7.769593  0.961804 -0.263870 0.072843  0.135404 0.000131 1 75 1.000000
0  -3.095989 -17.538637 -7.390936  0.961804 -0.263870 0.072844  0.152295 0.195402 1 75 1.000000
Material
0  -3.095989 -17.425194 -6.887046  0.960775 -0.270555 0.060913  0.161021 0.452645 1 75 1.000000
0  -3.143125 -17.687160 -7.307154  0.960775 -0.270555 0.060913  0.071795 0.222622 1 75 1.000000
0  -3.095989 -17.538637 -7.390936  0.960775 -0.270555 0.060913  0.152295 0.195402 1 75 1.000000
Material
0  -4.001875 -17.425194 -6.887046  -1.000000 0.000000 0.000000  0.838979 0.452645 1 75 1.000000
0  -4.001875 -17.321440 -6.410067  -1.000000 0.000000 0.000000  0.832497 0.695811 1 75 1.000000
0  -4.001875 -17.346869 -6.894410  -1.000000 0.000000 0.000000  0.799948 0.456316 1 75 1.000000
Material
0  -4.001875 -17.575264 -7.782817  -1.000000 0.000000 0.000000  0.829229 0.000134 1 75 1.000000
0  -4.001875 -17.538637 -7.390936  -1.000000 0.000000 0.000000  0.847705 0.195402 1 75 1.000000
0  -4.001875 -17.346869 -6.894410  -1.000000 0.000000 0.000000  0.799948 0.456316 1 75 1.000000
Material
0  -4.001875 -17.321440 -6.410067  -0.957793 -0.285525 0.033293  0.832497 0.695811 1 75 1.000000
0  -3.954739 -17.428556 -5.972666  -0.957793 -0.285525 0.033293  0.925578 0.900010 1 75 1.000000
0  -4.038762 -17.146315 -5.936792  -0.957793 -0.285525 0.033293  0.790729 0.943795 1 75 1.000000
Material
0  -4.001875 -17.538637 -7.390936  -1.000000 0.000007 0.000000  0.847705 0.195402 1 75 1.000000
0  -4.001875 -17.425194 -6.887046  -1.000000 0.000007 0.000000  0.838979 0.452645 1 75 1.000000
0  -4.001875 -17.346869 -6.894410  -1.000000 0.000007 0.000000  0.799948 0.456316 1 75 1.000000
Material
0  -4.038762 -17.146315 -5.936792  -0.971095 -0.238364 0.012515  0.790729 0.943795 1 75 1.000000
0  -4.001875 -17.346869 -6.894410  -0.971095 -0.238364 0.012515  0.799948 0.456316 1 75 1.000000
0  -4.001875 -17.321440 -6.410067  -0.971095 -0.238364 0.012515  0.832497 0.695811 1 75 1.000000
Material
0  -3.095989 -17.146315 -5.936792  1.000000 0.000007 -0.000000  0.209271 0.943795 1 75 1.000000
0  -3.095989 -17.321440 -6.410067  1.000000 0.000007 -0.000000  0.167503 0.695811 1 75 1.000000
0  -3.095989 -17.346869 -6.894410  1.000000 0.000007 -0.000000  0.200052 0.456316 1 75 1.000000
Material
0  -3.095989 -17.321440 -6.410067  1.000000 0.000001 0.000000  0.167503 0.695811 1 75 1.000000
0  -3.095989 -17.425194 -6.887046  1.000000 0.000001 0.000000  0.161021 0.452645 1 75 1.000000
0  -3.095989 -17.346869 -6.894410  1.000000 0.000001 0.000000  0.200052 0.456316 1 75 1.000000
Material
0  -3.095989 -17.425194 -6.887046  1.000000 0.000006 0.000000  0.161021 0.452645 1 75 1.000000
0  -3.095989 -17.538637 -7.390936  1.000000 0.000006 0.000000  0.152295 0.195402 1 75 1.000000
0  -3.095989 -17.346869 -6.894410  1.000000 0.000006 0.000000  0.200052 0.456316 1 75 1.000000
Material
0  -4.001875 -17.644993 -7.769593  -0.961827 -0.263779 0.072862  0.864596 0.000131 1 75 1.000000
0  -3.954739 -17.710167 -7.383304  -0.961827 -0.263779 0.072863  0.932393 0.183202 1 75 1.000000
0  -4.001875 -17.538637 -7.390936  -0.961815 -0.263825 0.072853  0.847705 0.195402 1 75 1.000000
Material
0  -3.954739 -17.428556 -5.972666  -1.000000 0.000001 0.000000  0.925578 0.900010 1 75 1.000000
0  -3.954739 -17.537685 -5.748192  -1.000000 0.000001 0.000000  0.999861 0.999773 1 75 1.000000
0  -3.954739 -17.389608 -5.776278  -1.000000 0.000001 0.000000  0.924755 0.999780 1 75 1.000000
Material
0  -4.001875 -17.425194 -6.887046  -0.960916 -0.270122 0.060624  0.838979 0.452645 1 75 1.000000
0  -3.954739 -17.687160 -7.307154  -0.960916 -0.270122 0.060624  0.928205 0.222622 1 75 1.000000
0  -3.954739 -17.594151 -6.892733  -0.960916 -0.270122 0.060624  0.921170 0.434163 1 75 1.000000
Material
0  -3.143125 -17.214050 -5.897856  0.814793 -0.576881 0.057625  0.172491 0.956566 1 75 1.000000
0  -3.090322 -17.132204 -5.825099  0.814795 -0.576879 0.057627  0.205803 0.999791 1 75 1.000000
0  -3.143125 -17.200441 -5.812157  0.814797 -0.576876 0.057630  0.171192 0.999788 1 75 1.000000
Material
0  -3.095989 -17.146315 -5.936792  0.999828 -0.018497 0.001286  0.209271 0.943795 1 75 1.000000
0  -3.095989 -17.346869 -6.894410  0.999828 -0.018497 0.001286  0.200052 0.456316 1 75 1.000000
0  -3.063889 -15.566833 -6.122003  0.999828 -0.018497 0.001286  0.999774 0.999858 1 75 1.000000
Material
0  -3.954739 -17.576397 -5.952274  -1.000000 -0.000003 0.000000  0.999853 0.896259 1 75 1.000000
0  -3.954739 -17.474693 -6.335286  -1.000000 -0.000003 0.000000  0.914476 0.718186 1 75 1.000000
0  -3.954739 -17.648533 -6.332598  -1.000000 -0.000003 0.000000  0.999835 0.703352 1 75 1.000000
Material
0  -3.954739 -17.831320 -7.296307  -1.000000 0.000000 0.000000  0.999791 0.214540 1 75 1.000000
0  -3.954739 -17.594151 -6.892733  -1.000000 0.000000 0.000000  0.921170 0.434163 1 75 1.000000
0  -3.954739 -17.687160 -7.307154  -1.000000 0.000000 0.000000  0.928205 0.222622 1 75 1.000000
Material
0  -4.038762 -17.132204 -5.825099  -1.000000 0.000000 0.000000  0.794197 0.999791 1 75 1.000000
0  -4.038762 -16.023561 -6.035376  -1.000000 0.000000 0.000000  0.231883 0.999838 1 75 1.000000
0  -4.038762 -17.146315 -5.936792  -1.000000 0.000000 0.000000  0.790729 0.943795 1 75 1.000000
Material
0  -4.001875 -17.346869 -6.894410  -0.999822 -0.016231 -0.009584  0.799948 0.456316 1 75 1.000000
0  -4.038762 -16.023561 -6.035376  -0.999822 -0.016230 -0.009584  0.231883 0.999838 1 75 1.000000
0  -4.033185 -15.807652 -7.390814  -0.999822 -0.016231 -0.009584  0.000247 0.356278 1 75 1.000000
Material
0  -3.143125 -17.652571 -6.353880  1.000000 0.000000 0.000000  0.000165 0.692557 1 75 1.000000
0  -3.143125 -17.576870 -6.815083  1.000000 0.000000 0.000000  0.080076 0.473786 1 75 1.000000
0  -3.143125 -17.493118 -6.412672  1.000000 0.000000 0.000000  0.083693 0.678586 1 75 1.000000
Material
0  -3.954739 -17.911497 -7.719045  -1.000000 0.000000 0.000000  0.999770 0.000119 1 75 1.000000
0  -3.954739 -17.710167 -7.383304  -1.000000 0.000000 0.000000  0.932393 0.183202 1 75 1.000000
0  -3.954739 -17.806614 -7.738938  -1.000000 0.000000 0.000000  0.946572 0.000124 1 75 1.000000
Material
0  -4.038702 -15.881571 -6.062307  -0.999892 0.014288 -0.003357  0.159864 0.999845 1 75 1.000000
0  -4.034003 -15.566833 -6.122003  -0.999892 0.014288 -0.003357  0.000226 0.999858 1 75 1.000000
0  -4.033185 -15.807652 -7.390814  -0.999892 0.014288 -0.003357  0.000247 0.356278 1 75 1.000000
Material
0  -3.143125 -17.537685 -5.748192  1.000000 0.000000 0.000000  0.000139 0.999773 1 75 1.000000
0  -3.143125 -17.428556 -5.972666  1.000000 0.000000 0.000000  0.074422 0.900010 1 75 1.000000
0  -3.143125 -17.389608 -5.776278  1.000000 0.000000 0.000000  0.075245 0.999780 1 75 1.000000
Material
0  -3.143125 -17.831320 -7.296307  1.000000 0.000002 0.000000  0.000209 0.214540 1 75 1.000000
0  -3.143125 -17.594151 -6.892733  1.000000 0.000002 0.000000  0.078830 0.434163 1 75 1.000000
0  -3.143125 -17.744720 -6.839727  1.000000 0.000002 0.000000  0.000187 0.446126 1 75 1.000000
Material
0  -3.954739 -17.389608 -5.776278  -1.000000 0.000000 0.000000  0.924755 0.999780 1 75 1.000000
0  -3.954739 -17.214050 -5.897856  -1.000000 0.000000 0.000000  0.827509 0.956566 1 75 1.000000
0  -3.954739 -17.428556 -5.972666  -1.000000 0.000000 0.000000  0.925578 0.900010 1 75 1.000000
Material
0  -4.001875 -17.586536 -7.780680  -1.000000 0.000000 0.000000  0.834947 0.000134 1 75 1.000000
0  -4.001875 -17.644993 -7.769593  -1.000000 0.000000 0.000000  0.864596 0.000131 1 75 1.000000
0  -4.001875 -17.538637 -7.390936  -1.000000 0.000000 0.000000  0.847705 0.195402 1 75 1.000000
Material
0  -3.143125 -17.648533 -6.332598  0.635843 0.011935 0.771726  0.000165 0.703352 1 75 1.000000
0  -3.095989 -17.483906 -6.373979  0.635843 0.011935 0.771726  0.084609 0.698386 1 75 1.000000
0  -3.143125 -17.474693 -6.335286  0.635843 0.011935 0.771726  0.085524 0.718186 1 75 1.000000
Material
0  -3.095989 -17.575264 -7.782817  1.000000 0.000000 0.000000  0.170771 0.000134 1 75 1.000000
0  -3.095989 -17.538637 -7.390936  1.000000 0.000000 0.000000  0.152295 0.195402 1 75 1.000000
0  -3.095989 -17.586536 -7.780680  1.000000 0.000000 0.000000  0.165053 0.000134 1 75 1.000000
Material
0  -3.143125 -17.911497 -7.719045  1.000000 0.000000 0.000000  0.000230 0.000119 1 75 1.000000
0  -3.143125 -17.710167 -7.383304  1.000000 0.000000 0.000000  0.067607 0.183202 1 75 1.000000
0  -3.143125 -17.837261 -7.327628  1.000000 0.000000 0.000000  0.000211 0.198654 1 75 1.000000
Material
0  -4.038762 -17.132204 -5.825099  -0.645063 -0.756701 0.106291  0.794197 0.999791 1 75 1.000000
0  -3.954739 -17.214050 -5.897856  -0.645064 -0.756700 0.106292  0.827509 0.956566 1 75 1.000000
0  -3.954739 -17.200441 -5.812157  -0.645062 -0.756701 0.106291  0.828808 0.999788 1 75 1.000000
Material
0  -3.954739 -17.648533 -6.332598  -0.635805 0.011936 0.771758  0.999835 0.703352 1 75 1.000000
0  -4.001875 -17.483906 -6.373979  -0.635805 0.011936 0.771758  0.915391 0.698386 1 75 1.000000
0  -3.967590 -17.650536 -6.343155  -0.635805 0.011936 0.771758  0.999835 0.697997 1 75 1.000000
Material
0  -3.095989 -17.644993 -7.769593  1.000000 0.000010 0.000000  0.135404 0.000131 1 75 1.000000
0  -3.095989 -17.586536 -7.780680  1.000000 0.000010 0.000000  0.165053 0.000134 1 75 1.000000
0  -3.095989 -17.538637 -7.390936  1.000000 0.000010 0.000000  0.152295 0.195402 1 75 1.000000
Material
0  -3.143125 -17.740025 -6.814969  0.635842 0.000540 0.771819  0.000186 0.458684 1 75 1.000000
0  -3.095989 -17.585510 -6.853908  0.635842 0.000540 0.771819  0.079452 0.453974 1 75 1.000000
0  -3.143125 -17.576870 -6.815083  0.635842 0.000540 0.771819  0.080076 0.473786 1 75 1.000000
Material
0  -3.954739 -17.740025 -6.814969  -0.635779 0.000542 0.771871  0.999814 0.458684 1 75 1.000000
0  -4.001875 -17.585510 -6.853908  -0.635779 0.000542 0.771871  0.920548 0.453974 1 75 1.000000
0  -3.969687 -17.742361 -6.827281  -0.635779 0.000542 0.771871  0.999813 0.452439 1 75 1.000000
Material
0  -4.029617 -15.891091 -7.830441  -0.999854 -0.016367 0.004927  0.000253 0.133285 1 75 1.000000
0  -4.030095 -15.940886 -8.092810  -0.999854 -0.016367 0.004927  0.000257 0.000204 1 75 1.000000
0  -4.008785 -17.172382 -7.859232  -0.999854 -0.016367 0.004927  0.624883 0.000152 1 75 1.000000
Material
0  -3.973619 -17.834236 -7.311685  -0.635846 0.057910 0.769641  0.999790 0.206740 1 75 1.000000
0  -3.954739 -17.687160 -7.307154  -0.635846 0.057910 0.769641  0.928205 0.222622 1 75 1.000000
0  -4.001875 -17.698664 -7.345229  -0.635846 0.057910 0.769641  0.930299 0.202912 1 75 1.000000
Material
0  -3.089079 -17.172382 -7.859232  0.999854 -0.016367 0.004928  0.375117 0.000152 1 75 1.000000
0  -3.067770 -15.940886 -8.092810  0.999854 -0.016367 0.004928  0.999743 0.000204 1 75 1.000000
0  -3.068248 -15.891091 -7.830441  0.999854 -0.016367 0.004928  0.999747 0.133285 1 75 1.000000
Material
0  -3.124245 -17.834236 -7.311685  0.635845 0.057906 0.769641  0.000210 0.206740 1 75 1.000000
0  -3.143125 -17.687160 -7.307154  0.635845 0.057906 0.769641  0.071795 0.222622 1 75 1.000000
0  -3.143125 -17.831320 -7.296307  0.635845 0.057906 0.769641  0.000209 0.214540 1 75 1.000000
Material
0  -3.143125 -17.576397 -5.952274  1.000000 0.000000 0.000000  0.000147 0.896259 1 75 1.000000
0  -3.143125 -17.474693 -6.335286  1.000000 0.000000 0.000000  0.085524 0.718186 1 75 1.000000
0  -3.143125 -17.428556 -5.972666  1.000000 0.000000 0.000000  0.074422 0.900010 1 75 1.000000
Material
0  -3.954739 -17.652571 -6.353880  -1.000000 0.000002 0.000000  0.999835 0.692557 1 75 1.000000
0  -3.954739 -17.576870 -6.815083  -1.000000 0.000002 0.000000  0.919924 0.473786 1 75 1.000000
0  -3.954739 -17.740025 -6.814969  -1.000000 0.000002 0.000000  0.999814 0.458684 1 75 1.000000
Material
0  -3.095989 -17.146315 -5.936792  0.781650 -0.205394 0.588928  0.209271 0.943795 1 73 1.000000
0  -3.143125 -17.214050 -5.897856  0.781650 -0.205394 0.588928  0.172491 0.956566 1 73 1.000000
0  -3.143125 -17.428556 -5.972666  0.781650 -0.205394 0.588928  0.074422 0.900010 1 73 1.000000
Material
0  -3.954739 -17.214050 -5.897856  -0.575125 -0.269395 0.772436  0.827509 0.956566 1 73 1.000000
0  -4.038762 -17.146315 -5.936792  -0.575125 -0.269395 0.772436  0.790729 0.943795 1 73 1.000000
0  -3.954739 -17.428556 -5.972666  -0.575125 -0.269395 0.772436  0.925578 0.900010 1 73 1.000000
Material
0  -3.143125 -17.428556 -5.972666  0.976902 -0.206572 0.054687  0.074422 0.900010 1 73 1.000000
0  -3.095989 -17.321440 -6.410067  0.976902 -0.206572 0.054691  0.167503 0.695811 1 73 1.000000
0  -3.095989 -17.146315 -5.936792  0.976902 -0.206572 0.054690  0.209271 0.943795 1 73 1.000000
Material
0  -3.143125 -17.214050 -5.897856  1.000000 0.000000 0.000000  0.172491 0.956566 1 73 1.000000
0  -3.143125 -17.389608 -5.776278  1.000000 0.000000 0.000000  0.075245 0.999780 1 73 1.000000
0  -3.143125 -17.428556 -5.972666  1.000000 0.000000 0.000000  0.074422 0.900010 1 73 1.000000
Material
0  -3.143125 -17.474693 -6.335286  0.644866 0.165732 0.746110  0.085524 0.718186 1 73 1.000000
0  -3.095989 -17.483906 -6.373979  0.644866 0.165732 0.746110  0.084609 0.698386 1 73 1.000000
0  -3.095989 -17.321440 -6.410067  0.644866 0.165732 0.746110  0.167503 0.695811 1 73 1.000000
Material
0  -3.143125 -17.493118 -6.412672  0.644866 -0.165732 -0.746110  0.083693 0.678586 1 73 1.000000
0  -3.095989 -17.321440 -6.410067  0.644866 -0.165732 -0.746110  0.167503 0.695811 1 73 1.000000
0  -3.095989 -17.483906 -6.373979  0.644866 -0.165732 -0.746110  0.084609 0.698386 1 73 1.000000
Material
0  -3.143125 -17.493118 -6.412672  0.642231 -0.265168 -0.719184  0.083693 0.678586 1 73 1.000000
0  -3.130274 -17.650536 -6.343155  0.642231 -0.265168 -0.719184  0.000165 0.697997 1 73 1.000000
0  -3.143125 -17.652571 -6.353880  0.642231 -0.265168 -0.719184  0.000165 0.692557 1 73 1.000000
Material
0  -3.954739 -17.493118 -6.412672  -0.644866 -0.165732 -0.746110  0.916307 0.678586 1 73 1.000000
0  -4.001875 -17.483906 -6.373979  -0.644866 -0.165732 -0.746110  0.915391 0.698386 1 73 1.000000
0  -4.001875 -17.321440 -6.410067  -0.644866 -0.165732 -0.746110  0.832497 0.695811 1 73 1.000000
Material
0  -4.001875 -17.321440 -6.410067  -0.644860 0.165733 0.746115  0.832497 0.695811 1 73 1.000000
0  -4.001875 -17.483906 -6.373979  -0.644860 0.165733 0.746115  0.915391 0.698386 1 73 1.000000
0  -3.954739 -17.474693 -6.335286  -0.644860 0.165733 0.746115  0.914476 0.718186 1 73 1.000000
Material
0  -3.954739 -17.493118 -6.412672  -0.642193 -0.265184 -0.719212  0.916307 0.678586 1 73 1.000000
0  -3.967590 -17.650536 -6.343155  -0.642193 -0.265184 -0.719212  0.999835 0.697997 1 73 1.000000
0  -4.001875 -17.483906 -6.373979  -0.642193 -0.265184 -0.719212  0.915391 0.698386 1 73 1.000000
Material
0  -3.143125 -17.576870 -6.815083  0.644857 0.154713 0.748480  0.080076 0.473786 1 73 1.000000
0  -3.095989 -17.585510 -6.853908  0.644857 0.154713 0.748480  0.079452 0.453974 1 73 1.000000
0  -3.095989 -17.425194 -6.887046  0.644857 0.154713 0.748480  0.161021 0.452645 1 73 1.000000
Material
0  -3.143125 -17.594151 -6.892733  0.644871 -0.154710 -0.748469  0.078830 0.434163 1 73 1.000000
0  -3.095989 -17.425194 -6.887046  0.644871 -0.154710 -0.748469  0.161021 0.452645 1 73 1.000000
0  -3.095989 -17.585510 -6.853908  0.644871 -0.154710 -0.748469  0.079452 0.453974 1 73 1.000000
Material
0  -3.143125 -17.594151 -6.892733  0.642226 -0.254524 -0.723024  0.078830 0.434163 1 73 1.000000
0  -3.128177 -17.742361 -6.827281  0.642226 -0.254524 -0.723024  0.000187 0.452439 1 73 1.000000
0  -3.143125 -17.744720 -6.839727  0.642226 -0.254524 -0.723024  0.000187 0.446126 1 73 1.000000
Material
0  -3.954739 -17.594151 -6.892733  -0.644871 -0.154712 -0.748469  0.921170 0.434163 1 73 1.000000
0  -4.001875 -17.585510 -6.853908  -0.644871 -0.154712 -0.748469  0.920548 0.453974 1 73 1.000000
0  -4.001875 -17.425194 -6.887046  -0.644871 -0.154712 -0.748469  0.838979 0.452645 1 73 1.000000
Material
0  -4.001875 -17.425194 -6.887046  -0.644854 0.154715 0.748483  0.838979 0.452645 1 73 1.000000
0  -4.001875 -17.585510 -6.853908  -0.644854 0.154715 0.748483  0.920548 0.453974 1 73 1.000000
0  -3.954739 -17.576870 -6.815083  -0.644854 0.154715 0.748483  0.919924 0.473786 1 73 1.000000
Material
0  -3.954739 -17.594151 -6.892733  -0.642199 -0.254528 -0.723046  0.921170 0.434163 1 73 1.000000
0  -3.969687 -17.742361 -6.827281  -0.642199 -0.254528 -0.723046  0.999813 0.452439 1 73 1.000000
0  -4.001875 -17.585510 -6.853908  -0.642199 -0.254528 -0.723046  0.920548 0.453974 1 73 1.000000
Material
0  -3.954739 -17.710167 -7.383304  -0.642202 -0.307578 -0.702120  0.932393 0.183202 1 73 1.000000
0  -3.973619 -17.834236 -7.311685  -0.642202 -0.307578 -0.702120  0.999790 0.206740 1 73 1.000000
0  -4.001875 -17.698664 -7.345229  -0.642202 -0.307578 -0.702120  0.930299 0.202912 1 73 1.000000
Material
0  -3.143125 -17.687160 -7.307154  0.644875 0.209906 0.734898  0.071795 0.222622 1 73 1.000000
0  -3.095989 -17.698664 -7.345229  0.644875 0.209906 0.734898  0.069701 0.202912 1 73 1.000000
0  -3.095989 -17.538637 -7.390936  0.644875 0.209906 0.734898  0.152295 0.195402 1 73 1.000000
Material
0  -3.143125 -17.710167 -7.383304  0.644876 -0.209903 -0.734899  0.067607 0.183202 1 73 1.000000
0  -3.095989 -17.538637 -7.390936  0.644876 -0.209903 -0.734899  0.152295 0.195402 1 73 1.000000
0  -3.095989 -17.698664 -7.345229  0.644876 -0.209903 -0.734899  0.069701 0.202912 1 73 1.000000
Material
0  -3.954739 -17.710167 -7.383304  -0.644870 -0.209902 -0.734904  0.932393 0.183202 1 73 1.000000
0  -4.001875 -17.698664 -7.345229  -0.644870 -0.209902 -0.734904  0.930299 0.202912 1 73 1.000000
0  -4.001875 -17.538637 -7.390936  -0.644870 -0.209902 -0.734904  0.847705 0.195402 1 73 1.000000
Material
0  -3.143125 -17.710167 -7.383304  0.642213 -0.307571 -0.702113  0.067607 0.183202 1 73 1.000000
0  -3.124245 -17.834236 -7.311685  0.642213 -0.307571 -0.702113  0.000210 0.206740 1 73 1.000000
0  -3.143125 -17.837261 -7.327628  0.642213 -0.307571 -0.702113  0.000211 0.198654 1 73 1.000000
Material
0  -4.001875 -17.538637 -7.390936  -0.644868 0.209902 0.734906  0.847705 0.195402 1 73 1.000000
0  -4.001875 -17.698664 -7.345229  -0.644868 0.209902 0.734906  0.930299 0.202912 1 73 1.000000
0  -3.954739 -17.687160 -7.307154  -0.644868 0.209902 0.734906  0.928205 0.222622 1 73 1.000000
Material
0  -3.095989 -17.321440 -6.410067  0.961684 -0.268131 0.057179  0.167503 0.695811 1 73 1.000000
0  -3.143125 -17.576870 -6.815083  0.961684 -0.268131 0.057179  0.080076 0.473786 1 73 1.000000
0  -3.095989 -17.425194 -6.887046  0.961684 -0.268132 0.057179  0.161021 0.452645 1 73 1.000000
Material
0  -4.001875 -17.321440 -6.410067  -0.961680 -0.268145 0.057188  0.832497 0.695811 1 73 1.000000
0  -3.954739 -17.576870 -6.815083  -0.961680 -0.268145 0.057187  0.919924 0.473786 1 73 1.000000
0  -3.954739 -17.493118 -6.412672  -0.961680 -0.268145 0.057188  0.916307 0.678586 1 73 1.000000
Material
0  -3.143125 -17.710167 -7.383304  0.961804 -0.263870 0.072843  0.067607 0.183202 1 73 1.000000
0  -3.095989 -17.644993 -7.769593  0.961804 -0.263870 0.072843  0.135404 0.000131 1 73 1.000000
0  -3.095989 -17.538637 -7.390936  0.961804 -0.263870 0.072844  0.152295 0.195402 1 73 1.000000
Material
0  -3.095989 -17.425194 -6.887046  0.960775 -0.270555 0.060913  0.161021 0.452645 1 73 1.000000
0  -3.143125 -17.687160 -7.307154  0.960775 -0.270555 0.060913  0.071795 0.222622 1 73 1.000000
0  -3.095989 -17.538637 -7.390936  0.960775 -0.270555 0.060913  0.152295 0.195402 1 73 1.000000
Material
0  -4.001875 -17.425194 -6.887046  -1.000000 0.000000 0.000000  0.838979 0.452645 1 73 1.000000
0  -4.001875 -17.321440 -6.410067  -1.000000 0.000000 0.000000  0.832497 0.695811 1 73 1.000000
0  -4.001875 -17.346869 -6.894410  -1.000000 0.000000 0.000000  0.799948 0.456316 1 73 1.000000
Material
0  -4.001875 -17.575264 -7.782817  -1.000000 0.000000 0.000000  0.829229 0.000134 1 73 1.000000
0  -4.001875 -17.538637 -7.390936  -1.000000 0.000000 0.000000  0.847705 0.195402 1 73 1.000000
0  -4.001875 -17.346869 -6.894410  -1.000000 0.000000 0.000000  0.799948 0.456316 1 73 1.000000
Material
0  -4.001875 -17.321440 -6.410067  -0.957793 -0.285525 0.033293  0.832497 0.695811 1 73 1.000000
0  -3.954739 -17.428556 -5.972666  -0.957793 -0.285525 0.033293  0.925578 0.900010 1 73 1.000000
0  -4.038762 -17.146315 -5.936792  -0.957793 -0.285525 0.033293  0.790729 0.943795 1 73 1.000000
Material
0  -4.001875 -17.538637 -7.390936  -1.000000 0.000007 0.000000  0.847705 0.195402 1 73 1.000000
0  -4.001875 -17.425194 -6.887046  -1.000000 0.000007 0.000000  0.838979 0.452645 1 73 1.000000
0  -4.001875 -17.346869 -6.894410  -1.000000 0.000007 0.000000  0.799948 0.456316 1 73 1.000000
Material
0  -4.038762 -17.146315 -5.936792  -0.971095 -0.238364 0.012515  0.790729 0.943795 1 73 1.000000
0  -4.001875 -17.346869 -6.894410  -0.971095 -0.238364 0.012515  0.799948 0.456316 1 73 1.000000
0  -4.001875 -17.321440 -6.410067  -0.971095 -0.238364 0.012515  0.832497 0.695811 1 73 1.000000
Material
0  -3.095989 -17.146315 -5.936792  1.000000 0.000007 -0.000000  0.209271 0.943795 1 73 1.000000
0  -3.095989 -17.321440 -6.410067  1.000000 0.000007 -0.000000  0.167503 0.695811 1 73 1.000000
0  -3.095989 -17.346869 -6.894410  1.000000 0.000007 -0.000000  0.200052 0.456316 1 73 1.000000
Material
0  -3.095989 -17.321440 -6.410067  1.000000 0.000001 0.000000  0.167503 0.695811 1 73 1.000000
0  -3.095989 -17.425194 -6.887046  1.000000 0.000001 0.000000  0.161021 0.452645 1 73 1.000000
0  -3.095989 -17.346869 -6.894410  1.000000 0.000001 0.000000  0.200052 0.456316 1 73 1.000000
Material
0  -3.095989 -17.425194 -6.887046  1.000000 0.000006 0.000000  0.161021 0.452645 1 73 1.000000
0  -3.095989 -17.538637 -7.390936  1.000000 0.000006 0.000000  0.152295 0.195402 1 73 1.000000
0  -3.095989 -17.346869 -6.894410  1.000000 0.000006 0.000000  0.200052 0.456316 1 73 1.000000
Material
0  -4.001875 -17.644993 -7.769593  -0.961827 -0.263779 0.072862  0.864596 0.000131 1 73 1.000000
0  -3.954739 -17.710167 -7.383304  -0.961827 -0.263779 0.072863  0.932393 0.183202 1 73 1.000000
0  -4.001875 -17.538637 -7.390936  -0.961815 -0.263825 0.072853  0.847705 0.195402 1 73 1.000000
Material
0  -3.954739 -17.428556 -5.972666  -1.000000 0.000001 0.000000  0.925578 0.900010 1 73 1.000000
0  -3.954739 -17.537685 -5.748192  -1.000000 0.000001 0.000000  0.999861 0.999773 1 73 1.000000
0  -3.954739 -17.389608 -5.776278  -1.000000 0.000001 0.000000  0.924755 0.999780 1 73 1.000000
Material
0  -4.001875 -17.425194 -6.887046  -0.960916 -0.270122 0.060624  0.838979 0.452645 1 73 1.000000
0  -3.954739 -17.687160 -7.307154  -0.960916 -0.270122 0.060624  0.928205 0.222622 1 73 1.000000
0  -3.954739 -17.594151 -6.892733  -0.960916 -0.270122 0.060624  0.921170 0.434163 1 73 1.000000
Material
0  -3.143125 -17.214050 -5.897856  0.814793 -0.576881 0.057625  0.172491 0.956566 1 73 1.000000
0  -3.090322 -17.132204 -5.825099  0.814795 -0.576879 0.057627  0.205803 0.999791 1 73 1.000000
0  -3.143125 -17.200441 -5.812157  0.814797 -0.576876 0.057630  0.171192 0.999788 1 73 1.000000
Material
0  -3.095989 -17.146315 -5.936792  0.999828 -0.018497 0.001286  0.209271 0.943795 1 73 1.000000
0  -3.095989 -17.346869 -6.894410  0.999828 -0.018497 0.001286  0.200052 0.456316 1 73 1.000000
0  -3.063889 -15.566833 -6.122003  0.999828 -0.018497 0.001286  0.999774 0.999858 1 73 1.000000
Material
0  -3.954739 -17.576397 -5.952274  -1.000000 -0.000003 0.000000  0.999853 0.896259 1 73 1.000000
0  -3.954739 -17.474693 -6.335286  -1.000000 -0.000003 0.000000  0.914476 0.718186 1 73 1.000000
0  -3.954739 -17.648533 -6.332598  -1.000000 -0.000003 0.000000  0.999835 0.703352 1 73 1.000000
Material
0  -3.954739 -17.831320 -7.296307  -1.000000 0.000000 0.000000  0.999791 0.214540 1 73 1.000000
0  -3.954739 -17.594151 -6.892733  -1.000000 0.000000 0.000000  0.921170 0.434163 1 73 1.000000
0  -3.954739 -17.687160 -7.307154  -1.000000 0.000000 0.000000  0.928205 0.222622 1 73 1.000000
Material
0  -4.038762 -17.132204 -5.825099  -1.000000 0.000000 0.000000  0.794197 0.999791 1 73 1.000000
0  -4.038762 -16.023561 -6.035376  -1.000000 0.000000 0.000000  0.231883 0.999838 1 73 1.000000
0  -4.038762 -17.146315 -5.936792  -1.000000 0.000000 0.000000  0.790729 0.943795 1 73 1.000000
Material
0  -4.001875 -17.346869 -6.894410  -0.999822 -0.016231 -0.009584  0.799948 0.456316 1 73 1.000000
0  -4.038762 -16.023561 -6.035376  -0.999822 -0.016230 -0.009584  0.231883 0.999838 1 73 1.000000
0  -4.033185 -15.807652 -7.390814  -0.999822 -0.016231 -0.009584  0.000247 0.356278 1 73 1.000000
Material
0  -3.143125 -17.652571 -6.353880  1.000000 0.000000 0.000000  0.000165 0.692557 1 73 1.000000
0  -3.143125 -17.576870 -6.815083  1.000000 0.000000 0.000000  0.080076 0.473786 1 73 1.000000
0  -3.143125 -17.493118 -6.412672  1.000000 0.000000 0.000000  0.083693 0.678586 1 73 1.000000
Material
0  -3.954739 -17.911497 -7.719045  -1.000000 0.000000 0.000000  0.999770 0.000119 1 73 1.000000
0  -3.954739 -17.710167 -7.383304  -1.000000 0.000000 0.000000  0.932393 0.183202 1 73 1.000000
0  -3.954739 -17.806614 -7.738938  -1.000000 0.000000 0.000000  0.946572 0.000124 1 73 1.000000
Material
0  -4.038702 -15.881571 -6.062307  -0.999892 0.014288 -0.003357  0.159864 0.999845 1 73 1.000000
0  -4.034003 -15.566833 -6.122003  -0.999892 0.014288 -0.003357  0.000226 0.999858 1 73 1.000000
0  -4.033185 -15.807652 -7.390814  -0.999892 0.014288 -0.003357  0.000247 0.356278 1 73 1.000000
Material
0  -3.143125 -17.537685 -5.748192  1.000000 0.000000 0.000000  0.000139 0.999773 1 73 1.000000
0  -3.143125 -17.428556 -5.972666  1.000000 0.000000 0.000000  0.074422 0.900010 1 73 1.000000
0  -3.143125 -17.389608 -5.776278  1.000000 0.000000 0.000000  0.075245 0.999780 1 73 1.000000
Material
0  -3.143125 -17.831320 -7.296307  1.000000 0.000002 0.000000  0.000209 0.214540 1 73 1.000000
0  -3.143125 -17.594151 -6.892733  1.000000 0.000002 0.000000  0.078830 0.434163 1 73 1.000000
0  -3.143125 -17.744720 -6.839727  1.000000 0.000002 0.000000  0.000187 0.446126 1 73 1.000000
Material
0  -3.954739 -17.389608 -5.776278  -1.000000 0.000000 0.000000  0.924755 0.999780 1 73 1.000000
0  -3.954739 -17.214050 -5.897856  -1.000000 0.000000 0.000000  0.827509 0.956566 1 73 1.000000
0  -3.954739 -17.428556 -5.972666  -1.000000 0.000000 0.000000  0.925578 0.900010 1 73 1.000000
Material
0  -4.001875 -17.586536 -7.780680  -1.000000 0.000000 0.000000  0.834947 0.000134 1 73 1.000000
0  -4.001875 -17.644993 -7.769593  -1.000000 0.000000 0.000000  0.864596 0.000131 1 73 1.000000
0  -4.001875 -17.538637 -7.390936  -1.000000 0.000000 0.000000  0.847705 0.195402 1 73 1.000000
Material
0  -3.143125 -17.648533 -6.332598  0.635843 0.011935 0.771726  0.000165 0.703352 1 73 1.000000
0  -3.095989 -17.483906 -6.373979  0.635843 0.011935 0.771726  0.084609 0.698386 1 73 1.000000
0  -3.143125 -17.474693 -6.335286  0.635843 0.011935 0.771726  0.085524 0.718186 1 73 1.000000
Material
0  -3.095989 -17.575264 -7.782817  1.000000 0.000000 0.000000  0.170771 0.000134 1 73 1.000000
0  -3.095989 -17.538637 -7.390936  1.000000 0.000000 0.000000  0.152295 0.195402 1 73 1.000000
0  -3.095989 -17.586536 -7.780680  1.000000 0.000000 0.000000  0.165053 0.000134 1 73 1.000000
Material
0  -3.143125 -17.911497 -7.719045  1.000000 0.000000 0.000000  0.000230 0.000119 1 73 1.000000
0  -3.143125 -17.710167 -7.383304  1.000000 0.000000 0.000000  0.067607 0.183202 1 73 1.000000
0  -3.143125 -17.837261 -7.327628  1.000000 0.000000 0.000000  0.000211 0.198654 1 73 1.000000
Material
0  -4.038762 -17.132204 -5.825099  -0.645063 -0.756701 0.106291  0.794197 0.999791 1 73 1.000000
0  -3.954739 -17.214050 -5.897856  -0.645064 -0.756700 0.106292  0.827509 0.956566 1 73 1.000000
0  -3.954739 -17.200441 -5.812157  -0.645062 -0.756701 0.106291  0.828808 0.999788 1 73 1.000000
Material
0  -3.954739 -17.648533 -6.332598  -0.635805 0.011936 0.771758  0.999835 0.703352 1 73 1.000000
0  -4.001875 -17.483906 -6.373979  -0.635805 0.011936 0.771758  0.915391 0.698386 1 73 1.000000
0  -3.967590 -17.650536 -6.343155  -0.635805 0.011936 0.771758  0.999835 0.697997 1 73 1.000000
Material
0  -3.095989 -17.644993 -7.769593  1.000000 0.000010 0.000000  0.135404 0.000131 1 73 1.000000
0  -3.095989 -17.586536 -7.780680  1.000000 0.000010 0.000000  0.165053 0.000134 1 73 1.000000
0  -3.095989 -17.538637 -7.390936  1.000000 0.000010 0.000000  0.152295 0.195402 1 73 1.000000
Material
0  -3.143125 -17.740025 -6.814969  0.635842 0.000540 0.771819  0.000186 0.458684 1 73 1.000000
0  -3.095989 -17.585510 -6.853908  0.635842 0.000540 0.771819  0.079452 0.453974 1 73 1.000000
0  -3.143125 -17.576870 -6.815083  0.635842 0.000540 0.771819  0.080076 0.473786 1 73 1.000000
Material
0  -3.954739 -17.740025 -6.814969  -0.635779 0.000542 0.771871  0.999814 0.458684 1 73 1.000000
0  -4.001875 -17.585510 -6.853908  -0.635779 0.000542 0.771871  0.920548 0.453974 1 73 1.000000
0  -3.969687 -17.742361 -6.827281  -0.635779 0.000542 0.771871  0.999813 0.452439 1 73 1.000000
Material
0  -4.029617 -15.891091 -7.830441  -0.999854 -0.016367 0.004927  0.000253 0.133285 1 73 1.000000
0  -4.030095 -15.940886 -8.092810  -0.999854 -0.016367 0.004927  0.000257 0.000204 1 73 1.000000
0  -4.008785 -17.172382 -7.859232  -0.999854 -0.016367 0.004927  0.624883 0.000152 1 73 1.000000
Material
0  -3.973619 -17.834236 -7.311685  -0.635846 0.057910 0.769641  0.999790 0.206740 1 73 1.000000
0  -3.954739 -17.687160 -7.307154  -0.635846 0.057910 0.769641  0.928205 0.222622 1 73 1.000000
0  -4.001875 -17.698664 -7.345229  -0.635846 0.057910 0.769641  0.930299 0.202912 1 73 1.000000
Material
0  -3.089079 -17.172382 -7.859232  0.999854 -0.016367 0.004928  0.375117 0.000152 1 73 1.000000
0  -3.067770 -15.940886 -8.092810  0.999854 -0.016367 0.004928  0.999743 0.000204 1 73 1.000000
0  -3.068248 -15.891091 -7.830441  0.999854 -0.016367 0.004928  0.999747 0.133285 1 73 1.000000
Material
0  -3.124245 -17.834236 -7.311685  0.635845 0.057906 0.769641  0.000210 0.206740 1 73 1.000000
0  -3.143125 -17.687160 -7.307154  0.635845 0.057906 0.769641  0.071795 0.222622 1 73 1.000000
0  -3.143125 -17.831320 -7.296307  0.635845 0.057906 0.769641  0.000209 0.214540 1 73 1.000000
Material
0  -3.143125 -17.576397 -5.952274  1.000000 0.000000 0.000000  0.000147 0.896259 1 73 1.000000
0  -3.143125 -17.474693 -6.335286  1.000000 0.000000 0.000000  0.085524 0.718186 1 73 1.000000
0  -3.143125 -17.428556 -5.972666  1.000000 0.000000 0.000000  0.074422 0.900010 1 73 1.000000
Material
0  -3.954739 -17.652571 -6.353880  -1.000000 0.000002 0.000000  0.999835 0.692557 1 73 1.000000
0  -3.954739 -17.576870 -6.815083  -1.000000 0.000002 0.000000  0.919924 0.473786 1 73 1.000000
0  -3.954739 -17.740025 -6.814969  -1.000000 0.000002 0.000000  0.999814 0.458684 1 73 1.000000
Material
0  -3.143125 -17.428556 -5.972666  0.976895 -0.206605 0.054679  0.074422 0.900010 1 75 1.000000
0  -3.143125 -17.474693 -6.335286  0.976894 -0.206607 0.054687  0.085524 0.718186 1 75 1.000000
0  -3.095989 -17.321440 -6.410067  0.976895 -0.206606 0.054683  0.167503 0.695811 1 75 1.000000
Material
0  -3.143125 -17.214050 -5.897856  1.000000 0.000001 0.000000  0.172491 0.956566 1 75 1.000000
0  -3.143125 -17.200441 -5.812157  1.000000 0.000001 0.000000  0.171192 0.999788 1 75 1.000000
0  -3.143125 -17.389608 -5.776278  1.000000 0.000001 0.000000  0.075245 0.999780 1 75 1.000000
Material
0  -3.143125 -17.493118 -6.412672  0.642199 -0.265183 -0.719207  0.083693 0.678586 1 75 1.000000
0  -3.095989 -17.483906 -6.373979  0.642199 -0.265183 -0.719207  0.084609 0.698386 1 75 1.000000
0  -3.130274 -17.650536 -6.343155  0.642199 -0.265183 -0.719207  0.000165 0.697997 1 75 1.000000
Material
0  -3.954739 -17.493118 -6.412672  -0.642226 -0.265166 -0.719189  0.916307 0.678586 1 75 1.000000
0  -3.954739 -17.652571 -6.353880  -0.642226 -0.265166 -0.719189  0.999835 0.692557 1 75 1.000000
0  -3.967590 -17.650536 -6.343155  -0.642226 -0.265166 -0.719189  0.999835 0.697997 1 75 1.000000
Material
0  -3.143125 -17.594151 -6.892733  0.642204 -0.254533 -0.723040  0.078830 0.434163 1 75 1.000000
0  -3.095989 -17.585510 -6.853908  0.642204 -0.254533 -0.723040  0.079452 0.453974 1 75 1.000000
0  -3.128177 -17.742361 -6.827281  0.642204 -0.254533 -0.723040  0.000187 0.452439 1 75 1.000000
Material
0  -3.954739 -17.594151 -6.892733  -0.642224 -0.254535 -0.723022  0.921170 0.434163 1 75 1.000000
0  -3.954739 -17.744720 -6.839727  -0.642224 -0.254535 -0.723022  0.999813 0.446126 1 75 1.000000
0  -3.969687 -17.742361 -6.827281  -0.642224 -0.254535 -0.723022  0.999813 0.452439 1 75 1.000000
Material
0  -3.954739 -17.710167 -7.383304  -0.642204 -0.307571 -0.702121  0.932393 0.183202 1 75 1.000000
0  -3.954739 -17.837261 -7.327628  -0.642204 -0.307571 -0.702121  0.999789 0.198654 1 75 1.000000
0  -3.973619 -17.834236 -7.311685  -0.642204 -0.307571 -0.702121  0.999790 0.206740 1 75 1.000000
Material
0  -3.143125 -17.710167 -7.383304  0.642202 -0.307578 -0.702120  0.067607 0.183202 1 75 1.000000
0  -3.095989 -17.698664 -7.345229  0.642202 -0.307578 -0.702120  0.069701 0.202912 1 75 1.000000
0  -3.124245 -17.834236 -7.311685  0.642202 -0.307578 -0.702120  0.000210 0.206740 1 75 1.000000
Material
0  -3.095989 -17.321440 -6.410067  0.961680 -0.268144 0.057188  0.167503 0.695811 1 75 1.000000
0  -3.143125 -17.493118 -6.412672  0.961680 -0.268144 0.057188  0.083693 0.678586 1 75 1.000000
0  -3.143125 -17.576870 -6.815083  0.961680 -0.268144 0.057188  0.080076 0.473786 1 75 1.000000
Material
0  -4.001875 -17.321440 -6.410067  -0.961696 -0.268095 0.057154  0.832497 0.695811 1 75 1.000000
0  -4.001875 -17.425194 -6.887046  -0.961683 -0.268133 0.057180  0.838979 0.452645 1 75 1.000000
0  -3.954739 -17.576870 -6.815083  -0.961683 -0.268133 0.057180  0.919924 0.473786 1 75 1.000000
Material
0  -3.143125 -17.710167 -7.383304  0.961831 -0.263764 0.072865  0.067607 0.183202 1 75 1.000000
0  -3.143125 -17.806614 -7.738938  0.961831 -0.263764 0.072864  0.053428 0.000124 1 75 1.000000
0  -3.095989 -17.644993 -7.769593  0.961831 -0.263764 0.072865  0.135404 0.000131 1 75 1.000000
Material
0  -3.095989 -17.425194 -6.887046  0.960916 -0.270122 0.060624  0.161021 0.452645 1 75 1.000000
0  -3.143125 -17.594151 -6.892733  0.960916 -0.270122 0.060624  0.078830 0.434163 1 75 1.000000
0  -3.143125 -17.687160 -7.307154  0.960916 -0.270122 0.060624  0.071795 0.222622 1 75 1.000000
Material
0  -4.001875 -17.575264 -7.782817  -1.000000 0.000000 0.000000  0.829229 0.000134 1 75 1.000000
0  -4.001875 -17.586536 -7.780680  -1.000000 0.000000 0.000000  0.834947 0.000134 1 75 1.000000
0  -4.001875 -17.538637 -7.390936  -1.000000 0.000000 0.000000  0.847705 0.195402 1 75 1.000000
Material
0  -4.001875 -17.321440 -6.410067  -0.957807 -0.285475 0.033306  0.832497 0.695811 1 75 1.000000
0  -3.954739 -17.474693 -6.335286  -0.957807 -0.285475 0.033307  0.914476 0.718186 1 75 1.000000
0  -3.954739 -17.428556 -5.972666  -0.957807 -0.285475 0.033306  0.925578 0.900010 1 75 1.000000
Material
0  -4.001875 -17.644993 -7.769593  -0.961831 -0.263764 0.072866  0.864596 0.000131 1 75 1.000000
0  -3.954739 -17.806614 -7.738938  -0.961831 -0.263764 0.072866  0.946572 0.000124 1 75 1.000000
0  -3.954739 -17.710167 -7.383304  -0.961831 -0.263764 0.072866  0.932393 0.183202 1 75 1.000000
Material
0  -3.954739 -17.428556 -5.972666  -1.000000 0.000000 0.000000  0.925578 0.900010 1 75 1.000000
0  -3.954739 -17.576397 -5.952274  -1.000000 0.000000 0.000000  0.999853 0.896259 1 75 1.000000
0  -3.954739 -17.537685 -5.748192  -1.000000 0.000000 0.000000  0.999861 0.999773 1 75 1.000000
Material
0  -4.001875 -17.425194 -6.887046  -0.960924 -0.270096 0.060607  0.838979 0.452645 1 75 1.000000
0  -4.001875 -17.538637 -7.390936  -0.960899 -0.270173 0.060658  0.847705 0.195402 1 75 1.000000
0  -3.954739 -17.687160 -7.307154  -0.960924 -0.270096 0.060607  0.928205 0.222622 1 75 1.000000
Material
0  -3.143125 -17.214050 -5.897856  0.814795 -0.576878 0.057628  0.172491 0.956566 1 75 1.000000
0  -3.095989 -17.146315 -5.936792  0.814793 -0.576882 0.057625  0.209271 0.943795 1 75 1.000000
0  -3.090322 -17.132204 -5.825099  0.814794 -0.576879 0.057628  0.205803 0.999791 1 75 1.000000
Material
0  -3.095989 -17.346869 -6.894410  0.999829 -0.018445 0.001223  0.200052 0.456316 1 75 1.000000
0  -3.095989 -17.575264 -7.782817  0.999829 -0.018445 0.001223  0.170771 0.000134 1 75 1.000000
0  -3.089079 -17.172382 -7.859232  0.999829 -0.018445 0.001223  0.375117 0.000152 1 75 1.000000
Material
0  -3.089079 -17.172382 -7.859232  0.999829 -0.018446 0.001223  0.375117 0.000152 1 75 1.000000
0  -3.068248 -15.891091 -7.830441  0.999829 -0.018445 0.001222  0.999747 0.133285 1 75 1.000000
0  -3.095989 -17.346869 -6.894410  0.999829 -0.018446 0.001223  0.200052 0.456316 1 75 1.000000
Material
0  -3.068248 -15.891091 -7.830441  0.999830 -0.018442 0.000950  0.999747 0.133285 1 75 1.000000
0  -3.063889 -15.566833 -6.122003  0.999830 -0.018442 0.000950  0.999774 0.999858 1 75 1.000000
0  -3.095989 -17.346869 -6.894410  0.999830 -0.018442 0.000950  0.200052 0.456316 1 75 1.000000
Material
0  -3.063889 -15.566833 -6.122003  0.999829 -0.018457 0.001209  0.999774 0.999858 1 75 1.000000
0  -3.090322 -17.132204 -5.825099  0.999829 -0.018462 0.001210  0.205803 0.999791 1 75 1.000000
0  -3.095989 -17.146315 -5.936792  0.999829 -0.018462 0.001210  0.209271 0.943795 1 75 1.000000
Material
0  -3.954739 -17.576397 -5.952274  -1.000000 0.000000 0.000000  0.999853 0.896259 1 75 1.000000
0  -3.954739 -17.428556 -5.972666  -1.000000 0.000000 0.000000  0.925578 0.900010 1 75 1.000000
0  -3.954739 -17.474693 -6.335286  -1.000000 0.000000 0.000000  0.914476 0.718186 1 75 1.000000
Material
0  -3.954739 -17.831320 -7.296307  -1.000000 0.000000 0.000000  0.999791 0.214540 1 75 1.000000
0  -3.954739 -17.744720 -6.839727  -1.000000 0.000000 0.000000  0.999813 0.446126 1 75 1.000000
0  -3.954739 -17.594151 -6.892733  -1.000000 0.000000 0.000000  0.921170 0.434163 1 75 1.000000
Material
0  -4.029617 -15.891091 -7.830441  -0.999823 -0.016239 -0.009555  0.000253 0.133285 1 75 1.000000
0  -4.008785 -17.172382 -7.859232  -0.999823 -0.016239 -0.009555  0.624883 0.000152 1 75 1.000000
0  -4.033185 -15.807652 -7.390814  -0.999823 -0.016239 -0.009555  0.000247 0.356278 1 75 1.000000
Material
0  -4.008785 -17.172382 -7.859232  -0.999823 -0.016239 -0.009554  0.624883 0.000152 1 75 1.000000
0  -4.001875 -17.575264 -7.782817  -0.999822 -0.016241 -0.009554  0.829229 0.000134 1 75 1.000000
0  -4.001875 -17.346869 -6.894410  -0.999823 -0.016239 -0.009554  0.799948 0.456316 1 75 1.000000
Material
0  -4.001875 -17.346869 -6.894410  -0.999822 -0.016228 -0.009601  0.799948 0.456316 1 75 1.000000
0  -4.038762 -17.146315 -5.936792  -0.999822 -0.016232 -0.009603  0.790729 0.943795 1 75 1.000000
0  -4.038762 -16.023561 -6.035376  -0.999822 -0.016232 -0.009603  0.231883 0.999838 1 75 1.000000
Material
0  -4.008785 -17.172382 -7.859232  -0.999822 -0.016245 -0.009555  0.624883 0.000152 1 75 1.000000
0  -4.001875 -17.346869 -6.894410  -0.999822 -0.016244 -0.009555  0.799948 0.456316 1 75 1.000000
0  -4.033185 -15.807652 -7.390814  -0.999822 -0.016244 -0.009555  0.000247 0.356278 1 75 1.000000
Material
0  -4.038702 -15.881571 -6.062307  -0.999822 -0.016244 -0.009584  0.159864 0.999845 1 75 1.000000
0  -4.033185 -15.807652 -7.390814  -0.999822 -0.016244 -0.009584  0.000247 0.356278 1 75 1.000000
0  -4.038762 -16.023561 -6.035376  -0.999822 -0.016244 -0.009582  0.231883 0.999838 1 75 1.000000
Material
0  -3.143125 -17.652571 -6.353880  1.000000 0.000002 0.000000  0.000165 0.692557 1 75 1.000000
0  -3.143125 -17.740025 -6.814969  1.000000 0.000002 0.000000  0.000186 0.458684 1 75 1.000000
0  -3.143125 -17.576870 -6.815083  1.000000 0.000002 0.000000  0.080076 0.473786 1 75 1.000000
Material
0  -3.954739 -17.911497 -7.719045  -1.000000 0.000000 0.000000  0.999770 0.000119 1 75 1.000000
0  -3.954739 -17.837261 -7.327628  -1.000000 0.000000 0.000000  0.999789 0.198654 1 75 1.000000
0  -3.954739 -17.710167 -7.383304  -1.000000 0.000000 0.000000  0.932393 0.183202 1 75 1.000000
Material
0  -3.143125 -17.537685 -5.748192  1.000000 0.000001 0.000000  0.000139 0.999773 1 75 1.000000
0  -3.143125 -17.576397 -5.952274  1.000000 0.000001 0.000000  0.000147 0.896259 1 75 1.000000
0  -3.143125 -17.428556 -5.972666  1.000000 0.000001 0.000000  0.074422 0.900010 1 75 1.000000
Material
0  -3.143125 -17.831320 -7.296307  1.000000 0.000000 0.000000  0.000209 0.214540 1 75 1.000000
0  -3.143125 -17.687160 -7.307154  1.000000 0.000000 0.000000  0.071795 0.222622 1 75 1.000000
0  -3.143125 -17.594151 -6.892733  1.000000 0.000000 0.000000  0.078830 0.434163 1 75 1.000000
Material
0  -3.954739 -17.389608 -5.776278  -1.000000 0.000000 0.000000  0.924755 0.999780 1 75 1.000000
0  -3.954739 -17.200441 -5.812157  -1.000000 0.000000 0.000000  0.828808 0.999788 1 75 1.000000
0  -3.954739 -17.214050 -5.897856  -1.000000 0.000000 0.000000  0.827509 0.956566 1 75 1.000000
Material
0  -3.143125 -17.648533 -6.332598  0.635825 0.011926 0.771741  0.000165 0.703352 1 75 1.000000
0  -3.130274 -17.650536 -6.343155  0.635825 0.011926 0.771741  0.000165 0.697997 1 75 1.000000
0  -3.095989 -17.483906 -6.373979  0.635825 0.011926 0.771741  0.084609 0.698386 1 75 1.000000
Material
0  -3.095989 -17.575264 -7.782817  1.000000 -0.000004 0.000000  0.170771 0.000134 1 75 1.000000
0  -3.095989 -17.346869 -6.894410  1.000000 -0.000004 0.000000  0.200052 0.456316 1 75 1.000000
0  -3.095989 -17.538637 -7.390936  1.000000 -0.000004 0.000000  0.152295 0.195402 1 75 1.000000
Material
0  -3.143125 -17.911497 -7.719045  1.000000 0.000000 0.000000  0.000230 0.000119 1 75 1.000000
0  -3.143125 -17.806614 -7.738938  1.000000 0.000000 0.000000  0.053428 0.000124 1 75 1.000000
0  -3.143125 -17.710167 -7.383304  1.000000 0.000000 0.000000  0.067607 0.183202 1 75 1.000000
Material
0  -4.038762 -17.132204 -5.825099  -0.645074 -0.756694 0.106273  0.794197 0.999791 1 75 1.000000
0  -4.038762 -17.146315 -5.936792  -0.645074 -0.756694 0.106273  0.790729 0.943795 1 75 1.000000
0  -3.954739 -17.214050 -5.897856  -0.645073 -0.756694 0.106273  0.827509 0.956566 1 75 1.000000
Material
0  -3.954739 -17.648533 -6.332598  -0.635843 0.011935 0.771726  0.999835 0.703352 1 75 1.000000
0  -3.954739 -17.474693 -6.335286  -0.635843 0.011935 0.771726  0.914476 0.718186 1 75 1.000000
0  -4.001875 -17.483906 -6.373979  -0.635843 0.011935 0.771726  0.915391 0.698386 1 75 1.000000
Material
0  -3.143125 -17.740025 -6.814969  0.635779 0.000542 0.771871  0.000186 0.458684 1 75 1.000000
0  -3.128177 -17.742361 -6.827281  0.635779 0.000542 0.771871  0.000187 0.452439 1 75 1.000000
0  -3.095989 -17.585510 -6.853908  0.635779 0.000542 0.771871  0.079452 0.453974 1 75 1.000000
Material
0  -3.954739 -17.740025 -6.814969  -0.635836 0.000544 0.771824  0.999814 0.458684 1 75 1.000000
0  -3.954739 -17.576870 -6.815083  -0.635836 0.000544 0.771824  0.919924 0.473786 1 75 1.000000
0  -4.001875 -17.585510 -6.853908  -0.635836 0.000544 0.771824  0.920548 0.453974 1 75 1.000000
Material
0  -3.973619 -17.834236 -7.311685  -0.635845 0.057906 0.769641  0.999790 0.206740 1 75 1.000000
0  -3.954739 -17.831320 -7.296307  -0.635845 0.057906 0.769641  0.999791 0.214540 1 75 1.000000
0  -3.954739 -17.687160 -7.307154  -0.635845 0.057906 0.769641  0.928205 0.222622 1 75 1.000000
Material
0  -3.124245 -17.834236 -7.311685  0.635839 0.057908 0.769646  0.000210 0.206740 1 75 1.000000
0  -3.095989 -17.698664 -7.345229  0.635839 0.057908 0.769646  0.069701 0.202912 1 75 1.000000
0  -3.143125 -17.687160 -7.307154  0.635839 0.057908 0.769646  0.071795 0.222622 1 75 1.000000
Material
0  -3.143125 -17.576397 -5.952274  1.000000 0.000001 0.000000  0.000147 0.896259 1 75 1.000000
0  -3.143125 -17.648533 -6.332598  1.000000 0.000001 0.000000  0.000165 0.703352 1 75 1.000000
0  -3.143125 -17.474693 -6.335286  1.000000 0.000001 0.000000  0.085524 0.718186 1 75 1.000000
Material
0  -3.954739 -17.652571 -6.353880  -1.000000 0.000000 0.000000  0.999835 0.692557 1 75 1.000000
0  -3.954739 -17.493118 -6.412672  -1.000000 0.000000 0.000000  0.916307 0.678586 1 75 1.000000
0  -3.954739 -17.576870 -6.815083  -1.000000 0.000000 0.000000  0.919924 0.473786 1 75 1.000000
Material
0  -3.143125 -17.428556 -5.972666  0.976895 -0.206605 0.054679  0.074422 0.900010 1 73 1.000000
0  -3.143125 -17.474693 -6.335286  0.976894 -0.206607 0.054687  0.085524 0.718186 1 73 1.000000
0  -3.095989 -17.321440 -6.410067  0.976895 -0.206606 0.054683  0.167503 0.695811 1 73 1.000000
Material
0  -3.143125 -17.214050 -5.897856  1.000000 0.000001 0.000000  0.172491 0.956566 1 73 1.000000
0  -3.143125 -17.200441 -5.812157  1.000000 0.000001 0.000000  0.171192 0.999788 1 73 1.000000
0  -3.143125 -17.389608 -5.776278  1.000000 0.000001 0.000000  0.075245 0.999780 1 73 1.000000
Material
0  -3.143125 -17.493118 -6.412672  0.642199 -0.265183 -0.719207  0.083693 0.678586 1 73 1.000000
0  -3.095989 -17.483906 -6.373979  0.642199 -0.265183 -0.719207  0.084609 0.698386 1 73 1.000000
0  -3.130274 -17.650536 -6.343155  0.642199 -0.265183 -0.719207  0.000165 0.697997 1 73 1.000000
Material
0  -3.954739 -17.493118 -6.412672  -0.642226 -0.265166 -0.719189  0.916307 0.678586 1 73 1.000000
0  -3.954739 -17.652571 -6.353880  -0.642226 -0.265166 -0.719189  0.999835 0.692557 1 73 1.000000
0  -3.967590 -17.650536 -6.343155  -0.642226 -0.265166 -0.719189  0.999835 0.697997 1 73 1.000000
Material
0  -3.143125 -17.594151 -6.892733  0.642204 -0.254533 -0.723040  0.078830 0.434163 1 73 1.000000
0  -3.095989 -17.585510 -6.853908  0.642204 -0.254533 -0.723040  0.079452 0.453974 1 73 1.000000
0  -3.128177 -17.742361 -6.827281  0.642204 -0.254533 -0.723040  0.000187 0.452439 1 73 1.000000
Material
0  -3.954739 -17.594151 -6.892733  -0.642224 -0.254535 -0.723022  0.921170 0.434163 1 73 1.000000
0  -3.954739 -17.744720 -6.839727  -0.642224 -0.254535 -0.723022  0.999813 0.446126 1 73 1.000000
0  -3.969687 -17.742361 -6.827281  -0.642224 -0.254535 -0.723022  0.999813 0.452439 1 73 1.000000
Material
0  -3.954739 -17.710167 -7.383304  -0.642204 -0.307571 -0.702121  0.932393 0.183202 1 73 1.000000
0  -3.954739 -17.837261 -7.327628  -0.642204 -0.307571 -0.702121  0.999789 0.198654 1 73 1.000000
0  -3.973619 -17.834236 -7.311685  -0.642204 -0.307571 -0.702121  0.999790 0.206740 1 73 1.000000
Material
0  -3.143125 -17.710167 -7.383304  0.642202 -0.307578 -0.702120  0.067607 0.183202 1 73 1.000000
0  -3.095989 -17.698664 -7.345229  0.642202 -0.307578 -0.702120  0.069701 0.202912 1 73 1.000000
0  -3.124245 -17.834236 -7.311685  0.642202 -0.307578 -0.702120  0.000210 0.206740 1 73 1.000000
Material
0  -3.095989 -17.321440 -6.410067  0.961680 -0.268144 0.057188  0.167503 0.695811 1 73 1.000000
0  -3.143125 -17.493118 -6.412672  0.961680 -0.268144 0.057188  0.083693 0.678586 1 73 1.000000
0  -3.143125 -17.576870 -6.815083  0.961680 -0.268144 0.057188  0.080076 0.473786 1 73 1.000000
Material
0  -4.001875 -17.321440 -6.410067  -0.961696 -0.268095 0.057154  0.832497 0.695811 1 73 1.000000
0  -4.001875 -17.425194 -6.887046  -0.961683 -0.268133 0.057180  0.838979 0.452645 1 73 1.000000
0  -3.954739 -17.576870 -6.815083  -0.961683 -0.268133 0.057180  0.919924 0.473786 1 73 1.000000
Material
0  -3.143125 -17.710167 -7.383304  0.961831 -0.263764 0.072865  0.067607 0.183202 1 73 1.000000
0  -3.143125 -17.806614 -7.738938  0.961831 -0.263764 0.072864  0.053428 0.000124 1 73 1.000000
0  -3.095989 -17.644993 -7.769593  0.961831 -0.263764 0.072865  0.135404 0.000131 1 73 1.000000
Material
0  -3.095989 -17.425194 -6.887046  0.960916 -0.270122 0.060624  0.161021 0.452645 1 73 1.000000
0  -3.143125 -17.594151 -6.892733  0.960916 -0.270122 0.060624  0.078830 0.434163 1 73 1.000000
0  -3.143125 -17.687160 -7.307154  0.960916 -0.270122 0.060624  0.071795 0.222622 1 73 1.000000
Material
0  -4.001875 -17.575264 -7.782817  -1.000000 0.000000 0.000000  0.829229 0.000134 1 73 1.000000
0  -4.001875 -17.586536 -7.780680  -1.000000 0.000000 0.000000  0.834947 0.000134 1 73 1.000000
0  -4.001875 -17.538637 -7.390936  -1.000000 0.000000 0.000000  0.847705 0.195402 1 73 1.000000
Material
0  -4.001875 -17.321440 -6.410067  -0.957807 -0.285475 0.033306  0.832497 0.695811 1 73 1.000000
0  -3.954739 -17.474693 -6.335286  -0.957807 -0.285475 0.033307  0.914476 0.718186 1 73 1.000000
0  -3.954739 -17.428556 -5.972666  -0.957807 -0.285475 0.033306  0.925578 0.900010 1 73 1.000000
Material
0  -4.001875 -17.644993 -7.769593  -0.961831 -0.263764 0.072866  0.864596 0.000131 1 73 1.000000
0  -3.954739 -17.806614 -7.738938  -0.961831 -0.263764 0.072866  0.946572 0.000124 1 73 1.000000
0  -3.954739 -17.710167 -7.383304  -0.961831 -0.263764 0.072866  0.932393 0.183202 1 73 1.000000
Material
0  -3.954739 -17.428556 -5.972666  -1.000000 0.000000 0.000000  0.925578 0.900010 1 73 1.000000
0  -3.954739 -17.576397 -5.952274  -1.000000 0.000000 0.000000  0.999853 0.896259 1 73 1.000000
0  -3.954739 -17.537685 -5.748192  -1.000000 0.000000 0.000000  0.999861 0.999773 1 73 1.000000
Material
0  -4.001875 -17.425194 -6.887046  -0.960924 -0.270096 0.060607  0.838979 0.452645 1 73 1.000000
0  -4.001875 -17.538637 -7.390936  -0.960899 -0.270173 0.060658  0.847705 0.195402 1 73 1.000000
0  -3.954739 -17.687160 -7.307154  -0.960924 -0.270096 0.060607  0.928205 0.222622 1 73 1.000000
Material
0  -3.143125 -17.214050 -5.897856  0.814795 -0.576878 0.057628  0.172491 0.956566 1 73 1.000000
0  -3.095989 -17.146315 -5.936792  0.814793 -0.576882 0.057625  0.209271 0.943795 1 73 1.000000
0  -3.090322 -17.132204 -5.825099  0.814794 -0.576879 0.057628  0.205803 0.999791 1 73 1.000000
Material
0  -3.095989 -17.346869 -6.894410  0.999829 -0.018445 0.001223  0.200052 0.456316 1 73 1.000000
0  -3.095989 -17.575264 -7.782817  0.999829 -0.018445 0.001223  0.170771 0.000134 1 73 1.000000
0  -3.089079 -17.172382 -7.859232  0.999829 -0.018445 0.001223  0.375117 0.000152 1 73 1.000000
Material
0  -3.089079 -17.172382 -7.859232  0.999829 -0.018446 0.001223  0.375117 0.000152 1 73 1.000000
0  -3.068248 -15.891091 -7.830441  0.999829 -0.018445 0.001222  0.999747 0.133285 1 73 1.000000
0  -3.095989 -17.346869 -6.894410  0.999829 -0.018446 0.001223  0.200052 0.456316 1 73 1.000000
Material
0  -3.068248 -15.891091 -7.830441  0.999830 -0.018442 0.000950  0.999747 0.133285 1 73 1.000000
0  -3.063889 -15.566833 -6.122003  0.999830 -0.018442 0.000950  0.999774 0.999858 1 73 1.000000
0  -3.095989 -17.346869 -6.894410  0.999830 -0.018442 0.000950  0.200052 0.456316 1 73 1.000000
Material
0  -3.063889 -15.566833 -6.122003  0.999829 -0.018457 0.001209  0.999774 0.999858 1 73 1.000000
0  -3.090322 -17.132204 -5.825099  0.999829 -0.018462 0.001210  0.205803 0.999791 1 73 1.000000
0  -3.095989 -17.146315 -5.936792  0.999829 -0.018462 0.001210  0.209271 0.943795 1 73 1.000000
Material
0  -3.954739 -17.576397 -5.952274  -1.000000 0.000000 0.000000  0.999853 0.896259 1 73 1.000000
0  -3.954739 -17.428556 -5.972666  -1.000000 0.000000 0.000000  0.925578 0.900010 1 73 1.000000
0  -3.954739 -17.474693 -6.335286  -1.000000 0.000000 0.000000  0.914476 0.718186 1 73 1.000000
Material
0  -3.954739 -17.831320 -7.296307  -1.000000 0.000000 0.000000  0.999791 0.214540 1 73 1.000000
0  -3.954739 -17.744720 -6.839727  -1.000000 0.000000 0.000000  0.999813 0.446126 1 73 1.000000
0  -3.954739 -17.594151 -6.892733  -1.000000 0.000000 0.000000  0.921170 0.434163 1 73 1.000000
Material
0  -4.029617 -15.891091 -7.830441  -0.999823 -0.016239 -0.009555  0.000253 0.133285 1 73 1.000000
0  -4.008785 -17.172382 -7.859232  -0.999823 -0.016239 -0.009555  0.624883 0.000152 1 73 1.000000
0  -4.033185 -15.807652 -7.390814  -0.999823 -0.016239 -0.009555  0.000247 0.356278 1 73 1.000000
Material
0  -4.008785 -17.172382 -7.859232  -0.999823 -0.016239 -0.009554  0.624883 0.000152 1 73 1.000000
0  -4.001875 -17.575264 -7.782817  -0.999822 -0.016241 -0.009554  0.829229 0.000134 1 73 1.000000
0  -4.001875 -17.346869 -6.894410  -0.999823 -0.016239 -0.009554  0.799948 0.456316 1 73 1.000000
Material
0  -4.001875 -17.346869 -6.894410  -0.999822 -0.016228 -0.009601  0.799948 0.456316 1 73 1.000000
0  -4.038762 -17.146315 -5.936792  -0.999822 -0.016232 -0.009603  0.790729 0.943795 1 73 1.000000
0  -4.038762 -16.023561 -6.035376  -0.999822 -0.016232 -0.009603  0.231883 0.999838 1 73 1.000000
Material
0  -4.008785 -17.172382 -7.859232  -0.999822 -0.016245 -0.009555  0.624883 0.000152 1 73 1.000000
0  -4.001875 -17.346869 -6.894410  -0.999822 -0.016244 -0.009555  0.799948 0.456316 1 73 1.000000
0  -4.033185 -15.807652 -7.390814  -0.999822 -0.016244 -0.009555  0.000247 0.356278 1 73 1.000000
Material
0  -4.038702 -15.881571 -6.062307  -0.999822 -0.016244 -0.009584  0.159864 0.999845 1 73 1.000000
0  -4.033185 -15.807652 -7.390814  -0.999822 -0.016244 -0.009584  0.000247 0.356278 1 73 1.000000
0  -4.038762 -16.023561 -6.035376  -0.999822 -0.016244 -0.009582  0.231883 0.999838 1 73 1.000000
Material
0  -3.143125 -17.652571 -6.353880  1.000000 0.000002 0.000000  0.000165 0.692557 1 73 1.000000
0  -3.143125 -17.740025 -6.814969  1.000000 0.000002 0.000000  0.000186 0.458684 1 73 1.000000
0  -3.143125 -17.576870 -6.815083  1.000000 0.000002 0.000000  0.080076 0.473786 1 73 1.000000
Material
0  -3.954739 -17.911497 -7.719045  -1.000000 0.000000 0.000000  0.999770 0.000119 1 73 1.000000
0  -3.954739 -17.837261 -7.327628  -1.000000 0.000000 0.000000  0.999789 0.198654 1 73 1.000000
0  -3.954739 -17.710167 -7.383304  -1.000000 0.000000 0.000000  0.932393 0.183202 1 73 1.000000
Material
0  -3.143125 -17.537685 -5.748192  1.000000 0.000001 0.000000  0.000139 0.999773 1 73 1.000000
0  -3.143125 -17.576397 -5.952274  1.000000 0.000001 0.000000  0.000147 0.896259 1 73 1.000000
0  -3.143125 -17.428556 -5.972666  1.000000 0.000001 0.000000  0.074422 0.900010 1 73 1.000000
Material
0  -3.143125 -17.831320 -7.296307  1.000000 0.000000 0.000000  0.000209 0.214540 1 73 1.000000
0  -3.143125 -17.687160 -7.307154  1.000000 0.000000 0.000000  0.071795 0.222622 1 73 1.000000
0  -3.143125 -17.594151 -6.892733  1.000000 0.000000 0.000000  0.078830 0.434163 1 73 1.000000
Material
0  -3.954739 -17.389608 -5.776278  -1.000000 0.000000 0.000000  0.924755 0.999780 1 73 1.000000
0  -3.954739 -17.200441 -5.812157  -1.000000 0.000000 0.000000  0.828808 0.999788 1 73 1.000000
0  -3.954739 -17.214050 -5.897856  -1.000000 0.000000 0.000000  0.827509 0.956566 1 73 1.000000
Material
0  -3.143125 -17.648533 -6.332598  0.635825 0.011926 0.771741  0.000165 0.703352 1 73 1.000000
0  -3.130274 -17.650536 -6.343155  0.635825 0.011926 0.771741  0.000165 0.697997 1 73 1.000000
0  -3.095989 -17.483906 -6.373979  0.635825 0.011926 0.771741  0.084609 0.698386 1 73 1.000000
Material
0  -3.095989 -17.575264 -7.782817  1.000000 -0.000004 0.000000  0.170771 0.000134 1 73 1.000000
0  -3.095989 -17.346869 -6.894410  1.000000 -0.000004 0.000000  0.200052 0.456316 1 73 1.000000
0  -3.095989 -17.538637 -7.390936  1.000000 -0.000004 0.000000  0.152295 0.195402 1 73 1.000000
Material
0  -3.143125 -17.911497 -7.719045  1.000000 0.000000 0.000000  0.000230 0.000119 1 73 1.000000
0  -3.143125 -17.806614 -7.738938  1.000000 0.000000 0.000000  0.053428 0.000124 1 73 1.000000
0  -3.143125 -17.710167 -7.383304  1.000000 0.000000 0.000000  0.067607 0.183202 1 73 1.000000
Material
0  -4.038762 -17.132204 -5.825099  -0.645074 -0.756694 0.106273  0.794197 0.999791 1 73 1.000000
0  -4.038762 -17.146315 -5.936792  -0.645074 -0.756694 0.106273  0.790729 0.943795 1 73 1.000000
0  -3.954739 -17.214050 -5.897856  -0.645073 -0.756694 0.106273  0.827509 0.956566 1 73 1.000000
Material
0  -3.954739 -17.648533 -6.332598  -0.635843 0.011935 0.771726  0.999835 0.703352 1 73 1.000000
0  -3.954739 -17.474693 -6.335286  -0.635843 0.011935 0.771726  0.914476 0.718186 1 73 1.000000
0  -4.001875 -17.483906 -6.373979  -0.635843 0.011935 0.771726  0.915391 0.698386 1 73 1.000000
Material
0  -3.143125 -17.740025 -6.814969  0.635779 0.000542 0.771871  0.000186 0.458684 1 73 1.000000
0  -3.128177 -17.742361 -6.827281  0.635779 0.000542 0.771871  0.000187 0.452439 1 73 1.000000
0  -3.095989 -17.585510 -6.853908  0.635779 0.000542 0.771871  0.079452 0.453974 1 73 1.000000
Material
0  -3.954739 -17.740025 -6.814969  -0.635836 0.000544 0.771824  0.999814 0.458684 1 73 1.000000
0  -3.954739 -17.576870 -6.815083  -0.635836 0.000544 0.771824  0.919924 0.473786 1 73 1.000000
0  -4.001875 -17.585510 -6.853908  -0.635836 0.000544 0.771824  0.920548 0.453974 1 73 1.000000
Material
0  -3.973619 -17.834236 -7.311685  -0.635845 0.057906 0.769641  0.999790 0.206740 1 73 1.000000
0  -3.954739 -17.831320 -7.296307  -0.635845 0.057906 0.769641  0.999791 0.214540 1 73 1.000000
0  -3.954739 -17.687160 -7.307154  -0.635845 0.057906 0.769641  0.928205 0.222622 1 73 1.000000
Material
0  -3.124245 -17.834236 -7.311685  0.635839 0.057908 0.769646  0.000210 0.206740 1 73 1.000000
0  -3.095989 -17.698664 -7.345229  0.635839 0.057908 0.769646  0.069701 0.202912 1 73 1.000000
0  -3.143125 -17.687160 -7.307154  0.635839 0.057908 0.769646  0.071795 0.222622 1 73 1.000000
Material
0  -3.143125 -17.576397 -5.952274  1.000000 0.000001 0.000000  0.000147 0.896259 1 73 1.000000
0  -3.143125 -17.648533 -6.332598  1.000000 0.000001 0.000000  0.000165 0.703352 1 73 1.000000
0  -3.143125 -17.474693 -6.335286  1.000000 0.000001 0.000000  0.085524 0.718186 1 73 1.000000
Material
0  -3.954739 -17.652571 -6.353880  -1.000000 0.000000 0.000000  0.999835 0.692557 1 73 1.000000
0  -3.954739 -17.493118 -6.412672  -1.000000 0.000000 0.000000  0.916307 0.678586 1 73 1.000000
0  -3.954739 -17.576870 -6.815083  -1.000000 0.000000 0.000000  0.919924 0.473786 1 73 1.000000
end
