version 1
nodes
0 "ValveBiped.Bip01_Spine4" -1
1 "ValveBiped.Bip01_L_Clavicle" 0
2 "ValveBiped.Bip01_L_UpperArm" 1
3 "ValveBiped.Bip01_L_Forearm" 2
4 "ValveBiped.Bip01_L_Hand" 3
5 "ValveBiped.Bip01_L_Finger4" 4
6 "ValveBiped.Bip01_L_Finger41" 5
7 "ValveBiped.Bip01_L_Finger42" 6
8 "ValveBiped.Bip01_L_Finger3" 4
9 "ValveBiped.Bip01_L_Finger31" 8
10 "ValveBiped.Bip01_L_Finger32" 9
11 "ValveBiped.Bip01_L_Finger2" 4
12 "ValveBiped.Bip01_L_Finger21" 11
13 "ValveBiped.Bip01_L_Finger22" 12
14 "ValveBiped.Bip01_L_Finger1" 4
15 "ValveBiped.Bip01_L_Finger11" 14
16 "ValveBiped.Bip01_L_Finger12" 15
17 "ValveBiped.Bip01_L_Finger0" 4
18 "ValveBiped.Bip01_L_Finger01" 17
19 "ValveBiped.Bip01_L_Finger02" 18
20 "ValveBiped.Bip01_L_Ulna" 3
21 "ValveBiped.Bip01_L_Wrist" 3
22 "rig_l_upperarm" 1
23 "rig_l_forearm" 22
24 "rig_d_l_forearm" 23
25 "rig_d_l_upperarm" 22
26 "ValveBiped.Bip01_R_Clavicle" 0
27 "ValveBiped.Bip01_R_UpperArm" 26
28 "ValveBiped.Bip01_R_Forearm" 27
29 "ValveBiped.Bip01_R_Hand" 28
30 "ValveBiped.Bip01_R_Finger4" 29
31 "ValveBiped.Bip01_R_Finger41" 30
32 "ValveBiped.Bip01_R_Finger42" 31
33 "ValveBiped.Bip01_R_Finger3" 29
34 "ValveBiped.Bip01_R_Finger31" 33
35 "ValveBiped.Bip01_R_Finger32" 34
36 "ValveBiped.Bip01_R_Finger2" 29
37 "ValveBiped.Bip01_R_Finger21" 36
38 "ValveBiped.Bip01_R_Finger22" 37
39 "ValveBiped.Bip01_R_Finger1" 29
40 "ValveBiped.Bip01_R_Finger11" 39
41 "ValveBiped.Bip01_R_Finger12" 40
42 "ValveBiped.Bip01_R_Finger0" 29
43 "ValveBiped.Bip01_R_Finger01" 42
44 "ValveBiped.Bip01_R_Finger02" 43
45 "ValveBiped.Bip01_R_Ulna" 28
46 "ValveBiped.Bip01_R_Wrist" 28
47 "rig_r_upperarm" 26
48 "rig_r_forearm" 47
49 "rig_d_r_forearm" 48
50 "rig_d_r_upperarm" 47
51 "rig_r_hand" -1
52 "rig_d_r_hand" 51
53 "rig_d_r_wrist" 52
54 "rig_l_hand" -1
55 "rig_d_l_hand" 54
56 "rig_d_l_wrist" 54
57 "rig_l_pole" -1
58 "rig_r_pole" -1
59 "rig_l_clavicle" -1
60 "rig_d_l_clavicle" 59
61 "rig_r_clavicle" -1
62 "rig_d_r_clavicle" 61
63 "Camera" -1
64 "body" -1
65 "trigger" 64
66 "bolt" 64
67 "chandle" 66
68 "barrel" 64
69 "magrel" 64
70 "fireselector" 64
71 "fireselector_inverted" 64
72 "magrel9mm" 64
73 "fakemag" -1
74 "fakerounds" 73
75 "mag" -1
76 "bullet1" 75
77 "bullet3" 75
78 "bullet2" 75
79 "bullet4" 75
80 "bizonmag" -1
81 "fakeroundsbizon" 80
82 "fakebizonmag" -1
83 "bullet1bizon" 82
84 "bullet2bizon" 82
end
skeleton
time 0
0  0.000006 0.000000 0.000000  -1.570800 -1.391899 -1.570792
1  2.033349 1.000767 1.937657  -1.544956 -1.855077 -0.198630
2  6.027515 -0.000324 0.000201  -1.583284 0.045954 -0.585171
3  11.692119 0.000650 -0.000737  -0.000012 0.000001 -0.056696
4  11.481224 0.000160 -0.000727  1.576889 -0.106574 0.041971
5  3.859504 -0.142825 -1.192079  -0.468169 0.151546 -0.880257
6  1.312590 0.000009 0.000007  -0.000027 0.000044 -0.439740
7  0.729357 0.000054 0.000049  0.000017 0.000021 -0.244317
8  3.942141 0.046330 -0.431543  -0.151817 0.073216 -0.811086
9  1.539113 0.000082 0.000004  -0.000007 0.000021 -0.247842
10  1.196331 0.000148 0.000029  0.000011 0.000018 -0.430770
11  3.883512 -0.047212 0.431351  0.085894 0.021858 -0.587909
12  1.719573 -0.000030 0.000017  0.000015 0.005518 -0.366533
13  1.209181 0.000090 0.000012  0.000004 0.003091 -0.216438
14  3.859679 -0.138420 1.332380  0.354466 -0.042717 -0.531784
15  1.719446 -0.000022 0.000029  0.000028 0.004066 -0.363025
16  1.099675 0.000049 0.000005  0.000003 0.002578 -0.244381
17  0.806011 -0.349039 1.321247  -1.222694 -0.679188 -0.788867
18  1.789819 -0.000005 -0.000017  0.000011 -0.000024 0.228523
19  1.207014 -0.000014 -0.000043  0.000002 -0.000008 0.362856
20  5.740638 0.000388 -0.000698  0.003035 0.000003 0.000063
21  11.481259 0.000207 -0.000799  0.004953 0.000188 -0.001556
22  6.027525 -0.000330 0.000200  0.059595 -2.453119 -2.193920
23  0.000000 11.692101 -0.000007  -0.043320 -0.000838 -0.036616
24  0.000003 0.000010 0.000000  0.868996 -0.000031 1.570739
25  -0.000001 -0.000012 -0.000001  0.868960 0.000002 1.570712
26  2.033355 1.000772 -1.937609  1.473120 1.855075 -0.198639
27  6.027509 -0.000259 -0.000228  1.639678 -0.005914 -0.586605
28  11.691991 0.000163 0.000859  -0.000047 -0.000002 -0.056019
29  11.481180 0.000159 0.000812  -1.565090 0.106510 0.041985
30  3.859439 -0.132758 1.193065  0.466290 -0.158048 -0.878823
31  1.312561 0.000024 -0.000000  0.000013 -0.000043 -0.439709
32  0.729345 0.000064 -0.000028  -0.000023 -0.000019 -0.244286
33  3.942048 0.050138 0.431000  0.150091 -0.079181 -0.810189
34  1.539098 0.000005 0.000000  0.000009 -0.000007 -0.247824
35  1.196302 0.000078 -0.000004  -0.000007 -0.000009 -0.430781
36  3.883415 -0.050474 -0.431084  -0.085915 -0.026392 -0.587660
37  1.719563 -0.000083 -0.000004  -0.000006 -0.007962 -0.366486
38  1.209197 0.000034 0.000011  0.000002 -0.004461 -0.216413
39  3.859589 -0.149084 -1.331321  -0.354445 0.038578 -0.531955
40  1.719413 -0.000097 -0.000038  -0.000030 -0.006584 -0.363030
41  1.099675 0.000021 0.000007  0.000004 -0.004188 -0.244347
42  0.805983 -0.359850 -1.318338  1.221444 0.673631 -0.793558
43  1.789779 -0.000010 -0.000040  -0.000028 0.000031 0.228553
44  1.206993 -0.000007 0.000005  -0.000017 0.000020 0.362910
45  5.740573 0.000079 0.000720  0.002190 -0.000014 0.000028
46  11.481181 0.000106 0.000906  -0.000016 -0.000090 -0.001837
47  6.027515 -0.000273 -0.000228  0.007346 -0.632954 -2.161819
48  -0.000001 11.691978 -0.000007  -0.042770 0.000797 0.036154
49  0.000002 0.000000 0.000000  2.272571 -0.000036 1.570860
50  -0.000008 -0.000013 0.000005  2.272645 -0.000036 1.570861
51  -22.676567 -0.984331 -17.554111  -1.605366 2.379717 -0.041994
52  0.000001 0.000002 -0.000000  0.008153 -0.000259 0.000009
53  -0.000000 -0.000001 0.000000  1.565115 0.043565 -0.106862
54  22.676517 -0.984221 -17.554199  1.605712 0.761853 0.042358
55  0.000001 -0.000003 -0.000000  0.000000 -0.000001 -0.000002
56  0.000032 0.000027 0.000001  -1.571901 -0.044449 -0.106509
57  15.265023 8.339654 -8.787539  1.570796 -0.000000 0.000000
58  -15.265000 8.339654 -8.787539  1.570796 -0.000000 0.000000
59  1.941978 -1.346989 1.821586  1.570796 -0.000000 0.000000
60  -0.004311 0.001230 -0.000371  0.006898 -0.005534 -0.284229
61  -1.937603 -1.346625 1.822824  1.570796 -0.000000 0.000000
62  0.000000 0.000000 0.000000  -0.078727 -3.136056 0.284226
63  0.000000 0.000000 0.000000  1.570796 -0.000000 0.000000
64  -3.590840 -11.939873 -2.851932  1.570796 -0.000000 0.000000
65  0.048105 -2.944859 0.933263  0.000000 -0.000000 0.000000
66  0.048105 -1.112260 5.803837  0.000000 -0.000000 0.000000
67  -1.140610 -0.098565 1.093603  0.000000 -0.000000 0.000000
68  0.217551 -1.673973 20.274757  0.000000 -0.000000 0.000000
69  0.217546 -3.706013 2.941690  0.000000 -0.000000 0.000000
70  0.048105 -1.885239 -0.022553  0.000000 -0.000000 0.000000
71  -0.082569 -1.959166 -0.004310  0.000000 -0.000000 0.000000
72  0.217546 -3.788155 3.509795  0.000000 -0.000000 0.000000
73  -3.588360 -16.646259 -6.949106  1.570796 -0.000000 0.000000
74  0.017809 1.799356 -0.402361  0.000000 -0.000000 0.000000
75  -3.588360 -16.646259 -6.949106  1.570796 -0.000000 0.000000
76  0.088237 2.028859 -0.387793  0.000000 -0.000000 0.000000
77  0.089166 1.580731 -0.409891  0.000000 -0.000000 0.000000
78  -0.263817 1.788471 -0.409405  0.000000 -0.000000 0.000000
79  -0.263817 1.287951 -0.409405  0.000000 -0.000000 0.000000
80  -3.588360 -24.729397 -6.123081  1.570796 -0.000000 0.000000
81  0.017809 0.973330 -8.485498  0.000000 -0.000000 0.000000
82  -3.588360 -24.729397 -6.123081  1.570796 -0.000000 0.000000
83  0.088237 1.202834 -8.470930  0.000000 -0.000000 0.000000
84  -0.263817 0.962445 -8.492542  0.000000 -0.000000 0.000000
end
triangles
Material
0  -4.108131 -17.135334 -6.047540  -0.800278 0.026443 0.599045  0.775741 0.890461 1 75 1.000000
0  -4.049075 -16.144884 -6.012365  -0.800278 0.026444 0.599045  0.293835 1.000507 1 75 1.000000
0  -4.108131 -15.567343 -6.124654  -0.800278 0.026442 0.599045  0.000388 0.999634 1 75 1.000000
Material
0  -3.061259 -17.156050 -5.820578  0.831017 -0.552079 0.067964  0.192846 0.999682 1 75 1.000000
0  -3.211023 -17.400774 -5.977303  0.831017 -0.552080 0.067963  0.087645 0.899987 1 75 1.000000
0  -3.048782 -17.159506 -5.975479  0.831017 -0.552080 0.067963  0.205666 0.923490 1 75 1.000000
Material
0  -2.989733 -17.135334 -6.047540  0.800297 0.026437 0.599020  0.224259 0.890461 1 75 1.000000
0  -3.048782 -16.144884 -6.012365  0.800297 0.026437 0.599020  0.706165 1.000507 1 75 1.000000
0  -3.048782 -17.159506 -5.975479  0.800297 0.026444 0.599020  0.205666 0.923490 1 75 1.000000
Material
0  -3.124162 -17.418106 -6.049820  0.660249 -0.378876 0.648478  0.085948 0.862845 1 75 1.000000
0  -3.048782 -17.159506 -5.975479  0.660253 -0.378864 0.648481  0.205666 0.923490 1 75 1.000000
0  -3.211023 -17.400774 -5.977303  0.660245 -0.378891 0.648474  0.087645 0.899987 1 75 1.000000
Material
0  -3.886842 -17.400774 -5.977303  -0.831030 -0.552060 0.067964  0.912355 0.899987 1 75 1.000000
0  -4.036597 -17.156050 -5.820578  -0.831030 -0.552060 0.067964  0.807154 0.999682 1 75 1.000000
0  -4.049075 -17.159506 -5.975479  -0.831030 -0.552060 0.067964  0.794334 0.923490 1 75 1.000000
Material
0  -3.211023 -17.379444 -5.778206  1.000000 0.000000 -0.000000  0.079439 0.999500 1 75 1.000000
0  -3.211023 -17.552654 -5.827077  1.000000 0.000000 -0.000000  -0.000834 0.959332 1 75 1.000000
0  -3.211023 -17.400774 -5.977303  1.000000 0.000000 -0.000000  0.087645 0.899987 1 75 1.000000
Material
0  -3.124162 -17.580336 -6.515518  0.752935 -0.316662 -0.576901  0.050110 0.619550 1 75 1.000000
0  -3.093433 -17.666641 -6.428040  0.752935 -0.316662 -0.576901  -0.000366 0.654307 1 75 1.000000
0  -3.124162 -17.673529 -6.464366  0.752935 -0.316662 -0.576901  -0.000337 0.635870 1 75 1.000000
Material
0  -3.124162 -17.817249 -7.284303  0.752976 -0.388801 -0.530905  0.006082 0.220809 1 75 1.000000
0  -3.074473 -17.815874 -7.214849  0.752976 -0.388801 -0.530905  0.000248 0.254955 1 75 1.000000
0  -3.124162 -17.827608 -7.276718  0.752976 -0.388801 -0.530905  0.000296 0.223553 1 75 1.000000
Material
0  -4.108132 -17.236397 -6.528855  -0.927231 -0.359048 0.106429  0.780152 0.645249 1 75 1.000000
0  -3.973703 -17.772240 -7.165392  -0.927231 -0.359048 0.106429  0.983010 0.283268 1 75 1.000000
0  -3.973703 -17.580336 -6.515518  -0.927231 -0.359048 0.106429  0.949890 0.619550 1 75 1.000000
Material
0  -3.973703 -17.580336 -6.515518  -1.000000 0.000000 0.000000  0.949890 0.619550 1 75 1.000000
0  -3.973703 -17.805832 -7.161894  -1.000000 0.000000 0.000000  0.999795 0.281833 1 75 1.000000
0  -3.973703 -17.673529 -6.464366  -1.000000 0.000000 0.000000  1.000337 0.635870 1 75 1.000000
Material
0  -3.973703 -17.580336 -6.515518  -0.752931 -0.316660 -0.576907  0.949890 0.619550 1 75 1.000000
0  -4.004433 -17.666639 -6.428041  -0.752931 -0.316660 -0.576907  1.000366 0.654308 1 75 1.000000
0  -4.108132 -17.236397 -6.528855  -0.752931 -0.316660 -0.576907  0.780152 0.645249 1 75 1.000000
Material
0  -3.973703 -17.817249 -7.284303  -0.752928 -0.388797 -0.530976  0.993918 0.220809 1 75 1.000000
0  -4.023392 -17.815874 -7.214849  -0.752928 -0.388797 -0.530976  0.999752 0.254955 1 75 1.000000
0  -4.108132 -17.477943 -7.342124  -0.752928 -0.388797 -0.530976  0.822282 0.224286 1 75 1.000000
Material
0  -3.124162 -17.772240 -7.165392  0.927280 -0.358950 0.106337  0.016990 0.283268 1 75 1.000000
0  -2.989733 -17.236397 -6.528855  0.927279 -0.358950 0.106337  0.219848 0.645249 1 75 1.000000
0  -3.124162 -17.580336 -6.515518  0.927280 -0.358950 0.106337  0.050110 0.619550 1 75 1.000000
Material
0  -2.989733 -17.236397 -6.528855  1.000000 -0.000000 0.000000  0.219848 0.645249 1 75 1.000000
0  -2.989733 -15.567343 -6.124654  1.000000 -0.000000 0.000000  0.999612 0.999634 1 75 1.000000
0  -2.989733 -17.135334 -6.047540  1.000000 -0.000000 0.000000  0.224259 0.890461 1 75 1.000000
Material
0  -3.124162 -17.418106 -6.049820  0.915441 -0.387113 0.110052  0.085948 0.862845 1 75 1.000000
0  -2.989733 -17.236397 -6.528855  0.915440 -0.387113 0.110054  0.219848 0.645249 1 75 1.000000
0  -2.989733 -17.135334 -6.047540  0.915441 -0.387112 0.110052  0.224259 0.890461 1 75 1.000000
Material
0  -4.049075 -17.159506 -5.975479  -0.996773 0.002917 0.080225  0.794334 0.923490 1 75 1.000000
0  -4.036597 -17.156050 -5.820578  -0.996773 0.002917 0.080225  0.807154 0.999682 1 75 1.000000
0  -4.049075 -16.144884 -6.012365  -0.996773 0.002917 0.080225  0.293835 1.000507 1 75 1.000000
Material
0  -3.124162 -17.839767 -7.340831  0.927827 -0.346036 0.139268  0.000346 0.191012 1 75 1.000000
0  -3.094879 -17.911505 -7.719045  0.927815 -0.346078 0.139249  0.000641 -0.000954 1 75 1.000000
0  -2.989733 -17.651670 -7.768327  0.927827 -0.346036 0.139269  0.132546 -0.000742 1 75 1.000000
Material
0  -3.973702 -17.418106 -6.049820  -0.915447 -0.387096 0.110058  0.914052 0.862845 1 75 1.000000
0  -4.108132 -17.236397 -6.528855  -0.915446 -0.387098 0.110061  0.780152 0.645249 1 75 1.000000
0  -3.973703 -17.551125 -6.391775  -0.915445 -0.387099 0.110065  0.947175 0.682895 1 75 1.000000
Material
0  -2.989733 -17.236397 -6.528855  1.000000 -0.000003 0.000000  0.219848 0.645249 1 75 1.000000
0  -2.989733 -15.789292 -7.294055  1.000000 -0.000003 0.000000  1.000451 0.406079 1 75 1.000000
0  -2.989733 -15.780166 -7.245973  1.000000 -0.000003 0.000000  1.000416 0.430484 1 75 1.000000
Material
0  -2.989733 -15.857050 -7.651057  1.000000 0.000001 -0.000000  1.000707 0.224875 1 75 1.000000
0  -2.989733 -17.477943 -7.342124  1.000000 0.000001 -0.000000  0.177718 0.224286 1 75 1.000000
0  -2.989733 -16.054058 -8.071346  1.000000 0.000001 -0.000000  0.943575 0.000562 1 75 1.000000
Material
0  -4.108132 -17.236397 -6.528855  -1.000000 0.000001 -0.000000  0.780152 0.645249 1 75 1.000000
0  -4.108131 -15.789292 -7.294055  -1.000000 0.000001 -0.000000  -0.000451 0.406079 1 75 1.000000
0  -4.108132 -17.477943 -7.342124  -1.000000 0.000001 -0.000000  0.822282 0.224286 1 75 1.000000
Material
0  -3.973702 -17.418106 -6.049820  -0.660334 -0.378857 0.648403  0.914052 0.862845 1 75 1.000000
0  -4.049075 -17.159506 -5.975479  -0.660328 -0.378874 0.648399  0.794334 0.923490 1 75 1.000000
0  -4.108131 -17.135334 -6.047540  -0.660331 -0.378868 0.648400  0.775741 0.890461 1 75 1.000000
Material
0  -3.973703 -17.817249 -7.284303  -1.000000 0.000000 0.000000  0.993918 0.220809 1 75 1.000000
0  -3.973703 -17.839767 -7.340831  -1.000000 0.000000 0.000000  0.999654 0.191012 1 75 1.000000
0  -3.973703 -17.832485 -7.302433  -1.000000 0.000000 0.000000  0.999684 0.210501 1 75 1.000000
Material
0  -4.108131 -15.857050 -7.651057  -0.455965 0.805859 -0.377740  -0.000707 0.224875 1 75 1.000000
0  -3.890342 -15.940892 -8.092811  -0.455965 0.805859 -0.377740  -0.001024 0.000654 1 75 1.000000
0  -4.108131 -16.054058 -8.071346  -0.455965 0.805859 -0.377740  0.056425 0.000562 1 75 1.000000
Material
0  -4.108131 -15.567343 -6.124654  -1.000000 0.000000 0.000001  0.000388 0.999634 1 75 1.000000
0  -4.108132 -17.236397 -6.528855  -1.000000 0.000000 0.000001  0.780152 0.645249 1 75 1.000000
0  -4.108131 -17.135334 -6.047540  -1.000000 0.000000 0.000001  0.775741 0.890461 1 75 1.000000
Material
0  -3.124162 -17.593670 -6.043318  0.854430 0.224387 0.468615  -0.000666 0.849577 1 75 1.000000
0  -3.211023 -17.400774 -5.977303  0.854431 0.224384 0.468614  0.087645 0.899987 1 75 1.000000
0  -3.211023 -17.552654 -5.827077  0.854437 0.224370 0.468610  -0.000834 0.959332 1 75 1.000000
Material
0  -3.886842 -17.552654 -5.827077  -1.000000 0.000004 0.000000  1.000834 0.959332 1 75 1.000000
0  -3.886842 -17.379444 -5.778206  -1.000000 0.000004 0.000000  0.920560 0.999500 1 75 1.000000
0  -3.886842 -17.400774 -5.977303  -1.000000 0.000004 0.000000  0.912355 0.899987 1 75 1.000000
Material
0  -4.108132 -17.477943 -7.342124  -1.000000 0.000000 -0.000000  0.822282 0.224286 1 75 1.000000
0  -4.108131 -15.789292 -7.294055  -1.000000 0.000000 -0.000000  -0.000451 0.406079 1 75 1.000000
0  -4.108131 -15.857050 -7.651057  -1.000000 0.000000 -0.000000  -0.000707 0.224875 1 75 1.000000
Material
0  -3.048782 -16.144884 -6.012365  0.996773 0.002916 0.080224  0.706165 1.000507 1 75 1.000000
0  -3.061259 -17.156050 -5.820578  0.996773 0.002916 0.080224  0.192846 0.999682 1 75 1.000000
0  -3.048782 -17.159506 -5.975479  0.996773 0.002916 0.080224  0.205666 0.923490 1 75 1.000000
Material
0  -3.093433 -17.666641 -6.428040  0.734050 -0.017853 0.678861  -0.000366 0.654307 1 75 1.000000
0  -3.124162 -17.551125 -6.391775  0.734050 -0.017853 0.678861  0.052825 0.682895 1 75 1.000000
0  -3.124162 -17.660305 -6.394646  0.734050 -0.017853 0.678861  -0.000392 0.671257 1 75 1.000000
Material
0  -3.074473 -17.815874 -7.214849  0.734028 0.070323 0.675468  0.000248 0.254955 1 75 1.000000
0  -3.124162 -17.772240 -7.165392  0.734028 0.070323 0.675468  0.016990 0.283268 1 75 1.000000
0  -3.124162 -17.805832 -7.161894  0.734028 0.070323 0.675468  0.000205 0.281833 1 75 1.000000
Material
0  -3.973703 -17.839767 -7.340831  -0.927827 -0.346053 0.139228  0.999654 0.191012 1 75 1.000000
0  -3.973703 -17.817249 -7.284303  -0.927827 -0.346053 0.139228  0.993918 0.220809 1 75 1.000000
0  -4.108132 -17.477943 -7.342124  -0.927827 -0.346053 0.139228  0.822282 0.224286 1 75 1.000000
Material
0  -3.124162 -17.805832 -7.161894  1.000000 0.000005 0.000000  0.000205 0.281833 1 75 1.000000
0  -3.124162 -17.580336 -6.515518  1.000000 0.000005 0.000000  0.050110 0.619550 1 75 1.000000
0  -3.124162 -17.673529 -6.464366  1.000000 0.000005 0.000000  -0.000337 0.635870 1 75 1.000000
Material
0  -3.973702 -17.593670 -6.043318  -0.854372 0.224309 0.468758  1.000666 0.849577 1 75 1.000000
0  -3.886842 -17.400774 -5.977303  -0.854373 0.224314 0.468754  0.912355 0.899987 1 75 1.000000
0  -3.973702 -17.418106 -6.049820  -0.854379 0.224293 0.468753  0.914052 0.862845 1 75 1.000000
Material
0  -4.004433 -17.666639 -6.428041  -0.734047 -0.017849 0.678864  1.000366 0.654308 1 75 1.000000
0  -3.973703 -17.551125 -6.391775  -0.734047 -0.017849 0.678864  0.947175 0.682895 1 75 1.000000
0  -4.108132 -17.236397 -6.528855  -0.734047 -0.017849 0.678864  0.780152 0.645249 1 75 1.000000
Material
0  -3.124162 -17.832485 -7.302433  1.000000 0.000066 0.000000  0.000316 0.210501 1 75 1.000000
0  -3.124162 -17.839767 -7.340831  1.000000 0.000066 0.000000  0.000346 0.191012 1 75 1.000000
0  -3.124162 -17.817249 -7.284303  1.000000 0.000066 0.000000  0.006082 0.220809 1 75 1.000000
Material
0  -4.023392 -17.815874 -7.214849  -0.734056 0.070329 0.675438  0.999752 0.254955 1 75 1.000000
0  -3.973703 -17.772240 -7.165392  -0.734056 0.070329 0.675438  0.983010 0.283268 1 75 1.000000
0  -4.108132 -17.477943 -7.342124  -0.734056 0.070329 0.675438  0.822282 0.224286 1 75 1.000000
Material
0  -3.124162 -17.827608 -7.276718  1.000000 0.000000 0.000000  0.000296 0.223553 1 75 1.000000
0  -3.124162 -17.832485 -7.302433  1.000000 0.000000 0.000000  0.000316 0.210501 1 75 1.000000
0  -3.124162 -17.817249 -7.284303  1.000000 0.000000 0.000000  0.006082 0.220809 1 75 1.000000
Material
0  -2.989733 -16.054058 -8.071346  0.445226 0.810768 -0.380038  0.943575 0.000562 1 75 1.000000
0  -3.214134 -15.940892 -8.092811  0.445226 0.810768 -0.380038  1.001024 0.000654 1 75 1.000000
0  -2.989733 -15.857050 -7.651057  0.445226 0.810768 -0.380038  1.000707 0.224875 1 75 1.000000
Material
0  -3.973703 -17.832485 -7.302433  -1.000000 0.000012 0.000000  0.999684 0.210501 1 75 1.000000
0  -3.973703 -17.827608 -7.276718  -1.000000 0.000012 0.000000  0.999704 0.223553 1 75 1.000000
0  -3.973703 -17.817249 -7.284303  -1.000000 0.000012 0.000000  0.993918 0.220809 1 75 1.000000
Material
0  -3.973702 -17.593670 -6.043318  -1.000000 0.000002 0.000001  1.000666 0.849577 1 75 1.000000
0  -3.973703 -17.551125 -6.391775  -1.000000 0.000002 0.000001  0.947175 0.682895 1 75 1.000000
0  -3.973703 -17.660305 -6.394646  -1.000000 0.000002 0.000001  1.000392 0.671257 1 75 1.000000
Material
0  -3.124162 -17.593670 -6.043318  1.000000 0.000000 0.000000  -0.000666 0.849577 1 75 1.000000
0  -3.124162 -17.551125 -6.391775  1.000000 0.000000 0.000000  0.052825 0.682895 1 75 1.000000
0  -3.124162 -17.418106 -6.049820  1.000000 0.000000 0.000000  0.085948 0.862845 1 75 1.000000
Material
0  -4.108131 -17.135334 -6.047540  -0.800278 0.026443 0.599045  0.775741 0.890461 1 73 1.000000
0  -4.049075 -16.144884 -6.012365  -0.800278 0.026444 0.599045  0.293835 1.000507 1 73 1.000000
0  -4.108131 -15.567343 -6.124654  -0.800278 0.026442 0.599045  0.000388 0.999634 1 73 1.000000
Material
0  -3.061259 -17.156050 -5.820578  0.831017 -0.552079 0.067964  0.192846 0.999682 1 73 1.000000
0  -3.211023 -17.400774 -5.977303  0.831017 -0.552080 0.067963  0.087645 0.899987 1 73 1.000000
0  -3.048782 -17.159506 -5.975479  0.831017 -0.552080 0.067963  0.205666 0.923490 1 73 1.000000
Material
0  -2.989733 -17.135334 -6.047540  0.800297 0.026437 0.599020  0.224259 0.890461 1 73 1.000000
0  -3.048782 -16.144884 -6.012365  0.800297 0.026437 0.599020  0.706165 1.000507 1 73 1.000000
0  -3.048782 -17.159506 -5.975479  0.800297 0.026444 0.599020  0.205666 0.923490 1 73 1.000000
Material
0  -3.124162 -17.418106 -6.049820  0.660249 -0.378876 0.648478  0.085948 0.862845 1 73 1.000000
0  -3.048782 -17.159506 -5.975479  0.660253 -0.378864 0.648481  0.205666 0.923490 1 73 1.000000
0  -3.211023 -17.400774 -5.977303  0.660245 -0.378891 0.648474  0.087645 0.899987 1 73 1.000000
Material
0  -3.886842 -17.400774 -5.977303  -0.831030 -0.552060 0.067964  0.912355 0.899987 1 73 1.000000
0  -4.036597 -17.156050 -5.820578  -0.831030 -0.552060 0.067964  0.807154 0.999682 1 73 1.000000
0  -4.049075 -17.159506 -5.975479  -0.831030 -0.552060 0.067964  0.794334 0.923490 1 73 1.000000
Material
0  -3.211023 -17.379444 -5.778206  1.000000 0.000000 -0.000000  0.079439 0.999500 1 73 1.000000
0  -3.211023 -17.552654 -5.827077  1.000000 0.000000 -0.000000  -0.000834 0.959332 1 73 1.000000
0  -3.211023 -17.400774 -5.977303  1.000000 0.000000 -0.000000  0.087645 0.899987 1 73 1.000000
Material
0  -3.124162 -17.580336 -6.515518  0.752935 -0.316662 -0.576901  0.050110 0.619550 1 73 1.000000
0  -3.093433 -17.666641 -6.428040  0.752935 -0.316662 -0.576901  -0.000366 0.654307 1 73 1.000000
0  -3.124162 -17.673529 -6.464366  0.752935 -0.316662 -0.576901  -0.000337 0.635870 1 73 1.000000
Material
0  -3.124162 -17.817249 -7.284303  0.752976 -0.388801 -0.530905  0.006082 0.220809 1 73 1.000000
0  -3.074473 -17.815874 -7.214849  0.752976 -0.388801 -0.530905  0.000248 0.254955 1 73 1.000000
0  -3.124162 -17.827608 -7.276718  0.752976 -0.388801 -0.530905  0.000296 0.223553 1 73 1.000000
Material
0  -4.108132 -17.236397 -6.528855  -0.927231 -0.359048 0.106429  0.780152 0.645249 1 73 1.000000
0  -3.973703 -17.772240 -7.165392  -0.927231 -0.359048 0.106429  0.983010 0.283268 1 73 1.000000
0  -3.973703 -17.580336 -6.515518  -0.927231 -0.359048 0.106429  0.949890 0.619550 1 73 1.000000
Material
0  -3.973703 -17.580336 -6.515518  -1.000000 0.000000 0.000000  0.949890 0.619550 1 73 1.000000
0  -3.973703 -17.805832 -7.161894  -1.000000 0.000000 0.000000  0.999795 0.281833 1 73 1.000000
0  -3.973703 -17.673529 -6.464366  -1.000000 0.000000 0.000000  1.000337 0.635870 1 73 1.000000
Material
0  -3.973703 -17.580336 -6.515518  -0.752931 -0.316660 -0.576907  0.949890 0.619550 1 73 1.000000
0  -4.004433 -17.666639 -6.428041  -0.752931 -0.316660 -0.576907  1.000366 0.654308 1 73 1.000000
0  -4.108132 -17.236397 -6.528855  -0.752931 -0.316660 -0.576907  0.780152 0.645249 1 73 1.000000
Material
0  -3.973703 -17.817249 -7.284303  -0.752928 -0.388797 -0.530976  0.993918 0.220809 1 73 1.000000
0  -4.023392 -17.815874 -7.214849  -0.752928 -0.388797 -0.530976  0.999752 0.254955 1 73 1.000000
0  -4.108132 -17.477943 -7.342124  -0.752928 -0.388797 -0.530976  0.822282 0.224286 1 73 1.000000
Material
0  -3.124162 -17.772240 -7.165392  0.927280 -0.358950 0.106337  0.016990 0.283268 1 73 1.000000
0  -2.989733 -17.236397 -6.528855  0.927279 -0.358950 0.106337  0.219848 0.645249 1 73 1.000000
0  -3.124162 -17.580336 -6.515518  0.927280 -0.358950 0.106337  0.050110 0.619550 1 73 1.000000
Material
0  -2.989733 -17.236397 -6.528855  1.000000 -0.000000 0.000000  0.219848 0.645249 1 73 1.000000
0  -2.989733 -15.567343 -6.124654  1.000000 -0.000000 0.000000  0.999612 0.999634 1 73 1.000000
0  -2.989733 -17.135334 -6.047540  1.000000 -0.000000 0.000000  0.224259 0.890461 1 73 1.000000
Material
0  -3.124162 -17.418106 -6.049820  0.915441 -0.387113 0.110052  0.085948 0.862845 1 73 1.000000
0  -2.989733 -17.236397 -6.528855  0.915440 -0.387113 0.110054  0.219848 0.645249 1 73 1.000000
0  -2.989733 -17.135334 -6.047540  0.915441 -0.387112 0.110052  0.224259 0.890461 1 73 1.000000
Material
0  -4.049075 -17.159506 -5.975479  -0.996773 0.002917 0.080225  0.794334 0.923490 1 73 1.000000
0  -4.036597 -17.156050 -5.820578  -0.996773 0.002917 0.080225  0.807154 0.999682 1 73 1.000000
0  -4.049075 -16.144884 -6.012365  -0.996773 0.002917 0.080225  0.293835 1.000507 1 73 1.000000
Material
0  -3.124162 -17.839767 -7.340831  0.927827 -0.346036 0.139268  0.000346 0.191012 1 73 1.000000
0  -3.094879 -17.911505 -7.719045  0.927815 -0.346078 0.139249  0.000641 -0.000954 1 73 1.000000
0  -2.989733 -17.651670 -7.768327  0.927827 -0.346036 0.139269  0.132546 -0.000742 1 73 1.000000
Material
0  -3.973702 -17.418106 -6.049820  -0.915447 -0.387096 0.110058  0.914052 0.862845 1 73 1.000000
0  -4.108132 -17.236397 -6.528855  -0.915446 -0.387098 0.110061  0.780152 0.645249 1 73 1.000000
0  -3.973703 -17.551125 -6.391775  -0.915445 -0.387099 0.110065  0.947175 0.682895 1 73 1.000000
Material
0  -2.989733 -17.236397 -6.528855  1.000000 -0.000003 0.000000  0.219848 0.645249 1 73 1.000000
0  -2.989733 -15.789292 -7.294055  1.000000 -0.000003 0.000000  1.000451 0.406079 1 73 1.000000
0  -2.989733 -15.780166 -7.245973  1.000000 -0.000003 0.000000  1.000416 0.430484 1 73 1.000000
Material
0  -2.989733 -15.857050 -7.651057  1.000000 0.000001 -0.000000  1.000707 0.224875 1 73 1.000000
0  -2.989733 -17.477943 -7.342124  1.000000 0.000001 -0.000000  0.177718 0.224286 1 73 1.000000
0  -2.989733 -16.054058 -8.071346  1.000000 0.000001 -0.000000  0.943575 0.000562 1 73 1.000000
Material
0  -4.108132 -17.236397 -6.528855  -1.000000 0.000001 -0.000000  0.780152 0.645249 1 73 1.000000
0  -4.108131 -15.789292 -7.294055  -1.000000 0.000001 -0.000000  -0.000451 0.406079 1 73 1.000000
0  -4.108132 -17.477943 -7.342124  -1.000000 0.000001 -0.000000  0.822282 0.224286 1 73 1.000000
Material
0  -3.973702 -17.418106 -6.049820  -0.660334 -0.378857 0.648403  0.914052 0.862845 1 73 1.000000
0  -4.049075 -17.159506 -5.975479  -0.660328 -0.378874 0.648399  0.794334 0.923490 1 73 1.000000
0  -4.108131 -17.135334 -6.047540  -0.660331 -0.378868 0.648400  0.775741 0.890461 1 73 1.000000
Material
0  -3.973703 -17.817249 -7.284303  -1.000000 0.000000 0.000000  0.993918 0.220809 1 73 1.000000
0  -3.973703 -17.839767 -7.340831  -1.000000 0.000000 0.000000  0.999654 0.191012 1 73 1.000000
0  -3.973703 -17.832485 -7.302433  -1.000000 0.000000 0.000000  0.999684 0.210501 1 73 1.000000
Material
0  -4.108131 -15.857050 -7.651057  -0.455965 0.805859 -0.377740  -0.000707 0.224875 1 73 1.000000
0  -3.890342 -15.940892 -8.092811  -0.455965 0.805859 -0.377740  -0.001024 0.000654 1 73 1.000000
0  -4.108131 -16.054058 -8.071346  -0.455965 0.805859 -0.377740  0.056425 0.000562 1 73 1.000000
Material
0  -4.108131 -15.567343 -6.124654  -1.000000 0.000000 0.000001  0.000388 0.999634 1 73 1.000000
0  -4.108132 -17.236397 -6.528855  -1.000000 0.000000 0.000001  0.780152 0.645249 1 73 1.000000
0  -4.108131 -17.135334 -6.047540  -1.000000 0.000000 0.000001  0.775741 0.890461 1 73 1.000000
Material
0  -3.124162 -17.593670 -6.043318  0.854430 0.224387 0.468615  -0.000666 0.849577 1 73 1.000000
0  -3.211023 -17.400774 -5.977303  0.854431 0.224384 0.468614  0.087645 0.899987 1 73 1.000000
0  -3.211023 -17.552654 -5.827077  0.854437 0.224370 0.468610  -0.000834 0.959332 1 73 1.000000
Material
0  -3.886842 -17.552654 -5.827077  -1.000000 0.000004 0.000000  1.000834 0.959332 1 73 1.000000
0  -3.886842 -17.379444 -5.778206  -1.000000 0.000004 0.000000  0.920560 0.999500 1 73 1.000000
0  -3.886842 -17.400774 -5.977303  -1.000000 0.000004 0.000000  0.912355 0.899987 1 73 1.000000
Material
0  -4.108132 -17.477943 -7.342124  -1.000000 0.000000 -0.000000  0.822282 0.224286 1 73 1.000000
0  -4.108131 -15.789292 -7.294055  -1.000000 0.000000 -0.000000  -0.000451 0.406079 1 73 1.000000
0  -4.108131 -15.857050 -7.651057  -1.000000 0.000000 -0.000000  -0.000707 0.224875 1 73 1.000000
Material
0  -3.048782 -16.144884 -6.012365  0.996773 0.002916 0.080224  0.706165 1.000507 1 73 1.000000
0  -3.061259 -17.156050 -5.820578  0.996773 0.002916 0.080224  0.192846 0.999682 1 73 1.000000
0  -3.048782 -17.159506 -5.975479  0.996773 0.002916 0.080224  0.205666 0.923490 1 73 1.000000
Material
0  -3.093433 -17.666641 -6.428040  0.734050 -0.017853 0.678861  -0.000366 0.654307 1 73 1.000000
0  -3.124162 -17.551125 -6.391775  0.734050 -0.017853 0.678861  0.052825 0.682895 1 73 1.000000
0  -3.124162 -17.660305 -6.394646  0.734050 -0.017853 0.678861  -0.000392 0.671257 1 73 1.000000
Material
0  -3.074473 -17.815874 -7.214849  0.734028 0.070323 0.675468  0.000248 0.254955 1 73 1.000000
0  -3.124162 -17.772240 -7.165392  0.734028 0.070323 0.675468  0.016990 0.283268 1 73 1.000000
0  -3.124162 -17.805832 -7.161894  0.734028 0.070323 0.675468  0.000205 0.281833 1 73 1.000000
Material
0  -3.973703 -17.839767 -7.340831  -0.927827 -0.346053 0.139228  0.999654 0.191012 1 73 1.000000
0  -3.973703 -17.817249 -7.284303  -0.927827 -0.346053 0.139228  0.993918 0.220809 1 73 1.000000
0  -4.108132 -17.477943 -7.342124  -0.927827 -0.346053 0.139228  0.822282 0.224286 1 73 1.000000
Material
0  -3.124162 -17.805832 -7.161894  1.000000 0.000005 0.000000  0.000205 0.281833 1 73 1.000000
0  -3.124162 -17.580336 -6.515518  1.000000 0.000005 0.000000  0.050110 0.619550 1 73 1.000000
0  -3.124162 -17.673529 -6.464366  1.000000 0.000005 0.000000  -0.000337 0.635870 1 73 1.000000
Material
0  -3.973702 -17.593670 -6.043318  -0.854372 0.224309 0.468758  1.000666 0.849577 1 73 1.000000
0  -3.886842 -17.400774 -5.977303  -0.854373 0.224314 0.468754  0.912355 0.899987 1 73 1.000000
0  -3.973702 -17.418106 -6.049820  -0.854379 0.224293 0.468753  0.914052 0.862845 1 73 1.000000
Material
0  -4.004433 -17.666639 -6.428041  -0.734047 -0.017849 0.678864  1.000366 0.654308 1 73 1.000000
0  -3.973703 -17.551125 -6.391775  -0.734047 -0.017849 0.678864  0.947175 0.682895 1 73 1.000000
0  -4.108132 -17.236397 -6.528855  -0.734047 -0.017849 0.678864  0.780152 0.645249 1 73 1.000000
Material
0  -3.124162 -17.832485 -7.302433  1.000000 0.000066 0.000000  0.000316 0.210501 1 73 1.000000
0  -3.124162 -17.839767 -7.340831  1.000000 0.000066 0.000000  0.000346 0.191012 1 73 1.000000
0  -3.124162 -17.817249 -7.284303  1.000000 0.000066 0.000000  0.006082 0.220809 1 73 1.000000
Material
0  -4.023392 -17.815874 -7.214849  -0.734056 0.070329 0.675438  0.999752 0.254955 1 73 1.000000
0  -3.973703 -17.772240 -7.165392  -0.734056 0.070329 0.675438  0.983010 0.283268 1 73 1.000000
0  -4.108132 -17.477943 -7.342124  -0.734056 0.070329 0.675438  0.822282 0.224286 1 73 1.000000
Material
0  -3.124162 -17.827608 -7.276718  1.000000 0.000000 0.000000  0.000296 0.223553 1 73 1.000000
0  -3.124162 -17.832485 -7.302433  1.000000 0.000000 0.000000  0.000316 0.210501 1 73 1.000000
0  -3.124162 -17.817249 -7.284303  1.000000 0.000000 0.000000  0.006082 0.220809 1 73 1.000000
Material
0  -2.989733 -16.054058 -8.071346  0.445226 0.810768 -0.380038  0.943575 0.000562 1 73 1.000000
0  -3.214134 -15.940892 -8.092811  0.445226 0.810768 -0.380038  1.001024 0.000654 1 73 1.000000
0  -2.989733 -15.857050 -7.651057  0.445226 0.810768 -0.380038  1.000707 0.224875 1 73 1.000000
Material
0  -3.973703 -17.832485 -7.302433  -1.000000 0.000012 0.000000  0.999684 0.210501 1 73 1.000000
0  -3.973703 -17.827608 -7.276718  -1.000000 0.000012 0.000000  0.999704 0.223553 1 73 1.000000
0  -3.973703 -17.817249 -7.284303  -1.000000 0.000012 0.000000  0.993918 0.220809 1 73 1.000000
Material
0  -3.973702 -17.593670 -6.043318  -1.000000 0.000002 0.000001  1.000666 0.849577 1 73 1.000000
0  -3.973703 -17.551125 -6.391775  -1.000000 0.000002 0.000001  0.947175 0.682895 1 73 1.000000
0  -3.973703 -17.660305 -6.394646  -1.000000 0.000002 0.000001  1.000392 0.671257 1 73 1.000000
Material
0  -3.124162 -17.593670 -6.043318  1.000000 0.000000 0.000000  -0.000666 0.849577 1 73 1.000000
0  -3.124162 -17.551125 -6.391775  1.000000 0.000000 0.000000  0.052825 0.682895 1 73 1.000000
0  -3.124162 -17.418106 -6.049820  1.000000 0.000000 0.000000  0.085948 0.862845 1 73 1.000000
Material
0  -4.108131 -17.135334 -6.047540  -0.800256 0.026446 0.599075  0.775741 0.890461 1 75 1.000000
0  -4.049075 -17.159506 -5.975479  -0.800257 0.026439 0.599074  0.794334 0.923490 1 75 1.000000
0  -4.049075 -16.144884 -6.012365  -0.800257 0.026440 0.599074  0.293835 1.000507 1 75 1.000000
Material
0  -3.061259 -17.156050 -5.820578  0.831031 -0.552063 0.067923  0.192846 0.999682 1 75 1.000000
0  -3.211023 -17.379444 -5.778206  0.831032 -0.552062 0.067923  0.079439 0.999500 1 75 1.000000
0  -3.211023 -17.400774 -5.977303  0.831032 -0.552062 0.067923  0.087645 0.899987 1 75 1.000000
Material
0  -2.989733 -17.135334 -6.047540  0.800317 0.026441 0.598993  0.224259 0.890461 1 75 1.000000
0  -2.989733 -15.567343 -6.124654  0.800317 0.026441 0.598993  0.999612 0.999634 1 75 1.000000
0  -3.048782 -16.144884 -6.012365  0.800317 0.026440 0.598993  0.706165 1.000507 1 75 1.000000
Material
0  -3.124162 -17.418106 -6.049820  0.660339 -0.378900 0.648373  0.085948 0.862845 1 75 1.000000
0  -2.989733 -17.135334 -6.047540  0.660344 -0.378885 0.648377  0.224259 0.890461 1 75 1.000000
0  -3.048782 -17.159506 -5.975479  0.660341 -0.378893 0.648375  0.205666 0.923490 1 75 1.000000
Material
0  -3.886842 -17.400774 -5.977303  -0.831032 -0.552058 0.067958  0.912355 0.899987 1 75 1.000000
0  -3.886842 -17.379444 -5.778206  -0.831032 -0.552057 0.067959  0.920560 0.999500 1 75 1.000000
0  -4.036597 -17.156050 -5.820578  -0.831032 -0.552057 0.067959  0.807154 0.999682 1 75 1.000000
Material
0  -3.211023 -17.379444 -5.778206  1.000000 0.000000 0.000003  0.079439 0.999500 1 75 1.000000
0  -3.211023 -17.537693 -5.748192  1.000000 0.000000 0.000003  -0.000896 0.999371 1 75 1.000000
0  -3.211023 -17.552654 -5.827077  1.000000 0.000000 0.000003  -0.000834 0.959332 1 75 1.000000
Material
0  -3.124162 -17.580336 -6.515518  0.752933 -0.316656 -0.576906  0.050110 0.619550 1 75 1.000000
0  -2.989733 -17.236397 -6.528855  0.752933 -0.316656 -0.576906  0.219848 0.645249 1 75 1.000000
0  -3.093433 -17.666641 -6.428040  0.752933 -0.316656 -0.576906  -0.000366 0.654307 1 75 1.000000
Material
0  -3.124162 -17.817249 -7.284303  0.752926 -0.388794 -0.530982  0.006082 0.220809 1 75 1.000000
0  -2.989733 -17.477943 -7.342124  0.752926 -0.388794 -0.530982  0.177718 0.224286 1 75 1.000000
0  -3.074473 -17.815874 -7.214849  0.752926 -0.388794 -0.530982  0.000248 0.254955 1 75 1.000000
Material
0  -4.108132 -17.236397 -6.528855  -0.927298 -0.358914 0.106302  0.780152 0.645249 1 75 1.000000
0  -4.108132 -17.477943 -7.342124  -0.927265 -0.358979 0.106364  0.822282 0.224286 1 75 1.000000
0  -3.973703 -17.772240 -7.165392  -0.927265 -0.358979 0.106364  0.983010 0.283268 1 75 1.000000
Material
0  -3.973703 -17.580336 -6.515518  -1.000000 -0.000017 0.000000  0.949890 0.619550 1 75 1.000000
0  -3.973703 -17.772240 -7.165392  -1.000000 -0.000017 0.000000  0.983010 0.283268 1 75 1.000000
0  -3.973703 -17.805832 -7.161894  -1.000000 -0.000017 0.000000  0.999795 0.281833 1 75 1.000000
Material
0  -3.973703 -17.580336 -6.515518  -0.752929 -0.316664 -0.576907  0.949890 0.619550 1 75 1.000000
0  -3.973703 -17.673529 -6.464366  -0.752929 -0.316664 -0.576907  1.000337 0.635870 1 75 1.000000
0  -4.004433 -17.666639 -6.428041  -0.752929 -0.316664 -0.576907  1.000366 0.654308 1 75 1.000000
Material
0  -3.973703 -17.817249 -7.284303  -0.752976 -0.388801 -0.530905  0.993918 0.220809 1 75 1.000000
0  -3.973703 -17.827608 -7.276718  -0.752976 -0.388801 -0.530905  0.999704 0.223553 1 75 1.000000
0  -4.023392 -17.815874 -7.214849  -0.752976 -0.388801 -0.530905  0.999752 0.254955 1 75 1.000000
Material
0  -3.124162 -17.772240 -7.165392  0.927233 -0.359044 0.106426  0.016990 0.283268 1 75 1.000000
0  -2.989733 -17.477943 -7.342124  0.927233 -0.359044 0.106426  0.177718 0.224286 1 75 1.000000
0  -2.989733 -17.236397 -6.528855  0.927233 -0.359044 0.106426  0.219848 0.645249 1 75 1.000000
Material
0  -2.989733 -17.236397 -6.528855  1.000000 0.000000 0.000000  0.219848 0.645249 1 75 1.000000
0  -2.989733 -15.780166 -7.245973  1.000000 0.000000 0.000000  1.000416 0.430484 1 75 1.000000
0  -2.989733 -15.567343 -6.124654  1.000000 0.000000 0.000000  0.999612 0.999634 1 75 1.000000
Material
0  -3.124162 -17.418106 -6.049820  0.915446 -0.387097 0.110064  0.085948 0.862845 1 75 1.000000
0  -3.124162 -17.551125 -6.391775  0.915448 -0.387095 0.110059  0.052825 0.682895 1 75 1.000000
0  -2.989733 -17.236397 -6.528855  0.915448 -0.387095 0.110059  0.219848 0.645249 1 75 1.000000
Material
0  -2.989733 -17.651670 -7.768327  0.927810 -0.346094 0.139237  0.132546 -0.000742 1 75 1.000000
0  -2.989733 -17.477943 -7.342124  0.927821 -0.346055 0.139263  0.177718 0.224286 1 75 1.000000
0  -3.124162 -17.839767 -7.340831  0.927821 -0.346055 0.139263  0.000346 0.191012 1 75 1.000000
Material
0  -2.989733 -17.477943 -7.342124  0.927826 -0.346055 0.139229  0.177718 0.224286 1 75 1.000000
0  -3.124162 -17.817249 -7.284303  0.927826 -0.346055 0.139229  0.006082 0.220809 1 75 1.000000
0  -3.124162 -17.839767 -7.340831  0.927826 -0.346055 0.139229  0.000346 0.191012 1 75 1.000000
Material
0  -3.973702 -17.418106 -6.049820  -0.915442 -0.387111 0.110056  0.914052 0.862845 1 75 1.000000
0  -4.108131 -17.135334 -6.047540  -0.915442 -0.387110 0.110053  0.775741 0.890461 1 75 1.000000
0  -4.108132 -17.236397 -6.528855  -0.915442 -0.387110 0.110055  0.780152 0.645249 1 75 1.000000
Material
0  -2.989733 -17.236397 -6.528855  1.000000 0.000000 0.000000  0.219848 0.645249 1 75 1.000000
0  -2.989733 -17.477943 -7.342124  1.000000 0.000000 0.000000  0.177718 0.224286 1 75 1.000000
0  -2.989733 -15.789292 -7.294055  1.000000 0.000000 0.000000  1.000451 0.406079 1 75 1.000000
Material
0  -2.989733 -15.789292 -7.294055  1.000000 0.000000 -0.000000  1.000451 0.406079 1 75 1.000000
0  -2.989733 -17.477943 -7.342124  1.000000 0.000000 -0.000000  0.177718 0.224286 1 75 1.000000
0  -2.989733 -15.857050 -7.651057  1.000000 0.000000 -0.000000  1.000707 0.224875 1 75 1.000000
Material
0  -2.989733 -17.477943 -7.342124  1.000000 -0.000000 -0.000000  0.177718 0.224286 1 75 1.000000
0  -2.989733 -17.651670 -7.768327  1.000000 -0.000000 -0.000000  0.132546 -0.000742 1 75 1.000000
0  -2.989733 -16.054058 -8.071346  1.000000 -0.000000 -0.000000  0.943575 0.000562 1 75 1.000000
Material
0  -4.108132 -17.236397 -6.528855  -1.000000 0.000001 -0.000000  0.780152 0.645249 1 75 1.000000
0  -4.108131 -15.780165 -7.245974  -1.000000 0.000001 -0.000000  -0.000417 0.430484 1 75 1.000000
0  -4.108131 -15.789292 -7.294055  -1.000000 0.000001 -0.000000  -0.000451 0.406079 1 75 1.000000
Material
0  -3.973702 -17.418106 -6.049820  -0.660219 -0.378863 0.648517  0.914052 0.862845 1 75 1.000000
0  -3.886842 -17.400774 -5.977303  -0.660223 -0.378848 0.648521  0.912355 0.899987 1 75 1.000000
0  -4.049075 -17.159506 -5.975479  -0.660218 -0.378865 0.648516  0.794334 0.923490 1 75 1.000000
Material
0  -4.108131 -15.567343 -6.124654  -1.000000 0.000000 -0.000000  0.000388 0.999634 1 75 1.000000
0  -4.108131 -15.780165 -7.245974  -1.000000 0.000000 -0.000000  -0.000417 0.430484 1 75 1.000000
0  -4.108132 -17.236397 -6.528855  -1.000000 0.000000 -0.000000  0.780152 0.645249 1 75 1.000000
Material
0  -3.124162 -17.593670 -6.043318  0.854375 0.224310 0.468751  -0.000666 0.849577 1 75 1.000000
0  -3.124162 -17.418106 -6.049820  0.854366 0.224329 0.468758  0.085948 0.862845 1 75 1.000000
0  -3.211023 -17.400774 -5.977303  0.854372 0.224321 0.468753  0.087645 0.899987 1 75 1.000000
Material
0  -3.886842 -17.552654 -5.827077  -1.000000 -0.000001 0.000000  1.000834 0.959332 1 75 1.000000
0  -3.886842 -17.537693 -5.748192  -1.000000 -0.000001 0.000000  1.000896 0.999371 1 75 1.000000
0  -3.886842 -17.379444 -5.778206  -1.000000 -0.000001 0.000000  0.920560 0.999500 1 75 1.000000
Material
0  -4.108131 -15.857050 -7.651057  -1.000000 0.000000 -0.000000  -0.000707 0.224875 1 75 1.000000
0  -4.108131 -16.054058 -8.071346  -1.000000 0.000000 -0.000000  0.056425 0.000562 1 75 1.000000
0  -4.108132 -17.477943 -7.342124  -1.000000 0.000000 -0.000000  0.822282 0.224286 1 75 1.000000
Material
0  -4.108131 -16.054058 -8.071346  -1.000000 0.000001 -0.000000  0.056425 0.000562 1 75 1.000000
0  -4.108132 -17.651670 -7.768327  -1.000000 0.000001 -0.000000  0.867454 -0.000742 1 75 1.000000
0  -4.108132 -17.477943 -7.342124  -1.000000 0.000001 -0.000000  0.822282 0.224286 1 75 1.000000
Material
0  -3.093433 -17.666641 -6.428040  0.734041 -0.017850 0.678871  -0.000366 0.654307 1 75 1.000000
0  -2.989733 -17.236397 -6.528855  0.734041 -0.017850 0.678871  0.219848 0.645249 1 75 1.000000
0  -3.124162 -17.551125 -6.391775  0.734041 -0.017850 0.678871  0.052825 0.682895 1 75 1.000000
Material
0  -3.074473 -17.815874 -7.214849  0.734056 0.070325 0.675438  0.000248 0.254955 1 75 1.000000
0  -2.989733 -17.477943 -7.342124  0.734056 0.070325 0.675438  0.177718 0.224286 1 75 1.000000
0  -3.124162 -17.772240 -7.165392  0.734056 0.070325 0.675438  0.016990 0.283268 1 75 1.000000
Material
0  -4.108132 -17.477943 -7.342124  -0.927821 -0.346055 0.139262  0.822282 0.224286 1 75 1.000000
0  -4.108132 -17.651670 -7.768327  -0.927821 -0.346055 0.139262  0.867454 -0.000742 1 75 1.000000
0  -3.973703 -17.839767 -7.340831  -0.927821 -0.346055 0.139262  0.999654 0.191012 1 75 1.000000
Material
0  -4.108132 -17.651670 -7.768327  -0.927828 -0.346034 0.139269  0.867454 -0.000742 1 75 1.000000
0  -4.002986 -17.911505 -7.719045  -0.927841 -0.345992 0.139288  0.999359 -0.000954 1 75 1.000000
0  -3.973703 -17.839767 -7.340831  -0.927828 -0.346034 0.139268  0.999654 0.191012 1 75 1.000000
Material
0  -3.124162 -17.805832 -7.161894  1.000000 0.000000 0.000000  0.000205 0.281833 1 75 1.000000
0  -3.124162 -17.772240 -7.165392  1.000000 0.000000 0.000000  0.016990 0.283268 1 75 1.000000
0  -3.124162 -17.580336 -6.515518  1.000000 0.000000 0.000000  0.050110 0.619550 1 75 1.000000
Material
0  -3.973702 -17.593670 -6.043318  -0.854434 0.224386 0.468607  1.000666 0.849577 1 75 1.000000
0  -3.886842 -17.552654 -5.827077  -0.854444 0.224367 0.468600  1.000834 0.959332 1 75 1.000000
0  -3.886842 -17.400774 -5.977303  -0.854440 0.224375 0.468603  0.912355 0.899987 1 75 1.000000
Material
0  -4.004433 -17.666639 -6.428041  -0.734061 -0.017854 0.678849  1.000366 0.654308 1 75 1.000000
0  -3.973703 -17.660305 -6.394646  -0.734061 -0.017854 0.678849  1.000392 0.671257 1 75 1.000000
0  -3.973703 -17.551125 -6.391775  -0.734061 -0.017854 0.678849  0.947175 0.682895 1 75 1.000000
Material
0  -4.023392 -17.815874 -7.214849  -0.734052 0.070326 0.675442  0.999752 0.254955 1 75 1.000000
0  -3.973703 -17.805832 -7.161894  -0.734052 0.070326 0.675442  0.999795 0.281833 1 75 1.000000
0  -3.973703 -17.772240 -7.165392  -0.734052 0.070326 0.675442  0.983010 0.283268 1 75 1.000000
Material
0  -3.973702 -17.593670 -6.043318  -1.000000 -0.000004 0.000001  1.000666 0.849577 1 75 1.000000
0  -3.973702 -17.418106 -6.049820  -1.000000 -0.000004 0.000001  0.914052 0.862845 1 75 1.000000
0  -3.973703 -17.551125 -6.391775  -1.000000 -0.000004 0.000001  0.947175 0.682895 1 75 1.000000
Material
0  -3.124162 -17.593670 -6.043318  1.000000 -0.000004 0.000000  -0.000666 0.849577 1 75 1.000000
0  -3.124162 -17.660305 -6.394646  1.000000 -0.000004 0.000000  -0.000392 0.671257 1 75 1.000000
0  -3.124162 -17.551125 -6.391775  1.000000 -0.000004 0.000000  0.052825 0.682895 1 75 1.000000
Material
0  -4.108131 -17.135334 -6.047540  -0.800256 0.026446 0.599075  0.775741 0.890461 1 73 1.000000
0  -4.049075 -17.159506 -5.975479  -0.800257 0.026439 0.599074  0.794334 0.923490 1 73 1.000000
0  -4.049075 -16.144884 -6.012365  -0.800257 0.026440 0.599074  0.293835 1.000507 1 73 1.000000
Material
0  -3.061259 -17.156050 -5.820578  0.831031 -0.552063 0.067923  0.192846 0.999682 1 73 1.000000
0  -3.211023 -17.379444 -5.778206  0.831032 -0.552062 0.067923  0.079439 0.999500 1 73 1.000000
0  -3.211023 -17.400774 -5.977303  0.831032 -0.552062 0.067923  0.087645 0.899987 1 73 1.000000
Material
0  -2.989733 -17.135334 -6.047540  0.800317 0.026441 0.598993  0.224259 0.890461 1 73 1.000000
0  -2.989733 -15.567343 -6.124654  0.800317 0.026441 0.598993  0.999612 0.999634 1 73 1.000000
0  -3.048782 -16.144884 -6.012365  0.800317 0.026440 0.598993  0.706165 1.000507 1 73 1.000000
Material
0  -3.124162 -17.418106 -6.049820  0.660339 -0.378900 0.648373  0.085948 0.862845 1 73 1.000000
0  -2.989733 -17.135334 -6.047540  0.660344 -0.378885 0.648377  0.224259 0.890461 1 73 1.000000
0  -3.048782 -17.159506 -5.975479  0.660341 -0.378893 0.648375  0.205666 0.923490 1 73 1.000000
Material
0  -3.886842 -17.400774 -5.977303  -0.831032 -0.552058 0.067958  0.912355 0.899987 1 73 1.000000
0  -3.886842 -17.379444 -5.778206  -0.831032 -0.552057 0.067959  0.920560 0.999500 1 73 1.000000
0  -4.036597 -17.156050 -5.820578  -0.831032 -0.552057 0.067959  0.807154 0.999682 1 73 1.000000
Material
0  -3.211023 -17.379444 -5.778206  1.000000 0.000000 0.000003  0.079439 0.999500 1 73 1.000000
0  -3.211023 -17.537693 -5.748192  1.000000 0.000000 0.000003  -0.000896 0.999371 1 73 1.000000
0  -3.211023 -17.552654 -5.827077  1.000000 0.000000 0.000003  -0.000834 0.959332 1 73 1.000000
Material
0  -3.124162 -17.580336 -6.515518  0.752933 -0.316656 -0.576906  0.050110 0.619550 1 73 1.000000
0  -2.989733 -17.236397 -6.528855  0.752933 -0.316656 -0.576906  0.219848 0.645249 1 73 1.000000
0  -3.093433 -17.666641 -6.428040  0.752933 -0.316656 -0.576906  -0.000366 0.654307 1 73 1.000000
Material
0  -3.124162 -17.817249 -7.284303  0.752926 -0.388794 -0.530982  0.006082 0.220809 1 73 1.000000
0  -2.989733 -17.477943 -7.342124  0.752926 -0.388794 -0.530982  0.177718 0.224286 1 73 1.000000
0  -3.074473 -17.815874 -7.214849  0.752926 -0.388794 -0.530982  0.000248 0.254955 1 73 1.000000
Material
0  -4.108132 -17.236397 -6.528855  -0.927298 -0.358914 0.106302  0.780152 0.645249 1 73 1.000000
0  -4.108132 -17.477943 -7.342124  -0.927265 -0.358979 0.106364  0.822282 0.224286 1 73 1.000000
0  -3.973703 -17.772240 -7.165392  -0.927265 -0.358979 0.106364  0.983010 0.283268 1 73 1.000000
Material
0  -3.973703 -17.580336 -6.515518  -1.000000 -0.000017 0.000000  0.949890 0.619550 1 73 1.000000
0  -3.973703 -17.772240 -7.165392  -1.000000 -0.000017 0.000000  0.983010 0.283268 1 73 1.000000
0  -3.973703 -17.805832 -7.161894  -1.000000 -0.000017 0.000000  0.999795 0.281833 1 73 1.000000
Material
0  -3.973703 -17.580336 -6.515518  -0.752929 -0.316664 -0.576907  0.949890 0.619550 1 73 1.000000
0  -3.973703 -17.673529 -6.464366  -0.752929 -0.316664 -0.576907  1.000337 0.635870 1 73 1.000000
0  -4.004433 -17.666639 -6.428041  -0.752929 -0.316664 -0.576907  1.000366 0.654308 1 73 1.000000
Material
0  -3.973703 -17.817249 -7.284303  -0.752976 -0.388801 -0.530905  0.993918 0.220809 1 73 1.000000
0  -3.973703 -17.827608 -7.276718  -0.752976 -0.388801 -0.530905  0.999704 0.223553 1 73 1.000000
0  -4.023392 -17.815874 -7.214849  -0.752976 -0.388801 -0.530905  0.999752 0.254955 1 73 1.000000
Material
0  -3.124162 -17.772240 -7.165392  0.927233 -0.359044 0.106426  0.016990 0.283268 1 73 1.000000
0  -2.989733 -17.477943 -7.342124  0.927233 -0.359044 0.106426  0.177718 0.224286 1 73 1.000000
0  -2.989733 -17.236397 -6.528855  0.927233 -0.359044 0.106426  0.219848 0.645249 1 73 1.000000
Material
0  -2.989733 -17.236397 -6.528855  1.000000 0.000000 0.000000  0.219848 0.645249 1 73 1.000000
0  -2.989733 -15.780166 -7.245973  1.000000 0.000000 0.000000  1.000416 0.430484 1 73 1.000000
0  -2.989733 -15.567343 -6.124654  1.000000 0.000000 0.000000  0.999612 0.999634 1 73 1.000000
Material
0  -3.124162 -17.418106 -6.049820  0.915446 -0.387097 0.110064  0.085948 0.862845 1 73 1.000000
0  -3.124162 -17.551125 -6.391775  0.915448 -0.387095 0.110059  0.052825 0.682895 1 73 1.000000
0  -2.989733 -17.236397 -6.528855  0.915448 -0.387095 0.110059  0.219848 0.645249 1 73 1.000000
Material
0  -2.989733 -17.651670 -7.768327  0.927810 -0.346094 0.139237  0.132546 -0.000742 1 73 1.000000
0  -2.989733 -17.477943 -7.342124  0.927821 -0.346055 0.139263  0.177718 0.224286 1 73 1.000000
0  -3.124162 -17.839767 -7.340831  0.927821 -0.346055 0.139263  0.000346 0.191012 1 73 1.000000
Material
0  -2.989733 -17.477943 -7.342124  0.927826 -0.346055 0.139229  0.177718 0.224286 1 73 1.000000
0  -3.124162 -17.817249 -7.284303  0.927826 -0.346055 0.139229  0.006082 0.220809 1 73 1.000000
0  -3.124162 -17.839767 -7.340831  0.927826 -0.346055 0.139229  0.000346 0.191012 1 73 1.000000
Material
0  -3.973702 -17.418106 -6.049820  -0.915442 -0.387111 0.110056  0.914052 0.862845 1 73 1.000000
0  -4.108131 -17.135334 -6.047540  -0.915442 -0.387110 0.110053  0.775741 0.890461 1 73 1.000000
0  -4.108132 -17.236397 -6.528855  -0.915442 -0.387110 0.110055  0.780152 0.645249 1 73 1.000000
Material
0  -2.989733 -17.236397 -6.528855  1.000000 0.000000 0.000000  0.219848 0.645249 1 73 1.000000
0  -2.989733 -17.477943 -7.342124  1.000000 0.000000 0.000000  0.177718 0.224286 1 73 1.000000
0  -2.989733 -15.789292 -7.294055  1.000000 0.000000 0.000000  1.000451 0.406079 1 73 1.000000
Material
0  -2.989733 -15.789292 -7.294055  1.000000 0.000000 -0.000000  1.000451 0.406079 1 73 1.000000
0  -2.989733 -17.477943 -7.342124  1.000000 0.000000 -0.000000  0.177718 0.224286 1 73 1.000000
0  -2.989733 -15.857050 -7.651057  1.000000 0.000000 -0.000000  1.000707 0.224875 1 73 1.000000
Material
0  -2.989733 -17.477943 -7.342124  1.000000 -0.000000 -0.000000  0.177718 0.224286 1 73 1.000000
0  -2.989733 -17.651670 -7.768327  1.000000 -0.000000 -0.000000  0.132546 -0.000742 1 73 1.000000
0  -2.989733 -16.054058 -8.071346  1.000000 -0.000000 -0.000000  0.943575 0.000562 1 73 1.000000
Material
0  -4.108132 -17.236397 -6.528855  -1.000000 0.000001 -0.000000  0.780152 0.645249 1 73 1.000000
0  -4.108131 -15.780165 -7.245974  -1.000000 0.000001 -0.000000  -0.000417 0.430484 1 73 1.000000
0  -4.108131 -15.789292 -7.294055  -1.000000 0.000001 -0.000000  -0.000451 0.406079 1 73 1.000000
Material
0  -3.973702 -17.418106 -6.049820  -0.660219 -0.378863 0.648517  0.914052 0.862845 1 73 1.000000
0  -3.886842 -17.400774 -5.977303  -0.660223 -0.378848 0.648521  0.912355 0.899987 1 73 1.000000
0  -4.049075 -17.159506 -5.975479  -0.660218 -0.378865 0.648516  0.794334 0.923490 1 73 1.000000
Material
0  -4.108131 -15.567343 -6.124654  -1.000000 0.000000 -0.000000  0.000388 0.999634 1 73 1.000000
0  -4.108131 -15.780165 -7.245974  -1.000000 0.000000 -0.000000  -0.000417 0.430484 1 73 1.000000
0  -4.108132 -17.236397 -6.528855  -1.000000 0.000000 -0.000000  0.780152 0.645249 1 73 1.000000
Material
0  -3.124162 -17.593670 -6.043318  0.854375 0.224310 0.468751  -0.000666 0.849577 1 73 1.000000
0  -3.124162 -17.418106 -6.049820  0.854366 0.224329 0.468758  0.085948 0.862845 1 73 1.000000
0  -3.211023 -17.400774 -5.977303  0.854372 0.224321 0.468753  0.087645 0.899987 1 73 1.000000
Material
0  -3.886842 -17.552654 -5.827077  -1.000000 -0.000001 0.000000  1.000834 0.959332 1 73 1.000000
0  -3.886842 -17.537693 -5.748192  -1.000000 -0.000001 0.000000  1.000896 0.999371 1 73 1.000000
0  -3.886842 -17.379444 -5.778206  -1.000000 -0.000001 0.000000  0.920560 0.999500 1 73 1.000000
Material
0  -4.108131 -15.857050 -7.651057  -1.000000 0.000000 -0.000000  -0.000707 0.224875 1 73 1.000000
0  -4.108131 -16.054058 -8.071346  -1.000000 0.000000 -0.000000  0.056425 0.000562 1 73 1.000000
0  -4.108132 -17.477943 -7.342124  -1.000000 0.000000 -0.000000  0.822282 0.224286 1 73 1.000000
Material
0  -4.108131 -16.054058 -8.071346  -1.000000 0.000001 -0.000000  0.056425 0.000562 1 73 1.000000
0  -4.108132 -17.651670 -7.768327  -1.000000 0.000001 -0.000000  0.867454 -0.000742 1 73 1.000000
0  -4.108132 -17.477943 -7.342124  -1.000000 0.000001 -0.000000  0.822282 0.224286 1 73 1.000000
Material
0  -3.093433 -17.666641 -6.428040  0.734041 -0.017850 0.678871  -0.000366 0.654307 1 73 1.000000
0  -2.989733 -17.236397 -6.528855  0.734041 -0.017850 0.678871  0.219848 0.645249 1 73 1.000000
0  -3.124162 -17.551125 -6.391775  0.734041 -0.017850 0.678871  0.052825 0.682895 1 73 1.000000
Material
0  -3.074473 -17.815874 -7.214849  0.734056 0.070325 0.675438  0.000248 0.254955 1 73 1.000000
0  -2.989733 -17.477943 -7.342124  0.734056 0.070325 0.675438  0.177718 0.224286 1 73 1.000000
0  -3.124162 -17.772240 -7.165392  0.734056 0.070325 0.675438  0.016990 0.283268 1 73 1.000000
Material
0  -4.108132 -17.477943 -7.342124  -0.927821 -0.346055 0.139262  0.822282 0.224286 1 73 1.000000
0  -4.108132 -17.651670 -7.768327  -0.927821 -0.346055 0.139262  0.867454 -0.000742 1 73 1.000000
0  -3.973703 -17.839767 -7.340831  -0.927821 -0.346055 0.139262  0.999654 0.191012 1 73 1.000000
Material
0  -4.108132 -17.651670 -7.768327  -0.927828 -0.346034 0.139269  0.867454 -0.000742 1 73 1.000000
0  -4.002986 -17.911505 -7.719045  -0.927841 -0.345992 0.139288  0.999359 -0.000954 1 73 1.000000
0  -3.973703 -17.839767 -7.340831  -0.927828 -0.346034 0.139268  0.999654 0.191012 1 73 1.000000
Material
0  -3.124162 -17.805832 -7.161894  1.000000 0.000000 0.000000  0.000205 0.281833 1 73 1.000000
0  -3.124162 -17.772240 -7.165392  1.000000 0.000000 0.000000  0.016990 0.283268 1 73 1.000000
0  -3.124162 -17.580336 -6.515518  1.000000 0.000000 0.000000  0.050110 0.619550 1 73 1.000000
Material
0  -3.973702 -17.593670 -6.043318  -0.854434 0.224386 0.468607  1.000666 0.849577 1 73 1.000000
0  -3.886842 -17.552654 -5.827077  -0.854444 0.224367 0.468600  1.000834 0.959332 1 73 1.000000
0  -3.886842 -17.400774 -5.977303  -0.854440 0.224375 0.468603  0.912355 0.899987 1 73 1.000000
Material
0  -4.004433 -17.666639 -6.428041  -0.734061 -0.017854 0.678849  1.000366 0.654308 1 73 1.000000
0  -3.973703 -17.660305 -6.394646  -0.734061 -0.017854 0.678849  1.000392 0.671257 1 73 1.000000
0  -3.973703 -17.551125 -6.391775  -0.734061 -0.017854 0.678849  0.947175 0.682895 1 73 1.000000
Material
0  -4.023392 -17.815874 -7.214849  -0.734052 0.070326 0.675442  0.999752 0.254955 1 73 1.000000
0  -3.973703 -17.805832 -7.161894  -0.734052 0.070326 0.675442  0.999795 0.281833 1 73 1.000000
0  -3.973703 -17.772240 -7.165392  -0.734052 0.070326 0.675442  0.983010 0.283268 1 73 1.000000
Material
0  -3.973702 -17.593670 -6.043318  -1.000000 -0.000004 0.000001  1.000666 0.849577 1 73 1.000000
0  -3.973702 -17.418106 -6.049820  -1.000000 -0.000004 0.000001  0.914052 0.862845 1 73 1.000000
0  -3.973703 -17.551125 -6.391775  -1.000000 -0.000004 0.000001  0.947175 0.682895 1 73 1.000000
Material
0  -3.124162 -17.593670 -6.043318  1.000000 -0.000004 0.000000  -0.000666 0.849577 1 73 1.000000
0  -3.124162 -17.660305 -6.394646  1.000000 -0.000004 0.000000  -0.000392 0.671257 1 73 1.000000
0  -3.124162 -17.551125 -6.391775  1.000000 -0.000004 0.000000  0.052825 0.682895 1 73 1.000000
end
