version 1
nodes
0 "ValveBiped.Bip01_Spine4" -1
1 "ValveBiped.Bip01_L_Clavicle" 0
2 "ValveBiped.Bip01_L_UpperArm" 1
3 "ValveBiped.Bip01_L_Forearm" 2
4 "ValveBiped.Bip01_L_Hand" 3
5 "ValveBiped.Bip01_L_Finger4" 4
6 "ValveBiped.Bip01_L_Finger41" 5
7 "ValveBiped.Bip01_L_Finger42" 6
8 "ValveBiped.Bip01_L_Finger3" 4
9 "ValveBiped.Bip01_L_Finger31" 8
10 "ValveBiped.Bip01_L_Finger32" 9
11 "ValveBiped.Bip01_L_Finger2" 4
12 "ValveBiped.Bip01_L_Finger21" 11
13 "ValveBiped.Bip01_L_Finger22" 12
14 "ValveBiped.Bip01_L_Finger1" 4
15 "ValveBiped.Bip01_L_Finger11" 14
16 "ValveBiped.Bip01_L_Finger12" 15
17 "ValveBiped.Bip01_L_Finger0" 4
18 "ValveBiped.Bip01_L_Finger01" 17
19 "ValveBiped.Bip01_L_Finger02" 18
20 "ValveBiped.Bip01_L_Ulna" 3
21 "ValveBiped.Bip01_L_Wrist" 3
22 "rig_l_upperarm" 1
23 "rig_l_forearm" 22
24 "rig_d_l_forearm" 23
25 "rig_d_l_upperarm" 22
26 "ValveBiped.Bip01_R_Clavicle" 0
27 "ValveBiped.Bip01_R_UpperArm" 26
28 "ValveBiped.Bip01_R_Forearm" 27
29 "ValveBiped.Bip01_R_Hand" 28
30 "ValveBiped.Bip01_R_Finger4" 29
31 "ValveBiped.Bip01_R_Finger41" 30
32 "ValveBiped.Bip01_R_Finger42" 31
33 "ValveBiped.Bip01_R_Finger3" 29
34 "ValveBiped.Bip01_R_Finger31" 33
35 "ValveBiped.Bip01_R_Finger32" 34
36 "ValveBiped.Bip01_R_Finger2" 29
37 "ValveBiped.Bip01_R_Finger21" 36
38 "ValveBiped.Bip01_R_Finger22" 37
39 "ValveBiped.Bip01_R_Finger1" 29
40 "ValveBiped.Bip01_R_Finger11" 39
41 "ValveBiped.Bip01_R_Finger12" 40
42 "ValveBiped.Bip01_R_Finger0" 29
43 "ValveBiped.Bip01_R_Finger01" 42
44 "ValveBiped.Bip01_R_Finger02" 43
45 "ValveBiped.Bip01_R_Ulna" 28
46 "ValveBiped.Bip01_R_Wrist" 28
47 "rig_r_upperarm" 26
48 "rig_r_forearm" 47
49 "rig_d_r_forearm" 48
50 "rig_d_r_upperarm" 47
51 "rig_r_hand" -1
52 "rig_d_r_hand" 51
53 "rig_d_r_wrist" 52
54 "rig_l_hand" -1
55 "rig_d_l_hand" 54
56 "rig_d_l_wrist" 54
57 "rig_l_pole" -1
58 "rig_r_pole" -1
59 "rig_l_clavicle" -1
60 "rig_d_l_clavicle" 59
61 "rig_r_clavicle" -1
62 "rig_d_r_clavicle" 61
63 "Camera" -1
64 "body" -1
65 "trigger" 64
66 "bolt" 64
67 "chandle" 66
68 "barrel" 64
69 "magrel" 64
70 "fireselector" 64
71 "fireselector_inverted" 64
72 "magrel9mm" 64
73 "fakemag" -1
74 "fakerounds" 73
75 "mag" -1
76 "bullet1" 75
77 "bullet3" 75
78 "bullet2" 75
79 "bullet4" 75
80 "bizonmag" -1
81 "fakeroundsbizon" 80
82 "fakebizonmag" -1
83 "bullet1bizon" 82
84 "bullet2bizon" 82
end
skeleton
time 0
0  0.000006 0.000000 0.000000  -1.570800 -1.391899 -1.570792
1  2.033349 1.000767 1.937657  -1.544956 -1.855077 -0.198630
2  6.027515 -0.000324 0.000201  -1.583284 0.045954 -0.585171
3  11.692119 0.000650 -0.000737  -0.000012 0.000001 -0.056696
4  11.481224 0.000160 -0.000727  1.576889 -0.106574 0.041971
5  3.859504 -0.142825 -1.192079  -0.468169 0.151546 -0.880257
6  1.312590 0.000009 0.000007  -0.000027 0.000044 -0.439740
7  0.729357 0.000054 0.000049  0.000017 0.000021 -0.244317
8  3.942141 0.046330 -0.431543  -0.151817 0.073216 -0.811086
9  1.539113 0.000082 0.000004  -0.000007 0.000021 -0.247842
10  1.196331 0.000148 0.000029  0.000011 0.000018 -0.430770
11  3.883512 -0.047212 0.431351  0.085894 0.021858 -0.587909
12  1.719573 -0.000030 0.000017  0.000015 0.005518 -0.366533
13  1.209181 0.000090 0.000012  0.000004 0.003091 -0.216438
14  3.859679 -0.138420 1.332380  0.354466 -0.042717 -0.531784
15  1.719446 -0.000022 0.000029  0.000028 0.004066 -0.363025
16  1.099675 0.000049 0.000005  0.000003 0.002578 -0.244381
17  0.806011 -0.349039 1.321247  -1.222694 -0.679188 -0.788867
18  1.789819 -0.000005 -0.000017  0.000011 -0.000024 0.228523
19  1.207014 -0.000014 -0.000043  0.000002 -0.000008 0.362856
20  5.740638 0.000388 -0.000698  0.003035 0.000003 0.000063
21  11.481259 0.000207 -0.000799  0.004953 0.000188 -0.001556
22  6.027525 -0.000330 0.000200  0.059595 -2.453119 -2.193920
23  0.000000 11.692101 -0.000007  -0.043320 -0.000838 -0.036616
24  0.000003 0.000010 0.000000  0.868996 -0.000031 1.570739
25  -0.000001 -0.000012 -0.000001  0.868960 0.000002 1.570712
26  2.033355 1.000772 -1.937609  1.473120 1.855075 -0.198639
27  6.027509 -0.000259 -0.000228  1.639678 -0.005914 -0.586605
28  11.691991 0.000163 0.000859  -0.000047 -0.000002 -0.056019
29  11.481180 0.000159 0.000812  -1.565090 0.106510 0.041985
30  3.859439 -0.132758 1.193065  0.466290 -0.158048 -0.878823
31  1.312561 0.000024 -0.000000  0.000013 -0.000043 -0.439709
32  0.729345 0.000064 -0.000028  -0.000023 -0.000019 -0.244286
33  3.942048 0.050138 0.431000  0.150091 -0.079181 -0.810189
34  1.539098 0.000005 0.000000  0.000009 -0.000007 -0.247824
35  1.196302 0.000078 -0.000004  -0.000007 -0.000009 -0.430781
36  3.883415 -0.050474 -0.431084  -0.085915 -0.026392 -0.587660
37  1.719563 -0.000083 -0.000004  -0.000006 -0.007962 -0.366486
38  1.209197 0.000034 0.000011  0.000002 -0.004461 -0.216413
39  3.859589 -0.149084 -1.331321  -0.354445 0.038578 -0.531955
40  1.719413 -0.000097 -0.000038  -0.000030 -0.006584 -0.363030
41  1.099675 0.000021 0.000007  0.000004 -0.004188 -0.244347
42  0.805983 -0.359850 -1.318338  1.221444 0.673631 -0.793558
43  1.789779 -0.000010 -0.000040  -0.000028 0.000031 0.228553
44  1.206993 -0.000007 0.000005  -0.000017 0.000020 0.362910
45  5.740573 0.000079 0.000720  0.002190 -0.000014 0.000028
46  11.481181 0.000106 0.000906  -0.000016 -0.000090 -0.001837
47  6.027515 -0.000273 -0.000228  0.007346 -0.632954 -2.161819
48  -0.000001 11.691978 -0.000007  -0.042770 0.000797 0.036154
49  0.000002 0.000000 0.000000  2.272571 -0.000036 1.570860
50  -0.000008 -0.000013 0.000005  2.272645 -0.000036 1.570861
51  -22.676567 -0.984331 -17.554111  -1.605366 2.379717 -0.041994
52  0.000001 0.000002 -0.000000  0.008153 -0.000259 0.000009
53  -0.000000 -0.000001 0.000000  1.565115 0.043565 -0.106862
54  22.676517 -0.984221 -17.554199  1.605712 0.761853 0.042358
55  0.000001 -0.000003 -0.000000  0.000000 -0.000001 -0.000002
56  0.000032 0.000027 0.000001  -1.571901 -0.044449 -0.106509
57  15.265023 8.339654 -8.787539  1.570796 -0.000000 0.000000
58  -15.265000 8.339654 -8.787539  1.570796 -0.000000 0.000000
59  1.941978 -1.346989 1.821586  1.570796 -0.000000 0.000000
60  -0.004311 0.001230 -0.000371  0.006898 -0.005534 -0.284229
61  -1.937603 -1.346625 1.822824  1.570796 -0.000000 0.000000
62  0.000000 0.000000 0.000000  -0.078727 -3.136056 0.284226
63  0.000000 0.000000 0.000000  1.570796 -0.000000 0.000000
64  -3.590840 -11.939873 -2.851932  1.570796 -0.000000 0.000000
65  0.048105 -2.944859 0.933263  0.000000 -0.000000 0.000000
66  0.048105 -1.112260 5.803837  0.000000 -0.000000 0.000000
67  -1.140610 -0.098565 1.093603  0.000000 -0.000000 0.000000
68  0.217551 -1.673973 20.274757  0.000000 -0.000000 0.000000
69  0.217546 -3.706013 2.941690  0.000000 -0.000000 0.000000
70  0.048105 -1.885239 -0.022553  0.000000 -0.000000 0.000000
71  -0.082569 -1.959166 -0.004310  0.000000 -0.000000 0.000000
72  0.217546 -3.788155 3.509795  0.000000 -0.000000 0.000000
73  -3.588360 -16.646259 -6.949106  1.570796 -0.000000 0.000000
74  0.017809 1.799356 -0.402361  0.000000 -0.000000 0.000000
75  -3.588360 -16.646259 -6.949106  1.570796 -0.000000 0.000000
76  0.088237 2.028859 -0.387793  0.000000 -0.000000 0.000000
77  0.089166 1.580731 -0.409891  0.000000 -0.000000 0.000000
78  -0.263817 1.788471 -0.409405  0.000000 -0.000000 0.000000
79  -0.263817 1.287951 -0.409405  0.000000 -0.000000 0.000000
80  -3.588360 -24.729397 -6.123081  1.570796 -0.000000 0.000000
81  0.017809 0.973330 -8.485498  0.000000 -0.000000 0.000000
82  -3.588360 -24.729397 -6.123081  1.570796 -0.000000 0.000000
83  0.088237 1.202834 -8.470930  0.000000 -0.000000 0.000000
84  -0.263817 0.962445 -8.492542  0.000000 -0.000000 0.000000
end
triangles
Material
0  -2.989733 -19.268999 -10.166838  0.927314 -0.264332 0.264987  0.235822 0.000657 1 75 1.000000
0  -2.989733 -18.704660 -9.605144  0.927281 -0.264418 0.265014  0.287421 0.360240 1 75 1.000000
0  -3.124162 -18.999460 -9.427479  0.927314 -0.264332 0.264987  0.131216 0.344118 1 75 1.000000
Material
0  -3.973703 -18.756439 -8.628773  -1.000000 0.000000 0.000000  0.999339 0.701936 1 75 1.000000
0  -3.973703 -18.688665 -8.551682  -1.000000 0.000000 0.000000  0.995785 0.748632 1 75 1.000000
0  -3.973703 -18.533543 -8.739885  -1.000000 0.000000 0.000000  0.887604 0.722590 1 75 1.000000
Material
0  -3.124162 -18.533543 -8.739885  0.752942 -0.507821 -0.418565  0.112396 0.722590 1 75 1.000000
0  -2.989733 -18.219011 -8.879677  0.752942 -0.507821 -0.418565  0.265402 0.757932 1 75 1.000000
0  -3.124162 -18.688665 -8.551682  0.752942 -0.507821 -0.418565  0.004215 0.748632 1 75 1.000000
Material
0  -3.124162 -18.688665 -8.551682  0.734041 0.234883 0.637192  0.004215 0.748632 1 75 1.000000
0  -2.989733 -18.219011 -8.879677  0.734041 0.234883 0.637192  0.265402 0.757932 1 75 1.000000
0  -3.124162 -18.460571 -8.635765  0.734041 0.234883 0.637192  0.110428 0.780565 1 75 1.000000
Material
0  -3.124162 -19.130083 -9.221516  0.734056 0.311983 0.603182  0.027092 0.383356 1 75 1.000000
0  -2.989733 -18.704660 -9.605144  0.734056 0.311983 0.603182  0.287421 0.360240 1 75 1.000000
0  -3.124162 -18.914158 -9.333197  0.734056 0.311983 0.603182  0.136442 0.401889 1 75 1.000000
Material
0  -3.124162 -18.999460 -9.427479  0.752934 -0.555752 -0.352462  0.131216 0.344118 1 75 1.000000
0  -2.989733 -18.704660 -9.605144  0.752934 -0.555752 -0.352462  0.287421 0.360240 1 75 1.000000
0  -3.124162 -19.130083 -9.221516  0.752934 -0.555752 -0.352462  0.027092 0.383356 1 75 1.000000
Material
0  -4.042704 -19.399446 -10.068665  -0.927315 -0.264331 0.264983  0.838664 0.000652 1 75 1.000000
0  -3.973703 -19.487972 -9.916311  -0.927299 -0.264374 0.264998  0.912734 0.031898 1 75 1.000000
0  -3.973703 -18.999460 -9.427479  -0.927282 -0.264416 0.265013  0.868784 0.344118 1 75 1.000000
Material
0  -3.973703 -19.487972 -9.916311  -1.000000 0.000000 0.000001  0.912734 0.031898 1 75 1.000000
0  -3.973702 -19.643881 -9.807956  -1.000000 0.000000 0.000001  0.999295 0.028619 1 75 1.000000
0  -3.973702 -19.420607 -9.511282  -1.000000 0.000000 0.000001  0.999305 0.198021 1 75 1.000000
Material
0  -4.108132 -18.219011 -8.879677  -0.926914 -0.313661 0.206026  0.734598 0.757932 1 75 1.000000
0  -3.973703 -18.914158 -9.333197  -0.926914 -0.313661 0.206026  0.863558 0.401889 1 75 1.000000
0  -3.973703 -18.533543 -8.739885  -0.926914 -0.313661 0.206026  0.887604 0.722590 1 75 1.000000
Material
0  -3.973703 -18.533543 -8.739885  -0.752940 -0.507824 -0.418564  0.887604 0.722590 1 75 1.000000
0  -3.973703 -18.688665 -8.551682  -0.752940 -0.507824 -0.418564  0.995785 0.748632 1 75 1.000000
0  -4.108132 -18.219011 -8.879677  -0.752940 -0.507824 -0.418564  0.734598 0.757932 1 75 1.000000
Material
0  -3.973703 -18.688665 -8.551682  -0.734041 0.234885 0.637191  0.995785 0.748632 1 75 1.000000
0  -3.973703 -18.460571 -8.635765  -0.734041 0.234885 0.637191  0.889572 0.780565 1 75 1.000000
0  -4.108132 -18.219011 -8.879677  -0.734041 0.234885 0.637191  0.734598 0.757932 1 75 1.000000
Material
0  -3.124162 -18.227163 -8.211380  1.000000 0.000000 0.000000  0.079071 0.999299 1 75 1.000000
0  -3.124162 -18.364521 -8.108008  1.000000 0.000000 0.000000  0.000640 0.999293 1 75 1.000000
0  -3.124162 -18.660944 -8.501883  1.000000 0.000000 0.000000  0.000656 0.774391 1 75 1.000000
Material
0  -3.124162 -18.914158 -9.333197  0.926915 -0.313660 0.206026  0.136442 0.401889 1 75 1.000000
0  -2.989733 -18.219011 -8.879677  0.926915 -0.313661 0.206026  0.265402 0.757932 1 75 1.000000
0  -3.124162 -18.533543 -8.739885  0.926915 -0.313661 0.206026  0.112396 0.722590 1 75 1.000000
Material
0  -3.973703 -19.130083 -9.221516  -0.734055 0.311985 0.603182  0.972908 0.383356 1 75 1.000000
0  -3.973703 -18.914158 -9.333197  -0.734055 0.311985 0.603182  0.863558 0.401889 1 75 1.000000
0  -4.108131 -18.704660 -9.605144  -0.734055 0.311985 0.603182  0.712579 0.360240 1 75 1.000000
Material
0  -3.973703 -18.999460 -9.427479  -0.752934 -0.555752 -0.352462  0.868784 0.344118 1 75 1.000000
0  -3.973703 -19.130083 -9.221516  -0.752934 -0.555752 -0.352462  0.972908 0.383356 1 75 1.000000
0  -4.108131 -18.704660 -9.605144  -0.752934 -0.555752 -0.352462  0.712579 0.360240 1 75 1.000000
Material
0  -3.124162 -18.460571 -8.635765  0.926788 -0.328298 0.182439  0.110428 0.780565 1 75 1.000000
0  -2.989733 -17.957867 -8.414050  0.926802 -0.328283 0.182396  0.232840 0.999309 1 75 1.000000
0  -3.124162 -18.227163 -8.211380  0.926802 -0.328283 0.182396  0.079071 0.999299 1 75 1.000000
Material
0  -3.124162 -18.688665 -8.551682  1.000000 0.000000 0.000000  0.004215 0.748632 1 75 1.000000
0  -3.124162 -18.660944 -8.501883  1.000000 0.000000 0.000000  0.000656 0.774391 1 75 1.000000
0  -3.124162 -18.679502 -8.526541  1.000000 0.000000 0.000000  0.000657 0.760311 1 75 1.000000
Material
0  -3.973703 -18.688665 -8.551682  -1.000000 0.000000 0.000000  0.995785 0.748632 1 75 1.000000
0  -3.973703 -18.756439 -8.628773  -1.000000 0.000000 0.000000  0.999339 0.701936 1 75 1.000000
0  -3.973703 -18.679501 -8.526539  -1.000000 0.000000 0.000000  0.999343 0.760312 1 75 1.000000
Material
0  -4.108132 -18.219011 -8.879677  -1.000000 -0.000001 0.000000  0.734598 0.757932 1 75 1.000000
0  -4.108131 -16.761309 -9.314568  -1.000000 -0.000001 0.000000  0.083922 0.999355 1 75 1.000000
0  -4.108131 -16.680082 -9.406881  -1.000000 -0.000001 0.000000  0.028985 0.987991 1 75 1.000000
Material
0  -4.108131 -17.980560 -11.136502  -1.000000 -0.000000 0.000000  0.028476 0.000706 1 75 1.000000
0  -4.108131 -18.704660 -9.605144  -1.000000 -0.000000 0.000000  0.712579 0.360240 1 75 1.000000
0  -4.108131 -16.680082 -9.406881  -1.000000 -0.000000 0.000000  0.028985 0.987991 1 75 1.000000
Material
0  -4.108131 -16.680082 -9.406881  -1.000000 0.000000 -0.000001  0.028985 0.987991 1 75 1.000000
0  -4.108131 -18.704660 -9.605144  -1.000000 0.000000 -0.000001  0.712579 0.360240 1 75 1.000000
0  -4.108132 -18.219011 -8.879677  -1.000000 0.000000 -0.000001  0.734598 0.757932 1 75 1.000000
Material
0  -2.989733 -18.704660 -9.605144  1.000000 0.000000 -0.000000  0.287421 0.360240 1 75 1.000000
0  -2.989733 -16.680082 -9.406881  1.000000 0.000000 -0.000000  0.971015 0.987991 1 75 1.000000
0  -2.989733 -18.219011 -8.879677  1.000000 0.000000 -0.000000  0.265402 0.757932 1 75 1.000000
Material
0  -4.108131 -16.680082 -9.406881  -1.000000 0.000000 0.000000  0.028985 0.987991 1 75 1.000000
0  -4.108131 -16.761309 -9.314568  -1.000000 0.000000 0.000000  0.083922 0.999355 1 75 1.000000
0  -4.108131 -16.669277 -9.383829  -1.000000 0.000000 0.000000  0.031371 0.999358 1 75 1.000000
Material
0  -3.124162 -19.130083 -9.221516  1.000000 0.000000 0.000000  0.027092 0.383356 1 75 1.000000
0  -3.124162 -18.914158 -9.333197  1.000000 0.000000 0.000000  0.136442 0.401889 1 75 1.000000
0  -3.124162 -18.533543 -8.739885  1.000000 0.000000 0.000000  0.112396 0.722590 1 75 1.000000
Material
0  -3.973703 -18.533543 -8.739885  -1.000000 0.000001 0.000000  0.887604 0.722590 1 75 1.000000
0  -3.973703 -18.914158 -9.333197  -1.000000 0.000001 0.000000  0.863558 0.401889 1 75 1.000000
0  -3.973703 -19.130083 -9.221516  -1.000000 0.000001 0.000000  0.972908 0.383356 1 75 1.000000
Material
0  -2.989733 -16.761309 -9.314569  1.000000 0.000000 0.000000  0.916078 0.999354 1 75 1.000000
0  -2.989733 -18.219011 -8.879677  1.000000 0.000000 0.000000  0.265402 0.757932 1 75 1.000000
0  -2.989733 -16.680082 -9.406881  1.000000 0.000000 0.000000  0.971015 0.987991 1 75 1.000000
Material
0  -4.108131 -16.669277 -9.383829  -0.481097 0.793745 -0.372175  0.031371 0.999358 1 75 1.000000
0  -4.002012 -16.637650 -9.453582  -0.481097 0.793745 -0.372175  0.000705 0.982610 1 75 1.000000
0  -4.108131 -16.680082 -9.406881  -0.481097 0.793745 -0.372175  0.028985 0.987991 1 75 1.000000
Material
0  -2.989733 -16.669277 -9.383829  1.000000 0.000000 0.000000  0.968629 0.999358 1 75 1.000000
0  -2.989733 -16.761309 -9.314569  1.000000 0.000000 0.000000  0.916078 0.999354 1 75 1.000000
0  -2.989733 -16.680082 -9.406881  1.000000 0.000000 0.000000  0.971015 0.987991 1 75 1.000000
Material
0  -4.108131 -18.401590 -10.819640  -1.000000 0.000000 0.000000  0.268885 0.000689 1 75 1.000000
0  -4.108131 -19.268999 -10.166838  -1.000000 0.000000 0.000000  0.764178 0.000657 1 75 1.000000
0  -4.108131 -18.704660 -9.605144  -1.000000 0.000000 0.000000  0.712579 0.360240 1 75 1.000000
Material
0  -2.989733 -17.980560 -11.136502  1.000000 0.000000 0.000000  0.971524 0.000706 1 75 1.000000
0  -2.989733 -18.704660 -9.605144  1.000000 0.000000 0.000000  0.287421 0.360240 1 75 1.000000
0  -2.989733 -18.401590 -10.819640  1.000000 0.000000 0.000000  0.731115 0.000689 1 75 1.000000
Material
0  -2.989733 -19.268999 -10.166838  1.000000 -0.000001 0.000000  0.235822 0.000657 1 75 1.000000
0  -2.989733 -18.401590 -10.819640  1.000000 -0.000001 0.000000  0.731115 0.000689 1 75 1.000000
0  -2.989733 -18.704660 -9.605144  1.000000 -0.000001 0.000000  0.287421 0.360240 1 75 1.000000
Material
0  -4.108132 -17.957867 -8.414050  -0.926802 -0.328283 0.182396  0.767160 0.999309 1 75 1.000000
0  -3.973703 -18.460571 -8.635765  -0.926802 -0.328283 0.182396  0.889572 0.780565 1 75 1.000000
0  -3.973703 -18.227163 -8.211380  -0.926816 -0.328267 0.182353  0.920929 0.999299 1 75 1.000000
Material
0  -3.973703 -18.460571 -8.635765  -1.000000 0.000000 0.000000  0.889572 0.780565 1 75 1.000000
0  -3.973703 -18.660944 -8.501883  -1.000000 0.000000 0.000000  0.999344 0.774391 1 75 1.000000
0  -3.973703 -18.227163 -8.211380  -1.000000 0.000000 0.000000  0.920929 0.999299 1 75 1.000000
Material
0  -3.059999 -19.509995 -9.985466  0.734038 0.387568 0.557655  0.098213 0.000649 1 75 1.000000
0  -3.055161 -19.399448 -10.068664  0.734038 0.387568 0.557655  0.161335 0.000652 1 75 1.000000
0  -3.124162 -19.487972 -9.916311  0.734038 0.387568 0.557655  0.087266 0.031898 1 75 1.000000
Material
0  -3.124162 -19.634516 -9.891753  0.752961 -0.596744 -0.277391  0.027110 0.000643 1 75 1.000000
0  -3.111374 -19.652199 -9.819008  0.752961 -0.596744 -0.277391  0.000706 0.022308 1 75 1.000000
0  -3.124162 -19.662172 -9.832261  0.752961 -0.596744 -0.277391  0.000706 0.014741 1 75 1.000000
Material
0  -3.973703 -19.487972 -9.916311  -0.734051 0.387560 0.557644  0.912734 0.031898 1 75 1.000000
0  -4.042704 -19.399446 -10.068665  -0.734051 0.387560 0.557644  0.838664 0.000652 1 75 1.000000
0  -4.037866 -19.509995 -9.985466  -0.734051 0.387560 0.557644  0.901787 0.000649 1 75 1.000000
Material
0  -3.973702 -19.634516 -9.891753  -1.000000 0.000000 0.000000  0.972890 0.000643 1 75 1.000000
0  -3.973702 -19.680759 -9.856956  -1.000000 0.000000 0.000000  0.999293 0.000640 1 75 1.000000
0  -3.973702 -19.662172 -9.832261  -1.000000 0.000000 0.000000  0.999294 0.014741 1 75 1.000000
Material
0  -3.124162 -18.999460 -9.427479  1.000000 0.000000 0.000000  0.131216 0.344118 1 75 1.000000
0  -3.124162 -19.420607 -9.511282  1.000000 0.000000 0.000000  0.000695 0.198021 1 75 1.000000
0  -3.124162 -19.487972 -9.916311  1.000000 0.000000 0.000000  0.087266 0.031898 1 75 1.000000
Material
0  -3.973702 -19.634516 -9.891753  -0.752936 -0.596753 -0.277440  0.972890 0.000643 1 75 1.000000
0  -3.986490 -19.652199 -9.819008  -0.752936 -0.596753 -0.277440  0.999294 0.022308 1 75 1.000000
0  -4.037866 -19.509995 -9.985466  -0.752936 -0.596753 -0.277440  0.901787 0.000649 1 75 1.000000
Material
0  -3.124162 -19.662172 -9.832261  1.000000 0.000000 0.000000  0.000706 0.014741 1 75 1.000000
0  -3.124162 -19.680759 -9.856956  1.000000 0.000000 0.000000  0.000707 0.000640 1 75 1.000000
0  -3.124162 -19.634516 -9.891753  1.000000 0.000000 0.000000  0.027110 0.000643 1 75 1.000000
Material
0  -3.124162 -18.533543 -8.739885  1.000000 0.000000 0.000000  0.112396 0.722590 1 75 1.000000
0  -3.124162 -18.756439 -8.628773  1.000000 0.000000 0.000000  0.000661 0.701936 1 75 1.000000
0  -3.124162 -19.130083 -9.221516  1.000000 0.000000 0.000000  0.027092 0.383356 1 75 1.000000
Material
0  -3.124162 -19.174608 -9.184412  1.000000 -0.000005 0.000000  0.000682 0.384664 1 75 1.000000
0  -3.124162 -19.420607 -9.511282  1.000000 -0.000005 0.000000  0.000695 0.198021 1 75 1.000000
0  -3.124162 -19.130083 -9.221516  1.000000 -0.000005 0.000000  0.027092 0.383356 1 75 1.000000
Material
0  -3.095852 -16.637650 -9.453582  0.479775 0.796005 -0.369042  0.999295 0.982610 1 75 1.000000
0  -2.989733 -16.669277 -9.383829  0.479776 0.796005 -0.369042  0.968629 0.999358 1 75 1.000000
0  -2.989733 -16.680082 -9.406881  0.479792 0.795978 -0.369078  0.971015 0.987991 1 75 1.000000
Material
0  -3.973702 -19.420607 -9.511282  -1.000000 -0.000010 -0.000000  0.999305 0.198021 1 75 1.000000
0  -3.973703 -19.174608 -9.184412  -1.000000 -0.000010 -0.000000  0.999318 0.384664 1 75 1.000000
0  -3.973703 -19.130083 -9.221516  -1.000000 -0.000010 -0.000000  0.972908 0.383356 1 75 1.000000
Material
0  -3.124162 -18.679502 -8.526541  1.000000 0.000000 0.000000  0.000657 0.760311 1 75 1.000000
0  -3.124162 -18.756439 -8.628773  1.000000 0.000000 0.000000  0.000661 0.701936 1 75 1.000000
0  -3.124162 -18.688665 -8.551682  1.000000 0.000000 0.000000  0.004215 0.748632 1 75 1.000000
Material
0  -3.973703 -18.679501 -8.526539  -1.000000 0.000000 0.000000  0.999343 0.760312 1 75 1.000000
0  -3.973703 -18.660944 -8.501883  -1.000000 0.000000 0.000000  0.999344 0.774391 1 75 1.000000
0  -3.973703 -18.688665 -8.551682  -1.000000 0.000000 0.000000  0.995785 0.748632 1 75 1.000000
Material
0  -4.002012 -16.637650 -9.453582  -0.490641 0.695917 -0.524377  0.000705 0.982610 1 75 1.000000
0  -4.108131 -17.980560 -11.136502  -0.490641 0.695917 -0.524377  0.028476 0.000706 1 75 1.000000
0  -4.108131 -16.680082 -9.406881  -0.490641 0.695917 -0.524377  0.028985 0.987991 1 75 1.000000
Material
0  -2.989733 -17.980560 -11.136502  0.490645 0.695914 -0.524377  0.971524 0.000706 1 75 1.000000
0  -3.095852 -16.637650 -9.453582  0.490645 0.695914 -0.524377  0.999295 0.982610 1 75 1.000000
0  -2.989733 -16.680082 -9.406881  0.490645 0.695915 -0.524376  0.971015 0.987991 1 75 1.000000
Material
0  -2.989733 -19.268999 -10.166838  0.927314 -0.264332 0.264987  0.235822 0.000657 1 73 1.000000
0  -2.989733 -18.704660 -9.605144  0.927281 -0.264418 0.265014  0.287421 0.360240 1 73 1.000000
0  -3.124162 -18.999460 -9.427479  0.927314 -0.264332 0.264987  0.131216 0.344118 1 73 1.000000
Material
0  -3.973703 -18.756439 -8.628773  -1.000000 0.000000 0.000000  0.999339 0.701936 1 73 1.000000
0  -3.973703 -18.688665 -8.551682  -1.000000 0.000000 0.000000  0.995785 0.748632 1 73 1.000000
0  -3.973703 -18.533543 -8.739885  -1.000000 0.000000 0.000000  0.887604 0.722590 1 73 1.000000
Material
0  -3.124162 -18.533543 -8.739885  0.752942 -0.507821 -0.418565  0.112396 0.722590 1 73 1.000000
0  -2.989733 -18.219011 -8.879677  0.752942 -0.507821 -0.418565  0.265402 0.757932 1 73 1.000000
0  -3.124162 -18.688665 -8.551682  0.752942 -0.507821 -0.418565  0.004215 0.748632 1 73 1.000000
Material
0  -3.124162 -18.688665 -8.551682  0.734041 0.234883 0.637192  0.004215 0.748632 1 73 1.000000
0  -2.989733 -18.219011 -8.879677  0.734041 0.234883 0.637192  0.265402 0.757932 1 73 1.000000
0  -3.124162 -18.460571 -8.635765  0.734041 0.234883 0.637192  0.110428 0.780565 1 73 1.000000
Material
0  -3.124162 -19.130083 -9.221516  0.734056 0.311983 0.603182  0.027092 0.383356 1 73 1.000000
0  -2.989733 -18.704660 -9.605144  0.734056 0.311983 0.603182  0.287421 0.360240 1 73 1.000000
0  -3.124162 -18.914158 -9.333197  0.734056 0.311983 0.603182  0.136442 0.401889 1 73 1.000000
Material
0  -3.124162 -18.999460 -9.427479  0.752934 -0.555752 -0.352462  0.131216 0.344118 1 73 1.000000
0  -2.989733 -18.704660 -9.605144  0.752934 -0.555752 -0.352462  0.287421 0.360240 1 73 1.000000
0  -3.124162 -19.130083 -9.221516  0.752934 -0.555752 -0.352462  0.027092 0.383356 1 73 1.000000
Material
0  -4.042704 -19.399446 -10.068665  -0.927315 -0.264331 0.264983  0.838664 0.000652 1 73 1.000000
0  -3.973703 -19.487972 -9.916311  -0.927299 -0.264374 0.264998  0.912734 0.031898 1 73 1.000000
0  -3.973703 -18.999460 -9.427479  -0.927282 -0.264416 0.265013  0.868784 0.344118 1 73 1.000000
Material
0  -3.973703 -19.487972 -9.916311  -1.000000 0.000000 0.000001  0.912734 0.031898 1 73 1.000000
0  -3.973702 -19.643881 -9.807956  -1.000000 0.000000 0.000001  0.999295 0.028619 1 73 1.000000
0  -3.973702 -19.420607 -9.511282  -1.000000 0.000000 0.000001  0.999305 0.198021 1 73 1.000000
Material
0  -4.108132 -18.219011 -8.879677  -0.926914 -0.313661 0.206026  0.734598 0.757932 1 73 1.000000
0  -3.973703 -18.914158 -9.333197  -0.926914 -0.313661 0.206026  0.863558 0.401889 1 73 1.000000
0  -3.973703 -18.533543 -8.739885  -0.926914 -0.313661 0.206026  0.887604 0.722590 1 73 1.000000
Material
0  -3.973703 -18.533543 -8.739885  -0.752940 -0.507824 -0.418564  0.887604 0.722590 1 73 1.000000
0  -3.973703 -18.688665 -8.551682  -0.752940 -0.507824 -0.418564  0.995785 0.748632 1 73 1.000000
0  -4.108132 -18.219011 -8.879677  -0.752940 -0.507824 -0.418564  0.734598 0.757932 1 73 1.000000
Material
0  -3.973703 -18.688665 -8.551682  -0.734041 0.234885 0.637191  0.995785 0.748632 1 73 1.000000
0  -3.973703 -18.460571 -8.635765  -0.734041 0.234885 0.637191  0.889572 0.780565 1 73 1.000000
0  -4.108132 -18.219011 -8.879677  -0.734041 0.234885 0.637191  0.734598 0.757932 1 73 1.000000
Material
0  -3.124162 -18.227163 -8.211380  1.000000 0.000000 0.000000  0.079071 0.999299 1 73 1.000000
0  -3.124162 -18.364521 -8.108008  1.000000 0.000000 0.000000  0.000640 0.999293 1 73 1.000000
0  -3.124162 -18.660944 -8.501883  1.000000 0.000000 0.000000  0.000656 0.774391 1 73 1.000000
Material
0  -3.124162 -18.914158 -9.333197  0.926915 -0.313660 0.206026  0.136442 0.401889 1 73 1.000000
0  -2.989733 -18.219011 -8.879677  0.926915 -0.313661 0.206026  0.265402 0.757932 1 73 1.000000
0  -3.124162 -18.533543 -8.739885  0.926915 -0.313661 0.206026  0.112396 0.722590 1 73 1.000000
Material
0  -3.973703 -19.130083 -9.221516  -0.734055 0.311985 0.603182  0.972908 0.383356 1 73 1.000000
0  -3.973703 -18.914158 -9.333197  -0.734055 0.311985 0.603182  0.863558 0.401889 1 73 1.000000
0  -4.108131 -18.704660 -9.605144  -0.734055 0.311985 0.603182  0.712579 0.360240 1 73 1.000000
Material
0  -3.973703 -18.999460 -9.427479  -0.752934 -0.555752 -0.352462  0.868784 0.344118 1 73 1.000000
0  -3.973703 -19.130083 -9.221516  -0.752934 -0.555752 -0.352462  0.972908 0.383356 1 73 1.000000
0  -4.108131 -18.704660 -9.605144  -0.752934 -0.555752 -0.352462  0.712579 0.360240 1 73 1.000000
Material
0  -3.124162 -18.460571 -8.635765  0.926788 -0.328298 0.182439  0.110428 0.780565 1 73 1.000000
0  -2.989733 -17.957867 -8.414050  0.926802 -0.328283 0.182396  0.232840 0.999309 1 73 1.000000
0  -3.124162 -18.227163 -8.211380  0.926802 -0.328283 0.182396  0.079071 0.999299 1 73 1.000000
Material
0  -3.124162 -18.688665 -8.551682  1.000000 0.000000 0.000000  0.004215 0.748632 1 73 1.000000
0  -3.124162 -18.660944 -8.501883  1.000000 0.000000 0.000000  0.000656 0.774391 1 73 1.000000
0  -3.124162 -18.679502 -8.526541  1.000000 0.000000 0.000000  0.000657 0.760311 1 73 1.000000
Material
0  -3.973703 -18.688665 -8.551682  -1.000000 0.000000 0.000000  0.995785 0.748632 1 73 1.000000
0  -3.973703 -18.756439 -8.628773  -1.000000 0.000000 0.000000  0.999339 0.701936 1 73 1.000000
0  -3.973703 -18.679501 -8.526539  -1.000000 0.000000 0.000000  0.999343 0.760312 1 73 1.000000
Material
0  -4.108132 -18.219011 -8.879677  -1.000000 -0.000001 0.000000  0.734598 0.757932 1 73 1.000000
0  -4.108131 -16.761309 -9.314568  -1.000000 -0.000001 0.000000  0.083922 0.999355 1 73 1.000000
0  -4.108131 -16.680082 -9.406881  -1.000000 -0.000001 0.000000  0.028985 0.987991 1 73 1.000000
Material
0  -4.108131 -17.980560 -11.136502  -1.000000 -0.000000 0.000000  0.028476 0.000706 1 73 1.000000
0  -4.108131 -18.704660 -9.605144  -1.000000 -0.000000 0.000000  0.712579 0.360240 1 73 1.000000
0  -4.108131 -16.680082 -9.406881  -1.000000 -0.000000 0.000000  0.028985 0.987991 1 73 1.000000
Material
0  -4.108131 -16.680082 -9.406881  -1.000000 0.000000 -0.000001  0.028985 0.987991 1 73 1.000000
0  -4.108131 -18.704660 -9.605144  -1.000000 0.000000 -0.000001  0.712579 0.360240 1 73 1.000000
0  -4.108132 -18.219011 -8.879677  -1.000000 0.000000 -0.000001  0.734598 0.757932 1 73 1.000000
Material
0  -2.989733 -18.704660 -9.605144  1.000000 0.000000 -0.000000  0.287421 0.360240 1 73 1.000000
0  -2.989733 -16.680082 -9.406881  1.000000 0.000000 -0.000000  0.971015 0.987991 1 73 1.000000
0  -2.989733 -18.219011 -8.879677  1.000000 0.000000 -0.000000  0.265402 0.757932 1 73 1.000000
Material
0  -4.108131 -16.680082 -9.406881  -1.000000 0.000000 0.000000  0.028985 0.987991 1 73 1.000000
0  -4.108131 -16.761309 -9.314568  -1.000000 0.000000 0.000000  0.083922 0.999355 1 73 1.000000
0  -4.108131 -16.669277 -9.383829  -1.000000 0.000000 0.000000  0.031371 0.999358 1 73 1.000000
Material
0  -3.124162 -19.130083 -9.221516  1.000000 0.000000 0.000000  0.027092 0.383356 1 73 1.000000
0  -3.124162 -18.914158 -9.333197  1.000000 0.000000 0.000000  0.136442 0.401889 1 73 1.000000
0  -3.124162 -18.533543 -8.739885  1.000000 0.000000 0.000000  0.112396 0.722590 1 73 1.000000
Material
0  -3.973703 -18.533543 -8.739885  -1.000000 0.000001 0.000000  0.887604 0.722590 1 73 1.000000
0  -3.973703 -18.914158 -9.333197  -1.000000 0.000001 0.000000  0.863558 0.401889 1 73 1.000000
0  -3.973703 -19.130083 -9.221516  -1.000000 0.000001 0.000000  0.972908 0.383356 1 73 1.000000
Material
0  -2.989733 -16.761309 -9.314569  1.000000 0.000000 0.000000  0.916078 0.999354 1 73 1.000000
0  -2.989733 -18.219011 -8.879677  1.000000 0.000000 0.000000  0.265402 0.757932 1 73 1.000000
0  -2.989733 -16.680082 -9.406881  1.000000 0.000000 0.000000  0.971015 0.987991 1 73 1.000000
Material
0  -4.108131 -16.669277 -9.383829  -0.481097 0.793745 -0.372175  0.031371 0.999358 1 73 1.000000
0  -4.002012 -16.637650 -9.453582  -0.481097 0.793745 -0.372175  0.000705 0.982610 1 73 1.000000
0  -4.108131 -16.680082 -9.406881  -0.481097 0.793745 -0.372175  0.028985 0.987991 1 73 1.000000
Material
0  -2.989733 -16.669277 -9.383829  1.000000 0.000000 0.000000  0.968629 0.999358 1 73 1.000000
0  -2.989733 -16.761309 -9.314569  1.000000 0.000000 0.000000  0.916078 0.999354 1 73 1.000000
0  -2.989733 -16.680082 -9.406881  1.000000 0.000000 0.000000  0.971015 0.987991 1 73 1.000000
Material
0  -4.108131 -18.401590 -10.819640  -1.000000 0.000000 0.000000  0.268885 0.000689 1 73 1.000000
0  -4.108131 -19.268999 -10.166838  -1.000000 0.000000 0.000000  0.764178 0.000657 1 73 1.000000
0  -4.108131 -18.704660 -9.605144  -1.000000 0.000000 0.000000  0.712579 0.360240 1 73 1.000000
Material
0  -2.989733 -17.980560 -11.136502  1.000000 0.000000 0.000000  0.971524 0.000706 1 73 1.000000
0  -2.989733 -18.704660 -9.605144  1.000000 0.000000 0.000000  0.287421 0.360240 1 73 1.000000
0  -2.989733 -18.401590 -10.819640  1.000000 0.000000 0.000000  0.731115 0.000689 1 73 1.000000
Material
0  -2.989733 -19.268999 -10.166838  1.000000 -0.000001 0.000000  0.235822 0.000657 1 73 1.000000
0  -2.989733 -18.401590 -10.819640  1.000000 -0.000001 0.000000  0.731115 0.000689 1 73 1.000000
0  -2.989733 -18.704660 -9.605144  1.000000 -0.000001 0.000000  0.287421 0.360240 1 73 1.000000
Material
0  -4.108132 -17.957867 -8.414050  -0.926802 -0.328283 0.182396  0.767160 0.999309 1 73 1.000000
0  -3.973703 -18.460571 -8.635765  -0.926802 -0.328283 0.182396  0.889572 0.780565 1 73 1.000000
0  -3.973703 -18.227163 -8.211380  -0.926816 -0.328267 0.182353  0.920929 0.999299 1 73 1.000000
Material
0  -3.973703 -18.460571 -8.635765  -1.000000 0.000000 0.000000  0.889572 0.780565 1 73 1.000000
0  -3.973703 -18.660944 -8.501883  -1.000000 0.000000 0.000000  0.999344 0.774391 1 73 1.000000
0  -3.973703 -18.227163 -8.211380  -1.000000 0.000000 0.000000  0.920929 0.999299 1 73 1.000000
Material
0  -3.059999 -19.509995 -9.985466  0.734038 0.387568 0.557655  0.098213 0.000649 1 73 1.000000
0  -3.055161 -19.399448 -10.068664  0.734038 0.387568 0.557655  0.161335 0.000652 1 73 1.000000
0  -3.124162 -19.487972 -9.916311  0.734038 0.387568 0.557655  0.087266 0.031898 1 73 1.000000
Material
0  -3.124162 -19.634516 -9.891753  0.752961 -0.596744 -0.277391  0.027110 0.000643 1 73 1.000000
0  -3.111374 -19.652199 -9.819008  0.752961 -0.596744 -0.277391  0.000706 0.022308 1 73 1.000000
0  -3.124162 -19.662172 -9.832261  0.752961 -0.596744 -0.277391  0.000706 0.014741 1 73 1.000000
Material
0  -3.973703 -19.487972 -9.916311  -0.734051 0.387560 0.557644  0.912734 0.031898 1 73 1.000000
0  -4.042704 -19.399446 -10.068665  -0.734051 0.387560 0.557644  0.838664 0.000652 1 73 1.000000
0  -4.037866 -19.509995 -9.985466  -0.734051 0.387560 0.557644  0.901787 0.000649 1 73 1.000000
Material
0  -3.973702 -19.634516 -9.891753  -1.000000 0.000000 0.000000  0.972890 0.000643 1 73 1.000000
0  -3.973702 -19.680759 -9.856956  -1.000000 0.000000 0.000000  0.999293 0.000640 1 73 1.000000
0  -3.973702 -19.662172 -9.832261  -1.000000 0.000000 0.000000  0.999294 0.014741 1 73 1.000000
Material
0  -3.124162 -18.999460 -9.427479  1.000000 0.000000 0.000000  0.131216 0.344118 1 73 1.000000
0  -3.124162 -19.420607 -9.511282  1.000000 0.000000 0.000000  0.000695 0.198021 1 73 1.000000
0  -3.124162 -19.487972 -9.916311  1.000000 0.000000 0.000000  0.087266 0.031898 1 73 1.000000
Material
0  -3.973702 -19.634516 -9.891753  -0.752936 -0.596753 -0.277440  0.972890 0.000643 1 73 1.000000
0  -3.986490 -19.652199 -9.819008  -0.752936 -0.596753 -0.277440  0.999294 0.022308 1 73 1.000000
0  -4.037866 -19.509995 -9.985466  -0.752936 -0.596753 -0.277440  0.901787 0.000649 1 73 1.000000
Material
0  -3.124162 -19.662172 -9.832261  1.000000 0.000000 0.000000  0.000706 0.014741 1 73 1.000000
0  -3.124162 -19.680759 -9.856956  1.000000 0.000000 0.000000  0.000707 0.000640 1 73 1.000000
0  -3.124162 -19.634516 -9.891753  1.000000 0.000000 0.000000  0.027110 0.000643 1 73 1.000000
Material
0  -3.124162 -18.533543 -8.739885  1.000000 0.000000 0.000000  0.112396 0.722590 1 73 1.000000
0  -3.124162 -18.756439 -8.628773  1.000000 0.000000 0.000000  0.000661 0.701936 1 73 1.000000
0  -3.124162 -19.130083 -9.221516  1.000000 0.000000 0.000000  0.027092 0.383356 1 73 1.000000
Material
0  -3.124162 -19.174608 -9.184412  1.000000 -0.000005 0.000000  0.000682 0.384664 1 73 1.000000
0  -3.124162 -19.420607 -9.511282  1.000000 -0.000005 0.000000  0.000695 0.198021 1 73 1.000000
0  -3.124162 -19.130083 -9.221516  1.000000 -0.000005 0.000000  0.027092 0.383356 1 73 1.000000
Material
0  -3.095852 -16.637650 -9.453582  0.479775 0.796005 -0.369042  0.999295 0.982610 1 73 1.000000
0  -2.989733 -16.669277 -9.383829  0.479776 0.796005 -0.369042  0.968629 0.999358 1 73 1.000000
0  -2.989733 -16.680082 -9.406881  0.479792 0.795978 -0.369078  0.971015 0.987991 1 73 1.000000
Material
0  -3.973702 -19.420607 -9.511282  -1.000000 -0.000010 -0.000000  0.999305 0.198021 1 73 1.000000
0  -3.973703 -19.174608 -9.184412  -1.000000 -0.000010 -0.000000  0.999318 0.384664 1 73 1.000000
0  -3.973703 -19.130083 -9.221516  -1.000000 -0.000010 -0.000000  0.972908 0.383356 1 73 1.000000
Material
0  -3.124162 -18.679502 -8.526541  1.000000 0.000000 0.000000  0.000657 0.760311 1 73 1.000000
0  -3.124162 -18.756439 -8.628773  1.000000 0.000000 0.000000  0.000661 0.701936 1 73 1.000000
0  -3.124162 -18.688665 -8.551682  1.000000 0.000000 0.000000  0.004215 0.748632 1 73 1.000000
Material
0  -3.973703 -18.679501 -8.526539  -1.000000 0.000000 0.000000  0.999343 0.760312 1 73 1.000000
0  -3.973703 -18.660944 -8.501883  -1.000000 0.000000 0.000000  0.999344 0.774391 1 73 1.000000
0  -3.973703 -18.688665 -8.551682  -1.000000 0.000000 0.000000  0.995785 0.748632 1 73 1.000000
Material
0  -4.002012 -16.637650 -9.453582  -0.490641 0.695917 -0.524377  0.000705 0.982610 1 73 1.000000
0  -4.108131 -17.980560 -11.136502  -0.490641 0.695917 -0.524377  0.028476 0.000706 1 73 1.000000
0  -4.108131 -16.680082 -9.406881  -0.490641 0.695917 -0.524377  0.028985 0.987991 1 73 1.000000
Material
0  -2.989733 -17.980560 -11.136502  0.490645 0.695914 -0.524377  0.971524 0.000706 1 73 1.000000
0  -3.095852 -16.637650 -9.453582  0.490645 0.695914 -0.524377  0.999295 0.982610 1 73 1.000000
0  -2.989733 -16.680082 -9.406881  0.490645 0.695915 -0.524376  0.971015 0.987991 1 73 1.000000
Material
0  -3.124162 -18.999460 -9.427479  0.927315 -0.264329 0.264983  0.131216 0.344118 1 75 1.000000
0  -3.124162 -19.487972 -9.916311  0.927315 -0.264329 0.264984  0.087266 0.031898 1 75 1.000000
0  -3.055161 -19.399448 -10.068664  0.927299 -0.264372 0.264998  0.161335 0.000652 1 75 1.000000
Material
0  -3.055161 -19.399448 -10.068664  0.927246 -0.264516 0.265041  0.161335 0.000652 1 75 1.000000
0  -2.989733 -19.268999 -10.166838  0.927246 -0.264516 0.265041  0.235822 0.000657 1 75 1.000000
0  -3.124162 -18.999460 -9.427479  0.927246 -0.264516 0.265041  0.131216 0.344118 1 75 1.000000
Material
0  -3.973703 -18.533543 -8.739885  -1.000000 0.000000 0.000000  0.887604 0.722590 1 75 1.000000
0  -3.973703 -19.130083 -9.221516  -1.000000 0.000000 0.000000  0.972908 0.383356 1 75 1.000000
0  -3.973703 -18.756439 -8.628773  -1.000000 0.000000 0.000000  0.999339 0.701936 1 75 1.000000
Material
0  -3.973703 -19.130083 -9.221516  -1.000000 0.000000 0.000000  0.972908 0.383356 1 75 1.000000
0  -3.973703 -19.174608 -9.184412  -1.000000 0.000000 0.000000  0.999318 0.384664 1 75 1.000000
0  -3.973703 -18.756439 -8.628773  -1.000000 0.000000 0.000000  0.999339 0.701936 1 75 1.000000
Material
0  -3.973703 -18.999460 -9.427479  -0.927313 -0.264335 0.264987  0.868784 0.344118 1 75 1.000000
0  -4.108131 -18.704660 -9.605144  -0.927313 -0.264335 0.264987  0.712579 0.360240 1 75 1.000000
0  -4.108131 -19.268999 -10.166838  -0.927313 -0.264335 0.264987  0.764178 0.000657 1 75 1.000000
Material
0  -4.108131 -19.268999 -10.166838  -0.927312 -0.264336 0.264990  0.764178 0.000657 1 75 1.000000
0  -4.042704 -19.399446 -10.068665  -0.927280 -0.264423 0.265014  0.838664 0.000652 1 75 1.000000
0  -3.973703 -18.999460 -9.427479  -0.927264 -0.264466 0.265027  0.868784 0.344118 1 75 1.000000
Material
0  -3.973703 -19.130083 -9.221516  -1.000000 0.000000 -0.000000  0.972908 0.383356 1 75 1.000000
0  -3.973703 -18.999460 -9.427479  -1.000000 0.000000 -0.000000  0.868784 0.344118 1 75 1.000000
0  -3.973702 -19.420607 -9.511282  -1.000000 0.000000 -0.000000  0.999305 0.198021 1 75 1.000000
Material
0  -3.973703 -18.999460 -9.427479  -1.000000 -0.000001 0.000001  0.868784 0.344118 1 75 1.000000
0  -3.973703 -19.487972 -9.916311  -1.000000 -0.000001 0.000001  0.912734 0.031898 1 75 1.000000
0  -3.973702 -19.420607 -9.511282  -1.000000 -0.000001 0.000001  0.999305 0.198021 1 75 1.000000
Material
0  -4.108132 -18.219011 -8.879677  -0.926907 -0.313672 0.206043  0.734598 0.757932 1 75 1.000000
0  -4.108131 -18.704660 -9.605144  -0.926907 -0.313672 0.206044  0.712579 0.360240 1 75 1.000000
0  -3.973703 -18.914158 -9.333197  -0.926907 -0.313671 0.206044  0.863558 0.401889 1 75 1.000000
Material
0  -3.124162 -18.660944 -8.501883  1.000000 -0.000004 0.000000  0.000656 0.774391 1 75 1.000000
0  -3.124162 -18.688665 -8.551682  1.000000 -0.000004 0.000000  0.004215 0.748632 1 75 1.000000
0  -3.124162 -18.460571 -8.635765  1.000000 -0.000004 0.000000  0.110428 0.780565 1 75 1.000000
Material
0  -3.124162 -18.460571 -8.635765  1.000000 0.000000 0.000000  0.110428 0.780565 1 75 1.000000
0  -3.124162 -18.227163 -8.211380  1.000000 0.000000 0.000000  0.079071 0.999299 1 75 1.000000
0  -3.124162 -18.660944 -8.501883  1.000000 0.000000 0.000000  0.000656 0.774391 1 75 1.000000
Material
0  -3.124162 -18.914158 -9.333197  0.926906 -0.313672 0.206045  0.136442 0.401889 1 75 1.000000
0  -2.989733 -18.704660 -9.605144  0.926906 -0.313673 0.206045  0.287421 0.360240 1 75 1.000000
0  -2.989733 -18.219011 -8.879677  0.926906 -0.313672 0.206045  0.265402 0.757932 1 75 1.000000
Material
0  -3.124162 -18.460571 -8.635765  0.926779 -0.328308 0.182467  0.110428 0.780565 1 75 1.000000
0  -2.989733 -18.219011 -8.879677  0.926779 -0.328308 0.182467  0.265402 0.757932 1 75 1.000000
0  -2.989733 -17.957867 -8.414050  0.926779 -0.328308 0.182467  0.232840 0.999309 1 75 1.000000
Material
0  -4.108132 -18.219011 -8.879677  -1.000000 0.000001 -0.000000  0.734598 0.757932 1 75 1.000000
0  -4.108132 -17.957867 -8.414050  -1.000000 0.000001 -0.000000  0.767160 0.999309 1 75 1.000000
0  -4.108131 -16.761309 -9.314568  -1.000000 0.000001 -0.000000  0.083922 0.999355 1 75 1.000000
Material
0  -4.108131 -17.980560 -11.136502  -1.000000 0.000000 0.000000  0.028476 0.000706 1 75 1.000000
0  -4.108131 -18.401590 -10.819640  -1.000000 0.000000 0.000000  0.268885 0.000689 1 75 1.000000
0  -4.108131 -18.704660 -9.605144  -1.000000 0.000000 0.000000  0.712579 0.360240 1 75 1.000000
Material
0  -2.989733 -16.761309 -9.314569  1.000000 0.000000 -0.000000  0.916078 0.999354 1 75 1.000000
0  -2.989733 -17.957867 -8.414050  1.000000 0.000000 -0.000000  0.232840 0.999309 1 75 1.000000
0  -2.989733 -18.219011 -8.879677  1.000000 0.000000 -0.000000  0.265402 0.757932 1 75 1.000000
Material
0  -4.108131 -16.669277 -9.383829  -0.481141 0.793766 -0.372074  0.031371 0.999358 1 75 1.000000
0  -3.988281 -16.615574 -9.424246  -0.481141 0.793766 -0.372074  0.000707 0.999360 1 75 1.000000
0  -4.002012 -16.637650 -9.453582  -0.481141 0.793766 -0.372074  0.000705 0.982610 1 75 1.000000
Material
0  -2.989733 -17.980560 -11.136502  1.000000 0.000000 0.000000  0.971524 0.000706 1 75 1.000000
0  -2.989733 -16.680082 -9.406881  1.000000 0.000000 0.000000  0.971015 0.987991 1 75 1.000000
0  -2.989733 -18.704660 -9.605144  1.000000 0.000000 0.000000  0.287421 0.360240 1 75 1.000000
Material
0  -4.108132 -17.957867 -8.414050  -0.926765 -0.328323 0.182510  0.767160 0.999309 1 75 1.000000
0  -4.108132 -18.219011 -8.879677  -0.926765 -0.328323 0.182510  0.734598 0.757932 1 75 1.000000
0  -3.973703 -18.460571 -8.635765  -0.926765 -0.328323 0.182510  0.889572 0.780565 1 75 1.000000
Material
0  -3.973703 -18.688665 -8.551682  -1.000000 0.000000 0.000000  0.995785 0.748632 1 75 1.000000
0  -3.973703 -18.660944 -8.501883  -1.000000 0.000000 0.000000  0.999344 0.774391 1 75 1.000000
0  -3.973703 -18.460571 -8.635765  -1.000000 0.000000 0.000000  0.889572 0.780565 1 75 1.000000
Material
0  -3.973703 -18.660944 -8.501883  -1.000000 -0.000001 0.000000  0.999344 0.774391 1 75 1.000000
0  -3.973703 -18.364521 -8.108008  -1.000000 -0.000001 0.000000  0.999360 0.999293 1 75 1.000000
0  -3.973703 -18.227163 -8.211380  -1.000000 -0.000001 0.000000  0.920929 0.999299 1 75 1.000000
Material
0  -3.124162 -19.487972 -9.916311  0.734063 0.387536 0.557644  0.087266 0.031898 1 75 1.000000
0  -3.124162 -19.643881 -9.807956  0.734063 0.387536 0.557644  0.000705 0.028619 1 75 1.000000
0  -3.111374 -19.652199 -9.819008  0.734063 0.387536 0.557644  0.000706 0.022308 1 75 1.000000
Material
0  -3.111374 -19.652199 -9.819008  0.734047 0.387570 0.557642  0.000706 0.022308 1 75 1.000000
0  -3.059999 -19.509995 -9.985466  0.734047 0.387570 0.557642  0.098213 0.000649 1 75 1.000000
0  -3.124162 -19.487972 -9.916311  0.734047 0.387570 0.557642  0.087266 0.031898 1 75 1.000000
Material
0  -3.124162 -19.634516 -9.891753  0.752941 -0.596746 -0.277442  0.027110 0.000643 1 75 1.000000
0  -3.059999 -19.509995 -9.985466  0.752941 -0.596746 -0.277442  0.098213 0.000649 1 75 1.000000
0  -3.111374 -19.652199 -9.819008  0.752941 -0.596746 -0.277442  0.000706 0.022308 1 75 1.000000
Material
0  -4.037866 -19.509995 -9.985466  -0.734045 0.387567 0.557647  0.901787 0.000649 1 75 1.000000
0  -3.986490 -19.652199 -9.819008  -0.734045 0.387567 0.557647  0.999294 0.022308 1 75 1.000000
0  -3.973703 -19.487972 -9.916311  -0.734045 0.387567 0.557647  0.912734 0.031898 1 75 1.000000
Material
0  -3.986490 -19.652199 -9.819008  -0.734048 0.387562 0.557646  0.999294 0.022308 1 75 1.000000
0  -3.973702 -19.643881 -9.807956  -0.734048 0.387562 0.557646  0.999295 0.028619 1 75 1.000000
0  -3.973703 -19.487972 -9.916311  -0.734048 0.387562 0.557646  0.912734 0.031898 1 75 1.000000
Material
0  -3.124162 -19.130083 -9.221516  1.000000 0.000000 0.000000  0.027092 0.383356 1 75 1.000000
0  -3.124162 -19.420607 -9.511282  1.000000 0.000000 0.000000  0.000695 0.198021 1 75 1.000000
0  -3.124162 -18.999460 -9.427479  1.000000 0.000000 0.000000  0.131216 0.344118 1 75 1.000000
Material
0  -3.124162 -19.420607 -9.511282  1.000000 -0.000002 0.000000  0.000695 0.198021 1 75 1.000000
0  -3.124162 -19.643881 -9.807956  1.000000 -0.000002 0.000000  0.000705 0.028619 1 75 1.000000
0  -3.124162 -19.487972 -9.916311  1.000000 -0.000002 0.000000  0.087266 0.031898 1 75 1.000000
Material
0  -3.973702 -19.634516 -9.891753  -0.752945 -0.596767 -0.277386  0.972890 0.000643 1 75 1.000000
0  -3.973702 -19.662172 -9.832261  -0.752945 -0.596767 -0.277386  0.999294 0.014741 1 75 1.000000
0  -3.986490 -19.652199 -9.819008  -0.752945 -0.596767 -0.277386  0.999294 0.022308 1 75 1.000000
Material
0  -3.124162 -18.688665 -8.551682  1.000000 -0.000002 0.000000  0.004215 0.748632 1 75 1.000000
0  -3.124162 -18.756439 -8.628773  1.000000 -0.000002 0.000000  0.000661 0.701936 1 75 1.000000
0  -3.124162 -18.533543 -8.739885  1.000000 -0.000002 0.000000  0.112396 0.722590 1 75 1.000000
Material
0  -3.124162 -18.756439 -8.628773  1.000000 -0.000001 0.000000  0.000661 0.701936 1 75 1.000000
0  -3.124162 -19.174608 -9.184412  1.000000 -0.000001 0.000000  0.000682 0.384664 1 75 1.000000
0  -3.124162 -19.130083 -9.221516  1.000000 -0.000001 0.000000  0.027092 0.383356 1 75 1.000000
Material
0  -3.095852 -16.637650 -9.453582  0.479774 0.796007 -0.369039  0.999295 0.982610 1 75 1.000000
0  -3.110116 -16.615576 -9.424248  0.479774 0.796007 -0.369039  0.999293 0.999359 1 75 1.000000
0  -2.989733 -16.669277 -9.383829  0.479774 0.796007 -0.369039  0.968629 0.999358 1 75 1.000000
Material
0  -4.002012 -16.637650 -9.453582  -0.490623 0.695923 -0.524385  0.000705 0.982610 1 75 1.000000
0  -3.995793 -17.931812 -11.173193  -0.490623 0.695924 -0.524385  0.000640 0.000707 1 75 1.000000
0  -4.108131 -17.980560 -11.136502  -0.490623 0.695924 -0.524384  0.028476 0.000706 1 75 1.000000
Material
0  -2.989733 -17.980560 -11.136502  0.490622 0.695923 -0.524386  0.971524 0.000706 1 75 1.000000
0  -3.102072 -17.931812 -11.173193  0.490622 0.695923 -0.524387  0.999360 0.000707 1 75 1.000000
0  -3.095852 -16.637650 -9.453582  0.490622 0.695925 -0.524384  0.999295 0.982610 1 75 1.000000
Material
0  -3.124162 -18.999460 -9.427479  0.927315 -0.264329 0.264983  0.131216 0.344118 1 73 1.000000
0  -3.124162 -19.487972 -9.916311  0.927315 -0.264329 0.264984  0.087266 0.031898 1 73 1.000000
0  -3.055161 -19.399448 -10.068664  0.927299 -0.264372 0.264998  0.161335 0.000652 1 73 1.000000
Material
0  -3.055161 -19.399448 -10.068664  0.927246 -0.264516 0.265041  0.161335 0.000652 1 73 1.000000
0  -2.989733 -19.268999 -10.166838  0.927246 -0.264516 0.265041  0.235822 0.000657 1 73 1.000000
0  -3.124162 -18.999460 -9.427479  0.927246 -0.264516 0.265041  0.131216 0.344118 1 73 1.000000
Material
0  -3.973703 -18.533543 -8.739885  -1.000000 0.000000 0.000000  0.887604 0.722590 1 73 1.000000
0  -3.973703 -19.130083 -9.221516  -1.000000 0.000000 0.000000  0.972908 0.383356 1 73 1.000000
0  -3.973703 -18.756439 -8.628773  -1.000000 0.000000 0.000000  0.999339 0.701936 1 73 1.000000
Material
0  -3.973703 -19.130083 -9.221516  -1.000000 0.000000 0.000000  0.972908 0.383356 1 73 1.000000
0  -3.973703 -19.174608 -9.184412  -1.000000 0.000000 0.000000  0.999318 0.384664 1 73 1.000000
0  -3.973703 -18.756439 -8.628773  -1.000000 0.000000 0.000000  0.999339 0.701936 1 73 1.000000
Material
0  -3.973703 -18.999460 -9.427479  -0.927313 -0.264335 0.264987  0.868784 0.344118 1 73 1.000000
0  -4.108131 -18.704660 -9.605144  -0.927313 -0.264335 0.264987  0.712579 0.360240 1 73 1.000000
0  -4.108131 -19.268999 -10.166838  -0.927313 -0.264335 0.264987  0.764178 0.000657 1 73 1.000000
Material
0  -4.108131 -19.268999 -10.166838  -0.927312 -0.264336 0.264990  0.764178 0.000657 1 73 1.000000
0  -4.042704 -19.399446 -10.068665  -0.927280 -0.264423 0.265014  0.838664 0.000652 1 73 1.000000
0  -3.973703 -18.999460 -9.427479  -0.927264 -0.264466 0.265027  0.868784 0.344118 1 73 1.000000
Material
0  -3.973703 -19.130083 -9.221516  -1.000000 0.000000 -0.000000  0.972908 0.383356 1 73 1.000000
0  -3.973703 -18.999460 -9.427479  -1.000000 0.000000 -0.000000  0.868784 0.344118 1 73 1.000000
0  -3.973702 -19.420607 -9.511282  -1.000000 0.000000 -0.000000  0.999305 0.198021 1 73 1.000000
Material
0  -3.973703 -18.999460 -9.427479  -1.000000 -0.000001 0.000001  0.868784 0.344118 1 73 1.000000
0  -3.973703 -19.487972 -9.916311  -1.000000 -0.000001 0.000001  0.912734 0.031898 1 73 1.000000
0  -3.973702 -19.420607 -9.511282  -1.000000 -0.000001 0.000001  0.999305 0.198021 1 73 1.000000
Material
0  -4.108132 -18.219011 -8.879677  -0.926907 -0.313672 0.206043  0.734598 0.757932 1 73 1.000000
0  -4.108131 -18.704660 -9.605144  -0.926907 -0.313672 0.206044  0.712579 0.360240 1 73 1.000000
0  -3.973703 -18.914158 -9.333197  -0.926907 -0.313671 0.206044  0.863558 0.401889 1 73 1.000000
Material
0  -3.124162 -18.660944 -8.501883  1.000000 -0.000004 0.000000  0.000656 0.774391 1 73 1.000000
0  -3.124162 -18.688665 -8.551682  1.000000 -0.000004 0.000000  0.004215 0.748632 1 73 1.000000
0  -3.124162 -18.460571 -8.635765  1.000000 -0.000004 0.000000  0.110428 0.780565 1 73 1.000000
Material
0  -3.124162 -18.460571 -8.635765  1.000000 0.000000 0.000000  0.110428 0.780565 1 73 1.000000
0  -3.124162 -18.227163 -8.211380  1.000000 0.000000 0.000000  0.079071 0.999299 1 73 1.000000
0  -3.124162 -18.660944 -8.501883  1.000000 0.000000 0.000000  0.000656 0.774391 1 73 1.000000
Material
0  -3.124162 -18.914158 -9.333197  0.926906 -0.313672 0.206045  0.136442 0.401889 1 73 1.000000
0  -2.989733 -18.704660 -9.605144  0.926906 -0.313673 0.206045  0.287421 0.360240 1 73 1.000000
0  -2.989733 -18.219011 -8.879677  0.926906 -0.313672 0.206045  0.265402 0.757932 1 73 1.000000
Material
0  -3.124162 -18.460571 -8.635765  0.926779 -0.328308 0.182467  0.110428 0.780565 1 73 1.000000
0  -2.989733 -18.219011 -8.879677  0.926779 -0.328308 0.182467  0.265402 0.757932 1 73 1.000000
0  -2.989733 -17.957867 -8.414050  0.926779 -0.328308 0.182467  0.232840 0.999309 1 73 1.000000
Material
0  -4.108132 -18.219011 -8.879677  -1.000000 0.000001 -0.000000  0.734598 0.757932 1 73 1.000000
0  -4.108132 -17.957867 -8.414050  -1.000000 0.000001 -0.000000  0.767160 0.999309 1 73 1.000000
0  -4.108131 -16.761309 -9.314568  -1.000000 0.000001 -0.000000  0.083922 0.999355 1 73 1.000000
Material
0  -4.108131 -17.980560 -11.136502  -1.000000 0.000000 0.000000  0.028476 0.000706 1 73 1.000000
0  -4.108131 -18.401590 -10.819640  -1.000000 0.000000 0.000000  0.268885 0.000689 1 73 1.000000
0  -4.108131 -18.704660 -9.605144  -1.000000 0.000000 0.000000  0.712579 0.360240 1 73 1.000000
Material
0  -2.989733 -16.761309 -9.314569  1.000000 0.000000 -0.000000  0.916078 0.999354 1 73 1.000000
0  -2.989733 -17.957867 -8.414050  1.000000 0.000000 -0.000000  0.232840 0.999309 1 73 1.000000
0  -2.989733 -18.219011 -8.879677  1.000000 0.000000 -0.000000  0.265402 0.757932 1 73 1.000000
Material
0  -4.108131 -16.669277 -9.383829  -0.481141 0.793766 -0.372074  0.031371 0.999358 1 73 1.000000
0  -3.988281 -16.615574 -9.424246  -0.481141 0.793766 -0.372074  0.000707 0.999360 1 73 1.000000
0  -4.002012 -16.637650 -9.453582  -0.481141 0.793766 -0.372074  0.000705 0.982610 1 73 1.000000
Material
0  -2.989733 -17.980560 -11.136502  1.000000 0.000000 0.000000  0.971524 0.000706 1 73 1.000000
0  -2.989733 -16.680082 -9.406881  1.000000 0.000000 0.000000  0.971015 0.987991 1 73 1.000000
0  -2.989733 -18.704660 -9.605144  1.000000 0.000000 0.000000  0.287421 0.360240 1 73 1.000000
Material
0  -4.108132 -17.957867 -8.414050  -0.926765 -0.328323 0.182510  0.767160 0.999309 1 73 1.000000
0  -4.108132 -18.219011 -8.879677  -0.926765 -0.328323 0.182510  0.734598 0.757932 1 73 1.000000
0  -3.973703 -18.460571 -8.635765  -0.926765 -0.328323 0.182510  0.889572 0.780565 1 73 1.000000
Material
0  -3.973703 -18.688665 -8.551682  -1.000000 0.000000 0.000000  0.995785 0.748632 1 73 1.000000
0  -3.973703 -18.660944 -8.501883  -1.000000 0.000000 0.000000  0.999344 0.774391 1 73 1.000000
0  -3.973703 -18.460571 -8.635765  -1.000000 0.000000 0.000000  0.889572 0.780565 1 73 1.000000
Material
0  -3.973703 -18.660944 -8.501883  -1.000000 -0.000001 0.000000  0.999344 0.774391 1 73 1.000000
0  -3.973703 -18.364521 -8.108008  -1.000000 -0.000001 0.000000  0.999360 0.999293 1 73 1.000000
0  -3.973703 -18.227163 -8.211380  -1.000000 -0.000001 0.000000  0.920929 0.999299 1 73 1.000000
Material
0  -3.124162 -19.487972 -9.916311  0.734063 0.387536 0.557644  0.087266 0.031898 1 73 1.000000
0  -3.124162 -19.643881 -9.807956  0.734063 0.387536 0.557644  0.000705 0.028619 1 73 1.000000
0  -3.111374 -19.652199 -9.819008  0.734063 0.387536 0.557644  0.000706 0.022308 1 73 1.000000
Material
0  -3.111374 -19.652199 -9.819008  0.734047 0.387570 0.557642  0.000706 0.022308 1 73 1.000000
0  -3.059999 -19.509995 -9.985466  0.734047 0.387570 0.557642  0.098213 0.000649 1 73 1.000000
0  -3.124162 -19.487972 -9.916311  0.734047 0.387570 0.557642  0.087266 0.031898 1 73 1.000000
Material
0  -3.124162 -19.634516 -9.891753  0.752941 -0.596746 -0.277442  0.027110 0.000643 1 73 1.000000
0  -3.059999 -19.509995 -9.985466  0.752941 -0.596746 -0.277442  0.098213 0.000649 1 73 1.000000
0  -3.111374 -19.652199 -9.819008  0.752941 -0.596746 -0.277442  0.000706 0.022308 1 73 1.000000
Material
0  -4.037866 -19.509995 -9.985466  -0.734045 0.387567 0.557647  0.901787 0.000649 1 73 1.000000
0  -3.986490 -19.652199 -9.819008  -0.734045 0.387567 0.557647  0.999294 0.022308 1 73 1.000000
0  -3.973703 -19.487972 -9.916311  -0.734045 0.387567 0.557647  0.912734 0.031898 1 73 1.000000
Material
0  -3.986490 -19.652199 -9.819008  -0.734048 0.387562 0.557646  0.999294 0.022308 1 73 1.000000
0  -3.973702 -19.643881 -9.807956  -0.734048 0.387562 0.557646  0.999295 0.028619 1 73 1.000000
0  -3.973703 -19.487972 -9.916311  -0.734048 0.387562 0.557646  0.912734 0.031898 1 73 1.000000
Material
0  -3.124162 -19.130083 -9.221516  1.000000 0.000000 0.000000  0.027092 0.383356 1 73 1.000000
0  -3.124162 -19.420607 -9.511282  1.000000 0.000000 0.000000  0.000695 0.198021 1 73 1.000000
0  -3.124162 -18.999460 -9.427479  1.000000 0.000000 0.000000  0.131216 0.344118 1 73 1.000000
Material
0  -3.124162 -19.420607 -9.511282  1.000000 -0.000002 0.000000  0.000695 0.198021 1 73 1.000000
0  -3.124162 -19.643881 -9.807956  1.000000 -0.000002 0.000000  0.000705 0.028619 1 73 1.000000
0  -3.124162 -19.487972 -9.916311  1.000000 -0.000002 0.000000  0.087266 0.031898 1 73 1.000000
Material
0  -3.973702 -19.634516 -9.891753  -0.752945 -0.596767 -0.277386  0.972890 0.000643 1 73 1.000000
0  -3.973702 -19.662172 -9.832261  -0.752945 -0.596767 -0.277386  0.999294 0.014741 1 73 1.000000
0  -3.986490 -19.652199 -9.819008  -0.752945 -0.596767 -0.277386  0.999294 0.022308 1 73 1.000000
Material
0  -3.124162 -18.688665 -8.551682  1.000000 -0.000002 0.000000  0.004215 0.748632 1 73 1.000000
0  -3.124162 -18.756439 -8.628773  1.000000 -0.000002 0.000000  0.000661 0.701936 1 73 1.000000
0  -3.124162 -18.533543 -8.739885  1.000000 -0.000002 0.000000  0.112396 0.722590 1 73 1.000000
Material
0  -3.124162 -18.756439 -8.628773  1.000000 -0.000001 0.000000  0.000661 0.701936 1 73 1.000000
0  -3.124162 -19.174608 -9.184412  1.000000 -0.000001 0.000000  0.000682 0.384664 1 73 1.000000
0  -3.124162 -19.130083 -9.221516  1.000000 -0.000001 0.000000  0.027092 0.383356 1 73 1.000000
Material
0  -3.095852 -16.637650 -9.453582  0.479774 0.796007 -0.369039  0.999295 0.982610 1 73 1.000000
0  -3.110116 -16.615576 -9.424248  0.479774 0.796007 -0.369039  0.999293 0.999359 1 73 1.000000
0  -2.989733 -16.669277 -9.383829  0.479774 0.796007 -0.369039  0.968629 0.999358 1 73 1.000000
Material
0  -4.002012 -16.637650 -9.453582  -0.490623 0.695923 -0.524385  0.000705 0.982610 1 73 1.000000
0  -3.995793 -17.931812 -11.173193  -0.490623 0.695924 -0.524385  0.000640 0.000707 1 73 1.000000
0  -4.108131 -17.980560 -11.136502  -0.490623 0.695924 -0.524384  0.028476 0.000706 1 73 1.000000
Material
0  -2.989733 -17.980560 -11.136502  0.490622 0.695923 -0.524386  0.971524 0.000706 1 73 1.000000
0  -3.102072 -17.931812 -11.173193  0.490622 0.695923 -0.524387  0.999360 0.000707 1 73 1.000000
0  -3.095852 -16.637650 -9.453582  0.490622 0.695925 -0.524384  0.999295 0.982610 1 73 1.000000
end
