version 1
nodes
0 "root" -1
end
skeleton
time 0
0 0 0 0 0 0 0
end
triangles
lowpoly_plastic
0  0.419204 -1.626347 -6.032816  0.000000 -0.233730 -0.972302  0.081953 0.624999 0
0  -0.396372 -2.725614 -5.768566  0.000000 -0.233730 -0.972302  0.082104 0.624791 0
0  -0.396372 -1.626348 -6.032816  0.000000 -0.233730 -0.972302  0.082104 0.624999 0
lowpoly_metal
0  0.011416 -2.357804 -5.791799  0.000000 -0.247514 -0.968884  0.089637 0.525668 0
0  -0.294762 -2.775712 -5.685039  0.000000 -0.247514 -0.968884  0.089693 0.525588 0
0  -0.294762 -2.357804 -5.791799  0.000000 -0.247514 -0.968884  0.089693 0.525668 0
lowpoly_metal
0  -0.205370 0.361939 2.394184  0.000000 0.972539 -0.232742  0.089109 0.525192 0
0  0.011416 0.058475 1.126123  0.000000 0.972539 -0.232742  0.089069 0.524954 0
0  -0.294763 0.058475 1.126123  0.000000 0.972539 -0.232742  0.089126 0.524954 0
lowpoly_metal
0  0.179045 0.365068 2.528771  0.003261 0.999971 -0.006945  0.089038 0.525217 0
0  0.147057 0.365672 2.600597  0.003261 0.999971 -0.006945  0.089044 0.525230 0
0  0.216595 0.365068 2.546403  0.003261 0.999971 -0.006945  0.089031 0.525220 0
lowpoly_metal
0  0.011416 -2.830691 -5.670994  0.000000 -0.247508 -0.968886  0.089637 0.525578 0
0  -0.294762 -2.775712 -5.685039  0.000000 -0.247508 -0.968886  0.089693 0.525588 0
0  0.011416 -2.775712 -5.685039  0.000000 -0.247508 -0.968886  0.089637 0.525588 0
lowpoly_plastic
0  0.419205 -2.702596 -5.642225  0.000000 0.233729 0.972302  0.082255 0.624791 0
0  -0.396372 -1.603329 -5.906475  0.000000 0.233729 0.972302  0.082104 0.624995 0
0  -0.396372 -2.702596 -5.642225  0.000000 0.233729 0.972302  0.082104 0.624791 0
lowpoly_plastic
0  -0.396372 -2.725614 -5.768566  -1.000000 0.000000 0.000000  0.081497 0.624348 0
0  -0.396372 -1.603329 -5.906475  -1.000000 0.000000 0.000000  0.081521 0.624556 0
0  -0.396372 -1.626348 -6.032816  -1.000000 0.000000 0.000000  0.081497 0.624557 0
lowpoly_metal
0  -0.246854 0.322042 2.394705  -0.996568 0.004997 0.082624  0.088558 0.525205 0
0  -0.353352 0.058475 1.126123  -0.996568 0.004997 0.082624  0.088551 0.524966 0
0  -0.353353 0.018871 1.128515  -0.996568 0.004997 0.082624  0.088558 0.524964 0
lowpoly_plastic
0  0.419204 -1.603329 -5.906475  1.000000 0.000000 -0.000000  0.081473 0.624556 0
0  0.419205 -2.725614 -5.768566  1.000000 0.000000 -0.000000  0.081497 0.624348 0
0  0.419204 -1.626347 -6.032816  1.000000 0.000000 -0.000000  0.081497 0.624557 0
lowpoly_metal
0  0.317595 -1.648510 -5.972999  0.000000 -0.247509 -0.968886  0.089580 0.525802 0
0  0.011416 -1.686947 -5.963180  0.000000 -0.247509 -0.968886  0.089637 0.525795 0
0  0.011416 -1.648510 -5.972999  0.000000 -0.247509 -0.968886  0.089637 0.525802 0
lowpoly_metal
0  0.317595 -2.357804 -5.791799  0.000000 -0.247514 -0.968884  0.089580 0.525668 0
0  0.011416 -2.775712 -5.685039  0.000000 -0.247514 -0.968884  0.089637 0.525588 0
0  0.011416 -2.357804 -5.791799  0.000000 -0.247514 -0.968884  0.089637 0.525668 0
lowpoly_metal
0  0.011416 0.014128 1.137426  0.000000 -0.967741 0.251945  0.088902 0.525414 0
0  -0.309274 -0.235573 0.178306  0.000000 -0.967741 0.251945  0.088842 0.525234 0
0  0.011416 -0.235573 0.178306  0.000000 -0.967741 0.251945  0.088902 0.525234 0
lowpoly_metal
0  0.317595 -2.830691 -5.670993  0.000000 -0.971673 0.236330  0.089261 0.524009 0
0  0.376185 -2.690207 -5.093397  0.000000 -0.971673 0.236330  0.089272 0.524084 0
0  0.317595 -2.690207 -5.093397  0.000000 -0.971673 0.236330  0.089261 0.524084 0
lowpoly_plastic
0  -0.396372 -1.603329 -5.906475  -0.000001 0.983806 -0.179239  0.081227 0.624771 0
0  0.419204 -1.626347 -6.032816  -0.000001 0.983806 -0.179239  0.081250 0.624620 0
0  -0.396372 -1.626348 -6.032816  -0.000001 0.983806 -0.179239  0.081250 0.624771 0
lowpoly_metal
0  0.146687 0.325774 2.600964  -0.710265 0.013068 0.703814  0.089200 0.525263 0
0  0.117857 0.365672 2.571130  -0.710265 0.013068 0.703814  0.089195 0.525271 0
0  0.117487 0.325774 2.571497  -0.710265 0.013068 0.703814  0.089195 0.525263 0
lowpoly_metal
0  -0.309274 -1.116021 1.152198  0.000000 0.967742 -0.251945  0.088842 0.525415 0
0  0.011416 -1.365721 0.193079  0.000000 0.967742 -0.251945  0.088783 0.525234 0
0  -0.309274 -1.365721 0.193079  0.000000 0.967742 -0.251945  0.088842 0.525234 0
lowpoly_metal
0  0.317594 -1.686947 -5.963180  -0.000035 -0.247517 -0.968884  0.089580 0.525795 0
0  0.376184 -2.357804 -5.791801  -0.000035 -0.247517 -0.968884  0.089569 0.525668 0
0  0.317595 -2.357804 -5.791799  -0.000035 -0.247517 -0.968884  0.089580 0.525668 0
lowpoly_metal
0  0.317595 -1.648510 -5.972999  0.000000 0.972288 -0.233787  0.089013 0.524009 0
0  0.376184 -1.540225 -5.522653  0.000000 0.972288 -0.233787  0.089002 0.524068 0
0  0.376184 -1.648510 -5.972999  0.000000 0.972288 -0.233787  0.089002 0.524009 0
lowpoly_metal
0  -0.205370 -0.374314 2.403807  0.000000 0.013071 0.999915  0.090096 0.525829 0
0  -0.246854 -0.808107 2.409477  0.000000 0.013071 0.999915  0.090016 0.525837 0
0  -0.205370 -0.808107 2.409477  0.000000 0.013071 0.999915  0.090016 0.525829 0
lowpoly_metal
0  0.332107 -1.116021 1.152198  0.000000 0.967741 -0.251945  0.088724 0.525415 0
0  0.011416 -1.365721 0.193079  0.000000 0.967741 -0.251945  0.088783 0.525234 0
0  0.011416 -1.116021 1.152198  0.000000 0.967741 -0.251945  0.088783 0.525415 0
lowpoly_metal
0  -0.294762 -2.830691 -5.670993  0.000003 -0.971673 0.236330  0.089147 0.524009 0
0  -0.353352 -2.690208 -5.093397  0.000003 -0.971673 0.236330  0.089137 0.524084 0
0  -0.353352 -2.830692 -5.670994  0.000003 -0.971673 0.236330  0.089137 0.524009 0
lowpoly_metal
0  0.317595 -1.648510 -5.972999  0.000000 -0.247509 -0.968885  0.089580 0.525802 0
0  0.376184 -1.686947 -5.963180  0.000000 -0.247509 -0.968885  0.089569 0.525795 0
0  0.317594 -1.686947 -5.963180  0.000000 -0.247509 -0.968885  0.089580 0.525795 0
lowpoly_metal
0  0.011416 -0.931928 0.187408  0.000000 0.013070 0.999915  0.090261 0.524943 0
0  -0.309274 -1.365721 0.193079  0.000000 0.013070 0.999915  0.090202 0.524863 0
0  0.011416 -1.365721 0.193079  0.000000 0.013070 0.999915  0.090261 0.524863 0
lowpoly_metal
0  0.317595 0.058475 1.126123  0.000000 0.972539 -0.232742  0.089013 0.524954 0
0  0.269686 0.361939 2.394183  0.000000 0.972539 -0.232742  0.089021 0.525192 0
0  0.376184 0.058475 1.126123  0.000000 0.972539 -0.232742  0.089002 0.524954 0
lowpoly_metal
0  0.011416 -1.648510 -5.972999  0.000000 0.972288 -0.233787  0.089069 0.524009 0
0  0.317595 -1.540225 -5.522653  0.000000 0.972288 -0.233787  0.089013 0.524068 0
0  0.317595 -1.648510 -5.972999  0.000000 0.972288 -0.233787  0.089013 0.524009 0
lowpoly_metal
0  0.011416 -2.357804 -5.791799  -0.000002 -0.247517 -0.968884  0.089637 0.525668 0
0  -0.294762 -1.686947 -5.963179  -0.000002 -0.247517 -0.968884  0.089693 0.525795 0
0  0.011416 -1.686947 -5.963180  -0.000002 -0.247517 -0.968884  0.089637 0.525795 0
lowpoly_metal
0  -0.353352 -0.672353 1.170271  -1.000000 -0.000000 -0.000000  0.088684 0.524942 0
0  -0.353352 -1.536246 -4.903623  -1.000000 -0.000000 -0.000000  0.088577 0.524147 0
0  -0.353352 -2.092397 -4.695486  -1.000000 -0.000000 -0.000000  0.088686 0.524157 0
lowpoly_metal
0  0.212505 -0.371185 2.555114  0.000000 -0.999786 0.020675  0.088991 0.525701 0
0  0.228202 -0.374314 2.403807  0.000000 -0.999786 0.020675  0.088978 0.525676 0
0  0.269686 -0.374314 2.403807  0.000000 -0.999786 0.020675  0.088984 0.525672 0
lowpoly_metal
0  0.317595 -1.159598 1.199706  0.000000 -0.971673 0.236330  0.089261 0.524908 0
0  0.269686 -0.865176 2.410223  0.000000 -0.971673 0.236330  0.089252 0.525134 0
0  0.228202 -0.865176 2.410223  0.000000 -0.971673 0.236330  0.089244 0.525134 0
lowpoly_metal
0  0.376184 0.058475 1.126123  0.996568 0.004998 0.082624  0.089002 0.524966 0
0  0.269686 0.322042 2.394705  0.996568 0.004998 0.082624  0.088994 0.525205 0
0  0.376184 0.018871 1.128515  0.996568 0.004998 0.082624  0.088995 0.524964 0
lowpoly_metal
0  0.228202 -0.865176 2.410223  0.000000 0.013075 0.999915  0.090006 0.525749 0
0  0.011416 -0.808107 2.409477  0.000000 0.013075 0.999915  0.090016 0.525789 0
0  0.011416 -0.865176 2.410223  0.000000 0.013075 0.999915  0.090006 0.525789 0
lowpoly_metal
0  -0.152123 -0.371185 2.537482  0.534413 -0.002814 -0.845219  0.090196 0.524381 0
0  -0.094656 0.325774 2.571497  0.534413 -0.002814 -0.845219  0.090184 0.524508 0
0  -0.088190 -0.370582 2.577903  0.534413 -0.002814 -0.845219  0.090184 0.524380 0
lowpoly_metal
0  -0.353352 -1.102950 1.196283  -1.000000 -0.000001 0.000000  0.088763 0.524928 0
0  -0.353352 -2.092397 -4.695486  -1.000000 -0.000001 0.000000  0.088686 0.524157 0
0  -0.353352 -2.498243 -4.543602  -1.000000 -0.000001 0.000000  0.088765 0.524164 0
lowpoly_metal
0  0.011416 0.058475 1.126123  0.000000 0.972539 -0.232742  0.089069 0.524954 0
0  0.228202 0.361939 2.394183  0.000000 0.972539 -0.232742  0.089029 0.525192 0
0  0.317595 0.058475 1.126123  0.000000 0.972539 -0.232742  0.089013 0.524954 0
lowpoly_metal
0  0.011416 0.322042 2.394705  -0.000002 0.013062 0.999915  0.089137 0.525174 0
0  -0.205370 0.361939 2.394184  -0.000002 0.013062 0.999915  0.089144 0.525215 0
0  -0.205370 0.322042 2.394705  -0.000002 0.013062 0.999915  0.089137 0.525215 0
lowpoly_metal
0  -0.309274 -0.682228 1.146528  0.996623 -0.001073 -0.082100  0.089957 0.524735 0
0  -0.205370 -0.374314 2.403807  0.996623 -0.001073 -0.082100  0.089955 0.524975 0
0  -0.205370 -0.808107 2.409477  0.996623 -0.001073 -0.082100  0.089877 0.524956 0
lowpoly_metal
0  -0.246854 -0.865176 2.410223  -0.996249 0.005223 0.086377  0.088772 0.525157 0
0  -0.353352 -1.102950 1.196283  -0.996249 0.005223 0.086377  0.088763 0.524928 0
0  -0.353352 -1.159598 1.199706  -0.996249 0.005223 0.086377  0.088773 0.524926 0
lowpoly_metal
0  0.228202 -0.808107 2.409477  0.000000 0.013071 0.999915  0.090016 0.525749 0
0  0.269686 -0.374314 2.403807  0.000000 0.013071 0.999915  0.090096 0.525741 0
0  0.228202 -0.374314 2.403807  0.000000 0.013071 0.999915  0.090096 0.525749 0
lowpoly_metal
0  0.376184 0.018871 1.128515  1.000000 -0.000000 -0.000000  0.088995 0.524964 0
0  0.376184 -1.536246 -4.903623  1.000000 -0.000000 -0.000000  0.088976 0.524147 0
0  0.376184 -1.408641 -4.951378  1.000000 -0.000000 -0.000000  0.089001 0.524146 0
lowpoly_metal
0  0.011416 -1.648510 -5.972999  0.000000 -0.247530 -0.968880  0.089637 0.525802 0
0  -0.294762 -1.686947 -5.963179  0.000000 -0.247530 -0.968880  0.089693 0.525795 0
0  -0.294762 -1.648510 -5.972999  0.000000 -0.247530 -0.968880  0.089693 0.525802 0
lowpoly_metal
0  -0.294762 -1.648510 -5.972999  0.000000 -0.247509 -0.968885  0.089693 0.525802 0
0  -0.353352 -1.686947 -5.963180  0.000000 -0.247509 -0.968885  0.089704 0.525795 0
0  -0.353352 -1.648510 -5.972999  0.000000 -0.247509 -0.968885  0.089704 0.525802 0
lowpoly_metal
0  -0.294763 -1.159598 1.199706  0.000000 -0.971673 0.236330  0.089147 0.524908 0
0  -0.246854 -0.865176 2.410223  0.000000 -0.971673 0.236330  0.089156 0.525134 0
0  -0.353352 -1.159598 1.199706  0.000000 -0.971673 0.236330  0.089137 0.524908 0
lowpoly_metal
0  0.228202 0.322042 2.394705  0.000002 0.013074 0.999914  0.089137 0.525134 0
0  0.011416 0.361939 2.394184  0.000002 0.013074 0.999914  0.089144 0.525174 0
0  0.011416 0.322042 2.394705  0.000002 0.013074 0.999914  0.089137 0.525174 0
lowpoly_metal
0  0.140221 -0.370582 2.607371  -0.710273 0.013069 0.703805  0.089200 0.525134 0
0  0.117487 0.325774 2.571497  -0.710273 0.013069 0.703805  0.089195 0.525263 0
0  0.111022 -0.370582 2.577903  -0.710273 0.013069 0.703805  0.089195 0.525134 0
lowpoly_metal
0  0.228202 -0.808107 2.409477  0.000000 0.971296 -0.237875  0.088743 0.525651 0
0  0.011416 -1.116021 1.152198  0.000000 0.971296 -0.237875  0.088783 0.525415 0
0  0.011416 -0.808107 2.409477  0.000000 0.971296 -0.237875  0.088783 0.525651 0
lowpoly_metal
0  0.332106 0.014128 1.137426  -0.996623 -0.001074 -0.082101  0.089942 0.524240 0
0  0.228202 -0.808107 2.409477  -0.996623 -0.001074 -0.082101  0.090147 0.524431 0
0  0.228202 -0.374314 2.403807  -0.996623 -0.001074 -0.082101  0.090069 0.524450 0
lowpoly_metal
0  0.332107 -0.931928 0.187408  -1.000000 -0.000000 0.000000  0.090069 0.524027 0
0  0.332107 -1.116021 1.152198  -1.000000 -0.000000 0.000000  0.090146 0.524192 0
0  0.332107 -0.682228 1.146529  -1.000000 -0.000000 0.000000  0.090068 0.524210 0
lowpoly_metal
0  0.011416 0.014128 1.137426  0.000000 -0.971296 0.237875  0.088902 0.525414 0
0  0.228202 0.322042 2.394705  0.000000 -0.971296 0.237875  0.088942 0.525649 0
0  0.011416 0.322042 2.394705  0.000000 -0.971296 0.237875  0.088902 0.525649 0
lowpoly_plastic
0  0.419205 -2.725614 -5.768566  0.000000 -0.983806 0.179236  0.082396 0.623593 0
0  -0.396372 -2.702596 -5.642225  0.000000 -0.983806 0.179236  0.082420 0.623743 0
0  -0.396372 -2.725614 -5.768566  0.000000 -0.983806 0.179236  0.082396 0.623743 0
lowpoly_metal
0  0.317595 -2.830691 -5.670993  0.000001 -0.971673 0.236330  0.089261 0.524009 0
0  0.011416 -2.690208 -5.093397  0.000001 -0.971673 0.236330  0.089204 0.524084 0
0  0.011416 -2.830691 -5.670994  0.000001 -0.971673 0.236330  0.089204 0.524009 0
lowpoly_metal
0  0.332106 -0.235573 0.178306  -1.000000 -0.000000 0.000000  0.089944 0.524057 0
0  0.332107 -0.682228 1.146529  -1.000000 -0.000000 0.000000  0.090068 0.524210 0
0  0.332106 0.014128 1.137426  -1.000000 -0.000000 0.000000  0.089942 0.524240 0
lowpoly_metal
0  -0.205370 -0.374314 2.403807  0.996624 -0.001073 -0.082100  0.089955 0.524975 0
0  -0.309274 0.014128 1.137426  0.996624 -0.001073 -0.082100  0.090082 0.524765 0
0  -0.205370 0.322042 2.394705  0.996624 -0.001073 -0.082100  0.090081 0.525004 0
lowpoly_metal
0  0.269686 -0.865176 2.410223  0.000000 0.013075 0.999915  0.090006 0.525741 0
0  0.228202 -0.808107 2.409477  0.000000 0.013075 0.999915  0.090016 0.525749 0
0  0.228202 -0.865176 2.410223  0.000000 0.013075 0.999915  0.090006 0.525749 0
lowpoly_metal
0  0.269686 -0.808107 2.409477  0.996265 0.005207 0.086190  0.088790 0.525159 0
0  0.376185 -1.102950 1.196283  0.996265 0.005207 0.086190  0.088790 0.524928 0
0  0.376184 -0.672353 1.170271  0.996265 0.005207 0.086190  0.088868 0.524942 0
lowpoly_metal
0  0.376184 -0.672353 1.170271  1.000000 0.000001 -0.000000  0.088868 0.524942 0
0  0.376184 -2.156622 -4.671450  1.000000 0.000001 -0.000000  0.088854 0.524158 0
0  0.376184 -1.536246 -4.903623  1.000000 0.000001 -0.000000  0.088976 0.524147 0
lowpoly_metal
0  -0.152123 -0.371185 2.537482  0.003288 -0.999970 0.007004  0.088715 0.525682 0
0  -0.117389 -0.370581 2.607371  0.003288 -0.999970 0.007004  0.088713 0.525696 0
0  -0.189673 -0.371185 2.555114  0.003288 -0.999970 0.007004  0.088708 0.525680 0
lowpoly_metal
0  0.174955 -0.371185 2.537482  -0.567339 -0.006591 -0.823458  0.089194 0.525519 0
0  0.117487 0.325774 2.571497  -0.567339 -0.006591 -0.823458  0.089205 0.525645 0
0  0.178823 0.325171 2.529243  -0.567339 -0.006591 -0.823458  0.089194 0.525646 0
lowpoly_metal
0  0.269686 0.361939 2.394183  0.943775 0.004328 0.330560  0.089002 0.525207 0
0  0.216373 0.325171 2.546875  0.943775 0.004328 0.330560  0.088988 0.525232 0
0  0.269686 0.322042 2.394705  0.943775 0.004328 0.330560  0.088994 0.525205 0
lowpoly_metal
0  -0.189673 -0.371185 2.555114  -0.613167 0.005939 0.789931  0.088961 0.525423 0
0  -0.123855 0.325774 2.600964  -0.613167 0.005939 0.789931  0.088974 0.525551 0
0  -0.193542 0.325171 2.546875  -0.613167 0.005939 0.789931  0.088961 0.525552 0
lowpoly_metal
0  0.269686 0.322042 2.394705  0.935452 0.004619 0.353422  0.088994 0.525205 0
0  0.212505 -0.371185 2.555114  0.935452 0.004619 0.353422  0.088863 0.525204 0
0  0.269686 -0.374314 2.403807  0.935452 0.004619 0.353422  0.088869 0.525177 0
lowpoly_metal
0  -0.094656 0.325774 2.571497  0.710281 0.013070 0.703797  0.089211 0.525647 0
0  -0.117389 -0.370581 2.607371  0.710281 0.013070 0.703797  0.089205 0.525518 0
0  -0.088190 -0.370582 2.577903  0.710281 0.013070 0.703797  0.089211 0.525518 0
lowpoly_metal
0  0.146687 0.325774 2.600964  0.613170 0.005940 0.789929  0.090171 0.524509 0
0  0.212505 -0.371185 2.555114  0.613170 0.005940 0.789929  0.090184 0.524380 0
0  0.216373 0.325171 2.546875  0.613170 0.005940 0.789929  0.090184 0.524509 0
lowpoly_metal
0  0.140221 -0.370582 2.607371  -0.003286 -0.999970 0.006998  0.088985 0.525716 0
0  0.174955 -0.371185 2.537482  -0.003286 -0.999970 0.006998  0.088983 0.525702 0
0  0.212505 -0.371185 2.555114  -0.003286 -0.999970 0.006998  0.088991 0.525701 0
lowpoly_metal
0  0.178823 0.325171 2.529243  -0.569231 -0.006568 -0.822152  0.089194 0.525646 0
0  0.117857 0.365672 2.571130  -0.569231 -0.006568 -0.822152  0.089205 0.525653 0
0  0.179045 0.365068 2.528771  -0.569231 -0.006568 -0.822152  0.089194 0.525654 0
lowpoly_metal
0  -0.246854 0.361939 2.394183  -0.944209 -0.001345 0.329343  0.088551 0.525207 0
0  -0.193542 0.325171 2.546875  -0.944209 -0.001345 0.329343  0.088564 0.525232 0
0  -0.193763 0.365068 2.546403  -0.944209 -0.001345 0.329343  0.088557 0.525234 0
lowpoly_metal
0  0.376185 -1.102950 1.196283  1.000000 -0.000000 -0.000000  0.088790 0.524928 0
0  0.376184 -2.507002 -4.540322  1.000000 -0.000000 -0.000000  0.088786 0.524164 0
0  0.376184 -2.156622 -4.671450  1.000000 -0.000000 -0.000000  0.088854 0.524158 0
lowpoly_metal
0  -0.205370 0.361939 2.394184  -0.009317 0.999760 -0.019840  0.089109 0.525192 0
0  -0.193763 0.365068 2.546403  -0.009317 0.999760 -0.019840  0.089107 0.525220 0
0  -0.156213 0.365068 2.528771  -0.009317 0.999760 -0.019840  0.089100 0.525217 0
lowpoly_metal
0  -0.353352 -1.159598 1.199706  -1.000000 -0.000000 -0.000000  0.088773 0.524926 0
0  -0.353352 -2.498243 -4.543602  -1.000000 -0.000000 -0.000000  0.088765 0.524164 0
0  -0.353352 -2.551628 -4.523622  -1.000000 -0.000000 -0.000000  0.088776 0.524165 0
lowpoly_metal
0  0.376184 0.018871 1.128515  0.996386 0.005122 0.084787  0.088995 0.524964 0
0  0.269686 -0.374314 2.403807  0.996386 0.005122 0.084787  0.088869 0.525177 0
0  0.376184 -0.672353 1.170271  0.996386 0.005122 0.084787  0.088868 0.524942 0
lowpoly_metal
0  -0.294762 -2.830691 -5.670993  0.000000 -0.247525 -0.968881  0.089693 0.525578 0
0  -0.353352 -2.775712 -5.685039  0.000000 -0.247525 -0.968881  0.089704 0.525588 0
0  -0.294762 -2.775712 -5.685039  0.000000 -0.247525 -0.968881  0.089693 0.525588 0
lowpoly_metal
0  -0.205370 0.322042 2.394705  0.929037 -0.004835 -0.369954  0.090081 0.525004 0
0  -0.152123 -0.371185 2.537482  0.929037 -0.004835 -0.369954  0.089950 0.524999 0
0  -0.205370 -0.374314 2.403807  0.929037 -0.004835 -0.369954  0.089955 0.524975 0
lowpoly_metal
0  -0.353352 -0.672353 1.170271  -1.000000 -0.000000 -0.000000  0.088684 0.524942 0
0  -0.353352 -1.408642 -4.951377  -1.000000 -0.000000 -0.000000  0.088552 0.524146 0
0  -0.353352 -1.536246 -4.903623  -1.000000 -0.000000 -0.000000  0.088577 0.524147 0
lowpoly_metal
0  0.011416 -1.159598 1.199705  0.000000 -0.971673 0.236330  0.089204 0.524908 0
0  0.228202 -0.865176 2.410223  0.000000 -0.971673 0.236330  0.089244 0.525134 0
0  0.011416 -0.865176 2.410223  0.000000 -0.971673 0.236330  0.089204 0.525134 0
lowpoly_metal
0  -0.246854 -0.374314 2.403807  -0.996386 0.005122 0.084787  0.088684 0.525177 0
0  -0.353353 0.018871 1.128515  -0.996386 0.005122 0.084787  0.088558 0.524964 0
0  -0.353352 -0.672353 1.170271  -0.996386 0.005122 0.084787  0.088684 0.524942 0
lowpoly_metal
0  0.376185 -1.102950 1.196283  0.996249 0.005213 0.086380  0.088790 0.524928 0
0  0.269686 -0.865176 2.410223  0.996249 0.005213 0.086380  0.088780 0.525157 0
0  0.376184 -1.159598 1.199705  0.996249 0.005213 0.086380  0.088780 0.524926 0
lowpoly_metal
0  -0.205370 -0.865176 2.410223  0.000000 0.013067 0.999915  0.090006 0.525829 0
0  -0.246854 -0.808107 2.409477  0.000000 0.013067 0.999915  0.090016 0.525837 0
0  -0.246854 -0.865176 2.410223  0.000000 0.013067 0.999915  0.090006 0.525837 0
lowpoly_metal
0  0.376184 -2.775712 -5.685040  1.000000 0.000004 -0.000001  0.088787 0.524012 0
0  0.376185 -2.690207 -5.093397  1.000000 0.000004 -0.000001  0.088777 0.524089 0
0  0.376185 -2.830691 -5.670994  1.000000 0.000004 -0.000001  0.088776 0.524012 0
lowpoly_metal
0  0.011416 -0.865176 2.410223  -0.000002 0.013067 0.999915  0.090006 0.525789 0
0  -0.205370 -0.808107 2.409477  -0.000002 0.013067 0.999915  0.090016 0.525829 0
0  -0.205370 -0.865176 2.410223  -0.000002 0.013067 0.999915  0.090006 0.525829 0
lowpoly_metal
0  -0.246854 0.361939 2.394183  0.000000 0.972539 -0.232742  0.089117 0.525192 0
0  -0.294763 0.058475 1.126123  0.000000 0.972539 -0.232742  0.089126 0.524954 0
0  -0.353352 0.058475 1.126123  0.000000 0.972539 -0.232742  0.089137 0.524954 0
lowpoly_metal
0  -0.353352 -1.648510 -5.972999  0.000000 0.972288 -0.233787  0.089137 0.524009 0
0  -0.294762 -1.540225 -5.522653  0.000000 0.972288 -0.233787  0.089126 0.524068 0
0  -0.294762 -1.648510 -5.972999  0.000000 0.972288 -0.233787  0.089126 0.524009 0
lowpoly_metal
0  0.011416 -1.159598 1.199705  0.000000 -0.971673 0.236330  0.089204 0.524908 0
0  -0.205370 -0.865176 2.410223  0.000000 -0.971673 0.236330  0.089164 0.525134 0
0  -0.294763 -1.159598 1.199706  0.000000 -0.971673 0.236330  0.089147 0.524908 0
lowpoly_metal
0  0.228202 0.361939 2.394183  0.000000 0.999789 -0.020552  0.089029 0.525192 0
0  0.216595 0.365068 2.546403  0.000000 0.999789 -0.020552  0.089031 0.525220 0
0  0.269686 0.361939 2.394183  0.000000 0.999789 -0.020552  0.089021 0.525192 0
lowpoly_metal
0  -0.205370 0.322042 2.394705  -0.000000 -0.971296 0.237875  0.088861 0.525649 0
0  0.011416 0.014128 1.137426  -0.000000 -0.971296 0.237875  0.088902 0.525414 0
0  0.011416 0.322042 2.394705  -0.000000 -0.971296 0.237875  0.088902 0.525649 0
lowpoly_metal
0  -0.205370 -0.808107 2.409477  0.000000 0.971296 -0.237875  0.088823 0.525651 0
0  0.011416 -1.116021 1.152198  0.000000 0.971296 -0.237875  0.088783 0.525415 0
0  -0.309274 -1.116021 1.152198  0.000000 0.971296 -0.237875  0.088842 0.525415 0
lowpoly_metal
0  0.317594 -1.686947 -5.963180  0.000000 -0.247517 -0.968884  0.089580 0.525795 0
0  0.011416 -2.357804 -5.791799  0.000000 -0.247517 -0.968884  0.089637 0.525668 0
0  0.011416 -1.686947 -5.963180  0.000000 -0.247517 -0.968884  0.089637 0.525795 0
lowpoly_metal
0  0.011416 0.014128 1.137426  0.000001 -0.967741 0.251946  0.088902 0.525414 0
0  0.332106 -0.235573 0.178306  0.000001 -0.967741 0.251946  0.088961 0.525234 0
0  0.332106 0.014128 1.137426  0.000001 -0.967741 0.251946  0.088961 0.525414 0
lowpoly_metal
0  -0.309274 -1.116021 1.152198  1.000000 0.000001 0.000000  0.089879 0.524717 0
0  -0.309274 -0.931928 0.187408  1.000000 0.000001 0.000000  0.089955 0.524552 0
0  -0.309274 -0.682228 1.146528  1.000000 0.000001 0.000000  0.089957 0.524735 0
lowpoly_metal
0  0.332106 0.014128 1.137426  -0.996624 -0.001073 -0.082101  0.089942 0.524240 0
0  0.228202 -0.374314 2.403807  -0.996624 -0.001073 -0.082101  0.090069 0.524450 0
0  0.228202 0.322042 2.394705  -0.996624 -0.001073 -0.082101  0.089944 0.524480 0
lowpoly_metal
0  0.011416 -0.235573 0.178306  0.000000 0.013070 0.999915  0.090261 0.525072 0
0  -0.309274 -0.931928 0.187408  0.000000 0.013070 0.999915  0.090202 0.524943 0
0  0.011416 -0.931928 0.187408  0.000000 0.013070 0.999915  0.090261 0.524943 0
lowpoly_metal
0  -0.294762 -2.775712 -5.685039  0.000000 -0.247514 -0.968884  0.089693 0.525588 0
0  -0.353352 -2.357804 -5.791799  0.000000 -0.247514 -0.968884  0.089704 0.525668 0
0  -0.294762 -2.357804 -5.791799  0.000000 -0.247514 -0.968884  0.089693 0.525668 0
lowpoly_metal
0  0.376184 -2.775712 -5.685040  -0.000018 -0.247524 -0.968882  0.089569 0.525588 0
0  0.317595 -2.830691 -5.670993  -0.000018 -0.247524 -0.968882  0.089580 0.525578 0
0  0.317595 -2.775712 -5.685039  -0.000018 -0.247524 -0.968882  0.089580 0.525588 0
lowpoly_metal
0  -0.156213 0.365068 2.528771  -0.005847 0.999966 -0.005793  0.089100 0.525217 0
0  -0.124225 0.365672 2.600597  -0.005847 0.999966 -0.005793  0.089094 0.525230 0
0  -0.095026 0.365672 2.571130  -0.005847 0.999966 -0.005793  0.089089 0.525225 0
lowpoly_metal
0  0.178823 0.325171 2.529243  -0.938792 -0.004504 -0.344455  0.089949 0.524504 0
0  0.228202 0.361939 2.394183  -0.938792 -0.004504 -0.344455  0.089936 0.524481 0
0  0.228202 0.322042 2.394705  -0.938792 -0.004504 -0.344455  0.089944 0.524480 0
lowpoly_metal
0  -0.205370 -0.374314 2.403807  0.000000 -0.999786 0.020676  0.088721 0.525656 0
0  -0.189673 -0.371185 2.555114  0.000000 -0.999786 0.020676  0.088708 0.525680 0
0  -0.246854 -0.374314 2.403807  0.000000 -0.999786 0.020676  0.088715 0.525651 0
lowpoly_metal
0  -0.246854 0.322042 2.394705  -0.943748 -0.001331 0.330664  0.088558 0.525205 0
0  -0.189673 -0.371185 2.555114  -0.943748 -0.001331 0.330664  0.088690 0.525204 0
0  -0.193542 0.325171 2.546875  -0.943748 -0.001331 0.330664  0.088564 0.525232 0
lowpoly_metal
0  -0.205370 0.361939 2.394184  0.938792 -0.004505 -0.344455  0.090088 0.525006 0
0  -0.155992 0.325171 2.529243  0.938792 -0.004505 -0.344455  0.090075 0.525029 0
0  -0.205370 0.322042 2.394705  0.938792 -0.004505 -0.344455  0.090081 0.525004 0
lowpoly_metal
0  -0.095026 0.365672 2.571130  0.710269 0.013060 0.703809  0.089211 0.525654 0
0  -0.123855 0.325774 2.600964  0.710269 0.013060 0.703809  0.089205 0.525646 0
0  -0.094656 0.325774 2.571497  0.710269 0.013060 0.703809  0.089211 0.525647 0
lowpoly_metal
0  0.317595 -2.775712 -5.685039  0.000000 -0.247508 -0.968886  0.089580 0.525588 0
0  0.011416 -2.830691 -5.670994  0.000000 -0.247508 -0.968886  0.089637 0.525578 0
0  0.011416 -2.775712 -5.685039  0.000000 -0.247508 -0.968886  0.089637 0.525588 0
lowpoly_metal
0  0.174955 -0.371185 2.537482  -0.929038 -0.004836 -0.369953  0.090074 0.524474 0
0  0.228202 0.322042 2.394705  -0.929038 -0.004836 -0.369953  0.089944 0.524480 0
0  0.228202 -0.374314 2.403807  -0.929038 -0.004836 -0.369953  0.090069 0.524450 0
lowpoly_metal
0  -0.193542 0.325171 2.546875  -0.614728 0.005920 0.788717  0.088961 0.525552 0
0  -0.124225 0.365672 2.600597  -0.614728 0.005920 0.788717  0.088974 0.525559 0
0  -0.193763 0.365068 2.546403  -0.614728 0.005920 0.788717  0.088961 0.525559 0
lowpoly_metal
0  -0.155992 0.325171 2.529243  0.567321 -0.002304 -0.823494  0.090195 0.524509 0
0  -0.095026 0.365672 2.571130  0.567321 -0.002304 -0.823494  0.090184 0.524515 0
0  -0.094656 0.325774 2.571497  0.567321 -0.002304 -0.823494  0.090184 0.524508 0
lowpoly_metal
0  -0.246854 -0.865176 2.410223  -0.996249 0.005217 0.086378  0.088772 0.525157 0
0  -0.353352 -0.672353 1.170271  -0.996249 0.005217 0.086378  0.088684 0.524942 0
0  -0.353352 -1.102950 1.196283  -0.996249 0.005217 0.086378  0.088763 0.524928 0
lowpoly_metal
0  -0.309274 -0.682228 1.146528  1.000000 0.000000 0.000000  0.089957 0.524735 0
0  -0.309274 -0.235573 0.178306  1.000000 0.000000 0.000000  0.090081 0.524582 0
0  -0.309274 0.014128 1.137426  1.000000 0.000000 0.000000  0.090082 0.524765 0
lowpoly_metal
0  0.011416 -1.159598 1.199705  0.000000 -0.971673 0.236331  0.089204 0.524908 0
0  -0.294762 -2.551627 -4.523622  0.000000 -0.971673 0.236331  0.089147 0.524159 0
0  0.011416 -2.551627 -4.523622  0.000000 -0.971673 0.236331  0.089204 0.524159 0
lowpoly_metal
0  0.147057 0.365672 2.600597  0.614724 0.005912 0.788720  0.090171 0.524516 0
0  0.216373 0.325171 2.546875  0.614724 0.005912 0.788720  0.090184 0.524509 0
0  0.216595 0.365068 2.546403  0.614724 0.005912 0.788720  0.090184 0.524516 0
lowpoly_metal
0  0.332106 -1.365721 0.193079  0.000000 0.013070 0.999915  0.090320 0.524863 0
0  0.011416 -0.931928 0.187408  0.000000 0.013070 0.999915  0.090261 0.524943 0
0  0.011416 -1.365721 0.193079  0.000000 0.013070 0.999915  0.090261 0.524863 0
lowpoly_metal
0  -0.294762 -2.357804 -5.791799  0.000012 -0.247515 -0.968884  0.089693 0.525668 0
0  -0.353352 -1.686947 -5.963180  0.000012 -0.247515 -0.968884  0.089704 0.525795 0
0  -0.294762 -1.686947 -5.963179  0.000012 -0.247515 -0.968884  0.089693 0.525795 0
lowpoly_metal
0  0.332107 -0.931928 0.187408  0.000000 0.013070 0.999915  0.090320 0.524943 0
0  0.011416 -0.235573 0.178306  0.000000 0.013070 0.999915  0.090261 0.525072 0
0  0.011416 -0.931928 0.187408  0.000000 0.013070 0.999915  0.090261 0.524943 0
lowpoly_metal
0  0.317595 -2.357804 -5.791799  -0.000019 -0.247514 -0.968884  0.089580 0.525668 0
0  0.376184 -2.775712 -5.685040  -0.000019 -0.247514 -0.968884  0.089569 0.525588 0
0  0.317595 -2.775712 -5.685039  -0.000019 -0.247514 -0.968884  0.089580 0.525588 0
lowpoly_metal
0  -0.294762 -1.648510 -5.972999  0.000000 0.972288 -0.233787  0.089126 0.524009 0
0  0.011416 -1.540225 -5.522653  0.000000 0.972288 -0.233787  0.089069 0.524068 0
0  0.011416 -1.648510 -5.972999  0.000000 0.972288 -0.233787  0.089069 0.524009 0
lowpoly_metal
0  -0.353353 0.018871 1.128515  -1.000000 -0.000004 -0.000000  0.088558 0.524964 0
0  -0.353352 -1.403338 -4.953363  -1.000000 -0.000004 -0.000000  0.088551 0.524146 0
0  -0.353352 -1.408642 -4.951377  -1.000000 -0.000004 -0.000000  0.088552 0.524146 0
lowpoly_metal
0  -0.205370 -0.808107 2.409477  0.996623 -0.001073 -0.082100  0.089877 0.524956 0
0  -0.309274 -1.116021 1.152198  0.996623 -0.001073 -0.082100  0.089879 0.524717 0
0  -0.309274 -0.682228 1.146528  0.996623 -0.001073 -0.082100  0.089957 0.524735 0
lowpoly_metal
0  -0.246854 -0.808107 2.409477  -0.996316 0.001121 0.085747  0.088762 0.525159 0
0  -0.246854 -0.374314 2.403807  -0.996316 0.001121 0.085747  0.088684 0.525177 0
0  -0.353352 -0.672353 1.170271  -0.996316 0.001121 0.085747  0.088684 0.524942 0
lowpoly_metal
0  0.376184 -1.648510 -5.972999  1.000000 -0.000015 0.000000  0.089002 0.524009 0
0  0.376184 -1.540225 -5.522653  1.000000 -0.000015 0.000000  0.089002 0.524069 0
0  0.376184 -1.542567 -5.521778  1.000000 -0.000015 0.000000  0.089001 0.524069 0
lowpoly_metal
0  0.332107 -0.682228 1.146529  -0.996623 -0.001073 -0.082100  0.090068 0.524210 0
0  0.332107 -1.116021 1.152198  -0.996623 -0.001073 -0.082100  0.090146 0.524192 0
0  0.228202 -0.808107 2.409477  -0.996623 -0.001073 -0.082100  0.090147 0.524431 0
lowpoly_metal
0  0.376184 -0.672353 1.170271  0.996316 0.001121 0.085747  0.088868 0.524942 0
0  0.269686 -0.374314 2.403807  0.996316 0.001121 0.085747  0.088869 0.525177 0
0  0.269686 -0.808107 2.409477  0.996316 0.001121 0.085747  0.088790 0.525159 0
lowpoly_plastic
0  0.376184 -1.542567 -5.521778  0.000000 -0.242008 -0.970274  0.788450 0.985408 0
0  0.406971 -1.507776 -5.530455  0.000000 -0.242008 -0.970274  0.788450 0.985408 0
0  0.421589 -1.542567 -5.521778  0.000000 -0.242008 -0.970274  0.788450 0.985408 0
lowpoly_metal
0  -0.353352 -2.636743 -5.113353  -1.000000 -0.000000 0.000000  0.088765 0.524088 0
0  -0.353352 -2.357804 -5.791799  -1.000000 -0.000000 0.000000  0.088686 0.524011 0
0  -0.353352 -2.775712 -5.685039  -1.000000 -0.000000 0.000000  0.088766 0.524012 0
lowpoly_metal
0  -0.353352 -1.620053 -5.492855  -1.000000 0.000000 0.000000  0.088566 0.524070 0
0  -0.353352 -1.648510 -5.972999  -1.000000 0.000000 0.000000  0.088551 0.524009 0
0  -0.353352 -1.686947 -5.963180  -1.000000 0.000000 0.000000  0.088558 0.524009 0
lowpoly_plastic
0  0.376184 -2.156622 -4.671450  0.000000 0.350504 0.936561  0.788303 0.985496 0
0  0.421590 -2.507002 -4.540322  0.000000 0.350504 0.936561  0.788234 0.985502 0
0  0.421590 -2.156622 -4.671450  0.000000 0.350504 0.936561  0.788303 0.985496 0
lowpoly_metal
0  0.376184 -1.620053 -5.492855  1.000000 0.000001 -0.000000  0.088986 0.524070 0
0  0.376184 -2.357804 -5.791801  1.000000 0.000001 -0.000000  0.088866 0.524011 0
0  0.376184 -1.686947 -5.963180  1.000000 0.000001 -0.000000  0.088994 0.524009 0
lowpoly_plastic
0  -0.294762 -1.403339 -4.953363  0.000000 0.233791 0.972287  0.788574 0.985483 0
0  0.011416 -1.359192 -4.963978  0.000000 0.233791 0.972287  0.788518 0.985483 0
0  -0.294762 -1.359192 -4.963978  0.000000 0.233791 0.972287  0.788574 0.985483 0
lowpoly_metal
0  -0.353352 -1.542568 -5.521780  -1.000000 -0.000026 0.000000  0.088551 0.524069 0
0  -0.353352 -1.540225 -5.522653  -1.000000 -0.000026 0.000000  0.088551 0.524069 0
0  -0.353352 -1.648510 -5.972999  -1.000000 -0.000026 0.000000  0.088551 0.524009 0
lowpoly_metal
0  0.376184 -1.542567 -5.521778  1.000000 0.000000 0.000000  0.089001 0.524069 0
0  0.376184 -1.686947 -5.963180  1.000000 0.000000 0.000000  0.088994 0.524009 0
0  0.376184 -1.648510 -5.972999  1.000000 0.000000 0.000000  0.089002 0.524009 0
lowpoly_plastic
0  0.376185 -2.690207 -5.093397  -0.060947 -0.299089 -0.952277  0.788225 0.985427 0
0  0.421590 -2.641131 -5.111717  -0.060947 -0.299089 -0.952277  0.788235 0.985426 0
0  0.409438 -2.720249 -5.086090  -0.060947 -0.299089 -0.952277  0.788225 0.985427 0
lowpoly_plastic
0  -0.353352 -2.092397 -4.695486  0.000000 0.350505 0.936561  0.788134 0.985496 0
0  -0.398757 -1.536246 -4.903623  0.000000 0.350505 0.936561  0.788025 0.985486 0
0  -0.398757 -2.092397 -4.695486  0.000000 0.350505 0.936561  0.788134 0.985496 0
lowpoly_plastic
0  -0.353352 -2.690208 -5.093397  0.000004 -0.236337 -0.971671  0.788585 0.985422 0
0  -0.294762 -2.734327 -5.082666  0.000004 -0.236337 -0.971671  0.788596 0.985423 0
0  -0.386604 -2.720251 -5.086090  0.000004 -0.236337 -0.971671  0.788585 0.985422 0
lowpoly_plastic
0  0.317595 -2.551627 -4.523622  0.000001 0.236334 0.971672  0.788709 0.985497 0
0  0.011416 -2.595746 -4.512891  0.000001 0.236334 0.971672  0.788653 0.985497 0
0  0.317595 -2.595746 -4.512891  0.000001 0.236334 0.971672  0.788709 0.985497 0
lowpoly_metal
0  -0.353352 -2.690208 -5.093397  -1.000000 -0.000000 0.000000  0.088776 0.524089 0
0  -0.353352 -2.775712 -5.685039  -1.000000 -0.000000 0.000000  0.088766 0.524012 0
0  -0.353352 -2.830692 -5.670994  -1.000000 -0.000000 0.000000  0.088776 0.524012 0
lowpoly_metal
0  0.011416 -2.690208 -5.093397  0.000001 -0.971673 0.236330  0.089204 0.524084 0
0  -0.294762 -2.830691 -5.670993  0.000001 -0.971673 0.236330  0.089147 0.524009 0
0  0.011416 -2.830691 -5.670994  0.000001 -0.971673 0.236330  0.089204 0.524009 0
lowpoly_metal
0  -0.353352 -2.230288 -5.265071  -1.000000 -0.000000 0.000000  0.088686 0.524081 0
0  -0.353352 -1.686947 -5.963180  -1.000000 -0.000000 0.000000  0.088558 0.524009 0
0  -0.353352 -2.357804 -5.791799  -1.000000 -0.000000 0.000000  0.088686 0.524011 0
lowpoly_metal
0  0.376184 -2.261150 -5.253553  1.000000 0.000000 0.000000  0.088861 0.524081 0
0  0.376184 -2.775712 -5.685040  1.000000 0.000000 0.000000  0.088787 0.524012 0
0  0.376184 -2.357804 -5.791801  1.000000 0.000000 0.000000  0.088866 0.524011 0
lowpoly_plastic
0  0.376184 -1.620053 -5.492855  0.000000 -0.349700 -0.936862  0.788435 0.985409 0
0  0.421589 -1.542567 -5.521778  0.000000 -0.349700 -0.936862  0.788450 0.985408 0
0  0.421589 -1.620053 -5.492855  0.000000 -0.349700 -0.936862  0.788435 0.985409 0
lowpoly_plastic
0  0.376185 -2.551627 -4.523622  0.000000 0.236327 0.971673  0.788720 0.985497 0
0  0.317595 -2.595746 -4.512891  0.000000 0.236327 0.971673  0.788709 0.985497 0
0  0.406998 -2.584032 -4.515741  0.000000 0.236327 0.971673  0.788720 0.985497 0
lowpoly_metal
0  0.011416 -1.403339 -4.953363  0.000000 0.972288 -0.233787  0.089069 0.524144 0
0  -0.294763 0.058475 1.126123  0.000000 0.972288 -0.233787  0.089126 0.524954 0
0  0.011416 0.058475 1.126123  0.000000 0.972288 -0.233787  0.089069 0.524954 0
lowpoly_plastic
0  -0.353352 -1.540225 -5.522653  -0.006330 -0.239453 -0.970887  0.787999 0.985408 0
0  -0.398757 -1.542568 -5.521780  -0.006330 -0.239453 -0.970887  0.788000 0.985408 0
0  -0.384149 -1.507785 -5.530453  -0.006330 -0.239453 -0.970887  0.787999 0.985408 0
lowpoly_metal
0  -0.353352 -2.551628 -4.523622  0.000000 -0.971673 0.236331  0.089137 0.524159 0
0  -0.294763 -1.159598 1.199706  0.000000 -0.971673 0.236331  0.089147 0.524908 0
0  -0.353352 -1.159598 1.199706  0.000000 -0.971673 0.236331  0.089137 0.524908 0
lowpoly_plastic
0  0.011416 -1.403339 -4.953363  0.000000 0.233791 0.972287  0.788518 0.985483 0
0  0.317595 -1.359192 -4.963978  0.000000 0.233791 0.972287  0.788461 0.985483 0
0  0.011416 -1.359192 -4.963978  0.000000 0.233791 0.972287  0.788518 0.985483 0
lowpoly_metal
0  0.376185 -2.551627 -4.523622  1.000000 0.000005 -0.000001  0.088777 0.524165 0
0  0.376184 -2.507002 -4.540322  1.000000 0.000005 -0.000001  0.088786 0.524164 0
0  0.376184 -1.159598 1.199705  1.000000 0.000005 -0.000001  0.088780 0.524926 0
lowpoly_metal
0  0.376184 -1.408641 -4.951378  1.000000 0.000007 -0.000001  0.089001 0.524146 0
0  0.376184 0.058475 1.126123  1.000000 0.000007 -0.000001  0.089002 0.524966 0
0  0.376184 0.018871 1.128515  1.000000 0.000007 -0.000001  0.088995 0.524964 0
lowpoly_plastic
0  0.011416 -1.540225 -5.522653  0.000000 -0.233791 -0.972287  0.788518 0.985407 0
0  -0.294762 -1.496078 -5.533268  0.000000 -0.233791 -0.972287  0.788574 0.985407 0
0  0.011416 -1.496078 -5.533268  0.000000 -0.233791 -0.972287  0.788518 0.985407 0
lowpoly_metal
0  -0.294762 -1.403339 -4.953363  0.000000 0.972288 -0.233787  0.089126 0.524144 0
0  -0.353352 0.058475 1.126123  0.000000 0.972288 -0.233787  0.089137 0.524954 0
0  -0.294763 0.058475 1.126123  0.000000 0.972288 -0.233787  0.089126 0.524954 0
lowpoly_plastic
0  0.376184 -1.408641 -4.951378  0.000000 0.350503 0.936562  0.788449 0.985484 0
0  0.421589 -1.536246 -4.903623  0.000000 0.350503 0.936562  0.788424 0.985486 0
0  0.421589 -1.408641 -4.951378  0.000000 0.350503 0.936562  0.788449 0.985484 0
lowpoly_plastic
0  0.376184 -2.261150 -5.253553  0.000000 -0.349701 -0.936861  0.788309 0.985420 0
0  0.421589 -1.620053 -5.492855  0.000000 -0.349701 -0.936861  0.788435 0.985409 0
0  0.421590 -2.261150 -5.253553  0.000000 -0.349701 -0.936861  0.788309 0.985420 0
lowpoly_metal
0  0.317595 -1.403339 -4.953363  0.000000 0.972288 -0.233787  0.089013 0.524144 0
0  0.011416 0.058475 1.126123  0.000000 0.972288 -0.233787  0.089069 0.524954 0
0  0.317595 0.058475 1.126123  0.000000 0.972288 -0.233787  0.089013 0.524954 0
lowpoly_metal
0  0.317595 -2.551627 -4.523622  0.000001 -0.971673 0.236330  0.089261 0.524159 0
0  0.376184 -1.159598 1.199705  0.000001 -0.971673 0.236330  0.089272 0.524908 0
0  0.317595 -1.159598 1.199706  0.000001 -0.971673 0.236330  0.089261 0.524908 0
lowpoly_metal
0  0.011416 -2.551627 -4.523622  -0.000001 -0.971673 0.236331  0.089204 0.524159 0
0  0.317595 -1.159598 1.199706  -0.000001 -0.971673 0.236331  0.089261 0.524908 0
0  0.011416 -1.159598 1.199705  -0.000001 -0.971673 0.236331  0.089204 0.524908 0
lowpoly_plastic
0  -0.353352 -1.408642 -4.951377  0.000000 0.252149 0.967689  0.788000 0.985484 0
0  -0.386637 -1.373312 -4.960583  0.000000 0.252149 0.967689  0.787999 0.985484 0
0  -0.398757 -1.408642 -4.951377  0.000000 0.252149 0.967689  0.788000 0.985484 0
lowpoly_plastic
0  0.317595 -2.690207 -5.093397  0.000000 -0.236333 -0.971672  0.788709 0.985423 0
0  0.409438 -2.720249 -5.086090  0.000000 -0.236333 -0.971672  0.788720 0.985422 0
0  0.317595 -2.734326 -5.082666  0.000000 -0.236333 -0.971672  0.788709 0.985423 0
lowpoly_metal
0  0.376184 -1.403338 -4.953363  0.000000 0.972288 -0.233787  0.089002 0.524144 0
0  0.317595 0.058475 1.126123  0.000000 0.972288 -0.233787  0.089013 0.524954 0
0  0.376184 0.058475 1.126123  0.000000 0.972288 -0.233787  0.089002 0.524954 0
lowpoly_plastic
0  0.376184 -1.540225 -5.522653  0.000004 -0.233787 -0.972288  0.788450 0.985407 0
0  0.317595 -1.496078 -5.533268  0.000004 -0.233787 -0.972288  0.788461 0.985407 0
0  0.406971 -1.507776 -5.530455  0.000004 -0.233787 -0.972288  0.788450 0.985407 0
lowpoly_plastic
0  -0.353352 -1.403338 -4.953363  0.000000 0.233797 0.972285  0.788585 0.985483 0
0  -0.294762 -1.359192 -4.963978  0.000000 0.233797 0.972285  0.788574 0.985483 0
0  -0.386637 -1.373312 -4.960583  0.000000 0.233797 0.972285  0.788585 0.985483 0
lowpoly_plastic
0  0.011416 -2.734327 -5.082666  0.000002 -0.971673 0.236330  0.855621 0.984182 0
0  0.317595 -2.595746 -4.512891  0.000002 -0.971673 0.236330  0.855678 0.984257 0
0  0.011416 -2.595746 -4.512891  0.000002 -0.971673 0.236330  0.855621 0.984257 0
lowpoly_plastic
0  0.406971 -1.507776 -5.530455  0.156118 0.961186 -0.227484  0.855419 0.984167 0
0  0.317595 -1.359192 -4.963978  0.156118 0.961186 -0.227484  0.855430 0.984243 0
0  0.409468 -1.373311 -4.960583  0.156118 0.961186 -0.227484  0.855419 0.984243 0
lowpoly_plastic
0  0.011416 -1.496078 -5.533268  0.000000 0.972288 -0.233786  0.855486 0.984167 0
0  -0.294762 -1.359192 -4.963978  0.000000 0.972288 -0.233786  0.855543 0.984243 0
0  0.011416 -1.359192 -4.963978  0.000000 0.972288 -0.233786  0.855486 0.984243 0
lowpoly_plastic
0  -0.386604 -2.720251 -5.086090  -0.133624 -0.963793 0.230756  0.855554 0.984182 0
0  -0.294762 -2.595746 -4.512891  -0.133624 -0.963793 0.230756  0.855565 0.984257 0
0  -0.384164 -2.584033 -4.515741  -0.133624 -0.963793 0.230756  0.855554 0.984257 0
lowpoly_plastic
0  0.409438 -2.720249 -5.086090  0.984062 -0.171963 0.045280  0.855194 0.984187 0
0  0.421590 -2.507002 -4.540322  0.984062 -0.171963 0.045280  0.855203 0.984262 0
0  0.406998 -2.584032 -4.515741  0.984062 -0.171963 0.045280  0.855194 0.984263 0
lowpoly_plastic
0  0.421589 -1.542567 -5.521778  0.949038 0.306818 -0.072039  0.855418 0.984167 0
0  0.409468 -1.373311 -4.960583  0.949038 0.306818 -0.072039  0.855419 0.984244 0
0  0.421589 -1.408641 -4.951378  0.949038 0.306818 -0.072039  0.855418 0.984244 0
lowpoly_plastic
0  -0.294762 -1.496078 -5.533268  -0.156129 0.960365 -0.230919  0.855543 0.984167 0
0  -0.386637 -1.373312 -4.960583  -0.156129 0.960365 -0.230919  0.855554 0.984243 0
0  -0.294762 -1.359192 -4.963978  -0.156129 0.960365 -0.230919  0.855543 0.984243 0
lowpoly_plastic
0  0.317595 -1.496078 -5.533268  0.000000 0.972288 -0.233786  0.855430 0.984167 0
0  0.011416 -1.359192 -4.963978  0.000000 0.972288 -0.233786  0.855486 0.984243 0
0  0.317595 -1.359192 -4.963978  0.000000 0.972288 -0.233786  0.855430 0.984243 0
lowpoly_plastic
0  0.317595 -2.734326 -5.082666  0.133637 -0.962957 0.234211  0.855678 0.984182 0
0  0.406998 -2.584032 -4.515741  0.133637 -0.962957 0.234211  0.855689 0.984257 0
0  0.317595 -2.595746 -4.512891  0.133637 -0.962957 0.234211  0.855678 0.984257 0
lowpoly_plastic
0  -0.398757 -2.498243 -4.543602  -1.000000 -0.000000 0.000000  0.855182 0.984262 0
0  -0.398757 -2.230288 -5.265071  -1.000000 -0.000000 0.000000  0.855103 0.984179 0
0  -0.398757 -2.636743 -5.113353  -1.000000 -0.000000 0.000000  0.855182 0.984186 0
lowpoly_plastic
0  -0.398757 -1.536246 -4.903623  -1.000000 0.000000 0.000000  0.854994 0.984245 0
0  -0.398757 -1.542568 -5.521780  -1.000000 0.000000 0.000000  0.854968 0.984167 0
0  -0.398757 -1.620053 -5.492855  -1.000000 0.000000 0.000000  0.854983 0.984168 0
lowpoly_plastic
0  0.421589 -1.536246 -4.903623  1.000000 0.000001 -0.000000  0.855393 0.984245 0
0  0.421590 -2.261150 -5.253553  1.000000 0.000001 -0.000000  0.855278 0.984179 0
0  0.421589 -1.620053 -5.492855  1.000000 0.000001 -0.000000  0.855403 0.984168 0
lowpoly_plastic
0  -0.398757 -1.408642 -4.951377  -0.926052 0.367406 -0.086264  0.854969 0.984244 0
0  -0.384149 -1.507785 -5.530453  -0.926052 0.367406 -0.086264  0.854968 0.984167 0
0  -0.398757 -1.542568 -5.521780  -0.926052 0.367406 -0.086264  0.854968 0.984167 0
lowpoly_plastic
0  0.421589 -1.408641 -4.951378  1.000000 0.000000 0.000000  0.855418 0.984244 0
0  0.421589 -1.620053 -5.492855  1.000000 0.000000 0.000000  0.855403 0.984168 0
0  0.421589 -1.542567 -5.521778  1.000000 0.000000 0.000000  0.855418 0.984167 0
lowpoly_plastic
0  -0.398757 -2.092397 -4.695486  -1.000000 0.000000 0.000000  0.855103 0.984255 0
0  -0.398757 -1.620053 -5.492855  -1.000000 0.000000 0.000000  0.854983 0.984168 0
0  -0.398757 -2.230288 -5.265071  -1.000000 0.000000 0.000000  0.855103 0.984179 0
lowpoly_plastic
0  0.421590 -2.156622 -4.671450  1.000000 -0.000000 0.000000  0.855271 0.984256 0
0  0.421590 -2.641131 -5.111717  1.000000 -0.000000 0.000000  0.855203 0.984186 0
0  0.421590 -2.261150 -5.253553  1.000000 -0.000000 0.000000  0.855278 0.984179 0
lowpoly_plastic
0  0.011416 -2.595746 -4.512891  0.000000 -0.971673 0.236331  0.855621 0.984257 0
0  -0.294762 -2.734327 -5.082666  0.000000 -0.971673 0.236331  0.855565 0.984182 0
0  0.011416 -2.734327 -5.082666  0.000000 -0.971673 0.236331  0.855621 0.984182 0
lowpoly_plastic
0  -0.384164 -2.584033 -4.515741  -0.990541 -0.132443 0.035869  0.855193 0.984263 0
0  -0.398757 -2.636743 -5.113353  -0.990541 -0.132443 0.035869  0.855182 0.984186 0
0  -0.386604 -2.720251 -5.086090  -0.990541 -0.132443 0.035869  0.855193 0.984187 0
lowpoly_plastic
0  -0.353352 -2.498243 -4.543602  0.000000 0.350500 0.936563  0.788214 0.985502 0
0  -0.398757 -2.092397 -4.695486  0.000000 0.350500 0.936563  0.788134 0.985496 0
0  -0.398757 -2.498243 -4.543602  0.000000 0.350500 0.936563  0.788214 0.985502 0
lowpoly_plastic
0  0.317595 -1.403339 -4.953363  0.000004 0.233791 0.972287  0.788461 0.985483 0
0  0.409468 -1.373311 -4.960583  0.000004 0.233791 0.972287  0.788450 0.985483 0
0  0.317595 -1.359192 -4.963978  0.000004 0.233791 0.972287  0.788461 0.985483 0
lowpoly_plastic
0  -0.294762 -1.540225 -5.522653  0.000000 -0.233791 -0.972287  0.788574 0.985407 0
0  -0.384149 -1.507785 -5.530453  0.000000 -0.233791 -0.972287  0.788585 0.985407 0
0  -0.294762 -1.496078 -5.533268  0.000000 -0.233791 -0.972287  0.788574 0.985407 0
lowpoly_plastic
0  -0.294762 -2.551627 -4.523622  -0.000009 0.236333 0.971672  0.788596 0.985497 0
0  -0.384164 -2.584033 -4.515741  -0.000009 0.236333 0.971672  0.788585 0.985497 0
0  -0.294762 -2.595746 -4.512891  -0.000009 0.236333 0.971672  0.788596 0.985497 0
lowpoly_plastic
0  0.011416 -2.551627 -4.523622  0.000000 0.236334 0.971672  0.788653 0.985497 0
0  -0.294762 -2.595746 -4.512891  0.000000 0.236334 0.971672  0.788596 0.985497 0
0  0.011416 -2.595746 -4.512891  0.000000 0.236334 0.971672  0.788653 0.985497 0
lowpoly_plastic
0  -0.353352 -2.636743 -5.113353  0.000000 -0.310360 -0.950619  0.788214 0.985426 0
0  -0.386604 -2.720251 -5.086090  0.000000 -0.310360 -0.950619  0.788224 0.985427 0
0  -0.398757 -2.636743 -5.113353  0.000000 -0.310360 -0.950619  0.788214 0.985426 0
lowpoly_plastic
0  -0.353352 -1.536246 -4.903623  0.000000 0.350497 0.936564  0.788025 0.985486 0
0  -0.398757 -1.408642 -4.951377  0.000000 0.350497 0.936564  0.788000 0.985484 0
0  -0.398757 -1.536246 -4.903623  0.000000 0.350497 0.936564  0.788025 0.985486 0
lowpoly_plastic
0  -0.353352 -2.551628 -4.523622  -0.069282 0.297455 0.952219  0.788224 0.985503 0
0  -0.398757 -2.498243 -4.543602  -0.069282 0.297455 0.952219  0.788214 0.985502 0
0  -0.384164 -2.584033 -4.515741  -0.069282 0.297455 0.952219  0.788224 0.985503 0
lowpoly_plastic
0  -0.294762 -2.690208 -5.093397  0.000000 -0.236332 -0.971672  0.788596 0.985423 0
0  0.011416 -2.734327 -5.082666  0.000000 -0.236332 -0.971672  0.788653 0.985422 0
0  -0.294762 -2.734327 -5.082666  0.000000 -0.236332 -0.971672  0.788596 0.985423 0
lowpoly_plastic
0  0.376184 -2.507002 -4.540322  0.000000 0.304009 0.952669  0.788234 0.985502 0
0  0.406998 -2.584032 -4.515741  0.000000 0.304009 0.952669  0.788225 0.985503 0
0  0.421590 -2.507002 -4.540322  0.000000 0.304009 0.952669  0.788234 0.985502 0
lowpoly_plastic
0  0.011416 -2.690208 -5.093397  0.000001 -0.236332 -0.971672  0.788653 0.985422 0
0  0.317595 -2.734326 -5.082666  0.000001 -0.236332 -0.971672  0.788709 0.985423 0
0  0.011416 -2.734327 -5.082666  0.000001 -0.236332 -0.971672  0.788653 0.985422 0
lowpoly_plastic
0  -0.353352 -1.620053 -5.492855  0.000000 -0.349703 -0.936861  0.788015 0.985409 0
0  -0.398757 -2.230288 -5.265071  0.000000 -0.349703 -0.936861  0.788134 0.985419 0
0  -0.398757 -1.620053 -5.492855  0.000000 -0.349703 -0.936861  0.788015 0.985409 0
lowpoly_plastic
0  0.376184 -1.403338 -4.953363  -0.013405 0.247787 0.968722  0.788450 0.985484 0
0  0.421589 -1.408641 -4.951378  -0.013405 0.247787 0.968722  0.788449 0.985484 0
0  0.409468 -1.373311 -4.960583  -0.013405 0.247787 0.968722  0.788450 0.985484 0
lowpoly_plastic
0  -0.353352 -2.230288 -5.265071  0.000000 -0.349703 -0.936860  0.788134 0.985419 0
0  -0.398757 -2.636743 -5.113353  0.000000 -0.349703 -0.936860  0.788214 0.985426 0
0  -0.398757 -2.230288 -5.265071  0.000000 -0.349703 -0.936860  0.788134 0.985419 0
lowpoly_plastic
0  0.376184 -2.641131 -5.111717  0.000000 -0.349703 -0.936860  0.788235 0.985426 0
0  0.421590 -2.261150 -5.253553  0.000000 -0.349703 -0.936860  0.788309 0.985420 0
0  0.421590 -2.641131 -5.111717  0.000000 -0.349703 -0.936860  0.788235 0.985426 0
lowpoly_plastic
0  0.376184 -1.536246 -4.903623  0.000000 0.350504 0.936561  0.788424 0.985486 0
0  0.421590 -2.156622 -4.671450  0.000000 0.350504 0.936561  0.788303 0.985496 0
0  0.421589 -1.536246 -4.903623  0.000000 0.350504 0.936561  0.788424 0.985486 0
lowpoly_plastic
0  -0.353352 -1.542568 -5.521780  0.000000 -0.349724 -0.936853  0.788000 0.985408 0
0  -0.398757 -1.620053 -5.492855  0.000000 -0.349724 -0.936853  0.788015 0.985409 0
0  -0.398757 -1.542568 -5.521780  0.000000 -0.349724 -0.936853  0.788000 0.985408 0
lowpoly_plastic
0  0.317595 -1.540225 -5.522653  0.000000 -0.233791 -0.972287  0.788461 0.985407 0
0  0.011416 -1.496078 -5.533268  0.000000 -0.233791 -0.972287  0.788518 0.985407 0
0  0.317595 -1.496078 -5.533268  0.000000 -0.233791 -0.972287  0.788461 0.985407 0
lowpoly_plastic
0  0.419204 -1.626347 -6.032816  0.000000 -0.233730 -0.972302  0.081953 0.624999 0
0  0.419205 -2.725614 -5.768566  0.000000 -0.233730 -0.972302  0.081953 0.624791 0
0  -0.396372 -2.725614 -5.768566  0.000000 -0.233730 -0.972302  0.082104 0.624791 0
lowpoly_metal
0  0.011416 -2.357804 -5.791799  0.000000 -0.247514 -0.968884  0.089637 0.525668 0
0  0.011416 -2.775712 -5.685039  0.000000 -0.247514 -0.968884  0.089637 0.525588 0
0  -0.294762 -2.775712 -5.685039  0.000000 -0.247514 -0.968884  0.089693 0.525588 0
lowpoly_metal
0  -0.205370 0.361939 2.394184  0.000000 0.972539 -0.232742  0.089109 0.525192 0
0  0.011416 0.361939 2.394184  0.000000 0.972539 -0.232742  0.089069 0.525192 0
0  0.011416 0.058475 1.126123  0.000000 0.972539 -0.232742  0.089069 0.524954 0
lowpoly_metal
0  0.179045 0.365068 2.528771  0.005847 0.999966 -0.005794  0.089038 0.525217 0
0  0.117857 0.365672 2.571130  0.005847 0.999966 -0.005794  0.089050 0.525225 0
0  0.147057 0.365672 2.600597  0.005847 0.999966 -0.005794  0.089044 0.525230 0
lowpoly_metal
0  0.011416 -2.830691 -5.670994  -0.000003 -0.247525 -0.968881  0.089637 0.525578 0
0  -0.294762 -2.830691 -5.670993  -0.000003 -0.247525 -0.968881  0.089693 0.525578 0
0  -0.294762 -2.775712 -5.685039  -0.000003 -0.247525 -0.968881  0.089693 0.525588 0
lowpoly_plastic
0  0.419205 -2.702596 -5.642225  0.000000 0.233729 0.972302  0.082255 0.624791 0
0  0.419204 -1.603329 -5.906475  0.000000 0.233729 0.972302  0.082255 0.624995 0
0  -0.396372 -1.603329 -5.906475  0.000000 0.233729 0.972302  0.082104 0.624995 0
lowpoly_plastic
0  -0.396372 -2.725614 -5.768566  -1.000000 0.000000 0.000000  0.081497 0.624348 0
0  -0.396372 -2.702596 -5.642225  -1.000000 0.000000 0.000000  0.081521 0.624347 0
0  -0.396372 -1.603329 -5.906475  -1.000000 0.000000 0.000000  0.081521 0.624556 0
lowpoly_metal
0  -0.246854 0.322042 2.394705  -0.996513 0.001092 0.083431  0.088558 0.525205 0
0  -0.246854 0.361939 2.394183  -0.996513 0.001092 0.083431  0.088551 0.525207 0
0  -0.353352 0.058475 1.126123  -0.996513 0.001092 0.083431  0.088551 0.524966 0
lowpoly_plastic
0  0.419204 -1.603329 -5.906475  1.000000 -0.000000 -0.000002  0.081473 0.624556 0
0  0.419205 -2.702596 -5.642225  1.000000 -0.000000 -0.000002  0.081473 0.624347 0
0  0.419205 -2.725614 -5.768566  1.000000 -0.000000 -0.000002  0.081497 0.624348 0
lowpoly_metal
0  0.317595 -1.648510 -5.972999  0.000000 -0.247509 -0.968886  0.089580 0.525802 0
0  0.317594 -1.686947 -5.963180  0.000000 -0.247509 -0.968886  0.089580 0.525795 0
0  0.011416 -1.686947 -5.963180  0.000000 -0.247509 -0.968886  0.089637 0.525795 0
lowpoly_metal
0  0.317595 -2.357804 -5.791799  0.000002 -0.247514 -0.968884  0.089580 0.525668 0
0  0.317595 -2.775712 -5.685039  0.000002 -0.247514 -0.968884  0.089580 0.525588 0
0  0.011416 -2.775712 -5.685039  0.000002 -0.247514 -0.968884  0.089637 0.525588 0
lowpoly_metal
0  0.011416 0.014128 1.137426  0.000000 -0.967741 0.251945  0.088902 0.525414 0
0  -0.309274 0.014128 1.137426  0.000000 -0.967741 0.251945  0.088842 0.525414 0
0  -0.309274 -0.235573 0.178306  0.000000 -0.967741 0.251945  0.088842 0.525234 0
lowpoly_metal
0  0.317595 -2.830691 -5.670993  0.000003 -0.971673 0.236331  0.089261 0.524009 0
0  0.376185 -2.830691 -5.670994  0.000003 -0.971673 0.236331  0.089272 0.524009 0
0  0.376185 -2.690207 -5.093397  0.000003 -0.971673 0.236331  0.089272 0.524084 0
lowpoly_plastic
0  -0.396372 -1.603329 -5.906475  0.000000 0.983806 -0.179237  0.081227 0.624771 0
0  0.419204 -1.603329 -5.906475  0.000000 0.983806 -0.179237  0.081227 0.624620 0
0  0.419204 -1.626347 -6.032816  0.000000 0.983806 -0.179237  0.081250 0.624620 0
lowpoly_metal
0  0.146687 0.325774 2.600964  -0.710264 0.013069 0.703814  0.089200 0.525263 0
0  0.147057 0.365672 2.600597  -0.710264 0.013069 0.703814  0.089200 0.525270 0
0  0.117857 0.365672 2.571130  -0.710264 0.013069 0.703814  0.089195 0.525271 0
lowpoly_metal
0  -0.309274 -1.116021 1.152198  0.000000 0.967741 -0.251945  0.088842 0.525415 0
0  0.011416 -1.116021 1.152198  0.000000 0.967741 -0.251945  0.088783 0.525415 0
0  0.011416 -1.365721 0.193079  0.000000 0.967741 -0.251945  0.088783 0.525234 0
lowpoly_metal
0  0.317594 -1.686947 -5.963180  0.000000 -0.247514 -0.968884  0.089580 0.525795 0
0  0.376184 -1.686947 -5.963180  0.000000 -0.247514 -0.968884  0.089569 0.525795 0
0  0.376184 -2.357804 -5.791801  0.000000 -0.247514 -0.968884  0.089569 0.525668 0
lowpoly_metal
0  0.317595 -1.648510 -5.972999  0.000000 0.972288 -0.233787  0.089013 0.524009 0
0  0.317595 -1.540225 -5.522653  0.000000 0.972288 -0.233787  0.089013 0.524068 0
0  0.376184 -1.540225 -5.522653  0.000000 0.972288 -0.233787  0.089002 0.524068 0
lowpoly_metal
0  -0.205370 -0.374314 2.403807  0.000000 0.013071 0.999915  0.090096 0.525829 0
0  -0.246854 -0.374314 2.403807  0.000000 0.013071 0.999915  0.090096 0.525837 0
0  -0.246854 -0.808107 2.409477  0.000000 0.013071 0.999915  0.090016 0.525837 0
lowpoly_metal
0  0.332107 -1.116021 1.152198  0.000000 0.967741 -0.251945  0.088724 0.525415 0
0  0.332106 -1.365721 0.193079  0.000000 0.967741 -0.251945  0.088724 0.525234 0
0  0.011416 -1.365721 0.193079  0.000000 0.967741 -0.251945  0.088783 0.525234 0
lowpoly_metal
0  -0.294762 -2.830691 -5.670993  0.000008 -0.971673 0.236331  0.089147 0.524009 0
0  -0.294762 -2.690208 -5.093397  0.000008 -0.971673 0.236331  0.089147 0.524084 0
0  -0.353352 -2.690208 -5.093397  0.000008 -0.971673 0.236331  0.089137 0.524084 0
lowpoly_metal
0  0.317595 -1.648510 -5.972999  0.000000 -0.247510 -0.968885  0.089580 0.525802 0
0  0.376184 -1.648510 -5.972999  0.000000 -0.247510 -0.968885  0.089569 0.525802 0
0  0.376184 -1.686947 -5.963180  0.000000 -0.247510 -0.968885  0.089569 0.525795 0
lowpoly_metal
0  0.011416 -0.931928 0.187408  0.000000 0.013070 0.999915  0.090261 0.524943 0
0  -0.309274 -0.931928 0.187408  0.000000 0.013070 0.999915  0.090202 0.524943 0
0  -0.309274 -1.365721 0.193079  0.000000 0.013070 0.999915  0.090202 0.524863 0
lowpoly_metal
0  0.317595 0.058475 1.126123  0.000000 0.972539 -0.232742  0.089013 0.524954 0
0  0.228202 0.361939 2.394183  0.000000 0.972539 -0.232742  0.089029 0.525192 0
0  0.269686 0.361939 2.394183  0.000000 0.972539 -0.232742  0.089021 0.525192 0
lowpoly_metal
0  0.011416 -1.648510 -5.972999  0.000000 0.972288 -0.233787  0.089069 0.524009 0
0  0.011416 -1.540225 -5.522653  0.000000 0.972288 -0.233787  0.089069 0.524068 0
0  0.317595 -1.540225 -5.522653  0.000000 0.972288 -0.233787  0.089013 0.524068 0
lowpoly_metal
0  0.011416 -2.357804 -5.791799  0.000000 -0.247515 -0.968884  0.089637 0.525668 0
0  -0.294762 -2.357804 -5.791799  0.000000 -0.247515 -0.968884  0.089693 0.525668 0
0  -0.294762 -1.686947 -5.963179  0.000000 -0.247515 -0.968884  0.089693 0.525795 0
lowpoly_metal
0  0.212505 -0.371185 2.555114  -0.009257 -0.999763 0.019715  0.088991 0.525701 0
0  0.174955 -0.371185 2.537482  -0.009257 -0.999763 0.019715  0.088983 0.525702 0
0  0.228202 -0.374314 2.403807  -0.009257 -0.999763 0.019715  0.088978 0.525676 0
lowpoly_metal
0  0.317595 -1.159598 1.199706  0.000002 -0.971673 0.236330  0.089261 0.524908 0
0  0.376184 -1.159598 1.199705  0.000002 -0.971673 0.236330  0.089272 0.524908 0
0  0.269686 -0.865176 2.410223  0.000002 -0.971673 0.236330  0.089252 0.525134 0
lowpoly_metal
0  0.376184 0.058475 1.126123  0.996513 0.001096 0.083430  0.089002 0.524966 0
0  0.269686 0.361939 2.394183  0.996513 0.001096 0.083430  0.089002 0.525207 0
0  0.269686 0.322042 2.394705  0.996513 0.001096 0.083430  0.088994 0.525205 0
lowpoly_metal
0  0.228202 -0.865176 2.410223  0.000000 0.013075 0.999915  0.090006 0.525749 0
0  0.228202 -0.808107 2.409477  0.000000 0.013075 0.999915  0.090016 0.525749 0
0  0.011416 -0.808107 2.409477  0.000000 0.013075 0.999915  0.090016 0.525789 0
lowpoly_metal
0  -0.152123 -0.371185 2.537482  0.567343 -0.006591 -0.823455  0.090196 0.524381 0
0  -0.155992 0.325171 2.529243  0.567343 -0.006591 -0.823455  0.090195 0.524509 0
0  -0.094656 0.325774 2.571497  0.567343 -0.006591 -0.823455  0.090184 0.524508 0
lowpoly_metal
0  -0.353352 -1.102950 1.196283  -1.000000 -0.000001 0.000000  0.088763 0.524928 0
0  -0.353352 -0.672353 1.170271  -1.000000 -0.000001 0.000000  0.088684 0.524942 0
0  -0.353352 -2.092397 -4.695486  -1.000000 -0.000001 0.000000  0.088686 0.524157 0
lowpoly_metal
0  0.011416 0.058475 1.126123  -0.000000 0.972539 -0.232742  0.089069 0.524954 0
0  0.011416 0.361939 2.394184  -0.000000 0.972539 -0.232742  0.089069 0.525192 0
0  0.228202 0.361939 2.394183  -0.000000 0.972539 -0.232742  0.089029 0.525192 0
lowpoly_metal
0  0.011416 0.322042 2.394705  0.000000 0.013074 0.999915  0.089137 0.525174 0
0  0.011416 0.361939 2.394184  0.000000 0.013074 0.999915  0.089144 0.525174 0
0  -0.205370 0.361939 2.394184  0.000000 0.013074 0.999915  0.089144 0.525215 0
lowpoly_metal
0  -0.309274 -0.682228 1.146528  0.996624 -0.001073 -0.082100  0.089957 0.524735 0
0  -0.309274 0.014128 1.137426  0.996624 -0.001073 -0.082100  0.090082 0.524765 0
0  -0.205370 -0.374314 2.403807  0.996624 -0.001073 -0.082100  0.089955 0.524975 0
lowpoly_metal
0  0.228202 -0.808107 2.409477  0.000000 0.013071 0.999915  0.090016 0.525749 0
0  0.269686 -0.808107 2.409477  0.000000 0.013071 0.999915  0.090016 0.525741 0
0  0.269686 -0.374314 2.403807  0.000000 0.013071 0.999915  0.090096 0.525741 0
lowpoly_metal
0  0.376184 0.018871 1.128515  1.000000 0.000000 -0.000000  0.088995 0.524964 0
0  0.376184 -0.672353 1.170271  1.000000 0.000000 -0.000000  0.088868 0.524942 0
0  0.376184 -1.536246 -4.903623  1.000000 0.000000 -0.000000  0.088976 0.524147 0
lowpoly_metal
0  0.011416 -1.648510 -5.972999  -0.000002 -0.247511 -0.968885  0.089637 0.525802 0
0  0.011416 -1.686947 -5.963180  -0.000002 -0.247511 -0.968885  0.089637 0.525795 0
0  -0.294762 -1.686947 -5.963179  -0.000002 -0.247511 -0.968885  0.089693 0.525795 0
lowpoly_metal
0  -0.294762 -1.648510 -5.972999  0.000013 -0.247533 -0.968880  0.089693 0.525802 0
0  -0.294762 -1.686947 -5.963179  0.000013 -0.247533 -0.968880  0.089693 0.525795 0
0  -0.353352 -1.686947 -5.963180  0.000013 -0.247533 -0.968880  0.089704 0.525795 0
lowpoly_metal
0  -0.294763 -1.159598 1.199706  0.000000 -0.971673 0.236330  0.089147 0.524908 0
0  -0.205370 -0.865176 2.410223  0.000000 -0.971673 0.236330  0.089164 0.525134 0
0  -0.246854 -0.865176 2.410223  0.000000 -0.971673 0.236330  0.089156 0.525134 0
lowpoly_metal
0  0.228202 0.322042 2.394705  0.000002 0.013074 0.999914  0.089137 0.525134 0
0  0.228202 0.361939 2.394183  0.000002 0.013074 0.999914  0.089144 0.525134 0
0  0.011416 0.361939 2.394184  0.000002 0.013074 0.999914  0.089144 0.525174 0
lowpoly_metal
0  0.140221 -0.370582 2.607371  -0.710264 0.013070 0.703814  0.089200 0.525134 0
0  0.146687 0.325774 2.600964  -0.710264 0.013070 0.703814  0.089200 0.525263 0
0  0.117487 0.325774 2.571497  -0.710264 0.013070 0.703814  0.089195 0.525263 0
lowpoly_metal
0  0.228202 -0.808107 2.409477  0.000000 0.971296 -0.237875  0.088743 0.525651 0
0  0.332107 -1.116021 1.152198  0.000000 0.971296 -0.237875  0.088724 0.525415 0
0  0.011416 -1.116021 1.152198  0.000000 0.971296 -0.237875  0.088783 0.525415 0
lowpoly_metal
0  0.332106 0.014128 1.137426  -0.996623 -0.001074 -0.082100  0.089942 0.524240 0
0  0.332107 -0.682228 1.146529  -0.996623 -0.001074 -0.082100  0.090068 0.524210 0
0  0.228202 -0.808107 2.409477  -0.996623 -0.001074 -0.082100  0.090147 0.524431 0
lowpoly_metal
0  0.332107 -0.931928 0.187408  -1.000000 0.000001 0.000000  0.090069 0.524027 0
0  0.332106 -1.365721 0.193079  -1.000000 0.000001 0.000000  0.090147 0.524009 0
0  0.332107 -1.116021 1.152198  -1.000000 0.000001 0.000000  0.090146 0.524192 0
lowpoly_metal
0  0.011416 0.014128 1.137426  0.000002 -0.971296 0.237875  0.088902 0.525414 0
0  0.332106 0.014128 1.137426  0.000002 -0.971296 0.237875  0.088961 0.525414 0
0  0.228202 0.322042 2.394705  0.000002 -0.971296 0.237875  0.088942 0.525649 0
lowpoly_plastic
0  0.419205 -2.725614 -5.768566  0.000000 -0.983805 0.179240  0.082396 0.623593 0
0  0.419205 -2.702596 -5.642225  0.000000 -0.983805 0.179240  0.082420 0.623593 0
0  -0.396372 -2.702596 -5.642225  0.000000 -0.983805 0.179240  0.082420 0.623743 0
lowpoly_metal
0  0.317595 -2.830691 -5.670993  0.000001 -0.971673 0.236331  0.089261 0.524009 0
0  0.317595 -2.690207 -5.093397  0.000001 -0.971673 0.236331  0.089261 0.524084 0
0  0.011416 -2.690208 -5.093397  0.000001 -0.971673 0.236331  0.089204 0.524084 0
lowpoly_metal
0  0.332106 -0.235573 0.178306  -1.000000 -0.000000 0.000000  0.089944 0.524057 0
0  0.332107 -0.931928 0.187408  -1.000000 -0.000000 0.000000  0.090069 0.524027 0
0  0.332107 -0.682228 1.146529  -1.000000 -0.000000 0.000000  0.090068 0.524210 0
lowpoly_metal
0  0.269686 -0.865176 2.410223  0.000000 0.013075 0.999915  0.090006 0.525741 0
0  0.269686 -0.808107 2.409477  0.000000 0.013075 0.999915  0.090016 0.525741 0
0  0.228202 -0.808107 2.409477  0.000000 0.013075 0.999915  0.090016 0.525749 0
lowpoly_metal
0  0.269686 -0.808107 2.409477  0.996193 0.001136 0.087173  0.088790 0.525159 0
0  0.269686 -0.865176 2.410223  0.996193 0.001136 0.087173  0.088780 0.525157 0
0  0.376185 -1.102950 1.196283  0.996193 0.001136 0.087173  0.088790 0.524928 0
lowpoly_metal
0  0.376184 -0.672353 1.170271  1.000000 0.000001 -0.000000  0.088868 0.524942 0
0  0.376185 -1.102950 1.196283  1.000000 0.000001 -0.000000  0.088790 0.524928 0
0  0.376184 -2.156622 -4.671450  1.000000 0.000001 -0.000000  0.088854 0.524158 0
lowpoly_metal
0  -0.152123 -0.371185 2.537482  0.005794 -0.999967 0.005757  0.088715 0.525682 0
0  -0.088190 -0.370582 2.577903  0.005794 -0.999967 0.005757  0.088721 0.525694 0
0  -0.117389 -0.370581 2.607371  0.005794 -0.999967 0.005757  0.088713 0.525696 0
lowpoly_metal
0  0.174955 -0.371185 2.537482  -0.534413 -0.002814 -0.845218  0.089194 0.525519 0
0  0.111022 -0.370582 2.577903  -0.534413 -0.002814 -0.845218  0.089205 0.525518 0
0  0.117487 0.325774 2.571497  -0.534413 -0.002814 -0.845218  0.089205 0.525645 0
lowpoly_metal
0  0.269686 0.361939 2.394183  0.944210 -0.001356 0.329343  0.089002 0.525207 0
0  0.216595 0.365068 2.546403  0.944210 -0.001356 0.329343  0.088995 0.525234 0
0  0.216373 0.325171 2.546875  0.944210 -0.001356 0.329343  0.088988 0.525232 0
lowpoly_metal
0  -0.189673 -0.371185 2.555114  -0.585882 0.002017 0.810394  0.088961 0.525423 0
0  -0.117389 -0.370581 2.607371  -0.585882 0.002017 0.810394  0.088974 0.525423 0
0  -0.123855 0.325774 2.600964  -0.585882 0.002017 0.810394  0.088974 0.525551 0
lowpoly_metal
0  0.269686 0.322042 2.394705  0.943747 -0.001330 0.330666  0.088994 0.525205 0
0  0.216373 0.325171 2.546875  0.943747 -0.001330 0.330666  0.088988 0.525232 0
0  0.212505 -0.371185 2.555114  0.943747 -0.001330 0.330666  0.088863 0.525204 0
lowpoly_metal
0  -0.094656 0.325774 2.571497  0.710267 0.013071 0.703811  0.089211 0.525647 0
0  -0.123855 0.325774 2.600964  0.710267 0.013071 0.703811  0.089205 0.525646 0
0  -0.117389 -0.370581 2.607371  0.710267 0.013071 0.703811  0.089205 0.525518 0
lowpoly_metal
0  0.146687 0.325774 2.600964  0.585880 0.002016 0.810395  0.090171 0.524509 0
0  0.140221 -0.370582 2.607371  0.585880 0.002016 0.810395  0.090171 0.524380 0
0  0.212505 -0.371185 2.555114  0.585880 0.002016 0.810395  0.090184 0.524380 0
lowpoly_metal
0  0.140221 -0.370582 2.607371  -0.005801 -0.999967 0.005747  0.088985 0.525716 0
0  0.111022 -0.370582 2.577903  -0.005801 -0.999967 0.005747  0.088978 0.525715 0
0  0.174955 -0.371185 2.537482  -0.005801 -0.999967 0.005747  0.088983 0.525702 0
lowpoly_metal
0  0.178823 0.325171 2.529243  -0.567321 -0.002313 -0.823493  0.089194 0.525646 0
0  0.117487 0.325774 2.571497  -0.567321 -0.002313 -0.823493  0.089205 0.525645 0
0  0.117857 0.365672 2.571130  -0.567321 -0.002313 -0.823493  0.089205 0.525653 0
lowpoly_metal
0  -0.246854 0.361939 2.394183  -0.943776 0.004326 0.330558  0.088551 0.525207 0
0  -0.246854 0.322042 2.394705  -0.943776 0.004326 0.330558  0.088558 0.525205 0
0  -0.193542 0.325171 2.546875  -0.943776 0.004326 0.330558  0.088564 0.525232 0
lowpoly_metal
0  0.376185 -1.102950 1.196283  1.000000 -0.000004 0.000001  0.088790 0.524928 0
0  0.376184 -1.159598 1.199705  1.000000 -0.000004 0.000001  0.088780 0.524926 0
0  0.376184 -2.507002 -4.540322  1.000000 -0.000004 0.000001  0.088786 0.524164 0
lowpoly_metal
0  -0.205370 0.361939 2.394184  0.000000 0.999789 -0.020551  0.089109 0.525192 0
0  -0.246854 0.361939 2.394183  0.000000 0.999789 -0.020551  0.089117 0.525192 0
0  -0.193763 0.365068 2.546403  0.000000 0.999789 -0.020551  0.089107 0.525220 0
lowpoly_metal
0  -0.353352 -1.159598 1.199706  -1.000000 0.000004 -0.000001  0.088773 0.524926 0
0  -0.353352 -1.102950 1.196283  -1.000000 0.000004 -0.000001  0.088763 0.524928 0
0  -0.353352 -2.498243 -4.543602  -1.000000 0.000004 -0.000001  0.088765 0.524164 0
lowpoly_metal
0  0.376184 0.018871 1.128515  0.996503 0.001092 0.083554  0.088995 0.524964 0
0  0.269686 0.322042 2.394705  0.996503 0.001092 0.083554  0.088994 0.525205 0
0  0.269686 -0.374314 2.403807  0.996503 0.001092 0.083554  0.088869 0.525177 0
lowpoly_metal
0  -0.294762 -2.830691 -5.670993  0.000018 -0.247508 -0.968886  0.089693 0.525578 0
0  -0.353352 -2.830692 -5.670994  0.000018 -0.247508 -0.968886  0.089704 0.525578 0
0  -0.353352 -2.775712 -5.685039  0.000018 -0.247508 -0.968886  0.089704 0.525588 0
lowpoly_metal
0  -0.205370 0.322042 2.394705  0.938758 0.001139 -0.344575  0.090081 0.525004 0
0  -0.155992 0.325171 2.529243  0.938758 0.001139 -0.344575  0.090075 0.525029 0
0  -0.152123 -0.371185 2.537482  0.938758 0.001139 -0.344575  0.089950 0.524999 0
lowpoly_metal
0  -0.353352 -0.672353 1.170271  -1.000000 -0.000000 -0.000000  0.088684 0.524942 0
0  -0.353353 0.018871 1.128515  -1.000000 -0.000000 -0.000000  0.088558 0.524964 0
0  -0.353352 -1.408642 -4.951377  -1.000000 -0.000000 -0.000000  0.088552 0.524146 0
lowpoly_metal
0  0.011416 -1.159598 1.199705  -0.000000 -0.971673 0.236330  0.089204 0.524908 0
0  0.317595 -1.159598 1.199706  -0.000000 -0.971673 0.236330  0.089261 0.524908 0
0  0.228202 -0.865176 2.410223  -0.000000 -0.971673 0.236330  0.089244 0.525134 0
lowpoly_metal
0  -0.246854 -0.374314 2.403807  -0.996503 0.001092 0.083554  0.088684 0.525177 0
0  -0.246854 0.322042 2.394705  -0.996503 0.001092 0.083554  0.088558 0.525205 0
0  -0.353353 0.018871 1.128515  -0.996503 0.001092 0.083554  0.088558 0.524964 0
lowpoly_metal
0  -0.205370 -0.865176 2.410223  0.000000 0.013067 0.999915  0.090006 0.525829 0
0  -0.205370 -0.808107 2.409477  0.000000 0.013067 0.999915  0.090016 0.525829 0
0  -0.246854 -0.808107 2.409477  0.000000 0.013067 0.999915  0.090016 0.525837 0
lowpoly_metal
0  0.376184 -2.775712 -5.685040  1.000000 0.000005 -0.000001  0.088787 0.524012 0
0  0.376184 -2.641131 -5.111717  1.000000 0.000005 -0.000001  0.088786 0.524088 0
0  0.376185 -2.690207 -5.093397  1.000000 0.000005 -0.000001  0.088777 0.524089 0
lowpoly_metal
0  0.011416 -0.865176 2.410223  0.000000 0.013075 0.999915  0.090006 0.525789 0
0  0.011416 -0.808107 2.409477  0.000000 0.013075 0.999915  0.090016 0.525789 0
0  -0.205370 -0.808107 2.409477  0.000000 0.013075 0.999915  0.090016 0.525829 0
lowpoly_metal
0  -0.246854 0.361939 2.394183  0.000002 0.972539 -0.232742  0.089117 0.525192 0
0  -0.205370 0.361939 2.394184  0.000002 0.972539 -0.232742  0.089109 0.525192 0
0  -0.294763 0.058475 1.126123  0.000002 0.972539 -0.232742  0.089126 0.524954 0
lowpoly_metal
0  -0.353352 -1.648510 -5.972999  0.000000 0.972288 -0.233787  0.089137 0.524009 0
0  -0.353352 -1.540225 -5.522653  0.000000 0.972288 -0.233787  0.089137 0.524068 0
0  -0.294762 -1.540225 -5.522653  0.000000 0.972288 -0.233787  0.089126 0.524068 0
lowpoly_metal
0  0.011416 -1.159598 1.199705  -0.000000 -0.971673 0.236330  0.089204 0.524908 0
0  0.011416 -0.865176 2.410223  -0.000000 -0.971673 0.236330  0.089204 0.525134 0
0  -0.205370 -0.865176 2.410223  -0.000000 -0.971673 0.236330  0.089164 0.525134 0
lowpoly_metal
0  0.228202 0.361939 2.394183  0.009317 0.999760 -0.019840  0.089029 0.525192 0
0  0.179045 0.365068 2.528771  0.009317 0.999760 -0.019840  0.089038 0.525217 0
0  0.216595 0.365068 2.546403  0.009317 0.999760 -0.019840  0.089031 0.525220 0
lowpoly_metal
0  -0.205370 0.322042 2.394705  0.000000 -0.971296 0.237875  0.088861 0.525649 0
0  -0.309274 0.014128 1.137426  0.000000 -0.971296 0.237875  0.088842 0.525414 0
0  0.011416 0.014128 1.137426  0.000000 -0.971296 0.237875  0.088902 0.525414 0
lowpoly_metal
0  -0.205370 -0.808107 2.409477  0.000000 0.971296 -0.237875  0.088823 0.525651 0
0  0.011416 -0.808107 2.409477  0.000000 0.971296 -0.237875  0.088783 0.525651 0
0  0.011416 -1.116021 1.152198  0.000000 0.971296 -0.237875  0.088783 0.525415 0
lowpoly_metal
0  0.317594 -1.686947 -5.963180  0.000000 -0.247517 -0.968884  0.089580 0.525795 0
0  0.317595 -2.357804 -5.791799  0.000000 -0.247517 -0.968884  0.089580 0.525668 0
0  0.011416 -2.357804 -5.791799  0.000000 -0.247517 -0.968884  0.089637 0.525668 0
lowpoly_metal
0  0.011416 0.014128 1.137426  0.000000 -0.967741 0.251945  0.088902 0.525414 0
0  0.011416 -0.235573 0.178306  0.000000 -0.967741 0.251945  0.088902 0.525234 0
0  0.332106 -0.235573 0.178306  0.000000 -0.967741 0.251945  0.088961 0.525234 0
lowpoly_metal
0  -0.309274 -1.116021 1.152198  1.000000 -0.000000 0.000000  0.089879 0.524717 0
0  -0.309274 -1.365721 0.193079  1.000000 -0.000000 0.000000  0.089877 0.524533 0
0  -0.309274 -0.931928 0.187408  1.000000 -0.000000 0.000000  0.089955 0.524552 0
lowpoly_metal
0  0.011416 -0.235573 0.178306  0.000000 0.013070 0.999915  0.090261 0.525072 0
0  -0.309274 -0.235573 0.178306  0.000000 0.013070 0.999915  0.090202 0.525072 0
0  -0.309274 -0.931928 0.187408  0.000000 0.013070 0.999915  0.090202 0.524943 0
lowpoly_metal
0  -0.294762 -2.775712 -5.685039  0.000000 -0.247514 -0.968884  0.089693 0.525588 0
0  -0.353352 -2.775712 -5.685039  0.000000 -0.247514 -0.968884  0.089704 0.525588 0
0  -0.353352 -2.357804 -5.791799  0.000000 -0.247514 -0.968884  0.089704 0.525668 0
lowpoly_metal
0  0.376184 -2.775712 -5.685040  -0.000018 -0.247525 -0.968882  0.089569 0.525588 0
0  0.376185 -2.830691 -5.670994  -0.000018 -0.247525 -0.968882  0.089569 0.525578 0
0  0.317595 -2.830691 -5.670993  -0.000018 -0.247525 -0.968882  0.089580 0.525578 0
lowpoly_metal
0  -0.156213 0.365068 2.528771  -0.003261 0.999971 -0.006945  0.089100 0.525217 0
0  -0.193763 0.365068 2.546403  -0.003261 0.999971 -0.006945  0.089107 0.525220 0
0  -0.124225 0.365672 2.600597  -0.003261 0.999971 -0.006945  0.089094 0.525230 0
lowpoly_metal
0  0.178823 0.325171 2.529243  -0.939299 0.001155 -0.343099  0.089949 0.524504 0
0  0.179045 0.365068 2.528771  -0.939299 0.001155 -0.343099  0.089942 0.524505 0
0  0.228202 0.361939 2.394183  -0.939299 0.001155 -0.343099  0.089936 0.524481 0
lowpoly_metal
0  -0.205370 -0.374314 2.403807  0.009257 -0.999763 0.019714  0.088721 0.525656 0
0  -0.152123 -0.371185 2.537482  0.009257 -0.999763 0.019714  0.088715 0.525682 0
0  -0.189673 -0.371185 2.555114  0.009257 -0.999763 0.019714  0.088708 0.525680 0
lowpoly_metal
0  -0.246854 0.322042 2.394705  -0.935452 0.004619 0.353423  0.088558 0.525205 0
0  -0.246854 -0.374314 2.403807  -0.935452 0.004619 0.353423  0.088684 0.525177 0
0  -0.189673 -0.371185 2.555114  -0.935452 0.004619 0.353423  0.088690 0.525204 0
lowpoly_metal
0  -0.205370 0.361939 2.394184  0.939299 0.001159 -0.343098  0.090088 0.525006 0
0  -0.156213 0.365068 2.528771  0.939299 0.001159 -0.343098  0.090082 0.525030 0
0  -0.155992 0.325171 2.529243  0.939299 0.001159 -0.343098  0.090075 0.525029 0
lowpoly_metal
0  -0.095026 0.365672 2.571130  0.710257 0.013077 0.703820  0.089211 0.525654 0
0  -0.124225 0.365672 2.600597  0.710257 0.013077 0.703820  0.089205 0.525654 0
0  -0.123855 0.325774 2.600964  0.710257 0.013077 0.703820  0.089205 0.525646 0
lowpoly_metal
0  0.317595 -2.775712 -5.685039  0.000004 -0.247525 -0.968881  0.089580 0.525588 0
0  0.317595 -2.830691 -5.670993  0.000004 -0.247525 -0.968881  0.089580 0.525578 0
0  0.011416 -2.830691 -5.670994  0.000004 -0.247525 -0.968881  0.089637 0.525578 0
lowpoly_metal
0  0.174955 -0.371185 2.537482  -0.938759 0.001139 -0.344573  0.090074 0.524474 0
0  0.178823 0.325171 2.529243  -0.938759 0.001139 -0.344573  0.089949 0.524504 0
0  0.228202 0.322042 2.394705  -0.938759 0.001139 -0.344573  0.089944 0.524480 0
lowpoly_metal
0  -0.193542 0.325171 2.546875  -0.613153 0.001572 0.789963  0.088961 0.525552 0
0  -0.123855 0.325774 2.600964  -0.613153 0.001572 0.789963  0.088974 0.525551 0
0  -0.124225 0.365672 2.600597  -0.613153 0.001572 0.789963  0.088974 0.525559 0
lowpoly_metal
0  -0.155992 0.325171 2.529243  0.569232 -0.006558 -0.822151  0.090195 0.524509 0
0  -0.156213 0.365068 2.528771  0.569232 -0.006558 -0.822151  0.090195 0.524516 0
0  -0.095026 0.365672 2.571130  0.569232 -0.006558 -0.822151  0.090184 0.524515 0
lowpoly_metal
0  -0.246854 -0.865176 2.410223  -0.996316 0.001121 0.085747  0.088772 0.525157 0
0  -0.246854 -0.808107 2.409477  -0.996316 0.001121 0.085747  0.088762 0.525159 0
0  -0.353352 -0.672353 1.170271  -0.996316 0.001121 0.085747  0.088684 0.524942 0
lowpoly_metal
0  -0.309274 -0.682228 1.146528  1.000000 0.000000 0.000000  0.089957 0.524735 0
0  -0.309274 -0.931928 0.187408  1.000000 0.000000 0.000000  0.089955 0.524552 0
0  -0.309274 -0.235573 0.178306  1.000000 0.000000 0.000000  0.090081 0.524582 0
lowpoly_metal
0  0.011416 -1.159598 1.199705  0.000001 -0.971673 0.236331  0.089204 0.524908 0
0  -0.294763 -1.159598 1.199706  0.000001 -0.971673 0.236331  0.089147 0.524908 0
0  -0.294762 -2.551627 -4.523622  0.000001 -0.971673 0.236331  0.089147 0.524159 0
lowpoly_metal
0  0.147057 0.365672 2.600597  0.613154 0.001579 0.789962  0.090171 0.524516 0
0  0.146687 0.325774 2.600964  0.613154 0.001579 0.789962  0.090171 0.524509 0
0  0.216373 0.325171 2.546875  0.613154 0.001579 0.789962  0.090184 0.524509 0
lowpoly_metal
0  0.332106 -1.365721 0.193079  0.000000 0.013070 0.999915  0.090320 0.524863 0
0  0.332107 -0.931928 0.187408  0.000000 0.013070 0.999915  0.090320 0.524943 0
0  0.011416 -0.931928 0.187408  0.000000 0.013070 0.999915  0.090261 0.524943 0
lowpoly_metal
0  -0.294762 -2.357804 -5.791799  0.000000 -0.247517 -0.968884  0.089693 0.525668 0
0  -0.353352 -2.357804 -5.791799  0.000000 -0.247517 -0.968884  0.089704 0.525668 0
0  -0.353352 -1.686947 -5.963180  0.000000 -0.247517 -0.968884  0.089704 0.525795 0
lowpoly_metal
0  0.332107 -0.931928 0.187408  0.000000 0.013070 0.999915  0.090320 0.524943 0
0  0.332106 -0.235573 0.178306  0.000000 0.013070 0.999915  0.090320 0.525072 0
0  0.011416 -0.235573 0.178306  0.000000 0.013070 0.999915  0.090261 0.525072 0
lowpoly_metal
0  0.317595 -2.357804 -5.791799  -0.000038 -0.247516 -0.968884  0.089580 0.525668 0
0  0.376184 -2.357804 -5.791801  -0.000038 -0.247516 -0.968884  0.089569 0.525668 0
0  0.376184 -2.775712 -5.685040  -0.000038 -0.247516 -0.968884  0.089569 0.525588 0
lowpoly_metal
0  -0.294762 -1.648510 -5.972999  0.000000 0.972288 -0.233787  0.089126 0.524009 0
0  -0.294762 -1.540225 -5.522653  0.000000 0.972288 -0.233787  0.089126 0.524068 0
0  0.011416 -1.540225 -5.522653  0.000000 0.972288 -0.233787  0.089069 0.524068 0
lowpoly_metal
0  -0.353353 0.018871 1.128515  -1.000000 0.000006 -0.000002  0.088558 0.524964 0
0  -0.353352 0.058475 1.126123  -1.000000 0.000006 -0.000002  0.088551 0.524966 0
0  -0.353352 -1.403338 -4.953363  -1.000000 0.000006 -0.000002  0.088551 0.524146 0
lowpoly_plastic
0  0.376184 -1.542567 -5.521778  0.130492 -0.347111 -0.928701  0.788450 0.985408 0
0  0.376184 -1.540225 -5.522653  0.130492 -0.347111 -0.928701  0.788450 0.985408 0
0  0.406971 -1.507776 -5.530455  0.130492 -0.347111 -0.928701  0.788450 0.985408 0
lowpoly_metal
0  -0.353352 -2.636743 -5.113353  -1.000000 -0.000001 0.000000  0.088765 0.524088 0
0  -0.353352 -2.230288 -5.265071  -1.000000 -0.000001 0.000000  0.088686 0.524081 0
0  -0.353352 -2.357804 -5.791799  -1.000000 -0.000001 0.000000  0.088686 0.524011 0
lowpoly_metal
0  -0.353352 -1.620053 -5.492855  -1.000000 0.000001 0.000000  0.088566 0.524070 0
0  -0.353352 -1.542568 -5.521780  -1.000000 0.000001 0.000000  0.088551 0.524069 0
0  -0.353352 -1.648510 -5.972999  -1.000000 0.000001 0.000000  0.088551 0.524009 0
lowpoly_plastic
0  0.376184 -2.156622 -4.671450  0.000000 0.350504 0.936561  0.788303 0.985496 0
0  0.376184 -2.507002 -4.540322  0.000000 0.350504 0.936561  0.788234 0.985502 0
0  0.421590 -2.507002 -4.540322  0.000000 0.350504 0.936561  0.788234 0.985502 0
lowpoly_metal
0  0.376184 -1.620053 -5.492855  1.000000 0.000001 -0.000000  0.088986 0.524070 0
0  0.376184 -2.261150 -5.253553  1.000000 0.000001 -0.000000  0.088861 0.524081 0
0  0.376184 -2.357804 -5.791801  1.000000 0.000001 -0.000000  0.088866 0.524011 0
lowpoly_plastic
0  -0.294762 -1.403339 -4.953363  0.000000 0.233790 0.972287  0.788574 0.985483 0
0  0.011416 -1.403339 -4.953363  0.000000 0.233790 0.972287  0.788518 0.985483 0
0  0.011416 -1.359192 -4.963978  0.000000 0.233790 0.972287  0.788518 0.985483 0
lowpoly_metal
0  0.376184 -1.542567 -5.521778  1.000000 0.000000 0.000000  0.089001 0.524069 0
0  0.376184 -1.620053 -5.492855  1.000000 0.000000 0.000000  0.088986 0.524070 0
0  0.376184 -1.686947 -5.963180  1.000000 0.000000 0.000000  0.088994 0.524009 0
lowpoly_plastic
0  0.376185 -2.690207 -5.093397  0.000000 -0.349725 -0.936853  0.788225 0.985427 0
0  0.376184 -2.641131 -5.111717  0.000000 -0.349725 -0.936853  0.788235 0.985426 0
0  0.421590 -2.641131 -5.111717  0.000000 -0.349725 -0.936853  0.788235 0.985426 0
lowpoly_plastic
0  -0.353352 -2.092397 -4.695486  0.000000 0.350505 0.936561  0.788134 0.985496 0
0  -0.353352 -1.536246 -4.903623  0.000000 0.350505 0.936561  0.788025 0.985486 0
0  -0.398757 -1.536246 -4.903623  0.000000 0.350505 0.936561  0.788025 0.985486 0
lowpoly_plastic
0  -0.353352 -2.690208 -5.093397  0.000000 -0.236333 -0.971672  0.788585 0.985422 0
0  -0.294762 -2.690208 -5.093397  0.000000 -0.236333 -0.971672  0.788596 0.985423 0
0  -0.294762 -2.734327 -5.082666  0.000000 -0.236333 -0.971672  0.788596 0.985423 0
lowpoly_plastic
0  0.317595 -2.551627 -4.523622  -0.000002 0.236332 0.971672  0.788709 0.985497 0
0  0.011416 -2.551627 -4.523622  -0.000002 0.236332 0.971672  0.788653 0.985497 0
0  0.011416 -2.595746 -4.512891  -0.000002 0.236332 0.971672  0.788653 0.985497 0
lowpoly_metal
0  -0.353352 -2.690208 -5.093397  -1.000000 0.000000 0.000000  0.088776 0.524089 0
0  -0.353352 -2.636743 -5.113353  -1.000000 0.000000 0.000000  0.088765 0.524088 0
0  -0.353352 -2.775712 -5.685039  -1.000000 0.000000 0.000000  0.088766 0.524012 0
lowpoly_metal
0  0.011416 -2.690208 -5.093397  0.000000 -0.971673 0.236331  0.089204 0.524084 0
0  -0.294762 -2.690208 -5.093397  0.000000 -0.971673 0.236331  0.089147 0.524084 0
0  -0.294762 -2.830691 -5.670993  0.000000 -0.971673 0.236331  0.089147 0.524009 0
lowpoly_metal
0  -0.353352 -2.230288 -5.265071  -1.000000 0.000000 0.000000  0.088686 0.524081 0
0  -0.353352 -1.620053 -5.492855  -1.000000 0.000000 0.000000  0.088566 0.524070 0
0  -0.353352 -1.686947 -5.963180  -1.000000 0.000000 0.000000  0.088558 0.524009 0
lowpoly_metal
0  0.376184 -2.261150 -5.253553  1.000000 0.000000 0.000000  0.088861 0.524081 0
0  0.376184 -2.641131 -5.111717  1.000000 0.000000 0.000000  0.088786 0.524088 0
0  0.376184 -2.775712 -5.685040  1.000000 0.000000 0.000000  0.088787 0.524012 0
lowpoly_plastic
0  0.376184 -1.620053 -5.492855  0.000000 -0.349700 -0.936862  0.788435 0.985409 0
0  0.376184 -1.542567 -5.521778  0.000000 -0.349700 -0.936862  0.788450 0.985408 0
0  0.421589 -1.542567 -5.521778  0.000000 -0.349700 -0.936862  0.788450 0.985408 0
lowpoly_plastic
0  0.376185 -2.551627 -4.523622  0.000000 0.236332 0.971672  0.788720 0.985497 0
0  0.317595 -2.551627 -4.523622  0.000000 0.236332 0.971672  0.788709 0.985497 0
0  0.317595 -2.595746 -4.512891  0.000000 0.236332 0.971672  0.788709 0.985497 0
lowpoly_metal
0  0.011416 -1.403339 -4.953363  0.000000 0.972288 -0.233787  0.089069 0.524144 0
0  -0.294762 -1.403339 -4.953363  0.000000 0.972288 -0.233787  0.089126 0.524144 0
0  -0.294763 0.058475 1.126123  0.000000 0.972288 -0.233787  0.089126 0.524954 0
lowpoly_plastic
0  -0.353352 -1.540225 -5.522653  0.000000 -0.349320 -0.937003  0.787999 0.985408 0
0  -0.353352 -1.542568 -5.521780  0.000000 -0.349320 -0.937003  0.788000 0.985408 0
0  -0.398757 -1.542568 -5.521780  0.000000 -0.349320 -0.937003  0.788000 0.985408 0
lowpoly_metal
0  -0.353352 -2.551628 -4.523622  0.000007 -0.971673 0.236330  0.089137 0.524159 0
0  -0.294762 -2.551627 -4.523622  0.000007 -0.971673 0.236330  0.089147 0.524159 0
0  -0.294763 -1.159598 1.199706  0.000007 -0.971673 0.236330  0.089147 0.524908 0
lowpoly_plastic
0  0.011416 -1.403339 -4.953363  0.000000 0.233790 0.972287  0.788518 0.985483 0
0  0.317595 -1.403339 -4.953363  0.000000 0.233790 0.972287  0.788461 0.985483 0
0  0.317595 -1.359192 -4.963978  0.000000 0.233790 0.972287  0.788461 0.985483 0
lowpoly_metal
0  0.376184 -1.408641 -4.951378  1.000000 0.000000 -0.000000  0.089001 0.524146 0
0  0.376184 -1.403338 -4.953363  1.000000 0.000000 -0.000000  0.089002 0.524146 0
0  0.376184 0.058475 1.126123  1.000000 0.000000 -0.000000  0.089002 0.524966 0
lowpoly_plastic
0  0.011416 -1.540225 -5.522653  0.000000 -0.233790 -0.972287  0.788518 0.985407 0
0  -0.294762 -1.540225 -5.522653  0.000000 -0.233790 -0.972287  0.788574 0.985407 0
0  -0.294762 -1.496078 -5.533268  0.000000 -0.233790 -0.972287  0.788574 0.985407 0
lowpoly_metal
0  -0.294762 -1.403339 -4.953363  0.000008 0.972288 -0.233787  0.089126 0.524144 0
0  -0.353352 -1.403338 -4.953363  0.000008 0.972288 -0.233787  0.089137 0.524144 0
0  -0.353352 0.058475 1.126123  0.000008 0.972288 -0.233787  0.089137 0.524954 0
lowpoly_plastic
0  0.376184 -1.408641 -4.951378  0.000000 0.350502 0.936562  0.788449 0.985484 0
0  0.376184 -1.536246 -4.903623  0.000000 0.350502 0.936562  0.788424 0.985486 0
0  0.421589 -1.536246 -4.903623  0.000000 0.350502 0.936562  0.788424 0.985486 0
lowpoly_plastic
0  0.376184 -2.261150 -5.253553  0.000000 -0.349701 -0.936861  0.788309 0.985420 0
0  0.376184 -1.620053 -5.492855  0.000000 -0.349701 -0.936861  0.788435 0.985409 0
0  0.421589 -1.620053 -5.492855  0.000000 -0.349701 -0.936861  0.788435 0.985409 0
lowpoly_metal
0  0.317595 -1.403339 -4.953363  0.000000 0.972288 -0.233787  0.089013 0.524144 0
0  0.011416 -1.403339 -4.953363  0.000000 0.972288 -0.233787  0.089069 0.524144 0
0  0.011416 0.058475 1.126123  0.000000 0.972288 -0.233787  0.089069 0.524954 0
lowpoly_metal
0  0.317595 -2.551627 -4.523622  0.000000 -0.971673 0.236330  0.089261 0.524159 0
0  0.376185 -2.551627 -4.523622  0.000000 -0.971673 0.236330  0.089272 0.524159 0
0  0.376184 -1.159598 1.199705  0.000000 -0.971673 0.236330  0.089272 0.524908 0
lowpoly_metal
0  0.011416 -2.551627 -4.523622  0.000002 -0.971673 0.236330  0.089204 0.524159 0
0  0.317595 -2.551627 -4.523622  0.000002 -0.971673 0.236330  0.089261 0.524159 0
0  0.317595 -1.159598 1.199706  0.000002 -0.971673 0.236330  0.089261 0.524908 0
lowpoly_plastic
0  -0.353352 -1.408642 -4.951377  0.112332 0.348404 0.930589  0.788000 0.985484 0
0  -0.353352 -1.403338 -4.953363  0.112332 0.348404 0.930589  0.787999 0.985484 0
0  -0.386637 -1.373312 -4.960583  0.112332 0.348404 0.930589  0.787999 0.985484 0
lowpoly_plastic
0  0.317595 -2.690207 -5.093397  0.000000 -0.236342 -0.971670  0.788709 0.985423 0
0  0.376185 -2.690207 -5.093397  0.000000 -0.236342 -0.971670  0.788720 0.985422 0
0  0.409438 -2.720249 -5.086090  0.000000 -0.236342 -0.971670  0.788720 0.985422 0
lowpoly_metal
0  0.376184 -1.403338 -4.953363  -0.000008 0.972288 -0.233787  0.089002 0.524144 0
0  0.317595 -1.403339 -4.953363  -0.000008 0.972288 -0.233787  0.089013 0.524144 0
0  0.317595 0.058475 1.126123  -0.000008 0.972288 -0.233787  0.089013 0.524954 0
lowpoly_plastic
0  0.376184 -1.540225 -5.522653  0.000000 -0.233790 -0.972287  0.788450 0.985407 0
0  0.317595 -1.540225 -5.522653  0.000000 -0.233790 -0.972287  0.788461 0.985407 0
0  0.317595 -1.496078 -5.533268  0.000000 -0.233790 -0.972287  0.788461 0.985407 0
lowpoly_plastic
0  -0.353352 -1.403338 -4.953363  -0.000011 0.233791 0.972287  0.788585 0.985483 0
0  -0.294762 -1.403339 -4.953363  -0.000011 0.233791 0.972287  0.788574 0.985483 0
0  -0.294762 -1.359192 -4.963978  -0.000011 0.233791 0.972287  0.788574 0.985483 0
lowpoly_plastic
0  0.011416 -2.734327 -5.082666  0.000001 -0.971672 0.236331  0.855621 0.984182 0
0  0.317595 -2.734326 -5.082666  0.000001 -0.971672 0.236331  0.855678 0.984182 0
0  0.317595 -2.595746 -4.512891  0.000001 -0.971672 0.236331  0.855678 0.984257 0
lowpoly_plastic
0  0.406971 -1.507776 -5.530455  0.133419 0.963595 -0.231696  0.855419 0.984167 0
0  0.317595 -1.496078 -5.533268  0.133419 0.963595 -0.231696  0.855430 0.984167 0
0  0.317595 -1.359192 -4.963978  0.133419 0.963595 -0.231696  0.855430 0.984243 0
lowpoly_plastic
0  0.011416 -1.496078 -5.533268  0.000000 0.972288 -0.233786  0.855486 0.984167 0
0  -0.294762 -1.496078 -5.533268  0.000000 0.972288 -0.233786  0.855543 0.984167 0
0  -0.294762 -1.359192 -4.963978  0.000000 0.972288 -0.233786  0.855543 0.984243 0
lowpoly_plastic
0  -0.386604 -2.720251 -5.086090  -0.155809 -0.959806 0.233444  0.855554 0.984182 0
0  -0.294762 -2.734327 -5.082666  -0.155809 -0.959806 0.233444  0.855565 0.984182 0
0  -0.294762 -2.595746 -4.512891  -0.155809 -0.959806 0.233444  0.855565 0.984257 0
lowpoly_plastic
0  0.409438 -2.720249 -5.086090  0.989422 -0.141229 0.033152  0.855194 0.984187 0
0  0.421590 -2.641131 -5.111717  0.989422 -0.141229 0.033152  0.855203 0.984186 0
0  0.421590 -2.507002 -4.540322  0.989422 -0.141229 0.033152  0.855203 0.984262 0
lowpoly_plastic
0  0.421589 -1.542567 -5.521778  0.926006 0.366491 -0.090534  0.855418 0.984167 0
0  0.406971 -1.507776 -5.530455  0.926006 0.366491 -0.090534  0.855419 0.984167 0
0  0.409468 -1.373311 -4.960583  0.926006 0.366491 -0.090534  0.855419 0.984244 0
lowpoly_plastic
0  -0.294762 -1.496078 -5.533268  -0.133499 0.964428 -0.228160  0.855543 0.984167 0
0  -0.384149 -1.507785 -5.530453  -0.133499 0.964428 -0.228160  0.855554 0.984167 0
0  -0.386637 -1.373312 -4.960583  -0.133499 0.964428 -0.228160  0.855554 0.984243 0
lowpoly_plastic
0  0.317595 -1.496078 -5.533268  0.000000 0.972288 -0.233786  0.855430 0.984167 0
0  0.011416 -1.496078 -5.533268  0.000000 0.972288 -0.233786  0.855486 0.984167 0
0  0.011416 -1.359192 -4.963978  0.000000 0.972288 -0.233786  0.855486 0.984243 0
lowpoly_plastic
0  0.317595 -2.734326 -5.082666  0.155814 -0.960614 0.230092  0.855678 0.984182 0
0  0.409438 -2.720249 -5.086090  0.155814 -0.960614 0.230092  0.855689 0.984182 0
0  0.406998 -2.584032 -4.515741  0.155814 -0.960614 0.230092  0.855689 0.984257 0
lowpoly_plastic
0  -0.398757 -2.498243 -4.543602  -1.000000 -0.000000 0.000000  0.855182 0.984262 0
0  -0.398757 -2.092397 -4.695486  -1.000000 -0.000000 0.000000  0.855103 0.984255 0
0  -0.398757 -2.230288 -5.265071  -1.000000 -0.000000 0.000000  0.855103 0.984179 0
lowpoly_plastic
0  -0.398757 -1.536246 -4.903623  -1.000000 0.000000 0.000000  0.854994 0.984245 0
0  -0.398757 -1.408642 -4.951377  -1.000000 0.000000 0.000000  0.854969 0.984244 0
0  -0.398757 -1.542568 -5.521780  -1.000000 0.000000 0.000000  0.854968 0.984167 0
lowpoly_plastic
0  0.421589 -1.536246 -4.903623  1.000000 0.000001 -0.000000  0.855393 0.984245 0
0  0.421590 -2.156622 -4.671450  1.000000 0.000001 -0.000000  0.855271 0.984256 0
0  0.421590 -2.261150 -5.253553  1.000000 0.000001 -0.000000  0.855278 0.984179 0
lowpoly_plastic
0  -0.398757 -1.408642 -4.951377  -0.949068 0.305698 -0.076280  0.854969 0.984244 0
0  -0.386637 -1.373312 -4.960583  -0.949068 0.305698 -0.076280  0.854968 0.984244 0
0  -0.384149 -1.507785 -5.530453  -0.949068 0.305698 -0.076280  0.854968 0.984167 0
lowpoly_plastic
0  0.421589 -1.408641 -4.951378  1.000000 0.000000 0.000000  0.855418 0.984244 0
0  0.421589 -1.536246 -4.903623  1.000000 0.000000 0.000000  0.855393 0.984245 0
0  0.421589 -1.620053 -5.492855  1.000000 0.000000 0.000000  0.855403 0.984168 0
lowpoly_plastic
0  -0.398757 -2.092397 -4.695486  -1.000000 0.000000 0.000000  0.855103 0.984255 0
0  -0.398757 -1.536246 -4.903623  -1.000000 0.000000 0.000000  0.854994 0.984245 0
0  -0.398757 -1.620053 -5.492855  -1.000000 0.000000 0.000000  0.854983 0.984168 0
lowpoly_plastic
0  0.421590 -2.156622 -4.671450  1.000000 0.000000 0.000000  0.855271 0.984256 0
0  0.421590 -2.507002 -4.540322  1.000000 0.000000 0.000000  0.855203 0.984262 0
0  0.421590 -2.641131 -5.111717  1.000000 0.000000 0.000000  0.855203 0.984186 0
lowpoly_plastic
0  0.011416 -2.595746 -4.512891  0.000000 -0.971673 0.236331  0.855621 0.984257 0
0  -0.294762 -2.595746 -4.512891  0.000000 -0.971673 0.236331  0.855565 0.984257 0
0  -0.294762 -2.734327 -5.082666  0.000000 -0.971673 0.236331  0.855565 0.984182 0
lowpoly_plastic
0  -0.384164 -2.584033 -4.515741  -0.987092 -0.155620 0.037829  0.855193 0.984263 0
0  -0.398757 -2.498243 -4.543602  -0.987092 -0.155620 0.037829  0.855182 0.984262 0
0  -0.398757 -2.636743 -5.113353  -0.987092 -0.155620 0.037829  0.855182 0.984186 0
lowpoly_plastic
0  -0.353352 -2.498243 -4.543602  0.000000 0.350499 0.936563  0.788214 0.985502 0
0  -0.353352 -2.092397 -4.695486  0.000000 0.350499 0.936563  0.788134 0.985496 0
0  -0.398757 -2.092397 -4.695486  0.000000 0.350499 0.936563  0.788134 0.985496 0
lowpoly_plastic
0  0.317595 -1.403339 -4.953363  0.000000 0.233790 0.972287  0.788461 0.985483 0
0  0.376184 -1.403338 -4.953363  0.000000 0.233790 0.972287  0.788450 0.985483 0
0  0.409468 -1.373311 -4.960583  0.000000 0.233790 0.972287  0.788450 0.985483 0
lowpoly_plastic
0  -0.294762 -1.540225 -5.522653  0.000000 -0.233786 -0.972288  0.788574 0.985407 0
0  -0.353352 -1.540225 -5.522653  0.000000 -0.233786 -0.972288  0.788585 0.985407 0
0  -0.384149 -1.507785 -5.530453  0.000000 -0.233786 -0.972288  0.788585 0.985407 0
lowpoly_plastic
0  -0.294762 -2.551627 -4.523622  0.000000 0.236317 0.971676  0.788596 0.985497 0
0  -0.353352 -2.551628 -4.523622  0.000000 0.236317 0.971676  0.788585 0.985497 0
0  -0.384164 -2.584033 -4.515741  0.000000 0.236317 0.971676  0.788585 0.985497 0
lowpoly_plastic
0  0.011416 -2.551627 -4.523622  0.000000 0.236332 0.971672  0.788653 0.985497 0
0  -0.294762 -2.551627 -4.523622  0.000000 0.236332 0.971672  0.788596 0.985497 0
0  -0.294762 -2.595746 -4.512891  0.000000 0.236332 0.971672  0.788596 0.985497 0
lowpoly_plastic
0  -0.353352 -2.636743 -5.113353  0.109383 -0.347596 -0.931242  0.788214 0.985426 0
0  -0.353352 -2.690208 -5.093397  0.109383 -0.347596 -0.931242  0.788224 0.985427 0
0  -0.386604 -2.720251 -5.086090  0.109383 -0.347596 -0.931242  0.788224 0.985427 0
lowpoly_plastic
0  -0.353352 -1.536246 -4.903623  0.000000 0.350497 0.936564  0.788025 0.985486 0
0  -0.353352 -1.408642 -4.951377  0.000000 0.350497 0.936564  0.788000 0.985484 0
0  -0.398757 -1.408642 -4.951377  0.000000 0.350497 0.936564  0.788000 0.985484 0
lowpoly_plastic
0  -0.353352 -2.551628 -4.523622  0.000000 0.350513 0.936558  0.788224 0.985503 0
0  -0.353352 -2.498243 -4.543602  0.000000 0.350513 0.936558  0.788214 0.985502 0
0  -0.398757 -2.498243 -4.543602  0.000000 0.350513 0.936558  0.788214 0.985502 0
lowpoly_plastic
0  -0.294762 -2.690208 -5.093397  0.000000 -0.236334 -0.971672  0.788596 0.985423 0
0  0.011416 -2.690208 -5.093397  0.000000 -0.236334 -0.971672  0.788653 0.985422 0
0  0.011416 -2.734327 -5.082666  0.000000 -0.236334 -0.971672  0.788653 0.985422 0
lowpoly_plastic
0  0.376184 -2.507002 -4.540322  0.128001 0.347607 0.928862  0.788234 0.985502 0
0  0.376185 -2.551627 -4.523622  0.128001 0.347607 0.928862  0.788225 0.985503 0
0  0.406998 -2.584032 -4.515741  0.128001 0.347607 0.928862  0.788225 0.985503 0
lowpoly_plastic
0  0.011416 -2.690208 -5.093397  0.000000 -0.236334 -0.971672  0.788653 0.985422 0
0  0.317595 -2.690207 -5.093397  0.000000 -0.236334 -0.971672  0.788709 0.985423 0
0  0.317595 -2.734326 -5.082666  0.000000 -0.236334 -0.971672  0.788709 0.985423 0
lowpoly_plastic
0  -0.353352 -1.620053 -5.492855  0.000000 -0.349703 -0.936861  0.788015 0.985409 0
0  -0.353352 -2.230288 -5.265071  0.000000 -0.349703 -0.936861  0.788134 0.985419 0
0  -0.398757 -2.230288 -5.265071  0.000000 -0.349703 -0.936861  0.788134 0.985419 0
lowpoly_plastic
0  0.376184 -1.403338 -4.953363  0.000000 0.350513 0.936558  0.788450 0.985484 0
0  0.376184 -1.408641 -4.951378  0.000000 0.350513 0.936558  0.788449 0.985484 0
0  0.421589 -1.408641 -4.951378  0.000000 0.350513 0.936558  0.788449 0.985484 0
lowpoly_plastic
0  -0.353352 -2.230288 -5.265071  0.000000 -0.349703 -0.936860  0.788134 0.985419 0
0  -0.353352 -2.636743 -5.113353  0.000000 -0.349703 -0.936860  0.788214 0.985426 0
0  -0.398757 -2.636743 -5.113353  0.000000 -0.349703 -0.936860  0.788214 0.985426 0
lowpoly_plastic
0  0.376184 -2.641131 -5.111717  0.000000 -0.349704 -0.936860  0.788235 0.985426 0
0  0.376184 -2.261150 -5.253553  0.000000 -0.349704 -0.936860  0.788309 0.985420 0
0  0.421590 -2.261150 -5.253553  0.000000 -0.349704 -0.936860  0.788309 0.985420 0
lowpoly_plastic
0  0.376184 -1.536246 -4.903623  0.000000 0.350504 0.936561  0.788424 0.985486 0
0  0.376184 -2.156622 -4.671450  0.000000 0.350504 0.936561  0.788303 0.985496 0
0  0.421590 -2.156622 -4.671450  0.000000 0.350504 0.936561  0.788303 0.985496 0
lowpoly_plastic
0  -0.353352 -1.542568 -5.521780  0.000000 -0.349724 -0.936853  0.788000 0.985408 0
0  -0.353352 -1.620053 -5.492855  0.000000 -0.349724 -0.936853  0.788015 0.985409 0
0  -0.398757 -1.620053 -5.492855  0.000000 -0.349724 -0.936853  0.788015 0.985409 0
lowpoly_plastic
0  0.317595 -1.540225 -5.522653  0.000000 -0.233790 -0.972287  0.788461 0.985407 0
0  0.011416 -1.540225 -5.522653  0.000000 -0.233790 -0.972287  0.788518 0.985407 0
0  0.011416 -1.496078 -5.533268  0.000000 -0.233790 -0.972287  0.788518 0.985407 0
end
