version 1
nodes
0 "ValveBiped.Bip01_Spine4" -1
1 "ValveBiped.Bip01_L_Clavicle" 0
2 "ValveBiped.Bip01_L_UpperArm" 1
3 "ValveBiped.Bip01_L_Forearm" 2
4 "ValveBiped.Bip01_L_Hand" 3
5 "ValveBiped.Bip01_L_Finger4" 4
6 "ValveBiped.Bip01_L_Finger41" 5
7 "ValveBiped.Bip01_L_Finger42" 6
8 "ValveBiped.Bip01_L_Finger3" 4
9 "ValveBiped.Bip01_L_Finger31" 8
10 "ValveBiped.Bip01_L_Finger32" 9
11 "ValveBiped.Bip01_L_Finger2" 4
12 "ValveBiped.Bip01_L_Finger21" 11
13 "ValveBiped.Bip01_L_Finger22" 12
14 "ValveBiped.Bip01_L_Finger1" 4
15 "ValveBiped.Bip01_L_Finger11" 14
16 "ValveBiped.Bip01_L_Finger12" 15
17 "ValveBiped.Bip01_L_Finger0" 4
18 "ValveBiped.Bip01_L_Finger01" 17
19 "ValveBiped.Bip01_L_Finger02" 18
20 "ValveBiped.Bip01_L_Ulna" 3
21 "ValveBiped.Bip01_L_Wrist" 3
22 "rig_l_upperarm" 1
23 "rig_l_forearm" 22
24 "rig_d_l_forearm" 23
25 "rig_d_l_upperarm" 22
26 "ValveBiped.Bip01_R_Clavicle" 0
27 "ValveBiped.Bip01_R_UpperArm" 26
28 "ValveBiped.Bip01_R_Forearm" 27
29 "ValveBiped.Bip01_R_Hand" 28
30 "ValveBiped.Bip01_R_Finger4" 29
31 "ValveBiped.Bip01_R_Finger41" 30
32 "ValveBiped.Bip01_R_Finger42" 31
33 "ValveBiped.Bip01_R_Finger3" 29
34 "ValveBiped.Bip01_R_Finger31" 33
35 "ValveBiped.Bip01_R_Finger32" 34
36 "ValveBiped.Bip01_R_Finger2" 29
37 "ValveBiped.Bip01_R_Finger21" 36
38 "ValveBiped.Bip01_R_Finger22" 37
39 "ValveBiped.Bip01_R_Finger1" 29
40 "ValveBiped.Bip01_R_Finger11" 39
41 "ValveBiped.Bip01_R_Finger12" 40
42 "ValveBiped.Bip01_R_Finger0" 29
43 "ValveBiped.Bip01_R_Finger01" 42
44 "ValveBiped.Bip01_R_Finger02" 43
45 "ValveBiped.Bip01_R_Ulna" 28
46 "ValveBiped.Bip01_R_Wrist" 28
47 "rig_r_upperarm" 26
48 "rig_r_forearm" 47
49 "rig_d_r_forearm" 48
50 "rig_d_r_upperarm" 47
51 "rig_r_hand" -1
52 "rig_d_r_hand" 51
53 "rig_d_r_wrist" 52
54 "rig_l_hand" -1
55 "rig_d_l_hand" 54
56 "rig_d_l_wrist" 54
57 "rig_l_pole" -1
58 "rig_r_pole" -1
59 "rig_l_clavicle" -1
60 "rig_d_l_clavicle" 59
61 "rig_r_clavicle" -1
62 "rig_d_r_clavicle" 61
63 "Camera" -1
64 "body" -1
65 "trigger" 64
66 "barrel" 64
67 "bulletdoor" 64
68 "pump" 64
69 "bolt" 68
70 "tac" 68
71 "bullet2" 64
72 "catch" 64
73 "hookontop" 64
74 "bullet1" -1
end
skeleton
time 0
0  0.000006 0.000000 0.000000  -1.570800 -1.391899 -1.570792
1  -4.849906 3.337897 2.232070  -1.544956 -1.855077 -0.198630
2  6.027521 -0.000322 0.000193  -1.282805 -0.929707 -1.297959
3  11.692105 0.000645 -0.000739  -1.384599 -0.000044 -1.830167
4  11.479640 0.000565 -0.000965  1.709168 -0.247846 -0.213716
5  3.859509 -0.142880 -1.192050  -0.507739 -0.034586 -1.573166
6  1.312589 0.000012 0.000008  -0.118535 -0.048143 -0.280786
7  0.729354 0.000054 0.000050  -0.083327 -0.106005 -0.262589
8  3.942143 0.046273 -0.431512  -0.423826 0.326055 -0.977403
9  1.539110 0.000083 0.000004  -0.009644 -0.070905 -0.804603
10  1.196331 0.000146 0.000029  0.007038 -0.000117 -0.629733
11  3.883504 -0.047269 0.431381  -0.232037 0.533715 -0.537849
12  1.719573 -0.000027 0.000015  -0.029240 -0.102096 -0.847270
13  1.209179 0.000090 0.000013  -0.006673 -0.001106 -0.502906
14  3.859662 -0.138476 1.332410  0.013813 0.511197 -0.350141
15  1.719449 -0.000013 0.000021  -0.022509 0.019639 -0.287088
16  1.099675 0.000046 0.000006  -0.286525 0.346051 -1.053593
17  0.770794 -0.901442 1.177685  -1.023985 -0.400866 -0.530987
18  1.789819 -0.000003 -0.000017  -0.006283 0.079922 0.223803
19  1.207016 -0.000010 -0.000044  0.148664 -0.148095 0.129516
20  5.740637 0.000411 -0.000703  -0.087015 0.000003 0.000070
21  11.480939 0.000321 -0.000852  0.029304 -0.029623 -0.048226
22  6.027524 -0.000329 0.000203  1.959536 -0.523613 1.157254
23  0.000002 11.692099 -0.000008  -1.223516 -0.668117 -0.918785
24  0.000003 0.000008 -0.000001  -0.515490 -0.000031 1.570739
25  -0.000001 -0.000011 -0.000002  0.868957 0.000002 1.570712
26  -5.618016 10.847373 -7.660039  1.473120 1.855075 -0.198639
27  6.027510 -0.000258 -0.000233  1.045984 0.620264 -0.844631
28  11.691993 0.000240 0.000854  0.141431 0.000122 -2.564466
29  11.479840 -0.000474 0.000901  -1.705709 -0.144651 0.454883
30  3.859437 -0.132787 1.193063  0.466149 -0.051826 -1.783918
31  1.312558 0.000024 -0.000002  -0.013965 -0.041044 -0.156447
32  0.729345 0.000066 -0.000029  -0.128320 -0.117290 -0.954857
33  3.942047 0.050110 0.431000  0.211501 -0.107596 -1.469120
34  1.539097 0.000009 -0.000001  0.040712 -0.054386 -1.030469
35  1.196298 0.000075 -0.000005  -0.249391 -0.043040 -0.795120
36  3.883412 -0.050502 -0.431086  0.186407 -0.271796 -1.212184
37  1.719563 -0.000079 -0.000004  0.020974 -0.107650 -1.483528
38  1.209197 0.000036 0.000010  -0.324719 0.069674 -0.493483
39  3.859586 -0.149112 -1.331321  -0.108749 -0.195986 -0.481239
40  1.719412 -0.000100 -0.000036  0.017619 -0.052541 -1.458980
41  1.099674 0.000025 0.000006  0.001357 -0.008069 -0.773941
42  0.805980 -0.359854 -1.318337  1.036934 0.313596 -0.555620
43  1.789777 -0.000010 -0.000041  -0.009238 0.080225 -0.078826
44  1.206997 -0.000007 0.000005  -0.009852 0.000505 0.700585
45  5.740571 0.000055 0.000722  0.023502 -0.000014 0.000021
46  11.480911 -0.000059 0.000929  -0.017287 -0.055374 0.080135
47  6.027514 -0.000274 -0.000238  -1.129530 -0.872679 -1.397211
48  -0.000001 11.691975 -0.000005  -1.741758 1.134237 0.984631
49  0.000002 -0.000003 -0.000001  2.413975 -0.000041 1.570856
50  -0.000005 -0.000015 0.000006  2.272644 -0.000030 1.570865
51  -9.830025 -15.208693 -9.579371  2.226242 -0.453862 -0.231736
52  0.000000 0.000000 0.000000  0.008153 -0.000259 0.000009
53  0.000000 0.000000 0.000001  1.565115 0.043565 -0.106862
54  4.806220 -15.821276 -3.795017  -1.278536 -0.971070 -1.627876
55  0.000001 0.000002 -0.000000  0.000000 -0.000000 -0.000002
56  0.000032 0.000031 0.000001  -1.571902 -0.044449 -0.106509
57  7.202790 -19.259499 -17.055128  1.570796 -0.000000 0.000000
58  -23.904835 -15.883458 -25.221453  1.570796 -0.000000 0.000000
59  2.236387 -2.421983 -5.367696  1.570796 -0.000000 0.000000
60  -0.004311 0.001230 -0.000371  0.006898 -0.005534 -0.284229
61  -7.660039 -9.674562 -7.458580  1.570796 -0.000000 0.000000
62  0.000000 0.000000 0.000000  -0.078727 -3.136056 0.284226
63  0.000000 0.000000 0.000000  1.570796 -0.000000 0.000000
64  3.140281 -12.678871 -2.553233  0.449917 0.616602 -0.275846
65  -0.109379 -1.951951 -1.519205  0.000000 -0.000000 0.000000
66  -0.109377 0.057028 25.399250  0.000000 -0.000000 0.000000
67  -0.109379 -1.856730 0.287229  0.000000 -0.000000 0.000000
68  -0.104047 -4.495921 7.879275  0.000000 -0.000000 0.000000
69  -0.195263 4.332630 -6.347187  0.000000 -0.000000 0.000000
70  -1.290112 3.693286 8.579668  0.022713 -0.014049 -0.017451
71  -0.121470 -1.314579 7.402087  0.000000 -0.000000 0.000000
72  -1.107529 -1.063452 4.061646  0.000000 -0.000000 0.000000
73  0.003659 1.612365 10.733981  0.000000 -0.000000 0.000000
74  -4.473624 -14.013856 -7.528618  0.823179 0.857515 0.843407
time 1
0  0.000006 0.000000 0.000000  -1.570800 -1.391899 -1.570792
1  -4.849906 3.337897 2.232070  -1.544956 -1.855077 -0.198630
2  6.027521 -0.000322 0.000193  -1.279593 -0.928602 -1.296530
3  11.692104 0.000644 -0.000738  -1.384599 -0.000044 -1.827831
4  11.479662 0.000569 -0.000953  1.697454 -0.238520 -0.232030
5  3.859509 -0.142881 -1.192049  -0.507744 -0.033340 -1.571034
6  1.312589 0.000013 0.000008  -0.118459 -0.048489 -0.288788
7  0.729355 0.000054 0.000050  -0.085108 -0.102877 -0.260831
8  3.942144 0.046272 -0.431512  -0.423546 0.326636 -0.976807
9  1.539110 0.000083 0.000005  -0.009441 -0.070979 -0.807985
10  1.196331 0.000145 0.000029  0.003821 -0.000283 -0.625052
11  3.883506 -0.047269 0.431381  -0.229045 0.536204 -0.532654
12  1.719573 -0.000023 0.000015  -0.027911 -0.102723 -0.861027
13  1.209179 0.000092 0.000012  -0.008104 -0.001919 -0.492152
14  3.859662 -0.138478 1.332410  0.013813 0.511197 -0.350141
15  1.719448 -0.000015 0.000022  -0.022509 0.019639 -0.287088
16  1.099674 0.000049 0.000006  -0.286525 0.346051 -1.053593
17  0.770795 -0.901443 1.177686  -1.023985 -0.400866 -0.530987
18  1.789820 -0.000003 -0.000019  -0.006283 0.079922 0.223803
19  1.207015 -0.000011 -0.000043  0.148664 -0.148095 0.129516
20  5.740638 0.000410 -0.000704  -0.092961 0.000003 0.000071
21  11.480945 0.000321 -0.000850  0.026937 -0.027794 -0.052372
22  6.027524 -0.000329 0.000203  1.958624 -0.525685 1.161714
23  0.000002 11.692098 -0.000007  -1.222137 -0.666699 -0.918130
24  0.000001 0.000008 -0.000003  -0.515490 -0.000031 1.570739
25  -0.000000 -0.000011 -0.000000  0.868957 0.000002 1.570712
26  -5.617288 10.793308 -7.679482  1.473120 1.855075 -0.198639
27  6.027514 -0.000258 -0.000228  0.639371 0.928513 -1.300858
28  11.691992 0.000242 0.000857  0.141446 0.000093 -2.116629
29  11.479445 -0.000854 0.000954  -1.809524 0.054207 0.302046
30  3.859437 -0.132786 1.193062  0.466149 -0.051826 -1.783918
31  1.312558 0.000026 0.000000  -0.013965 -0.041044 -0.156447
32  0.729345 0.000065 -0.000029  -0.128320 -0.117290 -0.954857
33  3.942046 0.050109 0.430996  0.211501 -0.107596 -1.469120
34  1.539097 0.000010 0.000001  0.040712 -0.054386 -1.030469
35  1.196300 0.000076 -0.000006  -0.249391 -0.043040 -0.795120
36  3.883411 -0.050501 -0.431086  0.186407 -0.271796 -1.212184
37  1.719564 -0.000079 -0.000005  0.020974 -0.107650 -1.483528
38  1.209197 0.000036 0.000011  -0.324719 0.069674 -0.493483
39  3.859585 -0.149112 -1.331324  -0.108749 -0.195986 -0.481239
40  1.719412 -0.000099 -0.000037  0.017619 -0.052541 -1.458980
41  1.099673 0.000025 0.000006  0.001357 -0.008069 -0.773941
42  0.805979 -0.359853 -1.318337  1.036934 0.313596 -0.555620
43  1.789779 -0.000010 -0.000043  -0.009238 0.080225 -0.078826
44  1.206995 -0.000005 0.000006  -0.009852 0.000505 0.700585
45  5.740572 0.000052 0.000726  -0.012748 -0.000014 0.000021
46  11.480833 -0.000137 0.000942  -0.046867 -0.017533 0.054255
47  6.027514 -0.000273 -0.000236  -1.617503 -0.640893 -1.222886
48  0.000002 11.691972 -0.000005  -1.397812 0.846535 0.984104
49  0.000005 -0.000002 -0.000001  2.413975 -0.000041 1.570856
50  -0.000006 -0.000016 0.000005  2.272644 -0.000030 1.570865
51  -5.390379 -17.611904 -8.368950  2.189892 -0.658161 -0.239508
52  0.000000 -0.000001 0.000001  0.008153 -0.000259 0.000009
53  0.000000 0.000001 -0.000000  1.565115 0.043565 -0.106862
54  4.764846 -15.843032 -3.832416  -1.311057 -0.979345 -1.606628
55  -0.000001 -0.000001 0.000000  0.000000 -0.000000 -0.000002
56  0.000030 0.000028 0.000001  -1.571901 -0.044449 -0.106509
57  7.202790 -19.259499 -17.055128  1.570796 -0.000000 0.000000
58  -23.873787 -15.848674 -25.099804  1.570796 -0.000000 0.000000
59  2.236387 -2.421983 -5.367696  1.570796 -0.000000 0.000000
60  -0.004311 0.001230 -0.000371  0.006898 -0.005534 -0.284229
61  -7.679482 -9.621490 -7.448243  1.570796 -0.000000 0.000000
62  0.000000 0.000000 0.000000  -0.078727 -3.136056 0.284226
63  0.000000 0.000000 0.000000  1.570796 -0.000000 0.000000
64  3.139967 -12.682052 -2.583388  0.434730 0.632397 -0.290400
65  -0.109378 -1.951952 -1.519204  -0.000000 -0.000000 -0.000000
66  -0.109378 0.057027 25.399254  -0.000000 -0.000000 -0.000000
67  -0.109378 -1.856732 0.287230  -0.000000 -0.000000 -0.000000
68  -0.104047 -4.495924 7.879279  -0.000000 -0.000000 -0.000000
69  -0.195264 4.332631 -6.347187  -0.000000 -0.000000 -0.000000
70  -1.290111 3.693282 8.579670  0.022713 -0.014049 -0.017451
71  -0.121470 -1.314580 7.402089  -0.000000 -0.000000 -0.000000
72  -1.107528 -1.063452 4.061648  -0.000000 -0.000000 -0.000000
73  0.003659 1.612362 10.733984  -0.000000 -0.000000 -0.000000
74  -0.468429 -16.392708 -5.403411  0.592340 0.749210 0.654598
time 2
0  0.000006 0.000000 0.000000  -1.570800 -1.391899 -1.570792
1  -4.849906 3.337897 2.232070  -1.544956 -1.855077 -0.198630
2  6.027521 -0.000322 0.000193  -1.278687 -0.923959 -1.293507
3  11.692104 0.000647 -0.000740  -1.384599 -0.000044 -1.827358
4  11.479668 0.000569 -0.000948  1.691293 -0.228257 -0.247645
5  3.859509 -0.142881 -1.192049  -0.507790 -0.030555 -1.566536
6  1.312588 0.000013 0.000008  -0.118230 -0.049368 -0.308307
7  0.729354 0.000054 0.000050  -0.089800 -0.095921 -0.251334
8  3.942143 0.046271 -0.431512  -0.421971 0.329477 -0.972443
9  1.539111 0.000082 0.000005  -0.008459 -0.071680 -0.822685
10  1.196332 0.000146 0.000029  -0.003147 0.000342 -0.607506
11  3.883505 -0.047269 0.431381  -0.221476 0.542271 -0.519519
12  1.719573 -0.000026 0.000015  -0.025039 -0.104003 -0.890473
13  1.209180 0.000090 0.000011  -0.010901 -0.005915 -0.469122
14  3.859663 -0.138477 1.332410  0.013813 0.511197 -0.350141
15  1.719449 -0.000013 0.000022  -0.022509 0.019639 -0.287088
16  1.099675 0.000050 0.000006  -0.286525 0.346051 -1.053593
17  0.770794 -0.901444 1.177686  -1.023985 -0.400866 -0.530987
18  1.789820 -0.000004 -0.000019  -0.006283 0.079922 0.223803
19  1.207016 -0.000011 -0.000043  0.148664 -0.148095 0.129516
20  5.740638 0.000409 -0.000703  -0.095950 0.000003 0.000071
21  11.480946 0.000321 -0.000849  0.025728 -0.025801 -0.055796
22  6.027524 -0.000329 0.000203  1.961530 -0.529629 1.163997
23  0.000002 11.692100 -0.000008  -1.221858 -0.666412 -0.917997
24  0.000003 0.000007 -0.000001  -0.515490 -0.000030 1.570739
25  -0.000001 -0.000011 -0.000002  0.868957 0.000002 1.570712
26  -5.615088 10.629869 -7.738256  1.473120 1.855075 -0.198639
27  6.027516 -0.000258 -0.000229  0.397152 1.035125 -1.592370
28  11.691994 0.000244 0.000857  0.141452 0.000076 -1.927441
29  11.478565 -0.001342 0.001021  -1.713262 0.080875 0.210643
30  3.859436 -0.132787 1.193062  0.466149 -0.051826 -1.783918
31  1.312558 0.000026 -0.000000  -0.013965 -0.041043 -0.156447
32  0.729343 0.000066 -0.000026  -0.128320 -0.117290 -0.954857
33  3.942046 0.050109 0.430995  0.211501 -0.107596 -1.469120
34  1.539096 0.000011 0.000002  0.040712 -0.054386 -1.030469
35  1.196300 0.000076 -0.000003  -0.249391 -0.043040 -0.795121
36  3.883411 -0.050501 -0.431088  0.186407 -0.271796 -1.212184
37  1.719564 -0.000079 -0.000004  0.020974 -0.107650 -1.483528
38  1.209197 0.000036 0.000010  -0.324719 0.069674 -0.493483
39  3.859586 -0.149111 -1.331323  -0.108749 -0.195986 -0.481239
40  1.719412 -0.000099 -0.000033  0.017619 -0.052541 -1.458980
41  1.099673 0.000024 0.000006  0.001357 -0.008068 -0.773941
42  0.805979 -0.359853 -1.318338  1.036934 0.313596 -0.555620
43  1.789780 -0.000009 -0.000042  -0.009238 0.080225 -0.078826
44  1.206998 -0.000004 0.000005  -0.009852 0.000505 0.700585
45  5.740572 0.000056 0.000723  -0.004406 -0.000014 0.000021
46  11.480659 -0.000232 0.000953  -0.028822 -0.008428 0.034730
47  6.027514 -0.000273 -0.000238  -1.747056 -0.508613 -1.241750
48  -0.000001 11.691974 -0.000006  -1.281261 0.727730 0.944496
49  0.000005 -0.000001 -0.000002  2.413975 -0.000041 1.570856
50  -0.000007 -0.000016 0.000003  2.272644 -0.000030 1.570865
51  -3.723004 -18.132145 -7.095346  2.243257 -0.745721 -0.181464
52  0.000000 0.000002 -0.000001  0.008153 -0.000259 0.000009
53  -0.000000 0.000000 -0.000000  1.565115 0.043565 -0.106862
54  4.744290 -15.860739 -3.908631  -1.334815 -0.986247 -1.587833
55  -0.000000 0.000000 -0.000000  0.000000 -0.000000 -0.000002
56  0.000030 0.000028 0.000001  -1.571902 -0.044449 -0.106509
57  7.202790 -19.259499 -17.055128  1.570796 -0.000000 0.000000
58  -23.779999 -15.743588 -24.732304  1.570796 -0.000000 0.000000
59  2.236387 -2.421983 -5.367696  1.570796 -0.000000 0.000000
60  -0.004311 0.001230 -0.000371  0.006898 -0.005534 -0.284229
61  -7.738256 -9.461052 -7.416995  1.570796 -0.000000 0.000000
62  0.000000 0.000000 0.000000  -0.078727 -3.136056 0.284226
63  0.000000 0.000000 0.000000  1.570796 -0.000000 0.000000
64  3.139182 -12.690002 -2.658776  0.422100 0.643276 -0.298895
65  -0.109378 -1.951952 -1.519204  -0.000000 -0.000000 0.000000
66  -0.109380 0.057028 25.399254  -0.000000 -0.000000 0.000000
67  -0.109378 -1.856732 0.287230  -0.000000 -0.000000 0.000000
68  -0.104048 -4.495923 7.879278  -0.000000 -0.000000 0.000000
69  -0.195264 4.332631 -6.347186  -0.000000 -0.000000 0.000000
70  -1.290113 3.693286 8.579668  0.022713 -0.014049 -0.017451
71  -0.121471 -1.314581 7.402088  -0.000000 -0.000000 0.000000
72  -1.107528 -1.063453 4.061649  -0.000000 -0.000000 0.000000
73  0.003658 1.612363 10.733983  -0.000000 -0.000000 0.000000
74  0.807957 -16.630537 -3.585354  0.632685 0.613253 0.799675
time 3
0  0.000006 0.000000 0.000000  -1.570800 -1.391899 -1.570792
1  -4.849906 3.337897 2.232070  -1.544956 -1.855077 -0.198630
2  6.027521 -0.000322 0.000193  -1.280027 -0.916772 -1.289525
3  11.692105 0.000645 -0.000739  -1.384599 -0.000044 -1.828923
4  11.479650 0.000569 -0.000958  1.691381 -0.220043 -0.259537
5  3.859510 -0.142879 -1.192050  -0.507928 -0.028948 -1.564606
6  1.312589 0.000014 0.000007  -0.117959 -0.050146 -0.323688
7  0.729353 0.000053 0.000049  -0.094294 -0.091952 -0.231869
8  3.942144 0.046273 -0.431512  -0.418645 0.334965 -0.962303
9  1.539111 0.000084 0.000005  -0.006536 -0.073407 -0.849095
10  1.196332 0.000146 0.000030  -0.006573 0.003147 -0.579605
11  3.883505 -0.047269 0.431382  -0.214991 0.547105 -0.508185
12  1.719573 -0.000027 0.000015  -0.023684 -0.104573 -0.904235
13  1.209179 0.000091 0.000012  -0.011505 -0.013805 -0.458323
14  3.859663 -0.138475 1.332410  0.013813 0.511197 -0.350141
15  1.719448 -0.000013 0.000022  -0.022509 0.019639 -0.287088
16  1.099675 0.000050 0.000006  -0.286525 0.346051 -1.053593
17  0.770795 -0.901442 1.177686  -1.023985 -0.400866 -0.530987
18  1.789819 -0.000004 -0.000018  -0.006283 0.079922 0.223803
19  1.207015 -0.000012 -0.000045  0.148664 -0.148095 0.129516
20  5.740635 0.000411 -0.000703  -0.096622 0.000003 0.000070
21  11.480940 0.000322 -0.000851  0.025771 -0.024268 -0.058253
22  6.027524 -0.000329 0.000203  1.967543 -0.534675 1.163862
23  0.000003 11.692098 -0.000006  -1.222781 -0.667361 -0.918436
24  0.000003 0.000009 0.000000  -0.515490 -0.000031 1.570739
25  -0.000001 -0.000012 0.000000  0.868957 0.000002 1.570712
26  -5.611426 10.357919 -7.836052  1.473120 1.855075 -0.198639
27  6.027519 -0.000259 -0.000227  0.212987 1.038903 -1.769621
28  11.691992 0.000244 0.000856  0.141454 0.000065 -1.800557
29  11.479684 -0.000749 0.000939  -1.623762 0.127625 0.060465
30  3.859436 -0.132787 1.193062  0.466149 -0.051826 -1.783918
31  1.312557 0.000026 -0.000000  -0.013965 -0.041043 -0.156447
32  0.729344 0.000065 -0.000026  -0.128320 -0.117290 -0.954857
33  3.942046 0.050109 0.430997  0.211501 -0.107596 -1.469120
34  1.539097 0.000010 -0.000001  0.040712 -0.054386 -1.030469
35  1.196299 0.000076 -0.000006  -0.249391 -0.043040 -0.795120
36  3.883411 -0.050502 -0.431086  0.186407 -0.271796 -1.212184
37  1.719562 -0.000078 -0.000005  0.020974 -0.107650 -1.483528
38  1.209197 0.000036 0.000010  -0.324719 0.069674 -0.493483
39  3.859585 -0.149112 -1.331322  -0.108749 -0.195986 -0.481239
40  1.719412 -0.000098 -0.000034  0.017619 -0.052541 -1.458980
41  1.099673 0.000025 0.000007  0.001356 -0.008069 -0.773941
42  0.805979 -0.359854 -1.318337  1.036934 0.313596 -0.555620
43  1.789780 -0.000010 -0.000042  -0.009238 0.080225 -0.078826
44  1.206997 -0.000008 0.000005  -0.009852 0.000505 0.700585
45  5.740574 0.000055 0.000725  -0.007169 -0.000014 0.000021
46  11.480882 -0.000113 0.000938  -0.011873 0.003536 0.003208
47  6.027515 -0.000273 -0.000237  -1.840461 -0.464326 -1.216637
48  0.000000 11.691975 -0.000004  -1.205996 0.650180 0.910411
49  0.000004 0.000000 -0.000000  2.413975 -0.000041 1.570856
50  -0.000006 -0.000015 0.000005  2.272644 -0.000030 1.570865
51  -2.507586 -18.129791 -6.920982  2.319104 -0.838678 -0.106247
52  -0.000001 -0.000001 0.000001  0.008153 -0.000259 0.000009
53  0.000000 -0.000000 -0.000000  1.565115 0.043565 -0.106862
54  4.746758 -15.869005 -4.007403  -1.348721 -0.989971 -1.572090
55  0.000000 -0.000001 -0.000000  0.000000 -0.000000 -0.000002
56  0.000030 0.000029 0.000001  -1.571901 -0.044449 -0.106509
57  7.202790 -19.259499 -17.055128  1.570796 -0.000000 0.000000
58  -23.624725 -15.569612 -24.123873  1.570796 -0.000000 0.000000
59  2.236387 -2.421983 -5.367696  1.570796 -0.000000 0.000000
60  -0.004311 0.001230 -0.000371  0.006898 -0.005534 -0.284229
61  -7.836053 -9.194093 -7.365000  1.570796 -0.000000 0.000000
62  0.000000 0.000000 0.000000  -0.078727 -3.136056 0.284226
63  0.000000 0.000000 0.000000  1.570796 -0.000000 0.000000
64  3.138162 -12.700338 -2.756779  0.414889 0.649544 -0.299107
65  -0.109378 -1.951952 -1.519206  0.000000 0.000000 0.000000
66  -0.109379 0.057027 25.399250  0.000000 0.000000 0.000000
67  -0.109378 -1.856733 0.287230  0.000000 0.000000 0.000000
68  -0.104047 -4.495923 7.879275  0.000000 0.000000 0.000000
69  -0.195263 4.332631 -6.347188  0.000000 0.000000 0.000000
70  -1.290111 3.693284 8.579665  0.022713 -0.014049 -0.017451
71  -0.121470 -1.314582 7.402086  0.000000 0.000000 0.000000
72  -1.107528 -1.063453 4.061646  0.000000 0.000000 0.000000
73  0.003659 1.612363 10.733981  0.000000 0.000000 0.000000
74  1.496222 -16.322485 -2.821045  0.678110 0.450353 0.998469
time 4
0  0.000006 0.000000 0.000000  -1.570800 -1.391899 -1.570792
1  -4.849906 3.337897 2.232070  -1.544956 -1.855077 -0.198630
2  6.027521 -0.000322 0.000193  -1.284829 -0.907571 -1.285376
3  11.692104 0.000645 -0.000740  -1.384599 -0.000045 -1.833785
4  11.479609 0.000562 -0.000983  1.703003 -0.217953 -0.264937
5  3.859509 -0.142879 -1.192049  -0.507906 -0.030573 -1.569660
6  1.312590 0.000011 0.000008  -0.117629 -0.050883 -0.332655
7  0.729357 0.000054 0.000050  -0.098678 -0.094435 -0.196847
8  3.942144 0.046273 -0.431512  -0.412482 0.344476 -0.943160
9  1.539111 0.000084 0.000004  -0.003065 -0.076640 -0.893659
10  1.196333 0.000146 0.000029  0.002100 0.009449 -0.535610
11  3.883505 -0.047269 0.431381  -0.210310 0.550112 -0.499748
12  1.719573 -0.000026 0.000015  -0.023883 -0.104293 -0.903468
13  1.209179 0.000092 0.000011  -0.004907 -0.027303 -0.462060
14  3.859663 -0.138475 1.332410  0.013813 0.511197 -0.350141
15  1.719450 -0.000012 0.000022  -0.022509 0.019639 -0.287088
16  1.099675 0.000051 0.000006  -0.286525 0.346051 -1.053593
17  0.770795 -0.901443 1.177686  -1.023985 -0.400866 -0.530987
18  1.789819 -0.000004 -0.000017  -0.006283 0.079922 0.223803
19  1.207015 -0.000012 -0.000042  0.148664 -0.148095 0.129516
20  5.740638 0.000410 -0.000703  -0.094531 0.000003 0.000071
21  11.480933 0.000320 -0.000855  0.028049 -0.024083 -0.058992
22  6.027524 -0.000329 0.000203  1.977014 -0.539880 1.159366
23  0.000001 11.692098 -0.000007  -1.225652 -0.670314 -0.919795
24  0.000003 0.000008 -0.000002  -0.515490 -0.000031 1.570738
25  -0.000001 -0.000012 -0.000001  0.868957 0.000002 1.570712
26  -5.606380 9.983117 -7.970835  1.473120 1.855075 -0.198639
27  6.027516 -0.000258 -0.000229  0.099017 1.024613 -1.861499
28  11.691993 0.000244 0.000856  0.141448 0.000063 -1.712780
29  11.480472 -0.000235 0.000866  -1.624576 0.192774 -0.072882
30  3.859436 -0.132787 1.193062  0.466149 -0.051826 -1.783918
31  1.312557 0.000026 -0.000000  -0.013965 -0.041044 -0.156447
32  0.729344 0.000066 -0.000030  -0.128320 -0.117290 -0.954857
33  3.942046 0.050109 0.430997  0.211501 -0.107596 -1.469120
34  1.539097 0.000008 -0.000002  0.040712 -0.054386 -1.030469
35  1.196299 0.000076 -0.000005  -0.249391 -0.043040 -0.795120
36  3.883411 -0.050502 -0.431087  0.186407 -0.271796 -1.212184
37  1.719564 -0.000078 -0.000002  0.020974 -0.107650 -1.483528
38  1.209196 0.000036 0.000008  -0.324719 0.069674 -0.493483
39  3.859585 -0.149112 -1.331324  -0.108749 -0.195986 -0.481239
40  1.719412 -0.000099 -0.000034  0.017619 -0.052541 -1.458980
41  1.099674 0.000025 0.000007  0.001357 -0.008069 -0.773941
42  0.805978 -0.359853 -1.318338  1.036934 0.313596 -0.555620
43  1.789779 -0.000009 -0.000042  -0.009238 0.080225 -0.078826
44  1.206997 -0.000006 0.000005  -0.009852 0.000505 0.700585
45  5.740571 0.000057 0.000723  -0.017186 -0.000014 0.000021
46  11.481038 -0.000010 0.000922  -0.011745 0.017198 -0.023116
47  6.027513 -0.000272 -0.000238  -1.902734 -0.442202 -1.183397
48  0.000000 11.691974 -0.000005  -1.154471 0.597787 0.883842
49  0.000003 0.000001 -0.000000  2.413975 -0.000041 1.570856
50  -0.000007 -0.000016 0.000005  2.272644 -0.000030 1.570865
51  -1.693566 -17.883101 -7.094491  2.328599 -0.925527 -0.066428
52  -0.000000 -0.000001 0.000000  0.008153 -0.000259 0.000009
53  -0.000001 0.000000 -0.000000  1.565115 0.043565 -0.106862
54  4.789225 -15.855124 -4.109831  -1.346730 -0.988014 -1.560408
55  0.000000 0.000001 -0.000000  0.000000 -0.000000 -0.000002
56  0.000030 0.000030 0.000001  -1.571901 -0.044449 -0.106509
57  7.202790 -19.259499 -17.055128  1.570796 -0.000000 0.000000
58  -23.413219 -15.332631 -23.295113  1.570796 -0.000000 0.000000
59  2.236387 -2.421983 -5.367696  1.570796 -0.000000 0.000000
60  -0.004311 0.001230 -0.000371  0.006898 -0.005534 -0.284229
61  -7.970836 -8.826171 -7.293340  1.570796 -0.000000 0.000000
62  0.000000 0.000000 0.000000  -0.078727 -3.136056 0.284226
63  0.000000 0.000000 0.000000  1.573600 0.007983 -0.000169
64  3.137141 -12.710675 -2.854783  0.417640 0.649069 -0.284097
65  -0.109380 -1.951950 -1.519206  0.000000 -0.000000 0.000000
66  -0.109379 0.057027 25.399250  0.000000 -0.000000 0.000000
67  -0.109380 -1.856731 0.287229  0.000000 -0.000000 0.000000
68  -0.104048 -4.495922 7.879276  0.000000 -0.000000 0.000000
69  -0.195264 4.332632 -6.347187  0.000000 -0.000000 0.000000
70  -1.290112 3.693285 8.579666  0.022713 -0.014049 -0.017451
71  -0.121472 -1.314579 7.402086  0.000000 -0.000000 0.000000
72  -1.107529 -1.063452 4.061647  0.000000 -0.000000 0.000000
73  0.003658 1.612364 10.733981  0.000000 -0.000000 0.000000
74  1.911523 -15.933815 -2.562487  0.668183 0.351589 1.085245
time 5
0  0.000006 0.000000 0.000000  -1.570800 -1.391899 -1.570792
1  -4.849906 3.337897 2.232070  -1.544956 -1.855077 -0.198630
2  6.027521 -0.000322 0.000194  -1.290798 -0.899136 -1.282220
3  11.692106 0.000646 -0.000739  -1.384600 -0.000045 -1.839799
4  11.479550 0.000557 -0.001015  1.719974 -0.219956 -0.265919
5  3.859507 -0.142882 -1.192049  -0.507481 -0.035639 -1.582425
6  1.312590 0.000012 0.000008  -0.117189 -0.051823 -0.339325
7  0.729354 0.000054 0.000050  -0.104248 -0.102722 -0.145459
8  3.942143 0.046272 -0.431512  -0.403080 0.358078 -0.914666
9  1.539110 0.000083 0.000005  0.002234 -0.081181 -0.957871
10  1.196335 0.000144 0.000029  0.025543 0.018300 -0.473188
11  3.883504 -0.047270 0.431381  -0.205881 0.552554 -0.491535
12  1.719573 -0.000027 0.000015  -0.024470 -0.103554 -0.900717
13  1.209180 0.000092 0.000011  0.010540 -0.046303 -0.472765
14  3.859662 -0.138477 1.332410  0.013813 0.511197 -0.350141
15  1.719450 -0.000014 0.000022  -0.022509 0.019639 -0.287088
16  1.099675 0.000050 0.000006  -0.286525 0.346051 -1.053593
17  0.770793 -0.901444 1.177686  -1.023985 -0.400866 -0.530987
18  1.789819 -0.000003 -0.000019  -0.006283 0.079922 0.223803
19  1.207016 -0.000011 -0.000043  0.148664 -0.148095 0.129516
20  5.740634 0.000410 -0.000701  -0.091313 0.000003 0.000070
21  11.480920 0.000319 -0.000860  0.031346 -0.024762 -0.058636
22  6.027524 -0.000329 0.000203  1.986663 -0.543937 1.152857
23  0.000004 11.692099 -0.000006  -1.229205 -0.673970 -0.921466
24  0.000002 0.000009 -0.000001  -0.515490 -0.000031 1.570739
25  0.000000 -0.000011 0.000000  0.868957 0.000002 1.570712
26  -5.600108 9.517296 -8.138350  1.473120 1.855075 -0.198639
27  6.027520 -0.000260 -0.000227  -0.045154 1.078240 -2.027342
28  11.691992 0.000247 0.000858  0.141443 0.000049 -1.508458
29  11.480218 -0.000367 0.000885  -1.825242 0.105401 -0.398269
30  3.859436 -0.132787 1.193063  0.466149 -0.051826 -1.783918
31  1.312559 0.000026 -0.000003  -0.013965 -0.041044 -0.156447
32  0.729345 0.000065 -0.000029  -0.128320 -0.117290 -0.954857
33  3.942046 0.050110 0.430999  0.211501 -0.107596 -1.469120
34  1.539096 0.000010 -0.000000  0.040712 -0.054386 -1.030469
35  1.196299 0.000075 -0.000003  -0.249391 -0.043040 -0.795120
36  3.883410 -0.050501 -0.431085  0.186407 -0.271796 -1.212184
37  1.719564 -0.000079 -0.000005  0.020974 -0.107650 -1.483528
38  1.209197 0.000036 0.000008  -0.324719 0.069674 -0.493483
39  3.859585 -0.149111 -1.331320  -0.108749 -0.195986 -0.481239
40  1.719412 -0.000099 -0.000035  0.017619 -0.052541 -1.458980
41  1.099674 0.000024 0.000006  0.001357 -0.008069 -0.773941
42  0.805978 -0.359853 -1.318337  1.036934 0.313596 -0.555620
43  1.789780 -0.000009 -0.000042  -0.009238 0.080225 -0.078826
44  1.206996 -0.000007 0.000005  -0.009852 0.000505 0.700585
45  5.740571 0.000054 0.000724  -0.100127 -0.000014 0.000021
46  11.480987 -0.000039 0.000926  -0.051666 0.006702 -0.084079
47  6.027514 -0.000273 -0.000237  -1.920492 -0.354398 -1.217088
48  0.000002 11.691975 -0.000005  -1.034416 0.480627 0.813466
49  0.000002 -0.000002 -0.000001  2.413975 -0.000041 1.570856
50  -0.000007 -0.000015 0.000006  2.272644 -0.000030 1.570865
51  -0.918542 -18.934134 -6.625247  1.792130 -0.987495 0.315491
52  0.000000 -0.000001 -0.000001  0.008153 -0.000259 0.000009
53  -0.000000 0.000000 0.000002  1.565115 0.043565 -0.106862
54  4.848797 -15.828581 -4.190263  -1.336212 -0.983397 -1.552185
55  -0.000000 -0.000000 0.000000  0.000000 -0.000000 -0.000002
56  0.000031 0.000029 0.000001  -1.571901 -0.044449 -0.106509
57  7.202790 -19.259499 -17.055128  1.570796 -0.000000 0.000000
58  -23.155787 -15.044190 -22.286381  1.570796 -0.000000 0.000000
59  2.236387 -2.421983 -5.367696  1.570796 -0.000000 0.000000
60  -0.004311 0.001230 -0.000371  0.006898 -0.005534 -0.284229
61  -8.138351 -8.368899 -7.204277  1.570796 -0.000000 0.000000
62  0.000000 0.000000 0.000000  -0.078727 -3.136056 0.284226
63  0.000000 0.000000 0.000000  1.576403 0.015967 -0.000315
64  3.136357 -12.718626 -2.930171  0.425255 0.644809 -0.262516
65  -0.109379 -1.951951 -1.519206  -0.000000 -0.000000 0.000000
66  -0.109380 0.057025 25.399250  -0.000000 -0.000000 0.000000
67  -0.109379 -1.856731 0.287229  -0.000000 -0.000000 0.000000
68  -0.104047 -4.495924 7.879276  -0.000000 -0.000000 0.000000
69  -0.195264 4.332631 -6.347187  -0.000000 -0.000000 0.000000
70  -1.290111 3.693282 8.579668  0.022713 -0.014049 -0.017451
71  -0.121471 -1.314582 7.402087  -0.000000 -0.000000 0.000000
72  -1.107528 -1.063454 4.061647  -0.000000 -0.000000 0.000000
73  0.003659 1.612363 10.733980  -0.000000 -0.000000 0.000000
74  2.446866 -15.830958 -2.428347  0.431792 0.534533 0.938126
time 6
0  0.000006 0.000000 0.000000  -1.570800 -1.391899 -1.570792
1  -4.849906 3.337897 2.232070  -1.544956 -1.855077 -0.198630
2  6.027521 -0.000322 0.000194  -1.294060 -0.895460 -1.281119
3  11.692105 0.000647 -0.000739  -1.384600 -0.000045 -1.842962
4  11.479527 0.000553 -0.001037  1.730036 -0.220760 -0.266776
5  3.859510 -0.142881 -1.192049  -0.506928 -0.040855 -1.595108
6  1.312591 0.000011 0.000008  -0.116830 -0.052573 -0.342789
7  0.729353 0.000054 0.000049  -0.109010 -0.111224 -0.101692
8  3.942145 0.046272 -0.431512  -0.394734 0.369390 -0.890157
9  1.539110 0.000084 0.000006  0.006944 -0.084797 -1.012067
10  1.196332 0.000145 0.000028  0.049359 0.024684 -0.420729
11  3.883506 -0.047271 0.431381  -0.202947 0.553958 -0.485972
12  1.719573 -0.000028 0.000015  -0.025235 -0.102798 -0.895958
13  1.209178 0.000091 0.000012  0.025841 -0.062018 -0.485459
14  3.859663 -0.138476 1.332410  0.013813 0.511197 -0.350141
15  1.719449 -0.000013 0.000022  -0.022509 0.019639 -0.287088
16  1.099675 0.000050 0.000006  -0.286525 0.346051 -1.053593
17  0.770795 -0.901443 1.177685  -1.023985 -0.400866 -0.530987
18  1.789819 -0.000002 -0.000017  -0.006283 0.079922 0.223803
19  1.207015 -0.000012 -0.000045  0.148664 -0.148095 0.129516
20  5.740637 0.000410 -0.000704  -0.089713 0.000003 0.000071
21  11.480917 0.000317 -0.000867  0.033305 -0.025094 -0.058481
22  6.027524 -0.000329 0.000203  1.991266 -0.545404 1.149024
23  0.000002 11.692100 -0.000007  -1.231075 -0.675894 -0.922339
24  0.000002 0.000009 -0.000002  -0.515490 -0.000031 1.570739
25  -0.000000 -0.000011 -0.000001  0.868957 0.000002 1.570712
26  -5.592864 8.979278 -8.331827  1.473120 1.855075 -0.198639
27  6.027521 -0.000260 -0.000225  -0.270591 1.128090 -2.277187
28  11.691988 0.000245 0.000856  0.141440 0.000032 -1.302118
29  11.480365 -0.000229 0.000866  -1.950962 -0.002329 -0.633950
30  3.871403 -0.131815 1.192711  0.472717 -0.061871 -1.722493
31  1.312518 0.025204 -0.003003  -0.015651 -0.058279 -0.179897
32  0.729345 0.000065 -0.000027  -0.120777 -0.103757 -0.893203
33  3.940522 0.051756 0.430692  0.201515 -0.105543 -1.388724
34  1.532586 0.001126 -0.000950  0.042586 -0.062631 -1.030779
35  1.196300 0.000075 -0.000004  -0.228173 -0.035626 -0.763488
36  3.879647 -0.051245 -0.430888  0.153273 -0.262703 -1.131903
37  1.703355 0.002384 -0.001555  0.021771 -0.107390 -1.449681
38  1.209197 0.000035 0.000010  -0.295631 0.066900 -0.468589
39  3.859585 -0.149111 -1.331323  -0.124910 -0.076828 -0.501908
40  1.693485 0.001863 -0.000271  0.015052 -0.049409 -1.399786
41  1.099674 0.000025 0.000006  0.001157 -0.007762 -0.727317
42  0.805979 -0.359853 -1.318338  1.052775 0.273927 -0.505402
43  1.789780 -0.000010 -0.000043  -0.005083 0.040085 -0.094527
44  1.206998 -0.000007 0.000005  -0.006150 -0.001497 0.345809
45  5.740571 0.000057 0.000724  -0.159688 -0.000014 0.000021
46  11.481016 -0.000010 0.000923  -0.081374 -0.003557 -0.131090
47  6.027514 -0.000272 -0.000236  -1.944184 -0.243773 -1.258472
48  0.000001 11.691972 -0.000006  -0.910638 0.370599 0.731208
49  0.000002 0.000001 0.000001  2.413975 -0.000041 1.570856
50  -0.000005 -0.000015 0.000004  2.272644 -0.000030 1.570865
51  -0.423726 -19.816597 -5.690479  1.364070 -0.918714 0.609337
52  0.000000 0.000000 -0.000001  0.008153 -0.000259 0.000009
53  -0.000001 0.000000 0.000001  1.565115 0.043565 -0.106862
54  4.883189 -15.812452 -4.220268  -1.331227 -0.981978 -1.546249
55  0.000001 -0.000001 0.000000  0.000000 -0.000000 -0.000002
56  0.000032 0.000028 0.000001  -1.571902 -0.044449 -0.106509
57  7.202790 -19.259499 -17.055128  1.570796 -0.000000 0.000000
58  -22.868000 -14.721742 -21.158722  1.570796 -0.000000 0.000000
59  2.236387 -2.421983 -5.367696  1.570796 -0.000000 0.000000
60  -0.004311 0.001230 -0.000371  0.006898 -0.005534 -0.284229
61  -8.331829 -7.840757 -7.101412  1.570796 -0.000000 0.000000
62  0.000000 0.000000 0.000000  -0.078727 -3.136056 0.284226
63  0.000000 0.000000 0.000000  1.576390 0.013653 0.000236
64  3.136043 -12.721807 -2.960325  0.427910 0.642540 -0.250840
65  -0.109378 -1.951951 -1.519206  0.000000 -0.000000 0.000000
66  -0.109381 0.057027 25.399254  0.000000 -0.000000 0.000000
67  -0.109378 -1.856731 0.287230  0.000000 -0.000000 0.000000
68  -0.104048 -4.495923 7.879275  0.000000 -0.000000 0.000000
69  -0.195263 4.332631 -6.347187  0.000000 -0.000000 0.000000
70  -1.290112 3.693284 8.579669  0.022713 -0.014049 -0.017451
71  -0.121470 -1.314581 7.402088  0.000000 -0.000000 0.000000
72  -1.107528 -1.063453 4.061647  0.000000 -0.000000 0.000000
73  0.003659 1.612363 10.733982  0.000000 -0.000000 0.000000
74  3.004027 -15.867836 -2.157573  0.136324 0.669513 0.693264
time 7
0  0.000006 0.000000 0.000000  -1.570800 -1.391899 -1.570792
1  -4.849906 3.337897 2.232070  -1.544956 -1.855077 -0.198630
2  6.027521 -0.000322 0.000194  -1.292902 -0.897400 -1.281879
3  11.692104 0.000644 -0.000739  -1.384600 -0.000045 -1.846148
4  11.479497 0.000551 -0.001050  1.716732 -0.221978 -0.265203
5  3.859511 -0.142876 -1.192049  -0.506690 -0.042869 -1.599946
6  1.312590 0.000012 0.000008  -0.116705 -0.052833 -0.343659
7  0.729355 0.000054 0.000050  -0.110754 -0.114491 -0.086036
8  3.942144 0.046276 -0.431512  -0.391673 0.373376 -0.881340
9  1.539111 0.000083 0.000005  0.008670 -0.086031 -1.031353
10  1.196330 0.000146 0.000029  0.058519 0.026659 -0.402091
11  3.883506 -0.047266 0.431382  -0.202038 0.554349 -0.484222
12  1.719573 -0.000024 0.000015  -0.025888 -0.102477 -0.890117
13  1.209180 0.000092 0.000011  0.031790 -0.067466 -0.493837
14  3.859664 -0.138472 1.332410  0.013813 0.511197 -0.350141
15  1.719448 -0.000013 0.000021  -0.022509 0.019639 -0.287088
16  1.099674 0.000047 0.000006  -0.286525 0.346051 -1.053593
17  0.770795 -0.901440 1.177686  -1.023985 -0.400866 -0.530987
18  1.789820 -0.000003 -0.000019  -0.006283 0.079922 0.223803
19  1.207015 -0.000011 -0.000042  0.148664 -0.148095 0.129516
20  5.740636 0.000411 -0.000705  -0.093729 0.000003 0.000071
21  11.480909 0.000318 -0.000868  0.030677 -0.025107 -0.058569
22  6.027524 -0.000329 0.000203  1.989146 -0.544404 1.150267
23  0.000002 11.692101 -0.000007  -1.232958 -0.677833 -0.923216
24  0.000002 0.000009 -0.000002  -0.515490 -0.000031 1.570739
25  -0.000000 -0.000011 -0.000001  0.868957 0.000002 1.570712
26  -5.584991 8.394608 -8.542079  1.473120 1.855075 -0.198639
27  6.027521 -0.000262 -0.000226  -0.332970 1.144207 -2.314897
28  11.691992 0.000244 0.000855  0.141441 0.000030 -1.303905
29  11.480350 -0.000232 0.000867  -1.896490 0.064818 -0.475399
30  3.905112 -0.129077 1.191720  0.487978 -0.092604 -1.546800
31  1.312406 0.096123 -0.011452  -0.017386 -0.107369 -0.254009
32  0.729346 0.000065 -0.000028  -0.094768 -0.067850 -0.716357
33  3.936229 0.056392 0.429828  0.173990 -0.095230 -1.156526
34  1.514246 0.004270 -0.003627  0.047910 -0.085836 -1.032221
35  1.196299 0.000075 -0.000004  -0.166905 -0.018316 -0.673088
36  3.869046 -0.053342 -0.430334  0.063575 -0.222582 -0.903492
37  1.657703 0.009321 -0.005926  0.024555 -0.106541 -1.353940
38  1.209197 0.000036 0.000010  -0.213738 0.055077 -0.398663
39  3.859585 -0.149112 -1.331324  -0.173861 0.045598 -0.510907
40  1.620455 0.007387 -0.000933  0.008839 -0.039678 -1.230805
41  1.099673 0.000025 0.000009  0.000670 -0.006843 -0.594827
42  0.805978 -0.359854 -1.318338  1.071150 0.204107 -0.433066
43  1.789780 -0.000007 -0.000042  -0.000302 0.000015 -0.110381
44  1.206996 -0.000006 0.000006  -0.001806 -0.002056 -0.008973
45  5.740573 0.000059 0.000724  -0.122223 -0.000014 0.000021
46  11.481015 -0.000007 0.000923  -0.067153 0.002715 -0.098802
47  6.027513 -0.000274 -0.000237  -1.943351 -0.212973 -1.239787
48  -0.000001 11.691975 -0.000006  -0.911729 0.371510 0.731964
49  0.000003 -0.000001 -0.000001  2.413975 -0.000041 1.570856
50  -0.000006 -0.000015 0.000005  2.272644 -0.000030 1.570865
51  -0.560321 -19.102007 -5.443946  1.602071 -0.910175 0.358949
52  -0.000001 0.000000 -0.000001  0.008153 -0.000259 0.000009
53  -0.000001 0.000000 -0.000002  1.565115 0.043565 -0.106862
54  4.875936 -15.771253 -4.180107  -1.343044 -0.985623 -1.549419
55  -0.000001 -0.000000 -0.000001  0.000000 -0.000000 -0.000002
56  0.000029 0.000029 0.000000  -1.571902 -0.044449 -0.106509
57  7.202790 -19.259499 -17.055128  1.570796 -0.000000 0.000000
58  -22.569572 -14.387366 -19.989357  1.570796 -0.000000 0.000000
59  2.236387 -2.421983 -5.367696  1.570796 -0.000000 0.000000
60  -0.004311 0.001230 -0.000371  0.006898 -0.005534 -0.284229
61  -8.542082 -7.266820 -6.989626  1.570796 -0.000000 0.000000
62  0.000000 0.000000 0.000000  -0.078727 -3.136056 0.284226
63  0.000000 0.000000 0.000000  1.576279 0.008466 0.001447
64  3.177311 -12.653412 -2.920811  0.421248 0.647811 -0.267855
65  -0.109379 -1.951951 -1.519205  -0.000000 -0.000000 0.000000
66  -0.109381 0.057028 25.399250  -0.000000 -0.000000 0.000000
67  -0.109379 -1.856731 0.287229  -0.174533 -0.000000 0.000000
68  -0.104049 -4.495924 7.879276  -0.000000 -0.000000 0.000000
69  -0.195264 4.332631 -6.347187  -0.000000 -0.000000 0.000000
70  -1.290112 3.693283 8.579668  0.022713 -0.014049 -0.017451
71  -0.121472 -1.314580 7.402088  -0.000000 -0.000000 0.000000
72  -1.107530 -1.063453 4.061647  -0.000000 -0.000000 0.000000
73  0.003657 1.612365 10.733981  -0.000000 -0.000000 0.000000
74  3.420700 -15.779943 -1.632969  0.205479 0.608615 0.634706
time 8
0  0.000006 0.000000 0.000000  -1.570800 -1.391899 -1.570792
1  -4.849906 3.337897 2.232070  -1.544956 -1.855077 -0.198630
2  6.027521 -0.000322 0.000193  -1.289373 -0.900545 -1.282642
3  11.692104 0.000647 -0.000739  -1.384600 -0.000046 -1.852878
4  11.479440 0.000543 -0.001084  1.681107 -0.226923 -0.257977
5  3.859509 -0.142879 -1.192049  -0.506792 -0.042134 -1.597564
6  1.312590 0.000012 0.000008  -0.116879 -0.052421 -0.338070
7  0.729355 0.000053 0.000049  -0.108261 -0.113934 -0.101730
8  3.942143 0.046273 -0.431511  -0.394749 0.369292 -0.890011
9  1.539110 0.000082 0.000006  0.006910 -0.084860 -1.011208
10  1.196332 0.000145 0.000029  0.053718 0.024765 -0.422349
11  3.883505 -0.047269 0.431381  -0.204772 0.552571 -0.489045
12  1.719573 -0.000028 0.000015  -0.026576 -0.102411 -0.881972
13  1.209180 0.000091 0.000011  0.028492 -0.061487 -0.498278
14  3.859663 -0.138474 1.332411  0.013813 0.511197 -0.350141
15  1.719449 -0.000014 0.000022  -0.022509 0.019639 -0.287088
16  1.099675 0.000050 0.000006  -0.286525 0.346051 -1.053593
17  0.770794 -0.901442 1.177687  -1.023985 -0.400866 -0.530987
18  1.789820 -0.000003 -0.000017  -0.006283 0.079922 0.223803
19  1.207015 -0.000012 -0.000044  0.148664 -0.148095 0.129516
20  5.740638 0.000410 -0.000703  -0.102525 0.000003 0.000070
21  11.480900 0.000316 -0.000875  0.023642 -0.025472 -0.058193
22  6.027524 -0.000329 0.000203  1.984807 -0.543439 1.154511
23  -0.000001 11.692101 -0.000006  -1.236941 -0.681936 -0.925058
24  0.000003 0.000008 -0.000000  -0.515490 -0.000031 1.570739
25  -0.000002 -0.000011 0.000000  0.868957 0.000002 1.570712
26  -5.576902 7.793780 -8.758144  1.473120 1.855075 -0.198639
27  6.027522 -0.000262 -0.000226  -0.350799 1.152931 -2.292402
28  11.691988 0.000245 0.000857  0.141441 0.000038 -1.372886
29  11.479914 -0.000473 0.000899  -1.815344 0.197995 -0.198079
30  3.948394 -0.125560 1.190445  0.499385 -0.135592 -1.318583
31  1.312262 0.187182 -0.022301  -0.011206 -0.170983 -0.371381
32  0.729344 0.000066 -0.000027  -0.052347 -0.029006 -0.485711
33  3.930717 0.062346 0.428722  0.142971 -0.072812 -0.854080
34  1.490699 0.008307 -0.007056  0.054900 -0.115595 -1.035564
35  1.196299 0.000075 -0.000002  -0.086047 -0.004325 -0.555270
36  3.855433 -0.056033 -0.429622  -0.034496 -0.142936 -0.615330
37  1.599083 0.018228 -0.011537  0.029583 -0.105226 -1.230717
38  1.209197 0.000036 0.000008  -0.109774 0.031346 -0.310427
39  3.841433 -0.154204 -1.330078  -0.252194 0.041866 -0.470265
40  1.526684 0.014482 -0.001782  0.003499 -0.025725 -1.012016
41  1.099673 0.000024 0.000005  0.000229 -0.005575 -0.423677
42  0.805979 -0.359853 -1.318340  1.075506 0.160521 -0.409080
43  1.789780 -0.000009 -0.000043  -0.000307 0.000110 -0.090682
44  1.206996 -0.000005 0.000005  -0.001804 -0.001862 0.097917
45  5.740572 0.000054 0.000725  -0.063435 -0.000014 0.000021
46  11.480927 -0.000059 0.000930  -0.048496 0.020875 -0.042490
47  6.027515 -0.000274 -0.000237  -1.938977 -0.202429 -1.201930
48  0.000000 11.691974 -0.000006  -0.953526 0.407278 0.760641
49  0.000004 -0.000001 -0.000001  2.413975 -0.000041 1.570856
50  -0.000006 -0.000015 0.000005  2.272644 -0.000030 1.570865
51  -0.811497 -17.782631 -5.388527  1.953791 -0.878219 -0.022461
52  0.000000 0.000000 -0.000001  0.008153 -0.000259 0.000009
53  -0.000000 0.000001 -0.000002  1.565115 0.043565 -0.106862
54  4.847032 -15.684364 -4.113918  -1.365942 -0.989689 -1.566020
55  -0.000000 0.000000 0.000000  0.000000 -0.000000 -0.000002
56  0.000029 0.000029 0.000001  -1.571901 -0.044449 -0.106509
57  7.202790 -19.259499 -17.055128  1.570796 -0.000000 0.000000
58  -22.281788 -14.064919 -18.861698  1.570796 -0.000000 0.000000
59  2.236387 -2.421983 -5.367696  1.570796 -0.000000 0.000000
60  -0.004311 0.001230 -0.000371  0.006898 -0.005534 -0.284229
61  -8.758147 -6.677021 -6.874751  1.570796 -0.000000 0.000000
62  0.000000 0.000000 0.000000  -0.078727 -3.136056 0.284226
63  0.000000 0.000000 0.000000  1.575962 0.003036 0.002657
64  3.276770 -12.502798 -2.847427  0.411640 0.658642 -0.309410
65  -0.109378 -1.951952 -1.519205  -0.000000 0.000000 -0.000000
66  -0.109379 0.057024 25.399254  -0.000000 0.000000 -0.000000
67  -0.109378 -1.856734 0.287230  -0.349066 0.000000 -0.000000
68  -0.104047 -4.495924 7.879277  -0.000000 0.000000 -0.000000
69  -0.195264 4.332629 -6.347186  -0.000000 0.000000 -0.000000
70  -1.290112 3.693282 8.579668  0.022713 -0.014049 -0.017451
71  -0.121469 -1.314583 7.402088  -0.000000 0.000000 -0.000000
72  -1.107528 -1.063454 4.061647  -0.000000 0.000000 -0.000000
73  0.003658 1.612363 10.733982  -0.000000 0.000000 -0.000000
74  3.746019 -15.554502 -1.189932  0.371321 0.516098 0.576661
time 9
0  0.000006 0.000000 0.000000  -1.570800 -1.391899 -1.570792
1  -4.849906 3.337897 2.232070  -1.544956 -1.855077 -0.198630
2  6.027521 -0.000322 0.000194  -1.289259 -0.898681 -1.281553
3  11.692105 0.000646 -0.000739  -1.384600 -0.000047 -1.863330
4  11.479343 0.000534 -0.001135  1.648721 -0.237660 -0.242970
5  3.859509 -0.142879 -1.192049  -0.507071 -0.040062 -1.590858
6  1.312589 0.000012 0.000007  -0.117359 -0.051255 -0.322327
7  0.729355 0.000053 0.000050  -0.101285 -0.112154 -0.145961
8  3.942142 0.046273 -0.431512  -0.403186 0.357652 -0.914297
9  1.539110 0.000083 0.000005  0.002077 -0.081371 -0.954400
10  1.196332 0.000145 0.000029  0.040392 0.018902 -0.479446
11  3.883504 -0.047270 0.431382  -0.212402 0.547504 -0.502572
12  1.719573 -0.000027 0.000015  -0.027488 -0.102315 -0.870444
13  1.209180 0.000091 0.000010  0.018883 -0.044861 -0.501053
14  3.859663 -0.138475 1.332410  0.013813 0.511197 -0.350141
15  1.719449 -0.000012 0.000022  -0.022509 0.019639 -0.287088
16  1.099675 0.000049 0.000006  -0.286525 0.346051 -1.053593
17  0.770794 -0.901442 1.177686  -1.023985 -0.400866 -0.530987
18  1.789820 -0.000003 -0.000019  -0.006283 0.079922 0.223803
19  1.207015 -0.000013 -0.000043  0.148664 -0.148095 0.129516
20  5.740636 0.000410 -0.000701  -0.109121 0.000003 0.000071
21  11.480880 0.000315 -0.000885  0.017244 -0.027044 -0.056139
22  6.027524 -0.000329 0.000203  1.986155 -0.544905 1.154992
23  0.000003 11.692099 -0.000008  -1.243132 -0.688317 -0.927887
24  0.000003 0.000008 0.000000  -0.515490 -0.000031 1.570738
25  -0.000000 -0.000011 -0.000002  0.868957 0.000002 1.570712
26  -5.569030 7.209111 -8.968398  1.473120 1.855075 -0.198639
27  6.027523 -0.000262 -0.000224  -0.378651 1.151940 -2.274222
28  11.691993 0.000243 0.000857  0.141442 0.000039 -1.389913
29  11.479816 -0.000524 0.000905  -1.716081 0.383143 -0.013041
30  3.982103 -0.122823 1.189457  0.501306 -0.169847 -1.141927
31  1.312149 0.258103 -0.030749  0.005828 -0.219764 -0.505642
32  0.729345 0.000065 -0.000028  -0.014219 -0.006298 -0.306932
33  3.926425 0.066982 0.427862  0.124593 -0.049975 -0.623297
34  1.472360 0.011448 -0.009734  0.060644 -0.138752 -1.040872
35  1.196299 0.000076 -0.000002  -0.022494 -0.000101 -0.463287
36  3.844832 -0.058129 -0.429063  -0.091355 -0.065405 -0.402368
37  1.553430 0.025164 -0.015910  0.036243 -0.103560 -1.135139
38  1.209197 0.000035 0.000012  -0.030676 0.006340 -0.243924
39  3.802591 -0.165101 -1.327399  -0.348476 0.027780 -0.413951
40  1.453654 0.020008 -0.002445  0.001768 -0.014296 -0.843231
41  1.099673 0.000025 0.000008  0.000039 -0.004552 -0.291048
42  0.805979 -0.359853 -1.318339  1.220806 0.252953 -0.470828
43  1.789779 -0.000008 -0.000042  -0.002277 -0.000168 -0.101127
44  1.206997 -0.000006 0.000005  -0.000804 -0.000889 0.022911
45  5.740571 0.000055 0.000724  -0.011845 -0.000014 0.000021
46  11.480906 -0.000068 0.000929  -0.030443 0.054574 -0.006239
47  6.027517 -0.000275 -0.000235  -1.945076 -0.192772 -1.157103
48  0.000000 11.691977 -0.000005  -0.963771 0.416274 0.767533
49  0.000004 -0.000001 0.000001  2.413975 -0.000041 1.570856
50  -0.000005 -0.000016 0.000006  2.272644 -0.000030 1.570865
51  -0.825338 -16.863289 -5.679420  2.265929 -0.863247 -0.367570
52  0.000000 0.000000 -0.000001  0.008153 -0.000259 0.000009
53  -0.000000 0.000000 -0.000001  1.565115 0.043565 -0.106862
54  4.852680 -15.579432 -4.095634  -1.375726 -0.985636 -1.591753
55  -0.000000 -0.000001 -0.000000  0.000000 -0.000000 -0.000002
56  0.000029 0.000027 0.000001  -1.571901 -0.044449 -0.106509
57  7.202790 -19.259499 -17.055128  1.570796 -0.000000 0.000000
58  -22.024353 -13.776479 -17.852968  1.570796 -0.000000 0.000000
59  2.236387 -2.421983 -5.367696  1.570796 -0.000000 0.000000
60  -0.004311 0.001230 -0.000371  0.006898 -0.005534 -0.284229
61  -8.968401 -6.103084 -6.762966  1.570796 -0.000000 0.000000
62  0.000000 0.000000 0.000000  -0.078727 -3.136056 0.284226
63  0.000000 0.000000 0.000000  1.575346 -0.000005 0.003207
64  3.397902 -12.351819 -2.807913  0.414390 0.665025 -0.341620
65  -0.109378 -1.951952 -1.519206  0.000000 -0.000000 0.000000
66  -0.109380 0.057025 25.399252  0.000000 -0.000000 0.000000
67  -0.109378 -1.856732 0.287228  -0.349066 -0.000000 0.000000
68  -0.104047 -4.495924 7.879275  0.000000 -0.000000 0.000000
69  -0.195263 4.332628 -6.347187  0.000000 -0.000000 0.000000
70  -1.290111 3.693282 8.579667  0.022713 -0.014049 -0.017451
71  -0.121470 -1.314582 7.402086  0.000000 -0.000000 0.000000
72  -1.107528 -1.063454 4.061646  0.000000 -0.000000 0.000000
73  0.003659 1.612363 10.733981  0.000000 -0.000000 0.000000
74  3.927583 -15.296562 -1.020390  0.515439 0.383527 0.510199
time 10
0  0.000006 0.000000 0.000000  -1.570800 -1.391899 -1.570792
1  -4.849906 3.337897 2.232070  -1.544956 -1.855077 -0.198630
2  6.027521 -0.000322 0.000194  -1.312829 -0.881306 -1.279544
3  11.692107 0.000644 -0.000740  -1.384600 -0.000049 -1.889679
4  11.479107 0.000509 -0.001266  1.701178 -0.279480 -0.202394
5  3.859508 -0.142880 -1.192049  -0.507408 -0.037399 -1.582249
6  1.312590 0.000013 0.000008  -0.117947 -0.049747 -0.302113
7  0.729354 0.000053 0.000049  -0.092452 -0.109421 -0.202754
8  3.942142 0.046272 -0.431512  -0.413523 0.342430 -0.945180
9  1.539111 0.000082 0.000005  -0.003828 -0.076494 -0.881434
10  1.196332 0.000145 0.000028  0.023793 0.010268 -0.552706
11  3.883503 -0.047270 0.431382  -0.222047 0.540869 -0.519812
12  1.719573 -0.000026 0.000015  -0.028400 -0.102206 -0.858507
13  1.209180 0.000090 0.000011  0.006462 -0.023566 -0.502385
14  3.859661 -0.138475 1.332410  0.013813 0.511197 -0.350141
15  1.719449 -0.000011 0.000022  -0.022509 0.019639 -0.287088
16  1.099675 0.000047 0.000006  -0.286525 0.346051 -1.053593
17  0.770793 -0.901443 1.177686  -1.023985 -0.400866 -0.530987
18  1.789820 -0.000003 -0.000017  -0.006283 0.079922 0.223803
19  1.207015 -0.000013 -0.000044  0.148664 -0.148095 0.129516
20  5.740636 0.000411 -0.000704  -0.096354 0.000003 0.000071
21  11.480833 0.000311 -0.000913  0.027439 -0.035740 -0.045872
22  6.027524 -0.000329 0.000203  2.012625 -0.548161 1.124927
23  0.000002 11.692101 -0.000007  -1.258784 -0.704465 -0.934859
24  0.000001 0.000009 -0.000001  -0.515490 -0.000031 1.570739
25  -0.000000 -0.000012 -0.000001  0.868957 0.000002 1.570712
26  -5.561786 6.671094 -9.161875  1.473120 1.855075 -0.198639
27  6.027521 -0.000260 -0.000226  -0.529946 1.148092 -2.409149
28  11.691990 0.000245 0.000856  0.141441 0.000030 -1.306401
29  11.480337 -0.000244 0.000868  -1.721047 0.492029 0.027676
30  3.994070 -0.121851 1.189106  0.500526 -0.181827 -1.079950
31  1.312109 0.283280 -0.033749  0.026596 -0.235054 -0.629177
32  0.729345 0.000066 -0.000027  -0.000023 -0.000019 -0.244285
33  3.924901 0.068628 0.427559  0.119529 -0.041171 -0.543617
34  1.465850 0.012566 -0.010687  0.063134 -0.146993 -1.047446
35  1.196300 0.000076 -0.000004  -0.000007 -0.000009 -0.430782
36  3.841069 -0.058874 -0.428865  -0.106969 -0.036008 -0.329938
37  1.537222 0.027627 -0.017461  0.043499 -0.101254 -1.101550
38  1.209196 0.000035 0.000009  -0.002994 -0.004468 -0.220936
39  3.784439 -0.170195 -1.326149  -0.387630 0.021634 -0.389901
40  1.427726 0.021969 -0.002680  0.002056 -0.010153 -0.784141
41  1.099674 0.000025 0.000004  0.000004 -0.004187 -0.244346
42  0.805978 -0.359854 -1.318338  1.363537 0.353026 -0.520118
43  1.789779 -0.000010 -0.000043  -0.004730 -0.000465 -0.111572
44  1.206997 -0.000006 0.000005  -0.000033 0.000006 -0.052094
45  5.740572 0.000056 0.000724  -0.003022 -0.000014 0.000021
46  11.481012 -0.000014 0.000924  -0.032640 0.075788 0.003364
47  6.027514 -0.000272 -0.000237  -1.972040 -0.136910 -1.149462
48  -0.000001 11.691974 -0.000005  -0.913250 0.372784 0.733022
49  0.000003 -0.000001 -0.000001  2.413975 -0.000041 1.570856
50  -0.000007 -0.000015 0.000007  2.272644 -0.000030 1.570865
51  -0.464880 -16.566418 -5.380290  2.331413 -0.876472 -0.533284
52  -0.000001 0.000000 0.000001  0.008153 -0.000259 0.000009
53  -0.000000 0.000000 0.000000  1.565115 0.043565 -0.106862
54  5.121344 -15.397120 -4.158896  -1.300350 -0.947697 -1.611689
55  -0.000000 -0.000002 0.000000  0.000000 -0.000000 -0.000002
56  0.000030 0.000028 0.000001  -1.571901 -0.044449 -0.106509
57  7.202790 -19.259499 -17.055128  1.570796 -0.000000 0.000000
58  -21.812847 -13.539498 -17.024206  1.570796 -0.000000 0.000000
59  2.236387 -2.421983 -5.367696  1.570796 -0.000000 0.000000
60  -0.004311 0.001230 -0.000371  0.006898 -0.005534 -0.284229
61  -9.161879 -5.574942 -6.660101  1.570796 -0.000000 0.000000
62  0.000000 0.000000 0.000000  -0.078727 -3.136056 0.284226
63  0.000000 0.000000 0.000000  1.571937 -0.000682 0.000754
64  3.475291 -12.282816 -2.823346  0.474668 0.633932 -0.263034
65  -0.109378 -1.951952 -1.519204  -0.000000 -0.000000 0.000000
66  -0.109379 0.057026 25.399250  -0.000000 -0.000000 0.000000
67  -0.109378 -1.856732 0.287231  -0.349066 -0.000000 0.000000
68  -0.104048 -4.495922 7.879276  -0.000000 -0.000000 0.000000
69  -0.195263 4.332630 -6.347186  -0.000000 -0.000000 0.000000
70  -1.290112 3.693284 8.579668  0.022713 -0.014049 -0.017451
71  -0.121470 -1.314582 7.402088  -0.000000 -0.000000 0.000000
72  -1.107528 -1.063452 4.061647  -0.000000 -0.000000 0.000000
73  0.003659 1.612363 10.733982  -0.000000 -0.000000 0.000000
74  4.169194 -15.319567 -0.855982  0.656688 0.213266 0.481865
time 11
0  0.000006 0.000000 0.000000  -1.570800 -1.391899 -1.570792
1  -4.849906 3.337897 2.232070  -1.544956 -1.855077 -0.198630
2  6.027521 -0.000322 0.000193  -1.313482 -0.901287 -1.290256
3  11.692107 0.000645 -0.000739  -1.384600 -0.000047 -1.875801
4  11.479231 0.000522 -0.001199  1.721181 -0.240476 -0.162302
5  3.859510 -0.142879 -1.192049  -0.507655 -0.035324 -1.575546
6  1.312590 0.000014 0.000008  -0.118384 -0.048565 -0.286373
7  0.729355 0.000054 0.000049  -0.085696 -0.106952 -0.246928
8  3.942144 0.046272 -0.431511  -0.421187 0.330375 -0.968997
9  1.539111 0.000084 0.000005  -0.008164 -0.072411 -0.824704
10  1.196331 0.000145 0.000029  0.011345 0.002725 -0.609593
11  3.883506 -0.047268 0.431381  -0.229439 0.535604 -0.533139
12  1.719573 -0.000028 0.000015  -0.029030 -0.102125 -0.850103
13  1.209177 0.000092 0.000012  -0.003231 -0.006990 -0.502837
14  3.859663 -0.138476 1.332411  0.013813 0.511197 -0.350141
15  1.719449 -0.000014 0.000022  -0.022509 0.019639 -0.287088
16  1.099675 0.000049 0.000005  -0.286525 0.346051 -1.053593
17  0.770794 -0.901442 1.177686  -1.023985 -0.400866 -0.530987
18  1.789819 -0.000002 -0.000018  -0.006283 0.079922 0.223803
19  1.207015 -0.000012 -0.000042  0.148664 -0.148095 0.129516
20  5.740636 0.000409 -0.000704  -0.070179 0.000003 0.000071
21  11.480857 0.000313 -0.000899  0.032330 -0.027710 -0.037669
22  6.027524 -0.000329 0.000203  1.997379 -0.533042 1.121554
23  0.000003 11.692100 -0.000007  -1.250532 -0.695950 -0.931216
24  0.000003 0.000007 -0.000002  -0.515490 -0.000031 1.570739
25  -0.000000 -0.000011 -0.000001  0.868957 0.000002 1.570712
26  -5.555514 6.205272 -9.329390  1.473120 1.855075 -0.198639
27  6.027521 -0.000262 -0.000226  -0.740474 1.112255 -2.621972
28  11.691992 0.000243 0.000856  0.141435 0.000024 -1.179860
29  11.480221 -0.000251 0.000869  -1.603334 0.629733 0.174979
30  3.994070 -0.121851 1.189104  0.500526 -0.181827 -1.079950
31  1.312109 0.283280 -0.033749  0.052202 -0.229827 -0.754501
32  0.729345 0.000065 -0.000026  -0.000019 -0.000024 -0.455031
33  3.924900 0.068629 0.427558  0.119529 -0.041171 -0.543617
34  1.465849 0.012566 -0.010684  0.073326 -0.142052 -1.119732
35  1.196299 0.000076 -0.000005  -0.000005 -0.000010 -0.641528
36  3.841069 -0.058874 -0.428866  -0.106968 -0.036008 -0.329938
37  1.537222 0.027627 -0.017461  0.053898 -0.096479 -1.172289
38  1.209197 0.000036 0.000010  -0.001800 -0.005561 -0.431683
39  3.784438 -0.170196 -1.326150  -0.387630 0.021634 -0.389901
40  1.427726 0.021969 -0.002681  0.003031 -0.009927 -0.856155
41  1.099673 0.000025 0.000007  0.000880 -0.004094 -0.455093
42  0.805978 -0.359854 -1.318339  1.371911 0.298308 -0.499676
43  1.789780 -0.000008 -0.000042  -0.005347 -0.000136 -0.103754
44  1.206997 -0.000007 0.000004  -0.000123 -0.000042 -0.038036
45  5.740572 0.000054 0.000725  0.030678 -0.000014 0.000021
46  11.480988 -0.000015 0.000925  -0.017319 0.103448 0.026066
47  6.027514 -0.000274 -0.000237  -2.026093 -0.056804 -1.166474
48  -0.000001 11.691975 -0.000005  -0.835188 0.310129 0.677428
49  0.000003 -0.000001 0.000000  2.413975 -0.000041 1.570856
50  -0.000008 -0.000015 0.000005  2.272644 -0.000030 1.570865
51  0.179491 -16.272522 -4.631293  2.548165 -0.840220 -0.824217
52  0.000000 0.000000 0.000000  0.008153 -0.000259 0.000009
53  -0.000000 -0.000000 -0.000001  1.565115 0.043565 -0.106862
54  5.147742 -15.485762 -3.926871  -1.220082 -0.986728 -1.675037
55  -0.000000 -0.000000 -0.000000  0.000000 -0.000000 -0.000002
56  0.000030 0.000028 0.000001  -1.571901 -0.044449 -0.106509
57  7.202790 -19.259499 -17.055128  1.570796 -0.000000 0.000000
58  -21.657574 -13.365521 -16.415777  1.570796 -0.000000 0.000000
59  2.236387 -2.421983 -5.367696  1.570796 -0.000000 0.000000
60  -0.004311 0.001230 -0.000371  0.006898 -0.005534 -0.284229
61  -9.329393 -5.117671 -6.571038  1.570796 -0.000000 0.000000
62  0.000000 0.000000 0.000000  -0.078727 -3.136056 0.284226
63  0.000000 0.000000 0.000000  1.566443 -0.000941 -0.003798
64  3.440450 -12.324006 -2.795254  0.439084 0.581552 -0.280600
65  -0.109378 -1.951952 -1.519205  0.000000 0.000000 0.000000
66  -0.109378 0.057028 25.399252  0.000000 0.000000 0.000000
67  -0.109378 -1.856731 0.287229  -0.349066 0.000000 0.000000
68  -0.104046 -4.495924 7.879277  0.000000 0.000000 0.000000
69  -0.195263 4.332631 -6.347186  0.000000 0.000000 0.000000
70  -1.290112 3.693285 8.579668  0.022713 -0.014049 -0.017451
71  -0.121470 -1.314581 7.402088  0.000000 0.000000 0.000000
72  -1.107528 -1.063454 4.061647  0.000000 0.000000 0.000000
73  0.003659 1.612363 10.733982  0.000000 0.000000 0.000000
74  4.598109 -16.186920 0.737951  0.439084 0.581552 -0.280600
time 12
0  0.000006 0.000000 0.000000  -1.570800 -1.391899 -1.570792
1  -4.849906 3.337897 2.232070  -1.544956 -1.855077 -0.198630
2  6.027521 -0.000322 0.000193  -1.306443 -0.915834 -1.296039
3  11.692106 0.000644 -0.000739  -1.384600 -0.000046 -1.859836
4  11.479372 0.000537 -0.001121  1.726775 -0.226773 -0.158348
5  3.859509 -0.142881 -1.192050  -0.507739 -0.034586 -1.573166
6  1.312591 0.000012 0.000008  -0.118535 -0.048143 -0.280786
7  0.729354 0.000054 0.000050  -0.083327 -0.106005 -0.262589
8  3.942142 0.046271 -0.431512  -0.423826 0.326055 -0.977403
9  1.539112 0.000084 0.000005  -0.009644 -0.070905 -0.804603
10  1.196334 0.000145 0.000029  0.007038 -0.000117 -0.629733
11  3.883504 -0.047270 0.431381  -0.232037 0.533715 -0.537849
12  1.719573 -0.000025 0.000015  -0.029240 -0.102096 -0.847270
13  1.209179 0.000092 0.000012  -0.006673 -0.001106 -0.502906
14  3.859662 -0.138476 1.332410  0.013813 0.511197 -0.350141
15  1.719448 -0.000012 0.000023  -0.022509 0.019639 -0.287088
16  1.099675 0.000049 0.000006  -0.286525 0.346051 -1.053593
17  0.770794 -0.901443 1.177685  -1.023985 -0.400866 -0.530987
18  1.789820 -0.000002 -0.000017  -0.006283 0.079922 0.223803
19  1.207015 -0.000012 -0.000043  0.148664 -0.148095 0.129516
20  5.740636 0.000410 -0.000703  -0.063668 0.000003 0.000071
21  11.480885 0.000316 -0.000882  0.033613 -0.024969 -0.036875
22  6.027524 -0.000329 0.000203  1.982469 -0.525002 1.128847
23  0.000003 11.692099 -0.000009  -1.241061 -0.686183 -0.926945
24  0.000003 0.000008 -0.000001  -0.515490 -0.000030 1.570738
25  -0.000000 -0.000012 -0.000001  0.868957 0.000002 1.570712
26  -5.550467 5.830471 -9.464172  1.473120 1.855075 -0.198639
27  6.027519 -0.000263 -0.000225  -0.340474 1.288000 -2.223732
28  11.691989 0.000244 0.000857  0.141438 0.000037 -1.321602
29  11.480233 -0.000295 0.000874  -2.007705 0.215442 -0.153917
30  3.994071 -0.121851 1.189108  0.500526 -0.181827 -1.079950
31  1.312109 0.283282 -0.033747  0.085853 -0.219312 -0.896104
32  0.729345 0.000067 -0.000027  -0.000006 -0.000029 -0.917413
33  3.924901 0.068629 0.427559  0.119529 -0.041171 -0.543617
34  1.465849 0.012565 -0.010684  0.096378 -0.127133 -1.290519
35  1.196299 0.000076 -0.000005  0.000000 -0.000011 -1.103910
36  3.841068 -0.058874 -0.428866  -0.106968 -0.036008 -0.329938
37  1.537222 0.027627 -0.017458  0.067721 -0.087124 -1.347019
38  1.209197 0.000036 0.000012  0.000594 -0.005598 -0.894072
39  3.784439 -0.170195 -1.326147  -0.387630 0.021634 -0.389901
40  1.427726 0.021969 -0.002682  0.004466 -0.009367 -1.032454
41  1.099673 0.000024 0.000009  0.002614 -0.003271 -0.917477
42  0.805979 -0.359854 -1.318335  1.372977 0.242861 -0.484485
43  1.789780 -0.000010 -0.000042  -0.005498 0.000480 -0.050548
44  1.206996 -0.000008 0.000005  -0.000216 -0.000080 0.055134
45  5.740572 0.000059 0.000723  -0.091656 -0.000014 0.000021
46  11.480990 -0.000021 0.000923  -0.086521 0.024951 -0.027249
47  6.027514 -0.000275 -0.000237  -1.816694 -0.141232 -1.163924
48  -0.000001 11.691972 -0.000008  -0.922495 0.380580 0.739440
49  0.000003 -0.000001 -0.000002  2.413975 -0.000041 1.570856
50  -0.000008 -0.000016 0.000004  2.272644 -0.000030 1.570865
51  -2.545815 -17.605314 -5.206873  1.719037 -0.787446 -0.175973
52  -0.000000 0.000000 0.000000  0.008153 -0.000259 0.000009
53  0.000000 -0.000000 0.000001  1.565115 0.043565 -0.106862
54  5.077961 -15.596704 -3.802675  -1.199467 -0.998235 -1.691550
55  0.000001 -0.000000 -0.000000  0.000000 -0.000000 -0.000002
56  0.000031 0.000029 0.000001  -1.571901 -0.044449 -0.106509
57  7.202790 -19.259499 -17.055128  1.570796 -0.000000 0.000000
58  -21.563784 -13.260436 -16.048275  1.570796 -0.000000 0.000000
59  2.236387 -2.421983 -5.367696  1.570796 -0.000000 0.000000
60  -0.004311 0.001230 -0.000371  0.006898 -0.005534 -0.284229
61  -9.464176 -4.749749 -6.499378  1.570796 -0.000000 0.000000
62  0.000000 0.000000 0.000000  -0.078727 -3.136056 0.284226
63  0.000000 0.000000 0.000000  1.563566 -0.000992 -0.006249
64  3.357368 -12.422228 -2.728266  0.427854 0.568492 -0.285958
65  -0.109378 -1.951952 -1.519205  -0.000000 -0.000000 0.000000
66  -0.109378 0.057025 25.399254  -0.000000 -0.000000 0.000000
67  -0.109378 -1.856732 0.287230  -0.349066 -0.000000 0.000000
68  -0.104047 -4.495925 7.879278  -0.000000 -0.000000 0.000000
69  -0.195263 4.332630 -6.347188  -0.000000 -0.000000 0.000000
70  -1.290112 3.693283 8.579668  0.022713 -0.014049 -0.017451
71  -0.121470 -1.314580 7.402088  -0.000000 -0.000000 0.000000
72  -1.107528 -1.063453 4.061648  -0.000000 -0.000000 0.000000
73  0.003659 1.612362 10.733983  -0.000000 -0.000000 0.000000
74  4.979288 -16.993746 1.944140  0.427854 0.568492 -0.285958
time 13
0  0.000006 0.000000 0.000000  -1.570800 -1.391899 -1.570792
1  -4.849906 3.337897 2.232070  -1.544956 -1.855077 -0.198630
2  6.027521 -0.000322 0.000193  -1.296519 -0.925670 -1.298937
3  11.692106 0.000646 -0.000740  -1.384600 -0.000045 -1.844481
4  11.479511 0.000552 -0.001042  1.723754 -0.227979 -0.172897
5  3.859509 -0.142880 -1.192049  -0.507739 -0.034586 -1.573166
6  1.312591 0.000012 0.000008  -0.118535 -0.048143 -0.280786
7  0.729357 0.000053 0.000049  -0.083327 -0.106005 -0.262589
8  3.942144 0.046273 -0.431512  -0.423826 0.326055 -0.977403
9  1.539112 0.000081 0.000005  -0.009644 -0.070905 -0.804603
10  1.196330 0.000146 0.000029  0.007038 -0.000117 -0.629733
11  3.883505 -0.047270 0.431382  -0.232037 0.533715 -0.537849
12  1.719573 -0.000026 0.000015  -0.029240 -0.102096 -0.847270
13  1.209177 0.000091 0.000012  -0.006673 -0.001106 -0.502906
14  3.859662 -0.138477 1.332410  0.013813 0.511197 -0.350141
15  1.719449 -0.000012 0.000021  -0.022509 0.019639 -0.287088
16  1.099675 0.000049 0.000006  -0.286525 0.346051 -1.053593
17  0.770794 -0.901443 1.177686  -1.023985 -0.400866 -0.530987
18  1.789819 -0.000004 -0.000018  -0.006283 0.079922 0.223803
19  1.207016 -0.000011 -0.000044  0.148664 -0.148095 0.129516
20  5.740637 0.000409 -0.000704  -0.068175 0.000003 0.000070
21  11.480913 0.000318 -0.000866  0.032863 -0.025356 -0.039857
22  6.027524 -0.000329 0.000203  1.969811 -0.521453 1.140174
23  0.000002 11.692099 -0.000008  -1.231972 -0.676819 -0.922758
24  0.000002 0.000008 -0.000001  -0.515490 -0.000030 1.570738
25  -0.000001 -0.000012 -0.000001  0.868957 0.000002 1.570712
26  -5.546806 5.558519 -9.561969  1.473120 1.855075 -0.198639
27  6.027516 -0.000261 -0.000224  -0.045207 1.263761 -1.866975
28  11.691993 0.000242 0.000857  0.141442 0.000046 -1.463567
29  11.480585 -0.000140 0.000853  -2.394644 0.129634 0.014001
30  3.994071 -0.121852 1.189106  0.500526 -0.181827 -1.079950
31  1.312110 0.283279 -0.033749  0.114445 -0.207450 -1.024479
32  0.729345 0.000067 -0.000027  0.000000 -0.000030 -1.128159
33  3.924901 0.068628 0.427558  0.119529 -0.041171 -0.543617
34  1.465850 0.012566 -0.010685  0.113983 -0.112369 -1.435729
35  1.196300 0.000076 -0.000004  0.000003 -0.000011 -1.314656
36  3.841069 -0.058874 -0.428866  -0.106969 -0.036008 -0.329938
37  1.537222 0.027627 -0.017461  0.078490 -0.077393 -1.488901
38  1.209197 0.000036 0.000012  0.001556 -0.005148 -1.104820
39  3.784439 -0.170196 -1.326149  -0.387630 0.021634 -0.389901
40  1.427727 0.021969 -0.002681  0.005732 -0.008629 -1.170671
41  1.099674 0.000025 0.000007  0.003240 -0.002652 -1.128223
42  0.805979 -0.359854 -1.318338  1.363537 0.353026 -0.520118
43  1.789780 -0.000011 -0.000043  -0.004338 0.001940 0.406895
44  1.206997 -0.000007 0.000004  -0.000024 0.000023 0.524130
45  5.740572 0.000057 0.000723  -0.159112 -0.000014 0.000021
46  11.481060 0.000009 0.000919  -0.164800 0.000499 0.012435
47  6.027513 -0.000274 -0.000236  -1.783024 -0.223673 -1.095995
48  0.000001 11.691973 -0.000007  -1.007789 0.455916 0.796499
49  0.000003 0.000000 -0.000001  2.413975 -0.000041 1.570856
50  -0.000006 -0.000016 0.000004  2.272644 -0.000030 1.570865
51  -3.069202 -16.501888 -6.459319  1.371493 -0.593075 -0.213343
52  0.000000 0.000001 0.000000  0.008153 -0.000259 0.000009
53  0.000000 -0.000001 -0.000000  1.565115 0.043565 -0.106862
54  4.968748 -15.709421 -3.751700  -1.214894 -0.994293 -1.679063
55  0.000001 0.000002 -0.000000  0.000000 -0.000000 -0.000002
56  0.000031 0.000031 0.000001  -1.571901 -0.044449 -0.106509
57  7.202790 -19.259499 -17.055128  1.570796 -0.000000 0.000000
58  -21.532738 -13.225652 -15.926627  1.570796 -0.000000 0.000000
59  2.236387 -2.421983 -5.367696  1.570796 -0.000000 0.000000
60  -0.004311 0.001230 -0.000371  0.006898 -0.005534 -0.284229
61  -9.561974 -4.482789 -6.447384  1.570796 -0.000000 0.000000
62  0.000000 0.000000 0.000000  -0.078727 -3.136056 0.284226
63  0.000000 0.000000 0.000000  1.565440 -0.000730 -0.004629
64  3.258205 -12.539459 -2.648313  0.430781 0.577425 -0.284835
65  -0.109379 -1.951952 -1.519205  0.000000 -0.000000 0.000000
66  -0.109379 0.057025 25.399250  0.000000 -0.000000 0.000000
67  -0.109379 -1.856732 0.287229  -0.174533 -0.000000 0.000000
68  -0.104048 -4.495923 7.879275  0.000000 -0.000000 0.000000
69  -0.195264 4.332629 -6.347187  0.000000 -0.000000 0.000000
70  -1.290112 3.693282 8.579666  0.022713 -0.014049 -0.017451
71  -0.121471 -1.314582 7.402087  0.000000 -0.000000 0.000000
72  -1.107528 -1.063454 4.061647  0.000000 -0.000000 0.000000
73  0.003659 1.612363 10.733980  0.000000 -0.000000 0.000000
74  5.100652 -17.414494 2.383598  0.430781 0.577425 -0.284835
time 14
0  0.000006 0.000000 0.000000  -1.570800 -1.391899 -1.570792
1  -4.849906 3.337897 2.232070  -1.544956 -1.855077 -0.198630
2  6.027521 -0.000322 0.000193  -1.287543 -0.931196 -1.299951
3  11.692106 0.000647 -0.000738  -1.384599 -0.000044 -1.832964
4  11.479615 0.000563 -0.000981  1.717365 -0.235483 -0.192928
5  3.859509 -0.142879 -1.192050  -0.507739 -0.034586 -1.573166
6  1.312588 0.000012 0.000008  -0.118535 -0.048143 -0.280786
7  0.729356 0.000054 0.000049  -0.083327 -0.106005 -0.262589
8  3.942143 0.046274 -0.431512  -0.423826 0.326055 -0.977403
9  1.539110 0.000083 0.000005  -0.009644 -0.070905 -0.804603
10  1.196332 0.000145 0.000029  0.007038 -0.000117 -0.629733
11  3.883504 -0.047269 0.431381  -0.232037 0.533715 -0.537849
12  1.719573 -0.000028 0.000014  -0.029240 -0.102096 -0.847270
13  1.209179 0.000092 0.000012  -0.006673 -0.001106 -0.502906
14  3.859662 -0.138475 1.332409  0.013813 0.511197 -0.350141
15  1.719449 -0.000012 0.000022  -0.022509 0.019639 -0.287088
16  1.099675 0.000050 0.000006  -0.286525 0.346051 -1.053593
17  0.770793 -0.901443 1.177685  -1.023985 -0.400866 -0.530987
18  1.789819 -0.000004 -0.000018  -0.006283 0.079922 0.223803
19  1.207016 -0.000012 -0.000043  0.148664 -0.148095 0.129516
20  5.740636 0.000410 -0.000702  -0.076541 0.000003 0.000071
21  11.480934 0.000320 -0.000853  0.031312 -0.027021 -0.043963
22  6.027524 -0.000329 0.000203  1.960967 -0.520666 1.150750
23  0.000003 11.692099 -0.000008  -1.225167 -0.669815 -0.919566
24  0.000003 0.000007 -0.000001  -0.515490 -0.000031 1.570739
25  -0.000000 -0.000012 -0.000001  0.868957 0.000002 1.570712
26  -5.544605 5.395081 -9.620744  1.473120 1.855075 -0.198639
27  6.027518 -0.000260 -0.000225  0.089195 1.207878 -1.660454
28  11.691992 0.000242 0.000855  0.141449 0.000054 -1.620253
29  11.479398 -0.000842 0.000954  -2.773328 0.184672 0.251298
30  3.859436 -0.132789 1.193061  0.587251 -0.214741 -1.531976
31  1.312557 0.000024 -0.000001  0.135699 -0.204569 -1.125409
32  0.729345 0.000066 -0.000027  -0.000023 -0.000019 -0.244286
33  3.942046 0.050107 0.430996  0.174723 -0.107501 -0.976819
34  1.539094 0.000011 -0.000001  0.124289 -0.107396 -1.512983
35  1.196299 0.000076 -0.000003  -0.000007 -0.000009 -0.430782
36  3.883411 -0.050503 -0.431087  -0.072112 -0.107091 -0.763961
37  1.719563 -0.000080 -0.000003  0.085510 -0.071202 -1.547027
38  1.209197 0.000037 0.000012  -0.002994 -0.004468 -0.220936
39  3.859585 -0.149113 -1.331323  -0.346006 -0.058846 -0.847705
40  1.719410 -0.000098 -0.000036  0.005918 -0.006146 -1.214974
41  1.099672 0.000024 0.000008  0.000004 -0.004187 -0.244346
42  0.805978 -0.359855 -1.318339  1.357338 0.623669 -0.541415
43  1.789779 -0.000008 -0.000042  -0.006122 0.062941 0.302424
44  1.206996 -0.000008 0.000006  -0.007462 -0.000011 0.390714
45  5.740572 0.000054 0.000724  -0.214564 -0.000014 0.000021
46  11.480824 -0.000133 0.000939  -0.240293 -0.013291 0.071910
47  6.027517 -0.000273 -0.000237  -1.785821 -0.294751 -1.015758
48  -0.000002 11.691973 -0.000005  -1.100251 0.543835 0.853390
49  0.000002 -0.000001 0.000000  2.413975 -0.000041 1.570856
50  -0.000007 -0.000015 0.000006  2.272644 -0.000030 1.570865
51  -3.390026 -14.864943 -7.514165  1.075711 -0.470675 -0.343375
52  0.000001 -0.000002 0.000000  0.008153 -0.000259 0.000009
53  -0.000000 -0.000002 0.000000  1.565115 0.043565 -0.106862
54  4.866378 -15.796231 -3.745501  -1.243466 -0.984435 -1.656026
55  0.000001 0.000002 0.000000  0.000000 -0.000000 -0.000002
56  0.000031 0.000030 0.000001  -1.571901 -0.044449 -0.106509
57  7.202790 -19.259499 -17.055128  1.570796 -0.000000 0.000000
58  -21.532738 -13.225652 -15.926627  1.570796 -0.000000 0.000000
59  2.236387 -2.421983 -5.367696  1.570796 -0.000000 0.000000
60  -0.004311 0.001230 -0.000371  0.006898 -0.005534 -0.284229
61  -9.620749 -4.322351 -6.416135  1.570796 -0.000000 0.000000
62  0.000000 0.000000 0.000000  -0.078727 -3.136056 0.284226
63  0.000000 0.000000 0.000000  1.568921 -0.000253 -0.001621
64  3.175122 -12.637681 -2.581325  0.438920 0.594670 -0.281174
65  -0.109378 -1.951951 -1.519206  0.000000 0.000000 0.000000
66  -0.109379 0.057028 25.399250  0.000000 0.000000 0.000000
67  -0.109378 -1.856731 0.287229  0.000000 0.000000 0.000000
68  -0.104048 -4.495923 7.879277  0.000000 0.000000 0.000000
69  -0.195264 4.332629 -6.347187  0.000000 0.000000 0.000000
70  -1.290113 3.693283 8.579668  0.022713 -0.014049 -0.017451
71  -0.121469 -1.314582 7.402089  0.000000 0.000000 0.000000
72  -1.107528 -1.063452 4.061647  0.000000 0.000000 0.000000
73  0.003659 1.612363 10.733982  0.000000 0.000000 0.000000
74  5.113997 -17.611486 2.423048  0.438920 0.594670 -0.281174
time 15
0  0.000006 0.000000 0.000000  -1.570800 -1.391899 -1.570792
1  -4.849906 3.337897 2.232070  -1.544956 -1.855077 -0.198630
2  6.027521 -0.000322 0.000193  -1.282805 -0.929707 -1.297959
3  11.692105 0.000645 -0.000739  -1.384599 -0.000044 -1.830167
4  11.479640 0.000565 -0.000965  1.709168 -0.247846 -0.213716
5  3.859509 -0.142880 -1.192050  -0.507739 -0.034586 -1.573166
6  1.312589 0.000012 0.000008  -0.118535 -0.048143 -0.280786
7  0.729354 0.000054 0.000050  -0.083327 -0.106005 -0.262589
8  3.942143 0.046273 -0.431512  -0.423826 0.326055 -0.977403
9  1.539110 0.000083 0.000004  -0.009644 -0.070905 -0.804603
10  1.196331 0.000146 0.000029  0.007038 -0.000117 -0.629733
11  3.883504 -0.047269 0.431381  -0.232037 0.533715 -0.537849
12  1.719573 -0.000027 0.000015  -0.029240 -0.102096 -0.847270
13  1.209179 0.000090 0.000013  -0.006673 -0.001106 -0.502906
14  3.859662 -0.138476 1.332410  0.013813 0.511197 -0.350141
15  1.719449 -0.000013 0.000021  -0.022509 0.019639 -0.287088
16  1.099675 0.000046 0.000006  -0.286525 0.346051 -1.053593
17  0.770794 -0.901442 1.177685  -1.023985 -0.400866 -0.530987
18  1.789819 -0.000003 -0.000017  -0.006283 0.079922 0.223803
19  1.207016 -0.000010 -0.000044  0.148664 -0.148095 0.129516
20  5.740637 0.000411 -0.000703  -0.087015 0.000003 0.000070
21  11.480939 0.000321 -0.000852  0.029304 -0.029623 -0.048226
22  6.027524 -0.000329 0.000203  1.959536 -0.523613 1.157254
23  0.000002 11.692099 -0.000008  -1.223516 -0.668117 -0.918785
24  0.000003 0.000008 -0.000001  -0.515490 -0.000031 1.570739
25  -0.000001 -0.000011 -0.000002  0.868957 0.000002 1.570712
26  -5.543877 5.341016 -9.640185  1.473120 1.855075 -0.198639
27  6.027514 -0.000260 -0.000225  0.413052 1.176320 -1.313868
28  11.691991 0.000244 0.000856  0.141451 0.000066 -1.786677
29  11.479802 -0.000674 0.000928  -2.891054 0.203258 0.346268
30  3.859437 -0.132788 1.193062  0.587250 -0.214741 -1.531976
31  1.312559 0.000025 -0.000000  0.135699 -0.204569 -1.125409
32  0.729345 0.000063 -0.000027  -0.000023 -0.000019 -0.244285
33  3.942047 0.050108 0.430997  0.174723 -0.107501 -0.976819
34  1.539097 0.000009 0.000002  0.124289 -0.107396 -1.512983
35  1.196300 0.000075 -0.000004  -0.000007 -0.000009 -0.430783
36  3.883411 -0.050502 -0.431088  -0.072112 -0.107091 -0.763961
37  1.719565 -0.000080 -0.000003  0.085510 -0.071202 -1.547027
38  1.209196 0.000035 0.000012  -0.002994 -0.004468 -0.220936
39  3.859586 -0.149112 -1.331323  -0.346006 -0.058846 -0.847705
40  1.719412 -0.000100 -0.000035  0.005918 -0.006146 -1.214974
41  1.099672 0.000024 0.000006  0.000004 -0.004187 -0.244346
42  0.805979 -0.359854 -1.318339  1.357338 0.623669 -0.541415
43  1.789779 -0.000009 -0.000041  -0.006122 0.062941 0.302423
44  1.206996 -0.000007 0.000005  -0.007462 -0.000011 0.390714
45  5.740571 0.000056 0.000724  -0.230109 -0.000014 0.000021
46  11.480904 -0.000099 0.000934  -0.263895 -0.022811 0.094447
47  6.027514 -0.000273 -0.000236  -1.688840 -0.377364 -1.002508
48  0.000001 11.691974 -0.000005  -1.197829 0.641823 0.906368
49  0.000003 0.000000 0.000000  2.413975 -0.000041 1.570856
50  -0.000005 -0.000014 0.000006  2.272644 -0.000030 1.570865
51  -4.898123 -14.308551 -7.962198  0.970284 -0.443647 -0.403608
52  -0.000001 0.000001 -0.000001  0.008153 -0.000259 0.000009
53  0.000000 -0.000001 0.000000  1.565115 0.043565 -0.106862
54  4.806220 -15.821276 -3.795017  -1.278536 -0.971070 -1.627876
55  0.000001 0.000002 -0.000000  0.000000 -0.000000 -0.000002
56  0.000032 0.000031 0.000001  -1.571902 -0.044449 -0.106509
57  7.202790 -19.259499 -17.055128  1.570796 -0.000000 0.000000
58  -21.532738 -13.225652 -15.926627  1.570796 -0.000000 0.000000
59  2.236387 -2.421983 -5.367696  1.570796 -0.000000 0.000000
60  -0.004311 0.001230 -0.000371  0.006898 -0.005534 -0.284229
61  -9.640190 -4.269279 -6.405798  1.570796 -0.000000 0.000000
62  0.000000 0.000000 0.000000  -0.078727 -3.136056 0.284226
63  0.000000 0.000000 0.000000  1.570796 -0.000000 0.000000
64  3.140281 -12.678871 -2.553233  0.449917 0.616602 -0.275846
65  -0.109379 -1.951951 -1.519205  0.000000 -0.000000 0.000000
66  -0.109377 0.057028 25.399250  0.000000 -0.000000 0.000000
67  -0.109379 -1.856730 0.287229  0.000000 -0.000000 0.000000
68  -0.104047 -4.495921 7.879275  0.000000 -0.000000 0.000000
69  -0.195263 4.332630 -6.347187  0.000000 -0.000000 0.000000
70  -1.290112 3.693286 8.579668  0.022713 -0.014049 -0.017451
71  -0.121470 -1.314579 7.402087  0.000000 -0.000000 0.000000
72  -1.107529 -1.063452 4.061646  0.000000 -0.000000 0.000000
73  0.003659 1.612365 10.733981  0.000000 -0.000000 0.000000
74  5.166537 -17.727390 2.340482  0.449917 0.616602 -0.275846
end
