version 1
nodes
0 "ValveBiped.Bip01_Spine4" -1
1 "ValveBiped.Bip01_L_Clavicle" 0
2 "ValveBiped.Bip01_L_UpperArm" 1
3 "ValveBiped.Bip01_L_Forearm" 2
4 "ValveBiped.Bip01_L_Hand" 3
5 "ValveBiped.Bip01_L_Finger4" 4
6 "ValveBiped.Bip01_L_Finger41" 5
7 "ValveBiped.Bip01_L_Finger42" 6
8 "ValveBiped.Bip01_L_Finger3" 4
9 "ValveBiped.Bip01_L_Finger31" 8
10 "ValveBiped.Bip01_L_Finger32" 9
11 "ValveBiped.Bip01_L_Finger2" 4
12 "ValveBiped.Bip01_L_Finger21" 11
13 "ValveBiped.Bip01_L_Finger22" 12
14 "ValveBiped.Bip01_L_Finger1" 4
15 "ValveBiped.Bip01_L_Finger11" 14
16 "ValveBiped.Bip01_L_Finger12" 15
17 "ValveBiped.Bip01_L_Finger0" 4
18 "ValveBiped.Bip01_L_Finger01" 17
19 "ValveBiped.Bip01_L_Finger02" 18
20 "ValveBiped.Bip01_L_Ulna" 3
21 "ValveBiped.Bip01_L_Wrist" 3
22 "rig_l_upperarm" 1
23 "rig_l_forearm" 22
24 "rig_d_l_forearm" 23
25 "rig_d_l_upperarm" 22
26 "ValveBiped.Bip01_R_Clavicle" 0
27 "ValveBiped.Bip01_R_UpperArm" 26
28 "ValveBiped.Bip01_R_Forearm" 27
29 "ValveBiped.Bip01_R_Hand" 28
30 "ValveBiped.Bip01_R_Finger4" 29
31 "ValveBiped.Bip01_R_Finger41" 30
32 "ValveBiped.Bip01_R_Finger42" 31
33 "ValveBiped.Bip01_R_Finger3" 29
34 "ValveBiped.Bip01_R_Finger31" 33
35 "ValveBiped.Bip01_R_Finger32" 34
36 "ValveBiped.Bip01_R_Finger2" 29
37 "ValveBiped.Bip01_R_Finger21" 36
38 "ValveBiped.Bip01_R_Finger22" 37
39 "ValveBiped.Bip01_R_Finger1" 29
40 "ValveBiped.Bip01_R_Finger11" 39
41 "ValveBiped.Bip01_R_Finger12" 40
42 "ValveBiped.Bip01_R_Finger0" 29
43 "ValveBiped.Bip01_R_Finger01" 42
44 "ValveBiped.Bip01_R_Finger02" 43
45 "ValveBiped.Bip01_R_Ulna" 28
46 "ValveBiped.Bip01_R_Wrist" 28
47 "rig_r_upperarm" 26
48 "rig_r_forearm" 47
49 "rig_d_r_forearm" 48
50 "rig_d_r_upperarm" 47
51 "rig_r_hand" -1
52 "rig_d_r_hand" 51
53 "rig_d_r_wrist" 52
54 "rig_l_hand" -1
55 "rig_d_l_hand" 54
56 "rig_d_l_wrist" 54
57 "rig_l_pole" -1
58 "rig_r_pole" -1
59 "rig_l_clavicle" -1
60 "rig_d_l_clavicle" 59
61 "rig_r_clavicle" -1
62 "rig_d_r_clavicle" 61
63 "Camera" -1
64 "body" -1
65 "hammer" 64
66 "barrel" 64
67 "cylinderlock" 64
68 "cylinder" 67
69 "cylinderpush" 68
70 "trigger" 64
71 "cylrel" 64
72 "bullet1" -1
73 "bullet2" -1
74 "bullet3" -1
75 "bullet4" -1
76 "bullet5" -1
77 "bullet6" -1
78 "speedloader" -1
end
skeleton
time 0
0  0.000006 0.000000 0.000000  -1.570800 -1.391899 -1.570792
1  2.033349 1.000767 1.937657  -1.544956 -1.855077 -0.198630
2  6.027515 -0.000324 0.000201  -1.583284 0.045954 -0.585171
3  11.692119 0.000650 -0.000737  -0.000012 0.000001 -0.056696
4  11.481224 0.000160 -0.000727  1.576889 -0.106574 0.041971
5  3.859504 -0.142825 -1.192079  -0.468169 0.151546 -0.880257
6  1.312590 0.000009 0.000007  -0.000027 0.000044 -0.439740
7  0.729357 0.000054 0.000049  0.000017 0.000021 -0.244317
8  3.942141 0.046330 -0.431543  -0.151817 0.073216 -0.811086
9  1.539113 0.000082 0.000004  -0.000007 0.000021 -0.247842
10  1.196331 0.000148 0.000029  0.000011 0.000018 -0.430770
11  3.883512 -0.047212 0.431351  0.085894 0.021858 -0.587909
12  1.719573 -0.000030 0.000017  0.000015 0.005518 -0.366533
13  1.209181 0.000090 0.000012  0.000004 0.003091 -0.216438
14  3.859679 -0.138420 1.332380  0.354466 -0.042717 -0.531784
15  1.719446 -0.000022 0.000029  0.000028 0.004066 -0.363025
16  1.099675 0.000049 0.000005  0.000003 0.002578 -0.244381
17  0.806011 -0.349039 1.321247  -1.222694 -0.679188 -0.788867
18  1.789819 -0.000005 -0.000017  0.000011 -0.000024 0.228523
19  1.207014 -0.000014 -0.000043  0.000002 -0.000008 0.362856
20  5.740638 0.000388 -0.000698  0.003035 0.000003 0.000063
21  11.481259 0.000207 -0.000799  0.004953 0.000188 -0.001556
22  6.027525 -0.000330 0.000200  0.059595 -2.453119 -2.193920
23  0.000000 11.692101 -0.000007  -0.043320 -0.000838 -0.036616
24  0.000003 0.000010 0.000000  0.868996 -0.000031 1.570739
25  -0.000001 -0.000012 -0.000001  0.868960 0.000002 1.570712
26  2.033355 1.000772 -1.937609  1.473120 1.855075 -0.198639
27  6.027509 -0.000259 -0.000229  1.637176 -0.060228 -0.592196
28  11.691992 0.000163 0.000858  -0.000050 -0.000001 -0.007067
29  11.539204 0.000316 0.000816  -1.562466 0.108529 -0.061253
30  3.859438 -0.132760 1.193065  0.466290 -0.158048 -0.878823
31  1.312559 0.000023 0.000001  0.000013 -0.000043 -0.439709
32  0.729345 0.000065 -0.000027  -0.000023 -0.000019 -0.244286
33  3.942046 0.050138 0.431000  0.150091 -0.079181 -0.810189
34  1.539099 0.000006 0.000000  0.000009 -0.000007 -0.247824
35  1.196302 0.000075 -0.000004  -0.000007 -0.000009 -0.430781
36  3.883415 -0.050474 -0.431084  -0.085915 -0.026392 -0.587660
37  1.719564 -0.000085 -0.000004  -0.000006 -0.007962 -0.366486
38  1.209197 0.000034 0.000011  0.000002 -0.004461 -0.216413
39  3.859588 -0.149084 -1.331321  -0.354445 0.038578 -0.531955
40  1.719413 -0.000099 -0.000036  -0.000030 -0.006584 -0.363030
41  1.099674 0.000025 0.000006  0.000004 -0.004188 -0.244347
42  0.805982 -0.359850 -1.318338  1.221444 0.673631 -0.793558
43  1.789779 -0.000010 -0.000040  -0.000028 0.000031 0.228553
44  1.206995 -0.000006 0.000007  -0.000017 0.000020 0.362910
45  5.740573 0.000079 0.000723  0.026990 -0.000014 0.000028
46  11.492787 0.000137 0.000908  0.000504 0.000315 -0.022541
47  6.027515 -0.000273 -0.000228  0.074799 -0.634128 -2.207435
48  -0.000001 11.691977 -0.000007  -0.005397 0.000036 0.004562
49  0.000002 -0.000001 0.000001  2.272571 -0.000036 1.570860
50  -0.000008 -0.000014 0.000004  2.272645 -0.000036 1.570861
51  -22.620094 0.844507 -17.554111  -1.605366 2.379717 -0.041994
52  -0.000000 0.000001 -0.000000  0.008153 -0.000259 0.000009
53  0.000001 -0.000001 0.000000  1.565115 0.043565 -0.106862
54  22.676517 -0.984221 -17.554199  1.605712 0.761853 0.042358
55  0.000001 -0.000003 -0.000000  0.000000 -0.000001 -0.000002
56  0.000032 0.000027 0.000001  -1.571901 -0.044449 -0.106509
57  15.265023 8.339654 -8.787539  1.570796 -0.000000 0.000000
58  -15.265000 8.339654 -8.787539  1.570796 -0.000000 0.000000
59  1.941978 -1.346989 1.821586  1.570796 -0.000000 0.000000
60  -0.004311 0.001230 -0.000371  0.006898 -0.005534 -0.284229
61  -1.937603 -1.346625 1.822824  1.570796 -0.000000 0.000000
62  0.000000 0.000000 0.000000  -0.078727 -3.136056 0.284226
63  0.000000 0.000000 0.000000  1.570796 -0.000000 0.000000
64  -3.534368 -10.111034 -2.851932  1.570796 -0.000000 0.000000
65  -0.143794 1.243191 1.790707  0.000000 -0.000000 0.000000
66  0.000001 2.431489 11.900957  0.000000 -0.000000 0.000000
67  0.151288 0.906791 4.692154  0.000000 -0.000000 0.000000
68  -0.151288 1.013638 -0.467878  0.000000 -0.000000 0.000000
69  0.000000 -0.000000 2.081793  0.000000 -0.000000 0.000000
70  0.000000 0.884824 2.687938  0.000000 -0.000000 0.000000
71  0.299800 1.920429 2.128872  0.000000 -0.000000 0.000000
72  -3.535433 -13.118125 -0.421628  1.570796 -0.000000 0.000000
73  -3.099609 -13.118127 -0.679613  1.570796 -0.000000 0.000000
74  -3.102738 -13.118127 -1.178184  1.570796 -0.000000 0.000000
75  -3.534845 -13.118125 -1.432538  1.570796 -0.000000 0.000000
76  -3.968438 -13.118125 -1.178268  1.570796 -0.000000 0.000000
77  -3.970815 -13.118125 -0.680112  1.570796 -0.000000 0.000000
78  -1.363209 -12.825721 -0.927084  1.570796 -0.000000 0.000000
end
triangles
lowpoly_metal
0  -0.563210 -12.826202 -0.927191  0.923880 -0.000000 0.382683  0.047402 0.750753 1 78 1.000000
0  -0.797525 -12.298578 -0.361505  0.923880 -0.000000 0.382683  0.047402 0.750753 1 78 1.000000
0  -0.797525 -12.826202 -0.361506  0.923880 -0.000000 0.382683  0.047402 0.750753 1 78 1.000000
lowpoly_metal
0  -0.797525 -12.826202 -0.361506  0.382685 -0.000000 0.923879  0.047402 0.750753 1 78 1.000000
0  -1.363210 -12.298578 -0.127191  0.382685 -0.000000 0.923879  0.047402 0.750753 1 78 1.000000
0  -1.363210 -12.826202 -0.127191  0.382685 -0.000000 0.923879  0.047402 0.750753 1 78 1.000000
lowpoly_metal
0  -1.363210 -12.826202 -0.127191  -0.382684 -0.000000 0.923879  0.047402 0.750753 1 78 1.000000
0  -1.928896 -12.298578 -0.361505  -0.382684 -0.000000 0.923879  0.047402 0.750753 1 78 1.000000
0  -1.928896 -12.826202 -0.361505  -0.382684 -0.000000 0.923879  0.047402 0.750753 1 78 1.000000
lowpoly_metal
0  -1.928896 -12.826202 -0.361505  -0.923880 -0.000000 0.382684  0.047402 0.750753 1 78 1.000000
0  -2.163210 -12.298578 -0.927191  -0.923880 -0.000000 0.382684  0.047402 0.750753 1 78 1.000000
0  -2.163210 -12.826202 -0.927191  -0.923880 -0.000000 0.382684  0.047402 0.750753 1 78 1.000000
lowpoly_metal
0  -2.163210 -12.826202 -0.927191  -0.923879 0.000000 -0.382684  0.047402 0.750753 1 78 1.000000
0  -1.928896 -12.298578 -1.492876  -0.923879 0.000000 -0.382684  0.047402 0.750753 1 78 1.000000
0  -1.928896 -12.826202 -1.492876  -0.923879 0.000000 -0.382684  0.047402 0.750753 1 78 1.000000
lowpoly_metal
0  -1.928896 -12.826202 -1.492876  -0.382684 0.000000 -0.923879  0.047402 0.750753 1 78 1.000000
0  -1.363210 -12.298578 -1.727191  -0.382684 0.000000 -0.923879  0.047402 0.750753 1 78 1.000000
0  -1.363211 -12.826202 -1.727191  -0.382684 0.000000 -0.923879  0.047402 0.750753 1 78 1.000000
lowpoly_metal
0  -0.736678 -12.298578 -0.567063  0.000000 1.000000 0.000000  0.047402 0.750753 1 78 1.000000
0  -0.797525 -12.298578 -0.361505  0.000000 1.000000 0.000000  0.047402 0.750753 1 78 1.000000
0  -0.563210 -12.298578 -0.927191  0.000000 1.000000 0.000000  0.047402 0.750753 1 78 1.000000
lowpoly_metal
0  -1.594333 -12.298578 -1.059030  0.000000 1.000000 0.000000  0.047402 0.750753 1 78 1.000000
0  -1.592947 -12.298578 -0.792951  0.000000 1.000000 0.000000  0.047402 0.750753 1 78 1.000000
0  -1.132088 -12.298578 -0.795353  0.000000 1.000000 0.000000  0.047402 0.750753 1 78 1.000000
lowpoly_metal
0  -1.989743 -12.298578 -1.287319  0.000000 1.000000 -0.000035  0.047402 0.750753 1 78 1.000000
0  -1.928896 -12.298578 -1.492876  0.000000 1.000000 -0.000035  0.047402 0.750753 1 78 1.000000
0  -2.163210 -12.298578 -0.927191  0.000000 1.000000 -0.000035  0.047402 0.750753 1 78 1.000000
lowpoly_metal
0  -1.363211 -12.826202 -1.727191  0.382683 0.000000 -0.923880  0.047402 0.750753 1 78 1.000000
0  -0.797525 -12.298578 -1.492877  0.382683 0.000000 -0.923880  0.047402 0.750753 1 78 1.000000
0  -0.797525 -12.826202 -1.492877  0.382683 0.000000 -0.923880  0.047402 0.750753 1 78 1.000000
lowpoly_metal
0  -0.797525 -12.826202 -1.492877  0.923879 0.000000 -0.382684  0.047402 0.750753 1 78 1.000000
0  -0.563210 -12.298578 -0.927191  0.923879 0.000000 -0.382684  0.047402 0.750753 1 78 1.000000
0  -0.563210 -12.826202 -0.927191  0.923879 0.000000 -0.382684  0.047402 0.750753 1 78 1.000000
lowpoly_metal
0  -1.559528 -12.826202 -0.546970  1.000000 0.000002 0.000000  0.047402 0.750753 1 78 1.000000
0  -1.559529 -12.298578 -0.318679  1.000000 0.000002 0.000000  0.047402 0.750753 1 78 1.000000
0  -1.559528 -12.826202 -0.318680  1.000000 0.000002 0.000000  0.047402 0.750753 1 78 1.000000
lowpoly_metal
0  -1.559529 -12.298578 -0.546969  0.499999 -0.000000 0.866026  0.047402 0.750753 1 78 1.000000
0  -1.361824 -12.826202 -0.661115  0.499999 -0.000000 0.866026  0.047402 0.750753 1 78 1.000000
0  -1.361825 -12.298578 -0.661114  0.499999 -0.000000 0.866026  0.047402 0.750753 1 78 1.000000
lowpoly_metal
0  -0.563210 -12.826202 -0.927191  0.000000 -1.000000 -0.000002  0.047402 0.750753 1 78 1.000000
0  -0.736677 -12.826202 -0.567063  0.000000 -1.000000 -0.000002  0.047402 0.750753 1 78 1.000000
0  -0.736677 -12.826202 -0.795353  0.000000 -1.000000 -0.000002  0.047402 0.750753 1 78 1.000000
lowpoly_metal
0  -1.988355 -12.826202 -0.564662  0.000000 -1.000000 0.000034  0.047402 0.750753 1 78 1.000000
0  -1.928896 -12.826202 -0.361505  0.000000 -1.000000 0.000034  0.047402 0.750753 1 78 1.000000
0  -2.163210 -12.826202 -0.927191  0.000000 -1.000000 0.000034  0.047402 0.750753 1 78 1.000000
lowpoly_metal
0  -1.594332 -12.826202 -1.059030  0.000000 -1.000000 0.000001  0.047402 0.750753 1 78 1.000000
0  -1.364594 -12.826202 -1.193269  0.000000 -1.000000 0.000001  0.047402 0.750753 1 78 1.000000
0  -1.361824 -12.826202 -0.661115  0.000000 -1.000000 0.000001  0.047402 0.750753 1 78 1.000000
lowpoly_metal
0  -1.166890 -12.826202 -1.307415  -1.000000 -0.000001 0.000002  0.047402 0.750753 1 78 1.000000
0  -1.166891 -12.298578 -1.535704  -1.000000 -0.000001 0.000002  0.047402 0.750753 1 78 1.000000
0  -1.166890 -12.826202 -1.535704  -1.000000 -0.000001 0.000002  0.047402 0.750753 1 78 1.000000
lowpoly_metal
0  -0.738062 -12.826202 -1.061431  -1.000000 -0.000002 0.000001  0.047402 0.750753 1 78 1.000000
0  -0.738063 -12.298578 -1.289720  -1.000000 -0.000002 0.000001  0.047402 0.750753 1 78 1.000000
0  -0.738062 -12.826202 -1.289721  -1.000000 -0.000002 0.000001  0.047402 0.750753 1 78 1.000000
lowpoly_metal
0  -1.792038 -12.298578 -0.944884  -0.500000 0.000000 -0.866025  0.047402 0.750753 1 78 1.000000
0  -1.594332 -12.826202 -1.059030  -0.500000 0.000000 -0.866025  0.047402 0.750753 1 78 1.000000
0  -1.792037 -12.826202 -0.944885  -0.500000 0.000000 -0.866025  0.047402 0.750753 1 78 1.000000
lowpoly_metal
0  -1.364595 -12.298578 -1.193269  -0.499999 0.000000 -0.866026  0.047402 0.750753 1 78 1.000000
0  -1.166890 -12.826202 -1.307415  -0.499999 0.000000 -0.866026  0.047402 0.750753 1 78 1.000000
0  -1.364594 -12.826202 -1.193269  -0.499999 0.000000 -0.866026  0.047402 0.750753 1 78 1.000000
lowpoly_metal
0  -1.792037 -12.826202 -1.401465  0.500000 -0.000000 0.866025  0.047402 0.750753 1 78 1.000000
0  -1.989743 -12.298578 -1.287319  0.500000 -0.000000 0.866025  0.047402 0.750753 1 78 1.000000
0  -1.989742 -12.826202 -1.287320  0.500000 -0.000000 0.866025  0.047402 0.750753 1 78 1.000000
lowpoly_metal
0  -1.594332 -12.826202 -1.059030  -1.000000 -0.000002 0.000001  0.047402 0.750753 1 78 1.000000
0  -1.594333 -12.298578 -1.287320  -1.000000 -0.000002 0.000001  0.047402 0.750753 1 78 1.000000
0  -1.594332 -12.826202 -1.287320  -1.000000 -0.000002 0.000001  0.047402 0.750753 1 78 1.000000
lowpoly_metal
0  -1.989742 -12.826202 -1.059030  0.499998 0.000002 -0.866027  0.047402 0.750753 1 78 1.000000
0  -1.792038 -12.298578 -0.944884  0.499998 0.000002 -0.866027  0.047402 0.750753 1 78 1.000000
0  -1.792037 -12.826202 -0.944885  0.499998 0.000002 -0.866027  0.047402 0.750753 1 78 1.000000
lowpoly_metal
0  -0.935768 -12.298578 -1.403865  -0.499999 -0.000002 0.866026  0.047402 0.750753 1 78 1.000000
0  -0.738062 -12.826202 -1.289721  -0.499999 -0.000002 0.866026  0.047402 0.750753 1 78 1.000000
0  -0.738063 -12.298578 -1.289720  -0.499999 -0.000002 0.866026  0.047402 0.750753 1 78 1.000000
lowpoly_metal
0  -1.989742 -12.826202 -1.059030  1.000000 0.000002 -0.000001  0.047402 0.750753 1 78 1.000000
0  -1.989743 -12.298578 -1.287319  1.000000 0.000002 -0.000001  0.047402 0.750753 1 78 1.000000
0  -1.989743 -12.298578 -1.059029  1.000000 0.000002 -0.000001  0.047402 0.750753 1 78 1.000000
lowpoly_metal
0  -0.935767 -12.826202 -0.947286  -0.500001 0.000000 -0.866025  0.047402 0.750753 1 78 1.000000
0  -0.738063 -12.298578 -1.061430  -0.500001 0.000000 -0.866025  0.047402 0.750753 1 78 1.000000
0  -0.738062 -12.826202 -1.061431  -0.500001 0.000000 -0.866025  0.047402 0.750753 1 78 1.000000
lowpoly_metal
0  -1.594332 -12.826202 -1.287320  -0.499998 -0.000002 0.866027  0.047402 0.750753 1 78 1.000000
0  -1.792038 -12.298578 -1.401464  -0.499998 -0.000002 0.866027  0.047402 0.750753 1 78 1.000000
0  -1.792037 -12.826202 -1.401465  -0.499998 -0.000002 0.866027  0.047402 0.750753 1 78 1.000000
lowpoly_metal
0  -0.935767 -12.826202 -1.403866  0.500000 -0.000000 0.866025  0.047402 0.750753 1 78 1.000000
0  -1.133473 -12.298578 -1.289720  0.500000 -0.000000 0.866025  0.047402 0.750753 1 78 1.000000
0  -1.133472 -12.826202 -1.289720  0.500000 -0.000000 0.866025  0.047402 0.750753 1 78 1.000000
lowpoly_metal
0  -1.988356 -12.298578 -0.564661  0.499999 0.000002 -0.866026  0.047402 0.750753 1 78 1.000000
0  -1.790650 -12.826202 -0.450517  0.499999 0.000002 -0.866026  0.047402 0.750753 1 78 1.000000
0  -1.988355 -12.826202 -0.564662  0.499999 0.000002 -0.866026  0.047402 0.750753 1 78 1.000000
lowpoly_metal
0  -1.133473 -12.298578 -1.061430  0.499998 0.000002 -0.866027  0.047402 0.750753 1 78 1.000000
0  -0.935767 -12.826202 -0.947286  0.499998 0.000002 -0.866027  0.047402 0.750753 1 78 1.000000
0  -1.133472 -12.826202 -1.061431  0.499998 0.000002 -0.866027  0.047402 0.750753 1 78 1.000000
lowpoly_metal
0  -1.988355 -12.826202 -0.792951  1.000000 0.000002 -0.000001  0.047402 0.750753 1 78 1.000000
0  -1.988356 -12.298578 -0.564661  1.000000 0.000002 -0.000001  0.047402 0.750753 1 78 1.000000
0  -1.988355 -12.826202 -0.564662  1.000000 0.000002 -0.000001  0.047402 0.750753 1 78 1.000000
lowpoly_metal
0  -1.133473 -12.298578 -1.289720  1.000000 0.000002 -0.000001  0.047402 0.750753 1 78 1.000000
0  -1.133472 -12.826202 -1.061431  1.000000 0.000002 -0.000001  0.047402 0.750753 1 78 1.000000
0  -1.133472 -12.826202 -1.289720  1.000000 0.000002 -0.000001  0.047402 0.750753 1 78 1.000000
lowpoly_metal
0  -1.790651 -12.826202 -0.907097  0.500001 -0.000000 0.866025  0.047402 0.750753 1 78 1.000000
0  -1.988356 -12.298578 -0.792951  0.500001 -0.000000 0.866025  0.047402 0.750753 1 78 1.000000
0  -1.988355 -12.826202 -0.792951  0.500001 -0.000000 0.866025  0.047402 0.750753 1 78 1.000000
lowpoly_metal
0  -1.364595 -12.826202 -1.649849  0.500000 0.000000 0.866025  0.047402 0.750753 1 78 1.000000
0  -1.562301 -12.298578 -1.535703  0.500000 0.000000 0.866025  0.047402 0.750753 1 78 1.000000
0  -1.562299 -12.826202 -1.535704  0.500000 0.000000 0.866025  0.047402 0.750753 1 78 1.000000
lowpoly_metal
0  -1.592946 -12.826202 -0.792952  -0.499999 -0.000003 0.866026  0.047402 0.750753 1 78 1.000000
0  -1.790652 -12.298578 -0.907096  -0.499999 -0.000003 0.866026  0.047402 0.750753 1 78 1.000000
0  -1.790651 -12.826202 -0.907097  -0.499999 -0.000003 0.866026  0.047402 0.750753 1 78 1.000000
lowpoly_metal
0  -1.166890 -12.826202 -1.535704  -0.499999 -0.000002 0.866026  0.047402 0.750753 1 78 1.000000
0  -1.364596 -12.298578 -1.649848  -0.499999 -0.000002 0.866026  0.047402 0.750753 1 78 1.000000
0  -1.364595 -12.826202 -1.649849  -0.499999 -0.000002 0.866026  0.047402 0.750753 1 78 1.000000
lowpoly_metal
0  -1.790651 -12.298578 -0.450516  -0.500001 0.000000 -0.866025  0.047402 0.750753 1 78 1.000000
0  -1.592945 -12.826202 -0.564662  -0.500001 0.000000 -0.866025  0.047402 0.750753 1 78 1.000000
0  -1.790650 -12.826202 -0.450517  -0.500001 0.000000 -0.866025  0.047402 0.750753 1 78 1.000000
lowpoly_metal
0  -1.562300 -12.298578 -1.307413  0.500000 0.000002 -0.866025  0.047402 0.750753 1 78 1.000000
0  -1.364594 -12.826202 -1.193269  0.500000 0.000002 -0.866025  0.047402 0.750753 1 78 1.000000
0  -1.562299 -12.826202 -1.307414  0.500000 0.000002 -0.866025  0.047402 0.750753 1 78 1.000000
lowpoly_metal
0  -1.592945 -12.826202 -0.564662  -1.000000 -0.000002 0.000001  0.047402 0.750753 1 78 1.000000
0  -1.592947 -12.298578 -0.792951  -1.000000 -0.000002 0.000001  0.047402 0.750753 1 78 1.000000
0  -1.592946 -12.826202 -0.792952  -1.000000 -0.000002 0.000001  0.047402 0.750753 1 78 1.000000
lowpoly_metal
0  -1.562301 -12.298578 -1.535703  1.000000 0.000002 -0.000001  0.047402 0.750753 1 78 1.000000
0  -1.562299 -12.826202 -1.307414  1.000000 0.000002 -0.000001  0.047402 0.750753 1 78 1.000000
0  -1.562299 -12.826202 -1.535704  1.000000 0.000002 -0.000001  0.047402 0.750753 1 78 1.000000
lowpoly_metal
0  -1.559529 -12.298578 -0.318679  0.499999 0.000002 -0.866026  0.047402 0.750753 1 78 1.000000
0  -1.361824 -12.826202 -0.204535  0.499999 0.000002 -0.866026  0.047402 0.750753 1 78 1.000000
0  -1.559528 -12.826202 -0.318680  0.499999 0.000002 -0.866026  0.047402 0.750753 1 78 1.000000
lowpoly_metal
0  -1.361825 -12.298578 -0.204535  -0.500000 0.000000 -0.866025  0.047402 0.750753 1 78 1.000000
0  -1.164119 -12.826202 -0.318680  -0.500000 0.000000 -0.866025  0.047402 0.750753 1 78 1.000000
0  -1.361824 -12.826202 -0.204535  -0.500000 0.000000 -0.866025  0.047402 0.750753 1 78 1.000000
lowpoly_metal
0  -1.164119 -12.826202 -0.546970  -1.000000 -0.000002 0.000001  0.047402 0.750753 1 78 1.000000
0  -1.164120 -12.298578 -0.318680  -1.000000 -0.000002 0.000001  0.047402 0.750753 1 78 1.000000
0  -1.164120 -12.298578 -0.546969  -1.000000 -0.000002 0.000001  0.047402 0.750753 1 78 1.000000
lowpoly_metal
0  -1.164120 -12.298578 -0.546969  -0.500000 -0.000002 0.866025  0.047402 0.750753 1 78 1.000000
0  -1.361824 -12.826202 -0.661115  -0.500000 -0.000002 0.866025  0.047402 0.750753 1 78 1.000000
0  -1.164119 -12.826202 -0.546970  -0.500000 -0.000002 0.866025  0.047402 0.750753 1 78 1.000000
lowpoly_metal
0  -0.934383 -12.298578 -0.452918  -0.500000 0.000000 -0.866026  0.047402 0.750753 1 78 1.000000
0  -0.736677 -12.826202 -0.567063  -0.500000 0.000000 -0.866026  0.047402 0.750753 1 78 1.000000
0  -0.934382 -12.826202 -0.452919  -0.500000 0.000000 -0.866026  0.047402 0.750753 1 78 1.000000
lowpoly_metal
0  -0.736677 -12.826202 -0.795353  -1.000000 -0.000002 0.000000  0.047402 0.750753 1 78 1.000000
0  -0.736678 -12.298578 -0.567063  -1.000000 -0.000002 0.000000  0.047402 0.750753 1 78 1.000000
0  -0.736678 -12.298578 -0.795353  -1.000000 -0.000002 0.000000  0.047402 0.750753 1 78 1.000000
lowpoly_metal
0  -0.934383 -12.298578 -0.909498  -0.499999 -0.000002 0.866026  0.047402 0.750753 1 78 1.000000
0  -0.736677 -12.826202 -0.795353  -0.499999 -0.000002 0.866026  0.047402 0.750753 1 78 1.000000
0  -0.736678 -12.298578 -0.795353  -0.499999 -0.000002 0.866026  0.047402 0.750753 1 78 1.000000
lowpoly_metal
0  -0.934383 -12.298578 -0.909498  0.500002 -0.000000 0.866024  0.047402 0.750753 1 78 1.000000
0  -1.132087 -12.826202 -0.795353  0.500002 -0.000000 0.866024  0.047402 0.750753 1 78 1.000000
0  -0.934382 -12.826202 -0.909498  0.500002 -0.000000 0.866024  0.047402 0.750753 1 78 1.000000
lowpoly_metal
0  -1.132088 -12.298578 -0.567063  1.000000 0.000002 0.000000  0.047402 0.750753 1 78 1.000000
0  -1.132087 -12.826202 -0.795353  1.000000 0.000002 0.000000  0.047402 0.750753 1 78 1.000000
0  -1.132088 -12.298578 -0.795353  1.000000 0.000002 0.000000  0.047402 0.750753 1 78 1.000000
lowpoly_metal
0  -0.934383 -12.298578 -0.452918  0.499999 0.000002 -0.866026  0.047402 0.750753 1 78 1.000000
0  -1.132087 -12.826202 -0.567063  0.499999 0.000002 -0.866026  0.047402 0.750753 1 78 1.000000
0  -1.132088 -12.298578 -0.567063  0.499999 0.000002 -0.866026  0.047402 0.750753 1 78 1.000000
lowpoly_metal
0  -1.363210 -12.298578 -1.200574  0.499998 0.000000 -0.866027  0.047402 0.750753 1 78 1.000000
0  -1.126454 -12.158484 -1.063882  0.499998 0.000000 -0.866027  0.047402 0.750753 1 78 1.000000
0  -1.126454 -12.298578 -1.063882  0.499998 0.000000 -0.866027  0.047402 0.750753 1 78 1.000000
lowpoly_metal
0  -1.363210 -12.298578 -0.653808  -0.499999 0.000000 0.866026  0.047402 0.750753 1 78 1.000000
0  -1.599967 -12.158484 -0.790499  -0.499999 0.000000 0.866026  0.047402 0.750753 1 78 1.000000
0  -1.599967 -12.298578 -0.790499  -0.499999 0.000000 0.866026  0.047402 0.750753 1 78 1.000000
lowpoly_metal
0  -1.599967 -12.298578 -0.790499  -1.000000 -0.000001 0.000000  0.047402 0.750753 1 78 1.000000
0  -1.599967 -12.158484 -1.063882  -1.000000 -0.000001 0.000000  0.047402 0.750753 1 78 1.000000
0  -1.599967 -12.298578 -1.063882  -1.000000 -0.000001 0.000000  0.047402 0.750753 1 78 1.000000
lowpoly_metal
0  -1.599967 -12.298578 -1.063882  -0.499997 0.000001 -0.866027  0.047402 0.750753 1 78 1.000000
0  -1.363210 -12.158484 -1.200574  -0.499997 0.000001 -0.866027  0.047402 0.750753 1 78 1.000000
0  -1.363210 -12.298578 -1.200574  -0.499997 0.000001 -0.866027  0.047402 0.750753 1 78 1.000000
lowpoly_metal
0  -1.126454 -12.298578 -1.063882  1.000000 -0.000002 0.000000  0.047402 0.750753 1 78 1.000000
0  -1.126453 -12.158484 -0.790499  1.000000 -0.000002 0.000000  0.047402 0.750753 1 78 1.000000
0  -1.126454 -12.298578 -0.790499  1.000000 -0.000002 0.000000  0.047402 0.750753 1 78 1.000000
lowpoly_metal
0  -1.549818 -11.956493 -1.034929  -0.743005 -0.669286 0.000000  0.008957 0.761915 1 78 1.000000
0  -1.584701 -11.917768 -0.799313  -0.743005 -0.669286 0.000000  0.008957 0.761915 1 78 1.000000
0  -1.584701 -11.917768 -1.055069  -0.743005 -0.669286 0.000000  0.008957 0.761915 1 78 1.000000
lowpoly_metal
0  -1.126454 -12.298578 -0.790499  0.499998 0.000000 0.866027  0.047402 0.750753 1 78 1.000000
0  -1.363210 -12.158484 -0.653808  0.499998 0.000000 0.866027  0.047402 0.750753 1 78 1.000000
0  -1.363210 -12.298578 -0.653808  0.499998 0.000000 0.866027  0.047402 0.750753 1 78 1.000000
lowpoly_metal
0  -1.599967 -12.298578 -0.790499  0.000000 -1.000000 0.000000  0.047402 0.750753 1 78 1.000000
0  -1.599967 -12.298578 -1.063882  0.000000 -1.000000 0.000000  0.047402 0.750753 1 78 1.000000
0  -1.363210 -12.298578 -1.200574  0.000000 -1.000000 0.000000  0.047402 0.750753 1 78 1.000000
lowpoly_metal
0  -1.126453 -12.158484 -0.790499  0.707110 0.707103 0.000000  0.008957 0.761915 1 78 1.000000
0  -1.176602 -12.108335 -1.034929  0.707110 0.707103 0.000000  0.008957 0.761915 1 78 1.000000
0  -1.176602 -12.108335 -0.819453  0.707110 0.707103 0.000000  0.008957 0.761915 1 78 1.000000
lowpoly_metal
0  -1.363210 -12.158484 -0.653808  0.353560 0.707110 0.612365  0.008957 0.761915 1 78 1.000000
0  -1.176602 -12.108335 -0.819453  0.353560 0.707110 0.612365  0.008957 0.761915 1 78 1.000000
0  -1.363210 -12.108335 -0.711714  0.353560 0.707110 0.612365  0.008957 0.761915 1 78 1.000000
lowpoly_metal
0  -1.599967 -12.158484 -0.790499  -0.353552 0.707098 0.612384  0.008957 0.761915 1 78 1.000000
0  -1.363210 -12.108335 -0.711714  -0.353552 0.707098 0.612384  0.008957 0.761915 1 78 1.000000
0  -1.549818 -12.108335 -0.819453  -0.353552 0.707098 0.612384  0.008957 0.761915 1 78 1.000000
lowpoly_metal
0  -1.599967 -12.158484 -1.063882  -0.707111 0.707102 0.000000  0.008957 0.761915 1 78 1.000000
0  -1.549818 -12.108335 -0.819453  -0.707111 0.707102 0.000000  0.008957 0.761915 1 78 1.000000
0  -1.549818 -12.108335 -1.034929  -0.707111 0.707102 0.000000  0.008957 0.761915 1 78 1.000000
lowpoly_metal
0  -1.363210 -12.158484 -1.200574  -0.353558 0.707111 -0.612364  0.008957 0.761915 1 78 1.000000
0  -1.549818 -12.108335 -1.034929  -0.353558 0.707111 -0.612364  0.008957 0.761915 1 78 1.000000
0  -1.363210 -12.108335 -1.142667  -0.353558 0.707111 -0.612364  0.008957 0.761915 1 78 1.000000
lowpoly_metal
0  -1.126454 -12.158484 -1.063882  0.353553 0.707097 -0.612385  0.008957 0.761915 1 78 1.000000
0  -1.363210 -12.108335 -1.142667  0.353553 0.707097 -0.612385  0.008957 0.761915 1 78 1.000000
0  -1.176602 -12.108335 -1.034929  0.353553 0.707097 -0.612385  0.008957 0.761915 1 78 1.000000
lowpoly_metal
0  -1.363210 -12.108335 -1.142667  -0.500005 0.000000 -0.866023  0.047402 0.750753 1 78 1.000000
0  -1.549818 -11.956493 -1.034929  -0.500005 0.000000 -0.866023  0.047402 0.750753 1 78 1.000000
0  -1.363210 -11.956493 -1.142667  -0.500005 0.000000 -0.866023  0.047402 0.750753 1 78 1.000000
lowpoly_metal
0  -1.549818 -12.108335 -0.819453  -0.500001 0.000000 0.866025  0.047402 0.750753 1 78 1.000000
0  -1.363210 -11.956493 -0.711714  -0.500001 0.000000 0.866025  0.047402 0.750753 1 78 1.000000
0  -1.549818 -11.956492 -0.819453  -0.500001 0.000000 0.866025  0.047402 0.750753 1 78 1.000000
lowpoly_metal
0  -1.176602 -12.108335 -0.819453  1.000000 0.000000 0.000000  0.047402 0.750753 1 78 1.000000
0  -1.176602 -11.956493 -1.034929  1.000000 0.000000 0.000000  0.047402 0.750753 1 78 1.000000
0  -1.176602 -11.956493 -0.819453  1.000000 0.000000 0.000000  0.047402 0.750753 1 78 1.000000
lowpoly_metal
0  -1.549818 -12.108335 -1.034929  -1.000000 0.000000 0.000000  0.047402 0.750753 1 78 1.000000
0  -1.549818 -11.956492 -0.819453  -1.000000 0.000000 0.000000  0.047402 0.750753 1 78 1.000000
0  -1.549818 -11.956493 -1.034929  -1.000000 0.000000 0.000000  0.047402 0.750753 1 78 1.000000
lowpoly_metal
0  -1.176602 -12.108335 -1.034929  0.499997 0.000000 -0.866027  0.047402 0.750753 1 78 1.000000
0  -1.363210 -11.956493 -1.142667  0.499997 0.000000 -0.866027  0.047402 0.750753 1 78 1.000000
0  -1.176602 -11.956493 -1.034929  0.499997 0.000000 -0.866027  0.047402 0.750753 1 78 1.000000
lowpoly_metal
0  -1.363210 -12.108335 -0.711714  0.500005 0.000000 0.866023  0.047402 0.750753 1 78 1.000000
0  -1.176602 -11.956493 -0.819453  0.500005 0.000000 0.866023  0.047402 0.750753 1 78 1.000000
0  -1.363210 -11.956493 -0.711714  0.500005 0.000000 0.866023  0.047402 0.750753 1 78 1.000000
lowpoly_metal
0  -1.584701 -11.917768 -0.799313  -0.500001 0.000000 0.866025  0.047402 0.750753 1 78 1.000000
0  -1.363210 -11.804864 -0.671436  -0.500001 0.000000 0.866025  0.047402 0.750753 1 78 1.000000
0  -1.584701 -11.804864 -0.799313  -0.500001 0.000000 0.866025  0.047402 0.750753 1 78 1.000000
lowpoly_metal
0  -1.363210 -11.956493 -1.142667  -0.371501 -0.669278 -0.643470  0.008957 0.761915 1 78 1.000000
0  -1.584701 -11.917768 -1.055069  -0.371501 -0.669278 -0.643470  0.008957 0.761915 1 78 1.000000
0  -1.363210 -11.917768 -1.182946  -0.371501 -0.669278 -0.643470  0.008957 0.761915 1 78 1.000000
lowpoly_metal
0  -1.363210 -11.956493 -0.711714  0.371502 -0.669278 0.643470  0.008957 0.761915 1 78 1.000000
0  -1.141719 -11.917768 -0.799313  0.371502 -0.669278 0.643470  0.008957 0.761915 1 78 1.000000
0  -1.363210 -11.917768 -0.671436  0.371502 -0.669278 0.643470  0.008957 0.761915 1 78 1.000000
lowpoly_metal
0  -1.549818 -11.956492 -0.819453  -0.371502 -0.669294 0.643453  0.008957 0.761915 1 78 1.000000
0  -1.363210 -11.917768 -0.671436  -0.371502 -0.669294 0.643453  0.008957 0.761915 1 78 1.000000
0  -1.584701 -11.917768 -0.799313  -0.371502 -0.669294 0.643453  0.008957 0.761915 1 78 1.000000
lowpoly_metal
0  -1.176602 -11.956493 -1.034929  0.371501 -0.669279 -0.643469  0.008957 0.761915 1 78 1.000000
0  -1.363210 -11.917768 -1.182946  0.371501 -0.669279 -0.643469  0.008957 0.761915 1 78 1.000000
0  -1.141719 -11.917768 -1.055069  0.371501 -0.669279 -0.643469  0.008957 0.761915 1 78 1.000000
lowpoly_metal
0  -1.176602 -11.956493 -0.819453  0.743009 -0.669281 0.000000  0.008957 0.761915 1 78 1.000000
0  -1.141719 -11.917768 -1.055069  0.743009 -0.669281 0.000000  0.008957 0.761915 1 78 1.000000
0  -1.141719 -11.917768 -0.799313  0.743009 -0.669281 0.000000  0.008957 0.761915 1 78 1.000000
lowpoly_metal
0  -1.363210 -11.917768 -1.182946  -0.500001 0.000000 -0.866025  0.047402 0.750753 1 78 1.000000
0  -1.584701 -11.804864 -1.055069  -0.500001 0.000000 -0.866025  0.047402 0.750753 1 78 1.000000
0  -1.363210 -11.804864 -1.182946  -0.500001 0.000000 -0.866025  0.047402 0.750753 1 78 1.000000
lowpoly_metal
0  -1.564535 -11.784698 -0.810956  0.000000 1.000000 0.000000  0.047402 0.750753 1 78 1.000000
0  -1.363210 -11.784698 -0.694721  0.000000 1.000000 0.000000  0.047402 0.750753 1 78 1.000000
0  -1.161885 -11.784698 -1.043426  0.000000 1.000000 0.000000  0.047402 0.750753 1 78 1.000000
lowpoly_metal
0  -1.584701 -11.917768 -1.055069  -1.000000 0.000000 0.000000  0.047402 0.750753 1 78 1.000000
0  -1.584701 -11.804864 -0.799313  -1.000000 0.000000 0.000000  0.047402 0.750753 1 78 1.000000
0  -1.584701 -11.804864 -1.055069  -1.000000 0.000000 0.000000  0.047402 0.750753 1 78 1.000000
lowpoly_metal
0  -1.363210 -11.917768 -0.671436  0.500001 0.000000 0.866025  0.047402 0.750753 1 78 1.000000
0  -1.141719 -11.804864 -0.799313  0.500001 0.000000 0.866025  0.047402 0.750753 1 78 1.000000
0  -1.363210 -11.804864 -0.671436  0.500001 0.000000 0.866025  0.047402 0.750753 1 78 1.000000
lowpoly_metal
0  -1.141719 -11.917768 -0.799313  1.000000 0.000000 0.000000  0.047402 0.750753 1 78 1.000000
0  -1.141719 -11.804864 -1.055069  1.000000 0.000000 0.000000  0.047402 0.750753 1 78 1.000000
0  -1.141719 -11.804864 -0.799313  1.000000 0.000000 0.000000  0.047402 0.750753 1 78 1.000000
lowpoly_metal
0  -1.363210 -11.784698 -1.159661  0.353564 0.707101 -0.612372  0.047402 0.750753 1 78 1.000000
0  -1.141719 -11.804864 -1.055069  0.353564 0.707101 -0.612372  0.047402 0.750753 1 78 1.000000
0  -1.363210 -11.804864 -1.182946  0.353564 0.707101 -0.612372  0.047402 0.750753 1 78 1.000000
lowpoly_metal
0  -1.564535 -11.784698 -1.043426  -0.353549 0.707075 -0.612411  0.047402 0.750753 1 78 1.000000
0  -1.363210 -11.804864 -1.182946  -0.353549 0.707075 -0.612411  0.047402 0.750753 1 78 1.000000
0  -1.584701 -11.804864 -1.055069  -0.353549 0.707075 -0.612411  0.047402 0.750753 1 78 1.000000
lowpoly_metal
0  -1.564535 -11.784698 -0.810956  -0.707112 0.707102 0.000000  0.047402 0.750753 1 78 1.000000
0  -1.584701 -11.804864 -1.055069  -0.707112 0.707102 0.000000  0.047402 0.750753 1 78 1.000000
0  -1.584701 -11.804864 -0.799313  -0.707112 0.707102 0.000000  0.047402 0.750753 1 78 1.000000
lowpoly_metal
0  -1.363210 -11.784698 -0.694721  -0.353563 0.707104 0.612371  0.047402 0.750753 1 78 1.000000
0  -1.584701 -11.804864 -0.799313  -0.353563 0.707104 0.612371  0.047402 0.750753 1 78 1.000000
0  -1.363210 -11.804864 -0.671436  -0.353563 0.707104 0.612371  0.047402 0.750753 1 78 1.000000
lowpoly_metal
0  -1.161885 -11.784698 -0.810956  0.353550 0.707073 0.612413  0.047402 0.750753 1 78 1.000000
0  -1.363210 -11.804864 -0.671436  0.353550 0.707073 0.612413  0.047402 0.750753 1 78 1.000000
0  -1.141719 -11.804864 -0.799313  0.353550 0.707073 0.612413  0.047402 0.750753 1 78 1.000000
lowpoly_metal
0  -1.161885 -11.784698 -1.043426  0.707120 0.707094 0.000000  0.047402 0.750753 1 78 1.000000
0  -1.141719 -11.804864 -0.799313  0.707120 0.707094 0.000000  0.047402 0.750753 1 78 1.000000
0  -1.141719 -11.804864 -1.055069  0.707120 0.707094 0.000000  0.047402 0.750753 1 78 1.000000
lowpoly_metal
0  -1.141719 -11.917768 -1.055069  0.500000 0.000000 -0.866025  0.047402 0.750753 1 78 1.000000
0  -1.363210 -11.804864 -1.182946  0.500000 0.000000 -0.866025  0.047402 0.750753 1 78 1.000000
0  -1.141719 -11.804864 -1.055069  0.500000 0.000000 -0.866025  0.047402 0.750753 1 78 1.000000
lowpoly_metal
0  -0.563210 -12.826202 -0.927191  0.923880 -0.000001 0.382682  0.047402 0.750753 1 78 1.000000
0  -0.563210 -12.298578 -0.927191  0.923880 -0.000001 0.382682  0.047402 0.750753 1 78 1.000000
0  -0.797525 -12.298578 -0.361505  0.923880 -0.000001 0.382682  0.047402 0.750753 1 78 1.000000
lowpoly_metal
0  -0.797525 -12.826202 -0.361506  0.382682 -0.000001 0.923880  0.047402 0.750753 1 78 1.000000
0  -0.797525 -12.298578 -0.361505  0.382682 -0.000001 0.923880  0.047402 0.750753 1 78 1.000000
0  -1.363210 -12.298578 -0.127191  0.382682 -0.000001 0.923880  0.047402 0.750753 1 78 1.000000
lowpoly_metal
0  -1.363210 -12.826202 -0.127191  -0.382683 -0.000000 0.923880  0.047402 0.750753 1 78 1.000000
0  -1.363210 -12.298578 -0.127191  -0.382683 -0.000000 0.923880  0.047402 0.750753 1 78 1.000000
0  -1.928896 -12.298578 -0.361505  -0.382683 -0.000000 0.923880  0.047402 0.750753 1 78 1.000000
lowpoly_metal
0  -1.928896 -12.826202 -0.361505  -0.923879 0.000000 0.382683  0.047402 0.750753 1 78 1.000000
0  -1.928896 -12.298578 -0.361505  -0.923879 0.000000 0.382683  0.047402 0.750753 1 78 1.000000
0  -2.163210 -12.298578 -0.927191  -0.923879 0.000000 0.382683  0.047402 0.750753 1 78 1.000000
lowpoly_metal
0  -2.163210 -12.826202 -0.927191  -0.923880 0.000000 -0.382682  0.047402 0.750753 1 78 1.000000
0  -2.163210 -12.298578 -0.927191  -0.923880 0.000000 -0.382682  0.047402 0.750753 1 78 1.000000
0  -1.928896 -12.298578 -1.492876  -0.923880 0.000000 -0.382682  0.047402 0.750753 1 78 1.000000
lowpoly_metal
0  -1.928896 -12.826202 -1.492876  -0.382684 0.000000 -0.923879  0.047402 0.750753 1 78 1.000000
0  -1.928896 -12.298578 -1.492876  -0.382684 0.000000 -0.923879  0.047402 0.750753 1 78 1.000000
0  -1.363210 -12.298578 -1.727191  -0.382684 0.000000 -0.923879  0.047402 0.750753 1 78 1.000000
lowpoly_metal
0  -0.738063 -12.298578 -1.061430  0.000000 1.000000 0.000027  0.047402 0.750753 1 78 1.000000
0  -0.935768 -12.298578 -0.947285  0.000000 1.000000 0.000027  0.047402 0.750753 1 78 1.000000
0  -0.934383 -12.298578 -0.909498  0.000000 1.000000 0.000027  0.047402 0.750753 1 78 1.000000
lowpoly_metal
0  -0.738063 -12.298578 -1.061430  0.000000 1.000000 -0.000009  0.047402 0.750753 1 78 1.000000
0  -0.934383 -12.298578 -0.909498  0.000000 1.000000 -0.000009  0.047402 0.750753 1 78 1.000000
0  -0.736678 -12.298578 -0.795353  0.000000 1.000000 -0.000009  0.047402 0.750753 1 78 1.000000
lowpoly_metal
0  -0.738063 -12.298578 -1.289720  0.000000 1.000000 -0.000012  0.047402 0.750753 1 78 1.000000
0  -0.738063 -12.298578 -1.061430  0.000000 1.000000 -0.000012  0.047402 0.750753 1 78 1.000000
0  -0.563210 -12.298578 -0.927191  0.000000 1.000000 -0.000012  0.047402 0.750753 1 78 1.000000
lowpoly_metal
0  -0.738063 -12.298578 -1.061430  0.000000 1.000000 0.000010  0.047402 0.750753 1 78 1.000000
0  -0.736678 -12.298578 -0.795353  0.000000 1.000000 0.000010  0.047402 0.750753 1 78 1.000000
0  -0.563210 -12.298578 -0.927191  0.000000 1.000000 0.000010  0.047402 0.750753 1 78 1.000000
lowpoly_metal
0  -1.166891 -12.298578 -1.307414  0.000000 1.000000 0.000008  0.047402 0.750753 1 78 1.000000
0  -1.133473 -12.298578 -1.289720  0.000000 1.000000 0.000008  0.047402 0.750753 1 78 1.000000
0  -1.166891 -12.298578 -1.535704  0.000000 1.000000 0.000008  0.047402 0.750753 1 78 1.000000
lowpoly_metal
0  -1.133473 -12.298578 -1.289720  0.000000 1.000000 0.000000  0.047402 0.750753 1 78 1.000000
0  -0.935768 -12.298578 -1.403865  0.000000 1.000000 0.000000  0.047402 0.750753 1 78 1.000000
0  -1.166891 -12.298578 -1.535704  0.000000 1.000000 0.000000  0.047402 0.750753 1 78 1.000000
lowpoly_metal
0  -1.363210 -12.298578 -1.727191  0.000000 1.000000 -0.000031  0.047402 0.750753 1 78 1.000000
0  -1.364596 -12.298578 -1.649848  0.000000 1.000000 -0.000031  0.047402 0.750753 1 78 1.000000
0  -1.166891 -12.298578 -1.535704  0.000000 1.000000 -0.000031  0.047402 0.750753 1 78 1.000000
lowpoly_metal
0  -1.363210 -12.298578 -1.727191  0.000000 1.000000 0.000015  0.047402 0.750753 1 78 1.000000
0  -1.166891 -12.298578 -1.535704  0.000000 1.000000 0.000015  0.047402 0.750753 1 78 1.000000
0  -0.797525 -12.298578 -1.492877  0.000000 1.000000 0.000015  0.047402 0.750753 1 78 1.000000
lowpoly_metal
0  -1.166891 -12.298578 -1.535704  0.000000 1.000000 -0.000012  0.047402 0.750753 1 78 1.000000
0  -0.935768 -12.298578 -1.403865  0.000000 1.000000 -0.000012  0.047402 0.750753 1 78 1.000000
0  -0.797525 -12.298578 -1.492877  0.000000 1.000000 -0.000012  0.047402 0.750753 1 78 1.000000
lowpoly_metal
0  -1.361825 -12.298578 -0.204535  0.000000 1.000000 0.000032  0.047402 0.750753 1 78 1.000000
0  -1.363210 -12.298578 -0.127191  0.000000 1.000000 0.000032  0.047402 0.750753 1 78 1.000000
0  -1.164120 -12.298578 -0.318680  0.000000 1.000000 0.000032  0.047402 0.750753 1 78 1.000000
lowpoly_metal
0  -1.363210 -12.298578 -0.127191  0.000000 1.000000 0.000000  0.047402 0.750753 1 78 1.000000
0  -0.797525 -12.298578 -0.361505  0.000000 1.000000 0.000000  0.047402 0.750753 1 78 1.000000
0  -1.164120 -12.298578 -0.318680  0.000000 1.000000 0.000000  0.047402 0.750753 1 78 1.000000
lowpoly_metal
0  -1.132088 -12.298578 -0.567063  0.000000 1.000000 0.000000  0.047402 0.750753 1 78 1.000000
0  -1.164120 -12.298578 -0.546969  0.000000 1.000000 0.000000  0.047402 0.750753 1 78 1.000000
0  -0.934383 -12.298578 -0.452918  0.000000 1.000000 0.000000  0.047402 0.750753 1 78 1.000000
lowpoly_metal
0  -1.164120 -12.298578 -0.546969  0.000000 1.000000 0.000000  0.047402 0.750753 1 78 1.000000
0  -1.164120 -12.298578 -0.318680  0.000000 1.000000 0.000000  0.047402 0.750753 1 78 1.000000
0  -0.934383 -12.298578 -0.452918  0.000000 1.000000 0.000000  0.047402 0.750753 1 78 1.000000
lowpoly_metal
0  -0.797525 -12.298578 -1.492877  0.000000 1.000000 0.000000  0.047402 0.750753 1 78 1.000000
0  -0.935768 -12.298578 -1.403865  0.000000 1.000000 0.000000  0.047402 0.750753 1 78 1.000000
0  -0.738063 -12.298578 -1.289720  0.000000 1.000000 0.000000  0.047402 0.750753 1 78 1.000000
lowpoly_metal
0  -1.164120 -12.298578 -0.318680  0.000000 1.000000 0.000000  0.047402 0.750753 1 78 1.000000
0  -0.797525 -12.298578 -0.361505  0.000000 1.000000 0.000000  0.047402 0.750753 1 78 1.000000
0  -0.934383 -12.298578 -0.452918  0.000000 1.000000 0.000000  0.047402 0.750753 1 78 1.000000
lowpoly_metal
0  -0.563210 -12.298578 -0.927191  0.000000 1.000000 0.000017  0.047402 0.750753 1 78 1.000000
0  -0.797525 -12.298578 -1.492877  0.000000 1.000000 0.000017  0.047402 0.750753 1 78 1.000000
0  -0.738063 -12.298578 -1.289720  0.000000 1.000000 0.000017  0.047402 0.750753 1 78 1.000000
lowpoly_metal
0  -0.736678 -12.298578 -0.567063  0.000000 1.000000 0.000000  0.047402 0.750753 1 78 1.000000
0  -0.934383 -12.298578 -0.452918  0.000000 1.000000 0.000000  0.047402 0.750753 1 78 1.000000
0  -0.797525 -12.298578 -0.361505  0.000000 1.000000 0.000000  0.047402 0.750753 1 78 1.000000
lowpoly_metal
0  -0.563210 -12.298578 -0.927191  0.000000 1.000000 0.000001  0.047402 0.750753 1 78 1.000000
0  -0.736678 -12.298578 -0.795353  0.000000 1.000000 0.000001  0.047402 0.750753 1 78 1.000000
0  -0.736678 -12.298578 -0.567063  0.000000 1.000000 0.000001  0.047402 0.750753 1 78 1.000000
lowpoly_metal
0  -1.132088 -12.298578 -0.795353  0.000000 1.000000 -0.000027  0.047402 0.750753 1 78 1.000000
0  -0.934383 -12.298578 -0.909498  0.000000 1.000000 -0.000027  0.047402 0.750753 1 78 1.000000
0  -0.935768 -12.298578 -0.947285  0.000000 1.000000 -0.000027  0.047402 0.750753 1 78 1.000000
lowpoly_metal
0  -1.133473 -12.298578 -1.061430  0.000000 1.000000 0.000000  0.047402 0.750753 1 78 1.000000
0  -1.133473 -12.298578 -1.289720  0.000000 1.000000 0.000000  0.047402 0.750753 1 78 1.000000
0  -1.166891 -12.298578 -1.307414  0.000000 1.000000 0.000000  0.047402 0.750753 1 78 1.000000
lowpoly_metal
0  -1.132088 -12.298578 -0.795353  0.000000 1.000000 0.000000  0.047402 0.750753 1 78 1.000000
0  -0.935768 -12.298578 -0.947285  0.000000 1.000000 0.000000  0.047402 0.750753 1 78 1.000000
0  -1.133473 -12.298578 -1.061430  0.000000 1.000000 0.000000  0.047402 0.750753 1 78 1.000000
lowpoly_metal
0  -1.164120 -12.298578 -0.546969  0.000000 1.000000 0.000000  0.047402 0.750753 1 78 1.000000
0  -1.132088 -12.298578 -0.567063  0.000000 1.000000 0.000000  0.047402 0.750753 1 78 1.000000
0  -1.361825 -12.298578 -0.661114  0.000000 1.000000 0.000000  0.047402 0.750753 1 78 1.000000
lowpoly_metal
0  -1.132088 -12.298578 -0.567063  0.000000 1.000000 0.000000  0.047402 0.750753 1 78 1.000000
0  -1.132088 -12.298578 -0.795353  0.000000 1.000000 0.000000  0.047402 0.750753 1 78 1.000000
0  -1.361825 -12.298578 -0.661114  0.000000 1.000000 0.000000  0.047402 0.750753 1 78 1.000000
lowpoly_metal
0  -1.592946 -12.298578 -0.564661  0.000000 1.000000 -0.000008  0.047402 0.750753 1 78 1.000000
0  -1.559529 -12.298578 -0.546969  0.000000 1.000000 -0.000008  0.047402 0.750753 1 78 1.000000
0  -1.592947 -12.298578 -0.792951  0.000000 1.000000 -0.000008  0.047402 0.750753 1 78 1.000000
lowpoly_metal
0  -1.559529 -12.298578 -0.546969  0.000000 1.000000 -0.000009  0.047402 0.750753 1 78 1.000000
0  -1.361825 -12.298578 -0.661114  0.000000 1.000000 -0.000009  0.047402 0.750753 1 78 1.000000
0  -1.592947 -12.298578 -0.792951  0.000000 1.000000 -0.000009  0.047402 0.750753 1 78 1.000000
lowpoly_metal
0  -1.132088 -12.298578 -0.795353  0.000000 1.000000 0.000000  0.047402 0.750753 1 78 1.000000
0  -1.133473 -12.298578 -1.061430  0.000000 1.000000 0.000000  0.047402 0.750753 1 78 1.000000
0  -1.364595 -12.298578 -1.193269  0.000000 1.000000 0.000000  0.047402 0.750753 1 78 1.000000
lowpoly_metal
0  -1.133473 -12.298578 -1.061430  0.000000 1.000000 0.000000  0.047402 0.750753 1 78 1.000000
0  -1.166891 -12.298578 -1.307414  0.000000 1.000000 0.000000  0.047402 0.750753 1 78 1.000000
0  -1.364595 -12.298578 -1.193269  0.000000 1.000000 0.000000  0.047402 0.750753 1 78 1.000000
lowpoly_metal
0  -1.364595 -12.298578 -1.193269  0.000000 1.000000 -0.000008  0.047402 0.750753 1 78 1.000000
0  -1.562300 -12.298578 -1.307413  0.000000 1.000000 -0.000008  0.047402 0.750753 1 78 1.000000
0  -1.594333 -12.298578 -1.287320  0.000000 1.000000 -0.000008  0.047402 0.750753 1 78 1.000000
lowpoly_metal
0  -1.361825 -12.298578 -0.661114  0.000000 1.000000 0.000000  0.047402 0.750753 1 78 1.000000
0  -1.132088 -12.298578 -0.795353  0.000000 1.000000 0.000000  0.047402 0.750753 1 78 1.000000
0  -1.592947 -12.298578 -0.792951  0.000000 1.000000 0.000000  0.047402 0.750753 1 78 1.000000
lowpoly_metal
0  -1.792038 -12.298578 -0.944884  0.000000 1.000000 0.000000  0.047402 0.750753 1 78 1.000000
0  -1.790652 -12.298578 -0.907096  0.000000 1.000000 0.000000  0.047402 0.750753 1 78 1.000000
0  -1.594333 -12.298578 -1.059030  0.000000 1.000000 0.000000  0.047402 0.750753 1 78 1.000000
lowpoly_metal
0  -1.790652 -12.298578 -0.907096  0.000000 1.000000 0.000007  0.047402 0.750753 1 78 1.000000
0  -1.592947 -12.298578 -0.792951  0.000000 1.000000 0.000007  0.047402 0.750753 1 78 1.000000
0  -1.594333 -12.298578 -1.059030  0.000000 1.000000 0.000007  0.047402 0.750753 1 78 1.000000
lowpoly_metal
0  -1.132088 -12.298578 -0.795353  0.000000 1.000000 -0.000004  0.047402 0.750753 1 78 1.000000
0  -1.364595 -12.298578 -1.193269  0.000000 1.000000 -0.000004  0.047402 0.750753 1 78 1.000000
0  -1.594333 -12.298578 -1.059030  0.000000 1.000000 -0.000004  0.047402 0.750753 1 78 1.000000
lowpoly_metal
0  -1.364595 -12.298578 -1.193269  0.000000 1.000000 0.000004  0.047402 0.750753 1 78 1.000000
0  -1.594333 -12.298578 -1.287320  0.000000 1.000000 0.000004  0.047402 0.750753 1 78 1.000000
0  -1.594333 -12.298578 -1.059030  0.000000 1.000000 0.000004  0.047402 0.750753 1 78 1.000000
lowpoly_metal
0  -1.988356 -12.298578 -0.792951  0.000000 1.000000 0.000014  0.047402 0.750753 1 78 1.000000
0  -1.790652 -12.298578 -0.907096  0.000000 1.000000 0.000014  0.047402 0.750753 1 78 1.000000
0  -1.792038 -12.298578 -0.944884  0.000000 1.000000 0.000014  0.047402 0.750753 1 78 1.000000
lowpoly_metal
0  -1.988356 -12.298578 -0.792951  0.000000 1.000000 -0.000009  0.047402 0.750753 1 78 1.000000
0  -1.792038 -12.298578 -0.944884  0.000000 1.000000 -0.000009  0.047402 0.750753 1 78 1.000000
0  -1.989743 -12.298578 -1.059029  0.000000 1.000000 -0.000009  0.047402 0.750753 1 78 1.000000
lowpoly_metal
0  -1.988356 -12.298578 -0.564661  0.000000 1.000000 0.000000  0.047402 0.750753 1 78 1.000000
0  -1.988356 -12.298578 -0.792951  0.000000 1.000000 0.000000  0.047402 0.750753 1 78 1.000000
0  -2.163210 -12.298578 -0.927191  0.000000 1.000000 0.000000  0.047402 0.750753 1 78 1.000000
lowpoly_metal
0  -1.988356 -12.298578 -0.792951  0.000000 1.000000 0.000010  0.047402 0.750753 1 78 1.000000
0  -1.989743 -12.298578 -1.059029  0.000000 1.000000 0.000010  0.047402 0.750753 1 78 1.000000
0  -2.163210 -12.298578 -0.927191  0.000000 1.000000 0.000010  0.047402 0.750753 1 78 1.000000
lowpoly_metal
0  -1.559529 -12.298578 -0.546969  0.000000 1.000000 0.000000  0.047402 0.750753 1 78 1.000000
0  -1.592946 -12.298578 -0.564661  0.000000 1.000000 0.000000  0.047402 0.750753 1 78 1.000000
0  -1.559529 -12.298578 -0.318679  0.000000 1.000000 0.000000  0.047402 0.750753 1 78 1.000000
lowpoly_metal
0  -1.592946 -12.298578 -0.564661  0.000000 1.000000 0.000000  0.047402 0.750753 1 78 1.000000
0  -1.790651 -12.298578 -0.450516  0.000000 1.000000 0.000000  0.047402 0.750753 1 78 1.000000
0  -1.559529 -12.298578 -0.318679  0.000000 1.000000 0.000000  0.047402 0.750753 1 78 1.000000
lowpoly_metal
0  -1.363210 -12.298578 -0.127191  0.000000 1.000000 0.000000  0.047402 0.750753 1 78 1.000000
0  -1.361825 -12.298578 -0.204535  0.000000 1.000000 0.000000  0.047402 0.750753 1 78 1.000000
0  -1.559529 -12.298578 -0.318679  0.000000 1.000000 0.000000  0.047402 0.750753 1 78 1.000000
lowpoly_metal
0  -1.363210 -12.298578 -0.127191  0.000000 1.000000 0.000000  0.047402 0.750753 1 78 1.000000
0  -1.559529 -12.298578 -0.318679  0.000000 1.000000 0.000000  0.047402 0.750753 1 78 1.000000
0  -1.928896 -12.298578 -0.361505  0.000000 1.000000 0.000000  0.047402 0.750753 1 78 1.000000
lowpoly_metal
0  -1.559529 -12.298578 -0.318679  0.000000 1.000000 0.000006  0.047402 0.750753 1 78 1.000000
0  -1.790651 -12.298578 -0.450516  0.000000 1.000000 0.000006  0.047402 0.750753 1 78 1.000000
0  -1.928896 -12.298578 -0.361505  0.000000 1.000000 0.000006  0.047402 0.750753 1 78 1.000000
lowpoly_metal
0  -1.364596 -12.298578 -1.649848  0.000000 1.000000 0.000000  0.047402 0.750753 1 78 1.000000
0  -1.363210 -12.298578 -1.727191  0.000000 1.000000 0.000000  0.047402 0.750753 1 78 1.000000
0  -1.562301 -12.298578 -1.535703  0.000000 1.000000 0.000000  0.047402 0.750753 1 78 1.000000
lowpoly_metal
0  -1.363210 -12.298578 -1.727191  0.000000 1.000000 0.000000  0.047402 0.750753 1 78 1.000000
0  -1.928896 -12.298578 -1.492876  0.000000 1.000000 0.000000  0.047402 0.750753 1 78 1.000000
0  -1.562301 -12.298578 -1.535703  0.000000 1.000000 0.000000  0.047402 0.750753 1 78 1.000000
lowpoly_metal
0  -1.594333 -12.298578 -1.287320  0.000000 1.000000 0.000000  0.047402 0.750753 1 78 1.000000
0  -1.562300 -12.298578 -1.307413  0.000000 1.000000 0.000000  0.047402 0.750753 1 78 1.000000
0  -1.792038 -12.298578 -1.401464  0.000000 1.000000 0.000000  0.047402 0.750753 1 78 1.000000
lowpoly_metal
0  -1.562300 -12.298578 -1.307413  0.000000 1.000000 0.000000  0.047402 0.750753 1 78 1.000000
0  -1.562301 -12.298578 -1.535703  0.000000 1.000000 0.000000  0.047402 0.750753 1 78 1.000000
0  -1.792038 -12.298578 -1.401464  0.000000 1.000000 0.000000  0.047402 0.750753 1 78 1.000000
lowpoly_metal
0  -1.928896 -12.298578 -0.361505  0.000000 1.000000 0.000000  0.047402 0.750753 1 78 1.000000
0  -1.790651 -12.298578 -0.450516  0.000000 1.000000 0.000000  0.047402 0.750753 1 78 1.000000
0  -1.988356 -12.298578 -0.564661  0.000000 1.000000 0.000000  0.047402 0.750753 1 78 1.000000
lowpoly_metal
0  -1.562301 -12.298578 -1.535703  0.000000 1.000000 -0.000006  0.047402 0.750753 1 78 1.000000
0  -1.928896 -12.298578 -1.492876  0.000000 1.000000 -0.000006  0.047402 0.750753 1 78 1.000000
0  -1.792038 -12.298578 -1.401464  0.000000 1.000000 -0.000006  0.047402 0.750753 1 78 1.000000
lowpoly_metal
0  -2.163210 -12.298578 -0.927191  0.000000 1.000000 0.000000  0.047402 0.750753 1 78 1.000000
0  -1.928896 -12.298578 -0.361505  0.000000 1.000000 0.000000  0.047402 0.750753 1 78 1.000000
0  -1.988356 -12.298578 -0.564661  0.000000 1.000000 0.000000  0.047402 0.750753 1 78 1.000000
lowpoly_metal
0  -1.989743 -12.298578 -1.287319  0.000000 1.000000 0.000000  0.047402 0.750753 1 78 1.000000
0  -1.792038 -12.298578 -1.401464  0.000000 1.000000 0.000000  0.047402 0.750753 1 78 1.000000
0  -1.928896 -12.298578 -1.492876  0.000000 1.000000 0.000000  0.047402 0.750753 1 78 1.000000
lowpoly_metal
0  -2.163210 -12.298578 -0.927191  0.000000 1.000000 -0.000004  0.047402 0.750753 1 78 1.000000
0  -1.989743 -12.298578 -1.059029  0.000000 1.000000 -0.000004  0.047402 0.750753 1 78 1.000000
0  -1.989743 -12.298578 -1.287319  0.000000 1.000000 -0.000004  0.047402 0.750753 1 78 1.000000
lowpoly_metal
0  -1.363211 -12.826202 -1.727191  0.382683 0.000000 -0.923880  0.047402 0.750753 1 78 1.000000
0  -1.363210 -12.298578 -1.727191  0.382683 0.000000 -0.923880  0.047402 0.750753 1 78 1.000000
0  -0.797525 -12.298578 -1.492877  0.382683 0.000000 -0.923880  0.047402 0.750753 1 78 1.000000
lowpoly_metal
0  -0.797525 -12.826202 -1.492877  0.923880 0.000000 -0.382683  0.047402 0.750753 1 78 1.000000
0  -0.797525 -12.298578 -1.492877  0.923880 0.000000 -0.382683  0.047402 0.750753 1 78 1.000000
0  -0.563210 -12.298578 -0.927191  0.923880 0.000000 -0.382683  0.047402 0.750753 1 78 1.000000
lowpoly_metal
0  -1.559528 -12.826202 -0.546970  1.000000 0.000001 -0.000001  0.047402 0.750753 1 78 1.000000
0  -1.559529 -12.298578 -0.546969  1.000000 0.000001 -0.000001  0.047402 0.750753 1 78 1.000000
0  -1.559529 -12.298578 -0.318679  1.000000 0.000001 -0.000001  0.047402 0.750753 1 78 1.000000
lowpoly_metal
0  -1.559529 -12.298578 -0.546969  0.500000 -0.000000 0.866025  0.047402 0.750753 1 78 1.000000
0  -1.559528 -12.826202 -0.546970  0.500000 -0.000000 0.866025  0.047402 0.750753 1 78 1.000000
0  -1.361824 -12.826202 -0.661115  0.500000 -0.000000 0.866025  0.047402 0.750753 1 78 1.000000
lowpoly_metal
0  -0.934382 -12.826202 -0.909498  0.000000 -1.000000 0.000000  0.047402 0.750753 1 78 1.000000
0  -0.935767 -12.826202 -0.947286  0.000000 -1.000000 0.000000  0.047402 0.750753 1 78 1.000000
0  -0.738062 -12.826202 -1.061431  0.000000 -1.000000 0.000000  0.047402 0.750753 1 78 1.000000
lowpoly_metal
0  -0.736677 -12.826202 -0.795353  0.000000 -1.000000 0.000000  0.047402 0.750753 1 78 1.000000
0  -0.934382 -12.826202 -0.909498  0.000000 -1.000000 0.000000  0.047402 0.750753 1 78 1.000000
0  -0.738062 -12.826202 -1.061431  0.000000 -1.000000 0.000000  0.047402 0.750753 1 78 1.000000
lowpoly_metal
0  -0.736677 -12.826202 -0.795353  0.000000 -1.000000 0.000000  0.047402 0.750753 1 78 1.000000
0  -0.738062 -12.826202 -1.061431  0.000000 -1.000000 0.000000  0.047402 0.750753 1 78 1.000000
0  -0.563210 -12.826202 -0.927191  0.000000 -1.000000 0.000000  0.047402 0.750753 1 78 1.000000
lowpoly_metal
0  -0.738062 -12.826202 -1.061431  0.000000 -1.000000 0.000000  0.047402 0.750753 1 78 1.000000
0  -0.738062 -12.826202 -1.289721  0.000000 -1.000000 0.000000  0.047402 0.750753 1 78 1.000000
0  -0.563210 -12.826202 -0.927191  0.000000 -1.000000 0.000000  0.047402 0.750753 1 78 1.000000
lowpoly_metal
0  -0.935767 -12.826202 -1.403866  0.000000 -1.000000 -0.000002  0.047402 0.750753 1 78 1.000000
0  -1.133472 -12.826202 -1.289720  0.000000 -1.000000 -0.000002  0.047402 0.750753 1 78 1.000000
0  -1.166890 -12.826202 -1.535704  0.000000 -1.000000 -0.000002  0.047402 0.750753 1 78 1.000000
lowpoly_metal
0  -1.133472 -12.826202 -1.289720  0.000000 -1.000000 0.000001  0.047402 0.750753 1 78 1.000000
0  -1.166890 -12.826202 -1.307415  0.000000 -1.000000 0.000001  0.047402 0.750753 1 78 1.000000
0  -1.166890 -12.826202 -1.535704  0.000000 -1.000000 0.000001  0.047402 0.750753 1 78 1.000000
lowpoly_metal
0  -1.166890 -12.826202 -1.535704  0.000000 -1.000000 -0.000002  0.047402 0.750753 1 78 1.000000
0  -1.364595 -12.826202 -1.649849  0.000000 -1.000000 -0.000002  0.047402 0.750753 1 78 1.000000
0  -1.363211 -12.826202 -1.727191  0.000000 -1.000000 -0.000002  0.047402 0.750753 1 78 1.000000
lowpoly_metal
0  -0.797525 -12.826202 -0.361506  0.000000 -1.000000 0.000008  0.047402 0.750753 1 78 1.000000
0  -1.363210 -12.826202 -0.127191  0.000000 -1.000000 0.000008  0.047402 0.750753 1 78 1.000000
0  -1.164119 -12.826202 -0.318680  0.000000 -1.000000 0.000008  0.047402 0.750753 1 78 1.000000
lowpoly_metal
0  -1.363210 -12.826202 -0.127191  0.000000 -1.000000 0.000032  0.047402 0.750753 1 78 1.000000
0  -1.361824 -12.826202 -0.204535  0.000000 -1.000000 0.000032  0.047402 0.750753 1 78 1.000000
0  -1.164119 -12.826202 -0.318680  0.000000 -1.000000 0.000032  0.047402 0.750753 1 78 1.000000
lowpoly_metal
0  -1.164119 -12.826202 -0.318680  0.000000 -1.000000 0.000000  0.047402 0.750753 1 78 1.000000
0  -1.164119 -12.826202 -0.546970  0.000000 -1.000000 0.000000  0.047402 0.750753 1 78 1.000000
0  -0.934382 -12.826202 -0.452919  0.000000 -1.000000 0.000000  0.047402 0.750753 1 78 1.000000
lowpoly_metal
0  -1.164119 -12.826202 -0.546970  0.000000 -1.000000 0.000000  0.047402 0.750753 1 78 1.000000
0  -1.132087 -12.826202 -0.567063  0.000000 -1.000000 0.000000  0.047402 0.750753 1 78 1.000000
0  -0.934382 -12.826202 -0.452919  0.000000 -1.000000 0.000000  0.047402 0.750753 1 78 1.000000
lowpoly_metal
0  -1.166890 -12.826202 -1.535704  0.000000 -1.000000 0.000000  0.047402 0.750753 1 78 1.000000
0  -1.363211 -12.826202 -1.727191  0.000000 -1.000000 0.000000  0.047402 0.750753 1 78 1.000000
0  -0.797525 -12.826202 -1.492877  0.000000 -1.000000 0.000000  0.047402 0.750753 1 78 1.000000
lowpoly_metal
0  -0.935767 -12.826202 -1.403866  0.000000 -1.000000 0.000000  0.047402 0.750753 1 78 1.000000
0  -1.166890 -12.826202 -1.535704  0.000000 -1.000000 0.000000  0.047402 0.750753 1 78 1.000000
0  -0.797525 -12.826202 -1.492877  0.000000 -1.000000 0.000000  0.047402 0.750753 1 78 1.000000
lowpoly_metal
0  -0.797525 -12.826202 -0.361506  0.000000 -1.000000 -0.000012  0.047402 0.750753 1 78 1.000000
0  -1.164119 -12.826202 -0.318680  0.000000 -1.000000 -0.000012  0.047402 0.750753 1 78 1.000000
0  -0.934382 -12.826202 -0.452919  0.000000 -1.000000 -0.000012  0.047402 0.750753 1 78 1.000000
lowpoly_metal
0  -0.738062 -12.826202 -1.289721  0.000000 -1.000000 -0.000007  0.047402 0.750753 1 78 1.000000
0  -0.935767 -12.826202 -1.403866  0.000000 -1.000000 -0.000007  0.047402 0.750753 1 78 1.000000
0  -0.797525 -12.826202 -1.492877  0.000000 -1.000000 -0.000007  0.047402 0.750753 1 78 1.000000
lowpoly_metal
0  -0.738062 -12.826202 -1.289721  0.000000 -1.000000 0.000000  0.047402 0.750753 1 78 1.000000
0  -0.797525 -12.826202 -1.492877  0.000000 -1.000000 0.000000  0.047402 0.750753 1 78 1.000000
0  -0.563210 -12.826202 -0.927191  0.000000 -1.000000 0.000000  0.047402 0.750753 1 78 1.000000
lowpoly_metal
0  -0.797525 -12.826202 -0.361506  0.000000 -1.000000 0.000000  0.047402 0.750753 1 78 1.000000
0  -0.934382 -12.826202 -0.452919  0.000000 -1.000000 0.000000  0.047402 0.750753 1 78 1.000000
0  -0.736677 -12.826202 -0.567063  0.000000 -1.000000 0.000000  0.047402 0.750753 1 78 1.000000
lowpoly_metal
0  -0.563210 -12.826202 -0.927191  0.000000 -1.000000 0.000017  0.047402 0.750753 1 78 1.000000
0  -0.797525 -12.826202 -0.361506  0.000000 -1.000000 0.000017  0.047402 0.750753 1 78 1.000000
0  -0.736677 -12.826202 -0.567063  0.000000 -1.000000 0.000017  0.047402 0.750753 1 78 1.000000
lowpoly_metal
0  -1.562299 -12.826202 -1.535704  0.000000 -1.000000 0.000000  0.047402 0.750753 1 78 1.000000
0  -1.562299 -12.826202 -1.307414  0.000000 -1.000000 0.000000  0.047402 0.750753 1 78 1.000000
0  -1.792037 -12.826202 -1.401465  0.000000 -1.000000 0.000000  0.047402 0.750753 1 78 1.000000
lowpoly_metal
0  -1.562299 -12.826202 -1.307414  0.000000 -1.000000 0.000000  0.047402 0.750753 1 78 1.000000
0  -1.594332 -12.826202 -1.287320  0.000000 -1.000000 0.000000  0.047402 0.750753 1 78 1.000000
0  -1.792037 -12.826202 -1.401465  0.000000 -1.000000 0.000000  0.047402 0.750753 1 78 1.000000
lowpoly_metal
0  -1.363211 -12.826202 -1.727191  0.000000 -1.000000 0.000000  0.047402 0.750753 1 78 1.000000
0  -1.364595 -12.826202 -1.649849  0.000000 -1.000000 0.000000  0.047402 0.750753 1 78 1.000000
0  -1.562299 -12.826202 -1.535704  0.000000 -1.000000 0.000000  0.047402 0.750753 1 78 1.000000
lowpoly_metal
0  -1.361824 -12.826202 -0.204535  0.000000 -1.000000 -0.000031  0.047402 0.750753 1 78 1.000000
0  -1.363210 -12.826202 -0.127191  0.000000 -1.000000 -0.000031  0.047402 0.750753 1 78 1.000000
0  -1.559528 -12.826202 -0.318680  0.000000 -1.000000 -0.000031  0.047402 0.750753 1 78 1.000000
lowpoly_metal
0  -1.363210 -12.826202 -0.127191  0.000000 -1.000000 0.000000  0.047402 0.750753 1 78 1.000000
0  -1.928896 -12.826202 -0.361505  0.000000 -1.000000 0.000000  0.047402 0.750753 1 78 1.000000
0  -1.559528 -12.826202 -0.318680  0.000000 -1.000000 0.000000  0.047402 0.750753 1 78 1.000000
lowpoly_metal
0  -1.592945 -12.826202 -0.564662  0.000000 -1.000000 0.000000  0.047402 0.750753 1 78 1.000000
0  -1.559528 -12.826202 -0.546970  0.000000 -1.000000 0.000000  0.047402 0.750753 1 78 1.000000
0  -1.559528 -12.826202 -0.318680  0.000000 -1.000000 0.000000  0.047402 0.750753 1 78 1.000000
lowpoly_metal
0  -1.928896 -12.826202 -1.492876  0.000000 -1.000000 -0.000015  0.047402 0.750753 1 78 1.000000
0  -1.363211 -12.826202 -1.727191  0.000000 -1.000000 -0.000015  0.047402 0.750753 1 78 1.000000
0  -1.562299 -12.826202 -1.535704  0.000000 -1.000000 -0.000015  0.047402 0.750753 1 78 1.000000
lowpoly_metal
0  -1.562299 -12.826202 -1.535704  0.000000 -1.000000 0.000006  0.047402 0.750753 1 78 1.000000
0  -1.792037 -12.826202 -1.401465  0.000000 -1.000000 0.000006  0.047402 0.750753 1 78 1.000000
0  -1.928896 -12.826202 -1.492876  0.000000 -1.000000 0.000006  0.047402 0.750753 1 78 1.000000
lowpoly_metal
0  -1.792037 -12.826202 -1.401465  0.000000 -1.000000 -0.000004  0.047402 0.750753 1 78 1.000000
0  -1.989742 -12.826202 -1.287320  0.000000 -1.000000 -0.000004  0.047402 0.750753 1 78 1.000000
0  -1.928896 -12.826202 -1.492876  0.000000 -1.000000 -0.000004  0.047402 0.750753 1 78 1.000000
lowpoly_metal
0  -1.989742 -12.826202 -1.059030  0.000000 -1.000000 0.000000  0.047402 0.750753 1 78 1.000000
0  -1.792037 -12.826202 -0.944885  0.000000 -1.000000 0.000000  0.047402 0.750753 1 78 1.000000
0  -1.988355 -12.826202 -0.792951  0.000000 -1.000000 0.000000  0.047402 0.750753 1 78 1.000000
lowpoly_metal
0  -1.792037 -12.826202 -0.944885  0.000000 -1.000000 0.000063  0.047402 0.750753 1 78 1.000000
0  -1.790651 -12.826202 -0.907097  0.000000 -1.000000 0.000063  0.047402 0.750753 1 78 1.000000
0  -1.988355 -12.826202 -0.792951  0.000000 -1.000000 0.000063  0.047402 0.750753 1 78 1.000000
lowpoly_metal
0  -2.163210 -12.826202 -0.927191  0.000000 -1.000000 -0.000009  0.047402 0.750753 1 78 1.000000
0  -1.928896 -12.826202 -1.492876  0.000000 -1.000000 -0.000009  0.047402 0.750753 1 78 1.000000
0  -1.989742 -12.826202 -1.287320  0.000000 -1.000000 -0.000009  0.047402 0.750753 1 78 1.000000
lowpoly_metal
0  -1.989742 -12.826202 -1.059030  0.000000 -1.000000 0.000000  0.047402 0.750753 1 78 1.000000
0  -1.988355 -12.826202 -0.792951  0.000000 -1.000000 0.000000  0.047402 0.750753 1 78 1.000000
0  -2.163210 -12.826202 -0.927191  0.000000 -1.000000 0.000000  0.047402 0.750753 1 78 1.000000
lowpoly_metal
0  -1.988355 -12.826202 -0.792951  0.000000 -1.000000 0.000000  0.047402 0.750753 1 78 1.000000
0  -1.988355 -12.826202 -0.564662  0.000000 -1.000000 0.000000  0.047402 0.750753 1 78 1.000000
0  -2.163210 -12.826202 -0.927191  0.000000 -1.000000 0.000000  0.047402 0.750753 1 78 1.000000
lowpoly_metal
0  -2.163210 -12.826202 -0.927191  0.000000 -1.000000 0.000003  0.047402 0.750753 1 78 1.000000
0  -1.989742 -12.826202 -1.287320  0.000000 -1.000000 0.000003  0.047402 0.750753 1 78 1.000000
0  -1.989742 -12.826202 -1.059030  0.000000 -1.000000 0.000003  0.047402 0.750753 1 78 1.000000
lowpoly_metal
0  -1.592945 -12.826202 -0.564662  0.000000 -1.000000 0.000000  0.047402 0.750753 1 78 1.000000
0  -1.559528 -12.826202 -0.318680  0.000000 -1.000000 0.000000  0.047402 0.750753 1 78 1.000000
0  -1.790650 -12.826202 -0.450517  0.000000 -1.000000 0.000000  0.047402 0.750753 1 78 1.000000
lowpoly_metal
0  -1.559528 -12.826202 -0.318680  0.000000 -1.000000 0.000006  0.047402 0.750753 1 78 1.000000
0  -1.928896 -12.826202 -0.361505  0.000000 -1.000000 0.000006  0.047402 0.750753 1 78 1.000000
0  -1.790650 -12.826202 -0.450517  0.000000 -1.000000 0.000006  0.047402 0.750753 1 78 1.000000
lowpoly_metal
0  -1.988355 -12.826202 -0.564662  0.000000 -1.000000 0.000000  0.047402 0.750753 1 78 1.000000
0  -1.790650 -12.826202 -0.450517  0.000000 -1.000000 0.000000  0.047402 0.750753 1 78 1.000000
0  -1.928896 -12.826202 -0.361505  0.000000 -1.000000 0.000000  0.047402 0.750753 1 78 1.000000
lowpoly_metal
0  -1.166890 -12.826202 -1.307415  0.000000 -1.000000 0.000002  0.047402 0.750753 1 78 1.000000
0  -1.133472 -12.826202 -1.289720  0.000000 -1.000000 0.000002  0.047402 0.750753 1 78 1.000000
0  -1.133472 -12.826202 -1.061431  0.000000 -1.000000 0.000002  0.047402 0.750753 1 78 1.000000
lowpoly_metal
0  -1.133472 -12.826202 -1.061431  0.000000 -1.000000 0.000009  0.047402 0.750753 1 78 1.000000
0  -0.935767 -12.826202 -0.947286  0.000000 -1.000000 0.000009  0.047402 0.750753 1 78 1.000000
0  -1.132087 -12.826202 -0.795353  0.000000 -1.000000 0.000009  0.047402 0.750753 1 78 1.000000
lowpoly_metal
0  -0.935767 -12.826202 -0.947286  0.000000 -1.000000 0.000000  0.047402 0.750753 1 78 1.000000
0  -0.934382 -12.826202 -0.909498  0.000000 -1.000000 0.000000  0.047402 0.750753 1 78 1.000000
0  -1.132087 -12.826202 -0.795353  0.000000 -1.000000 0.000000  0.047402 0.750753 1 78 1.000000
lowpoly_metal
0  -1.132087 -12.826202 -0.795353  0.000000 -1.000000 0.000000  0.047402 0.750753 1 78 1.000000
0  -1.132087 -12.826202 -0.567063  0.000000 -1.000000 0.000000  0.047402 0.750753 1 78 1.000000
0  -1.361824 -12.826202 -0.661115  0.000000 -1.000000 0.000000  0.047402 0.750753 1 78 1.000000
lowpoly_metal
0  -1.132087 -12.826202 -0.567063  0.000000 -1.000000 0.000000  0.047402 0.750753 1 78 1.000000
0  -1.164119 -12.826202 -0.546970  0.000000 -1.000000 0.000000  0.047402 0.750753 1 78 1.000000
0  -1.361824 -12.826202 -0.661115  0.000000 -1.000000 0.000000  0.047402 0.750753 1 78 1.000000
lowpoly_metal
0  -1.364594 -12.826202 -1.193269  0.000000 -1.000000 0.000003  0.047402 0.750753 1 78 1.000000
0  -1.166890 -12.826202 -1.307415  0.000000 -1.000000 0.000003  0.047402 0.750753 1 78 1.000000
0  -1.133472 -12.826202 -1.061431  0.000000 -1.000000 0.000003  0.047402 0.750753 1 78 1.000000
lowpoly_metal
0  -1.594332 -12.826202 -1.287320  0.000000 -1.000000 0.000000  0.047402 0.750753 1 78 1.000000
0  -1.562299 -12.826202 -1.307414  0.000000 -1.000000 0.000000  0.047402 0.750753 1 78 1.000000
0  -1.364594 -12.826202 -1.193269  0.000000 -1.000000 0.000000  0.047402 0.750753 1 78 1.000000
lowpoly_metal
0  -1.790651 -12.826202 -0.907097  0.000000 -1.000000 0.000000  0.047402 0.750753 1 78 1.000000
0  -1.792037 -12.826202 -0.944885  0.000000 -1.000000 0.000000  0.047402 0.750753 1 78 1.000000
0  -1.594332 -12.826202 -1.059030  0.000000 -1.000000 0.000000  0.047402 0.750753 1 78 1.000000
lowpoly_metal
0  -1.594332 -12.826202 -1.059030  0.000000 -1.000000 0.000000  0.047402 0.750753 1 78 1.000000
0  -1.594332 -12.826202 -1.287320  0.000000 -1.000000 0.000000  0.047402 0.750753 1 78 1.000000
0  -1.364594 -12.826202 -1.193269  0.000000 -1.000000 0.000000  0.047402 0.750753 1 78 1.000000
lowpoly_metal
0  -1.364594 -12.826202 -1.193269  0.000000 -1.000000 0.000002  0.047402 0.750753 1 78 1.000000
0  -1.133472 -12.826202 -1.061431  0.000000 -1.000000 0.000002  0.047402 0.750753 1 78 1.000000
0  -1.132087 -12.826202 -0.795353  0.000000 -1.000000 0.000002  0.047402 0.750753 1 78 1.000000
lowpoly_metal
0  -1.361824 -12.826202 -0.661115  0.000000 -1.000000 -0.000001  0.047402 0.750753 1 78 1.000000
0  -1.559528 -12.826202 -0.546970  0.000000 -1.000000 -0.000001  0.047402 0.750753 1 78 1.000000
0  -1.592946 -12.826202 -0.792952  0.000000 -1.000000 -0.000001  0.047402 0.750753 1 78 1.000000
lowpoly_metal
0  -1.559528 -12.826202 -0.546970  0.000000 -1.000000 -0.000005  0.047402 0.750753 1 78 1.000000
0  -1.592945 -12.826202 -0.564662  0.000000 -1.000000 -0.000005  0.047402 0.750753 1 78 1.000000
0  -1.592946 -12.826202 -0.792952  0.000000 -1.000000 -0.000005  0.047402 0.750753 1 78 1.000000
lowpoly_metal
0  -1.592946 -12.826202 -0.792952  0.000000 -1.000000 0.000000  0.047402 0.750753 1 78 1.000000
0  -1.790651 -12.826202 -0.907097  0.000000 -1.000000 0.000000  0.047402 0.750753 1 78 1.000000
0  -1.594332 -12.826202 -1.059030  0.000000 -1.000000 0.000000  0.047402 0.750753 1 78 1.000000
lowpoly_metal
0  -1.364594 -12.826202 -1.193269  0.000000 -1.000000 0.000000  0.047402 0.750753 1 78 1.000000
0  -1.132087 -12.826202 -0.795353  0.000000 -1.000000 0.000000  0.047402 0.750753 1 78 1.000000
0  -1.361824 -12.826202 -0.661115  0.000000 -1.000000 0.000000  0.047402 0.750753 1 78 1.000000
lowpoly_metal
0  -1.592946 -12.826202 -0.792952  0.000000 -1.000000 0.000000  0.047402 0.750753 1 78 1.000000
0  -1.594332 -12.826202 -1.059030  0.000000 -1.000000 0.000000  0.047402 0.750753 1 78 1.000000
0  -1.361824 -12.826202 -0.661115  0.000000 -1.000000 0.000000  0.047402 0.750753 1 78 1.000000
lowpoly_metal
0  -1.166890 -12.826202 -1.307415  -1.000000 -0.000002 0.000002  0.047402 0.750753 1 78 1.000000
0  -1.166891 -12.298578 -1.307414  -1.000000 -0.000002 0.000002  0.047402 0.750753 1 78 1.000000
0  -1.166891 -12.298578 -1.535704  -1.000000 -0.000002 0.000002  0.047402 0.750753 1 78 1.000000
lowpoly_metal
0  -0.738062 -12.826202 -1.061431  -1.000000 -0.000002 0.000001  0.047402 0.750753 1 78 1.000000
0  -0.738063 -12.298578 -1.061430  -1.000000 -0.000002 0.000001  0.047402 0.750753 1 78 1.000000
0  -0.738063 -12.298578 -1.289720  -1.000000 -0.000002 0.000001  0.047402 0.750753 1 78 1.000000
lowpoly_metal
0  -1.792038 -12.298578 -0.944884  -0.500002 0.000000 -0.866024  0.047402 0.750753 1 78 1.000000
0  -1.594333 -12.298578 -1.059030  -0.500002 0.000000 -0.866024  0.047402 0.750753 1 78 1.000000
0  -1.594332 -12.826202 -1.059030  -0.500002 0.000000 -0.866024  0.047402 0.750753 1 78 1.000000
lowpoly_metal
0  -1.364595 -12.298578 -1.193269  -0.500002 0.000000 -0.866024  0.047402 0.750753 1 78 1.000000
0  -1.166891 -12.298578 -1.307414  -0.500002 0.000000 -0.866024  0.047402 0.750753 1 78 1.000000
0  -1.166890 -12.826202 -1.307415  -0.500002 0.000000 -0.866024  0.047402 0.750753 1 78 1.000000
lowpoly_metal
0  -1.792037 -12.826202 -1.401465  0.500000 -0.000000 0.866025  0.047402 0.750753 1 78 1.000000
0  -1.792038 -12.298578 -1.401464  0.500000 -0.000000 0.866025  0.047402 0.750753 1 78 1.000000
0  -1.989743 -12.298578 -1.287319  0.500000 -0.000000 0.866025  0.047402 0.750753 1 78 1.000000
lowpoly_metal
0  -1.594332 -12.826202 -1.059030  -1.000000 -0.000002 0.000002  0.047402 0.750753 1 78 1.000000
0  -1.594333 -12.298578 -1.059030  -1.000000 -0.000002 0.000002  0.047402 0.750753 1 78 1.000000
0  -1.594333 -12.298578 -1.287320  -1.000000 -0.000002 0.000002  0.047402 0.750753 1 78 1.000000
lowpoly_metal
0  -1.989742 -12.826202 -1.059030  0.500000 0.000002 -0.866025  0.047402 0.750753 1 78 1.000000
0  -1.989743 -12.298578 -1.059029  0.500000 0.000002 -0.866025  0.047402 0.750753 1 78 1.000000
0  -1.792038 -12.298578 -0.944884  0.500000 0.000002 -0.866025  0.047402 0.750753 1 78 1.000000
lowpoly_metal
0  -0.935768 -12.298578 -1.403865  -0.499998 -0.000003 0.866027  0.047402 0.750753 1 78 1.000000
0  -0.935767 -12.826202 -1.403866  -0.499998 -0.000003 0.866027  0.047402 0.750753 1 78 1.000000
0  -0.738062 -12.826202 -1.289721  -0.499998 -0.000003 0.866027  0.047402 0.750753 1 78 1.000000
lowpoly_metal
0  -1.989742 -12.826202 -1.059030  1.000000 0.000002 -0.000002  0.047402 0.750753 1 78 1.000000
0  -1.989742 -12.826202 -1.287320  1.000000 0.000002 -0.000002  0.047402 0.750753 1 78 1.000000
0  -1.989743 -12.298578 -1.287319  1.000000 0.000002 -0.000002  0.047402 0.750753 1 78 1.000000
lowpoly_metal
0  -0.935767 -12.826202 -0.947286  -0.500001 0.000000 -0.866025  0.047402 0.750753 1 78 1.000000
0  -0.935768 -12.298578 -0.947285  -0.500001 0.000000 -0.866025  0.047402 0.750753 1 78 1.000000
0  -0.738063 -12.298578 -1.061430  -0.500001 0.000000 -0.866025  0.047402 0.750753 1 78 1.000000
lowpoly_metal
0  -1.594332 -12.826202 -1.287320  -0.500000 -0.000002 0.866025  0.047402 0.750753 1 78 1.000000
0  -1.594333 -12.298578 -1.287320  -0.500000 -0.000002 0.866025  0.047402 0.750753 1 78 1.000000
0  -1.792038 -12.298578 -1.401464  -0.500000 -0.000002 0.866025  0.047402 0.750753 1 78 1.000000
lowpoly_metal
0  -0.935767 -12.826202 -1.403866  0.500002 -0.000000 0.866025  0.047402 0.750753 1 78 1.000000
0  -0.935768 -12.298578 -1.403865  0.500002 -0.000000 0.866025  0.047402 0.750753 1 78 1.000000
0  -1.133473 -12.298578 -1.289720  0.500002 -0.000000 0.866025  0.047402 0.750753 1 78 1.000000
lowpoly_metal
0  -1.988356 -12.298578 -0.564661  0.500000 0.000002 -0.866025  0.047402 0.750753 1 78 1.000000
0  -1.790651 -12.298578 -0.450516  0.500000 0.000002 -0.866025  0.047402 0.750753 1 78 1.000000
0  -1.790650 -12.826202 -0.450517  0.500000 0.000002 -0.866025  0.047402 0.750753 1 78 1.000000
lowpoly_metal
0  -1.133473 -12.298578 -1.061430  0.500000 0.000002 -0.866025  0.047402 0.750753 1 78 1.000000
0  -0.935768 -12.298578 -0.947285  0.500000 0.000002 -0.866025  0.047402 0.750753 1 78 1.000000
0  -0.935767 -12.826202 -0.947286  0.500000 0.000002 -0.866025  0.047402 0.750753 1 78 1.000000
lowpoly_metal
0  -1.988355 -12.826202 -0.792951  1.000000 0.000002 -0.000001  0.047402 0.750753 1 78 1.000000
0  -1.988356 -12.298578 -0.792951  1.000000 0.000002 -0.000001  0.047402 0.750753 1 78 1.000000
0  -1.988356 -12.298578 -0.564661  1.000000 0.000002 -0.000001  0.047402 0.750753 1 78 1.000000
lowpoly_metal
0  -1.133473 -12.298578 -1.289720  1.000000 0.000002 -0.000001  0.047402 0.750753 1 78 1.000000
0  -1.133473 -12.298578 -1.061430  1.000000 0.000002 -0.000001  0.047402 0.750753 1 78 1.000000
0  -1.133472 -12.826202 -1.061431  1.000000 0.000002 -0.000001  0.047402 0.750753 1 78 1.000000
lowpoly_metal
0  -1.790651 -12.826202 -0.907097  0.500003 -0.000000 0.866024  0.047402 0.750753 1 78 1.000000
0  -1.790652 -12.298578 -0.907096  0.500003 -0.000000 0.866024  0.047402 0.750753 1 78 1.000000
0  -1.988356 -12.298578 -0.792951  0.500003 -0.000000 0.866024  0.047402 0.750753 1 78 1.000000
lowpoly_metal
0  -1.364595 -12.826202 -1.649849  0.500000 -0.000001 0.866025  0.047402 0.750753 1 78 1.000000
0  -1.364596 -12.298578 -1.649848  0.500000 -0.000001 0.866025  0.047402 0.750753 1 78 1.000000
0  -1.562301 -12.298578 -1.535703  0.500000 -0.000001 0.866025  0.047402 0.750753 1 78 1.000000
lowpoly_metal
0  -1.592946 -12.826202 -0.792952  -0.500001 -0.000002 0.866025  0.047402 0.750753 1 78 1.000000
0  -1.592947 -12.298578 -0.792951  -0.500001 -0.000002 0.866025  0.047402 0.750753 1 78 1.000000
0  -1.790652 -12.298578 -0.907096  -0.500001 -0.000002 0.866025  0.047402 0.750753 1 78 1.000000
lowpoly_metal
0  -1.166890 -12.826202 -1.535704  -0.499997 -0.000002 0.866027  0.047402 0.750753 1 78 1.000000
0  -1.166891 -12.298578 -1.535704  -0.499997 -0.000002 0.866027  0.047402 0.750753 1 78 1.000000
0  -1.364596 -12.298578 -1.649848  -0.499997 -0.000002 0.866027  0.047402 0.750753 1 78 1.000000
lowpoly_metal
0  -1.790651 -12.298578 -0.450516  -0.500002 0.000000 -0.866024  0.047402 0.750753 1 78 1.000000
0  -1.592946 -12.298578 -0.564661  -0.500002 0.000000 -0.866024  0.047402 0.750753 1 78 1.000000
0  -1.592945 -12.826202 -0.564662  -0.500002 0.000000 -0.866024  0.047402 0.750753 1 78 1.000000
lowpoly_metal
0  -1.562300 -12.298578 -1.307413  0.499998 0.000002 -0.866026  0.047402 0.750753 1 78 1.000000
0  -1.364595 -12.298578 -1.193269  0.499998 0.000002 -0.866026  0.047402 0.750753 1 78 1.000000
0  -1.364594 -12.826202 -1.193269  0.499998 0.000002 -0.866026  0.047402 0.750753 1 78 1.000000
lowpoly_metal
0  -1.592945 -12.826202 -0.564662  -1.000000 -0.000002 0.000001  0.047402 0.750753 1 78 1.000000
0  -1.592946 -12.298578 -0.564661  -1.000000 -0.000002 0.000001  0.047402 0.750753 1 78 1.000000
0  -1.592947 -12.298578 -0.792951  -1.000000 -0.000002 0.000001  0.047402 0.750753 1 78 1.000000
lowpoly_metal
0  -1.562301 -12.298578 -1.535703  1.000000 0.000002 -0.000002  0.047402 0.750753 1 78 1.000000
0  -1.562300 -12.298578 -1.307413  1.000000 0.000002 -0.000002  0.047402 0.750753 1 78 1.000000
0  -1.562299 -12.826202 -1.307414  1.000000 0.000002 -0.000002  0.047402 0.750753 1 78 1.000000
lowpoly_metal
0  -1.559529 -12.298578 -0.318679  0.500000 0.000002 -0.866025  0.047402 0.750753 1 78 1.000000
0  -1.361825 -12.298578 -0.204535  0.500000 0.000002 -0.866025  0.047402 0.750753 1 78 1.000000
0  -1.361824 -12.826202 -0.204535  0.500000 0.000002 -0.866025  0.047402 0.750753 1 78 1.000000
lowpoly_metal
0  -1.361825 -12.298578 -0.204535  -0.499999 0.000000 -0.866026  0.047402 0.750753 1 78 1.000000
0  -1.164120 -12.298578 -0.318680  -0.499999 0.000000 -0.866026  0.047402 0.750753 1 78 1.000000
0  -1.164119 -12.826202 -0.318680  -0.499999 0.000000 -0.866026  0.047402 0.750753 1 78 1.000000
lowpoly_metal
0  -1.164119 -12.826202 -0.546970  -1.000000 -0.000002 0.000001  0.047402 0.750753 1 78 1.000000
0  -1.164119 -12.826202 -0.318680  -1.000000 -0.000002 0.000001  0.047402 0.750753 1 78 1.000000
0  -1.164120 -12.298578 -0.318680  -1.000000 -0.000002 0.000001  0.047402 0.750753 1 78 1.000000
lowpoly_metal
0  -1.164120 -12.298578 -0.546969  -0.499999 -0.000002 0.866026  0.047402 0.750753 1 78 1.000000
0  -1.361825 -12.298578 -0.661114  -0.499999 -0.000002 0.866026  0.047402 0.750753 1 78 1.000000
0  -1.361824 -12.826202 -0.661115  -0.499999 -0.000002 0.866026  0.047402 0.750753 1 78 1.000000
lowpoly_metal
0  -0.934383 -12.298578 -0.452918  -0.500001 0.000000 -0.866025  0.047402 0.750753 1 78 1.000000
0  -0.736678 -12.298578 -0.567063  -0.500001 0.000000 -0.866025  0.047402 0.750753 1 78 1.000000
0  -0.736677 -12.826202 -0.567063  -0.500001 0.000000 -0.866025  0.047402 0.750753 1 78 1.000000
lowpoly_metal
0  -0.736677 -12.826202 -0.795353  -1.000000 -0.000002 0.000000  0.047402 0.750753 1 78 1.000000
0  -0.736677 -12.826202 -0.567063  -1.000000 -0.000002 0.000000  0.047402 0.750753 1 78 1.000000
0  -0.736678 -12.298578 -0.567063  -1.000000 -0.000002 0.000000  0.047402 0.750753 1 78 1.000000
lowpoly_metal
0  -0.934383 -12.298578 -0.909498  -0.500000 -0.000002 0.866025  0.047402 0.750753 1 78 1.000000
0  -0.934382 -12.826202 -0.909498  -0.500000 -0.000002 0.866025  0.047402 0.750753 1 78 1.000000
0  -0.736677 -12.826202 -0.795353  -0.500000 -0.000002 0.866025  0.047402 0.750753 1 78 1.000000
lowpoly_metal
0  -0.934383 -12.298578 -0.909498  0.499999 -0.000000 0.866026  0.047402 0.750753 1 78 1.000000
0  -1.132088 -12.298578 -0.795353  0.499999 -0.000000 0.866026  0.047402 0.750753 1 78 1.000000
0  -1.132087 -12.826202 -0.795353  0.499999 -0.000000 0.866026  0.047402 0.750753 1 78 1.000000
lowpoly_metal
0  -1.132088 -12.298578 -0.567063  1.000000 0.000002 -0.000001  0.047402 0.750753 1 78 1.000000
0  -1.132087 -12.826202 -0.567063  1.000000 0.000002 -0.000001  0.047402 0.750753 1 78 1.000000
0  -1.132087 -12.826202 -0.795353  1.000000 0.000002 -0.000001  0.047402 0.750753 1 78 1.000000
lowpoly_metal
0  -0.934383 -12.298578 -0.452918  0.499999 0.000002 -0.866026  0.047402 0.750753 1 78 1.000000
0  -0.934382 -12.826202 -0.452919  0.499999 0.000002 -0.866026  0.047402 0.750753 1 78 1.000000
0  -1.132087 -12.826202 -0.567063  0.499999 0.000002 -0.866026  0.047402 0.750753 1 78 1.000000
lowpoly_metal
0  -1.363210 -12.298578 -1.200574  0.500003 0.000000 -0.866023  0.047402 0.750753 1 78 1.000000
0  -1.363210 -12.158484 -1.200574  0.500003 0.000000 -0.866023  0.047402 0.750753 1 78 1.000000
0  -1.126454 -12.158484 -1.063882  0.500003 0.000000 -0.866023  0.047402 0.750753 1 78 1.000000
lowpoly_metal
0  -1.363210 -12.298578 -0.653808  -0.500003 0.000000 0.866024  0.047402 0.750753 1 78 1.000000
0  -1.363210 -12.158484 -0.653808  -0.500003 0.000000 0.866024  0.047402 0.750753 1 78 1.000000
0  -1.599967 -12.158484 -0.790499  -0.500003 0.000000 0.866024  0.047402 0.750753 1 78 1.000000
lowpoly_metal
0  -1.599967 -12.298578 -0.790499  -1.000000 0.000002 0.000000  0.047402 0.750753 1 78 1.000000
0  -1.599967 -12.158484 -0.790499  -1.000000 0.000002 0.000000  0.047402 0.750753 1 78 1.000000
0  -1.599967 -12.158484 -1.063882  -1.000000 0.000002 0.000000  0.047402 0.750753 1 78 1.000000
lowpoly_metal
0  -1.599967 -12.298578 -1.063882  -0.500004 0.000001 -0.866023  0.047402 0.750753 1 78 1.000000
0  -1.599967 -12.158484 -1.063882  -0.500004 0.000001 -0.866023  0.047402 0.750753 1 78 1.000000
0  -1.363210 -12.158484 -1.200574  -0.500004 0.000001 -0.866023  0.047402 0.750753 1 78 1.000000
lowpoly_metal
0  -1.126454 -12.298578 -1.063882  1.000000 0.000000 -0.000000  0.047402 0.750753 1 78 1.000000
0  -1.126454 -12.158484 -1.063882  1.000000 0.000000 -0.000000  0.047402 0.750753 1 78 1.000000
0  -1.126453 -12.158484 -0.790499  1.000000 0.000000 -0.000000  0.047402 0.750753 1 78 1.000000
lowpoly_metal
0  -1.549818 -11.956493 -1.034929  -0.743001 -0.669290 0.000005  0.008957 0.761915 1 78 1.000000
0  -1.549818 -11.956492 -0.819453  -0.743001 -0.669290 0.000005  0.008957 0.761915 1 78 1.000000
0  -1.584701 -11.917768 -0.799313  -0.743001 -0.669290 0.000005  0.008957 0.761915 1 78 1.000000
lowpoly_metal
0  -1.126454 -12.298578 -0.790499  0.500003 0.000000 0.866023  0.047402 0.750753 1 78 1.000000
0  -1.126453 -12.158484 -0.790499  0.500003 0.000000 0.866023  0.047402 0.750753 1 78 1.000000
0  -1.363210 -12.158484 -0.653808  0.500003 0.000000 0.866023  0.047402 0.750753 1 78 1.000000
lowpoly_metal
0  -1.363210 -12.298578 -1.200574  0.000000 -1.000000 0.000000  0.047402 0.750753 1 78 1.000000
0  -1.126454 -12.298578 -1.063882  0.000000 -1.000000 0.000000  0.047402 0.750753 1 78 1.000000
0  -1.126454 -12.298578 -0.790499  0.000000 -1.000000 0.000000  0.047402 0.750753 1 78 1.000000
lowpoly_metal
0  -1.126454 -12.298578 -0.790499  0.000000 -1.000000 -0.000001  0.047402 0.750753 1 78 1.000000
0  -1.363210 -12.298578 -0.653808  0.000000 -1.000000 -0.000001  0.047402 0.750753 1 78 1.000000
0  -1.363210 -12.298578 -1.200574  0.000000 -1.000000 -0.000001  0.047402 0.750753 1 78 1.000000
lowpoly_metal
0  -1.363210 -12.298578 -0.653808  0.000000 -1.000000 0.000000  0.047402 0.750753 1 78 1.000000
0  -1.599967 -12.298578 -0.790499  0.000000 -1.000000 0.000000  0.047402 0.750753 1 78 1.000000
0  -1.363210 -12.298578 -1.200574  0.000000 -1.000000 0.000000  0.047402 0.750753 1 78 1.000000
lowpoly_metal
0  -1.126453 -12.158484 -0.790499  0.707110 0.707104 0.000000  0.008957 0.761915 1 78 1.000000
0  -1.126454 -12.158484 -1.063882  0.707110 0.707104 0.000000  0.008957 0.761915 1 78 1.000000
0  -1.176602 -12.108335 -1.034929  0.707110 0.707104 0.000000  0.008957 0.761915 1 78 1.000000
lowpoly_metal
0  -1.363210 -12.158484 -0.653808  0.353548 0.707090 0.612395  0.008957 0.761915 1 78 1.000000
0  -1.126453 -12.158484 -0.790499  0.353548 0.707090 0.612395  0.008957 0.761915 1 78 1.000000
0  -1.176602 -12.108335 -0.819453  0.353548 0.707090 0.612395  0.008957 0.761915 1 78 1.000000
lowpoly_metal
0  -1.599967 -12.158484 -0.790499  -0.353553 0.707099 0.612381  0.008957 0.761915 1 78 1.000000
0  -1.363210 -12.158484 -0.653808  -0.353553 0.707099 0.612381  0.008957 0.761915 1 78 1.000000
0  -1.363210 -12.108335 -0.711714  -0.353553 0.707099 0.612381  0.008957 0.761915 1 78 1.000000
lowpoly_metal
0  -1.599967 -12.158484 -1.063882  -0.707110 0.707103 0.000000  0.008957 0.761915 1 78 1.000000
0  -1.599967 -12.158484 -0.790499  -0.707110 0.707103 0.000000  0.008957 0.761915 1 78 1.000000
0  -1.549818 -12.108335 -0.819453  -0.707110 0.707103 0.000000  0.008957 0.761915 1 78 1.000000
lowpoly_metal
0  -1.363210 -12.158484 -1.200574  -0.353549 0.707089 -0.612396  0.008957 0.761915 1 78 1.000000
0  -1.599967 -12.158484 -1.063882  -0.353549 0.707089 -0.612396  0.008957 0.761915 1 78 1.000000
0  -1.549818 -12.108335 -1.034929  -0.353549 0.707089 -0.612396  0.008957 0.761915 1 78 1.000000
lowpoly_metal
0  -1.126454 -12.158484 -1.063882  0.353553 0.707101 -0.612380  0.008957 0.761915 1 78 1.000000
0  -1.363210 -12.158484 -1.200574  0.353553 0.707101 -0.612380  0.008957 0.761915 1 78 1.000000
0  -1.363210 -12.108335 -1.142667  0.353553 0.707101 -0.612380  0.008957 0.761915 1 78 1.000000
lowpoly_metal
0  -1.363210 -12.108335 -1.142667  -0.499997 -0.000000 -0.866027  0.047402 0.750753 1 78 1.000000
0  -1.549818 -12.108335 -1.034929  -0.499997 -0.000000 -0.866027  0.047402 0.750753 1 78 1.000000
0  -1.549818 -11.956493 -1.034929  -0.499997 -0.000000 -0.866027  0.047402 0.750753 1 78 1.000000
lowpoly_metal
0  -1.549818 -12.108335 -0.819453  -0.500004 0.000000 0.866023  0.047402 0.750753 1 78 1.000000
0  -1.363210 -12.108335 -0.711714  -0.500004 0.000000 0.866023  0.047402 0.750753 1 78 1.000000
0  -1.363210 -11.956493 -0.711714  -0.500004 0.000000 0.866023  0.047402 0.750753 1 78 1.000000
lowpoly_metal
0  -1.176602 -12.108335 -0.819453  1.000000 0.000000 0.000000  0.047402 0.750753 1 78 1.000000
0  -1.176602 -12.108335 -1.034929  1.000000 0.000000 0.000000  0.047402 0.750753 1 78 1.000000
0  -1.176602 -11.956493 -1.034929  1.000000 0.000000 0.000000  0.047402 0.750753 1 78 1.000000
lowpoly_metal
0  -1.549818 -12.108335 -1.034929  -1.000000 0.000000 0.000000  0.047402 0.750753 1 78 1.000000
0  -1.549818 -12.108335 -0.819453  -1.000000 0.000000 0.000000  0.047402 0.750753 1 78 1.000000
0  -1.549818 -11.956492 -0.819453  -1.000000 0.000000 0.000000  0.047402 0.750753 1 78 1.000000
lowpoly_metal
0  -1.176602 -12.108335 -1.034929  0.500005 0.000000 -0.866023  0.047402 0.750753 1 78 1.000000
0  -1.363210 -12.108335 -1.142667  0.500005 0.000000 -0.866023  0.047402 0.750753 1 78 1.000000
0  -1.363210 -11.956493 -1.142667  0.500005 0.000000 -0.866023  0.047402 0.750753 1 78 1.000000
lowpoly_metal
0  -1.363210 -12.108335 -0.711714  0.499998 0.000000 0.866026  0.047402 0.750753 1 78 1.000000
0  -1.176602 -12.108335 -0.819453  0.499998 0.000000 0.866026  0.047402 0.750753 1 78 1.000000
0  -1.176602 -11.956493 -0.819453  0.499998 0.000000 0.866026  0.047402 0.750753 1 78 1.000000
lowpoly_metal
0  -1.584701 -11.917768 -0.799313  -0.500000 0.000000 0.866025  0.047402 0.750753 1 78 1.000000
0  -1.363210 -11.917768 -0.671436  -0.500000 0.000000 0.866025  0.047402 0.750753 1 78 1.000000
0  -1.363210 -11.804864 -0.671436  -0.500000 0.000000 0.866025  0.047402 0.750753 1 78 1.000000
lowpoly_metal
0  -1.363210 -11.956493 -1.142667  -0.371504 -0.669284 -0.643462  0.008957 0.761915 1 78 1.000000
0  -1.549818 -11.956493 -1.034929  -0.371504 -0.669284 -0.643462  0.008957 0.761915 1 78 1.000000
0  -1.584701 -11.917768 -1.055069  -0.371504 -0.669284 -0.643462  0.008957 0.761915 1 78 1.000000
lowpoly_metal
0  -1.363210 -11.956493 -0.711714  0.371504 -0.669284 0.643462  0.008957 0.761915 1 78 1.000000
0  -1.176602 -11.956493 -0.819453  0.371504 -0.669284 0.643462  0.008957 0.761915 1 78 1.000000
0  -1.141719 -11.917768 -0.799313  0.371504 -0.669284 0.643462  0.008957 0.761915 1 78 1.000000
lowpoly_metal
0  -1.549818 -11.956492 -0.819453  -0.371495 -0.669261 0.643492  0.008957 0.761915 1 78 1.000000
0  -1.363210 -11.956493 -0.711714  -0.371495 -0.669261 0.643492  0.008957 0.761915 1 78 1.000000
0  -1.363210 -11.917768 -0.671436  -0.371495 -0.669261 0.643492  0.008957 0.761915 1 78 1.000000
lowpoly_metal
0  -1.176602 -11.956493 -1.034929  0.371501 -0.669279 -0.643469  0.008957 0.761915 1 78 1.000000
0  -1.363210 -11.956493 -1.142667  0.371501 -0.669279 -0.643469  0.008957 0.761915 1 78 1.000000
0  -1.363210 -11.917768 -1.182946  0.371501 -0.669279 -0.643469  0.008957 0.761915 1 78 1.000000
lowpoly_metal
0  -1.176602 -11.956493 -0.819453  0.743006 -0.669285 0.000000  0.008957 0.761915 1 78 1.000000
0  -1.176602 -11.956493 -1.034929  0.743006 -0.669285 0.000000  0.008957 0.761915 1 78 1.000000
0  -1.141719 -11.917768 -1.055069  0.743006 -0.669285 0.000000  0.008957 0.761915 1 78 1.000000
lowpoly_metal
0  -1.363210 -11.917768 -1.182946  -0.500000 0.000000 -0.866025  0.047402 0.750753 1 78 1.000000
0  -1.584701 -11.917768 -1.055069  -0.500000 0.000000 -0.866025  0.047402 0.750753 1 78 1.000000
0  -1.584701 -11.804864 -1.055069  -0.500000 0.000000 -0.866025  0.047402 0.750753 1 78 1.000000
lowpoly_metal
0  -1.363210 -11.784698 -0.694721  0.000000 1.000000 0.000001  0.047402 0.750753 1 78 1.000000
0  -1.161885 -11.784698 -0.810956  0.000000 1.000000 0.000001  0.047402 0.750753 1 78 1.000000
0  -1.161885 -11.784698 -1.043426  0.000000 1.000000 0.000001  0.047402 0.750753 1 78 1.000000
lowpoly_metal
0  -1.161885 -11.784698 -1.043426  0.000000 1.000000 0.000000  0.047402 0.750753 1 78 1.000000
0  -1.363210 -11.784698 -1.159661  0.000000 1.000000 0.000000  0.047402 0.750753 1 78 1.000000
0  -1.564535 -11.784698 -1.043426  0.000000 1.000000 0.000000  0.047402 0.750753 1 78 1.000000
lowpoly_metal
0  -1.564535 -11.784698 -1.043426  0.000000 1.000000 0.000000  0.047402 0.750753 1 78 1.000000
0  -1.564535 -11.784698 -0.810956  0.000000 1.000000 0.000000  0.047402 0.750753 1 78 1.000000
0  -1.161885 -11.784698 -1.043426  0.000000 1.000000 0.000000  0.047402 0.750753 1 78 1.000000
lowpoly_metal
0  -1.584701 -11.917768 -1.055069  -1.000000 0.000000 0.000000  0.047402 0.750753 1 78 1.000000
0  -1.584701 -11.917768 -0.799313  -1.000000 0.000000 0.000000  0.047402 0.750753 1 78 1.000000
0  -1.584701 -11.804864 -0.799313  -1.000000 0.000000 0.000000  0.047402 0.750753 1 78 1.000000
lowpoly_metal
0  -1.363210 -11.917768 -0.671436  0.500000 0.000000 0.866025  0.047402 0.750753 1 78 1.000000
0  -1.141719 -11.917768 -0.799313  0.500000 0.000000 0.866025  0.047402 0.750753 1 78 1.000000
0  -1.141719 -11.804864 -0.799313  0.500000 0.000000 0.866025  0.047402 0.750753 1 78 1.000000
lowpoly_metal
0  -1.141719 -11.917768 -0.799313  1.000000 0.000000 0.000000  0.047402 0.750753 1 78 1.000000
0  -1.141719 -11.917768 -1.055069  1.000000 0.000000 0.000000  0.047402 0.750753 1 78 1.000000
0  -1.141719 -11.804864 -1.055069  1.000000 0.000000 0.000000  0.047402 0.750753 1 78 1.000000
lowpoly_metal
0  -1.363210 -11.784698 -1.159661  0.353552 0.707087 -0.612395  0.047402 0.750753 1 78 1.000000
0  -1.161885 -11.784698 -1.043426  0.353552 0.707087 -0.612395  0.047402 0.750753 1 78 1.000000
0  -1.141719 -11.804864 -1.055069  0.353552 0.707087 -0.612395  0.047402 0.750753 1 78 1.000000
lowpoly_metal
0  -1.564535 -11.784698 -1.043426  -0.353566 0.707108 -0.612364  0.047402 0.750753 1 78 1.000000
0  -1.363210 -11.784698 -1.159661  -0.353566 0.707108 -0.612364  0.047402 0.750753 1 78 1.000000
0  -1.363210 -11.804864 -1.182946  -0.353566 0.707108 -0.612364  0.047402 0.750753 1 78 1.000000
lowpoly_metal
0  -1.564535 -11.784698 -0.810956  -0.707122 0.707092 0.000000  0.047402 0.750753 1 78 1.000000
0  -1.564535 -11.784698 -1.043426  -0.707122 0.707092 0.000000  0.047402 0.750753 1 78 1.000000
0  -1.584701 -11.804864 -1.055069  -0.707122 0.707092 0.000000  0.047402 0.750753 1 78 1.000000
lowpoly_metal
0  -1.363210 -11.784698 -0.694721  -0.353555 0.707083 0.612399  0.047402 0.750753 1 78 1.000000
0  -1.564535 -11.784698 -0.810956  -0.353555 0.707083 0.612399  0.047402 0.750753 1 78 1.000000
0  -1.584701 -11.804864 -0.799313  -0.353555 0.707083 0.612399  0.047402 0.750753 1 78 1.000000
lowpoly_metal
0  -1.161885 -11.784698 -0.810956  0.353567 0.707107 0.612364  0.047402 0.750753 1 78 1.000000
0  -1.363210 -11.784698 -0.694721  0.353567 0.707107 0.612364  0.047402 0.750753 1 78 1.000000
0  -1.363210 -11.804864 -0.671436  0.353567 0.707107 0.612364  0.047402 0.750753 1 78 1.000000
lowpoly_metal
0  -1.161885 -11.784698 -1.043426  0.707112 0.707101 0.000000  0.047402 0.750753 1 78 1.000000
0  -1.161885 -11.784698 -0.810956  0.707112 0.707101 0.000000  0.047402 0.750753 1 78 1.000000
0  -1.141719 -11.804864 -0.799313  0.707112 0.707101 0.000000  0.047402 0.750753 1 78 1.000000
lowpoly_metal
0  -1.141719 -11.917768 -1.055069  0.500001 0.000000 -0.866025  0.047402 0.750753 1 78 1.000000
0  -1.363210 -11.917768 -1.182946  0.500001 0.000000 -0.866025  0.047402 0.750753 1 78 1.000000
0  -1.363210 -11.804864 -1.182946  0.500001 0.000000 -0.866025  0.047402 0.750753 1 78 1.000000
end
