version 1
nodes
0 "ValveBiped.Bip01_Spine4" -1
1 "ValveBiped.Bip01_L_Clavicle" 0
2 "ValveBiped.Bip01_L_UpperArm" 1
3 "ValveBiped.Bip01_L_Forearm" 2
4 "ValveBiped.Bip01_L_Hand" 3
5 "ValveBiped.Bip01_L_Finger4" 4
6 "ValveBiped.Bip01_L_Finger41" 5
7 "ValveBiped.Bip01_L_Finger42" 6
8 "ValveBiped.Bip01_L_Finger3" 4
9 "ValveBiped.Bip01_L_Finger31" 8
10 "ValveBiped.Bip01_L_Finger32" 9
11 "ValveBiped.Bip01_L_Finger2" 4
12 "ValveBiped.Bip01_L_Finger21" 11
13 "ValveBiped.Bip01_L_Finger22" 12
14 "ValveBiped.Bip01_L_Finger1" 4
15 "ValveBiped.Bip01_L_Finger11" 14
16 "ValveBiped.Bip01_L_Finger12" 15
17 "ValveBiped.Bip01_L_Finger0" 4
18 "ValveBiped.Bip01_L_Finger01" 17
19 "ValveBiped.Bip01_L_Finger02" 18
20 "ValveBiped.Bip01_L_Ulna" 3
21 "ValveBiped.Bip01_L_Wrist" 3
22 "rig_l_upperarm" 1
23 "rig_l_forearm" 22
24 "rig_d_l_forearm" 23
25 "rig_d_l_upperarm" 22
26 "ValveBiped.Bip01_R_Clavicle" 0
27 "ValveBiped.Bip01_R_UpperArm" 26
28 "ValveBiped.Bip01_R_Forearm" 27
29 "ValveBiped.Bip01_R_Hand" 28
30 "ValveBiped.Bip01_R_Finger4" 29
31 "ValveBiped.Bip01_R_Finger41" 30
32 "ValveBiped.Bip01_R_Finger42" 31
33 "ValveBiped.Bip01_R_Finger3" 29
34 "ValveBiped.Bip01_R_Finger31" 33
35 "ValveBiped.Bip01_R_Finger32" 34
36 "ValveBiped.Bip01_R_Finger2" 29
37 "ValveBiped.Bip01_R_Finger21" 36
38 "ValveBiped.Bip01_R_Finger22" 37
39 "ValveBiped.Bip01_R_Finger1" 29
40 "ValveBiped.Bip01_R_Finger11" 39
41 "ValveBiped.Bip01_R_Finger12" 40
42 "ValveBiped.Bip01_R_Finger0" 29
43 "ValveBiped.Bip01_R_Finger01" 42
44 "ValveBiped.Bip01_R_Finger02" 43
45 "ValveBiped.Bip01_R_Ulna" 28
46 "ValveBiped.Bip01_R_Wrist" 28
47 "rig_r_upperarm" 26
48 "rig_r_forearm" 47
49 "rig_d_r_forearm" 48
50 "rig_d_r_upperarm" 47
51 "rig_r_hand" -1
52 "rig_d_r_hand" 51
53 "rig_d_r_wrist" 52
54 "rig_l_hand" -1
55 "rig_d_l_hand" 54
56 "rig_d_l_wrist" 54
57 "rig_l_pole" -1
58 "rig_r_pole" -1
59 "rig_l_clavicle" -1
60 "rig_d_l_clavicle" 59
61 "rig_r_clavicle" -1
62 "rig_d_r_clavicle" 61
63 "Camera" -1
64 "body" -1
65 "hammer" 64
66 "barrel" 64
67 "cylinderlock" 64
68 "cylinder" 67
69 "cylinderpush" 68
70 "trigger" 64
71 "cylrel" 64
72 "bullet1" -1
73 "bullet2" -1
74 "bullet3" -1
75 "bullet4" -1
76 "bullet5" -1
77 "bullet6" -1
78 "speedloader" -1
end
skeleton
time 0
0  0.000006 0.000000 0.000000  -1.570800 -1.391899 -1.570792
1  2.033349 1.000767 1.937657  -1.544956 -1.855077 -0.198630
2  6.027515 -0.000324 0.000201  -1.583284 0.045954 -0.585171
3  11.692119 0.000650 -0.000737  -0.000012 0.000001 -0.056696
4  11.481224 0.000160 -0.000727  1.576889 -0.106574 0.041971
5  3.859504 -0.142825 -1.192079  -0.468169 0.151546 -0.880257
6  1.312590 0.000009 0.000007  -0.000027 0.000044 -0.439740
7  0.729357 0.000054 0.000049  0.000017 0.000021 -0.244317
8  3.942141 0.046330 -0.431543  -0.151817 0.073216 -0.811086
9  1.539113 0.000082 0.000004  -0.000007 0.000021 -0.247842
10  1.196331 0.000148 0.000029  0.000011 0.000018 -0.430770
11  3.883512 -0.047212 0.431351  0.085894 0.021858 -0.587909
12  1.719573 -0.000030 0.000017  0.000015 0.005518 -0.366533
13  1.209181 0.000090 0.000012  0.000004 0.003091 -0.216438
14  3.859679 -0.138420 1.332380  0.354466 -0.042717 -0.531784
15  1.719446 -0.000022 0.000029  0.000028 0.004066 -0.363025
16  1.099675 0.000049 0.000005  0.000003 0.002578 -0.244381
17  0.806011 -0.349039 1.321247  -1.222694 -0.679188 -0.788867
18  1.789819 -0.000005 -0.000017  0.000011 -0.000024 0.228523
19  1.207014 -0.000014 -0.000043  0.000002 -0.000008 0.362856
20  5.740638 0.000388 -0.000698  0.003035 0.000003 0.000063
21  11.481259 0.000207 -0.000799  0.004953 0.000188 -0.001556
22  6.027525 -0.000330 0.000200  0.059595 -2.453119 -2.193920
23  0.000000 11.692101 -0.000007  -0.043320 -0.000838 -0.036616
24  0.000003 0.000010 0.000000  0.868996 -0.000031 1.570739
25  -0.000001 -0.000012 -0.000001  0.868960 0.000002 1.570712
26  2.033355 1.000772 -1.937609  1.473120 1.855075 -0.198639
27  6.027509 -0.000259 -0.000229  1.637176 -0.060228 -0.592196
28  11.691992 0.000163 0.000858  -0.000050 -0.000001 -0.007067
29  11.539204 0.000316 0.000816  -1.562466 0.108529 -0.061253
30  3.859438 -0.132760 1.193065  0.466290 -0.158048 -0.878823
31  1.312559 0.000023 0.000001  0.000013 -0.000043 -0.439709
32  0.729345 0.000065 -0.000027  -0.000023 -0.000019 -0.244286
33  3.942046 0.050138 0.431000  0.150091 -0.079181 -0.810189
34  1.539099 0.000006 0.000000  0.000009 -0.000007 -0.247824
35  1.196302 0.000075 -0.000004  -0.000007 -0.000009 -0.430781
36  3.883415 -0.050474 -0.431084  -0.085915 -0.026392 -0.587660
37  1.719564 -0.000085 -0.000004  -0.000006 -0.007962 -0.366486
38  1.209197 0.000034 0.000011  0.000002 -0.004461 -0.216413
39  3.859588 -0.149084 -1.331321  -0.354445 0.038578 -0.531955
40  1.719413 -0.000099 -0.000036  -0.000030 -0.006584 -0.363030
41  1.099674 0.000025 0.000006  0.000004 -0.004188 -0.244347
42  0.805982 -0.359850 -1.318338  1.221444 0.673631 -0.793558
43  1.789779 -0.000010 -0.000040  -0.000028 0.000031 0.228553
44  1.206995 -0.000006 0.000007  -0.000017 0.000020 0.362910
45  5.740573 0.000079 0.000723  0.026990 -0.000014 0.000028
46  11.492787 0.000137 0.000908  0.000504 0.000315 -0.022541
47  6.027515 -0.000273 -0.000228  0.074799 -0.634128 -2.207435
48  -0.000001 11.691977 -0.000007  -0.005397 0.000036 0.004562
49  0.000002 -0.000001 0.000001  2.272571 -0.000036 1.570860
50  -0.000008 -0.000014 0.000004  2.272645 -0.000036 1.570861
51  -22.620094 0.844507 -17.554111  -1.605366 2.379717 -0.041994
52  -0.000000 0.000001 -0.000000  0.008153 -0.000259 0.000009
53  0.000001 -0.000001 0.000000  1.565115 0.043565 -0.106862
54  22.676517 -0.984221 -17.554199  1.605712 0.761853 0.042358
55  0.000001 -0.000003 -0.000000  0.000000 -0.000001 -0.000002
56  0.000032 0.000027 0.000001  -1.571901 -0.044449 -0.106509
57  15.265023 8.339654 -8.787539  1.570796 -0.000000 0.000000
58  -15.265000 8.339654 -8.787539  1.570796 -0.000000 0.000000
59  1.941978 -1.346989 1.821586  1.570796 -0.000000 0.000000
60  -0.004311 0.001230 -0.000371  0.006898 -0.005534 -0.284229
61  -1.937603 -1.346625 1.822824  1.570796 -0.000000 0.000000
62  0.000000 0.000000 0.000000  -0.078727 -3.136056 0.284226
63  0.000000 0.000000 0.000000  1.570796 -0.000000 0.000000
64  -3.534368 -10.111034 -2.851932  1.570796 -0.000000 0.000000
65  -0.143794 1.243191 1.790707  0.000000 -0.000000 0.000000
66  0.000001 2.431489 11.900957  0.000000 -0.000000 0.000000
67  0.151288 0.906791 4.692154  0.000000 -0.000000 0.000000
68  -0.151288 1.013638 -0.467878  0.000000 -0.000000 0.000000
69  0.000000 -0.000000 2.081793  0.000000 -0.000000 0.000000
70  0.000000 0.884824 2.687938  0.000000 -0.000000 0.000000
71  0.299800 1.920429 2.128872  0.000000 -0.000000 0.000000
72  -3.535433 -13.118125 -0.421628  1.570796 -0.000000 0.000000
73  -3.099609 -13.118127 -0.679613  1.570796 -0.000000 0.000000
74  -3.102738 -13.118127 -1.178184  1.570796 -0.000000 0.000000
75  -3.534845 -13.118125 -1.432538  1.570796 -0.000000 0.000000
76  -3.968438 -13.118125 -1.178268  1.570796 -0.000000 0.000000
77  -3.970815 -13.118125 -0.680112  1.570796 -0.000000 0.000000
78  -1.363209 -12.825721 -0.927084  1.570796 -0.000000 0.000000
end
triangles
lowpoly_plastic
0  -3.779110 -11.398150 -3.666199  0.000000 -0.893340 -0.449381  0.519062 0.233440 1 64 1.000000
0  -3.540584 -11.575432 -3.313776  0.000000 -0.893340 -0.449381  0.519062 0.233440 1 64 1.000000
0  -3.779110 -11.575432 -3.313776  0.000000 -0.893340 -0.449381  0.519062 0.233440 1 64 1.000000
lowpoly_plastic
0  -3.540584 -12.035369 -2.244604  0.000000 -0.691755 0.722132  0.519062 0.233440 1 64 1.000000
0  -3.977579 -12.183458 -2.386465  0.000000 -0.691755 0.722132  0.519062 0.233440 1 64 1.000000
0  -3.540584 -12.183458 -2.386465  0.000000 -0.691755 0.722132  0.519062 0.233440 1 64 1.000000
lowpoly_plastic
0  -3.540584 -12.183458 -2.386465  0.000000 -0.973282 0.229615  0.519062 0.233440 1 64 1.000000
0  -3.977579 -12.183458 -2.386465  0.000000 -0.973282 0.229615  0.519062 0.233440 1 64 1.000000
0  -3.977579 -12.330058 -3.007863  0.000000 -0.973282 0.229615  0.519062 0.233440 1 64 1.000000
lowpoly_plastic
0  -3.540584 -11.326849 -1.183931  0.002313 -0.999895 0.014307  0.519062 0.233440 1 64 1.000000
0  -3.812451 -11.326849 -1.183931  -0.000000 -0.999903 0.013897  0.519062 0.233440 1 64 1.000000
0  -3.977578 -11.329075 -1.344078  -0.001759 -0.999877 0.015595  0.519062 0.233440 1 64 1.000000
lowpoly_plastic
0  -3.977579 -12.183458 -2.386465  -1.000000 -0.000004 0.000000  0.519062 0.233440 1 64 1.000000
0  -3.977579 -12.035369 -2.244604  -1.000000 -0.000004 0.000000  0.519062 0.233440 1 64 1.000000
0  -3.977579 -11.919849 -3.011595  -1.000000 -0.000004 0.000000  0.519062 0.233440 1 64 1.000000
lowpoly_plastic
0  -3.819430 -10.614518 -1.719356  0.000000 0.928007 0.372564  0.519062 0.233440 1 64 1.000000
0  -3.540584 -10.402866 -2.246548  0.000000 0.928007 0.372564  0.519062 0.233440 1 64 1.000000
0  -3.819430 -10.402866 -2.246548  0.000000 0.928007 0.372564  0.519062 0.233440 1 64 1.000000
lowpoly_plastic
0  -3.540584 -11.575432 -3.313776  0.000000 -0.195184 -0.980767  0.519062 0.233440 1 64 1.000000
0  -3.696285 -11.876117 -3.253936  0.000000 -0.195184 -0.980767  0.519062 0.233440 1 64 1.000000
0  -3.779110 -11.575432 -3.313776  0.000000 -0.195184 -0.980767  0.519062 0.233440 1 64 1.000000
lowpoly_plastic
0  -3.819430 -10.402866 -2.246548  0.000000 0.814931 0.579557  0.519062 0.233440 1 64 1.000000
0  -3.540585 -9.984058 -2.835444  -0.002883 0.812808 0.582524  0.519062 0.233440 1 64 1.000000
0  -3.819430 -9.984058 -2.835444  -0.000145 0.812201 0.583378  0.519062 0.233440 1 64 1.000000
lowpoly_plastic
0  -3.540585 -9.509050 -4.015181  -0.004444 0.967849 0.251494  0.519062 0.233440 1 64 1.000000
0  -3.819430 -9.387556 -4.476858  0.000000 0.967075 0.254494  0.519062 0.233440 1 64 1.000000
0  -3.819430 -9.509050 -4.015181  0.000000 0.968427 0.249298  0.519062 0.233440 1 64 1.000000
lowpoly_plastic
0  -3.977579 -11.722875 -2.255732  -1.000000 0.000000 0.000000  0.519062 0.233440 1 64 1.000000
0  -3.977579 -11.339736 -2.067627  -1.000000 0.000000 0.000000  0.519062 0.233440 1 64 1.000000
0  -3.977579 -10.596752 -2.331458  -1.000000 0.000000 0.000000  0.519062 0.233440 1 64 1.000000
lowpoly_plastic
0  -3.819430 -10.626330 -1.348058  -0.000003 0.999494 0.031799  0.519062 0.233440 1 64 1.000000
0  -3.540584 -10.614517 -1.719356  -0.000003 0.999494 0.031799  0.519062 0.233440 1 64 1.000000
0  -3.819430 -10.614518 -1.719356  -0.000003 0.999494 0.031799  0.519062 0.233440 1 64 1.000000
lowpoly_plastic
0  -3.540584 -11.722875 -2.255732  0.000000 0.035587 0.999367  0.519062 0.233440 1 64 1.000000
0  -3.977579 -12.035369 -2.244604  0.000000 0.035587 0.999367  0.519062 0.233440 1 64 1.000000
0  -3.540584 -12.035369 -2.244604  0.000000 0.035587 0.999367  0.519062 0.233440 1 64 1.000000
lowpoly_plastic
0  -3.540584 -11.339737 -2.067627  0.000000 -0.440709 0.897650  0.519062 0.233440 1 64 1.000000
0  -3.977579 -11.722875 -2.255732  0.000000 -0.440709 0.897650  0.519062 0.233440 1 64 1.000000
0  -3.540584 -11.722875 -2.255732  0.000000 -0.440709 0.897650  0.519062 0.233440 1 64 1.000000
lowpoly_plastic
0  -3.540584 -11.221101 -1.734630  -0.000002 -0.942002 0.335606  0.519062 0.233440 1 64 1.000000
0  -3.977579 -11.339736 -2.067627  -0.000002 -0.942002 0.335606  0.519062 0.233440 1 64 1.000000
0  -3.540584 -11.339737 -2.067627  -0.000002 -0.942002 0.335606  0.519062 0.233440 1 64 1.000000
lowpoly_plastic
0  -3.977579 -11.722875 -2.255732  -1.000000 0.000000 0.000001  0.519062 0.233440 1 64 1.000000
0  -3.977579 -10.223820 -2.857998  -1.000000 0.000000 0.000001  0.519062 0.233440 1 64 1.000000
0  -3.977579 -12.035369 -2.244604  -1.000000 0.000000 0.000001  0.519062 0.233440 1 64 1.000000
lowpoly_plastic
0  -3.540585 -9.761713 -3.300796  -0.000003 0.942772 0.333439  0.519062 0.233440 1 64 1.000000
0  -3.819430 -9.509050 -4.015181  0.001850 0.941078 0.338185  0.519062 0.233440 1 64 1.000000
0  -3.819430 -9.761714 -3.300796  -0.000003 0.942772 0.333439  0.519062 0.233440 1 64 1.000000
lowpoly_plastic
0  -3.540585 -12.294413 -3.250579  0.000000 -0.008026 -0.999968  0.519062 0.233440 1 64 1.000000
0  -3.696285 -11.876117 -3.253936  0.000000 -0.008026 -0.999968  0.519062 0.233440 1 64 1.000000
0  -3.540585 -11.876117 -3.253936  0.000000 -0.008026 -0.999968  0.519062 0.233440 1 64 1.000000
lowpoly_plastic
0  -3.977579 -11.380665 -3.976898  -1.000000 0.000000 0.000001  0.519062 0.233440 1 64 1.000000
0  -3.977579 -9.581654 -4.553838  -1.000000 0.000000 0.000001  0.519062 0.233440 1 64 1.000000
0  -3.977579 -11.153876 -4.378692  -1.000000 0.000000 0.000001  0.519062 0.233440 1 64 1.000000
lowpoly_plastic
0  -3.540584 -11.575865 -4.034423  0.000000 -0.900598 0.434652  0.519062 0.233440 1 64 1.000000
0  -3.779110 -11.398150 -3.666199  0.000000 -0.900598 0.434652  0.519062 0.233440 1 64 1.000000
0  -3.779110 -11.575865 -4.034423  0.000000 -0.900598 0.434652  0.519062 0.233440 1 64 1.000000
lowpoly_plastic
0  -3.540585 -11.327440 -4.370986  0.000000 -0.804566 -0.593863  0.519062 0.233440 1 64 1.000000
0  -3.779110 -11.575865 -4.034423  0.000000 -0.804566 -0.593863  0.519062 0.233440 1 64 1.000000
0  -3.779110 -11.327440 -4.370986  0.000000 -0.804566 -0.593863  0.519062 0.233440 1 64 1.000000
lowpoly_plastic
0  -3.779110 -11.452885 -4.785047  0.000000 -0.957043 0.289946  0.519062 0.233440 1 64 1.000000
0  -3.540585 -11.327440 -4.370986  0.000000 -0.957043 0.289946  0.519062 0.233440 1 64 1.000000
0  -3.779110 -11.327440 -4.370986  0.000000 -0.957043 0.289946  0.519062 0.233440 1 64 1.000000
lowpoly_plastic
0  -3.540585 -11.158832 -4.984118  0.000000 -0.560603 -0.828084  0.519062 0.233440 1 64 1.000000
0  -3.779110 -11.452885 -4.785047  0.000000 -0.560603 -0.828084  0.519062 0.233440 1 64 1.000000
0  -3.779110 -11.158832 -4.984118  0.000000 -0.560603 -0.828084  0.519062 0.233440 1 64 1.000000
lowpoly_plastic
0  -3.540585 -11.137378 -5.113231  0.000000 -0.986474 -0.163920  0.519062 0.233440 1 64 1.000000
0  -3.779110 -11.158832 -4.984118  0.000000 -0.986474 -0.163920  0.519062 0.233440 1 64 1.000000
0  -3.779110 -11.137378 -5.113231  0.000000 -0.986474 -0.163920  0.519062 0.233440 1 64 1.000000
lowpoly_plastic
0  -3.977579 -9.971395 -5.477153  -1.000000 -0.000001 -0.000001  0.519062 0.233440 1 64 1.000000
0  -3.977579 -10.766724 -5.237877  -1.000000 -0.000001 -0.000001  0.519062 0.233440 1 64 1.000000
0  -3.977580 -9.338326 -5.211803  -1.000000 -0.000001 -0.000001  0.519062 0.233440 1 64 1.000000
lowpoly_plastic
0  -3.540585 -10.369993 -5.547106  0.000000 -0.302343 -0.953199  0.519062 0.233440 1 64 1.000000
0  -3.779110 -11.079061 -5.322200  0.000000 -0.302343 -0.953199  0.519062 0.233440 1 64 1.000000
0  -3.779110 -10.369993 -5.547107  0.000000 -0.302343 -0.953199  0.519062 0.233440 1 64 1.000000
lowpoly_plastic
0  -3.977579 -11.338167 -3.286717  -0.999987 0.004939 0.001552  0.519062 0.233440 1 64 1.000000
0  -3.977579 -10.223820 -2.857998  -0.999987 0.001918 -0.004654  0.519062 0.233440 1 64 1.000000
0  -3.977579 -9.982035 -3.325923  -1.000000 -0.000000 -0.000000  0.519062 0.233440 1 64 1.000000
lowpoly_plastic
0  -3.540585 -9.387556 -4.476858  0.000000 0.968216 0.250117  0.519062 0.233440 1 64 1.000000
0  -3.819430 -9.272059 -4.923955  0.000000 0.968216 0.250117  0.519062 0.233440 1 64 1.000000
0  -3.819430 -9.387556 -4.476858  0.000000 0.968216 0.250117  0.519062 0.233440 1 64 1.000000
lowpoly_plastic
0  -3.819430 -9.272059 -4.923955  0.000000 0.851658 0.524098  0.519062 0.233440 1 64 1.000000
0  -3.540585 -9.116547 -5.176663  0.000000 0.851658 0.524098  0.519062 0.233440 1 64 1.000000
0  -3.819430 -9.116547 -5.176663  0.000000 0.851658 0.524098  0.519062 0.233440 1 64 1.000000
lowpoly_plastic
0  -3.540585 -9.116547 -5.176663  0.000000 0.926794 -0.375569  0.519062 0.233440 1 64 1.000000
0  -3.819430 -9.189444 -5.356548  0.000000 0.926794 -0.375569  0.519062 0.233440 1 64 1.000000
0  -3.819430 -9.116547 -5.176663  0.000000 0.926794 -0.375569  0.519062 0.233440 1 64 1.000000
lowpoly_plastic
0  -3.977579 -11.153876 -4.378692  -1.000000 0.000000 -0.000001  0.519062 0.233440 1 64 1.000000
0  -3.977579 -9.451530 -5.027847  -1.000000 0.000000 -0.000001  0.519062 0.233440 1 64 1.000000
0  -3.977579 -11.229047 -4.713006  -1.000000 0.000000 -0.000001  0.519062 0.233440 1 64 1.000000
lowpoly_plastic
0  -3.540585 -10.369993 -5.547106  0.000000 0.172858 -0.984947  0.519062 0.233440 1 64 1.000000
0  -3.779110 -10.369993 -5.547107  0.000000 0.172858 -0.984947  0.519062 0.233440 1 64 1.000000
0  -3.977579 -9.971395 -5.477153  0.000000 0.172858 -0.984947  0.519062 0.233440 1 64 1.000000
lowpoly_plastic
0  -3.977579 -10.957189 -4.875494  -1.000000 -0.000000 0.000001  0.519062 0.233440 1 64 1.000000
0  -3.977580 -9.338326 -5.211803  -1.000000 -0.000000 0.000001  0.519062 0.233440 1 64 1.000000
0  -3.977579 -10.885610 -5.065793  -1.000000 -0.000000 0.000001  0.519062 0.233440 1 64 1.000000
lowpoly_plastic
0  -3.540585 -11.079061 -5.322200  0.000000 -0.963197 -0.268795  0.519062 0.233440 1 64 1.000000
0  -3.779110 -11.137378 -5.113231  0.000000 -0.963197 -0.268795  0.519062 0.233440 1 64 1.000000
0  -3.779110 -11.079061 -5.322200  0.000000 -0.963197 -0.268795  0.519062 0.233440 1 64 1.000000
lowpoly_plastic
0  -3.977579 -10.766724 -5.237877  -1.000000 -0.000000 -0.000000  0.519062 0.233440 1 64 1.000000
0  -3.977579 -10.885610 -5.065793  -1.000000 -0.000000 -0.000000  0.519062 0.233440 1 64 1.000000
0  -3.977580 -9.338326 -5.211803  -1.000000 -0.000000 -0.000000  0.519062 0.233440 1 64 1.000000
lowpoly_plastic
0  -3.977579 -9.412178 -5.395638  -1.000000 0.000000 -0.000003  0.519062 0.233440 1 64 1.000000
0  -3.977579 -9.971395 -5.477153  -1.000000 0.000000 -0.000003  0.519062 0.233440 1 64 1.000000
0  -3.977580 -9.338326 -5.211803  -1.000000 0.000000 -0.000003  0.519062 0.233440 1 64 1.000000
lowpoly_plastic
0  -3.977579 -10.957189 -4.875494  -1.000000 0.000000 0.000003  0.519062 0.233440 1 64 1.000000
0  -3.977579 -9.451530 -5.027847  -1.000000 0.000000 0.000003  0.519062 0.233440 1 64 1.000000
0  -3.977580 -9.338326 -5.211803  -1.000000 0.000000 0.000003  0.519062 0.233440 1 64 1.000000
lowpoly_plastic
0  -3.977579 -9.581654 -4.553838  -1.000000 0.000000 0.000000  0.519062 0.233440 1 64 1.000000
0  -3.977579 -9.451530 -5.027847  -1.000000 0.000000 0.000000  0.519062 0.233440 1 64 1.000000
0  -3.977579 -11.153876 -4.378692  -1.000000 0.000000 0.000000  0.519062 0.233440 1 64 1.000000
lowpoly_plastic
0  -3.977579 -11.380665 -3.976898  -1.000000 -0.000000 -0.000000  0.519062 0.233440 1 64 1.000000
0  -3.977579 -9.721501 -4.069611  -1.000000 -0.000000 -0.000000  0.519062 0.233440 1 64 1.000000
0  -3.977579 -9.581654 -4.553838  -1.000000 -0.000000 -0.000000  0.519062 0.233440 1 64 1.000000
lowpoly_plastic
0  -3.540584 -11.326849 -1.183931  0.000000 0.228116 0.973634  0.519062 0.233440 1 64 1.000000
0  -3.819430 -10.626330 -1.348058  0.000000 0.228116 0.973634  0.519062 0.233440 1 64 1.000000
0  -3.812451 -11.326849 -1.183931  0.000000 0.228116 0.973634  0.519062 0.233440 1 64 1.000000
lowpoly_plastic
0  -3.977579 -11.339736 -2.067627  -1.000000 0.000001 0.000000  0.519062 0.233440 1 64 1.000000
0  -3.977579 -10.825540 -1.723806  -1.000000 0.000001 0.000000  0.519062 0.233440 1 64 1.000000
0  -3.977579 -10.596752 -2.331458  -1.000000 0.000001 0.000000  0.519062 0.233440 1 64 1.000000
lowpoly_plastic
0  -3.977579 -12.035369 -2.244604  -1.000000 -0.000000 -0.000000  0.519062 0.233440 1 64 1.000000
0  -3.977579 -10.223820 -2.857998  -1.000000 -0.000000 -0.000000  0.519062 0.233440 1 64 1.000000
0  -3.977579 -11.919849 -3.011595  -1.000000 -0.000000 -0.000000  0.519062 0.233440 1 64 1.000000
lowpoly_plastic
0  -3.977579 -11.221101 -1.734630  -1.000000 0.000000 0.000000  0.519062 0.233440 1 64 1.000000
0  -3.977579 -10.830965 -1.539192  -1.000000 0.000000 0.000000  0.519062 0.233440 1 64 1.000000
0  -3.977579 -10.825540 -1.723806  -1.000000 0.000000 0.000000  0.519062 0.233440 1 64 1.000000
lowpoly_plastic
0  -3.977579 -9.982035 -3.325923  -1.000000 -0.000000 0.000000  0.519062 0.233440 1 64 1.000000
0  -3.977579 -11.167157 -3.676943  -1.000000 -0.000000 0.000000  0.519062 0.233440 1 64 1.000000
0  -3.977579 -11.338167 -3.286717  -1.000000 -0.000000 0.000000  0.519062 0.233440 1 64 1.000000
lowpoly_plastic
0  -3.696285 -12.294413 -3.250579  -0.652149 -0.006084 -0.758066  0.519062 0.233440 1 64 1.000000
0  -3.977579 -11.919849 -3.011595  -0.652149 -0.006084 -0.758066  0.519062 0.233440 1 64 1.000000
0  -3.696285 -11.876117 -3.253936  -0.652149 -0.006084 -0.758066  0.519062 0.233440 1 64 1.000000
lowpoly_plastic
0  -3.779110 -11.575432 -3.313776  -0.535690 -0.361041 -0.763338  0.519062 0.233440 1 64 1.000000
0  -3.977579 -11.919849 -3.011595  -0.535690 -0.361041 -0.763338  0.519062 0.233440 1 64 1.000000
0  -3.977579 -11.338167 -3.286717  -0.535690 -0.361041 -0.763338  0.519062 0.233440 1 64 1.000000
lowpoly_plastic
0  -3.977579 -10.766724 -5.237877  -0.660961 -0.226885 -0.715300  0.519062 0.233440 1 64 1.000000
0  -3.779110 -10.369993 -5.547107  -0.660961 -0.226885 -0.715300  0.519062 0.233440 1 64 1.000000
0  -3.779110 -11.079061 -5.322200  -0.660961 -0.226885 -0.715300  0.519062 0.233440 1 64 1.000000
lowpoly_plastic
0  -3.977579 -10.885610 -5.065793  -0.788876 -0.591525 -0.166652  0.519062 0.233440 1 64 1.000000
0  -3.779110 -11.079061 -5.322200  -0.789008 -0.592179 -0.163681  0.519062 0.233440 1 64 1.000000
0  -3.779110 -11.137378 -5.113231  -0.789442 -0.591233 -0.164997  0.519062 0.233440 1 64 1.000000
lowpoly_plastic
0  -3.977579 -10.885610 -5.065793  -0.752797 -0.616109 -0.231746  0.519062 0.233440 1 64 1.000000
0  -3.779110 -11.158832 -4.984118  -0.752797 -0.616109 -0.231746  0.519062 0.233440 1 64 1.000000
0  -3.977579 -10.957189 -4.875494  -0.752797 -0.616109 -0.231746  0.519062 0.233440 1 64 1.000000
lowpoly_plastic
0  -3.977579 -11.229047 -4.713006  -0.682127 -0.409935 -0.605521  0.519062 0.233440 1 64 1.000000
0  -3.779110 -11.158832 -4.984118  -0.682127 -0.409935 -0.605521  0.519062 0.233440 1 64 1.000000
0  -3.779110 -11.452885 -4.785047  -0.682127 -0.409935 -0.605521  0.519062 0.233440 1 64 1.000000
lowpoly_plastic
0  -3.977579 -11.153876 -4.378692  -0.646851 -0.729856 0.221120  0.519062 0.233440 1 64 1.000000
0  -3.779110 -11.452885 -4.785047  -0.646851 -0.729856 0.221120  0.519062 0.233440 1 64 1.000000
0  -3.779110 -11.327440 -4.370986  -0.646851 -0.729856 0.221120  0.519062 0.233440 1 64 1.000000
lowpoly_plastic
0  -3.977579 -11.153876 -4.378692  -0.706746 -0.616098 -0.347755  0.519062 0.233440 1 64 1.000000
0  -3.779110 -11.575865 -4.034423  -0.706746 -0.616098 -0.347755  0.519062 0.233440 1 64 1.000000
0  -3.977579 -11.380665 -3.976898  -0.706746 -0.616098 -0.347755  0.519062 0.233440 1 64 1.000000
lowpoly_plastic
0  -3.977579 -11.167157 -3.676943  -0.731145 -0.614407 0.296532  0.519062 0.233440 1 64 1.000000
0  -3.779110 -11.575865 -4.034423  -0.731145 -0.614407 0.296532  0.519062 0.233440 1 64 1.000000
0  -3.779110 -11.398150 -3.666199  -0.731145 -0.614407 0.296532  0.519062 0.233440 1 64 1.000000
lowpoly_plastic
0  -3.977579 -11.167157 -3.676943  -0.757326 -0.599206 -0.259633  0.519062 0.233440 1 64 1.000000
0  -3.779110 -11.575432 -3.313776  -0.753095 -0.600769 -0.268187  0.519062 0.233440 1 64 1.000000
0  -3.977579 -11.338167 -3.286717  -0.754514 -0.601098 -0.263419  0.519062 0.233440 1 64 1.000000
lowpoly_plastic
0  -3.977579 -12.330058 -3.007863  -1.000000 0.000000 0.000000  0.519062 0.233440 1 64 1.000000
0  -3.977579 -12.183458 -2.386465  -1.000000 0.000000 0.000000  0.519062 0.233440 1 64 1.000000
0  -3.977579 -11.919849 -3.011595  -1.000000 0.000000 0.000000  0.519062 0.233440 1 64 1.000000
lowpoly_plastic
0  -3.812451 -11.326849 -1.183931  -0.674014 0.268508 0.688192  0.519062 0.233440 1 64 1.000000
0  -3.977579 -10.830965 -1.539192  -0.671454 0.267581 0.691050  0.519062 0.233440 1 64 1.000000
0  -3.977578 -11.329075 -1.344078  -0.672207 0.270030 0.689363  0.519062 0.233440 1 64 1.000000
lowpoly_plastic
0  -3.977579 -10.825540 -1.723806  -0.800688 0.560658 0.211094  0.519062 0.233440 1 64 1.000000
0  -3.819430 -10.402866 -2.246548  -0.800688 0.560658 0.211094  0.519062 0.233440 1 64 1.000000
0  -3.977579 -10.596752 -2.331458  -0.800688 0.560658 0.211094  0.519062 0.233440 1 64 1.000000
lowpoly_plastic
0  -3.977579 -9.982035 -3.325923  -0.798298 0.543418 0.259647  0.519062 0.233440 1 64 1.000000
0  -3.819430 -9.984058 -2.835444  -0.798298 0.543418 0.259647  0.519062 0.233440 1 64 1.000000
0  -3.819430 -9.761714 -3.300796  -0.798298 0.543418 0.259647  0.519062 0.233440 1 64 1.000000
lowpoly_plastic
0  -3.977579 -10.223820 -2.857998  -0.796679 0.492547 0.350286  0.519062 0.233440 1 64 1.000000
0  -3.819430 -10.402866 -2.246548  -0.796679 0.492547 0.350286  0.519062 0.233440 1 64 1.000000
0  -3.819430 -9.984058 -2.835444  -0.796679 0.492547 0.350286  0.519062 0.233440 1 64 1.000000
lowpoly_plastic
0  -3.977579 -10.830965 -1.539192  -0.800268 0.599384 0.017616  0.519062 0.233440 1 64 1.000000
0  -3.819430 -10.614518 -1.719356  -0.800268 0.599384 0.017616  0.519062 0.233440 1 64 1.000000
0  -3.977579 -10.825540 -1.723806  -0.800268 0.599384 0.017616  0.519062 0.233440 1 64 1.000000
lowpoly_plastic
0  -3.977579 -9.721501 -4.069611  -0.809993 0.554082 0.192103  0.519062 0.233440 1 64 1.000000
0  -3.819430 -9.761714 -3.300796  -0.809805 0.553133 0.195600  0.519062 0.233440 1 64 1.000000
0  -3.819430 -9.509050 -4.015181  -0.810001 0.552868 0.195538  0.519062 0.233440 1 64 1.000000
lowpoly_plastic
0  -3.977579 -9.721501 -4.069611  -0.795804 0.581778 0.168022  0.519062 0.233440 1 64 1.000000
0  -3.819430 -9.387556 -4.476858  -0.795804 0.581778 0.168022  0.519062 0.233440 1 64 1.000000
0  -3.977579 -9.581654 -4.553838  -0.795804 0.581778 0.168022  0.519062 0.233440 1 64 1.000000
lowpoly_plastic
0  -3.977579 -9.451530 -5.027847  -0.784022 0.601004 0.155253  0.519062 0.233440 1 64 1.000000
0  -3.819430 -9.387556 -4.476858  -0.784022 0.601004 0.155253  0.519062 0.233440 1 64 1.000000
0  -3.819430 -9.272059 -4.923955  -0.784022 0.601004 0.155253  0.519062 0.233440 1 64 1.000000
lowpoly_plastic
0  -3.977580 -9.338326 -5.211803  -0.795047 0.516571 0.317891  0.519062 0.233440 1 64 1.000000
0  -3.819430 -9.272059 -4.923955  -0.795047 0.516571 0.317891  0.519062 0.233440 1 64 1.000000
0  -3.819430 -9.116547 -5.176663  -0.795047 0.516571 0.317891  0.519062 0.233440 1 64 1.000000
lowpoly_plastic
0  -3.977580 -9.338326 -5.211803  -0.772044 0.589758 -0.236925  0.519062 0.233440 1 64 1.000000
0  -3.819430 -9.189444 -5.356548  -0.772044 0.589758 -0.236925  0.519062 0.233440 1 64 1.000000
0  -3.977579 -9.412178 -5.395638  -0.772044 0.589758 -0.236925  0.519062 0.233440 1 64 1.000000
lowpoly_plastic
0  -3.819430 -9.984058 -2.835444  0.002386 0.904030 0.427463  0.519062 0.233440 1 64 1.000000
0  -3.540585 -9.761713 -3.300796  -0.000003 0.902296 0.431117  0.519062 0.233440 1 64 1.000000
0  -3.819430 -9.761714 -3.300796  -0.000003 0.902296 0.431117  0.519062 0.233440 1 64 1.000000
lowpoly_plastic
0  -3.540584 -11.575432 -3.313776  0.000000 -0.893340 -0.449382  0.519062 0.233440 1 64 1.000000
0  -3.302059 -11.398150 -3.666199  0.000000 -0.893340 -0.449382  0.519062 0.233440 1 64 1.000000
0  -3.302059 -11.575432 -3.313776  0.000000 -0.893340 -0.449382  0.519062 0.233440 1 64 1.000000
lowpoly_plastic
0  -3.103590 -12.183458 -2.386465  0.000001 -0.691756 0.722132  0.519062 0.233440 1 64 1.000000
0  -3.540584 -12.035369 -2.244604  0.000001 -0.691756 0.722132  0.519062 0.233440 1 64 1.000000
0  -3.540584 -12.183458 -2.386465  0.000001 -0.691756 0.722132  0.519062 0.233440 1 64 1.000000
lowpoly_plastic
0  -3.103590 -12.330058 -3.007863  0.000000 -0.973281 0.229615  0.519062 0.233440 1 64 1.000000
0  -3.103590 -12.183458 -2.386465  0.000000 -0.973281 0.229615  0.519062 0.233440 1 64 1.000000
0  -3.540584 -12.183458 -2.386465  0.000000 -0.973281 0.229615  0.519062 0.233440 1 64 1.000000
lowpoly_plastic
0  -3.103590 -11.329075 -1.344078  0.001690 -0.999878 0.015528  0.519062 0.233440 1 64 1.000000
0  -3.268718 -11.326849 -1.183931  0.000000 -0.999904 0.013897  0.519062 0.233440 1 64 1.000000
0  -3.540584 -11.326849 -1.183931  -0.002218 -0.999895 0.014290  0.519062 0.233440 1 64 1.000000
lowpoly_plastic
0  -3.103590 -12.183458 -2.386465  1.000000 -0.000004 -0.000000  0.519062 0.233440 1 64 1.000000
0  -3.103590 -11.919849 -3.011595  1.000000 -0.000004 -0.000000  0.519062 0.233440 1 64 1.000000
0  -3.103590 -12.035368 -2.244604  1.000000 -0.000004 -0.000000  0.519062 0.233440 1 64 1.000000
lowpoly_plastic
0  -3.540584 -10.402866 -2.246548  0.000000 0.928005 0.372567  0.519062 0.233440 1 64 1.000000
0  -3.261739 -10.614517 -1.719356  0.000000 0.928005 0.372567  0.519062 0.233440 1 64 1.000000
0  -3.261739 -10.402866 -2.246548  0.000000 0.928005 0.372567  0.519062 0.233440 1 64 1.000000
lowpoly_plastic
0  -3.540584 -11.575432 -3.313776  0.000000 -0.195187 -0.980766  0.519062 0.233440 1 64 1.000000
0  -3.384883 -11.876117 -3.253936  0.000000 -0.195187 -0.980766  0.519062 0.233440 1 64 1.000000
0  -3.540585 -11.876117 -3.253936  0.000000 -0.195187 -0.980766  0.519062 0.233440 1 64 1.000000
lowpoly_plastic
0  -3.540585 -9.984058 -2.835444  0.004533 0.814108 0.580696  0.519062 0.233440 1 64 1.000000
0  -3.261739 -10.402866 -2.246548  0.000000 0.814931 0.579558  0.519062 0.233440 1 64 1.000000
0  -3.261739 -9.984058 -2.835444  0.000145 0.812201 0.583378  0.519062 0.233440 1 64 1.000000
lowpoly_plastic
0  -3.261740 -9.387556 -4.476858  0.000000 0.967074 0.254495  0.519062 0.233440 1 64 1.000000
0  -3.540585 -9.509050 -4.015181  0.004916 0.967639 0.252292  0.519062 0.233440 1 64 1.000000
0  -3.261740 -9.509050 -4.015181  0.000000 0.968426 0.249299  0.519062 0.233440 1 64 1.000000
lowpoly_plastic
0  -3.103590 -11.722875 -2.255732  1.000000 0.000000 -0.000001  0.519062 0.233440 1 64 1.000000
0  -3.103590 -10.596752 -2.331458  1.000000 0.000000 -0.000001  0.519062 0.233440 1 64 1.000000
0  -3.103590 -11.339736 -2.067627  1.000000 0.000000 -0.000001  0.519062 0.233440 1 64 1.000000
lowpoly_plastic
0  -3.540584 -10.614517 -1.719356  -0.000000 0.999494 0.031801  0.519062 0.233440 1 64 1.000000
0  -3.261739 -10.626330 -1.348058  -0.000000 0.999494 0.031801  0.519062 0.233440 1 64 1.000000
0  -3.261739 -10.614517 -1.719356  -0.000000 0.999494 0.031801  0.519062 0.233440 1 64 1.000000
lowpoly_plastic
0  -3.103590 -12.035368 -2.244604  0.000000 0.035588 0.999367  0.519062 0.233440 1 64 1.000000
0  -3.540584 -11.722875 -2.255732  0.000000 0.035588 0.999367  0.519062 0.233440 1 64 1.000000
0  -3.540584 -12.035369 -2.244604  0.000000 0.035588 0.999367  0.519062 0.233440 1 64 1.000000
lowpoly_plastic
0  -3.103590 -11.722875 -2.255732  0.000000 -0.440708 0.897650  0.519062 0.233440 1 64 1.000000
0  -3.540584 -11.339737 -2.067627  0.000000 -0.440708 0.897650  0.519062 0.233440 1 64 1.000000
0  -3.540584 -11.722875 -2.255732  0.000000 -0.440708 0.897650  0.519062 0.233440 1 64 1.000000
lowpoly_plastic
0  -3.103590 -11.339736 -2.067627  0.000002 -0.942003 0.335605  0.519062 0.233440 1 64 1.000000
0  -3.540584 -11.221101 -1.734630  0.000002 -0.942003 0.335605  0.519062 0.233440 1 64 1.000000
0  -3.540584 -11.339737 -2.067627  0.000002 -0.942003 0.335605  0.519062 0.233440 1 64 1.000000
lowpoly_plastic
0  -3.103590 -10.223820 -2.857998  1.000000 0.000001 0.000002  0.519062 0.233440 1 64 1.000000
0  -3.103590 -11.722875 -2.255732  1.000000 0.000001 0.000002  0.519062 0.233440 1 64 1.000000
0  -3.103590 -12.035368 -2.244604  1.000000 0.000001 0.000002  0.519062 0.233440 1 64 1.000000
lowpoly_plastic
0  -3.261740 -9.509050 -4.015181  -0.001821 0.941108 0.338101  0.519062 0.233440 1 64 1.000000
0  -3.540585 -9.761713 -3.300796  0.000001 0.942771 0.333440  0.519062 0.233440 1 64 1.000000
0  -3.261739 -9.761713 -3.300796  0.000001 0.942771 0.333440  0.519062 0.233440 1 64 1.000000
lowpoly_plastic
0  -3.384883 -11.876117 -3.253936  0.000000 -0.008026 -0.999968  0.519062 0.233440 1 64 1.000000
0  -3.540585 -12.294413 -3.250579  0.000000 -0.008026 -0.999968  0.519062 0.233440 1 64 1.000000
0  -3.540585 -11.876117 -3.253936  0.000000 -0.008026 -0.999968  0.519062 0.233440 1 64 1.000000
lowpoly_plastic
0  -3.103590 -11.380665 -3.976898  1.000000 -0.000000 -0.000002  0.519062 0.233440 1 64 1.000000
0  -3.103591 -11.153876 -4.378692  1.000000 -0.000000 -0.000002  0.519062 0.233440 1 64 1.000000
0  -3.103591 -9.581653 -4.553838  1.000000 -0.000000 -0.000002  0.519062 0.233440 1 64 1.000000
lowpoly_plastic
0  -3.302059 -11.398150 -3.666199  0.000000 -0.900598 0.434653  0.519062 0.233440 1 64 1.000000
0  -3.540584 -11.575865 -4.034423  0.000000 -0.900598 0.434653  0.519062 0.233440 1 64 1.000000
0  -3.302059 -11.575865 -4.034423  0.000000 -0.900598 0.434653  0.519062 0.233440 1 64 1.000000
lowpoly_plastic
0  -3.302059 -11.575865 -4.034423  0.000000 -0.804565 -0.593865  0.519062 0.233440 1 64 1.000000
0  -3.540585 -11.327440 -4.370986  0.000000 -0.804565 -0.593865  0.519062 0.233440 1 64 1.000000
0  -3.302059 -11.327440 -4.370986  0.000000 -0.804565 -0.593865  0.519062 0.233440 1 64 1.000000
lowpoly_plastic
0  -3.302059 -11.452885 -4.785046  0.000000 -0.957042 0.289950  0.519062 0.233440 1 64 1.000000
0  -3.540585 -11.327440 -4.370986  0.000000 -0.957042 0.289950  0.519062 0.233440 1 64 1.000000
0  -3.540585 -11.452885 -4.785046  0.000000 -0.957042 0.289950  0.519062 0.233440 1 64 1.000000
lowpoly_plastic
0  -3.302059 -11.452885 -4.785046  0.000000 -0.560603 -0.828085  0.519062 0.233440 1 64 1.000000
0  -3.540585 -11.158832 -4.984118  0.000000 -0.560603 -0.828085  0.519062 0.233440 1 64 1.000000
0  -3.302060 -11.158832 -4.984118  0.000000 -0.560603 -0.828085  0.519062 0.233440 1 64 1.000000
lowpoly_plastic
0  -3.302060 -11.158832 -4.984118  0.000000 -0.986474 -0.163921  0.519062 0.233440 1 64 1.000000
0  -3.540585 -11.137378 -5.113231  0.000000 -0.986474 -0.163921  0.519062 0.233440 1 64 1.000000
0  -3.302060 -11.137378 -5.113231  0.000000 -0.986474 -0.163921  0.519062 0.233440 1 64 1.000000
lowpoly_plastic
0  -3.103591 -9.971395 -5.477153  1.000000 0.000000 -0.000001  0.519062 0.233440 1 64 1.000000
0  -3.103591 -9.338326 -5.211803  1.000000 0.000000 -0.000001  0.519062 0.233440 1 64 1.000000
0  -3.103591 -10.766723 -5.237877  1.000000 0.000000 -0.000001  0.519062 0.233440 1 64 1.000000
lowpoly_plastic
0  -3.302060 -11.079061 -5.322200  0.000000 -0.302343 -0.953199  0.519062 0.233440 1 64 1.000000
0  -3.540585 -10.369993 -5.547106  0.000000 -0.302343 -0.953199  0.519062 0.233440 1 64 1.000000
0  -3.302060 -10.369993 -5.547107  0.000000 -0.302343 -0.953199  0.519062 0.233440 1 64 1.000000
lowpoly_plastic
0  -3.103590 -11.338167 -3.286717  0.999987 -0.003464 0.003652  0.519062 0.233440 1 64 1.000000
0  -3.103590 -10.223820 -2.857998  0.999988 -0.004633 -0.001706  0.519062 0.233440 1 64 1.000000
0  -3.103590 -11.919849 -3.011595  1.000000 0.000000 0.000000  0.519062 0.233440 1 64 1.000000
lowpoly_plastic
0  -3.261740 -9.272059 -4.923955  0.000000 0.968216 0.250117  0.519062 0.233440 1 64 1.000000
0  -3.540585 -9.387556 -4.476858  0.000000 0.968216 0.250117  0.519062 0.233440 1 64 1.000000
0  -3.261740 -9.387556 -4.476858  0.000000 0.968216 0.250117  0.519062 0.233440 1 64 1.000000
lowpoly_plastic
0  -3.261740 -9.116547 -5.176663  -0.000003 0.851660 0.524094  0.519062 0.233440 1 64 1.000000
0  -3.540585 -9.272059 -4.923956  -0.000003 0.851660 0.524094  0.519062 0.233440 1 64 1.000000
0  -3.261740 -9.272059 -4.923955  -0.000003 0.851660 0.524094  0.519062 0.233440 1 64 1.000000
lowpoly_plastic
0  -3.261740 -9.189444 -5.356548  -0.000001 0.926791 -0.375578  0.519062 0.233440 1 64 1.000000
0  -3.540585 -9.116547 -5.176663  -0.000001 0.926791 -0.375578  0.519062 0.233440 1 64 1.000000
0  -3.261740 -9.116547 -5.176663  -0.000001 0.926791 -0.375578  0.519062 0.233440 1 64 1.000000
lowpoly_plastic
0  -3.103591 -11.153876 -4.378692  1.000000 0.000000 0.000001  0.519062 0.233440 1 64 1.000000
0  -3.103590 -11.229047 -4.713006  1.000000 0.000000 0.000001  0.519062 0.233440 1 64 1.000000
0  -3.103591 -9.451530 -5.027848  1.000000 0.000000 0.000001  0.519062 0.233440 1 64 1.000000
lowpoly_plastic
0  -3.540585 -10.369993 -5.547106  0.012679 0.159339 -0.987143  0.519062 0.233440 1 64 1.000000
0  -3.540585 -9.189444 -5.356548  0.012679 0.159339 -0.987143  0.519062 0.233440 1 64 1.000000
0  -3.103591 -9.971395 -5.477153  0.012679 0.159339 -0.987143  0.519062 0.233440 1 64 1.000000
lowpoly_plastic
0  -3.103591 -10.957188 -4.875494  1.000000 -0.000001 -0.000001  0.519062 0.233440 1 64 1.000000
0  -3.103591 -10.885610 -5.065793  1.000000 -0.000001 -0.000001  0.519062 0.233440 1 64 1.000000
0  -3.103591 -9.338326 -5.211803  1.000000 -0.000001 -0.000001  0.519062 0.233440 1 64 1.000000
lowpoly_plastic
0  -3.302060 -11.137378 -5.113231  0.000000 -0.963195 -0.268803  0.519062 0.233440 1 64 1.000000
0  -3.540585 -11.079061 -5.322200  0.000000 -0.963195 -0.268803  0.519062 0.233440 1 64 1.000000
0  -3.302060 -11.079061 -5.322200  0.000000 -0.963195 -0.268803  0.519062 0.233440 1 64 1.000000
lowpoly_plastic
0  -3.103591 -10.766723 -5.237877  1.000000 -0.000000 0.000001  0.519062 0.233440 1 64 1.000000
0  -3.103591 -9.338326 -5.211803  1.000000 -0.000000 0.000001  0.519062 0.233440 1 64 1.000000
0  -3.103591 -10.885610 -5.065793  1.000000 -0.000000 0.000001  0.519062 0.233440 1 64 1.000000
lowpoly_plastic
0  -3.103591 -9.412178 -5.395638  1.000000 0.000000 -0.000004  0.519062 0.233440 1 64 1.000000
0  -3.103591 -9.338326 -5.211803  1.000000 0.000000 -0.000004  0.519062 0.233440 1 64 1.000000
0  -3.103591 -9.971395 -5.477153  1.000000 0.000000 -0.000004  0.519062 0.233440 1 64 1.000000
lowpoly_plastic
0  -3.103591 -9.451530 -5.027848  1.000000 0.000000 0.000000  0.519062 0.233440 1 64 1.000000
0  -3.103591 -10.957188 -4.875494  1.000000 0.000000 0.000000  0.519062 0.233440 1 64 1.000000
0  -3.103591 -9.338326 -5.211803  1.000000 0.000000 0.000000  0.519062 0.233440 1 64 1.000000
lowpoly_plastic
0  -3.103591 -9.581653 -4.553838  1.000000 0.000000 0.000000  0.519062 0.233440 1 64 1.000000
0  -3.103591 -11.153876 -4.378692  1.000000 0.000000 0.000000  0.519062 0.233440 1 64 1.000000
0  -3.103591 -9.451530 -5.027848  1.000000 0.000000 0.000000  0.519062 0.233440 1 64 1.000000
lowpoly_plastic
0  -3.103590 -9.721501 -4.069611  1.000000 0.000000 -0.000001  0.519062 0.233440 1 64 1.000000
0  -3.103590 -11.380665 -3.976898  1.000000 0.000000 -0.000001  0.519062 0.233440 1 64 1.000000
0  -3.103591 -9.581653 -4.553838  1.000000 0.000000 -0.000001  0.519062 0.233440 1 64 1.000000
lowpoly_plastic
0  -3.540584 -11.326849 -1.183931  0.000000 0.228116 0.973634  0.519062 0.233440 1 64 1.000000
0  -3.261739 -10.626330 -1.348058  0.000000 0.228116 0.973634  0.519062 0.233440 1 64 1.000000
0  -3.540584 -10.626330 -1.348058  0.000000 0.228116 0.973634  0.519062 0.233440 1 64 1.000000
lowpoly_plastic
0  -3.103590 -11.339736 -2.067627  1.000000 -0.000000 0.000000  0.519062 0.233440 1 64 1.000000
0  -3.103590 -10.825540 -1.723806  1.000000 -0.000000 0.000000  0.519062 0.233440 1 64 1.000000
0  -3.103590 -11.221101 -1.734630  1.000000 -0.000000 0.000000  0.519062 0.233440 1 64 1.000000
lowpoly_plastic
0  -3.103590 -12.035368 -2.244604  1.000000 0.000000 -0.000000  0.519062 0.233440 1 64 1.000000
0  -3.103590 -11.919849 -3.011595  1.000000 0.000000 -0.000000  0.519062 0.233440 1 64 1.000000
0  -3.103590 -10.223820 -2.857998  1.000000 0.000000 -0.000000  0.519062 0.233440 1 64 1.000000
lowpoly_plastic
0  -3.103590 -11.221101 -1.734630  1.000000 -0.000001 0.000000  0.519062 0.233440 1 64 1.000000
0  -3.103590 -10.830965 -1.539192  1.000000 -0.000001 0.000000  0.519062 0.233440 1 64 1.000000
0  -3.103590 -11.329075 -1.344078  1.000000 -0.000001 0.000000  0.519062 0.233440 1 64 1.000000
lowpoly_plastic
0  -3.103590 -11.167157 -3.676943  1.000000 -0.000000 -0.000001  0.519062 0.233440 1 64 1.000000
0  -3.103590 -9.982035 -3.325923  1.000000 -0.000000 -0.000001  0.519062 0.233440 1 64 1.000000
0  -3.103590 -11.338167 -3.286717  1.000000 -0.000000 -0.000001  0.519062 0.233440 1 64 1.000000
lowpoly_plastic
0  -3.103590 -11.919849 -3.011595  0.652149 -0.006084 -0.758066  0.519062 0.233440 1 64 1.000000
0  -3.384883 -12.294413 -3.250579  0.652149 -0.006084 -0.758066  0.519062 0.233440 1 64 1.000000
0  -3.384883 -11.876117 -3.253936  0.652149 -0.006084 -0.758066  0.519062 0.233440 1 64 1.000000
lowpoly_plastic
0  -3.302059 -11.575432 -3.313776  0.592106 -0.311045 -0.743412  0.519062 0.233440 1 64 1.000000
0  -3.103590 -11.919849 -3.011595  0.592106 -0.311045 -0.743412  0.519062 0.233440 1 64 1.000000
0  -3.384883 -11.876117 -3.253936  0.592106 -0.311045 -0.743412  0.519062 0.233440 1 64 1.000000
lowpoly_plastic
0  -3.103591 -10.766723 -5.237877  0.675510 -0.212428 -0.706088  0.519062 0.233440 1 64 1.000000
0  -3.302060 -10.369993 -5.547107  0.675510 -0.212428 -0.706088  0.519062 0.233440 1 64 1.000000
0  -3.103591 -9.971395 -5.477153  0.675510 -0.212428 -0.706088  0.519062 0.233440 1 64 1.000000
lowpoly_plastic
0  -3.103591 -10.885610 -5.065793  0.838423 -0.447642 -0.310906  0.519062 0.233440 1 64 1.000000
0  -3.302060 -11.079061 -5.322200  0.838726 -0.448638 -0.308646  0.519062 0.233440 1 64 1.000000
0  -3.103591 -10.766723 -5.237877  0.838092 -0.448833 -0.310082  0.519062 0.233440 1 64 1.000000
lowpoly_plastic
0  -3.302060 -11.158832 -4.984118  0.752798 -0.616108 -0.231747  0.519062 0.233440 1 64 1.000000
0  -3.103591 -10.885610 -5.065793  0.752798 -0.616108 -0.231747  0.519062 0.233440 1 64 1.000000
0  -3.103591 -10.957188 -4.875494  0.752798 -0.616108 -0.231747  0.519062 0.233440 1 64 1.000000
lowpoly_plastic
0  -3.103590 -11.229047 -4.713006  0.703918 -0.364401 -0.609681  0.519062 0.233440 1 64 1.000000
0  -3.302060 -11.158832 -4.984118  0.703918 -0.364401 -0.609681  0.519062 0.233440 1 64 1.000000
0  -3.103591 -10.957188 -4.875494  0.703918 -0.364401 -0.609681  0.519062 0.233440 1 64 1.000000
lowpoly_plastic
0  -3.103591 -11.153876 -4.378692  0.714320 -0.682773 0.153519  0.519062 0.233440 1 64 1.000000
0  -3.302059 -11.452885 -4.785046  0.714320 -0.682773 0.153519  0.519062 0.233440 1 64 1.000000
0  -3.103590 -11.229047 -4.713006  0.714320 -0.682773 0.153519  0.519062 0.233440 1 64 1.000000
lowpoly_plastic
0  -3.302059 -11.575865 -4.034423  0.706746 -0.616099 -0.347752  0.519062 0.233440 1 64 1.000000
0  -3.103591 -11.153876 -4.378692  0.706746 -0.616099 -0.347752  0.519062 0.233440 1 64 1.000000
0  -3.103590 -11.380665 -3.976898  0.706746 -0.616099 -0.347752  0.519062 0.233440 1 64 1.000000
lowpoly_plastic
0  -3.103590 -11.167157 -3.676943  0.534965 -0.688312 0.489937  0.519062 0.233440 1 64 1.000000
0  -3.302059 -11.575865 -4.034423  0.534965 -0.688312 0.489937  0.519062 0.233440 1 64 1.000000
0  -3.103590 -11.380665 -3.976898  0.534965 -0.688312 0.489937  0.519062 0.233440 1 64 1.000000
lowpoly_plastic
0  -3.302059 -11.575432 -3.313776  0.753094 -0.600768 -0.268192  0.519062 0.233440 1 64 1.000000
0  -3.103590 -11.167157 -3.676943  0.757325 -0.599206 -0.259638  0.519062 0.233440 1 64 1.000000
0  -3.103590 -11.338167 -3.286717  0.754513 -0.601098 -0.263424  0.519062 0.233440 1 64 1.000000
lowpoly_plastic
0  -3.103590 -12.330058 -3.007863  1.000000 0.000000 0.000000  0.519062 0.233440 1 64 1.000000
0  -3.103590 -11.919849 -3.011595  1.000000 0.000000 0.000000  0.519062 0.233440 1 64 1.000000
0  -3.103590 -12.183458 -2.386465  1.000000 0.000000 0.000000  0.519062 0.233440 1 64 1.000000
lowpoly_plastic
0  -3.268718 -11.326849 -1.183931  0.826029 0.121819 0.550305  0.519062 0.233440 1 64 1.000000
0  -3.103590 -10.830965 -1.539192  0.823063 0.122905 0.554493  0.519062 0.233440 1 64 1.000000
0  -3.261739 -10.626330 -1.348058  0.824633 0.121239 0.552523  0.519062 0.233440 1 64 1.000000
lowpoly_plastic
0  -3.261739 -10.402866 -2.246548  0.800687 0.560660 0.211093  0.519062 0.233440 1 64 1.000000
0  -3.103590 -10.825540 -1.723806  0.800687 0.560660 0.211093  0.519062 0.233440 1 64 1.000000
0  -3.103590 -10.596752 -2.331458  0.800687 0.560660 0.211093  0.519062 0.233440 1 64 1.000000
lowpoly_plastic
0  -3.103590 -9.982035 -3.325923  0.816134 0.513379 0.265271  0.519062 0.233440 1 64 1.000000
0  -3.261739 -9.984058 -2.835444  0.816134 0.513379 0.265271  0.519062 0.233440 1 64 1.000000
0  -3.103590 -10.223820 -2.857998  0.816134 0.513379 0.265271  0.519062 0.233440 1 64 1.000000
lowpoly_plastic
0  -3.103590 -10.223820 -2.857998  0.795046 0.494974 0.350575  0.519062 0.233440 1 64 1.000000
0  -3.261739 -10.402866 -2.246548  0.795046 0.494974 0.350575  0.519062 0.233440 1 64 1.000000
0  -3.103590 -10.596752 -2.331458  0.795046 0.494974 0.350575  0.519062 0.233440 1 64 1.000000
lowpoly_plastic
0  -3.261739 -10.614517 -1.719356  0.800267 0.599385 0.017619  0.519062 0.233440 1 64 1.000000
0  -3.103590 -10.830965 -1.539192  0.800267 0.599385 0.017619  0.519062 0.233440 1 64 1.000000
0  -3.103590 -10.825540 -1.723806  0.800267 0.599385 0.017619  0.519062 0.233440 1 64 1.000000
lowpoly_plastic
0  -3.103590 -9.721501 -4.069611  0.805307 0.560161 0.194164  0.519062 0.233440 1 64 1.000000
0  -3.261739 -9.761713 -3.300796  0.806814 0.557743 0.194866  0.519062 0.233440 1 64 1.000000
0  -3.103590 -9.982035 -3.325923  0.807161 0.557133 0.195176  0.519062 0.233440 1 64 1.000000
lowpoly_plastic
0  -3.261740 -9.387556 -4.476858  0.795804 0.581777 0.168023  0.519062 0.233440 1 64 1.000000
0  -3.103590 -9.721501 -4.069611  0.795804 0.581777 0.168023  0.519062 0.233440 1 64 1.000000
0  -3.103591 -9.581653 -4.553838  0.795804 0.581777 0.168023  0.519062 0.233440 1 64 1.000000
lowpoly_plastic
0  -3.103591 -9.451530 -5.027848  0.795403 0.584460 0.160441  0.519062 0.233440 1 64 1.000000
0  -3.261740 -9.387556 -4.476858  0.795403 0.584460 0.160441  0.519062 0.233440 1 64 1.000000
0  -3.103591 -9.581653 -4.553838  0.795403 0.584460 0.160441  0.519062 0.233440 1 64 1.000000
lowpoly_plastic
0  -3.103591 -9.338326 -5.211803  0.795045 0.516572 0.317894  0.519062 0.233440 1 64 1.000000
0  -3.261740 -9.272059 -4.923955  0.795045 0.516572 0.317894  0.519062 0.233440 1 64 1.000000
0  -3.103591 -9.451530 -5.027848  0.795045 0.516572 0.317894  0.519062 0.233440 1 64 1.000000
lowpoly_plastic
0  -3.261740 -9.189444 -5.356548  0.772044 0.589758 -0.236926  0.519062 0.233440 1 64 1.000000
0  -3.103591 -9.338326 -5.211803  0.772044 0.589758 -0.236926  0.519062 0.233440 1 64 1.000000
0  -3.103591 -9.412178 -5.395638  0.772044 0.589758 -0.236926  0.519062 0.233440 1 64 1.000000
lowpoly_plastic
0  -3.540585 -9.761713 -3.300796  0.000001 0.902297 0.431115  0.519062 0.233440 1 64 1.000000
0  -3.261739 -9.984058 -2.835444  -0.002389 0.904031 0.427461  0.519062 0.233440 1 64 1.000000
0  -3.261739 -9.761713 -3.300796  0.000001 0.902297 0.431115  0.519062 0.233440 1 64 1.000000
lowpoly_plastic
0  -3.779110 -11.398150 -3.666199  0.000000 -0.893340 -0.449382  0.519062 0.233440 1 64 1.000000
0  -3.540585 -11.398150 -3.666199  0.000000 -0.893340 -0.449382  0.519062 0.233440 1 64 1.000000
0  -3.540584 -11.575432 -3.313776  0.000000 -0.893340 -0.449382  0.519062 0.233440 1 64 1.000000
lowpoly_plastic
0  -3.540584 -12.035369 -2.244604  0.000000 -0.691761 0.722126  0.519062 0.233440 1 64 1.000000
0  -3.977579 -12.035369 -2.244604  0.000000 -0.691761 0.722126  0.519062 0.233440 1 64 1.000000
0  -3.977579 -12.183458 -2.386465  0.000000 -0.691761 0.722126  0.519062 0.233440 1 64 1.000000
lowpoly_plastic
0  -3.696285 -12.294413 -3.250579  0.000000 -0.989390 -0.145287  0.519062 0.233440 1 64 1.000000
0  -3.540585 -12.294413 -3.250579  0.000000 -0.989390 -0.145287  0.519062 0.233440 1 64 1.000000
0  -3.977579 -12.330058 -3.007863  0.000000 -0.989390 -0.145287  0.519062 0.233440 1 64 1.000000
lowpoly_plastic
0  -3.540585 -12.294413 -3.250579  0.149928 -0.980646 0.125916  0.519062 0.233440 1 64 1.000000
0  -3.540584 -12.183458 -2.386465  0.149928 -0.980646 0.125916  0.519062 0.233440 1 64 1.000000
0  -3.977579 -12.330058 -3.007863  0.149928 -0.980646 0.125916  0.519062 0.233440 1 64 1.000000
lowpoly_plastic
0  -3.977579 -11.221101 -1.734630  0.000000 -0.963844 -0.266469  0.519062 0.233440 1 64 1.000000
0  -3.540584 -11.221101 -1.734630  0.000000 -0.963844 -0.266469  0.519062 0.233440 1 64 1.000000
0  -3.977578 -11.329075 -1.344078  0.001726 -0.964266 -0.264932  0.519062 0.233440 1 64 1.000000
lowpoly_plastic
0  -3.540584 -11.221101 -1.734630  0.073909 -0.979372 -0.188064  0.519062 0.233440 1 64 1.000000
0  -3.540584 -11.326849 -1.183931  0.075230 -0.979628 -0.186197  0.519062 0.233440 1 64 1.000000
0  -3.977578 -11.329075 -1.344078  0.073458 -0.979837 -0.185806  0.519062 0.233440 1 64 1.000000
lowpoly_plastic
0  -3.819430 -10.614518 -1.719356  -0.000003 0.928005 0.372567  0.519062 0.233440 1 64 1.000000
0  -3.540584 -10.614517 -1.719356  -0.000003 0.928005 0.372567  0.519062 0.233440 1 64 1.000000
0  -3.540584 -10.402866 -2.246548  -0.000003 0.928005 0.372567  0.519062 0.233440 1 64 1.000000
lowpoly_plastic
0  -3.540584 -11.575432 -3.313776  0.000000 -0.195186 -0.980766  0.519062 0.233440 1 64 1.000000
0  -3.540585 -11.876117 -3.253936  0.000000 -0.195186 -0.980766  0.519062 0.233440 1 64 1.000000
0  -3.696285 -11.876117 -3.253936  0.000000 -0.195186 -0.980766  0.519062 0.233440 1 64 1.000000
lowpoly_plastic
0  -3.819430 -10.402866 -2.246548  0.000000 0.814930 0.579559  0.519062 0.233440 1 64 1.000000
0  -3.540584 -10.402866 -2.246548  0.000000 0.814930 0.579559  0.519062 0.233440 1 64 1.000000
0  -3.540585 -9.984058 -2.835444  -0.000437 0.812182 0.583403  0.519062 0.233440 1 64 1.000000
lowpoly_plastic
0  -3.540585 -9.509050 -4.015181  -0.001170 0.968394 0.249421  0.519062 0.233440 1 64 1.000000
0  -3.540585 -9.387556 -4.476858  0.000000 0.967075 0.254493  0.519062 0.233440 1 64 1.000000
0  -3.819430 -9.387556 -4.476858  0.000000 0.967075 0.254493  0.519062 0.233440 1 64 1.000000
lowpoly_plastic
0  -3.819430 -10.626330 -1.348058  0.000000 0.999494 0.031799  0.519062 0.233440 1 64 1.000000
0  -3.540584 -10.626330 -1.348058  0.000000 0.999494 0.031799  0.519062 0.233440 1 64 1.000000
0  -3.540584 -10.614517 -1.719356  0.000000 0.999494 0.031799  0.519062 0.233440 1 64 1.000000
lowpoly_plastic
0  -3.540584 -11.722875 -2.255732  0.000000 0.035587 0.999367  0.519062 0.233440 1 64 1.000000
0  -3.977579 -11.722875 -2.255732  0.000000 0.035587 0.999367  0.519062 0.233440 1 64 1.000000
0  -3.977579 -12.035369 -2.244604  0.000000 0.035587 0.999367  0.519062 0.233440 1 64 1.000000
lowpoly_plastic
0  -3.540584 -11.339737 -2.067627  -0.000001 -0.440709 0.897650  0.519062 0.233440 1 64 1.000000
0  -3.977579 -11.339736 -2.067627  -0.000001 -0.440709 0.897650  0.519062 0.233440 1 64 1.000000
0  -3.977579 -11.722875 -2.255732  -0.000001 -0.440709 0.897650  0.519062 0.233440 1 64 1.000000
lowpoly_plastic
0  -3.540584 -11.221101 -1.734630  0.000000 -0.942004 0.335601  0.519062 0.233440 1 64 1.000000
0  -3.977579 -11.221101 -1.734630  0.000000 -0.942004 0.335601  0.519062 0.233440 1 64 1.000000
0  -3.977579 -11.339736 -2.067627  0.000000 -0.942004 0.335601  0.519062 0.233440 1 64 1.000000
lowpoly_plastic
0  -3.977579 -11.722875 -2.255732  -1.000000 0.000000 0.000000  0.519062 0.233440 1 64 1.000000
0  -3.977579 -10.596752 -2.331458  -1.000000 0.000000 0.000000  0.519062 0.233440 1 64 1.000000
0  -3.977579 -10.223820 -2.857998  -1.000000 0.000000 0.000000  0.519062 0.233440 1 64 1.000000
lowpoly_plastic
0  -3.540585 -9.761713 -3.300796  0.000000 0.942771 0.333439  0.519062 0.233440 1 64 1.000000
0  -3.540585 -9.509050 -4.015181  -0.004263 0.941670 0.336512  0.519062 0.233440 1 64 1.000000
0  -3.819430 -9.509050 -4.015181  0.005369 0.942758 0.333436  0.519062 0.233440 1 64 1.000000
lowpoly_plastic
0  -3.540585 -12.294413 -3.250579  0.000000 -0.008026 -0.999968  0.519062 0.233440 1 64 1.000000
0  -3.696285 -12.294413 -3.250579  0.000000 -0.008026 -0.999968  0.519062 0.233440 1 64 1.000000
0  -3.696285 -11.876117 -3.253936  0.000000 -0.008026 -0.999968  0.519062 0.233440 1 64 1.000000
lowpoly_plastic
0  -3.540584 -11.575865 -4.034423  0.000000 -0.900598 0.434652  0.519062 0.233440 1 64 1.000000
0  -3.540585 -11.398150 -3.666199  0.000000 -0.900598 0.434652  0.519062 0.233440 1 64 1.000000
0  -3.779110 -11.398150 -3.666199  0.000000 -0.900598 0.434652  0.519062 0.233440 1 64 1.000000
lowpoly_plastic
0  -3.540585 -11.327440 -4.370986  0.000000 -0.804565 -0.593865  0.519062 0.233440 1 64 1.000000
0  -3.540584 -11.575865 -4.034423  0.000000 -0.804565 -0.593865  0.519062 0.233440 1 64 1.000000
0  -3.779110 -11.575865 -4.034423  0.000000 -0.804565 -0.593865  0.519062 0.233440 1 64 1.000000
lowpoly_plastic
0  -3.779110 -11.452885 -4.785047  0.000000 -0.957043 0.289947  0.519062 0.233440 1 64 1.000000
0  -3.540585 -11.452885 -4.785046  0.000000 -0.957043 0.289947  0.519062 0.233440 1 64 1.000000
0  -3.540585 -11.327440 -4.370986  0.000000 -0.957043 0.289947  0.519062 0.233440 1 64 1.000000
lowpoly_plastic
0  -3.540585 -11.158832 -4.984118  0.000003 -0.560610 -0.828080  0.519062 0.233440 1 64 1.000000
0  -3.540585 -11.452885 -4.785046  0.000003 -0.560610 -0.828080  0.519062 0.233440 1 64 1.000000
0  -3.779110 -11.452885 -4.785047  0.000003 -0.560610 -0.828080  0.519062 0.233440 1 64 1.000000
lowpoly_plastic
0  -3.540585 -11.137378 -5.113231  0.000000 -0.986474 -0.163920  0.519062 0.233440 1 64 1.000000
0  -3.540585 -11.158832 -4.984118  0.000000 -0.986474 -0.163920  0.519062 0.233440 1 64 1.000000
0  -3.779110 -11.158832 -4.984118  0.000000 -0.986474 -0.163920  0.519062 0.233440 1 64 1.000000
lowpoly_plastic
0  -3.540585 -10.369993 -5.547106  0.000000 -0.302341 -0.953200  0.519062 0.233440 1 64 1.000000
0  -3.540585 -11.079061 -5.322200  0.000000 -0.302341 -0.953200  0.519062 0.233440 1 64 1.000000
0  -3.779110 -11.079061 -5.322200  0.000000 -0.302341 -0.953200  0.519062 0.233440 1 64 1.000000
lowpoly_plastic
0  -3.977579 -11.338167 -3.286717  -0.999987 -0.003564 0.003756  0.519062 0.233440 1 64 1.000000
0  -3.977579 -11.919849 -3.011595  -1.000000 -0.000000 -0.000000  0.519062 0.233440 1 64 1.000000
0  -3.977579 -10.223820 -2.857998  -0.999987 -0.004723 -0.001741  0.519062 0.233440 1 64 1.000000
lowpoly_plastic
0  -3.540585 -9.387556 -4.476858  0.000001 0.968216 0.250114  0.519062 0.233440 1 64 1.000000
0  -3.540585 -9.272059 -4.923956  0.000001 0.968216 0.250114  0.519062 0.233440 1 64 1.000000
0  -3.819430 -9.272059 -4.923955  0.000001 0.968216 0.250114  0.519062 0.233440 1 64 1.000000
lowpoly_plastic
0  -3.819430 -9.272059 -4.923955  0.000000 0.851659 0.524096  0.519062 0.233440 1 64 1.000000
0  -3.540585 -9.272059 -4.923956  0.000000 0.851659 0.524096  0.519062 0.233440 1 64 1.000000
0  -3.540585 -9.116547 -5.176663  0.000000 0.851659 0.524096  0.519062 0.233440 1 64 1.000000
lowpoly_plastic
0  -3.540585 -9.116547 -5.176663  0.000000 0.926791 -0.375577  0.519062 0.233440 1 64 1.000000
0  -3.540585 -9.189444 -5.356548  0.000000 0.926791 -0.375577  0.519062 0.233440 1 64 1.000000
0  -3.819430 -9.189444 -5.356548  0.000000 0.926791 -0.375577  0.519062 0.233440 1 64 1.000000
lowpoly_plastic
0  -3.977579 -9.971395 -5.477153  0.014989 0.144226 -0.989431  0.519062 0.233440 1 64 1.000000
0  -3.977579 -9.412178 -5.395638  0.014989 0.144226 -0.989431  0.519062 0.233440 1 64 1.000000
0  -3.540585 -9.189444 -5.356548  0.014989 0.144226 -0.989431  0.519062 0.233440 1 64 1.000000
lowpoly_plastic
0  -3.977579 -9.412178 -5.395638  0.000000 0.172859 -0.984946  0.519062 0.233440 1 64 1.000000
0  -3.819430 -9.189444 -5.356548  0.000000 0.172859 -0.984946  0.519062 0.233440 1 64 1.000000
0  -3.540585 -9.189444 -5.356548  0.000000 0.172859 -0.984946  0.519062 0.233440 1 64 1.000000
lowpoly_plastic
0  -3.540585 -9.189444 -5.356548  -0.012678 0.159339 -0.987143  0.519062 0.233440 1 64 1.000000
0  -3.540585 -10.369993 -5.547106  -0.012678 0.159339 -0.987143  0.519062 0.233440 1 64 1.000000
0  -3.977579 -9.971395 -5.477153  -0.012678 0.159339 -0.987143  0.519062 0.233440 1 64 1.000000
lowpoly_plastic
0  -3.540585 -11.079061 -5.322200  0.000000 -0.963195 -0.268803  0.519062 0.233440 1 64 1.000000
0  -3.540585 -11.137378 -5.113231  0.000000 -0.963195 -0.268803  0.519062 0.233440 1 64 1.000000
0  -3.779110 -11.137378 -5.113231  0.000000 -0.963195 -0.268803  0.519062 0.233440 1 64 1.000000
lowpoly_plastic
0  -3.977579 -10.957189 -4.875494  -1.000000 0.000000 -0.000001  0.519062 0.233440 1 64 1.000000
0  -3.977579 -11.229047 -4.713006  -1.000000 0.000000 -0.000001  0.519062 0.233440 1 64 1.000000
0  -3.977579 -9.451530 -5.027847  -1.000000 0.000000 -0.000001  0.519062 0.233440 1 64 1.000000
lowpoly_plastic
0  -3.977579 -11.380665 -3.976898  -1.000000 -0.000000 -0.000001  0.519062 0.233440 1 64 1.000000
0  -3.977579 -11.167157 -3.676943  -1.000000 -0.000000 -0.000001  0.519062 0.233440 1 64 1.000000
0  -3.977579 -9.721501 -4.069611  -1.000000 -0.000000 -0.000001  0.519062 0.233440 1 64 1.000000
lowpoly_plastic
0  -3.540584 -11.326849 -1.183931  0.000000 0.228117 0.973634  0.519062 0.233440 1 64 1.000000
0  -3.540584 -10.626330 -1.348058  0.000000 0.228117 0.973634  0.519062 0.233440 1 64 1.000000
0  -3.819430 -10.626330 -1.348058  0.000000 0.228117 0.973634  0.519062 0.233440 1 64 1.000000
lowpoly_plastic
0  -3.977579 -11.339736 -2.067627  -1.000000 -0.000001 0.000000  0.519062 0.233440 1 64 1.000000
0  -3.977579 -11.221101 -1.734630  -1.000000 -0.000001 0.000000  0.519062 0.233440 1 64 1.000000
0  -3.977579 -10.825540 -1.723806  -1.000000 -0.000001 0.000000  0.519062 0.233440 1 64 1.000000
lowpoly_plastic
0  -3.977579 -11.221101 -1.734630  -1.000000 -0.000001 0.000001  0.519062 0.233440 1 64 1.000000
0  -3.977578 -11.329075 -1.344078  -1.000000 -0.000001 0.000001  0.519062 0.233440 1 64 1.000000
0  -3.977579 -10.830965 -1.539192  -1.000000 -0.000001 0.000001  0.519062 0.233440 1 64 1.000000
lowpoly_plastic
0  -3.977579 -9.982035 -3.325923  -1.000000 -0.000000 -0.000000  0.519062 0.233440 1 64 1.000000
0  -3.977579 -9.721501 -4.069611  -1.000000 -0.000000 -0.000000  0.519062 0.233440 1 64 1.000000
0  -3.977579 -11.167157 -3.676943  -1.000000 -0.000000 -0.000000  0.519062 0.233440 1 64 1.000000
lowpoly_plastic
0  -3.696285 -12.294413 -3.250579  -0.652765 -0.006892 -0.757529  0.519062 0.233440 1 64 1.000000
0  -3.977579 -12.330058 -3.007863  -0.652765 -0.006892 -0.757529  0.519062 0.233440 1 64 1.000000
0  -3.977579 -11.919849 -3.011595  -0.652765 -0.006892 -0.757529  0.519062 0.233440 1 64 1.000000
lowpoly_plastic
0  -3.779110 -11.575432 -3.313776  -0.592106 -0.311044 -0.743412  0.519062 0.233440 1 64 1.000000
0  -3.696285 -11.876117 -3.253936  -0.592106 -0.311044 -0.743412  0.519062 0.233440 1 64 1.000000
0  -3.977579 -11.919849 -3.011595  -0.592106 -0.311044 -0.743412  0.519062 0.233440 1 64 1.000000
lowpoly_plastic
0  -3.977579 -10.766724 -5.237877  -0.675507 -0.212429 -0.706090  0.519062 0.233440 1 64 1.000000
0  -3.977579 -9.971395 -5.477153  -0.675507 -0.212429 -0.706090  0.519062 0.233440 1 64 1.000000
0  -3.779110 -10.369993 -5.547107  -0.675507 -0.212429 -0.706090  0.519062 0.233440 1 64 1.000000
lowpoly_plastic
0  -3.977579 -10.885610 -5.065793  -0.838445 -0.447565 -0.310960  0.519062 0.233440 1 64 1.000000
0  -3.977579 -10.766724 -5.237877  -0.838091 -0.448834 -0.310083  0.519062 0.233440 1 64 1.000000
0  -3.779110 -11.079061 -5.322200  -0.838763 -0.448628 -0.308559  0.519062 0.233440 1 64 1.000000
lowpoly_plastic
0  -3.977579 -10.885610 -5.065793  -0.790475 -0.604211 -0.100392  0.519062 0.233440 1 64 1.000000
0  -3.779110 -11.137378 -5.113231  -0.790475 -0.604211 -0.100392  0.519062 0.233440 1 64 1.000000
0  -3.779110 -11.158832 -4.984118  -0.790475 -0.604211 -0.100392  0.519062 0.233440 1 64 1.000000
lowpoly_plastic
0  -3.977579 -11.229047 -4.713006  -0.703919 -0.364403 -0.609680  0.519062 0.233440 1 64 1.000000
0  -3.977579 -10.957189 -4.875494  -0.703919 -0.364403 -0.609680  0.519062 0.233440 1 64 1.000000
0  -3.779110 -11.158832 -4.984118  -0.703919 -0.364403 -0.609680  0.519062 0.233440 1 64 1.000000
lowpoly_plastic
0  -3.977579 -11.153876 -4.378692  -0.714323 -0.682771 0.153514  0.519062 0.233440 1 64 1.000000
0  -3.977579 -11.229047 -4.713006  -0.714323 -0.682771 0.153514  0.519062 0.233440 1 64 1.000000
0  -3.779110 -11.452885 -4.785047  -0.714323 -0.682771 0.153514  0.519062 0.233440 1 64 1.000000
lowpoly_plastic
0  -3.977579 -11.153876 -4.378692  -0.562619 -0.665147 -0.490957  0.519062 0.233440 1 64 1.000000
0  -3.779110 -11.327440 -4.370986  -0.562619 -0.665147 -0.490957  0.519062 0.233440 1 64 1.000000
0  -3.779110 -11.575865 -4.034423  -0.562619 -0.665147 -0.490957  0.519062 0.233440 1 64 1.000000
lowpoly_plastic
0  -3.977579 -11.167157 -3.676943  -0.534969 -0.688311 0.489935  0.519062 0.233440 1 64 1.000000
0  -3.977579 -11.380665 -3.976898  -0.534969 -0.688311 0.489935  0.519062 0.233440 1 64 1.000000
0  -3.779110 -11.575865 -4.034423  -0.534969 -0.688311 0.489935  0.519062 0.233440 1 64 1.000000
lowpoly_plastic
0  -3.977579 -11.167157 -3.676943  -0.714119 -0.627374 -0.310539  0.519062 0.233440 1 64 1.000000
0  -3.779110 -11.398150 -3.666199  -0.712492 -0.626839 -0.315323  0.519062 0.233440 1 64 1.000000
0  -3.779110 -11.575432 -3.313776  -0.709400 -0.628479 -0.319007  0.519062 0.233440 1 64 1.000000
lowpoly_plastic
0  -3.812451 -11.326849 -1.183931  -0.826079 0.121838 0.550226  0.519062 0.233440 1 64 1.000000
0  -3.819430 -10.626330 -1.348058  -0.824633 0.121237 0.552523  0.519062 0.233440 1 64 1.000000
0  -3.977579 -10.830965 -1.539192  -0.823063 0.122903 0.554493  0.519062 0.233440 1 64 1.000000
lowpoly_plastic
0  -3.977579 -10.825540 -1.723806  -0.780561 0.580077 0.232884  0.519062 0.233440 1 64 1.000000
0  -3.819430 -10.614518 -1.719356  -0.780561 0.580077 0.232884  0.519062 0.233440 1 64 1.000000
0  -3.819430 -10.402866 -2.246548  -0.780561 0.580077 0.232884  0.519062 0.233440 1 64 1.000000
lowpoly_plastic
0  -3.977579 -9.982035 -3.325923  -0.816134 0.513377 0.265271  0.519062 0.233440 1 64 1.000000
0  -3.977579 -10.223820 -2.857998  -0.816134 0.513377 0.265271  0.519062 0.233440 1 64 1.000000
0  -3.819430 -9.984058 -2.835444  -0.816134 0.513377 0.265271  0.519062 0.233440 1 64 1.000000
lowpoly_plastic
0  -3.977579 -10.223820 -2.857998  -0.795047 0.494972 0.350575  0.519062 0.233440 1 64 1.000000
0  -3.977579 -10.596752 -2.331458  -0.795047 0.494972 0.350575  0.519062 0.233440 1 64 1.000000
0  -3.819430 -10.402866 -2.246548  -0.795047 0.494972 0.350575  0.519062 0.233440 1 64 1.000000
lowpoly_plastic
0  -3.977579 -10.830965 -1.539192  -0.799649 0.600164 0.019090  0.519062 0.233440 1 64 1.000000
0  -3.819430 -10.626330 -1.348058  -0.799649 0.600164 0.019090  0.519062 0.233440 1 64 1.000000
0  -3.819430 -10.614518 -1.719356  -0.799649 0.600164 0.019090  0.519062 0.233440 1 64 1.000000
lowpoly_plastic
0  -3.977579 -9.721501 -4.069611  -0.805331 0.560122 0.194180  0.519062 0.233440 1 64 1.000000
0  -3.977579 -9.982035 -3.325923  -0.807161 0.557133 0.195177  0.519062 0.233440 1 64 1.000000
0  -3.819430 -9.761714 -3.300796  -0.807161 0.557133 0.195177  0.519062 0.233440 1 64 1.000000
lowpoly_plastic
0  -3.977579 -9.721501 -4.069611  -0.812927 0.563639 0.146496  0.519062 0.233440 1 64 1.000000
0  -3.819430 -9.509050 -4.015181  -0.811102 0.565647 0.148855  0.519062 0.233440 1 64 1.000000
0  -3.819430 -9.387556 -4.476858  -0.811102 0.565647 0.148855  0.519062 0.233440 1 64 1.000000
lowpoly_plastic
0  -3.977579 -9.451530 -5.027847  -0.795406 0.584455 0.160443  0.519062 0.233440 1 64 1.000000
0  -3.977579 -9.581654 -4.553838  -0.795406 0.584455 0.160443  0.519062 0.233440 1 64 1.000000
0  -3.819430 -9.387556 -4.476858  -0.795406 0.584455 0.160443  0.519062 0.233440 1 64 1.000000
lowpoly_plastic
0  -3.977580 -9.338326 -5.211803  -0.795044 0.516571 0.317898  0.519062 0.233440 1 64 1.000000
0  -3.977579 -9.451530 -5.027847  -0.795044 0.516571 0.317898  0.519062 0.233440 1 64 1.000000
0  -3.819430 -9.272059 -4.923955  -0.795044 0.516571 0.317898  0.519062 0.233440 1 64 1.000000
lowpoly_plastic
0  -3.977580 -9.338326 -5.211803  -0.772429 0.588606 -0.238530  0.519062 0.233440 1 64 1.000000
0  -3.819430 -9.116547 -5.176663  -0.772429 0.588606 -0.238530  0.519062 0.233440 1 64 1.000000
0  -3.819430 -9.189444 -5.356548  -0.772429 0.588606 -0.238530  0.519062 0.233440 1 64 1.000000
lowpoly_plastic
0  -3.819430 -9.984058 -2.835444  0.004695 0.902217 0.431256  0.519062 0.233440 1 64 1.000000
0  -3.540585 -9.984058 -2.835444  -0.004384 0.903070 0.429472  0.519062 0.233440 1 64 1.000000
0  -3.540585 -9.761713 -3.300796  0.000000 0.902296 0.431116  0.519062 0.233440 1 64 1.000000
lowpoly_plastic
0  -3.540584 -11.575432 -3.313776  -0.000001 -0.893340 -0.449381  0.519062 0.233440 1 64 1.000000
0  -3.540585 -11.398150 -3.666199  -0.000001 -0.893340 -0.449381  0.519062 0.233440 1 64 1.000000
0  -3.302059 -11.398150 -3.666199  -0.000001 -0.893340 -0.449381  0.519062 0.233440 1 64 1.000000
lowpoly_plastic
0  -3.103590 -12.183458 -2.386465  0.000001 -0.691757 0.722130  0.519062 0.233440 1 64 1.000000
0  -3.103590 -12.035368 -2.244604  0.000001 -0.691757 0.722130  0.519062 0.233440 1 64 1.000000
0  -3.540584 -12.035369 -2.244604  0.000001 -0.691757 0.722130  0.519062 0.233440 1 64 1.000000
lowpoly_plastic
0  -3.540584 -12.183458 -2.386465  -0.149928 -0.980646 0.125918  0.519062 0.233440 1 64 1.000000
0  -3.540585 -12.294413 -3.250579  -0.149928 -0.980646 0.125918  0.519062 0.233440 1 64 1.000000
0  -3.103590 -12.330058 -3.007863  -0.149928 -0.980646 0.125918  0.519062 0.233440 1 64 1.000000
lowpoly_plastic
0  -3.540585 -12.294413 -3.250579  0.000000 -0.989386 -0.145311  0.519062 0.233440 1 64 1.000000
0  -3.384883 -12.294413 -3.250579  0.000000 -0.989386 -0.145311  0.519062 0.233440 1 64 1.000000
0  -3.103590 -12.330058 -3.007863  0.000000 -0.989386 -0.145311  0.519062 0.233440 1 64 1.000000
lowpoly_plastic
0  -3.540584 -11.326849 -1.183931  -0.075230 -0.979627 -0.186201  0.519062 0.233440 1 64 1.000000
0  -3.540584 -11.221101 -1.734630  -0.073909 -0.979371 -0.188068  0.519062 0.233440 1 64 1.000000
0  -3.103590 -11.329075 -1.344078  -0.073449 -0.979845 -0.185764  0.519062 0.233440 1 64 1.000000
lowpoly_plastic
0  -3.540584 -11.221101 -1.734630  -0.000000 -0.963845 -0.266464  0.519062 0.233440 1 64 1.000000
0  -3.103590 -11.221101 -1.734630  -0.000000 -0.963845 -0.266464  0.519062 0.233440 1 64 1.000000
0  -3.103590 -11.329075 -1.344078  -0.001761 -0.964275 -0.264896  0.519062 0.233440 1 64 1.000000
lowpoly_plastic
0  -3.540584 -10.402866 -2.246548  0.000000 0.928006 0.372565  0.519062 0.233440 1 64 1.000000
0  -3.540584 -10.614517 -1.719356  0.000000 0.928006 0.372565  0.519062 0.233440 1 64 1.000000
0  -3.261739 -10.614517 -1.719356  0.000000 0.928006 0.372565  0.519062 0.233440 1 64 1.000000
lowpoly_plastic
0  -3.540584 -11.575432 -3.313776  0.000000 -0.195185 -0.980766  0.519062 0.233440 1 64 1.000000
0  -3.302059 -11.575432 -3.313776  0.000000 -0.195185 -0.980766  0.519062 0.233440 1 64 1.000000
0  -3.384883 -11.876117 -3.253936  0.000000 -0.195185 -0.980766  0.519062 0.233440 1 64 1.000000
lowpoly_plastic
0  -3.540585 -9.984058 -2.835444  0.001280 0.812303 0.583234  0.519062 0.233440 1 64 1.000000
0  -3.540584 -10.402866 -2.246548  0.000000 0.814932 0.579557  0.519062 0.233440 1 64 1.000000
0  -3.261739 -10.402866 -2.246548  0.000000 0.814932 0.579557  0.519062 0.233440 1 64 1.000000
lowpoly_plastic
0  -3.261740 -9.387556 -4.476858  0.000000 0.967074 0.254494  0.519062 0.233440 1 64 1.000000
0  -3.540585 -9.387556 -4.476858  0.000000 0.967074 0.254494  0.519062 0.233440 1 64 1.000000
0  -3.540585 -9.509050 -4.015181  0.001647 0.968374 0.249500  0.519062 0.233440 1 64 1.000000
lowpoly_plastic
0  -3.540584 -10.614517 -1.719356  0.000000 0.999494 0.031799  0.519062 0.233440 1 64 1.000000
0  -3.540584 -10.626330 -1.348058  0.000000 0.999494 0.031799  0.519062 0.233440 1 64 1.000000
0  -3.261739 -10.626330 -1.348058  0.000000 0.999494 0.031799  0.519062 0.233440 1 64 1.000000
lowpoly_plastic
0  -3.103590 -12.035368 -2.244604  0.000000 0.035587 0.999367  0.519062 0.233440 1 64 1.000000
0  -3.103590 -11.722875 -2.255732  0.000000 0.035587 0.999367  0.519062 0.233440 1 64 1.000000
0  -3.540584 -11.722875 -2.255732  0.000000 0.035587 0.999367  0.519062 0.233440 1 64 1.000000
lowpoly_plastic
0  -3.103590 -11.722875 -2.255732  0.000001 -0.440709 0.897650  0.519062 0.233440 1 64 1.000000
0  -3.103590 -11.339736 -2.067627  0.000001 -0.440709 0.897650  0.519062 0.233440 1 64 1.000000
0  -3.540584 -11.339737 -2.067627  0.000001 -0.440709 0.897650  0.519062 0.233440 1 64 1.000000
lowpoly_plastic
0  -3.103590 -11.339736 -2.067627  0.000000 -0.942004 0.335601  0.519062 0.233440 1 64 1.000000
0  -3.103590 -11.221101 -1.734630  0.000000 -0.942004 0.335601  0.519062 0.233440 1 64 1.000000
0  -3.540584 -11.221101 -1.734630  0.000000 -0.942004 0.335601  0.519062 0.233440 1 64 1.000000
lowpoly_plastic
0  -3.103590 -10.223820 -2.857998  1.000000 0.000000 0.000001  0.519062 0.233440 1 64 1.000000
0  -3.103590 -10.596752 -2.331458  1.000000 0.000000 0.000001  0.519062 0.233440 1 64 1.000000
0  -3.103590 -11.722875 -2.255732  1.000000 0.000000 0.000001  0.519062 0.233440 1 64 1.000000
lowpoly_plastic
0  -3.261740 -9.509050 -4.015181  -0.005369 0.942758 0.333434  0.519062 0.233440 1 64 1.000000
0  -3.540585 -9.509050 -4.015181  0.003293 0.941324 0.337489  0.519062 0.233440 1 64 1.000000
0  -3.540585 -9.761713 -3.300796  0.000000 0.942772 0.333439  0.519062 0.233440 1 64 1.000000
lowpoly_plastic
0  -3.384883 -11.876117 -3.253936  0.000000 -0.008026 -0.999968  0.519062 0.233440 1 64 1.000000
0  -3.384883 -12.294413 -3.250579  0.000000 -0.008026 -0.999968  0.519062 0.233440 1 64 1.000000
0  -3.540585 -12.294413 -3.250579  0.000000 -0.008026 -0.999968  0.519062 0.233440 1 64 1.000000
lowpoly_plastic
0  -3.302059 -11.398150 -3.666199  0.000001 -0.900599 0.434650  0.519062 0.233440 1 64 1.000000
0  -3.540585 -11.398150 -3.666199  0.000001 -0.900599 0.434650  0.519062 0.233440 1 64 1.000000
0  -3.540584 -11.575865 -4.034423  0.000001 -0.900599 0.434650  0.519062 0.233440 1 64 1.000000
lowpoly_plastic
0  -3.302059 -11.575865 -4.034423  0.000000 -0.804563 -0.593867  0.519062 0.233440 1 64 1.000000
0  -3.540584 -11.575865 -4.034423  0.000000 -0.804563 -0.593867  0.519062 0.233440 1 64 1.000000
0  -3.540585 -11.327440 -4.370986  0.000000 -0.804563 -0.593867  0.519062 0.233440 1 64 1.000000
lowpoly_plastic
0  -3.302059 -11.452885 -4.785046  0.000000 -0.957043 0.289946  0.519062 0.233440 1 64 1.000000
0  -3.302059 -11.327440 -4.370986  0.000000 -0.957043 0.289946  0.519062 0.233440 1 64 1.000000
0  -3.540585 -11.327440 -4.370986  0.000000 -0.957043 0.289946  0.519062 0.233440 1 64 1.000000
lowpoly_plastic
0  -3.302059 -11.452885 -4.785046  0.000000 -0.560605 -0.828083  0.519062 0.233440 1 64 1.000000
0  -3.540585 -11.452885 -4.785046  0.000000 -0.560605 -0.828083  0.519062 0.233440 1 64 1.000000
0  -3.540585 -11.158832 -4.984118  0.000000 -0.560605 -0.828083  0.519062 0.233440 1 64 1.000000
lowpoly_plastic
0  -3.302060 -11.158832 -4.984118  0.000000 -0.986476 -0.163905  0.519062 0.233440 1 64 1.000000
0  -3.540585 -11.158832 -4.984118  0.000000 -0.986476 -0.163905  0.519062 0.233440 1 64 1.000000
0  -3.540585 -11.137378 -5.113231  0.000000 -0.986476 -0.163905  0.519062 0.233440 1 64 1.000000
lowpoly_plastic
0  -3.302060 -11.079061 -5.322200  0.000000 -0.302342 -0.953199  0.519062 0.233440 1 64 1.000000
0  -3.540585 -11.079061 -5.322200  0.000000 -0.302342 -0.953199  0.519062 0.233440 1 64 1.000000
0  -3.540585 -10.369993 -5.547106  0.000000 -0.302342 -0.953199  0.519062 0.233440 1 64 1.000000
lowpoly_plastic
0  -3.103590 -11.338167 -3.286717  0.999987 0.004893 0.001537  0.519062 0.233440 1 64 1.000000
0  -3.103590 -9.982035 -3.325923  1.000000 -0.000000 0.000000  0.519062 0.233440 1 64 1.000000
0  -3.103590 -10.223820 -2.857998  0.999988 0.001899 -0.004609  0.519062 0.233440 1 64 1.000000
lowpoly_plastic
0  -3.261740 -9.272059 -4.923955  -0.000001 0.968217 0.250112  0.519062 0.233440 1 64 1.000000
0  -3.540585 -9.272059 -4.923956  -0.000001 0.968217 0.250112  0.519062 0.233440 1 64 1.000000
0  -3.540585 -9.387556 -4.476858  -0.000001 0.968217 0.250112  0.519062 0.233440 1 64 1.000000
lowpoly_plastic
0  -3.261740 -9.116547 -5.176663  0.000003 0.851654 0.524104  0.519062 0.233440 1 64 1.000000
0  -3.540585 -9.116547 -5.176663  0.000003 0.851654 0.524104  0.519062 0.233440 1 64 1.000000
0  -3.540585 -9.272059 -4.923956  0.000003 0.851654 0.524104  0.519062 0.233440 1 64 1.000000
lowpoly_plastic
0  -3.261740 -9.189444 -5.356548  0.000000 0.926792 -0.375574  0.519062 0.233440 1 64 1.000000
0  -3.540585 -9.189444 -5.356548  0.000000 0.926792 -0.375574  0.519062 0.233440 1 64 1.000000
0  -3.540585 -9.116547 -5.176663  0.000000 0.926792 -0.375574  0.519062 0.233440 1 64 1.000000
lowpoly_plastic
0  -3.261740 -9.189444 -5.356548  0.000000 0.172856 -0.984947  0.519062 0.233440 1 64 1.000000
0  -3.103591 -9.412178 -5.395638  0.000000 0.172856 -0.984947  0.519062 0.233440 1 64 1.000000
0  -3.540585 -9.189444 -5.356548  0.000000 0.172856 -0.984947  0.519062 0.233440 1 64 1.000000
lowpoly_plastic
0  -3.103591 -9.412178 -5.395638  -0.014989 0.144227 -0.989431  0.519062 0.233440 1 64 1.000000
0  -3.103591 -9.971395 -5.477153  -0.014989 0.144227 -0.989431  0.519062 0.233440 1 64 1.000000
0  -3.540585 -9.189444 -5.356548  -0.014989 0.144227 -0.989431  0.519062 0.233440 1 64 1.000000
lowpoly_plastic
0  -3.103591 -9.971395 -5.477153  0.000000 0.172858 -0.984947  0.519062 0.233440 1 64 1.000000
0  -3.302060 -10.369993 -5.547107  0.000000 0.172858 -0.984947  0.519062 0.233440 1 64 1.000000
0  -3.540585 -10.369993 -5.547106  0.000000 0.172858 -0.984947  0.519062 0.233440 1 64 1.000000
lowpoly_plastic
0  -3.302060 -11.137378 -5.113231  0.000000 -0.963197 -0.268797  0.519062 0.233440 1 64 1.000000
0  -3.540585 -11.137378 -5.113231  0.000000 -0.963197 -0.268797  0.519062 0.233440 1 64 1.000000
0  -3.540585 -11.079061 -5.322200  0.000000 -0.963197 -0.268797  0.519062 0.233440 1 64 1.000000
lowpoly_plastic
0  -3.103591 -9.451530 -5.027848  1.000000 -0.000001 -0.000004  0.519062 0.233440 1 64 1.000000
0  -3.103590 -11.229047 -4.713006  1.000000 -0.000001 -0.000004  0.519062 0.233440 1 64 1.000000
0  -3.103591 -10.957188 -4.875494  1.000000 -0.000001 -0.000004  0.519062 0.233440 1 64 1.000000
lowpoly_plastic
0  -3.103590 -9.721501 -4.069611  1.000000 0.000001 0.000001  0.519062 0.233440 1 64 1.000000
0  -3.103590 -11.167157 -3.676943  1.000000 0.000001 0.000001  0.519062 0.233440 1 64 1.000000
0  -3.103590 -11.380665 -3.976898  1.000000 0.000001 0.000001  0.519062 0.233440 1 64 1.000000
lowpoly_plastic
0  -3.540584 -11.326849 -1.183931  0.000000 0.228117 0.973634  0.519062 0.233440 1 64 1.000000
0  -3.268718 -11.326849 -1.183931  0.000000 0.228117 0.973634  0.519062 0.233440 1 64 1.000000
0  -3.261739 -10.626330 -1.348058  0.000000 0.228117 0.973634  0.519062 0.233440 1 64 1.000000
lowpoly_plastic
0  -3.103590 -11.339736 -2.067627  1.000000 0.000001 -0.000001  0.519062 0.233440 1 64 1.000000
0  -3.103590 -10.596752 -2.331458  1.000000 0.000001 -0.000001  0.519062 0.233440 1 64 1.000000
0  -3.103590 -10.825540 -1.723806  1.000000 0.000001 -0.000001  0.519062 0.233440 1 64 1.000000
lowpoly_plastic
0  -3.103590 -11.221101 -1.734630  1.000000 -0.000002 0.000001  0.519062 0.233440 1 64 1.000000
0  -3.103590 -10.825540 -1.723806  1.000000 -0.000002 0.000001  0.519062 0.233440 1 64 1.000000
0  -3.103590 -10.830965 -1.539192  1.000000 -0.000002 0.000001  0.519062 0.233440 1 64 1.000000
lowpoly_plastic
0  -3.103590 -11.167157 -3.676943  1.000000 -0.000000 -0.000000  0.519062 0.233440 1 64 1.000000
0  -3.103590 -9.721501 -4.069611  1.000000 -0.000000 -0.000000  0.519062 0.233440 1 64 1.000000
0  -3.103590 -9.982035 -3.325923  1.000000 -0.000000 -0.000000  0.519062 0.233440 1 64 1.000000
lowpoly_plastic
0  -3.103590 -11.919849 -3.011595  0.652766 -0.006892 -0.757529  0.519062 0.233440 1 64 1.000000
0  -3.103590 -12.330058 -3.007863  0.652766 -0.006892 -0.757529  0.519062 0.233440 1 64 1.000000
0  -3.384883 -12.294413 -3.250579  0.652766 -0.006892 -0.757529  0.519062 0.233440 1 64 1.000000
lowpoly_plastic
0  -3.302059 -11.575432 -3.313776  0.535687 -0.361042 -0.763340  0.519062 0.233440 1 64 1.000000
0  -3.103590 -11.338167 -3.286717  0.535687 -0.361042 -0.763340  0.519062 0.233440 1 64 1.000000
0  -3.103590 -11.919849 -3.011595  0.535687 -0.361042 -0.763340  0.519062 0.233440 1 64 1.000000
lowpoly_plastic
0  -3.103591 -10.766723 -5.237877  0.660959 -0.226883 -0.715302  0.519062 0.233440 1 64 1.000000
0  -3.302060 -11.079061 -5.322200  0.660959 -0.226883 -0.715302  0.519062 0.233440 1 64 1.000000
0  -3.302060 -10.369993 -5.547107  0.660959 -0.226883 -0.715302  0.519062 0.233440 1 64 1.000000
lowpoly_plastic
0  -3.103591 -10.885610 -5.065793  0.788984 -0.591469 -0.166339  0.519062 0.233440 1 64 1.000000
0  -3.302060 -11.137378 -5.113231  0.789444 -0.591231 -0.164998  0.519062 0.233440 1 64 1.000000
0  -3.302060 -11.079061 -5.322200  0.789085 -0.592014 -0.163906  0.519062 0.233440 1 64 1.000000
lowpoly_plastic
0  -3.302060 -11.158832 -4.984118  0.790476 -0.604209 -0.100392  0.519062 0.233440 1 64 1.000000
0  -3.302060 -11.137378 -5.113231  0.790476 -0.604209 -0.100392  0.519062 0.233440 1 64 1.000000
0  -3.103591 -10.885610 -5.065793  0.790476 -0.604209 -0.100392  0.519062 0.233440 1 64 1.000000
lowpoly_plastic
0  -3.103590 -11.229047 -4.713006  0.682125 -0.409936 -0.605523  0.519062 0.233440 1 64 1.000000
0  -3.302059 -11.452885 -4.785046  0.682125 -0.409936 -0.605523  0.519062 0.233440 1 64 1.000000
0  -3.302060 -11.158832 -4.984118  0.682125 -0.409936 -0.605523  0.519062 0.233440 1 64 1.000000
lowpoly_plastic
0  -3.103591 -11.153876 -4.378692  0.646854 -0.729853 0.221121  0.519062 0.233440 1 64 1.000000
0  -3.302059 -11.327440 -4.370986  0.646854 -0.729853 0.221121  0.519062 0.233440 1 64 1.000000
0  -3.302059 -11.452885 -4.785046  0.646854 -0.729853 0.221121  0.519062 0.233440 1 64 1.000000
lowpoly_plastic
0  -3.302059 -11.575865 -4.034423  0.562620 -0.665146 -0.490959  0.519062 0.233440 1 64 1.000000
0  -3.302059 -11.327440 -4.370986  0.562620 -0.665146 -0.490959  0.519062 0.233440 1 64 1.000000
0  -3.103591 -11.153876 -4.378692  0.562620 -0.665146 -0.490959  0.519062 0.233440 1 64 1.000000
lowpoly_plastic
0  -3.103590 -11.167157 -3.676943  0.731145 -0.614408 0.296530  0.519062 0.233440 1 64 1.000000
0  -3.302059 -11.398150 -3.666199  0.731145 -0.614408 0.296530  0.519062 0.233440 1 64 1.000000
0  -3.302059 -11.575865 -4.034423  0.731145 -0.614408 0.296530  0.519062 0.233440 1 64 1.000000
lowpoly_plastic
0  -3.302059 -11.575432 -3.313776  0.709401 -0.628480 -0.319003  0.519062 0.233440 1 64 1.000000
0  -3.302059 -11.398150 -3.666199  0.712493 -0.626840 -0.315319  0.519062 0.233440 1 64 1.000000
0  -3.103590 -11.167157 -3.676943  0.714121 -0.627375 -0.310535  0.519062 0.233440 1 64 1.000000
lowpoly_plastic
0  -3.268718 -11.326849 -1.183931  0.674015 0.268507 0.688192  0.519062 0.233440 1 64 1.000000
0  -3.103590 -11.329075 -1.344078  0.672208 0.270029 0.689363  0.519062 0.233440 1 64 1.000000
0  -3.103590 -10.830965 -1.539192  0.671478 0.267657 0.690998  0.519062 0.233440 1 64 1.000000
lowpoly_plastic
0  -3.261739 -10.402866 -2.246548  0.780561 0.580078 0.232883  0.519062 0.233440 1 64 1.000000
0  -3.261739 -10.614517 -1.719356  0.780561 0.580078 0.232883  0.519062 0.233440 1 64 1.000000
0  -3.103590 -10.825540 -1.723806  0.780561 0.580078 0.232883  0.519062 0.233440 1 64 1.000000
lowpoly_plastic
0  -3.103590 -9.982035 -3.325923  0.798300 0.543415 0.259646  0.519062 0.233440 1 64 1.000000
0  -3.261739 -9.761713 -3.300796  0.798300 0.543415 0.259646  0.519062 0.233440 1 64 1.000000
0  -3.261739 -9.984058 -2.835444  0.798300 0.543415 0.259646  0.519062 0.233440 1 64 1.000000
lowpoly_plastic
0  -3.103590 -10.223820 -2.857998  0.796679 0.492546 0.350288  0.519062 0.233440 1 64 1.000000
0  -3.261739 -9.984058 -2.835444  0.796679 0.492546 0.350288  0.519062 0.233440 1 64 1.000000
0  -3.261739 -10.402866 -2.246548  0.796679 0.492546 0.350288  0.519062 0.233440 1 64 1.000000
lowpoly_plastic
0  -3.261739 -10.614517 -1.719356  0.799650 0.600163 0.019092  0.519062 0.233440 1 64 1.000000
0  -3.261739 -10.626330 -1.348058  0.799650 0.600163 0.019092  0.519062 0.233440 1 64 1.000000
0  -3.103590 -10.830965 -1.539192  0.799650 0.600163 0.019092  0.519062 0.233440 1 64 1.000000
lowpoly_plastic
0  -3.103590 -9.721501 -4.069611  0.809992 0.554100 0.192058  0.519062 0.233440 1 64 1.000000
0  -3.261740 -9.509050 -4.015181  0.810000 0.552870 0.195538  0.519062 0.233440 1 64 1.000000
0  -3.261739 -9.761713 -3.300796  0.810000 0.552870 0.195538  0.519062 0.233440 1 64 1.000000
lowpoly_plastic
0  -3.261740 -9.387556 -4.476858  0.811099 0.565650 0.148856  0.519062 0.233440 1 64 1.000000
0  -3.261740 -9.509050 -4.015181  0.811099 0.565650 0.148856  0.519062 0.233440 1 64 1.000000
0  -3.103590 -9.721501 -4.069611  0.812973 0.563589 0.146435  0.519062 0.233440 1 64 1.000000
lowpoly_plastic
0  -3.103591 -9.451530 -5.027848  0.784024 0.601002 0.155252  0.519062 0.233440 1 64 1.000000
0  -3.261740 -9.272059 -4.923955  0.784024 0.601002 0.155252  0.519062 0.233440 1 64 1.000000
0  -3.261740 -9.387556 -4.476858  0.784024 0.601002 0.155252  0.519062 0.233440 1 64 1.000000
lowpoly_plastic
0  -3.103591 -9.338326 -5.211803  0.795047 0.516570 0.317891  0.519062 0.233440 1 64 1.000000
0  -3.261740 -9.116547 -5.176663  0.795047 0.516570 0.317891  0.519062 0.233440 1 64 1.000000
0  -3.261740 -9.272059 -4.923955  0.795047 0.516570 0.317891  0.519062 0.233440 1 64 1.000000
lowpoly_plastic
0  -3.261740 -9.189444 -5.356548  0.772428 0.588607 -0.238530  0.519062 0.233440 1 64 1.000000
0  -3.261740 -9.116547 -5.176663  0.772428 0.588607 -0.238530  0.519062 0.233440 1 64 1.000000
0  -3.103591 -9.338326 -5.211803  0.772428 0.588607 -0.238530  0.519062 0.233440 1 64 1.000000
lowpoly_plastic
0  -3.540585 -9.761713 -3.300796  0.000000 0.902296 0.431117  0.519062 0.233440 1 64 1.000000
0  -3.540585 -9.984058 -2.835444  0.001817 0.904176 0.427156  0.519062 0.233440 1 64 1.000000
0  -3.261739 -9.984058 -2.835444  -0.004695 0.902217 0.431257  0.519062 0.233440 1 64 1.000000
end
