version 1
nodes
0 "ValveBiped.Bip01_Spine4" -1
1 "ValveBiped.Bip01_L_Clavicle" 0
2 "ValveBiped.Bip01_L_UpperArm" 1
3 "ValveBiped.Bip01_L_Forearm" 2
4 "ValveBiped.Bip01_L_Hand" 3
5 "ValveBiped.Bip01_L_Finger4" 4
6 "ValveBiped.Bip01_L_Finger41" 5
7 "ValveBiped.Bip01_L_Finger42" 6
8 "ValveBiped.Bip01_L_Finger3" 4
9 "ValveBiped.Bip01_L_Finger31" 8
10 "ValveBiped.Bip01_L_Finger32" 9
11 "ValveBiped.Bip01_L_Finger2" 4
12 "ValveBiped.Bip01_L_Finger21" 11
13 "ValveBiped.Bip01_L_Finger22" 12
14 "ValveBiped.Bip01_L_Finger1" 4
15 "ValveBiped.Bip01_L_Finger11" 14
16 "ValveBiped.Bip01_L_Finger12" 15
17 "ValveBiped.Bip01_L_Finger0" 4
18 "ValveBiped.Bip01_L_Finger01" 17
19 "ValveBiped.Bip01_L_Finger02" 18
20 "ValveBiped.Bip01_L_Ulna" 3
21 "ValveBiped.Bip01_L_Wrist" 3
22 "rig_l_upperarm" 1
23 "rig_l_forearm" 22
24 "rig_d_l_forearm" 23
25 "rig_d_l_upperarm" 22
26 "ValveBiped.Bip01_R_Clavicle" 0
27 "ValveBiped.Bip01_R_UpperArm" 26
28 "ValveBiped.Bip01_R_Forearm" 27
29 "ValveBiped.Bip01_R_Hand" 28
30 "ValveBiped.Bip01_R_Finger4" 29
31 "ValveBiped.Bip01_R_Finger41" 30
32 "ValveBiped.Bip01_R_Finger42" 31
33 "ValveBiped.Bip01_R_Finger3" 29
34 "ValveBiped.Bip01_R_Finger31" 33
35 "ValveBiped.Bip01_R_Finger32" 34
36 "ValveBiped.Bip01_R_Finger2" 29
37 "ValveBiped.Bip01_R_Finger21" 36
38 "ValveBiped.Bip01_R_Finger22" 37
39 "ValveBiped.Bip01_R_Finger1" 29
40 "ValveBiped.Bip01_R_Finger11" 39
41 "ValveBiped.Bip01_R_Finger12" 40
42 "ValveBiped.Bip01_R_Finger0" 29
43 "ValveBiped.Bip01_R_Finger01" 42
44 "ValveBiped.Bip01_R_Finger02" 43
45 "ValveBiped.Bip01_R_Ulna" 28
46 "ValveBiped.Bip01_R_Wrist" 28
47 "rig_r_upperarm" 26
48 "rig_r_forearm" 47
49 "rig_d_r_forearm" 48
50 "rig_d_r_upperarm" 47
51 "rig_r_hand" -1
52 "rig_d_r_hand" 51
53 "rig_d_r_wrist" 52
54 "rig_l_hand" -1
55 "rig_d_l_hand" 54
56 "rig_d_l_wrist" 54
57 "rig_l_pole" -1
58 "rig_r_pole" -1
59 "rig_l_clavicle" -1
60 "rig_d_l_clavicle" 59
61 "rig_r_clavicle" -1
62 "rig_d_r_clavicle" 61
63 "Camera" -1
64 "body" -1
65 "hammer" 64
66 "barrel" 64
67 "cylinderlock" 64
68 "cylinder" 67
69 "cylinderpush" 68
70 "trigger" 64
71 "cylrel" 64
72 "bullet1" -1
73 "bullet2" -1
74 "bullet3" -1
75 "bullet4" -1
76 "bullet5" -1
77 "bullet6" -1
78 "speedloader" -1
end
skeleton
time 0
0  0.000006 0.000000 0.000000  -1.570800 -1.391899 -1.570792
1  2.033349 1.000767 1.937657  -1.544956 -1.855077 -0.198630
2  6.027515 -0.000324 0.000201  -1.583284 0.045954 -0.585171
3  11.692119 0.000650 -0.000737  -0.000012 0.000001 -0.056696
4  11.481224 0.000160 -0.000727  1.576889 -0.106574 0.041971
5  3.859504 -0.142825 -1.192079  -0.468169 0.151546 -0.880257
6  1.312590 0.000009 0.000007  -0.000027 0.000044 -0.439740
7  0.729357 0.000054 0.000049  0.000017 0.000021 -0.244317
8  3.942141 0.046330 -0.431543  -0.151817 0.073216 -0.811086
9  1.539113 0.000082 0.000004  -0.000007 0.000021 -0.247842
10  1.196331 0.000148 0.000029  0.000011 0.000018 -0.430770
11  3.883512 -0.047212 0.431351  0.085894 0.021858 -0.587909
12  1.719573 -0.000030 0.000017  0.000015 0.005518 -0.366533
13  1.209181 0.000090 0.000012  0.000004 0.003091 -0.216438
14  3.859679 -0.138420 1.332380  0.354466 -0.042717 -0.531784
15  1.719446 -0.000022 0.000029  0.000028 0.004066 -0.363025
16  1.099675 0.000049 0.000005  0.000003 0.002578 -0.244381
17  0.806011 -0.349039 1.321247  -1.222694 -0.679188 -0.788867
18  1.789819 -0.000005 -0.000017  0.000011 -0.000024 0.228523
19  1.207014 -0.000014 -0.000043  0.000002 -0.000008 0.362856
20  5.740638 0.000388 -0.000698  0.003035 0.000003 0.000063
21  11.481259 0.000207 -0.000799  0.004953 0.000188 -0.001556
22  6.027525 -0.000330 0.000200  0.059595 -2.453119 -2.193920
23  0.000000 11.692101 -0.000007  -0.043320 -0.000838 -0.036616
24  0.000003 0.000010 0.000000  0.868996 -0.000031 1.570739
25  -0.000001 -0.000012 -0.000001  0.868960 0.000002 1.570712
26  2.033355 1.000772 -1.937609  1.473120 1.855075 -0.198639
27  6.027509 -0.000259 -0.000229  1.637176 -0.060228 -0.592196
28  11.691992 0.000163 0.000858  -0.000050 -0.000001 -0.007067
29  11.539204 0.000316 0.000816  -1.562466 0.108529 -0.061253
30  3.859438 -0.132760 1.193065  0.466290 -0.158048 -0.878823
31  1.312559 0.000023 0.000001  0.000013 -0.000043 -0.439709
32  0.729345 0.000065 -0.000027  -0.000023 -0.000019 -0.244286
33  3.942046 0.050138 0.431000  0.150091 -0.079181 -0.810189
34  1.539099 0.000006 0.000000  0.000009 -0.000007 -0.247824
35  1.196302 0.000075 -0.000004  -0.000007 -0.000009 -0.430781
36  3.883415 -0.050474 -0.431084  -0.085915 -0.026392 -0.587660
37  1.719564 -0.000085 -0.000004  -0.000006 -0.007962 -0.366486
38  1.209197 0.000034 0.000011  0.000002 -0.004461 -0.216413
39  3.859588 -0.149084 -1.331321  -0.354445 0.038578 -0.531955
40  1.719413 -0.000099 -0.000036  -0.000030 -0.006584 -0.363030
41  1.099674 0.000025 0.000006  0.000004 -0.004188 -0.244347
42  0.805982 -0.359850 -1.318338  1.221444 0.673631 -0.793558
43  1.789779 -0.000010 -0.000040  -0.000028 0.000031 0.228553
44  1.206995 -0.000006 0.000007  -0.000017 0.000020 0.362910
45  5.740573 0.000079 0.000723  0.026990 -0.000014 0.000028
46  11.492787 0.000137 0.000908  0.000504 0.000315 -0.022541
47  6.027515 -0.000273 -0.000228  0.074799 -0.634128 -2.207435
48  -0.000001 11.691977 -0.000007  -0.005397 0.000036 0.004562
49  0.000002 -0.000001 0.000001  2.272571 -0.000036 1.570860
50  -0.000008 -0.000014 0.000004  2.272645 -0.000036 1.570861
51  -22.620094 0.844507 -17.554111  -1.605366 2.379717 -0.041994
52  -0.000000 0.000001 -0.000000  0.008153 -0.000259 0.000009
53  0.000001 -0.000001 0.000000  1.565115 0.043565 -0.106862
54  22.676517 -0.984221 -17.554199  1.605712 0.761853 0.042358
55  0.000001 -0.000003 -0.000000  0.000000 -0.000001 -0.000002
56  0.000032 0.000027 0.000001  -1.571901 -0.044449 -0.106509
57  15.265023 8.339654 -8.787539  1.570796 -0.000000 0.000000
58  -15.265000 8.339654 -8.787539  1.570796 -0.000000 0.000000
59  1.941978 -1.346989 1.821586  1.570796 -0.000000 0.000000
60  -0.004311 0.001230 -0.000371  0.006898 -0.005534 -0.284229
61  -1.937603 -1.346625 1.822824  1.570796 -0.000000 0.000000
62  0.000000 0.000000 0.000000  -0.078727 -3.136056 0.284226
63  0.000000 0.000000 0.000000  1.570796 -0.000000 0.000000
64  -3.534368 -10.111034 -2.851932  1.570796 -0.000000 0.000000
65  -0.143794 1.243191 1.790707  0.000000 -0.000000 0.000000
66  0.000001 2.431489 11.900957  0.000000 -0.000000 0.000000
67  0.151288 0.906791 4.692154  0.000000 -0.000000 0.000000
68  -0.151288 1.013638 -0.467878  0.000000 -0.000000 0.000000
69  0.000000 -0.000000 2.081793  0.000000 -0.000000 0.000000
70  0.000000 0.884824 2.687938  0.000000 -0.000000 0.000000
71  0.299800 1.920429 2.128872  0.000000 -0.000000 0.000000
72  -3.535433 -13.118125 -0.421628  1.570796 -0.000000 0.000000
73  -3.099609 -13.118127 -0.679613  1.570796 -0.000000 0.000000
74  -3.102738 -13.118127 -1.178184  1.570796 -0.000000 0.000000
75  -3.534845 -13.118125 -1.432538  1.570796 -0.000000 0.000000
76  -3.968438 -13.118125 -1.178268  1.570796 -0.000000 0.000000
77  -3.970815 -13.118125 -0.680112  1.570796 -0.000000 0.000000
78  -1.363209 -12.825721 -0.927084  1.570796 -0.000000 0.000000
end
triangles
lowpoly_metal
0  -3.400521 -12.154449 -0.340384  -0.000000 -0.499994 0.866029  0.005487 0.735630 1 65 1.000000
0  -3.680648 -12.201913 -0.367787  -0.000000 -0.499994 0.866029  0.005487 0.735630 1 65 1.000000
0  -3.400521 -12.201913 -0.367787  -0.000000 -0.499994 0.866029  0.005487 0.735630 1 65 1.000000
lowpoly_metal
0  -3.400521 -12.201913 -0.367787  0.000000 -1.000000 0.000000  0.005487 0.735630 1 65 1.000000
0  -3.680648 -12.201913 -0.422593  0.000000 -1.000000 0.000000  0.005487 0.735630 1 65 1.000000
0  -3.400521 -12.201913 -0.422593  0.000000 -1.000000 0.000000  0.005487 0.735630 1 65 1.000000
lowpoly_metal
0  -3.680648 -12.201913 -0.422593  0.000001 -0.499995 -0.866028  0.005487 0.735630 1 65 1.000000
0  -3.400521 -12.154449 -0.449996  0.000001 -0.499995 -0.866028  0.005487 0.735630 1 65 1.000000
0  -3.400521 -12.201913 -0.422593  0.000001 -0.499995 -0.866028  0.005487 0.735630 1 65 1.000000
lowpoly_metal
0  -3.680648 -12.154449 -0.449996  0.000000 0.500009 -0.866020  0.005487 0.735630 1 65 1.000000
0  -3.400521 -12.106986 -0.422593  0.000000 0.500009 -0.866020  0.005487 0.735630 1 65 1.000000
0  -3.400521 -12.154449 -0.449996  0.000000 0.500009 -0.866020  0.005487 0.735630 1 65 1.000000
lowpoly_metal
0  -3.680648 -12.154449 -0.340384  -1.000000 -0.000009 0.000002  0.005487 0.735630 1 65 1.000000
0  -3.680648 -12.154449 -0.449996  -1.000000 -0.000009 0.000002  0.005487 0.735630 1 65 1.000000
0  -3.680648 -12.201913 -0.422593  -1.000000 -0.000009 0.000002  0.005487 0.735630 1 65 1.000000
lowpoly_metal
0  -3.680648 -12.106986 -0.422593  0.000000 1.000000 0.000000  0.005487 0.735630 1 65 1.000000
0  -3.400521 -12.106986 -0.367787  0.000000 1.000000 0.000000  0.005487 0.735630 1 65 1.000000
0  -3.400521 -12.106986 -0.422593  0.000000 1.000000 0.000000  0.005487 0.735630 1 65 1.000000
lowpoly_metal
0  -3.680648 -12.106986 -0.367787  -0.000000 0.499994 0.866029  0.005487 0.735630 1 65 1.000000
0  -3.400521 -12.154449 -0.340384  -0.000000 0.499994 0.866029  0.005487 0.735630 1 65 1.000000
0  -3.400521 -12.106986 -0.367787  -0.000000 0.499994 0.866029  0.005487 0.735630 1 65 1.000000
lowpoly_metal
0  -3.400521 -12.201913 -0.367787  1.000000 0.000000 0.000000  0.005487 0.735630 1 65 1.000000
0  -3.400521 -12.154449 -0.449996  1.000000 0.000000 0.000000  0.005487 0.735630 1 65 1.000000
0  -3.400521 -12.154449 -0.340384  1.000000 0.000000 0.000000  0.005487 0.735630 1 65 1.000000
lowpoly_metal
0  -3.671948 -12.024554 -0.124277  -0.000000 0.978282 0.207277  0.005487 0.735630 1 65 1.000000
0  -3.409222 -11.977188 -0.347842  -0.000000 0.978282 0.207277  0.005487 0.735630 1 65 1.000000
0  -3.671948 -11.977188 -0.347842  -0.000000 0.978282 0.207277  0.005487 0.735630 1 65 1.000000
lowpoly_metal
0  -3.409222 -11.977188 -0.347842  1.000000 0.000001 0.000000  0.005487 0.735630 1 65 1.000000
0  -3.409222 -12.307573 -0.191597  1.000000 0.000001 0.000000  0.005487 0.735630 1 65 1.000000
0  -3.409222 -12.293192 -0.478689  1.000000 0.000001 0.000000  0.005487 0.735630 1 65 1.000000
lowpoly_metal
0  -3.409222 -12.307573 -0.191597  0.000000 -0.998748 -0.050032  0.005487 0.735630 1 65 1.000000
0  -3.671948 -12.293192 -0.478689  0.000000 -0.998748 -0.050032  0.005487 0.735630 1 65 1.000000
0  -3.409222 -12.293192 -0.478689  0.000000 -0.998748 -0.050032  0.005487 0.735630 1 65 1.000000
lowpoly_metal
0  -3.671948 -12.307573 -0.191598  -1.000000 0.000000 0.000000  0.005487 0.735630 1 65 1.000000
0  -3.671948 -11.977188 -0.347842  -1.000000 0.000000 0.000000  0.005487 0.735630 1 65 1.000000
0  -3.671948 -12.293192 -0.478689  -1.000000 0.000000 0.000000  0.005487 0.735630 1 65 1.000000
lowpoly_metal
0  -3.409222 -12.199958 -0.482235  1.000000 -0.000002 -0.000002  0.005487 0.735630 1 65 1.000000
0  -3.409222 -11.841706 -0.492368  1.000000 -0.000002 -0.000002  0.005487 0.735630 1 65 1.000000
0  -3.409222 -11.945294 -0.381865  1.000000 -0.000002 -0.000002  0.005487 0.735630 1 65 1.000000
lowpoly_metal
0  -3.409222 -12.024554 -0.124278  -0.000000 -0.231405 0.972857  0.005487 0.735630 1 65 1.000000
0  -3.671948 -12.307573 -0.191598  -0.000000 -0.231405 0.972857  0.005487 0.735630 1 65 1.000000
0  -3.409222 -12.307573 -0.191597  -0.000000 -0.231405 0.972857  0.005487 0.735630 1 65 1.000000
lowpoly_metal
0  -3.671948 -11.841706 -0.492368  -1.000000 0.000000 0.000000  0.005487 0.735630 1 65 1.000000
0  -3.671948 -11.684988 -0.772370  -1.000000 0.000000 0.000000  0.005487 0.735630 1 65 1.000000
0  -3.671948 -12.123390 -0.780902  -1.000000 0.000000 0.000000  0.005487 0.735630 1 65 1.000000
lowpoly_metal
0  -3.409222 -11.945294 -0.381865  0.000000 0.729562 0.683914  0.005487 0.735630 1 65 1.000000
0  -3.671948 -11.841706 -0.492368  0.000000 0.729562 0.683914  0.005487 0.735630 1 65 1.000000
0  -3.671948 -11.945294 -0.381865  0.000000 0.729562 0.683914  0.005487 0.735630 1 65 1.000000
lowpoly_metal
0  -3.671948 -12.199958 -0.482235  0.000000 -0.968676 -0.248328  0.005487 0.735630 1 65 1.000000
0  -3.409222 -12.123390 -0.780902  0.000000 -0.968676 -0.248328  0.005487 0.735630 1 65 1.000000
0  -3.409222 -12.199958 -0.482235  0.000000 -0.968676 -0.248328  0.005487 0.735630 1 65 1.000000
lowpoly_metal
0  -3.671948 -12.199958 -0.482235  -1.000000 0.000000 0.000000  0.005487 0.735630 1 65 1.000000
0  -3.671948 -11.841706 -0.492368  -1.000000 0.000000 0.000000  0.005487 0.735630 1 65 1.000000
0  -3.671948 -12.123390 -0.780902  -1.000000 0.000000 0.000000  0.005487 0.735630 1 65 1.000000
lowpoly_metal
0  -3.409222 -11.684988 -0.772370  0.000000 0.909395 -0.415934  0.005487 0.735630 1 65 1.000000
0  -3.671948 -11.589982 -0.564647  0.000000 0.909395 -0.415934  0.005487 0.735630 1 65 1.000000
0  -3.409222 -11.589982 -0.564647  0.000000 0.909395 -0.415934  0.005487 0.735630 1 65 1.000000
lowpoly_metal
0  -3.409222 -11.841706 -0.492368  1.000000 0.000000 0.000001  0.005487 0.735630 1 65 1.000000
0  -3.409222 -11.684988 -0.772370  1.000000 0.000000 0.000001  0.005487 0.735630 1 65 1.000000
0  -3.409222 -11.723988 -0.523975  1.000000 0.000000 0.000001  0.005487 0.735630 1 65 1.000000
lowpoly_metal
0  -3.409222 -11.684988 -0.772370  1.000000 0.000000 0.000001  0.005487 0.735630 1 65 1.000000
0  -3.409221 -12.090265 -0.924608  1.000000 0.000000 0.000001  0.005487 0.735630 1 65 1.000000
0  -3.409222 -11.512186 -0.830152  1.000000 0.000000 0.000001  0.005487 0.735630 1 65 1.000000
lowpoly_metal
0  -3.671948 -11.841706 -0.492368  0.000000 0.259314 0.965793  0.005487 0.735630 1 65 1.000000
0  -3.409222 -11.723988 -0.523975  0.000000 0.259314 0.965793  0.005487 0.735630 1 65 1.000000
0  -3.671948 -11.723988 -0.523975  0.000000 0.259314 0.965793  0.005487 0.735630 1 65 1.000000
lowpoly_metal
0  -3.671948 -11.649343 -0.454707  -0.788209 -0.541515 -0.292384  0.005487 0.735630 1 65 1.000000
0  -3.749954 -11.509345 -0.503704  -0.788209 -0.541515 -0.292384  0.005487 0.735630 1 65 1.000000
0  -3.671948 -11.589982 -0.564647  -0.788209 -0.541515 -0.292384  0.005487 0.735630 1 65 1.000000
lowpoly_metal
0  -3.409222 -11.723988 -0.523975  -0.000000 -0.680207 0.733020  0.005487 0.735630 1 65 1.000000
0  -3.671948 -11.649343 -0.454707  -0.000000 -0.680207 0.733020  0.005487 0.735630 1 65 1.000000
0  -3.671948 -11.723988 -0.523975  -0.000000 -0.680207 0.733020  0.005487 0.735630 1 65 1.000000
lowpoly_metal
0  -3.671948 -11.723988 -0.523975  -1.000000 -0.000004 0.000000  0.005487 0.735630 1 65 1.000000
0  -3.671948 -11.589982 -0.564647  -1.000000 -0.000004 0.000000  0.005487 0.735630 1 65 1.000000
0  -3.671948 -11.684988 -0.772370  -1.000000 -0.000004 0.000000  0.005487 0.735630 1 65 1.000000
lowpoly_metal
0  -3.409222 -11.723988 -0.523975  1.000000 0.000000 -0.000003  0.005487 0.735630 1 65 1.000000
0  -3.409222 -11.589982 -0.564647  1.000000 0.000000 -0.000003  0.005487 0.735630 1 65 1.000000
0  -3.409222 -11.649343 -0.454707  1.000000 0.000000 -0.000003  0.005487 0.735630 1 65 1.000000
lowpoly_metal
0  -3.331216 -11.509345 -0.503704  1.000000 -0.000001 0.000000  0.005487 0.735630 1 65 1.000000
0  -3.331216 -11.425704 -0.305067  1.000000 -0.000001 0.000000  0.005487 0.735630 1 65 1.000000
0  -3.331216 -11.617165 -0.355486  1.000000 -0.000001 0.000000  0.005487 0.735630 1 65 1.000000
lowpoly_metal
0  -3.409222 -11.649343 -0.454707  0.734335 -0.548919 -0.399298  0.005487 0.735630 1 65 1.000000
0  -3.331216 -11.509345 -0.503704  0.734335 -0.548919 -0.399298  0.005487 0.735630 1 65 1.000000
0  -3.331216 -11.617165 -0.355486  0.734335 -0.548919 -0.399298  0.005487 0.735630 1 65 1.000000
lowpoly_metal
0  -3.671948 -11.589982 -0.564647  0.000001 0.602945 -0.797783  0.005487 0.735630 1 65 1.000000
0  -3.331216 -11.509345 -0.503704  0.000001 0.602945 -0.797783  0.005487 0.735630 1 65 1.000000
0  -3.409222 -11.589982 -0.564647  0.000001 0.602945 -0.797783  0.005487 0.735630 1 65 1.000000
lowpoly_metal
0  -3.409222 -11.649343 -0.454707  -0.000000 -0.951227 0.308493  0.005487 0.735630 1 65 1.000000
0  -3.749954 -11.617165 -0.355486  -0.000000 -0.951227 0.308493  0.005487 0.735630 1 65 1.000000
0  -3.671948 -11.649343 -0.454707  -0.000000 -0.951227 0.308493  0.005487 0.735630 1 65 1.000000
lowpoly_metal
0  -3.671948 -11.977188 -0.347842  -1.000000 -0.000001 0.000000  0.005487 0.735630 1 65 1.000000
0  -3.671948 -12.199958 -0.482235  -1.000000 -0.000001 0.000000  0.005487 0.735630 1 65 1.000000
0  -3.671948 -12.293192 -0.478689  -1.000000 -0.000001 0.000000  0.005487 0.735630 1 65 1.000000
lowpoly_metal
0  -3.671948 -12.293192 -0.478689  0.000000 -0.038006 -0.999278  0.005487 0.735630 1 65 1.000000
0  -3.409222 -12.199958 -0.482235  0.000000 -0.038006 -0.999278  0.005487 0.735630 1 65 1.000000
0  -3.409222 -12.293192 -0.478689  0.000000 -0.038006 -0.999278  0.005487 0.735630 1 65 1.000000
lowpoly_metal
0  -3.409222 -11.977188 -0.347842  -0.000000 0.729566 0.683911  0.005487 0.735630 1 65 1.000000
0  -3.671948 -11.945294 -0.381865  -0.000000 0.729566 0.683911  0.005487 0.735630 1 65 1.000000
0  -3.671948 -11.977188 -0.347842  -0.000000 0.729566 0.683911  0.005487 0.735630 1 65 1.000000
lowpoly_metal
0  -3.409222 -11.977188 -0.347842  1.000000 0.000000 0.000000  0.005487 0.735630 1 65 1.000000
0  -3.409222 -12.199958 -0.482235  1.000000 0.000000 0.000000  0.005487 0.735630 1 65 1.000000
0  -3.409222 -11.945294 -0.381865  1.000000 0.000000 0.000000  0.005487 0.735630 1 65 1.000000
lowpoly_metal
0  -3.409222 -11.512186 -0.830152  1.000000 -0.000000 0.000000  0.005487 0.735630 1 65 1.000000
0  -3.409221 -12.090265 -0.924608  1.000000 -0.000000 0.000000  0.005487 0.735630 1 65 1.000000
0  -3.409222 -11.336770 -0.958475  1.000000 -0.000000 0.000000  0.005487 0.735630 1 65 1.000000
lowpoly_metal
0  -3.671948 -11.684988 -0.772370  0.000000 0.317123 0.948385  0.005487 0.735630 1 65 1.000000
0  -3.409222 -11.512186 -0.830152  0.000000 0.317123 0.948385  0.005487 0.735630 1 65 1.000000
0  -3.671948 -11.512186 -0.830152  0.000000 0.317123 0.948385  0.005487 0.735630 1 65 1.000000
lowpoly_metal
0  -3.671948 -12.123390 -0.780902  0.000000 -0.974447 -0.224615  0.005487 0.735630 1 65 1.000000
0  -3.409221 -12.090265 -0.924608  0.000000 -0.974447 -0.224615  0.005487 0.735630 1 65 1.000000
0  -3.409222 -12.123390 -0.780902  0.000000 -0.974447 -0.224615  0.005487 0.735630 1 65 1.000000
lowpoly_metal
0  -3.671948 -11.684988 -0.772370  -1.000000 0.000000 -0.000002  0.005487 0.735630 1 65 1.000000
0  -3.671948 -12.090265 -0.924608  -1.000000 0.000000 -0.000002  0.005487 0.735630 1 65 1.000000
0  -3.671948 -12.123390 -0.780902  -1.000000 0.000000 -0.000002  0.005487 0.735630 1 65 1.000000
lowpoly_metal
0  -3.671948 -11.336770 -0.958475  -1.000000 0.000001 0.000001  0.005487 0.735630 1 65 1.000000
0  -3.671948 -12.013814 -1.283146  -1.000000 0.000001 0.000001  0.005487 0.735630 1 65 1.000000
0  -3.671948 -12.090265 -0.924608  -1.000000 0.000001 0.000001  0.005487 0.735630 1 65 1.000000
lowpoly_metal
0  -3.671948 -11.512186 -0.830152  -0.000001 0.590414 0.807101  0.005487 0.735630 1 65 1.000000
0  -3.409222 -11.336770 -0.958475  -0.000001 0.590414 0.807101  0.005487 0.735630 1 65 1.000000
0  -3.671948 -11.336770 -0.958475  -0.000001 0.590414 0.807101  0.005487 0.735630 1 65 1.000000
lowpoly_metal
0  -3.671948 -12.013814 -1.283146  -1.000000 -0.000002 0.000001  0.005487 0.735630 1 65 1.000000
0  -3.671948 -12.224241 -1.110885  -1.000000 -0.000002 0.000001  0.005487 0.735630 1 65 1.000000
0  -3.671948 -12.090265 -0.924608  -1.000000 -0.000002 0.000001  0.005487 0.735630 1 65 1.000000
lowpoly_metal
0  -3.671948 -12.013814 -1.283146  -1.000000 -0.000000 -0.000001  0.005487 0.735630 1 65 1.000000
0  -3.671948 -11.355919 -1.371709  -1.000000 -0.000000 -0.000001  0.005487 0.735630 1 65 1.000000
0  -3.671948 -12.147790 -1.469422  -1.000000 -0.000000 -0.000001  0.005487 0.735630 1 65 1.000000
lowpoly_metal
0  -3.409222 -11.336770 -0.958475  1.000000 0.000000 -0.000001  0.005487 0.735630 1 65 1.000000
0  -3.409222 -12.013814 -1.283146  1.000000 0.000000 -0.000001  0.005487 0.735630 1 65 1.000000
0  -3.409222 -11.221943 -1.185432  1.000000 0.000000 -0.000001  0.005487 0.735630 1 65 1.000000
lowpoly_metal
0  -3.671948 -11.336770 -0.958475  -0.000000 0.892300 0.451444  0.005487 0.735630 1 65 1.000000
0  -3.409222 -11.221943 -1.185432  -0.000000 0.892300 0.451444  0.005487 0.735630 1 65 1.000000
0  -3.671948 -11.221943 -1.185432  -0.000000 0.892300 0.451444  0.005487 0.735630 1 65 1.000000
lowpoly_metal
0  -3.671948 -12.147790 -1.469422  0.000000 0.122467 -0.992473  0.005487 0.735630 1 65 1.000000
0  -3.409222 -11.355919 -1.371708  0.000000 0.122467 -0.992473  0.005487 0.735630 1 65 1.000000
0  -3.409221 -12.147790 -1.469422  0.000000 0.122467 -0.992473  0.005487 0.735630 1 65 1.000000
lowpoly_metal
0  -3.409221 -12.224241 -1.110884  0.000000 -0.978013 -0.208543  0.005487 0.735630 1 65 1.000000
0  -3.671948 -12.147790 -1.469422  0.000000 -0.978013 -0.208543  0.005487 0.735630 1 65 1.000000
0  -3.409221 -12.147790 -1.469422  0.000000 -0.978013 -0.208543  0.005487 0.735630 1 65 1.000000
lowpoly_metal
0  -3.409222 -12.013814 -1.283146  1.000000 0.000000 0.000001  0.005487 0.735630 1 65 1.000000
0  -3.409222 -11.355919 -1.371708  1.000000 0.000000 0.000001  0.005487 0.735630 1 65 1.000000
0  -3.409222 -11.221943 -1.185432  1.000000 0.000000 0.000001  0.005487 0.735630 1 65 1.000000
lowpoly_metal
0  -3.409222 -11.221943 -1.185432  0.000000 0.811832 -0.583891  0.005487 0.735630 1 65 1.000000
0  -3.671948 -11.355919 -1.371709  0.000000 0.811832 -0.583891  0.005487 0.735630 1 65 1.000000
0  -3.671948 -11.221943 -1.185432  0.000000 0.811832 -0.583891  0.005487 0.735630 1 65 1.000000
lowpoly_metal
0  -3.409222 -12.013814 -1.283146  1.000000 0.000004 0.000000  0.005487 0.735630 1 65 1.000000
0  -3.409221 -12.224241 -1.110884  1.000000 0.000004 0.000000  0.005487 0.735630 1 65 1.000000
0  -3.409221 -12.147790 -1.469422  1.000000 0.000004 0.000000  0.005487 0.735630 1 65 1.000000
lowpoly_metal
0  -3.671948 -12.090265 -0.924608  -0.000000 -0.811829 0.583896  0.005487 0.735630 1 65 1.000000
0  -3.409221 -12.224241 -1.110884  -0.000000 -0.811829 0.583896  0.005487 0.735630 1 65 1.000000
0  -3.409221 -12.090265 -0.924608  -0.000000 -0.811829 0.583896  0.005487 0.735630 1 65 1.000000
lowpoly_metal
0  -3.749954 -11.425704 -0.305067  0.000000 -0.025654 0.999671  0.005487 0.735630 1 65 1.000000
0  -3.331216 -11.098579 -0.296672  0.000000 -0.025654 0.999671  0.005487 0.735630 1 65 1.000000
0  -3.749954 -11.098579 -0.296672  0.000000 -0.025654 0.999671  0.005487 0.735630 1 65 1.000000
lowpoly_metal
0  -3.331216 -11.509345 -0.503704  0.000001 0.522325 -0.852746  0.005487 0.735630 1 65 1.000000
0  -3.749954 -11.399329 -0.436318  0.000001 0.522325 -0.852746  0.005487 0.735630 1 65 1.000000
0  -3.331216 -11.399329 -0.436318  0.000001 0.522325 -0.852746  0.005487 0.735630 1 65 1.000000
lowpoly_metal
0  -3.749954 -11.617165 -0.355486  -0.000000 -0.254653 0.967033  0.005487 0.735630 1 65 1.000000
0  -3.331216 -11.425704 -0.305067  -0.000000 -0.254653 0.967033  0.005487 0.735630 1 65 1.000000
0  -3.749954 -11.425704 -0.305067  -0.000000 -0.254653 0.967033  0.005487 0.735630 1 65 1.000000
lowpoly_metal
0  -3.749954 -11.509345 -0.503704  -1.000000 0.000004 0.000000  0.005487 0.735630 1 65 1.000000
0  -3.749954 -11.425704 -0.305067  -1.000000 0.000004 0.000000  0.005487 0.735630 1 65 1.000000
0  -3.749954 -11.399329 -0.436318  -1.000000 0.000004 0.000000  0.005487 0.735630 1 65 1.000000
lowpoly_metal
0  -3.331216 -11.097494 -0.406535  0.000000 0.999951 0.009867  0.005487 0.735630 1 65 1.000000
0  -3.749954 -11.098579 -0.296672  0.000000 0.999951 0.009867  0.005487 0.735630 1 65 1.000000
0  -3.331216 -11.098579 -0.296672  0.000000 0.999951 0.009867  0.005487 0.735630 1 65 1.000000
lowpoly_metal
0  -3.749954 -11.399329 -0.436318  -1.000000 0.000000 -0.000000  0.005487 0.735630 1 65 1.000000
0  -3.749954 -11.098579 -0.296672  -1.000000 0.000000 -0.000000  0.005487 0.735630 1 65 1.000000
0  -3.749954 -11.097494 -0.406535  -1.000000 0.000000 -0.000000  0.005487 0.735630 1 65 1.000000
lowpoly_metal
0  -3.331216 -11.399329 -0.436318  1.000000 0.000001 0.000000  0.005487 0.735630 1 65 1.000000
0  -3.331216 -11.098579 -0.296672  1.000000 0.000001 0.000000  0.005487 0.735630 1 65 1.000000
0  -3.331216 -11.425704 -0.305067  1.000000 0.000001 0.000000  0.005487 0.735630 1 65 1.000000
lowpoly_metal
0  -3.331216 -11.399329 -0.436318  -0.000000 0.098195 -0.995167  0.005487 0.735630 1 65 1.000000
0  -3.749954 -11.097494 -0.406535  -0.000000 0.098195 -0.995167  0.005487 0.735630 1 65 1.000000
0  -3.331216 -11.097494 -0.406535  -0.000000 0.098195 -0.995167  0.005487 0.735630 1 65 1.000000
lowpoly_metal
0  -3.700321 -12.563416 -1.964442  0.000000 0.997040 -0.076889  0.005487 0.735630 1 70 1.000000
0  -3.380848 -12.588424 -2.288709  0.000000 0.997040 -0.076889  0.005487 0.735630 1 70 1.000000
0  -3.700321 -12.588424 -2.288709  0.000000 0.997040 -0.076889  0.005487 0.735630 1 70 1.000000
lowpoly_metal
0  -3.700321 -13.275522 -1.944081  -1.000000 0.000000 -0.000001  0.005487 0.735630 1 70 1.000000
0  -3.700321 -12.563416 -1.964442  -1.000000 0.000000 -0.000001  0.005487 0.735630 1 70 1.000000
0  -3.700321 -12.588424 -2.288709  -1.000000 0.000000 -0.000001  0.005487 0.735630 1 70 1.000000
lowpoly_metal
0  -3.700321 -13.275522 -1.944081  -1.000000 0.000000 0.000000  0.005487 0.735630 1 70 1.000000
0  -3.700321 -12.720299 -2.430105  -1.000000 0.000000 0.000000  0.005487 0.735630 1 70 1.000000
0  -3.700321 -13.342816 -2.295722  -1.000000 0.000000 0.000000  0.005487 0.735630 1 70 1.000000
lowpoly_metal
0  -3.380848 -13.275522 -1.944081  -0.000001 0.028581 0.999592  0.005487 0.735630 1 70 1.000000
0  -3.700321 -12.563416 -1.964442  -0.000001 0.028581 0.999592  0.005487 0.735630 1 70 1.000000
0  -3.700321 -13.275522 -1.944081  -0.000001 0.028581 0.999592  0.005487 0.735630 1 70 1.000000
lowpoly_metal
0  -3.700321 -13.342816 -2.295722  -1.000000 -0.000000 0.000000  0.005487 0.735630 1 70 1.000000
0  -3.700321 -12.952416 -2.487116  -1.000000 -0.000000 0.000000  0.005487 0.735630 1 70 1.000000
0  -3.700321 -13.204361 -2.478971  -1.000000 -0.000000 0.000000  0.005487 0.735630 1 70 1.000000
lowpoly_metal
0  -3.380848 -13.275522 -1.944081  1.000000 0.000000 0.000000  0.005487 0.735630 1 70 1.000000
0  -3.380848 -12.720299 -2.430105  1.000000 0.000000 0.000000  0.005487 0.735630 1 70 1.000000
0  -3.380848 -12.588424 -2.288709  1.000000 0.000000 0.000000  0.005487 0.735630 1 70 1.000000
lowpoly_metal
0  -3.380848 -12.588424 -2.288709  0.000000 0.731291 -0.682066  0.005487 0.735630 1 70 1.000000
0  -3.700321 -12.720299 -2.430105  0.000000 0.731291 -0.682066  0.005487 0.735630 1 70 1.000000
0  -3.700321 -12.588424 -2.288709  0.000000 0.731291 -0.682066  0.005487 0.735630 1 70 1.000000
lowpoly_metal
0  -3.380848 -13.275522 -1.944081  -0.000001 -0.982176 0.187961  0.005487 0.735630 1 70 1.000000
0  -3.700321 -13.342816 -2.295722  -0.000001 -0.982176 0.187961  0.005487 0.735630 1 70 1.000000
0  -3.380848 -13.342816 -2.295721  -0.000001 -0.982176 0.187961  0.005487 0.735630 1 70 1.000000
lowpoly_metal
0  -3.380848 -12.952416 -2.487116  1.000000 0.000004 0.000001  0.005487 0.735630 1 70 1.000000
0  -3.380847 -13.164984 -2.727921  1.000000 0.000004 0.000001  0.005487 0.735630 1 70 1.000000
0  -3.380848 -12.974975 -2.783167  1.000000 0.000004 0.000001  0.005487 0.735630 1 70 1.000000
lowpoly_metal
0  -3.380848 -13.342816 -2.295721  1.000000 -0.000002 -0.000002  0.005487 0.735630 1 70 1.000000
0  -3.380848 -12.952416 -2.487116  1.000000 -0.000002 -0.000002  0.005487 0.735630 1 70 1.000000
0  -3.380848 -12.720299 -2.430105  1.000000 -0.000002 -0.000002  0.005487 0.735630 1 70 1.000000
lowpoly_metal
0  -3.700321 -13.342816 -2.295722  0.000001 -0.797864 -0.602837  0.005487 0.735630 1 70 1.000000
0  -3.380848 -13.204361 -2.478971  0.000001 -0.797864 -0.602837  0.005487 0.735630 1 70 1.000000
0  -3.380848 -13.342816 -2.295721  0.000001 -0.797864 -0.602837  0.005487 0.735630 1 70 1.000000
lowpoly_metal
0  -3.380848 -12.720299 -2.430105  0.000000 0.238525 -0.971136  0.005487 0.735630 1 70 1.000000
0  -3.700321 -12.952416 -2.487116  0.000000 0.238525 -0.971136  0.005487 0.735630 1 70 1.000000
0  -3.700321 -12.720299 -2.430105  0.000000 0.238525 -0.971136  0.005487 0.735630 1 70 1.000000
lowpoly_metal
0  -3.700321 -13.164984 -2.727921  0.000000 -0.963814 0.266575  0.005487 0.735630 1 70 1.000000
0  -3.380847 -13.221832 -2.933461  0.000000 -0.963814 0.266575  0.005487 0.735630 1 70 1.000000
0  -3.380847 -13.164984 -2.727921  0.000000 -0.963814 0.266575  0.005487 0.735630 1 70 1.000000
lowpoly_metal
0  -3.700321 -13.204361 -2.478971  0.000000 -0.987721 -0.156226  0.005487 0.735630 1 70 1.000000
0  -3.380847 -13.164984 -2.727921  0.000000 -0.987721 -0.156226  0.005487 0.735630 1 70 1.000000
0  -3.380848 -13.204361 -2.478971  0.000000 -0.987721 -0.156226  0.005487 0.735630 1 70 1.000000
lowpoly_metal
0  -3.380848 -12.952416 -2.487116  0.000000 0.997109 -0.075979  0.005487 0.735630 1 70 1.000000
0  -3.700321 -12.974975 -2.783167  0.000000 0.997109 -0.075979  0.005487 0.735630 1 70 1.000000
0  -3.700321 -12.952416 -2.487116  0.000000 0.997109 -0.075979  0.005487 0.735630 1 70 1.000000
lowpoly_metal
0  -3.700321 -12.952416 -2.487116  -1.000000 0.000000 0.000000  0.005487 0.735630 1 70 1.000000
0  -3.700321 -13.164984 -2.727921  -1.000000 0.000000 0.000000  0.005487 0.735630 1 70 1.000000
0  -3.700321 -13.204361 -2.478971  -1.000000 0.000000 0.000000  0.005487 0.735630 1 70 1.000000
lowpoly_metal
0  -3.700321 -13.221832 -2.933461  -1.000000 -0.000007 -0.000001  0.005487 0.735630 1 70 1.000000
0  -3.700320 -13.321217 -3.194265  -1.000000 -0.000007 -0.000001  0.005487 0.735630 1 70 1.000000
0  -3.700320 -13.389085 -3.096239  -1.000000 -0.000007 -0.000001  0.005487 0.735630 1 70 1.000000
lowpoly_metal
0  -3.380848 -12.974975 -2.783167  0.000000 0.916776 -0.399402  0.005487 0.735630 1 70 1.000000
0  -3.700321 -13.071005 -3.003590  0.000000 0.916776 -0.399402  0.005487 0.735630 1 70 1.000000
0  -3.700321 -12.974975 -2.783167  0.000000 0.916776 -0.399402  0.005487 0.735630 1 70 1.000000
lowpoly_metal
0  -3.700321 -12.974975 -2.783167  -1.000000 0.000000 0.000000  0.005487 0.735630 1 70 1.000000
0  -3.700321 -13.221832 -2.933461  -1.000000 0.000000 0.000000  0.005487 0.735630 1 70 1.000000
0  -3.700321 -13.164984 -2.727921  -1.000000 0.000000 0.000000  0.005487 0.735630 1 70 1.000000
lowpoly_metal
0  -3.380848 -12.974975 -2.783167  1.000000 0.000000 0.000001  0.005487 0.735630 1 70 1.000000
0  -3.380847 -13.221832 -2.933461  1.000000 0.000000 0.000001  0.005487 0.735630 1 70 1.000000
0  -3.380847 -13.071005 -3.003590  1.000000 0.000000 0.000001  0.005487 0.735630 1 70 1.000000
lowpoly_metal
0  -3.380847 -13.389085 -3.096239  0.000000 -0.321829 0.946798  0.005487 0.735630 1 70 1.000000
0  -3.700320 -13.554506 -3.152468  0.000000 -0.321829 0.946798  0.005487 0.735630 1 70 1.000000
0  -3.380847 -13.554506 -3.152468  0.000000 -0.321829 0.946798  0.005487 0.735630 1 70 1.000000
lowpoly_metal
0  -3.380847 -13.221832 -2.933461  1.000000 0.000000 0.000001  0.005487 0.735630 1 70 1.000000
0  -3.380847 -13.321217 -3.194264  1.000000 0.000000 0.000001  0.005487 0.735630 1 70 1.000000
0  -3.380847 -13.071005 -3.003590  1.000000 0.000000 0.000001  0.005487 0.735630 1 70 1.000000
lowpoly_metal
0  -3.380847 -13.221832 -2.933461  0.000000 -0.697450 0.716634  0.005487 0.735630 1 70 1.000000
0  -3.700320 -13.389085 -3.096239  0.000000 -0.697450 0.716634  0.005487 0.735630 1 70 1.000000
0  -3.380847 -13.389085 -3.096239  0.000000 -0.697450 0.716634  0.005487 0.735630 1 70 1.000000
lowpoly_metal
0  -3.380847 -13.071005 -3.003590  0.000001 0.606120 -0.795373  0.005487 0.735630 1 70 1.000000
0  -3.700320 -13.321217 -3.194265  0.000001 0.606120 -0.795373  0.005487 0.735630 1 70 1.000000
0  -3.700321 -13.071005 -3.003590  0.000001 0.606120 -0.795373  0.005487 0.735630 1 70 1.000000
lowpoly_metal
0  -3.380847 -13.500891 -3.221174  0.000000 -0.788361 -0.615212  0.005487 0.735630 1 70 1.000000
0  -3.700320 -13.554506 -3.152468  0.000000 -0.788361 -0.615212  0.005487 0.735630 1 70 1.000000
0  -3.700320 -13.500891 -3.221173  0.000000 -0.788361 -0.615212  0.005487 0.735630 1 70 1.000000
lowpoly_metal
0  -3.380847 -13.321217 -3.194264  0.000002 0.148111 -0.988971  0.005487 0.735630 1 70 1.000000
0  -3.700320 -13.500891 -3.221173  0.000002 0.148111 -0.988971  0.005487 0.735630 1 70 1.000000
0  -3.700320 -13.321217 -3.194265  0.000002 0.148111 -0.988971  0.005487 0.735630 1 70 1.000000
lowpoly_metal
0  -3.700320 -13.389085 -3.096239  -1.000000 -0.000004 0.000002  0.005487 0.735630 1 70 1.000000
0  -3.700320 -13.500891 -3.221173  -1.000000 -0.000004 0.000002  0.005487 0.735630 1 70 1.000000
0  -3.700320 -13.554506 -3.152468  -1.000000 -0.000004 0.000002  0.005487 0.735630 1 70 1.000000
lowpoly_metal
0  -3.380847 -13.389085 -3.096239  1.000000 -0.000001 0.000001  0.005487 0.735630 1 70 1.000000
0  -3.380847 -13.500891 -3.221174  1.000000 -0.000001 0.000001  0.005487 0.735630 1 70 1.000000
0  -3.380847 -13.321217 -3.194264  1.000000 -0.000001 0.000001  0.005487 0.735630 1 70 1.000000
lowpoly_metal
0  -3.400521 -12.154449 -0.340384  0.000000 -0.500022 0.866013  0.005487 0.735630 1 65 1.000000
0  -3.680648 -12.154449 -0.340384  0.000000 -0.500022 0.866013  0.005487 0.735630 1 65 1.000000
0  -3.680648 -12.201913 -0.367787  0.000000 -0.500022 0.866013  0.005487 0.735630 1 65 1.000000
lowpoly_metal
0  -3.400521 -12.201913 -0.367787  0.000000 -1.000000 0.000000  0.005487 0.735630 1 65 1.000000
0  -3.680648 -12.201913 -0.367787  0.000000 -1.000000 0.000000  0.005487 0.735630 1 65 1.000000
0  -3.680648 -12.201913 -0.422593  0.000000 -1.000000 0.000000  0.005487 0.735630 1 65 1.000000
lowpoly_metal
0  -3.680648 -12.201913 -0.422593  0.000000 -0.500022 -0.866013  0.005487 0.735630 1 65 1.000000
0  -3.680648 -12.154449 -0.449996  0.000000 -0.500022 -0.866013  0.005487 0.735630 1 65 1.000000
0  -3.400521 -12.154449 -0.449996  0.000000 -0.500022 -0.866013  0.005487 0.735630 1 65 1.000000
lowpoly_metal
0  -3.680648 -12.154449 -0.449996  0.000001 0.499993 -0.866029  0.005487 0.735630 1 65 1.000000
0  -3.680648 -12.106986 -0.422593  0.000001 0.499993 -0.866029  0.005487 0.735630 1 65 1.000000
0  -3.400521 -12.106986 -0.422593  0.000001 0.499993 -0.866029  0.005487 0.735630 1 65 1.000000
lowpoly_metal
0  -3.680648 -12.201913 -0.422593  -1.000000 -0.000006 0.000000  0.005487 0.735630 1 65 1.000000
0  -3.680648 -12.201913 -0.367787  -1.000000 -0.000006 0.000000  0.005487 0.735630 1 65 1.000000
0  -3.680648 -12.154449 -0.340384  -1.000000 -0.000006 0.000000  0.005487 0.735630 1 65 1.000000
lowpoly_metal
0  -3.680648 -12.154449 -0.340384  -1.000000 -0.000011 0.000000  0.005487 0.735630 1 65 1.000000
0  -3.680648 -12.106986 -0.367787  -1.000000 -0.000011 0.000000  0.005487 0.735630 1 65 1.000000
0  -3.680648 -12.106986 -0.422593  -1.000000 -0.000011 0.000000  0.005487 0.735630 1 65 1.000000
lowpoly_metal
0  -3.680648 -12.106986 -0.422593  -1.000000 0.000011 0.000002  0.005487 0.735630 1 65 1.000000
0  -3.680648 -12.154449 -0.449996  -1.000000 0.000011 0.000002  0.005487 0.735630 1 65 1.000000
0  -3.680648 -12.154449 -0.340384  -1.000000 0.000011 0.000002  0.005487 0.735630 1 65 1.000000
lowpoly_metal
0  -3.680648 -12.106986 -0.422593  0.000000 1.000000 0.000000  0.005487 0.735630 1 65 1.000000
0  -3.680648 -12.106986 -0.367787  0.000000 1.000000 0.000000  0.005487 0.735630 1 65 1.000000
0  -3.400521 -12.106986 -0.367787  0.000000 1.000000 0.000000  0.005487 0.735630 1 65 1.000000
lowpoly_metal
0  -3.680648 -12.106986 -0.367787  0.000000 0.500009 0.866020  0.005487 0.735630 1 65 1.000000
0  -3.680648 -12.154449 -0.340384  0.000000 0.500009 0.866020  0.005487 0.735630 1 65 1.000000
0  -3.400521 -12.154449 -0.340384  0.000000 0.500009 0.866020  0.005487 0.735630 1 65 1.000000
lowpoly_metal
0  -3.400521 -12.106986 -0.367787  1.000000 0.000000 0.000000  0.005487 0.735630 1 65 1.000000
0  -3.400521 -12.154449 -0.340384  1.000000 0.000000 0.000000  0.005487 0.735630 1 65 1.000000
0  -3.400521 -12.154449 -0.449996  1.000000 0.000000 0.000000  0.005487 0.735630 1 65 1.000000
lowpoly_metal
0  -3.400521 -12.201913 -0.367787  1.000000 0.000000 0.000000  0.005487 0.735630 1 65 1.000000
0  -3.400521 -12.201913 -0.422593  1.000000 0.000000 0.000000  0.005487 0.735630 1 65 1.000000
0  -3.400521 -12.154449 -0.449996  1.000000 0.000000 0.000000  0.005487 0.735630 1 65 1.000000
lowpoly_metal
0  -3.400521 -12.154449 -0.449996  1.000000 0.000000 0.000000  0.005487 0.735630 1 65 1.000000
0  -3.400521 -12.106986 -0.422593  1.000000 0.000000 0.000000  0.005487 0.735630 1 65 1.000000
0  -3.400521 -12.106986 -0.367787  1.000000 0.000000 0.000000  0.005487 0.735630 1 65 1.000000
lowpoly_metal
0  -3.671948 -12.024554 -0.124277  0.000000 0.978285 0.207262  0.005487 0.735630 1 65 1.000000
0  -3.409222 -12.024554 -0.124278  0.000000 0.978285 0.207262  0.005487 0.735630 1 65 1.000000
0  -3.409222 -11.977188 -0.347842  0.000000 0.978285 0.207262  0.005487 0.735630 1 65 1.000000
lowpoly_metal
0  -3.409222 -11.977188 -0.347842  1.000000 -0.000001 0.000000  0.005487 0.735630 1 65 1.000000
0  -3.409222 -12.024554 -0.124278  1.000000 -0.000001 0.000000  0.005487 0.735630 1 65 1.000000
0  -3.409222 -12.307573 -0.191597  1.000000 -0.000001 0.000000  0.005487 0.735630 1 65 1.000000
lowpoly_metal
0  -3.409222 -12.307573 -0.191597  0.000000 -0.998748 -0.050032  0.005487 0.735630 1 65 1.000000
0  -3.671948 -12.307573 -0.191598  0.000000 -0.998748 -0.050032  0.005487 0.735630 1 65 1.000000
0  -3.671948 -12.293192 -0.478689  0.000000 -0.998748 -0.050032  0.005487 0.735630 1 65 1.000000
lowpoly_metal
0  -3.671948 -12.307573 -0.191598  -1.000000 0.000000 0.000000  0.005487 0.735630 1 65 1.000000
0  -3.671948 -12.024554 -0.124277  -1.000000 0.000000 0.000000  0.005487 0.735630 1 65 1.000000
0  -3.671948 -11.977188 -0.347842  -1.000000 0.000000 0.000000  0.005487 0.735630 1 65 1.000000
lowpoly_metal
0  -3.409222 -12.199958 -0.482235  1.000000 0.000001 0.000000  0.005487 0.735630 1 65 1.000000
0  -3.409222 -12.123390 -0.780902  1.000000 0.000001 0.000000  0.005487 0.735630 1 65 1.000000
0  -3.409222 -11.841706 -0.492368  1.000000 0.000001 0.000000  0.005487 0.735630 1 65 1.000000
lowpoly_metal
0  -3.409222 -12.024554 -0.124278  0.000001 -0.231410 0.972856  0.005487 0.735630 1 65 1.000000
0  -3.671948 -12.024554 -0.124277  0.000001 -0.231410 0.972856  0.005487 0.735630 1 65 1.000000
0  -3.671948 -12.307573 -0.191598  0.000001 -0.231410 0.972856  0.005487 0.735630 1 65 1.000000
lowpoly_metal
0  -3.671948 -11.841706 -0.492368  -1.000000 0.000004 0.000000  0.005487 0.735630 1 65 1.000000
0  -3.671948 -11.723988 -0.523975  -1.000000 0.000004 0.000000  0.005487 0.735630 1 65 1.000000
0  -3.671948 -11.684988 -0.772370  -1.000000 0.000004 0.000000  0.005487 0.735630 1 65 1.000000
lowpoly_metal
0  -3.409222 -11.945294 -0.381865  0.000000 0.729568 0.683909  0.005487 0.735630 1 65 1.000000
0  -3.409222 -11.841706 -0.492368  0.000000 0.729568 0.683909  0.005487 0.735630 1 65 1.000000
0  -3.671948 -11.841706 -0.492368  0.000000 0.729568 0.683909  0.005487 0.735630 1 65 1.000000
lowpoly_metal
0  -3.671948 -12.199958 -0.482235  0.000000 -0.968673 -0.248339  0.005487 0.735630 1 65 1.000000
0  -3.671948 -12.123390 -0.780902  0.000000 -0.968673 -0.248339  0.005487 0.735630 1 65 1.000000
0  -3.409222 -12.123390 -0.780902  0.000000 -0.968673 -0.248339  0.005487 0.735630 1 65 1.000000
lowpoly_metal
0  -3.671948 -12.199958 -0.482235  -1.000000 -0.000002 0.000000  0.005487 0.735630 1 65 1.000000
0  -3.671948 -11.945294 -0.381865  -1.000000 -0.000002 0.000000  0.005487 0.735630 1 65 1.000000
0  -3.671948 -11.841706 -0.492368  -1.000000 -0.000002 0.000000  0.005487 0.735630 1 65 1.000000
lowpoly_metal
0  -3.409222 -11.684988 -0.772370  0.000000 0.909401 -0.415921  0.005487 0.735630 1 65 1.000000
0  -3.671948 -11.684988 -0.772370  0.000000 0.909401 -0.415921  0.005487 0.735630 1 65 1.000000
0  -3.671948 -11.589982 -0.564647  0.000000 0.909401 -0.415921  0.005487 0.735630 1 65 1.000000
lowpoly_metal
0  -3.409222 -11.841706 -0.492368  1.000000 0.000001 0.000001  0.005487 0.735630 1 65 1.000000
0  -3.409222 -12.123390 -0.780902  1.000000 0.000001 0.000001  0.005487 0.735630 1 65 1.000000
0  -3.409222 -11.684988 -0.772370  1.000000 0.000001 0.000001  0.005487 0.735630 1 65 1.000000
lowpoly_metal
0  -3.409222 -11.684988 -0.772370  1.000000 0.000000 0.000002  0.005487 0.735630 1 65 1.000000
0  -3.409222 -12.123390 -0.780902  1.000000 0.000000 0.000002  0.005487 0.735630 1 65 1.000000
0  -3.409221 -12.090265 -0.924608  1.000000 0.000000 0.000002  0.005487 0.735630 1 65 1.000000
lowpoly_metal
0  -3.671948 -11.841706 -0.492368  0.000000 0.259311 0.965794  0.005487 0.735630 1 65 1.000000
0  -3.409222 -11.841706 -0.492368  0.000000 0.259311 0.965794  0.005487 0.735630 1 65 1.000000
0  -3.409222 -11.723988 -0.523975  0.000000 0.259311 0.965794  0.005487 0.735630 1 65 1.000000
lowpoly_metal
0  -3.671948 -11.649343 -0.454707  -0.734338 -0.548916 -0.399298  0.005487 0.735630 1 65 1.000000
0  -3.749954 -11.617165 -0.355486  -0.734338 -0.548916 -0.399298  0.005487 0.735630 1 65 1.000000
0  -3.749954 -11.509345 -0.503704  -0.734338 -0.548916 -0.399298  0.005487 0.735630 1 65 1.000000
lowpoly_metal
0  -3.409222 -11.723988 -0.523975  -0.000001 -0.680220 0.733008  0.005487 0.735630 1 65 1.000000
0  -3.409222 -11.649343 -0.454707  -0.000001 -0.680220 0.733008  0.005487 0.735630 1 65 1.000000
0  -3.671948 -11.649343 -0.454707  -0.000001 -0.680220 0.733008  0.005487 0.735630 1 65 1.000000
lowpoly_metal
0  -3.671948 -11.723988 -0.523975  -1.000000 0.000000 0.000000  0.005487 0.735630 1 65 1.000000
0  -3.671948 -11.649343 -0.454707  -1.000000 0.000000 0.000000  0.005487 0.735630 1 65 1.000000
0  -3.671948 -11.589982 -0.564647  -1.000000 0.000000 0.000000  0.005487 0.735630 1 65 1.000000
lowpoly_metal
0  -3.409222 -11.723988 -0.523975  1.000000 -0.000004 0.000001  0.005487 0.735630 1 65 1.000000
0  -3.409222 -11.684988 -0.772370  1.000000 -0.000004 0.000001  0.005487 0.735630 1 65 1.000000
0  -3.409222 -11.589982 -0.564647  1.000000 -0.000004 0.000001  0.005487 0.735630 1 65 1.000000
lowpoly_metal
0  -3.331216 -11.509345 -0.503704  1.000000 0.000004 0.000000  0.005487 0.735630 1 65 1.000000
0  -3.331216 -11.399329 -0.436318  1.000000 0.000004 0.000000  0.005487 0.735630 1 65 1.000000
0  -3.331216 -11.425704 -0.305067  1.000000 0.000004 0.000000  0.005487 0.735630 1 65 1.000000
lowpoly_metal
0  -3.409222 -11.649343 -0.454707  0.788209 -0.541515 -0.292383  0.005487 0.735630 1 65 1.000000
0  -3.409222 -11.589982 -0.564647  0.788209 -0.541515 -0.292383  0.005487 0.735630 1 65 1.000000
0  -3.331216 -11.509345 -0.503704  0.788209 -0.541515 -0.292383  0.005487 0.735630 1 65 1.000000
lowpoly_metal
0  -3.671948 -11.589982 -0.564647  0.000000 0.602940 -0.797787  0.005487 0.735630 1 65 1.000000
0  -3.749954 -11.509345 -0.503704  0.000000 0.602940 -0.797787  0.005487 0.735630 1 65 1.000000
0  -3.331216 -11.509345 -0.503704  0.000000 0.602940 -0.797787  0.005487 0.735630 1 65 1.000000
lowpoly_metal
0  -3.409222 -11.649343 -0.454707  0.000000 -0.951226 0.308495  0.005487 0.735630 1 65 1.000000
0  -3.331216 -11.617165 -0.355486  0.000000 -0.951226 0.308495  0.005487 0.735630 1 65 1.000000
0  -3.749954 -11.617165 -0.355486  0.000000 -0.951226 0.308495  0.005487 0.735630 1 65 1.000000
lowpoly_metal
0  -3.671948 -11.977188 -0.347842  -1.000000 0.000000 0.000000  0.005487 0.735630 1 65 1.000000
0  -3.671948 -11.945294 -0.381865  -1.000000 0.000000 0.000000  0.005487 0.735630 1 65 1.000000
0  -3.671948 -12.199958 -0.482235  -1.000000 0.000000 0.000000  0.005487 0.735630 1 65 1.000000
lowpoly_metal
0  -3.671948 -12.293192 -0.478689  0.000000 -0.038007 -0.999277  0.005487 0.735630 1 65 1.000000
0  -3.671948 -12.199958 -0.482235  0.000000 -0.038007 -0.999277  0.005487 0.735630 1 65 1.000000
0  -3.409222 -12.199958 -0.482235  0.000000 -0.038007 -0.999277  0.005487 0.735630 1 65 1.000000
lowpoly_metal
0  -3.409222 -11.977188 -0.347842  0.000000 0.729587 0.683888  0.005487 0.735630 1 65 1.000000
0  -3.409222 -11.945294 -0.381865  0.000000 0.729587 0.683888  0.005487 0.735630 1 65 1.000000
0  -3.671948 -11.945294 -0.381865  0.000000 0.729587 0.683888  0.005487 0.735630 1 65 1.000000
lowpoly_metal
0  -3.409222 -11.977188 -0.347842  1.000000 0.000001 0.000000  0.005487 0.735630 1 65 1.000000
0  -3.409222 -12.293192 -0.478689  1.000000 0.000001 0.000000  0.005487 0.735630 1 65 1.000000
0  -3.409222 -12.199958 -0.482235  1.000000 0.000001 0.000000  0.005487 0.735630 1 65 1.000000
lowpoly_metal
0  -3.671948 -11.684988 -0.772370  0.000000 0.317124 0.948384  0.005487 0.735630 1 65 1.000000
0  -3.409222 -11.684988 -0.772370  0.000000 0.317124 0.948384  0.005487 0.735630 1 65 1.000000
0  -3.409222 -11.512186 -0.830152  0.000000 0.317124 0.948384  0.005487 0.735630 1 65 1.000000
lowpoly_metal
0  -3.671948 -12.123390 -0.780902  0.000000 -0.974448 -0.224613  0.005487 0.735630 1 65 1.000000
0  -3.671948 -12.090265 -0.924608  0.000000 -0.974448 -0.224613  0.005487 0.735630 1 65 1.000000
0  -3.409221 -12.090265 -0.924608  0.000000 -0.974448 -0.224613  0.005487 0.735630 1 65 1.000000
lowpoly_metal
0  -3.671948 -11.684988 -0.772370  -1.000000 0.000000 -0.000001  0.005487 0.735630 1 65 1.000000
0  -3.671948 -11.512186 -0.830152  -1.000000 0.000000 -0.000001  0.005487 0.735630 1 65 1.000000
0  -3.671948 -12.090265 -0.924608  -1.000000 0.000000 -0.000001  0.005487 0.735630 1 65 1.000000
lowpoly_metal
0  -3.671948 -11.336770 -0.958475  -1.000000 -0.000000 0.000000  0.005487 0.735630 1 65 1.000000
0  -3.671948 -11.221943 -1.185432  -1.000000 -0.000000 0.000000  0.005487 0.735630 1 65 1.000000
0  -3.671948 -12.013814 -1.283146  -1.000000 -0.000000 0.000000  0.005487 0.735630 1 65 1.000000
lowpoly_metal
0  -3.671948 -11.512186 -0.830152  0.000000 0.590421 0.807095  0.005487 0.735630 1 65 1.000000
0  -3.409222 -11.512186 -0.830152  0.000000 0.590421 0.807095  0.005487 0.735630 1 65 1.000000
0  -3.409222 -11.336770 -0.958475  0.000000 0.590421 0.807095  0.005487 0.735630 1 65 1.000000
lowpoly_metal
0  -3.671948 -12.090265 -0.924608  -1.000000 0.000000 -0.000000  0.005487 0.735630 1 65 1.000000
0  -3.671948 -11.512186 -0.830152  -1.000000 0.000000 -0.000000  0.005487 0.735630 1 65 1.000000
0  -3.671948 -11.336770 -0.958475  -1.000000 0.000000 -0.000000  0.005487 0.735630 1 65 1.000000
lowpoly_metal
0  -3.671948 -12.013814 -1.283146  -1.000000 0.000000 -0.000000  0.005487 0.735630 1 65 1.000000
0  -3.671948 -12.147790 -1.469422  -1.000000 0.000000 -0.000000  0.005487 0.735630 1 65 1.000000
0  -3.671948 -12.224241 -1.110885  -1.000000 0.000000 -0.000000  0.005487 0.735630 1 65 1.000000
lowpoly_metal
0  -3.671948 -12.013814 -1.283146  -1.000000 0.000000 0.000000  0.005487 0.735630 1 65 1.000000
0  -3.671948 -11.221943 -1.185432  -1.000000 0.000000 0.000000  0.005487 0.735630 1 65 1.000000
0  -3.671948 -11.355919 -1.371709  -1.000000 0.000000 0.000000  0.005487 0.735630 1 65 1.000000
lowpoly_metal
0  -3.409222 -11.336770 -0.958475  1.000000 0.000000 -0.000001  0.005487 0.735630 1 65 1.000000
0  -3.409221 -12.090265 -0.924608  1.000000 0.000000 -0.000001  0.005487 0.735630 1 65 1.000000
0  -3.409222 -12.013814 -1.283146  1.000000 0.000000 -0.000001  0.005487 0.735630 1 65 1.000000
lowpoly_metal
0  -3.671948 -11.336770 -0.958475  -0.000000 0.892295 0.451453  0.005487 0.735630 1 65 1.000000
0  -3.409222 -11.336770 -0.958475  -0.000000 0.892295 0.451453  0.005487 0.735630 1 65 1.000000
0  -3.409222 -11.221943 -1.185432  -0.000000 0.892295 0.451453  0.005487 0.735630 1 65 1.000000
lowpoly_metal
0  -3.671948 -12.147790 -1.469422  0.000002 0.122467 -0.992473  0.005487 0.735630 1 65 1.000000
0  -3.671948 -11.355919 -1.371709  0.000002 0.122467 -0.992473  0.005487 0.735630 1 65 1.000000
0  -3.409222 -11.355919 -1.371708  0.000002 0.122467 -0.992473  0.005487 0.735630 1 65 1.000000
lowpoly_metal
0  -3.409221 -12.224241 -1.110884  0.000000 -0.978013 -0.208543  0.005487 0.735630 1 65 1.000000
0  -3.671948 -12.224241 -1.110885  0.000000 -0.978013 -0.208543  0.005487 0.735630 1 65 1.000000
0  -3.671948 -12.147790 -1.469422  0.000000 -0.978013 -0.208543  0.005487 0.735630 1 65 1.000000
lowpoly_metal
0  -3.409222 -12.013814 -1.283146  1.000000 0.000000 0.000001  0.005487 0.735630 1 65 1.000000
0  -3.409221 -12.147790 -1.469422  1.000000 0.000000 0.000001  0.005487 0.735630 1 65 1.000000
0  -3.409222 -11.355919 -1.371708  1.000000 0.000000 0.000001  0.005487 0.735630 1 65 1.000000
lowpoly_metal
0  -3.409222 -11.221943 -1.185432  0.000001 0.811828 -0.583896  0.005487 0.735630 1 65 1.000000
0  -3.409222 -11.355919 -1.371708  0.000001 0.811828 -0.583896  0.005487 0.735630 1 65 1.000000
0  -3.671948 -11.355919 -1.371709  0.000001 0.811828 -0.583896  0.005487 0.735630 1 65 1.000000
lowpoly_metal
0  -3.409222 -12.013814 -1.283146  1.000000 0.000002 -0.000001  0.005487 0.735630 1 65 1.000000
0  -3.409221 -12.090265 -0.924608  1.000000 0.000002 -0.000001  0.005487 0.735630 1 65 1.000000
0  -3.409221 -12.224241 -1.110884  1.000000 0.000002 -0.000001  0.005487 0.735630 1 65 1.000000
lowpoly_metal
0  -3.671948 -12.090265 -0.924608  -0.000000 -0.811828 0.583896  0.005487 0.735630 1 65 1.000000
0  -3.671948 -12.224241 -1.110885  -0.000000 -0.811828 0.583896  0.005487 0.735630 1 65 1.000000
0  -3.409221 -12.224241 -1.110884  -0.000000 -0.811828 0.583896  0.005487 0.735630 1 65 1.000000
lowpoly_metal
0  -3.749954 -11.425704 -0.305067  -0.000000 -0.025654 0.999671  0.005487 0.735630 1 65 1.000000
0  -3.331216 -11.425704 -0.305067  -0.000000 -0.025654 0.999671  0.005487 0.735630 1 65 1.000000
0  -3.331216 -11.098579 -0.296672  -0.000000 -0.025654 0.999671  0.005487 0.735630 1 65 1.000000
lowpoly_metal
0  -3.331216 -11.509345 -0.503704  0.000000 0.522317 -0.852751  0.005487 0.735630 1 65 1.000000
0  -3.749954 -11.509345 -0.503704  0.000000 0.522317 -0.852751  0.005487 0.735630 1 65 1.000000
0  -3.749954 -11.399329 -0.436318  0.000000 0.522317 -0.852751  0.005487 0.735630 1 65 1.000000
lowpoly_metal
0  -3.749954 -11.617165 -0.355486  0.000000 -0.254658 0.967031  0.005487 0.735630 1 65 1.000000
0  -3.331216 -11.617165 -0.355486  0.000000 -0.254658 0.967031  0.005487 0.735630 1 65 1.000000
0  -3.331216 -11.425704 -0.305067  0.000000 -0.254658 0.967031  0.005487 0.735630 1 65 1.000000
lowpoly_metal
0  -3.749954 -11.509345 -0.503704  -1.000000 -0.000002 0.000000  0.005487 0.735630 1 65 1.000000
0  -3.749954 -11.617165 -0.355486  -1.000000 -0.000002 0.000000  0.005487 0.735630 1 65 1.000000
0  -3.749954 -11.425704 -0.305067  -1.000000 -0.000002 0.000000  0.005487 0.735630 1 65 1.000000
lowpoly_metal
0  -3.331216 -11.097494 -0.406535  0.000000 0.999951 0.009888  0.005487 0.735630 1 65 1.000000
0  -3.749954 -11.097494 -0.406535  0.000000 0.999951 0.009888  0.005487 0.735630 1 65 1.000000
0  -3.749954 -11.098579 -0.296672  0.000000 0.999951 0.009888  0.005487 0.735630 1 65 1.000000
lowpoly_metal
0  -3.749954 -11.399329 -0.436318  -1.000000 -0.000003 -0.000000  0.005487 0.735630 1 65 1.000000
0  -3.749954 -11.425704 -0.305067  -1.000000 -0.000003 -0.000000  0.005487 0.735630 1 65 1.000000
0  -3.749954 -11.098579 -0.296672  -1.000000 -0.000003 -0.000000  0.005487 0.735630 1 65 1.000000
lowpoly_metal
0  -3.331216 -11.399329 -0.436318  1.000000 0.000000 0.000000  0.005487 0.735630 1 65 1.000000
0  -3.331216 -11.097494 -0.406535  1.000000 0.000000 0.000000  0.005487 0.735630 1 65 1.000000
0  -3.331216 -11.098579 -0.296672  1.000000 0.000000 0.000000  0.005487 0.735630 1 65 1.000000
lowpoly_metal
0  -3.331216 -11.399329 -0.436318  0.000000 0.098196 -0.995167  0.005487 0.735630 1 65 1.000000
0  -3.749954 -11.399329 -0.436318  0.000000 0.098196 -0.995167  0.005487 0.735630 1 65 1.000000
0  -3.749954 -11.097494 -0.406535  0.000000 0.098196 -0.995167  0.005487 0.735630 1 65 1.000000
lowpoly_metal
0  -3.700321 -12.563416 -1.964442  0.000000 0.997039 -0.076898  0.005487 0.735630 1 70 1.000000
0  -3.380848 -12.563416 -1.964442  0.000000 0.997039 -0.076898  0.005487 0.735630 1 70 1.000000
0  -3.380848 -12.588424 -2.288709  0.000000 0.997039 -0.076898  0.005487 0.735630 1 70 1.000000
lowpoly_metal
0  -3.380848 -12.588424 -2.288709  1.000000 -0.000000 0.000000  0.005487 0.735630 1 70 1.000000
0  -3.380848 -12.563416 -1.964442  1.000000 -0.000000 0.000000  0.005487 0.735630 1 70 1.000000
0  -3.380848 -13.275522 -1.944081  1.000000 -0.000000 0.000000  0.005487 0.735630 1 70 1.000000
lowpoly_metal
0  -3.700321 -13.275522 -1.944081  -1.000000 -0.000001 0.000000  0.005487 0.735630 1 70 1.000000
0  -3.700321 -12.588424 -2.288709  -1.000000 -0.000001 0.000000  0.005487 0.735630 1 70 1.000000
0  -3.700321 -12.720299 -2.430105  -1.000000 -0.000001 0.000000  0.005487 0.735630 1 70 1.000000
lowpoly_metal
0  -3.380848 -13.275522 -1.944081  0.000000 0.028581 0.999591  0.005487 0.735630 1 70 1.000000
0  -3.380848 -12.563416 -1.964442  0.000000 0.028581 0.999591  0.005487 0.735630 1 70 1.000000
0  -3.700321 -12.563416 -1.964442  0.000000 0.028581 0.999591  0.005487 0.735630 1 70 1.000000
lowpoly_metal
0  -3.700321 -13.342816 -2.295722  -1.000000 0.000000 0.000000  0.005487 0.735630 1 70 1.000000
0  -3.700321 -12.720299 -2.430105  -1.000000 0.000000 0.000000  0.005487 0.735630 1 70 1.000000
0  -3.700321 -12.952416 -2.487116  -1.000000 0.000000 0.000000  0.005487 0.735630 1 70 1.000000
lowpoly_metal
0  -3.380848 -13.275522 -1.944081  1.000000 0.000000 0.000000  0.005487 0.735630 1 70 1.000000
0  -3.380848 -13.342816 -2.295721  1.000000 0.000000 0.000000  0.005487 0.735630 1 70 1.000000
0  -3.380848 -12.720299 -2.430105  1.000000 0.000000 0.000000  0.005487 0.735630 1 70 1.000000
lowpoly_metal
0  -3.380848 -12.588424 -2.288709  0.000000 0.731305 -0.682050  0.005487 0.735630 1 70 1.000000
0  -3.380848 -12.720299 -2.430105  0.000000 0.731305 -0.682050  0.005487 0.735630 1 70 1.000000
0  -3.700321 -12.720299 -2.430105  0.000000 0.731305 -0.682050  0.005487 0.735630 1 70 1.000000
lowpoly_metal
0  -3.380848 -13.275522 -1.944081  0.000000 -0.982177 0.187961  0.005487 0.735630 1 70 1.000000
0  -3.700321 -13.275522 -1.944081  0.000000 -0.982177 0.187961  0.005487 0.735630 1 70 1.000000
0  -3.700321 -13.342816 -2.295722  0.000000 -0.982177 0.187961  0.005487 0.735630 1 70 1.000000
lowpoly_metal
0  -3.380848 -12.952416 -2.487116  1.000000 0.000002 0.000001  0.005487 0.735630 1 70 1.000000
0  -3.380848 -13.204361 -2.478971  1.000000 0.000002 0.000001  0.005487 0.735630 1 70 1.000000
0  -3.380847 -13.164984 -2.727921  1.000000 0.000002 0.000001  0.005487 0.735630 1 70 1.000000
lowpoly_metal
0  -3.380848 -13.342816 -2.295721  1.000000 0.000002 0.000001  0.005487 0.735630 1 70 1.000000
0  -3.380848 -13.204361 -2.478971  1.000000 0.000002 0.000001  0.005487 0.735630 1 70 1.000000
0  -3.380848 -12.952416 -2.487116  1.000000 0.000002 0.000001  0.005487 0.735630 1 70 1.000000
lowpoly_metal
0  -3.700321 -13.342816 -2.295722  0.000000 -0.797870 -0.602829  0.005487 0.735630 1 70 1.000000
0  -3.700321 -13.204361 -2.478971  0.000000 -0.797870 -0.602829  0.005487 0.735630 1 70 1.000000
0  -3.380848 -13.204361 -2.478971  0.000000 -0.797870 -0.602829  0.005487 0.735630 1 70 1.000000
lowpoly_metal
0  -3.380848 -12.720299 -2.430105  0.000000 0.238522 -0.971137  0.005487 0.735630 1 70 1.000000
0  -3.380848 -12.952416 -2.487116  0.000000 0.238522 -0.971137  0.005487 0.735630 1 70 1.000000
0  -3.700321 -12.952416 -2.487116  0.000000 0.238522 -0.971137  0.005487 0.735630 1 70 1.000000
lowpoly_metal
0  -3.700321 -13.164984 -2.727921  0.000000 -0.963814 0.266574  0.005487 0.735630 1 70 1.000000
0  -3.700321 -13.221832 -2.933461  0.000000 -0.963814 0.266574  0.005487 0.735630 1 70 1.000000
0  -3.380847 -13.221832 -2.933461  0.000000 -0.963814 0.266574  0.005487 0.735630 1 70 1.000000
lowpoly_metal
0  -3.700321 -13.204361 -2.478971  0.000000 -0.987719 -0.156242  0.005487 0.735630 1 70 1.000000
0  -3.700321 -13.164984 -2.727921  0.000000 -0.987719 -0.156242  0.005487 0.735630 1 70 1.000000
0  -3.380847 -13.164984 -2.727921  0.000000 -0.987719 -0.156242  0.005487 0.735630 1 70 1.000000
lowpoly_metal
0  -3.380848 -12.952416 -2.487116  0.000000 0.997109 -0.075979  0.005487 0.735630 1 70 1.000000
0  -3.380848 -12.974975 -2.783167  0.000000 0.997109 -0.075979  0.005487 0.735630 1 70 1.000000
0  -3.700321 -12.974975 -2.783167  0.000000 0.997109 -0.075979  0.005487 0.735630 1 70 1.000000
lowpoly_metal
0  -3.700321 -12.952416 -2.487116  -1.000000 0.000002 0.000000  0.005487 0.735630 1 70 1.000000
0  -3.700321 -12.974975 -2.783167  -1.000000 0.000002 0.000000  0.005487 0.735630 1 70 1.000000
0  -3.700321 -13.164984 -2.727921  -1.000000 0.000002 0.000000  0.005487 0.735630 1 70 1.000000
lowpoly_metal
0  -3.700321 -13.221832 -2.933461  -1.000000 0.000003 -0.000001  0.005487 0.735630 1 70 1.000000
0  -3.700321 -13.071005 -3.003590  -1.000000 0.000003 -0.000001  0.005487 0.735630 1 70 1.000000
0  -3.700320 -13.321217 -3.194265  -1.000000 0.000003 -0.000001  0.005487 0.735630 1 70 1.000000
lowpoly_metal
0  -3.380848 -12.974975 -2.783167  0.000001 0.916776 -0.399402  0.005487 0.735630 1 70 1.000000
0  -3.380847 -13.071005 -3.003590  0.000001 0.916776 -0.399402  0.005487 0.735630 1 70 1.000000
0  -3.700321 -13.071005 -3.003590  0.000001 0.916776 -0.399402  0.005487 0.735630 1 70 1.000000
lowpoly_metal
0  -3.700321 -12.974975 -2.783167  -1.000000 0.000001 0.000000  0.005487 0.735630 1 70 1.000000
0  -3.700321 -13.071005 -3.003590  -1.000000 0.000001 0.000000  0.005487 0.735630 1 70 1.000000
0  -3.700321 -13.221832 -2.933461  -1.000000 0.000001 0.000000  0.005487 0.735630 1 70 1.000000
lowpoly_metal
0  -3.380848 -12.974975 -2.783167  1.000000 0.000000 -0.000000  0.005487 0.735630 1 70 1.000000
0  -3.380847 -13.164984 -2.727921  1.000000 0.000000 -0.000000  0.005487 0.735630 1 70 1.000000
0  -3.380847 -13.221832 -2.933461  1.000000 0.000000 -0.000000  0.005487 0.735630 1 70 1.000000
lowpoly_metal
0  -3.380847 -13.389085 -3.096239  0.000000 -0.321830 0.946797  0.005487 0.735630 1 70 1.000000
0  -3.700320 -13.389085 -3.096239  0.000000 -0.321830 0.946797  0.005487 0.735630 1 70 1.000000
0  -3.700320 -13.554506 -3.152468  0.000000 -0.321830 0.946797  0.005487 0.735630 1 70 1.000000
lowpoly_metal
0  -3.380847 -13.221832 -2.933461  1.000000 0.000002 0.000001  0.005487 0.735630 1 70 1.000000
0  -3.380847 -13.389085 -3.096239  1.000000 0.000002 0.000001  0.005487 0.735630 1 70 1.000000
0  -3.380847 -13.321217 -3.194264  1.000000 0.000002 0.000001  0.005487 0.735630 1 70 1.000000
lowpoly_metal
0  -3.380847 -13.221832 -2.933461  -0.000002 -0.697457 0.716626  0.005487 0.735630 1 70 1.000000
0  -3.700321 -13.221832 -2.933461  -0.000002 -0.697457 0.716626  0.005487 0.735630 1 70 1.000000
0  -3.700320 -13.389085 -3.096239  -0.000002 -0.697457 0.716626  0.005487 0.735630 1 70 1.000000
lowpoly_metal
0  -3.380847 -13.071005 -3.003590  0.000001 0.606117 -0.795375  0.005487 0.735630 1 70 1.000000
0  -3.380847 -13.321217 -3.194264  0.000001 0.606117 -0.795375  0.005487 0.735630 1 70 1.000000
0  -3.700320 -13.321217 -3.194265  0.000001 0.606117 -0.795375  0.005487 0.735630 1 70 1.000000
lowpoly_metal
0  -3.380847 -13.500891 -3.221174  0.000000 -0.788359 -0.615215  0.005487 0.735630 1 70 1.000000
0  -3.380847 -13.554506 -3.152468  0.000000 -0.788359 -0.615215  0.005487 0.735630 1 70 1.000000
0  -3.700320 -13.554506 -3.152468  0.000000 -0.788359 -0.615215  0.005487 0.735630 1 70 1.000000
lowpoly_metal
0  -3.380847 -13.321217 -3.194264  0.000000 0.148113 -0.988970  0.005487 0.735630 1 70 1.000000
0  -3.380847 -13.500891 -3.221174  0.000000 0.148113 -0.988970  0.005487 0.735630 1 70 1.000000
0  -3.700320 -13.500891 -3.221173  0.000000 0.148113 -0.988970  0.005487 0.735630 1 70 1.000000
lowpoly_metal
0  -3.700320 -13.389085 -3.096239  -1.000000 0.000002 0.000000  0.005487 0.735630 1 70 1.000000
0  -3.700320 -13.321217 -3.194265  -1.000000 0.000002 0.000000  0.005487 0.735630 1 70 1.000000
0  -3.700320 -13.500891 -3.221173  -1.000000 0.000002 0.000000  0.005487 0.735630 1 70 1.000000
lowpoly_metal
0  -3.380847 -13.389085 -3.096239  1.000000 0.000000 0.000000  0.005487 0.735630 1 70 1.000000
0  -3.380847 -13.554506 -3.152468  1.000000 0.000000 0.000000  0.005487 0.735630 1 70 1.000000
0  -3.380847 -13.500891 -3.221174  1.000000 0.000000 0.000000  0.005487 0.735630 1 70 1.000000
end
