version 1
nodes
0 "ValveBiped.Bip01_Spine4" -1
1 "ValveBiped.Bip01_L_Clavicle" 0
2 "ValveBiped.Bip01_L_UpperArm" 1
3 "ValveBiped.Bip01_L_Forearm" 2
4 "ValveBiped.Bip01_L_Hand" 3
5 "ValveBiped.Bip01_L_Finger4" 4
6 "ValveBiped.Bip01_L_Finger41" 5
7 "ValveBiped.Bip01_L_Finger42" 6
8 "ValveBiped.Bip01_L_Finger3" 4
9 "ValveBiped.Bip01_L_Finger31" 8
10 "ValveBiped.Bip01_L_Finger32" 9
11 "ValveBiped.Bip01_L_Finger2" 4
12 "ValveBiped.Bip01_L_Finger21" 11
13 "ValveBiped.Bip01_L_Finger22" 12
14 "ValveBiped.Bip01_L_Finger1" 4
15 "ValveBiped.Bip01_L_Finger11" 14
16 "ValveBiped.Bip01_L_Finger12" 15
17 "ValveBiped.Bip01_L_Finger0" 4
18 "ValveBiped.Bip01_L_Finger01" 17
19 "ValveBiped.Bip01_L_Finger02" 18
20 "ValveBiped.Bip01_L_Ulna" 3
21 "ValveBiped.Bip01_L_Wrist" 3
22 "rig_l_upperarm" 1
23 "rig_l_forearm" 22
24 "rig_d_l_forearm" 23
25 "rig_d_l_upperarm" 22
26 "ValveBiped.Bip01_R_Clavicle" 0
27 "ValveBiped.Bip01_R_UpperArm" 26
28 "ValveBiped.Bip01_R_Forearm" 27
29 "ValveBiped.Bip01_R_Hand" 28
30 "ValveBiped.Bip01_R_Finger4" 29
31 "ValveBiped.Bip01_R_Finger41" 30
32 "ValveBiped.Bip01_R_Finger42" 31
33 "ValveBiped.Bip01_R_Finger3" 29
34 "ValveBiped.Bip01_R_Finger31" 33
35 "ValveBiped.Bip01_R_Finger32" 34
36 "ValveBiped.Bip01_R_Finger2" 29
37 "ValveBiped.Bip01_R_Finger21" 36
38 "ValveBiped.Bip01_R_Finger22" 37
39 "ValveBiped.Bip01_R_Finger1" 29
40 "ValveBiped.Bip01_R_Finger11" 39
41 "ValveBiped.Bip01_R_Finger12" 40
42 "ValveBiped.Bip01_R_Finger0" 29
43 "ValveBiped.Bip01_R_Finger01" 42
44 "ValveBiped.Bip01_R_Finger02" 43
45 "ValveBiped.Bip01_R_Ulna" 28
46 "ValveBiped.Bip01_R_Wrist" 28
47 "rig_r_upperarm" 26
48 "rig_r_forearm" 47
49 "rig_d_r_forearm" 48
50 "rig_d_r_upperarm" 47
51 "rig_r_hand" -1
52 "rig_d_r_hand" 51
53 "rig_d_r_wrist" 52
54 "rig_l_hand" -1
55 "rig_d_l_hand" 54
56 "rig_d_l_wrist" 54
57 "rig_l_pole" -1
58 "rig_r_pole" -1
59 "rig_l_clavicle" -1
60 "rig_d_l_clavicle" 59
61 "rig_r_clavicle" -1
62 "rig_d_r_clavicle" 61
63 "Camera" -1
64 "body" -1
65 "trigger" 64
66 "bolt" 64
67 "barrel" 64
68 "magrel" 64
69 "chandle" 64
70 "boltrelease" 64
71 "laseradj" 64
72 "mag" -1
73 "bullet1" 72
74 "bullet2" 72
75 "bullet3" 72
76 "round1" 72
77 "round2" 72
78 "round3" 72
79 "mag2" -1
end
skeleton
time 0
0  0.000006 0.000000 0.000000  -1.570800 -1.391899 -1.570792
1  -3.333990 2.359167 1.335070  -1.544956 -1.855077 -0.198630
2  6.027525 -0.000323 0.000193  -0.725017 -0.923176 -1.513779
3  11.692110 0.000642 -0.000741  -0.551974 -0.000007 -1.189457
4  11.480262 0.000138 -0.000777  2.489351 -0.669981 -0.265279
5  3.806287 -0.372256 -1.110994  -0.529793 -0.073810 -1.897370
6  1.312590 0.000013 0.000008  0.103432 -0.025446 -0.129301
7  0.729355 0.000052 0.000050  -0.076005 -0.077877 -0.849610
8  3.942143 0.046273 -0.431513  -0.300837 0.240743 -1.342798
9  1.539112 0.000083 0.000004  0.288969 -0.244282 -1.112656
10  1.196333 0.000147 0.000028  -0.004944 0.004446 -0.737404
11  3.883505 -0.047269 0.431381  -0.156587 0.297040 -1.174331
12  1.719572 -0.000027 0.000015  0.319275 -0.218446 -1.398918
13  1.209178 0.000094 0.000012  0.001029 0.002802 -0.648631
14  3.859662 -0.138476 1.332408  0.084999 0.365849 -0.950111
15  1.719449 -0.000012 0.000022  0.624915 -0.234597 -1.649343
16  1.099674 0.000049 0.000005  0.001249 0.007265 -0.897875
17  0.805993 -0.349050 1.321252  -1.004830 -0.436822 -0.698668
18  1.789819 -0.000004 -0.000018  0.109460 -0.013079 0.104637
19  1.207018 -0.000010 -0.000043  -0.168957 0.349224 1.324858
20  5.740637 0.000409 -0.000703  0.108404 0.000003 0.000071
21  11.481060 0.000232 -0.000814  0.162545 -0.122530 0.002544
22  6.027526 -0.000330 0.000203  1.588329 -0.647501 1.598753
23  0.000002 11.692098 -0.000007  -0.841221 -0.314761 -0.681758
24  0.000003 0.000008 -0.000001  0.317109 -0.000031 1.570738
25  -0.000000 -0.000011 0.000000  0.868957 0.000002 1.570712
26  -4.110751 -3.692282 2.046260  1.473120 1.855075 -0.198639
27  6.027510 -0.000259 -0.000227  1.519188 0.733606 -0.629044
28  11.691990 0.000244 0.000858  0.617933 0.000057 -1.634932
29  11.479294 -0.000357 0.001262  -1.795470 1.012778 0.360231
30  3.840239 -0.256104 1.127581  0.295546 0.139683 -1.669741
31  1.312558 0.000025 0.000001  0.010552 -0.001809 -0.117851
32  0.729345 0.000066 -0.000027  0.000413 -0.002204 -1.216053
33  3.942046 0.050109 0.430998  0.289854 0.021571 -1.314220
34  1.539095 0.000010 -0.000000  0.003529 -0.030507 -0.899996
35  1.196299 0.000077 -0.000003  0.003213 -0.000660 -1.346235
36  3.883411 -0.050502 -0.431086  0.205962 -0.055410 -1.138183
37  1.719562 -0.000079 -0.000003  -0.025251 0.013579 -1.531538
38  1.209195 0.000036 0.000011  0.025602 -0.125409 -0.740152
39  3.806436 -0.112148 -1.295329  -0.233658 0.088381 -0.443525
40  1.719412 -0.000100 -0.000034  0.041984 0.149566 -1.273773
41  1.099674 0.000025 0.000006  -0.237119 0.151816 -0.888566
42  0.805979 -0.359854 -1.318337  1.328333 0.252814 -0.645919
43  1.789778 -0.000008 -0.000042  0.068853 0.027685 -0.239620
44  1.206996 -0.000005 0.000006  0.004778 0.068187 0.264913
45  5.740572 0.000055 0.000725  0.017661 -0.000014 0.000021
46  11.480803 -0.000036 0.001002  -0.069987 0.172619 0.076690
47  6.027514 -0.000273 -0.000237  -0.890550 -0.533115 -1.639072
48  -0.000001 11.691974 -0.000006  -1.108857 0.552301 0.858385
49  0.000005 -0.000002 -0.000001  2.890460 -0.000041 1.570856
50  -0.000007 -0.000015 0.000005  2.272644 -0.000030 1.570865
51  -3.130425 -11.392326 -6.986777  -0.193736 -2.922314 1.077886
52  -0.000000 0.000000 0.000000  0.008153 -0.000259 0.000009
53  0.000000 -0.000000 0.000001  1.565115 0.043565 -0.106862
54  -1.673698 -18.681755 -7.574580  0.400529 -0.483397 -1.526692
55  -0.000001 0.000000 0.000000  0.000000 -0.000000 -0.000002
56  0.000031 0.000029 0.000001  -1.571902 -0.044449 -0.106509
57  8.802561 -11.771522 -19.009918  1.570796 -0.000000 0.000000
58  -15.265000 7.133661 -18.583086  1.570796 -0.000000 0.000000
59  1.339387 -1.728622 -3.701813  1.570796 -0.000000 0.000000
60  -0.004311 0.001230 -0.000371  0.006898 -0.005534 -0.284229
61  2.046263 4.364841 -3.388127  1.570796 -0.000000 0.000000
62  0.000000 0.000000 0.000000  -0.078727 -3.136056 0.284226
63  0.000000 0.000000 0.000000  1.570796 -0.000000 0.000000
64  -3.274067 -15.341454 -4.433983  1.570796 -0.000000 0.000000
65  0.000000 0.106749 0.631994  0.000000 -0.000000 0.000000
66  0.000000 0.621414 -3.753305  0.000000 -0.000000 0.000000
67  0.000000 0.532204 8.683752  0.000000 -0.000000 0.000000
68  -0.000000 -1.186305 0.340612  0.000000 -0.000000 0.000000
69  0.000000 1.996277 -5.696260  0.000000 -0.000000 0.000000
70  0.000000 0.111713 1.276772  -0.280884 -0.000000 -0.000000
71  -1.117962 0.703408 5.154791  0.021679 -0.015647 0.000000
72  -3.346308 -14.955638 -7.617660  1.570796 -0.000000 0.000000
73  0.036712 3.547556 -0.615411  -0.000000 0.000000 -0.000000
74  -0.076920 3.276581 -0.615410  -0.000000 0.000000 -0.000000
75  0.045456 3.053679 -0.615411  -0.000000 0.000000 -0.000000
76  -0.000000 1.834484 -0.723263  -0.000000 0.000000 -0.000000
77  -0.000000 1.834484 -0.560888  -0.000000 0.000000 -0.000000
78  -0.000000 1.834484 -0.409514  -0.000000 0.000000 -0.000000
79  -3.085819 -14.993874 -6.906840  1.593314 -0.053389 -0.015666
end
