version 1
nodes
0 "ValveBiped.Bip01_Spine4" -1
1 "ValveBiped.Bip01_L_Clavicle" 0
2 "ValveBiped.Bip01_L_UpperArm" 1
3 "ValveBiped.Bip01_L_Forearm" 2
4 "ValveBiped.Bip01_L_Hand" 3
5 "ValveBiped.Bip01_L_Finger4" 4
6 "ValveBiped.Bip01_L_Finger41" 5
7 "ValveBiped.Bip01_L_Finger42" 6
8 "ValveBiped.Bip01_L_Finger3" 4
9 "ValveBiped.Bip01_L_Finger31" 8
10 "ValveBiped.Bip01_L_Finger32" 9
11 "ValveBiped.Bip01_L_Finger2" 4
12 "ValveBiped.Bip01_L_Finger21" 11
13 "ValveBiped.Bip01_L_Finger22" 12
14 "ValveBiped.Bip01_L_Finger1" 4
15 "ValveBiped.Bip01_L_Finger11" 14
16 "ValveBiped.Bip01_L_Finger12" 15
17 "ValveBiped.Bip01_L_Finger0" 4
18 "ValveBiped.Bip01_L_Finger01" 17
19 "ValveBiped.Bip01_L_Finger02" 18
20 "ValveBiped.Bip01_L_Ulna" 3
21 "ValveBiped.Bip01_L_Wrist" 3
22 "rig_l_upperarm" 1
23 "rig_l_forearm" 22
24 "rig_d_l_forearm" 23
25 "rig_d_l_upperarm" 22
26 "ValveBiped.Bip01_R_Clavicle" 0
27 "ValveBiped.Bip01_R_UpperArm" 26
28 "ValveBiped.Bip01_R_Forearm" 27
29 "ValveBiped.Bip01_R_Hand" 28
30 "ValveBiped.Bip01_R_Finger4" 29
31 "ValveBiped.Bip01_R_Finger41" 30
32 "ValveBiped.Bip01_R_Finger42" 31
33 "ValveBiped.Bip01_R_Finger3" 29
34 "ValveBiped.Bip01_R_Finger31" 33
35 "ValveBiped.Bip01_R_Finger32" 34
36 "ValveBiped.Bip01_R_Finger2" 29
37 "ValveBiped.Bip01_R_Finger21" 36
38 "ValveBiped.Bip01_R_Finger22" 37
39 "ValveBiped.Bip01_R_Finger1" 29
40 "ValveBiped.Bip01_R_Finger11" 39
41 "ValveBiped.Bip01_R_Finger12" 40
42 "ValveBiped.Bip01_R_Finger0" 29
43 "ValveBiped.Bip01_R_Finger01" 42
44 "ValveBiped.Bip01_R_Finger02" 43
45 "ValveBiped.Bip01_R_Ulna" 28
46 "ValveBiped.Bip01_R_Wrist" 28
47 "rig_r_upperarm" 26
48 "rig_r_forearm" 47
49 "rig_d_r_forearm" 48
50 "rig_d_r_upperarm" 47
51 "rig_r_hand" -1
52 "rig_d_r_hand" 51
53 "rig_d_r_wrist" 52
54 "rig_l_hand" -1
55 "rig_d_l_hand" 54
56 "rig_d_l_wrist" 54
57 "rig_l_pole" -1
58 "rig_r_pole" -1
59 "rig_l_clavicle" -1
60 "rig_d_l_clavicle" 59
61 "rig_r_clavicle" -1
62 "rig_d_r_clavicle" 61
63 "Camera" -1
64 "body" -1
65 "trigger" 64
66 "bolt" 64
67 "barrel" 64
68 "magrel" 64
69 "chandle" 64
70 "boltrelease" 64
71 "laseradj" 64
72 "mag" -1
73 "bullet1" 72
74 "bullet2" 72
75 "bullet3" 72
76 "round1" 72
77 "round2" 72
78 "round3" 72
79 "mag2" -1
end
skeleton
time 0
0  0.000006 0.000000 0.000000  -1.570800 -1.391899 -1.570792
1  -3.333990 2.359167 1.335070  -1.544956 -1.855077 -0.198630
2  6.027525 -0.000323 0.000193  -0.725017 -0.923176 -1.513779
3  11.692109 0.000643 -0.000740  -0.551974 -0.000007 -1.189458
4  11.480259 0.000138 -0.000775  2.489352 -0.669981 -0.265278
5  3.806287 -0.372254 -1.110994  -0.529793 -0.073810 -1.897370
6  1.312589 0.000011 0.000008  0.103432 -0.025446 -0.129301
7  0.729355 0.000053 0.000050  -0.076005 -0.077877 -0.849610
8  3.942143 0.046274 -0.431513  -0.300837 0.240743 -1.342798
9  1.539111 0.000085 0.000005  0.288969 -0.244282 -1.112656
10  1.196332 0.000149 0.000029  -0.004944 0.004446 -0.737404
11  3.883505 -0.047268 0.431381  -0.156587 0.297040 -1.174331
12  1.719573 -0.000028 0.000015  0.319275 -0.218446 -1.398918
13  1.209178 0.000091 0.000013  0.001029 0.002802 -0.648631
14  3.859662 -0.138475 1.332410  0.084999 0.365849 -0.950111
15  1.719448 -0.000012 0.000022  0.624915 -0.234597 -1.649343
16  1.099674 0.000049 0.000005  0.001249 0.007265 -0.897875
17  0.805993 -0.349049 1.321253  -1.004830 -0.436822 -0.698668
18  1.789820 -0.000005 -0.000018  0.109460 -0.013079 0.104637
19  1.207017 -0.000011 -0.000044  -0.168957 0.349224 1.324858
20  5.740638 0.000410 -0.000703  0.108404 0.000003 0.000071
21  11.481062 0.000233 -0.000814  0.162546 -0.122530 0.002544
22  6.027526 -0.000330 0.000203  1.588329 -0.647501 1.598753
23  0.000001 11.692100 -0.000008  -0.841222 -0.314761 -0.681758
24  0.000003 0.000008 -0.000002  0.317109 -0.000031 1.570739
25  -0.000001 -0.000011 -0.000002  0.868957 0.000002 1.570712
26  -4.110751 -3.692282 2.046260  1.473120 1.855075 -0.198639
27  6.027510 -0.000259 -0.000227  1.519188 0.733606 -0.629044
28  11.691990 0.000244 0.000858  0.617933 0.000057 -1.634932
29  11.479294 -0.000357 0.001262  -1.795470 1.012778 0.360231
30  3.840239 -0.256104 1.127581  0.295546 0.139683 -1.669741
31  1.312558 0.000025 0.000001  0.010552 -0.001809 -0.117851
32  0.729345 0.000066 -0.000027  0.000413 -0.002204 -1.216053
33  3.942046 0.050109 0.430998  0.289854 0.021571 -1.314220
34  1.539095 0.000010 -0.000000  0.003529 -0.030507 -0.899996
35  1.196299 0.000077 -0.000003  0.003213 -0.000660 -1.346235
36  3.883411 -0.050502 -0.431086  0.205962 -0.055410 -1.138183
37  1.719562 -0.000079 -0.000003  -0.025251 0.013579 -1.531538
38  1.209195 0.000036 0.000011  0.025602 -0.125409 -0.740152
39  3.806436 -0.112148 -1.295329  -0.233658 0.088381 -0.443525
40  1.719412 -0.000100 -0.000034  0.041984 0.149566 -1.273773
41  1.099674 0.000025 0.000006  -0.237119 0.151816 -0.888566
42  0.805979 -0.359854 -1.318337  1.328333 0.252814 -0.645919
43  1.789778 -0.000008 -0.000042  0.068853 0.027685 -0.239620
44  1.206996 -0.000005 0.000006  0.004778 0.068187 0.264913
45  5.740572 0.000055 0.000725  0.017661 -0.000014 0.000021
46  11.480803 -0.000036 0.001002  -0.069987 0.172619 0.076690
47  6.027514 -0.000273 -0.000237  -0.890550 -0.533115 -1.639072
48  -0.000001 11.691974 -0.000006  -1.108857 0.552301 0.858385
49  0.000005 -0.000002 -0.000001  2.890460 -0.000041 1.570856
50  -0.000007 -0.000015 0.000005  2.272644 -0.000030 1.570865
51  -3.130425 -11.392326 -6.986777  -0.193736 -2.922314 1.077886
52  -0.000000 0.000000 0.000000  0.008153 -0.000259 0.000009
53  0.000000 -0.000000 0.000001  1.565115 0.043565 -0.106862
54  -1.673697 -18.681751 -7.574580  0.400529 -0.483397 -1.526692
55  0.000001 0.000001 0.000001  0.000000 -0.000000 -0.000002
56  0.000030 0.000029 0.000001  -1.571902 -0.044449 -0.106509
57  8.802561 -11.771522 -19.009918  1.570796 -0.000000 0.000000
58  -15.265000 7.133661 -18.583086  1.570796 -0.000000 0.000000
59  1.339387 -1.728622 -3.701813  1.570796 -0.000000 0.000000
60  -0.004311 0.001230 -0.000371  0.006898 -0.005534 -0.284229
61  2.046263 4.364841 -3.388127  1.570796 -0.000000 0.000000
62  0.000000 0.000000 0.000000  -0.078727 -3.136056 0.284226
63  0.000000 0.000000 0.000000  1.570796 -0.000000 0.000000
64  -3.274067 -15.341454 -4.433983  1.570796 -0.000000 0.000000
65  0.000000 0.106749 0.631994  0.000000 -0.000000 0.000000
66  0.000000 0.621414 -3.753305  0.000000 -0.000000 0.000000
67  0.000000 0.532204 8.683752  0.000000 -0.000000 0.000000
68  -0.000000 -1.186305 0.340612  0.000000 -0.000000 0.000000
69  0.000000 1.996277 -5.696260  0.000000 -0.000000 0.000000
70  0.000000 0.111713 1.276772  -0.280884 -0.000000 -0.000000
71  -1.117962 0.703408 5.154791  0.021679 -0.015647 0.000000
72  -3.346308 -14.955638 -7.617660  1.570796 -0.000000 0.000000
73  0.036712 3.547556 -0.615411  -0.000000 0.000000 -0.000000
74  -0.076920 3.276581 -0.615410  -0.000000 0.000000 -0.000000
75  0.045456 3.053679 -0.615411  -0.000000 0.000000 -0.000000
76  -0.000000 1.834484 -0.723263  -0.000000 0.000000 -0.000000
77  -0.000000 1.834484 -0.560888  -0.000000 0.000000 -0.000000
78  -0.000000 1.834484 -0.409514  -0.000000 0.000000 -0.000000
79  -3.085819 10.006128 -14.906840  1.593314 -0.053389 -0.015666
time 1
0  0.000006 0.000000 0.000000  -1.570800 -1.391899 -1.570792
1  -3.333990 2.359167 1.335070  -1.544956 -1.855077 -0.198630
2  6.027525 -0.000323 0.000193  -0.724478 -0.921861 -1.512709
3  11.692111 0.000644 -0.000740  -0.551974 -0.000007 -1.191226
4  11.480249 0.000131 -0.000779  2.487614 -0.673243 -0.264713
5  3.806285 -0.372255 -1.110991  -0.529793 -0.073810 -1.897370
6  1.312589 0.000013 0.000008  0.103432 -0.025446 -0.129301
7  0.729355 0.000054 0.000050  -0.076005 -0.077877 -0.849610
8  3.942141 0.046273 -0.431511  -0.300837 0.240743 -1.342798
9  1.539111 0.000083 0.000005  0.288969 -0.244282 -1.112656
10  1.196334 0.000145 0.000029  -0.004944 0.004446 -0.737404
11  3.883506 -0.047269 0.431382  -0.156588 0.297040 -1.174330
12  1.719573 -0.000028 0.000015  0.319275 -0.218446 -1.398918
13  1.209179 0.000093 0.000012  0.001029 0.002802 -0.648631
14  3.859663 -0.138475 1.332409  0.084999 0.365849 -0.950111
15  1.719448 -0.000010 0.000024  0.624915 -0.234597 -1.649343
16  1.099676 0.000050 0.000005  0.001249 0.007265 -0.897875
17  0.805993 -0.349050 1.321255  -0.997647 -0.446736 -0.704369
18  1.789820 -0.000004 -0.000019  0.116078 -0.001634 0.149532
19  1.207015 -0.000011 -0.000043  -0.156517 0.286941 1.292779
20  5.740637 0.000410 -0.000703  0.107783 0.000003 0.000071
21  11.481058 0.000231 -0.000816  0.162084 -0.123085 0.002788
22  6.027526 -0.000330 0.000203  1.587969 -0.648825 1.600470
23  0.000001 11.692098 -0.000008  -0.842324 -0.315613 -0.682558
24  0.000003 0.000008 -0.000002  0.317109 -0.000031 1.570738
25  -0.000001 -0.000012 -0.000001  0.868957 0.000002 1.570712
26  -4.110751 -3.692282 2.046260  1.473120 1.855075 -0.198639
27  6.027510 -0.000259 -0.000227  1.519650 0.731955 -0.628637
28  11.691990 0.000243 0.000857  0.617933 0.000057 -1.637126
29  11.479278 -0.000362 0.001265  -1.796188 1.012063 0.362469
30  3.840238 -0.256103 1.127580  0.295546 0.139683 -1.669742
31  1.312558 0.000025 0.000000  0.010552 -0.001809 -0.117851
32  0.729345 0.000067 -0.000027  0.000413 -0.002203 -1.216053
33  3.942045 0.050109 0.430997  0.289854 0.021571 -1.314220
34  1.539097 0.000010 -0.000000  0.003529 -0.030507 -0.899996
35  1.196299 0.000078 -0.000004  0.003213 -0.000660 -1.346235
36  3.883410 -0.050502 -0.431087  0.205962 -0.055410 -1.138183
37  1.719563 -0.000081 -0.000004  -0.025251 0.013579 -1.531538
38  1.209196 0.000038 0.000011  0.025602 -0.125409 -0.740152
39  3.806435 -0.112148 -1.295330  -0.233658 0.088381 -0.443525
40  1.719413 -0.000099 -0.000034  0.041983 0.149566 -1.273773
41  1.099673 0.000026 0.000006  -0.237119 0.151816 -0.888566
42  0.805978 -0.359854 -1.318339  1.328333 0.252814 -0.645919
43  1.789778 -0.000009 -0.000042  0.068853 0.027685 -0.239620
44  1.206997 -0.000007 0.000005  0.004778 0.068187 0.264913
45  5.740572 0.000055 0.000724  0.017361 -0.000014 0.000021
46  11.480799 -0.000037 0.001002  -0.070253 0.172404 0.077159
47  6.027514 -0.000273 -0.000237  -0.888713 -0.533701 -1.639908
48  -0.000002 11.691973 -0.000006  -1.110144 0.553569 0.859126
49  0.000003 -0.000002 -0.000000  2.890460 -0.000041 1.570856
50  -0.000007 -0.000015 0.000005  2.272644 -0.000030 1.570865
51  -3.140604 -11.373752 -6.988802  -0.196222 -2.922955 1.078719
52  0.000000 0.000000 -0.000000  0.008153 -0.000259 0.000009
53  -0.000000 -0.000000 -0.000000  1.565115 0.043565 -0.106862
54  -1.682832 -18.661728 -7.591763  0.398546 -0.481603 -1.525478
55  0.000000 0.000000 -0.000001  0.000000 -0.000000 -0.000002
56  0.000032 0.000028 -0.000001  -1.571901 -0.044449 -0.106509
57  8.802561 -11.771522 -19.009918  1.570796 -0.000000 0.000000
58  -15.265000 7.133661 -18.583086  1.570796 -0.000000 0.000000
59  1.339387 -1.728622 -3.701813  1.570796 -0.000000 0.000000
60  -0.004311 0.001230 -0.000371  0.006898 -0.005534 -0.284229
61  2.046263 4.364841 -3.388127  1.570796 -0.000000 0.000000
62  0.000000 0.000000 0.000000  -0.078727 -3.136056 0.284226
63  0.000000 0.000000 0.000000  1.570796 -0.000000 0.000000
64  -3.278407 -15.327286 -4.442517  1.572509 0.001835 0.000295
65  0.000000 0.106749 0.631995  -0.000000 -0.000000 0.000000
66  0.000000 0.621414 -3.753306  -0.000000 -0.000000 0.000000
67  0.000001 0.532203 8.683752  -0.000000 -0.000000 0.000000
68  -0.000000 -1.186306 0.340614  -0.000000 -0.000000 0.000000
69  0.000000 1.996276 -5.696260  -0.000000 -0.000000 0.000000
70  0.000000 0.111713 1.276771  -0.280884 -0.000000 -0.000000
71  -1.117961 0.703408 5.154791  0.021679 -0.015647 0.000000
72  -3.356605 -14.936039 -7.625390  1.572509 0.001835 0.000295
73  0.036713 3.547556 -0.615410  -0.000000 -0.000000 0.000000
74  -0.076920 3.276581 -0.615409  -0.000000 -0.000000 0.000000
75  0.045457 3.053679 -0.615410  -0.000000 -0.000000 0.000000
76  0.000000 1.834484 -0.723263  -0.000000 -0.000000 0.000000
77  -0.000000 1.834484 -0.560888  -0.000000 -0.000000 0.000000
78  -0.000000 1.834484 -0.409514  -0.000000 -0.000000 0.000000
79  -3.116776 10.038249 -14.872265  1.595000 -0.051527 -0.015461
time 2
0  0.000006 0.000000 0.000000  -1.570800 -1.391899 -1.570792
1  -3.333990 2.359167 1.335070  -1.544956 -1.855077 -0.198630
2  6.027525 -0.000323 0.000193  -0.721593 -0.919215 -1.511541
3  11.692112 0.000645 -0.000740  -0.551974 -0.000007 -1.193423
4  11.480241 0.000128 -0.000782  2.479094 -0.683429 -0.264481
5  3.806287 -0.372255 -1.110993  -0.529793 -0.073810 -1.897370
6  1.312590 0.000010 0.000008  0.103432 -0.025446 -0.129301
7  0.729355 0.000051 0.000050  -0.076005 -0.077877 -0.849610
8  3.942144 0.046273 -0.431512  -0.300837 0.240743 -1.342798
9  1.539110 0.000082 0.000005  0.288969 -0.244282 -1.112656
10  1.196332 0.000145 0.000029  -0.004944 0.004446 -0.737404
11  3.883505 -0.047269 0.431381  -0.156588 0.297040 -1.174330
12  1.719571 -0.000025 0.000015  0.319275 -0.218446 -1.398918
13  1.209179 0.000092 0.000011  0.001029 0.002802 -0.648631
14  3.859663 -0.138475 1.332409  0.084999 0.365849 -0.950111
15  1.719450 -0.000012 0.000023  0.624915 -0.234597 -1.649343
16  1.099674 0.000051 0.000005  0.001249 0.007265 -0.897875
17  0.805994 -0.349050 1.321253  -0.978386 -0.472493 -0.719796
18  1.789821 -0.000003 -0.000018  0.135845 0.026897 0.267843
19  1.207015 -0.000012 -0.000044  -0.114752 0.124537 1.206097
20  5.740636 0.000410 -0.000704  0.105236 0.000003 0.000071
21  11.481056 0.000231 -0.000815  0.160005 -0.124892 0.003030
22  6.027526 -0.000330 0.000203  1.585864 -0.651516 1.605209
23  0.000002 11.692097 -0.000007  -0.843694 -0.316672 -0.683550
24  0.000003 0.000008 -0.000002  0.317109 -0.000031 1.570738
25  -0.000000 -0.000012 -0.000000  0.868957 0.000002 1.570712
26  -4.110751 -3.692282 2.046260  1.473120 1.855075 -0.198639
27  6.027510 -0.000259 -0.000227  1.521812 0.728568 -0.626890
28  11.691992 0.000243 0.000856  0.617933 0.000057 -1.641525
29  11.479249 -0.000375 0.001276  -1.803983 1.008536 0.365928
30  3.840237 -0.256104 1.127581  0.295546 0.139683 -1.669742
31  1.312559 0.000024 0.000000  0.010552 -0.001809 -0.117851
32  0.729345 0.000064 -0.000027  0.000413 -0.002204 -1.216053
33  3.942044 0.050109 0.430997  0.289854 0.021571 -1.314220
34  1.539098 0.000011 0.000000  0.003529 -0.030507 -0.899996
35  1.196299 0.000075 -0.000004  0.003213 -0.000660 -1.346235
36  3.883410 -0.050501 -0.431087  0.205962 -0.055410 -1.138183
37  1.719562 -0.000078 -0.000003  -0.025251 0.013579 -1.531538
38  1.209196 0.000038 0.000011  0.025602 -0.125409 -0.740152
39  3.806435 -0.112148 -1.295329  -0.233658 0.088381 -0.443525
40  1.719412 -0.000099 -0.000035  0.041983 0.149566 -1.273773
41  1.099673 0.000025 0.000006  -0.237119 0.151816 -0.888567
42  0.805978 -0.359854 -1.318338  1.328333 0.252814 -0.645919
43  1.789781 -0.000008 -0.000042  0.068853 0.027685 -0.239620
44  1.206995 -0.000007 0.000006  0.004778 0.068187 0.264913
45  5.740573 0.000054 0.000724  0.015593 -0.000014 0.000021
46  11.480796 -0.000040 0.001005  -0.071719 0.171384 0.078509
47  6.027514 -0.000273 -0.000237  -0.884385 -0.534127 -1.641805
48  -0.000002 11.691973 -0.000007  -1.112723 0.556115 0.860607
49  0.000004 -0.000000 -0.000001  2.890460 -0.000041 1.570856
50  -0.000007 -0.000015 0.000004  2.272644 -0.000030 1.570865
51  -3.173272 -11.337859 -6.984919  -0.207048 -2.923108 1.081718
52  -0.000000 0.000000 0.000001  0.008153 -0.000259 0.000009
53  -0.000001 -0.000000 0.000000  1.565115 0.043565 -0.106862
54  -1.716565 -18.621675 -7.638619  0.388412 -0.476052 -1.520158
55  -0.000000 0.000000 -0.000000  0.000000 -0.000000 -0.000002
56  0.000031 0.000029 0.000000  -1.571902 -0.044449 -0.106509
57  8.802561 -11.771522 -19.009918  1.570796 -0.000000 0.000000
58  -15.265000 7.133661 -18.583086  1.570796 -0.000000 0.000000
59  1.339387 -1.728622 -3.701813  1.570796 -0.000000 0.000000
60  -0.004311 0.001230 -0.000371  0.006898 -0.005534 -0.284229
61  2.046263 4.364841 -3.388127  1.570796 -0.000000 0.000000
62  0.000000 0.000000 0.000000  -0.078727 -3.136056 0.284226
63  0.000000 0.000000 0.000000  1.570796 -0.000000 0.000000
64  -3.285032 -15.304448 -4.457731  1.577629 0.011082 0.000979
65  -0.000000 0.106748 0.631996  -0.000000 -0.000000 0.000000
66  0.000000 0.621414 -3.753306  -0.000000 -0.000000 0.000000
67  0.000000 0.532203 8.683754  -0.000000 -0.000000 0.000000
68  -0.000000 -1.186306 0.340613  -0.000000 -0.000000 0.000000
69  -0.000000 1.996276 -5.696261  -0.000000 -0.000000 0.000000
70  -0.000000 0.111713 1.276771  -0.280884 -0.000000 -0.000000
71  -1.117962 0.703407 5.154790  0.021679 -0.015647 0.000000
72  -3.392917 -14.896993 -7.637702  1.577629 0.011082 0.000979
73  0.036713 3.547556 -0.615411  -0.000000 -0.000000 0.000000
74  -0.076920 3.276581 -0.615408  -0.000000 -0.000000 0.000000
75  0.045456 3.053680 -0.615409  -0.000000 -0.000000 0.000000
76  -0.000000 1.834484 -0.723263  -0.000000 -0.000000 0.000000
77  -0.000000 1.834484 -0.560888  -0.000000 -0.000000 0.000000
78  -0.000000 1.834484 -0.409514  -0.000000 -0.000000 0.000000
79  -3.235821 10.114163 -14.758599  1.599978 -0.042201 -0.015043
time 3
0  0.000006 0.000000 0.000000  -1.570800 -1.391899 -1.570792
1  -3.333990 2.359167 1.335070  -1.544956 -1.855077 -0.198630
2  6.027525 -0.000323 0.000193  -0.718304 -0.918012 -1.512097
3  11.692110 0.000643 -0.000741  -0.551974 -0.000007 -1.192682
4  11.480242 0.000129 -0.000781  2.469474 -0.692563 -0.266040
5  3.806287 -0.372255 -1.110994  -0.529793 -0.073810 -1.897370
6  1.312590 0.000010 0.000008  0.103432 -0.025446 -0.129301
7  0.729355 0.000053 0.000050  -0.076004 -0.077877 -0.849610
8  3.942142 0.046273 -0.431513  -0.300837 0.240742 -1.342798
9  1.539111 0.000084 0.000005  0.288969 -0.244282 -1.112656
10  1.196332 0.000147 0.000028  -0.004944 0.004446 -0.737404
11  3.883506 -0.047269 0.431380  -0.156588 0.297040 -1.174330
12  1.719573 -0.000027 0.000014  0.319275 -0.218446 -1.398918
13  1.209179 0.000092 0.000011  0.001029 0.002802 -0.648631
14  3.859662 -0.138475 1.332409  0.084999 0.365849 -0.950111
15  1.719449 -0.000012 0.000021  0.624915 -0.234597 -1.649343
16  1.099673 0.000050 0.000006  0.001249 0.007265 -0.897875
17  0.805993 -0.349051 1.321252  -0.958412 -0.497975 -0.735995
18  1.789821 -0.000002 -0.000020  0.158868 0.052888 0.386822
19  1.207014 -0.000012 -0.000045  -0.059442 -0.033564 1.113377
20  5.740636 0.000410 -0.000705  0.102510 0.000003 0.000071
21  11.481055 0.000230 -0.000817  0.157694 -0.126608 0.002761
22  6.027526 -0.000330 0.000203  1.583387 -0.652765 1.608770
23  0.000001 11.692098 -0.000008  -0.843232 -0.316314 -0.683216
24  0.000002 0.000008 -0.000000  0.317109 -0.000030 1.570739
25  -0.000000 -0.000012 -0.000000  0.868957 0.000002 1.570712
26  -4.110751 -3.692282 2.046260  1.473120 1.855075 -0.198639
27  6.027510 -0.000259 -0.000227  1.524230 0.726932 -0.625013
28  11.691989 0.000244 0.000856  0.617933 0.000057 -1.643218
29  11.479237 -0.000379 0.001280  -1.815729 1.003798 0.365327
30  3.840238 -0.256103 1.127579  0.295546 0.139683 -1.669741
31  1.312558 0.000026 -0.000001  0.010552 -0.001809 -0.117851
32  0.729345 0.000064 -0.000026  0.000413 -0.002204 -1.216053
33  3.942045 0.050109 0.430996  0.289854 0.021571 -1.314219
34  1.539097 0.000010 0.000000  0.003529 -0.030507 -0.899996
35  1.196300 0.000074 -0.000004  0.003213 -0.000660 -1.346235
36  3.883411 -0.050502 -0.431088  0.205962 -0.055410 -1.138183
37  1.719563 -0.000077 -0.000004  -0.025251 0.013579 -1.531538
38  1.209195 0.000037 0.000011  0.025602 -0.125409 -0.740152
39  3.806435 -0.112147 -1.295330  -0.233658 0.088381 -0.443525
40  1.719411 -0.000099 -0.000034  0.041983 0.149566 -1.273773
41  1.099674 0.000025 0.000007  -0.237119 0.151816 -0.888566
42  0.805979 -0.359854 -1.318338  1.328333 0.252814 -0.645919
43  1.789780 -0.000009 -0.000043  0.068853 0.027685 -0.239620
44  1.206998 -0.000007 0.000005  0.004778 0.068187 0.264913
45  5.740572 0.000055 0.000724  0.013268 -0.000014 0.000021
46  11.480792 -0.000041 0.001007  -0.073521 0.170092 0.079489
47  6.027514 -0.000273 -0.000237  -0.881665 -0.533453 -1.642921
48  -0.000001 11.691973 -0.000006  -1.113715 0.557095 0.861175
49  0.000004 -0.000001 -0.000000  2.890460 -0.000041 1.570856
50  -0.000007 -0.000015 0.000005  2.272644 -0.000030 1.570865
51  -3.203887 -11.325521 -6.976146  -0.219048 -2.921502 1.085166
52  0.000001 -0.000001 -0.000000  0.008153 -0.000259 0.000009
53  -0.000000 -0.000000 -0.000001  1.565115 0.043565 -0.106862
54  -1.748592 -18.605368 -7.675618  0.376201 -0.471394 -1.513750
55  -0.000001 -0.000000 -0.000001  0.000000 -0.000000 -0.000002
56  0.000030 0.000028 0.000000  -1.571902 -0.044449 -0.106509
57  8.802561 -11.771522 -19.009918  1.570796 -0.000000 0.000000
58  -15.265000 7.133661 -18.583086  1.570796 -0.000000 0.000000
59  1.339387 -1.728622 -3.701813  1.570796 -0.000000 0.000000
60  -0.004311 0.001230 -0.000371  0.006898 -0.005534 -0.284229
61  2.046263 4.364841 -3.388127  1.570796 -0.000000 0.000000
62  0.000000 0.000000 0.000000  -0.078727 -3.136056 0.284226
63  0.000000 0.000000 0.000000  1.570796 -0.000000 0.000000
64  -3.284348 -15.302437 -4.464041  1.581712 0.022177 0.001885
65  -0.000000 0.106750 0.631994  -0.000000 -0.000000 0.000000
66  -0.000000 0.621415 -3.753306  -0.000000 -0.000000 0.000000
67  0.000000 0.532204 8.683752  -0.000000 -0.000000 0.000000
68  -0.000000 -1.186304 0.340613  -0.000000 -0.000000 0.000000
69  0.000000 1.996277 -5.696260  -0.000000 -0.000000 0.000000
70  0.000000 0.111713 1.276770  -0.280884 -0.000000 -0.000000
71  -1.117962 0.703409 5.154788  0.021679 -0.015647 0.000000
72  -3.427865 -14.882164 -7.640934  1.581712 0.022177 0.001885
73  0.036713 3.547557 -0.615411  -0.000000 -0.000000 0.000000
74  -0.076920 3.276581 -0.615409  -0.000000 -0.000000 0.000000
75  0.045457 3.053679 -0.615411  -0.000000 -0.000000 0.000000
76  -0.000000 1.834484 -0.723263  -0.000000 -0.000000 0.000000
77  0.000000 1.834484 -0.560889  -0.000000 -0.000000 0.000000
78  0.000000 1.834484 -0.409516  -0.000000 -0.000000 0.000000
79  -3.370223 10.157831 -14.661265  1.603883 -0.031041 -0.014348
time 4
0  0.000006 0.000000 0.000000  -1.570800 -1.391899 -1.570792
1  -3.333990 2.359167 1.335070  -1.544956 -1.855077 -0.198630
2  6.027525 -0.000323 0.000193  -0.720158 -0.920799 -1.513997
3  11.692112 0.000644 -0.000740  -0.551974 -0.000007 -1.188419
4  11.480265 0.000138 -0.000777  2.473446 -0.684836 -0.267400
5  3.806287 -0.372256 -1.110993  -0.529793 -0.073810 -1.897370
6  1.312590 0.000013 0.000008  0.103432 -0.025446 -0.129301
7  0.729355 0.000052 0.000050  -0.076005 -0.077877 -0.849610
8  3.942145 0.046273 -0.431512  -0.300837 0.240743 -1.342798
9  1.539111 0.000083 0.000004  0.288969 -0.244282 -1.112656
10  1.196333 0.000145 0.000030  -0.004944 0.004446 -0.737404
11  3.883506 -0.047269 0.431382  -0.156588 0.297040 -1.174330
12  1.719573 -0.000025 0.000014  0.319275 -0.218446 -1.398918
13  1.209179 0.000092 0.000012  0.001029 0.002802 -0.648631
14  3.859665 -0.138475 1.332410  0.084999 0.365849 -0.950111
15  1.719446 -0.000012 0.000022  0.624915 -0.234597 -1.649343
16  1.099676 0.000051 0.000006  0.001249 0.007265 -0.897875
17  0.805993 -0.349050 1.321254  -0.950581 -0.507637 -0.742399
18  1.789819 -0.000002 -0.000018  0.168430 0.062035 0.432315
19  1.207014 -0.000012 -0.000045  -0.034608 -0.091913 1.075848
20  5.740636 0.000412 -0.000704  0.104015 0.000003 0.000071
21  11.481060 0.000233 -0.000816  0.158758 -0.125289 0.002184
22  6.027526 -0.000330 0.000203  1.584724 -0.649954 1.604585
23  0.000002 11.692099 -0.000008  -0.840574 -0.314261 -0.681288
24  0.000004 0.000008 -0.000002  0.317109 -0.000030 1.570739
25  -0.000001 -0.000011 -0.000001  0.868957 0.000002 1.570712
26  -4.110751 -3.692282 2.046260  1.473120 1.855075 -0.198639
27  6.027510 -0.000259 -0.000227  1.522675 0.730878 -0.626312
28  11.691992 0.000244 0.000858  0.617933 0.000057 -1.637655
29  11.479272 -0.000366 0.001267  -1.813907 1.005387 0.360072
30  3.840238 -0.256102 1.127580  0.295546 0.139683 -1.669742
31  1.312558 0.000025 0.000000  0.010552 -0.001809 -0.117851
32  0.729345 0.000067 -0.000027  0.000413 -0.002204 -1.216053
33  3.942046 0.050109 0.430996  0.289854 0.021571 -1.314220
34  1.539095 0.000011 -0.000000  0.003529 -0.030507 -0.899996
35  1.196300 0.000076 -0.000003  0.003213 -0.000660 -1.346235
36  3.883410 -0.050501 -0.431088  0.205962 -0.055410 -1.138183
37  1.719563 -0.000079 -0.000004  -0.025251 0.013579 -1.531538
38  1.209196 0.000036 0.000011  0.025602 -0.125409 -0.740152
39  3.806435 -0.112147 -1.295330  -0.233658 0.088381 -0.443525
40  1.719411 -0.000099 -0.000034  0.041983 0.149566 -1.273773
41  1.099672 0.000025 0.000006  -0.237119 0.151816 -0.888567
42  0.805979 -0.359854 -1.318339  1.328334 0.252814 -0.645919
43  1.789778 -0.000008 -0.000042  0.068853 0.027685 -0.239620
44  1.206996 -0.000006 0.000005  0.004778 0.068187 0.264913
45  5.740571 0.000055 0.000723  0.013887 -0.000014 0.000021
46  11.480799 -0.000038 0.001003  -0.072873 0.170590 0.078376
47  6.027514 -0.000273 -0.000237  -0.886268 -0.532362 -1.640846
48  -0.000002 11.691974 -0.000006  -1.110454 0.553875 0.859304
49  0.000003 -0.000001 -0.000001  2.890460 -0.000041 1.570856
50  -0.000008 -0.000015 0.000005  2.272644 -0.000030 1.570865
51  -3.176893 -11.372021 -6.976955  -0.213314 -2.920402 1.083416
52  0.000000 -0.000000 0.000000  0.008153 -0.000259 0.000009
53  -0.000001 0.000001 -0.000000  1.565115 0.043565 -0.106862
54  -1.722175 -18.655037 -7.643852  0.380948 -0.475224 -1.516408
55  -0.000001 -0.000000 0.000000  0.000000 -0.000000 -0.000002
56  0.000031 0.000029 0.000001  -1.571901 -0.044449 -0.106509
57  8.802561 -11.771522 -19.009918  1.570796 -0.000000 0.000000
58  -15.265000 7.133661 -18.583086  1.570796 -0.000000 0.000000
59  1.339387 -1.728622 -3.701813  1.570796 -0.000000 0.000000
60  -0.004311 0.001230 -0.000371  0.006898 -0.005534 -0.284229
61  2.046263 4.364841 -3.388127  1.570796 -0.000000 0.000000
62  0.000000 0.000000 0.000000  -0.078727 -3.136056 0.284226
63  0.000000 0.000000 0.000000  1.570796 -0.000000 0.000000
64  -3.270483 -15.339851 -4.450981  1.578115 0.017752 0.001318
65  -0.000000 0.106750 0.631994  -0.000000 -0.000000 -0.000000
66  -0.000000 0.621415 -3.753306  -0.000000 -0.000000 -0.000000
67  0.000000 0.532204 8.683752  -0.000000 -0.000000 -0.000000
68  -0.000001 -1.186304 0.340612  -0.000000 -0.000000 -0.000000
69  -0.000000 1.996278 -5.696261  -0.000000 -0.000000 -0.000000
70  -0.000000 0.111714 1.276770  -0.280884 -0.000000 -0.000000
71  -1.117962 0.703409 5.154789  0.021679 -0.015647 0.000000
72  -3.399713 -14.930914 -7.629965  1.578115 0.017752 0.001318
73  0.036713 3.547556 -0.615411  -0.000000 -0.000000 -0.000000
74  -0.076920 3.276580 -0.615410  -0.000000 -0.000000 -0.000000
75  0.045457 3.053679 -0.615411  -0.000000 -0.000000 -0.000000
76  0.000000 1.834484 -0.723262  -0.000000 -0.000000 -0.000000
77  0.000000 1.834484 -0.560888  -0.000000 -0.000000 -0.000000
78  0.000000 1.834484 -0.409515  -0.000000 -0.000000 -0.000000
79  -3.298374 10.083689 -14.739759  1.600357 -0.035524 -0.014726
time 5
0  0.000006 0.000000 0.000000  -1.570800 -1.391899 -1.570792
1  -3.333990 2.359167 1.335070  -1.544956 -1.855077 -0.198630
2  6.027525 -0.000323 0.000193  -0.722996 -0.925066 -1.516872
3  11.692110 0.000642 -0.000740  -0.551973 -0.000006 -1.182507
4  11.480297 0.000152 -0.000767  2.480502 -0.672574 -0.268956
5  3.806287 -0.372255 -1.110992  -0.529793 -0.073810 -1.897370
6  1.312590 0.000008 0.000008  0.103432 -0.025446 -0.129301
7  0.729355 0.000053 0.000050  -0.076005 -0.077877 -0.849610
8  3.942143 0.046274 -0.431512  -0.300837 0.240743 -1.342798
9  1.539112 0.000086 0.000006  0.288969 -0.244282 -1.112656
10  1.196331 0.000148 0.000029  -0.004944 0.004446 -0.737404
11  3.883505 -0.047269 0.431380  -0.156588 0.297040 -1.174330
12  1.719574 -0.000026 0.000015  0.319275 -0.218446 -1.398918
13  1.209178 0.000093 0.000011  0.001029 0.002802 -0.648631
14  3.859663 -0.138475 1.332409  0.084999 0.365849 -0.950111
15  1.719451 -0.000011 0.000023  0.624915 -0.234597 -1.649343
16  1.099676 0.000048 0.000006  0.001249 0.007265 -0.897875
17  0.805993 -0.349050 1.321253  -0.955627 -0.501432 -0.738269
18  1.789820 -0.000002 -0.000019  0.162238 0.056209 0.403077
19  1.207013 -0.000013 -0.000044  -0.050810 -0.054568 1.100118
20  5.740637 0.000410 -0.000702  0.106541 0.000003 0.000071
21  11.481068 0.000235 -0.000812  0.160617 -0.123169 0.001425
22  6.027526 -0.000330 0.000203  1.586738 -0.645646 1.598232
23  0.000002 11.692099 -0.000007  -0.836884 -0.311423 -0.678607
24  0.000004 0.000008 -0.000001  0.317109 -0.000031 1.570739
25  -0.000000 -0.000011 -0.000000  0.868957 0.000002 1.570712
26  -4.110751 -3.692282 2.046260  1.473120 1.855075 -0.198639
27  6.027510 -0.000259 -0.000227  1.520315 0.736721 -0.628293
28  11.691992 0.000244 0.000858  0.617933 0.000056 -1.629664
29  11.479326 -0.000340 0.001252  -1.809417 1.008379 0.352975
30  3.840240 -0.256104 1.127581  0.295546 0.139683 -1.669742
31  1.312558 0.000027 -0.000000  0.010552 -0.001809 -0.117851
32  0.729345 0.000066 -0.000027  0.000413 -0.002204 -1.216053
33  3.942045 0.050110 0.430997  0.289854 0.021571 -1.314220
34  1.539097 0.000009 -0.000000  0.003529 -0.030507 -0.899996
35  1.196299 0.000076 -0.000004  0.003213 -0.000660 -1.346235
36  3.883411 -0.050501 -0.431087  0.205962 -0.055410 -1.138183
37  1.719564 -0.000079 -0.000003  -0.025251 0.013579 -1.531538
38  1.209196 0.000035 0.000011  0.025602 -0.125409 -0.740152
39  3.806436 -0.112148 -1.295329  -0.233658 0.088381 -0.443525
40  1.719410 -0.000099 -0.000034  0.041984 0.149566 -1.273773
41  1.099673 0.000027 0.000007  -0.237119 0.151816 -0.888567
42  0.805979 -0.359853 -1.318338  1.328333 0.252814 -0.645919
43  1.789778 -0.000009 -0.000042  0.068853 0.027685 -0.239620
44  1.206998 -0.000006 0.000005  0.004778 0.068187 0.264913
45  5.740572 0.000055 0.000725  0.015166 -0.000014 0.000021
46  11.480809 -0.000032 0.001000  -0.071676 0.171490 0.076686
47  6.027514 -0.000273 -0.000237  -0.893094 -0.530749 -1.637787
48  0.000000 11.691974 -0.000006  -1.105768 0.549259 0.856600
49  0.000003 -0.000001 0.000000  2.890460 -0.000041 1.570856
50  -0.000007 -0.000015 0.000005  2.272644 -0.000030 1.570865
51  -3.135140 -11.438597 -6.976536  -0.203346 -2.919043 1.080323
52  0.000001 -0.000000 0.000000  0.008153 -0.000259 0.000009
53  0.000001 0.000000 0.000000  1.565115 0.043565 -0.106862
54  -1.681886 -18.726612 -7.589858  0.389549 -0.481396 -1.521267
55  0.000001 -0.000000 -0.000000  0.000000 -0.000000 -0.000002
56  0.000033 0.000029 0.000000  -1.571901 -0.044449 -0.106509
57  8.802561 -11.771522 -19.009918  1.570796 -0.000000 0.000000
58  -15.265000 7.133661 -18.583086  1.570796 -0.000000 0.000000
59  1.339387 -1.728622 -3.701813  1.570796 -0.000000 0.000000
60  -0.004311 0.001230 -0.000371  0.006898 -0.005534 -0.284229
61  2.046263 4.364841 -3.388127  1.570796 -0.000000 0.000000
62  0.000000 0.000000 0.000000  -0.078727 -3.136056 0.284226
63  0.000000 0.000000 0.000000  1.570796 -0.000000 0.000000
64  -3.252451 -15.391701 -4.428557  1.572341 0.009810 0.000339
65  0.000000 0.106749 0.631995  0.000000 -0.000000 -0.000000
66  -0.000000 0.621414 -3.753306  0.000000 -0.000000 -0.000000
67  0.000000 0.532203 8.683755  0.000000 -0.000000 -0.000000
68  -0.000000 -1.186305 0.340613  0.000000 -0.000000 -0.000000
69  0.000000 1.996277 -5.696259  0.000000 -0.000000 -0.000000
70  0.000000 0.111713 1.276772  -0.280884 -0.000000 -0.000000
71  -1.117961 0.703408 5.154790  0.021679 -0.015647 -0.000000
72  -3.356046 -15.001003 -7.610773  1.572341 0.009810 0.000339
73  0.036712 3.547556 -0.615411  0.000000 -0.000000 -0.000000
74  -0.076921 3.276581 -0.615410  0.000000 -0.000000 -0.000000
75  0.045456 3.053680 -0.615411  0.000000 -0.000000 -0.000000
76  -0.000000 1.834484 -0.723263  0.000000 -0.000000 -0.000000
77  -0.000000 1.834484 -0.560888  0.000000 -0.000000 -0.000000
78  -0.000000 1.834484 -0.409514  0.000000 -0.000000 -0.000000
79  -3.175167 9.972054 -14.863596  1.594706 -0.043557 -0.015402
time 6
0  0.000006 0.000000 0.000000  -1.570800 -1.391899 -1.570792
1  -3.333990 2.359167 1.335070  -1.544956 -1.855077 -0.198630
2  6.027525 -0.000323 0.000193  -0.724034 -0.927821 -1.519152
3  11.692110 0.000643 -0.000741  -0.551973 -0.000006 -1.178626
4  11.480316 0.000160 -0.000764  2.483977 -0.665848 -0.270412
5  3.806288 -0.372256 -1.110993  -0.529793 -0.073810 -1.897370
6  1.312590 0.000012 0.000007  0.103432 -0.025446 -0.129301
7  0.729355 0.000051 0.000050  -0.076005 -0.077877 -0.849610
8  3.942144 0.046272 -0.431513  -0.300837 0.240743 -1.342798
9  1.539111 0.000083 0.000005  0.288969 -0.244282 -1.112656
10  1.196333 0.000144 0.000028  -0.004944 0.004446 -0.737404
11  3.883502 -0.047269 0.431381  -0.156588 0.297040 -1.174330
12  1.719574 -0.000025 0.000015  0.319275 -0.218446 -1.398918
13  1.209180 0.000090 0.000012  0.001029 0.002802 -0.648631
14  3.859662 -0.138476 1.332410  0.084999 0.365849 -0.950111
15  1.719448 -0.000013 0.000021  0.624915 -0.234597 -1.649343
16  1.099675 0.000049 0.000004  0.001249 0.007265 -0.897875
17  0.805993 -0.349050 1.321253  -0.969600 -0.483853 -0.726897
18  1.789822 -0.000001 -0.000019  0.145700 0.038796 0.320679
19  1.207015 -0.000013 -0.000043  -0.091872 0.053478 1.165783
20  5.740637 0.000410 -0.000703  0.107792 0.000003 0.000071
21  11.481071 0.000237 -0.000813  0.161536 -0.122043 0.000864
22  6.027526 -0.000330 0.000203  1.587424 -0.642875 1.594710
23  0.000001 11.692099 -0.000008  -0.834459 -0.309564 -0.676842
24  0.000001 0.000008 -0.000001  0.317109 -0.000031 1.570738
25  -0.000002 -0.000011 -0.000001  0.868957 0.000002 1.570712
26  -4.110751 -3.692282 2.046260  1.473120 1.855075 -0.198639
27  6.027510 -0.000259 -0.000227  1.519315 0.740150 -0.629171
28  11.691990 0.000243 0.000855  0.617933 0.000056 -1.624943
29  11.479360 -0.000327 0.001242  -1.808408 1.009699 0.347846
30  3.840240 -0.256103 1.127581  0.295546 0.139683 -1.669742
31  1.312558 0.000025 -0.000000  0.010552 -0.001809 -0.117850
32  0.729345 0.000066 -0.000028  0.000413 -0.002204 -1.216053
33  3.942046 0.050108 0.430997  0.289854 0.021571 -1.314220
34  1.539097 0.000010 0.000001  0.003529 -0.030507 -0.899996
35  1.196300 0.000077 -0.000004  0.003213 -0.000660 -1.346235
36  3.883412 -0.050502 -0.431087  0.205962 -0.055410 -1.138183
37  1.719564 -0.000079 -0.000004  -0.025251 0.013579 -1.531538
38  1.209199 0.000034 0.000011  0.025602 -0.125409 -0.740152
39  3.806436 -0.112147 -1.295329  -0.233658 0.088381 -0.443525
40  1.719411 -0.000099 -0.000035  0.041984 0.149566 -1.273773
41  1.099673 0.000025 0.000007  -0.237119 0.151816 -0.888567
42  0.805979 -0.359854 -1.318338  1.328333 0.252814 -0.645919
43  1.789780 -0.000009 -0.000042  0.068853 0.027685 -0.239620
44  1.206995 -0.000008 0.000005  0.004778 0.068187 0.264913
45  5.740573 0.000055 0.000725  0.015705 -0.000014 0.000021
46  11.480818 -0.000030 0.000998  -0.071163 0.171902 0.075672
47  6.027514 -0.000273 -0.000237  -0.896914 -0.529546 -1.636060
48  -0.000002 11.691974 -0.000006  -1.102999 0.546536 0.854995
49  0.000004 -0.000002 -0.000000  2.890460 -0.000041 1.570856
50  -0.000007 -0.000015 0.000005  2.272644 -0.000030 1.570865
51  -3.114336 -11.478237 -6.973628  -0.198364 -2.917565 1.078668
52  0.000000 0.000000 -0.000000  0.008153 -0.000259 0.000009
53  0.000000 -0.000000 0.000001  1.565115 0.043565 -0.106862
54  -1.662964 -18.769203 -7.555537  0.393398 -0.485160 -1.523607
55  0.000000 0.000000 0.000001  0.000000 -0.000000 -0.000002
56  0.000030 0.000029 0.000001  -1.571902 -0.044449 -0.106509
57  8.802561 -11.771522 -19.009918  1.570796 -0.000000 0.000000
58  -15.265000 7.133661 -18.583086  1.570796 -0.000000 0.000000
59  1.339387 -1.728622 -3.701813  1.570796 -0.000000 0.000000
60  -0.004311 0.001230 -0.000371  0.006898 -0.005534 -0.284229
61  2.046263 4.364841 -3.388127  1.570796 -0.000000 0.000000
62  0.000000 0.000000 0.000000  -0.078727 -3.136056 0.284226
63  0.000000 0.000000 0.000000  1.570796 -0.000000 0.000000
64  -3.242989 -15.422091 -4.411897  1.568746 0.006224 -0.000242
65  0.000000 0.106749 0.631994  0.000000 -0.000000 -0.000000
66  0.000000 0.621414 -3.753307  0.000000 -0.000000 -0.000000
67  0.000001 0.532203 8.683752  0.000000 -0.000000 -0.000000
68  -0.000000 -1.186306 0.340613  0.000000 -0.000000 -0.000000
69  0.000000 1.996276 -5.696260  0.000000 -0.000000 -0.000000
70  0.000000 0.111712 1.276771  -0.280884 -0.000000 -0.000000
71  -1.117961 0.703407 5.154790  0.021679 -0.015647 -0.000000
72  -3.334957 -15.042782 -7.595846  1.568746 0.006224 -0.000242
73  0.036712 3.547556 -0.615412  0.000000 -0.000000 -0.000000
74  -0.076920 3.276580 -0.615410  0.000000 -0.000000 -0.000000
75  0.045457 3.053679 -0.615410  0.000000 -0.000000 -0.000000
76  0.000000 1.834484 -0.723263  0.000000 -0.000000 -0.000000
77  0.000000 1.834484 -0.560888  0.000000 -0.000000 -0.000000
78  0.000000 1.834483 -0.409515  0.000000 -0.000000 -0.000000
79  -3.114127 9.903934 -14.937675  1.591164 -0.047198 -0.015793
time 7
0  0.000006 0.000000 0.000000  -1.570800 -1.391899 -1.570792
1  -3.333990 2.359167 1.335070  -1.544956 -1.855077 -0.198630
2  6.027525 -0.000323 0.000193  -0.724515 -0.925153 -1.516116
3  11.692110 0.000642 -0.000740  -0.551974 -0.000006 -1.185551
4  11.480278 0.000145 -0.000773  2.486243 -0.669059 -0.267975
5  3.806284 -0.372255 -1.110992  -0.529793 -0.073810 -1.897370
6  1.312590 0.000010 0.000007  0.103432 -0.025446 -0.129301
7  0.729356 0.000056 0.000050  -0.076005 -0.077877 -0.849610
8  3.942142 0.046273 -0.431512  -0.300837 0.240743 -1.342798
9  1.539110 0.000083 0.000005  0.288969 -0.244282 -1.112656
10  1.196332 0.000146 0.000029  -0.004944 0.004446 -0.737404
11  3.883503 -0.047269 0.431381  -0.156588 0.297040 -1.174330
12  1.719572 -0.000028 0.000015  0.319275 -0.218446 -1.398918
13  1.209178 0.000090 0.000011  0.001029 0.002802 -0.648631
14  3.859661 -0.138476 1.332409  0.084999 0.365849 -0.950111
15  1.719449 -0.000012 0.000022  0.624915 -0.234597 -1.649343
16  1.099672 0.000052 0.000006  0.001249 0.007265 -0.897875
17  0.805993 -0.349051 1.321252  -0.987031 -0.461079 -0.712847
18  1.789820 -0.000003 -0.000018  0.126635 0.014495 0.215140
19  1.207014 -0.000011 -0.000043  -0.134961 0.196445 1.245215
20  5.740636 0.000410 -0.000704  0.107738 0.000003 0.000071
21  11.481065 0.000233 -0.000814  0.161896 -0.122504 0.001742
22  6.027526 -0.000330 0.000203  1.587879 -0.645533 1.597089
23  0.000003 11.692097 -0.000007  -0.838784 -0.312883 -0.679988
24  0.000003 0.000009 -0.000001  0.317109 -0.000031 1.570739
25  -0.000001 -0.000012 0.000000  0.868957 0.000002 1.570712
26  -4.110751 -3.692282 2.046260  1.473120 1.855075 -0.198639
27  6.027510 -0.000259 -0.000227  1.519483 0.736254 -0.628911
28  11.691991 0.000244 0.000857  0.617933 0.000056 -1.631409
29  11.479316 -0.000347 0.001255  -1.803929 1.011389 0.353368
30  3.840239 -0.256103 1.127581  0.295546 0.139683 -1.669742
31  1.312558 0.000027 0.000000  0.010552 -0.001809 -0.117850
32  0.729345 0.000064 -0.000028  0.000413 -0.002203 -1.216053
33  3.942046 0.050110 0.430996  0.289854 0.021571 -1.314220
34  1.539097 0.000010 -0.000000  0.003529 -0.030507 -0.899996
35  1.196299 0.000074 -0.000003  0.003213 -0.000660 -1.346235
36  3.883411 -0.050501 -0.431087  0.205962 -0.055410 -1.138183
37  1.719562 -0.000080 -0.000003  -0.025251 0.013579 -1.531538
38  1.209195 0.000037 0.000011  0.025602 -0.125409 -0.740152
39  3.806436 -0.112148 -1.295329  -0.233658 0.088381 -0.443525
40  1.719410 -0.000099 -0.000034  0.041983 0.149566 -1.273773
41  1.099673 0.000024 0.000007  -0.237119 0.151816 -0.888566
42  0.805980 -0.359854 -1.318338  1.328333 0.252814 -0.645919
43  1.789778 -0.000009 -0.000042  0.068853 0.027685 -0.239620
44  1.206997 -0.000007 0.000005  0.004778 0.068187 0.264913
45  5.740573 0.000054 0.000723  0.016548 -0.000014 0.000021
46  11.480807 -0.000033 0.001000  -0.070858 0.172246 0.076251
47  6.027514 -0.000273 -0.000237  -0.893016 -0.531520 -1.637884
48  -0.000002 11.691975 -0.000007  -1.106791 0.550266 0.857192
49  0.000005 -0.000001 -0.000001  2.890460 -0.000041 1.570856
50  -0.000008 -0.000015 0.000005  2.272644 -0.000030 1.570865
51  -3.123789 -11.423362 -6.976153  -0.197013 -2.918975 1.078439
52  -0.000000 0.000000 0.000001  0.008153 -0.000259 0.000009
53  -0.000000 0.000000 0.000000  1.565115 0.043565 -0.106862
54  -1.670838 -18.713863 -7.559930  0.395495 -0.484626 -1.524514
55  -0.000000 0.000000 0.000000  0.000000 -0.000000 -0.000002
56  0.000032 0.000029 0.000001  -1.571901 -0.044449 -0.106509
57  8.802561 -11.771522 -19.009918  1.570796 -0.000000 0.000000
58  -15.265000 7.133661 -18.583086  1.570796 -0.000000 0.000000
59  1.339387 -1.728622 -3.701813  1.570796 -0.000000 0.000000
60  -0.004311 0.001230 -0.000371  0.006898 -0.005534 -0.284229
61  2.046263 4.364841 -3.388127  1.570796 -0.000000 0.000000
62  0.000000 0.000000 0.000000  -0.078727 -3.136056 0.284226
63  0.000000 0.000000 0.000000  1.570796 -0.000000 0.000000
64  -3.256845 -15.368812 -4.417107  1.569366 0.004396 -0.000168
65  -0.000000 0.106749 0.631993  -0.000000 0.000000 0.000000
66  0.000000 0.621414 -3.753305  -0.000000 0.000000 0.000000
67  0.000001 0.532204 8.683752  -0.000000 0.000000 0.000000
68  -0.000000 -1.186306 0.340613  -0.000000 0.000000 0.000000
69  0.000000 1.996277 -5.696260  -0.000000 0.000000 0.000000
70  -0.000000 0.111714 1.276771  -0.280884 -0.000000 -0.000000
71  -1.117961 0.703408 5.154791  0.021679 -0.015647 -0.000000
72  -3.343020 -14.987535 -7.600984  1.569366 0.004396 -0.000168
73  0.036712 3.547557 -0.615409  -0.000000 0.000000 0.000000
74  -0.076920 3.276581 -0.615408  -0.000000 0.000000 0.000000
75  0.045456 3.053680 -0.615410  -0.000000 0.000000 0.000000
76  -0.000000 1.834485 -0.723261  -0.000000 0.000000 0.000000
77  -0.000000 1.834485 -0.560886  -0.000000 0.000000 0.000000
78  -0.000000 1.834485 -0.409513  -0.000000 0.000000 0.000000
79  -3.110540 9.963744 -14.926929  1.591813 -0.049016 -0.015754
time 8
0  0.000006 0.000000 0.000000  -1.570800 -1.391899 -1.570792
1  -3.333990 2.359167 1.335070  -1.544956 -1.855077 -0.198630
2  6.027525 -0.000323 0.000193  -0.724916 -0.923577 -1.514253
3  11.692110 0.000643 -0.000740  -0.551974 -0.000007 -1.188762
4  11.480264 0.000137 -0.000776  2.488962 -0.669659 -0.265910
5  3.806289 -0.372256 -1.110995  -0.529793 -0.073810 -1.897370
6  1.312590 0.000009 0.000009  0.103432 -0.025446 -0.129301
7  0.729354 0.000054 0.000049  -0.076005 -0.077877 -0.849610
8  3.942142 0.046273 -0.431512  -0.300837 0.240742 -1.342798
9  1.539111 0.000083 0.000003  0.288969 -0.244282 -1.112656
10  1.196332 0.000147 0.000027  -0.004944 0.004446 -0.737404
11  3.883503 -0.047269 0.431381  -0.156588 0.297040 -1.174330
12  1.719574 -0.000027 0.000015  0.319275 -0.218446 -1.398918
13  1.209180 0.000091 0.000012  0.001029 0.002802 -0.648631
14  3.859663 -0.138475 1.332409  0.084999 0.365849 -0.950111
15  1.719449 -0.000012 0.000022  0.624915 -0.234597 -1.649343
16  1.099674 0.000050 0.000004  0.001249 0.007265 -0.897875
17  0.805992 -0.349050 1.321252  -1.000224 -0.443199 -0.702320
18  1.789819 -0.000005 -0.000017  0.113652 -0.005693 0.133470
19  1.207014 -0.000014 -0.000044  -0.161185 0.309204 1.304288
20  5.740637 0.000410 -0.000705  0.108309 0.000003 0.000070
21  11.481062 0.000232 -0.000816  0.162460 -0.122507 0.002373
22  6.027526 -0.000330 0.000203  1.588238 -0.647102 1.598415
23  0.000001 11.692099 -0.000009  -0.840788 -0.314426 -0.681443
24  0.000002 0.000009 -0.000001  0.317109 -0.000031 1.570739
25  -0.000001 -0.000012 -0.000002  0.868957 0.000002 1.570712
26  -4.110751 -3.692282 2.046260  1.473120 1.855075 -0.198639
27  6.027510 -0.000259 -0.000227  1.519206 0.734063 -0.629046
28  11.691990 0.000244 0.000857  0.617933 0.000057 -1.634301
29  11.479296 -0.000355 0.001260  -1.797145 1.012602 0.358626
30  3.840239 -0.256103 1.127580  0.295546 0.139683 -1.669741
31  1.312558 0.000027 0.000000  0.010552 -0.001809 -0.117850
32  0.729345 0.000066 -0.000027  0.000413 -0.002204 -1.216053
33  3.942046 0.050109 0.430997  0.289854 0.021571 -1.314220
34  1.539097 0.000010 0.000000  0.003529 -0.030507 -0.899996
35  1.196300 0.000074 -0.000004  0.003213 -0.000660 -1.346235
36  3.883411 -0.050501 -0.431088  0.205962 -0.055410 -1.138183
37  1.719564 -0.000077 -0.000003  -0.025251 0.013579 -1.531538
38  1.209196 0.000036 0.000012  0.025602 -0.125409 -0.740152
39  3.806436 -0.112147 -1.295330  -0.233658 0.088381 -0.443525
40  1.719412 -0.000099 -0.000035  0.041983 0.149566 -1.273773
41  1.099673 0.000026 0.000008  -0.237119 0.151816 -0.888567
42  0.805979 -0.359854 -1.318339  1.328333 0.252814 -0.645919
43  1.789780 -0.000008 -0.000042  0.068853 0.027685 -0.239620
44  1.206996 -0.000005 0.000005  0.004778 0.068187 0.264913
45  5.740572 0.000057 0.000724  0.017470 -0.000014 0.000021
46  11.480803 -0.000035 0.001001  -0.070143 0.172570 0.076559
47  6.027514 -0.000273 -0.000237  -0.890991 -0.532861 -1.638862
48  -0.000001 11.691973 -0.000006  -1.108487 0.551936 0.858171
49  0.000003 -0.000001 -0.000001  2.890460 -0.000041 1.570856
50  -0.000007 -0.000015 0.000005  2.272644 -0.000030 1.570865
51  -3.129085 -11.397825 -6.985350  -0.194158 -2.921549 1.077916
52  -0.000001 -0.000001 -0.000001  0.008153 -0.000259 0.000009
53  -0.000000 0.000000 -0.000000  1.565115 0.043565 -0.106862
54  -1.673230 -18.687622 -7.570712  0.399687 -0.483844 -1.526362
55  -0.000002 -0.000000 0.000001  0.000000 -0.000000 -0.000002
56  0.000030 0.000028 0.000002  -1.571902 -0.044449 -0.106509
57  8.802561 -11.771522 -19.009918  1.570796 -0.000000 0.000000
58  -15.265000 7.133661 -18.583086  1.570796 -0.000000 0.000000
59  1.339387 -1.728622 -3.701813  1.570796 -0.000000 0.000000
60  -0.004311 0.001230 -0.000371  0.006898 -0.005534 -0.284229
61  2.046263 4.364841 -3.388127  1.570796 -0.000000 0.000000
62  0.000000 0.000000 0.000000  -0.078727 -3.136056 0.284226
63  0.000000 0.000000 0.000000  1.570796 -0.000000 0.000000
64  -3.271118 -15.345719 -4.430559  1.570317 0.000725 -0.000062
65  -0.000000 0.106749 0.631996  -0.000000 0.000000 -0.000000
66  -0.000000 0.621414 -3.753304  -0.000000 0.000000 -0.000000
67  0.000000 0.532204 8.683753  -0.000000 0.000000 -0.000000
68  -0.000001 -1.186305 0.340614  -0.000000 0.000000 -0.000000
69  0.000000 1.996277 -5.696259  -0.000000 0.000000 -0.000000
70  0.000000 0.111713 1.276772  -0.280884 -0.000000 -0.000000
71  -1.117962 0.703409 5.154792  0.021679 -0.015647 -0.000000
72  -3.345643 -14.961426 -7.614367  1.570317 0.000725 -0.000062
73  0.036712 3.547557 -0.615410  -0.000000 0.000000 -0.000000
74  -0.076921 3.276581 -0.615409  -0.000000 0.000000 -0.000000
75  0.045456 3.053679 -0.615409  -0.000000 0.000000 -0.000000
76  -0.000000 1.834484 -0.723262  -0.000000 0.000000 -0.000000
77  -0.000000 1.834484 -0.560888  -0.000000 0.000000 -0.000000
78  -0.000000 1.834484 -0.409514  -0.000000 0.000000 -0.000000
79  -3.088908 9.996826 -14.915704  1.592822 -0.052672 -0.015701
time 9
0  0.000006 0.000000 0.000000  -1.570800 -1.391899 -1.570792
1  -3.333990 2.359167 1.335070  -1.544956 -1.855077 -0.198630
2  6.027525 -0.000323 0.000193  -0.725017 -0.923176 -1.513779
3  11.692109 0.000643 -0.000740  -0.551974 -0.000007 -1.189458
4  11.480259 0.000138 -0.000775  2.489352 -0.669981 -0.265278
5  3.806287 -0.372254 -1.110994  -0.529793 -0.073810 -1.897370
6  1.312589 0.000011 0.000008  0.103432 -0.025446 -0.129301
7  0.729355 0.000053 0.000050  -0.076005 -0.077877 -0.849610
8  3.942143 0.046274 -0.431513  -0.300837 0.240743 -1.342798
9  1.539111 0.000085 0.000005  0.288969 -0.244282 -1.112656
10  1.196332 0.000149 0.000029  -0.004944 0.004446 -0.737404
11  3.883505 -0.047268 0.431381  -0.156587 0.297040 -1.174331
12  1.719573 -0.000028 0.000015  0.319275 -0.218446 -1.398918
13  1.209178 0.000091 0.000013  0.001029 0.002802 -0.648631
14  3.859662 -0.138475 1.332410  0.084999 0.365849 -0.950111
15  1.719448 -0.000012 0.000022  0.624915 -0.234597 -1.649343
16  1.099674 0.000049 0.000005  0.001249 0.007265 -0.897875
17  0.805993 -0.349049 1.321253  -1.004830 -0.436822 -0.698668
18  1.789820 -0.000005 -0.000018  0.109460 -0.013079 0.104637
19  1.207017 -0.000011 -0.000044  -0.168957 0.349224 1.324858
20  5.740638 0.000410 -0.000703  0.108404 0.000003 0.000071
21  11.481062 0.000233 -0.000814  0.162546 -0.122530 0.002544
22  6.027526 -0.000330 0.000203  1.588329 -0.647501 1.598753
23  0.000001 11.692100 -0.000008  -0.841222 -0.314761 -0.681758
24  0.000003 0.000008 -0.000002  0.317109 -0.000031 1.570739
25  -0.000001 -0.000011 -0.000002  0.868957 0.000002 1.570712
26  -4.110751 -3.692282 2.046260  1.473120 1.855075 -0.198639
27  6.027510 -0.000259 -0.000227  1.519188 0.733606 -0.629044
28  11.691990 0.000244 0.000858  0.617933 0.000057 -1.634932
29  11.479294 -0.000357 0.001262  -1.795470 1.012778 0.360231
30  3.840239 -0.256104 1.127581  0.295546 0.139683 -1.669741
31  1.312558 0.000025 0.000001  0.010552 -0.001809 -0.117851
32  0.729345 0.000066 -0.000027  0.000413 -0.002204 -1.216053
33  3.942046 0.050109 0.430998  0.289854 0.021571 -1.314220
34  1.539095 0.000010 -0.000000  0.003529 -0.030507 -0.899996
35  1.196299 0.000077 -0.000003  0.003213 -0.000660 -1.346235
36  3.883411 -0.050502 -0.431086  0.205962 -0.055410 -1.138183
37  1.719562 -0.000079 -0.000003  -0.025251 0.013579 -1.531538
38  1.209195 0.000036 0.000011  0.025602 -0.125409 -0.740152
39  3.806436 -0.112148 -1.295329  -0.233658 0.088381 -0.443525
40  1.719412 -0.000100 -0.000034  0.041984 0.149566 -1.273773
41  1.099674 0.000025 0.000006  -0.237119 0.151816 -0.888566
42  0.805979 -0.359854 -1.318337  1.328333 0.252814 -0.645919
43  1.789778 -0.000008 -0.000042  0.068853 0.027685 -0.239620
44  1.206996 -0.000005 0.000006  0.004778 0.068187 0.264913
45  5.740572 0.000055 0.000725  0.017661 -0.000014 0.000021
46  11.480803 -0.000036 0.001002  -0.069987 0.172619 0.076690
47  6.027514 -0.000273 -0.000237  -0.890550 -0.533115 -1.639072
48  -0.000001 11.691974 -0.000006  -1.108857 0.552301 0.858385
49  0.000005 -0.000002 -0.000001  2.890460 -0.000041 1.570856
50  -0.000007 -0.000015 0.000005  2.272644 -0.000030 1.570865
51  -3.130425 -11.392326 -6.986777  -0.193736 -2.922314 1.077886
52  -0.000000 0.000000 0.000000  0.008153 -0.000259 0.000009
53  0.000000 -0.000000 0.000001  1.565115 0.043565 -0.106862
54  -1.673697 -18.681751 -7.574580  0.400529 -0.483397 -1.526692
55  0.000001 0.000001 0.000001  0.000000 -0.000000 -0.000002
56  0.000030 0.000029 0.000001  -1.571902 -0.044449 -0.106509
57  8.802561 -11.771522 -19.009918  1.570796 -0.000000 0.000000
58  -15.265000 7.133661 -18.583086  1.570796 -0.000000 0.000000
59  1.339387 -1.728622 -3.701813  1.570796 -0.000000 0.000000
60  -0.004311 0.001230 -0.000371  0.006898 -0.005534 -0.284229
61  2.046263 4.364841 -3.388127  1.570796 -0.000000 0.000000
62  0.000000 0.000000 0.000000  -0.078727 -3.136056 0.284226
63  0.000000 0.000000 0.000000  1.570796 -0.000000 0.000000
64  -3.274067 -15.341454 -4.433983  1.570796 -0.000000 0.000000
65  0.000000 0.106749 0.631994  0.000000 -0.000000 0.000000
66  0.000000 0.621414 -3.753305  0.000000 -0.000000 0.000000
67  0.000000 0.532204 8.683752  0.000000 -0.000000 0.000000
68  -0.000000 -1.186305 0.340612  0.000000 -0.000000 0.000000
69  0.000000 1.996277 -5.696260  0.000000 -0.000000 0.000000
70  0.000000 0.111713 1.276772  -0.280884 -0.000000 -0.000000
71  -1.117962 0.703408 5.154791  0.021679 -0.015647 0.000000
72  -3.346308 -14.955638 -7.617660  1.570796 -0.000000 0.000000
73  0.036712 3.547556 -0.615411  -0.000000 0.000000 -0.000000
74  -0.076920 3.276581 -0.615410  -0.000000 0.000000 -0.000000
75  0.045456 3.053679 -0.615411  -0.000000 0.000000 -0.000000
76  -0.000000 1.834484 -0.723263  -0.000000 0.000000 -0.000000
77  -0.000000 1.834484 -0.560888  -0.000000 0.000000 -0.000000
78  -0.000000 1.834484 -0.409514  -0.000000 0.000000 -0.000000
79  -3.085819 10.006128 -14.906840  1.593314 -0.053389 -0.015666
time 10
0  0.000006 0.000000 0.000000  -1.570800 -1.391899 -1.570792
1  -3.333990 2.359167 1.335070  -1.544956 -1.855077 -0.198630
2  6.027525 -0.000323 0.000193  -0.725017 -0.923176 -1.513779
3  11.692109 0.000643 -0.000740  -0.551974 -0.000007 -1.189458
4  11.480259 0.000138 -0.000775  2.489352 -0.669981 -0.265278
5  3.806287 -0.372254 -1.110994  -0.529793 -0.073810 -1.897370
6  1.312589 0.000011 0.000008  0.103432 -0.025446 -0.129301
7  0.729355 0.000053 0.000050  -0.076005 -0.077877 -0.849610
8  3.942143 0.046274 -0.431513  -0.300837 0.240743 -1.342798
9  1.539111 0.000085 0.000005  0.288969 -0.244282 -1.112656
10  1.196332 0.000149 0.000029  -0.004944 0.004446 -0.737404
11  3.883505 -0.047268 0.431381  -0.156587 0.297040 -1.174331
12  1.719573 -0.000028 0.000015  0.319275 -0.218446 -1.398918
13  1.209178 0.000091 0.000013  0.001029 0.002802 -0.648631
14  3.859662 -0.138475 1.332410  0.084999 0.365849 -0.950111
15  1.719448 -0.000012 0.000022  0.624915 -0.234597 -1.649343
16  1.099674 0.000049 0.000005  0.001249 0.007265 -0.897875
17  0.805993 -0.349049 1.321253  -1.004830 -0.436822 -0.698668
18  1.789820 -0.000005 -0.000018  0.109460 -0.013079 0.104637
19  1.207017 -0.000011 -0.000044  -0.168957 0.349224 1.324858
20  5.740638 0.000410 -0.000703  0.108404 0.000003 0.000071
21  11.481062 0.000233 -0.000814  0.162546 -0.122530 0.002544
22  6.027526 -0.000330 0.000203  1.588329 -0.647501 1.598753
23  0.000001 11.692100 -0.000008  -0.841222 -0.314761 -0.681758
24  0.000003 0.000008 -0.000002  0.317109 -0.000031 1.570739
25  -0.000001 -0.000011 -0.000002  0.868957 0.000002 1.570712
26  -4.110751 -3.692282 2.046260  1.473120 1.855075 -0.198639
27  6.027510 -0.000259 -0.000227  1.519188 0.733606 -0.629044
28  11.691990 0.000244 0.000858  0.617933 0.000057 -1.634932
29  11.479294 -0.000357 0.001262  -1.795470 1.012778 0.360231
30  3.840239 -0.256104 1.127581  0.295546 0.139683 -1.669741
31  1.312558 0.000025 0.000001  0.010552 -0.001809 -0.117851
32  0.729345 0.000066 -0.000027  0.000413 -0.002204 -1.216053
33  3.942046 0.050109 0.430998  0.289854 0.021571 -1.314220
34  1.539095 0.000010 -0.000000  0.003529 -0.030507 -0.899996
35  1.196299 0.000077 -0.000003  0.003213 -0.000660 -1.346235
36  3.883411 -0.050502 -0.431086  0.205962 -0.055410 -1.138183
37  1.719562 -0.000079 -0.000003  -0.025251 0.013579 -1.531538
38  1.209195 0.000036 0.000011  0.025602 -0.125409 -0.740152
39  3.806436 -0.112148 -1.295329  -0.233658 0.088381 -0.443525
40  1.719412 -0.000100 -0.000034  0.041984 0.149566 -1.273773
41  1.099674 0.000025 0.000006  -0.237119 0.151816 -0.888566
42  0.805979 -0.359854 -1.318337  1.328333 0.252814 -0.645919
43  1.789778 -0.000008 -0.000042  0.068853 0.027685 -0.239620
44  1.206996 -0.000005 0.000006  0.004778 0.068187 0.264913
45  5.740572 0.000055 0.000725  0.017661 -0.000014 0.000021
46  11.480803 -0.000036 0.001002  -0.069987 0.172619 0.076690
47  6.027514 -0.000273 -0.000237  -0.890550 -0.533115 -1.639072
48  -0.000001 11.691974 -0.000006  -1.108857 0.552301 0.858385
49  0.000005 -0.000002 -0.000001  2.890460 -0.000041 1.570856
50  -0.000007 -0.000015 0.000005  2.272644 -0.000030 1.570865
51  -3.130425 -11.392326 -6.986777  -0.193736 -2.922314 1.077886
52  -0.000000 0.000000 0.000000  0.008153 -0.000259 0.000009
53  0.000000 -0.000000 0.000001  1.565115 0.043565 -0.106862
54  -1.673697 -18.681751 -7.574580  0.400529 -0.483397 -1.526692
55  0.000001 0.000001 0.000001  0.000000 -0.000000 -0.000002
56  0.000030 0.000029 0.000001  -1.571902 -0.044449 -0.106509
57  8.802561 -11.771522 -19.009918  1.570796 -0.000000 0.000000
58  -15.265000 7.133661 -18.583086  1.570796 -0.000000 0.000000
59  1.339387 -1.728622 -3.701813  1.570796 -0.000000 0.000000
60  -0.004311 0.001230 -0.000371  0.006898 -0.005534 -0.284229
61  2.046263 4.364841 -3.388127  1.570796 -0.000000 0.000000
62  0.000000 0.000000 0.000000  -0.078727 -3.136056 0.284226
63  0.000000 0.000000 0.000000  1.570796 -0.000000 0.000000
64  -3.274067 -15.341454 -4.433983  1.570796 -0.000000 0.000000
65  0.000000 0.106749 0.631994  0.000000 -0.000000 0.000000
66  0.000000 0.621414 -3.753305  0.000000 -0.000000 0.000000
67  0.000000 0.532204 8.683752  0.000000 -0.000000 0.000000
68  -0.000000 -1.186305 0.340612  0.000000 -0.000000 0.000000
69  0.000000 1.996277 -5.696260  0.000000 -0.000000 0.000000
70  0.000000 0.111713 1.276772  -0.280884 -0.000000 -0.000000
71  -1.117962 0.703408 5.154791  0.021679 -0.015647 0.000000
72  -3.346308 -14.955638 -7.617660  1.570796 -0.000000 0.000000
73  0.036712 3.547556 -0.615411  -0.000000 0.000000 -0.000000
74  -0.076920 3.276581 -0.615410  -0.000000 0.000000 -0.000000
75  0.045456 3.053679 -0.615411  -0.000000 0.000000 -0.000000
76  -0.000000 1.834484 -0.723263  -0.000000 0.000000 -0.000000
77  -0.000000 1.834484 -0.560888  -0.000000 0.000000 -0.000000
78  -0.000000 1.834484 -0.409514  -0.000000 0.000000 -0.000000
79  -3.085819 10.006128 -14.906840  1.593314 -0.053389 -0.015666
end
