version 1
nodes
0 "root" -1
end
skeleton
time 0
0 0 0 0 0 0 0
end
triangles
lowpoly_metal.005
0  -0.206523 -0.615890 -3.451084  0.000000 0.141542 -0.989932  0.051269 0.712735 0
0  -0.334312 -0.706668 -3.464063  0.000000 0.141542 -0.989932  0.051368 0.712672 0
0  -0.298432 -0.615890 -3.451084  0.000000 0.141542 -0.989932  0.051340 0.712735 0
lowpoly_plastic.004
0  0.586767 -0.326264 -3.406270  0.999998 0.001457 -0.001185  0.052618 0.753343 0
0  0.585840 0.097575 -3.667131  0.999998 0.001457 -0.001185  0.052170 0.753487 0
0  0.586167 0.430243 -2.983204  0.999998 0.001457 -0.001185  0.052020 0.752784 0
lowpoly_plastic.004
0  -0.507590 -0.327385 0.306329  -0.765222 -0.629101 0.136629  0.050383 0.749937 0
0  -0.373451 -0.608370 -0.236181  -0.765222 -0.629101 0.136629  0.050249 0.750499 0
0  -0.373227 -0.487491 0.321655  -0.765222 -0.629101 0.136629  0.050234 0.749960 0
lowpoly_plastic.004
0  -0.328603 -0.798569 1.982594  -0.997672 -0.063953 -0.023675  0.049573 0.748507 0
0  -0.337580 -0.733665 2.185540  -0.997672 -0.063953 -0.023675  0.049586 0.748306 0
0  -0.373325 -0.324532 2.586644  -0.997672 -0.063953 -0.023675  0.049870 0.747845 0
lowpoly_metal.005
0  0.417169 -1.970953 -2.775865  0.958644 -0.181061 -0.219589  0.049709 0.712211 0
0  0.438135 -1.562952 -3.020748  0.958644 -0.181061 -0.219589  0.049356 0.712320 0
0  0.451715 -1.540663 -2.979843  0.958644 -0.181061 -0.219589  0.049347 0.712285 0
lowpoly_plastic.004
0  -0.507662 0.381924 2.678574  -1.000000 0.000209 -0.000093  0.050496 0.747600 0
0  -0.507590 -0.327385 0.306329  -1.000000 0.000209 -0.000093  0.050383 0.749937 0
0  -0.507772 -0.141026 2.686963  -1.000000 0.000209 -0.000093  0.050015 0.747711 0
lowpoly_plastic.004
0  -0.507552 1.643491 2.655709  0.415545 0.903296 -0.106668  0.054281 0.747339 0
0  -0.429978 1.467668 1.468994  0.415545 0.903296 -0.106668  0.054354 0.748472 0
0  -0.507375 1.401427 0.606528  0.415545 0.903296 -0.106668  0.054281 0.749287 0
lowpoly_plastic.004
0  0.476549 0.487953 2.888808  -0.474577 0.016244 0.880064  0.057067 0.753568 0
0  0.388101 1.646464 2.819728  -0.474577 0.016244 0.880064  0.056982 0.754665 0
0  0.387370 0.462511 2.841187  -0.474577 0.016244 0.880064  0.056982 0.753548 0
lowpoly_plastic.004
0  0.039428 0.664062 -2.528233  -0.185433 0.946626 -0.263656  0.054798 0.752322 0
0  -0.344082 0.256522 -3.721730  -0.185433 0.946626 -0.263656  0.054435 0.753497 0
0  -0.507311 0.430243 -2.983204  -0.185433 0.946626 -0.263656  0.054281 0.752782 0
lowpoly_plastic.004
0  0.452180 -0.324532 2.586644  0.002597 -0.499914 0.866071  0.056362 0.750970 0
0  0.454356 -0.150428 2.687134  0.002597 -0.499914 0.866071  0.056519 0.750968 0
0  0.322747 -0.310950 2.594872  0.002597 -0.499914 0.866071  0.056374 0.751092 0
lowpoly_metal.005
0  -0.126072 -1.415655 -3.135605  0.000000 -0.404526 -0.914526  0.046102 0.712982 0
0  0.191042 -1.910939 -2.916524  0.000000 -0.404526 -0.914526  0.045856 0.712564 0
0  -0.112186 -1.910939 -2.916524  0.000000 -0.404526 -0.914526  0.046091 0.712564 0
lowpoly_plastic.004
0  0.586952 -0.450579 -0.265943  1.000000 0.000036 -0.000019  0.053443 0.750490 0
0  0.586876 0.747242 -2.038397  1.000000 0.000036 -0.000019  0.051943 0.751845 0
0  0.586882 0.944007 -1.337550  1.000000 0.000036 -0.000019  0.051921 0.751158 0
lowpoly_metal.005
0  0.377165 -0.719890 -3.404374  -0.673539 -0.314344 -0.668979  0.048058 0.713106 0
0  0.430042 -1.372709 -3.150861  -0.673539 -0.314344 -0.668979  0.050775 0.712105 0
0  0.376243 -1.352756 -3.106071  -0.673539 -0.314344 -0.668979  0.050817 0.712109 0
lowpoly_metal.005
0  -0.126493 -1.909772 -2.863332  0.000001 -0.999759 0.021957  0.048634 0.712564 0
0  0.191042 -1.910939 -2.916524  0.000001 -0.999759 0.021957  0.048674 0.712811 0
0  0.205349 -1.909771 -2.863332  0.000001 -0.999759 0.021957  0.048634 0.712822 0
lowpoly_plastic.004
0  -0.248638 1.401427 0.606528  0.000000 0.997064 -0.076579  0.054525 0.749287 0
0  -0.507375 1.401427 0.606528  0.000000 0.997064 -0.076579  0.054281 0.749287 0
0  -0.429978 1.467668 1.468994  0.000000 0.997064 -0.076579  0.054354 0.748472 0
lowpoly_metal.005
0  -0.391664 1.535719 2.089615  -0.000050 0.940974 -0.338480  0.046754 0.713095 0
0  0.398046 1.480623 1.936332  -0.000050 0.940974 -0.338480  0.046873 0.712564 0
0  -0.286714 1.480553 1.936239  -0.000050 0.940974 -0.338480  0.046873 0.713095 0
lowpoly_metal.005
0  -0.391508 -0.254181 2.214137  -0.831096 -0.038668 -0.554783  0.052050 0.707524 0
0  -0.391664 1.535719 2.089615  -0.831096 -0.038668 -0.554783  0.052050 0.708831 0
0  -0.286714 1.480553 1.936239  -0.831096 -0.038668 -0.554783  0.051931 0.708831 0
lowpoly_metal.005
0  0.285333 -0.114560 2.330910  -0.000145 0.073946 0.997262  0.051837 0.708894 0
0  0.109340 1.428273 2.216486  -0.000145 0.073946 0.997262  0.051700 0.710095 0
0  0.109483 -0.114578 2.330886  -0.000145 0.073946 0.997262  0.051700 0.708894 0
lowpoly_metal.005
0  0.398229 -0.502692 2.083392  0.000152 -0.897453 -0.441111  0.046873 0.712564 0
0  -0.235105 -0.578140 2.236674  0.000152 -0.897453 -0.441111  0.046989 0.713095 0
0  -0.286530 -0.502763 2.083299  0.000152 -0.897453 -0.441111  0.046873 0.713095 0
lowpoly_metal.005
0  0.464422 -0.253890 2.214214  0.913688 -0.029969 -0.405309  0.051818 0.711802 0
0  0.398229 -0.502692 2.083392  0.913688 -0.029969 -0.405309  0.051937 0.711565 0
0  0.398046 1.480623 1.936332  0.913688 -0.029969 -0.405309  0.051937 0.713108 0
lowpoly_metal.005
0  -0.286530 -0.502763 2.083299  0.000144 -0.073946 -0.997262  0.051700 0.708831 0
0  0.398046 1.480623 1.936332  0.000144 -0.073946 -0.997262  0.051169 0.710327 0
0  0.398229 -0.502692 2.083392  0.000144 -0.073946 -0.997262  0.051169 0.708831 0
lowpoly_metal.005
0  0.370736 -0.123555 2.209494  -0.034581 0.073898 0.996666  0.051679 0.707574 0
0  0.464267 1.535788 2.089707  -0.034581 0.073898 0.996666  0.051700 0.708831 0
0  0.370593 1.419296 2.095094  -0.034581 0.073898 0.996666  0.051679 0.708774 0
lowpoly_metal.005
0  0.024116 -0.123591 2.209447  -0.000141 0.059869 0.998206  0.051410 0.707574 0
0  0.397597 -0.253831 2.217311  -0.000141 0.059869 0.998206  0.051685 0.707492 0
0  0.370736 -0.123555 2.209494  -0.000141 0.059869 0.998206  0.051679 0.707574 0
lowpoly_metal.005
0  0.024116 -0.123591 2.209447  -0.010548 0.069397 0.997533  0.051410 0.707574 0
0  -0.391508 -0.254181 2.214137  -0.010548 0.069397 0.997533  0.051169 0.707524 0
0  -0.095118 -0.253999 2.217258  -0.010548 0.069397 0.997533  0.051341 0.707492 0
lowpoly_metal.005
0  0.023973 1.419260 2.095047  -0.000111 0.046197 0.998932  0.051410 0.708774 0
0  0.464267 1.535788 2.089707  -0.000111 0.046197 0.998932  0.051700 0.708831 0
0  -0.391664 1.535719 2.089615  -0.000111 0.046197 0.998932  0.051169 0.708831 0
lowpoly_metal.005
0  0.370593 1.419296 2.095094  0.818669 0.042539 0.572689  0.052063 0.711527 0
0  0.285333 -0.114560 2.330910  0.818669 0.042539 0.572689  0.051969 0.710328 0
0  0.370736 -0.123555 2.209494  0.818669 0.042539 0.572689  0.052063 0.710327 0
lowpoly_plastic.004
0  0.394979 -1.047727 0.436747  0.247355 -0.950043 0.190354  0.055345 0.749194 0
0  0.039428 -1.357808 -0.648822  0.247355 -0.950043 0.190354  0.055681 0.750260 0
0  0.394979 -1.267588 -0.660563  0.247355 -0.950043 0.190354  0.055345 0.750244 0
lowpoly_metal.005
0  -0.184837 -0.185307 -3.637779  0.000000 -0.397803 -0.917471  0.051252 0.713098 0
0  -0.206523 -0.615890 -3.451084  0.000000 -0.397803 -0.917471  0.051269 0.712735 0
0  -0.298432 -0.615890 -3.451084  0.000000 -0.397803 -0.917471  0.051340 0.712735 0
lowpoly_metal.005
0  0.023973 1.419260 2.095047  -0.000091 0.997262 -0.073949  0.047701 0.712833 0
0  0.285190 1.428291 2.216509  -0.000091 0.997262 -0.073949  0.047607 0.712630 0
0  0.370593 1.419296 2.095094  -0.000091 0.997262 -0.073949  0.047701 0.712564 0
lowpoly_metal.005
0  0.024116 -0.123591 2.209447  0.000092 -0.997262 0.073946  0.047515 0.712833 0
0  0.285333 -0.114560 2.330910  0.000092 -0.997262 0.073946  0.047607 0.712630 0
0  0.109483 -0.114578 2.330886  0.000092 -0.997262 0.073946  0.047607 0.712767 0
lowpoly_plastic.004
0  0.417169 -1.336733 -1.298377  0.226193 -0.897910 0.377616  0.055324 0.750838 0
0  0.039428 -1.722487 -1.989372  0.226193 -0.897910 0.377616  0.055681 0.751571 0
0  0.417169 -1.632268 -2.001112  0.226193 -0.897910 0.377616  0.055324 0.751556 0
lowpoly_plastic.004
0  0.452307 -0.608370 -0.236181  0.765937 -0.625736 0.147634  0.053593 0.750499 0
0  0.586545 -0.738838 -1.485592  0.765937 -0.625736 0.147634  0.053431 0.751674 0
0  0.586952 -0.450579 -0.265943  0.765937 -0.625736 0.147634  0.053443 0.750490 0
lowpoly_plastic.004
0  0.452126 -0.894429 -1.445889  0.764307 -0.600022 0.236239  0.053582 0.751674 0
0  0.585610 -1.359968 -3.060174  0.764307 -0.600022 0.236239  0.053645 0.753260 0
0  0.586545 -0.738838 -1.485592  0.764307 -0.600022 0.236239  0.053431 0.751674 0
lowpoly_plastic.004
0  0.586545 -0.738838 -1.485592  1.000000 0.000651 0.000256  0.053431 0.751674 0
0  0.586767 -0.326264 -3.406270  1.000000 0.000651 0.000256  0.052618 0.753343 0
0  0.586167 0.430243 -2.983204  1.000000 0.000651 0.000256  0.052020 0.752784 0
lowpoly_metal.005
0  0.585886 -0.351575 -3.507347  0.839049 0.182426 0.512560  0.047701 0.712605 0
0  0.633464 0.072183 -3.736053  0.839049 0.182426 0.512560  0.047993 0.712554 0
0  0.585840 0.097575 -3.667131  0.839049 0.182426 0.512560  0.047987 0.712498 0
lowpoly_plastic.004
0  -0.344082 0.256522 -3.721730  -0.715433 0.628164 -0.305886  0.051832 0.753501 0
0  -0.506985 0.097575 -3.667131  -0.715433 0.628164 -0.305886  0.051672 0.753487 0
0  -0.507311 0.430243 -2.983204  -0.715433 0.628164 -0.305886  0.051822 0.752784 0
lowpoly_plastic.004
0  -0.373325 -0.324532 2.586644  -0.767356 -0.639570 0.045982  0.049870 0.747845 0
0  -0.507590 -0.327385 0.306329  -0.767356 -0.639570 0.045982  0.050383 0.749937 0
0  -0.373227 -0.487491 0.321655  -0.767356 -0.639570 0.045982  0.050234 0.749960 0
lowpoly_plastic.004
0  0.586446 -0.327385 0.306329  1.000000 0.000069 0.000319  0.053460 0.749937 0
0  0.586882 0.944007 -1.337550  1.000000 0.000069 0.000319  0.051921 0.751158 0
0  0.586230 1.401427 0.606528  1.000000 0.000069 0.000319  0.051942 0.749270 0
lowpoly_plastic.004
0  -0.506985 0.097575 -3.667131  -0.999998 0.001456 -0.001185  0.051672 0.753487 0
0  -0.507911 -0.326264 -3.406270  -0.999998 0.001456 -0.001185  0.051224 0.753343 0
0  -0.507311 0.430243 -2.983204  -0.999998 0.001456 -0.001185  0.051822 0.752784 0
lowpoly_plastic.004
0  0.584932 -1.310388 -2.963116  0.997539 0.065015 -0.026241  0.053621 0.753159 0
0  0.586545 -0.738838 -1.485592  0.997539 0.065015 -0.026241  0.053431 0.751674 0
0  0.585610 -1.359968 -3.060174  0.997539 0.065015 -0.026241  0.053645 0.753260 0
lowpoly_metal.005
0  -0.506985 0.097575 -3.667131  -0.696038 0.680026 0.230424  0.049720 0.712484 0
0  -0.377508 0.274640 -3.798572  -0.696038 0.680026 0.230424  0.047737 0.712564 0
0  -0.554609 0.072183 -3.736053  -0.696038 0.680026 0.230424  0.047571 0.712554 0
lowpoly_plastic.004
0  -0.506076 -1.310388 -2.963115  -0.997538 0.065026 -0.026242  0.050221 0.753159 0
0  -0.506755 -1.359967 -3.060174  -0.997538 0.065026 -0.026242  0.050197 0.753260 0
0  -0.507689 -0.738838 -1.485592  -0.997538 0.065026 -0.026242  0.050411 0.751674 0
lowpoly_plastic.004
0  0.416436 -0.733665 2.185540  0.997672 -0.063953 -0.023675  0.054256 0.748306 0
0  0.407459 -0.798569 1.982594  0.997672 -0.063953 -0.023675  0.054270 0.748507 0
0  0.452180 -0.324532 2.586644  0.997672 -0.063953 -0.023675  0.053972 0.747845 0
lowpoly_plastic.004
0  -0.219941 -0.539019 2.578019  0.104465 0.034739 0.993922  0.056161 0.751605 0
0  -0.373325 -0.324532 2.586644  0.104465 0.034739 0.993922  0.056362 0.751750 0
0  -0.347560 -0.658828 2.595620  0.104465 0.034739 0.993922  0.056046 0.751726 0
lowpoly_plastic.004
0  -0.373451 -0.608370 -0.236181  -0.995052 -0.097023 0.021423  0.050249 0.750499 0
0  -0.316124 -1.047727 0.436747  -0.995052 -0.097023 0.021423  0.049694 0.749981 0
0  -0.373227 -0.487491 0.321655  -0.995052 -0.097023 0.021423  0.050234 0.749960 0
lowpoly_plastic.004
0  0.452307 -0.608370 -0.236181  0.994856 -0.099328 0.019902  0.053593 0.750499 0
0  0.394979 -1.047727 0.436747  0.994856 -0.099328 0.019902  0.054148 0.749981 0
0  0.394979 -1.267588 -0.660563  0.994856 -0.099328 0.019902  0.054101 0.751038 0
lowpoly_plastic.004
0  -0.267747 -0.679037 2.372825  -0.814447 -0.578526 0.044543  0.052590 0.753721 0
0  -0.172561 -0.804244 2.487048  -0.814447 -0.578526 0.044543  0.052465 0.753623 0
0  -0.267836 -0.666435 2.534876  -0.814447 -0.578526 0.044543  0.052590 0.753567 0
lowpoly_plastic.004
0  -0.373451 -0.608370 -0.236181  -0.766748 -0.624745 0.147618  0.050249 0.750499 0
0  -0.507689 -0.738838 -1.485592  -0.766748 -0.624745 0.147618  0.050411 0.751674 0
0  -0.373270 -0.894429 -1.445889  -0.766748 -0.624745 0.147618  0.050260 0.751674 0
lowpoly_plastic.004
0  0.586628 -0.141025 2.686963  0.000150 0.016058 0.999871  0.056528 0.750843 0
0  0.455230 0.377222 2.678659  0.000150 0.016058 0.999871  0.057017 0.750967 0
0  0.454356 -0.150428 2.687134  0.000150 0.016058 0.999871  0.056519 0.750968 0
lowpoly_plastic.004
0  0.327494 1.643646 2.664263  0.000000 0.998781 0.049361  0.054825 0.753566 0
0  -0.198179 1.694318 1.638980  0.000000 0.998781 0.049361  0.054328 0.754300 0
0  -0.248638 1.643646 2.664263  0.000000 0.998781 0.049361  0.054280 0.753566 0
lowpoly_plastic.004
0  -0.338313 -1.336733 -1.298377  -0.992055 -0.116631 0.047157  0.049822 0.751639 0
0  -0.316124 -1.267588 -0.660563  -0.992055 -0.116631 0.047157  0.049741 0.751038 0
0  -0.373451 -0.608370 -0.236181  -0.992055 -0.116631 0.047157  0.050249 0.750499 0
lowpoly_plastic.004
0  -0.338313 -1.336733 -1.298377  -0.997185 -0.069117 0.029067  0.049822 0.751639 0
0  -0.373270 -0.894429 -1.445889  -0.997185 -0.069117 0.029067  0.050260 0.751674 0
0  -0.338313 -1.632268 -2.001112  -0.997185 -0.069117 0.029067  0.049710 0.752350 0
lowpoly_plastic.004
0  -0.372859 -1.540663 -2.979843  -0.997211 -0.068881 0.028752  0.050015 0.753227 0
0  -0.338313 -1.632268 -2.001112  -0.997211 -0.068881 0.028752  0.049710 0.752350 0
0  -0.373270 -0.894429 -1.445889  -0.997211 -0.068881 0.028752  0.050260 0.751674 0
lowpoly_plastic.004
0  0.417169 -1.336733 -1.298377  0.992055 -0.116630 0.047157  0.054021 0.751639 0
0  0.452307 -0.608370 -0.236181  0.992055 -0.116630 0.047157  0.053593 0.750499 0
0  0.394979 -1.267588 -0.660563  0.992055 -0.116630 0.047157  0.054101 0.751038 0
lowpoly_plastic.004
0  0.452126 -0.894429 -1.445889  0.997185 -0.069117 0.029067  0.053582 0.751674 0
0  0.417169 -1.336733 -1.298377  0.997185 -0.069117 0.029067  0.054021 0.751639 0
0  0.417169 -1.632268 -2.001112  0.997185 -0.069117 0.029067  0.054133 0.752350 0
lowpoly_plastic.004
0  0.451715 -1.540663 -2.979843  0.997376 -0.066329 0.028996  0.053827 0.753227 0
0  0.417169 -1.632268 -2.001112  0.997376 -0.066329 0.028996  0.054133 0.752350 0
0  0.417169 -1.970953 -2.775865  0.997376 -0.066329 0.028996  0.054268 0.753138 0
lowpoly_plastic.004
0  0.394979 -1.047727 0.436747  0.246992 -0.946143 0.209307  0.055345 0.749194 0
0  0.039428 -0.798569 1.982594  0.246992 -0.946143 0.209307  0.055681 0.747732 0
0  0.039428 -1.137947 0.448488  0.246992 -0.946143 0.209307  0.055681 0.749210 0
lowpoly_metal.005
0  -0.507911 -0.326264 -3.406270  -0.394431 0.376694 0.838168  0.046569 0.713351 0
0  -0.615093 -1.308256 -3.015376  -0.394431 0.376694 0.838168  0.046484 0.712569 0
0  -0.506076 -1.310388 -2.963115  -0.394431 0.376694 0.838168  0.046569 0.712564 0
lowpoly_metal.005
0  0.585610 -1.359968 -3.060174  0.229789 -0.866055 0.444011  0.048521 0.712648 0
0  0.693948 -1.308256 -3.015376  0.229789 -0.866055 0.444011  0.048437 0.712601 0
0  0.584932 -1.310388 -2.963116  0.229789 -0.866055 0.444011  0.048522 0.712564 0
lowpoly_metal.005
0  0.696150 -0.353188 -3.445845  0.148692 0.958958 -0.241433  0.048753 0.712655 0
0  0.585886 -0.351575 -3.507347  0.148692 0.958958 -0.241433  0.048678 0.712593 0
0  0.586767 -0.326264 -3.406270  0.148692 0.958958 -0.241433  0.048753 0.712564 0
lowpoly_plastic.004
0  0.387370 0.462511 2.841187  -0.923995 -0.006575 -0.382348  0.060362 0.874529 0
0  0.455667 1.514235 2.658052  -0.923995 -0.006575 -0.382348  0.060258 0.875197 0
0  0.455230 0.377222 2.678659  -0.923995 -0.006575 -0.382348  0.060258 0.874477 0
lowpoly_plastic.004
0  0.298796 -0.539019 2.578019  0.054946 -0.079319 0.995334  0.056161 0.751115 0
0  0.452180 -0.324532 2.586644  0.054946 -0.079319 0.995334  0.056362 0.750970 0
0  0.322747 -0.310950 2.594872  0.054946 -0.079319 0.995334  0.056374 0.751092 0
lowpoly_metal.005
0  0.696150 -0.353188 -3.445845  0.999998 -0.001967 0.000755  0.046397 0.713377 0
0  0.693948 -1.344241 -3.110692  0.999998 -0.001967 0.000755  0.046476 0.712569 0
0  0.696150 -0.393534 -3.550951  0.999998 -0.001967 0.000755  0.046484 0.713382 0
lowpoly_metal.005
0  0.204732 -0.250498 -3.663045  0.000001 -0.399819 -0.916594  0.050950 0.713056 0
0  -0.158253 -0.706668 -3.464063  0.000001 -0.399819 -0.916594  0.051231 0.712672 0
0  -0.125877 -0.250498 -3.663045  0.000001 -0.399819 -0.916594  0.051206 0.713056 0
lowpoly_metal.005
0  -0.338313 -1.970953 -2.775865  -0.719759 -0.384084 -0.578297  0.045856 0.712211 0
0  -0.359279 -1.562952 -3.020748  -0.719759 -0.384084 -0.578297  0.046208 0.712320 0
0  -0.284978 -1.997092 -2.824886  -0.719759 -0.384084 -0.578297  0.045845 0.712253 0
lowpoly_metal.005
0  -0.206523 -0.615890 -3.451084  -0.669721 -0.256464 -0.696922  0.051269 0.712735 0
0  -0.125877 -0.250498 -3.663045  -0.669721 -0.256464 -0.696922  0.051206 0.713056 0
0  -0.158253 -0.706668 -3.464063  -0.669721 -0.256464 -0.696922  0.051231 0.712672 0
lowpoly_metal.005
0  -0.617295 -0.393534 -3.550951  0.008393 -0.399652 -0.916628  0.051587 0.712923 0
0  -0.184837 -0.185307 -3.637779  0.008393 -0.399652 -0.916628  0.051252 0.713098 0
0  -0.298432 -0.615890 -3.451084  0.008393 -0.399652 -0.916628  0.051340 0.712735 0
lowpoly_plastic.004
0  -0.507311 0.430243 -2.983204  -0.139285 0.938788 -0.315083  0.054281 0.752782 0
0  -0.508020 0.747242 -2.038397  -0.139285 0.938788 -0.315083  0.054280 0.751853 0
0  0.039428 0.664062 -2.528233  -0.139285 0.938788 -0.315083  0.054798 0.752322 0
lowpoly_plastic.004
0  -0.508020 0.747242 -2.038397  -0.097580 0.958180 -0.269014  0.054280 0.751853 0
0  -0.508026 0.944007 -1.337550  -0.097580 0.958180 -0.269014  0.054280 0.751170 0
0  0.039428 0.996145 -1.350424  -0.097580 0.958180 -0.269014  0.054798 0.751174 0
lowpoly_plastic.004
0  -0.347560 -0.658828 2.595620  0.000000 0.145347 0.989381  0.056046 0.751726 0
0  0.298796 -0.539019 2.578019  0.000000 0.145347 0.989381  0.056161 0.751115 0
0  -0.219941 -0.539019 2.578019  0.000000 0.145347 0.989381  0.056161 0.751605 0
lowpoly_plastic.004
0  0.322747 -0.310950 2.594872  -0.773311 0.634027 0.000000  0.059933 0.875813 0
0  0.454356 -0.150428 1.842507  -0.773311 0.634027 0.000000  0.060030 0.875730 0
0  0.322747 -0.310950 1.842507  -0.773311 0.634027 0.000000  0.059933 0.875813 0
lowpoly_plastic.004
0  -0.376374 0.377222 2.678659  0.999999 0.001656 0.000000  0.060363 0.876256 0
0  -0.375501 -0.150428 1.842507  0.999999 0.001656 0.000000  0.060030 0.876255 0
0  -0.376374 0.377222 1.842507  0.999999 0.001656 0.000000  0.060363 0.876256 0
lowpoly_plastic.004
0  0.455230 0.377222 2.678659  0.003667 -0.884846 0.465870  0.051405 0.753759 0
0  0.476549 0.487953 2.888808  0.003667 -0.884846 0.465870  0.051292 0.753567 0
0  0.387370 0.462511 2.841187  0.003667 -0.884846 0.465870  0.051390 0.753577 0
lowpoly_plastic.004
0  -0.377248 1.643491 2.655709  0.000002 0.999836 -0.018122  0.054404 0.747339 0
0  -0.397606 1.647335 2.867794  0.000002 0.999836 -0.018122  0.054385 0.747140 0
0  -0.309245 1.646464 2.819728  0.000002 0.999836 -0.018122  0.054468 0.747185 0
lowpoly_metal.005
0  0.220545 -1.377138 -3.099121  -0.000001 0.687697 -0.725998  0.048866 0.712845 0
0  -0.126072 -1.415655 -3.135605  -0.000001 0.687697 -0.725998  0.048833 0.712576 0
0  -0.141689 -1.377138 -3.099120  -0.000001 0.687697 -0.725998  0.048866 0.712564 0
lowpoly_plastic.004
0  0.586408 1.643491 2.655709  0.887804 0.008417 0.460144  0.052183 0.747335 0
0  0.476549 0.487953 2.888808  0.887804 0.008417 0.460144  0.053295 0.747384 0
0  0.586518 0.381924 2.678574  0.887804 0.008417 0.460144  0.053346 0.747600 0
lowpoly_plastic.004
0  -0.309245 1.646464 2.819728  0.474581 0.016244 0.880062  0.055315 0.754683 0
0  -0.397694 0.487953 2.888808  0.474581 0.016244 0.880062  0.055231 0.753587 0
0  -0.308514 0.462511 2.841187  0.474581 0.016244 0.880062  0.055315 0.753566 0
lowpoly_plastic.004
0  0.586882 0.944007 -1.337550  0.000000 0.973418 -0.229034  0.055315 0.751170 0
0  0.327494 1.401427 0.606528  0.000000 0.973418 -0.229034  0.055070 0.749287 0
0  0.586230 1.401427 0.606528  0.000000 0.973418 -0.229034  0.055314 0.749287 0
lowpoly_plastic.004
0  0.407459 -0.798569 1.982594  0.000000 0.000000 -1.000000  0.055333 0.747732 0
0  -0.328603 -0.798569 1.982594  0.000000 0.000000 -1.000000  0.056028 0.747732 0
0  0.039428 -0.798569 1.982594  0.000000 0.000000 -1.000000  0.055681 0.747732 0
lowpoly_plastic.004
0  0.452307 -0.608370 -0.236181  0.765222 -0.629101 0.136629  0.053593 0.750499 0
0  0.586446 -0.327385 0.306329  0.765222 -0.629101 0.136629  0.053460 0.749937 0
0  0.452083 -0.487491 0.321655  0.765222 -0.629101 0.136629  0.053609 0.749960 0
lowpoly_plastic.004
0  -0.508097 -0.450579 -0.265943  -1.000000 -0.000319 -0.000259  0.050399 0.750490 0
0  -0.508020 0.747242 -2.038397  -1.000000 -0.000319 -0.000259  0.051899 0.751845 0
0  -0.507689 -0.738838 -1.485592  -1.000000 -0.000319 -0.000259  0.050411 0.751674 0
lowpoly_metal.005
0  -0.111299 2.013652 1.500661  0.000000 0.397463 0.917618  0.050493 0.712864 0
0  0.277034 1.694318 1.638980  0.000000 0.397463 0.917618  0.050166 0.712563 0
0  0.190154 2.013652 1.500661  0.000000 0.397463 0.917618  0.050493 0.712631 0
lowpoly_plastic.004
0  0.237946 -0.814281 2.400936  0.000000 -0.993276 0.115770  0.051546 0.753955 0
0  -0.172561 -0.804244 2.487048  0.000000 -0.993276 0.115770  0.051466 0.753567 0
0  -0.159090 -0.814281 2.400936  0.000000 -0.993276 0.115770  0.051546 0.753580 0
lowpoly_plastic.004
0  0.586167 0.430243 -2.983204  0.715433 0.628164 -0.305886  0.052020 0.752784 0
0  0.585840 0.097575 -3.667131  0.715433 0.628164 -0.305886  0.052170 0.753487 0
0  0.422937 0.256523 -3.721730  0.715433 0.628164 -0.305886  0.052010 0.753501 0
lowpoly_plastic.004
0  0.586408 1.643491 2.655709  0.000000 0.989202 -0.146560  0.055315 0.747339 0
0  0.508833 1.467668 1.468994  0.000000 0.989202 -0.146560  0.055241 0.748472 0
0  0.456104 1.643491 2.655709  0.000000 0.989202 -0.146560  0.055191 0.747339 0
lowpoly_plastic.004
0  0.508833 1.467668 1.468994  0.000000 0.997064 -0.076580  0.055241 0.748472 0
0  0.586230 1.401427 0.606528  0.000000 0.997064 -0.076580  0.055314 0.749287 0
0  0.327494 1.401427 0.606528  0.000000 0.997064 -0.076580  0.055070 0.749287 0
lowpoly_plastic.004
0  0.327494 1.643646 2.664263  -0.008580 0.989110 -0.146927  0.055070 0.747331 0
0  0.456104 1.643491 2.655709  -0.008580 0.989110 -0.146927  0.055191 0.747339 0
0  0.508833 1.467668 1.468994  -0.008580 0.989110 -0.146927  0.055241 0.748472 0
lowpoly_plastic.004
0  -0.429978 1.467668 1.468994  0.008580 0.989110 -0.146927  0.054354 0.748472 0
0  -0.377248 1.643491 2.655709  0.008580 0.989110 -0.146927  0.054404 0.747339 0
0  -0.248638 1.643646 2.664263  0.008580 0.989110 -0.146927  0.054525 0.747331 0
lowpoly_plastic.004
0  0.508833 1.467668 1.468994  0.844451 0.490491 -0.215224  0.056837 0.753492 0
0  0.327494 1.401427 0.606528  0.844451 0.490491 -0.215224  0.056777 0.754308 0
0  0.322237 1.803835 1.502982  0.844451 0.490491 -0.215224  0.056556 0.753174 0
lowpoly_plastic.004
0  -0.429978 1.467668 1.468994  -0.875299 0.479566 0.062190  0.056694 0.748281 0
0  -0.248638 1.643646 2.664263  -0.875299 0.479566 0.062190  0.056694 0.747140 0
0  -0.243381 1.803835 1.502983  -0.875299 0.479566 0.062190  0.056974 0.747963 0
lowpoly_plastic.004
0  -0.248638 1.401427 0.606528  -0.844451 0.490491 -0.215224  0.056753 0.749097 0
0  -0.429978 1.467668 1.468994  -0.844451 0.490491 -0.215224  0.056694 0.748281 0
0  -0.243381 1.803835 1.502983  -0.844451 0.490491 -0.215224  0.056974 0.747963 0
lowpoly_plastic.004
0  0.327494 1.643646 2.664263  0.875299 0.479566 0.062190  0.056837 0.752351 0
0  0.508833 1.467668 1.468994  0.875299 0.479566 0.062190  0.056837 0.753492 0
0  0.322237 1.803835 1.502982  0.875299 0.479566 0.062190  0.056556 0.753174 0
lowpoly_plastic.004
0  0.243225 1.803835 1.502982  0.000000 0.137346 0.990523  0.047381 0.792760 0
0  0.277861 1.671266 1.521365  0.000000 0.137346 0.990523  0.047381 0.792630 0
0  0.322237 1.803835 1.502982  0.000000 0.137346 0.990523  0.047454 0.792741 0
lowpoly_plastic.004
0  -0.243381 1.803835 1.502983  0.000000 0.137346 0.990523  0.047454 0.792762 0
0  -0.199006 1.671266 1.521365  0.000000 0.137346 0.990523  0.047454 0.792630 0
0  -0.164370 1.803835 1.502983  0.000000 0.137346 0.990523  0.047524 0.792739 0
lowpoly_plastic.004
0  -0.507552 1.643491 2.655709  -0.887826 0.008407 0.460102  0.051659 0.747335 0
0  -0.397694 0.487953 2.888808  -0.887826 0.008407 0.460102  0.050547 0.747384 0
0  -0.397606 1.647335 2.867794  -0.887826 0.008407 0.460102  0.051615 0.747140 0
lowpoly_metal.005
0  0.220545 -1.377138 -3.099121  0.000000 -0.421227 -0.906955  0.050937 0.712089 0
0  -0.298309 -0.719890 -3.404374  0.000000 -0.421227 -0.906955  0.051340 0.712647 0
0  0.377165 -0.719890 -3.404374  0.000000 -0.421227 -0.906955  0.050816 0.712647 0
lowpoly_metal.005
0  -0.111299 2.013652 1.500661  -0.968650 0.244523 -0.043892  0.047978 0.712893 0
0  -0.164370 1.803835 1.502983  -0.968650 0.244523 -0.043892  0.047909 0.712682 0
0  -0.198179 1.694318 1.638980  -0.968650 0.244523 -0.043892  0.047978 0.712564 0
lowpoly_metal.005
0  0.190154 2.013652 1.500661  0.968650 0.244523 -0.043892  0.047229 0.712888 0
0  0.277034 1.694318 1.638980  0.968650 0.244523 -0.043892  0.047173 0.712564 0
0  0.243225 1.803835 1.502982  0.968650 0.244523 -0.043892  0.047260 0.712668 0
lowpoly_metal.005
0  0.277861 1.671266 1.521365  0.968081 0.247156 -0.041631  0.047266 0.712564 0
0  0.243225 1.803835 1.502982  0.968081 0.247156 -0.041631  0.047260 0.712668 0
0  0.277034 1.694318 1.638980  0.968081 0.247156 -0.041631  0.047173 0.712564 0
lowpoly_metal.005
0  -0.199006 1.671266 1.521365  -0.968081 0.247155 -0.041631  0.047886 0.712580 0
0  -0.198179 1.694318 1.638980  -0.968081 0.247155 -0.041631  0.047978 0.712564 0
0  -0.164370 1.803835 1.502983  -0.968081 0.247155 -0.041631  0.047909 0.712682 0
lowpoly_plastic.004
0  -0.243381 1.803835 1.502983  0.890742 0.449683 0.066062  0.044015 0.793492 0
0  -0.248638 1.643646 2.664263  0.890742 0.449683 0.066062  0.044130 0.792630 0
0  -0.198179 1.694318 1.638980  0.890742 0.449683 0.066062  0.044136 0.793379 0
lowpoly_plastic.004
0  0.322237 1.803835 1.502982  -0.948910 0.308328 -0.067104  0.050127 0.754437 0
0  0.277861 1.671266 1.521365  -0.948910 0.308328 -0.067104  0.050002 0.754420 0
0  0.277034 1.694318 1.638980  -0.948910 0.308328 -0.067104  0.050023 0.754309 0
lowpoly_plastic.004
0  0.322237 1.803835 1.502982  -0.890742 0.449683 0.066062  0.044268 0.793499 0
0  0.277034 1.694318 1.638980  -0.890742 0.449683 0.066062  0.044163 0.793371 0
0  0.327494 1.643646 2.664263  -0.890742 0.449683 0.066062  0.044268 0.792630 0
lowpoly_metal.005
0  -0.617295 -0.353188 -3.445845  -0.999998 -0.001971 0.000744  0.046397 0.713377 0
0  -0.615093 -1.344241 -3.110691  -0.999998 -0.001971 0.000744  0.046318 0.712569 0
0  -0.615093 -1.308256 -3.015376  -0.999998 -0.001971 0.000744  0.046397 0.712564 0
lowpoly_plastic.004
0  -0.243381 1.803835 1.502983  0.948910 0.308328 -0.067104  0.044015 0.793492 0
0  -0.198179 1.694318 1.638980  0.948910 0.308328 -0.067104  0.044136 0.793379 0
0  -0.199006 1.671266 1.521365  0.948910 0.308328 -0.067104  0.044142 0.793492 0
lowpoly_metal.005
0  -0.554609 0.072183 -3.736053  -0.839050 0.182425 0.512558  0.051368 0.711565 0
0  -0.507030 -0.351575 -3.507347  -0.839050 0.182425 0.512558  0.047210 0.712461 0
0  -0.506985 0.097575 -3.667131  -0.839050 0.182425 0.512558  0.047578 0.712498 0
lowpoly_plastic.004
0  0.454356 -0.150428 2.687134  -0.999999 0.001656 0.000000  0.060030 0.875730 0
0  0.455230 0.377222 1.842507  -0.999999 0.001656 0.000000  0.060363 0.875729 0
0  0.454356 -0.150428 1.842507  -0.999999 0.001656 0.000000  0.060030 0.875730 0
lowpoly_metal.005
0  0.363834 -1.997092 -2.824886  0.000000 -0.882391 0.470517  0.048020 0.713109 0
0  0.417169 -1.970953 -2.775865  0.000000 -0.882391 0.470517  0.047978 0.713150 0
0  -0.338313 -1.970953 -2.775865  0.000000 -0.882391 0.470517  0.047978 0.712564 0
lowpoly_metal.005
0  -0.359279 -1.562952 -3.020748  -0.731508 -0.595842 -0.331465  0.046208 0.712320 0
0  -0.506755 -1.359967 -3.060174  -0.731508 -0.595842 -0.331465  0.046367 0.712312 0
0  -0.487720 -1.358493 -3.104831  -0.731508 -0.595842 -0.331465  0.046377 0.712345 0
lowpoly_plastic.004
0  -0.376374 0.377222 2.678659  -0.000152 0.016058 0.999871  0.057017 0.751753 0
0  -0.507772 -0.141026 2.686963  -0.000152 0.016058 0.999871  0.056528 0.751877 0
0  -0.375501 -0.150428 2.687134  -0.000152 0.016058 0.999871  0.056519 0.751752 0
lowpoly_plastic.004
0  0.456104 1.643491 2.655709  0.066376 0.017859 0.997635  0.056111 0.877471 0
0  0.327494 1.643646 2.664263  0.066376 0.017859 0.997635  0.056111 0.877553 0
0  0.455667 1.514235 2.658052  0.066376 0.017859 0.997635  0.056029 0.877471 0
lowpoly_plastic.004
0  -0.248638 1.643646 2.664263  -0.066376 0.017859 0.997635  0.056111 0.877917 0
0  -0.377248 1.643491 2.655709  -0.066376 0.017859 0.997635  0.056111 0.877999 0
0  -0.376811 1.514235 2.658052  -0.066376 0.017859 0.997635  0.056029 0.877998 0
lowpoly_plastic.004
0  -0.376811 1.514235 2.658052  0.000000 -0.047941 0.998850  0.056029 0.877998 0
0  0.327494 1.643646 2.664263  0.000000 -0.047941 0.998850  0.056111 0.877553 0
0  -0.248638 1.643646 2.664263  0.000000 -0.047941 0.998850  0.056111 0.877917 0
lowpoly_plastic.004
0  -0.373227 -0.487491 0.321655  -0.994979 -0.099763 0.008047  0.050234 0.749960 0
0  -0.316124 -1.047727 0.436747  -0.994979 -0.099763 0.008047  0.049694 0.749981 0
0  -0.328603 -0.798569 1.982594  -0.994979 -0.099763 0.008047  0.049573 0.748507 0
lowpoly_plastic.004
0  -0.337580 -0.733665 2.185540  -0.996970 -0.077113 -0.010190  0.049586 0.748306 0
0  -0.347560 -0.658828 2.595620  -0.996970 -0.077113 -0.010190  0.049562 0.747912 0
0  -0.373325 -0.324532 2.586644  -0.996970 -0.077113 -0.010190  0.049870 0.747845 0
lowpoly_plastic.004
0  -0.373227 -0.487491 0.321655  -0.994628 -0.103246 0.007385  0.050234 0.749960 0
0  -0.328603 -0.798569 1.982594  -0.994628 -0.103246 0.007385  0.049573 0.748507 0
0  -0.373325 -0.324532 2.586644  -0.994628 -0.103246 0.007385  0.049870 0.747845 0
lowpoly_plastic.004
0  0.407459 -0.798569 1.982594  0.994979 -0.099763 0.008047  0.054270 0.748507 0
0  0.394979 -1.047727 0.436747  0.994979 -0.099763 0.008047  0.054148 0.749981 0
0  0.452083 -0.487491 0.321655  0.994979 -0.099763 0.008047  0.053609 0.749960 0
lowpoly_plastic.004
0  0.452083 -0.487491 0.321655  0.994628 -0.103246 0.007385  0.053609 0.749960 0
0  0.452180 -0.324532 2.586644  0.994628 -0.103246 0.007385  0.053972 0.747845 0
0  0.407459 -0.798569 1.982594  0.994628 -0.103246 0.007385  0.054270 0.748507 0
lowpoly_plastic.004
0  0.452180 -0.324532 2.586644  0.996970 -0.077112 -0.010190  0.053972 0.747845 0
0  0.426416 -0.658828 2.595620  0.996970 -0.077112 -0.010190  0.054280 0.747912 0
0  0.416436 -0.733665 2.185540  0.996970 -0.077112 -0.010190  0.054256 0.748306 0
lowpoly_metal.005
0  -0.404984 -1.352979 -3.105972  -0.000078 -0.376096 -0.926581  0.051423 0.712108 0
0  -0.297387 -1.352756 -3.106071  -0.000078 -0.376096 -0.926581  0.051339 0.712109 0
0  -0.359279 -1.562952 -3.020748  -0.000078 -0.376096 -0.926581  0.051387 0.711933 0
lowpoly_metal.005
0  -0.406195 -0.724150 -3.402460  -0.019896 -0.420171 -0.907227  0.051424 0.712644 0
0  -0.615093 -1.344241 -3.110691  -0.019896 -0.420171 -0.907227  0.051586 0.712116 0
0  -0.617295 -0.393534 -3.550951  -0.019896 -0.420171 -0.907227  0.051587 0.712923 0
lowpoly_metal.005
0  0.696150 -0.393534 -3.550951  0.009349 -0.368248 -0.929681  0.050568 0.712923 0
0  0.263693 -0.185307 -3.637779  0.009349 -0.368248 -0.929681  0.050904 0.713098 0
0  0.633464 0.072183 -3.736053  0.009349 -0.368248 -0.929681  0.050617 0.713312 0
lowpoly_plastic.004
0  0.039428 0.996145 -1.350424  -0.096125 0.958018 -0.270113  0.054798 0.751174 0
0  0.039428 0.664062 -2.528233  -0.096125 0.958018 -0.270113  0.054798 0.752322 0
0  -0.508020 0.747242 -2.038397  -0.096125 0.958018 -0.270113  0.054280 0.751853 0
lowpoly_metal.005
0  -0.617295 -0.393534 -3.550951  -0.262442 0.935504 -0.236552  0.048833 0.712687 0
0  -0.507911 -0.326264 -3.406270  -0.262442 0.935504 -0.236552  0.048753 0.712564 0
0  -0.507030 -0.351575 -3.507347  -0.262442 0.935504 -0.236552  0.048828 0.712593 0
lowpoly_metal.005
0  -0.184837 -0.185307 -3.637779  0.000000 -0.356573 -0.934267  0.051252 0.713098 0
0  0.633464 0.072183 -3.736053  0.000000 -0.356573 -0.934267  0.050617 0.713312 0
0  0.263693 -0.185307 -3.637779  0.000000 -0.356573 -0.934267  0.050904 0.713098 0
lowpoly_metal.005
0  0.377287 -0.615890 -3.451084  0.656655 0.354712 -0.665570  0.049021 0.712657 0
0  0.485051 -0.724150 -3.402460  0.656655 0.354712 -0.665570  0.049021 0.712564 0
0  0.413168 -0.706668 -3.464063  0.656655 0.354712 -0.665570  0.049059 0.712597 0
lowpoly_metal.005
0  0.696150 -0.393534 -3.550951  0.000000 -0.409708 -0.912217  0.050568 0.712923 0
0  0.485051 -0.724150 -3.402460  0.000000 -0.409708 -0.912217  0.050732 0.712644 0
0  0.377287 -0.615890 -3.451084  0.000000 -0.409708 -0.912217  0.050816 0.712735 0
lowpoly_metal.005
0  0.285378 -0.615890 -3.451084  0.000000 -0.397803 -0.917471  0.050887 0.712735 0
0  0.263693 -0.185307 -3.637779  0.000000 -0.397803 -0.917471  0.050904 0.713098 0
0  0.377287 -0.615890 -3.451084  0.000000 -0.397803 -0.917471  0.050816 0.712735 0
lowpoly_plastic.004
0  0.346603 -0.679037 2.372825  0.000000 -0.203504 -0.979074  0.041677 0.803372 0
0  -0.159090 -0.814281 2.400936  0.000000 -0.203504 -0.979074  0.041807 0.803850 0
0  -0.267747 -0.679037 2.372825  0.000000 -0.203504 -0.979074  0.041677 0.803953 0
lowpoly_metal.005
0  -0.406195 -0.724150 -3.402460  -0.000004 -0.409708 -0.912217  0.051424 0.712644 0
0  -0.617295 -0.393534 -3.550951  -0.000004 -0.409708 -0.912217  0.051587 0.712923 0
0  -0.298432 -0.615890 -3.451084  -0.000004 -0.409708 -0.912217  0.051340 0.712735 0
lowpoly_metal.005
0  -0.126493 -1.909772 -2.863332  -0.957024 -0.139337 -0.254344  0.047396 0.712564 0
0  -0.126072 -1.415655 -3.135605  -0.957024 -0.139337 -0.254344  0.047358 0.713000 0
0  -0.112186 -1.910939 -2.916524  -0.957024 -0.139337 -0.254344  0.047358 0.712580 0
lowpoly_metal.005
0  0.438135 -1.562952 -3.020748  0.016795 -0.371812 -0.928156  0.050769 0.711933 0
0  0.220545 -1.377138 -3.099121  0.016795 -0.371812 -0.928156  0.050937 0.712089 0
0  0.376243 -1.352756 -3.106071  0.016795 -0.371812 -0.928156  0.050817 0.712109 0
lowpoly_metal.005
0  -0.126493 -1.909772 -2.863332  0.000000 -0.402952 -0.915221  0.051207 0.711639 0
0  0.363834 -1.997092 -2.824886  0.000000 -0.402952 -0.915221  0.050826 0.711565 0
0  -0.284978 -1.997092 -2.824886  0.000000 -0.402952 -0.915221  0.051330 0.711565 0
lowpoly_metal.005
0  0.485051 -0.724150 -3.402460  0.005790 -0.424145 -0.905576  0.050732 0.712644 0
0  0.693948 -1.344241 -3.110692  0.005790 -0.424145 -0.905576  0.050570 0.712116 0
0  0.566575 -1.358493 -3.104831  0.005790 -0.424145 -0.905576  0.050669 0.712104 0
lowpoly_metal.005
0  0.205349 -1.909771 -2.863332  -0.004989 -0.410521 -0.911837  0.050949 0.711639 0
0  0.438135 -1.562952 -3.020748  -0.004989 -0.410521 -0.911837  0.050769 0.711933 0
0  0.363834 -1.997092 -2.824886  -0.004989 -0.410521 -0.911837  0.050826 0.711565 0
lowpoly_metal.005
0  0.566575 -1.358493 -3.104831  0.107293 -0.991127 -0.078458  0.048536 0.712680 0
0  0.693948 -1.344241 -3.110692  0.107293 -0.991127 -0.078458  0.048437 0.712680 0
0  0.585610 -1.359968 -3.060174  0.107293 -0.991127 -0.078458  0.048521 0.712648 0
lowpoly_metal.005
0  0.438135 -1.562952 -3.020748  0.812440 -0.581151 0.046949  0.049356 0.712320 0
0  0.585610 -1.359968 -3.060174  0.812440 -0.581151 0.046949  0.049197 0.712312 0
0  0.451715 -1.540663 -2.979843  0.812440 -0.581151 0.046949  0.049347 0.712285 0
lowpoly_metal.005
0  -0.506755 -1.359967 -3.060174  -0.107291 -0.991128 -0.078448  0.048550 0.712648 0
0  -0.615093 -1.344241 -3.110691  -0.107291 -0.991128 -0.078448  0.048634 0.712680 0
0  -0.487720 -1.358493 -3.104831  -0.107291 -0.991128 -0.078448  0.048536 0.712680 0
lowpoly_metal.005
0  -0.359279 -1.562952 -3.020748  0.012127 -0.373787 -0.927435  0.051387 0.711933 0
0  -0.487720 -1.358493 -3.104831  0.012127 -0.373787 -0.927435  0.051487 0.712104 0
0  -0.404984 -1.352979 -3.105972  0.012127 -0.373787 -0.927435  0.051423 0.712108 0
lowpoly_metal.005
0  -0.297387 -1.352756 -3.106071  0.002265 -0.914463 0.404664  0.049059 0.712648 0
0  -0.404984 -1.352979 -3.105972  0.002265 -0.914463 0.404664  0.049059 0.712564 0
0  -0.351186 -1.372709 -3.150860  0.002265 -0.914463 0.404664  0.049097 0.712606 0
lowpoly_metal.005
0  -0.297387 -1.352756 -3.106071  -0.026383 -0.426246 -0.904222  0.051339 0.712109 0
0  -0.298309 -0.719890 -3.404374  -0.026383 -0.426246 -0.904222  0.051340 0.712647 0
0  -0.141689 -1.377138 -3.099120  -0.026383 -0.426246 -0.904222  0.051218 0.712089 0
lowpoly_metal.005
0  0.585840 0.097575 -3.667131  0.561225 0.717134 0.413213  0.047987 0.712498 0
0  0.456363 0.274640 -3.798572  0.561225 0.717134 0.413213  0.050467 0.712563 0
0  0.422937 0.256523 -3.721730  0.561225 0.717134 0.413213  0.050441 0.712507 0
lowpoly_plastic.004
0  -0.243892 -0.310950 2.594872  0.994531 0.104441 0.000000  0.059933 0.876172 0
0  -0.219941 -0.539019 1.842507  0.994531 0.104441 0.000000  0.059789 0.876157 0
0  -0.243892 -0.310950 1.842507  0.994531 0.104441 0.000000  0.059933 0.876172 0
lowpoly_plastic.004
0  -0.508026 0.944007 -1.337550  -1.000000 0.000069 0.000319  0.051921 0.751158 0
0  -0.507590 -0.327385 0.306329  -1.000000 0.000069 0.000319  0.050383 0.749937 0
0  -0.507375 1.401427 0.606528  -1.000000 0.000069 0.000319  0.051901 0.749270 0
lowpoly_metal.005
0  0.422937 0.256523 -3.721730  0.000000 0.973312 0.229486  0.050441 0.712507 0
0  -0.377508 0.274640 -3.798572  0.000000 0.973312 0.229486  0.049820 0.712563 0
0  -0.344082 0.256522 -3.721730  0.000000 0.973312 0.229486  0.049846 0.712507 0
lowpoly_plastic.004
0  -0.507689 -0.738838 -1.485592  -0.999998 -0.002007 -0.000315  0.050411 0.751674 0
0  -0.507911 -0.326264 -3.406270  -0.999998 -0.002007 -0.000315  0.051224 0.753343 0
0  -0.506076 -1.310388 -2.963115  -0.999998 -0.002007 -0.000315  0.050221 0.753159 0
lowpoly_metal.005
0  0.237109 -0.706668 -3.464063  0.000000 -0.976330 -0.216288  0.047515 0.713007 0
0  0.413168 -0.706668 -3.464063  0.000000 -0.976330 -0.216288  0.047515 0.713144 0
0  0.377165 -0.719890 -3.404374  0.000000 -0.976330 -0.216288  0.047475 0.713116 0
lowpoly_plastic.004
0  0.417169 -1.336733 -1.298377  0.234107 -0.966548 0.104782  0.055324 0.750838 0
0  0.039428 -1.357808 -0.648822  0.234107 -0.966548 0.104782  0.055681 0.750260 0
0  0.039428 -1.426952 -1.286637  0.234107 -0.966548 0.104782  0.055681 0.750854 0
lowpoly_metal.005
0  -0.406195 -0.724150 -3.402460  -0.656658 0.354710 -0.665568  0.049021 0.712564 0
0  -0.298432 -0.615890 -3.451084  -0.656658 0.354710 -0.665568  0.049021 0.712657 0
0  -0.334312 -0.706668 -3.464063  -0.656658 0.354710 -0.665568  0.048983 0.712597 0
lowpoly_metal.005
0  -0.615093 -1.308256 -3.015376  -0.229787 -0.866058 0.444006  0.048634 0.712601 0
0  -0.506755 -1.359967 -3.060174  -0.229787 -0.866058 0.444006  0.048550 0.712648 0
0  -0.506076 -1.310388 -2.963115  -0.229787 -0.866058 0.444006  0.048549 0.712564 0
lowpoly_metal.005
0  0.285378 -0.615890 -3.451084  0.000000 0.141542 -0.989932  0.050887 0.712735 0
0  0.413168 -0.706668 -3.464063  0.000000 0.141542 -0.989932  0.050788 0.712672 0
0  0.237109 -0.706668 -3.464063  0.000000 0.141542 -0.989932  0.050925 0.712672 0
lowpoly_metal.005
0  -0.298309 -0.719890 -3.404374  0.795361 -0.274322 -0.540507  0.051340 0.712647 0
0  -0.351186 -1.372709 -3.150860  0.795361 -0.274322 -0.540507  0.048095 0.712564 0
0  -0.334312 -0.706668 -3.464063  0.795361 -0.274322 -0.540507  0.048095 0.713135 0
lowpoly_metal.005
0  0.205349 -1.909771 -2.863332  0.955366 -0.141951 -0.259086  0.048188 0.712564 0
0  0.204928 -1.415655 -3.135605  0.955366 -0.141951 -0.259086  0.048226 0.713000 0
0  0.220545 -1.377138 -3.099121  0.955366 -0.141951 -0.259086  0.048188 0.713016 0
lowpoly_plastic.004
0  0.346603 -0.679037 2.372825  0.773851 -0.631587 -0.047447  0.052590 0.753721 0
0  0.251417 -0.804244 2.487048  0.773851 -0.631587 -0.047447  0.052715 0.753623 0
0  0.237946 -0.814281 2.400936  0.773851 -0.631587 -0.047447  0.052718 0.753705 0
lowpoly_metal.005
0  -0.406195 -0.724150 -3.402460  -0.673463 -0.316314 -0.668127  0.051424 0.712644 0
0  -0.351186 -1.372709 -3.150860  -0.673463 -0.316314 -0.668127  0.051381 0.712105 0
0  -0.404984 -1.352979 -3.105972  -0.673463 -0.316314 -0.668127  0.051423 0.712108 0
lowpoly_metal.005
0  0.263693 -0.185307 -3.637779  0.000000 0.361374 -0.932421  0.050904 0.713098 0
0  -0.125877 -0.250498 -3.663045  0.000000 0.361374 -0.932421  0.051206 0.713056 0
0  -0.184837 -0.185307 -3.637779  0.000000 0.361374 -0.932421  0.051252 0.713098 0
lowpoly_plastic.004
0  0.586446 -0.327385 0.306329  0.767357 -0.639570 0.045982  0.053460 0.749937 0
0  0.452180 -0.324532 2.586644  0.767357 -0.639570 0.045982  0.053972 0.747845 0
0  0.452083 -0.487491 0.321655  0.767357 -0.639570 0.045982  0.053609 0.749960 0
lowpoly_metal.005
0  0.483840 -1.352979 -3.105973  -0.002262 -0.914466 0.404656  0.049135 0.712564 0
0  0.376243 -1.352756 -3.106071  -0.002262 -0.914466 0.404656  0.049135 0.712648 0
0  0.430042 -1.372709 -3.150861  -0.002262 -0.914466 0.404656  0.049097 0.712606 0
lowpoly_metal.005
0  0.377165 -0.719890 -3.404374  0.000000 -0.976329 -0.216289  0.047475 0.713116 0
0  -0.298309 -0.719890 -3.404374  0.000000 -0.976329 -0.216289  0.047475 0.712592 0
0  -0.158253 -0.706668 -3.464063  0.000000 -0.976329 -0.216289  0.047515 0.712701 0
lowpoly_metal.005
0  -0.298309 -0.719890 -3.404374  0.000000 -0.976330 -0.216288  0.047475 0.712592 0
0  -0.334312 -0.706668 -3.464063  0.000000 -0.976330 -0.216288  0.047515 0.712564 0
0  -0.158253 -0.706668 -3.464063  0.000000 -0.976330 -0.216288  0.047515 0.712701 0
lowpoly_metal.005
0  0.237109 -0.706668 -3.464063  0.000000 -0.976331 -0.216283  0.047515 0.713007 0
0  0.377165 -0.719890 -3.404374  0.000000 -0.976331 -0.216283  0.047475 0.713116 0
0  -0.158253 -0.706668 -3.464063  0.000000 -0.976331 -0.216283  0.047515 0.712701 0
lowpoly_plastic.004
0  0.327494 1.401427 0.606528  -0.000000 0.912301 -0.409521  0.055070 0.749287 0
0  -0.164370 1.803835 1.502983  -0.000000 0.912301 -0.409521  0.054605 0.748150 0
0  0.243225 1.803835 1.502982  -0.000000 0.912301 -0.409521  0.054990 0.748150 0
lowpoly_metal.005
0  -0.141689 -1.377138 -3.099120  -0.016789 -0.371813 -0.928156  0.051218 0.712089 0
0  -0.359279 -1.562952 -3.020748  -0.016789 -0.371813 -0.928156  0.051387 0.711933 0
0  -0.297387 -1.352756 -3.106071  -0.016789 -0.371813 -0.928156  0.051339 0.712109 0
lowpoly_plastic.004
0  0.586628 -0.141025 2.686963  1.000000 0.000210 -0.000035  0.053828 0.747711 0
0  0.586230 1.401427 0.606528  1.000000 0.000210 -0.000035  0.051942 0.749270 0
0  0.586518 0.381924 2.678574  1.000000 0.000210 -0.000035  0.053346 0.747600 0
lowpoly_metal.005
0  0.586767 -0.326264 -3.406270  0.395739 0.376607 0.837591  0.046569 0.713351 0
0  0.693948 -1.308256 -3.015376  0.395739 0.376607 0.837591  0.046653 0.712569 0
0  0.696150 -0.353188 -3.445845  0.395739 0.376607 0.837591  0.046654 0.713333 0
lowpoly_plastic.004
0  -0.397694 0.487953 2.888808  -0.003667 -0.884846 0.465870  0.052415 0.753567 0
0  -0.376374 0.377222 2.678659  -0.003667 -0.884846 0.465870  0.052302 0.753759 0
0  -0.308514 0.462511 2.841187  -0.003667 -0.884846 0.465870  0.052317 0.753577 0
lowpoly_plastic.004
0  0.039428 0.996145 -1.350424  0.000000 0.979221 -0.202795  0.054798 0.751174 0
0  -0.507375 1.401427 0.606528  0.000000 0.979221 -0.202795  0.054281 0.749287 0
0  -0.248638 1.401427 0.606528  0.000000 0.979221 -0.202795  0.054525 0.749287 0
lowpoly_plastic.004
0  -0.376811 1.514235 2.658052  0.923995 -0.006575 -0.382347  0.060444 0.877376 0
0  -0.308514 0.462511 2.841187  0.923995 -0.006575 -0.382347  0.060340 0.876708 0
0  -0.376374 0.377222 2.678659  0.923995 -0.006575 -0.382347  0.060444 0.876656 0
lowpoly_plastic.004
0  -0.376811 1.514235 2.658052  0.923770 -0.003819 -0.382930  0.060444 0.877376 0
0  -0.377248 1.643491 2.655709  0.923770 -0.003819 -0.382930  0.060444 0.877458 0
0  -0.309245 1.646464 2.819728  0.923770 -0.003819 -0.382930  0.060340 0.877457 0
lowpoly_plastic.004
0  0.388101 1.646464 2.819728  -0.923769 -0.003819 -0.382931  0.060362 0.875278 0
0  0.456104 1.643491 2.655709  -0.923769 -0.003819 -0.382931  0.060258 0.875279 0
0  0.455667 1.514235 2.658052  -0.923769 -0.003819 -0.382931  0.060258 0.875197 0
lowpoly_plastic.004
0  -0.248638 1.401427 0.606528  0.000000 0.912301 -0.409521  0.054525 0.749287 0
0  -0.243381 1.803835 1.502983  0.000000 0.912301 -0.409521  0.054530 0.748150 0
0  -0.164370 1.803835 1.502983  0.000000 0.912301 -0.409521  0.054605 0.748150 0
lowpoly_plastic.004
0  0.243225 1.803835 1.502982  0.000000 0.912300 -0.409522  0.054990 0.748150 0
0  0.322237 1.803835 1.502982  0.000000 0.912300 -0.409522  0.055065 0.748150 0
0  0.327494 1.401427 0.606528  0.000000 0.912300 -0.409522  0.055070 0.749287 0
lowpoly_metal.005
0  0.377165 -0.719890 -3.404374  0.026391 -0.426246 -0.904222  0.050816 0.712647 0
0  0.376243 -1.352756 -3.106071  0.026391 -0.426246 -0.904222  0.050817 0.712109 0
0  0.220545 -1.377138 -3.099121  0.026391 -0.426246 -0.904222  0.050937 0.712089 0
lowpoly_metal.005
0  0.566575 -1.358493 -3.104831  -0.012120 -0.373790 -0.927434  0.050669 0.712104 0
0  0.438135 -1.562952 -3.020748  -0.012120 -0.373790 -0.927434  0.050769 0.711933 0
0  0.483840 -1.352979 -3.105973  -0.012120 -0.373790 -0.927434  0.050733 0.712108 0
lowpoly_plastic.004
0  -0.267836 -0.666435 2.534876  0.000000 -0.327876 0.944721  0.052048 0.754148 0
0  0.251417 -0.804244 2.487048  0.000000 -0.327876 0.944721  0.051921 0.753657 0
0  0.346692 -0.666435 2.534876  0.000000 -0.327876 0.944721  0.052048 0.753567 0
lowpoly_plastic.004
0  -0.373270 -0.894429 -1.445889  -0.827989 -0.516838 0.217515  0.050260 0.751674 0
0  -0.506755 -1.359967 -3.060174  -0.827989 -0.516838 0.217515  0.050197 0.753260 0
0  -0.372859 -1.540663 -2.979843  -0.827989 -0.516838 0.217515  0.050015 0.753227 0
lowpoly_plastic.004
0  -0.267836 -0.666435 2.534876  0.000000 -0.992250 0.124258  0.055971 0.747197 0
0  0.426416 -0.658828 2.595620  0.000000 -0.992250 0.124258  0.055315 0.747140 0
0  -0.347560 -0.658828 2.595620  0.000000 -0.992250 0.124258  0.056046 0.747140 0
lowpoly_plastic.004
0  -0.267747 -0.679037 2.372825  0.000000 -0.959995 0.280017  0.055971 0.747346 0
0  0.416436 -0.733665 2.185540  0.000000 -0.959995 0.280017  0.055324 0.747531 0
0  0.346603 -0.679037 2.372825  0.000000 -0.959995 0.280017  0.055390 0.747346 0
lowpoly_plastic.004
0  0.346603 -0.679037 2.372825  0.036046 -0.996343 0.077462  0.055390 0.747346 0
0  0.426416 -0.658828 2.595620  0.036046 -0.996343 0.077462  0.055315 0.747140 0
0  0.346692 -0.666435 2.534876  0.036046 -0.996343 0.077462  0.055390 0.747197 0
lowpoly_plastic.004
0  -0.267747 -0.679037 2.372825  0.260764 -0.948577 0.179456  0.055971 0.747346 0
0  -0.347560 -0.658828 2.595620  0.260764 -0.948577 0.179456  0.056046 0.747140 0
0  -0.337580 -0.733665 2.185540  0.260764 -0.948577 0.179456  0.056037 0.747531 0
lowpoly_plastic.004
0  -0.267747 -0.679037 2.372825  0.007245 -0.952545 0.304311  0.055971 0.747346 0
0  0.407459 -0.798569 1.982594  0.007245 -0.952545 0.304311  0.055333 0.747732 0
0  0.416436 -0.733665 2.185540  0.007245 -0.952545 0.304311  0.055324 0.747531 0
lowpoly_plastic.004
0  -0.375501 -0.150428 2.687134  -0.002595 -0.499913 0.866071  0.056519 0.751752 0
0  -0.373325 -0.324532 2.586644  -0.002595 -0.499913 0.866071  0.056362 0.751750 0
0  -0.243892 -0.310950 2.594872  -0.002595 -0.499913 0.866071  0.056374 0.751628 0
lowpoly_metal.005
0  0.485051 -0.724150 -3.402460  0.562916 -0.339995 -0.753345  0.050732 0.712644 0
0  0.430042 -1.372709 -3.150861  0.562916 -0.339995 -0.753345  0.050775 0.712105 0
0  0.413168 -0.706668 -3.464063  0.562916 -0.339995 -0.753345  0.050788 0.712672 0
lowpoly_metal.005
0  0.456363 0.274640 -3.798572  0.000000 -0.295054 -0.955481  0.050754 0.713476 0
0  -0.554609 0.072183 -3.736053  0.000000 -0.295054 -0.955481  0.051539 0.713312 0
0  -0.377508 0.274640 -3.798572  0.000000 -0.295054 -0.955481  0.051401 0.713476 0
lowpoly_plastic.004
0  0.586767 -0.326264 -3.406270  0.999964 -0.002755 -0.008028  0.052618 0.753343 0
0  0.585886 -0.351575 -3.507347  0.999964 -0.002755 -0.008028  0.052618 0.753442 0
0  0.585840 0.097575 -3.667131  0.999964 -0.002755 -0.008028  0.052170 0.753487 0
lowpoly_plastic.004
0  0.586167 0.430243 -2.983204  1.000000 -0.000446 -0.000601  0.052020 0.752784 0
0  0.586876 0.747242 -2.038397  1.000000 -0.000446 -0.000601  0.051943 0.751845 0
0  0.586545 -0.738838 -1.485592  1.000000 -0.000446 -0.000601  0.053431 0.751674 0
lowpoly_plastic.004
0  -0.507552 1.643491 2.655709  0.000000 0.989202 -0.146560  0.054281 0.747339 0
0  -0.377248 1.643491 2.655709  0.000000 0.989202 -0.146560  0.054404 0.747339 0
0  -0.429978 1.467668 1.468994  0.000000 0.989202 -0.146560  0.054354 0.748472 0
lowpoly_metal.005
0  0.370736 -0.123555 2.209494  0.046246 0.069332 0.996521  0.051679 0.707574 0
0  0.464422 -0.253890 2.214214  0.046246 0.069332 0.996521  0.051700 0.707524 0
0  0.464267 1.535788 2.089707  0.046246 0.069332 0.996521  0.051700 0.708831 0
lowpoly_metal.005
0  0.024116 -0.123591 2.209447  -0.000113 0.059896 0.998205  0.051410 0.707574 0
0  -0.095118 -0.253999 2.217258  -0.000113 0.059896 0.998205  0.051341 0.707492 0
0  0.150385 -0.253916 2.217281  -0.000113 0.059896 0.998205  0.051493 0.707492 0
lowpoly_metal.005
0  0.024116 -0.123591 2.209447  0.007685 0.073944 0.997233  0.051410 0.707574 0
0  0.023973 1.419260 2.095047  0.007685 0.073944 0.997233  0.051410 0.708774 0
0  -0.391664 1.535719 2.089615  0.007685 0.073944 0.997233  0.051169 0.708831 0
lowpoly_metal.005
0  0.023973 1.419260 2.095047  -0.000142 0.046310 0.998927  0.051410 0.708774 0
0  0.370593 1.419296 2.095094  -0.000142 0.046310 0.998927  0.051679 0.708774 0
0  0.464267 1.535788 2.089707  -0.000142 0.046310 0.998927  0.051700 0.708831 0
lowpoly_plastic.004
0  0.298796 -0.539019 2.578019  -0.994531 0.104441 0.000000  0.059789 0.875828 0
0  0.322747 -0.310950 1.842507  -0.994531 0.104441 0.000000  0.059933 0.875813 0
0  0.298796 -0.539019 1.842507  -0.994531 0.104441 0.000000  0.059789 0.875828 0
lowpoly_plastic.004
0  0.455230 0.377222 2.678659  -1.000000 0.000384 0.000000  0.060258 0.874477 0
0  0.455667 1.514235 1.842507  -1.000000 0.000384 0.000000  0.060258 0.875197 0
0  0.455230 0.377222 1.842507  -1.000000 0.000384 0.000000  0.060258 0.874477 0
lowpoly_plastic.004
0  -0.506985 0.097575 -3.667131  -0.999964 -0.002755 -0.008028  0.051672 0.753487 0
0  -0.507030 -0.351575 -3.507347  -0.999964 -0.002755 -0.008028  0.051224 0.753442 0
0  -0.507911 -0.326264 -3.406270  -0.999964 -0.002755 -0.008028  0.051224 0.753343 0
lowpoly_plastic.004
0  -0.507689 -0.738838 -1.485592  -1.000000 -0.000446 -0.000601  0.050411 0.751674 0
0  -0.508020 0.747242 -2.038397  -1.000000 -0.000446 -0.000601  0.051899 0.751845 0
0  -0.507311 0.430243 -2.983204  -1.000000 -0.000446 -0.000601  0.051822 0.752784 0
lowpoly_plastic.004
0  -0.373451 -0.608370 -0.236181  -0.994856 -0.099328 0.019902  0.050249 0.750499 0
0  -0.316124 -1.267588 -0.660563  -0.994856 -0.099328 0.019902  0.049741 0.751038 0
0  -0.316124 -1.047727 0.436747  -0.994856 -0.099328 0.019902  0.049694 0.749981 0
lowpoly_plastic.004
0  0.452307 -0.608370 -0.236181  0.995052 -0.097022 0.021423  0.053593 0.750499 0
0  0.452083 -0.487491 0.321655  0.995052 -0.097022 0.021423  0.053609 0.749960 0
0  0.394979 -1.047727 0.436747  0.995052 -0.097022 0.021423  0.054148 0.749981 0
lowpoly_plastic.004
0  0.039428 -1.137947 0.448488  -0.247355 -0.950042 0.190354  0.055681 0.749210 0
0  -0.316124 -1.267588 -0.660563  -0.247355 -0.950042 0.190354  0.056017 0.750244 0
0  0.039428 -1.357808 -0.648822  -0.247355 -0.950042 0.190354  0.055681 0.750260 0
lowpoly_plastic.004
0  -0.338313 -1.336733 -1.298377  -0.247880 -0.962186 0.112933  0.056038 0.750838 0
0  0.039428 -1.357808 -0.648822  -0.247880 -0.962186 0.112933  0.055681 0.750260 0
0  -0.316124 -1.267588 -0.660563  -0.247880 -0.962186 0.112933  0.056017 0.750244 0
lowpoly_plastic.004
0  0.039428 -1.426952 -1.286637  -0.226193 -0.897910 0.377615  0.055681 0.750854 0
0  -0.338313 -1.632268 -2.001112  -0.226193 -0.897910 0.377615  0.056038 0.751556 0
0  0.039428 -1.722487 -1.989372  -0.226193 -0.897910 0.377615  0.055681 0.751571 0
lowpoly_plastic.004
0  0.039428 -2.062010 -2.732406  0.224289 -0.886371 0.405019  0.055681 0.752338 0
0  0.417169 -1.632268 -2.001112  0.224289 -0.886371 0.405019  0.055324 0.751556 0
0  0.039428 -1.722487 -1.989372  0.224289 -0.886371 0.405019  0.055681 0.751571 0
lowpoly_plastic.004
0  -0.338313 -1.336733 -1.298377  -0.997178 -0.073096 0.017135  0.049822 0.751639 0
0  -0.373451 -0.608370 -0.236181  -0.997178 -0.073096 0.017135  0.050249 0.750499 0
0  -0.373270 -0.894429 -1.445889  -0.997178 -0.073096 0.017135  0.050260 0.751674 0
lowpoly_plastic.004
0  -0.372859 -1.540663 -2.979843  -0.997376 -0.066330 0.028996  0.050015 0.753227 0
0  -0.338313 -1.970953 -2.775865  -0.997376 -0.066330 0.028996  0.049574 0.753138 0
0  -0.338313 -1.632268 -2.001112  -0.997376 -0.066330 0.028996  0.049710 0.752350 0
lowpoly_plastic.004
0  0.452126 -0.894429 -1.445889  0.997178 -0.073096 0.017135  0.053582 0.751674 0
0  0.452307 -0.608370 -0.236181  0.997178 -0.073096 0.017135  0.053593 0.750499 0
0  0.417169 -1.336733 -1.298377  0.997178 -0.073096 0.017135  0.054021 0.751639 0
lowpoly_plastic.004
0  0.451715 -1.540663 -2.979843  0.997211 -0.068881 0.028752  0.053827 0.753227 0
0  0.452126 -0.894429 -1.445889  0.997211 -0.068881 0.028752  0.053582 0.751674 0
0  0.417169 -1.632268 -2.001112  0.997211 -0.068881 0.028752  0.054133 0.752350 0
lowpoly_plastic.004
0  -0.219941 -0.539019 2.578019  0.000000 1.000000 0.000000  0.059789 0.876157 0
0  0.298796 -0.539019 1.842507  0.000000 1.000000 0.000000  0.059789 0.875828 0
0  -0.219941 -0.539019 1.842507  0.000000 1.000000 0.000000  0.059789 0.876157 0
lowpoly_plastic.004
0  0.039428 0.664062 -2.528233  0.139285 0.938788 -0.315083  0.054798 0.752322 0
0  0.586876 0.747242 -2.038397  0.139285 0.938788 -0.315083  0.055315 0.751853 0
0  0.586167 0.430243 -2.983204  0.139285 0.938788 -0.315083  0.055314 0.752782 0
lowpoly_plastic.004
0  0.039428 0.996145 -1.350424  0.097579 0.958180 -0.269014  0.054798 0.751174 0
0  0.586882 0.944007 -1.337550  0.097579 0.958180 -0.269014  0.055315 0.751170 0
0  0.586876 0.747242 -2.038397  0.097579 0.958180 -0.269014  0.055315 0.751853 0
lowpoly_plastic.004
0  -0.347560 -0.658828 2.595620  0.000000 0.145347 0.989381  0.056046 0.751726 0
0  0.426416 -0.658828 2.595620  0.000000 0.145347 0.989381  0.056046 0.750994 0
0  0.298796 -0.539019 2.578019  0.000000 0.145347 0.989381  0.056161 0.751115 0
lowpoly_metal.005
0  -0.164370 1.803835 1.502983  0.000000 -0.011063 -0.999939  0.051368 0.711565 0
0  0.190154 2.013652 1.500661  0.000000 -0.011063 -0.999939  0.051169 0.711290 0
0  0.243225 1.803835 1.502982  0.000000 -0.011063 -0.999939  0.051368 0.711249 0
lowpoly_plastic.004
0  -0.316124 -1.047727 0.436747  0.000000 -0.987258 0.159125  0.056017 0.749194 0
0  0.039428 -0.798569 1.982594  0.000000 -0.987258 0.159125  0.055681 0.747732 0
0  -0.328603 -0.798569 1.982594  0.000000 -0.987258 0.159125  0.056028 0.747732 0
lowpoly_plastic.004
0  0.586408 1.643491 2.655709  -0.415545 0.903296 -0.106668  0.055315 0.747339 0
0  0.586230 1.401427 0.606528  -0.415545 0.903296 -0.106668  0.055314 0.749287 0
0  0.508833 1.467668 1.468994  -0.415545 0.903296 -0.106668  0.055241 0.748472 0
lowpoly_plastic.004
0  0.455667 1.514235 2.658052  0.000000 -1.000000 0.000000  0.056029 0.877471 0
0  -0.376811 1.514235 1.842507  0.000000 -1.000000 0.000000  0.056029 0.877998 0
0  0.455667 1.514235 1.842507  0.000000 -1.000000 0.000000  0.056029 0.877471 0
lowpoly_metal.005
0  -0.338313 -1.970953 -2.775865  0.000000 -0.882391 0.470517  0.047978 0.712564 0
0  -0.284978 -1.997092 -2.824886  0.000000 -0.882391 0.470517  0.048020 0.712606 0
0  0.363834 -1.997092 -2.824886  0.000000 -0.882391 0.470517  0.048020 0.713109 0
lowpoly_plastic.004
0  -0.376811 1.514235 2.658052  0.000000 -0.047941 0.998850  0.056029 0.877998 0
0  0.455667 1.514235 2.658052  0.000000 -0.047941 0.998850  0.056029 0.877471 0
0  0.327494 1.643646 2.664263  0.000000 -0.047941 0.998850  0.056111 0.877553 0
lowpoly_metal.005
0  0.485051 -0.724150 -3.402460  0.019899 -0.420171 -0.907227  0.050732 0.712644 0
0  0.696150 -0.393534 -3.550951  0.019899 -0.420171 -0.907227  0.050568 0.712923 0
0  0.693948 -1.344241 -3.110692  0.019899 -0.420171 -0.907227  0.050570 0.712116 0
lowpoly_metal.005
0  0.483840 -1.352979 -3.105973  -0.015938 -0.426387 -0.904400  0.050733 0.712108 0
0  0.485051 -0.724150 -3.402460  -0.015938 -0.426387 -0.904400  0.050732 0.712644 0
0  0.566575 -1.358493 -3.104831  -0.015938 -0.426387 -0.904400  0.050669 0.712104 0
lowpoly_metal.005
0  0.376243 -1.352756 -3.106071  0.000073 -0.376097 -0.926580  0.050817 0.712109 0
0  0.483840 -1.352979 -3.105973  0.000073 -0.376097 -0.926580  0.050733 0.712108 0
0  0.438135 -1.562952 -3.020748  0.000073 -0.376097 -0.926580  0.050769 0.711933 0
lowpoly_metal.005
0  -0.184837 -0.185307 -3.637779  0.000000 -0.356574 -0.934267  0.051252 0.713098 0
0  -0.554609 0.072183 -3.736053  0.000000 -0.356574 -0.934267  0.051539 0.713312 0
0  0.633464 0.072183 -3.736053  0.000000 -0.356574 -0.934267  0.050617 0.713312 0
lowpoly_metal.005
0  -0.126493 -1.909772 -2.863332  0.000000 -0.402956 -0.915219  0.051207 0.711639 0
0  0.205349 -1.909771 -2.863332  0.000000 -0.402956 -0.915219  0.050949 0.711639 0
0  0.363834 -1.997092 -2.824886  0.000000 -0.402956 -0.915219  0.050826 0.711565 0
lowpoly_metal.005
0  -0.126493 -1.909772 -2.863332  0.004989 -0.410521 -0.911837  0.051207 0.711639 0
0  -0.284978 -1.997092 -2.824886  0.004989 -0.410521 -0.911837  0.051330 0.711565 0
0  -0.359279 -1.562952 -3.020748  0.004989 -0.410521 -0.911837  0.051387 0.711933 0
lowpoly_metal.005
0  -0.141689 -1.377138 -3.099120  0.015939 -0.404363 -0.914460  0.051218 0.712089 0
0  -0.126493 -1.909772 -2.863332  0.015939 -0.404363 -0.914460  0.051207 0.711639 0
0  -0.359279 -1.562952 -3.020748  0.015939 -0.404363 -0.914460  0.051387 0.711933 0
lowpoly_metal.005
0  0.285378 -0.615890 -3.451084  0.669717 -0.256465 -0.696925  0.050887 0.712735 0
0  0.237109 -0.706668 -3.464063  0.669717 -0.256465 -0.696925  0.050925 0.712672 0
0  0.204732 -0.250498 -3.663045  0.669717 -0.256465 -0.696925  0.050950 0.713056 0
lowpoly_metal.005
0  0.263693 -0.185307 -3.637779  0.000001 0.361373 -0.932421  0.050904 0.713098 0
0  0.204732 -0.250498 -3.663045  0.000001 0.361373 -0.932421  0.050950 0.713056 0
0  -0.125877 -0.250498 -3.663045  0.000001 0.361373 -0.932421  0.051206 0.713056 0
lowpoly_metal.005
0  -0.487720 -1.358493 -3.104831  -0.005790 -0.424145 -0.905576  0.051487 0.712104 0
0  -0.615093 -1.344241 -3.110691  -0.005790 -0.424145 -0.905576  0.051586 0.712116 0
0  -0.406195 -0.724150 -3.402460  -0.005790 -0.424145 -0.905576  0.051424 0.712644 0
lowpoly_plastic.004
0  0.586230 1.401427 0.606528  1.000000 0.000086 -0.000097  0.051942 0.749270 0
0  0.586408 1.643491 2.655709  1.000000 0.000086 -0.000097  0.052183 0.747335 0
0  0.586518 0.381924 2.678574  1.000000 0.000086 -0.000097  0.053346 0.747600 0
lowpoly_plastic.004
0  -0.507662 0.381924 2.678574  -1.000000 0.000085 -0.000097  0.050496 0.747600 0
0  -0.507552 1.643491 2.655709  -1.000000 0.000085 -0.000097  0.051659 0.747335 0
0  -0.507375 1.401427 0.606528  -1.000000 0.000085 -0.000097  0.051901 0.749270 0
lowpoly_metal.005
0  0.438135 -1.562952 -3.020748  -0.015935 -0.404364 -0.914459  0.050769 0.711933 0
0  0.205349 -1.909771 -2.863332  -0.015935 -0.404364 -0.914459  0.050949 0.711639 0
0  0.220545 -1.377138 -3.099121  -0.015935 -0.404364 -0.914459  0.050937 0.712089 0
lowpoly_plastic.004
0  -0.267836 -0.666435 2.534876  0.000000 -0.992250 0.124257  0.055971 0.747197 0
0  0.346692 -0.666435 2.534876  0.000000 -0.992250 0.124257  0.055390 0.747197 0
0  0.426416 -0.658828 2.595620  0.000000 -0.992250 0.124257  0.055315 0.747140 0
lowpoly_plastic.004
0  0.346603 -0.679037 2.372825  -0.260764 -0.948577 0.179457  0.055390 0.747346 0
0  0.416436 -0.733665 2.185540  -0.260764 -0.948577 0.179457  0.055324 0.747531 0
0  0.426416 -0.658828 2.595620  -0.260764 -0.948577 0.179457  0.055315 0.747140 0
lowpoly_plastic.004
0  -0.267747 -0.679037 2.372825  -0.036046 -0.996343 0.077462  0.055971 0.747346 0
0  -0.267836 -0.666435 2.534876  -0.036046 -0.996343 0.077462  0.055971 0.747197 0
0  -0.347560 -0.658828 2.595620  -0.036046 -0.996343 0.077462  0.056046 0.747140 0
lowpoly_plastic.004
0  -0.375501 -0.150428 2.687134  0.773311 0.634027 0.000000  0.060030 0.876255 0
0  -0.243892 -0.310950 1.842507  0.773311 0.634027 0.000000  0.059933 0.876172 0
0  -0.375501 -0.150428 1.842507  0.773311 0.634027 0.000000  0.060030 0.876255 0
lowpoly_plastic.004
0  -0.376811 1.514235 2.658052  1.000000 0.000384 0.000000  0.060444 0.877376 0
0  -0.376374 0.377222 1.842507  1.000000 0.000384 0.000000  0.060444 0.876656 0
0  -0.376811 1.514235 1.842507  1.000000 0.000384 0.000000  0.060444 0.877376 0
lowpoly_plastic.004
0  0.456104 1.643491 2.655709  0.000000 0.999836 -0.018121  0.055191 0.747339 0
0  0.476461 1.647335 2.867794  0.000000 0.999836 -0.018121  0.055211 0.747140 0
0  0.586408 1.643491 2.655709  0.000000 0.999836 -0.018121  0.055315 0.747339 0
lowpoly_plastic.004
0  0.039428 0.996145 -1.350424  0.000000 0.979221 -0.202795  0.054798 0.751174 0
0  -0.248638 1.401427 0.606528  0.000000 0.979221 -0.202795  0.054525 0.749287 0
0  0.327494 1.401427 0.606528  0.000000 0.979221 -0.202795  0.055070 0.749287 0
lowpoly_plastic.004
0  -0.338313 -1.970953 -2.775865  -0.225344 -0.892707 0.390249  0.056038 0.752351 0
0  0.039428 -1.722487 -1.989372  -0.225344 -0.892707 0.390249  0.055681 0.751571 0
0  -0.338313 -1.632268 -2.001112  -0.225344 -0.892707 0.390249  0.056038 0.751556 0
lowpoly_plastic.004
0  0.039428 -2.062010 -2.732406  0.000000 -0.430728 -0.902482  0.051179 0.753924 0
0  -0.338313 -1.970953 -2.775865  0.000000 -0.430728 -0.902482  0.051084 0.754281 0
0  0.417169 -1.970953 -2.775865  0.000000 -0.430728 -0.902482  0.051084 0.753567 0
lowpoly_metal.005
0  -0.487720 -1.358493 -3.104831  0.015946 -0.426387 -0.904400  0.051487 0.712104 0
0  -0.406195 -0.724150 -3.402460  0.015946 -0.426387 -0.904400  0.051424 0.712644 0
0  -0.404984 -1.352979 -3.105972  0.015946 -0.426387 -0.904400  0.051423 0.712108 0
lowpoly_plastic.004
0  0.422937 0.256523 -3.721730  0.185432 0.946626 -0.263656  0.055160 0.753497 0
0  0.039428 0.664062 -2.528233  0.185432 0.946626 -0.263656  0.054798 0.752322 0
0  0.586167 0.430243 -2.983204  0.185432 0.946626 -0.263656  0.055314 0.752782 0
lowpoly_metal.005
0  0.024116 -0.123591 2.209447  -0.818834 0.042372 0.572464  0.051964 0.708894 0
0  0.109340 1.428273 2.216486  -0.818834 0.042372 0.572464  0.052058 0.710095 0
0  0.023973 1.419260 2.095047  -0.818834 0.042372 0.572464  0.051964 0.710095 0
lowpoly_metal.005
0  -0.095118 -0.253999 2.217258  -0.010547 0.064328 0.997873  0.051341 0.707492 0
0  -0.391508 -0.254181 2.214137  -0.010547 0.064328 0.997873  0.051169 0.707524 0
0  -0.235105 -0.578140 2.236674  -0.010547 0.064328 0.997873  0.051169 0.707288 0
lowpoly_metal.005
0  0.150385 -0.253916 2.217281  -0.000178 0.059919 0.998203  0.051493 0.707492 0
0  -0.235105 -0.578140 2.236674  -0.000178 0.059919 0.998203  0.051169 0.707288 0
0  0.308075 -0.578070 2.236767  -0.000178 0.059919 0.998203  0.051700 0.707288 0
lowpoly_metal.005
0  0.397597 -0.253831 2.217311  -0.000141 0.059937 0.998202  0.051685 0.707492 0
0  0.150385 -0.253916 2.217281  -0.000141 0.059937 0.998202  0.051493 0.707492 0
0  0.308075 -0.578070 2.236767  -0.000141 0.059937 0.998202  0.051700 0.707288 0
lowpoly_metal.005
0  0.464422 -0.253890 2.214214  0.046289 0.047097 0.997817  0.051700 0.707524 0
0  0.397597 -0.253831 2.217311  0.046289 0.047097 0.997817  0.051685 0.707492 0
0  0.308075 -0.578070 2.236767  0.046289 0.047097 0.997817  0.051700 0.707288 0
lowpoly_metal.005
0  -0.206523 -0.615890 -3.451084  0.000000 0.141542 -0.989932  0.051269 0.712735 0
0  -0.158253 -0.706668 -3.464063  0.000000 0.141542 -0.989932  0.051231 0.712672 0
0  -0.334312 -0.706668 -3.464063  0.000000 0.141542 -0.989932  0.051368 0.712672 0
lowpoly_plastic.004
0  -0.507590 -0.327385 0.306329  -0.766149 -0.628131 0.135897  0.050383 0.749937 0
0  -0.508097 -0.450579 -0.265943  -0.766149 -0.628131 0.135897  0.050399 0.750490 0
0  -0.373451 -0.608370 -0.236181  -0.766149 -0.628131 0.135897  0.050249 0.750499 0
lowpoly_metal.005
0  0.417169 -1.970953 -2.775865  0.719759 -0.384083 -0.578297  0.049709 0.712211 0
0  0.363834 -1.997092 -2.824886  0.719759 -0.384083 -0.578297  0.049719 0.712253 0
0  0.438135 -1.562952 -3.020748  0.719759 -0.384083 -0.578297  0.049356 0.712320 0
lowpoly_plastic.004
0  -0.507662 0.381924 2.678574  -1.000000 0.000137 -0.000071  0.050496 0.747600 0
0  -0.507375 1.401427 0.606528  -1.000000 0.000137 -0.000071  0.051901 0.749270 0
0  -0.507590 -0.327385 0.306329  -1.000000 0.000137 -0.000071  0.050383 0.749937 0
lowpoly_plastic.004
0  0.476549 0.487953 2.888808  -0.477922 0.015882 0.878259  0.057067 0.753568 0
0  0.476461 1.647335 2.867794  -0.477922 0.015882 0.878259  0.057066 0.754662 0
0  0.388101 1.646464 2.819728  -0.477922 0.015882 0.878259  0.056982 0.754665 0
lowpoly_plastic.004
0  0.039428 0.664062 -2.528233  0.000000 0.946349 -0.323147  0.054798 0.752322 0
0  0.422937 0.256523 -3.721730  0.000000 0.946349 -0.323147  0.055160 0.753497 0
0  -0.344082 0.256522 -3.721730  0.000000 0.946349 -0.323147  0.054435 0.753497 0
lowpoly_plastic.004
0  0.452180 -0.324532 2.586644  0.036651 -0.499899 0.865308  0.056362 0.750970 0
0  0.586628 -0.141025 2.686963  0.036651 -0.499899 0.865308  0.056528 0.750843 0
0  0.454356 -0.150428 2.687134  0.036651 -0.499899 0.865308  0.056519 0.750968 0
lowpoly_metal.005
0  -0.126072 -1.415655 -3.135605  -0.000001 -0.404527 -0.914526  0.046102 0.712982 0
0  0.204928 -1.415655 -3.135605  -0.000001 -0.404527 -0.914526  0.045845 0.712982 0
0  0.191042 -1.910939 -2.916524  -0.000001 -0.404527 -0.914526  0.045856 0.712564 0
lowpoly_plastic.004
0  0.586952 -0.450579 -0.265943  1.000000 -0.000319 -0.000259  0.053443 0.750490 0
0  0.586545 -0.738838 -1.485592  1.000000 -0.000319 -0.000259  0.053431 0.751674 0
0  0.586876 0.747242 -2.038397  1.000000 -0.000319 -0.000259  0.051943 0.751845 0
lowpoly_metal.005
0  0.377165 -0.719890 -3.404374  -0.795361 -0.274321 -0.540507  0.048058 0.713106 0
0  0.413168 -0.706668 -3.464063  -0.795361 -0.274321 -0.540507  0.048020 0.713135 0
0  0.430042 -1.372709 -3.150861  -0.795361 -0.274321 -0.540507  0.050775 0.712105 0
lowpoly_metal.005
0  -0.126493 -1.909772 -2.863332  0.000000 -0.999759 0.021945  0.048634 0.712564 0
0  -0.112186 -1.910939 -2.916524  0.000000 -0.999759 0.021945  0.048674 0.712575 0
0  0.191042 -1.910939 -2.916524  0.000000 -0.999759 0.021945  0.048674 0.712811 0
lowpoly_metal.005
0  -0.391664 1.535719 2.089615  -0.000040 0.940989 -0.338436  0.046754 0.713095 0
0  0.464267 1.535788 2.089707  -0.000040 0.940989 -0.338436  0.046754 0.712564 0
0  0.398046 1.480623 1.936332  -0.000040 0.940989 -0.338436  0.046873 0.712564 0
lowpoly_metal.005
0  -0.286714 1.480553 1.936239  -0.817284 -0.042685 -0.574652  0.051931 0.708831 0
0  -0.286530 -0.502763 2.083299  -0.817284 -0.042685 -0.574652  0.051931 0.707288 0
0  -0.391508 -0.254181 2.214137  -0.817284 -0.042685 -0.574652  0.052050 0.707524 0
lowpoly_metal.005
0  -0.286530 -0.502763 2.083299  -0.899255 -0.427799 0.091264  0.051931 0.707288 0
0  -0.235105 -0.578140 2.236674  -0.899255 -0.427799 0.091264  0.052050 0.707288 0
0  -0.391508 -0.254181 2.214137  -0.899255 -0.427799 0.091264  0.052050 0.707524 0
lowpoly_metal.005
0  0.285333 -0.114560 2.330910  -0.000143 0.073946 0.997262  0.051837 0.708894 0
0  0.285190 1.428291 2.216509  -0.000143 0.073946 0.997262  0.051837 0.710095 0
0  0.109340 1.428273 2.216486  -0.000143 0.073946 0.997262  0.051700 0.710095 0
lowpoly_metal.005
0  0.398229 -0.502692 2.083392  0.000191 -0.897517 -0.440980  0.046873 0.712564 0
0  0.308075 -0.578070 2.236767  0.000191 -0.897517 -0.440980  0.046989 0.712564 0
0  -0.235105 -0.578140 2.236674  0.000191 -0.897517 -0.440980  0.046989 0.713095 0
lowpoly_metal.005
0  0.398046 1.480623 1.936332  0.921236 -0.026918 -0.388071  0.051937 0.713108 0
0  0.464267 1.535788 2.089707  0.921236 -0.026918 -0.388071  0.051818 0.713108 0
0  0.464422 -0.253890 2.214214  0.921236 -0.026918 -0.388071  0.051818 0.711802 0
lowpoly_metal.005
0  0.464422 -0.253890 2.214214  0.863617 -0.394690 0.313664  0.051818 0.711802 0
0  0.308075 -0.578070 2.236767  0.863617 -0.394690 0.313664  0.051818 0.711565 0
0  0.398229 -0.502692 2.083392  0.863617 -0.394690 0.313664  0.051937 0.711565 0
lowpoly_metal.005
0  -0.286530 -0.502763 2.083299  0.000143 -0.073945 -0.997262  0.051700 0.708831 0
0  -0.286714 1.480553 1.936239  0.000143 -0.073945 -0.997262  0.051700 0.710327 0
0  0.398046 1.480623 1.936332  0.000143 -0.073945 -0.997262  0.051169 0.710327 0
lowpoly_metal.005
0  0.024116 -0.123591 2.209447  -0.000139 0.059868 0.998206  0.051410 0.707574 0
0  0.150385 -0.253916 2.217281  -0.000139 0.059868 0.998206  0.051493 0.707492 0
0  0.397597 -0.253831 2.217311  -0.000139 0.059868 0.998206  0.051685 0.707492 0
lowpoly_metal.005
0  0.024116 -0.123591 2.209447  -0.010548 0.069397 0.997533  0.051410 0.707574 0
0  -0.391664 1.535719 2.089615  -0.010548 0.069397 0.997533  0.051169 0.708831 0
0  -0.391508 -0.254181 2.214137  -0.010548 0.069397 0.997533  0.051169 0.707524 0
lowpoly_metal.005
0  0.370593 1.419296 2.095094  0.818665 0.042540 0.572694  0.052063 0.711527 0
0  0.285190 1.428291 2.216509  0.818665 0.042540 0.572694  0.051969 0.711528 0
0  0.285333 -0.114560 2.330910  0.818665 0.042540 0.572694  0.051969 0.710328 0
lowpoly_plastic.004
0  0.394979 -1.047727 0.436747  0.247355 -0.950042 0.190354  0.055345 0.749194 0
0  0.039428 -1.137947 0.448488  0.247355 -0.950042 0.190354  0.055681 0.749210 0
0  0.039428 -1.357808 -0.648822  0.247355 -0.950042 0.190354  0.055681 0.750260 0
lowpoly_metal.005
0  -0.184837 -0.185307 -3.637779  -0.625256 -0.283735 -0.727014  0.051252 0.713098 0
0  -0.125877 -0.250498 -3.663045  -0.625256 -0.283735 -0.727014  0.051206 0.713056 0
0  -0.206523 -0.615890 -3.451084  -0.625256 -0.283735 -0.727014  0.051269 0.712735 0
lowpoly_metal.005
0  0.023973 1.419260 2.095047  -0.000094 0.997262 -0.073945  0.047701 0.712833 0
0  0.109340 1.428273 2.216486  -0.000094 0.997262 -0.073945  0.047607 0.712767 0
0  0.285190 1.428291 2.216509  -0.000094 0.997262 -0.073945  0.047607 0.712630 0
lowpoly_metal.005
0  0.024116 -0.123591 2.209447  0.000092 -0.997262 0.073945  0.047515 0.712833 0
0  0.370736 -0.123555 2.209494  0.000092 -0.997262 0.073945  0.047515 0.712564 0
0  0.285333 -0.114560 2.330910  0.000092 -0.997262 0.073945  0.047607 0.712630 0
lowpoly_plastic.004
0  0.417169 -1.336733 -1.298377  0.226194 -0.897910 0.377616  0.055324 0.750838 0
0  0.039428 -1.426952 -1.286637  0.226194 -0.897910 0.377616  0.055681 0.750854 0
0  0.039428 -1.722487 -1.989372  0.226194 -0.897910 0.377616  0.055681 0.751571 0
lowpoly_plastic.004
0  0.452307 -0.608370 -0.236181  0.766748 -0.624745 0.147618  0.053593 0.750499 0
0  0.452126 -0.894429 -1.445889  0.766748 -0.624745 0.147618  0.053582 0.751674 0
0  0.586545 -0.738838 -1.485592  0.766748 -0.624745 0.147618  0.053431 0.751674 0
lowpoly_plastic.004
0  0.452126 -0.894429 -1.445889  0.827988 -0.516840 0.217516  0.053582 0.751674 0
0  0.451715 -1.540663 -2.979843  0.827988 -0.516840 0.217516  0.053827 0.753227 0
0  0.585610 -1.359968 -3.060174  0.827988 -0.516840 0.217516  0.053645 0.753260 0
lowpoly_plastic.004
0  0.586545 -0.738838 -1.485592  0.999998 -0.002007 -0.000315  0.053431 0.751674 0
0  0.584932 -1.310388 -2.963116  0.999998 -0.002007 -0.000315  0.053621 0.753159 0
0  0.586767 -0.326264 -3.406270  0.999998 -0.002007 -0.000315  0.052618 0.753343 0
lowpoly_metal.005
0  0.585886 -0.351575 -3.507347  0.461684 0.380601 0.801243  0.047701 0.712605 0
0  0.696150 -0.393534 -3.550951  0.461684 0.380601 0.801243  0.047782 0.712564 0
0  0.633464 0.072183 -3.736053  0.461684 0.380601 0.801243  0.047993 0.712554 0
lowpoly_plastic.004
0  -0.373325 -0.324532 2.586644  -0.793208 -0.607098 0.047464  0.049870 0.747845 0
0  -0.507772 -0.141026 2.686963  -0.793208 -0.607098 0.047464  0.050015 0.747711 0
0  -0.507590 -0.327385 0.306329  -0.793208 -0.607098 0.047464  0.050383 0.749937 0
lowpoly_plastic.004
0  0.586446 -0.327385 0.306329  1.000000 0.000627 0.000751  0.053460 0.749937 0
0  0.586952 -0.450579 -0.265943  1.000000 0.000627 0.000751  0.053443 0.750490 0
0  0.586882 0.944007 -1.337550  1.000000 0.000627 0.000751  0.051921 0.751158 0
lowpoly_metal.005
0  -0.506985 0.097575 -3.667131  -0.561229 0.717132 0.413212  0.049720 0.712484 0
0  -0.344082 0.256522 -3.721730  -0.561229 0.717132 0.413212  0.049846 0.712507 0
0  -0.377508 0.274640 -3.798572  -0.561229 0.717132 0.413212  0.047737 0.712564 0
lowpoly_plastic.004
0  -0.219941 -0.539019 2.578019  -0.054949 -0.079319 0.995334  0.056161 0.751605 0
0  -0.243892 -0.310950 2.594872  -0.054949 -0.079319 0.995334  0.056374 0.751628 0
0  -0.373325 -0.324532 2.586644  -0.054949 -0.079319 0.995334  0.056362 0.751750 0
lowpoly_plastic.004
0  -0.267747 -0.679037 2.372825  -0.773851 -0.631588 -0.047447  0.052590 0.753721 0
0  -0.159090 -0.814281 2.400936  -0.773851 -0.631588 -0.047447  0.052462 0.753705 0
0  -0.172561 -0.804244 2.487048  -0.773851 -0.631588 -0.047447  0.052465 0.753623 0
lowpoly_plastic.004
0  -0.373451 -0.608370 -0.236181  -0.765936 -0.625737 0.147634  0.050249 0.750499 0
0  -0.508097 -0.450579 -0.265943  -0.765936 -0.625737 0.147634  0.050399 0.750490 0
0  -0.507689 -0.738838 -1.485592  -0.765936 -0.625737 0.147634  0.050411 0.751674 0
lowpoly_plastic.004
0  0.586628 -0.141025 2.686963  0.000073 0.016039 0.999871  0.056528 0.750843 0
0  0.586518 0.381924 2.678574  0.000073 0.016039 0.999871  0.057021 0.750843 0
0  0.455230 0.377222 2.678659  0.000073 0.016039 0.999871  0.057017 0.750967 0
lowpoly_plastic.004
0  0.327494 1.643646 2.664263  0.000000 0.998781 0.049362  0.054825 0.753566 0
0  0.277034 1.694318 1.638980  0.000000 0.998781 0.049362  0.054777 0.754300 0
0  -0.198179 1.694318 1.638980  0.000000 0.998781 0.049362  0.054328 0.754300 0
lowpoly_plastic.004
0  0.394979 -1.047727 0.436747  0.000000 -0.987258 0.159125  0.055345 0.749194 0
0  0.407459 -0.798569 1.982594  0.000000 -0.987258 0.159125  0.055333 0.747732 0
0  0.039428 -0.798569 1.982594  0.000000 -0.987258 0.159125  0.055681 0.747732 0
lowpoly_metal.005
0  -0.507911 -0.326264 -3.406270  -0.395738 0.376608 0.837591  0.046569 0.713351 0
0  -0.617295 -0.353188 -3.445845  -0.395738 0.376608 0.837591  0.046484 0.713333 0
0  -0.615093 -1.308256 -3.015376  -0.395738 0.376608 0.837591  0.046484 0.712569 0
lowpoly_metal.005
0  0.585610 -1.359968 -3.060174  0.287795 -0.895966 0.338258  0.048521 0.712648 0
0  0.693948 -1.344241 -3.110692  0.287795 -0.895966 0.338258  0.048437 0.712680 0
0  0.693948 -1.308256 -3.015376  0.287795 -0.895966 0.338258  0.048437 0.712601 0
lowpoly_metal.005
0  0.696150 -0.353188 -3.445845  0.208836 0.912996 -0.350464  0.048753 0.712655 0
0  0.696150 -0.393534 -3.550951  0.208836 0.912996 -0.350464  0.048674 0.712687 0
0  0.585886 -0.351575 -3.507347  0.208836 0.912996 -0.350464  0.048678 0.712593 0
lowpoly_plastic.004
0  0.387370 0.462511 2.841187  -0.924484 -0.006338 -0.381167  0.060362 0.874529 0
0  0.388101 1.646464 2.819728  -0.924484 -0.006338 -0.381167  0.060362 0.875278 0
0  0.455667 1.514235 2.658052  -0.924484 -0.006338 -0.381167  0.060258 0.875197 0
lowpoly_plastic.004
0  0.298796 -0.539019 2.578019  -0.104462 0.034739 0.993922  0.056161 0.751115 0
0  0.426416 -0.658828 2.595620  -0.104462 0.034739 0.993922  0.056046 0.750994 0
0  0.452180 -0.324532 2.586644  -0.104462 0.034739 0.993922  0.056362 0.750970 0
lowpoly_metal.005
0  0.696150 -0.353188 -3.445845  0.999998 -0.001971 0.000744  0.046397 0.713377 0
0  0.693948 -1.308256 -3.015376  0.999998 -0.001971 0.000744  0.046397 0.712564 0
0  0.693948 -1.344241 -3.110692  0.999998 -0.001971 0.000744  0.046476 0.712569 0
lowpoly_metal.005
0  0.204732 -0.250498 -3.663045  0.000000 -0.399819 -0.916594  0.050950 0.713056 0
0  0.237109 -0.706668 -3.464063  0.000000 -0.399819 -0.916594  0.050925 0.712672 0
0  -0.158253 -0.706668 -3.464063  0.000000 -0.399819 -0.916594  0.051231 0.712672 0
lowpoly_metal.005
0  -0.338313 -1.970953 -2.775865  -0.958643 -0.181062 -0.219590  0.045856 0.712211 0
0  -0.372859 -1.540663 -2.979843  -0.958643 -0.181062 -0.219590  0.046217 0.712285 0
0  -0.359279 -1.562952 -3.020748  -0.958643 -0.181062 -0.219590  0.046208 0.712320 0
lowpoly_metal.005
0  -0.617295 -0.393534 -3.550951  -0.009348 -0.368248 -0.929680  0.051587 0.712923 0
0  -0.554609 0.072183 -3.736053  -0.009348 -0.368248 -0.929680  0.051539 0.713312 0
0  -0.184837 -0.185307 -3.637779  -0.009348 -0.368248 -0.929680  0.051252 0.713098 0
lowpoly_plastic.004
0  0.322747 -0.310950 2.594872  -0.773311 0.634027 0.000000  0.059933 0.875813 0
0  0.454356 -0.150428 2.687134  -0.773311 0.634027 0.000000  0.060030 0.875730 0
0  0.454356 -0.150428 1.842507  -0.773311 0.634027 0.000000  0.060030 0.875730 0
lowpoly_plastic.004
0  -0.376374 0.377222 2.678659  0.999999 0.001656 0.000000  0.060363 0.876256 0
0  -0.375501 -0.150428 2.687134  0.999999 0.001656 0.000000  0.060030 0.876255 0
0  -0.375501 -0.150428 1.842507  0.999999 0.001656 0.000000  0.060030 0.876255 0
lowpoly_plastic.004
0  0.455230 0.377222 2.678659  0.032015 -0.885580 0.463381  0.051405 0.753759 0
0  0.586518 0.381924 2.678574  0.032015 -0.885580 0.463381  0.051292 0.753811 0
0  0.476549 0.487953 2.888808  0.032015 -0.885580 0.463381  0.051292 0.753567 0
lowpoly_plastic.004
0  -0.377248 1.643491 2.655709  0.000000 0.999836 -0.018121  0.054404 0.747339 0
0  -0.507552 1.643491 2.655709  0.000000 0.999836 -0.018121  0.054281 0.747339 0
0  -0.397606 1.647335 2.867794  0.000000 0.999836 -0.018121  0.054385 0.747140 0
lowpoly_metal.005
0  0.220545 -1.377138 -3.099121  0.000001 0.687688 -0.726006  0.048866 0.712845 0
0  0.204928 -1.415655 -3.135605  0.000001 0.687688 -0.726006  0.048833 0.712833 0
0  -0.126072 -1.415655 -3.135605  0.000001 0.687688 -0.726006  0.048833 0.712576 0
lowpoly_plastic.004
0  0.586408 1.643491 2.655709  0.887826 0.008407 0.460102  0.052183 0.747335 0
0  0.476461 1.647335 2.867794  0.887826 0.008407 0.460102  0.052227 0.747140 0
0  0.476549 0.487953 2.888808  0.887826 0.008407 0.460102  0.053295 0.747384 0
lowpoly_plastic.004
0  -0.309245 1.646464 2.819728  0.477914 0.015882 0.878263  0.055315 0.754683 0
0  -0.397606 1.647335 2.867794  0.477914 0.015882 0.878263  0.055231 0.754681 0
0  -0.397694 0.487953 2.888808  0.477914 0.015882 0.878263  0.055231 0.753587 0
lowpoly_plastic.004
0  0.586882 0.944007 -1.337550  0.097600 0.971596 -0.215583  0.055315 0.751170 0
0  0.039428 0.996145 -1.350424  0.097600 0.971596 -0.215583  0.054798 0.751174 0
0  0.327494 1.401427 0.606528  0.097600 0.971596 -0.215583  0.055070 0.749287 0
lowpoly_plastic.004
0  0.407459 -0.798569 1.982594  0.000000 -0.952477 0.304611  0.055333 0.747732 0
0  -0.337580 -0.733665 2.185540  0.000000 -0.952477 0.304611  0.056037 0.747531 0
0  -0.328603 -0.798569 1.982594  0.000000 -0.952477 0.304611  0.056028 0.747732 0
lowpoly_plastic.004
0  0.452307 -0.608370 -0.236181  0.766149 -0.628131 0.135897  0.053593 0.750499 0
0  0.586952 -0.450579 -0.265943  0.766149 -0.628131 0.135897  0.053443 0.750490 0
0  0.586446 -0.327385 0.306329  0.766149 -0.628131 0.135897  0.053460 0.749937 0
lowpoly_plastic.004
0  -0.508097 -0.450579 -0.265943  -1.000000 0.000036 -0.000019  0.050399 0.750490 0
0  -0.508026 0.944007 -1.337550  -1.000000 0.000036 -0.000019  0.051921 0.751158 0
0  -0.508020 0.747242 -2.038397  -1.000000 0.000036 -0.000019  0.051899 0.751845 0
lowpoly_metal.005
0  -0.111299 2.013652 1.500661  0.000000 0.397463 0.917618  0.050493 0.712864 0
0  -0.198179 1.694318 1.638980  0.000000 0.397463 0.917618  0.050166 0.712932 0
0  0.277034 1.694318 1.638980  0.000000 0.397463 0.917618  0.050166 0.712563 0
lowpoly_plastic.004
0  0.237946 -0.814281 2.400936  0.000000 -0.993276 0.115770  0.051546 0.753955 0
0  0.251417 -0.804244 2.487048  0.000000 -0.993276 0.115770  0.051466 0.753968 0
0  -0.172561 -0.804244 2.487048  0.000000 -0.993276 0.115770  0.051466 0.753567 0
lowpoly_plastic.004
0  -0.507552 1.643491 2.655709  -0.887804 0.008417 0.460145  0.051659 0.747335 0
0  -0.507662 0.381924 2.678574  -0.887804 0.008417 0.460145  0.050496 0.747600 0
0  -0.397694 0.487953 2.888808  -0.887804 0.008417 0.460145  0.050547 0.747384 0
lowpoly_metal.005
0  0.220545 -1.377138 -3.099121  -0.000004 -0.421229 -0.906954  0.050937 0.712089 0
0  -0.141689 -1.377138 -3.099120  -0.000004 -0.421229 -0.906954  0.051218 0.712089 0
0  -0.298309 -0.719890 -3.404374  -0.000004 -0.421229 -0.906954  0.051340 0.712647 0
lowpoly_metal.005
0  -0.617295 -0.353188 -3.445845  -0.999998 -0.001967 0.000755  0.046397 0.713377 0
0  -0.617295 -0.393534 -3.550951  -0.999998 -0.001967 0.000755  0.046310 0.713382 0
0  -0.615093 -1.344241 -3.110691  -0.999998 -0.001967 0.000755  0.046318 0.712569 0
lowpoly_metal.005
0  -0.554609 0.072183 -3.736053  -0.461682 0.380602 0.801244  0.051368 0.711565 0
0  -0.617295 -0.393534 -3.550951  -0.461682 0.380602 0.801244  0.051368 0.711191 0
0  -0.507030 -0.351575 -3.507347  -0.461682 0.380602 0.801244  0.047210 0.712461 0
lowpoly_plastic.004
0  0.454356 -0.150428 2.687134  -0.999999 0.001656 0.000000  0.060030 0.875730 0
0  0.455230 0.377222 2.678659  -0.999999 0.001656 0.000000  0.060363 0.875729 0
0  0.455230 0.377222 1.842507  -0.999999 0.001656 0.000000  0.060363 0.875729 0
lowpoly_metal.005
0  -0.359279 -1.562952 -3.020748  -0.812440 -0.581152 0.046941  0.046208 0.712320 0
0  -0.372859 -1.540663 -2.979843  -0.812440 -0.581152 0.046941  0.046217 0.712285 0
0  -0.506755 -1.359967 -3.060174  -0.812440 -0.581152 0.046941  0.046367 0.712312 0
lowpoly_plastic.004
0  -0.376374 0.377222 2.678659  -0.000069 0.016039 0.999871  0.057017 0.751753 0
0  -0.507662 0.381924 2.678574  -0.000069 0.016039 0.999871  0.057021 0.751877 0
0  -0.507772 -0.141026 2.686963  -0.000069 0.016039 0.999871  0.056528 0.751877 0
lowpoly_metal.005
0  0.696150 -0.393534 -3.550951  -0.008395 -0.399653 -0.916628  0.050568 0.712923 0
0  0.377287 -0.615890 -3.451084  -0.008395 -0.399653 -0.916628  0.050816 0.712735 0
0  0.263693 -0.185307 -3.637779  -0.008395 -0.399653 -0.916628  0.050904 0.713098 0
lowpoly_plastic.004
0  0.039428 0.996145 -1.350424  0.096125 0.958018 -0.270113  0.054798 0.751174 0
0  0.586876 0.747242 -2.038397  0.096125 0.958018 -0.270113  0.055315 0.751853 0
0  0.039428 0.664062 -2.528233  0.096125 0.958018 -0.270113  0.054798 0.752322 0
lowpoly_metal.005
0  -0.617295 -0.393534 -3.550951  -0.099641 0.928935 -0.356582  0.048833 0.712687 0
0  -0.617295 -0.353188 -3.445845  -0.099641 0.928935 -0.356582  0.048753 0.712655 0
0  -0.507911 -0.326264 -3.406270  -0.099641 0.928935 -0.356582  0.048753 0.712564 0
lowpoly_metal.005
0  0.285378 -0.615890 -3.451084  0.625255 -0.283735 -0.727015  0.050887 0.712735 0
0  0.204732 -0.250498 -3.663045  0.625255 -0.283735 -0.727015  0.050950 0.713056 0
0  0.263693 -0.185307 -3.637779  0.625255 -0.283735 -0.727015  0.050904 0.713098 0
lowpoly_plastic.004
0  0.346603 -0.679037 2.372825  0.000000 -0.203504 -0.979074  0.041677 0.803372 0
0  0.237946 -0.814281 2.400936  0.000000 -0.203504 -0.979074  0.041807 0.803475 0
0  -0.159090 -0.814281 2.400936  0.000000 -0.203504 -0.979074  0.041807 0.803850 0
lowpoly_metal.005
0  -0.126493 -1.909772 -2.863332  -0.955367 -0.141949 -0.259083  0.047396 0.712564 0
0  -0.141689 -1.377138 -3.099120  -0.955367 -0.141949 -0.259083  0.047396 0.713016 0
0  -0.126072 -1.415655 -3.135605  -0.955367 -0.141949 -0.259083  0.047358 0.713000 0
lowpoly_metal.005
0  0.438135 -1.562952 -3.020748  0.731504 -0.595843 -0.331473  0.049356 0.712320 0
0  0.566575 -1.358493 -3.104831  0.731504 -0.595843 -0.331473  0.049188 0.712345 0
0  0.585610 -1.359968 -3.060174  0.731504 -0.595843 -0.331473  0.049197 0.712312 0
lowpoly_metal.005
0  0.585840 0.097575 -3.667131  0.696041 0.680024 0.230424  0.047987 0.712498 0
0  0.633464 0.072183 -3.736053  0.696041 0.680024 0.230424  0.047993 0.712554 0
0  0.456363 0.274640 -3.798572  0.696041 0.680024 0.230424  0.050467 0.712563 0
lowpoly_plastic.004
0  -0.243892 -0.310950 2.594872  0.994531 0.104441 0.000000  0.059933 0.876172 0
0  -0.219941 -0.539019 2.578019  0.994531 0.104441 0.000000  0.059789 0.876157 0
0  -0.219941 -0.539019 1.842507  0.994531 0.104441 0.000000  0.059789 0.876157 0
lowpoly_plastic.004
0  -0.508026 0.944007 -1.337550  -0.999999 0.000627 0.000750  0.051921 0.751158 0
0  -0.508097 -0.450579 -0.265943  -0.999999 0.000627 0.000750  0.050399 0.750490 0
0  -0.507590 -0.327385 0.306329  -0.999999 0.000627 0.000750  0.050383 0.749937 0
lowpoly_metal.005
0  0.422937 0.256523 -3.721730  -0.000000 0.973312 0.229487  0.050441 0.712507 0
0  0.456363 0.274640 -3.798572  -0.000000 0.973312 0.229487  0.050467 0.712563 0
0  -0.377508 0.274640 -3.798572  -0.000000 0.973312 0.229487  0.049820 0.712563 0
lowpoly_plastic.004
0  -0.507689 -0.738838 -1.485592  -1.000000 0.000651 0.000256  0.050411 0.751674 0
0  -0.507311 0.430243 -2.983204  -1.000000 0.000651 0.000256  0.051822 0.752784 0
0  -0.507911 -0.326264 -3.406270  -1.000000 0.000651 0.000256  0.051224 0.753343 0
lowpoly_plastic.004
0  0.417169 -1.336733 -1.298377  0.247880 -0.962186 0.112933  0.055324 0.750838 0
0  0.394979 -1.267588 -0.660563  0.247880 -0.962186 0.112933  0.055345 0.750244 0
0  0.039428 -1.357808 -0.648822  0.247880 -0.962186 0.112933  0.055681 0.750260 0
lowpoly_metal.005
0  -0.615093 -1.308256 -3.015376  -0.287790 -0.895967 0.338261  0.048634 0.712601 0
0  -0.615093 -1.344241 -3.110691  -0.287790 -0.895967 0.338261  0.048634 0.712680 0
0  -0.506755 -1.359967 -3.060174  -0.287790 -0.895967 0.338261  0.048550 0.712648 0
lowpoly_metal.005
0  0.285378 -0.615890 -3.451084  0.000007 0.141542 -0.989932  0.050887 0.712735 0
0  0.377287 -0.615890 -3.451084  0.000007 0.141542 -0.989932  0.050816 0.712735 0
0  0.413168 -0.706668 -3.464063  0.000007 0.141542 -0.989932  0.050788 0.712672 0
lowpoly_metal.005
0  -0.298309 -0.719890 -3.404374  0.673529 -0.314348 -0.668987  0.051340 0.712647 0
0  -0.297387 -1.352756 -3.106071  0.673529 -0.314348 -0.668987  0.051339 0.712109 0
0  -0.351186 -1.372709 -3.150860  0.673529 -0.314348 -0.668987  0.048095 0.712564 0
lowpoly_metal.005
0  0.205349 -1.909771 -2.863332  0.957023 -0.139337 -0.254346  0.048188 0.712564 0
0  0.191042 -1.910939 -2.916524  0.957023 -0.139337 -0.254346  0.048226 0.712580 0
0  0.204928 -1.415655 -3.135605  0.957023 -0.139337 -0.254346  0.048226 0.713000 0
lowpoly_plastic.004
0  0.346603 -0.679037 2.372825  0.814447 -0.578526 0.044543  0.052590 0.753721 0
0  0.346692 -0.666435 2.534876  0.814447 -0.578526 0.044543  0.052590 0.753567 0
0  0.251417 -0.804244 2.487048  0.814447 -0.578526 0.044543  0.052715 0.753623 0
lowpoly_metal.005
0  -0.406195 -0.724150 -3.402460  -0.562916 -0.339997 -0.753345  0.051424 0.712644 0
0  -0.334312 -0.706668 -3.464063  -0.562916 -0.339997 -0.753345  0.051368 0.712672 0
0  -0.351186 -1.372709 -3.150860  -0.562916 -0.339997 -0.753345  0.051381 0.712105 0
lowpoly_plastic.004
0  0.586446 -0.327385 0.306329  0.793208 -0.607098 0.047464  0.053460 0.749937 0
0  0.586628 -0.141025 2.686963  0.793208 -0.607098 0.047464  0.053828 0.747711 0
0  0.452180 -0.324532 2.586644  0.793208 -0.607098 0.047464  0.053972 0.747845 0
lowpoly_plastic.004
0  0.327494 1.401427 0.606528  0.000000 0.912301 -0.409521  0.055070 0.749287 0
0  -0.248638 1.401427 0.606528  0.000000 0.912301 -0.409521  0.054525 0.749287 0
0  -0.164370 1.803835 1.502983  0.000000 0.912301 -0.409521  0.054605 0.748150 0
lowpoly_plastic.004
0  0.586628 -0.141025 2.686963  1.000000 0.000140 -0.000088  0.053828 0.747711 0
0  0.586446 -0.327385 0.306329  1.000000 0.000140 -0.000088  0.053460 0.749937 0
0  0.586230 1.401427 0.606528  1.000000 0.000140 -0.000088  0.051942 0.749270 0
lowpoly_metal.005
0  0.586767 -0.326264 -3.406270  0.394435 0.376693 0.838167  0.046569 0.713351 0
0  0.584932 -1.310388 -2.963116  0.394435 0.376693 0.838167  0.046569 0.712564 0
0  0.693948 -1.308256 -3.015376  0.394435 0.376693 0.838167  0.046653 0.712569 0
lowpoly_plastic.004
0  -0.397694 0.487953 2.888808  -0.032015 -0.885580 0.463382  0.052415 0.753567 0
0  -0.507662 0.381924 2.678574  -0.032015 -0.885580 0.463382  0.052415 0.753811 0
0  -0.376374 0.377222 2.678659  -0.032015 -0.885580 0.463382  0.052302 0.753759 0
lowpoly_plastic.004
0  0.039428 0.996145 -1.350424  -0.097622 0.968776 -0.227909  0.054798 0.751174 0
0  -0.508026 0.944007 -1.337550  -0.097622 0.968776 -0.227909  0.054280 0.751170 0
0  -0.507375 1.401427 0.606528  -0.097622 0.968776 -0.227909  0.054281 0.749287 0
lowpoly_plastic.004
0  -0.376811 1.514235 2.658052  0.924484 -0.006338 -0.381168  0.060444 0.877376 0
0  -0.309245 1.646464 2.819728  0.924484 -0.006338 -0.381168  0.060340 0.877457 0
0  -0.308514 0.462511 2.841187  0.924484 -0.006338 -0.381168  0.060340 0.876708 0
lowpoly_plastic.004
0  -0.267836 -0.666435 2.534876  0.000000 -0.327877 0.944721  0.052048 0.754148 0
0  -0.172561 -0.804244 2.487048  0.000000 -0.327877 0.944721  0.051921 0.754058 0
0  0.251417 -0.804244 2.487048  0.000000 -0.327877 0.944721  0.051921 0.753657 0
lowpoly_plastic.004
0  -0.373270 -0.894429 -1.445889  -0.764307 -0.600022 0.236239  0.050260 0.751674 0
0  -0.507689 -0.738838 -1.485592  -0.764307 -0.600022 0.236239  0.050411 0.751674 0
0  -0.506755 -1.359967 -3.060174  -0.764307 -0.600022 0.236239  0.050197 0.753260 0
lowpoly_plastic.004
0  -0.267747 -0.679037 2.372825  -0.006671 -0.959302 0.282303  0.055971 0.747346 0
0  -0.337580 -0.733665 2.185540  -0.006671 -0.959302 0.282303  0.056037 0.747531 0
0  0.407459 -0.798569 1.982594  -0.006671 -0.959302 0.282303  0.055333 0.747732 0
lowpoly_plastic.004
0  -0.375501 -0.150428 2.687134  -0.036650 -0.499898 0.865308  0.056519 0.751752 0
0  -0.507772 -0.141026 2.686963  -0.036650 -0.499898 0.865308  0.056528 0.751877 0
0  -0.373325 -0.324532 2.586644  -0.036650 -0.499898 0.865308  0.056362 0.751750 0
lowpoly_metal.005
0  0.485051 -0.724150 -3.402460  0.673468 -0.316311 -0.668123  0.050732 0.712644 0
0  0.483840 -1.352979 -3.105973  0.673468 -0.316311 -0.668123  0.050733 0.712108 0
0  0.430042 -1.372709 -3.150861  0.673468 -0.316311 -0.668123  0.050775 0.712105 0
lowpoly_metal.005
0  0.456363 0.274640 -3.798572  -0.000000 -0.295054 -0.955481  0.050754 0.713476 0
0  0.633464 0.072183 -3.736053  -0.000000 -0.295054 -0.955481  0.050617 0.713312 0
0  -0.554609 0.072183 -3.736053  -0.000000 -0.295054 -0.955481  0.051539 0.713312 0
lowpoly_metal.005
0  0.370736 -0.123555 2.209494  0.046239 0.069332 0.996521  0.051679 0.707574 0
0  0.397597 -0.253831 2.217311  0.046239 0.069332 0.996521  0.051685 0.707492 0
0  0.464422 -0.253890 2.214214  0.046239 0.069332 0.996521  0.051700 0.707524 0
lowpoly_plastic.004
0  0.298796 -0.539019 2.578019  -0.994531 0.104441 0.000000  0.059789 0.875828 0
0  0.322747 -0.310950 2.594872  -0.994531 0.104441 0.000000  0.059933 0.875813 0
0  0.322747 -0.310950 1.842507  -0.994531 0.104441 0.000000  0.059933 0.875813 0
lowpoly_plastic.004
0  0.455230 0.377222 2.678659  -1.000000 0.000384 0.000000  0.060258 0.874477 0
0  0.455667 1.514235 2.658052  -1.000000 0.000384 0.000000  0.060258 0.875197 0
0  0.455667 1.514235 1.842507  -1.000000 0.000384 0.000000  0.060258 0.875197 0
lowpoly_plastic.004
0  0.039428 -1.137947 0.448488  -0.247355 -0.950043 0.190354  0.055681 0.749210 0
0  -0.316124 -1.047727 0.436747  -0.247355 -0.950043 0.190354  0.056017 0.749194 0
0  -0.316124 -1.267588 -0.660563  -0.247355 -0.950043 0.190354  0.056017 0.750244 0
lowpoly_plastic.004
0  -0.338313 -1.336733 -1.298377  -0.234107 -0.966548 0.104783  0.056038 0.750838 0
0  0.039428 -1.426952 -1.286637  -0.234107 -0.966548 0.104783  0.055681 0.750854 0
0  0.039428 -1.357808 -0.648822  -0.234107 -0.966548 0.104783  0.055681 0.750260 0
lowpoly_plastic.004
0  0.039428 -1.426952 -1.286637  -0.226194 -0.897910 0.377616  0.055681 0.750854 0
0  -0.338313 -1.336733 -1.298377  -0.226194 -0.897910 0.377616  0.056038 0.750838 0
0  -0.338313 -1.632268 -2.001112  -0.226194 -0.897910 0.377616  0.056038 0.751556 0
lowpoly_plastic.004
0  0.039428 -2.062010 -2.732406  0.257925 -0.885272 0.387000  0.055681 0.752338 0
0  0.417169 -1.970953 -2.775865  0.257925 -0.885272 0.387000  0.055324 0.752351 0
0  0.417169 -1.632268 -2.001112  0.257925 -0.885272 0.387000  0.055324 0.751556 0
lowpoly_plastic.004
0  -0.219941 -0.539019 2.578019  0.000000 1.000000 0.000000  0.059789 0.876157 0
0  0.298796 -0.539019 2.578019  0.000000 1.000000 0.000000  0.059789 0.875828 0
0  0.298796 -0.539019 1.842507  0.000000 1.000000 0.000000  0.059789 0.875828 0
lowpoly_metal.005
0  -0.164370 1.803835 1.502983  0.000000 -0.011063 -0.999939  0.051368 0.711565 0
0  -0.111299 2.013652 1.500661  0.000000 -0.011063 -0.999939  0.051169 0.711524 0
0  0.190154 2.013652 1.500661  0.000000 -0.011063 -0.999939  0.051169 0.711290 0
lowpoly_plastic.004
0  -0.316124 -1.047727 0.436747  -0.246991 -0.946143 0.209307  0.056017 0.749194 0
0  0.039428 -1.137947 0.448488  -0.246991 -0.946143 0.209307  0.055681 0.749210 0
0  0.039428 -0.798569 1.982594  -0.246991 -0.946143 0.209307  0.055681 0.747732 0
lowpoly_plastic.004
0  0.455667 1.514235 2.658052  0.000000 -1.000000 0.000000  0.056029 0.877471 0
0  -0.376811 1.514235 2.658052  0.000000 -1.000000 0.000000  0.056029 0.877998 0
0  -0.376811 1.514235 1.842507  0.000000 -1.000000 0.000000  0.056029 0.877998 0
lowpoly_plastic.004
0  -0.375501 -0.150428 2.687134  0.773311 0.634027 0.000000  0.060030 0.876255 0
0  -0.243892 -0.310950 2.594872  0.773311 0.634027 0.000000  0.059933 0.876172 0
0  -0.243892 -0.310950 1.842507  0.773311 0.634027 0.000000  0.059933 0.876172 0
lowpoly_plastic.004
0  -0.376811 1.514235 2.658052  1.000000 0.000384 0.000000  0.060444 0.877376 0
0  -0.376374 0.377222 2.678659  1.000000 0.000384 0.000000  0.060444 0.876656 0
0  -0.376374 0.377222 1.842507  1.000000 0.000384 0.000000  0.060444 0.876656 0
lowpoly_plastic.004
0  0.456104 1.643491 2.655709  -0.000002 0.999836 -0.018122  0.055191 0.747339 0
0  0.388101 1.646464 2.819728  -0.000002 0.999836 -0.018122  0.055127 0.747185 0
0  0.476461 1.647335 2.867794  -0.000002 0.999836 -0.018122  0.055211 0.747140 0
lowpoly_plastic.004
0  -0.338313 -1.970953 -2.775865  -0.258024 -0.878745 0.401535  0.056038 0.752351 0
0  0.039428 -2.062010 -2.732406  -0.258024 -0.878745 0.401535  0.055681 0.752338 0
0  0.039428 -1.722487 -1.989372  -0.258024 -0.878745 0.401535  0.055681 0.751571 0
lowpoly_metal.005
0  0.024116 -0.123591 2.209447  -0.818833 0.042372 0.572466  0.051964 0.708894 0
0  0.109483 -0.114578 2.330886  -0.818833 0.042372 0.572466  0.052058 0.708895 0
0  0.109340 1.428273 2.216486  -0.818833 0.042372 0.572466  0.052058 0.710095 0
lowpoly_metal.005
0  0.150385 -0.253916 2.217281  -0.000115 0.059841 0.998208  0.051493 0.707492 0
0  -0.095118 -0.253999 2.217258  -0.000115 0.059841 0.998208  0.051341 0.707492 0
0  -0.235105 -0.578140 2.236674  -0.000115 0.059841 0.998208  0.051169 0.707288 0
end
