version 1
nodes
0 "root" -1
end
skeleton
time 0
0 0 0 0 0 0 0
end
triangles
lowpoly_plastic.001
0  -0.412895 0.000954 2.685797  0.000000 -0.765000 0.644030  0.042666 0.753143 0
0  -0.414103 0.165050 2.880716  0.000000 -0.765000 0.644030  0.042634 0.753213 0
0  -0.492736 0.000954 2.685797  0.000000 -0.765000 0.644030  0.042643 0.753133 0
lowpoly_plastic.001
0  -0.251318 0.314516 2.951958  0.852687 0.076709 0.516759  0.042864 0.752558 0
0  -0.262284 1.110103 2.851954  0.852687 0.076709 0.516759  0.042842 0.752305 0
0  -0.303664 1.110103 2.920235  0.852687 0.076709 0.516759  0.042864 0.752307 0
lowpoly_plastic.001
0  -0.412895 0.990963 2.630569  1.000000 0.000001 -0.000001  0.042672 0.751206 0
0  -0.412895 -0.073420 1.352576  1.000000 0.000001 -0.000001  0.042357 0.750783 0
0  -0.412897 0.916590 1.297350  1.000000 0.000001 -0.000001  0.042671 0.750783 0
lowpoly_plastic.001
0  -0.412895 0.000954 2.685797  0.386222 -0.704460 0.595456  0.042666 0.753143 0
0  -0.251318 0.314516 2.951958  0.386222 -0.704460 0.595456  0.042666 0.753269 0
0  -0.414103 0.165050 2.880716  0.386222 -0.704460 0.595456  0.042634 0.753213 0
lowpoly_plastic.001
0  -0.412895 0.000954 2.685797  -0.456924 0.700633 -0.548027  0.042582 0.753019 0
0  -0.345690 0.165050 2.839556  -0.456924 0.700633 -0.548027  0.042575 0.752959 0
0  -0.251318 0.314516 2.951958  -0.456924 0.700633 -0.548027  0.042582 0.752908 0
lowpoly_plastic.001
0  0.176304 0.314516 2.883677  -0.376341 -0.033437 -0.925878  0.042486 0.753153 0
0  0.343611 1.105492 2.787107  -0.376341 -0.033437 -0.925878  0.042531 0.752908 0
0  0.340527 0.998241 2.792234  -0.376341 -0.033437 -0.925878  0.042531 0.752940 0
lowpoly_plastic.001
0  0.176304 0.314516 2.883677  -0.491373 -0.002398 -0.870946  0.042486 0.753153 0
0  0.228650 1.110103 2.851954  -0.491373 -0.002398 -0.870946  0.042494 0.752916 0
0  0.343611 1.105492 2.787107  -0.491373 -0.002398 -0.870946  0.042531 0.752908 0
lowpoly_plastic.001
0  -0.251318 0.314516 2.951958  -0.447394 0.029851 0.893839  0.042433 0.753164 0
0  -0.445658 1.105492 2.828268  -0.447394 0.029851 0.893839  0.042486 0.752908 0
0  -0.442574 0.998241 2.833394  -0.447394 0.029851 0.893839  0.042486 0.752942 0
lowpoly_plastic.001
0  -0.251318 0.314516 2.951958  -0.543564 -0.002296 0.839365  0.042433 0.753164 0
0  -0.303664 1.110103 2.920235  -0.543564 -0.002296 0.839365  0.042441 0.752912 0
0  -0.445658 1.105492 2.828268  -0.543564 -0.002296 0.839365  0.042486 0.752908 0
lowpoly_plastic.001
0  0.312767 -0.418512 1.371827  0.000000 0.998448 -0.055697  0.042800 0.753133 0
0  -0.346401 -0.344141 2.705046  0.000000 0.998448 -0.055697  0.042591 0.752710 0
0  0.312768 -0.344141 2.705046  0.000000 0.998448 -0.055697  0.042800 0.752711 0
lowpoly_plastic.001
0  0.379261 0.916590 1.297350  -1.000000 0.000000 0.000000  0.042290 0.751257 0
0  0.379261 0.000954 2.685797  -1.000000 0.000000 0.000000  0.042603 0.751681 0
0  0.379261 0.990963 2.630569  -1.000000 0.000000 0.000000  0.042289 0.751681 0
lowpoly_plastic.001
0  -0.442163 -2.151560 -4.350525  0.000000 -0.881055 0.473013  0.042091 0.753071 0
0  0.049677 -2.425491 -4.860763  0.000000 -0.881055 0.473013  0.041935 0.753253 0
0  0.049677 -2.151560 -4.350525  0.000000 -0.881055 0.473013  0.041935 0.753071 0
lowpoly_plastic.001
0  -0.414103 0.165050 2.880716  -0.932939 0.020053 0.359476  0.040818 0.753596 0
0  -0.492736 0.990963 2.630569  -0.932939 0.020053 0.359476  0.040543 0.753591 0
0  -0.492736 0.000954 2.685797  -0.932939 0.020053 0.359476  0.040849 0.753521 0
lowpoly_plastic.001
0  0.217683 0.314516 2.951958  0.543561 -0.002295 0.839367  0.042380 0.752950 0
0  0.412024 1.105492 2.828268  0.543561 -0.002295 0.839367  0.042433 0.753206 0
0  0.270029 1.110103 2.920235  0.543561 -0.002295 0.839367  0.042388 0.753202 0
lowpoly_plastic.001
0  0.217683 0.314516 2.951958  0.447394 0.029851 0.893839  0.042380 0.752950 0
0  0.408940 0.998241 2.833394  0.447394 0.029851 0.893839  0.042433 0.753172 0
0  0.412024 1.105492 2.828268  0.447394 0.029851 0.893839  0.042433 0.753206 0
lowpoly_plastic.001
0  -0.263414 0.990963 2.424595  0.000000 0.055703 0.998447  0.042801 0.751699 0
0  0.229780 1.098212 2.418612  0.000000 0.055703 0.998447  0.042835 0.751543 0
0  -0.263414 1.098212 2.418612  0.000000 0.055703 0.998447  0.042835 0.751699 0
lowpoly_plastic.001
0  -0.442163 -2.671206 -5.162245  0.000000 -0.775157 0.631769  0.042092 0.753370 0
0  0.049677 -2.425491 -4.860763  0.000000 -0.775157 0.631769  0.041935 0.753253 0
0  -0.442163 -2.425491 -4.860763  0.000000 -0.775157 0.631769  0.042091 0.753253 0
lowpoly_plastic.001
0  -0.524158 -0.683779 -4.853272  0.000000 0.949952 -0.312396  0.041934 0.751648 0
0  0.490523 -1.060021 -5.997372  0.000000 0.949952 -0.312396  0.041613 0.750784 0
0  -0.524158 -1.060021 -5.997372  0.000000 0.949952 -0.312396  0.041935 0.750783 0
lowpoly_plastic.001
0  0.229780 0.990963 2.424595  -0.808898 0.032751 0.587036  0.042283 0.751614 0
0  0.379261 1.098212 2.624587  -0.808898 0.032751 0.587036  0.042255 0.751681 0
0  0.229780 1.098212 2.418612  -0.808898 0.032751 0.587036  0.042249 0.751614 0
lowpoly_plastic.001
0  -0.410741 -0.413736 2.708929  0.000000 -0.998448 0.055698  0.042084 0.750783 0
0  0.049677 -0.498079 1.196980  0.000000 -0.998448 0.055698  0.041936 0.751240 0
0  -0.016817 -0.413736 2.708929  0.000000 -0.998448 0.055698  0.041959 0.750783 0
lowpoly_plastic.001
0  -0.262284 1.110103 2.851954  0.491950 -0.027451 -0.870190  0.042539 0.753182 0
0  -0.374162 0.998241 2.792234  0.491950 -0.027451 -0.870190  0.042575 0.753157 0
0  -0.377246 1.105492 2.787107  0.491950 -0.027451 -0.870190  0.042575 0.753189 0
lowpoly_plastic.001
0  -0.262284 1.110103 2.851954  0.473957 -0.003926 -0.880539  0.042539 0.753182 0
0  -0.209938 0.314516 2.883677  0.473957 -0.003926 -0.880539  0.042531 0.752945 0
0  -0.374162 0.998241 2.792234  0.473957 -0.003926 -0.880539  0.042575 0.753157 0
lowpoly_plastic.001
0  -0.346401 -0.344141 2.705046  0.981992 0.188627 -0.010522  0.042250 0.751206 0
0  -0.412895 -0.073420 1.352576  0.981992 0.188627 -0.010522  0.042357 0.750783 0
0  -0.412895 0.000954 2.685797  0.981992 0.188627 -0.010522  0.042358 0.751206 0
lowpoly_plastic.001
0  0.340527 0.998241 2.792234  -0.972527 -0.012966 -0.232428  0.042288 0.751732 0
0  0.379261 1.098212 2.624587  -0.972527 -0.012966 -0.232428  0.042255 0.751681 0
0  0.379261 0.990963 2.630569  -0.972527 -0.012966 -0.232428  0.042289 0.751681 0
lowpoly_plastic.001
0  -0.374162 0.998241 2.792234  0.972080 0.019939 -0.233799  0.042672 0.751257 0
0  -0.345690 0.165050 2.839556  0.972080 0.019939 -0.233799  0.042409 0.751257 0
0  -0.412895 0.990963 2.630569  0.972080 0.019939 -0.233799  0.042672 0.751206 0
lowpoly_plastic.001
0  -0.442574 0.998241 2.833394  -0.428689 0.036622 0.902710  0.042486 0.752942 0
0  -0.414103 0.165050 2.880716  -0.428689 0.036622 0.902710  0.042486 0.753206 0
0  -0.251318 0.314516 2.951958  -0.428689 0.036622 0.902710  0.042433 0.753164 0
lowpoly_plastic.001
0  -0.442163 -2.671206 -5.162245  0.000000 -0.460187 -0.887822  0.042712 0.751337 0
0  -0.524158 -2.229298 -5.391300  0.000000 -0.460187 -0.887822  0.042735 0.751179 0
0  0.049677 -2.671206 -5.162245  0.000000 -0.460187 -0.887822  0.042861 0.751384 0
lowpoly_plastic.001
0  -0.524158 -2.229298 -5.391300  0.000003 -0.460185 -0.887823  0.042735 0.751179 0
0  -0.524158 -1.060021 -5.997372  0.000003 -0.460185 -0.887823  0.042861 0.750783 0
0  0.049677 -2.671206 -5.162245  0.000003 -0.460185 -0.887823  0.042861 0.751384 0
lowpoly_plastic.001
0  -0.083311 -2.597042 -5.200686  0.000000 0.460187 0.887822  0.042861 0.750820 0
0  0.049677 -2.671206 -5.162245  0.000000 0.460187 0.887822  0.042893 0.750783 0
0  -0.524158 -1.060021 -5.997372  0.000000 0.460187 0.887822  0.042893 0.751352 0
lowpoly_plastic.001
0  0.049677 -2.671206 -5.162245  0.000000 -0.460181 -0.887825  0.042839 0.751543 0
0  -0.083311 -2.597042 -5.200686  0.000000 -0.460181 -0.887825  0.042801 0.751510 0
0  0.049677 -2.597042 -5.200686  0.000000 -0.460181 -0.887825  0.042843 0.751517 0
lowpoly_plastic.001
0  -0.083311 -2.597042 -5.200686  0.000000 -0.460189 -0.887821  0.042801 0.751510 0
0  -0.016817 -2.229298 -5.391300  0.000000 -0.460189 -0.887821  0.042843 0.751384 0
0  0.049677 -2.597042 -5.200686  0.000000 -0.460189 -0.887821  0.042843 0.751517 0
lowpoly_plastic.001
0  0.380469 0.165050 2.880716  0.970405 -0.019489 0.240697  0.041450 0.750849 0
0  0.459102 0.990963 2.630569  0.970405 -0.019489 0.240697  0.041175 0.750853 0
0  0.408940 0.998241 2.833394  0.970405 -0.019489 0.240697  0.041192 0.750790 0
lowpoly_plastic.001
0  0.490523 -2.229298 -5.391300  -0.000001 -0.460187 -0.887822  0.042912 0.752148 0
0  0.408530 -2.671206 -5.162245  -0.000001 -0.460187 -0.887822  0.042886 0.752305 0
0  -0.083311 -2.597042 -5.200686  -0.000001 -0.460187 -0.887822  0.042730 0.752279 0
lowpoly_plastic.001
0  0.408530 -2.671206 -5.162245  0.000000 -0.460181 -0.887825  0.042886 0.752305 0
0  -0.083311 -2.671206 -5.162245  0.000000 -0.460181 -0.887825  0.042730 0.752305 0
0  -0.083311 -2.597042 -5.200686  0.000000 -0.460181 -0.887825  0.042730 0.752279 0
lowpoly_plastic.001
0  0.490523 1.013869 1.112637  0.999785 0.001156 0.020713  0.041036 0.751314 0
0  0.459102 1.098212 2.624587  0.999785 0.001156 0.020713  0.041142 0.750846 0
0  0.459102 0.990963 2.630569  0.999785 0.001156 0.020713  0.041175 0.750853 0
lowpoly_plastic.001
0  0.459102 0.990963 2.630569  0.999785 0.001155 0.020713  0.041175 0.750853 0
0  0.459102 0.000954 2.685797  0.999785 0.001155 0.020713  0.041482 0.750923 0
0  0.490523 1.013869 1.112637  0.999785 0.001155 0.020713  0.041036 0.751314 0
lowpoly_plastic.001
0  0.459102 0.000954 2.685797  0.999846 -0.013351 0.011374  0.041482 0.750923 0
0  0.490523 -0.396435 -0.542857  0.999846 -0.013351 0.011374  0.041320 0.751942 0
0  0.490523 1.013869 1.112637  0.999846 -0.013351 0.011374  0.041036 0.751314 0
lowpoly_plastic.001
0  0.490523 0.673742 -0.725239  1.000000 0.000000 0.000000  0.040979 0.751904 0
0  0.490523 1.013869 1.112637  1.000000 0.000000 0.000000  0.041036 0.751314 0
0  0.490523 -0.396435 -0.542857  1.000000 0.000000 0.000000  0.041320 0.751942 0
lowpoly_plastic.001
0  -0.524158 -0.453173 -4.152034  -1.000000 -0.000000 0.000000  0.040363 0.752101 0
0  -0.524158 -0.396435 -0.542857  -1.000000 -0.000000 0.000000  0.040688 0.752503 0
0  -0.524158 0.673742 -0.725239  -1.000000 -0.000000 0.000000  0.040346 0.752541 0
lowpoly_plastic.001
0  -0.524158 -2.229298 -5.391300  -0.986135 -0.128634 0.104839  0.040823 0.750865 0
0  -0.442163 -2.671206 -5.162245  -0.986135 -0.128634 0.104839  0.040979 0.750896 0
0  -0.442163 -2.425491 -4.860763  -0.986135 -0.128634 0.104839  0.040930 0.751010 0
lowpoly_plastic.001
0  -0.524158 -2.229298 -5.391300  -0.981794 -0.167356 0.089848  0.040823 0.750865 0
0  -0.442163 -2.425491 -4.860763  -0.981794 -0.167356 0.089848  0.040930 0.751010 0
0  -0.442163 -2.151560 -4.350525  -0.981794 -0.167356 0.089848  0.040891 0.751189 0
lowpoly_plastic.001
0  -0.442163 -0.800892 -0.473931  -0.980607 -0.192841 0.034948  0.040818 0.752489 0
0  -0.442163 -0.498079 1.196980  -0.980607 -0.192841 0.034948  0.040872 0.753024 0
0  -0.524158 -0.396435 -0.542857  -0.980607 -0.192841 0.034948  0.040688 0.752503 0
lowpoly_plastic.001
0  -0.492736 0.000954 2.685797  -0.978850 -0.201674 0.034349  0.040849 0.753521 0
0  -0.524158 -0.396435 -0.542857  -0.978850 -0.201674 0.034349  0.040688 0.752503 0
0  -0.442163 -0.498079 1.196980  -0.978850 -0.201674 0.034349  0.040872 0.753024 0
lowpoly_plastic.001
0  -0.410741 -0.413736 2.708929  -0.980862 -0.192206 0.031107  0.040979 0.753493 0
0  -0.492736 0.000954 2.685797  -0.980862 -0.192206 0.031107  0.040849 0.753521 0
0  -0.442163 -0.498079 1.196980  -0.980862 -0.192206 0.031107  0.040872 0.753024 0
lowpoly_plastic.001
0  0.229780 1.098212 2.418612  0.000000 1.000000 0.000000  0.041699 0.753520 0
0  0.379261 1.098212 2.624587  0.000000 1.000000 0.000000  0.041652 0.753585 0
0  0.459102 1.098212 2.624587  0.000000 1.000000 0.000000  0.041627 0.753585 0
lowpoly_plastic.001
0  0.459102 1.098212 2.624587  0.049054 0.997302 -0.054614  0.041627 0.753585 0
0  0.490523 1.013869 1.112637  0.049054 0.997302 -0.054614  0.041613 0.753106 0
0  0.229780 1.098212 2.418612  0.049054 0.997302 -0.054614  0.041699 0.753520 0
lowpoly_plastic.001
0  -0.524158 1.013869 1.112637  -0.049054 0.997302 -0.054614  0.041935 0.753105 0
0  -0.492736 1.098212 2.624587  -0.049054 0.997302 -0.054614  0.041929 0.753583 0
0  -0.263414 1.098212 2.418612  -0.049054 0.997302 -0.054614  0.041855 0.753519 0
lowpoly_plastic.001
0  -0.492736 1.098212 2.624587  0.000000 1.000000 0.000000  0.041929 0.753583 0
0  -0.412895 1.098212 2.624587  0.000000 1.000000 0.000000  0.041903 0.753583 0
0  -0.263414 1.098212 2.418612  0.000000 1.000000 0.000000  0.041855 0.753519 0
lowpoly_plastic.001
0  0.379261 1.098212 2.624587  0.000000 0.999362 -0.035721  0.041652 0.753585 0
0  0.412024 1.105492 2.828268  0.000000 0.999362 -0.035721  0.041642 0.753649 0
0  0.459102 1.098212 2.624587  0.000000 0.999362 -0.035721  0.041627 0.753585 0
lowpoly_plastic.001
0  0.270029 1.110103 2.920235  0.029867 0.999390 -0.018100  0.041688 0.753678 0
0  0.343611 1.105492 2.787107  0.029867 0.999390 -0.018100  0.041664 0.753636 0
0  0.228650 1.110103 2.851954  0.029867 0.999390 -0.018100  0.041701 0.753656 0
lowpoly_plastic.001
0  0.379261 0.000954 2.685797  -0.361991 -0.712013 0.601664  0.042634 0.753256 0
0  0.380469 0.165050 2.880716  -0.361991 -0.712013 0.601664  0.042591 0.753193 0
0  0.312056 0.165050 2.839556  -0.361991 -0.712013 0.601664  0.042615 0.753191 0
lowpoly_plastic.001
0  -0.492736 0.990963 2.630569  -0.999785 0.001155 0.020714  0.040543 0.753591 0
0  -0.492736 1.098212 2.624587  -0.999785 0.001155 0.020714  0.040510 0.753599 0
0  -0.524158 1.013869 1.112637  -0.999785 0.001155 0.020714  0.040403 0.753131 0
lowpoly_plastic.001
0  -0.492736 0.000954 2.685797  -0.999785 0.001156 0.020714  0.040849 0.753521 0
0  -0.492736 0.990963 2.630569  -0.999785 0.001156 0.020714  0.040543 0.753591 0
0  -0.524158 1.013869 1.112637  -0.999785 0.001156 0.020714  0.040403 0.753131 0
lowpoly_plastic.001
0  -0.524158 -0.396435 -0.542857  -0.999846 -0.013352 0.011374  0.040688 0.752503 0
0  -0.492736 0.000954 2.685797  -0.999846 -0.013352 0.011374  0.040849 0.753521 0
0  -0.524158 1.013869 1.112637  -0.999846 -0.013352 0.011374  0.040403 0.753131 0
lowpoly_plastic.001
0  -0.524158 1.013869 1.112637  -1.000000 0.000000 0.000000  0.040403 0.753131 0
0  -0.524158 0.673742 -0.725239  -1.000000 0.000000 0.000000  0.040346 0.752541 0
0  -0.524158 -0.396435 -0.542857  -1.000000 0.000000 0.000000  0.040688 0.752503 0
lowpoly_plastic.001
0  -0.346401 -0.344141 2.705046  0.000007 0.055697 0.998448  0.042358 0.752954 0
0  -0.492736 0.000954 2.685797  0.000007 0.055697 0.998448  0.042249 0.752908 0
0  -0.410741 -0.413736 2.708929  0.000007 0.055697 0.998448  0.042380 0.752934 0
lowpoly_plastic.001
0  -0.016817 -0.413736 2.708929  0.000000 0.055706 0.998447  0.042380 0.753059 0
0  0.377108 -0.413736 2.708929  0.000000 0.055706 0.998447  0.042380 0.753184 0
0  0.312768 -0.344141 2.705046  0.000000 0.055706 0.998447  0.042358 0.753163 0
lowpoly_plastic.001
0  -0.346401 -0.344141 2.705046  0.000000 0.055706 0.998447  0.042358 0.752954 0
0  -0.016817 -0.413736 2.708929  0.000000 0.055706 0.998447  0.042380 0.753059 0
0  0.312768 -0.344141 2.705046  0.000000 0.055706 0.998447  0.042358 0.753163 0
lowpoly_plastic.001
0  -0.410741 -0.413736 2.708929  0.000000 0.055706 0.998447  0.042380 0.752934 0
0  -0.016817 -0.413736 2.708929  0.000000 0.055706 0.998447  0.042380 0.753059 0
0  -0.346401 -0.344141 2.705046  0.000000 0.055706 0.998447  0.042358 0.752954 0
lowpoly_plastic.001
0  0.522204 -0.925614 -5.943154  1.000000 0.000000 0.000000  0.005888 0.765022 0
0  0.522204 -2.660358 -5.241694  1.000000 0.000000 0.000000  0.005947 0.764432 0
0  0.522204 -1.090183 -6.066196  1.000000 0.000000 0.000000  0.005947 0.764994 0
lowpoly_plastic.001
0  -0.345690 0.165050 2.839556  0.626329 -0.680910 0.379570  0.042687 0.753191 0
0  -0.209938 0.314516 2.883677  0.626329 -0.680910 0.379570  0.042666 0.753143 0
0  -0.251318 0.314516 2.951958  0.626329 -0.680910 0.379570  0.042687 0.753133 0
lowpoly_plastic.001
0  0.408940 0.998241 2.833394  0.974034 -0.017222 0.225748  0.041192 0.750790 0
0  0.459102 1.098212 2.624587  0.974034 -0.017222 0.225748  0.041142 0.750846 0
0  0.412024 1.105492 2.828268  0.974034 -0.017222 0.225748  0.041159 0.750783 0
lowpoly_plastic.001
0  0.408940 0.998241 2.833394  0.428688 0.036622 0.902710  0.042433 0.753172 0
0  0.217683 0.314516 2.951958  0.428688 0.036622 0.902710  0.042380 0.752950 0
0  0.380469 0.165050 2.880716  0.428688 0.036622 0.902710  0.042433 0.752908 0
lowpoly_plastic.001
0  0.379261 0.990963 2.630569  -0.972080 0.019938 -0.233802  0.042289 0.751681 0
0  0.312056 0.165050 2.839556  -0.972080 0.019938 -0.233802  0.042552 0.751732 0
0  0.340527 0.998241 2.792234  -0.972080 0.019938 -0.233802  0.042288 0.751732 0
lowpoly_plastic.001
0  0.379261 0.916590 1.297350  -0.076523 -0.995520 0.055535  0.042591 0.752710 0
0  0.379261 0.990963 2.630569  -0.076523 -0.995520 0.055535  0.042591 0.752306 0
0  0.229780 0.990963 2.424595  -0.076523 -0.995520 0.055535  0.042638 0.752367 0
lowpoly_plastic.001
0  -0.263414 0.990963 2.424595  0.076523 -0.995520 0.055535  0.042794 0.752367 0
0  -0.412895 0.990963 2.630569  0.076523 -0.995520 0.055535  0.042842 0.752305 0
0  -0.412897 0.916590 1.297350  0.076523 -0.995520 0.055535  0.042842 0.752709 0
lowpoly_plastic.001
0  0.459102 0.000954 2.685797  0.980862 -0.192203 0.031106  0.041482 0.750923 0
0  0.377108 -0.413736 2.708929  0.980862 -0.192203 0.031106  0.041611 0.750952 0
0  0.408530 -0.498079 1.196980  0.980862 -0.192203 0.031106  0.041505 0.751420 0
lowpoly_plastic.001
0  0.490523 -0.396435 -0.542857  0.978851 -0.201672 0.034348  0.041320 0.751942 0
0  0.459102 0.000954 2.685797  0.978851 -0.201672 0.034348  0.041482 0.750923 0
0  0.408530 -0.498079 1.196980  0.978851 -0.201672 0.034348  0.041505 0.751420 0
lowpoly_plastic.001
0  0.490523 -0.396435 -0.542857  0.980608 -0.192838 0.034947  0.041320 0.751942 0
0  0.408530 -0.498079 1.196980  0.980608 -0.192838 0.034947  0.041505 0.751420 0
0  0.408530 -0.800892 -0.473931  0.980608 -0.192838 0.034947  0.041451 0.751956 0
lowpoly_plastic.001
0  -0.524158 -1.831551 -4.339146  -0.964271 -0.250170 0.087160  0.040755 0.751684 0
0  -0.442163 -2.151560 -4.350525  -0.964271 -0.250170 0.087160  0.040891 0.751189 0
0  -0.442163 -2.108295 -4.226346  -0.964271 -0.250170 0.087160  0.040855 0.751839 0
lowpoly_plastic.001
0  0.408530 -2.151560 -4.350525  0.981795 -0.167353 0.089847  0.041524 0.753255 0
0  0.408530 -2.425491 -4.860763  0.981795 -0.167353 0.089847  0.041563 0.753435 0
0  0.490523 -2.229298 -5.391300  0.981795 -0.167353 0.089847  0.041455 0.753580 0
lowpoly_plastic.001
0  0.408530 -2.425491 -4.860763  0.986136 -0.128631 0.104837  0.041563 0.753435 0
0  0.408530 -2.671206 -5.162245  0.986136 -0.128631 0.104837  0.041611 0.753548 0
0  0.490523 -2.229298 -5.391300  0.986136 -0.128631 0.104837  0.041455 0.753580 0
lowpoly_plastic.001
0  -0.412895 0.990963 2.630569  0.924223 -0.021268 -0.381260  0.042672 0.751206 0
0  -0.345690 0.165050 2.839556  0.924223 -0.021268 -0.381260  0.042409 0.751257 0
0  -0.412895 0.000954 2.685797  0.924223 -0.021268 -0.381260  0.042358 0.751206 0
lowpoly_plastic.001
0  0.176304 0.314516 2.883677  -0.349591 -0.041214 -0.935995  0.042486 0.753153 0
0  0.340527 0.998241 2.792234  -0.349591 -0.041214 -0.935995  0.042531 0.752940 0
0  0.312056 0.165050 2.839556  -0.349591 -0.041214 -0.935995  0.042531 0.753189 0
lowpoly_plastic.001
0  -0.374162 0.998241 2.792234  0.349591 -0.041214 -0.935996  0.042575 0.753157 0
0  -0.209938 0.314516 2.883677  0.349591 -0.041214 -0.935996  0.042531 0.752945 0
0  -0.345690 0.165050 2.839556  0.349591 -0.041214 -0.935996  0.042575 0.752908 0
lowpoly_plastic.001
0  0.312056 0.165050 2.839556  -0.924223 -0.021268 -0.381260  0.042552 0.751732 0
0  0.379261 0.990963 2.630569  -0.924223 -0.021268 -0.381260  0.042289 0.751681 0
0  0.379261 0.000954 2.685797  -0.924223 -0.021268 -0.381260  0.042603 0.751681 0
lowpoly_plastic.001
0  0.522204 -1.090183 -6.066196  1.000000 -0.000001 0.000000  0.005947 0.764994 0
0  0.522204 -0.962826 -6.023151  1.000000 -0.000001 0.000000  0.005916 0.765023 0
0  0.522204 -0.925614 -5.943154  1.000000 -0.000001 0.000000  0.005888 0.765022 0
lowpoly_plastic.001
0  -0.555836 -1.090183 -6.066196  -1.000000 0.000000 0.000000  0.006005 0.764428 0
0  -0.555836 -2.668316 -5.028055  -1.000000 0.000000 0.000000  0.005947 0.765023 0
0  -0.555836 -0.925614 -5.943154  -1.000000 0.000000 0.000000  0.005947 0.764400 0
lowpoly_plastic.001
0  0.522204 -2.668316 -5.028055  1.000000 0.000000 0.000000  0.005888 0.764399 0
0  0.522204 -2.705526 -5.108054  1.000000 0.000000 0.000000  0.005916 0.764400 0
0  0.522204 -2.660358 -5.241694  1.000000 0.000000 0.000000  0.005947 0.764432 0
lowpoly_plastic.001
0  0.522204 -0.925614 -5.943154  0.000000 0.464906 0.885360  0.005337 0.764013 0
0  -0.555836 -2.668316 -5.028055  0.000000 0.464906 0.885360  0.005679 0.764597 0
0  0.522204 -2.668316 -5.028055  0.000000 0.464906 0.885360  0.005337 0.764597 0
lowpoly_plastic.001
0  0.522204 -2.660358 -5.241694  0.000000 -0.947354 -0.320187  0.005800 0.763073 0
0  -0.555836 -2.705526 -5.108054  0.000000 -0.947354 -0.320187  0.005835 0.763415 0
0  -0.555836 -2.660358 -5.241694  0.000000 -0.947354 -0.320187  0.005800 0.763415 0
lowpoly_plastic.001
0  0.522204 -2.705526 -5.108054  0.000000 -0.906714 0.421746  0.005835 0.763074 0
0  -0.555836 -2.668316 -5.028055  0.000000 -0.906714 0.421746  0.005863 0.763415 0
0  -0.555836 -2.705526 -5.108054  0.000000 -0.906714 0.421746  0.005835 0.763415 0
lowpoly_plastic.001
0  -0.555836 -2.660358 -5.241694  -1.000000 0.000000 0.000000  0.006005 0.764990 0
0  -0.555836 -2.705526 -5.108054  -1.000000 0.000000 0.000000  0.005975 0.765022 0
0  -0.555836 -2.668316 -5.028055  -1.000000 0.000000 0.000000  0.005947 0.765023 0
lowpoly_plastic.001
0  0.217683 0.314516 2.951958  -0.370067 -0.696221 0.615083  0.042612 0.753133 0
0  0.312056 0.165050 2.839556  -0.370067 -0.696221 0.615083  0.042615 0.753191 0
0  0.380469 0.165050 2.880716  -0.370067 -0.696221 0.615083  0.042591 0.753193 0
lowpoly_plastic.001
0  -0.555836 -0.925614 -5.943154  -1.000000 0.000000 0.000000  0.005947 0.764400 0
0  -0.555836 -0.962826 -6.023151  -1.000000 0.000000 0.000000  0.005975 0.764399 0
0  -0.555836 -1.090183 -6.066196  -1.000000 0.000000 0.000000  0.006005 0.764428 0
lowpoly_plastic.001
0  0.377108 -0.413736 2.708929  0.000000 -0.998448 0.055698  0.042104 0.750783 0
0  -0.083311 -0.498079 1.196980  0.000000 -0.998448 0.055698  0.042249 0.751240 0
0  0.408530 -0.498079 1.196980  0.000000 -0.998448 0.055698  0.042093 0.751240 0
lowpoly_plastic.001
0  -0.263414 0.990963 2.424595  0.808897 0.032748 0.587037  0.042678 0.751140 0
0  -0.412895 1.098212 2.624587  0.808897 0.032748 0.587037  0.042706 0.751206 0
0  -0.412895 0.990963 2.630569  0.808897 0.032748 0.587037  0.042672 0.751206 0
lowpoly_plastic.001
0  0.229780 0.990963 2.424595  0.000000 -0.997831 0.065835  0.042638 0.752367 0
0  -0.412897 0.916590 1.297350  0.000000 -0.997831 0.065835  0.042842 0.752709 0
0  0.379261 0.916590 1.297350  0.000000 -0.997831 0.065835  0.042591 0.752710 0
lowpoly_plastic.001
0  -0.374162 0.998241 2.792234  0.976455 0.017802 -0.214985  0.042672 0.751257 0
0  -0.412895 1.098212 2.624587  0.976455 0.017802 -0.214985  0.042706 0.751206 0
0  -0.377246 1.105492 2.787107  0.976455 0.017802 -0.214985  0.042706 0.751257 0
lowpoly_plastic.001
0  -0.555836 -1.090183 -6.066196  0.000000 0.320192 -0.947353  0.005337 0.763453 0
0  0.522204 -0.962826 -6.023151  0.000000 0.320192 -0.947353  0.005679 0.763421 0
0  0.522204 -1.090183 -6.066196  0.000000 0.320192 -0.947353  0.005679 0.763453 0
lowpoly_plastic.001
0  -0.083311 -0.498079 1.196980  0.000000 -0.983972 0.178321  0.042249 0.751240 0
0  0.408530 -0.800892 -0.473931  0.000000 -0.983972 0.178321  0.042092 0.751770 0
0  0.408530 -0.498079 1.196980  0.000000 -0.983972 0.178321  0.042093 0.751240 0
lowpoly_plastic.001
0  0.490523 -2.229298 -5.391300  0.000000 -0.460185 -0.887823  0.042912 0.752148 0
0  -0.524158 -1.060021 -5.997372  0.000000 -0.460185 -0.887823  0.042591 0.751732 0
0  0.490523 -1.060021 -5.997372  0.000000 -0.460185 -0.887823  0.042912 0.751732 0
lowpoly_plastic.001
0  -0.524158 1.013869 1.112637  0.000000 0.997921 -0.064448  0.041935 0.753105 0
0  0.229780 1.098212 2.418612  0.000000 0.997921 -0.064448  0.041699 0.753520 0
0  0.490523 1.013869 1.112637  0.000000 0.997921 -0.064448  0.041613 0.753106 0
lowpoly_plastic.001
0  -0.303664 1.110103 2.920235  -0.015628 0.999541 -0.025974  0.041869 0.753677 0
0  -0.377246 1.105492 2.787107  -0.015628 0.999541 -0.025974  0.041892 0.753635 0
0  -0.445658 1.105492 2.828268  -0.015628 0.999541 -0.025974  0.041914 0.753648 0
lowpoly_plastic.001
0  0.377108 -0.413736 2.708929  -0.000013 0.055696 0.998448  0.042380 0.753184 0
0  0.379261 0.000954 2.685797  -0.000013 0.055696 0.998448  0.042249 0.753184 0
0  0.312768 -0.344141 2.705046  -0.000013 0.055696 0.998448  0.042358 0.753163 0
lowpoly_plastic.001
0  -0.442574 0.998241 2.833394  -0.970777 0.013367 0.239610  0.040559 0.753654 0
0  -0.492736 1.098212 2.624587  -0.970777 0.013367 0.239610  0.040510 0.753599 0
0  -0.492736 0.990963 2.630569  -0.970777 0.013367 0.239610  0.040543 0.753591 0
lowpoly_plastic.001
0  0.490523 -1.831551 -4.339146  1.000000 0.000000 0.000000  0.041388 0.752761 0
0  0.490523 -1.060021 -5.997372  1.000000 0.000000 0.000000  0.041047 0.753662 0
0  0.490523 -0.683779 -4.853272  1.000000 0.000000 0.000000  0.041013 0.752783 0
lowpoly_plastic.001
0  -0.492736 1.098212 2.624587  0.000000 0.998998 -0.044752  0.041929 0.753583 0
0  -0.377246 1.105492 2.787107  0.000000 0.998998 -0.044752  0.041892 0.753635 0
0  -0.412895 1.098212 2.624587  0.000000 0.998998 -0.044752  0.041903 0.753583 0
lowpoly_plastic.001
0  0.408530 -2.425491 -4.860763  0.000000 -0.881055 0.473013  0.042092 0.753253 0
0  -0.083311 -2.151560 -4.350525  0.000000 -0.881055 0.473013  0.042248 0.753071 0
0  -0.083311 -2.425491 -4.860763  0.000000 -0.881055 0.473013  0.042248 0.753253 0
lowpoly_plastic.001
0  -0.524158 1.013869 1.112637  0.000000 0.983303 -0.181975  0.041935 0.753105 0
0  0.490523 0.673742 -0.725239  0.000000 0.983303 -0.181975  0.041611 0.752514 0
0  -0.524158 0.673742 -0.725239  0.000000 0.983303 -0.181975  0.041933 0.752513 0
lowpoly_plastic.001
0  0.408530 -2.671206 -5.162245  0.000000 -0.775157 0.631769  0.042093 0.753370 0
0  -0.083311 -2.425491 -4.860763  0.000000 -0.775157 0.631769  0.042248 0.753253 0
0  -0.083311 -2.671206 -5.162245  0.000000 -0.775157 0.631769  0.042249 0.753370 0
lowpoly_plastic.001
0  0.379261 0.000954 2.685797  -0.981993 0.188625 -0.010521  0.042603 0.751681 0
0  0.312767 -0.418512 1.371827  -0.981993 0.188625 -0.010521  0.042712 0.751257 0
0  0.312768 -0.344141 2.705046  -0.981993 0.188625 -0.010521  0.042711 0.751680 0
lowpoly_plastic.001
0  0.217683 0.314516 2.951958  -0.852694 0.076708 0.516748  0.042865 0.751384 0
0  0.228650 1.110103 2.851954  -0.852694 0.076708 0.516748  0.042843 0.751637 0
0  0.176304 0.314516 2.883677  -0.852694 0.076708 0.516748  0.042843 0.751386 0
lowpoly_plastic.001
0  -0.555836 -0.925614 -5.943154  0.000000 0.906702 -0.421771  0.005889 0.763073 0
0  0.522204 -0.962826 -6.023151  0.000000 0.906702 -0.421771  0.005863 0.763415 0
0  -0.555836 -0.962826 -6.023151  0.000000 0.906702 -0.421771  0.005863 0.763073 0
lowpoly_plastic.001
0  -0.442163 -0.498079 1.196980  0.000000 -0.983972 0.178321  0.042092 0.751240 0
0  0.049677 -0.800892 -0.473931  0.000000 -0.983972 0.178321  0.041935 0.751770 0
0  0.049677 -0.498079 1.196980  0.000000 -0.983972 0.178321  0.041936 0.751240 0
lowpoly_plastic.001
0  -0.442163 -1.886204 -3.588914  0.000000 -0.944324 0.329018  0.042091 0.752095 0
0  0.049677 -0.800892 -0.473931  0.000000 -0.944324 0.329018  0.041935 0.751770 0
0  -0.442163 -0.800892 -0.473931  0.000000 -0.944324 0.329018  0.042091 0.751770 0
lowpoly_plastic.001
0  0.408530 -1.886204 -3.588914  0.000000 -0.944324 0.329018  0.042092 0.752095 0
0  -0.083311 -0.800892 -0.473931  0.000000 -0.944324 0.329018  0.042248 0.751770 0
0  -0.083312 -1.886204 -3.588914  0.000000 -0.944324 0.329018  0.042248 0.752095 0
lowpoly_plastic.001
0  0.522204 -2.660358 -5.241694  0.000000 -0.464905 -0.885361  0.005679 0.764013 0
0  -0.555836 -1.090183 -6.066196  0.000000 -0.464905 -0.885361  0.005337 0.763453 0
0  0.522204 -1.090183 -6.066196  0.000000 -0.464905 -0.885361  0.005679 0.763453 0
lowpoly_plastic.001
0  0.408530 -2.108295 -4.226346  0.964340 -0.247566 0.093588  0.041487 0.752606 0
0  0.490523 -2.229298 -5.391300  0.964340 -0.247566 0.093588  0.041455 0.753580 0
0  0.490523 -1.831551 -4.339146  0.964340 -0.247566 0.093588  0.041388 0.752761 0
lowpoly_plastic.001
0  0.408530 -2.108295 -4.226346  -0.041281 -0.361827 -0.931331  0.793872 0.986995 0
0  0.530499 -1.836340 -4.337405  -0.041281 -0.361827 -0.931331  0.793772 0.987150 0
0  0.433465 -2.138163 -4.215847  -0.041281 -0.361827 -0.931331  0.793872 0.986995 0
lowpoly_plastic.001
0  0.408530 -2.151560 -4.350525  0.000000 -0.944326 0.329010  0.042092 0.753071 0
0  -0.083312 -2.108295 -4.226346  0.000000 -0.944326 0.329010  0.042248 0.752420 0
0  -0.083311 -2.151560 -4.350525  0.000000 -0.944326 0.329010  0.042248 0.753071 0
lowpoly_plastic.001
0  -0.442163 -2.151560 -4.350525  0.000000 -0.944328 0.329006  0.042091 0.753071 0
0  0.049677 -2.108295 -4.226346  0.000000 -0.944328 0.329006  0.041935 0.752420 0
0  -0.442163 -2.108295 -4.226346  0.000000 -0.944328 0.329006  0.042091 0.752420 0
lowpoly_plastic.001
0  -0.524158 -1.587765 -3.694261  -0.004374 0.372705 0.927940  0.793106 0.986483 0
0  -0.553233 -0.426663 -4.160751  -0.004374 0.372705 0.927940  0.792748 0.986491 0
0  -0.564117 -1.592686 -3.692472  -0.004374 0.372705 0.927940  0.793106 0.986483 0
lowpoly_plastic.001
0  0.490523 -0.683779 -4.853272  0.000000 -0.312407 -0.949948  0.793997 0.986039 0
0  -0.551670 -0.655804 -4.862473  0.000000 -0.312407 -0.949948  0.794318 0.986037 0
0  0.518034 -0.655804 -4.862473  0.000000 -0.312407 -0.949948  0.793997 0.986039 0
lowpoly_plastic.001
0  -0.524158 -1.060021 -5.997372  -1.000000 0.000000 0.000000  0.040414 0.750783 0
0  -0.524158 -1.831551 -4.339146  -1.000000 0.000000 0.000000  0.040755 0.751684 0
0  -0.524158 -0.683779 -4.853272  -1.000000 0.000000 0.000000  0.040380 0.751662 0
lowpoly_plastic.001
0  0.049677 -1.886204 -3.588914  0.000166 0.329034 0.944318  0.794319 0.986485 0
0  -0.466686 -1.916374 -3.578310  0.000166 0.329034 0.944318  0.794475 0.986485 0
0  0.049677 -1.924259 -3.575654  0.000166 0.329034 0.944318  0.794319 0.986485 0
lowpoly_plastic.001
0  -0.524158 0.673742 -0.725239  0.000000 0.949952 -0.312395  0.041933 0.752513 0
0  0.490523 -0.453173 -4.152034  0.000000 0.949952 -0.312395  0.041612 0.752082 0
0  -0.524158 -0.453173 -4.152034  0.000000 0.949952 -0.312395  0.041933 0.752080 0
lowpoly_plastic.001
0  -0.524158 -0.396435 -0.542857  -0.980078 -0.187554 0.065347  0.040688 0.752503 0
0  -0.442163 -1.886204 -3.588914  -0.980078 -0.187554 0.065347  0.040837 0.752164 0
0  -0.442163 -0.800892 -0.473931  -0.980078 -0.187554 0.065347  0.040818 0.752489 0
lowpoly_plastic.001
0  0.490523 -0.396435 -0.542857  1.000000 0.000000 -0.000000  0.041320 0.751942 0
0  0.490523 -0.453173 -4.152034  1.000000 0.000000 -0.000000  0.040996 0.752343 0
0  0.490523 0.673742 -0.725239  1.000000 0.000000 -0.000000  0.040979 0.751904 0
lowpoly_plastic.001
0  0.408530 -0.800892 -0.473931  0.979895 -0.186626 0.070551  0.041451 0.751956 0
0  0.490523 -1.587765 -3.694261  0.979895 -0.186626 0.070551  0.041354 0.752351 0
0  0.490523 -0.396435 -0.542857  0.979895 -0.186626 0.070551  0.041320 0.751942 0
lowpoly_plastic.001
0  -0.524158 -0.683779 -4.853272  -0.105999 -0.403164 -0.908968  0.792765 0.986051 0
0  -0.564135 -1.836340 -4.337405  -0.105999 -0.403164 -0.908968  0.793140 0.986073 0
0  -0.551670 -0.655804 -4.862473  -0.105999 -0.403164 -0.908968  0.792765 0.986051 0
lowpoly_plastic.001
0  0.408530 -1.886204 -3.588914  -0.000207 0.331431 0.943479  0.794476 0.986485 0
0  -0.083312 -1.924259 -3.575654  -0.000207 0.331431 0.943479  0.794632 0.986485 0
0  0.433052 -1.916374 -3.578310  -0.000207 0.331431 0.943479  0.794476 0.986485 0
lowpoly_plastic.001
0  -0.524158 -1.831551 -4.339146  0.004220 -0.372418 -0.928055  0.793140 0.986073 0
0  -0.467099 -2.138163 -4.215847  0.004220 -0.372418 -0.928055  0.793239 0.986229 0
0  -0.564135 -1.836340 -4.337405  0.004220 -0.372418 -0.928055  0.793140 0.986073 0
lowpoly_plastic.001
0  0.433052 -1.916374 -3.578310  0.961976 -0.255498 0.096553  0.859271 0.982914 0
0  0.530499 -1.836340 -4.337405  0.961976 -0.255498 0.096553  0.859189 0.983394 0
0  0.530481 -1.592686 -3.692472  0.961976 -0.255498 0.096553  0.859156 0.982985 0
lowpoly_plastic.001
0  0.530481 -1.592686 -3.692472  0.999961 0.007461 -0.004664  0.859156 0.982985 0
0  0.518034 -0.655804 -4.862473  0.999961 0.007461 -0.004664  0.858814 0.983416 0
0  0.519597 -0.426663 -4.160751  0.999961 0.007461 -0.004664  0.858797 0.982977 0
lowpoly_plastic.001
0  -0.564117 -1.592686 -3.692472  -0.961992 -0.257722 0.090280  0.858523 0.982727 0
0  -0.467099 -2.138163 -4.215847  -0.961992 -0.257722 0.090280  0.858656 0.982472 0
0  -0.466686 -1.916374 -3.578310  -0.961992 -0.257722 0.090280  0.858638 0.982797 0
lowpoly_plastic.001
0  -0.553233 -0.426663 -4.160751  0.000000 0.950602 -0.310411  0.859735 0.982714 0
0  0.518034 -0.655804 -4.862473  0.000000 0.950602 -0.310411  0.859414 0.982283 0
0  -0.551670 -0.655804 -4.862473  0.000000 0.950602 -0.310411  0.859735 0.982281 0
lowpoly_plastic.001
0  0.433465 -2.138163 -4.215847  0.016718 -0.944192 0.328972  0.859893 0.983054 0
0  -0.083312 -1.924259 -3.575654  0.016718 -0.944192 0.328972  0.860049 0.982728 0
0  -0.083312 -2.146351 -4.213086  0.016718 -0.944192 0.328972  0.860049 0.983054 0
lowpoly_plastic.001
0  -0.467099 -2.138163 -4.215847  -0.016110 -0.944354 0.328535  0.859892 0.983054 0
0  0.049677 -1.924259 -3.575654  -0.016110 -0.944354 0.328535  0.859736 0.982728 0
0  -0.466686 -1.916374 -3.578310  -0.016110 -0.944354 0.328535  0.859892 0.982728 0
lowpoly_plastic.001
0  -0.551670 -0.655804 -4.862473  -0.999961 0.007461 -0.004664  0.858182 0.982295 0
0  -0.564117 -1.592686 -3.692472  -0.999961 0.007461 -0.004664  0.858523 0.982727 0
0  -0.553233 -0.426663 -4.160751  -0.999961 0.007461 -0.004664  0.858165 0.982735 0
lowpoly_plastic.001
0  -0.524158 -0.453173 -4.152034  0.000000 0.312380 0.949957  0.794318 0.986470 0
0  0.519597 -0.426663 -4.160751  0.000000 0.312380 0.949957  0.793996 0.986471 0
0  -0.553233 -0.426663 -4.160751  0.000000 0.312380 0.949957  0.794318 0.986470 0
lowpoly_plastic.001
0  -0.083312 -2.108295 -4.226346  0.000169 -0.329038 -0.944317  0.794632 0.986810 0
0  0.433465 -2.138163 -4.215847  0.000169 -0.329038 -0.944317  0.794476 0.986810 0
0  -0.083312 -2.146351 -4.213086  0.000169 -0.329038 -0.944317  0.794632 0.986810 0
lowpoly_plastic.001
0  -0.442163 -1.886204 -3.588914  -0.001034 0.332334 0.943161  0.793221 0.986553 0
0  -0.564117 -1.592686 -3.692472  -0.001034 0.332334 0.943161  0.793106 0.986483 0
0  -0.466686 -1.916374 -3.578310  -0.001034 0.332334 0.943161  0.793221 0.986553 0
lowpoly_plastic.001
0  -0.083312 -1.886204 -3.588914  -1.000000 0.000000 0.000000  0.000000 0.000000 0
0  -0.083312 -2.146351 -4.213086  -1.000000 0.000000 0.000000  0.000000 0.000000 0
0  -0.083312 -1.924259 -3.575654  -1.000000 0.000000 0.000000  0.000000 0.000000 0
lowpoly_plastic.001
0  0.049677 -2.108295 -4.226346  1.000000 0.000000 0.000000  0.000000 0.000000 0
0  0.049677 -1.924259 -3.575654  1.000000 0.000000 0.000000  0.000000 0.000000 0
0  0.049677 -2.146351 -4.213086  1.000000 0.000000 0.000000  0.000000 0.000000 0
lowpoly_plastic.001
0  -0.442163 -2.108295 -4.226346  -0.000212 -0.331473 -0.943465  0.794475 0.986810 0
0  0.049677 -2.146351 -4.213086  -0.000212 -0.331473 -0.943465  0.794319 0.986810 0
0  -0.467099 -2.138163 -4.215847  -0.000212 -0.331473 -0.943465  0.794475 0.986810 0
lowpoly_plastic.001
0  0.490523 -0.453173 -4.152034  -0.060960 0.371490 0.926433  0.793380 0.986733 0
0  0.530481 -1.592686 -3.692472  -0.060960 0.371490 0.926433  0.793738 0.986741 0
0  0.519597 -0.426663 -4.160751  -0.060960 0.371490 0.926433  0.793380 0.986733 0
lowpoly_plastic.001
0  0.490523 -1.831551 -4.339146  -0.008910 -0.406449 -0.913630  0.793772 0.987150 0
0  0.518034 -0.655804 -4.862473  -0.008910 -0.406449 -0.913630  0.793397 0.987172 0
0  0.530499 -1.836340 -4.337405  -0.008910 -0.406449 -0.913630  0.793772 0.987150 0
lowpoly_plastic.001
0  0.490523 -1.587765 -3.694261  -0.001207 0.332932 0.942950  0.793738 0.986741 0
0  0.433052 -1.916374 -3.578310  -0.001207 0.332932 0.942950  0.793854 0.986670 0
0  0.530481 -1.592686 -3.692472  -0.001207 0.332932 0.942950  0.793738 0.986741 0
lowpoly_plastic.001
0  -0.251318 0.314516 2.951958  0.852691 0.076708 0.516753  0.042864 0.752558 0
0  -0.209938 0.314516 2.883677  0.852691 0.076708 0.516753  0.042842 0.752557 0
0  -0.262284 1.110103 2.851954  0.852691 0.076708 0.516753  0.042842 0.752305 0
lowpoly_plastic.001
0  -0.412895 0.990963 2.630569  1.000000 0.000000 0.000000  0.042672 0.751206 0
0  -0.412895 0.000954 2.685797  1.000000 0.000000 0.000000  0.042358 0.751206 0
0  -0.412895 -0.073420 1.352576  1.000000 0.000000 0.000000  0.042357 0.750783 0
lowpoly_plastic.001
0  0.312767 -0.418512 1.371827  -0.000003 0.998448 -0.055698  0.042800 0.753133 0
0  -0.346401 -0.418514 1.371827  -0.000003 0.998448 -0.055698  0.042591 0.753132 0
0  -0.346401 -0.344141 2.705046  -0.000003 0.998448 -0.055698  0.042591 0.752710 0
lowpoly_plastic.001
0  0.379261 0.916590 1.297350  -1.000000 0.000000 0.000000  0.042290 0.751257 0
0  0.379261 -0.073420 1.352576  -1.000000 0.000000 0.000000  0.042604 0.751258 0
0  0.379261 0.000954 2.685797  -1.000000 0.000000 0.000000  0.042603 0.751681 0
lowpoly_plastic.001
0  -0.442163 -2.151560 -4.350525  0.000000 -0.881056 0.473013  0.042091 0.753071 0
0  -0.442163 -2.425491 -4.860763  0.000000 -0.881056 0.473013  0.042091 0.753253 0
0  0.049677 -2.425491 -4.860763  0.000000 -0.881056 0.473013  0.041935 0.753253 0
lowpoly_plastic.001
0  -0.414103 0.165050 2.880716  -0.970405 -0.019489 0.240697  0.040818 0.753596 0
0  -0.442574 0.998241 2.833394  -0.970405 -0.019489 0.240697  0.040559 0.753654 0
0  -0.492736 0.990963 2.630569  -0.970405 -0.019489 0.240697  0.040543 0.753591 0
lowpoly_plastic.001
0  -0.263414 0.990963 2.424595  0.000000 0.055703 0.998447  0.042801 0.751699 0
0  0.229780 0.990963 2.424595  0.000000 0.055703 0.998447  0.042801 0.751543 0
0  0.229780 1.098212 2.418612  0.000000 0.055703 0.998447  0.042835 0.751543 0
lowpoly_plastic.001
0  -0.442163 -2.671206 -5.162245  0.000000 -0.775157 0.631769  0.042092 0.753370 0
0  0.049677 -2.671206 -5.162245  0.000000 -0.775157 0.631769  0.041936 0.753370 0
0  0.049677 -2.425491 -4.860763  0.000000 -0.775157 0.631769  0.041935 0.753253 0
lowpoly_plastic.001
0  -0.524158 -0.683779 -4.853272  0.000000 0.949952 -0.312396  0.041934 0.751648 0
0  0.490523 -0.683779 -4.853272  0.000000 0.949952 -0.312396  0.041612 0.751649 0
0  0.490523 -1.060021 -5.997372  0.000000 0.949952 -0.312396  0.041613 0.750784 0
lowpoly_plastic.001
0  0.229780 0.990963 2.424595  -0.808897 0.032748 0.587037  0.042283 0.751614 0
0  0.379261 0.990963 2.630569  -0.808897 0.032748 0.587037  0.042289 0.751681 0
0  0.379261 1.098212 2.624587  -0.808897 0.032748 0.587037  0.042255 0.751681 0
lowpoly_plastic.001
0  -0.410741 -0.413736 2.708929  0.000000 -0.998448 0.055698  0.042084 0.750783 0
0  -0.442163 -0.498079 1.196980  0.000000 -0.998448 0.055698  0.042092 0.751240 0
0  0.049677 -0.498079 1.196980  0.000000 -0.998448 0.055698  0.041936 0.751240 0
lowpoly_plastic.001
0  -0.346401 -0.344141 2.705046  0.981993 0.188627 -0.010522  0.042250 0.751206 0
0  -0.346401 -0.418514 1.371827  0.981993 0.188627 -0.010522  0.042249 0.750783 0
0  -0.412895 -0.073420 1.352576  0.981993 0.188627 -0.010522  0.042357 0.750783 0
lowpoly_plastic.001
0  0.340527 0.998241 2.792234  -0.976455 0.017805 -0.214987  0.042288 0.751732 0
0  0.343611 1.105492 2.787107  -0.976455 0.017805 -0.214987  0.042254 0.751732 0
0  0.379261 1.098212 2.624587  -0.976455 0.017805 -0.214987  0.042255 0.751681 0
lowpoly_plastic.001
0  0.380469 0.165050 2.880716  0.932939 0.020053 0.359476  0.041450 0.750849 0
0  0.459102 0.000954 2.685797  0.932939 0.020053 0.359476  0.041482 0.750923 0
0  0.459102 0.990963 2.630569  0.932939 0.020053 0.359476  0.041175 0.750853 0
lowpoly_plastic.001
0  -0.524158 -0.453173 -4.152034  -1.000000 0.000000 0.000000  0.040363 0.752101 0
0  -0.524158 -1.587765 -3.694261  -1.000000 0.000000 0.000000  0.040722 0.752093 0
0  -0.524158 -0.396435 -0.542857  -1.000000 0.000000 0.000000  0.040688 0.752503 0
lowpoly_plastic.001
0  0.379261 1.098212 2.624587  0.023784 0.998935 -0.039531  0.041652 0.753585 0
0  0.343611 1.105492 2.787107  0.023784 0.998935 -0.039531  0.041664 0.753636 0
0  0.412024 1.105492 2.828268  0.023784 0.998935 -0.039531  0.041642 0.753649 0
lowpoly_plastic.001
0  0.270029 1.110103 2.920235  0.015628 0.999541 -0.025975  0.041688 0.753678 0
0  0.412024 1.105492 2.828268  0.015628 0.999541 -0.025975  0.041642 0.753649 0
0  0.343611 1.105492 2.787107  0.015628 0.999541 -0.025975  0.041664 0.753636 0
lowpoly_plastic.001
0  0.379261 0.000954 2.685797  0.000000 -0.765000 0.644030  0.042634 0.753256 0
0  0.459102 0.000954 2.685797  0.000000 -0.765000 0.644030  0.042613 0.753270 0
0  0.380469 0.165050 2.880716  0.000000 -0.765000 0.644030  0.042591 0.753193 0
lowpoly_plastic.001
0  -0.346401 -0.344141 2.705046  0.000000 0.055694 0.998448  0.042358 0.752954 0
0  -0.412895 0.000954 2.685797  0.000000 0.055694 0.998448  0.042249 0.752933 0
0  -0.492736 0.000954 2.685797  0.000000 0.055694 0.998448  0.042249 0.752908 0
lowpoly_plastic.001
0  0.522204 -0.925614 -5.943154  1.000000 0.000000 0.000000  0.005888 0.765022 0
0  0.522204 -2.668316 -5.028055  1.000000 0.000000 0.000000  0.005888 0.764399 0
0  0.522204 -2.660358 -5.241694  1.000000 0.000000 0.000000  0.005947 0.764432 0
lowpoly_plastic.001
0  0.408940 0.998241 2.833394  0.970777 0.013367 0.239610  0.041192 0.750790 0
0  0.459102 0.990963 2.630569  0.970777 0.013367 0.239610  0.041175 0.750853 0
0  0.459102 1.098212 2.624587  0.970777 0.013367 0.239610  0.041142 0.750846 0
lowpoly_plastic.001
0  -0.524158 -1.831551 -4.339146  -0.963548 -0.250251 0.094603  0.040755 0.751684 0
0  -0.524158 -2.229298 -5.391300  -0.963548 -0.250251 0.094603  0.040823 0.750865 0
0  -0.442163 -2.151560 -4.350525  -0.963548 -0.250251 0.094603  0.040891 0.751189 0
lowpoly_plastic.001
0  -0.555836 -1.090183 -6.066196  -1.000000 -0.000000 0.000000  0.006005 0.764428 0
0  -0.555836 -2.660358 -5.241694  -1.000000 -0.000000 0.000000  0.006005 0.764990 0
0  -0.555836 -2.668316 -5.028055  -1.000000 -0.000000 0.000000  0.005947 0.765023 0
lowpoly_plastic.001
0  0.522204 -0.925614 -5.943154  0.000000 0.464906 0.885360  0.005337 0.764013 0
0  -0.555836 -0.925614 -5.943154  0.000000 0.464906 0.885360  0.005679 0.764013 0
0  -0.555836 -2.668316 -5.028055  0.000000 0.464906 0.885360  0.005679 0.764597 0
lowpoly_plastic.001
0  0.522204 -2.660358 -5.241694  0.000000 -0.947354 -0.320187  0.005800 0.763073 0
0  0.522204 -2.705526 -5.108054  0.000000 -0.947354 -0.320187  0.005835 0.763074 0
0  -0.555836 -2.705526 -5.108054  0.000000 -0.947354 -0.320187  0.005835 0.763415 0
lowpoly_plastic.001
0  0.522204 -2.705526 -5.108054  0.000000 -0.906714 0.421746  0.005835 0.763074 0
0  0.522204 -2.668316 -5.028055  0.000000 -0.906714 0.421746  0.005863 0.763073 0
0  -0.555836 -2.668316 -5.028055  0.000000 -0.906714 0.421746  0.005863 0.763415 0
lowpoly_plastic.001
0  0.217683 0.314516 2.951958  -0.626331 -0.680911 0.379566  0.042612 0.753133 0
0  0.176304 0.314516 2.883677  -0.626331 -0.680911 0.379566  0.042634 0.753142 0
0  0.312056 0.165050 2.839556  -0.626331 -0.680911 0.379566  0.042615 0.753191 0
lowpoly_plastic.001
0  0.377108 -0.413736 2.708929  0.000000 -0.998448 0.055698  0.042104 0.750783 0
0  -0.016817 -0.413736 2.708929  0.000000 -0.998448 0.055698  0.042229 0.750783 0
0  -0.083311 -0.498079 1.196980  0.000000 -0.998448 0.055698  0.042249 0.751240 0
lowpoly_plastic.001
0  -0.263414 0.990963 2.424595  0.808898 0.032750 0.587036  0.042678 0.751140 0
0  -0.263414 1.098212 2.418612  0.808898 0.032750 0.587036  0.042712 0.751139 0
0  -0.412895 1.098212 2.624587  0.808898 0.032750 0.587036  0.042706 0.751206 0
lowpoly_plastic.001
0  0.229780 0.990963 2.424595  0.000000 -0.997831 0.065835  0.042638 0.752367 0
0  -0.263414 0.990963 2.424595  0.000000 -0.997831 0.065835  0.042794 0.752367 0
0  -0.412897 0.916590 1.297350  0.000000 -0.997831 0.065835  0.042842 0.752709 0
lowpoly_plastic.001
0  -0.374162 0.998241 2.792234  0.972528 -0.012965 -0.232425  0.042672 0.751257 0
0  -0.412895 0.990963 2.630569  0.972528 -0.012965 -0.232425  0.042672 0.751206 0
0  -0.412895 1.098212 2.624587  0.972528 -0.012965 -0.232425  0.042706 0.751206 0
lowpoly_plastic.001
0  -0.555836 -1.090183 -6.066196  0.000000 0.320192 -0.947353  0.005337 0.763453 0
0  -0.555836 -0.962826 -6.023151  0.000000 0.320192 -0.947353  0.005337 0.763421 0
0  0.522204 -0.962826 -6.023151  0.000000 0.320192 -0.947353  0.005679 0.763421 0
lowpoly_plastic.001
0  -0.083311 -0.498079 1.196980  0.000000 -0.983972 0.178321  0.042249 0.751240 0
0  -0.083311 -0.800892 -0.473931  0.000000 -0.983972 0.178321  0.042248 0.751770 0
0  0.408530 -0.800892 -0.473931  0.000000 -0.983972 0.178321  0.042092 0.751770 0
lowpoly_plastic.001
0  0.490523 -2.229298 -5.391300  -0.000002 -0.460186 -0.887822  0.042912 0.752148 0
0  -0.083311 -2.597042 -5.200686  -0.000002 -0.460186 -0.887822  0.042730 0.752279 0
0  -0.524158 -1.060021 -5.997372  -0.000002 -0.460186 -0.887822  0.042591 0.751732 0
lowpoly_plastic.001
0  -0.524158 1.013869 1.112637  0.000000 0.997921 -0.064448  0.041935 0.753105 0
0  -0.263414 1.098212 2.418612  0.000000 0.997921 -0.064448  0.041855 0.753519 0
0  0.229780 1.098212 2.418612  0.000000 0.997921 -0.064448  0.041699 0.753520 0
lowpoly_plastic.001
0  -0.303664 1.110103 2.920235  -0.029866 0.999390 -0.018100  0.041869 0.753677 0
0  -0.262284 1.110103 2.851954  -0.029866 0.999390 -0.018100  0.041856 0.753656 0
0  -0.377246 1.105492 2.787107  -0.029866 0.999390 -0.018100  0.041892 0.753635 0
lowpoly_plastic.001
0  0.377108 -0.413736 2.708929  0.000000 0.055696 0.998448  0.042380 0.753184 0
0  0.459102 0.000954 2.685797  0.000000 0.055696 0.998448  0.042249 0.753210 0
0  0.379261 0.000954 2.685797  0.000000 0.055696 0.998448  0.042249 0.753184 0
lowpoly_plastic.001
0  -0.442574 0.998241 2.833394  -0.974034 -0.017222 0.225748  0.040559 0.753654 0
0  -0.445658 1.105492 2.828268  -0.974034 -0.017222 0.225748  0.040526 0.753662 0
0  -0.492736 1.098212 2.624587  -0.974034 -0.017222 0.225748  0.040510 0.753599 0
lowpoly_plastic.001
0  0.490523 -1.831551 -4.339146  1.000000 0.000000 0.000000  0.041388 0.752761 0
0  0.490523 -2.229298 -5.391300  1.000000 0.000000 0.000000  0.041455 0.753580 0
0  0.490523 -1.060021 -5.997372  1.000000 0.000000 0.000000  0.041047 0.753662 0
lowpoly_plastic.001
0  -0.492736 1.098212 2.624587  -0.018867 0.999330 -0.031359  0.041929 0.753583 0
0  -0.445658 1.105492 2.828268  -0.018867 0.999330 -0.031359  0.041914 0.753648 0
0  -0.377246 1.105492 2.787107  -0.018867 0.999330 -0.031359  0.041892 0.753635 0
lowpoly_plastic.001
0  0.408530 -2.425491 -4.860763  0.000000 -0.881056 0.473012  0.042092 0.753253 0
0  0.408530 -2.151560 -4.350525  0.000000 -0.881056 0.473012  0.042092 0.753071 0
0  -0.083311 -2.151560 -4.350525  0.000000 -0.881056 0.473012  0.042248 0.753071 0
lowpoly_plastic.001
0  -0.524158 1.013869 1.112637  0.000000 0.983303 -0.181975  0.041935 0.753105 0
0  0.490523 1.013869 1.112637  0.000000 0.983303 -0.181975  0.041613 0.753106 0
0  0.490523 0.673742 -0.725239  0.000000 0.983303 -0.181975  0.041611 0.752514 0
lowpoly_plastic.001
0  0.408530 -2.671206 -5.162245  0.000000 -0.775157 0.631769  0.042093 0.753370 0
0  0.408530 -2.425491 -4.860763  0.000000 -0.775157 0.631769  0.042092 0.753253 0
0  -0.083311 -2.425491 -4.860763  0.000000 -0.775157 0.631769  0.042248 0.753253 0
lowpoly_plastic.001
0  0.379261 0.000954 2.685797  -0.981992 0.188628 -0.010523  0.042603 0.751681 0
0  0.379261 -0.073420 1.352576  -0.981992 0.188628 -0.010523  0.042604 0.751258 0
0  0.312767 -0.418512 1.371827  -0.981992 0.188628 -0.010523  0.042712 0.751257 0
lowpoly_plastic.001
0  0.217683 0.314516 2.951958  -0.852691 0.076708 0.516752  0.042865 0.751384 0
0  0.270029 1.110103 2.920235  -0.852691 0.076708 0.516752  0.042865 0.751636 0
0  0.228650 1.110103 2.851954  -0.852691 0.076708 0.516752  0.042843 0.751637 0
lowpoly_plastic.001
0  -0.555836 -0.925614 -5.943154  0.000000 0.906701 -0.421773  0.005889 0.763073 0
0  0.522204 -0.925614 -5.943154  0.000000 0.906701 -0.421773  0.005889 0.763415 0
0  0.522204 -0.962826 -6.023151  0.000000 0.906701 -0.421773  0.005863 0.763415 0
lowpoly_plastic.001
0  -0.442163 -0.498079 1.196980  0.000000 -0.983972 0.178321  0.042092 0.751240 0
0  -0.442163 -0.800892 -0.473931  0.000000 -0.983972 0.178321  0.042091 0.751770 0
0  0.049677 -0.800892 -0.473931  0.000000 -0.983972 0.178321  0.041935 0.751770 0
lowpoly_plastic.001
0  -0.442163 -1.886204 -3.588914  0.000000 -0.944324 0.329018  0.042091 0.752095 0
0  0.049677 -1.886204 -3.588914  0.000000 -0.944324 0.329018  0.041935 0.752095 0
0  0.049677 -0.800892 -0.473931  0.000000 -0.944324 0.329018  0.041935 0.751770 0
lowpoly_plastic.001
0  0.408530 -1.886204 -3.588914  0.000000 -0.944324 0.329018  0.042092 0.752095 0
0  0.408530 -0.800892 -0.473931  0.000000 -0.944324 0.329018  0.042092 0.751770 0
0  -0.083311 -0.800892 -0.473931  0.000000 -0.944324 0.329018  0.042248 0.751770 0
lowpoly_plastic.001
0  0.522204 -2.660358 -5.241694  0.000000 -0.464905 -0.885361  0.005679 0.764013 0
0  -0.555836 -2.660358 -5.241694  0.000000 -0.464905 -0.885361  0.005337 0.764013 0
0  -0.555836 -1.090183 -6.066196  0.000000 -0.464905 -0.885361  0.005337 0.763453 0
lowpoly_plastic.001
0  0.408530 -2.108295 -4.226346  0.956553 -0.275327 0.095923  0.041487 0.752606 0
0  0.408530 -2.151560 -4.350525  0.956553 -0.275327 0.095923  0.041524 0.753255 0
0  0.490523 -2.229298 -5.391300  0.956553 -0.275327 0.095923  0.041455 0.753580 0
lowpoly_plastic.001
0  0.408530 -2.108295 -4.226346  -0.004735 -0.376238 -0.926511  0.793872 0.986995 0
0  0.490523 -1.831551 -4.339146  -0.004735 -0.376238 -0.926511  0.793772 0.987150 0
0  0.530499 -1.836340 -4.337405  -0.004735 -0.376238 -0.926511  0.793772 0.987150 0
lowpoly_plastic.001
0  0.408530 -2.151560 -4.350525  0.000000 -0.944328 0.329006  0.042092 0.753071 0
0  0.408530 -2.108295 -4.226346  0.000000 -0.944328 0.329006  0.042092 0.752420 0
0  -0.083312 -2.108295 -4.226346  0.000000 -0.944328 0.329006  0.042248 0.752420 0
lowpoly_plastic.001
0  -0.442163 -2.151560 -4.350525  0.000000 -0.944328 0.329006  0.042091 0.753071 0
0  0.049677 -2.151560 -4.350525  0.000000 -0.944328 0.329006  0.041935 0.753071 0
0  0.049677 -2.108295 -4.226346  0.000000 -0.944328 0.329006  0.041935 0.752420 0
lowpoly_plastic.001
0  -0.524158 -1.587765 -3.694261  0.063008 0.373419 0.925521  0.793106 0.986483 0
0  -0.524158 -0.453173 -4.152034  0.063008 0.373419 0.925521  0.792748 0.986491 0
0  -0.553233 -0.426663 -4.160751  0.063008 0.373419 0.925521  0.792748 0.986491 0
lowpoly_plastic.001
0  0.490523 -0.683779 -4.853272  0.000000 -0.312408 -0.949948  0.793997 0.986039 0
0  -0.524158 -0.683779 -4.853272  0.000000 -0.312408 -0.949948  0.794318 0.986037 0
0  -0.551670 -0.655804 -4.862473  0.000000 -0.312408 -0.949948  0.794318 0.986037 0
lowpoly_plastic.001
0  -0.524158 -1.060021 -5.997372  -1.000000 0.000000 0.000000  0.040414 0.750783 0
0  -0.524158 -2.229298 -5.391300  -1.000000 0.000000 0.000000  0.040823 0.750865 0
0  -0.524158 -1.831551 -4.339146  -1.000000 0.000000 0.000000  0.040755 0.751684 0
lowpoly_plastic.001
0  0.049677 -1.886204 -3.588914  0.000000 0.331585 0.943426  0.794319 0.986485 0
0  -0.442163 -1.886204 -3.588914  0.000000 0.331585 0.943426  0.794475 0.986485 0
0  -0.466686 -1.916374 -3.578310  0.000000 0.331585 0.943426  0.794475 0.986485 0
lowpoly_plastic.001
0  -0.524158 0.673742 -0.725239  0.000000 0.949952 -0.312395  0.041933 0.752513 0
0  0.490523 0.673742 -0.725239  0.000000 0.949952 -0.312395  0.041611 0.752514 0
0  0.490523 -0.453173 -4.152034  0.000000 0.949952 -0.312395  0.041612 0.752082 0
lowpoly_plastic.001
0  -0.524158 -0.396435 -0.542857  -0.968024 -0.234649 0.088705  0.040688 0.752503 0
0  -0.524158 -1.587765 -3.694261  -0.968024 -0.234649 0.088705  0.040722 0.752093 0
0  -0.442163 -1.886204 -3.588914  -0.968024 -0.234649 0.088705  0.040837 0.752164 0
lowpoly_plastic.001
0  0.490523 -0.396435 -0.542857  1.000000 0.000000 -0.000000  0.041320 0.751942 0
0  0.490523 -1.587765 -3.694261  1.000000 0.000000 -0.000000  0.041354 0.752351 0
0  0.490523 -0.453173 -4.152034  1.000000 0.000000 -0.000000  0.040996 0.752343 0
lowpoly_plastic.001
0  0.408530 -0.800892 -0.473931  0.968040 -0.236832 0.082516  0.041451 0.751956 0
0  0.408530 -1.886204 -3.588914  0.968040 -0.236832 0.082516  0.041469 0.752281 0
0  0.490523 -1.587765 -3.694261  0.968040 -0.236832 0.082516  0.041354 0.752351 0
lowpoly_plastic.001
0  -0.524158 -0.683779 -4.853272  0.009244 -0.408778 -0.912587  0.792765 0.986051 0
0  -0.524158 -1.831551 -4.339146  0.009244 -0.408778 -0.912587  0.793140 0.986073 0
0  -0.564135 -1.836340 -4.337405  0.009244 -0.408778 -0.912587  0.793140 0.986073 0
lowpoly_plastic.001
0  0.408530 -1.886204 -3.588914  0.000000 0.329034 0.944318  0.794476 0.986485 0
0  -0.083312 -1.886204 -3.588914  0.000000 0.329034 0.944318  0.794632 0.986485 0
0  -0.083312 -1.924259 -3.575654  0.000000 0.329034 0.944318  0.794632 0.986485 0
lowpoly_plastic.001
0  -0.524158 -1.831551 -4.339146  0.046105 -0.365304 -0.929746  0.793140 0.986073 0
0  -0.442163 -2.108295 -4.226346  0.046105 -0.365304 -0.929746  0.793239 0.986229 0
0  -0.467099 -2.138163 -4.215847  0.046105 -0.365304 -0.929746  0.793239 0.986229 0
lowpoly_plastic.001
0  0.433052 -1.916374 -3.578310  0.958212 -0.269983 0.094543  0.859271 0.982914 0
0  0.433465 -2.138163 -4.215847  0.958212 -0.269983 0.094543  0.859289 0.983239 0
0  0.530499 -1.836340 -4.337405  0.958212 -0.269983 0.094543  0.859189 0.983394 0
lowpoly_plastic.001
0  0.530481 -1.592686 -3.692472  0.999953 0.009051 -0.003391  0.859156 0.982985 0
0  0.530499 -1.836340 -4.337405  0.999953 0.009051 -0.003391  0.859189 0.983394 0
0  0.518034 -0.655804 -4.862473  0.999953 0.009051 -0.003391  0.858814 0.983416 0
lowpoly_plastic.001
0  -0.564117 -1.592686 -3.692472  -0.958276 -0.267390 0.101046  0.858523 0.982727 0
0  -0.564135 -1.836340 -4.337405  -0.958276 -0.267390 0.101046  0.858557 0.982317 0
0  -0.467099 -2.138163 -4.215847  -0.958276 -0.267390 0.101046  0.858656 0.982472 0
lowpoly_plastic.001
0  -0.553233 -0.426663 -4.160751  0.000000 0.950602 -0.310411  0.859735 0.982714 0
0  0.519597 -0.426663 -4.160751  0.000000 0.950602 -0.310411  0.859413 0.982715 0
0  0.518034 -0.655804 -4.862473  0.000000 0.950602 -0.310411  0.859414 0.982283 0
lowpoly_plastic.001
0  0.433465 -2.138163 -4.215847  0.016110 -0.944354 0.328535  0.859893 0.983054 0
0  0.433052 -1.916374 -3.578310  0.016110 -0.944354 0.328535  0.859893 0.982728 0
0  -0.083312 -1.924259 -3.575654  0.016110 -0.944354 0.328535  0.860049 0.982728 0
lowpoly_plastic.001
0  -0.467099 -2.138163 -4.215847  -0.016718 -0.944192 0.328972  0.859892 0.983054 0
0  0.049677 -2.146351 -4.213086  -0.016718 -0.944192 0.328972  0.859736 0.983054 0
0  0.049677 -1.924259 -3.575654  -0.016718 -0.944192 0.328972  0.859736 0.982728 0
lowpoly_plastic.001
0  -0.551670 -0.655804 -4.862473  -0.999953 0.009050 -0.003391  0.858182 0.982295 0
0  -0.564135 -1.836340 -4.337405  -0.999953 0.009050 -0.003391  0.858557 0.982317 0
0  -0.564117 -1.592686 -3.692472  -0.999953 0.009050 -0.003391  0.858523 0.982727 0
lowpoly_plastic.001
0  -0.524158 -0.453173 -4.152034  0.000000 0.312380 0.949957  0.794318 0.986470 0
0  0.490523 -0.453173 -4.152034  0.000000 0.312380 0.949957  0.793996 0.986471 0
0  0.519597 -0.426663 -4.160751  0.000000 0.312380 0.949957  0.793996 0.986471 0
lowpoly_plastic.001
0  -0.083312 -2.108295 -4.226346  0.000000 -0.331627 -0.943411  0.794632 0.986810 0
0  0.408530 -2.108295 -4.226346  0.000000 -0.331627 -0.943411  0.794476 0.986810 0
0  0.433465 -2.138163 -4.215847  0.000000 -0.331627 -0.943411  0.794476 0.986810 0
lowpoly_plastic.001
0  -0.442163 -1.886204 -3.588914  0.001164 0.333147 0.942874  0.793221 0.986553 0
0  -0.524158 -1.587765 -3.694261  0.001164 0.333147 0.942874  0.793106 0.986483 0
0  -0.564117 -1.592686 -3.692472  0.001164 0.333147 0.942874  0.793106 0.986483 0
lowpoly_plastic.001
0  -0.083312 -1.886204 -3.588914  -1.000000 0.000000 0.000000  0.000000 0.000000 0
0  -0.083312 -2.108295 -4.226346  -1.000000 0.000000 0.000000  0.000000 0.000000 0
0  -0.083312 -2.146351 -4.213086  -1.000000 0.000000 0.000000  0.000000 0.000000 0
lowpoly_plastic.001
0  0.049677 -2.108295 -4.226346  1.000000 0.000000 0.000000  0.000000 0.000000 0
0  0.049677 -1.886204 -3.588914  1.000000 0.000000 0.000000  0.000000 0.000000 0
0  0.049677 -1.924259 -3.575654  1.000000 0.000000 0.000000  0.000000 0.000000 0
lowpoly_plastic.001
0  -0.442163 -2.108295 -4.226346  0.000000 -0.329037 -0.944317  0.794475 0.986810 0
0  0.049677 -2.108295 -4.226346  0.000000 -0.329037 -0.944317  0.794319 0.986810 0
0  0.049677 -2.146351 -4.213086  0.000000 -0.329037 -0.944317  0.794319 0.986810 0
lowpoly_plastic.001
0  0.490523 -0.453173 -4.152034  0.004574 0.374159 0.927354  0.793380 0.986733 0
0  0.490523 -1.587765 -3.694261  0.004574 0.374159 0.927354  0.793738 0.986741 0
0  0.530481 -1.592686 -3.692472  0.004574 0.374159 0.927354  0.793738 0.986741 0
lowpoly_plastic.001
0  0.490523 -1.831551 -4.339146  0.109824 -0.406324 -0.907105  0.793772 0.987150 0
0  0.490523 -0.683779 -4.853272  0.109824 -0.406324 -0.907105  0.793397 0.987172 0
0  0.518034 -0.655804 -4.862473  0.109824 -0.406324 -0.907105  0.793397 0.987172 0
lowpoly_plastic.001
0  0.490523 -1.587765 -3.694261  0.001327 0.332540 0.943088  0.793738 0.986741 0
0  0.408530 -1.886204 -3.588914  0.001327 0.332540 0.943088  0.793854 0.986670 0
0  0.433052 -1.916374 -3.578310  0.001327 0.332540 0.943088  0.793854 0.986670 0
end
