version 1
nodes
0 "ValveBiped.Bip01_Spine4" -1
1 "ValveBiped.Bip01_L_Clavicle" 0
2 "ValveBiped.Bip01_L_UpperArm" 1
3 "ValveBiped.Bip01_L_Forearm" 2
4 "ValveBiped.Bip01_L_Hand" 3
5 "ValveBiped.Bip01_L_Finger4" 4
6 "ValveBiped.Bip01_L_Finger41" 5
7 "ValveBiped.Bip01_L_Finger42" 6
8 "ValveBiped.Bip01_L_Finger3" 4
9 "ValveBiped.Bip01_L_Finger31" 8
10 "ValveBiped.Bip01_L_Finger32" 9
11 "ValveBiped.Bip01_L_Finger2" 4
12 "ValveBiped.Bip01_L_Finger21" 11
13 "ValveBiped.Bip01_L_Finger22" 12
14 "ValveBiped.Bip01_L_Finger1" 4
15 "ValveBiped.Bip01_L_Finger11" 14
16 "ValveBiped.Bip01_L_Finger12" 15
17 "ValveBiped.Bip01_L_Finger0" 4
18 "ValveBiped.Bip01_L_Finger01" 17
19 "ValveBiped.Bip01_L_Finger02" 18
20 "ValveBiped.Bip01_L_Ulna" 3
21 "ValveBiped.Bip01_L_Wrist" 3
22 "rig_l_upperarm" 1
23 "rig_l_forearm" 22
24 "rig_d_l_forearm" 23
25 "rig_d_l_upperarm" 22
26 "ValveBiped.Bip01_R_Clavicle" 0
27 "ValveBiped.Bip01_R_UpperArm" 26
28 "ValveBiped.Bip01_R_Forearm" 27
29 "ValveBiped.Bip01_R_Hand" 28
30 "ValveBiped.Bip01_R_Finger4" 29
31 "ValveBiped.Bip01_R_Finger41" 30
32 "ValveBiped.Bip01_R_Finger42" 31
33 "ValveBiped.Bip01_R_Finger3" 29
34 "ValveBiped.Bip01_R_Finger31" 33
35 "ValveBiped.Bip01_R_Finger32" 34
36 "ValveBiped.Bip01_R_Finger2" 29
37 "ValveBiped.Bip01_R_Finger21" 36
38 "ValveBiped.Bip01_R_Finger22" 37
39 "ValveBiped.Bip01_R_Finger1" 29
40 "ValveBiped.Bip01_R_Finger11" 39
41 "ValveBiped.Bip01_R_Finger12" 40
42 "ValveBiped.Bip01_R_Finger0" 29
43 "ValveBiped.Bip01_R_Finger01" 42
44 "ValveBiped.Bip01_R_Finger02" 43
45 "ValveBiped.Bip01_R_Ulna" 28
46 "ValveBiped.Bip01_R_Wrist" 28
47 "rig_r_upperarm" 26
48 "rig_r_forearm" 47
49 "rig_d_r_forearm" 48
50 "rig_d_r_upperarm" 47
51 "rig_r_hand" -1
52 "rig_d_r_hand" 51
53 "rig_d_r_wrist" 52
54 "rig_l_hand" -1
55 "rig_d_l_hand" 54
56 "rig_d_l_wrist" 54
57 "rig_l_pole" -1
58 "rig_r_pole" -1
59 "rig_l_clavicle" -1
60 "rig_d_l_clavicle" 59
61 "rig_r_clavicle" -1
62 "rig_d_r_clavicle" 61
63 "Camera" -1
64 "body" -1
65 "trigger" 64
66 "bullet1" 64
67 "slide" 64
68 "hammer" 64
69 "sliderelease" 64
70 "barrel" 64
71 "slidesg" 64
72 "grip_safety" 64
73 "safety" 64
74 "magrelease" 64
75 "sg_round" -1
76 "mag" -1
77 "bullet2" 76
78 "bullet3" 76
79 "bullet4" 78
80 "bullet5" 78
81 "bullet6" 78
82 "bullet7" 78
83 "bullet8" 78
84 "bullet9" 78
85 "bullet10" 78
86 "springstart" 76
87 "springend" 86
88 "sg_shell" -1
end
skeleton
time 0
0  0.000006 0.000000 0.000000  -1.570800 -1.391899 -1.570792
1  -10.134789 -9.257131 1.937670  -1.544956 -1.855077 -0.198630
2  6.027516 -0.000325 0.000194  -1.449321 -0.802674 -0.498679
3  11.692108 0.000642 -0.000736  -0.990428 -0.000019 -1.400012
4  11.479868 0.000299 -0.000876  2.322437 -0.520596 0.224115
5  3.859503 -0.142823 -1.192080  -0.507282 0.149597 -0.281244
6  1.312589 0.000009 0.000010  -0.000027 0.000044 -0.439740
7  0.729355 0.000056 0.000049  0.000017 0.000021 -0.244317
8  3.942141 0.046331 -0.431543  -0.190633 0.074004 -0.209061
9  1.539110 0.000084 0.000003  -0.000007 0.000021 -0.247842
10  1.196334 0.000146 0.000029  0.000011 0.000018 -0.430770
11  3.883511 -0.047211 0.431351  0.048312 0.031230 0.015973
12  1.719573 -0.000029 0.000016  0.000015 0.005518 -0.366533
13  1.209179 0.000089 0.000013  0.000004 0.003091 -0.216438
14  3.859676 -0.138417 1.332379  0.317471 -0.031208 0.074463
15  1.719448 -0.000019 0.000027  0.000028 0.004066 -0.363025
16  1.099675 0.000048 0.000006  0.000003 0.002578 -0.244381
17  0.806012 -0.349037 1.321247  -1.364234 -0.783084 -0.587689
18  1.789819 -0.000004 -0.000017  0.000011 -0.000024 0.228523
19  1.207014 -0.000014 -0.000043  0.154674 -0.097246 -0.180183
20  5.740636 0.000387 -0.000700  0.139705 0.000003 0.000064
21  11.480984 0.000231 -0.000829  0.155468 -0.064982 0.074429
22  6.027524 -0.000329 0.000202  2.151900 -0.534740 1.731955
23  -0.000001 11.692098 -0.000006  -0.969887 -0.421664 -0.771548
24  0.000004 0.000008 -0.000001  -0.121332 -0.000031 1.570739
25  -0.000000 -0.000012 0.000001  0.868960 0.000002 1.570712
26  -6.899342 -10.734701 0.826813  1.473120 1.855075 -0.198639
27  6.027517 -0.000261 -0.000217  1.199623 1.213335 -0.973252
28  11.691992 0.000162 0.000860  0.139882 0.000011 -0.871378
29  11.480660 0.000095 0.000816  -1.949883 -0.291207 0.590768
30  3.710774 -0.434235 1.096848  0.974897 -0.111756 -2.079603
31  1.312560 0.000032 -0.000001  0.008191 -0.088214 -0.285514
32  0.729348 0.000065 -0.000027  -0.132450 -0.134191 -1.087309
33  3.820805 -0.154609 0.327899  0.610805 -0.300364 -1.640271
34  1.539094 0.000004 -0.000002  0.047162 -0.047589 -0.892209
35  1.196301 0.000081 -0.000003  -0.021079 -0.009374 -1.253100
36  3.882445 -0.171892 -0.416804  0.406628 -0.376223 -1.253560
37  1.719566 -0.000083 -0.000005  0.018695 -0.082922 -1.374417
38  1.209194 0.000033 0.000011  0.003361 -0.003782 -0.857658
39  3.859583 -0.149082 -1.331323  0.052683 -0.238405 -0.449221
40  1.719413 -0.000096 -0.000037  0.031466 0.001818 -1.126077
41  1.099673 0.000023 0.000006  -0.005117 -0.008160 -0.712530
42  0.805981 -0.359848 -1.318339  0.758399 0.278078 -0.845623
43  1.789780 -0.000008 -0.000043  0.000124 0.001449 0.042061
44  1.206997 -0.000006 0.000006  -0.000069 -0.000063 1.006530
45  5.740573 0.000080 0.000721  -0.056239 -0.000014 0.000028
46  11.481077 0.000093 0.000908  -0.054275 -0.097229 0.100718
47  6.027515 -0.000273 -0.000229  -1.394345 -0.312560 -1.498909
48  -0.000001 11.691974 -0.000007  -0.635520 0.176566 0.525707
49  0.000002 -0.000000 0.000000  2.412441 -0.000036 1.570860
50  -0.000007 -0.000013 0.000005  2.272645 -0.000036 1.570861
51  -1.054362 -8.824656 -8.139513  2.310573 0.374756 -1.138984
52  -0.000000 0.000000 -0.000000  0.008153 -0.000259 0.000009
53  -0.000001 -0.000000 -0.000001  1.565115 0.043565 -0.106862
54  7.622233 -6.723892 -12.067600  0.658210 -0.069046 -1.623597
55  -0.000001 -0.000001 0.000001  0.000000 -0.000001 -0.000002
56  0.000030 0.000029 0.000002  -1.571902 -0.044449 -0.106509
57  12.000549 -19.544212 -17.246658  1.570796 -0.000000 0.000000
58  -15.417984 4.000748 -22.641926  1.570796 -0.000000 0.000000
59  1.941978 10.912449 -8.327020  1.570796 -0.000000 0.000000
60  -0.004311 0.001229 -0.000372  0.006898 -0.005534 -0.284229
61  0.826810 11.791080 -4.879054  1.570796 -0.000000 0.000000
62  0.000000 0.000000 0.000000  -0.078727 -3.136056 0.284226
63  0.000000 0.000000 0.000000  1.570796 -0.000000 0.000000
64  1.369528 -10.170408 -9.203614  2.430019 0.394598 0.980587
65  -0.008021 0.449003 2.449479  0.000000 0.000000 0.000000
66  -0.008020 1.798498 0.936339  0.000000 0.000000 0.000000
67  0.000001 2.151126 2.901128  0.000000 0.000000 0.000000
68  -0.008021 1.347419 0.085286  -1.051149 0.001216 0.000412
69  0.230628 1.332311 3.105305  0.000000 0.000000 0.000000
70  -0.008021 2.172906 7.984053  0.000000 0.000000 0.000000
71  -0.008020 1.228064 5.810777  0.000000 0.000000 0.000000
72  -0.008021 1.115505 -0.313081  0.000000 0.000000 0.000000
73  -0.008022 1.345870 0.084164  1.570796 -0.000000 -0.000000
74  -0.008022 0.197513 1.902821  0.000000 0.000000 0.000000
75  3.754683 -11.793191 -9.232759  2.430019 0.394598 0.980587
76  3.146626 -11.026834 -8.537310  2.430019 0.394598 0.980587
77  -0.008021 -0.653744 0.060181  0.000000 0.000000 0.000000
78  -0.008021 -1.155511 -0.087181  0.000000 0.000000 0.000000
79  0.000001 -0.501766 -0.147366  0.000000 0.000000 0.000000
80  0.000000 -1.003531 -0.294729  0.000000 0.000000 0.000000
81  -0.000000 -1.505296 -0.442090  0.000000 0.000000 0.000000
82  0.000000 -2.007061 -0.589453  0.000000 0.000000 0.000000
83  -0.000000 -2.508827 -0.736814  0.000000 0.000000 0.000000
84  0.000001 -2.772560 -0.939009  0.000000 0.000000 0.000000
85  0.000000 -3.071457 -1.220325  0.000000 0.000000 0.000000
86  -0.283371 -4.518086 -0.534135  0.346743 -0.000000 -0.000000
87  0.000001 0.993480 -0.063565  -0.012322 0.000000 -0.000000
88  3.754683 -11.793191 -9.232759  2.430019 0.394598 0.980587
time 1
0  0.000006 0.000000 0.000000  -1.570800 -1.391899 -1.570792
1  -10.134789 -9.257131 1.937670  -1.544956 -1.855077 -0.198630
2  6.027518 -0.000325 0.000193  -1.486146 -0.929820 -0.606206
3  11.692110 0.000645 -0.000737  -0.990417 -0.000008 -1.186772
4  11.480276 0.000455 -0.000639  2.450054 -0.225415 0.196276
5  3.859504 -0.142823 -1.192079  -0.507282 0.149597 -0.281245
6  1.312589 0.000010 0.000009  -0.000027 0.000044 -0.439740
7  0.729356 0.000054 0.000051  0.000017 0.000021 -0.244318
8  3.942140 0.046331 -0.431543  -0.190633 0.074004 -0.209061
9  1.539111 0.000084 0.000007  -0.000007 0.000021 -0.247842
10  1.196333 0.000146 0.000031  0.000011 0.000018 -0.430770
11  3.883510 -0.047212 0.431350  0.048312 0.031230 0.015973
12  1.719573 -0.000028 0.000017  0.000015 0.005518 -0.366533
13  1.209179 0.000090 0.000011  0.000004 0.003091 -0.216438
14  3.859678 -0.138418 1.332379  0.317471 -0.031208 0.074463
15  1.719447 -0.000018 0.000028  0.000028 0.004066 -0.363025
16  1.099675 0.000049 0.000006  0.000003 0.002578 -0.244381
17  0.806011 -0.349038 1.321247  -1.364234 -0.783084 -0.587689
18  1.789820 -0.000002 -0.000019  0.000011 -0.000024 0.228523
19  1.207014 -0.000013 -0.000043  0.154674 -0.097246 -0.180183
20  5.740637 0.000390 -0.000699  0.180562 0.000003 0.000064
21  11.481068 0.000265 -0.000782  0.179063 -0.006137 0.055837
22  6.027524 -0.000329 0.000202  2.055808 -0.437153 1.641274
23  -0.000000 11.692100 -0.000004  -0.839548 -0.313469 -0.680540
24  0.000004 0.000008 0.000000  -0.121332 -0.000031 1.570738
25  -0.000000 -0.000011 0.000001  0.868960 0.000002 1.570712
26  -6.899342 -10.734701 0.826813  1.473120 1.855075 -0.198639
27  6.027517 -0.000261 -0.000217  1.280014 1.170535 -0.899694
28  11.691993 0.000160 0.000860  0.139887 0.000015 -0.970109
29  11.480683 0.000079 0.000820  -1.828139 -0.086432 0.666107
30  3.710776 -0.434235 1.096848  0.974897 -0.111756 -2.079603
31  1.312560 0.000030 -0.000000  0.008191 -0.088214 -0.285514
32  0.729346 0.000065 -0.000027  -0.132450 -0.134191 -1.087309
33  3.820806 -0.154609 0.327899  0.610805 -0.300364 -1.640271
34  1.539095 0.000004 -0.000001  0.047162 -0.047589 -0.892209
35  1.196303 0.000080 -0.000004  -0.021079 -0.009374 -1.253100
36  3.882446 -0.171893 -0.416805  0.406628 -0.376223 -1.253560
37  1.719567 -0.000082 -0.000004  0.018695 -0.082922 -1.374417
38  1.209193 0.000033 0.000011  0.003361 -0.003782 -0.857658
39  3.859584 -0.149082 -1.331322  0.052683 -0.238405 -0.449221
40  1.719413 -0.000097 -0.000038  0.031466 0.001819 -1.126076
41  1.099672 0.000021 0.000007  -0.005117 -0.008160 -0.712530
42  0.805983 -0.359847 -1.318339  0.758399 0.278078 -0.845623
43  1.789780 -0.000009 -0.000043  0.000124 0.001449 0.042061
44  1.206997 -0.000007 0.000006  -0.000069 -0.000063 1.006530
45  5.740573 0.000078 0.000722  -0.032073 -0.000014 0.000028
46  11.481082 0.000090 0.000909  -0.039987 -0.052878 0.123501
47  6.027515 -0.000273 -0.000229  -1.343600 -0.332477 -1.516151
48  -0.000001 11.691976 -0.000007  -0.700993 0.216060 0.576701
49  0.000002 0.000000 0.000000  2.412441 -0.000036 1.570860
50  -0.000008 -0.000013 0.000006  2.272645 -0.000036 1.570861
51  -1.409347 -8.387861 -7.914726  2.370371 0.297057 -1.351551
52  0.000001 0.000001 -0.000001  0.008153 -0.000259 0.000009
53  0.000000 0.000000 -0.000001  1.565115 0.043565 -0.106862
54  7.552577 -8.273021 -11.506847  0.676641 -0.119911 -1.813854
55  0.000000 -0.000001 0.000002  0.000000 -0.000001 -0.000002
56  0.000030 0.000029 0.000003  -1.571901 -0.044449 -0.106509
57  12.000549 -19.544212 -17.246658  1.570796 -0.000000 0.000000
58  -15.417984 4.000748 -22.641926  1.570796 -0.000000 0.000000
59  1.941978 10.912449 -8.327020  1.570796 -0.000000 0.000000
60  -0.004311 0.001229 -0.000372  0.006898 -0.005534 -0.284229
61  0.826810 11.791080 -4.879054  1.570796 -0.000000 0.000000
62  0.000000 0.000000 0.000000  -0.078727 -3.136056 0.284226
63  0.000000 0.000000 0.000000  1.570968 0.000590 0.000014
64  0.705969 -10.315191 -8.708097  2.326831 0.384113 0.709089
65  -0.008021 0.449004 2.449477  0.000000 -0.000000 0.000000
66  -0.008021 1.798499 0.936337  0.000000 -0.000000 0.000000
67  0.000001 2.151127 2.901126  0.000000 -0.000000 0.000000
68  -0.008023 1.347419 0.085284  -1.051149 0.001216 0.000412
69  0.230628 1.332312 3.105303  0.000000 -0.000000 0.000000
70  -0.008023 2.172906 7.984049  0.000000 -0.000000 0.000000
71  -0.008022 1.228065 5.810775  0.000000 -0.000000 0.000000
72  -0.008022 1.115505 -0.313083  0.000000 -0.000000 0.000000
73  -0.008022 1.345870 0.084163  1.570796 0.000000 -0.000000
74  -0.008022 0.197513 1.902818  0.000000 -0.000000 0.000000
75  2.645713 -12.436503 -8.461793  2.326831 0.384113 0.709089
76  2.183937 -11.508917 -7.855961  2.326831 0.384113 0.709089
77  -0.008021 -0.653745 0.060182  0.000000 -0.000000 0.000000
78  -0.008021 -1.155511 -0.087180  0.000000 -0.000000 0.000000
79  -0.000000 -0.501766 -0.147368  0.000000 -0.000000 0.000000
80  -0.000000 -1.003531 -0.294728  0.000000 -0.000000 0.000000
81  -0.000000 -1.505297 -0.442091  0.000000 -0.000000 0.000000
82  0.000001 -2.007061 -0.589455  0.000000 -0.000000 0.000000
83  -0.000000 -2.508827 -0.736815  0.000000 -0.000000 0.000000
84  0.000000 -2.772560 -0.939011  0.000000 -0.000000 0.000000
85  -0.000000 -3.071457 -1.220325  0.000000 -0.000000 0.000000
86  -0.283371 -4.518087 -0.534134  0.346743 -0.000000 -0.000000
87  -0.000000 0.993480 -0.063563  -0.012321 0.000000 0.000000
88  2.645713 -12.436503 -8.461793  2.326831 0.384113 0.709089
time 2
0  0.000006 0.000000 0.000000  -1.570800 -1.391899 -1.570792
1  -10.134789 -9.257131 1.937670  -1.544956 -1.855077 -0.198630
2  6.027520 -0.000326 0.000192  -1.363909 -1.130395 -0.586925
3  11.692112 0.000645 -0.000738  -0.990400 0.000003 -0.900996
4  11.480612 0.000579 -0.000447  2.173434 -0.067331 -0.025123
5  3.859503 -0.142824 -1.192079  -0.507282 0.149597 -0.281245
6  1.312591 0.000009 0.000007  -0.000027 0.000044 -0.439740
7  0.729355 0.000053 0.000048  0.000017 0.000021 -0.244317
8  3.942140 0.046331 -0.431543  -0.190633 0.074004 -0.209061
9  1.539108 0.000082 0.000004  -0.000007 0.000021 -0.247842
10  1.196332 0.000146 0.000027  0.000011 0.000018 -0.430770
11  3.883510 -0.047212 0.431351  0.048312 0.031230 0.015973
12  1.719573 -0.000028 0.000016  0.000015 0.005518 -0.366533
13  1.209180 0.000090 0.000013  0.000004 0.003091 -0.216438
14  3.859676 -0.138418 1.332380  0.317471 -0.031208 0.074463
15  1.719448 -0.000019 0.000027  0.000028 0.004066 -0.363025
16  1.099676 0.000048 0.000005  0.000003 0.002578 -0.244381
17  0.806011 -0.349038 1.321248  -1.364234 -0.783084 -0.587689
18  1.789819 -0.000004 -0.000018  0.000011 -0.000024 0.228523
19  1.207016 -0.000014 -0.000043  0.154674 -0.097246 -0.180183
20  5.740635 0.000389 -0.000698  0.125745 0.000003 0.000063
21  11.481134 0.000289 -0.000744  0.123715 0.009139 -0.003659
22  6.027524 -0.000329 0.000202  1.852801 -0.342995 1.843426
23  0.000001 11.692101 -0.000007  -0.655372 -0.188100 -0.541228
24  0.000003 0.000009 0.000001  -0.121332 -0.000030 1.570738
25  0.000001 -0.000010 0.000000  0.868960 0.000002 1.570712
26  -6.899342 -10.734701 0.826813  1.473120 1.855075 -0.198639
27  6.027516 -0.000261 -0.000217  1.399584 1.149715 -0.806860
28  11.691992 0.000161 0.000858  0.139891 0.000019 -1.046074
29  11.480331 -0.000072 0.000839  -1.772068 0.157615 0.732372
30  3.710775 -0.434234 1.096848  0.974897 -0.111756 -2.079603
31  1.312560 0.000030 -0.000002  0.008191 -0.088214 -0.285514
32  0.729348 0.000065 -0.000029  -0.132450 -0.134191 -1.087309
33  3.820807 -0.154608 0.327899  0.610805 -0.300364 -1.640271
34  1.539095 0.000004 -0.000002  0.047162 -0.047589 -0.892209
35  1.196301 0.000079 -0.000003  -0.021079 -0.009374 -1.253100
36  3.882446 -0.171892 -0.416804  0.406628 -0.376223 -1.253560
37  1.719565 -0.000083 -0.000005  0.018695 -0.082922 -1.374417
38  1.209194 0.000035 0.000011  0.003361 -0.003782 -0.857658
39  3.859585 -0.149081 -1.331322  0.052683 -0.238405 -0.449221
40  1.719413 -0.000096 -0.000037  0.031466 0.001819 -1.126076
41  1.099672 0.000022 0.000006  -0.005117 -0.008160 -0.712530
42  0.805983 -0.359847 -1.318338  0.758399 0.278078 -0.845623
43  1.789780 -0.000008 -0.000042  0.000124 0.001449 0.042061
44  1.206996 -0.000007 0.000005  -0.000069 -0.000063 1.006530
45  5.740574 0.000080 0.000721  -0.019276 -0.000014 0.000028
46  11.481012 0.000060 0.000913  -0.043060 -0.003297 0.141264
47  6.027515 -0.000273 -0.000229  -1.290646 -0.318646 -1.549913
48  -0.000001 11.691974 -0.000008  -0.750336 0.248606 0.614394
49  0.000003 0.000000 -0.000000  2.412441 -0.000036 1.570860
50  -0.000008 -0.000014 0.000005  2.272645 -0.000036 1.570861
51  -2.077533 -8.098318 -7.223445  2.385655 0.168189 -1.606449
52  -0.000001 0.000000 -0.000000  0.008153 -0.000259 0.000009
53  0.000001 0.000000 0.000000  1.565115 0.043565 -0.106862
54  6.193193 -9.882074 -11.355749  0.508077 -0.241353 -1.929088
55  0.000000 -0.000000 0.000001  0.000000 -0.000001 -0.000002
56  0.000030 0.000029 0.000002  -1.571901 -0.044449 -0.106509
57  12.000549 -19.544212 -17.246658  1.570796 -0.000000 0.000000
58  -15.417984 4.000748 -22.641926  1.570796 -0.000000 0.000000
59  1.941978 10.912449 -8.327020  1.570796 -0.000000 0.000000
60  -0.004311 0.001229 -0.000372  0.006898 -0.005534 -0.284229
61  0.826810 11.791080 -4.879054  1.570796 -0.000000 0.000000
62  0.000000 0.000000 0.000000  -0.078727 -3.136056 0.284226
63  0.000000 0.000000 0.000000  1.571140 0.001686 0.000051
64  -0.518697 -10.583477 -7.684556  2.194022 0.428276 0.398108
65  -0.008021 0.449003 2.449477  0.000000 -0.000000 0.000000
66  -0.008021 1.798499 0.936338  0.000000 -0.000000 0.000000
67  0.000000 2.151128 2.901127  0.000000 -0.000000 0.000000
68  -0.008023 1.347420 0.085285  -1.051149 0.001216 0.000412
69  0.230628 1.332312 3.105304  0.000000 -0.000000 0.000000
70  -0.008024 2.172907 7.984053  0.000000 -0.000000 0.000000
71  -0.008021 1.228066 5.810776  0.000000 -0.000000 0.000000
72  -0.008022 1.115505 -0.313081  0.000000 -0.000000 0.000000
73  -0.008022 1.345870 0.084164  1.570796 0.000000 -0.000000
74  -0.008022 0.197514 1.902819  0.000000 -0.000000 0.000000
75  0.810318 -13.076171 -7.098525  2.194022 0.428276 0.398108
76  0.595528 -11.991851 -6.630759  2.194022 0.428276 0.398108
77  -0.008022 -0.653744 0.060182  0.000000 -0.000000 0.000000
78  -0.008021 -1.155510 -0.087180  0.000000 -0.000000 0.000000
79  0.000000 -0.501765 -0.147366  0.000000 -0.000000 0.000000
80  -0.000000 -1.003530 -0.294727  0.000000 -0.000000 0.000000
81  -0.000000 -1.505296 -0.442090  0.000000 -0.000000 0.000000
82  0.000000 -2.007060 -0.589454  0.000000 -0.000000 0.000000
83  -0.000000 -2.508826 -0.736814  0.000000 -0.000000 0.000000
84  -0.000000 -2.772559 -0.939009  0.000000 -0.000000 0.000000
85  -0.000000 -3.071456 -1.220325  0.000000 -0.000000 0.000000
86  -0.283371 -4.518086 -0.534133  0.346743 -0.000000 -0.000000
87  0.000000 0.993481 -0.063564  -0.012322 0.000000 0.000000
88  0.810318 -13.076171 -7.098525  2.194022 0.428276 0.398108
time 3
0  0.000006 0.000000 0.000000  -1.570800 -1.391899 -1.570792
1  -10.134789 -9.257131 1.937670  -1.544956 -1.855077 -0.198630
2  6.027520 -0.000327 0.000192  -1.249828 -1.210310 -0.608065
3  11.692114 0.000647 -0.000735  -0.990396 0.000004 -0.851248
4  11.480830 0.000626 -0.000378  1.858468 -0.237002 -0.096110
5  3.859504 -0.142823 -1.192080  -0.507282 0.149597 -0.281244
6  1.312588 0.000011 0.000008  -0.000027 0.000044 -0.439740
7  0.729356 0.000055 0.000049  0.000017 0.000021 -0.244317
8  3.942140 0.046331 -0.431544  -0.190633 0.074004 -0.209061
9  1.539110 0.000083 0.000004  -0.000007 0.000021 -0.247842
10  1.196331 0.000144 0.000027  0.000011 0.000018 -0.430770
11  3.883512 -0.047212 0.431350  0.048312 0.031230 0.015973
12  1.719572 -0.000029 0.000016  0.000015 0.005518 -0.366533
13  1.209179 0.000089 0.000012  0.000004 0.003091 -0.216438
14  3.859677 -0.138418 1.332378  0.317471 -0.031208 0.074463
15  1.719448 -0.000019 0.000028  0.000028 0.004066 -0.363025
16  1.099674 0.000048 0.000006  0.000003 0.002578 -0.244381
17  0.806011 -0.349038 1.321246  -1.364234 -0.783084 -0.587689
18  1.789820 -0.000004 -0.000017  0.000011 -0.000024 0.228523
19  1.207014 -0.000013 -0.000044  0.154674 -0.097246 -0.180183
20  5.740636 0.000388 -0.000699  0.054506 0.000003 0.000063
21  11.481176 0.000299 -0.000729  0.060070 -0.026630 -0.020055
22  6.027524 -0.000329 0.000202  1.764721 -0.305908 1.955544
23  -0.000002 11.692100 -0.000005  -0.622028 -0.168955 -0.515029
24  0.000004 0.000008 -0.000001  -0.121333 -0.000031 1.570739
25  -0.000002 -0.000010 0.000000  0.868960 0.000002 1.570712
26  -6.899342 -10.734701 0.826813  1.473120 1.855075 -0.198639
27  6.027516 -0.000262 -0.000217  1.509016 1.156364 -0.727562
28  11.691990 0.000163 0.000859  0.139892 0.000019 -1.053546
29  11.480300 -0.000084 0.000840  -1.743297 0.219913 0.694021
30  3.710775 -0.434235 1.096850  0.974897 -0.111756 -2.079603
31  1.312561 0.000031 -0.000001  0.008191 -0.088214 -0.285514
32  0.729347 0.000065 -0.000027  -0.132450 -0.134191 -1.087309
33  3.820806 -0.154609 0.327901  0.610805 -0.300364 -1.640271
34  1.539094 0.000003 -0.000002  0.047162 -0.047589 -0.892209
35  1.196304 0.000079 -0.000003  -0.021079 -0.009374 -1.253100
36  3.882446 -0.171893 -0.416803  0.406628 -0.376223 -1.253559
37  1.719567 -0.000084 -0.000005  0.018695 -0.082922 -1.374417
38  1.209194 0.000033 0.000011  0.003361 -0.003782 -0.857658
39  3.859583 -0.149082 -1.331320  0.052683 -0.238405 -0.449221
40  1.719412 -0.000097 -0.000036  0.031466 0.001819 -1.126076
41  1.099673 0.000023 0.000007  -0.005117 -0.008160 -0.712530
42  0.805982 -0.359848 -1.318337  0.758399 0.278078 -0.845623
43  1.789779 -0.000008 -0.000042  0.000124 0.001449 0.042061
44  1.206996 -0.000006 0.000006  -0.000069 -0.000063 1.006530
45  5.740573 0.000080 0.000721  -0.011631 -0.000014 0.000028
46  11.481004 0.000057 0.000913  -0.041095 0.011242 0.133673
47  6.027515 -0.000273 -0.000229  -1.263156 -0.282257 -1.578791
48  -0.000001 11.691973 -0.000008  -0.755143 0.251904 0.618028
49  0.000004 -0.000001 -0.000000  2.412441 -0.000036 1.570860
50  -0.000008 -0.000013 0.000004  2.272645 -0.000036 1.570861
51  -2.763872 -8.152894 -6.572583  2.439500 0.072156 -1.670872
52  -0.000001 0.000000 0.000000  0.008153 -0.000259 0.000009
53  -0.000000 -0.000000 0.000001  1.565115 0.043565 -0.106862
54  4.902059 -10.005826 -11.153155  0.225296 -0.276066 -1.816945
55  -0.000000 -0.000000 0.000001  0.000000 -0.000001 -0.000002
56  0.000030 0.000028 0.000001  -1.571901 -0.044449 -0.106509
57  12.000549 -19.544212 -17.246658  1.570796 -0.000000 0.000000
58  -15.417984 4.000748 -22.641926  1.570796 -0.000000 0.000000
59  1.941978 10.912449 -8.327020  1.570796 -0.000000 0.000000
60  -0.004311 0.001229 -0.000372  0.006898 -0.005534 -0.284229
61  0.826810 11.791080 -4.879054  1.570796 -0.000000 0.000000
62  0.000000 0.000000 0.000000  -0.078727 -3.136056 0.284226
63  0.000000 0.000000 0.000000  1.570024 0.002276 0.000102
64  -1.371994 -10.772494 -6.710311  2.074139 0.417041 0.277997
65  -0.008022 0.449004 2.449478  -0.000000 0.000000 -0.000000
66  -0.008021 1.798499 0.936338  -0.000000 0.000000 -0.000000
67  0.000001 2.151127 2.901127  -0.000000 0.000000 -0.000000
68  -0.008023 1.347420 0.085286  -1.051149 0.001216 0.000412
69  0.230627 1.332312 3.105306  -0.000000 0.000000 -0.000000
70  -0.008024 2.172908 7.984052  -0.000000 0.000000 -0.000000
71  -0.008022 1.228065 5.810777  -0.000000 0.000000 -0.000000
72  -0.008023 1.115505 -0.313081  -0.000000 0.000000 -0.000000
73  -0.008022 1.345870 0.084163  1.570796 0.000000 -0.000000
74  -0.008022 0.197513 1.902819  -0.000000 0.000000 -0.000000
75  -0.254898 -13.278320 -5.818026  2.074139 0.417041 0.277997
76  -0.410034 -12.140245 -5.469588  2.074139 0.417041 0.277997
77  -0.008022 -0.653744 0.060182  -0.000000 0.000000 -0.000000
78  -0.008022 -1.155510 -0.087180  -0.000000 0.000000 -0.000000
79  0.000000 -0.501765 -0.147367  -0.000000 0.000000 -0.000000
80  -0.000000 -1.003530 -0.294729  -0.000000 0.000000 -0.000000
81  -0.000000 -1.505297 -0.442090  -0.000000 0.000000 -0.000000
82  0.000000 -2.007061 -0.589454  -0.000000 0.000000 -0.000000
83  -0.000000 -2.508826 -0.736815  -0.000000 0.000000 -0.000000
84  -0.000000 -2.772560 -0.939011  -0.000000 0.000000 -0.000000
85  0.000000 -3.071456 -1.220325  -0.000000 0.000000 -0.000000
86  -0.283371 -4.518087 -0.534134  0.346742 -0.000000 -0.000000
87  0.000001 0.993480 -0.063565  -0.012322 0.000000 -0.000000
88  -0.254898 -13.278320 -5.818026  2.074139 0.417041 0.277997
time 4
0  0.000006 0.000000 0.000000  -1.570800 -1.391899 -1.570792
1  -10.134789 -9.257131 1.937670  -1.544956 -1.855077 -0.198630
2  6.027521 -0.000327 0.000192  -1.162233 -1.264559 -0.664105
3  11.692114 0.000647 -0.000737  -0.990396 0.000004 -0.842723
4  11.480871 0.000634 -0.000366  1.587891 -0.418075 -0.080235
5  3.859502 -0.142823 -1.192080  -0.507282 0.149597 -0.281245
6  1.312591 0.000009 0.000008  -0.000027 0.000044 -0.439740
7  0.729357 0.000055 0.000049  0.000017 0.000021 -0.244318
8  3.942139 0.046331 -0.431542  -0.190633 0.074004 -0.209061
9  1.539111 0.000083 0.000004  -0.000007 0.000021 -0.247842
10  1.196333 0.000146 0.000029  0.000011 0.000018 -0.430770
11  3.883508 -0.047212 0.431350  0.048312 0.031230 0.015973
12  1.719573 -0.000029 0.000017  0.000015 0.005518 -0.366533
13  1.209179 0.000090 0.000012  0.000004 0.003091 -0.216438
14  3.859675 -0.138418 1.332380  0.317471 -0.031208 0.074463
15  1.719448 -0.000019 0.000030  0.000028 0.004066 -0.363025
16  1.099675 0.000049 0.000006  0.000003 0.002578 -0.244381
17  0.806010 -0.349038 1.321247  -1.364234 -0.783084 -0.587689
18  1.789819 -0.000002 -0.000017  0.000011 -0.000024 0.228523
19  1.207015 -0.000014 -0.000044  0.154674 -0.097246 -0.180183
20  5.740637 0.000388 -0.000699  -0.006809 0.000003 0.000063
21  11.481184 0.000301 -0.000725  0.006742 -0.062158 -0.025288
22  6.027524 -0.000329 0.000202  1.710370 -0.273562 1.997847
23  0.000002 11.692099 -0.000006  -0.616274 -0.165761 -0.510484
24  0.000003 0.000009 -0.000001  -0.121333 -0.000031 1.570739
25  0.000002 -0.000011 -0.000001  0.868960 0.000002 1.570712
26  -6.899342 -10.734701 0.826813  1.473120 1.855075 -0.198639
27  6.027516 -0.000262 -0.000217  1.589255 1.171671 -0.668713
28  11.691989 0.000161 0.000859  0.139891 0.000019 -1.041266
29  11.480347 -0.000062 0.000838  -1.741480 0.222734 0.608824
30  3.710774 -0.434235 1.096849  0.974897 -0.111756 -2.079603
31  1.312560 0.000032 0.000000  0.008191 -0.088214 -0.285514
32  0.729347 0.000067 -0.000028  -0.132450 -0.134191 -1.087309
33  3.820805 -0.154609 0.327900  0.610805 -0.300364 -1.640271
34  1.539094 0.000004 -0.000002  0.047162 -0.047589 -0.892209
35  1.196304 0.000078 -0.000003  -0.021079 -0.009374 -1.253100
36  3.882446 -0.171892 -0.416804  0.406628 -0.376223 -1.253560
37  1.719566 -0.000082 -0.000004  0.018695 -0.082922 -1.374417
38  1.209193 0.000033 0.000011  0.003361 -0.003782 -0.857658
39  3.859584 -0.149081 -1.331322  0.052683 -0.238405 -0.449221
40  1.719412 -0.000097 -0.000038  0.031466 0.001819 -1.126076
41  1.099672 0.000022 0.000008  -0.005117 -0.008160 -0.712530
42  0.805981 -0.359847 -1.318338  0.712414 0.329425 -0.918834
43  1.789780 -0.000008 -0.000042  0.000112 0.001105 0.087083
44  1.206996 -0.000007 0.000005  0.002850 0.009742 0.887812
45  5.740572 0.000078 0.000721  -0.011162 -0.000014 0.000028
46  11.481013 0.000061 0.000913  -0.040301 0.013230 0.116651
47  6.027515 -0.000273 -0.000229  -1.254742 -0.247973 -1.595847
48  0.000001 11.691974 -0.000007  -0.747240 0.246493 0.612050
49  0.000004 0.000000 -0.000000  2.412441 -0.000036 1.570860
50  -0.000007 -0.000014 0.000005  2.272645 -0.000036 1.570861
51  -3.208405 -8.261503 -6.045623  2.476229 -0.020543 -1.658775
52  -0.000001 -0.000000 -0.000000  0.008153 -0.000259 0.000009
53  -0.000000 0.000000 0.000000  1.565115 0.043565 -0.106862
54  3.832056 -9.892693 -10.751183  -0.058025 -0.264690 -1.687749
55  -0.000000 -0.000001 -0.000001  0.000000 -0.000001 -0.000002
56  0.000029 0.000028 0.000000  -1.571901 -0.044449 -0.106509
57  12.000549 -19.544212 -17.246658  1.570796 -0.000000 0.000000
58  -15.417984 4.000748 -22.641926  1.570796 -0.000000 0.000000
59  1.941978 10.912449 -8.327020  1.570796 -0.000000 0.000000
60  -0.004311 0.001229 -0.000372  0.006898 -0.005534 -0.284229
61  0.826810 11.791080 -4.879054  1.570796 -0.000000 0.000000
62  0.000000 0.000000 0.000000  -0.078727 -3.136056 0.284226
63  0.000000 0.000000 0.000000  1.568907 -0.000302 0.000164
64  -1.787609 -10.864757 -5.893932  1.965161 0.414873 0.245074
65  -0.008022 0.449004 2.449478  -0.000000 -0.000000 0.000000
66  -0.008021 1.798499 0.936336  -0.000000 -0.000000 0.000000
67  0.000000 2.151127 2.901128  -0.000000 -0.000000 0.000000
68  -0.008023 1.347420 0.085285  -1.051149 0.001216 0.000412
69  0.230627 1.332313 3.105306  -0.000000 -0.000000 0.000000
70  -0.008024 2.172907 7.984050  -0.000000 -0.000000 0.000000
71  -0.008022 1.228065 5.810775  -0.000000 -0.000000 0.000000
72  -0.008022 1.115505 -0.313082  -0.000000 -0.000000 0.000000
73  -0.008023 1.345870 0.084164  1.570796 -0.000000 -0.000000
74  -0.008023 0.197514 1.902820  -0.000000 -0.000000 0.000000
75  -0.671789 -13.259908 -4.735730  1.965161 0.414873 0.245074
76  -0.847872 -12.095801 -4.502197  1.965161 0.414873 0.245074
77  -0.008021 -0.653745 0.060181  -0.000000 -0.000000 0.000000
78  -0.008021 -1.155510 -0.087179  -0.000000 -0.000000 0.000000
79  0.000000 -0.501766 -0.147365  -0.000000 -0.000000 0.000000
80  0.000000 -1.003531 -0.294728  -0.000000 -0.000000 0.000000
81  0.000001 -1.505297 -0.442090  -0.000000 -0.000000 0.000000
82  0.000000 -2.007061 -0.589453  -0.000000 -0.000000 0.000000
83  0.000000 -2.508827 -0.736815  -0.000000 -0.000000 0.000000
84  0.000000 -2.772560 -0.939009  -0.000000 -0.000000 0.000000
85  0.000000 -3.071457 -1.220324  -0.000000 -0.000000 0.000000
86  -0.283371 -4.518086 -0.534133  0.346743 -0.000000 -0.000000
87  -0.000000 0.993481 -0.063565  -0.012322 0.000000 -0.000000
88  -0.671789 -13.259908 -4.735730  1.965161 0.414873 0.245074
time 5
0  0.000006 0.000000 0.000000  -1.570800 -1.391899 -1.570792
1  -10.134789 -9.257131 1.937670  -1.544956 -1.855077 -0.198630
2  6.027522 -0.000328 0.000191  -0.965052 -1.359267 -0.869828
3  11.692112 0.000649 -0.000738  -0.990391 0.000006 -0.768057
4  11.480803 0.000628 -0.000376  1.278707 -0.500787 -0.024938
5  3.850754 -0.143780 -1.192655  -0.509374 0.147529 -0.335039
6  1.312589 0.000009 0.000007  -0.000276 0.001085 -0.432148
7  0.729355 0.000054 0.000049  -0.000152 0.000041 -0.240073
8  3.942140 0.046331 -0.431542  -0.190633 0.074004 -0.209061
9  1.539112 0.000083 0.000004  -0.000007 0.000021 -0.247842
10  1.196332 0.000146 0.000028  0.000011 0.000018 -0.430770
11  3.883509 -0.047212 0.431351  0.048312 0.031230 0.015973
12  1.719573 -0.000028 0.000017  0.000015 0.005518 -0.366533
13  1.209181 0.000089 0.000012  0.000004 0.003091 -0.216438
14  3.859675 -0.138418 1.332380  0.317471 -0.031208 0.074463
15  1.719448 -0.000019 0.000029  0.000028 0.004066 -0.363025
16  1.099677 0.000050 0.000005  0.000003 0.002578 -0.244381
17  0.821712 -0.356521 1.335031  -1.385081 -0.670840 -0.516953
18  1.789819 -0.000004 -0.000018  0.000057 0.000849 0.169932
19  1.207015 -0.000015 -0.000043  0.134121 -0.100748 -0.216305
20  5.740635 0.000387 -0.000699  -0.069719 0.000003 0.000063
21  11.481169 0.000302 -0.000728  -0.050440 -0.079527 -0.030447
22  6.027524 -0.000329 0.000202  1.626614 -0.204223 2.002829
23  0.000000 11.692098 -0.000005  -0.565386 -0.138910 -0.469991
24  0.000004 0.000009 0.000000  -0.121332 -0.000031 1.570739
25  0.000000 -0.000012 0.000000  0.868960 0.000002 1.570712
26  -6.899342 -10.734701 0.826813  1.473120 1.855075 -0.198639
27  6.027516 -0.000262 -0.000216  1.637561 1.188941 -0.631884
28  11.691990 0.000160 0.000859  0.139890 0.000018 -1.026150
29  11.480407 -0.000036 0.000834  -1.756152 0.233332 0.506406
30  3.710775 -0.434234 1.096849  0.974897 -0.111756 -2.079603
31  1.312560 0.000031 0.000000  0.008191 -0.088214 -0.285514
32  0.729347 0.000066 -0.000028  -0.132450 -0.134191 -1.087309
33  3.820805 -0.154608 0.327900  0.610805 -0.300364 -1.640271
34  1.539095 0.000005 -0.000001  0.047162 -0.047589 -0.892209
35  1.196303 0.000079 -0.000004  -0.021079 -0.009374 -1.253100
36  3.882445 -0.171892 -0.416804  0.406628 -0.376223 -1.253559
37  1.719565 -0.000085 -0.000005  0.018695 -0.082922 -1.374417
38  1.209193 0.000035 0.000012  0.003361 -0.003782 -0.857658
39  3.859584 -0.149081 -1.331322  0.052683 -0.238405 -0.449221
40  1.719410 -0.000098 -0.000037  0.031466 0.001819 -1.126076
41  1.099672 0.000021 0.000006  -0.005117 -0.008160 -0.712530
42  0.805983 -0.359847 -1.318338  0.597320 0.427543 -1.089407
43  1.789780 -0.000008 -0.000042  0.000033 0.000371 0.183531
44  1.206998 -0.000007 0.000005  0.005090 0.031643 0.631793
45  5.740574 0.000079 0.000720  -0.015181 -0.000014 0.000028
46  11.481026 0.000065 0.000912  -0.042844 0.016234 0.096783
47  6.027515 -0.000273 -0.000229  -1.258162 -0.222971 -1.602892
48  -0.000002 11.691975 -0.000009  -0.737480 0.239896 0.604640
49  0.000002 0.000000 0.000001  2.412441 -0.000036 1.570860
50  -0.000008 -0.000013 0.000004  2.272645 -0.000036 1.570861
51  -3.393553 -8.349986 -5.659979  2.490461 -0.125716 -1.636963
52  -0.000001 0.000000 0.000000  0.008153 -0.000259 0.000009
53  0.000000 0.000000 0.000000  1.565115 0.043565 -0.106862
54  2.519459 -9.965838 -9.930006  -0.367166 -0.227012 -1.633074
55  -0.000001 0.000000 -0.000000  0.000000 -0.000001 -0.000002
56  0.000030 0.000029 0.000001  -1.571901 -0.044449 -0.106509
57  12.000549 -19.544212 -17.246658  1.570796 -0.000000 0.000000
58  -15.417984 4.000748 -22.641926  1.570796 -0.000000 0.000000
59  1.941978 10.912449 -8.327020  1.570796 -0.000000 0.000000
60  -0.004311 0.001229 -0.000372  0.006898 -0.005534 -0.284229
61  0.826810 11.791080 -4.879054  1.570796 -0.000000 0.000000
62  0.000000 0.000000 0.000000  -0.078727 -3.136056 0.284226
63  0.000000 0.000000 0.000000  1.569293 -0.002880 0.000225
64  -1.915771 -10.889102 -5.226798  1.850501 0.433450 0.220692
65  -0.008022 0.449004 2.449478  0.000000 -0.000000 0.000000
66  -0.008021 1.798499 0.936336  0.000000 -0.000000 0.000000
67  0.000001 2.151126 2.901126  0.000000 -0.000000 0.000000
68  -0.008023 1.347420 0.085286  -1.051149 0.001216 0.000412
69  0.230627 1.332312 3.105304  0.000000 -0.000000 0.000000
70  -0.008024 2.172907 7.984051  0.000000 -0.000000 0.000000
71  -0.008022 1.228065 5.810775  0.000000 -0.000000 0.000000
72  -0.008023 1.115505 -0.313083  0.000000 -0.000000 0.000000
73  -0.008023 1.345871 0.084163  1.570796 -0.000000 -0.000000
74  -0.008023 0.197514 1.902818  0.000000 -0.000000 0.000000
75  -0.754858 -13.122019 -3.816266  1.850501 0.433450 0.220692
76  -0.958739 -11.944133 -3.708080  1.850501 0.433450 0.220692
77  -0.008021 -0.653745 0.060181  0.000000 -0.000000 0.000000
78  -0.008021 -1.155511 -0.087182  0.000000 -0.000000 0.000000
79  -0.000000 -0.501765 -0.147368  0.000000 -0.000000 0.000000
80  -0.000000 -1.003531 -0.294729  0.000000 -0.000000 0.000000
81  0.000000 -1.505297 -0.442091  0.000000 -0.000000 0.000000
82  -0.000000 -2.007061 -0.589454  0.000000 -0.000000 0.000000
83  -0.000000 -2.508827 -0.736814  0.000000 -0.000000 0.000000
84  0.000000 -2.772560 -0.939009  0.000000 -0.000000 0.000000
85  0.000000 -3.071457 -1.220325  0.000000 -0.000000 0.000000
86  -0.283371 -4.518087 -0.534135  0.346743 -0.000000 -0.000000
87  0.000000 0.993480 -0.063565  -0.012322 0.000000 -0.000000
88  -0.754858 -13.122019 -3.816266  1.850501 0.433450 0.220692
time 6
0  0.000006 0.000000 0.000000  -1.570800 -1.391899 -1.570792
1  -10.129416 -9.227421 1.937670  -1.544956 -1.855077 -0.198630
2  6.027524 -0.000328 0.000189  -0.352289 -1.455084 -1.537967
3  11.692115 0.000647 -0.000738  -0.990384 0.000008 -0.667543
4  11.480898 0.000650 -0.000341  1.016117 -0.457045 0.083403
5  3.824870 -0.146608 -1.194365  -0.515010 0.140584 -0.498849
6  1.312589 0.000011 0.000008  -0.000966 0.004178 -0.409677
7  0.729356 0.000051 0.000049  -0.000650 0.000104 -0.227514
8  3.942141 0.046331 -0.431543  -0.189923 0.075981 -0.249545
9  1.539112 0.000083 0.000004  -0.000022 0.000277 -0.249069
10  1.196333 0.000147 0.000029  -0.000014 0.000025 -0.433831
11  3.883511 -0.047212 0.431350  0.048312 0.031230 0.015973
12  1.719571 -0.000028 0.000017  0.000015 0.005518 -0.366533
13  1.209178 0.000089 0.000012  0.000004 0.003091 -0.216438
14  3.859677 -0.138418 1.332379  0.317471 -0.031208 0.074463
15  1.719448 -0.000018 0.000028  0.000028 0.004066 -0.363025
16  1.099673 0.000049 0.000006  0.000003 0.002578 -0.244381
17  0.855316 -0.372533 1.364522  -1.400662 -0.427201 -0.379490
18  1.789819 -0.000003 -0.000017  -0.000018 0.002721 0.044320
19  1.207015 -0.000013 -0.000044  0.087336 -0.109560 -0.293197
20  5.740636 0.000388 -0.000699  -0.119900 0.000003 0.000064
21  11.481187 0.000307 -0.000720  -0.097966 -0.075912 -0.021028
22  6.027524 -0.000329 0.000200  1.531013 -0.108770 1.955340
23  -0.000000 11.692099 -0.000006  -0.495488 -0.106082 -0.413614
24  0.000004 0.000009 -0.000001  -0.121332 -0.000030 1.570739
25  -0.000001 -0.000011 -0.000001  0.868960 0.000002 1.570712
26  -6.899342 -10.734701 0.826813  1.473120 1.855075 -0.198639
27  6.027516 -0.000262 -0.000216  1.643646 1.191140 -0.627147
28  11.691990 0.000162 0.000859  0.139891 0.000018 -1.033106
29  11.480380 -0.000048 0.000836  -1.685752 0.288714 0.423018
30  3.710774 -0.434234 1.096847  0.974897 -0.111756 -2.079603
31  1.312560 0.000032 -0.000000  0.008191 -0.088214 -0.285514
32  0.729348 0.000065 -0.000026  -0.132450 -0.134191 -1.087309
33  3.820805 -0.154609 0.327898  0.610805 -0.300364 -1.640271
34  1.539095 0.000004 -0.000002  0.047162 -0.047589 -0.892209
35  1.196303 0.000080 -0.000003  -0.021079 -0.009374 -1.253100
36  3.882446 -0.171892 -0.416806  0.406628 -0.376223 -1.253560
37  1.719566 -0.000082 -0.000005  0.018695 -0.082922 -1.374417
38  1.209194 0.000035 0.000011  0.003361 -0.003782 -0.857658
39  3.859583 -0.149082 -1.331324  0.052683 -0.238405 -0.449221
40  1.719412 -0.000097 -0.000038  0.031466 0.001819 -1.126076
41  1.099673 0.000023 0.000006  -0.005117 -0.008160 -0.712530
42  0.805984 -0.359847 -1.318340  0.536078 0.466433 -1.175340
43  1.789780 -0.000009 -0.000042  -0.000028 0.000031 0.228553
44  1.206996 -0.000008 0.000005  0.004216 0.041835 0.513030
45  5.740572 0.000079 0.000720  0.000152 -0.000014 0.000028
46  11.481020 0.000065 0.000912  -0.030497 0.031250 0.078351
47  6.027515 -0.000273 -0.000229  -1.258723 -0.219864 -1.603680
48  -0.000001 11.691976 -0.000007  -0.741975 0.242923 0.608056
49  0.000004 -0.000000 0.000000  2.412441 -0.000036 1.570860
50  -0.000008 -0.000013 0.000005  2.272645 -0.000036 1.570861
51  -3.369591 -8.302472 -5.540744  2.587049 -0.231029 -1.649518
52  -0.000000 -0.000000 0.000001  0.008153 -0.000259 0.000009
53  0.000000 -0.000000 -0.000001  1.565115 0.043565 -0.106862
54  1.121935 -9.965076 -8.420626  -0.619178 -0.166492 -1.696590
55  0.000000 0.000000 -0.000001  0.000000 -0.000001 -0.000002
56  0.000030 0.000029 0.000001  -1.571902 -0.044449 -0.106509
57  12.000549 -19.544212 -17.246658  1.570796 -0.000000 0.000000
58  -15.417984 4.000748 -22.641926  1.570796 -0.000000 0.000000
59  1.941978 10.882257 -8.327020  1.570796 -0.000000 0.000000
60  -0.004311 0.001229 -0.000372  0.006898 -0.005534 -0.284229
61  0.826810 11.791080 -4.879054  1.570796 -0.000000 0.000000
62  0.000000 0.000000 0.000000  -0.078727 -3.136056 0.284226
63  0.000000 0.000000 0.000000  1.570142 -0.001568 0.000276
64  -1.935902 -10.763523 -4.700290  1.712874 0.369567 0.171427
65  -0.008022 0.449004 2.449476  -0.000000 -0.000000 0.000000
66  -0.008021 1.798499 0.936335  -0.000000 -0.000000 0.000000
67  0.000000 2.151127 2.901125  -0.000000 -0.000000 0.000000
68  -0.008023 1.347420 0.085284  -1.051149 0.001216 0.000412
69  0.230627 1.332312 3.105303  -0.000000 -0.000000 0.000000
70  -0.008024 2.172907 7.984050  -0.000000 -0.000000 0.000000
71  -0.008022 1.228065 5.810775  -0.000000 -0.000000 0.000000
72  -0.008023 1.115505 -0.313083  -0.000000 -0.000000 0.000000
73  -0.008023 1.345870 0.084162  1.570796 -0.000000 -0.000000
74  -0.008023 0.197514 1.902818  -0.000000 -0.000000 0.000000
75  -0.903016 -12.814549 -2.953958  1.712874 0.369567 0.171427
76  -1.115233 -11.633922 -2.996056  1.712874 0.369567 0.171427
77  -0.008022 -0.653744 0.060181  -0.000000 -0.000000 0.000000
78  -0.008021 -1.155510 -0.087181  -0.000000 -0.000000 0.000000
79  0.000000 -0.501765 -0.147366  -0.000000 -0.000000 0.000000
80  0.000000 -1.003530 -0.294728  -0.000000 -0.000000 0.000000
81  0.000000 -1.505296 -0.442090  -0.000000 -0.000000 0.000000
82  0.000000 -2.007060 -0.589454  -0.000000 -0.000000 0.000000
83  0.000000 -2.508826 -0.736815  -0.000000 -0.000000 0.000000
84  0.000000 -2.772559 -0.939009  -0.000000 -0.000000 0.000000
85  0.000000 -3.071456 -1.220325  -0.000000 -0.000000 0.000000
86  -0.283371 -4.518086 -0.534135  0.346743 -0.000000 -0.000000
87  0.000000 0.993479 -0.063567  -0.012322 0.000000 0.000000
88  -0.903016 -12.814549 -2.953958  1.712874 0.369567 0.171427
time 7
0  0.000006 0.000000 0.000000  -1.570800 -1.391899 -1.570792
1  -10.113216 -9.137838 1.937670  -1.544956 -1.855077 -0.198630
2  6.027524 -0.000330 0.000190  -2.456197 -1.701424 0.527475
3  11.692115 0.000647 -0.000737  -0.990376 0.000009 -0.559213
4  11.480316 0.000586 -0.000441  0.921337 -0.349924 0.136480
5  3.785431 -0.150918 -1.196965  -0.521393 0.127976 -0.758280
6  1.312590 0.000010 0.000008  -0.001885 0.008920 -0.375418
7  0.729355 0.000053 0.000050  -0.001408 0.000212 -0.208375
8  3.942142 0.046332 -0.431542  -0.188259 0.082176 -0.373260
9  1.539110 0.000084 0.000005  -0.000069 0.001042 -0.252731
10  1.196334 0.000146 0.000028  -0.000088 0.000042 -0.442971
11  3.883511 -0.047211 0.431351  0.049108 0.037800 -0.025148
12  1.719572 -0.000028 0.000017  -0.000009 0.005440 -0.367845
13  1.209182 0.000091 0.000013  -0.000029 0.003089 -0.230488
14  3.859677 -0.138417 1.332379  0.317471 -0.031208 0.074463
15  1.719448 -0.000018 0.000027  0.000028 0.004066 -0.363025
16  1.099674 0.000049 0.000006  0.000003 0.002578 -0.244381
17  0.871019 -0.380015 1.378305  -1.406260 -0.316864 -0.301385
18  1.789820 -0.000003 -0.000019  -0.000133 0.003588 -0.014271
19  1.207015 -0.000012 -0.000044  0.057201 -0.112020 -0.328383
20  5.740636 0.000388 -0.000699  -0.136209 0.000003 0.000064
21  11.481072 0.000296 -0.000742  -0.117974 -0.058670 -0.009545
22  6.027524 -0.000330 0.000201  1.442341 -0.023862 1.916242
23  -0.000001 11.692099 -0.000007  -0.418427 -0.075224 -0.350617
24  0.000003 0.000008 -0.000000  -0.121333 -0.000031 1.570739
25  -0.000001 -0.000012 -0.000001  0.868960 0.000002 1.570712
26  -6.899342 -10.734701 0.826813  1.473120 1.855075 -0.198639
27  6.027516 -0.000262 -0.000217  1.620108 1.192885 -0.644949
28  11.691990 0.000162 0.000859  0.139891 0.000018 -1.036957
29  11.480362 -0.000058 0.000838  -1.573557 0.391748 0.360160
30  3.710774 -0.434234 1.096848  0.974897 -0.111756 -2.079603
31  1.312560 0.000030 -0.000001  0.008190 -0.088214 -0.285514
32  0.729347 0.000065 -0.000027  -0.132450 -0.134191 -1.087309
33  3.820806 -0.154609 0.327900  0.610805 -0.300364 -1.640271
34  1.539095 0.000004 -0.000001  0.047162 -0.047589 -0.892209
35  1.196302 0.000080 -0.000003  -0.021079 -0.009374 -1.253100
36  3.882445 -0.171892 -0.416805  0.406628 -0.376223 -1.253560
37  1.719565 -0.000084 -0.000005  0.018695 -0.082922 -1.374417
38  1.209195 0.000033 0.000011  0.003361 -0.003782 -0.857658
39  3.859583 -0.149081 -1.331323  0.052683 -0.238405 -0.449221
40  1.719411 -0.000097 -0.000037  0.031466 0.001818 -1.126076
41  1.099672 0.000022 0.000006  -0.005117 -0.008160 -0.712530
42  0.805984 -0.359847 -1.318338  0.536078 0.466433 -1.175340
43  1.789779 -0.000009 -0.000043  -0.000028 0.000031 0.228553
44  1.206996 -0.000006 0.000006  0.004216 0.041835 0.513030
45  5.740573 0.000077 0.000720  0.026177 -0.000014 0.000028
46  11.481016 0.000062 0.000913  -0.011419 0.056070 0.061482
47  6.027515 -0.000273 -0.000229  -1.265276 -0.226026 -1.598164
48  0.000001 11.691974 -0.000007  -0.744461 0.244605 0.609943
49  0.000002 -0.000000 -0.000000  2.412441 -0.000036 1.570860
50  -0.000007 -0.000013 0.000005  2.272645 -0.000036 1.570861
51  -3.180984 -8.266996 -5.591919  -0.404734 -2.815109 1.430062
52  -0.000000 0.000000 -0.000001  0.008153 -0.000259 0.000009
53  0.000000 0.000000 -0.000000  1.565115 0.043565 -0.106862
54  0.018684 -9.940382 -7.139539  -0.706848 -0.144586 -1.810331
55  0.000001 0.000000 0.000000  0.000000 -0.000001 -0.000002
56  0.000031 0.000029 0.000002  -1.571901 -0.044449 -0.106509
57  12.000549 -19.544212 -17.246658  1.570796 -0.000000 0.000000
58  -15.417984 4.000748 -22.641926  1.570796 -0.000000 0.000000
59  1.941978 10.791222 -8.327020  1.570796 -0.000000 0.000000
60  -0.004311 0.001229 -0.000372  0.006898 -0.005534 -0.284229
61  0.826810 11.791080 -4.879054  1.570796 -0.000000 0.000000
62  0.000000 0.000000 0.000000  -0.078727 -3.136056 0.284226
63  0.000000 0.000000 0.000000  1.570992 0.000868 0.000313
64  -1.938778 -10.637944 -4.305789  1.578501 0.253383 0.109448
65  -0.008021 0.449004 2.449477  -0.000000 0.000000 -0.000000
66  -0.008021 1.798499 0.936334  -0.000000 0.000000 -0.000000
67  0.000000 2.151127 2.901126  -0.000000 0.000000 -0.000000
68  -0.008023 1.347420 0.085284  -1.051149 0.001216 0.000412
69  0.230628 1.332312 3.105304  -0.000000 0.000000 -0.000000
70  -0.008023 2.172907 7.984050  -0.000000 0.000000 -0.000000
71  -0.008022 1.228065 5.810774  -0.000000 0.000000 -0.000000
72  -0.008022 1.115505 -0.313083  -0.000000 0.000000 -0.000000
73  -0.008022 1.345871 0.084162  1.570796 0.000000 -0.000000
74  -0.008023 0.197514 1.902817  -0.000000 0.000000 -0.000000
75  -1.200995 -12.495346 -2.225172  1.578501 0.253383 0.109448
76  -1.372926 -11.324040 -2.423081  1.578501 0.253383 0.109448
77  -0.008021 -0.653745 0.060181  -0.000000 0.000000 -0.000000
78  -0.008021 -1.155510 -0.087181  -0.000000 0.000000 -0.000000
79  -0.000000 -0.501765 -0.147365  -0.000000 0.000000 -0.000000
80  -0.000000 -1.003531 -0.294727  -0.000000 0.000000 -0.000000
81  -0.000000 -1.505297 -0.442089  -0.000000 0.000000 -0.000000
82  -0.000000 -2.007061 -0.589453  -0.000000 0.000000 -0.000000
83  -0.000000 -2.508827 -0.736814  -0.000000 0.000000 -0.000000
84  -0.000000 -2.772560 -0.939009  -0.000000 0.000000 -0.000000
85  -0.000000 -3.071456 -1.220325  -0.000000 0.000000 -0.000000
86  -0.283371 -4.518086 -0.534134  0.346743 -0.000000 -0.000000
87  0.000000 0.993480 -0.063565  -0.012322 0.000000 0.000000
88  -1.200995 -12.495346 -2.225172  1.578501 0.253383 0.109448
time 8
0  0.000006 0.000000 0.000000  -1.570800 -1.391899 -1.570792
1  -10.086658 -8.990964 1.937670  -1.544956 -1.855077 -0.198630
2  6.027525 -0.000329 0.000191  -2.240806 -1.721667 0.279207
3  11.692116 0.000646 -0.000737  -0.990374 0.000008 -0.531770
4  11.480834 0.000656 -0.000339  0.998547 -0.271577 0.186177
5  3.740700 -0.155807 -1.199917  -0.524423 0.111962 -1.057609
6  1.312590 0.000010 0.000009  -0.002730 0.014336 -0.336550
7  0.729355 0.000053 0.000049  -0.002265 0.000353 -0.186665
8  3.942142 0.046332 -0.431543  -0.187225 0.092577 -0.575212
9  1.539111 0.000084 0.000004  -0.000149 0.002245 -0.258496
10  1.196332 0.000148 0.000029  -0.000206 0.000068 -0.457362
11  3.883512 -0.047211 0.431350  0.049855 0.058023 -0.151013
12  1.719573 -0.000029 0.000017  -0.000081 0.005210 -0.371761
13  1.209180 0.000091 0.000011  -0.000126 0.003081 -0.272534
14  3.859678 -0.138417 1.332379  0.307848 -0.003699 0.020776
15  1.719447 -0.000019 0.000028  0.000131 0.003947 -0.349647
16  1.099674 0.000049 0.000006  -0.000041 0.002577 -0.261338
17  0.834442 -0.370460 1.388663  -1.428971 -0.326592 -0.276001
18  1.789819 -0.000003 -0.000018  -0.000802 0.003397 0.003126
19  1.207015 -0.000013 -0.000043  0.037794 -0.102554 -0.228107
20  5.740637 0.000389 -0.000699  -0.118668 0.000003 0.000063
21  11.481178 0.000311 -0.000720  -0.104473 -0.044359 0.007106
22  6.027524 -0.000329 0.000202  1.420004 0.004699 1.881476
23  0.000000 11.692100 -0.000006  -0.398635 -0.068186 -0.334317
24  0.000004 0.000009 -0.000000  -0.121332 -0.000031 1.570739
25  -0.000000 -0.000011 -0.000000  0.868960 0.000002 1.570712
26  -6.899342 -10.734701 0.826813  1.473120 1.855075 -0.198639
27  6.027516 -0.000262 -0.000216  1.590457 1.206825 -0.667273
28  11.691992 0.000162 0.000859  0.139890 0.000018 -1.024733
29  11.480415 -0.000035 0.000833  -1.440748 0.488984 0.369457
30  3.710775 -0.434235 1.096849  0.974897 -0.111756 -2.079603
31  1.312560 0.000030 0.000000  0.008191 -0.088214 -0.285514
32  0.729347 0.000065 -0.000028  -0.132450 -0.134191 -1.087309
33  3.820806 -0.154609 0.327900  0.610805 -0.300364 -1.640271
34  1.539094 0.000003 -0.000002  0.047162 -0.047589 -0.892209
35  1.196303 0.000079 -0.000003  -0.021079 -0.009374 -1.253100
36  3.882445 -0.171892 -0.416804  0.406628 -0.376223 -1.253560
37  1.719564 -0.000085 -0.000005  0.018695 -0.082922 -1.374417
38  1.209195 0.000034 0.000011  0.003361 -0.003782 -0.857658
39  3.859585 -0.149082 -1.331322  0.052683 -0.238405 -0.449221
40  1.719412 -0.000097 -0.000037  0.031466 0.001819 -1.126076
41  1.099673 0.000024 0.000006  -0.005117 -0.008160 -0.712530
42  0.666975 -0.467392 -1.262431  0.660107 0.523148 -1.045949
43  1.789779 -0.000008 -0.000042  -0.020655 -0.018081 0.261696
44  1.206997 -0.000007 0.000005  0.000150 -0.019917 0.480059
45  5.740573 0.000078 0.000722  0.056010 -0.000014 0.000028
46  11.481027 0.000066 0.000912  0.009967 0.079605 0.055867
47  6.027515 -0.000273 -0.000229  -1.283333 -0.226438 -1.588802
48  -0.000002 11.691975 -0.000007  -0.736563 0.239281 0.603943
49  0.000003 0.000000 0.000001  2.412441 -0.000036 1.570860
50  -0.000008 -0.000013 0.000004  2.272645 -0.000036 1.570861
51  -2.892591 -8.309779 -5.595417  -0.248718 -2.790746 1.343322
52  -0.000000 0.000000 -0.000001  0.008153 -0.000259 0.000009
53  0.000000 0.000000 0.000001  1.565115 0.043565 -0.106862
54  -0.164295 -10.009378 -6.468730  -0.632069 -0.121148 -1.889973
55  0.000001 -0.000000 0.000000  0.000000 -0.000001 -0.000002
56  0.000031 0.000029 0.000002  -1.571901 -0.044449 -0.106509
57  12.000549 -19.544212 -17.246658  1.570796 -0.000000 0.000000
58  -15.417984 4.000748 -22.641926  1.570796 -0.000000 0.000000
59  1.941978 10.641966 -8.327020  1.570796 -0.000000 0.000000
60  -0.004311 0.001229 -0.000372  0.006898 -0.005534 -0.284229
61  0.826810 11.791080 -4.879054  1.570796 -0.000000 0.000000
62  0.000000 0.000000 0.000000  -0.078727 -3.136056 0.284226
63  0.000000 0.000000 0.000000  1.571378 0.002180 0.000327
64  -1.932303 -10.646557 -4.034675  1.514742 0.118024 0.062836
65  -0.008022 0.449004 2.449476  0.000000 0.000000 -0.000000
66  -0.008021 1.798499 0.936336  0.000000 0.000000 -0.000000
67  0.000001 2.151127 2.901126  0.000000 0.000000 -0.000000
68  -0.008023 1.347419 0.085284  -1.051149 0.001216 0.000412
69  0.230628 1.332312 3.105304  0.000000 0.000000 -0.000000
70  -0.008023 2.172907 7.984048  0.000000 0.000000 -0.000000
71  -0.008022 1.228065 5.810775  0.000000 0.000000 -0.000000
72  -0.008022 1.115505 -0.313083  0.000000 0.000000 -0.000000
73  -0.008022 1.345870 0.084164  1.570796 0.000000 -0.000000
74  -0.008022 0.197513 1.902817  0.000000 0.000000 -0.000000
75  -1.561846 -12.412933 -1.783916  1.514742 0.118024 0.062836
76  -1.659817 -11.249007 -2.060261  1.514742 0.118024 0.062836
77  -0.008021 -0.653745 0.060181  0.000000 0.000000 -0.000000
78  -0.008021 -1.155511 -0.087180  0.000000 0.000000 -0.000000
79  0.000000 -0.501766 -0.147366  0.000000 0.000000 -0.000000
80  0.000000 -1.003531 -0.294728  0.000000 0.000000 -0.000000
81  -0.000000 -1.505297 -0.442089  0.000000 0.000000 -0.000000
82  0.000000 -2.007061 -0.589453  0.000000 0.000000 -0.000000
83  0.000000 -2.508827 -0.736814  0.000000 0.000000 -0.000000
84  0.000000 -2.772560 -0.939008  0.000000 0.000000 -0.000000
85  0.000000 -3.071457 -1.220324  0.000000 0.000000 -0.000000
86  -0.283371 -4.518086 -0.534134  0.346743 -0.000000 -0.000000
87  0.000000 0.993480 -0.063565  -0.012322 0.000000 -0.000000
88  -1.561846 -12.412933 -1.783916  1.514742 0.118024 0.062836
time 9
0  0.000006 0.000000 0.000000  -1.570800 -1.391899 -1.570792
1  -10.051269 -8.795261 1.937670  -1.544956 -1.855077 -0.198630
2  6.027525 -0.000329 0.000190  -2.323952 -1.695289 0.329461
3  11.692115 0.000648 -0.000737  -0.990378 0.000008 -0.589481
4  11.480952 0.000667 -0.000321  1.095513 -0.249970 0.283344
5  3.701261 -0.160117 -1.202518  -0.523102 0.097917 -1.316046
6  1.312590 0.000011 0.000007  -0.003300 0.019133 -0.302294
7  0.729355 0.000054 0.000051  -0.003018 0.000492 -0.167526
8  3.942139 0.046332 -0.431543  -0.188911 0.105539 -0.828269
9  1.539111 0.000084 0.000004  -0.000256 0.003711 -0.265519
10  1.196333 0.000146 0.000029  -0.000349 0.000098 -0.474894
11  3.883509 -0.047211 0.431350  0.045587 0.090799 -0.357196
12  1.719573 -0.000028 0.000017  -0.000193 0.004846 -0.377927
13  1.209179 0.000090 0.000012  -0.000279 0.003061 -0.338978
14  3.859677 -0.138418 1.332379  0.269065 0.077182 -0.146647
15  1.719449 -0.000018 0.000028  0.000426 0.003587 -0.310002
16  1.099675 0.000047 0.000005  -0.000170 0.002572 -0.311639
17  0.731418 -0.343544 1.417840  -1.461713 -0.346366 -0.262983
18  1.789819 -0.000004 -0.000017  -0.002570 0.002950 0.048660
19  1.207015 -0.000013 -0.000044  0.011170 -0.077911 0.063816
20  5.740636 0.000390 -0.000699  -0.098499 0.000003 0.000063
21  11.481200 0.000312 -0.000718  -0.084748 -0.041693 0.030532
22  6.027524 -0.000329 0.000201  1.446469 -0.006454 1.849339
23  -0.000001 11.692099 -0.000006  -0.440132 -0.083357 -0.368439
24  0.000003 0.000009 0.000000  -0.121332 -0.000031 1.570739
25  -0.000001 -0.000012 0.000000  0.868960 0.000002 1.570712
26  -6.899342 -10.734701 0.826813  1.473120 1.855075 -0.198639
27  6.027516 -0.000262 -0.000216  1.569495 1.218899 -0.683448
28  11.691991 0.000162 0.000859  0.139890 0.000018 -1.025055
29  11.480413 -0.000033 0.000835  -1.314400 0.540195 0.460520
30  3.710776 -0.434235 1.096849  0.974897 -0.111756 -2.079603
31  1.312560 0.000030 -0.000000  0.008191 -0.088214 -0.285514
32  0.729347 0.000065 -0.000028  -0.132450 -0.134191 -1.087309
33  3.820806 -0.154609 0.327900  0.610805 -0.300364 -1.640271
34  1.539094 0.000003 -0.000001  0.047162 -0.047589 -0.892209
35  1.196303 0.000081 -0.000003  -0.021079 -0.009374 -1.253100
36  3.882446 -0.171893 -0.416804  0.406628 -0.376223 -1.253559
37  1.719567 -0.000083 -0.000004  0.018695 -0.082922 -1.374417
38  1.209193 0.000034 0.000011  0.003361 -0.003782 -0.857658
39  3.859585 -0.149081 -1.331321  0.052683 -0.238405 -0.449221
40  1.719412 -0.000097 -0.000037  0.031466 0.001819 -1.126077
41  1.099672 0.000022 0.000006  -0.005117 -0.008160 -0.712530
42  0.369513 -0.697523 -1.142798  0.963355 0.591247 -0.731540
43  1.789780 -0.000009 -0.000042  -0.066841 -0.054495 0.333982
44  1.206996 -0.000007 0.000005  -0.001712 -0.152666 0.409494
45  5.740573 0.000079 0.000721  0.082891 -0.000014 0.000028
46  11.481026 0.000067 0.000912  0.028089 0.094958 0.065493
47  6.027515 -0.000273 -0.000229  -1.297738 -0.224827 -1.582121
48  -0.000003 11.691975 -0.000008  -0.736772 0.239421 0.604102
49  0.000003 0.000000 0.000000  2.412441 -0.000036 1.570860
50  -0.000008 -0.000013 0.000004  2.272645 -0.000036 1.570861
51  -2.624772 -8.272755 -5.482726  -0.141863 -2.838968 1.275638
52  -0.000000 0.000000 -0.000001  0.008153 -0.000259 0.000009
53  0.000001 -0.000000 0.000001  1.565115 0.043565 -0.106862
54  0.127207 -10.048642 -6.089149  -0.534575 -0.065087 -1.932399
55  0.000000 0.000000 0.000000  0.000000 -0.000001 -0.000002
56  0.000030 0.000029 0.000001  -1.571901 -0.044449 -0.106509
57  12.000549 -19.544212 -17.246658  1.570796 -0.000000 0.000000
58  -15.417984 4.000748 -22.641926  1.570796 -0.000000 0.000000
59  1.941978 10.443089 -8.327020  1.570796 -0.000000 0.000000
60  -0.004311 0.001229 -0.000372  0.006898 -0.005534 -0.284229
61  0.826810 11.791080 -4.879054  1.570796 -0.000000 0.000000
62  0.000000 0.000000 0.000000  -0.078727 -3.136056 0.284226
63  0.000000 0.000000 0.000000  1.571353 0.001925 0.000313
64  -1.918056 -10.669641 -3.878327  1.529994 0.006976 0.030440
65  -0.008022 0.449004 2.449477  0.000000 0.000000 -0.000000
66  -0.008021 1.798499 0.936337  0.000000 0.000000 -0.000000
67  0.000000 2.151127 2.901126  0.000000 0.000000 -0.000000
68  -0.008023 1.347419 0.085284  -1.051149 0.001216 0.000412
69  0.230627 1.332312 3.105305  0.000000 0.000000 -0.000000
70  -0.008024 2.172907 7.984050  0.000000 0.000000 -0.000000
71  -0.008022 1.228065 5.810776  0.000000 0.000000 -0.000000
72  -0.008022 1.115505 -0.313082  0.000000 0.000000 -0.000000
73  -0.008022 1.345870 0.084164  1.570796 0.000000 -0.000000
74  -0.008023 0.197514 1.902819  0.000000 0.000000 -0.000000
75  -1.855061 -12.489065 -1.640255  1.529994 0.006976 0.030440
76  -1.884518 -11.317545 -1.899792  1.529994 0.006976 0.030440
77  -0.008022 -0.653745 0.060182  0.000000 0.000000 -0.000000
78  -0.008022 -1.155510 -0.087181  0.000000 0.000000 -0.000000
79  -0.000000 -0.501765 -0.147365  0.000000 0.000000 -0.000000
80  -0.000000 -1.003531 -0.294727  0.000000 0.000000 -0.000000
81  -0.000000 -1.505297 -0.442089  0.000000 0.000000 -0.000000
82  -0.000000 -2.007061 -0.589453  0.000000 0.000000 -0.000000
83  -0.000000 -2.508827 -0.736814  0.000000 0.000000 -0.000000
84  -0.000000 -2.772560 -0.939008  0.000000 0.000000 -0.000000
85  -0.000000 -3.071457 -1.220324  0.000000 0.000000 -0.000000
86  -0.283371 -4.518086 -0.534135  0.346743 -0.000000 -0.000000
87  0.000000 0.993480 -0.063564  -0.012322 0.000000 -0.000000
88  -1.855061 -12.489065 -1.640255  1.529994 0.006976 0.030440
time 10
0  0.000006 0.000000 0.000000  -1.570800 -1.391899 -1.570792
1  -10.009844 -8.566180 1.937670  -1.544956 -1.855077 -0.198630
2  6.027524 -0.000329 0.000191  -2.490020 -1.673874 0.482461
3  11.692114 0.000647 -0.000740  -0.990383 0.000008 -0.654688
4  11.480941 0.000657 -0.000331  1.110895 -0.260886 0.365401
5  3.675376 -0.162947 -1.204225  -0.520426 0.089418 -1.478797
6  1.312590 0.000009 0.000008  -0.003584 0.022289 -0.279827
7  0.729355 0.000054 0.000049  -0.003511 0.000591 -0.154967
8  3.942140 0.046331 -0.431543  -0.193813 0.117666 -1.081705
9  1.539111 0.000083 0.000005  -0.000373 0.005176 -0.272543
10  1.196332 0.000146 0.000028  -0.000493 0.000125 -0.492427
11  3.883510 -0.047212 0.431351  0.030833 0.129515 -0.616961
12  1.719573 -0.000028 0.000017  -0.000325 0.004402 -0.385439
13  1.209180 0.000092 0.000012  -0.000463 0.003022 -0.420146
14  3.859676 -0.138418 1.332379  0.178706 0.190220 -0.426364
15  1.719448 -0.000018 0.000027  0.000848 0.003016 -0.249467
16  1.099674 0.000048 0.000005  -0.000368 0.002551 -0.388550
17  0.599135 -0.308986 1.455303  -1.496137 -0.370120 -0.260315
18  1.789821 -0.000003 -0.000017  -0.004356 0.002585 0.094195
19  1.207016 -0.000012 -0.000043  -0.005910 -0.040211 0.447125
20  5.740637 0.000388 -0.000699  -0.095783 0.000003 0.000063
21  11.481197 0.000310 -0.000720  -0.079980 -0.046261 0.046818
22  6.027523 -0.000330 0.000202  1.470130 -0.022278 1.836990
23  -0.000001 11.692100 -0.000007  -0.486435 -0.102169 -0.406255
24  0.000002 0.000008 -0.000001  -0.121333 -0.000031 1.570739
25  -0.000000 -0.000010 0.000001  0.868960 0.000002 1.570712
26  -6.899342 -10.734701 0.826813  1.473120 1.855075 -0.198639
27  6.027517 -0.000263 -0.000216  1.563112 1.225891 -0.688472
28  11.691991 0.000160 0.000858  0.139890 0.000018 -1.027186
29  11.480404 -0.000038 0.000835  -1.254992 0.548606 0.532352
30  3.710774 -0.434234 1.096848  0.974897 -0.111756 -2.079603
31  1.312560 0.000032 -0.000000  0.008191 -0.088214 -0.285514
32  0.729347 0.000066 -0.000028  -0.132450 -0.134191 -1.087309
33  3.820806 -0.154609 0.327900  0.610805 -0.300364 -1.640271
34  1.539094 0.000003 -0.000002  0.047162 -0.047589 -0.892209
35  1.196302 0.000081 -0.000002  -0.021079 -0.009374 -1.253100
36  3.882446 -0.171892 -0.416804  0.406628 -0.376223 -1.253559
37  1.719566 -0.000082 -0.000004  0.018695 -0.082922 -1.374417
38  1.209192 0.000035 0.000010  0.003361 -0.003782 -0.857658
39  3.859585 -0.149082 -1.331322  0.052683 -0.238405 -0.449221
40  1.719412 -0.000097 -0.000037  0.031466 0.001819 -1.126076
41  1.099672 0.000025 0.000006  -0.005117 -0.008160 -0.712530
42  0.230504 -0.805067 -1.086893  1.111612 0.594062 -0.578210
43  1.789780 -0.000007 -0.000042  -0.089312 -0.070323 0.368341
44  1.206996 -0.000006 0.000005  0.000678 -0.214508 0.376132
45  5.740573 0.000079 0.000720  0.095161 -0.000014 0.000028
46  11.481026 0.000066 0.000912  0.035828 0.100106 0.075681
47  6.027515 -0.000273 -0.000229  -1.304730 -0.222153 -1.579595
48  -0.000001 11.691975 -0.000006  -0.738150 0.240346 0.605150
49  0.000003 -0.000000 0.000001  2.412441 -0.000036 1.570860
50  -0.000007 -0.000013 0.000006  2.272645 -0.000036 1.570861
51  -2.497762 -8.239215 -5.375800  -0.108833 -2.886093 1.249045
52  -0.000000 0.000000 0.000001  0.008153 -0.000259 0.000009
53  0.000000 -0.000000 -0.000000  1.565115 0.043565 -0.106862
54  0.248618 -10.042850 -5.922799  -0.505803 -0.016071 -1.951058
55  -0.000001 -0.000000 0.000000  0.000000 -0.000001 -0.000002
56  0.000029 0.000028 0.000002  -1.571901 -0.044449 -0.106509
57  12.000549 -19.544212 -17.246658  1.570796 -0.000000 0.000000
58  -15.417984 4.000748 -22.641926  1.570796 -0.000000 0.000000
59  1.941978 10.210293 -8.327020  1.570796 -0.000000 0.000000
60  -0.004311 0.001229 -0.000372  0.006898 -0.005534 -0.284229
61  0.826810 11.791080 -4.879054  1.570796 -0.000000 0.000000
62  0.000000 0.000000 0.000000  -0.078727 -3.136056 0.284226
63  0.000000 0.000000 0.000000  1.571287 0.001317 0.000276
64  -1.903809 -10.703059 -3.828126  1.564289 -0.038335 0.012411
65  -0.008022 0.449004 2.449477  0.000000 -0.000000 0.000000
66  -0.008021 1.798499 0.936337  0.000000 -0.000000 0.000000
67  0.000001 2.151127 2.901126  0.000000 -0.000000 0.000000
68  -0.008023 1.347420 0.085284  -1.051149 0.001216 0.000412
69  0.230627 1.332312 3.105304  0.000000 -0.000000 0.000000
70  -0.008024 2.172907 7.984051  0.000000 -0.000000 0.000000
71  -0.008022 1.228065 5.810776  0.000000 -0.000000 0.000000
72  -0.008023 1.115505 -0.313083  0.000000 -0.000000 0.000000
73  -0.008022 1.345870 0.084164  1.570796 -0.000000 -0.000000
74  -0.008023 0.197514 1.902818  0.000000 -0.000000 0.000000
75  -1.971619 -12.600216 -1.655699  1.564289 -0.038335 0.012411
76  -1.969850 -11.420019 -1.874383  1.564289 -0.038335 0.012411
77  -0.008021 -0.653744 0.060182  0.000000 -0.000000 0.000000
78  -0.008021 -1.155510 -0.087179  0.000000 -0.000000 0.000000
79  -0.000000 -0.501765 -0.147366  0.000000 -0.000000 0.000000
80  -0.000000 -1.003531 -0.294728  0.000000 -0.000000 0.000000
81  -0.000000 -1.505297 -0.442090  0.000000 -0.000000 0.000000
82  -0.000000 -2.007060 -0.589453  0.000000 -0.000000 0.000000
83  -0.000000 -2.508827 -0.736814  0.000000 -0.000000 0.000000
84  -0.000000 -2.772559 -0.939008  0.000000 -0.000000 0.000000
85  -0.000000 -3.071457 -1.220323  0.000000 -0.000000 0.000000
86  -0.283371 -4.518086 -0.534134  0.346743 -0.000000 -0.000000
87  0.000000 0.993479 -0.063564  -0.012322 0.000000 0.000000
88  -1.971619 -12.600216 -1.655699  1.564289 -0.038335 0.012411
time 11
0  0.000006 0.000000 0.000000  -1.570800 -1.391899 -1.570792
1  -9.966262 -8.325171 1.937670  -1.544956 -1.855077 -0.198630
2  6.027524 -0.000330 0.000191  0.442977 -1.479099 -2.448972
3  11.692116 0.000647 -0.000738  -0.990386 0.000007 -0.710016
4  11.480395 0.000568 -0.000468  1.084024 -0.282181 0.400832
5  3.666627 -0.163904 -1.204802  -0.519250 0.086737 -1.532179
6  1.312590 0.000010 0.000008  -0.003664 0.023357 -0.272237
7  0.729355 0.000053 0.000050  -0.003677 0.000626 -0.150723
8  3.942140 0.046331 -0.431543  -0.199846 0.126232 -1.284482
9  1.539111 0.000085 0.000005  -0.000476 0.006377 -0.278309
10  1.196332 0.000146 0.000028  -0.000612 0.000145 -0.506817
11  3.883512 -0.047212 0.431351  0.006423 0.163142 -0.878664
12  1.719573 -0.000029 0.000017  -0.000454 0.003957 -0.392950
13  1.209179 0.000092 0.000012  -0.000643 0.002969 -0.501313
14  3.859676 -0.138418 1.332380  0.035100 0.283375 -0.772105
15  1.719448 -0.000018 0.000028  0.001285 0.002338 -0.180734
16  1.099676 0.000047 0.000006  -0.000589 0.002509 -0.475932
17  0.496110 -0.282071 1.484480  -1.520601 -0.388305 -0.262392
18  1.789820 -0.000004 -0.000016  -0.005043 0.002467 0.111593
19  1.207017 -0.000012 -0.000045  -0.007330 -0.010479 0.736778
20  5.740636 0.000389 -0.000699  -0.102482 0.000003 0.000063
21  11.481089 0.000293 -0.000746  -0.083535 -0.052606 0.051932
22  6.027524 -0.000330 0.000202  1.487256 -0.037931 1.839015
23  -0.000000 11.692100 -0.000006  -0.525217 -0.119476 -0.437690
24  0.000003 0.000009 -0.000000  -0.121333 -0.000031 1.570738
25  -0.000000 -0.000012 0.000000  0.868960 0.000002 1.570712
26  -6.899342 -10.734701 0.826813  1.473120 1.855075 -0.198639
27  6.027517 -0.000263 -0.000216  1.565670 1.229111 -0.686475
28  11.691990 0.000161 0.000859  0.139890 0.000018 -1.025013
29  11.480412 -0.000034 0.000835  -1.257890 0.543112 0.551339
30  3.710773 -0.434235 1.096849  0.974897 -0.111756 -2.079603
31  1.312560 0.000032 -0.000001  0.008190 -0.088214 -0.285514
32  0.729346 0.000066 -0.000028  -0.132450 -0.134191 -1.087309
33  3.820806 -0.154609 0.327900  0.610805 -0.300364 -1.640271
34  1.539095 0.000004 -0.000001  0.047162 -0.047589 -0.892209
35  1.196302 0.000080 -0.000003  -0.021079 -0.009374 -1.253100
36  3.882446 -0.171892 -0.416804  0.406628 -0.376223 -1.253560
37  1.719565 -0.000082 -0.000004  0.018695 -0.082922 -1.374417
38  1.209193 0.000034 0.000011  0.003361 -0.003782 -0.857658
39  3.859585 -0.149082 -1.331321  0.052683 -0.238405 -0.449221
40  1.719412 -0.000097 -0.000037  0.031466 0.001819 -1.126076
41  1.099672 0.000022 0.000006  -0.005117 -0.008160 -0.712530
42  0.230503 -0.805067 -1.086893  1.111612 0.594062 -0.578210
43  1.789780 -0.000008 -0.000042  -0.089312 -0.070323 0.368341
44  1.206995 -0.000007 0.000005  0.000678 -0.214508 0.376132
45  5.740573 0.000079 0.000721  0.094607 -0.000014 0.000028
46  11.481028 0.000067 0.000912  0.034881 0.099260 0.079735
47  6.027515 -0.000273 -0.000229  -1.306745 -0.219462 -1.579566
48  -0.000002 11.691974 -0.000008  -0.736744 0.239402 0.604081
49  0.000004 0.000001 0.000000  2.412441 -0.000036 1.570860
50  -0.000007 -0.000014 0.000005  2.272645 -0.000036 1.570861
51  -2.487654 -8.247595 -5.328820  -0.120318 -2.902011 1.247009
52  -0.000001 0.000000 -0.000000  0.008153 -0.000259 0.000009
53  -0.000000 -0.000000 0.000001  1.565115 0.043565 -0.106862
54  0.246823 -10.053877 -5.924545  -0.517870 -0.000848 -1.955805
55  0.000001 0.000000 -0.000001  0.000000 -0.000001 -0.000002
56  0.000030 0.000029 -0.000000  -1.571901 -0.044449 -0.106509
57  12.000549 -19.544212 -17.246658  1.570796 -0.000000 0.000000
58  -15.417984 4.000748 -22.641926  1.570796 -0.000000 0.000000
59  1.941978 9.965374 -8.327020  1.570796 -0.000000 0.000000
60  -0.004311 0.001229 -0.000372  0.006898 -0.005534 -0.284229
61  0.826810 11.791080 -4.879054  1.570796 -0.000000 0.000000
62  0.000000 0.000000 0.000000  -0.078727 -3.136056 0.284226
63  0.000000 0.000000 0.000000  1.571194 0.000592 0.000223
64  -1.897333 -10.742680 -3.830598  1.582981 -0.033004 0.006895
65  -0.008022 0.449004 2.449476  0.000000 -0.000000 0.000000
66  -0.008021 1.798499 0.936336  0.000000 -0.000000 0.000000
67  0.000001 2.151127 2.901127  0.000000 -0.000000 0.000000
68  -0.008023 1.347420 0.085286  -1.051149 0.001216 0.000412
69  0.230628 1.332313 3.105305  0.000000 -0.000000 0.000000
70  -0.008023 2.172908 7.984051  0.000000 -0.000000 0.000000
71  -0.008022 1.228066 5.810775  0.000000 -0.000000 0.000000
72  -0.008023 1.115505 -0.313082  0.000000 -0.000000 0.000000
73  -0.008023 1.345871 0.084163  1.570796 -0.000000 -0.000000
74  -0.008022 0.197514 1.902818  0.000000 -0.000000 0.000000
75  -1.962565 -12.679652 -1.693515  1.582981 -0.033004 0.006895
76  -1.956208 -11.495607 -1.890201  1.582981 -0.033004 0.006895
77  -0.008022 -0.653745 0.060180  0.000000 -0.000000 0.000000
78  -0.008022 -1.155510 -0.087183  0.000000 -0.000000 0.000000
79  -0.000000 -0.501765 -0.147365  0.000000 -0.000000 0.000000
80  -0.000000 -1.003531 -0.294727  0.000000 -0.000000 0.000000
81  -0.000000 -1.505297 -0.442089  0.000000 -0.000000 0.000000
82  -0.000000 -2.007061 -0.589453  0.000000 -0.000000 0.000000
83  -0.000000 -2.508827 -0.736813  0.000000 -0.000000 0.000000
84  -0.000000 -2.772560 -0.939010  0.000000 -0.000000 0.000000
85  -0.000000 -3.071457 -1.220325  0.000000 -0.000000 0.000000
86  -0.283371 -4.518086 -0.534136  0.346743 -0.000000 -0.000000
87  0.000001 0.993480 -0.063566  -0.012322 0.000000 0.000000
88  -1.962565 -12.679652 -1.693515  1.582981 -0.033004 0.006895
time 12
0  0.000006 0.000000 0.000000  -1.570800 -1.391899 -1.570792
1  -9.924837 -8.096090 1.937670  -1.544956 -1.855077 -0.198630
2  6.027525 -0.000328 0.000191  0.266352 -1.483175 -2.268113
3  11.692112 0.000645 -0.000739  -0.990389 0.000006 -0.749644
4  11.480875 0.000643 -0.000355  1.063330 -0.297691 0.406606
5  3.666628 -0.163904 -1.204802  -0.519250 0.086737 -1.532179
6  1.312589 0.000010 0.000008  -0.003664 0.023356 -0.272237
7  0.729355 0.000055 0.000050  -0.003677 0.000626 -0.150723
8  3.942140 0.046330 -0.431543  -0.204365 0.130820 -1.408908
9  1.539111 0.000083 0.000004  -0.000546 0.007140 -0.281971
10  1.196333 0.000146 0.000028  -0.000688 0.000157 -0.515957
11  3.883511 -0.047212 0.431351  -0.018982 0.184737 -1.088927
12  1.719573 -0.000028 0.000017  -0.000558 0.003591 -0.399116
13  1.209179 0.000091 0.000012  -0.000787 0.002915 -0.567757
14  3.859678 -0.138418 1.332380  -0.110873 0.320377 -1.083227
15  1.719448 -0.000018 0.000029  0.001631 0.001717 -0.120198
16  1.099675 0.000047 0.000006  -0.000780 0.002457 -0.552844
17  0.459533 -0.272516 1.494839  -1.528877 -0.394734 -0.263833
18  1.789819 -0.000003 -0.000015  -0.005043 0.002467 0.111593
19  1.207017 -0.000012 -0.000044  -0.005634 -0.000693 0.835388
20  5.740635 0.000389 -0.000699  -0.107974 0.000003 0.000064
21  11.481183 0.000308 -0.000724  -0.086639 -0.056575 0.051590
22  6.027524 -0.000330 0.000202  1.498552 -0.049704 1.843460
23  -0.000000 11.692098 -0.000007  -0.552701 -0.132606 -0.459820
24  0.000003 0.000008 -0.000000  -0.121332 -0.000031 1.570739
25  0.000000 -0.000011 -0.000000  0.868960 0.000002 1.570712
26  -6.899342 -10.734701 0.826813  1.473120 1.855075 -0.198639
27  6.027517 -0.000263 -0.000216  1.567591 1.231861 -0.684968
28  11.691992 0.000161 0.000859  0.139890 0.000018 -1.018066
29  11.480446 -0.000022 0.000832  -1.274889 0.544459 0.541017
30  3.710774 -0.434234 1.096848  0.974897 -0.111756 -2.079603
31  1.312560 0.000030 -0.000001  0.008191 -0.088214 -0.285514
32  0.729348 0.000066 -0.000027  -0.132450 -0.134191 -1.087309
33  3.820807 -0.154609 0.327899  0.610805 -0.300364 -1.640271
34  1.539095 0.000004 -0.000002  0.047162 -0.047589 -0.892209
35  1.196302 0.000080 -0.000004  -0.021079 -0.009374 -1.253100
36  3.882447 -0.171892 -0.416804  0.406628 -0.376223 -1.253560
37  1.719565 -0.000083 -0.000004  0.018695 -0.082922 -1.374417
38  1.209193 0.000036 0.000011  0.003361 -0.003782 -0.857658
39  3.859586 -0.149082 -1.331322  0.052683 -0.238405 -0.449221
40  1.719412 -0.000098 -0.000037  0.031466 0.001819 -1.126076
41  1.099673 0.000022 0.000006  -0.005117 -0.008160 -0.712530
42  0.230505 -0.805067 -1.086893  1.111612 0.594062 -0.578210
43  1.789781 -0.000006 -0.000043  -0.089312 -0.070323 0.368341
44  1.206995 -0.000008 0.000005  0.000678 -0.214508 0.376132
45  5.740574 0.000079 0.000720  0.090912 -0.000014 0.000028
46  11.481035 0.000069 0.000911  0.032076 0.098597 0.078686
47  6.027515 -0.000273 -0.000229  -1.308528 -0.217239 -1.579483
48  -0.000000 11.691975 -0.000009  -0.732246 0.236397 0.600656
49  0.000003 0.000000 0.000001  2.412441 -0.000036 1.570860
50  -0.000007 -0.000013 0.000004  2.272645 -0.000036 1.570861
51  -2.502056 -8.289175 -5.329842  -0.133590 -2.896328 1.246794
52  0.000000 0.000000 -0.000000  0.008153 -0.000259 0.000009
53  0.000000 0.000000 -0.000000  1.565115 0.043565 -0.106862
54  0.217654 -10.105526 -5.961479  -0.530373 -0.007328 -1.959156
55  -0.000002 -0.000000 -0.000000  0.000000 -0.000001 -0.000002
56  0.000028 0.000029 0.000001  -1.571901 -0.044449 -0.106509
57  12.000549 -19.544212 -17.246658  1.570796 -0.000000 0.000000
58  -15.417984 4.000748 -22.641926  1.570796 -0.000000 0.000000
59  1.941978 9.732578 -8.327020  1.570796 -0.000000 0.000000
60  -0.004311 0.001229 -0.000372  0.006898 -0.005534 -0.284229
61  0.826810 11.791080 -4.879054  1.570796 -0.000000 0.000000
62  0.000000 0.000000 0.000000  -0.078727 -3.136056 0.284226
63  0.000000 0.000000 0.000000  1.571087 -0.000015 0.000163
64  -1.899250 -10.784367 -3.836776  1.581767 -0.018975 0.003524
65  -0.008021 0.449003 2.449476  0.000000 -0.000000 0.000000
66  -0.008021 1.798498 0.936336  0.000000 -0.000000 0.000000
67  0.000001 2.151127 2.901126  0.000000 -0.000000 0.000000
68  -0.008023 1.347419 0.085285  -1.051149 0.001216 0.000412
69  0.230628 1.332312 3.105306  0.000000 -0.000000 0.000000
70  -0.008023 2.172906 7.984051  0.000000 -0.000000 0.000000
71  -0.008022 1.228065 5.810776  0.000000 -0.000000 0.000000
72  -0.008022 1.115504 -0.313083  0.000000 -0.000000 0.000000
73  -0.008022 1.345870 0.084163  1.570796 -0.000000 -0.000000
74  -0.008022 0.197513 1.902819  0.000000 -0.000000 0.000000
75  -1.941076 -12.718406 -1.696453  1.581767 -0.018975 0.003524
76  -1.933461 -11.534639 -1.894760  1.581767 -0.018975 0.003524
77  -0.008021 -0.653745 0.060182  0.000000 -0.000000 0.000000
78  -0.008021 -1.155510 -0.087181  0.000000 -0.000000 0.000000
79  0.000000 -0.501766 -0.147366  0.000000 -0.000000 0.000000
80  -0.000000 -1.003531 -0.294727  0.000000 -0.000000 0.000000
81  0.000000 -1.505297 -0.442090  0.000000 -0.000000 0.000000
82  -0.000000 -2.007061 -0.589453  0.000000 -0.000000 0.000000
83  0.000000 -2.508827 -0.736814  0.000000 -0.000000 0.000000
84  -0.000000 -2.772560 -0.939008  0.000000 -0.000000 0.000000
85  -0.000000 -3.071457 -1.220324  0.000000 -0.000000 0.000000
86  -0.283371 -4.518086 -0.534134  0.346743 -0.000000 -0.000000
87  0.000000 0.993480 -0.063565  -0.012322 0.000000 0.000000
88  -1.941076 -12.718406 -1.696453  1.581767 -0.018975 0.003524
time 13
0  0.000006 0.000000 0.000000  -1.570800 -1.391899 -1.570792
1  -9.889448 -7.900387 1.937669  -1.544956 -1.855077 -0.198630
2  6.027524 -0.000327 0.000191  0.124082 -1.484039 -2.121934
3  11.692113 0.000646 -0.000739  -0.990391 0.000006 -0.780319
4  11.480757 0.000622 -0.000388  1.047426 -0.310681 0.408399
5  3.666626 -0.163903 -1.204803  -0.519250 0.086737 -1.532179
6  1.312589 0.000010 0.000008  -0.003664 0.023356 -0.272237
7  0.729355 0.000054 0.000050  -0.003677 0.000626 -0.150723
8  3.942139 0.046331 -0.431543  -0.205965 0.132197 -1.449654
9  1.539110 0.000082 0.000004  -0.000570 0.007396 -0.283198
10  1.196332 0.000146 0.000028  -0.000713 0.000161 -0.519018
11  3.883509 -0.047212 0.431351  -0.036633 0.195180 -1.218161
12  1.719573 -0.000028 0.000016  -0.000623 0.003358 -0.403032
13  1.209179 0.000091 0.000012  -0.000876 0.002875 -0.609803
14  3.859675 -0.138418 1.332379  -0.205374 0.320879 -1.279027
15  1.719448 -0.000018 0.000028  0.001837 0.001299 -0.080555
16  1.099675 0.000048 0.000005  -0.000902 0.002414 -0.603144
17  0.459533 -0.272516 1.494839  -1.528877 -0.394735 -0.263833
18  1.789820 -0.000003 -0.000015  -0.005043 0.002467 0.111593
19  1.207018 -0.000012 -0.000045  -0.005634 -0.000693 0.835388
20  5.740636 0.000389 -0.000698  -0.112319 0.000003 0.000063
21  11.481161 0.000304 -0.000730  -0.089003 -0.059729 0.050715
22  6.027523 -0.000328 0.000202  1.506944 -0.058855 1.847455
23  -0.000001 11.692099 -0.000007  -0.573804 -0.143179 -0.476724
24  0.000004 0.000009 0.000001  -0.121333 -0.000031 1.570739
25  -0.000000 -0.000011 0.000000  0.868960 0.000002 1.570712
26  -6.899342 -10.734701 0.826813  1.473120 1.855075 -0.198639
27  6.027517 -0.000263 -0.000216  1.569290 1.234299 -0.683628
28  11.691991 0.000162 0.000859  0.139889 0.000017 -1.010977
29  11.480474 -0.000007 0.000832  -1.289835 0.545535 0.528788
30  3.710775 -0.434235 1.096849  0.974897 -0.111756 -2.079603
31  1.312560 0.000031 -0.000000  0.008190 -0.088214 -0.285514
32  0.729347 0.000066 -0.000027  -0.132450 -0.134191 -1.087309
33  3.820807 -0.154609 0.327900  0.610805 -0.300364 -1.640271
34  1.539095 0.000004 -0.000001  0.047162 -0.047589 -0.892209
35  1.196302 0.000080 -0.000003  -0.021079 -0.009374 -1.253100
36  3.882447 -0.171892 -0.416804  0.406628 -0.376223 -1.253559
37  1.719566 -0.000083 -0.000005  0.018695 -0.082922 -1.374417
38  1.209194 0.000032 0.000011  0.003361 -0.003782 -0.857658
39  3.859584 -0.149082 -1.331322  0.052683 -0.238405 -0.449221
40  1.719413 -0.000097 -0.000037  0.031466 0.001818 -1.126077
41  1.099672 0.000023 0.000006  -0.005117 -0.008160 -0.712530
42  0.230504 -0.805067 -1.086893  1.111612 0.594062 -0.578210
43  1.789781 -0.000007 -0.000042  -0.089312 -0.070323 0.368341
44  1.206996 -0.000007 0.000005  0.000678 -0.214508 0.376132
45  5.740573 0.000079 0.000720  0.087576 -0.000013 0.000028
46  11.481039 0.000072 0.000912  0.029736 0.097966 0.077155
47  6.027515 -0.000273 -0.000229  -1.310116 -0.215275 -1.579405
48  -0.000001 11.691973 -0.000008  -0.727648 0.233345 0.597149
49  0.000003 0.000001 0.000001  2.412441 -0.000036 1.570860
50  -0.000007 -0.000014 0.000004  2.272645 -0.000036 1.570861
51  -2.519286 -8.332100 -5.338228  -0.144247 -2.889642 1.247354
52  0.000000 -0.000000 0.000000  0.008153 -0.000259 0.000009
53  0.000000 0.000000 -0.000000  1.565115 0.043565 -0.106862
54  0.188982 -10.156015 -5.996655  -0.540242 -0.014678 -1.961110
55  0.000000 -0.000001 -0.000000  0.000000 -0.000001 -0.000002
56  0.000030 0.000028 0.000001  -1.571901 -0.044449 -0.106509
57  12.000549 -19.544212 -17.246658  1.570796 -0.000000 0.000000
58  -15.417984 4.000748 -22.641926  1.570796 -0.000000 0.000000
59  1.941978 9.533701 -8.327020  1.570796 -0.000000 0.000000
60  -0.004311 0.001229 -0.000372  0.006898 -0.005534 -0.284229
61  0.826810 11.791080 -4.879054  1.570796 -0.000000 0.000000
62  0.000000 0.000000 0.000000  -0.078727 -3.136056 0.284226
63  0.000000 0.000000 0.000000  1.570980 -0.000270 0.000103
64  -1.903823 -10.823987 -3.844807  1.578743 -0.007048 0.001501
65  -0.008022 0.449004 2.449477  0.000000 0.000000 0.000000
66  -0.008021 1.798498 0.936336  0.000000 0.000000 0.000000
67  0.000000 2.151127 2.901126  0.000000 0.000000 0.000000
68  -0.008023 1.347419 0.085285  -1.051149 0.001216 0.000412
69  0.230627 1.332312 3.105304  0.000000 0.000000 0.000000
70  -0.008024 2.172906 7.984048  0.000000 0.000000 0.000000
71  -0.008022 1.228065 5.810777  0.000000 0.000000 0.000000
72  -0.008023 1.115505 -0.313082  0.000000 0.000000 0.000000
73  -0.008023 1.345870 0.084163  1.570796 0.000000 -0.000000
74  -0.008023 0.197513 1.902819  0.000000 0.000000 0.000000
75  -1.924081 -12.751419 -1.698218  1.578743 -0.007048 0.001501
76  -1.916411 -11.568276 -1.900230  1.578743 -0.007048 0.001501
77  -0.008021 -0.653744 0.060182  0.000000 0.000000 0.000000
78  -0.008021 -1.155510 -0.087180  0.000000 0.000000 0.000000
79  0.000000 -0.501765 -0.147367  0.000000 0.000000 0.000000
80  0.000000 -1.003531 -0.294728  0.000000 0.000000 0.000000
81  0.000000 -1.505296 -0.442091  0.000000 0.000000 0.000000
82  0.000000 -2.007060 -0.589454  0.000000 0.000000 0.000000
83  0.000000 -2.508827 -0.736815  0.000000 0.000000 0.000000
84  0.000000 -2.772560 -0.939009  0.000000 0.000000 0.000000
85  0.000000 -3.071457 -1.220325  0.000000 0.000000 0.000000
86  -0.283371 -4.518086 -0.534133  0.346743 -0.000000 -0.000000
87  0.000000 0.993480 -0.063566  -0.012322 0.000000 0.000000
88  -1.924081 -12.751419 -1.698218  1.578743 -0.007048 0.001501
time 14
0  0.000006 0.000000 0.000000  -1.570800 -1.391899 -1.570792
1  -9.862888 -7.753514 1.937669  -1.544956 -1.855077 -0.198630
2  6.027525 -0.000329 0.000190  0.025640 -1.483601 -2.020969
3  11.692115 0.000647 -0.000739  -0.990393 0.000005 -0.801573
4  11.480639 0.000598 -0.000424  1.039417 -0.320095 0.409155
5  3.666629 -0.163904 -1.204801  -0.519250 0.086737 -1.532179
6  1.312590 0.000009 0.000008  -0.003664 0.023357 -0.272237
7  0.729354 0.000053 0.000050  -0.003677 0.000626 -0.150723
8  3.942141 0.046331 -0.431543  -0.205965 0.132197 -1.449654
9  1.539112 0.000081 0.000004  -0.000570 0.007396 -0.283198
10  1.196332 0.000145 0.000028  -0.000713 0.000161 -0.519018
11  3.883510 -0.047213 0.431351  -0.042690 0.198097 -1.260493
12  1.719573 -0.000028 0.000017  -0.000644 0.003280 -0.404344
13  1.209179 0.000091 0.000012  -0.000905 0.002861 -0.623854
14  3.859676 -0.138419 1.332379  -0.235831 0.317274 -1.342437
15  1.719448 -0.000018 0.000028  0.001902 0.001157 -0.067177
16  1.099676 0.000048 0.000006  -0.000943 0.002399 -0.620101
17  0.459534 -0.272516 1.494839  -1.528877 -0.394734 -0.263833
18  1.789819 -0.000005 -0.000017  -0.005043 0.002467 0.111593
19  1.207016 -0.000012 -0.000044  -0.005634 -0.000693 0.835388
20  5.740635 0.000390 -0.000700  -0.114753 0.000003 0.000063
21  11.481135 0.000299 -0.000739  -0.090044 -0.061861 0.050094
22  6.027524 -0.000330 0.000201  1.512733 -0.065170 1.849991
23  -0.000000 11.692099 -0.000007  -0.588339 -0.150711 -0.488318
24  0.000003 0.000009 -0.000001  -0.121332 -0.000031 1.570738
25  0.000000 -0.000011 0.000000  0.868960 0.000002 1.570712
26  -6.899342 -10.734701 0.826813  1.473120 1.855075 -0.198639
27  6.027517 -0.000263 -0.000216  1.569946 1.236355 -0.683110
28  11.691991 0.000163 0.000860  0.139889 0.000017 -1.004614
29  11.480507 0.000006 0.000828  -1.297997 0.546840 0.518520
30  3.710775 -0.434234 1.096849  0.974897 -0.111756 -2.079603
31  1.312560 0.000030 0.000000  0.008190 -0.088214 -0.285514
32  0.729348 0.000066 -0.000028  -0.132450 -0.134191 -1.087309
33  3.820806 -0.154609 0.327899  0.610805 -0.300364 -1.640271
34  1.539094 0.000003 -0.000001  0.047162 -0.047589 -0.892209
35  1.196302 0.000081 -0.000002  -0.021079 -0.009374 -1.253100
36  3.882445 -0.171892 -0.416804  0.406628 -0.376223 -1.253560
37  1.719565 -0.000083 -0.000005  0.018695 -0.082922 -1.374417
38  1.209194 0.000032 0.000011  0.003361 -0.003782 -0.857658
39  3.859585 -0.149081 -1.331322  0.052683 -0.238405 -0.449221
40  1.719413 -0.000097 -0.000037  0.031466 0.001819 -1.126076
41  1.099672 0.000024 0.000006  -0.005117 -0.008160 -0.712530
42  0.230503 -0.805067 -1.086893  1.111612 0.594062 -0.578210
43  1.789780 -0.000007 -0.000042  -0.089312 -0.070323 0.368341
44  1.206996 -0.000006 0.000005  0.000678 -0.214508 0.376132
45  5.740574 0.000079 0.000721  0.085576 -0.000014 0.000028
46  11.481047 0.000076 0.000910  0.028554 0.097718 0.075599
47  6.027515 -0.000273 -0.000229  -1.311621 -0.213822 -1.579186
48  -0.000002 11.691975 -0.000007  -0.723515 0.230619 0.593991
49  0.000003 -0.000000 0.000000  2.412441 -0.000036 1.570860
50  -0.000008 -0.000013 0.000005  2.272645 -0.000036 1.570861
51  -2.531164 -8.370299 -5.351557  -0.148995 -2.884268 1.247484
52  -0.000000 -0.000000 -0.000000  0.008153 -0.000259 0.000009
53  -0.000000 0.000000 0.000000  1.565115 0.043565 -0.106862
54  0.171137 -10.199507 -6.019751  -0.544464 -0.020349 -1.962101
55  0.000001 0.000001 0.000000  0.000000 -0.000001 -0.000002
56  0.000030 0.000029 0.000001  -1.571902 -0.044449 -0.106509
57  12.000549 -19.544212 -17.246658  1.570796 -0.000000 0.000000
58  -15.417984 4.000748 -22.641926  1.570796 -0.000000 0.000000
59  1.941978 9.384445 -8.327020  1.570796 -0.000000 0.000000
60  -0.004311 0.001229 -0.000372  0.006898 -0.005534 -0.284229
61  0.826810 11.791080 -4.879054  1.570796 -0.000000 0.000000
62  0.000000 0.000000 0.000000  -0.078727 -3.136056 0.284226
63  0.000000 0.000000 0.000000  1.570887 -0.000200 0.000051
64  -1.909281 -10.857406 -3.852838  1.575114 -0.000981 0.000451
65  -0.008022 0.449004 2.449478  0.000000 -0.000000 -0.000000
66  -0.008021 1.798499 0.936336  0.000000 -0.000000 -0.000000
67  0.000001 2.151127 2.901126  0.000000 -0.000000 -0.000000
68  -0.008023 1.347420 0.085285  -1.051149 0.001216 0.000412
69  0.230627 1.332312 3.105304  0.000000 -0.000000 -0.000000
70  -0.008024 2.172906 7.984050  0.000000 -0.000000 -0.000000
71  -0.008022 1.228065 5.810776  0.000000 -0.000000 -0.000000
72  -0.008023 1.115505 -0.313082  0.000000 -0.000000 -0.000000
73  -0.008023 1.345870 0.084164  1.570796 -0.000000 -0.000000
74  -0.008023 0.197514 1.902818  0.000000 -0.000000 -0.000000
75  -1.918549 -12.777004 -1.699168  1.575114 -0.000981 0.000451
76  -1.910857 -11.594614 -1.905526  1.575114 -0.000981 0.000451
77  -0.008021 -0.653745 0.060181  0.000000 -0.000000 -0.000000
78  -0.008021 -1.155510 -0.087181  0.000000 -0.000000 -0.000000
79  -0.000000 -0.501765 -0.147367  0.000000 -0.000000 -0.000000
80  -0.000000 -1.003531 -0.294729  0.000000 -0.000000 -0.000000
81  -0.000000 -1.505297 -0.442091  0.000000 -0.000000 -0.000000
82  -0.000000 -2.007061 -0.589454  0.000000 -0.000000 -0.000000
83  -0.000000 -2.508827 -0.736815  0.000000 -0.000000 -0.000000
84  -0.000000 -2.772560 -0.939010  0.000000 -0.000000 -0.000000
85  -0.000000 -3.071457 -1.220325  0.000000 -0.000000 -0.000000
86  -0.283371 -4.518086 -0.534135  0.346743 -0.000000 -0.000000
87  0.000000 0.993480 -0.063564  -0.012322 0.000000 0.000000
88  -1.918549 -12.777004 -1.699168  1.575114 -0.000981 0.000451
time 15
0  0.000006 0.000000 0.000000  -1.570800 -1.391899 -1.570792
1  -9.846689 -7.663930 1.937669  -1.544956 -1.855077 -0.198630
2  6.027524 -0.000329 0.000191  -0.029183 -1.483012 -1.964921
3  11.692115 0.000646 -0.000738  -0.990394 0.000005 -0.813531
4  11.480277 0.000526 -0.000529  1.037164 -0.325541 0.409399
5  3.666627 -0.163903 -1.204802  -0.519250 0.086737 -1.532179
6  1.312590 0.000011 0.000007  -0.003664 0.023356 -0.272237
7  0.729355 0.000053 0.000050  -0.003677 0.000626 -0.150723
8  3.942141 0.046332 -0.431542  -0.205965 0.132196 -1.449654
9  1.539111 0.000082 0.000004  -0.000570 0.007396 -0.283198
10  1.196334 0.000147 0.000028  -0.000713 0.000161 -0.519018
11  3.883510 -0.047211 0.431352  -0.042690 0.198097 -1.260493
12  1.719573 -0.000029 0.000017  -0.000644 0.003280 -0.404344
13  1.209179 0.000091 0.000013  -0.000905 0.002861 -0.623854
14  3.859677 -0.138418 1.332380  -0.235831 0.317274 -1.342437
15  1.719448 -0.000018 0.000029  0.001902 0.001157 -0.067177
16  1.099675 0.000049 0.000006  -0.000943 0.002399 -0.620101
17  0.459533 -0.272515 1.494840  -1.528877 -0.394735 -0.263833
18  1.789818 -0.000004 -0.000016  -0.005043 0.002467 0.111593
19  1.207016 -0.000012 -0.000044  -0.005634 -0.000693 0.835388
20  5.740636 0.000389 -0.000699  -0.115675 0.000003 0.000064
21  11.481065 0.000285 -0.000759  -0.090193 -0.062997 0.049789
22  6.027524 -0.000330 0.000202  1.516018 -0.068712 1.851206
23  -0.000000 11.692100 -0.000007  -0.596485 -0.155021 -0.494797
24  0.000003 0.000008 -0.000000  -0.121332 -0.000031 1.570739
25  0.000001 -0.000012 -0.000001  0.868960 0.000002 1.570712
26  -6.899342 -10.734701 0.826813  1.473120 1.855075 -0.198639
27  6.027517 -0.000263 -0.000216  1.569888 1.237794 -0.683156
28  11.691990 0.000161 0.000858  0.139889 0.000017 -1.000005
29  11.480530 0.000013 0.000827  -1.300803 0.548047 0.511686
30  3.710776 -0.434234 1.096848  0.974897 -0.111756 -2.079603
31  1.312560 0.000033 -0.000001  0.008191 -0.088214 -0.285514
32  0.729347 0.000066 -0.000029  -0.132450 -0.134191 -1.087309
33  3.820807 -0.154609 0.327899  0.610805 -0.300364 -1.640271
34  1.539094 0.000004 -0.000001  0.047162 -0.047589 -0.892209
35  1.196302 0.000081 -0.000003  -0.021079 -0.009374 -1.253100
36  3.882446 -0.171892 -0.416805  0.406628 -0.376223 -1.253560
37  1.719565 -0.000083 -0.000005  0.018695 -0.082922 -1.374417
38  1.209193 0.000034 0.000011  0.003361 -0.003782 -0.857658
39  3.859585 -0.149081 -1.331323  0.052683 -0.238405 -0.449221
40  1.719413 -0.000097 -0.000037  0.031466 0.001819 -1.126076
41  1.099672 0.000022 0.000006  -0.005117 -0.008160 -0.712530
42  0.230504 -0.805067 -1.086894  1.111612 0.594062 -0.578210
43  1.789780 -0.000006 -0.000042  -0.089312 -0.070323 0.368341
44  1.206996 -0.000007 0.000005  0.000678 -0.214508 0.376132
45  5.740574 0.000079 0.000721  0.084717 -0.000014 0.000028
46  11.481051 0.000076 0.000911  0.028233 0.097735 0.074397
47  6.027515 -0.000273 -0.000229  -1.312782 -0.212938 -1.578932
48  -0.000001 11.691975 -0.000007  -0.720518 0.228653 0.591698
49  0.000002 -0.000000 -0.000000  2.412441 -0.000036 1.570860
50  -0.000007 -0.000013 0.000006  2.272645 -0.000036 1.570861
51  -2.537277 -8.397706 -5.364251  -0.149640 -2.880850 1.247255
52  0.000000 0.000000 -0.000000  0.008153 -0.000259 0.000009
53  0.000001 0.000000 -0.000000  1.565115 0.043565 -0.106862
54  0.163182 -10.230010 -6.031406  -0.544854 -0.023801 -1.962486
55  -0.000000 -0.000000 -0.000000  0.000000 -0.000001 -0.000002
56  0.000030 0.000029 0.000001  -1.571901 -0.044449 -0.106509
57  12.000549 -19.544212 -17.246658  1.570796 -0.000000 0.000000
58  -15.417984 4.000748 -22.641926  1.570796 -0.000000 0.000000
59  1.941978 9.293409 -8.327020  1.570796 -0.000000 0.000000
60  -0.004311 0.001229 -0.000372  0.006898 -0.005534 -0.284229
61  0.826810 11.791080 -4.879054  1.570796 -0.000000 0.000000
62  0.000000 0.000000 0.000000  -0.078727 -3.136056 0.284226
63  0.000000 0.000000 0.000000  1.570821 -0.000070 0.000014
64  -1.913853 -10.880489 -3.859016  1.572072 0.000698 0.000057
65  -0.008021 0.449004 2.449477  0.000000 0.000000 -0.000000
66  -0.008021 1.798499 0.936336  0.000000 0.000000 -0.000000
67  0.000001 2.151127 2.901127  0.000000 0.000000 -0.000000
68  -0.008023 1.347420 0.085285  -1.051149 0.001216 0.000412
69  0.230627 1.332312 3.105305  0.000000 0.000000 -0.000000
70  -0.008023 2.172906 7.984048  0.000000 0.000000 -0.000000
71  -0.008022 1.228065 5.810775  0.000000 0.000000 -0.000000
72  -0.008022 1.115505 -0.313083  0.000000 0.000000 -0.000000
73  -0.008022 1.345871 0.084164  1.570796 0.000000 -0.000000
74  -0.008023 0.197514 1.902819  0.000000 0.000000 -0.000000
75  -1.920259 -12.793523 -1.699502  1.572072 0.000698 0.000057
76  -1.912451 -11.611770 -1.909469  1.572072 0.000698 0.000057
77  -0.008021 -0.653745 0.060181  0.000000 0.000000 -0.000000
78  -0.008021 -1.155510 -0.087181  0.000000 0.000000 -0.000000
79  0.000000 -0.501766 -0.147367  0.000000 0.000000 -0.000000
80  0.000000 -1.003530 -0.294729  0.000000 0.000000 -0.000000
81  0.000000 -1.505296 -0.442090  0.000000 0.000000 -0.000000
82  0.000000 -2.007060 -0.589454  0.000000 0.000000 -0.000000
83  0.000000 -2.508827 -0.736814  0.000000 0.000000 -0.000000
84  0.000000 -2.772560 -0.939010  0.000000 0.000000 -0.000000
85  0.000000 -3.071457 -1.220325  0.000000 0.000000 -0.000000
86  -0.283371 -4.518086 -0.534136  0.346743 -0.000000 -0.000000
87  -0.000000 0.993480 -0.063564  -0.012322 0.000000 0.000000
88  -1.920259 -12.793523 -1.699502  1.572072 0.000698 0.000057
time 16
0  0.000006 0.000000 0.000000  -1.570800 -1.391899 -1.570792
1  -9.841317 -7.634221 1.937669  -1.544956 -1.855077 -0.198630
2  6.027525 -0.000329 0.000190  -0.046636 -1.482824 -1.947293
3  11.692115 0.000646 -0.000738  -0.990394 0.000005 -0.817278
4  11.480170 0.000508 -0.000561  1.037812 -0.327222 0.409754
5  3.666628 -0.163903 -1.204803  -0.519250 0.086737 -1.532179
6  1.312588 0.000011 0.000007  -0.003664 0.023357 -0.272237
7  0.729355 0.000054 0.000049  -0.003677 0.000626 -0.150723
8  3.942140 0.046331 -0.431543  -0.205965 0.132196 -1.449654
9  1.539111 0.000083 0.000004  -0.000570 0.007396 -0.283198
10  1.196333 0.000147 0.000028  -0.000713 0.000161 -0.519018
11  3.883510 -0.047211 0.431351  -0.042690 0.198097 -1.260493
12  1.719573 -0.000028 0.000017  -0.000644 0.003280 -0.404344
13  1.209179 0.000090 0.000012  -0.000905 0.002861 -0.623854
14  3.859677 -0.138418 1.332380  -0.235831 0.317274 -1.342437
15  1.719448 -0.000018 0.000028  0.001902 0.001157 -0.067177
16  1.099676 0.000049 0.000006  -0.000943 0.002399 -0.620101
17  0.459533 -0.272515 1.494839  -1.528877 -0.394735 -0.263833
18  1.789818 -0.000004 -0.000016  -0.005043 0.002467 0.111593
19  1.207016 -0.000012 -0.000045  -0.005634 -0.000693 0.835388
20  5.740636 0.000389 -0.000700  -0.115682 0.000003 0.000063
21  11.481044 0.000281 -0.000766  -0.089975 -0.063309 0.049805
22  6.027524 -0.000329 0.000201  1.517109 -0.069806 1.851374
23  0.000001 11.692100 -0.000007  -0.599033 -0.156382 -0.496821
24  0.000003 0.000010 -0.000000  -0.121332 -0.000030 1.570739
25  0.000001 -0.000011 0.000000  0.868960 0.000002 1.570712
26  -6.899342 -10.734701 0.826813  1.473120 1.855075 -0.198639
27  6.027517 -0.000263 -0.000216  1.569580 1.238355 -0.683402
28  11.691990 0.000161 0.000859  0.139889 0.000017 -0.998212
29  11.480539 0.000019 0.000828  -1.300323 0.548699 0.509511
30  3.710774 -0.434234 1.096849  0.974897 -0.111756 -2.079603
31  1.312560 0.000031 -0.000000  0.008191 -0.088214 -0.285514
32  0.729348 0.000066 -0.000028  -0.132450 -0.134191 -1.087309
33  3.820806 -0.154608 0.327900  0.610805 -0.300364 -1.640271
34  1.539095 0.000003 -0.000002  0.047162 -0.047589 -0.892209
35  1.196302 0.000080 -0.000002  -0.021079 -0.009374 -1.253100
36  3.882446 -0.171892 -0.416804  0.406628 -0.376223 -1.253560
37  1.719565 -0.000082 -0.000005  0.018695 -0.082922 -1.374417
38  1.209193 0.000033 0.000012  0.003361 -0.003782 -0.857658
39  3.859584 -0.149081 -1.331322  0.052683 -0.238405 -0.449221
40  1.719412 -0.000097 -0.000037  0.031466 0.001818 -1.126076
41  1.099673 0.000023 0.000006  -0.005117 -0.008160 -0.712530
42  0.230504 -0.805067 -1.086893  1.111612 0.594062 -0.578210
43  1.789780 -0.000008 -0.000042  -0.089312 -0.070323 0.368341
44  1.206996 -0.000007 0.000005  0.000678 -0.214508 0.376132
45  5.740573 0.000080 0.000721  0.084682 -0.000013 0.000028
46  11.481052 0.000077 0.000911  0.028369 0.097850 0.073926
47  6.027515 -0.000273 -0.000229  -1.313294 -0.212666 -1.578778
48  -0.000001 11.691974 -0.000007  -0.719350 0.227889 0.590804
49  0.000003 0.000000 0.000000  2.412441 -0.000036 1.570860
50  -0.000007 -0.000014 0.000005  2.272645 -0.000036 1.570861
51  -2.538002 -8.408206 -5.370322  -0.148535 -2.879863 1.246914
52  0.000000 -0.000000 -0.000000  0.008153 -0.000259 0.000009
53  0.000000 0.000000 0.000000  1.565115 0.043565 -0.106862
54  0.162817 -10.241511 -6.033255  -0.543722 -0.024713 -1.962570
55  0.000000 0.000001 0.000001  0.000000 -0.000001 -0.000002
56  0.000031 0.000030 0.000002  -1.571901 -0.044449 -0.106509
57  12.000549 -19.544212 -17.246658  1.570796 -0.000000 0.000000
58  -15.417984 4.000748 -22.641926  1.570796 -0.000000 0.000000
59  1.941978 9.263218 -8.327020  1.570796 -0.000000 0.000000
60  -0.004311 0.001229 -0.000372  0.006898 -0.005534 -0.284229
61  0.826810 11.791080 -4.879054  1.570796 -0.000000 0.000000
62  0.000000 0.000000 0.000000  -0.078727 -3.136056 0.284226
63  0.000000 0.000000 0.000000  1.570796 -0.000000 0.000000
64  -1.915771 -10.889102 -3.861487  1.570796 -0.000000 0.000000
65  -0.008022 0.449004 2.449477  0.000000 -0.000000 0.000000
66  -0.008021 1.798499 0.936337  0.000000 -0.000000 0.000000
67  0.000000 2.151127 2.901127  0.000000 -0.000000 0.000000
68  -0.008023 1.347420 0.085285  -1.051149 0.001216 0.000412
69  0.230628 1.332312 3.105305  0.000000 -0.000000 0.000000
70  -0.008024 2.172907 7.984052  0.000000 -0.000000 0.000000
71  -0.008022 1.228065 5.810777  0.000000 -0.000000 0.000000
72  -0.008023 1.115505 -0.313082  0.000000 -0.000000 0.000000
73  -0.008023 1.345870 0.084164  1.570796 -0.000000 -0.000000
74  -0.008023 0.197514 1.902819  0.000000 -0.000000 0.000000
75  -1.923793 -12.799380 -1.699540  1.570796 -0.000000 0.000000
76  -1.915770 -11.617895 -1.911009  1.570796 -0.000000 0.000000
77  -0.008021 -0.653744 0.060182  0.000000 -0.000000 0.000000
78  -0.008021 -1.155510 -0.087180  0.000000 -0.000000 0.000000
79  0.000000 -0.501765 -0.147367  0.000000 -0.000000 0.000000
80  0.000000 -1.003531 -0.294728  0.000000 -0.000000 0.000000
81  0.000000 -1.505297 -0.442090  0.000000 -0.000000 0.000000
82  0.000000 -2.007061 -0.589454  0.000000 -0.000000 0.000000
83  0.000000 -2.508827 -0.736814  0.000000 -0.000000 0.000000
84  0.000000 -2.772560 -0.939010  0.000000 -0.000000 0.000000
85  0.000000 -3.071457 -1.220325  0.000000 -0.000000 0.000000
86  -0.283371 -4.518086 -0.534134  0.346743 -0.000000 -0.000000
87  0.000000 0.993480 -0.063565  -0.012322 0.000000 0.000000
88  -1.923793 -12.799380 -1.699540  1.570796 -0.000000 0.000000
end
