version 1
nodes
0 "ValveBiped.Bip01_Spine4" -1
1 "ValveBiped.Bip01_L_Clavicle" 0
2 "ValveBiped.Bip01_L_UpperArm" 1
3 "ValveBiped.Bip01_L_Forearm" 2
4 "ValveBiped.Bip01_L_Hand" 3
5 "ValveBiped.Bip01_L_Finger4" 4
6 "ValveBiped.Bip01_L_Finger41" 5
7 "ValveBiped.Bip01_L_Finger42" 6
8 "ValveBiped.Bip01_L_Finger3" 4
9 "ValveBiped.Bip01_L_Finger31" 8
10 "ValveBiped.Bip01_L_Finger32" 9
11 "ValveBiped.Bip01_L_Finger2" 4
12 "ValveBiped.Bip01_L_Finger21" 11
13 "ValveBiped.Bip01_L_Finger22" 12
14 "ValveBiped.Bip01_L_Finger1" 4
15 "ValveBiped.Bip01_L_Finger11" 14
16 "ValveBiped.Bip01_L_Finger12" 15
17 "ValveBiped.Bip01_L_Finger0" 4
18 "ValveBiped.Bip01_L_Finger01" 17
19 "ValveBiped.Bip01_L_Finger02" 18
20 "ValveBiped.Bip01_L_Ulna" 3
21 "ValveBiped.Bip01_L_Wrist" 3
22 "rig_l_upperarm" 1
23 "rig_l_forearm" 22
24 "rig_d_l_forearm" 23
25 "rig_d_l_upperarm" 22
26 "ValveBiped.Bip01_R_Clavicle" 0
27 "ValveBiped.Bip01_R_UpperArm" 26
28 "ValveBiped.Bip01_R_Forearm" 27
29 "ValveBiped.Bip01_R_Hand" 28
30 "ValveBiped.Bip01_R_Finger4" 29
31 "ValveBiped.Bip01_R_Finger41" 30
32 "ValveBiped.Bip01_R_Finger42" 31
33 "ValveBiped.Bip01_R_Finger3" 29
34 "ValveBiped.Bip01_R_Finger31" 33
35 "ValveBiped.Bip01_R_Finger32" 34
36 "ValveBiped.Bip01_R_Finger2" 29
37 "ValveBiped.Bip01_R_Finger21" 36
38 "ValveBiped.Bip01_R_Finger22" 37
39 "ValveBiped.Bip01_R_Finger1" 29
40 "ValveBiped.Bip01_R_Finger11" 39
41 "ValveBiped.Bip01_R_Finger12" 40
42 "ValveBiped.Bip01_R_Finger0" 29
43 "ValveBiped.Bip01_R_Finger01" 42
44 "ValveBiped.Bip01_R_Finger02" 43
45 "ValveBiped.Bip01_R_Ulna" 28
46 "ValveBiped.Bip01_R_Wrist" 28
47 "rig_r_upperarm" 26
48 "rig_r_forearm" 47
49 "rig_d_r_forearm" 48
50 "rig_d_r_upperarm" 47
51 "rig_r_hand" -1
52 "rig_d_r_hand" 51
53 "rig_d_r_wrist" 52
54 "rig_l_hand" -1
55 "rig_d_l_hand" 54
56 "rig_d_l_wrist" 54
57 "rig_l_pole" -1
58 "rig_r_pole" -1
59 "rig_l_clavicle" -1
60 "rig_d_l_clavicle" 59
61 "rig_r_clavicle" -1
62 "rig_d_r_clavicle" 61
63 "Camera" -1
64 "body" -1
65 "trigger" 64
66 "bullet1" 64
67 "slide" 64
68 "hammer" 64
69 "sliderelease" 64
70 "barrel" 64
71 "slidesg" 64
72 "grip_safety" 64
73 "safety" 64
74 "magrelease" 64
75 "sg_round" -1
76 "mag" -1
77 "bullet2" 76
78 "bullet3" 76
79 "bullet4" 78
80 "bullet5" 78
81 "bullet6" 78
82 "bullet7" 78
83 "bullet8" 78
84 "bullet9" 78
85 "bullet10" 78
86 "springstart" 76
87 "springend" 86
88 "sg_shell" -1
end
skeleton
time 0
0  0.000006 0.000000 0.000000  -1.570800 -1.391899 -1.570792
1  -9.841317 -7.634221 1.937669  -1.544956 -1.855077 -0.198630
2  6.027525 -0.000329 0.000190  -0.046636 -1.482824 -1.947293
3  11.692115 0.000646 -0.000738  -0.990394 0.000005 -0.817278
4  11.480170 0.000508 -0.000561  1.037812 -0.327222 0.409754
5  3.666628 -0.163903 -1.204803  -0.519250 0.086737 -1.532179
6  1.312588 0.000011 0.000007  -0.003664 0.023357 -0.272237
7  0.729355 0.000054 0.000049  -0.003677 0.000626 -0.150723
8  3.942140 0.046331 -0.431543  -0.205965 0.132196 -1.449654
9  1.539111 0.000083 0.000004  -0.000570 0.007396 -0.283198
10  1.196333 0.000147 0.000028  -0.000713 0.000161 -0.519018
11  3.883510 -0.047211 0.431351  -0.042690 0.198097 -1.260493
12  1.719573 -0.000028 0.000017  -0.000644 0.003280 -0.404344
13  1.209179 0.000090 0.000012  -0.000905 0.002861 -0.623854
14  3.859677 -0.138418 1.332380  -0.235831 0.317274 -1.342437
15  1.719448 -0.000018 0.000028  0.001902 0.001157 -0.067177
16  1.099676 0.000049 0.000006  -0.000943 0.002399 -0.620101
17  0.459533 -0.272515 1.494839  -1.528877 -0.394735 -0.263833
18  1.789818 -0.000004 -0.000016  -0.005043 0.002467 0.111593
19  1.207016 -0.000012 -0.000045  -0.005634 -0.000693 0.835388
20  5.740636 0.000389 -0.000700  -0.115682 0.000003 0.000063
21  11.481044 0.000281 -0.000766  -0.089975 -0.063309 0.049805
22  6.027524 -0.000329 0.000201  1.517109 -0.069806 1.851374
23  0.000001 11.692100 -0.000007  -0.599033 -0.156382 -0.496821
24  0.000003 0.000010 -0.000000  -0.121332 -0.000030 1.570739
25  0.000001 -0.000011 0.000000  0.868960 0.000002 1.570712
26  -6.899342 -10.734701 0.826813  1.473120 1.855075 -0.198639
27  6.027517 -0.000263 -0.000216  1.569580 1.238355 -0.683402
28  11.691990 0.000161 0.000859  0.139889 0.000017 -0.998212
29  11.480539 0.000019 0.000828  -1.300323 0.548699 0.509511
30  3.710774 -0.434234 1.096849  0.974897 -0.111756 -2.079603
31  1.312560 0.000031 -0.000000  0.008191 -0.088214 -0.285514
32  0.729348 0.000066 -0.000028  -0.132450 -0.134191 -1.087309
33  3.820806 -0.154608 0.327900  0.610805 -0.300364 -1.640271
34  1.539095 0.000003 -0.000002  0.047162 -0.047589 -0.892209
35  1.196302 0.000080 -0.000002  -0.021079 -0.009374 -1.253100
36  3.882446 -0.171892 -0.416804  0.406628 -0.376223 -1.253560
37  1.719565 -0.000082 -0.000005  0.018695 -0.082922 -1.374417
38  1.209193 0.000033 0.000012  0.003361 -0.003782 -0.857658
39  3.859584 -0.149081 -1.331322  0.052683 -0.238405 -0.449221
40  1.719412 -0.000097 -0.000037  0.031466 0.001818 -1.126076
41  1.099673 0.000023 0.000006  -0.005117 -0.008160 -0.712530
42  0.230504 -0.805067 -1.086893  1.111612 0.594062 -0.578210
43  1.789780 -0.000008 -0.000042  -0.089312 -0.070323 0.368341
44  1.206996 -0.000007 0.000005  0.000678 -0.214508 0.376132
45  5.740573 0.000080 0.000721  0.084682 -0.000013 0.000028
46  11.481052 0.000077 0.000911  0.028369 0.097850 0.073926
47  6.027515 -0.000273 -0.000229  -1.313294 -0.212666 -1.578778
48  -0.000001 11.691974 -0.000007  -0.719350 0.227889 0.590804
49  0.000003 0.000000 0.000000  2.412441 -0.000036 1.570860
50  -0.000007 -0.000014 0.000005  2.272645 -0.000036 1.570861
51  -2.538002 -8.408206 -5.370322  -0.148535 -2.879863 1.246914
52  0.000000 -0.000000 -0.000000  0.008153 -0.000259 0.000009
53  0.000000 0.000000 0.000000  1.565115 0.043565 -0.106862
54  0.162817 -10.241511 -6.033255  -0.543722 -0.024713 -1.962570
55  0.000000 0.000001 0.000001  0.000000 -0.000001 -0.000002
56  0.000031 0.000030 0.000002  -1.571901 -0.044449 -0.106509
57  12.000549 -19.544212 -17.246658  1.570796 -0.000000 0.000000
58  -15.417984 4.000748 -22.641926  1.570796 -0.000000 0.000000
59  1.941978 9.263218 -8.327020  1.570796 -0.000000 0.000000
60  -0.004311 0.001229 -0.000372  0.006898 -0.005534 -0.284229
61  0.826810 11.791080 -4.879054  1.570796 -0.000000 0.000000
62  0.000000 0.000000 0.000000  -0.078727 -3.136056 0.284226
63  0.000000 0.000000 0.000000  1.570796 -0.000000 0.000000
64  -1.915771 -10.889102 -3.861487  1.570796 -0.000000 0.000000
65  -0.008022 0.449004 2.449477  0.000000 -0.000000 0.000000
66  -0.008021 1.798499 0.936337  0.000000 -0.000000 0.000000
67  0.000000 2.151127 1.009987  0.000000 -0.000000 0.000000
68  -0.008023 1.347420 0.085285  -1.051149 0.001216 0.000412
69  0.230628 1.332312 3.105305  0.175653 0.000000 -0.000000
70  -0.008024 2.211807 7.723073  -0.028798 -0.000000 0.000000
71  -0.008022 1.228065 5.810777  0.000000 -0.000000 0.000000
72  -0.008023 1.115505 -0.313082  0.000000 -0.000000 0.000000
73  -0.008023 1.345870 0.084164  1.570796 -0.000000 -0.000000
74  -0.008023 0.197514 1.902819  0.000000 -0.000000 0.000000
75  -1.923793 -12.799380 -1.699540  1.570796 -0.000000 0.000000
76  -1.915770 -11.617895 -1.911009  1.570796 -0.000000 0.000000
77  -0.008021 -0.653744 0.060182  0.000000 -0.000000 0.000000
78  -0.008021 -1.155510 -0.087180  0.000000 -0.000000 0.000000
79  0.000000 -0.501765 -0.147367  0.000000 -0.000000 0.000000
80  0.000000 -1.003531 -0.294728  0.000000 -0.000000 0.000000
81  0.000000 -1.505297 -0.442090  0.000000 -0.000000 0.000000
82  0.000000 -2.007061 -0.589454  0.000000 -0.000000 0.000000
83  0.000000 -2.508827 -0.736814  0.000000 -0.000000 0.000000
84  0.000000 -2.772560 -0.939010  0.000000 -0.000000 0.000000
85  0.000000 -3.071457 -1.220325  0.000000 -0.000000 0.000000
86  -0.283371 -4.518086 -0.534134  0.346743 -0.000000 -0.000000
87  0.000000 0.993480 -0.063565  -0.012322 0.000000 0.000000
88  -1.923793 -12.799380 -1.699540  1.570796 -0.000000 0.000000
time 1
0  0.000006 0.000000 0.000000  -1.570800 -1.391899 -1.570792
1  -9.841317 -7.634221 1.937669  -1.544956 -1.855077 -0.198630
2  6.027525 -0.000329 0.000190  -0.323332 -1.472553 -1.662744
3  11.692113 0.000644 -0.000739  -0.990395 0.000005 -0.837275
4  11.480898 0.000640 -0.000359  0.998806 -0.394133 0.364679
5  3.666626 -0.163903 -1.204802  -0.519250 0.086737 -1.532179
6  1.312589 0.000010 0.000008  -0.003664 0.023356 -0.272237
7  0.729354 0.000055 0.000050  -0.003677 0.000626 -0.150723
8  3.942140 0.046332 -0.431543  -0.205965 0.132197 -1.449654
9  1.539111 0.000081 0.000003  -0.000570 0.007396 -0.283198
10  1.196332 0.000146 0.000028  -0.000713 0.000161 -0.519018
11  3.883509 -0.047211 0.431351  -0.042690 0.198097 -1.260493
12  1.719573 -0.000030 0.000017  -0.000644 0.003280 -0.404344
13  1.209179 0.000090 0.000012  -0.000905 0.002861 -0.623853
14  3.859675 -0.138418 1.332380  -0.235831 0.317274 -1.342437
15  1.719448 -0.000018 0.000029  0.001902 0.001157 -0.067177
16  1.099675 0.000049 0.000006  -0.000943 0.002399 -0.620101
17  0.459532 -0.272515 1.494839  -1.528877 -0.394735 -0.263833
18  1.789817 -0.000004 -0.000017  -0.005043 0.002467 0.111593
19  1.207016 -0.000012 -0.000045  -0.005634 -0.000693 0.835388
20  5.740635 0.000389 -0.000699  -0.126167 0.000003 0.000064
21  11.481187 0.000307 -0.000725  -0.095217 -0.075641 0.035945
22  6.027524 -0.000329 0.000201  1.534393 -0.091353 1.859017
23  -0.000001 11.692100 -0.000007  -0.612592 -0.163733 -0.507570
24  0.000001 0.000009 -0.000001  -0.121332 -0.000031 1.570738
25  -0.000001 -0.000011 -0.000000  0.868960 0.000002 1.570712
26  -6.899342 -10.734701 0.826813  1.473120 1.855075 -0.198639
27  6.027517 -0.000263 -0.000216  1.617360 1.232473 -0.602682
28  11.691992 0.000159 0.000859  0.139889 0.000016 -0.992251
29  11.480566 0.000030 0.000825  -1.354685 0.474919 0.469915
30  3.710775 -0.434234 1.096849  0.974897 -0.111756 -2.079603
31  1.312561 0.000031 -0.000001  0.008191 -0.088214 -0.285514
32  0.729346 0.000065 -0.000027  -0.132450 -0.134191 -1.087309
33  3.820805 -0.154608 0.327899  0.610805 -0.300364 -1.640271
34  1.539095 0.000003 -0.000001  0.047162 -0.047589 -0.892209
35  1.196302 0.000081 -0.000003  -0.021079 -0.009374 -1.253100
36  3.882445 -0.171892 -0.416804  0.406628 -0.376223 -1.253560
37  1.719565 -0.000084 -0.000005  0.018695 -0.082922 -1.374417
38  1.209194 0.000035 0.000011  0.003361 -0.003782 -0.857658
39  3.859584 -0.149082 -1.331322  0.052683 -0.238405 -0.449221
40  1.719413 -0.000097 -0.000037  0.031466 0.001818 -1.126076
41  1.099672 0.000022 0.000006  -0.005117 -0.008160 -0.712530
42  0.230503 -0.805067 -1.086893  1.111612 0.594062 -0.578210
43  1.789780 -0.000007 -0.000042  -0.089312 -0.070323 0.368341
44  1.206996 -0.000007 0.000005  0.000678 -0.214508 0.376132
45  5.740573 0.000079 0.000721  0.071061 -0.000014 0.000028
46  11.481057 0.000079 0.000910  0.023554 0.080849 0.071352
47  6.027515 -0.000273 -0.000229  -1.298772 -0.203726 -1.546179
48  -0.000001 11.691975 -0.000007  -0.715467 0.225359 0.587829
49  0.000003 -0.000000 0.000000  2.412441 -0.000036 1.570860
50  -0.000007 -0.000015 0.000005  2.272645 -0.000036 1.570861
51  -2.796484 -8.471674 -5.385239  -0.242310 -2.868031 1.324145
52  -0.000001 0.000000 0.000000  0.008153 -0.000259 0.000009
53  -0.000000 0.000000 -0.000000  1.565115 0.043565 -0.106862
54  0.352568 -10.286288 -6.406208  -0.597509 -0.055079 -1.893003
55  0.000000 -0.000000 0.000000  0.000000 -0.000001 -0.000002
56  0.000031 0.000029 0.000001  -1.571901 -0.044449 -0.106509
57  12.094105 -19.516987 -17.454052  1.570796 -0.000000 0.000000
58  -15.830263 3.810547 -21.859257  1.570796 -0.000000 0.000000
59  1.941978 9.263218 -8.327020  1.570796 -0.000000 0.000000
60  -0.004311 0.001229 -0.000372  0.006898 -0.005534 -0.284229
61  0.826810 11.791080 -4.879054  1.570796 -0.000000 0.000000
62  0.000000 0.000000 0.000000  -0.078727 -3.136056 0.284226
63  0.000000 0.000000 0.000000  1.569654 0.000682 -0.000698
64  -1.913221 -10.933683 -3.979197  1.587301 0.089702 0.053156
65  -0.008021 0.449003 2.449478  -0.000000 -0.000000 -0.000000
66  -0.008021 1.798499 0.936336  -0.000000 -0.000000 -0.000000
67  0.000001 2.151126 1.009987  -0.000000 -0.000000 -0.000000
68  -0.008023 1.347419 0.085286  -1.051149 0.001216 0.000412
69  0.230628 1.332312 3.105305  0.175653 -0.000000 -0.000000
70  -0.008023 2.211807 7.723073  -0.028798 -0.000000 -0.000000
71  -0.008022 1.228065 5.810776  -0.000000 -0.000000 -0.000000
72  -0.008022 1.115505 -0.313082  -0.000000 -0.000000 -0.000000
73  -0.008023 1.345870 0.084164  1.570796 -0.000000 -0.000000
74  -0.008022 0.197513 1.902819  -0.000000 -0.000000 -0.000000
75  -1.627272 -12.866920 -1.856918  1.587301 0.089702 0.053156
76  -1.699412 -11.684269 -2.048805  1.587301 0.089702 0.053156
77  -0.008022 -0.653745 0.060183  -0.000000 -0.000000 -0.000000
78  -0.008021 -1.155510 -0.087179  -0.000000 -0.000000 -0.000000
79  0.000000 -0.501765 -0.147365  -0.000000 -0.000000 -0.000000
80  -0.000000 -1.003531 -0.294729  -0.000000 -0.000000 -0.000000
81  0.000000 -1.505297 -0.442091  -0.000000 -0.000000 -0.000000
82  0.000000 -2.007061 -0.589453  -0.000000 -0.000000 -0.000000
83  0.000000 -2.508827 -0.736813  -0.000000 -0.000000 -0.000000
84  0.000000 -2.772560 -0.939009  -0.000000 -0.000000 -0.000000
85  -0.000000 -3.071457 -1.220324  -0.000000 -0.000000 -0.000000
86  -0.283371 -4.518086 -0.534133  0.346743 -0.000000 -0.000000
87  0.000000 0.993480 -0.063564  -0.012322 0.000000 0.000000
88  -1.627272 -12.866920 -1.856918  1.587301 0.089702 0.053156
time 2
0  0.000006 0.000000 0.000000  -1.570800 -1.391899 -1.570792
1  -9.841317 -7.634221 1.937669  -1.544956 -1.855077 -0.198630
2  6.027524 -0.000328 0.000190  -0.725528 -1.416694 -1.217933
3  11.692112 0.000646 -0.000739  -0.990398 0.000004 -0.874401
4  11.480721 0.000605 -0.000415  0.891370 -0.520600 0.237158
5  3.666628 -0.163903 -1.204802  -0.519250 0.086737 -1.532179
6  1.312590 0.000009 0.000008  -0.003664 0.023356 -0.272237
7  0.729354 0.000054 0.000049  -0.003677 0.000626 -0.150723
8  3.942142 0.046332 -0.431543  -0.205965 0.132197 -1.449654
9  1.539111 0.000082 0.000004  -0.000570 0.007396 -0.283198
10  1.196332 0.000144 0.000029  -0.000713 0.000161 -0.519018
11  3.883511 -0.047211 0.431351  -0.042690 0.198097 -1.260493
12  1.719573 -0.000028 0.000016  -0.000644 0.003280 -0.404344
13  1.209178 0.000089 0.000012  -0.000905 0.002861 -0.623853
14  3.859678 -0.138417 1.332380  -0.235831 0.317274 -1.342437
15  1.719448 -0.000017 0.000029  0.001902 0.001157 -0.067177
16  1.099675 0.000049 0.000006  -0.000943 0.002399 -0.620101
17  0.459534 -0.272515 1.494839  -1.528877 -0.394734 -0.263833
18  1.789820 -0.000003 -0.000015  -0.005043 0.002467 0.111593
19  1.207017 -0.000012 -0.000043  -0.005634 -0.000693 0.835388
20  5.740636 0.000389 -0.000699  -0.151310 0.000003 0.000063
21  11.481153 0.000300 -0.000736  -0.113738 -0.096934 -0.001292
22  6.027524 -0.000329 0.000201  1.574478 -0.154143 1.899685
23  0.000001 11.692100 -0.000008  -0.637595 -0.177758 -0.527291
24  0.000003 0.000008 -0.000000  -0.121332 -0.000030 1.570739
25  -0.000000 -0.000011 -0.000000  0.868960 0.000002 1.570712
26  -6.899342 -10.734701 0.826813  1.473120 1.855075 -0.198639
27  6.027515 -0.000263 -0.000216  1.724311 1.221887 -0.386414
28  11.691991 0.000162 0.000858  0.139887 0.000015 -0.971020
29  11.480680 0.000079 0.000818  -1.482154 0.337312 0.408209
30  3.710775 -0.434234 1.096849  0.974897 -0.111756 -2.079603
31  1.312560 0.000033 0.000000  0.008191 -0.088214 -0.285514
32  0.729348 0.000066 -0.000027  -0.132450 -0.134191 -1.087309
33  3.820807 -0.154608 0.327900  0.610805 -0.300363 -1.640271
34  1.539096 0.000005 -0.000001  0.047162 -0.047589 -0.892209
35  1.196303 0.000078 -0.000004  -0.021079 -0.009374 -1.253100
36  3.882447 -0.171892 -0.416804  0.406628 -0.376223 -1.253560
37  1.719565 -0.000084 -0.000005  0.018695 -0.082922 -1.374417
38  1.209193 0.000034 0.000011  0.003361 -0.003782 -0.857658
39  3.859585 -0.149081 -1.331322  0.052683 -0.238405 -0.449221
40  1.719413 -0.000097 -0.000037  0.031466 0.001819 -1.126076
41  1.099673 0.000022 0.000006  -0.005117 -0.008160 -0.712530
42  0.230505 -0.805067 -1.086893  1.111612 0.594062 -0.578210
43  1.789779 -0.000008 -0.000042  -0.089312 -0.070323 0.368341
44  1.206995 -0.000007 0.000005  0.000678 -0.214508 0.376132
45  5.740573 0.000080 0.000721  0.038989 -0.000014 0.000028
46  11.481079 0.000090 0.000908  0.007115 0.048527 0.067569
47  6.027515 -0.000273 -0.000229  -1.269805 -0.179225 -1.436136
48  -0.000000 11.691973 -0.000008  -0.701590 0.216440 0.577161
49  0.000003 -0.000001 -0.000001  2.412441 -0.000036 1.570860
50  -0.000006 -0.000013 0.000004  2.272645 -0.000036 1.570861
51  -3.272790 -8.630468 -5.332762  2.634087 -0.279875 -1.668759
52  -0.000000 -0.000000 -0.000000  0.008153 -0.000259 0.000009
53  0.000000 0.000000 0.000000  1.565115 0.043565 -0.106862
54  0.810608 -10.459698 -7.726768  -0.741299 -0.116498 -1.751638
55  -0.000001 -0.000000 -0.000001  0.000000 -0.000001 -0.000002
56  0.000029 0.000028 0.000001  -1.571901 -0.044449 -0.106509
57  12.376737 -19.434731 -18.080593  1.570796 -0.000000 0.000000
58  -17.030161 3.256985 -19.581371  1.570796 -0.000000 0.000000
59  1.941978 9.263218 -8.327020  1.570796 -0.000000 0.000000
60  -0.004311 0.001229 -0.000372  0.006898 -0.005534 -0.284229
61  0.826810 11.791080 -4.879054  1.570796 -0.000000 0.000000
62  0.000000 0.000000 0.000000  -0.078727 -3.136056 0.284226
63  0.000000 0.000000 0.000000  1.567138 0.002180 -0.002235
64  -1.895368 -11.052668 -4.305988  1.650598 0.337263 0.142514
65  -0.008022 0.449004 2.449476  -0.000000 -0.000000 0.000000
66  -0.008021 1.798499 0.936336  -0.000000 -0.000000 0.000000
67  0.000000 2.151127 1.009987  -0.000000 -0.000000 0.000000
68  -0.008023 1.347419 0.085284  -1.051149 0.001216 0.000412
69  0.230627 1.332312 3.105304  0.175653 -0.000000 -0.000000
70  -0.008024 2.211807 7.723072  -0.028798 -0.000000 0.000000
71  -0.008022 1.228065 5.810773  -0.000000 -0.000000 0.000000
72  -0.008023 1.115505 -0.313083  -0.000000 -0.000000 0.000000
73  -0.008023 1.345870 0.084163  1.570796 -0.000000 -0.000000
74  -0.008023 0.197514 1.902817  -0.000000 -0.000000 0.000000
75  -0.951912 -13.015102 -2.413377  1.650598 0.337263 0.142514
76  -1.152283 -11.837039 -2.526074  1.650598 0.337263 0.142514
77  -0.008022 -0.653744 0.060182  -0.000000 -0.000000 0.000000
78  -0.008021 -1.155510 -0.087180  -0.000000 -0.000000 0.000000
79  0.000000 -0.501765 -0.147367  -0.000000 -0.000000 0.000000
80  0.000000 -1.003531 -0.294727  -0.000000 -0.000000 0.000000
81  0.000000 -1.505297 -0.442090  -0.000000 -0.000000 0.000000
82  0.000000 -2.007061 -0.589454  -0.000000 -0.000000 0.000000
83  0.000000 -2.508827 -0.736814  -0.000000 -0.000000 0.000000
84  0.000000 -2.772560 -0.939009  -0.000000 -0.000000 0.000000
85  0.000000 -3.071456 -1.220325  -0.000000 -0.000000 0.000000
86  -0.283371 -4.518086 -0.534133  0.346743 -0.000000 -0.000000
87  0.000000 0.993481 -0.063565  -0.012321 0.000000 0.000000
88  -0.951912 -13.015102 -2.413377  1.650598 0.337263 0.142514
time 3
0  0.000006 0.000000 0.000000  -1.570800 -1.391899 -1.570792
1  -9.841317 -7.634221 1.937669  -1.544956 -1.855077 -0.198630
2  6.027524 -0.000327 0.000190  -0.769020 -1.333323 -1.055220
3  11.692113 0.000646 -0.000739  -0.990399 0.000003 -0.897541
4  11.480625 0.000583 -0.000447  0.723372 -0.720324 0.106911
5  3.666628 -0.163902 -1.204802  -0.519250 0.086737 -1.532179
6  1.312590 0.000009 0.000007  -0.003664 0.023357 -0.272237
7  0.729355 0.000053 0.000049  -0.003677 0.000626 -0.150723
8  3.942141 0.046331 -0.431542  -0.205965 0.132197 -1.449654
9  1.539110 0.000082 0.000003  -0.000570 0.007396 -0.283198
10  1.196332 0.000146 0.000028  -0.000713 0.000161 -0.519018
11  3.883511 -0.047211 0.431351  -0.042690 0.198097 -1.260493
12  1.719572 -0.000028 0.000017  -0.000644 0.003280 -0.404344
13  1.209179 0.000091 0.000012  -0.000905 0.002861 -0.623853
14  3.859677 -0.138418 1.332381  -0.235831 0.317274 -1.342437
15  1.719449 -0.000018 0.000029  0.001902 0.001157 -0.067177
16  1.099676 0.000047 0.000006  -0.000943 0.002399 -0.620101
17  0.459533 -0.272516 1.494840  -1.528877 -0.394735 -0.263833
18  1.789818 -0.000004 -0.000018  -0.005043 0.002467 0.111593
19  1.207018 -0.000012 -0.000044  -0.005634 -0.000693 0.835388
20  5.740636 0.000389 -0.000700  -0.179989 0.000003 0.000063
21  11.481133 0.000295 -0.000742  -0.141328 -0.130224 -0.049880
22  6.027524 -0.000329 0.000201  1.587046 -0.237011 2.017256
23  -0.000001 11.692099 -0.000007  -0.653069 -0.186743 -0.539427
24  0.000003 0.000009 -0.000001  -0.121332 -0.000031 1.570739
25  -0.000001 -0.000012 0.000001  0.868960 0.000002 1.570712
26  -6.899342 -10.734701 0.826813  1.473120 1.855075 -0.198639
27  6.027513 -0.000264 -0.000216  1.842296 1.212919 -0.086816
28  11.691990 0.000163 0.000859  0.139885 0.000013 -0.924487
29  11.480087 -0.000131 0.000849  -1.594748 0.173788 0.348557
30  3.710776 -0.434235 1.096849  0.974897 -0.111756 -2.079603
31  1.312561 0.000032 0.000000  0.008191 -0.088214 -0.285514
32  0.729348 0.000065 -0.000027  -0.132450 -0.134191 -1.087309
33  3.820806 -0.154609 0.327899  0.610805 -0.300364 -1.640271
34  1.539095 0.000005 -0.000002  0.047162 -0.047589 -0.892209
35  1.196301 0.000082 -0.000004  -0.021079 -0.009374 -1.253100
36  3.882446 -0.171892 -0.416804  0.406628 -0.376223 -1.253560
37  1.719565 -0.000082 -0.000005  0.018695 -0.082922 -1.374417
38  1.209194 0.000034 0.000011  0.003361 -0.003782 -0.857658
39  3.859585 -0.149081 -1.331322  0.052683 -0.238405 -0.449221
40  1.719412 -0.000097 -0.000037  0.031466 0.001819 -1.126076
41  1.099673 0.000022 0.000006  -0.005117 -0.008160 -0.712530
42  0.230504 -0.805067 -1.086893  1.111612 0.594062 -0.578210
43  1.789780 -0.000008 -0.000042  -0.089312 -0.070323 0.368341
44  1.206994 -0.000007 0.000006  0.000678 -0.214508 0.376132
45  5.740573 0.000079 0.000720  0.009130 -0.000014 0.000028
46  11.480962 0.000048 0.000915  -0.008067 0.012255 0.060231
47  6.027515 -0.000273 -0.000229  -1.243196 -0.146722 -1.251567
48  -0.000001 11.691975 -0.000008  -0.670930 0.197404 0.553416
49  0.000003 0.000000 0.000001  2.412441 -0.000036 1.570860
50  -0.000007 -0.000012 0.000004  2.272645 -0.000036 1.570861
51  -3.651327 -8.894147 -5.169588  2.297955 -0.226344 -1.500322
52  -0.000001 0.000000 0.000000  0.008153 -0.000259 0.000009
53  0.000000 0.000000 0.000000  1.565115 0.043565 -0.106862
54  0.927560 -10.511154 -10.008448  -0.898752 -0.134321 -1.557224
55  0.000000 0.000000 0.000000  0.000000 -0.000001 -0.000002
56  0.000030 0.000029 0.000002  -1.571901 -0.044449 -0.106509
57  12.844657 -19.298550 -19.117878  1.570796 -0.000000 0.000000
58  -18.755093 2.461205 -16.306768  1.570796 -0.000000 0.000000
59  1.941978 9.263218 -8.327020  1.570796 -0.000000 0.000000
60  -0.004311 0.001229 -0.000372  0.006898 -0.005534 -0.284229
61  0.826810 11.791080 -4.879054  1.570796 -0.000000 0.000000
62  0.000000 0.000000 0.000000  -0.078727 -3.136056 0.284226
63  0.000000 0.000000 0.000000  1.564621 0.003674 -0.003777
64  -1.846913 -11.223916 -4.802349  1.793313 0.642298 0.294013
65  -0.008022 0.449004 2.449478  0.000000 0.000000 -0.000000
66  -0.008021 1.798499 0.936338  0.000000 0.000000 -0.000000
67  0.000000 2.151127 1.009988  0.000000 0.000000 -0.000000
68  -0.008023 1.347420 0.085286  -1.051149 0.001216 0.000412
69  0.230627 1.332312 3.105305  0.175653 0.000000 -0.000000
70  -0.008024 2.211807 7.723074  -0.028798 0.000000 -0.000000
71  -0.008022 1.228065 5.810778  0.000000 0.000000 -0.000000
72  -0.008023 1.115505 -0.313082  0.000000 0.000000 -0.000000
73  -0.008023 1.345871 0.084164  1.570796 0.000000 -0.000000
74  -0.008023 0.197513 1.902819  0.000000 0.000000 -0.000000
75  -0.207602 -13.172768 -3.446665  1.793313 0.642298 0.294013
76  -0.517690 -12.013876 -3.407847  1.793313 0.642298 0.294013
77  -0.008022 -0.653745 0.060181  0.000000 0.000000 -0.000000
78  -0.008022 -1.155511 -0.087181  0.000000 0.000000 -0.000000
79  -0.000000 -0.501766 -0.147366  0.000000 0.000000 -0.000000
80  -0.000000 -1.003531 -0.294729  0.000000 0.000000 -0.000000
81  -0.000000 -1.505297 -0.442090  0.000000 0.000000 -0.000000
82  -0.000000 -2.007061 -0.589454  0.000000 0.000000 -0.000000
83  -0.000001 -2.508827 -0.736814  0.000000 0.000000 -0.000000
84  -0.000001 -2.772561 -0.939010  0.000000 0.000000 -0.000000
85  -0.000001 -3.071457 -1.220324  0.000000 0.000000 -0.000000
86  -0.283372 -4.518086 -0.534135  0.346743 -0.000000 -0.000000
87  -0.000001 0.993481 -0.063565  -0.012322 0.000000 -0.000000
88  -0.207602 -13.172768 -3.446665  1.793313 0.642298 0.294013
time 4
0  0.000006 0.000000 0.000000  -1.570800 -1.391899 -1.570792
1  -9.841317 -7.634221 1.937669  -1.544956 -1.855077 -0.198630
2  6.027523 -0.000326 0.000191  -0.582722 -1.274144 -1.099459
3  11.692112 0.000643 -0.000738  -0.990399 0.000003 -0.885111
4  11.480677 0.000594 -0.000430  0.530193 -0.936987 0.101955
5  3.666627 -0.163903 -1.204802  -0.519250 0.086737 -1.532179
6  1.312591 0.000009 0.000008  -0.003664 0.023356 -0.272237
7  0.729356 0.000054 0.000048  -0.003677 0.000626 -0.150723
8  3.942140 0.046331 -0.431543  -0.205965 0.132196 -1.449654
9  1.539110 0.000082 0.000004  -0.000570 0.007396 -0.283198
10  1.196332 0.000148 0.000027  -0.000713 0.000161 -0.519019
11  3.883511 -0.047212 0.431351  -0.042690 0.198097 -1.260493
12  1.719572 -0.000029 0.000016  -0.000644 0.003280 -0.404344
13  1.209181 0.000089 0.000012  -0.000905 0.002861 -0.623853
14  3.859676 -0.138418 1.332380  -0.235831 0.317274 -1.342437
15  1.719449 -0.000020 0.000028  0.001902 0.001157 -0.067177
16  1.099676 0.000047 0.000005  -0.000943 0.002399 -0.620101
17  0.459532 -0.272516 1.494839  -1.528877 -0.394734 -0.263833
18  1.789819 -0.000004 -0.000016  -0.005043 0.002467 0.111593
19  1.207016 -0.000012 -0.000046  -0.005634 -0.000693 0.835388
20  5.740635 0.000389 -0.000698  -0.193660 0.000003 0.000063
21  11.481142 0.000300 -0.000739  -0.162855 -0.170401 -0.084294
22  6.027524 -0.000329 0.000201  1.534490 -0.294571 2.166637
23  0.000000 11.692100 -0.000008  -0.644767 -0.181894 -0.532923
24  0.000002 0.000008 0.000000  -0.121332 -0.000031 1.570739
25  0.000000 -0.000012 0.000000  0.868960 0.000002 1.570712
26  -6.899342 -10.734701 0.826813  1.473120 1.855075 -0.198639
27  6.027511 -0.000265 -0.000216  1.919720 1.214360 0.192946
28  11.691990 0.000161 0.000859  0.139880 0.000010 -0.855267
29  11.480731 0.000117 0.000816  -1.640775 0.024271 0.291836
30  3.710774 -0.434235 1.096848  0.974897 -0.111756 -2.079603
31  1.312561 0.000031 -0.000000  0.008191 -0.088214 -0.285514
32  0.729347 0.000067 -0.000028  -0.132450 -0.134191 -1.087309
33  3.820806 -0.154609 0.327900  0.610805 -0.300364 -1.640271
34  1.539095 0.000004 -0.000001  0.047162 -0.047589 -0.892209
35  1.196302 0.000080 -0.000004  -0.021079 -0.009374 -1.253100
36  3.882446 -0.171892 -0.416805  0.406628 -0.376223 -1.253560
37  1.719566 -0.000083 -0.000005  0.018695 -0.082922 -1.374417
38  1.209193 0.000035 0.000011  0.003361 -0.003782 -0.857658
39  3.859584 -0.149082 -1.331323  0.052683 -0.238405 -0.449221
40  1.719411 -0.000098 -0.000037  0.031466 0.001818 -1.126076
41  1.099672 0.000021 0.000006  -0.005117 -0.008160 -0.712530
42  0.230503 -0.805067 -1.086893  1.111612 0.594062 -0.578210
43  1.789780 -0.000007 -0.000041  -0.089312 -0.070323 0.368341
44  1.206994 -0.000007 0.000005  0.000678 -0.214508 0.376132
45  5.740573 0.000077 0.000721  -0.004699 -0.000013 0.000028
46  11.481091 0.000096 0.000908  -0.012653 -0.018568 0.049191
47  6.027515 -0.000273 -0.000229  -1.234697 -0.120963 -1.045482
48  -0.000001 11.691975 -0.000007  -0.624689 0.170437 0.517175
49  0.000002 0.000000 0.000001  2.412441 -0.000036 1.570860
50  -0.000007 -0.000014 0.000005  2.272645 -0.000036 1.570861
51  -3.734855 -9.240782 -5.086716  2.028724 -0.111319 -1.377531
52  0.000000 0.000000 0.000000  0.008153 -0.000259 0.000009
53  -0.000001 -0.000000 0.000000  1.565115 0.043565 -0.106862
54  0.452955 -10.268618 -12.348646  -0.972343 -0.081065 -1.380270
55  0.000001 0.000001 0.000001  0.000000 -0.000001 -0.000002
56  0.000031 0.000029 0.000003  -1.571901 -0.044449 -0.106509
57  13.482027 -19.113049 -20.530800  1.570796 -0.000000 0.000000
58  -20.480022 1.665425 -13.032165  1.570796 -0.000000 0.000000
59  1.941978 9.263218 -8.327020  1.570796 -0.000000 0.000000
60  -0.004311 0.001229 -0.000372  0.006898 -0.005534 -0.284229
61  0.826810 11.791080 -4.879054  1.570796 -0.000000 0.000000
62  0.000000 0.000000 0.000000  -0.078727 -3.136056 0.284226
63  0.000000 0.000000 0.000000  1.563475 0.004351 -0.004479
64  -1.752552 -11.425290 -5.428770  2.047076 0.865828 0.546534
65  -0.008022 0.449004 2.449476  0.000000 -0.000000 0.000000
66  -0.008020 1.798499 0.936336  0.000000 -0.000000 0.000000
67  0.000001 2.151127 1.009985  0.000000 -0.000000 0.000000
68  -0.008022 1.347420 0.085285  -1.051149 0.001216 0.000412
69  0.230628 1.332312 3.105303  0.175653 -0.000000 -0.000000
70  -0.008024 2.211807 7.723071  -0.028798 -0.000000 0.000000
71  -0.008022 1.228065 5.810776  0.000000 -0.000000 0.000000
72  -0.008022 1.115505 -0.313083  0.000000 -0.000000 0.000000
73  -0.008023 1.345870 0.084164  1.570796 -0.000000 -0.000000
74  -0.008023 0.197514 1.902818  0.000000 -0.000000 0.000000
75  0.320802 -13.311321 -4.745152  2.047076 0.865828 0.546534
76  -0.040679 -12.188718 -4.522031  2.047076 0.865828 0.546534
77  -0.008021 -0.653745 0.060181  0.000000 -0.000000 0.000000
78  -0.008021 -1.155510 -0.087180  0.000000 -0.000000 0.000000
79  -0.000000 -0.501766 -0.147367  0.000000 -0.000000 0.000000
80  0.000000 -1.003531 -0.294728  0.000000 -0.000000 0.000000
81  0.000000 -1.505297 -0.442089  0.000000 -0.000000 0.000000
82  0.000001 -2.007061 -0.589454  0.000000 -0.000000 0.000000
83  0.000001 -2.508827 -0.736815  0.000000 -0.000000 0.000000
84  0.000000 -2.772560 -0.939009  0.000000 -0.000000 0.000000
85  -0.000000 -3.071457 -1.220324  0.000000 -0.000000 0.000000
86  -0.283371 -4.518087 -0.534134  0.346743 -0.000000 -0.000000
87  0.000001 0.993479 -0.063563  -0.012322 0.000000 0.000000
88  0.320802 -13.311321 -4.745152  2.047076 0.865828 0.546534
time 5
0  0.000006 0.000000 0.000000  -1.570800 -1.391899 -1.570792
1  -9.841317 -7.634221 1.937669  -1.544956 -1.855077 -0.198630
2  6.027523 -0.000326 0.000191  -0.472063 -1.218717 -1.142013
3  11.692111 0.000646 -0.000740  -0.990399 0.000003 -0.898947
4  11.480618 0.000580 -0.000446  0.402696 -1.080988 0.215645
5  3.666627 -0.163904 -1.204802  -0.519250 0.086737 -1.532179
6  1.312591 0.000007 0.000008  -0.003664 0.023357 -0.272237
7  0.729356 0.000053 0.000050  -0.003677 0.000626 -0.150723
8  3.942140 0.046330 -0.431543  -0.205965 0.132196 -1.449654
9  1.539111 0.000082 0.000005  -0.000570 0.007396 -0.283198
10  1.196333 0.000145 0.000029  -0.000713 0.000161 -0.519018
11  3.883511 -0.047213 0.431350  -0.042690 0.198097 -1.260493
12  1.719573 -0.000029 0.000016  -0.000644 0.003280 -0.404344
13  1.209179 0.000091 0.000012  -0.000905 0.002861 -0.623854
14  3.859676 -0.138418 1.332380  -0.235831 0.317274 -1.342437
15  1.719449 -0.000020 0.000028  0.001902 0.001157 -0.067177
16  1.099676 0.000049 0.000007  -0.000943 0.002399 -0.620101
17  0.459534 -0.272516 1.494839  -1.528877 -0.394735 -0.263833
18  1.789819 -0.000004 -0.000015  -0.005043 0.002467 0.111593
19  1.207017 -0.000013 -0.000045  -0.005634 -0.000693 0.835388
20  5.740634 0.000387 -0.000698  -0.185551 0.000003 0.000063
21  11.481128 0.000296 -0.000742  -0.162743 -0.202246 -0.091793
22  6.027524 -0.000329 0.000201  1.487316 -0.342524 2.243803
23  0.000000 11.692098 -0.000009  -0.654006 -0.187295 -0.540160
24  0.000004 0.000009 0.000000  -0.121332 -0.000030 1.570739
25  0.000000 -0.000012 -0.000001  0.868960 0.000002 1.570712
26  -6.899342 -10.734701 0.826813  1.473120 1.855075 -0.198639
27  6.027511 -0.000266 -0.000216  1.948395 1.237669 0.371677
28  11.691989 0.000161 0.000858  0.139875 0.000007 -0.772265
29  11.480724 0.000135 0.000814  -1.640140 -0.099413 0.240755
30  3.710775 -0.434235 1.096849  0.974897 -0.111756 -2.079603
31  1.312560 0.000030 0.000001  0.008191 -0.088214 -0.285514
32  0.729348 0.000066 -0.000027  -0.132450 -0.134191 -1.087309
33  3.820807 -0.154609 0.327900  0.610805 -0.300364 -1.640271
34  1.539095 0.000004 -0.000001  0.047162 -0.047589 -0.892209
35  1.196303 0.000081 -0.000003  -0.021079 -0.009374 -1.253100
36  3.882447 -0.171892 -0.416804  0.406628 -0.376223 -1.253560
37  1.719565 -0.000082 -0.000005  0.018695 -0.082922 -1.374417
38  1.209193 0.000034 0.000011  0.003361 -0.003782 -0.857658
39  3.859584 -0.149082 -1.331322  0.052683 -0.238405 -0.449221
40  1.719411 -0.000098 -0.000037  0.031466 0.001818 -1.126076
41  1.099673 0.000023 0.000006  -0.005117 -0.008160 -0.712530
42  0.230505 -0.805067 -1.086893  1.111612 0.594062 -0.578210
43  1.789779 -0.000009 -0.000042  -0.089312 -0.070323 0.368341
44  1.206995 -0.000007 0.000004  0.000678 -0.214508 0.376132
45  5.740572 0.000079 0.000721  -0.006426 -0.000014 0.000028
46  11.481090 0.000101 0.000908  -0.009886 -0.042861 0.038030
47  6.027515 -0.000273 -0.000229  -1.253894 -0.104432 -0.891582
48  -0.000001 11.691975 -0.000008  -0.568232 0.140337 0.472310
49  0.000002 0.000000 0.000000  2.412441 -0.000036 1.570860
50  -0.000008 -0.000014 0.000005  2.272645 -0.000036 1.570861
51  -3.593287 -9.625238 -5.253760  1.883617 0.023356 -1.313838
52  0.000001 0.000000 -0.000000  0.008153 -0.000259 0.000009
53  0.000001 -0.000000 0.000000  1.565115 0.043565 -0.106862
54  0.049219 -9.786331 -13.900614  -0.939104 -0.003159 -1.270106
55  -0.000001 -0.000001 0.000000  0.000000 -0.000001 -0.000002
56  0.000030 0.000028 0.000002  -1.571902 -0.044449 -0.106509
57  14.257805 -18.887272 -22.250546  1.570796 -0.000000 0.000000
58  -21.679920 1.111863 -10.754281  1.570796 -0.000000 0.000000
59  1.941978 9.263218 -8.327020  1.570796 -0.000000 0.000000
60  -0.004311 0.001229 -0.000372  0.006898 -0.005534 -0.284229
61  0.826810 11.791080 -4.879054  1.570796 -0.000000 0.000000
62  0.000000 0.000000 0.000000  -0.078727 -3.136056 0.284226
63  0.000000 0.000000 0.000000  1.563727 0.004203 -0.004325
64  -1.596984 -11.634651 -6.145741  2.346200 0.935395 0.839063
65  -0.008022 0.449004 2.449477  0.000000 -0.000000 0.000000
66  -0.008021 1.798499 0.936336  0.000000 -0.000000 0.000000
67  0.000000 2.151127 1.009986  0.000000 -0.000000 0.000000
68  -0.008023 1.347419 0.085286  -1.051149 0.001216 0.000412
69  0.230628 1.332312 3.105305  0.175653 0.000000 0.000000
70  -0.008023 2.211807 7.723070  -0.028798 -0.000000 0.000000
71  -0.008023 1.228065 5.810776  0.000000 -0.000000 0.000000
72  -0.008023 1.115505 -0.313082  0.000000 -0.000000 0.000000
73  -0.008022 1.345870 0.084164  1.570796 0.000000 -0.000000
74  -0.008023 0.197514 1.902818  0.000000 -0.000000 0.000000
75  0.651970 -13.437084 -6.016592  2.346200 0.935395 0.839063
76  0.280794 -12.366067 -5.621827  2.346200 0.935395 0.839063
77  -0.008022 -0.653744 0.060181  0.000000 -0.000000 0.000000
78  -0.008021 -1.155510 -0.087180  0.000000 -0.000000 0.000000
79  -0.000001 -0.501766 -0.147366  0.000000 -0.000000 0.000000
80  0.000000 -1.003531 -0.294728  0.000000 -0.000000 0.000000
81  0.000000 -1.505297 -0.442089  0.000000 -0.000000 0.000000
82  -0.000000 -2.007061 -0.589453  0.000000 -0.000000 0.000000
83  -0.000001 -2.508827 -0.736814  0.000000 -0.000000 0.000000
84  -0.000001 -2.772561 -0.939009  0.000000 -0.000000 0.000000
85  0.000000 -3.071458 -1.220324  0.000000 -0.000000 0.000000
86  -0.283372 -4.518086 -0.534135  0.346743 -0.000000 -0.000000
87  0.000000 0.993479 -0.063565  -0.012322 0.000000 0.000000
88  0.651970 -13.437084 -6.016592  2.346200 0.935395 0.839063
time 6
0  0.000006 0.000000 0.000000  -1.570800 -1.391899 -1.570792
1  -9.841317 -7.634221 1.937669  -1.544956 -1.855077 -0.198630
2  6.027522 -0.000325 0.000191  -0.575659 -1.138286 -1.029215
3  11.692111 0.000643 -0.000739  -0.990406 -0.000000 -0.994005
4  11.480648 0.000571 -0.000460  0.513917 -1.156387 0.266629
5  3.666628 -0.163904 -1.204803  -0.519250 0.086737 -1.532179
6  1.312591 0.000007 0.000008  -0.003664 0.023357 -0.272237
7  0.729356 0.000052 0.000049  -0.003677 0.000626 -0.150723
8  3.942140 0.046329 -0.431542  -0.205965 0.132196 -1.449654
9  1.539110 0.000083 0.000004  -0.000570 0.007396 -0.283198
10  1.196332 0.000146 0.000029  -0.000713 0.000161 -0.519018
11  3.883510 -0.047214 0.431351  -0.042690 0.198097 -1.260493
12  1.719573 -0.000029 0.000016  -0.000644 0.003280 -0.404344
13  1.209177 0.000090 0.000011  -0.000905 0.002861 -0.623853
14  3.859676 -0.138419 1.332379  -0.235831 0.317274 -1.342436
15  1.719448 -0.000018 0.000028  0.001902 0.001157 -0.067177
16  1.099676 0.000048 0.000006  -0.000943 0.002399 -0.620101
17  0.459532 -0.272516 1.494839  -1.528877 -0.394734 -0.263833
18  1.789819 -0.000003 -0.000016  -0.005043 0.002467 0.111593
19  1.207016 -0.000013 -0.000044  -0.005634 -0.000693 0.835388
20  5.740636 0.000387 -0.000699  -0.151105 0.000003 0.000063
21  11.481133 0.000295 -0.000745  -0.133088 -0.217922 -0.079480
22  6.027524 -0.000329 0.000201  1.512765 -0.428927 2.251202
23  -0.000001 11.692098 -0.000007  -0.716661 -0.226134 -0.588690
24  0.000002 0.000008 -0.000000  -0.121333 -0.000030 1.570739
25  -0.000001 -0.000012 0.000001  0.868960 0.000002 1.570712
26  -6.899342 -10.734701 0.826813  1.473120 1.855075 -0.198639
27  6.027511 -0.000266 -0.000216  1.936439 1.282308 0.425542
28  11.691991 0.000162 0.000859  0.139870 0.000004 -0.684931
29  11.480795 0.000171 0.000808  -1.612365 -0.197485 0.207750
30  3.710775 -0.434236 1.096848  0.974897 -0.111756 -2.079603
31  1.312559 0.000031 -0.000000  0.008191 -0.088214 -0.285514
32  0.729347 0.000065 -0.000029  -0.132450 -0.134191 -1.087309
33  3.820807 -0.154609 0.327899  0.610805 -0.300364 -1.640271
34  1.539096 0.000004 -0.000001  0.047162 -0.047589 -0.892209
35  1.196302 0.000080 -0.000003  -0.021079 -0.009374 -1.253100
36  3.882446 -0.171893 -0.416805  0.406628 -0.376223 -1.253560
37  1.719566 -0.000083 -0.000005  0.018695 -0.082922 -1.374417
38  1.209194 0.000035 0.000011  0.003361 -0.003782 -0.857658
39  3.859585 -0.149082 -1.331322  0.052683 -0.238405 -0.449221
40  1.719411 -0.000097 -0.000037  0.031466 0.001819 -1.126076
41  1.099673 0.000024 0.000006  -0.005117 -0.008160 -0.712530
42  0.230504 -0.805067 -1.086893  1.111612 0.594063 -0.578210
43  1.789779 -0.000007 -0.000043  -0.089312 -0.070323 0.368341
44  1.206995 -0.000007 0.000005  0.000678 -0.214508 0.376132
45  5.740573 0.000079 0.000720  -0.001087 -0.000014 0.000028
46  11.481104 0.000108 0.000907  -0.002734 -0.061617 0.030718
47  6.027515 -0.000273 -0.000229  -1.297680 -0.094060 -0.821992
48  0.000000 11.691976 -0.000008  -0.507648 0.111448 0.423515
49  0.000002 0.000000 -0.000001  2.412441 -0.000036 1.570860
50  -0.000007 -0.000013 0.000004  2.272645 -0.000036 1.570861
51  -3.357576 -9.993485 -5.699013  1.862265 0.145927 -1.288369
52  -0.000000 -0.000001 0.000000  0.008153 -0.000259 0.000009
53  0.000001 -0.000001 -0.000000  1.565115 0.043565 -0.106862
54  0.487786 -9.188684 -14.843456  -0.781342 0.041559 -1.220694
55  -0.000001 0.000000 -0.000002  0.000000 -0.000001 -0.000002
56  0.000030 0.000029 -0.000001  -1.571902 -0.044449 -0.106509
57  15.125046 -18.634876 -24.173042  1.570796 -0.000000 0.000000
58  -22.092199 0.921662 -9.971610  1.570796 -0.000000 0.000000
59  1.941978 9.263218 -8.327020  1.570796 -0.000000 0.000000
60  -0.004311 0.001229 -0.000372  0.006898 -0.005534 -0.284229
61  0.826810 11.791080 -4.879054  1.570796 -0.000000 0.000000
62  0.000000 0.000000 0.000000  -0.078727 -3.136056 0.284226
63  0.000000 0.000000 0.000000  1.564400 0.003804 -0.003912
64  -1.364907 -11.829861 -6.913754  2.525154 0.877573 1.007441
65  -0.008022 0.449003 2.449477  -0.000000 -0.000000 0.000000
66  -0.008021 1.798499 0.936336  -0.000000 -0.000000 0.000000
67  0.000001 2.151126 1.009986  -0.000000 -0.000000 0.000000
68  -0.008023 1.347420 0.085285  -1.051149 0.001216 0.000412
69  0.230627 1.332312 3.105304  0.175652 -0.000000 -0.000000
70  -0.008025 2.211807 7.723071  -0.028798 -0.000000 0.000000
71  -0.008022 1.228065 5.810776  -0.000000 -0.000000 0.000000
72  -0.008022 1.115504 -0.313082  -0.000000 -0.000000 0.000000
73  -0.008023 1.345870 0.084165  1.570796 -0.000000 -0.000000
74  -0.008023 0.197514 1.902818  -0.000000 -0.000000 0.000000
75  0.930674 -13.566815 -7.104902  2.525154 0.877573 1.007441
76  0.555798 -12.558145 -6.573168  2.525154 0.877573 1.007441
77  -0.008022 -0.653745 0.060180  -0.000000 -0.000000 0.000000
78  -0.008021 -1.155510 -0.087182  -0.000000 -0.000000 0.000000
79  -0.000001 -0.501766 -0.147367  -0.000000 -0.000000 0.000000
80  0.000000 -1.003531 -0.294728  -0.000000 -0.000000 0.000000
81  -0.000000 -1.505297 -0.442090  -0.000000 -0.000000 0.000000
82  -0.000001 -2.007061 -0.589454  -0.000000 -0.000000 0.000000
83  0.000000 -2.508827 -0.736815  -0.000000 -0.000000 0.000000
84  -0.000000 -2.772560 -0.939009  -0.000000 -0.000000 0.000000
85  -0.000000 -3.071458 -1.220324  -0.000000 -0.000000 0.000000
86  -0.283371 -4.518086 -0.534134  0.346743 -0.000000 -0.000000
87  0.000001 0.993479 -0.063568  -0.012322 0.000000 -0.000000
88  0.930674 -13.566815 -7.104902  2.525154 0.877573 1.007441
time 7
0  0.000006 0.000000 0.000000  -1.570800 -1.391899 -1.570792
1  -9.841317 -7.634221 1.937669  -1.544956 -1.855077 -0.198630
2  6.027521 -0.000325 0.000192  -0.792356 -1.012767 -0.843560
3  11.692110 0.000645 -0.000741  -0.990414 -0.000006 -1.138610
4  11.480553 0.000530 -0.000524  1.000349 -1.123923 0.098601
5  3.666629 -0.163903 -1.204802  -0.519250 0.086737 -1.532179
6  1.312589 0.000013 0.000007  -0.003664 0.023356 -0.272237
7  0.729356 0.000053 0.000049  -0.003677 0.000626 -0.150723
8  3.942142 0.046332 -0.431543  -0.205965 0.132196 -1.449654
9  1.539109 0.000081 0.000004  -0.000570 0.007396 -0.283198
10  1.196332 0.000144 0.000028  -0.000713 0.000161 -0.519018
11  3.883512 -0.047212 0.431352  -0.042690 0.198097 -1.260493
12  1.719573 -0.000029 0.000015  -0.000644 0.003280 -0.404344
13  1.209178 0.000088 0.000011  -0.000905 0.002861 -0.623853
14  3.859679 -0.138418 1.332381  -0.235831 0.317274 -1.342437
15  1.719449 -0.000018 0.000029  0.001902 0.001157 -0.067177
16  1.099675 0.000047 0.000006  -0.000943 0.002399 -0.620101
17  0.459534 -0.272515 1.494838  -1.528877 -0.394734 -0.263833
18  1.789820 -0.000003 -0.000017  -0.005043 0.002467 0.111593
19  1.207017 -0.000013 -0.000044  -0.005634 -0.000693 0.835388
20  5.740636 0.000390 -0.000699  -0.088472 0.000003 0.000063
21  11.481114 0.000286 -0.000756  -0.073703 -0.205814 -0.052959
22  6.027524 -0.000329 0.000201  1.627167 -0.555559 2.191434
23  -0.000001 11.692100 -0.000008  -0.809341 -0.290643 -0.658431
24  0.000004 0.000009 -0.000001  -0.121333 -0.000030 1.570739
25  -0.000000 -0.000011 0.000000  0.868960 0.000002 1.570712
26  -6.899342 -10.734701 0.826813  1.473120 1.855075 -0.198639
27  6.027511 -0.000266 -0.000215  1.870043 1.331079 0.384241
28  11.691992 0.000161 0.000859  0.139864 0.000002 -0.612479
29  11.480507 0.000106 0.000819  -1.525737 -0.255037 0.211163
30  3.710774 -0.434235 1.096848  0.974897 -0.111756 -2.079603
31  1.312560 0.000031 0.000000  0.008190 -0.088214 -0.285514
32  0.729347 0.000064 -0.000027  -0.132450 -0.134191 -1.087309
33  3.820806 -0.154608 0.327899  0.610805 -0.300364 -1.640271
34  1.539096 0.000005 -0.000002  0.047162 -0.047589 -0.892209
35  1.196301 0.000081 -0.000003  -0.021079 -0.009374 -1.253100
36  3.882446 -0.171892 -0.416803  0.406628 -0.376223 -1.253559
37  1.719566 -0.000081 -0.000005  0.018695 -0.082922 -1.374417
38  1.209193 0.000034 0.000011  0.003361 -0.003782 -0.857658
39  3.859585 -0.149081 -1.331322  0.052683 -0.238405 -0.449221
40  1.719414 -0.000097 -0.000037  0.031466 0.001819 -1.126076
41  1.099673 0.000023 0.000006  -0.005117 -0.008160 -0.712530
42  0.230503 -0.805067 -1.086893  1.111612 0.594062 -0.578210
43  1.789780 -0.000007 -0.000042  -0.089312 -0.070323 0.368341
44  1.206995 -0.000007 0.000005  0.000678 -0.214508 0.376132
45  5.740573 0.000078 0.000721  0.017257 -0.000014 0.000028
46  11.481048 0.000095 0.000909  0.015921 -0.071141 0.031661
47  6.027515 -0.000273 -0.000229  -1.349636 -0.093225 -0.794319
48  -0.000001 11.691975 -0.000007  -0.456492 0.089762 0.381866
49  0.000003 0.000000 0.000000  2.412441 -0.000036 1.570860
50  -0.000007 -0.000014 0.000005  2.272645 -0.000036 1.570861
51  -3.046764 -10.253169 -6.376249  1.944176 0.242166 -1.296854
52  0.000000 0.000000 0.000000  0.008153 -0.000259 0.000009
53  -0.000000 0.000000 0.000000  1.565115 0.043565 -0.106862
54  2.026375 -8.629029 -15.451381  -0.493753 0.025806 -1.250902
55  -0.000001 -0.000001 0.000000  0.000000 -0.000001 -0.000002
56  0.000029 0.000028 0.000002  -1.571901 -0.044449 -0.106509
57  16.024361 -18.373142 -26.166643  1.570796 -0.000000 0.000000
58  -22.092199 0.921662 -9.971610  1.570796 -0.000000 0.000000
59  1.941978 9.263218 -8.327020  1.570796 -0.000000 0.000000
60  -0.004311 0.001229 -0.000372  0.006898 -0.005534 -0.284229
61  0.826810 11.791080 -4.879054  1.570796 -0.000000 0.000000
62  0.000000 0.000000 0.000000  -0.078727 -3.136056 0.284226
63  0.000000 0.000000 0.000000  1.565375 0.003226 -0.003314
64  -1.033019 -11.992968 -7.694024  2.552037 0.753562 1.002746
65  -0.008021 0.449004 2.449479  0.000000 0.000000 0.000000
66  -0.008021 1.798499 0.936338  0.000000 0.000000 0.000000
67  0.000000 2.151127 1.009988  0.000000 0.000000 0.000000
68  -0.008023 1.347420 0.085287  -1.051149 0.001216 0.000412
69  0.230628 1.332312 3.105306  0.175653 0.000000 0.000000
70  -0.008024 2.211808 7.723074  -0.028798 0.000000 0.000000
71  -0.008022 1.228065 5.810778  0.000000 0.000000 0.000000
72  -0.008022 1.115505 -0.313080  0.000000 0.000000 0.000000
73  -0.008023 1.345871 0.084166  1.570796 -0.000000 -0.000000
74  -0.008023 0.197514 1.902821  0.000000 0.000000 0.000000
75  1.231892 -13.758564 -7.969864  2.552037 0.753562 1.002746
76  0.851363 -12.807062 -7.344940  2.552037 0.753562 1.002746
77  -0.008022 -0.653744 0.060181  0.000000 0.000000 0.000000
78  -0.008021 -1.155510 -0.087180  0.000000 0.000000 0.000000
79  0.000001 -0.501765 -0.147367  0.000000 0.000000 0.000000
80  -0.000000 -1.003531 -0.294728  0.000000 0.000000 0.000000
81  -0.000000 -1.505296 -0.442091  0.000000 0.000000 0.000000
82  -0.000001 -2.007060 -0.589454  0.000000 0.000000 0.000000
83  0.000000 -2.508827 -0.736814  0.000000 0.000000 0.000000
84  -0.000000 -2.772560 -0.939011  0.000000 0.000000 0.000000
85  -0.000000 -3.071456 -1.220326  0.000000 0.000000 0.000000
86  -0.283371 -4.518086 -0.534134  0.346743 -0.000000 -0.000000
87  0.000000 0.993479 -0.063564  -0.012322 0.000000 0.000000
88  1.231892 -13.758564 -7.969864  2.552037 0.753562 1.002746
time 8
0  0.000006 0.000000 0.000000  -1.570800 -1.391899 -1.570792
1  -9.841317 -7.634221 1.937669  -1.544956 -1.855077 -0.198630
2  6.027519 -0.000324 0.000193  -0.957796 -0.879510 -0.743200
3  11.692108 0.000644 -0.000740  -0.990421 -0.000011 -1.251069
4  11.479580 0.000255 -0.000943  1.484500 -0.983037 -0.035602
5  3.666628 -0.163904 -1.204800  -0.519250 0.086737 -1.532179
6  1.312589 0.000010 0.000005  -0.003664 0.023356 -0.272237
7  0.729355 0.000054 0.000049  -0.003677 0.000626 -0.150723
8  3.942141 0.046330 -0.431541  -0.205965 0.132196 -1.449654
9  1.539110 0.000081 0.000004  -0.000570 0.007396 -0.283198
10  1.196333 0.000146 0.000026  -0.000713 0.000161 -0.519018
11  3.883511 -0.047213 0.431353  -0.042690 0.198097 -1.260493
12  1.719573 -0.000029 0.000019  -0.000644 0.003280 -0.404344
13  1.209179 0.000088 0.000011  -0.000905 0.002861 -0.623853
14  3.859678 -0.138419 1.332381  -0.235831 0.317274 -1.342437
15  1.719449 -0.000020 0.000030  0.001902 0.001157 -0.067177
16  1.099675 0.000048 0.000006  -0.000943 0.002399 -0.620101
17  0.459534 -0.272516 1.494839  -1.528877 -0.394734 -0.263833
18  1.789819 -0.000004 -0.000016  -0.005043 0.002467 0.111593
19  1.207017 -0.000013 -0.000043  -0.005634 -0.000693 0.835388
20  5.740635 0.000389 -0.000700  -0.021501 0.000003 0.000063
21  11.480921 0.000227 -0.000840  -0.008513 -0.175320 -0.024822
22  6.027524 -0.000329 0.000201  1.777326 -0.664700 2.070920
23  0.000000 11.692101 -0.000009  -0.879401 -0.344910 -0.709171
24  0.000003 0.000009 0.000001  -0.121332 -0.000031 1.570739
25  0.000002 -0.000009 -0.000001  0.868960 0.000002 1.570712
26  -6.899342 -10.734701 0.826813  1.473120 1.855075 -0.198639
27  6.027511 -0.000265 -0.000215  1.779615 1.385514 0.317610
28  11.691991 0.000161 0.000858  0.139859 -0.000000 -0.534794
29  11.480623 0.000154 0.000812  -1.434864 -0.307235 0.210463
30  3.710775 -0.434234 1.096848  0.974897 -0.111756 -2.079603
31  1.312560 0.000030 0.000001  0.008191 -0.088214 -0.285514
32  0.729348 0.000064 -0.000027  -0.132450 -0.134191 -1.087309
33  3.820807 -0.154609 0.327899  0.610805 -0.300364 -1.640271
34  1.539096 0.000004 -0.000002  0.047162 -0.047589 -0.892209
35  1.196302 0.000082 -0.000003  -0.021079 -0.009374 -1.253100
36  3.882446 -0.171892 -0.416805  0.406628 -0.376223 -1.253559
37  1.719566 -0.000083 -0.000005  0.018695 -0.082922 -1.374417
38  1.209193 0.000034 0.000011  0.003361 -0.003782 -0.857658
39  3.859584 -0.149081 -1.331323  0.052683 -0.238405 -0.449221
40  1.719413 -0.000096 -0.000037  0.031466 0.001818 -1.126077
41  1.099673 0.000024 0.000006  -0.005117 -0.008160 -0.712530
42  0.230504 -0.805067 -1.086894  1.111612 0.594062 -0.578210
43  1.789780 -0.000006 -0.000043  -0.089312 -0.070323 0.368341
44  1.206996 -0.000006 0.000004  0.000678 -0.214508 0.376132
45  5.740573 0.000080 0.000721  0.036324 -0.000014 0.000028
46  11.481071 0.000105 0.000908  0.035142 -0.079431 0.032583
47  6.027515 -0.000273 -0.000229  -1.407198 -0.087367 -0.767327
48  -0.000001 11.691976 -0.000008  -0.400781 0.068916 0.336114
49  0.000003 -0.000000 0.000000  2.412441 -0.000036 1.570860
50  -0.000007 -0.000013 0.000005  2.272645 -0.000036 1.570861
51  -2.656996 -10.467341 -7.061469  2.029810 0.331485 -1.303196
52  0.000001 -0.000000 0.000000  0.008153 -0.000259 0.000009
53  0.000001 0.000000 -0.000001  1.565115 0.043565 -0.106862
54  3.722346 -8.181418 -15.818510  -0.194738 0.000361 -1.335459
55  0.000001 0.000000 0.000001  0.000000 -0.000001 -0.000002
56  0.000032 0.000029 0.000002  -1.571901 -0.044449 -0.106509
57  16.891600 -18.120747 -28.089144  1.570796 -0.000000 0.000000
58  -22.092199 0.921662 -9.971610  1.570796 -0.000000 0.000000
59  1.941978 9.263218 -8.327020  1.570796 -0.000000 0.000000
60  -0.004311 0.001229 -0.000372  0.006898 -0.005534 -0.284229
61  0.826810 11.791080 -4.879054  1.570796 -0.000000 0.000000
62  0.000000 0.000000 0.000000  -0.078727 -3.136056 0.284226
63  0.000000 0.000000 0.000000  1.566531 0.002541 -0.002607
64  -0.620274 -12.122774 -8.450679  2.568533 0.632907 0.982701
65  -0.008020 0.449003 2.449478  -0.000000 0.000000 0.000000
66  -0.008020 1.798499 0.936338  -0.000000 0.000000 0.000000
67  0.000000 2.151126 1.009989  -0.000000 0.000000 0.000000
68  -0.008023 1.347420 0.085286  -1.051149 0.001216 0.000412
69  0.230628 1.332312 3.105307  0.175653 0.000000 -0.000000
70  -0.008023 2.211807 7.723073  -0.028798 0.000000 0.000000
71  -0.008020 1.228064 5.810777  -0.000000 0.000000 0.000000
72  -0.008023 1.115505 -0.313081  -0.000000 0.000000 0.000000
73  -0.008022 1.345870 0.084165  1.570796 -0.000000 -0.000000
74  -0.008022 0.197514 1.902820  -0.000000 0.000000 0.000000
75  1.607224 -13.923594 -8.794974  2.568533 0.632907 0.982701
76  1.218132 -13.032124 -8.091715  2.568533 0.632907 0.982701
77  -0.008021 -0.653745 0.060182  -0.000000 0.000000 0.000000
78  -0.008021 -1.155510 -0.087180  -0.000000 0.000000 0.000000
79  -0.000000 -0.501765 -0.147364  -0.000000 0.000000 0.000000
80  -0.000000 -1.003531 -0.294726  -0.000000 0.000000 0.000000
81  -0.000000 -1.505297 -0.442088  -0.000000 0.000000 0.000000
82  0.000001 -2.007061 -0.589452  -0.000000 0.000000 0.000000
83  -0.000000 -2.508826 -0.736812  -0.000000 0.000000 0.000000
84  0.000000 -2.772560 -0.939008  -0.000000 0.000000 0.000000
85  0.000000 -3.071457 -1.220324  -0.000000 0.000000 0.000000
86  -0.283371 -4.518086 -0.534134  0.346743 -0.000000 -0.000000
87  0.000000 0.993480 -0.063566  -0.012322 0.000000 -0.000000
88  1.607224 -13.923594 -8.794974  2.568533 0.632907 0.982701
time 9
0  0.000006 0.000000 0.000000  -1.570800 -1.391899 -1.570792
1  -9.841317 -7.634221 1.937669  -1.544956 -1.855077 -0.198630
2  6.027519 -0.000324 0.000193  -1.097947 -0.758411 -0.707212
3  11.692108 0.000643 -0.000741  -0.990425 -0.000015 -1.325678
4  11.480336 0.000442 -0.000658  1.851582 -0.771029 -0.038896
5  3.666627 -0.163904 -1.204807  -0.519250 0.086737 -1.532179
6  1.312589 0.000008 0.000011  -0.003664 0.023357 -0.272237
7  0.729356 0.000053 0.000048  -0.003677 0.000626 -0.150723
8  3.942140 0.046330 -0.431546  -0.205965 0.132196 -1.449654
9  1.539110 0.000084 0.000003  -0.000570 0.007396 -0.283198
10  1.196333 0.000147 0.000027  -0.000713 0.000161 -0.519019
11  3.883510 -0.047213 0.431348  -0.042690 0.198097 -1.260493
12  1.719573 -0.000028 0.000017  -0.000644 0.003280 -0.404344
13  1.209178 0.000091 0.000012  -0.000905 0.002861 -0.623853
14  3.859676 -0.138418 1.332376  -0.235831 0.317274 -1.342437
15  1.719447 -0.000017 0.000029  0.001902 0.001157 -0.067177
16  1.099675 0.000048 0.000004  -0.000943 0.002399 -0.620101
17  0.459533 -0.272516 1.494836  -1.528877 -0.394734 -0.263833
18  1.789820 -0.000008 -0.000016  -0.005043 0.002467 0.111593
19  1.207017 -0.000011 -0.000045  -0.005634 -0.000693 0.835388
20  5.740637 0.000389 -0.000699  0.043884 0.000003 0.000063
21  11.481073 0.000262 -0.000783  0.055755 -0.131772 0.003393
22  6.027524 -0.000329 0.000201  1.957560 -0.733909 1.888002
23  -0.000001 11.692100 -0.000007  -0.925023 -0.382703 -0.741113
24  0.000003 0.000009 0.000000  -0.121332 -0.000030 1.570739
25  -0.000000 -0.000011 0.000000  0.868960 0.000002 1.570712
26  -6.899342 -10.734701 0.826813  1.473120 1.855075 -0.198639
27  6.027511 -0.000265 -0.000216  1.639120 1.444417 0.197829
28  11.691990 0.000162 0.000858  0.139853 -0.000002 -0.447846
29  11.481017 0.000245 0.000799  -1.347400 -0.355951 0.197491
30  3.710774 -0.434234 1.096849  0.974897 -0.111756 -2.079603
31  1.312560 0.000032 -0.000000  0.008191 -0.088214 -0.285514
32  0.729346 0.000067 -0.000028  -0.132450 -0.134191 -1.087309
33  3.820805 -0.154609 0.327900  0.610805 -0.300364 -1.640271
34  1.539094 0.000003 -0.000001  0.047162 -0.047589 -0.892209
35  1.196302 0.000081 -0.000003  -0.021079 -0.009374 -1.253100
36  3.882444 -0.171892 -0.416803  0.406628 -0.376223 -1.253560
37  1.719566 -0.000084 -0.000005  0.018695 -0.082922 -1.374417
38  1.209192 0.000034 0.000011  0.003361 -0.003782 -0.857658
39  3.859584 -0.149081 -1.331322  0.052683 -0.238405 -0.449221
40  1.719411 -0.000097 -0.000037  0.031466 0.001819 -1.126076
41  1.099672 0.000022 0.000006  -0.005117 -0.008160 -0.712530
42  0.230503 -0.805067 -1.086892  1.111612 0.594062 -0.578210
43  1.789779 -0.000007 -0.000042  -0.089312 -0.070323 0.368341
44  1.206995 -0.000008 0.000004  0.000678 -0.214508 0.376132
45  5.740574 0.000080 0.000720  0.054243 -0.000014 0.000028
46  11.481148 0.000123 0.000905  0.053083 -0.087273 0.031764
47  6.027515 -0.000273 -0.000229  -1.468787 -0.074749 -0.743260
48  -0.000001 11.691975 -0.000007  -0.337445 0.048663 0.283681
49  0.000002 0.000000 0.000001  2.412441 -0.000036 1.570860
50  -0.000007 -0.000012 0.000004  2.272645 -0.000036 1.570861
51  -2.238671 -10.643608 -7.710985  2.112731 0.411498 -1.302942
52  -0.000000 0.000000 -0.000000  0.008153 -0.000259 0.000009
53  -0.000001 -0.000000 0.000001  1.565115 0.043565 -0.106862
54  5.374855 -7.877679 -15.969526  0.081345 -0.005453 -1.456666
55  -0.000000 -0.000000 0.000000  0.000000 -0.000001 -0.000002
56  0.000030 0.000028 0.000002  -1.571901 -0.044449 -0.106509
57  17.667377 -17.894966 -29.808889  1.570796 -0.000000 0.000000
58  -22.092199 0.921662 -9.971610  1.570796 -0.000000 0.000000
59  1.941978 9.263218 -8.327020  1.570796 -0.000000 0.000000
60  -0.004311 0.001229 -0.000372  0.006898 -0.005534 -0.284229
61  0.826810 11.791080 -4.879054  1.570796 -0.000000 0.000000
62  0.000000 0.000000 0.000000  -0.078727 -3.136056 0.284226
63  0.000000 0.000000 0.000000  1.567746 0.001819 -0.001864
64  -0.174753 -12.222273 -9.148573  2.581626 0.522241 0.959974
65  -0.008021 0.449003 2.449479  -0.000000 0.000000 -0.000000
66  -0.008021 1.798499 0.936337  -0.000000 0.000000 -0.000000
67  0.000000 2.151126 1.009988  -0.000000 0.000000 -0.000000
68  -0.008022 1.347420 0.085286  -1.051149 0.001216 0.000412
69  0.230627 1.332312 3.105305  0.175653 -0.000000 -0.000000
70  -0.008023 2.211806 7.723073  -0.028798 0.000000 -0.000000
71  -0.008022 1.228065 5.810778  -0.000000 0.000000 -0.000000
72  -0.008022 1.115505 -0.313081  -0.000000 0.000000 -0.000000
73  -0.008023 1.345870 0.084165  1.570796 -0.000000 -0.000000
74  -0.008022 0.197514 1.902820  -0.000000 0.000000 -0.000000
75  2.018459 -14.052639 -9.552086  2.581626 0.522241 0.959974
76  1.615853 -13.221100 -8.785835  2.581626 0.522241 0.959974
77  -0.008020 -0.653744 0.060182  -0.000000 0.000000 -0.000000
78  -0.008020 -1.155510 -0.087179  -0.000000 0.000000 -0.000000
79  0.000001 -0.501766 -0.147368  -0.000000 0.000000 -0.000000
80  0.000000 -1.003531 -0.294730  -0.000000 0.000000 -0.000000
81  0.000000 -1.505296 -0.442092  -0.000000 0.000000 -0.000000
82  0.000001 -2.007061 -0.589455  -0.000000 0.000000 -0.000000
83  0.000000 -2.508827 -0.736816  -0.000000 0.000000 -0.000000
84  0.000000 -2.772560 -0.939011  -0.000000 0.000000 -0.000000
85  0.000000 -3.071457 -1.220326  -0.000000 0.000000 -0.000000
86  -0.283370 -4.518086 -0.534133  0.346743 -0.000000 -0.000000
87  0.000001 0.993479 -0.063565  -0.012322 0.000000 0.000000
88  2.018459 -14.052639 -9.552086  2.581626 0.522241 0.959974
time 10
0  0.000006 0.000000 0.000000  -1.570800 -1.391899 -1.570792
1  -9.841317 -7.634221 1.937669  -1.544956 -1.855077 -0.198630
2  6.027518 -0.000323 0.000194  -1.224694 -0.665599 -0.714571
3  11.692109 0.000645 -0.000738  -0.990426 -0.000017 -1.366224
4  11.480068 0.000360 -0.000782  2.125386 -0.554331 0.047006
5  3.666628 -0.163903 -1.204800  -0.519250 0.086737 -1.532179
6  1.312589 0.000007 0.000007  -0.003664 0.023357 -0.272237
7  0.729355 0.000054 0.000047  -0.003677 0.000626 -0.150723
8  3.942142 0.046331 -0.431541  -0.205965 0.132197 -1.449654
9  1.539111 0.000083 0.000004  -0.000570 0.007396 -0.283198
10  1.196333 0.000146 0.000029  -0.000713 0.000161 -0.519018
11  3.883511 -0.047212 0.431352  -0.042690 0.198097 -1.260493
12  1.719573 -0.000029 0.000017  -0.000644 0.003280 -0.404344
13  1.209178 0.000090 0.000013  -0.000905 0.002861 -0.623854
14  3.859677 -0.138417 1.332381  -0.235831 0.317274 -1.342437
15  1.719448 -0.000018 0.000028  0.001902 0.001157 -0.067177
16  1.099675 0.000050 0.000005  -0.000943 0.002399 -0.620101
17  0.459534 -0.272516 1.494839  -1.528877 -0.394735 -0.263833
18  1.789819 -0.000005 -0.000017  -0.005043 0.002467 0.111593
19  1.207017 -0.000014 -0.000044  -0.005634 -0.000693 0.835388
20  5.740637 0.000391 -0.000699  0.103265 0.000003 0.000063
21  11.481022 0.000246 -0.000810  0.112205 -0.084000 0.030858
22  6.027524 -0.000329 0.000201  2.137333 -0.749828 1.676031
23  0.000001 11.692099 -0.000007  -0.949562 -0.403799 -0.757887
24  0.000004 0.000009 -0.000001  -0.121332 -0.000031 1.570739
25  0.000001 -0.000011 -0.000000  0.868960 0.000002 1.570712
26  -6.899342 -10.734701 0.826813  1.473120 1.855075 -0.198639
27  6.027512 -0.000265 -0.000216  1.313030 1.503694 -0.111734
28  11.691989 0.000162 0.000858  0.139845 -0.000003 -0.349919
29  11.480970 0.000243 0.000799  -1.266918 -0.399623 0.169184
30  3.710774 -0.434235 1.096848  0.974897 -0.111756 -2.079603
31  1.312561 0.000031 0.000000  0.008191 -0.088214 -0.285514
32  0.729348 0.000066 -0.000028  -0.132450 -0.134191 -1.087309
33  3.820806 -0.154609 0.327899  0.610805 -0.300364 -1.640271
34  1.539097 0.000003 -0.000001  0.047162 -0.047589 -0.892209
35  1.196303 0.000079 -0.000003  -0.021079 -0.009374 -1.253100
36  3.882445 -0.171892 -0.416805  0.406628 -0.376223 -1.253560
37  1.719564 -0.000083 -0.000005  0.018695 -0.082922 -1.374417
38  1.209193 0.000034 0.000012  0.003361 -0.003782 -0.857658
39  3.859584 -0.149082 -1.331322  0.052683 -0.238405 -0.449221
40  1.719414 -0.000098 -0.000037  0.031466 0.001819 -1.126077
41  1.099672 0.000022 0.000007  -0.005117 -0.008160 -0.712530
42  0.230504 -0.805067 -1.086893  1.111612 0.594062 -0.578210
43  1.789779 -0.000006 -0.000041  -0.089312 -0.070323 0.368341
44  1.206994 -0.000007 0.000004  0.000678 -0.214508 0.376132
45  5.740573 0.000079 0.000721  0.070189 -0.000014 0.000028
46  11.481138 0.000122 0.000905  0.068756 -0.094764 0.028452
47  6.027515 -0.000273 -0.000229  -1.532288 -0.055005 -0.723969
48  -0.000001 11.691975 -0.000007  -0.265008 0.029904 0.223274
49  0.000002 -0.000000 -0.000000  2.412441 -0.000036 1.570860
50  -0.000007 -0.000013 0.000005  2.272645 -0.000036 1.570861
51  -1.839378 -10.782023 -8.288727  2.190263 0.478696 -1.295954
52  -0.000000 -0.000000 -0.000000  0.008153 -0.000259 0.000009
53  0.000000 0.000000 -0.000000  1.565115 0.043565 -0.106862
54  6.829817 -7.710503 -15.951647  0.304524 0.018615 -1.581410
55  -0.000001 0.000000 0.000002  0.000000 -0.000001 -0.000002
56  0.000029 0.000029 0.000003  -1.571901 -0.044449 -0.106509
57  18.304749 -17.709469 -31.221809  1.570796 -0.000000 0.000000
58  -22.092199 0.921662 -9.971610  1.570796 -0.000000 0.000000
59  1.941978 9.263218 -8.327020  1.570796 -0.000000 0.000000
60  -0.004311 0.001229 -0.000372  0.006898 -0.005534 -0.284229
61  0.826810 11.791080 -4.879054  1.570796 -0.000000 0.000000
62  0.000000 0.000000 0.000000  -0.078727 -3.136056 0.284226
63  0.000000 0.000000 0.000000  1.568900 0.001131 -0.001158
64  0.255461 -12.294455 -9.752559  2.591117 0.425609 0.937885
65  -0.008021 0.449004 2.449478  0.000000 0.000000 0.000000
66  -0.008021 1.798499 0.936337  0.000000 0.000000 0.000000
67  0.000001 2.151126 1.009987  0.000000 0.000000 0.000000
68  -0.008022 1.347419 0.085286  -1.051149 0.001216 0.000412
69  0.230628 1.332312 3.105304  0.175653 0.000000 -0.000000
70  -0.008022 2.211807 7.723071  -0.028798 0.000000 0.000000
71  -0.008021 1.228065 5.810776  0.000000 0.000000 0.000000
72  -0.008023 1.115505 -0.313082  0.000000 0.000000 0.000000
73  -0.008022 1.345870 0.084164  1.570796 0.000000 -0.000000
74  -0.008022 0.197513 1.902819  0.000000 0.000000 0.000000
75  2.421111 -14.146786 -10.202077  2.591117 0.425609 0.937885
76  2.000689 -13.370337 -9.389021  2.591117 0.425609 0.937885
77  -0.008022 -0.653745 0.060182  0.000000 0.000000 0.000000
78  -0.008022 -1.155510 -0.087181  0.000000 0.000000 0.000000
79  0.000000 -0.501766 -0.147366  0.000000 0.000000 0.000000
80  0.000001 -1.003531 -0.294728  0.000000 0.000000 0.000000
81  -0.000000 -1.505297 -0.442090  0.000000 0.000000 0.000000
82  0.000001 -2.007061 -0.589454  0.000000 0.000000 0.000000
83  0.000001 -2.508828 -0.736814  0.000000 0.000000 0.000000
84  0.000001 -2.772561 -0.939009  0.000000 0.000000 0.000000
85  0.000000 -3.071457 -1.220324  0.000000 0.000000 0.000000
86  -0.283372 -4.518086 -0.534135  0.346743 -0.000000 -0.000000
87  0.000001 0.993480 -0.063564  -0.012322 0.000000 -0.000000
88  2.421111 -14.146786 -10.202077  2.591117 0.425609 0.937885
time 11
0  0.000006 0.000000 0.000000  -1.570800 -1.391899 -1.570792
1  -9.841317 -7.634221 1.937669  -1.544956 -1.855077 -0.198630
2  6.027518 -0.000323 0.000194  -1.333286 -0.608088 -0.741313
3  11.692108 0.000643 -0.000738  -0.990427 -0.000018 -1.383859
4  11.479959 0.000325 -0.000832  2.329303 -0.388030 0.165878
5  3.666627 -0.163904 -1.204801  -0.519250 0.086737 -1.532179
6  1.312590 0.000010 0.000007  -0.003664 0.023357 -0.272237
7  0.729355 0.000054 0.000048  -0.003677 0.000626 -0.150723
8  3.942140 0.046331 -0.431541  -0.205965 0.132196 -1.449654
9  1.539111 0.000084 0.000003  -0.000570 0.007396 -0.283198
10  1.196333 0.000146 0.000031  -0.000713 0.000161 -0.519018
11  3.883510 -0.047213 0.431353  -0.042690 0.198097 -1.260493
12  1.719573 -0.000030 0.000015  -0.000644 0.003280 -0.404344
13  1.209181 0.000091 0.000013  -0.000905 0.002861 -0.623854
14  3.859677 -0.138418 1.332381  -0.235831 0.317274 -1.342437
15  1.719450 -0.000018 0.000028  0.001902 0.001157 -0.067177
16  1.099674 0.000050 0.000007  -0.000943 0.002399 -0.620101
17  0.459534 -0.272516 1.494841  -1.528877 -0.394735 -0.263833
18  1.789819 -0.000004 -0.000017  -0.005043 0.002467 0.111593
19  1.207016 -0.000011 -0.000044  -0.005634 -0.000693 0.835388
20  5.740635 0.000387 -0.000700  0.152313 0.000003 0.000064
21  11.481002 0.000237 -0.000821  0.155387 -0.042192 0.055870
22  6.027524 -0.000329 0.000201  2.274214 -0.724189 1.492566
23  0.000000 11.692098 -0.000007  -0.960184 -0.413092 -0.765054
24  0.000002 0.000008 0.000001  -0.121332 -0.000031 1.570739
25  -0.000000 -0.000011 0.000000  0.868960 0.000002 1.570712
26  -6.899342 -10.734701 0.826813  1.473120 1.855075 -0.198639
27  6.027513 -0.000264 -0.000215  -0.016709 1.533356 -1.429809
28  11.691990 0.000162 0.000859  0.139837 -0.000003 -0.240165
29  11.481016 0.000257 0.000796  -1.197443 -0.436497 0.124770
30  3.710774 -0.434234 1.096848  0.974897 -0.111756 -2.079603
31  1.312562 0.000030 0.000001  0.008191 -0.088214 -0.285514
32  0.729347 0.000066 -0.000027  -0.132450 -0.134191 -1.087309
33  3.820805 -0.154609 0.327899  0.610805 -0.300364 -1.640271
34  1.539096 0.000003 -0.000001  0.047162 -0.047589 -0.892209
35  1.196303 0.000079 -0.000002  -0.021078 -0.009374 -1.253100
36  3.882445 -0.171892 -0.416805  0.406628 -0.376223 -1.253560
37  1.719564 -0.000084 -0.000004  0.018695 -0.082922 -1.374417
38  1.209194 0.000034 0.000011  0.003361 -0.003782 -0.857658
39  3.859585 -0.149081 -1.331323  0.052683 -0.238405 -0.449221
40  1.719413 -0.000096 -0.000038  0.031466 0.001819 -1.126076
41  1.099672 0.000021 0.000006  -0.005117 -0.008160 -0.712530
42  0.230503 -0.805066 -1.086894  1.111612 0.594062 -0.578210
43  1.789779 -0.000008 -0.000042  -0.089312 -0.070323 0.368341
44  1.206996 -0.000006 0.000005  0.000678 -0.214508 0.376132
45  5.740573 0.000079 0.000721  0.083377 -0.000014 0.000028
46  11.481147 0.000125 0.000905  0.081200 -0.101907 0.022253
47  6.027515 -0.000273 -0.000229  -1.595486 -0.028245 -0.710902
48  0.000000 11.691975 -0.000008  -0.182680 0.014174 0.154189
49  0.000004 0.000000 -0.000000  2.412441 -0.000036 1.570860
50  -0.000007 -0.000013 0.000004  2.272645 -0.000036 1.570861
51  -1.505009 -10.882474 -8.757086  2.258705 0.530094 -1.283817
52  0.000000 -0.000000 0.000001  0.008153 -0.000259 0.000009
53  -0.000001 0.000001 -0.000000  1.565115 0.043565 -0.106862
54  7.967624 -7.638591 -15.825745  0.460403 0.060606 -1.680542
55  -0.000001 -0.000000 -0.000002  0.000000 -0.000001 -0.000002
56  0.000029 0.000029 -0.000000  -1.571901 -0.044449 -0.106509
57  18.772669 -17.573288 -32.259094  1.570796 -0.000000 0.000000
58  -22.092199 0.921662 -9.971610  1.570796 -0.000000 0.000000
59  1.941978 9.263218 -8.327020  1.570796 -0.000000 0.000000
60  -0.004311 0.001229 -0.000372  0.006898 -0.005534 -0.284229
61  0.826810 11.791080 -4.879054  1.570796 -0.000000 0.000000
62  0.000000 0.000000 0.000000  -0.078727 -3.136056 0.284226
63  0.000000 0.000000 0.000000  1.569874 0.000551 -0.000563
64  0.622287 -12.342309 -10.227491  2.596333 0.346826 0.918891
65  -0.008023 0.449004 2.449477  0.000000 0.000000 -0.000000
66  -0.008021 1.798499 0.936336  0.000000 0.000000 -0.000000
67  0.000000 2.151127 1.009986  0.000000 0.000000 -0.000000
68  -0.008024 1.347419 0.085286  -1.051149 0.001216 0.000412
69  0.230627 1.332312 3.105305  0.175653 -0.000000 -0.000000
70  -0.008024 2.211807 7.723071  -0.028798 0.000000 -0.000000
71  -0.008022 1.228065 5.810775  0.000000 0.000000 -0.000000
72  -0.008024 1.115505 -0.313082  0.000000 0.000000 -0.000000
73  -0.008023 1.345870 0.084164  1.570796 0.000000 -0.000000
74  -0.008024 0.197514 1.902819  0.000000 0.000000 -0.000000
75  2.769080 -14.209198 -10.706280  2.596333 0.346826 0.918891
76  2.328531 -13.478423 -9.862140  2.596333 0.346826 0.918891
77  -0.008023 -0.653744 0.060182  0.000000 0.000000 -0.000000
78  -0.008022 -1.155510 -0.087180  0.000000 0.000000 -0.000000
79  -0.000001 -0.501766 -0.147366  0.000000 0.000000 -0.000000
80  -0.000000 -1.003531 -0.294729  0.000000 0.000000 -0.000000
81  -0.000001 -1.505297 -0.442091  0.000000 0.000000 -0.000000
82  -0.000001 -2.007061 -0.589453  0.000000 0.000000 -0.000000
83  -0.000001 -2.508827 -0.736815  0.000000 0.000000 -0.000000
84  -0.000001 -2.772560 -0.939011  0.000000 0.000000 -0.000000
85  -0.000000 -3.071458 -1.220325  0.000000 0.000000 -0.000000
86  -0.283372 -4.518086 -0.534134  0.346743 -0.000000 -0.000000
87  -0.000000 0.993480 -0.063566  -0.012322 0.000000 -0.000000
88  2.769080 -14.209198 -10.706280  2.596333 0.346826 0.918891
time 12
0  0.000006 0.000000 0.000000  -1.570800 -1.391899 -1.570792
1  -9.841317 -7.634221 1.937669  -1.544956 -1.855077 -0.198630
2  6.027518 -0.000323 0.000194  -1.410590 -0.580803 -0.766358
3  11.692110 0.000644 -0.000739  -0.990428 -0.000018 -1.390939
4  11.479918 0.000316 -0.000851  2.462415 -0.294171 0.269292
5  3.666626 -0.163904 -1.204805  -0.519250 0.086737 -1.532179
6  1.312588 0.000010 0.000009  -0.003664 0.023356 -0.272237
7  0.729354 0.000054 0.000050  -0.003677 0.000626 -0.150723
8  3.942140 0.046332 -0.431544  -0.205965 0.132196 -1.449654
9  1.539110 0.000083 0.000005  -0.000570 0.007396 -0.283198
10  1.196331 0.000147 0.000026  -0.000713 0.000161 -0.519019
11  3.883509 -0.047212 0.431348  -0.042690 0.198097 -1.260493
12  1.719572 -0.000028 0.000017  -0.000644 0.003280 -0.404344
13  1.209177 0.000090 0.000014  -0.000905 0.002861 -0.623854
14  3.859676 -0.138418 1.332378  -0.235831 0.317274 -1.342437
15  1.719449 -0.000019 0.000029  0.001902 0.001157 -0.067177
16  1.099674 0.000050 0.000007  -0.000943 0.002399 -0.620101
17  0.459534 -0.272516 1.494838  -1.528877 -0.394735 -0.263833
18  1.789819 -0.000005 -0.000016  -0.005043 0.002467 0.111593
19  1.207016 -0.000011 -0.000043  -0.005634 -0.000693 0.835388
20  5.740637 0.000388 -0.000700  0.186106 0.000003 0.000064
21  11.480997 0.000235 -0.000826  0.182604 -0.014079 0.075146
22  6.027524 -0.000329 0.000201  2.352092 -0.687662 1.373661
23  -0.000001 11.692101 -0.000007  -0.964440 -0.416842 -0.767909
24  0.000003 0.000008 -0.000000  -0.121332 -0.000030 1.570739
25  -0.000001 -0.000011 0.000001  0.868960 0.000002 1.570712
26  -6.899342 -10.734701 0.826813  1.473120 1.855075 -0.198639
27  6.027514 -0.000264 -0.000215  2.199008 1.657612 0.792280
28  11.691989 0.000161 0.000859  0.139828 -0.000002 -0.115081
29  11.481179 0.000273 0.000794  -1.145028 -0.465022 0.064056
30  3.710774 -0.434234 1.096848  0.974897 -0.111756 -2.079603
31  1.312561 0.000030 0.000000  0.008191 -0.088214 -0.285514
32  0.729348 0.000065 -0.000027  -0.132450 -0.134191 -1.087309
33  3.820805 -0.154608 0.327899  0.610805 -0.300364 -1.640271
34  1.539096 0.000003 -0.000002  0.047162 -0.047589 -0.892209
35  1.196301 0.000079 -0.000003  -0.021079 -0.009374 -1.253100
36  3.882446 -0.171891 -0.416805  0.406628 -0.376223 -1.253560
37  1.719566 -0.000081 -0.000006  0.018695 -0.082922 -1.374417
38  1.209194 0.000032 0.000011  0.003361 -0.003782 -0.857658
39  3.859584 -0.149081 -1.331323  0.052683 -0.238405 -0.449221
40  1.719414 -0.000097 -0.000037  0.031466 0.001819 -1.126077
41  1.099673 0.000024 0.000007  -0.005117 -0.008160 -0.712530
42  0.230503 -0.805066 -1.086893  1.111612 0.594062 -0.578210
43  1.789780 -0.000009 -0.000042  -0.089312 -0.070323 0.368341
44  1.206995 -0.000006 0.000002  0.000678 -0.214508 0.376132
45  5.740572 0.000079 0.000721  0.092654 -0.000014 0.000028
46  11.481181 0.000129 0.000904  0.089151 -0.108653 0.012757
47  6.027515 -0.000273 -0.000229  -1.657413 0.006315 -0.705154
48  -0.000001 11.691975 -0.000008  -0.087803 0.003284 0.074201
49  0.000003 -0.000000 0.000000  2.412441 -0.000036 1.570860
50  -0.000007 -0.000014 0.000004  2.272645 -0.000036 1.570861
51  -1.279058 -10.944918 -9.075447  2.311566 0.563148 -1.270179
52  -0.000001 -0.000000 0.000001  0.008153 -0.000259 0.000009
53  -0.000001 0.000000 -0.000000  1.565115 0.043565 -0.106862
54  8.707796 -7.612189 -15.660713  0.551539 0.100189 -1.740778
55  0.000000 -0.000000 -0.000000  0.000000 -0.000001 -0.000002
56  0.000031 0.000028 0.000002  -1.571901 -0.044449 -0.106509
57  19.055300 -17.491032 -32.885635  1.570796 -0.000000 0.000000
58  -22.092199 0.921662 -9.971610  1.570796 -0.000000 0.000000
59  1.941978 9.263218 -8.327020  1.570796 -0.000000 0.000000
60  -0.004311 0.001229 -0.000372  0.006898 -0.005534 -0.284229
61  0.826810 11.791080 -4.879054  1.570796 -0.000000 0.000000
62  0.000000 0.000000 0.000000  -0.078727 -3.136056 0.284226
63  0.000000 0.000000 0.000000  1.570546 0.000150 -0.000153
64  0.877642 -12.368829 -10.538225  2.597125 0.290873 0.905292
65  -0.008022 0.449004 2.449477  0.000000 -0.000000 0.000000
66  -0.008021 1.798499 0.936337  0.000000 -0.000000 0.000000
67  -0.000001 2.151127 1.009987  0.000000 -0.000000 0.000000
68  -0.008023 1.347419 0.085286  -1.051149 0.001216 0.000412
69  0.230626 1.332312 3.105304  0.175653 -0.000000 -0.000000
70  -0.008024 2.211806 7.723071  -0.028798 -0.000000 0.000000
71  -0.008022 1.228065 5.810775  0.000000 -0.000000 0.000000
72  -0.008023 1.115505 -0.313082  0.000000 -0.000000 0.000000
73  -0.008023 1.345871 0.084163  1.570796 0.000000 -0.000000
74  -0.008022 0.197513 1.902818  0.000000 -0.000000 0.000000
75  3.014841 -14.243711 -11.028570  2.597125 0.290873 0.905292
76  2.555490 -13.544829 -10.167612  2.597125 0.290873 0.905292
77  -0.008021 -0.653745 0.060182  0.000000 -0.000000 0.000000
78  -0.008021 -1.155511 -0.087181  0.000000 -0.000000 0.000000
79  0.000001 -0.501765 -0.147366  0.000000 -0.000000 0.000000
80  0.000000 -1.003531 -0.294728  0.000000 -0.000000 0.000000
81  0.000001 -1.505297 -0.442089  0.000000 -0.000000 0.000000
82  0.000001 -2.007061 -0.589453  0.000000 -0.000000 0.000000
83  0.000001 -2.508827 -0.736814  0.000000 -0.000000 0.000000
84  0.000001 -2.772560 -0.939009  0.000000 -0.000000 0.000000
85  0.000000 -3.071457 -1.220323  0.000000 -0.000000 0.000000
86  -0.283370 -4.518087 -0.534133  0.346743 -0.000000 -0.000000
87  0.000000 0.993480 -0.063565  -0.012322 0.000000 -0.000000
88  3.014841 -14.243711 -11.028570  2.597125 0.290873 0.905292
time 13
0  0.000006 0.000000 0.000000  -1.570800 -1.391899 -1.570792
1  -9.841317 -7.634221 1.937669  -1.544956 -1.855077 -0.198630
2  6.027518 -0.000323 0.000195  -1.441213 -0.573300 -0.776851
3  11.692109 0.000644 -0.000740  -0.990428 -0.000018 -1.394181
4  11.479898 0.000310 -0.000861  2.511729 -0.266442 0.314304
5  3.666626 -0.163904 -1.204801  -0.519250 0.086737 -1.532179
6  1.312589 0.000008 0.000007  -0.003664 0.023357 -0.272237
7  0.729355 0.000055 0.000048  -0.003677 0.000626 -0.150723
8  3.942139 0.046332 -0.431543  -0.205965 0.132196 -1.449654
9  1.539111 0.000083 0.000004  -0.000570 0.007396 -0.283198
10  1.196332 0.000146 0.000028  -0.000713 0.000161 -0.519018
11  3.883510 -0.047212 0.431351  -0.042690 0.198097 -1.260493
12  1.719573 -0.000030 0.000018  -0.000644 0.003280 -0.404344
13  1.209179 0.000091 0.000012  -0.000905 0.002861 -0.623854
14  3.859676 -0.138418 1.332379  -0.235831 0.317274 -1.342437
15  1.719449 -0.000020 0.000029  0.001902 0.001156 -0.067177
16  1.099673 0.000048 0.000007  -0.000943 0.002399 -0.620101
17  0.459532 -0.272516 1.494840  -1.528877 -0.394735 -0.263833
18  1.789819 -0.000002 -0.000016  -0.005043 0.002467 0.111593
19  1.207017 -0.000012 -0.000042  -0.005634 -0.000693 0.835388
20  5.740635 0.000390 -0.000699  0.199100 0.000003 0.000063
21  11.480992 0.000234 -0.000829  0.192418 -0.004009 0.083486
22  6.027524 -0.000329 0.000201  2.377608 -0.669760 1.330441
23  0.000001 11.692097 -0.000007  -0.966387 -0.418563 -0.769211
24  0.000004 0.000009 0.000001  -0.121333 -0.000031 1.570739
25  0.000001 -0.000012 -0.000000  0.868960 0.000002 1.570712
26  -6.899342 -10.734701 0.826813  1.473120 1.855075 -0.198639
27  6.027514 -0.000264 -0.000215  1.988824 1.709138 0.583366
28  11.691988 0.000162 0.000858  0.139820 -0.000001 -0.007066
29  11.491284 0.000300 0.000790  -1.121993 -0.480308 0.008206
30  3.710775 -0.434235 1.096848  0.974897 -0.111756 -2.079603
31  1.312560 0.000030 -0.000001  0.008191 -0.088214 -0.285514
32  0.729348 0.000066 -0.000027  -0.132450 -0.134191 -1.087309
33  3.820807 -0.154609 0.327899  0.610805 -0.300364 -1.640271
34  1.539094 0.000006 -0.000002  0.047162 -0.047589 -0.892209
35  1.196302 0.000079 -0.000003  -0.021079 -0.009374 -1.253100
36  3.882447 -0.171892 -0.416805  0.406628 -0.376223 -1.253559
37  1.719565 -0.000084 -0.000005  0.018695 -0.082922 -1.374417
38  1.209195 0.000034 0.000011  0.003361 -0.003782 -0.857658
39  3.859585 -0.149082 -1.331322  0.052683 -0.238405 -0.449221
40  1.719413 -0.000097 -0.000037  0.031466 0.001819 -1.126076
41  1.099671 0.000022 0.000006  -0.005117 -0.008160 -0.712530
42  0.230504 -0.805066 -1.086894  1.111612 0.594062 -0.578210
43  1.789780 -0.000009 -0.000041  -0.089312 -0.070323 0.368341
44  1.206996 -0.000008 0.000006  0.000678 -0.214508 0.376132
45  5.740573 0.000079 0.000720  0.096080 -0.000014 0.000028
46  11.483202 0.000134 0.000902  0.091193 -0.113357 0.003249
47  6.027515 -0.000273 -0.000229  -1.703705 0.038562 -0.706175
48  -0.000000 11.691974 -0.000008  -0.005397 0.000036 0.004562
49  0.000002 0.000000 0.000001  2.412441 -0.000036 1.570860
50  -0.000007 -0.000014 0.000005  2.272645 -0.000036 1.570861
51  -1.198496 -10.967408 -9.195545  2.335152 0.575084 -1.262540
52  -0.000000 -0.000000 0.000001  0.008153 -0.000259 0.000009
53  0.000001 -0.000000 -0.000000  1.565115 0.043565 -0.106862
54  8.979153 -7.601454 -15.562081  0.583121 0.118003 -1.760297
55  0.000000 0.000001 -0.000000  0.000000 -0.000001 -0.000002
56  0.000030 0.000029 0.000001  -1.571902 -0.044449 -0.106509
57  19.148857 -17.463802 -33.093025  1.570796 -0.000000 0.000000
58  -22.092199 0.921662 -9.971610  1.570796 -0.000000 0.000000
59  1.941978 9.263218 -8.327020  1.570796 -0.000000 0.000000
60  -0.004311 0.001229 -0.000372  0.006898 -0.005534 -0.284229
61  0.826810 11.791080 -4.879054  1.570796 -0.000000 0.000000
62  0.000000 0.000000 0.000000  -0.078727 -3.136056 0.284226
63  0.000000 0.000000 0.000000  1.570796 -0.000000 0.000000
64  0.973446 -12.377004 -10.649612  2.595747 0.267733 0.899840
65  -0.008021 0.449003 2.449478  0.000000 -0.000000 0.000000
66  -0.008019 1.798498 0.936337  0.000000 -0.000000 0.000000
67  0.000001 2.151126 1.009986  0.000000 -0.000000 0.000000
68  -0.008022 1.347419 0.085285  -1.051149 0.001216 0.000412
69  0.230629 1.332312 3.105305  0.175652 -0.000000 -0.000000
70  -0.008021 2.211806 7.723071  -0.028798 -0.000000 0.000000
71  -0.008021 1.228065 5.810776  0.000000 -0.000000 0.000000
72  -0.008022 1.115505 -0.313082  0.000000 -0.000000 0.000000
73  -0.008022 1.345870 0.084164  1.570796 0.000000 -0.000000
74  -0.008021 0.197513 1.902819  0.000000 -0.000000 0.000000
75  3.108666 -14.254219 -11.139645  2.595747 0.267733 0.899840
76  2.639551 -13.567958 -10.273813  2.595747 0.267733 0.899840
77  -0.008021 -0.653745 0.060182  0.000000 -0.000000 0.000000
78  -0.008020 -1.155511 -0.087181  0.000000 -0.000000 0.000000
79  0.000001 -0.501766 -0.147367  0.000000 -0.000000 0.000000
80  0.000000 -1.003531 -0.294729  0.000000 -0.000000 0.000000
81  0.000001 -1.505297 -0.442091  0.000000 -0.000000 0.000000
82  0.000000 -2.007062 -0.589454  0.000000 -0.000000 0.000000
83  0.000000 -2.508827 -0.736815  0.000000 -0.000000 0.000000
84  -0.000000 -2.772560 -0.939010  0.000000 -0.000000 0.000000
85  0.000000 -3.071457 -1.220325  0.000000 -0.000000 0.000000
86  -0.283371 -4.518085 -0.534134  0.346743 -0.000000 -0.000000
87  -0.000001 0.993481 -0.063564  -0.012322 0.000000 -0.000000
88  3.108666 -14.254219 -11.139645  2.595747 0.267733 0.899840
end
