version 1
nodes
0 "ValveBiped.Bip01_Spine4" -1
1 "ValveBiped.Bip01_L_Clavicle" 0
2 "ValveBiped.Bip01_L_UpperArm" 1
3 "ValveBiped.Bip01_L_Forearm" 2
4 "ValveBiped.Bip01_L_Hand" 3
5 "ValveBiped.Bip01_L_Finger4" 4
6 "ValveBiped.Bip01_L_Finger41" 5
7 "ValveBiped.Bip01_L_Finger42" 6
8 "ValveBiped.Bip01_L_Finger3" 4
9 "ValveBiped.Bip01_L_Finger31" 8
10 "ValveBiped.Bip01_L_Finger32" 9
11 "ValveBiped.Bip01_L_Finger2" 4
12 "ValveBiped.Bip01_L_Finger21" 11
13 "ValveBiped.Bip01_L_Finger22" 12
14 "ValveBiped.Bip01_L_Finger1" 4
15 "ValveBiped.Bip01_L_Finger11" 14
16 "ValveBiped.Bip01_L_Finger12" 15
17 "ValveBiped.Bip01_L_Finger0" 4
18 "ValveBiped.Bip01_L_Finger01" 17
19 "ValveBiped.Bip01_L_Finger02" 18
20 "ValveBiped.Bip01_L_Ulna" 3
21 "ValveBiped.Bip01_L_Wrist" 3
22 "rig_l_upperarm" 1
23 "rig_l_forearm" 22
24 "rig_d_l_forearm" 23
25 "rig_d_l_upperarm" 22
26 "ValveBiped.Bip01_R_Clavicle" 0
27 "ValveBiped.Bip01_R_UpperArm" 26
28 "ValveBiped.Bip01_R_Forearm" 27
29 "ValveBiped.Bip01_R_Hand" 28
30 "ValveBiped.Bip01_R_Finger4" 29
31 "ValveBiped.Bip01_R_Finger41" 30
32 "ValveBiped.Bip01_R_Finger42" 31
33 "ValveBiped.Bip01_R_Finger3" 29
34 "ValveBiped.Bip01_R_Finger31" 33
35 "ValveBiped.Bip01_R_Finger32" 34
36 "ValveBiped.Bip01_R_Finger2" 29
37 "ValveBiped.Bip01_R_Finger21" 36
38 "ValveBiped.Bip01_R_Finger22" 37
39 "ValveBiped.Bip01_R_Finger1" 29
40 "ValveBiped.Bip01_R_Finger11" 39
41 "ValveBiped.Bip01_R_Finger12" 40
42 "ValveBiped.Bip01_R_Finger0" 29
43 "ValveBiped.Bip01_R_Finger01" 42
44 "ValveBiped.Bip01_R_Finger02" 43
45 "ValveBiped.Bip01_R_Ulna" 28
46 "ValveBiped.Bip01_R_Wrist" 28
47 "rig_r_upperarm" 26
48 "rig_r_forearm" 47
49 "rig_d_r_forearm" 48
50 "rig_d_r_upperarm" 47
51 "rig_r_hand" -1
52 "rig_d_r_hand" 51
53 "rig_d_r_wrist" 52
54 "rig_l_hand" -1
55 "rig_d_l_hand" 54
56 "rig_d_l_wrist" 54
57 "rig_l_pole" -1
58 "rig_r_pole" -1
59 "rig_l_clavicle" -1
60 "rig_d_l_clavicle" 59
61 "rig_r_clavicle" -1
62 "rig_d_r_clavicle" 61
63 "Camera" -1
64 "body" -1
65 "trigger" 64
66 "bullet1" 64
67 "slide" 64
68 "hammer" 64
69 "sliderelease" 64
70 "barrel" 64
71 "slidesg" 64
72 "grip_safety" 64
73 "safety" 64
74 "magrelease" 64
75 "sg_round" -1
76 "mag" -1
77 "bullet2" 76
78 "bullet3" 76
79 "bullet4" 78
80 "bullet5" 78
81 "bullet6" 78
82 "bullet7" 78
83 "bullet8" 78
84 "bullet9" 78
85 "bullet10" 78
86 "springstart" 76
87 "springend" 86
88 "sg_shell" -1
end
skeleton
time 0
0  0.000006 0.000000 0.000000  -1.570800 -1.391899 -1.570792
1  -9.841317 -7.634221 1.937669  -1.544956 -1.855077 -0.198630
2  6.027525 -0.000329 0.000190  -0.046636 -1.482824 -1.947293
3  11.692115 0.000646 -0.000738  -0.990394 0.000005 -0.817278
4  11.480170 0.000508 -0.000561  1.037812 -0.327222 0.409754
5  3.666628 -0.163903 -1.204803  -0.519250 0.086737 -1.532179
6  1.312588 0.000011 0.000007  -0.003664 0.023357 -0.272237
7  0.729355 0.000054 0.000049  -0.003677 0.000626 -0.150723
8  3.942140 0.046331 -0.431543  -0.205965 0.132196 -1.449654
9  1.539111 0.000083 0.000004  -0.000570 0.007396 -0.283198
10  1.196333 0.000147 0.000028  -0.000713 0.000161 -0.519018
11  3.883510 -0.047211 0.431351  -0.042690 0.198097 -1.260493
12  1.719573 -0.000028 0.000017  -0.000644 0.003280 -0.404344
13  1.209179 0.000090 0.000012  -0.000905 0.002861 -0.623854
14  3.859677 -0.138418 1.332380  -0.235831 0.317274 -1.342437
15  1.719448 -0.000018 0.000028  0.001902 0.001157 -0.067177
16  1.099676 0.000049 0.000006  -0.000943 0.002399 -0.620101
17  0.459533 -0.272515 1.494839  -1.528877 -0.394735 -0.263833
18  1.789818 -0.000004 -0.000016  -0.005043 0.002467 0.111593
19  1.207016 -0.000012 -0.000045  -0.005634 -0.000693 0.835388
20  5.740636 0.000389 -0.000700  -0.115682 0.000003 0.000063
21  11.481044 0.000281 -0.000766  -0.089975 -0.063309 0.049805
22  6.027524 -0.000329 0.000201  1.517109 -0.069806 1.851374
23  0.000001 11.692100 -0.000007  -0.599033 -0.156382 -0.496821
24  0.000003 0.000010 -0.000000  -0.121332 -0.000030 1.570739
25  0.000001 -0.000011 0.000000  0.868960 0.000002 1.570712
26  -6.899342 -10.734701 0.826813  1.473120 1.855075 -0.198639
27  6.027517 -0.000263 -0.000216  1.569580 1.238355 -0.683402
28  11.691990 0.000161 0.000859  0.139889 0.000017 -0.998212
29  11.480539 0.000019 0.000828  -1.300323 0.548699 0.509511
30  3.710774 -0.434234 1.096849  0.974897 -0.111756 -2.079603
31  1.312560 0.000031 -0.000000  0.008191 -0.088214 -0.285514
32  0.729348 0.000066 -0.000028  -0.132450 -0.134191 -1.087309
33  3.820806 -0.154608 0.327900  0.610805 -0.300364 -1.640271
34  1.539095 0.000003 -0.000002  0.047162 -0.047589 -0.892209
35  1.196302 0.000080 -0.000002  -0.021079 -0.009374 -1.253100
36  3.882446 -0.171892 -0.416804  0.406628 -0.376223 -1.253560
37  1.719565 -0.000082 -0.000005  0.018695 -0.082922 -1.374417
38  1.209193 0.000033 0.000012  0.003361 -0.003782 -0.857658
39  3.859584 -0.149081 -1.331322  0.052683 -0.238405 -0.449221
40  1.719412 -0.000097 -0.000037  0.031466 0.001818 -1.126076
41  1.099673 0.000023 0.000006  -0.005117 -0.008160 -0.712530
42  0.230504 -0.805067 -1.086893  1.111612 0.594062 -0.578210
43  1.789780 -0.000008 -0.000042  -0.089312 -0.070323 0.368341
44  1.206996 -0.000007 0.000005  0.000678 -0.214508 0.376132
45  5.740573 0.000080 0.000721  0.084682 -0.000013 0.000028
46  11.481052 0.000077 0.000911  0.028369 0.097850 0.073926
47  6.027515 -0.000273 -0.000229  -1.313294 -0.212666 -1.578778
48  -0.000001 11.691974 -0.000007  -0.719350 0.227889 0.590804
49  0.000003 0.000000 0.000000  2.412441 -0.000036 1.570860
50  -0.000007 -0.000014 0.000005  2.272645 -0.000036 1.570861
51  -2.538002 -8.408206 -5.370322  -0.148535 -2.879863 1.246914
52  0.000000 -0.000000 -0.000000  0.008153 -0.000259 0.000009
53  0.000000 0.000000 0.000000  1.565115 0.043565 -0.106862
54  0.162817 -10.241511 -6.033255  -0.543722 -0.024713 -1.962570
55  0.000000 0.000001 0.000001  0.000000 -0.000001 -0.000002
56  0.000031 0.000030 0.000002  -1.571901 -0.044449 -0.106509
57  12.000549 -19.544212 -17.246658  1.570796 -0.000000 0.000000
58  -15.417984 4.000748 -22.641926  1.570796 -0.000000 0.000000
59  1.941978 9.263218 -8.327020  1.570796 -0.000000 0.000000
60  -0.004311 0.001229 -0.000372  0.006898 -0.005534 -0.284229
61  0.826810 11.791080 -4.879054  1.570796 -0.000000 0.000000
62  0.000000 0.000000 0.000000  -0.078727 -3.136056 0.284226
63  0.000000 0.000000 0.000000  1.570796 -0.000000 0.000000
64  -1.915771 -10.889102 -3.861487  1.570796 -0.000000 0.000000
65  -0.008022 0.449004 2.449477  0.000000 -0.000000 0.000000
66  -0.008021 1.798499 0.936337  0.000000 -0.000000 0.000000
67  0.000000 2.151127 1.009987  0.000000 -0.000000 0.000000
68  -0.008023 1.347420 0.085285  -1.051149 0.001216 0.000412
69  0.230628 1.332312 3.105305  0.175653 0.000000 -0.000000
70  -0.008024 2.211807 7.723073  -0.028798 -0.000000 0.000000
71  -0.008022 1.228065 5.810777  0.000000 -0.000000 0.000000
72  -0.008023 1.115505 -0.313082  0.000000 -0.000000 0.000000
73  -0.008023 1.345870 0.084164  1.570796 -0.000000 -0.000000
74  -0.008023 0.197514 1.902819  0.000000 -0.000000 0.000000
75  -1.923793 -12.799380 -1.699540  1.570796 -0.000000 0.000000
76  -1.915770 -11.617895 -1.911009  1.570796 -0.000000 0.000000
77  -0.008021 -0.653744 0.060182  0.000000 -0.000000 0.000000
78  -0.008021 -1.155510 -0.087180  0.000000 -0.000000 0.000000
79  0.000000 -0.501765 -0.147367  0.000000 -0.000000 0.000000
80  0.000000 -1.003531 -0.294728  0.000000 -0.000000 0.000000
81  0.000000 -1.505297 -0.442090  0.000000 -0.000000 0.000000
82  0.000000 -2.007061 -0.589454  0.000000 -0.000000 0.000000
83  0.000000 -2.508827 -0.736814  0.000000 -0.000000 0.000000
84  0.000000 -2.772560 -0.939010  0.000000 -0.000000 0.000000
85  0.000000 -3.071457 -1.220325  0.000000 -0.000000 0.000000
86  -0.283371 -4.518086 -0.534134  0.346743 -0.000000 -0.000000
87  0.000000 0.993480 -0.063565  -0.012322 0.000000 0.000000
88  -1.923793 -12.799380 -1.699540  1.570796 -0.000000 0.000000
time 1
0  0.000006 0.000000 0.000000  -1.570800 -1.391899 -1.570792
1  -9.841317 -7.634221 1.937669  -1.544956 -1.855077 -0.198630
2  6.027525 -0.000329 0.000190  -0.059056 -1.482487 -1.933814
3  11.692114 0.000645 -0.000739  -0.990394 0.000005 -0.819278
4  11.480110 0.000497 -0.000579  1.034818 -0.329778 0.411665
5  3.666628 -0.163903 -1.204803  -0.519250 0.086737 -1.532179
6  1.312590 0.000009 0.000008  -0.003664 0.023356 -0.272237
7  0.729355 0.000052 0.000049  -0.003677 0.000626 -0.150723
8  3.942141 0.046332 -0.431543  -0.205965 0.132196 -1.449654
9  1.539110 0.000081 0.000004  -0.000570 0.007396 -0.283198
10  1.196332 0.000146 0.000028  -0.000713 0.000161 -0.519019
11  3.883511 -0.047211 0.431351  -0.042690 0.198097 -1.260493
12  1.719573 -0.000028 0.000018  -0.000644 0.003280 -0.404344
13  1.209179 0.000091 0.000012  -0.000905 0.002861 -0.623854
14  3.859677 -0.138418 1.332379  -0.235831 0.317274 -1.342437
15  1.719448 -0.000018 0.000029  0.001902 0.001157 -0.067177
16  1.099676 0.000047 0.000005  -0.000943 0.002399 -0.620101
17  0.459534 -0.272515 1.494838  -1.528877 -0.394735 -0.263833
18  1.789819 -0.000004 -0.000016  -0.005043 0.002467 0.111593
19  1.207016 -0.000012 -0.000044  -0.005634 -0.000693 0.835388
20  5.740636 0.000389 -0.000700  -0.116343 0.000003 0.000064
21  11.481030 0.000279 -0.000769  -0.090371 -0.063985 0.049931
22  6.027524 -0.000329 0.000201  1.517776 -0.070736 1.852434
23  0.000001 11.692099 -0.000008  -0.600392 -0.157111 -0.497900
24  0.000005 0.000009 0.000000  -0.121332 -0.000030 1.570739
25  0.000001 -0.000011 -0.000000  0.868960 0.000002 1.570712
26  -6.899342 -10.734701 0.826813  1.473120 1.855075 -0.198639
27  6.027517 -0.000263 -0.000216  1.569420 1.237564 -0.683528
28  11.691993 0.000161 0.000859  0.139889 0.000017 -0.998805
29  11.480535 0.000016 0.000827  -1.300553 0.546207 0.510498
30  3.710774 -0.434234 1.096848  0.974897 -0.111756 -2.079603
31  1.312560 0.000032 0.000000  0.008191 -0.088214 -0.285514
32  0.729347 0.000067 -0.000028  -0.132450 -0.134191 -1.087309
33  3.820805 -0.154609 0.327899  0.610805 -0.300364 -1.640271
34  1.539095 0.000004 -0.000002  0.047162 -0.047589 -0.892209
35  1.196301 0.000081 -0.000004  -0.021079 -0.009374 -1.253100
36  3.882444 -0.171892 -0.416804  0.406628 -0.376223 -1.253560
37  1.719566 -0.000083 -0.000005  0.018694 -0.082922 -1.374417
38  1.209193 0.000033 0.000012  0.003361 -0.003782 -0.857658
39  3.859584 -0.149082 -1.331322  0.052683 -0.238405 -0.449221
40  1.719412 -0.000097 -0.000037  0.031466 0.001819 -1.126076
41  1.099672 0.000022 0.000006  -0.005117 -0.008160 -0.712530
42  0.230503 -0.805066 -1.086893  1.071543 0.577057 -0.605462
43  1.789779 -0.000006 -0.000042  -0.064702 -0.046588 0.272509
44  1.206996 -0.000007 0.000005  -0.005336 -0.198025 0.544688
45  5.740573 0.000079 0.000720  0.084545 -0.000014 0.000028
46  11.481052 0.000077 0.000910  0.028427 0.097374 0.074212
47  6.027515 -0.000273 -0.000229  -1.312697 -0.213201 -1.578880
48  -0.000002 11.691977 -0.000007  -0.719736 0.228141 0.591100
49  0.000003 -0.000000 0.000001  2.412441 -0.000036 1.570860
50  -0.000008 -0.000013 0.000005  2.272645 -0.000036 1.570861
51  -2.543090 -8.406040 -5.379492  -0.149895 -2.881803 1.248888
52  -0.000000 -0.000000 -0.000001  0.008153 -0.000259 0.000009
53  -0.000000 0.000000 -0.000000  1.565115 0.043565 -0.106862
54  0.160281 -10.233456 -6.048260  -0.545165 -0.022868 -1.960912
55  0.000001 -0.000000 0.000000  0.000000 -0.000001 -0.000002
56  0.000031 0.000029 0.000001  -1.571902 -0.044449 -0.106509
57  12.000549 -19.544212 -17.246658  1.570796 -0.000000 0.000000
58  -15.417984 4.000748 -22.641926  1.570796 -0.000000 0.000000
59  1.941978 9.263218 -8.327020  1.570796 -0.000000 0.000000
60  -0.004311 0.001229 -0.000372  0.006898 -0.005534 -0.284229
61  0.826810 11.791080 -4.879054  1.570796 -0.000000 0.000000
62  0.000000 0.000000 0.000000  -0.078727 -3.136056 0.284226
63  0.000000 0.000000 0.000000  1.570796 -0.000000 0.000000
64  -1.915878 -10.889318 -3.876652  1.573053 0.000629 0.001624
65  -0.008021 0.449004 2.449478  0.000000 0.000000 0.000000
66  -0.008021 1.798499 0.936337  0.000000 0.000000 0.000000
67  0.000001 2.151127 1.009987  0.000000 0.000000 0.000000
68  -0.008023 1.347420 0.085286  -1.051149 0.001216 0.000412
69  0.230628 1.332312 3.105306  0.175653 0.000000 -0.000000
70  -0.008023 2.211807 7.723073  -0.028798 0.000000 0.000000
71  -0.008022 1.228065 5.810776  0.000000 0.000000 0.000000
72  -0.008022 1.115505 -0.313082  0.000000 0.000000 0.000000
73  -0.008022 1.345870 0.084164  1.570796 0.000000 -0.000000
74  -0.008022 0.197514 1.902819  0.000000 0.000000 0.000000
75  -1.919431 -12.804478 -1.719017  1.573053 0.000629 0.001624
76  -1.913460 -11.622509 -1.927824  1.573053 0.000629 0.001624
77  -0.008021 -0.653745 0.060181  0.000000 0.000000 0.000000
78  -0.008021 -1.155510 -0.087181  0.000000 0.000000 0.000000
79  0.000000 -0.501765 -0.147367  0.000000 0.000000 0.000000
80  0.000000 -1.003531 -0.294729  0.000000 0.000000 0.000000
81  0.000000 -1.505297 -0.442090  0.000000 0.000000 0.000000
82  0.000000 -2.007061 -0.589454  0.000000 0.000000 0.000000
83  0.000000 -2.508827 -0.736814  0.000000 0.000000 0.000000
84  0.000000 -2.772560 -0.939009  0.000000 0.000000 0.000000
85  0.000000 -3.071457 -1.220325  0.000000 0.000000 0.000000
86  -0.283371 -4.518086 -0.534134  0.346743 -0.000000 -0.000000
87  0.000000 0.993480 -0.063564  -0.012322 0.000000 0.000000
88  -1.919431 -12.804478 -1.719017  1.573053 0.000629 0.001624
time 2
0  0.000006 0.000000 0.000000  -1.570800 -1.391899 -1.570792
1  -9.841317 -7.634221 1.937669  -1.544956 -1.855077 -0.198630
2  6.027525 -0.000329 0.000190  -0.081552 -1.481740 -1.909029
3  11.692114 0.000645 -0.000741  -0.990394 0.000005 -0.823144
4  11.480001 0.000475 -0.000612  1.027212 -0.334793 0.415311
5  3.666627 -0.163904 -1.204802  -0.519250 0.086737 -1.532179
6  1.312590 0.000010 0.000008  -0.003664 0.023357 -0.272237
7  0.729356 0.000053 0.000049  -0.003677 0.000626 -0.150723
8  3.942138 0.046331 -0.431543  -0.205965 0.132196 -1.449654
9  1.539111 0.000084 0.000004  -0.000570 0.007396 -0.283198
10  1.196332 0.000145 0.000028  -0.000713 0.000161 -0.519018
11  3.883508 -0.047212 0.431351  -0.042690 0.198097 -1.260493
12  1.719573 -0.000029 0.000017  -0.000644 0.003280 -0.404344
13  1.209179 0.000090 0.000012  -0.000905 0.002861 -0.623854
14  3.859675 -0.138418 1.332380  -0.235831 0.317274 -1.342437
15  1.719448 -0.000019 0.000028  0.001902 0.001157 -0.067177
16  1.099675 0.000049 0.000006  -0.000943 0.002399 -0.620101
17  0.459532 -0.272516 1.494838  -1.528877 -0.394735 -0.263833
18  1.789820 -0.000004 -0.000016  -0.005043 0.002467 0.111593
19  1.207015 -0.000013 -0.000045  -0.005634 -0.000693 0.835388
20  5.740636 0.000389 -0.000699  -0.117994 0.000003 0.000063
21  11.481009 0.000275 -0.000775  -0.091476 -0.065372 0.050081
22  6.027524 -0.000329 0.000201  1.518942 -0.072518 1.854728
23  -0.000001 11.692099 -0.000007  -0.603017 -0.158524 -0.499984
24  0.000002 0.000009 -0.000000  -0.121332 -0.000031 1.570738
25  -0.000000 -0.000012 0.000001  0.868960 0.000002 1.570712
26  -6.899342 -10.734701 0.826813  1.473120 1.855075 -0.198639
27  6.027517 -0.000263 -0.000216  1.569638 1.236058 -0.683353
28  11.691992 0.000162 0.000859  0.139889 0.000017 -1.000094
29  11.480526 0.000015 0.000827  -1.302629 0.540874 0.512526
30  3.710774 -0.434235 1.096849  0.974897 -0.111756 -2.079603
31  1.312560 0.000030 0.000000  0.008191 -0.088214 -0.285514
32  0.729347 0.000066 -0.000028  -0.132450 -0.134191 -1.087309
33  3.820805 -0.154608 0.327899  0.610805 -0.300364 -1.640271
34  1.539095 0.000003 -0.000002  0.047162 -0.047589 -0.892209
35  1.196302 0.000079 -0.000002  -0.021078 -0.009374 -1.253100
36  3.882444 -0.171892 -0.416804  0.406628 -0.376223 -1.253559
37  1.719565 -0.000083 -0.000005  0.018695 -0.082922 -1.374417
38  1.209194 0.000034 0.000012  0.003361 -0.003782 -0.857658
39  3.859583 -0.149082 -1.331321  0.052683 -0.238405 -0.449221
40  1.719413 -0.000098 -0.000037  0.031466 0.001819 -1.126076
41  1.099673 0.000022 0.000006  -0.005117 -0.008160 -0.712530
42  0.230503 -0.805067 -1.086892  0.989101 0.537726 -0.660035
43  1.789778 -0.000007 -0.000043  -0.020117 0.011731 0.068553
44  1.206993 -0.000006 0.000005  -0.008282 -0.160254 0.908966
45  5.740572 0.000080 0.000721  0.083991 -0.000013 0.000028
46  11.481050 0.000077 0.000911  0.028265 0.096290 0.074899
47  6.027515 -0.000273 -0.000229  -1.311448 -0.214087 -1.579176
48  -0.000001 11.691975 -0.000008  -0.720575 0.228690 0.591742
49  0.000003 -0.000001 -0.000000  2.412441 -0.000036 1.570860
50  -0.000008 -0.000013 0.000005  2.272645 -0.000036 1.570861
51  -2.555029 -8.401069 -5.393604  -0.154154 -2.885671 1.253045
52  0.000000 0.000000 0.000000  0.008153 -0.000259 0.000009
53  -0.000001 0.000000 0.000001  1.565115 0.043565 -0.106862
54  0.152113 -10.216813 -6.078704  -0.549540 -0.019291 -1.957749
55  -0.000000 0.000000 0.000000  0.000000 -0.000001 -0.000002
56  0.000030 0.000029 0.000001  -1.571901 -0.044449 -0.106509
57  12.000549 -19.544212 -17.246658  1.570796 -0.000000 0.000000
58  -15.417984 4.000748 -22.641926  1.570796 -0.000000 0.000000
59  1.941978 9.263218 -8.327020  1.570796 -0.000000 0.000000
60  -0.004311 0.001229 -0.000372  0.006898 -0.005534 -0.284229
61  0.826810 11.791080 -4.879054  1.570796 -0.000000 0.000000
62  0.000000 0.000000 0.000000  -0.078727 -3.136056 0.284226
63  0.000000 0.000000 0.000000  1.570796 -0.000000 0.000000
64  -1.916154 -10.889833 -3.904816  1.578029 0.003306 0.004705
65  -0.008022 0.449004 2.449476  0.000000 -0.000000 0.000000
66  -0.008021 1.798499 0.936336  0.000000 -0.000000 0.000000
67  0.000000 2.151127 1.009986  0.000000 -0.000000 0.000000
68  -0.008023 1.347420 0.085285  -1.051149 0.001216 0.000412
69  0.230628 1.332312 3.105304  0.175653 -0.000000 -0.000000
70  -0.008024 2.211807 7.723072  -0.028798 -0.000000 0.000000
71  -0.008022 1.228065 5.810774  0.000000 -0.000000 0.000000
72  -0.008023 1.115505 -0.313082  0.000000 -0.000000 0.000000
73  -0.008023 1.345870 0.084163  1.570796 -0.000000 -0.000000
74  -0.008023 0.197514 1.902818  0.000000 -0.000000 0.000000
75  -1.908012 -12.815680 -1.756726  1.578029 0.003306 0.004705
76  -1.906227 -11.632676 -1.959670  1.578029 0.003306 0.004705
77  -0.008022 -0.653745 0.060184  0.000000 -0.000000 0.000000
78  -0.008021 -1.155510 -0.087180  0.000000 -0.000000 0.000000
79  -0.000000 -0.501765 -0.147367  0.000000 -0.000000 0.000000
80  -0.000000 -1.003531 -0.294730  0.000000 -0.000000 0.000000
81  -0.000000 -1.505297 -0.442091  0.000000 -0.000000 0.000000
82  -0.000000 -2.007061 -0.589455  0.000000 -0.000000 0.000000
83  -0.000000 -2.508827 -0.736815  0.000000 -0.000000 0.000000
84  0.000000 -2.772560 -0.939010  0.000000 -0.000000 0.000000
85  -0.000000 -3.071457 -1.220325  0.000000 -0.000000 0.000000
86  -0.283371 -4.518087 -0.534132  0.346743 -0.000000 -0.000000
87  0.000000 0.993480 -0.063565  -0.012322 0.000000 0.000000
88  -1.908012 -12.815680 -1.756726  1.578029 0.003306 0.004705
time 3
0  0.000006 0.000000 0.000000  -1.570800 -1.391899 -1.570792
1  -9.841317 -7.634221 1.937669  -1.544956 -1.855077 -0.198630
2  6.027525 -0.000329 0.000190  -0.092672 -1.481051 -1.895688
3  11.692114 0.000647 -0.000739  -0.990395 0.000005 -0.825699
4  11.479926 0.000460 -0.000635  1.016927 -0.338340 0.417413
5  3.666625 -0.163903 -1.204802  -0.519250 0.086737 -1.532179
6  1.312590 0.000010 0.000007  -0.003664 0.023356 -0.272237
7  0.729355 0.000054 0.000051  -0.003677 0.000626 -0.150723
8  3.942139 0.046331 -0.431543  -0.205965 0.132196 -1.449654
9  1.539111 0.000081 0.000004  -0.000570 0.007396 -0.283198
10  1.196332 0.000146 0.000029  -0.000713 0.000161 -0.519018
11  3.883510 -0.047211 0.431350  -0.042690 0.198097 -1.260493
12  1.719573 -0.000027 0.000017  -0.000644 0.003280 -0.404344
13  1.209179 0.000089 0.000012  -0.000905 0.002861 -0.623853
14  3.859676 -0.138417 1.332379  -0.235831 0.317274 -1.342437
15  1.719448 -0.000018 0.000028  0.001902 0.001157 -0.067177
16  1.099675 0.000048 0.000005  -0.000943 0.002399 -0.620101
17  0.459533 -0.272515 1.494839  -1.528877 -0.394734 -0.263833
18  1.789819 -0.000004 -0.000016  -0.005043 0.002467 0.111593
19  1.207017 -0.000012 -0.000043  -0.005634 -0.000693 0.835388
20  5.740636 0.000389 -0.000698  -0.120174 0.000003 0.000063
21  11.480994 0.000273 -0.000779  -0.093201 -0.066520 0.049880
22  6.027524 -0.000329 0.000201  1.519355 -0.073654 1.856964
23  0.000000 11.692100 -0.000007  -0.604750 -0.159460 -0.501359
24  0.000003 0.000009 -0.000000  -0.121332 -0.000031 1.570739
25  0.000001 -0.000013 0.000000  0.868960 0.000002 1.570712
26  -6.899342 -10.734701 0.826813  1.473120 1.855075 -0.198639
27  6.027517 -0.000263 -0.000216  1.571311 1.235122 -0.682026
28  11.691993 0.000161 0.000859  0.139889 0.000017 -1.001369
29  11.480520 0.000011 0.000828  -1.308836 0.535889 0.514145
30  3.710774 -0.434234 1.096848  0.974897 -0.111756 -2.079603
31  1.312560 0.000030 -0.000000  0.008191 -0.088214 -0.285514
32  0.729348 0.000067 -0.000029  -0.132450 -0.134191 -1.087309
33  3.820807 -0.154609 0.327899  0.610805 -0.300364 -1.640271
34  1.539095 0.000002 -0.000001  0.047162 -0.047589 -0.892209
35  1.196303 0.000079 -0.000002  -0.021079 -0.009374 -1.253100
36  3.882446 -0.171892 -0.416804  0.406628 -0.376223 -1.253560
37  1.719566 -0.000083 -0.000005  0.018695 -0.082922 -1.374417
38  1.209193 0.000035 0.000011  0.003361 -0.003782 -0.857658
39  3.859585 -0.149082 -1.331322  0.052683 -0.238405 -0.449221
40  1.719412 -0.000097 -0.000037  0.031466 0.001819 -1.126076
41  1.099673 0.000021 0.000006  -0.005117 -0.008160 -0.712530
42  0.230504 -0.805067 -1.086893  0.952143 0.518104 -0.683760
43  1.789777 -0.000008 -0.000043  -0.003620 0.041647 -0.025401
44  1.206994 -0.000007 0.000005  -0.004956 -0.143063 1.075787
45  5.740573 0.000079 0.000722  0.082758 -0.000014 0.000028
46  11.481049 0.000076 0.000911  0.027336 0.095093 0.075732
47  6.027515 -0.000273 -0.000229  -1.310348 -0.214241 -1.579662
48  -0.000001 11.691975 -0.000008  -0.721405 0.229234 0.592377
49  0.000003 -0.000000 -0.000000  2.412441 -0.000036 1.570860
50  -0.000007 -0.000014 0.000005  2.272645 -0.000036 1.570861
51  -2.569077 -8.395513 -5.392422  -0.161800 -2.888474 1.256795
52  -0.000001 -0.000000 0.000001  0.008153 -0.000259 0.000009
53  0.000000 0.000000 0.000000  1.565115 0.043565 -0.106862
54  0.137069 -10.202855 -6.103194  -0.557119 -0.017013 -1.955787
55  -0.000002 0.000000 0.000001  0.000000 -0.000001 -0.000002
56  0.000028 0.000029 0.000002  -1.571902 -0.044449 -0.106509
57  12.000549 -19.544212 -17.246658  1.570796 -0.000000 0.000000
58  -15.417984 4.000748 -22.641926  1.570796 -0.000000 0.000000
59  1.941978 9.263218 -8.327020  1.570796 -0.000000 0.000000
60  -0.004311 0.001229 -0.000372  0.006898 -0.005534 -0.284229
61  0.826810 11.791080 -4.879054  1.570796 -0.000000 0.000000
62  0.000000 0.000000 0.000000  -0.078727 -3.136056 0.284226
63  0.000000 0.000000 0.000000  1.570796 -0.000000 0.000000
64  -1.916532 -10.890449 -3.919981  1.583027 0.009441 0.006562
65  -0.008022 0.449004 2.449477  0.000000 -0.000000 -0.000000
66  -0.008021 1.798499 0.936337  0.000000 -0.000000 -0.000000
67  0.000000 2.151126 1.009987  0.000000 -0.000000 -0.000000
68  -0.008023 1.347419 0.085286  -1.051149 0.001216 0.000412
69  0.230628 1.332312 3.105305  0.175653 -0.000000 -0.000000
70  -0.008024 2.211807 7.723072  -0.028798 -0.000000 -0.000000
71  -0.008022 1.228065 5.810776  0.000000 -0.000000 -0.000000
72  -0.008023 1.115505 -0.313081  0.000000 -0.000000 -0.000000
73  -0.008022 1.345870 0.084165  1.570796 -0.000000 -0.000000
74  -0.008023 0.197513 1.902819  0.000000 -0.000000 -0.000000
75  -1.891658 -12.826901 -1.781578  1.583027 0.009441 0.006562
76  -1.893265 -11.642904 -1.978649  1.583027 0.009441 0.006562
77  -0.008021 -0.653745 0.060182  0.000000 -0.000000 -0.000000
78  -0.008021 -1.155510 -0.087179  0.000000 -0.000000 -0.000000
79  0.000000 -0.501766 -0.147366  0.000000 -0.000000 -0.000000
80  0.000000 -1.003531 -0.294728  0.000000 -0.000000 -0.000000
81  0.000000 -1.505297 -0.442090  0.000000 -0.000000 -0.000000
82  0.000000 -2.007061 -0.589454  0.000000 -0.000000 -0.000000
83  0.000000 -2.508827 -0.736814  0.000000 -0.000000 -0.000000
84  0.000000 -2.772560 -0.939010  0.000000 -0.000000 -0.000000
85  0.000000 -3.071458 -1.220324  0.000000 -0.000000 -0.000000
86  -0.283371 -4.518087 -0.534133  0.346743 -0.000000 -0.000000
87  0.000000 0.993480 -0.063565  -0.012322 0.000000 0.000000
88  -1.891658 -12.826901 -1.781578  1.583027 0.009441 0.006562
time 4
0  0.000006 0.000000 0.000000  -1.570800 -1.391899 -1.570792
1  -9.841317 -7.634221 1.937669  -1.544956 -1.855077 -0.198630
2  6.027525 -0.000329 0.000190  -0.081142 -1.480410 -1.904623
3  11.692114 0.000646 -0.000740  -0.990395 0.000005 -0.825137
4  11.479945 0.000462 -0.000629  1.002620 -0.339730 0.412839
5  3.666627 -0.163903 -1.204802  -0.519250 0.086737 -1.532179
6  1.312590 0.000010 0.000008  -0.003664 0.023356 -0.272237
7  0.729356 0.000054 0.000048  -0.003677 0.000626 -0.150723
8  3.942140 0.046331 -0.431542  -0.205965 0.132196 -1.449654
9  1.539111 0.000082 0.000004  -0.000570 0.007396 -0.283198
10  1.196334 0.000144 0.000028  -0.000713 0.000161 -0.519019
11  3.883511 -0.047211 0.431352  -0.042690 0.198097 -1.260493
12  1.719573 -0.000028 0.000017  -0.000644 0.003280 -0.404344
13  1.209180 0.000090 0.000012  -0.000905 0.002861 -0.623854
14  3.859677 -0.138417 1.332380  -0.235831 0.317274 -1.342437
15  1.719448 -0.000018 0.000029  0.001902 0.001157 -0.067177
16  1.099675 0.000048 0.000005  -0.000943 0.002399 -0.620101
17  0.459534 -0.272515 1.494840  -1.528877 -0.394734 -0.263833
18  1.789819 -0.000004 -0.000016  -0.005043 0.002467 0.111593
19  1.207016 -0.000012 -0.000043  -0.005634 -0.000693 0.835388
20  5.740636 0.000388 -0.000700  -0.123205 0.000003 0.000064
21  11.480999 0.000272 -0.000779  -0.095969 -0.067131 0.048306
22  6.027524 -0.000329 0.000201  1.518135 -0.073576 1.859602
23  -0.000000 11.692099 -0.000008  -0.604369 -0.159254 -0.501056
24  0.000001 0.000009 -0.000000  -0.121332 -0.000031 1.570738
25  -0.000001 -0.000012 -0.000000  0.868960 0.000002 1.570712
26  -6.899342 -10.734701 0.826813  1.473120 1.855075 -0.198639
27  6.027517 -0.000263 -0.000216  1.575370 1.235035 -0.678808
28  11.691992 0.000161 0.000859  0.139889 0.000017 -1.002055
29  11.480519 0.000009 0.000829  -1.324491 0.531975 0.510748
30  3.710775 -0.434234 1.096849  0.974897 -0.111756 -2.079603
31  1.312559 0.000032 0.000001  0.008191 -0.088214 -0.285514
32  0.729347 0.000066 -0.000028  -0.132450 -0.134191 -1.087309
33  3.820806 -0.154608 0.327900  0.610805 -0.300364 -1.640271
34  1.539095 0.000003 -0.000002  0.047162 -0.047589 -0.892209
35  1.196303 0.000080 -0.000003  -0.021078 -0.009374 -1.253100
36  3.882445 -0.171891 -0.416804  0.406628 -0.376223 -1.253560
37  1.719566 -0.000083 -0.000005  0.018695 -0.082922 -1.374417
38  1.209194 0.000032 0.000011  0.003361 -0.003782 -0.857658
39  3.859585 -0.149081 -1.331322  0.052683 -0.238405 -0.449221
40  1.719411 -0.000098 -0.000037  0.031466 0.001819 -1.126076
41  1.099672 0.000021 0.000006  -0.005117 -0.008160 -0.712530
42  0.230505 -0.805067 -1.086893  0.961499 0.523192 -0.677801
43  1.789778 -0.000008 -0.000042  -0.007558 0.033875 -0.001487
44  1.206994 -0.000007 0.000005  -0.006072 -0.147365 1.033538
45  5.740574 0.000078 0.000721  0.079839 -0.000014 0.000028
46  11.481049 0.000075 0.000911  0.024785 0.093636 0.076093
47  6.027515 -0.000273 -0.000229  -1.309427 -0.213248 -1.580472
48  -0.000000 11.691975 -0.000008  -0.721851 0.229526 0.592718
49  0.000003 -0.000001 0.000000  2.412441 -0.000036 1.570860
50  -0.000007 -0.000014 0.000004  2.272645 -0.000036 1.570861
51  -2.590346 -8.392975 -5.372076  -0.175990 -2.886379 1.260669
52  -0.000000 -0.000000 -0.000000  0.008153 -0.000259 0.000009
53  0.000000 0.000000 0.000000  1.565115 0.043565 -0.106862
54  0.106324 -10.197864 -6.123911  -0.570667 -0.020099 -1.955230
55  -0.000001 0.000001 0.000000  0.000000 -0.000001 -0.000002
56  0.000029 0.000030 0.000001  -1.571901 -0.044449 -0.106509
57  12.000549 -19.544212 -17.246658  1.570796 -0.000000 0.000000
58  -15.417984 4.000748 -22.641926  1.570796 -0.000000 0.000000
59  1.941978 9.263218 -8.327020  1.570796 -0.000000 0.000000
60  -0.004311 0.001229 -0.000372  0.006898 -0.005534 -0.284229
61  0.826810 11.791080 -4.879054  1.570796 -0.000000 0.000000
62  0.000000 0.000000 0.000000  -0.078727 -3.136056 0.284226
63  0.000000 0.000000 0.000000  1.570796 -0.000000 0.000000
64  -1.916943 -10.890965 -3.914278  1.585342 0.023140 0.006906
65  -0.008022 0.449004 2.449476  0.000000 -0.000000 0.000000
66  -0.008021 1.798499 0.936336  0.000000 -0.000000 0.000000
67  0.000000 2.151127 1.009986  0.000000 -0.000000 0.000000
68  -0.008023 1.347420 0.085285  -1.051149 0.001216 0.000412
69  0.230628 1.332312 3.105304  0.175653 -0.000000 -0.000000
70  -0.008024 2.211807 7.723070  -0.028798 -0.000000 0.000000
71  -0.008022 1.228065 5.810774  0.000000 -0.000000 0.000000
72  -0.008023 1.115505 -0.313082  0.000000 -0.000000 0.000000
73  -0.008023 1.345870 0.084163  1.570796 -0.000000 -0.000000
74  -0.008022 0.197514 1.902818  0.000000 -0.000000 0.000000
75  -1.862183 -12.832153 -1.780731  1.585342 0.023140 0.006906
76  -1.866837 -11.647723 -1.975126  1.585342 0.023140 0.006906
77  -0.008022 -0.653745 0.060182  0.000000 -0.000000 0.000000
78  -0.008022 -1.155510 -0.087180  0.000000 -0.000000 0.000000
79  -0.000000 -0.501766 -0.147367  0.000000 -0.000000 0.000000
80  0.000000 -1.003531 -0.294729  0.000000 -0.000000 0.000000
81  -0.000000 -1.505297 -0.442090  0.000000 -0.000000 0.000000
82  0.000000 -2.007061 -0.589454  0.000000 -0.000000 0.000000
83  -0.000000 -2.508827 -0.736816  0.000000 -0.000000 0.000000
84  -0.000000 -2.772560 -0.939010  0.000000 -0.000000 0.000000
85  -0.000000 -3.071457 -1.220324  0.000000 -0.000000 0.000000
86  -0.283371 -4.518086 -0.534133  0.346743 -0.000000 -0.000000
87  0.000000 0.993480 -0.063563  -0.012322 0.000000 0.000000
88  -1.862183 -12.832153 -1.780731  1.585342 0.023140 0.006906
time 5
0  0.000006 0.000000 0.000000  -1.570800 -1.391899 -1.570792
1  -9.841317 -7.634221 1.937669  -1.544956 -1.855077 -0.198630
2  6.027525 -0.000328 0.000190  -0.037317 -1.478605 -1.941218
3  11.692113 0.000645 -0.000738  -0.990394 0.000005 -0.820446
4  11.480077 0.000489 -0.000586  0.969159 -0.341981 0.391543
5  3.666628 -0.163903 -1.204801  -0.519250 0.086737 -1.532179
6  1.312589 0.000010 0.000008  -0.003664 0.023356 -0.272237
7  0.729356 0.000052 0.000049  -0.003677 0.000626 -0.150723
8  3.942140 0.046331 -0.431542  -0.205965 0.132196 -1.449654
9  1.539110 0.000083 0.000005  -0.000570 0.007396 -0.283198
10  1.196334 0.000145 0.000029  -0.000713 0.000161 -0.519018
11  3.883510 -0.047212 0.431351  -0.042690 0.198097 -1.260493
12  1.719573 -0.000027 0.000016  -0.000644 0.003280 -0.404344
13  1.209178 0.000091 0.000012  -0.000905 0.002861 -0.623854
14  3.859676 -0.138418 1.332380  -0.235831 0.317274 -1.342437
15  1.719448 -0.000019 0.000029  0.001902 0.001157 -0.067177
16  1.099675 0.000048 0.000005  -0.000943 0.002399 -0.620101
17  0.459533 -0.272516 1.494840  -1.528877 -0.394735 -0.263833
18  1.789819 -0.000004 -0.000016  -0.005043 0.002467 0.111593
19  1.207017 -0.000013 -0.000044  -0.005634 -0.000693 0.835388
20  5.740636 0.000388 -0.000698  -0.130324 0.000003 0.000063
21  11.481024 0.000276 -0.000770  -0.102770 -0.067857 0.042599
22  6.027524 -0.000329 0.000201  1.513846 -0.072619 1.866962
23  0.000001 11.692099 -0.000008  -0.601185 -0.157537 -0.498530
24  0.000002 0.000008 -0.000001  -0.121332 -0.000031 1.570738
25  0.000001 -0.000011 -0.000000  0.868960 0.000002 1.570712
26  -6.899342 -10.734701 0.826813  1.473120 1.855075 -0.198639
27  6.027517 -0.000263 -0.000216  1.584839 1.234820 -0.671303
28  11.691990 0.000161 0.000859  0.139889 0.000017 -1.002365
29  11.480517 0.000009 0.000828  -1.368741 0.524933 0.492954
30  3.710776 -0.434235 1.096849  0.974897 -0.111756 -2.079603
31  1.312560 0.000031 -0.000000  0.008191 -0.088214 -0.285514
32  0.729347 0.000065 -0.000027  -0.132450 -0.134191 -1.087309
33  3.820806 -0.154609 0.327899  0.610805 -0.300364 -1.640271
34  1.539094 0.000002 -0.000001  0.047162 -0.047589 -0.892209
35  1.196303 0.000080 -0.000003  -0.021079 -0.009374 -1.253100
36  3.882446 -0.171892 -0.416804  0.406628 -0.376223 -1.253559
37  1.719566 -0.000081 -0.000004  0.018695 -0.082922 -1.374417
38  1.209193 0.000034 0.000011  0.003361 -0.003782 -0.857658
39  3.859584 -0.149082 -1.331322  0.052683 -0.238405 -0.449221
40  1.719412 -0.000097 -0.000037  0.031466 0.001819 -1.126076
41  1.099673 0.000025 0.000006  -0.005117 -0.008160 -0.712530
42  0.230505 -0.805067 -1.086893  0.989101 0.537726 -0.660035
43  1.789779 -0.000007 -0.000042  -0.020117 0.011731 0.068553
44  1.206994 -0.000007 0.000005  -0.008282 -0.160254 0.908966
45  5.740573 0.000078 0.000721  0.071438 -0.000014 0.000028
46  11.481048 0.000074 0.000911  0.017612 0.090240 0.075339
47  6.027515 -0.000273 -0.000229  -1.307286 -0.210923 -1.582358
48  -0.000001 11.691974 -0.000009  -0.722053 0.229658 0.592872
49  0.000003 -0.000000 -0.000000  2.412441 -0.000036 1.570860
50  -0.000007 -0.000013 0.000004  2.272645 -0.000036 1.570861
51  -2.646362 -8.395490 -5.334812  -0.212787 -2.873740 1.270627
52  -0.000001 0.000000 0.000001  0.008153 -0.000259 0.000009
53  0.000000 0.000000 0.000000  1.565115 0.043565 -0.106862
54  0.020900 -10.200294 -6.185287  -0.605124 -0.035490 -1.953829
55  -0.000000 0.000000 0.000000  -0.000000 -0.000001 -0.000002
56  0.000030 0.000029 0.000001  -1.571902 -0.044449 -0.106509
57  12.000549 -19.544212 -17.246658  1.570796 -0.000000 0.000000
58  -15.417984 4.000748 -22.641926  1.570796 -0.000000 0.000000
59  1.941978 9.263218 -8.327020  1.570796 -0.000000 0.000000
60  -0.004311 0.001229 -0.000372  0.006898 -0.005534 -0.284229
61  0.826810 11.791080 -4.879054  1.570796 -0.000000 0.000000
62  0.000000 0.000000 0.000000  -0.078727 -3.136056 0.284226
63  0.000000 0.000000 0.000000  1.570796 -0.000000 0.000000
64  -1.917321 -10.891180 -3.900019  1.584234 0.060849 0.007302
65  -0.008022 0.449004 2.449477  0.000000 -0.000000 -0.000000
66  -0.008021 1.798499 0.936336  0.000000 -0.000000 -0.000000
67  0.000000 2.151127 1.009986  0.000000 -0.000000 -0.000000
68  -0.008023 1.347420 0.085285  -1.051149 0.001216 0.000412
69  0.230628 1.332312 3.105303  0.175653 -0.000000 -0.000000
70  -0.008024 2.211807 7.723070  -0.028798 -0.000000 -0.000000
71  -0.008022 1.228065 5.810774  0.000000 -0.000000 -0.000000
72  -0.008023 1.115505 -0.313083  0.000000 -0.000000 -0.000000
73  -0.008023 1.345870 0.084163  1.570796 -0.000000 -0.000000
74  -0.008023 0.197513 1.902817  0.000000 -0.000000 -0.000000
75  -1.781274 -12.829393 -1.767402  1.584234 0.060849 0.007302
76  -1.793807 -11.645236 -1.963102  1.584234 0.060849 0.007302
77  -0.008021 -0.653744 0.060182  0.000000 -0.000000 -0.000000
78  -0.008021 -1.155510 -0.087180  0.000000 -0.000000 -0.000000
79  -0.000000 -0.501766 -0.147366  0.000000 -0.000000 -0.000000
80  0.000000 -1.003531 -0.294729  0.000000 -0.000000 -0.000000
81  -0.000000 -1.505296 -0.442091  0.000000 -0.000000 -0.000000
82  -0.000000 -2.007061 -0.589454  0.000000 -0.000000 -0.000000
83  0.000000 -2.508827 -0.736814  0.000000 -0.000000 -0.000000
84  -0.000000 -2.772560 -0.939010  0.000000 -0.000000 -0.000000
85  -0.000000 -3.071457 -1.220325  0.000000 -0.000000 -0.000000
86  -0.283371 -4.518086 -0.534133  0.346743 -0.000000 -0.000000
87  0.000000 0.993480 -0.063566  -0.012322 0.000000 -0.000000
88  -1.781274 -12.829393 -1.767402  1.584234 0.060849 0.007302
time 6
0  0.000006 0.000000 0.000000  -1.570800 -1.391899 -1.570792
1  -9.841317 -7.634221 1.937669  -1.544956 -1.855077 -0.198630
2  6.027525 -0.000328 0.000190  -0.011026 -1.478166 -1.965815
3  11.692113 0.000647 -0.000739  -0.990394 0.000005 -0.817077
4  11.480175 0.000509 -0.000560  0.960447 -0.342291 0.381526
5  3.666628 -0.163904 -1.204802  -0.519250 0.086737 -1.532179
6  1.312589 0.000010 0.000008  -0.003664 0.023356 -0.272237
7  0.729356 0.000054 0.000050  -0.003677 0.000626 -0.150723
8  3.942140 0.046331 -0.431543  -0.205965 0.132196 -1.449654
9  1.539111 0.000081 0.000003  -0.000570 0.007396 -0.283198
10  1.196332 0.000146 0.000029  -0.000713 0.000161 -0.519018
11  3.883510 -0.047212 0.431351  -0.042690 0.198097 -1.260493
12  1.719573 -0.000027 0.000017  -0.000644 0.003280 -0.404344
13  1.209179 0.000089 0.000012  -0.000905 0.002861 -0.623853
14  3.859676 -0.138418 1.332379  -0.235831 0.317274 -1.342437
15  1.719448 -0.000019 0.000028  0.001902 0.001157 -0.067177
16  1.099674 0.000049 0.000006  -0.000943 0.002399 -0.620101
17  0.459533 -0.272516 1.494839  -1.528877 -0.394735 -0.263833
18  1.789819 -0.000003 -0.000016  -0.005043 0.002467 0.111593
19  1.207018 -0.000013 -0.000044  -0.005634 -0.000693 0.835388
20  5.740636 0.000389 -0.000699  -0.132227 0.000003 0.000063
21  11.481044 0.000282 -0.000765  -0.104673 -0.067773 0.040256
22  6.027524 -0.000329 0.000201  1.511678 -0.071436 1.868699
23  0.000000 11.692099 -0.000008  -0.598896 -0.156309 -0.496712
24  0.000002 0.000009 -0.000000  -0.121333 -0.000030 1.570738
25  -0.000000 -0.000011 -0.000000  0.868960 0.000002 1.570712
26  -6.899342 -10.734701 0.826813  1.473120 1.855075 -0.198639
27  6.027517 -0.000263 -0.000216  1.588727 1.235385 -0.668214
28  11.691992 0.000161 0.000859  0.139889 0.000017 -1.001690
29  11.480518 0.000008 0.000829  -1.384370 0.523272 0.484027
30  3.710776 -0.434235 1.096848  0.974897 -0.111756 -2.079603
31  1.312560 0.000032 0.000000  0.008191 -0.088214 -0.285514
32  0.729347 0.000065 -0.000028  -0.132450 -0.134191 -1.087309
33  3.820807 -0.154609 0.327899  0.610805 -0.300364 -1.640271
34  1.539095 0.000003 -0.000001  0.047162 -0.047589 -0.892209
35  1.196303 0.000081 -0.000003  -0.021079 -0.009374 -1.253100
36  3.882446 -0.171892 -0.416805  0.406628 -0.376223 -1.253560
37  1.719566 -0.000083 -0.000005  0.018695 -0.082922 -1.374417
38  1.209193 0.000032 0.000011  0.003361 -0.003782 -0.857658
39  3.859584 -0.149082 -1.331322  0.052683 -0.238405 -0.449221
40  1.719413 -0.000097 -0.000037  0.031466 0.001819 -1.126076
41  1.099672 0.000023 0.000006  -0.005117 -0.008160 -0.712530
42  0.230504 -0.805067 -1.086893  1.029753 0.557869 -0.633394
43  1.789779 -0.000009 -0.000043  -0.040915 -0.018566 0.170179
44  1.206995 -0.000006 0.000005  -0.008564 -0.179272 0.727153
45  5.740573 0.000077 0.000721  0.068493 -0.000014 0.000028
46  11.481048 0.000073 0.000911  0.015115 0.089200 0.074518
47  6.027515 -0.000273 -0.000229  -1.306942 -0.209565 -1.583011
48  -0.000001 11.691975 -0.000007  -0.721614 0.229371 0.592537
49  0.000004 -0.000001 -0.000000  2.412441 -0.000036 1.570860
50  -0.000007 -0.000013 0.000005  2.272645 -0.000036 1.570861
51  -2.665718 -8.400261 -5.314963  -0.224512 -2.866840 1.274044
52  -0.000000 -0.000000 -0.000000  0.008153 -0.000259 0.000009
53  0.000001 -0.000000 -0.000000  1.565115 0.043565 -0.106862
54  -0.009049 -10.207163 -6.193670  -0.615808 -0.043316 -1.953133
55  -0.000001 -0.000000 0.000000  0.000000 -0.000001 -0.000002
56  0.000029 0.000028 0.000001  -1.571901 -0.044449 -0.106509
57  12.000549 -19.544212 -17.246658  1.570796 -0.000000 0.000000
58  -15.417984 4.000748 -22.641926  1.570796 -0.000000 0.000000
59  1.941978 9.263218 -8.327020  1.570796 -0.000000 0.000000
60  -0.004311 0.001229 -0.000372  0.006898 -0.005534 -0.284229
61  0.826810 11.791080 -4.879054  1.570796 -0.000000 0.000000
62  0.000000 0.000000 0.000000  -0.078727 -3.136056 0.284226
63  0.000000 0.000000 0.000000  1.570796 -0.000000 0.000000
64  -1.917597 -10.891053 -3.881483  1.581048 0.073698 0.007363
65  -0.008021 0.449004 2.449477  -0.000000 -0.000000 0.000000
66  -0.008021 1.798499 0.936336  -0.000000 -0.000000 0.000000
67  0.000001 2.151127 1.009987  -0.000000 -0.000000 0.000000
68  -0.008023 1.347419 0.085284  -1.051149 0.001216 0.000412
69  0.230628 1.332312 3.105304  0.175653 -0.000000 -0.000000
70  -0.008023 2.211807 7.723071  -0.028798 -0.000000 0.000000
71  -0.008022 1.228065 5.810776  -0.000000 -0.000000 0.000000
72  -0.008022 1.115505 -0.313083  -0.000000 -0.000000 0.000000
73  -0.008022 1.345871 0.084163  1.570796 -0.000000 -0.000000
74  -0.008022 0.197514 1.902819  -0.000000 -0.000000 0.000000
75  -1.753637 -12.822239 -1.744457  1.581048 0.073698 0.007363
76  -1.769029 -11.638730 -1.943852  1.581048 0.073698 0.007363
77  -0.008021 -0.653745 0.060181  -0.000000 -0.000000 0.000000
78  -0.008021 -1.155510 -0.087180  -0.000000 -0.000000 0.000000
79  0.000000 -0.501766 -0.147368  -0.000000 -0.000000 0.000000
80  0.000000 -1.003531 -0.294729  -0.000000 -0.000000 0.000000
81  0.000000 -1.505297 -0.442091  -0.000000 -0.000000 0.000000
82  0.000000 -2.007061 -0.589454  -0.000000 -0.000000 0.000000
83  0.000000 -2.508827 -0.736815  -0.000000 -0.000000 0.000000
84  0.000000 -2.772560 -0.939011  -0.000000 -0.000000 0.000000
85  0.000000 -3.071457 -1.220325  -0.000000 -0.000000 0.000000
86  -0.283371 -4.518086 -0.534134  0.346743 -0.000000 -0.000000
87  0.000000 0.993480 -0.063563  -0.012322 0.000000 -0.000000
88  -1.753637 -12.822239 -1.744457  1.581048 0.073698 0.007363
time 7
0  0.000006 0.000000 0.000000  -1.570800 -1.391899 -1.570792
1  -9.841317 -7.634221 1.937669  -1.544956 -1.855077 -0.198630
2  6.027525 -0.000328 0.000190  -0.005432 -1.479016 -1.974515
3  11.692115 0.000643 -0.000740  -0.990394 0.000005 -0.815644
4  11.480219 0.000517 -0.000548  0.973780 -0.340608 0.382436
5  3.666628 -0.163904 -1.204801  -0.519250 0.086737 -1.532179
6  1.312589 0.000009 0.000007  -0.003664 0.023357 -0.272237
7  0.729355 0.000054 0.000049  -0.003677 0.000626 -0.150723
8  3.942141 0.046332 -0.431543  -0.205965 0.132197 -1.449654
9  1.539111 0.000084 0.000003  -0.000570 0.007396 -0.283198
10  1.196332 0.000145 0.000029  -0.000713 0.000161 -0.519018
11  3.883511 -0.047211 0.431351  -0.042690 0.198097 -1.260493
12  1.719572 -0.000028 0.000017  -0.000644 0.003280 -0.404344
13  1.209178 0.000088 0.000012  -0.000905 0.002861 -0.623853
14  3.859677 -0.138417 1.332380  -0.235831 0.317274 -1.342437
15  1.719448 -0.000018 0.000029  0.001902 0.001157 -0.067177
16  1.099675 0.000048 0.000006  -0.000943 0.002399 -0.620101
17  0.459534 -0.272515 1.494839  -1.528877 -0.394735 -0.263833
18  1.789819 -0.000005 -0.000016  -0.005043 0.002467 0.111593
19  1.207016 -0.000012 -0.000044  -0.005634 -0.000693 0.835388
20  5.740636 0.000388 -0.000700  -0.129493 0.000003 0.000063
21  11.481051 0.000283 -0.000764  -0.102191 -0.067029 0.041094
22  6.027524 -0.000329 0.000201  1.511828 -0.070452 1.865559
23  -0.000001 11.692098 -0.000007  -0.597922 -0.155788 -0.495939
24  0.000001 0.000008 0.000001  -0.121333 -0.000031 1.570739
25  -0.000001 -0.000011 0.000001  0.868960 0.000002 1.570712
26  -6.899342 -10.734701 0.826813  1.473120 1.855075 -0.198639
27  6.027517 -0.000263 -0.000216  1.587221 1.236427 -0.669395
28  11.691991 0.000161 0.000859  0.139889 0.000017 -1.000315
29  11.480527 0.000014 0.000828  -1.373752 0.526836 0.483631
30  3.710775 -0.434234 1.096848  0.974897 -0.111756 -2.079603
31  1.312560 0.000031 -0.000001  0.008191 -0.088214 -0.285514
32  0.729348 0.000065 -0.000027  -0.132450 -0.134191 -1.087309
33  3.820807 -0.154609 0.327899  0.610805 -0.300364 -1.640271
34  1.539094 0.000003 -0.000001  0.047162 -0.047589 -0.892209
35  1.196303 0.000079 -0.000003  -0.021079 -0.009374 -1.253100
36  3.882446 -0.171892 -0.416805  0.406628 -0.376223 -1.253560
37  1.719566 -0.000083 -0.000004  0.018695 -0.082922 -1.374417
38  1.209193 0.000035 0.000011  0.003361 -0.003782 -0.857658
39  3.859585 -0.149081 -1.331323  0.052683 -0.238405 -0.449221
40  1.719413 -0.000097 -0.000037  0.031466 0.001819 -1.126076
41  1.099672 0.000024 0.000006  -0.005117 -0.008160 -0.712530
42  0.230503 -0.805067 -1.086894  1.071543 0.577057 -0.605462
43  1.789779 -0.000008 -0.000042  -0.064702 -0.046588 0.272509
44  1.206995 -0.000007 0.000005  -0.005336 -0.198025 0.544688
45  5.740573 0.000079 0.000721  0.070581 -0.000013 0.000028
46  11.481050 0.000078 0.000911  0.016919 0.090316 0.073755
47  6.027515 -0.000273 -0.000229  -1.308095 -0.209320 -1.582530
48  -0.000002 11.691977 -0.000009  -0.720719 0.228784 0.591852
49  0.000003 0.000001 0.000000  2.412441 -0.000036 1.570860
50  -0.000008 -0.000013 0.000004  2.272645 -0.000036 1.570861
51  -2.651741 -8.406376 -5.314760  -0.213208 -2.865600 1.271128
52  0.000001 0.000000 0.000001  0.008153 -0.000259 0.000009
53  -0.000000 0.000000 -0.000001  1.565115 0.043565 -0.106862
54  0.013854 -10.216635 -6.158844  -0.604854 -0.043636 -1.953452
55  0.000001 0.000000 0.000000  0.000000 -0.000001 -0.000002
56  0.000030 0.000029 0.000001  -1.571901 -0.044449 -0.106509
57  12.000549 -19.544212 -17.246658  1.570796 -0.000000 0.000000
58  -15.417984 4.000748 -22.641926  1.570796 -0.000000 0.000000
59  1.941978 9.263218 -8.327020  1.570796 -0.000000 0.000000
60  -0.004311 0.001229 -0.000372  0.006898 -0.005534 -0.284229
61  0.826810 11.791080 -4.879054  1.570796 -0.000000 0.000000
62  0.000000 0.000000 0.000000  -0.078727 -3.136056 0.284226
63  0.000000 0.000000 0.000000  1.570796 -0.000000 0.000000
64  -1.917704 -10.890732 -3.862946  1.576583 0.063697 0.007213
65  -0.008022 0.449004 2.449477  0.000000 0.000000 0.000000
66  -0.008021 1.798499 0.936337  0.000000 0.000000 0.000000
67  0.000000 2.151127 1.009986  0.000000 0.000000 0.000000
68  -0.008023 1.347420 0.085285  -1.051149 0.001216 0.000412
69  0.230628 1.332312 3.105305  0.175653 0.000000 -0.000000
70  -0.008023 2.211807 7.723072  -0.028798 0.000000 0.000000
71  -0.008022 1.228065 5.810776  0.000000 0.000000 0.000000
72  -0.008022 1.115505 -0.313083  0.000000 0.000000 0.000000
73  -0.008023 1.345871 0.084163  1.570796 0.000000 -0.000000
74  -0.008023 0.197514 1.902819  0.000000 0.000000 0.000000
75  -1.774933 -12.812510 -1.715941  1.576583 0.063697 0.007213
76  -1.788484 -11.629888 -1.920665  1.576583 0.063697 0.007213
77  -0.008021 -0.653745 0.060180  0.000000 0.000000 0.000000
78  -0.008021 -1.155510 -0.087181  0.000000 0.000000 0.000000
79  0.000000 -0.501765 -0.147368  0.000000 0.000000 0.000000
80  0.000000 -1.003531 -0.294730  0.000000 0.000000 0.000000
81  0.000000 -1.505296 -0.442091  0.000000 0.000000 0.000000
82  0.000000 -2.007061 -0.589455  0.000000 0.000000 0.000000
83  0.000000 -2.508826 -0.736816  0.000000 0.000000 0.000000
84  -0.000000 -2.772560 -0.939010  0.000000 0.000000 0.000000
85  0.000000 -3.071457 -1.220327  0.000000 0.000000 0.000000
86  -0.283371 -4.518086 -0.534135  0.346743 -0.000000 -0.000000
87  -0.000000 0.993480 -0.063566  -0.012322 0.000000 -0.000000
88  -1.774933 -12.812510 -1.715941  1.576583 0.063697 0.007213
time 8
0  0.000006 0.000000 0.000000  -1.570800 -1.391899 -1.570792
1  -9.841317 -7.634221 1.937669  -1.544956 -1.855077 -0.198630
2  6.027525 -0.000328 0.000190  -0.012381 -1.480436 -1.972715
3  11.692112 0.000645 -0.000740  -0.990394 0.000005 -0.815425
4  11.480222 0.000517 -0.000545  0.996917 -0.338128 0.388410
5  3.666627 -0.163903 -1.204802  -0.519250 0.086737 -1.532179
6  1.312590 0.000010 0.000009  -0.003664 0.023357 -0.272237
7  0.729356 0.000053 0.000048  -0.003677 0.000626 -0.150723
8  3.942140 0.046331 -0.431543  -0.205965 0.132197 -1.449654
9  1.539110 0.000083 0.000003  -0.000570 0.007396 -0.283198
10  1.196333 0.000146 0.000028  -0.000713 0.000161 -0.519018
11  3.883510 -0.047211 0.431351  -0.042690 0.198097 -1.260493
12  1.719573 -0.000028 0.000016  -0.000644 0.003280 -0.404344
13  1.209179 0.000089 0.000012  -0.000905 0.002861 -0.623853
14  3.859677 -0.138417 1.332380  -0.235831 0.317274 -1.342437
15  1.719448 -0.000017 0.000029  0.001902 0.001157 -0.067177
16  1.099675 0.000049 0.000005  -0.000943 0.002399 -0.620101
17  0.459533 -0.272515 1.494839  -1.528877 -0.394734 -0.263833
18  1.789820 -0.000004 -0.000016  -0.005043 0.002467 0.111593
19  1.207017 -0.000012 -0.000045  -0.005634 -0.000693 0.835388
20  5.740636 0.000388 -0.000699  -0.124679 0.000003 0.000063
21  11.481052 0.000283 -0.000762  -0.097749 -0.066002 0.043372
22  6.027524 -0.000329 0.000201  1.513226 -0.069766 1.860340
23  -0.000000 11.692097 -0.000008  -0.597773 -0.155708 -0.495821
24  0.000004 0.000008 -0.000000  -0.121333 -0.000030 1.570739
25  -0.000000 -0.000013 0.000000  0.868960 0.000002 1.570712
26  -6.899342 -10.734701 0.826813  1.473120 1.855075 -0.198639
27  6.027517 -0.000263 -0.000216  1.582644 1.237624 -0.673018
28  11.691991 0.000161 0.000859  0.139889 0.000017 -0.998617
29  11.480536 0.000018 0.000826  -1.351094 0.532882 0.487290
30  3.710776 -0.434235 1.096849  0.974897 -0.111756 -2.079603
31  1.312560 0.000030 -0.000000  0.008191 -0.088214 -0.285514
32  0.729347 0.000066 -0.000026  -0.132450 -0.134191 -1.087309
33  3.820806 -0.154608 0.327900  0.610805 -0.300364 -1.640271
34  1.539095 0.000004 -0.000001  0.047162 -0.047589 -0.892209
35  1.196302 0.000079 -0.000003  -0.021079 -0.009374 -1.253100
36  3.882446 -0.171892 -0.416803  0.406628 -0.376223 -1.253559
37  1.719565 -0.000083 -0.000005  0.018695 -0.082922 -1.374417
38  1.209193 0.000034 0.000011  0.003361 -0.003782 -0.857658
39  3.859586 -0.149082 -1.331321  0.052683 -0.238405 -0.449221
40  1.719412 -0.000097 -0.000037  0.031466 0.001819 -1.126076
41  1.099672 0.000022 0.000007  -0.005117 -0.008160 -0.712530
42  0.230503 -0.805066 -1.086893  1.101274 0.589803 -0.585283
43  1.789779 -0.000009 -0.000042  -0.082820 -0.064498 0.343842
44  1.206996 -0.000007 0.000005  -0.001116 -0.210428 0.418921
45  5.740572 0.000078 0.000721  0.074941 -0.000014 0.000028
46  11.481051 0.000078 0.000910  0.020677 0.092438 0.073022
47  6.027515 -0.000273 -0.000229  -1.310001 -0.209771 -1.581432
48  -0.000002 11.691975 -0.000008  -0.719614 0.228062 0.591006
49  0.000004 -0.000000 -0.000000  2.412441 -0.000036 1.570860
50  -0.000008 -0.000014 0.000005  2.272645 -0.000036 1.570861
51  -2.619892 -8.412971 -5.326916  -0.191524 -2.867151 1.265344
52  -0.000000 -0.000000 -0.000000  0.008153 -0.000259 0.000009
53  0.000000 0.000000 0.000001  1.565115 0.043565 -0.106862
54  0.062464 -10.226784 -6.107910  -0.584160 -0.040413 -1.954212
55  -0.000000 0.000000 0.000001  0.000000 -0.000001 -0.000002
56  0.000029 0.000029 0.000002  -1.571901 -0.044449 -0.106509
57  12.000549 -19.544212 -17.246658  1.570796 -0.000000 0.000000
58  -15.417984 4.000748 -22.641926  1.570796 -0.000000 0.000000
59  1.941978 9.263218 -8.327020  1.570796 -0.000000 0.000000
60  -0.004311 0.001229 -0.000372  0.006898 -0.005534 -0.284229
61  0.826810 11.791080 -4.879054  1.570796 -0.000000 0.000000
62  0.000000 0.000000 0.000000  -0.078727 -3.136056 0.284226
63  0.000000 0.000000 0.000000  1.570796 -0.000000 0.000000
64  -1.915445 -10.890306 -3.848687  1.571693 0.043349 0.007061
65  -0.008022 0.449004 2.449477  -0.000000 -0.000000 0.000000
66  -0.008021 1.798499 0.936336  -0.000000 -0.000000 0.000000
67  0.000000 2.151127 1.009986  -0.000000 -0.000000 0.000000
68  -0.008023 1.347419 0.085284  -1.051149 0.001216 0.000412
69  0.230628 1.332312 3.105304  0.175653 -0.000000 -0.000000
70  -0.008023 2.211806 7.723070  -0.028798 -0.000000 0.000000
71  -0.008022 1.228065 5.810774  -0.000000 -0.000000 0.000000
72  -0.008022 1.115505 -0.313082  -0.000000 -0.000000 0.000000
73  -0.008023 1.345871 0.084162  1.570796 -0.000000 -0.000000
74  -0.008023 0.197514 1.902817  -0.000000 -0.000000 0.000000
75  -1.816345 -12.801870 -1.690136  1.571693 0.043349 0.007061
76  -1.825792 -11.620234 -1.900695  1.571693 0.043349 0.007061
77  -0.008021 -0.653745 0.060181  -0.000000 -0.000000 0.000000
78  -0.008021 -1.155510 -0.087181  -0.000000 -0.000000 0.000000
79  0.000000 -0.501765 -0.147368  -0.000000 -0.000000 0.000000
80  0.000000 -1.003531 -0.294730  -0.000000 -0.000000 0.000000
81  0.000000 -1.505296 -0.442091  -0.000000 -0.000000 0.000000
82  0.000000 -2.007061 -0.589456  -0.000000 -0.000000 0.000000
83  0.000000 -2.508826 -0.736816  -0.000000 -0.000000 0.000000
84  0.000000 -2.772560 -0.939011  -0.000000 -0.000000 0.000000
85  -0.000000 -3.071456 -1.220325  -0.000000 -0.000000 0.000000
86  -0.283371 -4.518086 -0.534134  0.346743 -0.000000 -0.000000
87  0.000000 0.993479 -0.063566  -0.012322 0.000000 0.000000
88  -1.816345 -12.801870 -1.690136  1.571693 0.043349 0.007061
time 9
0  0.000006 0.000000 0.000000  -1.570800 -1.391899 -1.570792
1  -9.841317 -7.634221 1.937669  -1.544956 -1.855077 -0.198630
2  6.027525 -0.000328 0.000190  -0.026367 -1.481870 -1.963956
3  11.692113 0.000645 -0.000740  -0.990394 0.000005 -0.815940
4  11.480208 0.000516 -0.000549  1.021486 -0.335749 0.395782
5  3.666627 -0.163903 -1.204803  -0.519250 0.086737 -1.532179
6  1.312589 0.000010 0.000008  -0.003664 0.023357 -0.272237
7  0.729356 0.000053 0.000049  -0.003677 0.000626 -0.150723
8  3.942140 0.046332 -0.431543  -0.205965 0.132196 -1.449654
9  1.539110 0.000083 0.000004  -0.000570 0.007396 -0.283198
10  1.196332 0.000146 0.000028  -0.000713 0.000161 -0.519018
11  3.883511 -0.047211 0.431350  -0.042690 0.198097 -1.260493
12  1.719573 -0.000028 0.000017  -0.000644 0.003280 -0.404344
13  1.209178 0.000090 0.000012  -0.000905 0.002861 -0.623854
14  3.859676 -0.138417 1.332379  -0.235831 0.317274 -1.342437
15  1.719449 -0.000019 0.000029  0.001902 0.001157 -0.067177
16  1.099675 0.000049 0.000006  -0.000943 0.002399 -0.620101
17  0.459534 -0.272515 1.494838  -1.528877 -0.394735 -0.263833
18  1.789819 -0.000004 -0.000017  -0.005043 0.002467 0.111593
19  1.207015 -0.000013 -0.000043  -0.005634 -0.000693 0.835388
20  5.740637 0.000388 -0.000699  -0.119527 0.000003 0.000064
21  11.481050 0.000283 -0.000763  -0.092997 -0.064978 0.045972
22  6.027524 -0.000329 0.000201  1.515107 -0.069448 1.855040
23  0.000001 11.692099 -0.000008  -0.598123 -0.155896 -0.496099
24  0.000001 0.000008 -0.000001  -0.121332 -0.000030 1.570739
25  0.000002 -0.000011 0.000000  0.868960 0.000002 1.570712
26  -6.899342 -10.734701 0.826813  1.473120 1.855075 -0.198639
27  6.027517 -0.000263 -0.000216  1.576700 1.238614 -0.677738
28  11.691989 0.000163 0.000859  0.139889 0.000016 -0.996971
29  11.480544 0.000022 0.000826  -1.325707 0.539354 0.492285
30  3.710775 -0.434234 1.096849  0.974897 -0.111756 -2.079603
31  1.312560 0.000032 -0.000001  0.008191 -0.088214 -0.285514
32  0.729347 0.000067 -0.000028  -0.132450 -0.134191 -1.087309
33  3.820806 -0.154608 0.327900  0.610805 -0.300364 -1.640271
34  1.539094 0.000003 -0.000001  0.047162 -0.047589 -0.892209
35  1.196301 0.000082 -0.000003  -0.021079 -0.009374 -1.253100
36  3.882447 -0.171892 -0.416804  0.406628 -0.376223 -1.253559
37  1.719565 -0.000084 -0.000005  0.018695 -0.082922 -1.374417
38  1.209192 0.000035 0.000011  0.003361 -0.003782 -0.857658
39  3.859585 -0.149082 -1.331322  0.052683 -0.238405 -0.449221
40  1.719412 -0.000097 -0.000037  0.031466 0.001819 -1.126076
41  1.099673 0.000023 0.000006  -0.005117 -0.008160 -0.712530
42  0.230504 -0.805067 -1.086893  1.111612 0.594062 -0.578210
43  1.789780 -0.000007 -0.000042  -0.089312 -0.070323 0.368341
44  1.206996 -0.000006 0.000005  0.000678 -0.214508 0.376132
45  5.740572 0.000079 0.000721  0.079755 -0.000014 0.000028
46  11.481052 0.000078 0.000910  0.024849 0.094774 0.072350
47  6.027515 -0.000273 -0.000229  -1.312023 -0.210687 -1.580112
48  -0.000001 11.691975 -0.000008  -0.718543 0.227362 0.590186
49  0.000002 0.000000 0.000000  2.412441 -0.000036 1.570860
50  -0.000007 -0.000013 0.000004  2.272645 -0.000036 1.570861
51  -2.582362 -8.419049 -5.347402  -0.167902 -2.869855 1.259059
52  -0.000000 0.000000 -0.000001  0.008153 -0.000259 0.000009
53  0.000000 0.000000 0.000000  1.565115 0.043565 -0.106862
54  0.116949 -10.235869 -6.060003  -0.561664 -0.036006 -1.954986
55  -0.000001 -0.000000 0.000000  0.000000 -0.000001 -0.000002
56  0.000030 0.000029 0.000001  -1.571901 -0.044449 -0.106509
57  12.000549 -19.544212 -17.246658  1.570796 -0.000000 0.000000
58  -15.417984 4.000748 -22.641926  1.570796 -0.000000 0.000000
59  1.941978 9.263218 -8.327020  1.570796 -0.000000 0.000000
60  -0.004311 0.001229 -0.000372  0.006898 -0.005534 -0.284229
61  0.826810 11.791080 -4.879054  1.570796 -0.000000 0.000000
62  0.000000 0.000000 0.000000  -0.078727 -3.136056 0.284226
63  0.000000 0.000000 0.000000  1.570796 -0.000000 0.000000
64  -1.911250 -10.889866 -3.842984  1.567201 0.020887 0.007002
65  -0.008022 0.449004 2.449478  0.000000 0.000000 -0.000000
66  -0.008021 1.798499 0.936337  0.000000 0.000000 -0.000000
67  0.000000 2.151127 1.009987  0.000000 0.000000 -0.000000
68  -0.008023 1.347420 0.085286  -1.051149 0.001216 0.000412
69  0.230627 1.332312 3.105304  0.175653 0.000000 -0.000000
70  -0.008024 2.211807 7.723072  -0.028798 0.000000 -0.000000
71  -0.008022 1.228065 5.810778  0.000000 0.000000 -0.000000
72  -0.008023 1.115505 -0.313081  0.000000 0.000000 -0.000000
73  -0.008023 1.345871 0.084164  1.570796 0.000000 -0.000000
74  -0.008023 0.197514 1.902819  0.000000 0.000000 -0.000000
75  -1.860653 -12.792052 -1.674488  1.567201 0.020887 0.007002
76  -1.865406 -11.611340 -1.890324  1.567201 0.020887 0.007002
77  -0.008021 -0.653745 0.060182  0.000000 0.000000 -0.000000
78  -0.008021 -1.155510 -0.087180  0.000000 0.000000 -0.000000
79  -0.000000 -0.501765 -0.147367  0.000000 0.000000 -0.000000
80  -0.000000 -1.003530 -0.294728  0.000000 0.000000 -0.000000
81  -0.000000 -1.505296 -0.442090  0.000000 0.000000 -0.000000
82  -0.000000 -2.007060 -0.589454  0.000000 0.000000 -0.000000
83  -0.000000 -2.508827 -0.736815  0.000000 0.000000 -0.000000
84  -0.000000 -2.772559 -0.939010  0.000000 0.000000 -0.000000
85  -0.000000 -3.071457 -1.220326  0.000000 0.000000 -0.000000
86  -0.283371 -4.518086 -0.534134  0.346743 -0.000000 -0.000000
87  0.000000 0.993479 -0.063566  -0.012322 0.000000 0.000000
88  -1.860653 -12.792052 -1.674488  1.567201 0.020887 0.007002
time 10
0  0.000006 0.000000 0.000000  -1.570800 -1.391899 -1.570792
1  -9.841317 -7.634221 1.937669  -1.544956 -1.855077 -0.198630
2  6.027525 -0.000329 0.000190  -0.039213 -1.482957 -1.955127
3  11.692114 0.000644 -0.000739  -0.990394 0.000005 -0.816372
4  11.480196 0.000514 -0.000554  1.041562 -0.333150 0.402196
5  3.666629 -0.163903 -1.204801  -0.519250 0.086737 -1.532179
6  1.312589 0.000011 0.000009  -0.003664 0.023356 -0.272237
7  0.729353 0.000054 0.000049  -0.003677 0.000626 -0.150723
8  3.942141 0.046332 -0.431542  -0.205965 0.132196 -1.449654
9  1.539110 0.000083 0.000004  -0.000570 0.007396 -0.283198
10  1.196333 0.000146 0.000029  -0.000713 0.000161 -0.519019
11  3.883511 -0.047211 0.431351  -0.042690 0.198097 -1.260493
12  1.719573 -0.000027 0.000017  -0.000644 0.003280 -0.404344
13  1.209179 0.000091 0.000012  -0.000905 0.002861 -0.623854
14  3.859677 -0.138418 1.332380  -0.235831 0.317274 -1.342437
15  1.719448 -0.000019 0.000028  0.001902 0.001157 -0.067177
16  1.099674 0.000049 0.000005  -0.000943 0.002399 -0.620101
17  0.459533 -0.272516 1.494839  -1.528877 -0.394734 -0.263833
18  1.789820 -0.000004 -0.000015  -0.005043 0.002467 0.111593
19  1.207016 -0.000013 -0.000043  -0.005634 -0.000693 0.835388
20  5.740637 0.000388 -0.000700  -0.115256 0.000003 0.000064
21  11.481048 0.000282 -0.000765  -0.089139 -0.064009 0.048197
22  6.027524 -0.000329 0.000201  1.516675 -0.069301 1.850965
23  0.000002 11.692099 -0.000008  -0.598417 -0.156053 -0.496332
24  0.000004 0.000009 -0.000000  -0.121332 -0.000031 1.570739
25  0.000001 -0.000013 -0.000000  0.868960 0.000002 1.570712
26  -6.899342 -10.734701 0.826813  1.473120 1.855075 -0.198639
27  6.027517 -0.000263 -0.000216  1.571162 1.239167 -0.682143
28  11.691990 0.000161 0.000859  0.139889 0.000016 -0.995806
29  11.480551 0.000025 0.000826  -1.304161 0.545295 0.497353
30  3.710775 -0.434235 1.096849  0.974897 -0.111756 -2.079603
31  1.312560 0.000031 -0.000000  0.008191 -0.088214 -0.285514
32  0.729348 0.000066 -0.000027  -0.132450 -0.134191 -1.087309
33  3.820806 -0.154609 0.327899  0.610805 -0.300364 -1.640271
34  1.539095 0.000005 -0.000001  0.047162 -0.047589 -0.892209
35  1.196302 0.000081 -0.000003  -0.021079 -0.009374 -1.253100
36  3.882447 -0.171893 -0.416804  0.406628 -0.376223 -1.253560
37  1.719565 -0.000083 -0.000004  0.018695 -0.082922 -1.374417
38  1.209193 0.000034 0.000011  0.003361 -0.003782 -0.857658
39  3.859586 -0.149082 -1.331323  0.052683 -0.238405 -0.449221
40  1.719412 -0.000097 -0.000037  0.031466 0.001818 -1.126076
41  1.099672 0.000024 0.000007  -0.005117 -0.008160 -0.712530
42  0.230504 -0.805067 -1.086893  1.111612 0.594062 -0.578210
43  1.789780 -0.000007 -0.000042  -0.089312 -0.070323 0.368341
44  1.206996 -0.000007 0.000005  0.000678 -0.214508 0.376132
45  5.740573 0.000079 0.000720  0.083806 -0.000014 0.000028
46  11.481054 0.000079 0.000910  0.028316 0.096862 0.071899
47  6.027515 -0.000273 -0.000229  -1.313614 -0.211756 -1.578948
48  0.000000 11.691974 -0.000007  -0.717783 0.226866 0.589604
49  0.000003 -0.000000 0.000001  2.412441 -0.000036 1.570860
50  -0.000006 -0.000014 0.000005  2.272645 -0.000036 1.570861
51  -2.549848 -8.423040 -5.369535  -0.148245 -2.872693 1.253144
52  -0.000001 -0.000000 0.000000  0.008153 -0.000259 0.000009
53  0.000001 -0.000000 -0.000000  1.565115 0.043565 -0.106862
54  0.161178 -10.243827 -6.025271  -0.542956 -0.031848 -1.956286
55  0.000000 -0.000000 -0.000000  0.000000 -0.000001 -0.000002
56  0.000031 0.000029 0.000001  -1.571901 -0.044449 -0.106509
57  12.000549 -19.544212 -17.246658  1.570796 -0.000000 0.000000
58  -15.417984 4.000748 -22.641926  1.570796 -0.000000 0.000000
59  1.941978 9.263218 -8.327020  1.570796 -0.000000 0.000000
60  -0.004311 0.001229 -0.000372  0.006898 -0.005534 -0.284229
61  0.826810 11.791080 -4.879054  1.570796 -0.000000 0.000000
62  0.000000 0.000000 0.000000  -0.078727 -3.136056 0.284226
63  0.000000 0.000000 0.000000  1.570796 -0.000000 0.000000
64  -1.908991 -10.889500 -3.844908  1.563910 0.002017 0.006299
65  -0.008022 0.449003 2.449477  -0.000000 0.000000 0.000000
66  -0.008021 1.798499 0.936336  -0.000000 0.000000 0.000000
67  0.000000 2.151127 1.009985  -0.000000 0.000000 0.000000
68  -0.008023 1.347419 0.085284  -1.051149 0.001216 0.000412
69  0.230628 1.332312 3.105304  0.175653 -0.000000 -0.000000
70  -0.008023 2.211807 7.723072  -0.028798 0.000000 0.000000
71  -0.008022 1.228065 5.810774  -0.000000 0.000000 0.000000
72  -0.008022 1.115505 -0.313083  -0.000000 0.000000 0.000000
73  -0.008023 1.345871 0.084162  1.570796 0.000000 -0.000000
74  -0.008023 0.197514 1.902818  -0.000000 0.000000 0.000000
75  -1.900687 -12.784827 -1.669845  1.563910 0.002017 0.006299
76  -1.900541 -11.604804 -1.889461  1.563910 0.002017 0.006299
77  -0.008021 -0.653744 0.060180  -0.000000 0.000000 0.000000
78  -0.008021 -1.155510 -0.087181  -0.000000 0.000000 0.000000
79  -0.000000 -0.501766 -0.147367  -0.000000 0.000000 0.000000
80  -0.000000 -1.003531 -0.294729  -0.000000 0.000000 0.000000
81  -0.000000 -1.505297 -0.442091  -0.000000 0.000000 0.000000
82  -0.000000 -2.007061 -0.589454  -0.000000 0.000000 0.000000
83  -0.000000 -2.508827 -0.736814  -0.000000 0.000000 0.000000
84  -0.000000 -2.772560 -0.939009  -0.000000 0.000000 0.000000
85  -0.000000 -3.071457 -1.220324  -0.000000 0.000000 0.000000
86  -0.283371 -4.518087 -0.534135  0.346743 -0.000000 -0.000000
87  0.000000 0.993480 -0.063565  -0.012322 0.000000 0.000000
88  -1.900687 -12.784827 -1.669845  1.563910 0.002017 0.006299
time 11
0  0.000006 0.000000 0.000000  -1.570800 -1.391899 -1.570792
1  -9.841317 -7.634221 1.937669  -1.544956 -1.855077 -0.198630
2  6.027525 -0.000329 0.000190  -0.043367 -1.483390 -1.952572
3  11.692115 0.000645 -0.000739  -0.990394 0.000005 -0.816111
4  11.480204 0.000515 -0.000551  1.050440 -0.330411 0.405014
5  3.666629 -0.163903 -1.204803  -0.519250 0.086737 -1.532179
6  1.312589 0.000010 0.000009  -0.003664 0.023356 -0.272237
7  0.729355 0.000055 0.000050  -0.003677 0.000626 -0.150723
8  3.942142 0.046332 -0.431543  -0.205965 0.132197 -1.449654
9  1.539110 0.000083 0.000004  -0.000570 0.007396 -0.283198
10  1.196332 0.000146 0.000028  -0.000713 0.000161 -0.519018
11  3.883512 -0.047211 0.431350  -0.042690 0.198097 -1.260493
12  1.719572 -0.000029 0.000017  -0.000644 0.003280 -0.404344
13  1.209179 0.000089 0.000012  -0.000905 0.002861 -0.623853
14  3.859677 -0.138417 1.332379  -0.235831 0.317274 -1.342437
15  1.719449 -0.000020 0.000028  0.001902 0.001157 -0.067177
16  1.099676 0.000047 0.000005  -0.000943 0.002399 -0.620101
17  0.459534 -0.272515 1.494838  -1.528877 -0.394734 -0.263833
18  1.789818 -0.000005 -0.000017  -0.005043 0.002467 0.111593
19  1.207016 -0.000012 -0.000044  -0.005634 -0.000693 0.835388
20  5.740636 0.000389 -0.000700  -0.113289 0.000003 0.000063
21  11.481049 0.000283 -0.000764  -0.087514 -0.063269 0.049250
22  6.027524 -0.000329 0.000201  1.517229 -0.069183 1.849343
23  -0.000001 11.692100 -0.000007  -0.598240 -0.155958 -0.496191
24  0.000003 0.000009 -0.000000  -0.121333 -0.000031 1.570739
25  -0.000001 -0.000011 0.000000  0.868960 0.000002 1.570712
26  -6.899342 -10.734701 0.826813  1.473120 1.855075 -0.198639
27  6.027517 -0.000263 -0.000216  1.568214 1.239236 -0.684490
28  11.691990 0.000160 0.000858  0.139889 0.000016 -0.995494
29  11.480552 0.000025 0.000828  -1.294286 0.549260 0.500589
30  3.710775 -0.434235 1.096848  0.974897 -0.111756 -2.079603
31  1.312560 0.000030 -0.000000  0.008191 -0.088214 -0.285514
32  0.729346 0.000066 -0.000028  -0.132450 -0.134191 -1.087309
33  3.820806 -0.154609 0.327898  0.610805 -0.300364 -1.640271
34  1.539095 0.000003 -0.000002  0.047162 -0.047589 -0.892209
35  1.196302 0.000081 -0.000003  -0.021079 -0.009374 -1.253100
36  3.882446 -0.171892 -0.416805  0.406628 -0.376223 -1.253559
37  1.719564 -0.000083 -0.000005  0.018695 -0.082922 -1.374417
38  1.209192 0.000035 0.000011  0.003361 -0.003782 -0.857658
39  3.859585 -0.149082 -1.331322  0.052683 -0.238405 -0.449221
40  1.719413 -0.000097 -0.000037  0.031466 0.001819 -1.126076
41  1.099673 0.000023 0.000006  -0.005117 -0.008160 -0.712530
42  0.230503 -0.805067 -1.086893  1.111612 0.594062 -0.578210
43  1.789780 -0.000009 -0.000042  -0.089312 -0.070323 0.368341
44  1.206995 -0.000007 0.000005  0.000678 -0.214508 0.376132
45  5.740572 0.000079 0.000721  0.085669 -0.000014 0.000028
46  11.481053 0.000078 0.000911  0.029795 0.098075 0.071820
47  6.027515 -0.000273 -0.000229  -1.314283 -0.212461 -1.578367
48  -0.000001 11.691974 -0.000007  -0.717580 0.226734 0.589448
49  0.000005 0.000000 0.000000  2.412441 -0.000036 1.570860
50  -0.000007 -0.000013 0.000005  2.272645 -0.000036 1.570861
51  -2.533559 -8.423601 -5.382570  -0.139397 -2.874226 1.249085
52  0.000000 0.000000 -0.000000  0.008153 -0.000259 0.000009
53  -0.000000 -0.000000 -0.000001  1.565115 0.043565 -0.106862
54  0.179857 -10.249826 -6.012798  -0.534542 -0.029749 -1.958260
55  -0.000001 -0.000000 0.000000  0.000000 -0.000001 -0.000002
56  0.000029 0.000029 0.000001  -1.571901 -0.044449 -0.106509
57  12.000549 -19.544212 -17.246658  1.570796 -0.000000 0.000000
58  -15.417984 4.000748 -22.641926  1.570796 -0.000000 0.000000
59  1.941978 9.263218 -8.327020  1.570796 -0.000000 0.000000
60  -0.004311 0.001229 -0.000372  0.006898 -0.005534 -0.284229
61  0.826810 11.791080 -4.879054  1.570796 -0.000000 0.000000
62  0.000000 0.000000 0.000000  -0.078727 -3.136056 0.284226
63  0.000000 0.000000 0.000000  1.570796 -0.000000 0.000000
64  -1.910050 -10.889270 -3.849497  1.562637 -0.006557 0.004587
65  -0.008022 0.449004 2.449477  -0.000000 0.000000 0.000000
66  -0.008021 1.798499 0.936336  -0.000000 0.000000 0.000000
67  0.000001 2.151127 1.009985  -0.000000 0.000000 0.000000
68  -0.008023 1.347420 0.085285  -1.051149 0.001216 0.000412
69  0.230628 1.332312 3.105305  0.175653 0.000000 -0.000000
70  -0.008024 2.211807 7.723071  -0.028798 0.000000 0.000000
71  -0.008022 1.228065 5.810775  -0.000000 0.000000 0.000000
72  -0.008022 1.115505 -0.313083  -0.000000 0.000000 0.000000
73  -0.008023 1.345870 0.084163  1.570796 0.000000 -0.000000
74  -0.008023 0.197513 1.902819  -0.000000 0.000000 0.000000
75  -1.923668 -12.781925 -1.672135  1.562637 -0.006557 0.004587
76  -1.919608 -11.602177 -1.893179  1.562637 -0.006557 0.004587
77  -0.008021 -0.653744 0.060182  -0.000000 0.000000 0.000000
78  -0.008021 -1.155510 -0.087180  -0.000000 0.000000 0.000000
79  0.000000 -0.501765 -0.147367  -0.000000 0.000000 0.000000
80  0.000000 -1.003531 -0.294729  -0.000000 0.000000 0.000000
81  0.000000 -1.505296 -0.442090  -0.000000 0.000000 0.000000
82  0.000000 -2.007061 -0.589453  -0.000000 0.000000 0.000000
83  0.000000 -2.508827 -0.736815  -0.000000 0.000000 0.000000
84  0.000000 -2.772559 -0.939011  -0.000000 0.000000 0.000000
85  0.000000 -3.071457 -1.220325  -0.000000 0.000000 0.000000
86  -0.283371 -4.518086 -0.534133  0.346743 -0.000000 -0.000000
87  0.000000 0.993480 -0.063566  -0.012322 0.000000 -0.000000
88  -1.923668 -12.781925 -1.672135  1.562637 -0.006557 0.004587
time 12
0  0.000006 0.000000 0.000000  -1.570800 -1.391899 -1.570792
1  -9.841317 -7.634221 1.937669  -1.544956 -1.855077 -0.198630
2  6.027525 -0.000329 0.000190  -0.042013 -1.483097 -1.952854
3  11.692112 0.000645 -0.000739  -0.990394 0.000005 -0.815969
4  11.480206 0.000517 -0.000550  1.045299 -0.328642 0.404968
5  3.666626 -0.163903 -1.204803  -0.519250 0.086737 -1.532179
6  1.312589 0.000010 0.000008  -0.003664 0.023356 -0.272237
7  0.729355 0.000052 0.000049  -0.003677 0.000626 -0.150723
8  3.942140 0.046331 -0.431543  -0.205965 0.132196 -1.449654
9  1.539111 0.000084 0.000003  -0.000570 0.007396 -0.283198
10  1.196332 0.000147 0.000028  -0.000713 0.000161 -0.519019
11  3.883510 -0.047211 0.431351  -0.042690 0.198097 -1.260493
12  1.719573 -0.000029 0.000017  -0.000644 0.003280 -0.404344
13  1.209179 0.000090 0.000012  -0.000905 0.002861 -0.623854
14  3.859676 -0.138418 1.332379  -0.235831 0.317274 -1.342437
15  1.719448 -0.000019 0.000028  0.001902 0.001157 -0.067177
16  1.099675 0.000048 0.000005  -0.000943 0.002399 -0.620101
17  0.459533 -0.272515 1.494839  -1.528877 -0.394735 -0.263833
18  1.789819 -0.000003 -0.000016  -0.005043 0.002467 0.111593
19  1.207016 -0.000012 -0.000045  -0.005634 -0.000693 0.835388
20  5.740635 0.000391 -0.000699  -0.114262 0.000003 0.000063
21  11.481050 0.000284 -0.000763  -0.088586 -0.063117 0.049110
22  6.027524 -0.000329 0.000201  1.516955 -0.069342 1.850429
23  0.000001 11.692099 -0.000008  -0.598143 -0.155906 -0.496114
24  0.000001 0.000009 0.000000  -0.121332 -0.000031 1.570739
25  0.000001 -0.000011 -0.000000  0.868960 0.000002 1.570712
26  -6.899342 -10.734701 0.826813  1.473120 1.855075 -0.198639
27  6.027517 -0.000263 -0.000216  1.568660 1.238838 -0.684134
28  11.691991 0.000161 0.000858  0.139889 0.000016 -0.996364
29  11.480545 0.000023 0.000827  -1.298151 0.549682 0.502409
30  3.710774 -0.434234 1.096849  0.974897 -0.111756 -2.079603
31  1.312560 0.000031 0.000001  0.008191 -0.088214 -0.285514
32  0.729346 0.000065 -0.000027  -0.132450 -0.134191 -1.087309
33  3.820805 -0.154608 0.327899  0.610805 -0.300364 -1.640271
34  1.539095 0.000002 -0.000003  0.047162 -0.047589 -0.892209
35  1.196302 0.000081 -0.000003  -0.021079 -0.009374 -1.253100
36  3.882445 -0.171892 -0.416804  0.406628 -0.376223 -1.253560
37  1.719566 -0.000082 -0.000005  0.018695 -0.082922 -1.374417
38  1.209192 0.000033 0.000011  0.003361 -0.003782 -0.857658
39  3.859584 -0.149082 -1.331322  0.052683 -0.238405 -0.449221
40  1.719413 -0.000097 -0.000037  0.031466 0.001819 -1.126076
41  1.099672 0.000025 0.000006  -0.005117 -0.008160 -0.712530
42  0.230504 -0.805067 -1.086893  1.111612 0.594063 -0.578210
43  1.789779 -0.000008 -0.000042  -0.089312 -0.070323 0.368341
44  1.206996 -0.000007 0.000005  0.000678 -0.214508 0.376132
45  5.740572 0.000079 0.000721  0.084985 -0.000014 0.000028
46  11.481053 0.000079 0.000911  0.028989 0.098025 0.072387
47  6.027515 -0.000273 -0.000229  -1.313873 -0.212597 -1.578519
48  0.000000 11.691974 -0.000007  -0.718147 0.227104 0.589883
49  0.000002 -0.000000 0.000000  2.412441 -0.000036 1.570860
50  -0.000007 -0.000014 0.000005  2.272645 -0.000036 1.570861
51  -2.536335 -8.418950 -5.380551  -0.143695 -2.875067 1.248127
52  0.000001 0.000000 -0.000000  0.008153 -0.000259 0.000009
53  -0.000000 0.000000 -0.000000  1.565115 0.043565 -0.106862
54  0.170921 -10.249500 -6.024576  -0.538736 -0.029184 -1.960228
55  0.000001 -0.000000 -0.000000  0.000000 -0.000001 -0.000002
56  0.000032 0.000028 0.000001  -1.571901 -0.044449 -0.106509
57  12.000549 -19.544212 -17.246658  1.570796 -0.000000 0.000000
58  -15.417984 4.000748 -22.641926  1.570796 -0.000000 0.000000
59  1.941978 9.263218 -8.327020  1.570796 -0.000000 0.000000
60  -0.004311 0.001229 -0.000372  0.006898 -0.005534 -0.284229
61  0.826810 11.791080 -4.879054  1.570796 -0.000000 0.000000
62  0.000000 0.000000 0.000000  -0.078727 -3.136056 0.284226
63  0.000000 0.000000 0.000000  1.570796 -0.000000 0.000000
64  -1.912381 -10.889152 -3.854974  1.564761 -0.002899 0.002485
65  -0.008021 0.449004 2.449478  0.000000 -0.000000 0.000000
66  -0.008021 1.798499 0.936337  0.000000 -0.000000 0.000000
67  0.000001 2.151127 1.009988  0.000000 -0.000000 0.000000
68  -0.008023 1.347420 0.085286  -1.051149 0.001216 0.000412
69  0.230628 1.332312 3.105306  0.175653 0.000000 -0.000000
70  -0.008023 2.211807 7.723072  -0.028798 -0.000000 0.000000
71  -0.008022 1.228065 5.810776  0.000000 -0.000000 0.000000
72  -0.008022 1.115505 -0.313081  0.000000 -0.000000 0.000000
73  -0.008023 1.345870 0.084164  1.570796 -0.000000 -0.000000
74  -0.008022 0.197514 1.902818  0.000000 -0.000000 0.000000
75  -1.921987 -12.786376 -1.681570  1.564761 -0.002899 0.002485
76  -1.916265 -11.606173 -1.900141  1.564761 -0.002899 0.002485
77  -0.008021 -0.653744 0.060181  0.000000 -0.000000 0.000000
78  -0.008021 -1.155510 -0.087181  0.000000 -0.000000 0.000000
79  -0.000000 -0.501765 -0.147366  0.000000 -0.000000 0.000000
80  -0.000000 -1.003531 -0.294727  0.000000 -0.000000 0.000000
81  -0.000000 -1.505296 -0.442089  0.000000 -0.000000 0.000000
82  -0.000000 -2.007061 -0.589453  0.000000 -0.000000 0.000000
83  -0.000000 -2.508827 -0.736814  0.000000 -0.000000 0.000000
84  -0.000000 -2.772560 -0.939009  0.000000 -0.000000 0.000000
85  -0.000000 -3.071457 -1.220324  0.000000 -0.000000 0.000000
86  -0.283371 -4.518086 -0.534134  0.346743 -0.000000 -0.000000
87  0.000000 0.993480 -0.063566  -0.012322 0.000000 0.000000
88  -1.921987 -12.786376 -1.681570  1.564761 -0.002899 0.002485
time 13
0  0.000006 0.000000 0.000000  -1.570800 -1.391899 -1.570792
1  -9.841317 -7.634221 1.937669  -1.544956 -1.855077 -0.198630
2  6.027525 -0.000329 0.000190  -0.044320 -1.482871 -1.949752
3  11.692112 0.000645 -0.000738  -0.990394 0.000005 -0.816715
4  11.480185 0.000512 -0.000556  1.039713 -0.327605 0.407636
5  3.666627 -0.163904 -1.204802  -0.519250 0.086737 -1.532179
6  1.312590 0.000010 0.000008  -0.003664 0.023357 -0.272237
7  0.729355 0.000054 0.000049  -0.003677 0.000626 -0.150723
8  3.942142 0.046331 -0.431543  -0.205965 0.132196 -1.449654
9  1.539111 0.000083 0.000004  -0.000570 0.007396 -0.283198
10  1.196333 0.000148 0.000029  -0.000713 0.000161 -0.519018
11  3.883511 -0.047212 0.431351  -0.042690 0.198097 -1.260493
12  1.719573 -0.000028 0.000016  -0.000644 0.003280 -0.404344
13  1.209178 0.000090 0.000012  -0.000905 0.002861 -0.623854
14  3.859678 -0.138418 1.332380  -0.235831 0.317274 -1.342437
15  1.719449 -0.000017 0.000029  0.001902 0.001157 -0.067177
16  1.099675 0.000049 0.000006  -0.000943 0.002399 -0.620101
17  0.459535 -0.272515 1.494839  -1.528877 -0.394734 -0.263833
18  1.789820 -0.000004 -0.000017  -0.005043 0.002467 0.111593
19  1.207015 -0.000013 -0.000044  -0.005634 -0.000693 0.835388
20  5.740636 0.000389 -0.000700  -0.115331 0.000003 0.000063
21  11.481046 0.000282 -0.000764  -0.089643 -0.063228 0.049450
22  6.027524 -0.000329 0.000201  1.516976 -0.069644 1.851230
23  -0.000001 11.692099 -0.000007  -0.598650 -0.156178 -0.496517
24  0.000003 0.000008 -0.000001  -0.121332 -0.000031 1.570739
25  -0.000001 -0.000012 0.000000  0.868960 0.000002 1.570712
26  -6.899342 -10.734701 0.826813  1.473120 1.855075 -0.198639
27  6.027517 -0.000263 -0.000216  1.569379 1.238484 -0.683562
28  11.691993 0.000162 0.000859  0.139889 0.000016 -0.997605
29  11.480539 0.000019 0.000826  -1.300460 0.549045 0.506740
30  3.710775 -0.434234 1.096848  0.974897 -0.111756 -2.079603
31  1.312560 0.000032 -0.000001  0.008191 -0.088214 -0.285514
32  0.729347 0.000065 -0.000027  -0.132450 -0.134191 -1.087309
33  3.820807 -0.154608 0.327899  0.610805 -0.300364 -1.640271
34  1.539094 0.000003 -0.000001  0.047162 -0.047589 -0.892209
35  1.196302 0.000080 -0.000003  -0.021079 -0.009374 -1.253100
36  3.882447 -0.171892 -0.416805  0.406628 -0.376223 -1.253559
37  1.719566 -0.000082 -0.000006  0.018695 -0.082922 -1.374417
38  1.209193 0.000034 0.000011  0.003361 -0.003782 -0.857658
39  3.859586 -0.149081 -1.331322  0.052683 -0.238405 -0.449221
40  1.719414 -0.000097 -0.000037  0.031466 0.001819 -1.126076
41  1.099673 0.000024 0.000006  -0.005117 -0.008160 -0.712530
42  0.230504 -0.805067 -1.086893  1.111612 0.594062 -0.578210
43  1.789780 -0.000007 -0.000042  -0.089312 -0.070323 0.368341
44  1.206997 -0.000006 0.000005  0.000678 -0.214508 0.376132
45  5.740573 0.000078 0.000722  0.084619 -0.000014 0.000028
46  11.481052 0.000077 0.000911  0.028432 0.097870 0.073385
47  6.027515 -0.000273 -0.000229  -1.313439 -0.212637 -1.578718
48  -0.000001 11.691975 -0.000008  -0.718956 0.227631 0.590502
49  0.000003 -0.000000 0.000000  2.412441 -0.000036 1.570860
50  -0.000007 -0.000014 0.000004  2.272645 -0.000036 1.570861
51  -2.538371 -8.411853 -5.373780  -0.147593 -2.877945 1.247399
52  -0.000001 0.000000 -0.000000  0.008153 -0.000259 0.000009
53  0.000001 0.000000 -0.000000  1.565115 0.043565 -0.106862
54  0.163954 -10.244578 -6.032166  -0.542683 -0.026565 -1.961866
55  0.000001 0.000001 0.000000  0.000000 -0.000001 -0.000002
56  0.000031 0.000030 0.000001  -1.571902 -0.044449 -0.106509
57  12.000549 -19.544212 -17.246658  1.570796 -0.000000 0.000000
58  -15.417984 4.000748 -22.641926  1.570796 -0.000000 0.000000
59  1.941978 9.263218 -8.327020  1.570796 -0.000000 0.000000
60  -0.004311 0.001229 -0.000372  0.006898 -0.005534 -0.284229
61  0.826810 11.791080 -4.879054  1.570796 -0.000000 0.000000
62  0.000000 0.000000 0.000000  -0.078727 -3.136056 0.284226
63  0.000000 0.000000 0.000000  1.570796 -0.000000 0.000000
64  -1.914711 -10.889109 -3.859563  1.568689 -0.000252 0.000731
65  -0.008022 0.449003 2.449476  -0.000000 0.000000 -0.000000
66  -0.008021 1.798499 0.936337  -0.000000 0.000000 -0.000000
67  0.000000 2.151126 1.009987  -0.000000 0.000000 -0.000000
68  -0.008023 1.347419 0.085285  -1.051149 0.001216 0.000412
69  0.230627 1.332312 3.105304  0.175653 0.000000 -0.000000
70  -0.008024 2.211807 7.723070  -0.028798 0.000000 -0.000000
71  -0.008022 1.228065 5.810774  -0.000000 0.000000 -0.000000
72  -0.008023 1.115504 -0.313082  -0.000000 0.000000 -0.000000
73  -0.008023 1.345870 0.084163  1.570796 0.000000 -0.000000
74  -0.008023 0.197513 1.902818  -0.000000 0.000000 -0.000000
75  -1.921886 -12.794829 -1.693597  1.568689 -0.000252 0.000731
76  -1.914674 -11.613791 -1.907553  1.568689 -0.000252 0.000731
77  -0.008021 -0.653745 0.060182  -0.000000 0.000000 -0.000000
78  -0.008021 -1.155510 -0.087180  -0.000000 0.000000 -0.000000
79  -0.000000 -0.501766 -0.147367  -0.000000 0.000000 -0.000000
80  -0.000000 -1.003531 -0.294727  -0.000000 0.000000 -0.000000
81  -0.000000 -1.505297 -0.442090  -0.000000 0.000000 -0.000000
82  -0.000000 -2.007061 -0.589454  -0.000000 0.000000 -0.000000
83  0.000000 -2.508827 -0.736814  -0.000000 0.000000 -0.000000
84  -0.000000 -2.772560 -0.939010  -0.000000 0.000000 -0.000000
85  -0.000000 -3.071457 -1.220325  -0.000000 0.000000 -0.000000
86  -0.283371 -4.518086 -0.534133  0.346743 -0.000000 -0.000000
87  0.000000 0.993480 -0.063566  -0.012322 0.000000 0.000000
88  -1.921886 -12.794829 -1.693597  1.568689 -0.000252 0.000731
time 14
0  0.000006 0.000000 0.000000  -1.570800 -1.391899 -1.570792
1  -9.841317 -7.634221 1.937669  -1.544956 -1.855077 -0.198630
2  6.027525 -0.000329 0.000190  -0.046674 -1.482826 -1.947262
3  11.692113 0.000646 -0.000738  -0.990394 0.000005 -0.817283
4  11.480171 0.000509 -0.000561  1.037844 -0.327220 0.409781
5  3.666629 -0.163903 -1.204802  -0.519250 0.086737 -1.532179
6  1.312590 0.000009 0.000008  -0.003664 0.023357 -0.272237
7  0.729356 0.000053 0.000049  -0.003677 0.000626 -0.150723
8  3.942141 0.046331 -0.431543  -0.205965 0.132196 -1.449654
9  1.539110 0.000082 0.000004  -0.000570 0.007396 -0.283198
10  1.196333 0.000145 0.000028  -0.000713 0.000161 -0.519019
11  3.883511 -0.047212 0.431351  -0.042690 0.198097 -1.260493
12  1.719573 -0.000028 0.000017  -0.000644 0.003280 -0.404344
13  1.209179 0.000090 0.000012  -0.000905 0.002861 -0.623853
14  3.859678 -0.138418 1.332380  -0.235831 0.317274 -1.342437
15  1.719448 -0.000016 0.000029  0.001902 0.001157 -0.067177
16  1.099675 0.000049 0.000006  -0.000943 0.002399 -0.620101
17  0.459535 -0.272516 1.494839  -1.528877 -0.394735 -0.263833
18  1.789819 -0.000003 -0.000016  -0.005043 0.002467 0.111593
19  1.207016 -0.000012 -0.000044  -0.005634 -0.000693 0.835388
20  5.740636 0.000388 -0.000700  -0.115675 0.000003 0.000063
21  11.481044 0.000281 -0.000766  -0.089969 -0.063308 0.049811
22  6.027524 -0.000329 0.000201  1.517113 -0.069806 1.851366
23  -0.000001 11.692099 -0.000008  -0.599036 -0.156384 -0.496824
24  0.000003 0.000009 -0.000000  -0.121333 -0.000030 1.570739
25  -0.000000 -0.000012 -0.000000  0.868960 0.000002 1.570712
26  -6.899342 -10.734701 0.826813  1.473120 1.855075 -0.198639
27  6.027517 -0.000263 -0.000216  1.569572 1.238356 -0.683408
28  11.691992 0.000161 0.000860  0.139889 0.000016 -0.998213
29  11.480537 0.000021 0.000827  -1.300277 0.548705 0.509537
30  3.710775 -0.434235 1.096848  0.974897 -0.111756 -2.079603
31  1.312560 0.000032 -0.000000  0.008190 -0.088214 -0.285514
32  0.729347 0.000065 -0.000028  -0.132450 -0.134191 -1.087309
33  3.820805 -0.154609 0.327899  0.610805 -0.300364 -1.640271
34  1.539094 0.000004 -0.000001  0.047162 -0.047589 -0.892209
35  1.196303 0.000079 -0.000003  -0.021079 -0.009374 -1.253100
36  3.882446 -0.171892 -0.416805  0.406628 -0.376223 -1.253560
37  1.719567 -0.000082 -0.000005  0.018695 -0.082922 -1.374417
38  1.209193 0.000034 0.000011  0.003361 -0.003782 -0.857658
39  3.859585 -0.149082 -1.331322  0.052683 -0.238405 -0.449221
40  1.719415 -0.000097 -0.000037  0.031466 0.001819 -1.126076
41  1.099672 0.000023 0.000007  -0.005117 -0.008160 -0.712530
42  0.230504 -0.805067 -1.086893  1.111612 0.594062 -0.578210
43  1.789780 -0.000007 -0.000042  -0.089312 -0.070323 0.368341
44  1.206995 -0.000007 0.000005  0.000678 -0.214508 0.376132
45  5.740573 0.000080 0.000721  0.084690 -0.000014 0.000028
46  11.481051 0.000078 0.000911  0.028376 0.097853 0.073928
47  6.027515 -0.000273 -0.000229  -1.313297 -0.212667 -1.578777
48  -0.000000 11.691974 -0.000008  -0.719351 0.227889 0.590805
49  0.000003 -0.000000 0.000000  2.412441 -0.000036 1.570860
50  -0.000007 -0.000014 0.000004  2.272645 -0.000036 1.570861
51  -2.537941 -8.408196 -5.370332  -0.148499 -2.879880 1.246903
52  -0.000000 0.000000 0.000000  0.008153 -0.000259 0.000009
53  0.000001 -0.000000 -0.000001  1.565115 0.043565 -0.106862
54  0.162900 -10.241503 -6.033171  -0.543689 -0.024694 -1.962573
55  -0.000001 -0.000001 0.000000  0.000000 -0.000001 -0.000002
56  0.000029 0.000028 0.000001  -1.571901 -0.044449 -0.106509
57  12.000549 -19.544212 -17.246658  1.570796 -0.000000 0.000000
58  -15.417984 4.000748 -22.641926  1.570796 -0.000000 0.000000
59  1.941978 9.263218 -8.327020  1.570796 -0.000000 0.000000
60  -0.004311 0.001229 -0.000372  0.006898 -0.005534 -0.284229
61  0.826810 11.791080 -4.879054  1.570796 -0.000000 0.000000
62  0.000000 0.000000 0.000000  -0.078727 -3.136056 0.284226
63  0.000000 0.000000 0.000000  1.570796 -0.000000 0.000000
64  -1.915771 -10.889102 -3.861487  1.570802 -0.000038 -0.000002
65  -0.008022 0.449004 2.449478  -0.000000 0.000000 -0.000000
66  -0.008021 1.798499 0.936337  -0.000000 0.000000 -0.000000
67  0.000000 2.151127 1.009987  -0.000000 0.000000 -0.000000
68  -0.008023 1.347420 0.085285  -1.051149 0.001216 0.000412
69  0.230627 1.332312 3.105305  0.175653 0.000000 -0.000000
70  -0.008024 2.211807 7.723072  -0.028798 0.000000 -0.000000
71  -0.008022 1.228065 5.810778  -0.000000 0.000000 -0.000000
72  -0.008023 1.115505 -0.313081  -0.000000 0.000000 -0.000000
73  -0.008023 1.345870 0.084164  1.570796 0.000000 -0.000000
74  -0.008023 0.197514 1.902819  -0.000000 0.000000 -0.000000
75  -1.923878 -12.799394 -1.699551  1.570802 -0.000038 -0.000002
76  -1.915846 -11.617907 -1.911013  1.570802 -0.000038 -0.000002
77  -0.008021 -0.653744 0.060182  -0.000000 0.000000 -0.000000
78  -0.008021 -1.155510 -0.087180  -0.000000 0.000000 -0.000000
79  -0.000000 -0.501765 -0.147366  -0.000000 0.000000 -0.000000
80  0.000000 -1.003531 -0.294728  -0.000000 0.000000 -0.000000
81  0.000000 -1.505296 -0.442089  -0.000000 0.000000 -0.000000
82  -0.000000 -2.007061 -0.589453  -0.000000 0.000000 -0.000000
83  0.000000 -2.508827 -0.736814  -0.000000 0.000000 -0.000000
84  0.000000 -2.772560 -0.939010  -0.000000 0.000000 -0.000000
85  0.000000 -3.071457 -1.220324  -0.000000 0.000000 -0.000000
86  -0.283371 -4.518086 -0.534133  0.346743 -0.000000 -0.000000
87  0.000000 0.993480 -0.063564  -0.012322 0.000000 0.000000
88  -1.923878 -12.799394 -1.699551  1.570802 -0.000038 -0.000002
end
