version 1
nodes
0 "ValveBiped.Bip01_Spine4" -1
1 "ValveBiped.Bip01_L_Clavicle" 0
2 "ValveBiped.Bip01_L_UpperArm" 1
3 "ValveBiped.Bip01_L_Forearm" 2
4 "ValveBiped.Bip01_L_Hand" 3
5 "ValveBiped.Bip01_L_Finger4" 4
6 "ValveBiped.Bip01_L_Finger41" 5
7 "ValveBiped.Bip01_L_Finger42" 6
8 "ValveBiped.Bip01_L_Finger3" 4
9 "ValveBiped.Bip01_L_Finger31" 8
10 "ValveBiped.Bip01_L_Finger32" 9
11 "ValveBiped.Bip01_L_Finger2" 4
12 "ValveBiped.Bip01_L_Finger21" 11
13 "ValveBiped.Bip01_L_Finger22" 12
14 "ValveBiped.Bip01_L_Finger1" 4
15 "ValveBiped.Bip01_L_Finger11" 14
16 "ValveBiped.Bip01_L_Finger12" 15
17 "ValveBiped.Bip01_L_Finger0" 4
18 "ValveBiped.Bip01_L_Finger01" 17
19 "ValveBiped.Bip01_L_Finger02" 18
20 "ValveBiped.Bip01_L_Ulna" 3
21 "ValveBiped.Bip01_L_Wrist" 3
22 "rig_l_upperarm" 1
23 "rig_l_forearm" 22
24 "rig_d_l_forearm" 23
25 "rig_d_l_upperarm" 22
26 "ValveBiped.Bip01_R_Clavicle" 0
27 "ValveBiped.Bip01_R_UpperArm" 26
28 "ValveBiped.Bip01_R_Forearm" 27
29 "ValveBiped.Bip01_R_Hand" 28
30 "ValveBiped.Bip01_R_Finger4" 29
31 "ValveBiped.Bip01_R_Finger41" 30
32 "ValveBiped.Bip01_R_Finger42" 31
33 "ValveBiped.Bip01_R_Finger3" 29
34 "ValveBiped.Bip01_R_Finger31" 33
35 "ValveBiped.Bip01_R_Finger32" 34
36 "ValveBiped.Bip01_R_Finger2" 29
37 "ValveBiped.Bip01_R_Finger21" 36
38 "ValveBiped.Bip01_R_Finger22" 37
39 "ValveBiped.Bip01_R_Finger1" 29
40 "ValveBiped.Bip01_R_Finger11" 39
41 "ValveBiped.Bip01_R_Finger12" 40
42 "ValveBiped.Bip01_R_Finger0" 29
43 "ValveBiped.Bip01_R_Finger01" 42
44 "ValveBiped.Bip01_R_Finger02" 43
45 "ValveBiped.Bip01_R_Ulna" 28
46 "ValveBiped.Bip01_R_Wrist" 28
47 "rig_r_upperarm" 26
48 "rig_r_forearm" 47
49 "rig_d_r_forearm" 48
50 "rig_d_r_upperarm" 47
51 "rig_r_hand" -1
52 "rig_d_r_hand" 51
53 "rig_d_r_wrist" 52
54 "rig_l_hand" -1
55 "rig_d_l_hand" 54
56 "rig_d_l_wrist" 54
57 "rig_l_pole" -1
58 "rig_r_pole" -1
59 "rig_l_clavicle" -1
60 "rig_d_l_clavicle" 59
61 "rig_r_clavicle" -1
62 "rig_d_r_clavicle" 61
63 "Camera" -1
64 "body" -1
65 "hammer" 64
66 "barrel" 64
67 "cylinderlock" 64
68 "cylinder" 67
69 "cylinderpush" 68
70 "trigger" 64
71 "cylrel" 64
72 "bullet1" -1
73 "bullet2" -1
74 "bullet3" -1
75 "bullet4" -1
76 "bullet5" -1
77 "bullet6" -1
78 "speedloader" -1
end
skeleton
time 0
0  0.000006 0.000000 0.000000  -1.570800 -1.391899 -1.570792
1  -9.841317 -7.634221 1.937669  -1.544956 -1.855077 -0.198630
2  6.027525 -0.000329 0.000190  -0.493330 -1.472166 -1.502442
3  11.692113 0.000645 -0.000737  -0.990399 0.000003 -0.893085
4  11.480640 0.000587 -0.000442  0.976830 -0.281275 0.547038
5  3.666627 -0.163904 -1.204802  -0.519250 0.086737 -1.532179
6  1.312590 0.000011 0.000008  -0.003664 0.023356 -0.272237
7  0.729355 0.000054 0.000049  -0.003677 0.000626 -0.150723
8  3.942140 0.046330 -0.431542  -0.205965 0.132197 -1.449654
9  1.539111 0.000084 0.000003  -0.000570 0.007396 -0.283198
10  1.196333 0.000146 0.000028  -0.000713 0.000161 -0.519018
11  3.883510 -0.047213 0.431351  -0.042690 0.198097 -1.260493
12  1.719573 -0.000029 0.000018  -0.000644 0.003280 -0.404344
13  1.209178 0.000089 0.000012  -0.000905 0.002861 -0.623853
14  3.859677 -0.138419 1.332380  -0.235831 0.317274 -1.342437
15  1.719448 -0.000017 0.000028  0.001902 0.001157 -0.067177
16  1.099675 0.000049 0.000005  -0.000943 0.002399 -0.620101
17  -0.069586 -0.772107 1.212160  -1.381939 -0.616396 -0.266606
18  1.789820 -0.000004 -0.000016  -0.005189 0.000915 0.077370
19  1.207017 -0.000012 -0.000044  -0.005545 0.001895 1.292802
20  5.740636 0.000389 -0.000700  -0.126559 0.000003 0.000063
21  11.481135 0.000298 -0.000742  -0.101047 -0.062957 0.076533
22  6.027524 -0.000329 0.000201  1.550319 -0.096571 1.848648
23  0.000001 11.692098 -0.000008  -0.650095 -0.184998 -0.537099
24  0.000004 0.000009 0.000001  -0.121332 -0.000030 1.570739
25  -0.000000 -0.000012 0.000000  0.868960 0.000002 1.570712
26  -6.899342 -10.734701 0.826813  1.473120 1.855075 -0.198639
27  6.027517 -0.000263 -0.000216  1.606192 1.274746 -0.653324
28  11.691992 0.000162 0.000858  0.139886 0.000014 -0.947826
29  11.480814 0.000135 0.000810  -1.318046 0.533264 0.501308
30  3.710775 -0.434234 1.096848  0.685744 0.135637 -2.140381
31  1.312560 0.000031 -0.000000  0.004429 0.012974 -0.198564
32  0.729348 0.000065 -0.000028  -0.001423 -0.000196 -1.172210
33  3.820806 -0.154609 0.327899  0.660980 -0.074301 -1.836563
34  1.539095 0.000004 -0.000002  0.045826 -0.038323 -0.676515
35  1.196302 0.000080 -0.000003  -0.018240 -0.014446 -1.506251
36  3.882446 -0.171892 -0.416804  0.549170 -0.212325 -1.595491
37  1.719565 -0.000084 -0.000005  0.007638 -0.016351 -1.238155
38  1.209193 0.000034 0.000011  -0.003491 -0.003814 -0.939900
39  3.859585 -0.149082 -1.331322  0.013633 -0.416251 -0.620033
40  1.719412 -0.000097 -0.000038  -0.002155 -0.063419 -0.757383
41  1.099672 0.000022 0.000006  0.001031 -0.008101 -0.732269
42  0.355687 -0.678091 -1.118077  1.287950 0.489856 -0.632615
43  1.789779 -0.000008 -0.000042  -0.082492 -0.048913 0.149619
44  1.206997 -0.000007 0.000005  -0.145995 -0.165999 0.979342
45  5.740572 0.000079 0.000720  0.080322 -0.000014 0.000028
46  11.481108 0.000101 0.000906  0.026257 0.094029 0.073847
47  6.027515 -0.000273 -0.000229  -1.335524 -0.181412 -1.579173
48  -0.000001 11.691975 -0.000007  -0.686350 0.206863 0.565388
49  0.000003 -0.000001 -0.000001  2.412441 -0.000036 1.570860
50  -0.000007 -0.000013 0.000005  2.272645 -0.000036 1.570861
51  -2.565621 -8.663832 -5.024105  -0.164778 -2.885868 1.247034
52  0.000000 -0.000000 0.000000  0.008153 -0.000259 0.000009
53  0.000000 0.000000 -0.000000  1.565115 0.043565 -0.106862
54  0.393532 -9.952975 -6.128118  -0.561888 0.083703 -2.031253
55  -0.000000 0.000000 0.000000  0.000000 -0.000001 -0.000002
56  0.000029 0.000029 0.000001  -1.571901 -0.044449 -0.106509
57  12.000549 -19.544212 -17.246658  1.570796 -0.000000 0.000000
58  -15.417984 4.000748 -22.641926  1.570796 -0.000000 0.000000
59  1.941978 9.263218 -8.327020  1.570796 -0.000000 0.000000
60  -0.004311 0.001229 -0.000372  0.006898 -0.005534 -0.284229
61  0.826810 11.791080 -4.879054  1.570796 -0.000000 0.000000
62  0.000000 0.000000 0.000000  -0.078727 -3.136056 0.284226
63  0.000000 0.000000 0.000000  1.570796 -0.000000 0.000000
64  -1.915771 -10.862936 -3.835588  1.581460 0.012996 -0.003966
65  -0.143794 1.243191 1.790707  -0.000000 -0.000000 -0.000000
66  0.000001 2.431489 11.900955  -0.000000 -0.000000 -0.000000
67  0.151288 0.906791 4.692153  -0.000000 -0.000000 -0.000000
68  -0.151288 1.013638 -0.467878  -0.000000 -0.000000 -0.000000
69  0.000000 -0.000000 2.081793  -0.000000 -0.000000 -0.000000
70  0.000000 0.884825 2.687937  -0.000000 -0.000000 -0.000000
71  0.299800 1.920429 2.128872  -0.000000 -0.000000 -0.000000
72  -1.897698 -13.895866 -1.437676  1.581460 0.012996 -0.003966
73  -1.465257 -13.894833 -1.701289  1.581460 0.012996 -0.003966
74  -1.474843 -13.889479 -2.199748  1.581460 0.012996 -0.003966
75  -1.910205 -13.885037 -2.448451  1.581460 0.012996 -0.003966
76  -2.340464 -13.886043 -2.188582  1.581460 0.012996 -0.003966
77  -2.336389 -13.891371 -1.690466  1.581460 0.012996 -0.003966
78  0.000001 -0.821651 -20.129416  1.570796 -0.000000 0.000000
end
