version 1
nodes
0 "ValveBiped.Bip01_Spine4" -1
1 "ValveBiped.Bip01_L_Clavicle" 0
2 "ValveBiped.Bip01_L_UpperArm" 1
3 "ValveBiped.Bip01_L_Forearm" 2
4 "ValveBiped.Bip01_L_Hand" 3
5 "ValveBiped.Bip01_L_Finger4" 4
6 "ValveBiped.Bip01_L_Finger41" 5
7 "ValveBiped.Bip01_L_Finger42" 6
8 "ValveBiped.Bip01_L_Finger3" 4
9 "ValveBiped.Bip01_L_Finger31" 8
10 "ValveBiped.Bip01_L_Finger32" 9
11 "ValveBiped.Bip01_L_Finger2" 4
12 "ValveBiped.Bip01_L_Finger21" 11
13 "ValveBiped.Bip01_L_Finger22" 12
14 "ValveBiped.Bip01_L_Finger1" 4
15 "ValveBiped.Bip01_L_Finger11" 14
16 "ValveBiped.Bip01_L_Finger12" 15
17 "ValveBiped.Bip01_L_Finger0" 4
18 "ValveBiped.Bip01_L_Finger01" 17
19 "ValveBiped.Bip01_L_Finger02" 18
20 "ValveBiped.Bip01_L_Ulna" 3
21 "ValveBiped.Bip01_L_Wrist" 3
22 "rig_l_upperarm" 1
23 "rig_l_forearm" 22
24 "rig_d_l_forearm" 23
25 "rig_d_l_upperarm" 22
26 "ValveBiped.Bip01_R_Clavicle" 0
27 "ValveBiped.Bip01_R_UpperArm" 26
28 "ValveBiped.Bip01_R_Forearm" 27
29 "ValveBiped.Bip01_R_Hand" 28
30 "ValveBiped.Bip01_R_Finger4" 29
31 "ValveBiped.Bip01_R_Finger41" 30
32 "ValveBiped.Bip01_R_Finger42" 31
33 "ValveBiped.Bip01_R_Finger3" 29
34 "ValveBiped.Bip01_R_Finger31" 33
35 "ValveBiped.Bip01_R_Finger32" 34
36 "ValveBiped.Bip01_R_Finger2" 29
37 "ValveBiped.Bip01_R_Finger21" 36
38 "ValveBiped.Bip01_R_Finger22" 37
39 "ValveBiped.Bip01_R_Finger1" 29
40 "ValveBiped.Bip01_R_Finger11" 39
41 "ValveBiped.Bip01_R_Finger12" 40
42 "ValveBiped.Bip01_R_Finger0" 29
43 "ValveBiped.Bip01_R_Finger01" 42
44 "ValveBiped.Bip01_R_Finger02" 43
45 "ValveBiped.Bip01_R_Ulna" 28
46 "ValveBiped.Bip01_R_Wrist" 28
47 "rig_r_upperarm" 26
48 "rig_r_forearm" 47
49 "rig_d_r_forearm" 48
50 "rig_d_r_upperarm" 47
51 "rig_r_hand" -1
52 "rig_d_r_hand" 51
53 "rig_d_r_wrist" 52
54 "rig_l_hand" -1
55 "rig_d_l_hand" 54
56 "rig_d_l_wrist" 54
57 "rig_l_pole" -1
58 "rig_r_pole" -1
59 "rig_l_clavicle" -1
60 "rig_d_l_clavicle" 59
61 "rig_r_clavicle" -1
62 "rig_d_r_clavicle" 61
63 "Camera" -1
64 "body" -1
65 "hammer" 64
66 "barrel" 64
67 "cylinderlock" 64
68 "cylinder" 67
69 "cylinderpush" 68
70 "trigger" 64
71 "cylrel" 64
72 "bullet1" -1
73 "bullet2" -1
74 "bullet3" -1
75 "bullet4" -1
76 "bullet5" -1
77 "bullet6" -1
78 "speedloader" -1
end
skeleton
time 0
0  0.000006 0.000000 0.000000  -1.570800 -1.391899 -1.570792
1  -9.841317 -7.634221 1.937669  -1.544956 -1.855077 -0.198630
2  6.027525 -0.000329 0.000190  -0.487143 -1.472888 -1.509921
3  11.692113 0.000644 -0.000739  -0.990399 0.000003 -0.887531
4  11.480664 0.000591 -0.000434  0.996780 -0.283228 0.540853
5  3.666628 -0.163904 -1.204801  -0.519250 0.086737 -1.532179
6  1.312590 0.000010 0.000008  -0.003664 0.023356 -0.272237
7  0.729354 0.000054 0.000050  -0.003677 0.000626 -0.150723
8  3.942142 0.046331 -0.431542  -0.205965 0.132197 -1.449654
9  1.539110 0.000084 0.000004  -0.000570 0.007396 -0.283198
10  1.196333 0.000146 0.000028  -0.000713 0.000161 -0.519018
11  3.883512 -0.047212 0.431351  -0.042690 0.198097 -1.260493
12  1.719572 -0.000027 0.000017  -0.000644 0.003280 -0.404344
13  1.209179 0.000090 0.000012  -0.000905 0.002861 -0.623854
14  3.859679 -0.138417 1.332380  -0.235831 0.317274 -1.342437
15  1.719448 -0.000020 0.000028  0.001902 0.001157 -0.067177
16  1.099675 0.000050 0.000005  -0.000943 0.002399 -0.620101
17  0.484004 -0.516865 1.316627  -1.373029 -0.651615 -0.282352
18  1.789819 -0.000005 -0.000017  -0.005063 0.005449 0.155924
19  1.207017 -0.000013 -0.000044  -0.005720 -0.000512 0.867470
20  5.740635 0.000388 -0.000699  -0.122268 0.000003 0.000064
21  11.481141 0.000297 -0.000741  -0.097274 -0.062091 0.076010
22  6.027524 -0.000329 0.000201  1.549876 -0.095737 1.847370
23  0.000000 11.692099 -0.000008  -0.646386 -0.182834 -0.534192
24  0.000004 0.000008 0.000000  -0.121333 -0.000031 1.570739
25  -0.000000 -0.000012 0.000000  0.868960 0.000002 1.570712
26  -6.899342 -10.734701 0.826813  1.473120 1.855075 -0.198639
27  6.027517 -0.000263 -0.000216  1.600733 1.276092 -0.657785
28  11.691990 0.000160 0.000858  0.139886 0.000014 -0.940400
29  11.479576 -0.000337 0.000876  -1.304985 0.536708 0.488691
30  3.710774 -0.434234 1.096848  0.685744 0.135637 -2.140381
31  1.312561 0.000030 -0.000000  0.004428 0.012974 -0.198564
32  0.729348 0.000065 -0.000028  -0.001423 -0.000196 -1.172210
33  3.820805 -0.154608 0.327899  0.660980 -0.074301 -1.836563
34  1.539095 0.000005 -0.000002  0.045826 -0.038323 -0.676515
35  1.196302 0.000079 -0.000003  -0.018240 -0.014446 -1.506251
36  3.882444 -0.171892 -0.416804  0.549170 -0.212324 -1.595491
37  1.719566 -0.000082 -0.000005  0.007638 -0.016351 -1.238155
38  1.209194 0.000034 0.000012  -0.003491 -0.003814 -0.939900
39  3.859584 -0.149081 -1.331322  0.013633 -0.416251 -0.620033
40  1.719413 -0.000096 -0.000037  -0.002155 -0.063419 -0.757383
41  1.099673 0.000022 0.000006  0.001031 -0.008101 -0.732269
42  0.230504 -0.805067 -1.086893  1.133899 0.523038 -0.582507
43  1.789779 -0.000008 -0.000042  -0.089312 -0.070323 0.368341
44  1.206995 -0.000006 0.000005  0.000678 -0.214508 0.376132
45  5.740573 0.000079 0.000721  0.082161 -0.000014 0.000028
46  11.480860 0.000006 0.000920  0.028957 0.095049 0.070535
47  6.027515 -0.000273 -0.000229  -1.337590 -0.181867 -1.578039
48  -0.000001 11.691975 -0.000008  -0.681453 0.203833 0.561592
49  0.000003 0.000000 0.000001  2.412441 -0.000036 1.570860
50  -0.000008 -0.000013 0.000004  2.272645 -0.000036 1.570861
51  -2.558836 -8.705482 -5.081818  -0.148535 -2.879863 1.246914
52  0.000001 0.000000 -0.000001  0.008153 -0.000259 0.000009
53  -0.000000 0.000000 -0.000000  1.565115 0.043565 -0.106862
54  0.419504 -9.994166 -6.133532  -0.545470 0.079848 -2.025877
55  0.000000 0.000000 -0.000000  0.000000 -0.000001 -0.000002
56  0.000031 0.000029 0.000001  -1.571902 -0.044449 -0.106509
57  12.000549 -19.544212 -17.246658  1.570796 -0.000000 0.000000
58  -15.417984 4.000748 -22.641926  1.570796 -0.000000 0.000000
59  1.941978 9.263218 -8.327020  1.570796 -0.000000 0.000000
60  -0.004311 0.001229 -0.000372  0.006898 -0.005534 -0.284229
61  0.826810 11.791080 -4.879054  1.570796 -0.000000 0.000000
62  0.000000 0.000000 0.000000  -0.078727 -3.136056 0.284226
63  -1.915770 -4.683022 -0.665352  1.570796 -0.000000 0.000000
64  -1.915771 -10.889102 -3.861487  1.570796 -0.000000 0.000000
65  -0.143794 1.243191 1.790707  0.000000 -0.000000 0.000000
66  0.000001 2.431489 11.900956  0.000000 -0.000000 0.000000
67  0.151288 0.906791 4.692154  0.000000 -0.000000 0.000000
68  -0.151288 1.013638 -0.467878  0.000000 -0.000000 0.000000
69  0.000000 -0.000000 2.081794  0.000000 -0.000000 0.000000
70  0.000000 0.884824 2.687938  0.000000 -0.000000 0.000000
71  0.299800 1.920429 2.128872  0.000000 -0.000000 0.000000
72  -1.916836 -13.896193 -1.431183  1.570796 -0.000000 0.000000
73  -1.481012 -13.896194 -1.689167  1.570796 -0.000000 0.000000
74  -1.484141 -13.896194 -2.187738  1.570796 -0.000000 0.000000
75  -1.916248 -13.896193 -2.442092  1.570796 -0.000000 0.000000
76  -2.349841 -13.896193 -2.187823  1.570796 -0.000000 0.000000
77  -2.352218 -13.896193 -1.689667  1.570796 -0.000000 0.000000
78  0.000001 -0.821651 -20.129416  1.570796 -0.000000 0.000000
time 1
0  0.000006 0.000000 0.000000  -1.570800 -1.391899 -1.570792
1  -9.841317 -7.634221 1.937669  -1.544956 -1.855077 -0.198630
2  6.027525 -0.000329 0.000190  -0.465326 -1.474904 -1.534840
3  11.692113 0.000644 -0.000738  -0.990398 0.000003 -0.883124
4  11.480681 0.000596 -0.000426  1.003999 -0.284300 0.541853
5  3.666627 -0.163903 -1.204803  -0.519250 0.086737 -1.532179
6  1.312590 0.000011 0.000009  -0.003664 0.023357 -0.272237
7  0.729355 0.000054 0.000048  -0.003677 0.000626 -0.150723
8  3.942140 0.046332 -0.431543  -0.205965 0.132197 -1.449654
9  1.539111 0.000082 0.000004  -0.000570 0.007396 -0.283198
10  1.196333 0.000145 0.000029  -0.000713 0.000161 -0.519018
11  3.883510 -0.047212 0.431351  -0.042690 0.198097 -1.260493
12  1.719572 -0.000028 0.000017  -0.000644 0.003280 -0.404344
13  1.209179 0.000090 0.000012  -0.000905 0.002861 -0.623853
14  3.859676 -0.138418 1.332380  -0.235831 0.317274 -1.342437
15  1.719448 -0.000019 0.000028  0.001902 0.001157 -0.067177
16  1.099674 0.000049 0.000006  -0.000943 0.002399 -0.620101
17  0.484003 -0.516865 1.316627  -1.373029 -0.651615 -0.282352
18  1.789819 -0.000004 -0.000017  -0.005063 0.005449 0.155924
19  1.207016 -0.000012 -0.000043  -0.005720 -0.000512 0.867470
20  5.740635 0.000390 -0.000700  -0.120758 0.000003 0.000063
21  11.481145 0.000300 -0.000738  -0.095815 -0.061989 0.076436
22  6.027524 -0.000329 0.000201  1.548265 -0.093299 1.844317
23  0.000000 11.692099 -0.000008  -0.643438 -0.181123 -0.531880
24  0.000001 0.000009 -0.000000  -0.121333 -0.000031 1.570739
25  -0.000000 -0.000011 -0.000000  0.868960 0.000002 1.570712
26  -6.899342 -10.734701 0.826813  1.473120 1.855075 -0.198639
27  6.027517 -0.000263 -0.000216  1.604138 1.279237 -0.654905
28  11.691991 0.000161 0.000859  0.139885 0.000013 -0.936029
29  11.479714 -0.000283 0.000869  -1.300657 0.534987 0.486439
30  3.710775 -0.434235 1.096848  0.685744 0.135637 -2.140381
31  1.312561 0.000030 -0.000000  0.004429 0.012974 -0.198564
32  0.729348 0.000065 -0.000028  -0.001423 -0.000196 -1.172211
33  3.820807 -0.154609 0.327899  0.660980 -0.074301 -1.836563
34  1.539095 0.000004 -0.000001  0.045826 -0.038323 -0.676515
35  1.196303 0.000080 -0.000003  -0.018240 -0.014446 -1.506251
36  3.882446 -0.171892 -0.416804  0.549170 -0.212324 -1.595491
37  1.719566 -0.000083 -0.000005  0.007638 -0.016351 -1.238155
38  1.209192 0.000034 0.000011  -0.003491 -0.003814 -0.939900
39  3.859585 -0.149082 -1.331322  0.009426 -0.423747 -0.616902
40  1.719412 -0.000097 -0.000036  0.002411 -0.072132 -0.813013
41  1.099673 0.000023 0.000006  0.002088 -0.008106 -0.729636
42  0.230504 -0.805067 -1.086893  1.133899 0.523038 -0.582507
43  1.789780 -0.000007 -0.000042  -0.089312 -0.070323 0.368341
44  1.206995 -0.000007 0.000005  0.000678 -0.214508 0.376132
45  5.740573 0.000077 0.000721  0.082924 -0.000014 0.000028
46  11.480886 0.000016 0.000919  0.029935 0.094858 0.069901
47  6.027515 -0.000273 -0.000229  -1.339533 -0.179182 -1.578069
48  -0.000002 11.691975 -0.000008  -0.678567 0.202059 0.559352
49  0.000002 0.000000 -0.000000  2.412441 -0.000036 1.570860
50  -0.000008 -0.000014 0.000005  2.272645 -0.000036 1.570861
51  -2.560700 -8.726768 -5.051961  -0.143554 -2.879329 1.247871
52  -0.000001 -0.000000 -0.000000  0.008153 -0.000259 0.000009
53  0.000001 0.000000 -0.000000  1.565115 0.043565 -0.106862
54  0.425116 -10.010876 -6.087959  -0.540614 0.079944 -2.023242
55  -0.000000 -0.000001 -0.000000  0.000000 -0.000001 -0.000002
56  0.000030 0.000028 0.000001  -1.571902 -0.044449 -0.106509
57  12.000549 -19.544212 -17.246658  1.570796 -0.000000 0.000000
58  -15.417984 4.000748 -22.641926  1.570796 -0.000000 0.000000
59  1.941978 9.263218 -8.327020  1.570796 -0.000000 0.000000
60  -0.004311 0.001229 -0.000372  0.006898 -0.005534 -0.284229
61  0.826810 11.791080 -4.879054  1.570796 -0.000000 0.000000
62  0.000000 0.000000 0.000000  -0.078727 -3.136056 0.284226
63  -1.915770 -4.683022 -0.665352  1.570796 -0.000000 0.000000
64  -1.918107 -10.906452 -3.824366  1.568756 -0.004390 0.002252
65  -0.143794 1.243191 1.790707  -0.121470 0.000160 0.000124
66  0.000001 2.431489 11.900955  -0.000000 0.000000 -0.000000
67  0.151288 0.906791 4.692154  -0.000000 0.000000 -0.000000
68  -0.151288 1.013638 -0.467878  -0.000000 0.000000 0.159253
69  0.000000 -0.000001 2.081794  0.000000 -0.000000 -0.000000
70  0.000000 0.884824 2.687938  0.040838 0.000000 -0.000000
71  0.299800 1.920429 2.128871  -0.000000 0.000000 -0.000000
72  -2.003920 -13.908792 -1.394935  1.568728 -0.163643 0.002580
73  -1.531889 -13.908110 -1.578471  1.568728 -0.163643 0.002580
74  -1.453750 -13.908940 -2.070890  1.568728 -0.163643 0.002580
75  -1.838644 -13.910457 -2.392241  1.568728 -0.163643 0.002580
76  -2.307868 -13.911141 -2.212008  1.568728 -0.163643 0.002580
77  -2.391373 -13.910327 -1.720895  1.568728 -0.163643 0.002580
78  0.000001 -0.821651 -20.129416  1.570796 -0.000000 0.000000
time 2
0  0.000006 0.000000 0.000000  -1.570800 -1.391899 -1.570792
1  -9.841317 -7.634221 1.937669  -1.544956 -1.855077 -0.198630
2  6.027525 -0.000329 0.000190  -0.449599 -1.476655 -1.553963
3  11.692113 0.000645 -0.000739  -0.990398 0.000004 -0.880178
4  11.480694 0.000599 -0.000424  1.008997 -0.285726 0.546359
5  3.666629 -0.163903 -1.204803  -0.519250 0.086737 -1.532179
6  1.312589 0.000011 0.000008  -0.003664 0.023357 -0.272237
7  0.729354 0.000055 0.000049  -0.003677 0.000626 -0.150723
8  3.942142 0.046332 -0.431543  -0.205965 0.132196 -1.449654
9  1.539110 0.000083 0.000005  -0.000570 0.007396 -0.283198
10  1.196332 0.000145 0.000028  -0.000713 0.000161 -0.519018
11  3.883512 -0.047212 0.431350  -0.042690 0.198097 -1.260493
12  1.719573 -0.000028 0.000017  -0.000644 0.003280 -0.404344
13  1.209179 0.000091 0.000012  -0.000905 0.002861 -0.623854
14  3.859679 -0.138417 1.332379  -0.235831 0.317274 -1.342437
15  1.719448 -0.000019 0.000027  0.001902 0.001157 -0.067177
16  1.099675 0.000049 0.000006  -0.000943 0.002399 -0.620101
17  0.484004 -0.516865 1.316626  -1.373029 -0.651615 -0.282352
18  1.789819 -0.000004 -0.000017  -0.005063 0.005449 0.155924
19  1.207016 -0.000013 -0.000044  -0.005720 -0.000512 0.867470
20  5.740636 0.000389 -0.000699  -0.119708 0.000003 0.000063
21  11.481148 0.000300 -0.000737  -0.094680 -0.062207 0.077444
22  6.027524 -0.000329 0.000201  1.547238 -0.091237 1.840944
23  -0.000000 11.692099 -0.000008  -0.641466 -0.179984 -0.530332
24  0.000002 0.000008 -0.000000  -0.121332 -0.000031 1.570739
25  -0.000001 -0.000012 -0.000001  0.868960 0.000002 1.570712
26  -6.899342 -10.734701 0.826813  1.473120 1.855075 -0.198639
27  6.027517 -0.000263 -0.000216  1.607546 1.282559 -0.652002
28  11.691992 0.000162 0.000859  0.139885 0.000013 -0.932125
29  11.479837 -0.000232 0.000862  -1.295710 0.532018 0.487759
30  3.710774 -0.434235 1.096848  0.685744 0.135637 -2.140381
31  1.312560 0.000031 -0.000000  0.004429 0.012974 -0.198564
32  0.729347 0.000064 -0.000027  -0.001423 -0.000196 -1.172210
33  3.820805 -0.154609 0.327899  0.660980 -0.074301 -1.836563
34  1.539095 0.000005 -0.000001  0.045826 -0.038323 -0.676515
35  1.196303 0.000081 -0.000003  -0.018240 -0.014446 -1.506251
36  3.882444 -0.171892 -0.416805  0.549170 -0.212324 -1.595491
37  1.719565 -0.000084 -0.000005  0.007638 -0.016351 -1.238155
38  1.209193 0.000035 0.000011  -0.003491 -0.003814 -0.939900
39  3.859585 -0.149082 -1.331322  -0.001772 -0.443299 -0.608496
40  1.719413 -0.000097 -0.000037  0.016693 -0.093712 -0.959779
41  1.099672 0.000023 0.000006  0.004853 -0.008134 -0.722749
42  0.230504 -0.805067 -1.086893  1.133899 0.523038 -0.582507
43  1.789779 -0.000008 -0.000042  -0.089312 -0.070323 0.368341
44  1.206994 -0.000007 0.000005  0.000678 -0.214508 0.376132
45  5.740574 0.000079 0.000720  0.083826 -0.000014 0.000028
46  11.480912 0.000028 0.000917  0.030960 0.094503 0.069968
47  6.027515 -0.000273 -0.000229  -1.341631 -0.176404 -1.578061
48  -0.000001 11.691975 -0.000007  -0.675986 0.200480 0.557348
49  0.000003 -0.000000 0.000001  2.412441 -0.000036 1.570860
50  -0.000008 -0.000013 0.000005  2.272645 -0.000036 1.570861
51  -2.557724 -8.744389 -5.015570  -0.139559 -2.881628 1.249094
52  -0.000000 0.000000 -0.000000  0.008153 -0.000259 0.000009
53  -0.000000 -0.000000 -0.000000  1.565115 0.043565 -0.106862
54  0.435499 -10.020769 -6.039675  -0.537071 0.082720 -2.020700
55  -0.000001 0.000000 -0.000000  0.000000 -0.000001 -0.000002
56  0.000029 0.000029 0.000001  -1.571901 -0.044449 -0.106509
57  12.000549 -19.544212 -17.246658  1.570796 -0.000000 0.000000
58  -15.417984 4.000748 -22.641926  1.570796 -0.000000 0.000000
59  1.941978 9.263218 -8.327020  1.570796 -0.000000 0.000000
60  -0.004311 0.001229 -0.000372  0.006898 -0.005534 -0.284229
61  0.826810 11.791080 -4.879054  1.570796 -0.000000 0.000000
62  0.000000 0.000000 0.000000  -0.078727 -3.136056 0.284226
63  -1.915770 -4.683022 -0.665352  1.570796 -0.000000 0.000000
64  -1.915607 -10.923801 -3.787246  1.569700 -0.008782 0.004500
65  -0.143794 1.243191 1.790709  -0.394675 0.000567 0.000328
66  0.000001 2.431489 11.900959  -0.000000 0.000000 0.000000
67  0.151288 0.906791 4.692156  -0.000000 0.000000 0.000000
68  -0.151288 1.013637 -0.467878  0.000000 0.000000 0.523599
69  0.000000 -0.000000 2.081793  0.000000 -0.000000 -0.000000
70  0.000001 0.884824 2.687940  0.130900 0.000000 0.000000
71  0.299800 1.920429 2.128874  -0.000000 0.000000 0.000000
72  -2.178701 -13.929515 -1.424826  1.569524 -0.532380 0.005136
73  -1.672251 -13.927243 -1.425888  1.569524 -0.532380 0.005136
74  -1.421879 -13.926592 -1.857046  1.569524 -0.532380 0.005136
75  -1.665072 -13.928163 -2.295528  1.569524 -0.532380 0.005136
76  -2.167715 -13.930421 -2.296535  1.569524 -0.532380 0.005136
77  -2.422620 -13.931096 -1.868531  1.569524 -0.532380 0.005136
78  0.000001 -0.821651 -20.129416  1.570796 -0.000000 0.000000
time 3
0  0.000006 0.000000 0.000000  -1.570800 -1.391899 -1.570792
1  -9.841317 -7.634221 1.937669  -1.544956 -1.855077 -0.198630
2  6.027525 -0.000329 0.000190  -0.472051 -1.474365 -1.527408
3  11.692112 0.000643 -0.000738  -0.990399 0.000003 -0.886443
4  11.480668 0.000594 -0.000433  0.995450 -0.286837 0.542731
5  3.666627 -0.163903 -1.204802  -0.519250 0.086737 -1.532179
6  1.312590 0.000010 0.000009  -0.003664 0.023356 -0.272237
7  0.729355 0.000054 0.000049  -0.003677 0.000626 -0.150723
8  3.942140 0.046331 -0.431542  -0.205965 0.132197 -1.449654
9  1.539110 0.000084 0.000004  -0.000570 0.007396 -0.283198
10  1.196333 0.000146 0.000030  -0.000713 0.000161 -0.519018
11  3.883510 -0.047212 0.431351  -0.042690 0.198097 -1.260493
12  1.719573 -0.000029 0.000017  -0.000644 0.003280 -0.404344
13  1.209179 0.000090 0.000012  -0.000905 0.002861 -0.623854
14  3.859676 -0.138418 1.332380  -0.235831 0.317274 -1.342437
15  1.719448 -0.000018 0.000029  0.001902 0.001157 -0.067177
16  1.099675 0.000048 0.000005  -0.000943 0.002399 -0.620101
17  0.484003 -0.516865 1.316628  -1.373029 -0.651615 -0.282353
18  1.789819 -0.000004 -0.000017  -0.005063 0.005449 0.155924
19  1.207016 -0.000013 -0.000045  -0.005720 -0.000511 0.867470
20  5.740635 0.000389 -0.000700  -0.122711 0.000003 0.000063
21  11.481142 0.000299 -0.000740  -0.097264 -0.062916 0.076137
22  6.027524 -0.000329 0.000201  1.548770 -0.093972 1.845007
23  0.000000 11.692099 -0.000008  -0.645658 -0.182411 -0.533622
24  0.000004 0.000009 -0.000000  -0.121332 -0.000031 1.570739
25  -0.000001 -0.000011 -0.000000  0.868960 0.000002 1.570712
26  -6.899342 -10.734701 0.826813  1.473120 1.855075 -0.198639
27  6.027517 -0.000263 -0.000216  1.606728 1.278729 -0.652779
28  11.691991 0.000161 0.000858  0.139885 0.000014 -0.938767
29  11.479625 -0.000316 0.000874  -1.307616 0.531509 0.487945
30  3.710774 -0.434235 1.096848  0.685745 0.135637 -2.140381
31  1.312561 0.000032 -0.000000  0.004429 0.012974 -0.198564
32  0.729347 0.000065 -0.000027  -0.001423 -0.000196 -1.172210
33  3.820806 -0.154610 0.327899  0.660980 -0.074301 -1.836563
34  1.539095 0.000005 -0.000002  0.045826 -0.038323 -0.676515
35  1.196302 0.000079 -0.000003  -0.018240 -0.014446 -1.506251
36  3.882446 -0.171893 -0.416805  0.549170 -0.212324 -1.595491
37  1.719566 -0.000084 -0.000004  0.007638 -0.016351 -1.238155
38  1.209195 0.000034 0.000011  -0.003491 -0.003814 -0.939900
39  3.859585 -0.149082 -1.331323  -0.013261 -0.462763 -0.599765
40  1.719413 -0.000096 -0.000037  0.034026 -0.112975 -1.107151
41  1.099673 0.000023 0.000006  0.007618 -0.008182 -0.715861
42  0.230502 -0.805067 -1.086894  1.133899 0.523038 -0.582507
43  1.789779 -0.000008 -0.000042  -0.089312 -0.070323 0.368341
44  1.206995 -0.000006 0.000006  0.000678 -0.214508 0.376132
45  5.740573 0.000078 0.000721  0.081810 -0.000014 0.000028
46  11.480868 0.000010 0.000920  0.028777 0.093930 0.070702
47  6.027515 -0.000273 -0.000229  -1.338664 -0.178893 -1.578578
48  -0.000002 11.691974 -0.000008  -0.680376 0.203170 0.560756
49  0.000004 -0.000000 -0.000000  2.412441 -0.000036 1.570860
50  -0.000007 -0.000013 0.000005  2.272645 -0.000036 1.570861
51  -2.566274 -8.711132 -5.028852  -0.150823 -2.879868 1.250963
52  -0.000000 0.000000 -0.000001  0.008153 -0.000259 0.000009
53  -0.000000 -0.000000 -0.000000  1.565115 0.043565 -0.106862
54  0.414292 -9.988772 -6.087713  -0.547669 0.079563 -2.022594
55  0.000001 0.000000 0.000001  0.000000 -0.000001 -0.000002
56  0.000031 0.000030 0.000002  -1.571901 -0.044449 -0.106509
57  12.000549 -19.544212 -17.246658  1.570796 -0.000000 0.000000
58  -15.417984 4.000748 -22.641926  1.570796 -0.000000 0.000000
59  1.941978 9.263218 -8.327020  1.570796 -0.000000 0.000000
60  -0.004311 0.001229 -0.000372  0.006898 -0.005534 -0.284229
61  0.826810 11.791080 -4.879054  1.570796 -0.000000 0.000000
62  0.000000 0.000000 0.000000  -0.078727 -3.136056 0.284226
63  -1.915770 -4.683022 -0.665352  1.570796 -0.000000 0.000000
64  -1.913107 -10.893369 -3.811417  1.571504 0.002094 0.003458
65  -0.143794 1.243191 1.790707  -0.667880 0.001013 0.000414
66  0.000001 2.431489 11.900959  0.000000 -0.000000 -0.000000
67  0.151288 0.906791 4.692154  0.000000 -0.000000 -0.000000
68  -0.151288 1.013638 -0.467878  -0.000000 -0.000000 0.887944
69  0.000000 -0.000000 2.081793  -0.000000 -0.000000 -0.000000
70  0.000001 0.884825 2.687938  0.220961 -0.000000 -0.000000
71  0.299800 1.920429 2.128872  0.000000 -0.000000 -0.000000
72  -2.294231 -13.903380 -1.571381  1.571915 -0.885850 0.002591
73  -1.818721 -13.901862 -1.397066  1.571915 -0.885850 0.002591
74  -1.434584 -13.900309 -1.714900  1.571915 -0.885850 0.002591
75  -1.510964 -13.900221 -2.210459  1.571915 -0.885850 0.002591
76  -1.982186 -13.901726 -2.385397  1.571915 -0.885850 0.002591
77  -2.369485 -13.903286 -2.072090  1.571915 -0.885850 0.002591
78  0.000001 -0.821651 -20.129416  1.570796 -0.000000 0.000000
time 4
0  0.000006 0.000000 0.000000  -1.570800 -1.391899 -1.570792
1  -9.841317 -7.634221 1.937669  -1.544956 -1.855077 -0.198630
2  6.027525 -0.000329 0.000190  -0.490103 -1.472157 -1.505102
3  11.692112 0.000644 -0.000739  -0.990399 0.000003 -0.892132
4  11.480646 0.000586 -0.000438  0.982507 -0.287929 0.538044
5  3.666629 -0.163903 -1.204802  -0.519250 0.086737 -1.532179
6  1.312589 0.000010 0.000008  -0.003664 0.023357 -0.272237
7  0.729357 0.000054 0.000049  -0.003677 0.000626 -0.150723
8  3.942142 0.046331 -0.431543  -0.205965 0.132196 -1.449654
9  1.539111 0.000082 0.000004  -0.000570 0.007396 -0.283198
10  1.196332 0.000147 0.000028  -0.000713 0.000161 -0.519018
11  3.883512 -0.047212 0.431350  -0.042690 0.198097 -1.260493
12  1.719573 -0.000028 0.000017  -0.000644 0.003280 -0.404344
13  1.209179 0.000090 0.000012  -0.000905 0.002861 -0.623853
14  3.859679 -0.138418 1.332379  -0.235831 0.317274 -1.342437
15  1.719448 -0.000018 0.000028  0.001902 0.001157 -0.067177
16  1.099674 0.000047 0.000006  -0.000943 0.002399 -0.620101
17  0.484004 -0.516865 1.316627  -1.373029 -0.651615 -0.282352
18  1.789819 -0.000003 -0.000017  -0.005063 0.005449 0.155924
19  1.207016 -0.000013 -0.000044  -0.005720 -0.000512 0.867470
20  5.740637 0.000388 -0.000698  -0.125579 0.000003 0.000063
21  11.481137 0.000297 -0.000741  -0.099759 -0.063538 0.074645
22  6.027524 -0.000329 0.000201  1.550005 -0.096513 1.849230
23  0.000001 11.692100 -0.000008  -0.649460 -0.184626 -0.536601
24  0.000003 0.000008 0.000000  -0.121332 -0.000030 1.570738
25  0.000001 -0.000011 -0.000000  0.868960 0.000002 1.570712
26  -6.899342 -10.734701 0.826813  1.473120 1.855075 -0.198639
27  6.027517 -0.000263 -0.000216  1.606074 1.274688 -0.653423
28  11.691990 0.000162 0.000859  0.139886 0.000014 -0.945539
29  11.480827 0.000141 0.000811  -1.319694 0.531275 0.487257
30  3.710775 -0.434235 1.096849  0.685744 0.135637 -2.140381
31  1.312561 0.000031 -0.000000  0.004429 0.012974 -0.198564
32  0.729347 0.000066 -0.000028  -0.001423 -0.000196 -1.172210
33  3.820805 -0.154608 0.327899  0.660980 -0.074301 -1.836563
34  1.539095 0.000004 -0.000002  0.045826 -0.038323 -0.676515
35  1.196302 0.000081 -0.000003  -0.018240 -0.014446 -1.506251
36  3.882445 -0.171892 -0.416804  0.549170 -0.212324 -1.595491
37  1.719566 -0.000084 -0.000005  0.007638 -0.016351 -1.238155
38  1.209193 0.000035 0.000011  -0.003491 -0.003814 -0.939900
39  3.859584 -0.149082 -1.331322  -0.017732 -0.470179 -0.596339
40  1.719414 -0.000097 -0.000037  0.041342 -0.119596 -1.163321
41  1.099672 0.000023 0.000006  0.008675 -0.008205 -0.713229
42  0.230503 -0.805067 -1.086893  1.133899 0.523038 -0.582507
43  1.789779 -0.000008 -0.000042  -0.089312 -0.070323 0.368341
44  1.206996 -0.000006 0.000005  0.000678 -0.214508 0.376132
45  5.740573 0.000079 0.000721  0.079769 -0.000014 0.000028
46  11.481110 0.000102 0.000907  0.026578 0.093390 0.071267
47  6.027515 -0.000273 -0.000229  -1.335498 -0.181474 -1.579164
48  -0.000001 11.691975 -0.000008  -0.684843 0.205928 0.564220
49  0.000003 -0.000001 -0.000000  2.412441 -0.000036 1.570860
50  -0.000007 -0.000012 0.000004  2.272645 -0.000036 1.570861
51  -2.577213 -8.678879 -5.043807  -0.161829 -2.877347 1.252789
52  -0.000000 0.000000 -0.000001  0.008153 -0.000259 0.000009
53  -0.000001 0.000000 -0.000000  1.565115 0.043565 -0.106862
54  0.390325 -9.958587 -6.136231  -0.557896 0.075647 -2.024422
55  -0.000000 0.000000 0.000000  0.000000 -0.000001 -0.000002
56  0.000030 0.000029 0.000001  -1.571902 -0.044449 -0.106509
57  12.000549 -19.544212 -17.246658  1.570796 -0.000000 0.000000
58  -15.417984 4.000748 -22.641926  1.570796 -0.000000 0.000000
59  1.941978 9.263218 -8.327020  1.570796 -0.000000 0.000000
60  -0.004311 0.001229 -0.000372  0.006898 -0.005534 -0.284229
61  0.826810 11.791080 -4.879054  1.570796 -0.000000 0.000000
62  0.000000 0.000000 0.000000  -0.078727 -3.136056 0.284226
63  -1.915770 -4.683022 -0.665352  1.570796 -0.000000 0.000000
64  -1.913107 -10.862936 -3.835588  1.572475 0.012973 0.002430
65  -0.143794 1.243191 1.790707  -0.789349 0.001216 0.000412
66  0.000001 2.431489 11.900957  -0.000000 -0.000000 -0.000000
67  0.151288 0.906791 4.692154  -0.000000 -0.000000 -0.000000
68  -0.151288 1.013638 -0.467879  -0.000000 -0.000000 1.047197
69  -0.000000 -0.000000 2.081794  -0.000000 -0.000000 -0.000000
70  0.000001 0.884825 2.687938  0.261799 -0.000000 -0.000000
71  0.299800 1.920429 2.128872  -0.000000 -0.000000 -0.000000
72  -2.319706 -13.874669 -1.660640  1.574079 -1.034222 -0.000413
73  -1.875187 -13.874008 -1.417945  1.574079 -1.034222 -0.000413
74  -1.448284 -13.872547 -1.675500  1.574079 -1.034222 -0.000413
75  -1.450568 -13.871710 -2.176904  1.574079 -1.034222 -0.000413
76  -1.890753 -13.872363 -2.419581  1.574079 -1.034222 -0.000413
77  -2.320114 -13.873820 -2.166972  1.574079 -1.034222 -0.000413
78  0.000001 -0.821651 -20.129416  1.570796 -0.000000 0.000000
end
