version 1
nodes
0 "ValveBiped.Bip01_Spine4" -1
1 "ValveBiped.Bip01_L_Clavicle" 0
2 "ValveBiped.Bip01_L_UpperArm" 1
3 "ValveBiped.Bip01_L_Forearm" 2
4 "ValveBiped.Bip01_L_Hand" 3
5 "ValveBiped.Bip01_L_Finger4" 4
6 "ValveBiped.Bip01_L_Finger41" 5
7 "ValveBiped.Bip01_L_Finger42" 6
8 "ValveBiped.Bip01_L_Finger3" 4
9 "ValveBiped.Bip01_L_Finger31" 8
10 "ValveBiped.Bip01_L_Finger32" 9
11 "ValveBiped.Bip01_L_Finger2" 4
12 "ValveBiped.Bip01_L_Finger21" 11
13 "ValveBiped.Bip01_L_Finger22" 12
14 "ValveBiped.Bip01_L_Finger1" 4
15 "ValveBiped.Bip01_L_Finger11" 14
16 "ValveBiped.Bip01_L_Finger12" 15
17 "ValveBiped.Bip01_L_Finger0" 4
18 "ValveBiped.Bip01_L_Finger01" 17
19 "ValveBiped.Bip01_L_Finger02" 18
20 "ValveBiped.Bip01_L_Ulna" 3
21 "ValveBiped.Bip01_L_Wrist" 3
22 "rig_l_upperarm" 1
23 "rig_l_forearm" 22
24 "rig_d_l_forearm" 23
25 "rig_d_l_upperarm" 22
26 "ValveBiped.Bip01_R_Clavicle" 0
27 "ValveBiped.Bip01_R_UpperArm" 26
28 "ValveBiped.Bip01_R_Forearm" 27
29 "ValveBiped.Bip01_R_Hand" 28
30 "ValveBiped.Bip01_R_Finger4" 29
31 "ValveBiped.Bip01_R_Finger41" 30
32 "ValveBiped.Bip01_R_Finger42" 31
33 "ValveBiped.Bip01_R_Finger3" 29
34 "ValveBiped.Bip01_R_Finger31" 33
35 "ValveBiped.Bip01_R_Finger32" 34
36 "ValveBiped.Bip01_R_Finger2" 29
37 "ValveBiped.Bip01_R_Finger21" 36
38 "ValveBiped.Bip01_R_Finger22" 37
39 "ValveBiped.Bip01_R_Finger1" 29
40 "ValveBiped.Bip01_R_Finger11" 39
41 "ValveBiped.Bip01_R_Finger12" 40
42 "ValveBiped.Bip01_R_Finger0" 29
43 "ValveBiped.Bip01_R_Finger01" 42
44 "ValveBiped.Bip01_R_Finger02" 43
45 "ValveBiped.Bip01_R_Ulna" 28
46 "ValveBiped.Bip01_R_Wrist" 28
47 "rig_r_upperarm" 26
48 "rig_r_forearm" 47
49 "rig_d_r_forearm" 48
50 "rig_d_r_upperarm" 47
51 "rig_r_hand" -1
52 "rig_d_r_hand" 51
53 "rig_d_r_wrist" 52
54 "rig_l_hand" -1
55 "rig_d_l_hand" 54
56 "rig_d_l_wrist" 54
57 "rig_l_pole" -1
58 "rig_r_pole" -1
59 "rig_l_clavicle" -1
60 "rig_d_l_clavicle" 59
61 "rig_r_clavicle" -1
62 "rig_d_r_clavicle" 61
63 "Camera" -1
64 "body" -1
65 "hammer" 64
66 "barrel" 64
67 "cylinderlock" 64
68 "cylinder" 67
69 "cylinderpush" 68
70 "trigger" 64
71 "cylrel" 64
72 "bullet1" -1
73 "bullet2" -1
74 "bullet3" -1
75 "bullet4" -1
76 "bullet5" -1
77 "bullet6" -1
78 "speedloader" -1
end
skeleton
time 0
0  0.000006 0.000000 0.000000  -1.570800 -1.391899 -1.570792
1  -9.841317 -7.634221 1.937669  -1.544956 -1.855077 -0.198630
2  6.027525 -0.000329 0.000190  -0.487143 -1.472888 -1.509921
3  11.692113 0.000644 -0.000739  -0.990399 0.000003 -0.887531
4  11.480664 0.000591 -0.000434  0.996780 -0.283228 0.540853
5  3.666628 -0.163904 -1.204801  -0.519250 0.086737 -1.532179
6  1.312590 0.000010 0.000008  -0.003664 0.023356 -0.272237
7  0.729354 0.000054 0.000050  -0.003677 0.000626 -0.150723
8  3.942142 0.046331 -0.431542  -0.205965 0.132197 -1.449654
9  1.539110 0.000084 0.000004  -0.000570 0.007396 -0.283198
10  1.196333 0.000146 0.000028  -0.000713 0.000161 -0.519018
11  3.883512 -0.047212 0.431351  -0.042690 0.198097 -1.260493
12  1.719572 -0.000027 0.000017  -0.000644 0.003280 -0.404344
13  1.209179 0.000090 0.000012  -0.000905 0.002861 -0.623854
14  3.859679 -0.138417 1.332380  -0.235831 0.317274 -1.342437
15  1.719448 -0.000020 0.000028  0.001902 0.001157 -0.067177
16  1.099675 0.000050 0.000005  -0.000943 0.002399 -0.620101
17  0.484004 -0.516865 1.316627  -1.373029 -0.651615 -0.282352
18  1.789819 -0.000005 -0.000017  -0.005063 0.005449 0.155924
19  1.207017 -0.000013 -0.000044  -0.005720 -0.000512 0.867470
20  5.740635 0.000388 -0.000699  -0.122268 0.000003 0.000064
21  11.481141 0.000297 -0.000741  -0.097274 -0.062091 0.076010
22  6.027524 -0.000329 0.000201  1.549876 -0.095737 1.847370
23  0.000000 11.692099 -0.000008  -0.646386 -0.182834 -0.534192
24  0.000004 0.000008 0.000000  -0.121333 -0.000031 1.570739
25  -0.000000 -0.000012 0.000000  0.868960 0.000002 1.570712
26  -6.899342 -10.734701 0.826813  1.473120 1.855075 -0.198639
27  6.027517 -0.000263 -0.000216  1.600733 1.276092 -0.657785
28  11.691990 0.000160 0.000858  0.139886 0.000014 -0.940400
29  11.479576 -0.000337 0.000876  -1.304985 0.536708 0.488691
30  3.710774 -0.434234 1.096848  0.685744 0.135637 -2.140381
31  1.312561 0.000030 -0.000000  0.004428 0.012974 -0.198564
32  0.729348 0.000065 -0.000028  -0.001423 -0.000196 -1.172210
33  3.820805 -0.154608 0.327899  0.660980 -0.074301 -1.836563
34  1.539095 0.000005 -0.000002  0.045826 -0.038323 -0.676515
35  1.196302 0.000079 -0.000003  -0.018240 -0.014446 -1.506251
36  3.882444 -0.171892 -0.416804  0.549170 -0.212324 -1.595491
37  1.719566 -0.000082 -0.000005  0.007638 -0.016351 -1.238155
38  1.209194 0.000034 0.000012  -0.003491 -0.003814 -0.939900
39  3.859584 -0.149081 -1.331322  0.013633 -0.416251 -0.620033
40  1.719413 -0.000096 -0.000037  -0.002155 -0.063419 -0.757383
41  1.099673 0.000022 0.000006  0.001031 -0.008101 -0.732269
42  0.230504 -0.805067 -1.086893  1.133899 0.523038 -0.582507
43  1.789779 -0.000008 -0.000042  -0.089312 -0.070323 0.368341
44  1.206995 -0.000006 0.000005  0.000678 -0.214508 0.376132
45  5.740573 0.000079 0.000721  0.082161 -0.000014 0.000028
46  11.480860 0.000006 0.000920  0.028957 0.095049 0.070535
47  6.027515 -0.000273 -0.000229  -1.337590 -0.181867 -1.578039
48  -0.000001 11.691975 -0.000008  -0.681453 0.203833 0.561592
49  0.000003 0.000000 0.000001  2.412441 -0.000036 1.570860
50  -0.000008 -0.000013 0.000004  2.272645 -0.000036 1.570861
51  -2.558836 -8.705482 -5.081818  -0.148535 -2.879863 1.246914
52  0.000001 0.000000 -0.000001  0.008153 -0.000259 0.000009
53  -0.000000 0.000000 -0.000000  1.565115 0.043565 -0.106862
54  0.419504 -9.994166 -6.133532  -0.545470 0.079848 -2.025877
55  0.000000 0.000000 -0.000000  0.000000 -0.000001 -0.000002
56  0.000031 0.000029 0.000001  -1.571902 -0.044449 -0.106509
57  12.000549 -19.544212 -17.246658  1.570796 -0.000000 0.000000
58  -15.417984 4.000748 -22.641926  1.570796 -0.000000 0.000000
59  1.941978 9.263218 -8.327020  1.570796 -0.000000 0.000000
60  -0.004311 0.001229 -0.000372  0.006898 -0.005534 -0.284229
61  0.826810 11.791080 -4.879054  1.570796 -0.000000 0.000000
62  0.000000 0.000000 0.000000  -0.078727 -3.136056 0.284226
63  0.000000 0.000000 0.000000  1.570796 -0.000000 0.000000
64  -1.915771 -10.889102 -3.861487  1.570796 -0.000000 0.000000
65  -0.143794 1.243191 1.790707  0.000000 -0.000000 0.000000
66  0.000001 2.431489 11.900956  0.000000 -0.000000 0.000000
67  0.151288 0.906791 4.692154  0.000000 -0.000000 0.000000
68  -0.151288 1.013638 -0.467878  0.000000 -0.000000 0.000000
69  0.000000 -0.000000 2.081794  0.000000 -0.000000 0.000000
70  0.000000 0.884824 2.687938  0.000000 -0.000000 0.000000
71  0.299800 1.920429 2.128872  0.000000 -0.000000 0.000000
72  -1.916836 -13.896193 -1.431183  1.570796 -0.000000 0.000000
73  -1.481012 -13.896194 -1.689167  1.570796 -0.000000 0.000000
74  -1.484141 -13.896194 -2.187738  1.570796 -0.000000 0.000000
75  -1.916248 -13.896193 -2.442092  1.570796 -0.000000 0.000000
76  -2.349841 -13.896193 -2.187823  1.570796 -0.000000 0.000000
77  -2.352218 -13.896193 -1.689667  1.570796 -0.000000 0.000000
78  0.000001 -0.821651 -20.129416  1.570796 -0.000000 0.000000
time 1
0  0.000006 0.000000 0.000000  -1.570800 -1.391899 -1.570792
1  -9.841317 -7.634221 1.937669  -1.544956 -1.855077 -0.198630
2  6.027525 -0.000329 0.000190  -0.465326 -1.474904 -1.534840
3  11.692113 0.000644 -0.000738  -0.990398 0.000003 -0.883124
4  11.480681 0.000596 -0.000426  1.003999 -0.284300 0.541853
5  3.666627 -0.163903 -1.204803  -0.519250 0.086737 -1.532179
6  1.312590 0.000011 0.000009  -0.003664 0.023357 -0.272237
7  0.729355 0.000054 0.000048  -0.003677 0.000626 -0.150723
8  3.942140 0.046332 -0.431543  -0.205965 0.132197 -1.449654
9  1.539111 0.000082 0.000004  -0.000570 0.007396 -0.283198
10  1.196333 0.000145 0.000029  -0.000713 0.000161 -0.519018
11  3.883510 -0.047212 0.431351  -0.042690 0.198097 -1.260493
12  1.719572 -0.000028 0.000017  -0.000644 0.003280 -0.404344
13  1.209179 0.000090 0.000012  -0.000905 0.002861 -0.623853
14  3.859676 -0.138418 1.332380  -0.235831 0.317274 -1.342437
15  1.719448 -0.000019 0.000028  0.001902 0.001157 -0.067177
16  1.099674 0.000049 0.000006  -0.000943 0.002399 -0.620101
17  0.484003 -0.516865 1.316627  -1.373029 -0.651615 -0.282352
18  1.789819 -0.000004 -0.000017  -0.005063 0.005449 0.155924
19  1.207016 -0.000012 -0.000043  -0.005720 -0.000512 0.867470
20  5.740635 0.000390 -0.000700  -0.120758 0.000003 0.000063
21  11.481145 0.000300 -0.000738  -0.095815 -0.061989 0.076436
22  6.027524 -0.000329 0.000201  1.548265 -0.093299 1.844317
23  0.000000 11.692099 -0.000008  -0.643438 -0.181123 -0.531880
24  0.000001 0.000009 -0.000000  -0.121333 -0.000031 1.570739
25  -0.000000 -0.000011 -0.000000  0.868960 0.000002 1.570712
26  -6.899342 -10.734701 0.826813  1.473120 1.855075 -0.198639
27  6.027517 -0.000263 -0.000216  1.604138 1.279237 -0.654905
28  11.691991 0.000161 0.000859  0.139885 0.000013 -0.936029
29  11.479714 -0.000283 0.000869  -1.300657 0.534987 0.486439
30  3.710775 -0.434235 1.096848  0.685744 0.135637 -2.140381
31  1.312561 0.000030 -0.000000  0.004429 0.012974 -0.198564
32  0.729348 0.000065 -0.000028  -0.001423 -0.000196 -1.172211
33  3.820807 -0.154609 0.327899  0.660980 -0.074301 -1.836563
34  1.539095 0.000004 -0.000001  0.045826 -0.038323 -0.676515
35  1.196303 0.000080 -0.000003  -0.018240 -0.014446 -1.506251
36  3.882446 -0.171892 -0.416804  0.549170 -0.212324 -1.595491
37  1.719566 -0.000083 -0.000005  0.007638 -0.016351 -1.238155
38  1.209192 0.000034 0.000011  -0.003491 -0.003814 -0.939900
39  3.859585 -0.149082 -1.331322  0.008142 -0.423611 -0.613196
40  1.719412 -0.000096 -0.000037  0.000204 -0.069745 -0.785628
41  1.099673 0.000021 0.000006  0.001781 -0.008104 -0.730822
42  0.230504 -0.805067 -1.086893  1.133899 0.523038 -0.582507
43  1.789780 -0.000007 -0.000042  -0.089312 -0.070323 0.368341
44  1.206995 -0.000007 0.000005  0.000678 -0.214508 0.376132
45  5.740573 0.000077 0.000721  0.082924 -0.000014 0.000028
46  11.480886 0.000016 0.000919  0.029935 0.094858 0.069901
47  6.027515 -0.000273 -0.000229  -1.339533 -0.179182 -1.578069
48  -0.000002 11.691975 -0.000008  -0.678567 0.202059 0.559352
49  0.000002 0.000000 -0.000000  2.412441 -0.000036 1.570860
50  -0.000008 -0.000014 0.000005  2.272645 -0.000036 1.570861
51  -2.560700 -8.726768 -5.051961  -0.143554 -2.879329 1.247871
52  -0.000001 -0.000000 -0.000000  0.008153 -0.000259 0.000009
53  0.000001 0.000000 -0.000000  1.565115 0.043565 -0.106862
54  0.425116 -10.010876 -6.087959  -0.540614 0.079944 -2.023242
55  -0.000000 -0.000001 -0.000000  0.000000 -0.000001 -0.000002
56  0.000030 0.000028 0.000001  -1.571902 -0.044449 -0.106509
57  12.000549 -19.544212 -17.246658  1.570796 -0.000000 0.000000
58  -15.417984 4.000748 -22.641926  1.570796 -0.000000 0.000000
59  1.941978 9.263218 -8.327020  1.570796 -0.000000 0.000000
60  -0.004311 0.001229 -0.000372  0.006898 -0.005534 -0.284229
61  0.826810 11.791080 -4.879054  1.570796 -0.000000 0.000000
62  0.000000 0.000000 0.000000  -0.078727 -3.136056 0.284226
63  0.000000 0.000000 0.000000  1.570796 -0.000000 0.000000
64  -1.918107 -10.906452 -3.824366  1.568756 -0.004390 0.002252
65  -0.143794 1.243191 1.790707  -0.121470 0.000160 0.000124
66  0.000001 2.431489 11.900955  -0.000000 0.000000 -0.000000
67  0.151288 0.906791 4.692154  -0.000000 0.000000 -0.000000
68  -0.151288 1.013638 -0.467878  -0.000000 0.000000 0.159253
69  0.000000 -0.000001 2.081794  0.000000 -0.000000 -0.000000
70  0.000000 0.884824 2.687938  0.040838 0.000000 -0.000000
71  0.299800 1.920429 2.128871  -0.000000 0.000000 -0.000000
72  -2.003920 -13.908792 -1.394935  1.568728 -0.163643 0.002580
73  -1.531889 -13.908110 -1.578471  1.568728 -0.163643 0.002580
74  -1.453750 -13.908940 -2.070890  1.568728 -0.163643 0.002580
75  -1.838644 -13.910457 -2.392241  1.568728 -0.163643 0.002580
76  -2.307868 -13.911141 -2.212008  1.568728 -0.163643 0.002580
77  -2.391373 -13.910327 -1.720895  1.568728 -0.163643 0.002580
78  0.000001 -0.821651 -20.129416  1.570796 -0.000000 0.000000
time 2
0  0.000006 0.000000 0.000000  -1.570800 -1.391899 -1.570792
1  -9.841317 -7.634221 1.937669  -1.544956 -1.855077 -0.198630
2  6.027525 -0.000329 0.000190  -0.453976 -1.476510 -1.549749
3  11.692112 0.000647 -0.000740  -0.990398 0.000003 -0.881222
4  11.480692 0.000597 -0.000426  1.007200 -0.286008 0.549077
5  3.666627 -0.163904 -1.204802  -0.519250 0.086737 -1.532179
6  1.312590 0.000011 0.000008  -0.003664 0.023357 -0.272237
7  0.729355 0.000053 0.000049  -0.003677 0.000626 -0.150723
8  3.942140 0.046331 -0.431543  -0.205965 0.132197 -1.449654
9  1.539110 0.000082 0.000005  -0.000570 0.007396 -0.283198
10  1.196333 0.000145 0.000028  -0.000713 0.000161 -0.519018
11  3.883509 -0.047213 0.431351  -0.042690 0.198097 -1.260493
12  1.719573 -0.000028 0.000017  -0.000644 0.003280 -0.404344
13  1.209179 0.000090 0.000011  -0.000905 0.002861 -0.623853
14  3.859677 -0.138418 1.332379  -0.235831 0.317274 -1.342437
15  1.719448 -0.000019 0.000029  0.001902 0.001157 -0.067177
16  1.099674 0.000049 0.000005  -0.000943 0.002399 -0.620101
17  0.484001 -0.516866 1.316626  -1.373029 -0.651615 -0.282352
18  1.789820 -0.000004 -0.000017  -0.005063 0.005449 0.155924
19  1.207016 -0.000012 -0.000045  -0.005720 -0.000511 0.867470
20  5.740636 0.000389 -0.000699  -0.120081 0.000003 0.000063
21  11.481147 0.000300 -0.000738  -0.094944 -0.062462 0.077890
22  6.027524 -0.000329 0.000201  1.547603 -0.091480 1.840767
23  -0.000001 11.692098 -0.000008  -0.642165 -0.180387 -0.530881
24  0.000004 0.000009 -0.000000  -0.121332 -0.000031 1.570739
25  -0.000001 -0.000012 -0.000000  0.868960 0.000002 1.570712
26  -6.899342 -10.734701 0.826813  1.473120 1.855075 -0.198639
27  6.027517 -0.000263 -0.000216  1.607723 1.282623 -0.651854
28  11.691991 0.000160 0.000858  0.139885 0.000013 -0.932548
29  11.479823 -0.000237 0.000863  -1.295255 0.530966 0.490532
30  3.710775 -0.434235 1.096848  0.685744 0.135637 -2.140381
31  1.312560 0.000031 -0.000000  0.004429 0.012974 -0.198564
32  0.729347 0.000066 -0.000028  -0.001423 -0.000196 -1.172210
33  3.820807 -0.154609 0.327899  0.660980 -0.074301 -1.836563
34  1.539095 0.000003 -0.000002  0.045826 -0.038323 -0.676515
35  1.196302 0.000080 -0.000003  -0.018240 -0.014446 -1.506251
36  3.882446 -0.171893 -0.416805  0.549170 -0.212324 -1.595491
37  1.719566 -0.000081 -0.000005  0.007638 -0.016351 -1.238155
38  1.209193 0.000035 0.000011  -0.003491 -0.003814 -0.939900
39  3.859585 -0.149082 -1.331323  -0.006573 -0.442701 -0.594988
40  1.719412 -0.000096 -0.000037  0.007231 -0.085977 -0.859762
41  1.099673 0.000023 0.000006  0.003741 -0.008118 -0.727039
42  0.230504 -0.805067 -1.086893  1.133899 0.523038 -0.582507
43  1.789779 -0.000007 -0.000042  -0.089312 -0.070323 0.368341
44  1.206995 -0.000007 0.000005  0.000678 -0.214508 0.376132
45  5.740574 0.000080 0.000721  0.083933 -0.000014 0.000028
46  11.480909 0.000027 0.000917  0.030998 0.094360 0.070515
47  6.027515 -0.000273 -0.000229  -1.341653 -0.176325 -1.578079
48  -0.000002 11.691975 -0.000008  -0.676266 0.200650 0.557565
49  0.000003 -0.000000 -0.000000  2.412441 -0.000036 1.570860
50  -0.000007 -0.000014 0.000005  2.272645 -0.000036 1.570861
51  -2.555709 -8.741526 -5.010463  -0.140330 -2.883847 1.249301
52  0.000000 -0.000000 -0.000001  0.008153 -0.000259 0.000009
53  0.000000 -0.000000 -0.000000  1.565115 0.043565 -0.106862
54  0.437521 -10.015477 -6.037568  -0.538097 0.084825 -2.020775
55  -0.000000 0.000000 -0.000000  0.000000 -0.000001 -0.000002
56  0.000030 0.000029 0.000001  -1.571901 -0.044449 -0.106509
57  12.000549 -19.544212 -17.246658  1.570796 -0.000000 0.000000
58  -15.417984 4.000748 -22.641926  1.570796 -0.000000 0.000000
59  1.941978 9.263218 -8.327020  1.570796 -0.000000 0.000000
60  -0.004311 0.001229 -0.000372  0.006898 -0.005534 -0.284229
61  0.826810 11.791080 -4.879054  1.570796 -0.000000 0.000000
62  0.000000 0.000000 0.000000  -0.078727 -3.136056 0.284226
63  0.000000 0.000000 0.000000  1.570796 -0.000000 0.000000
64  -1.913564 -10.923801 -3.787246  1.572040 -0.008787 0.004490
65  -0.143794 1.243191 1.790707  -0.394675 0.000567 0.000328
66  0.000001 2.431489 11.900957  0.000000 -0.000000 -0.000000
67  0.151288 0.906791 4.692153  0.000000 -0.000000 -0.000000
68  -0.151288 1.013638 -0.467878  0.000000 0.000000 0.523599
69  -0.000000 -0.000000 2.081794  0.000000 -0.000000 0.000000
70  0.000000 0.884824 2.687937  0.130900 -0.000000 -0.000000
71  0.299800 1.920429 2.128873  0.000000 -0.000000 -0.000000
72  -2.176615 -13.935038 -1.431865  1.572240 -0.532385 0.003768
73  -1.670164 -13.932758 -1.432925  1.572240 -0.532385 0.003768
74  -1.419795 -13.931096 -1.864081  1.572240 -0.532385 0.003768
75  -1.662990 -13.931643 -2.302565  1.572240 -0.532385 0.003768
76  -2.165633 -13.933905 -2.303574  1.572240 -0.532385 0.003768
77  -2.420536 -13.935584 -1.875571  1.572240 -0.532385 0.003768
78  0.000001 -0.821651 -20.129416  1.570796 -0.000000 0.000000
time 3
0  0.000006 0.000000 0.000000  -1.570800 -1.391899 -1.570792
1  -9.841317 -7.634221 1.937669  -1.544956 -1.855077 -0.198630
2  6.027525 -0.000329 0.000190  -0.480071 -1.474160 -1.519986
3  11.692113 0.000645 -0.000738  -0.990399 0.000003 -0.888118
4  11.480663 0.000591 -0.000435  0.991056 -0.283754 0.549885
5  3.666627 -0.163903 -1.204802  -0.519250 0.086737 -1.532179
6  1.312590 0.000011 0.000008  -0.003664 0.023356 -0.272237
7  0.729355 0.000054 0.000049  -0.003677 0.000626 -0.150723
8  3.942141 0.046332 -0.431543  -0.205965 0.132196 -1.449654
9  1.539110 0.000085 0.000005  -0.000570 0.007396 -0.283198
10  1.196333 0.000146 0.000028  -0.000713 0.000161 -0.519019
11  3.883511 -0.047211 0.431351  -0.042690 0.198097 -1.260493
12  1.719573 -0.000028 0.000017  -0.000644 0.003280 -0.404344
13  1.209179 0.000090 0.000012  -0.000905 0.002861 -0.623853
14  3.859678 -0.138417 1.332379  -0.235831 0.317274 -1.342437
15  1.719448 -0.000018 0.000029  0.001902 0.001157 -0.067177
16  1.099675 0.000049 0.000006  -0.000943 0.002399 -0.620101
17  0.484004 -0.516865 1.316627  -1.373029 -0.651615 -0.282352
18  1.789819 -0.000004 -0.000016  -0.005063 0.005449 0.155924
19  1.207016 -0.000012 -0.000045  -0.005720 -0.000512 0.867470
20  5.740636 0.000388 -0.000699  -0.123527 0.000003 0.000063
21  11.481140 0.000297 -0.000740  -0.098130 -0.062857 0.077523
22  6.027524 -0.000329 0.000201  1.549480 -0.094346 1.844380
23  -0.000000 11.692100 -0.000008  -0.646778 -0.183062 -0.534500
24  0.000004 0.000009 -0.000000  -0.121332 -0.000030 1.570738
25  -0.000001 -0.000012 -0.000000  0.868960 0.000002 1.570712
26  -6.899342 -10.734701 0.826813  1.473120 1.855075 -0.198639
27  6.027517 -0.000263 -0.000216  1.606515 1.278954 -0.652949
28  11.691991 0.000162 0.000859  0.139886 0.000014 -0.940226
29  11.479580 -0.000338 0.000878  -1.306318 0.531649 0.497616
30  3.710775 -0.434235 1.096849  0.685745 0.135637 -2.140381
31  1.312560 0.000030 -0.000000  0.004429 0.012974 -0.198564
32  0.729348 0.000066 -0.000028  -0.001423 -0.000196 -1.172210
33  3.820806 -0.154609 0.327899  0.660980 -0.074301 -1.836563
34  1.539095 0.000003 -0.000002  0.045826 -0.038323 -0.676515
35  1.196303 0.000080 -0.000003  -0.018240 -0.014446 -1.506251
36  3.882446 -0.171892 -0.416805  0.549170 -0.212325 -1.595491
37  1.719566 -0.000082 -0.000005  0.007638 -0.016351 -1.238155
38  1.209193 0.000034 0.000012  -0.003491 -0.003814 -0.939900
39  3.859584 -0.149082 -1.331323  -0.021811 -0.461542 -0.576299
40  1.719411 -0.000097 -0.000037  0.015457 -0.101645 -0.934121
41  1.099673 0.000022 0.000006  0.005702 -0.008139 -0.723255
42  0.230505 -0.805067 -1.086894  1.133899 0.523038 -0.582507
43  1.789779 -0.000007 -0.000042  -0.089312 -0.070323 0.368341
44  1.206995 -0.000007 0.000005  0.000678 -0.214508 0.376132
45  5.740573 0.000078 0.000721  0.082193 -0.000013 0.000028
46  11.480860 0.000005 0.000920  0.028651 0.094147 0.072505
47  6.027515 -0.000273 -0.000229  -1.338884 -0.178807 -1.578505
48  -0.000001 11.691975 -0.000008  -0.681339 0.203763 0.561504
49  0.000003 -0.000000 0.000000  2.412441 -0.000036 1.570860
50  -0.000007 -0.000013 0.000004  2.272645 -0.000036 1.570861
51  -2.555128 -8.700943 -5.014226  -0.153018 -2.886205 1.248290
52  0.000000 -0.000000 -0.000001  0.008153 -0.000259 0.000009
53  0.000001 0.000000 -0.000000  1.565115 0.043565 -0.106862
54  0.421287 -9.981112 -6.081672  -0.550618 0.085565 -2.026072
55  0.000000 0.000000 -0.000000  0.000000 -0.000001 -0.000002
56  0.000031 0.000029 0.000001  -1.571902 -0.044449 -0.106509
57  12.000549 -19.544212 -17.246658  1.570796 -0.000000 0.000000
58  -15.417984 4.000748 -22.641926  1.570796 -0.000000 0.000000
59  1.941978 9.263218 -8.327020  1.570796 -0.000000 0.000000
60  -0.004311 0.001229 -0.000372  0.006898 -0.005534 -0.284229
61  0.826810 11.791080 -4.879054  1.570796 -0.000000 0.000000
62  0.000000 0.000000 0.000000  -0.078727 -3.136056 0.284226
63  0.000000 0.000000 0.000000  1.570796 -0.000000 0.000000
64  -1.909021 -10.893369 -3.811417  1.578187 0.002095 0.000238
65  -0.143794 1.243190 1.790707  -0.667879 0.001013 0.000414
66  0.000001 2.431489 11.900959  0.000000 0.000000 -0.000000
67  0.151288 0.906791 4.692154  0.000000 0.000000 -0.000000
68  -0.151288 1.013638 -0.467878  -0.000000 -0.000000 0.887944
69  0.000000 -0.000001 2.081793  0.000000 -0.000000 0.000000
70  0.000000 0.884824 2.687938  0.220961 0.000000 -0.000000
71  0.299800 1.920429 2.128873  0.000000 0.000000 -0.000000
72  -2.299875 -13.917034 -1.591538  1.582478 -0.885816 -0.008825
73  -1.824361 -13.918219 -1.417228  1.582478 -0.885816 -0.008825
74  -1.440222 -13.915784 -1.735054  1.582478 -0.885816 -0.008825
75  -1.516602 -13.912136 -2.230599  1.582478 -0.885816 -0.008825
76  -1.987827 -13.910949 -2.405533  1.582478 -0.885816 -0.008825
77  -2.375128 -13.913350 -2.092234  1.582478 -0.885816 -0.008825
78  0.000001 -0.821651 -20.129416  1.570796 -0.000000 0.000000
time 4
0  0.000006 0.000000 0.000000  -1.570800 -1.391899 -1.570792
1  -9.841317 -7.634221 1.937669  -1.544956 -1.855077 -0.198630
2  6.027525 -0.000329 0.000190  -0.498033 -1.472018 -1.498047
3  11.692113 0.000644 -0.000740  -0.990399 0.000003 -0.893557
4  11.480639 0.000585 -0.000442  0.977043 -0.281224 0.547245
5  3.666627 -0.163904 -1.204801  -0.519250 0.086737 -1.532179
6  1.312589 0.000010 0.000007  -0.003664 0.023356 -0.272237
7  0.729354 0.000054 0.000050  -0.003677 0.000626 -0.150723
8  3.942140 0.046331 -0.431542  -0.205965 0.132197 -1.449654
9  1.539111 0.000083 0.000003  -0.000570 0.007396 -0.283198
10  1.196332 0.000145 0.000028  -0.000713 0.000161 -0.519019
11  3.883510 -0.047213 0.431352  -0.042690 0.198097 -1.260493
12  1.719573 -0.000028 0.000018  -0.000644 0.003280 -0.404344
13  1.209179 0.000089 0.000012  -0.000905 0.002861 -0.623853
14  3.859677 -0.138418 1.332380  -0.235831 0.317274 -1.342437
15  1.719448 -0.000018 0.000027  0.001902 0.001157 -0.067177
16  1.099675 0.000049 0.000006  -0.000943 0.002399 -0.620101
17  0.484002 -0.516866 1.316627  -1.373029 -0.651615 -0.282353
18  1.789819 -0.000004 -0.000017  -0.005063 0.005449 0.155924
19  1.207016 -0.000011 -0.000044  -0.005720 -0.000512 0.867470
20  5.740636 0.000388 -0.000699  -0.126522 0.000003 0.000064
21  11.481135 0.000296 -0.000743  -0.101005 -0.062947 0.076584
22  6.027524 -0.000329 0.000201  1.550744 -0.096811 1.848321
23  0.000001 11.692099 -0.000008  -0.650411 -0.185183 -0.537346
24  0.000003 0.000009 -0.000001  -0.121332 -0.000031 1.570739
25  0.000001 -0.000012 0.000000  0.868960 0.000002 1.570712
26  -6.899342 -10.734701 0.826813  1.473120 1.855075 -0.198639
27  6.027517 -0.000263 -0.000216  1.605351 1.275007 -0.654009
28  11.691990 0.000160 0.000859  0.139886 0.000014 -0.947678
29  11.480817 0.000137 0.000811  -1.317950 0.533543 0.501425
30  3.710774 -0.434234 1.096848  0.685745 0.135637 -2.140381
31  1.312560 0.000030 -0.000000  0.004429 0.012974 -0.198564
32  0.729348 0.000066 -0.000027  -0.001423 -0.000196 -1.172210
33  3.820806 -0.154608 0.327899  0.660980 -0.074301 -1.836563
34  1.539095 0.000004 -0.000002  0.045826 -0.038323 -0.676515
35  1.196302 0.000081 -0.000003  -0.018240 -0.014446 -1.506251
36  3.882446 -0.171892 -0.416804  0.549170 -0.212325 -1.595491
37  1.719566 -0.000083 -0.000005  0.007638 -0.016351 -1.238155
38  1.209193 0.000034 0.000011  -0.003491 -0.003814 -0.939900
39  3.859584 -0.149082 -1.331322  -0.027777 -0.468675 -0.569025
40  1.719412 -0.000096 -0.000037  0.018906 -0.107458 -0.962569
41  1.099673 0.000021 0.000006  0.006451 -0.008149 -0.721808
42  0.230503 -0.805067 -1.086893  1.133899 0.523038 -0.582507
43  1.789778 -0.000009 -0.000042  -0.089312 -0.070323 0.368341
44  1.206996 -0.000006 0.000006  0.000678 -0.214508 0.376132
45  5.740572 0.000079 0.000721  0.080335 -0.000014 0.000028
46  11.481108 0.000100 0.000906  0.026255 0.094088 0.073856
47  6.027515 -0.000273 -0.000229  -1.335886 -0.181451 -1.578989
48  -0.000001 11.691973 -0.000008  -0.686253 0.206802 0.565313
49  0.000003 -0.000001 -0.000000  2.412441 -0.000036 1.570860
50  -0.000007 -0.000013 0.000005  2.272645 -0.000036 1.570861
51  -2.558871 -8.663832 -5.024105  -0.164778 -2.885868 1.247034
52  0.000001 -0.000000 0.000000  0.008153 -0.000259 0.000009
53  -0.000000 0.000000 0.000000  1.565115 0.043565 -0.106862
54  0.400282 -9.952975 -6.128118  -0.561888 0.083703 -2.031253
55  -0.000000 0.000000 0.000000  0.000000 -0.000001 -0.000002
56  0.000029 0.000029 0.000001  -1.571901 -0.044449 -0.106509
57  12.000549 -19.544212 -17.246658  1.570796 -0.000000 0.000000
58  -15.417984 4.000748 -22.641926  1.570796 -0.000000 0.000000
59  1.941978 9.263218 -8.327020  1.570796 -0.000000 0.000000
60  -0.004311 0.001229 -0.000372  0.006898 -0.005534 -0.284229
61  0.826810 11.791080 -4.879054  1.570796 -0.000000 0.000000
62  0.000000 0.000000 0.000000  -0.078727 -3.136056 0.284226
63  0.000000 0.000000 0.000000  1.570796 -0.000000 0.000000
64  -1.909021 -10.862936 -3.835588  1.581460 0.012996 -0.003966
65  -0.143794 1.243191 1.790707  -0.789349 0.001216 0.000412
66  0.000001 2.431489 11.900955  -0.000000 -0.000000 -0.000000
67  0.151288 0.906791 4.692153  -0.000000 -0.000000 -0.000000
68  -0.151288 1.013638 -0.467878  -0.000000 -0.000000 1.047198
69  -0.000000 -0.000001 2.081792  0.000000 -0.000000 -0.000000
70  0.000001 0.884825 2.687937  0.261799 -0.000000 -0.000000
71  0.299800 1.920429 2.128872  -0.000000 -0.000000 -0.000000
72  -2.335254 -13.891376 -1.687768  1.591652 -1.034105 -0.022029
73  -1.890744 -13.895790 -1.445097  1.591652 -1.034105 -0.022029
74  -1.463837 -13.894796 -1.702648  1.591652 -1.034105 -0.022029
75  -1.466108 -13.889439 -2.204024  1.591652 -1.034105 -0.022029
76  -1.906286 -13.885044 -2.446677  1.591652 -1.034105 -0.022029
77  -2.335650 -13.885975 -2.194071  1.591652 -1.034105 -0.022029
78  0.000001 -0.821651 -20.129416  1.570796 -0.000000 0.000000
end
