version 1
nodes
0 "ValveBiped.Bip01_Spine4" -1
1 "ValveBiped.Bip01_L_Clavicle" 0
2 "ValveBiped.Bip01_L_UpperArm" 1
3 "ValveBiped.Bip01_L_Forearm" 2
4 "ValveBiped.Bip01_L_Hand" 3
5 "ValveBiped.Bip01_L_Finger4" 4
6 "ValveBiped.Bip01_L_Finger41" 5
7 "ValveBiped.Bip01_L_Finger42" 6
8 "ValveBiped.Bip01_L_Finger3" 4
9 "ValveBiped.Bip01_L_Finger31" 8
10 "ValveBiped.Bip01_L_Finger32" 9
11 "ValveBiped.Bip01_L_Finger2" 4
12 "ValveBiped.Bip01_L_Finger21" 11
13 "ValveBiped.Bip01_L_Finger22" 12
14 "ValveBiped.Bip01_L_Finger1" 4
15 "ValveBiped.Bip01_L_Finger11" 14
16 "ValveBiped.Bip01_L_Finger12" 15
17 "ValveBiped.Bip01_L_Finger0" 4
18 "ValveBiped.Bip01_L_Finger01" 17
19 "ValveBiped.Bip01_L_Finger02" 18
20 "ValveBiped.Bip01_L_Ulna" 3
21 "ValveBiped.Bip01_L_Wrist" 3
22 "rig_l_upperarm" 1
23 "rig_l_forearm" 22
24 "rig_d_l_forearm" 23
25 "rig_d_l_upperarm" 22
26 "ValveBiped.Bip01_R_Clavicle" 0
27 "ValveBiped.Bip01_R_UpperArm" 26
28 "ValveBiped.Bip01_R_Forearm" 27
29 "ValveBiped.Bip01_R_Hand" 28
30 "ValveBiped.Bip01_R_Finger4" 29
31 "ValveBiped.Bip01_R_Finger41" 30
32 "ValveBiped.Bip01_R_Finger42" 31
33 "ValveBiped.Bip01_R_Finger3" 29
34 "ValveBiped.Bip01_R_Finger31" 33
35 "ValveBiped.Bip01_R_Finger32" 34
36 "ValveBiped.Bip01_R_Finger2" 29
37 "ValveBiped.Bip01_R_Finger21" 36
38 "ValveBiped.Bip01_R_Finger22" 37
39 "ValveBiped.Bip01_R_Finger1" 29
40 "ValveBiped.Bip01_R_Finger11" 39
41 "ValveBiped.Bip01_R_Finger12" 40
42 "ValveBiped.Bip01_R_Finger0" 29
43 "ValveBiped.Bip01_R_Finger01" 42
44 "ValveBiped.Bip01_R_Finger02" 43
45 "ValveBiped.Bip01_R_Ulna" 28
46 "ValveBiped.Bip01_R_Wrist" 28
47 "rig_r_upperarm" 26
48 "rig_r_forearm" 47
49 "rig_d_r_forearm" 48
50 "rig_d_r_upperarm" 47
51 "rig_r_hand" -1
52 "rig_d_r_hand" 51
53 "rig_d_r_wrist" 52
54 "rig_l_hand" -1
55 "rig_d_l_hand" 54
56 "rig_d_l_wrist" 54
57 "rig_l_pole" -1
58 "rig_r_pole" -1
59 "rig_l_clavicle" -1
60 "rig_d_l_clavicle" 59
61 "rig_r_clavicle" -1
62 "rig_d_r_clavicle" 61
63 "Camera" -1
64 "body" -1
65 "hammer" 64
66 "barrel" 64
67 "cylinderlock" 64
68 "cylinder" 67
69 "cylinderpush" 68
70 "trigger" 64
71 "cylrel" 64
72 "bullet1" -1
73 "bullet2" -1
74 "bullet3" -1
75 "bullet4" -1
76 "bullet5" -1
77 "bullet6" -1
78 "speedloader" -1
end
skeleton
time 0
0  0.000006 0.000000 0.000000  -1.570800 -1.391899 -1.570792
1  -9.841317 -7.634221 1.937669  -1.544956 -1.855077 -0.198630
2  6.027525 -0.000329 0.000190  -0.487143 -1.472888 -1.509921
3  11.692113 0.000644 -0.000739  -0.990399 0.000003 -0.887531
4  11.480664 0.000591 -0.000434  0.996780 -0.283228 0.540853
5  3.666628 -0.163904 -1.204801  -0.519250 0.086737 -1.532179
6  1.312590 0.000010 0.000008  -0.003664 0.023356 -0.272237
7  0.729354 0.000054 0.000050  -0.003677 0.000626 -0.150723
8  3.942142 0.046331 -0.431542  -0.205965 0.132197 -1.449654
9  1.539110 0.000084 0.000004  -0.000570 0.007396 -0.283198
10  1.196333 0.000146 0.000028  -0.000713 0.000161 -0.519018
11  3.883512 -0.047212 0.431351  -0.042690 0.198097 -1.260493
12  1.719572 -0.000027 0.000017  -0.000644 0.003280 -0.404344
13  1.209179 0.000090 0.000012  -0.000905 0.002861 -0.623854
14  3.859679 -0.138417 1.332380  -0.235831 0.317274 -1.342437
15  1.719448 -0.000020 0.000028  0.001902 0.001157 -0.067177
16  1.099675 0.000050 0.000005  -0.000943 0.002399 -0.620101
17  0.484004 -0.516865 1.316627  -1.373029 -0.651615 -0.282352
18  1.789819 -0.000005 -0.000017  -0.005063 0.005449 0.155924
19  1.207017 -0.000013 -0.000044  -0.005720 -0.000512 0.867470
20  5.740635 0.000388 -0.000699  -0.122268 0.000003 0.000064
21  11.481141 0.000297 -0.000741  -0.097274 -0.062091 0.076010
22  6.027524 -0.000329 0.000201  1.549876 -0.095737 1.847370
23  0.000000 11.692099 -0.000008  -0.646386 -0.182834 -0.534192
24  0.000004 0.000008 0.000000  -0.121333 -0.000031 1.570739
25  -0.000000 -0.000012 0.000000  0.868960 0.000002 1.570712
26  -6.899342 -10.734701 0.826813  1.473120 1.855075 -0.198639
27  6.027517 -0.000263 -0.000216  1.600733 1.276092 -0.657785
28  11.691990 0.000160 0.000858  0.139886 0.000014 -0.940400
29  11.479576 -0.000337 0.000876  -1.304985 0.536708 0.488691
30  3.710774 -0.434234 1.096848  0.685744 0.135637 -2.140381
31  1.312561 0.000030 -0.000000  0.004428 0.012974 -0.198564
32  0.729348 0.000065 -0.000028  -0.001423 -0.000196 -1.172210
33  3.820805 -0.154608 0.327899  0.660980 -0.074301 -1.836563
34  1.539095 0.000005 -0.000002  0.045826 -0.038323 -0.676515
35  1.196302 0.000079 -0.000003  -0.018240 -0.014446 -1.506251
36  3.882444 -0.171892 -0.416804  0.549170 -0.212324 -1.595491
37  1.719566 -0.000082 -0.000005  0.007638 -0.016351 -1.238155
38  1.209194 0.000034 0.000012  -0.003491 -0.003814 -0.939900
39  3.859584 -0.149081 -1.331322  0.013633 -0.416251 -0.620033
40  1.719413 -0.000096 -0.000037  -0.002155 -0.063419 -0.757383
41  1.099673 0.000022 0.000006  0.001031 -0.008101 -0.732269
42  0.230504 -0.805067 -1.086893  1.133899 0.523038 -0.582507
43  1.789779 -0.000008 -0.000042  -0.089312 -0.070323 0.368341
44  1.206995 -0.000006 0.000005  0.000678 -0.214508 0.376132
45  5.740573 0.000079 0.000721  0.082161 -0.000014 0.000028
46  11.480860 0.000006 0.000920  0.028957 0.095049 0.070535
47  6.027515 -0.000273 -0.000229  -1.337590 -0.181867 -1.578039
48  -0.000001 11.691975 -0.000008  -0.681453 0.203833 0.561592
49  0.000003 0.000000 0.000001  2.412441 -0.000036 1.570860
50  -0.000008 -0.000013 0.000004  2.272645 -0.000036 1.570861
51  -2.558836 -8.705482 -5.081818  -0.148535 -2.879863 1.246914
52  0.000001 0.000000 -0.000001  0.008153 -0.000259 0.000009
53  -0.000000 0.000000 -0.000000  1.565115 0.043565 -0.106862
54  0.419504 -9.994166 -6.133532  -0.545470 0.079848 -2.025877
55  0.000000 0.000000 -0.000000  0.000000 -0.000001 -0.000002
56  0.000031 0.000029 0.000001  -1.571902 -0.044449 -0.106509
57  12.000549 -19.544212 -17.246658  1.570796 -0.000000 0.000000
58  -15.417984 4.000748 -22.641926  1.570796 -0.000000 0.000000
59  1.941978 9.263218 -8.327020  1.570796 -0.000000 0.000000
60  -0.004311 0.001229 -0.000372  0.006898 -0.005534 -0.284229
61  0.826810 11.791080 -4.879054  1.570796 -0.000000 0.000000
62  0.000000 0.000000 0.000000  -0.078727 -3.136056 0.284226
63  -1.915770 -4.683022 -0.665352  1.570796 -0.000000 0.000000
64  -1.915771 -10.889102 -3.861487  1.570796 -0.000000 0.000000
65  -0.143794 1.243191 1.790707  0.000000 -0.000000 0.000000
66  0.000001 2.431489 11.900956  0.000000 -0.000000 0.000000
67  0.151288 0.906791 4.692154  0.000000 -0.000000 0.000000
68  -0.151288 1.013638 -0.467878  0.000000 -0.000000 0.000000
69  0.000000 -0.000000 2.081794  0.000000 -0.000000 0.000000
70  0.000000 0.884824 2.687938  0.000000 -0.000000 0.000000
71  0.299800 1.920429 2.128872  0.000000 -0.000000 0.000000
72  -1.916836 -13.896193 -1.431183  1.570796 -0.000000 0.000000
73  -1.481012 -13.896194 -1.689167  1.570796 -0.000000 0.000000
74  -1.484141 -13.896194 -2.187738  1.570796 -0.000000 0.000000
75  -1.916248 -13.896193 -2.442092  1.570796 -0.000000 0.000000
76  -2.349841 -13.896193 -2.187823  1.570796 -0.000000 0.000000
77  -2.352218 -13.896193 -1.689667  1.570796 -0.000000 0.000000
78  -1.915771 -15.113378 -1.941059  1.570796 -0.000000 0.000000
end
