version 1
nodes
0 "ValveBiped.Bip01_Spine4" -1
1 "ValveBiped.Bip01_L_Clavicle" 0
2 "ValveBiped.Bip01_L_UpperArm" 1
3 "ValveBiped.Bip01_L_Forearm" 2
4 "ValveBiped.Bip01_L_Hand" 3
5 "ValveBiped.Bip01_L_Finger4" 4
6 "ValveBiped.Bip01_L_Finger41" 5
7 "ValveBiped.Bip01_L_Finger42" 6
8 "ValveBiped.Bip01_L_Finger3" 4
9 "ValveBiped.Bip01_L_Finger31" 8
10 "ValveBiped.Bip01_L_Finger32" 9
11 "ValveBiped.Bip01_L_Finger2" 4
12 "ValveBiped.Bip01_L_Finger21" 11
13 "ValveBiped.Bip01_L_Finger22" 12
14 "ValveBiped.Bip01_L_Finger1" 4
15 "ValveBiped.Bip01_L_Finger11" 14
16 "ValveBiped.Bip01_L_Finger12" 15
17 "ValveBiped.Bip01_L_Finger0" 4
18 "ValveBiped.Bip01_L_Finger01" 17
19 "ValveBiped.Bip01_L_Finger02" 18
20 "ValveBiped.Bip01_L_Ulna" 3
21 "ValveBiped.Bip01_L_Wrist" 3
22 "rig_l_upperarm" 1
23 "rig_l_forearm" 22
24 "rig_d_l_forearm" 23
25 "rig_d_l_upperarm" 22
26 "ValveBiped.Bip01_R_Clavicle" 0
27 "ValveBiped.Bip01_R_UpperArm" 26
28 "ValveBiped.Bip01_R_Forearm" 27
29 "ValveBiped.Bip01_R_Hand" 28
30 "ValveBiped.Bip01_R_Finger4" 29
31 "ValveBiped.Bip01_R_Finger41" 30
32 "ValveBiped.Bip01_R_Finger42" 31
33 "ValveBiped.Bip01_R_Finger3" 29
34 "ValveBiped.Bip01_R_Finger31" 33
35 "ValveBiped.Bip01_R_Finger32" 34
36 "ValveBiped.Bip01_R_Finger2" 29
37 "ValveBiped.Bip01_R_Finger21" 36
38 "ValveBiped.Bip01_R_Finger22" 37
39 "ValveBiped.Bip01_R_Finger1" 29
40 "ValveBiped.Bip01_R_Finger11" 39
41 "ValveBiped.Bip01_R_Finger12" 40
42 "ValveBiped.Bip01_R_Finger0" 29
43 "ValveBiped.Bip01_R_Finger01" 42
44 "ValveBiped.Bip01_R_Finger02" 43
45 "ValveBiped.Bip01_R_Ulna" 28
46 "ValveBiped.Bip01_R_Wrist" 28
47 "rig_r_upperarm" 26
48 "rig_r_forearm" 47
49 "rig_d_r_forearm" 48
50 "rig_d_r_upperarm" 47
51 "rig_r_hand" -1
52 "rig_d_r_hand" 51
53 "rig_d_r_wrist" 52
54 "rig_l_hand" -1
55 "rig_d_l_hand" 54
56 "rig_d_l_wrist" 54
57 "rig_l_pole" -1
58 "rig_r_pole" -1
59 "rig_l_clavicle" -1
60 "rig_d_l_clavicle" 59
61 "rig_r_clavicle" -1
62 "rig_d_r_clavicle" 61
63 "Camera" -1
64 "body" -1
65 "trigger" 64
66 "bolt" 64
67 "barrel" 64
68 "magrel" 64
69 "chandle" 64
70 "boltrelease" 64
71 "laseradj" 64
72 "mag" -1
73 "bullet1" 72
74 "bullet2" 72
75 "bullet3" 72
76 "round1" 72
77 "round2" 72
78 "round3" 72
79 "mag2" -1
end
skeleton
time 0
0  0.000006 0.000000 0.000000  -1.570800 -1.391899 -1.570792
1  2.033349 1.000767 1.937657  -1.544960 -1.855077 -0.198626
2  6.027515 -0.000326 0.000204  -1.583281 0.045956 -0.585171
3  11.692120 0.000528 -0.000741  -0.000018 -0.000000 -0.056697
4  11.481219 0.000216 -0.000752  1.576890 -0.106581 0.041970
5  3.859509 -0.142883 -1.192049  -0.468164 0.151540 -0.880272
6  1.312589 0.000013 0.000007  -0.000026 0.000045 -0.439738
7  0.729353 0.000051 0.000049  0.000017 0.000021 -0.244318
8  3.942146 0.046269 -0.431512  -0.151810 0.073212 -0.811101
9  1.539109 0.000083 0.000005  -0.000007 0.000021 -0.247841
10  1.196331 0.000143 0.000029  0.000012 0.000019 -0.430771
11  3.883508 -0.047272 0.431381  0.085898 0.021851 -0.587925
12  1.719575 -0.000028 0.000015  0.000015 0.005519 -0.366533
13  1.209179 0.000091 0.000012  0.000004 0.003092 -0.216437
14  3.859662 -0.138478 1.332410  0.354468 -0.042725 -0.531804
15  1.719453 -0.000009 0.000021  0.000029 0.004070 -0.363021
16  1.099675 0.000047 0.000006  0.000003 0.002579 -0.244381
17  0.805995 -0.349054 1.321254  -1.222687 -0.679194 -0.788886
18  1.789818 -0.000004 -0.000018  0.000012 -0.000024 0.228522
19  1.207011 -0.000013 -0.000045  0.000002 -0.000008 0.362858
20  5.740637 0.000410 -0.000702  0.003119 0.000003 0.000071
21  11.481257 0.000262 -0.000831  0.004951 0.000185 -0.001480
22  6.027524 -0.000330 0.000203  0.059584 -2.453119 -2.193916
23  0.000001 11.692101 -0.000006  -0.043310 -0.000838 -0.036607
24  0.000003 0.000009 0.000001  0.868996 -0.000031 1.570739
25  -0.000000 -0.000012 -0.000001  0.868957 0.000002 1.570712
26  2.033355 1.000772 -1.937609  1.473131 1.855076 -0.198627
27  6.027508 -0.000258 -0.000237  1.639678 -0.005938 -0.586605
28  11.691988 0.000145 0.000867  -0.000046 -0.000001 -0.056062
29  11.481175 0.000050 0.000829  -1.565092 0.106516 0.042004
30  3.859437 -0.132786 1.193062  0.466291 -0.158048 -0.878829
31  1.312561 0.000025 -0.000001  0.000011 -0.000044 -0.439710
32  0.729343 0.000065 -0.000028  -0.000023 -0.000019 -0.244285
33  3.942049 0.050108 0.430997  0.150090 -0.079180 -0.810199
34  1.539095 0.000009 -0.000000  0.000010 -0.000008 -0.247820
35  1.196298 0.000074 -0.000003  -0.000007 -0.000009 -0.430783
36  3.883413 -0.050504 -0.431087  -0.085915 -0.026391 -0.587671
37  1.719565 -0.000079 -0.000003  -0.000006 -0.007962 -0.366483
38  1.209196 0.000035 0.000011  0.000002 -0.004460 -0.216413
39  3.859587 -0.149112 -1.331323  -0.354446 0.038580 -0.531963
40  1.719414 -0.000101 -0.000035  -0.000028 -0.006585 -0.363032
41  1.099673 0.000024 0.000006  0.000004 -0.004187 -0.244346
42  0.805980 -0.359856 -1.318338  1.221444 0.673631 -0.793566
43  1.789782 -0.000009 -0.000044  -0.000028 0.000031 0.228552
44  1.206996 -0.000006 0.000005  -0.000017 0.000020 0.362911
45  5.740572 0.000055 0.000723  0.002082 -0.000014 0.000021
46  11.481179 0.000045 0.000935  -0.000025 -0.000087 -0.001749
47  6.027515 -0.000273 -0.000237  0.007374 -0.632955 -2.161837
48  -0.000000 11.691975 -0.000006  -0.042810 0.000798 0.036188
49  0.000003 -0.000003 -0.000000  2.272569 -0.000041 1.570856
50  -0.000007 -0.000015 0.000005  2.272644 -0.000030 1.570865
51  -22.676567 -0.984331 -17.554111  -1.605366 2.379717 -0.041994
52  0.000001 0.000002 -0.000000  0.008153 -0.000259 0.000009
53  -0.000000 -0.000001 0.000000  1.565115 0.043565 -0.106862
54  22.676517 -0.984221 -17.554199  1.605712 0.761853 0.042358
55  0.000001 -0.000003 -0.000000  0.000000 -0.000000 -0.000002
56  0.000032 0.000027 0.000001  -1.571901 -0.044449 -0.106509
57  15.265023 8.339654 -8.787539  1.570796 -0.000000 0.000000
58  -15.265000 8.339654 -8.787539  1.570796 -0.000000 0.000000
59  1.941978 -1.346989 1.821586  1.570796 -0.000000 0.000000
60  -0.004311 0.001230 -0.000371  0.006898 -0.005534 -0.284229
61  -1.937603 -1.346625 1.822824  1.570796 -0.000000 0.000000
62  0.000000 0.000000 0.000000  -0.078727 -3.136056 0.284226
63  0.000000 0.000000 0.000000  1.570796 -0.000000 0.000000
64  -3.867668 -7.481349 -6.398460  1.570796 -0.000000 0.000000
65  0.000000 0.106749 0.631995  0.000000 -0.000000 0.000000
66  0.000000 0.621414 -1.027760  0.000000 -0.000000 0.000000
67  0.000000 0.532204 8.683752  0.000000 -0.000000 0.000000
68  -0.000000 -1.186305 0.340613  0.000000 -0.000000 0.000000
69  0.000000 1.996277 -5.696260  0.000000 -0.000000 0.000000
70  0.000000 0.111713 1.276771  0.000000 -0.000000 0.000000
71  -1.117961 0.703408 5.154790  0.000000 -0.000000 0.000000
72  -3.867669 -7.060684 -9.600098  1.570796 -0.000000 0.000000
73  0.036712 3.547556 -0.615411  0.000000 -0.000000 0.000000
74  -0.076920 3.276581 -0.615409  0.000000 -0.000000 0.000000
75  0.045456 3.053679 -0.615410  0.000000 -0.000000 0.000000
76  0.000000 1.834484 -0.723263  0.000000 -0.000000 0.000000
77  0.000000 1.834484 -0.560888  0.000000 -0.000000 0.000000
78  0.000000 1.834484 -0.409514  0.000000 -0.000000 0.000000
79  -3.867669 10.247787 -14.916825  1.570796 -0.000000 0.000000
end
triangles
lowpoly_metal
0  -4.364984 -13.763054 -6.966367  0.000000 -0.866032 -0.499988  0.071067 0.696213 1 64 1.000000
0  -3.370350 -13.694583 -7.084963  0.000000 -0.866032 -0.499988  0.071109 0.696213 1 64 1.000000
0  -3.370350 -13.763054 -6.966367  0.000000 -0.866032 -0.499988  0.071109 0.696255 1 64 1.000000
lowpoly_metal
0  -3.370350 -13.694583 -7.084963  0.000000 0.000000 -1.000000  0.071067 0.696213 1 64 1.000000
0  -4.364984 -13.557639 -7.084963  0.000000 0.000000 -1.000000  0.071109 0.696213 1 64 1.000000
0  -3.370351 -13.557639 -7.084963  0.000000 0.000000 -1.000000  0.071109 0.696255 1 64 1.000000
lowpoly_metal
0  -4.364984 -13.557639 -7.084963  0.000000 0.866026 -0.499999  0.071067 0.696213 1 64 1.000000
0  -3.370351 -13.489167 -6.966367  0.000000 0.866026 -0.499999  0.071109 0.696213 1 64 1.000000
0  -3.370351 -13.557639 -7.084963  0.000000 0.866026 -0.499999  0.071109 0.696255 1 64 1.000000
lowpoly_metal
0  -4.364984 -13.489167 -6.966367  0.000000 0.866024 0.500002  0.071067 0.696213 1 64 1.000000
0  -3.370351 -13.557639 -6.847772  0.000000 0.866024 0.500002  0.071109 0.696213 1 64 1.000000
0  -3.370351 -13.489167 -6.966367  0.000000 0.866024 0.500002  0.071109 0.696255 1 64 1.000000
lowpoly_metal
0  -4.364984 -13.763054 -6.966367  -1.000000 0.000000 0.000000  0.071067 0.696213 1 64 1.000000
0  -4.364984 -13.557639 -6.847772  -1.000000 0.000000 0.000000  0.071109 0.696213 1 64 1.000000
0  -4.364984 -13.694583 -7.084963  -1.000000 0.000000 0.000000  0.071109 0.696255 1 64 1.000000
lowpoly_metal
0  -4.364984 -13.557639 -6.847772  0.000000 0.000000 1.000000  0.071067 0.696213 1 64 1.000000
0  -3.370350 -13.694583 -6.847772  0.000000 0.000000 1.000000  0.071109 0.696213 1 64 1.000000
0  -3.370351 -13.557639 -6.847772  0.000000 0.000000 1.000000  0.071109 0.696255 1 64 1.000000
lowpoly_metal
0  -4.364984 -13.694583 -6.847772  0.000000 -0.866024 0.500002  0.071067 0.696213 1 64 1.000000
0  -3.370350 -13.763054 -6.966367  0.000000 -0.866024 0.500002  0.071109 0.696213 1 64 1.000000
0  -3.370350 -13.694583 -6.847772  0.000000 -0.866024 0.500002  0.071109 0.696255 1 64 1.000000
lowpoly_metal
0  -3.370350 -13.694583 -7.084963  1.000000 0.000004 0.000000  0.071067 0.696213 1 64 1.000000
0  -3.370351 -13.557639 -6.847772  1.000000 0.000004 0.000000  0.071109 0.696213 1 64 1.000000
0  -3.370350 -13.694583 -6.847772  1.000000 0.000004 0.000000  0.071109 0.696255 1 64 1.000000
lowpoly_plastic
0  -4.334239 -13.858754 -6.966367  0.000000 -0.866023 -0.500003  0.004460 0.766101 1 64 1.000000
0  -3.401096 -13.742433 -7.167841  0.000000 -0.866023 -0.500003  0.004460 0.766101 1 64 1.000000
0  -3.401096 -13.858754 -6.966367  0.000000 -0.866023 -0.500003  0.004460 0.766101 1 64 1.000000
lowpoly_plastic
0  -4.334239 -13.742433 -7.167841  0.000000 0.000000 -1.000000  0.004460 0.766101 1 64 1.000000
0  -3.401096 -13.509789 -7.167841  0.000000 0.000000 -1.000000  0.004460 0.766101 1 64 1.000000
0  -3.401096 -13.742433 -7.167841  0.000000 0.000000 -1.000000  0.004460 0.766101 1 64 1.000000
lowpoly_plastic
0  -4.334239 -13.509789 -7.167841  0.000000 0.866023 -0.500003  0.004460 0.766101 1 64 1.000000
0  -3.401096 -13.393468 -6.966367  0.000000 0.866023 -0.500003  0.004460 0.766101 1 64 1.000000
0  -3.401096 -13.509789 -7.167841  0.000000 0.866023 -0.500003  0.004460 0.766101 1 64 1.000000
lowpoly_plastic
0  -4.334239 -13.393468 -6.966367  0.000000 0.866027 0.499997  0.004460 0.766101 1 64 1.000000
0  -3.401096 -13.509789 -6.764893  0.000000 0.866027 0.499997  0.004460 0.766101 1 64 1.000000
0  -3.401096 -13.393468 -6.966367  0.000000 0.866027 0.499997  0.004460 0.766101 1 64 1.000000
lowpoly_plastic
0  -4.334239 -13.858754 -6.966367  -1.000000 -0.000003 -0.000001  0.004460 0.766101 1 64 1.000000
0  -4.334239 -13.509789 -6.764893  -1.000000 -0.000003 -0.000001  0.004460 0.766101 1 64 1.000000
0  -4.334239 -13.742433 -7.167841  -1.000000 -0.000003 -0.000001  0.004460 0.766101 1 64 1.000000
lowpoly_plastic
0  -4.334239 -13.509789 -6.764893  0.000000 0.000000 1.000000  0.004460 0.766101 1 64 1.000000
0  -3.401096 -13.742433 -6.764893  0.000000 0.000000 1.000000  0.004460 0.766101 1 64 1.000000
0  -3.401096 -13.509789 -6.764893  0.000000 0.000000 1.000000  0.004460 0.766101 1 64 1.000000
lowpoly_plastic
0  -4.334239 -13.742433 -6.764893  0.000000 -0.866023 0.500003  0.004460 0.766101 1 64 1.000000
0  -3.401096 -13.858754 -6.966367  0.000000 -0.866023 0.500003  0.004460 0.766101 1 64 1.000000
0  -3.401096 -13.742433 -6.764893  0.000000 -0.866023 0.500003  0.004460 0.766101 1 64 1.000000
lowpoly_plastic
0  -3.401096 -13.742433 -7.167841  1.000000 0.000003 0.000000  0.004460 0.766101 1 64 1.000000
0  -3.401096 -13.509789 -6.764893  1.000000 0.000003 0.000000  0.004460 0.766101 1 64 1.000000
0  -3.401096 -13.742433 -6.764893  1.000000 0.000003 0.000000  0.004460 0.766101 1 64 1.000000
lowpoly_plastic
0  -3.566826 -10.787411 -6.444107  1.000000 0.000000 0.000001  0.004460 0.766101 1 64 1.000000
0  -3.566826 -11.627881 -6.444106  1.000000 0.000000 0.000001  0.004460 0.766101 1 64 1.000000
0  -3.566825 -11.685803 -6.771942  1.000000 0.000000 0.000001  0.004460 0.766101 1 64 1.000000
lowpoly_plastic
0  -4.168509 -11.627881 -6.444106  -1.000000 0.000000 -0.000001  0.004460 0.766101 1 64 1.000000
0  -4.168509 -10.787411 -6.444107  -1.000000 0.000000 -0.000001  0.004460 0.766101 1 64 1.000000
0  -4.168509 -11.685803 -6.771942  -1.000000 0.000000 -0.000001  0.004460 0.766101 1 64 1.000000
lowpoly_plastic
0  -4.168509 -10.728606 -6.502911  0.000000 1.000000 0.000000  0.004460 0.766101 1 64 1.000000
0  -3.566826 -10.728606 -6.771943  0.000000 1.000000 0.000000  0.004460 0.766101 1 64 1.000000
0  -4.168509 -10.728606 -6.771943  0.000000 1.000000 0.000000  0.004460 0.766101 1 64 1.000000
lowpoly_plastic
0  -3.566825 -11.685803 -6.771942  0.000000 -0.000001 -1.000000  0.004460 0.766101 1 64 1.000000
0  -4.168509 -10.728606 -6.771943  0.000000 -0.000001 -1.000000  0.004460 0.766101 1 64 1.000000
0  -3.566826 -10.728606 -6.771943  0.000000 -0.000001 -1.000000  0.004460 0.766101 1 64 1.000000
lowpoly_plastic
0  -3.566826 -10.787411 -6.444107  0.000000 0.707105 0.707109  0.004460 0.766101 1 64 1.000000
0  -4.168509 -10.728606 -6.502911  0.000000 0.707105 0.707109  0.004460 0.766101 1 64 1.000000
0  -4.168509 -10.787411 -6.444107  0.000000 0.707105 0.707109  0.004460 0.766101 1 64 1.000000
lowpoly_plastic
0  -3.566826 -10.787411 -6.444107  0.000000 0.000001 1.000000  0.004460 0.766101 1 64 1.000000
0  -4.168509 -11.627881 -6.444106  0.000000 0.000001 1.000000  0.004460 0.766101 1 64 1.000000
0  -3.566826 -11.627881 -6.444106  0.000000 0.000001 1.000000  0.004460 0.766101 1 64 1.000000
lowpoly_plastic
0  -4.168509 -11.627881 -6.444106  0.000000 -0.707104 0.707109  0.004460 0.766101 1 64 1.000000
0  -3.566825 -11.685803 -6.502028  0.000000 -0.707104 0.707109  0.004460 0.766101 1 64 1.000000
0  -3.566826 -11.627881 -6.444106  0.000000 -0.707104 0.707109  0.004460 0.766101 1 64 1.000000
lowpoly_plastic
0  -3.566825 -11.685803 -6.502028  0.000000 -1.000000 0.000000  0.004460 0.766101 1 64 1.000000
0  -4.168509 -11.685803 -6.771942  0.000000 -1.000000 0.000000  0.004460 0.766101 1 64 1.000000
0  -3.566825 -11.685803 -6.771942  0.000000 -1.000000 0.000000  0.004460 0.766101 1 64 1.000000
lowpoly_metal
0  -4.107366 -10.341246 -6.539033  0.000000 0.958053 0.286590  0.076493 0.625439 1 64 1.000000
0  -3.627970 -10.263624 -6.798517  0.000000 0.958053 0.286590  0.076519 0.625439 1 64 1.000000
0  -4.107366 -10.263624 -6.798517  0.000000 0.958053 0.286590  0.076519 0.625465 1 64 1.000000
lowpoly_metal
0  -3.627970 -10.341246 -6.539033  1.000000 0.000000 0.000000  0.076493 0.625439 1 64 1.000000
0  -3.627969 -11.745646 -6.798519  1.000000 0.000000 0.000000  0.076519 0.625439 1 64 1.000000
0  -3.627970 -10.263624 -6.798517  1.000000 0.000000 0.000000  0.076519 0.625465 1 64 1.000000
lowpoly_metal
0  -3.627969 -11.745646 -6.798519  0.000000 -1.000000 0.000000  0.076493 0.625439 1 64 1.000000
0  -4.107365 -11.745646 -6.539032  0.000000 -1.000000 0.000000  0.076519 0.625439 1 64 1.000000
0  -4.107365 -11.745646 -6.798519  0.000000 -1.000000 0.000000  0.076519 0.625465 1 64 1.000000
lowpoly_metal
0  -4.107365 -11.745646 -6.798519  -1.000000 0.000000 -0.000000  0.076493 0.625439 1 64 1.000000
0  -4.107366 -10.341246 -6.539033  -1.000000 0.000000 -0.000000  0.076519 0.625439 1 64 1.000000
0  -4.107366 -10.263624 -6.798517  -1.000000 0.000000 -0.000000  0.076519 0.625465 1 64 1.000000
lowpoly_metal
0  -3.627969 -11.745646 -6.798519  0.000000 0.000001 -1.000000  0.076493 0.625439 1 64 1.000000
0  -4.107366 -10.263624 -6.798517  0.000000 0.000001 -1.000000  0.076519 0.625439 1 64 1.000000
0  -3.627970 -10.263624 -6.798517  0.000000 0.000001 -1.000000  0.076519 0.625465 1 64 1.000000
lowpoly_metal
0  -3.627970 -10.341246 -6.539033  0.000000 0.000001 1.000000  0.076493 0.625439 1 64 1.000000
0  -4.107365 -11.745646 -6.539032  0.000000 0.000001 1.000000  0.076519 0.625439 1 64 1.000000
0  -3.627969 -11.745646 -6.539032  0.000000 0.000001 1.000000  0.076519 0.625465 1 64 1.000000
lowpoly_plastic
0  -4.302447 -13.676492 -6.636583  -1.000000 0.000000 0.000000  0.006023 0.737313 1 64 1.000000
0  -4.302447 -13.884936 -6.660915  -1.000000 0.000000 0.000000  0.006222 0.737313 1 64 1.000000
0  -4.302447 -13.676492 -6.574854  -1.000000 0.000000 0.000000  0.006222 0.737512 1 64 1.000000
lowpoly_plastic
0  -3.867667 -11.713251 -6.446990  0.000000 -0.000000 1.000000  0.006023 0.737313 1 64 1.000000
0  -4.198402 -13.676492 -6.446991  0.000000 -0.000000 1.000000  0.006222 0.737313 1 64 1.000000
0  -3.867667 -13.676492 -6.446991  0.000000 -0.000000 1.000000  0.006222 0.737512 1 64 1.000000
lowpoly_plastic
0  -4.302447 -13.676492 -6.773876  -1.000000 0.000000 0.000001  0.006023 0.737313 1 64 1.000000
0  -4.302448 -11.708046 -7.289231  -1.000000 0.000000 0.000001  0.006222 0.737313 1 64 1.000000
0  -4.302447 -13.676492 -7.289231  -1.000000 0.000000 0.000001  0.006222 0.737512 1 64 1.000000
lowpoly_plastic
0  -4.198402 -13.676492 -6.446991  0.000000 -0.381629 0.924316  0.006023 0.737313 1 64 1.000000
0  -3.867667 -13.884936 -6.533053  0.000000 -0.381629 0.924316  0.006222 0.737313 1 64 1.000000
0  -3.867667 -13.676492 -6.446991  0.000000 -0.381629 0.924316  0.006222 0.737512 1 64 1.000000
lowpoly_plastic
0  -3.867667 -13.676492 -7.518452  0.000000 -0.381626 -0.924317  0.006023 0.737313 1 64 1.000000
0  -4.115926 -13.884936 -7.432390  0.000000 -0.381626 -0.924317  0.006222 0.737313 1 64 1.000000
0  -4.115926 -13.676492 -7.518452  0.000000 -0.381626 -0.924317  0.006222 0.737512 1 64 1.000000
lowpoly_plastic
0  -3.867667 -13.884936 -7.432390  0.000000 -0.780183 -0.625552  0.006023 0.737313 1 64 1.000000
0  -4.115926 -14.075255 -7.195028  0.000000 -0.780183 -0.625552  0.006222 0.737313 1 64 1.000000
0  -4.115926 -13.884936 -7.432390  0.000000 -0.780183 -0.625552  0.006222 0.737512 1 64 1.000000
lowpoly_plastic
0  -4.302447 -13.884936 -6.807425  -1.000000 0.000000 0.000000  0.006023 0.737313 1 64 1.000000
0  -4.302447 -14.075255 -6.845549  -1.000000 0.000000 0.000000  0.006222 0.737313 1 64 1.000000
0  -4.302447 -13.884936 -6.692189  -1.000000 0.000000 0.000000  0.006222 0.737512 1 64 1.000000
lowpoly_plastic
0  -4.302448 -10.068747 -7.289231  0.000000 0.935612 0.353031  0.006023 0.737313 1 64 1.000000
0  -3.867668 -10.263203 -6.773876  0.000000 0.935612 0.353031  0.006222 0.737313 1 64 1.000000
0  -3.867668 -9.982256 -7.518452  0.000000 0.935612 0.353031  0.006222 0.737512 1 64 1.000000
lowpoly_plastic
0  -4.302447 -13.676492 -6.773876  -1.000000 -0.000001 0.000000  0.006023 0.737313 1 64 1.000000
0  -4.302447 -13.884936 -6.692189  -1.000000 -0.000001 0.000000  0.006222 0.737313 1 64 1.000000
0  -4.302447 -13.676492 -6.636583  -1.000000 -0.000001 0.000000  0.006222 0.737512 1 64 1.000000
lowpoly_plastic
0  -4.302448 -11.708046 -7.289231  -1.000000 0.000000 0.000000  0.006023 0.737313 1 64 1.000000
0  -4.302448 -11.594497 -6.773876  -1.000000 0.000000 0.000000  0.006222 0.737313 1 64 1.000000
0  -4.302448 -11.578571 -7.289231  -1.000000 0.000000 0.000000  0.006222 0.737512 1 64 1.000000
lowpoly_plastic
0  -4.115926 -11.571488 -7.518452  0.000000 0.000000 -1.000000  0.006023 0.737313 1 64 1.000000
0  -3.867668 -9.982256 -7.518452  0.000000 0.000000 -1.000000  0.006222 0.737313 1 64 1.000000
0  -3.867668 -11.571488 -7.518452  0.000000 0.000000 -1.000000  0.006222 0.737512 1 64 1.000000
lowpoly_plastic
0  -3.867667 -13.676492 -7.518452  0.000000 0.000000 -1.000000  0.006023 0.737313 1 64 1.000000
0  -4.115926 -11.713251 -7.518452  0.000000 0.000000 -1.000000  0.006222 0.737313 1 64 1.000000
0  -3.867668 -11.713251 -7.518452  0.000000 0.000000 -1.000000  0.006222 0.737512 1 64 1.000000
lowpoly_plastic
0  -4.302447 -13.676492 -6.773876  -1.000000 0.000000 0.000001  0.006023 0.737313 1 64 1.000000
0  -4.302447 -13.884936 -7.203171  -1.000000 0.000000 0.000001  0.006222 0.737313 1 64 1.000000
0  -4.302447 -13.884936 -6.807425  -1.000000 0.000000 0.000001  0.006222 0.737512 1 64 1.000000
lowpoly_plastic
0  -4.198402 -13.884936 -6.533053  0.000000 -0.780181 0.625553  0.006023 0.737313 1 64 1.000000
0  -3.867667 -14.075255 -6.770413  0.000000 -0.780181 0.625553  0.006222 0.737313 1 64 1.000000
0  -3.867667 -13.884936 -6.533053  0.000000 -0.780181 0.625553  0.006222 0.737512 1 64 1.000000
lowpoly_plastic
0  -3.867667 -14.075255 -6.845549  0.000000 -1.000000 0.000015  0.006023 0.737313 1 64 1.000000
0  -4.198402 -14.075255 -6.770413  0.000000 -1.000000 0.000015  0.006222 0.737313 1 64 1.000000
0  -4.302447 -14.075255 -6.845549  0.000000 -1.000000 0.000015  0.006222 0.737512 1 64 1.000000
lowpoly_plastic
0  -3.867667 -14.075255 -6.845549  0.000000 -1.000000 0.000000  0.006023 0.737313 1 64 1.000000
0  -4.302447 -14.075255 -6.899957  0.000000 -1.000000 0.000000  0.006222 0.737313 1 64 1.000000
0  -3.867667 -14.075255 -6.899957  0.000000 -1.000000 0.000000  0.006222 0.737512 1 64 1.000000
lowpoly_plastic
0  -4.302447 -13.676492 -6.773876  -1.000000 0.000000 -0.000000  0.006023 0.737313 1 64 1.000000
0  -4.302447 -11.713251 -6.636584  -1.000000 0.000000 -0.000000  0.006222 0.737313 1 64 1.000000
0  -4.302447 -11.695629 -6.742409  -1.000000 0.000000 -0.000000  0.006222 0.737512 1 64 1.000000
lowpoly_plastic
0  -4.302447 -11.713251 -6.636584  0.000000 0.986417 0.164262  0.006023 0.737313 1 64 1.000000
0  -3.867667 -11.695629 -6.742409  0.000000 0.986417 0.164262  0.006222 0.737313 1 64 1.000000
0  -4.302447 -11.695629 -6.742409  0.000000 0.986417 0.164262  0.006222 0.737512 1 64 1.000000
lowpoly_plastic
0  -3.867667 -11.695629 -6.742409  0.000000 0.297104 0.954845  0.006023 0.737313 1 64 1.000000
0  -4.302448 -11.594497 -6.773876  0.000000 0.297104 0.954845  0.006222 0.737313 1 64 1.000000
0  -4.302447 -11.695629 -6.742409  0.000000 0.297104 0.954845  0.006222 0.737512 1 64 1.000000
lowpoly_plastic
0  -3.867668 -11.594497 -6.773876  0.000000 0.000000 1.000000  0.006023 0.737313 1 64 1.000000
0  -4.302448 -10.263203 -6.773876  0.000000 0.000000 1.000000  0.006222 0.737313 1 64 1.000000
0  -4.302448 -11.594497 -6.773876  0.000000 0.000000 1.000000  0.006222 0.737512 1 64 1.000000
lowpoly_plastic
0  -4.302448 -11.578571 -7.289231  -1.000000 0.000000 0.000000  0.006023 0.737313 1 64 1.000000
0  -4.302448 -10.263203 -6.773876  -1.000000 0.000000 0.000000  0.006222 0.737313 1 64 1.000000
0  -4.302448 -10.068747 -7.289231  -1.000000 0.000000 0.000000  0.006222 0.737512 1 64 1.000000
lowpoly_plastic
0  -3.867667 -14.075255 -6.899957  0.000000 -1.000000 -0.000004  0.006023 0.737313 1 64 1.000000
0  -4.302447 -14.075255 -6.965808  0.000000 -1.000000 -0.000004  0.006222 0.737313 1 64 1.000000
0  -4.115926 -14.075255 -7.195028  0.000000 -1.000000 -0.000004  0.006222 0.737512 1 64 1.000000
lowpoly_plastic
0  -4.302447 -13.884936 -6.807425  -1.000000 0.000000 0.000000  0.006023 0.737313 1 64 1.000000
0  -4.302447 -14.075255 -6.965808  -1.000000 0.000000 0.000000  0.006222 0.737313 1 64 1.000000
0  -4.302447 -14.075255 -6.899957  -1.000000 0.000000 0.000000  0.006222 0.737512 1 64 1.000000
lowpoly_plastic
0  -4.302447 -13.676492 -6.574854  -1.000000 -0.000001 0.000000  0.006023 0.737313 1 64 1.000000
0  -4.302447 -11.713251 -6.636584  -1.000000 -0.000001 0.000000  0.006222 0.737313 1 64 1.000000
0  -4.302447 -13.676492 -6.636583  -1.000000 -0.000001 0.000000  0.006222 0.737512 1 64 1.000000
lowpoly_plastic
0  -4.115926 -11.713251 -7.518452  -0.775650 -0.000000 -0.631163  0.006023 0.737313 1 64 1.000000
0  -4.302447 -13.676492 -7.289231  -0.775650 -0.000000 -0.631163  0.006222 0.737313 1 64 1.000000
0  -4.302448 -11.708046 -7.289231  -0.775650 -0.000000 -0.631163  0.006222 0.737512 1 64 1.000000
lowpoly_plastic
0  -4.115926 -13.884936 -7.432390  -0.750584 -0.252170 -0.610765  0.006023 0.737313 1 64 1.000000
0  -4.302447 -13.676492 -7.289231  -0.750584 -0.252170 -0.610765  0.006222 0.737313 1 64 1.000000
0  -4.115926 -13.676492 -7.518452  -0.750584 -0.252170 -0.610765  0.006222 0.737512 1 64 1.000000
lowpoly_plastic
0  -4.115926 -14.075255 -7.195028  -0.609474 -0.618531 -0.495944  0.006023 0.737313 1 64 1.000000
0  -4.302447 -13.884936 -7.203171  -0.609474 -0.618531 -0.495944  0.006222 0.737313 1 64 1.000000
0  -4.115926 -13.884936 -7.432390  -0.609474 -0.618531 -0.495944  0.006222 0.737512 1 64 1.000000
lowpoly_plastic
0  -4.115926 -11.713251 -7.518452  -0.775654 0.000000 -0.631159  0.006023 0.737313 1 64 1.000000
0  -4.302448 -11.578571 -7.289231  -0.775654 0.000000 -0.631159  0.006222 0.737313 1 64 1.000000
0  -4.115926 -11.571488 -7.518452  -0.775654 0.000000 -0.631159  0.006222 0.737512 1 64 1.000000
lowpoly_plastic
0  -4.115926 -11.571488 -7.518452  -0.775650 0.000000 -0.631163  0.006023 0.737313 1 64 1.000000
0  -4.302448 -10.068747 -7.289231  -0.775650 0.000000 -0.631163  0.006222 0.737313 1 64 1.000000
0  -4.115926 -9.982256 -7.518452  -0.775650 0.000000 -0.631163  0.006222 0.737512 1 64 1.000000
lowpoly_plastic
0  -4.115926 -11.713251 -7.518452  0.000000 0.000000 -1.000000  0.006023 0.737313 1 64 1.000000
0  -3.867668 -11.571488 -7.518452  0.000000 0.000000 -1.000000  0.006222 0.737313 1 64 1.000000
0  -3.867668 -11.713251 -7.518452  0.000000 0.000000 -1.000000  0.006222 0.737512 1 64 1.000000
lowpoly_plastic
0  -4.198402 -11.713251 -6.446990  -0.775652 -0.000000 0.631161  0.006023 0.737313 1 64 1.000000
0  -4.302447 -13.676492 -6.574854  -0.775652 -0.000000 0.631161  0.006222 0.737313 1 64 1.000000
0  -4.198402 -13.676492 -6.446991  -0.775652 -0.000000 0.631161  0.006222 0.737512 1 64 1.000000
lowpoly_plastic
0  -4.302447 -13.676492 -6.574854  -0.750585 -0.252169 0.610765  0.006023 0.737313 1 64 1.000000
0  -4.198402 -13.884936 -6.533053  -0.750585 -0.252169 0.610765  0.006222 0.737313 1 64 1.000000
0  -4.198402 -13.676492 -6.446991  -0.750585 -0.252169 0.610765  0.006222 0.737512 1 64 1.000000
lowpoly_plastic
0  -4.302447 -13.884936 -6.660915  -0.609479 -0.618525 0.495945  0.006023 0.737313 1 64 1.000000
0  -4.198402 -14.075255 -6.770413  -0.609479 -0.618525 0.495945  0.006222 0.737313 1 64 1.000000
0  -4.198402 -13.884936 -6.533053  -0.609479 -0.618525 0.495945  0.006222 0.737512 1 64 1.000000
lowpoly_plastic
0  -4.198402 -11.713251 -6.446990  0.000000 1.000000 0.000000  0.006023 0.737313 1 64 1.000000
0  -3.867667 -11.713251 -6.446990  0.000000 1.000000 0.000000  0.006222 0.737313 1 64 1.000000
0  -3.867667 -11.713251 -6.636584  0.000000 1.000000 0.000000  0.006222 0.737512 1 64 1.000000
lowpoly_plastic
0  -3.432887 -13.884936 -6.660915  1.000000 0.000000 0.000000  0.006023 0.737313 1 64 1.000000
0  -3.432887 -13.676492 -6.636583  1.000000 0.000000 0.000000  0.006222 0.737313 1 64 1.000000
0  -3.432887 -13.676492 -6.574854  1.000000 0.000000 0.000000  0.006222 0.737512 1 64 1.000000
lowpoly_plastic
0  -3.536932 -13.676492 -6.446991  0.000000 -0.000000 1.000000  0.006023 0.737313 1 64 1.000000
0  -3.867667 -11.713251 -6.446990  0.000000 -0.000000 1.000000  0.006222 0.737313 1 64 1.000000
0  -3.867667 -13.676492 -6.446991  0.000000 -0.000000 1.000000  0.006222 0.737512 1 64 1.000000
lowpoly_plastic
0  -3.432888 -11.708046 -7.289231  1.000000 0.000000 0.000000  0.006023 0.737313 1 64 1.000000
0  -3.432887 -13.676492 -6.773876  1.000000 0.000000 0.000000  0.006222 0.737313 1 64 1.000000
0  -3.432887 -13.676492 -7.289231  1.000000 0.000000 0.000000  0.006222 0.737512 1 64 1.000000
lowpoly_plastic
0  -3.867667 -13.884936 -6.533053  0.000000 -0.381630 0.924315  0.006023 0.737313 1 64 1.000000
0  -3.536932 -13.676492 -6.446991  0.000000 -0.381630 0.924315  0.006222 0.737313 1 64 1.000000
0  -3.867667 -13.676492 -6.446991  0.000000 -0.381630 0.924315  0.006222 0.737512 1 64 1.000000
lowpoly_plastic
0  -3.432887 -13.884936 -6.660915  1.000000 0.000000 0.000000  0.006023 0.737313 1 64 1.000000
0  -3.432887 -14.075255 -6.845549  1.000000 0.000000 0.000000  0.006222 0.737313 1 64 1.000000
0  -3.432887 -13.884936 -6.692189  1.000000 0.000000 0.000000  0.006222 0.737512 1 64 1.000000
lowpoly_plastic
0  -3.619409 -13.884936 -7.432390  0.000000 -0.381626 -0.924317  0.006023 0.737313 1 64 1.000000
0  -3.867667 -13.676492 -7.518452  0.000000 -0.381626 -0.924317  0.006222 0.737313 1 64 1.000000
0  -3.619409 -13.676492 -7.518452  0.000000 -0.381626 -0.924317  0.006222 0.737512 1 64 1.000000
lowpoly_plastic
0  -3.619409 -14.075255 -7.195028  0.000000 -0.780179 -0.625556  0.006023 0.737313 1 64 1.000000
0  -3.867667 -13.884936 -7.432390  0.000000 -0.780179 -0.625556  0.006222 0.737313 1 64 1.000000
0  -3.619409 -13.884936 -7.432390  0.000000 -0.780179 -0.625556  0.006222 0.737512 1 64 1.000000
lowpoly_plastic
0  -3.432887 -14.075255 -6.845549  1.000000 0.000000 0.000000  0.006023 0.737313 1 64 1.000000
0  -3.432887 -13.884936 -6.807426  1.000000 0.000000 0.000000  0.006222 0.737313 1 64 1.000000
0  -3.432887 -13.884936 -6.692189  1.000000 0.000000 0.000000  0.006222 0.737512 1 64 1.000000
lowpoly_plastic
0  -3.867668 -10.263203 -6.773876  0.000000 0.935613 0.353027  0.006023 0.737313 1 64 1.000000
0  -3.432888 -10.263203 -6.773876  0.000000 0.935613 0.353027  0.006222 0.737313 1 64 1.000000
0  -3.432888 -10.068747 -7.289231  0.000000 0.935613 0.353027  0.006222 0.737512 1 64 1.000000
lowpoly_plastic
0  -3.432887 -13.884936 -6.692189  1.000000 0.000000 0.000000  0.006023 0.737313 1 64 1.000000
0  -3.432887 -13.676492 -6.773876  1.000000 0.000000 0.000000  0.006222 0.737313 1 64 1.000000
0  -3.432887 -13.676492 -6.636583  1.000000 0.000000 0.000000  0.006222 0.737512 1 64 1.000000
lowpoly_plastic
0  -3.432888 -11.708046 -7.289231  1.000000 0.000002 -0.000000  0.006023 0.737313 1 64 1.000000
0  -3.432888 -11.594497 -6.773876  1.000000 0.000002 -0.000000  0.006222 0.737313 1 64 1.000000
0  -3.432888 -11.695629 -6.742409  1.000000 0.000002 -0.000000  0.006222 0.737512 1 64 1.000000
lowpoly_plastic
0  -3.867668 -9.982256 -7.518452  0.000000 0.000000 -1.000000  0.006023 0.737313 1 64 1.000000
0  -3.619410 -11.571488 -7.518452  0.000000 0.000000 -1.000000  0.006222 0.737313 1 64 1.000000
0  -3.867668 -11.571488 -7.518452  0.000000 0.000000 -1.000000  0.006222 0.737512 1 64 1.000000
lowpoly_plastic
0  -3.619409 -11.713251 -7.518452  0.000000 0.000000 -1.000000  0.006023 0.737313 1 64 1.000000
0  -3.867667 -13.676492 -7.518452  0.000000 0.000000 -1.000000  0.006222 0.737313 1 64 1.000000
0  -3.867668 -11.713251 -7.518452  0.000000 0.000000 -1.000000  0.006222 0.737512 1 64 1.000000
lowpoly_plastic
0  -3.432887 -13.676492 -6.773876  1.000000 0.000000 0.000000  0.006023 0.737313 1 64 1.000000
0  -3.432887 -13.884936 -7.203172  1.000000 0.000000 0.000000  0.006222 0.737313 1 64 1.000000
0  -3.432887 -13.676492 -7.289231  1.000000 0.000000 0.000000  0.006222 0.737512 1 64 1.000000
lowpoly_plastic
0  -3.867667 -14.075255 -6.770413  0.000000 -0.780181 0.625554  0.006023 0.737313 1 64 1.000000
0  -3.536932 -13.884936 -6.533053  0.000000 -0.780181 0.625554  0.006222 0.737313 1 64 1.000000
0  -3.867667 -13.884936 -6.533053  0.000000 -0.780181 0.625554  0.006222 0.737512 1 64 1.000000
lowpoly_plastic
0  -3.432887 -14.075255 -6.845549  0.000000 -1.000000 0.000000  0.006023 0.737313 1 64 1.000000
0  -3.536932 -14.075255 -6.770413  0.000000 -1.000000 0.000000  0.006222 0.737313 1 64 1.000000
0  -3.867667 -14.075255 -6.845549  0.000000 -1.000000 0.000000  0.006222 0.737512 1 64 1.000000
lowpoly_plastic
0  -3.432887 -14.075255 -6.899957  0.000000 -1.000000 0.000000  0.006023 0.737313 1 64 1.000000
0  -3.867667 -14.075255 -6.845549  0.000000 -1.000000 0.000000  0.006222 0.737313 1 64 1.000000
0  -3.867667 -14.075255 -6.899957  0.000000 -1.000000 0.000000  0.006222 0.737512 1 64 1.000000
lowpoly_plastic
0  -3.432887 -13.676492 -6.773876  1.000000 0.000000 0.000000  0.006023 0.737313 1 64 1.000000
0  -3.432888 -11.713251 -6.636584  1.000000 0.000000 0.000000  0.006222 0.737313 1 64 1.000000
0  -3.432887 -13.676492 -6.636583  1.000000 0.000000 0.000000  0.006222 0.737512 1 64 1.000000
lowpoly_plastic
0  -3.867667 -11.695629 -6.742409  0.000000 0.986417 0.164262  0.006023 0.737313 1 64 1.000000
0  -3.432888 -11.713251 -6.636584  0.000000 0.986417 0.164262  0.006222 0.737313 1 64 1.000000
0  -3.432888 -11.695629 -6.742409  0.000000 0.986417 0.164262  0.006222 0.737512 1 64 1.000000
lowpoly_plastic
0  -3.432888 -11.594497 -6.773876  0.000000 0.297102 0.954846  0.006023 0.737313 1 64 1.000000
0  -3.867667 -11.695629 -6.742409  0.000000 0.297102 0.954846  0.006222 0.737313 1 64 1.000000
0  -3.432888 -11.695629 -6.742409  0.000000 0.297102 0.954846  0.006222 0.737512 1 64 1.000000
lowpoly_plastic
0  -3.432888 -10.263203 -6.773876  0.000000 0.000000 1.000000  0.006023 0.737313 1 64 1.000000
0  -3.867668 -11.594497 -6.773876  0.000000 0.000000 1.000000  0.006222 0.737313 1 64 1.000000
0  -3.432888 -11.594497 -6.773876  0.000000 0.000000 1.000000  0.006222 0.737512 1 64 1.000000
lowpoly_plastic
0  -3.432888 -11.578571 -7.289231  1.000000 0.000000 0.000000  0.006023 0.737313 1 64 1.000000
0  -3.432888 -10.263203 -6.773876  1.000000 0.000000 0.000000  0.006222 0.737313 1 64 1.000000
0  -3.432888 -11.594497 -6.773876  1.000000 0.000000 0.000000  0.006222 0.737512 1 64 1.000000
lowpoly_plastic
0  -3.432887 -14.075255 -6.965808  0.000000 -1.000000 0.000000  0.006023 0.737313 1 64 1.000000
0  -3.432887 -14.075255 -6.899957  0.000000 -1.000000 0.000000  0.006222 0.737313 1 64 1.000000
0  -3.867667 -14.075255 -6.899957  0.000000 -1.000000 0.000000  0.006222 0.737512 1 64 1.000000
lowpoly_plastic
0  -3.432887 -13.884936 -6.807426  1.000000 0.000002 0.000000  0.006023 0.737313 1 64 1.000000
0  -3.432887 -14.075255 -6.965808  1.000000 0.000002 0.000000  0.006222 0.737313 1 64 1.000000
0  -3.432887 -13.884936 -7.203172  1.000000 0.000002 0.000000  0.006222 0.737512 1 64 1.000000
lowpoly_plastic
0  -3.432887 -13.676492 -6.636583  1.000000 0.000000 0.000000  0.006023 0.737313 1 64 1.000000
0  -3.432888 -11.713251 -6.574854  1.000000 0.000000 0.000000  0.006222 0.737313 1 64 1.000000
0  -3.432887 -13.676492 -6.574854  1.000000 0.000000 0.000000  0.006222 0.737512 1 64 1.000000
lowpoly_plastic
0  -3.619409 -11.713251 -7.518452  0.775650 0.000000 -0.631164  0.006023 0.737313 1 64 1.000000
0  -3.432887 -13.676492 -7.289231  0.775650 0.000000 -0.631164  0.006222 0.737313 1 64 1.000000
0  -3.619409 -13.676492 -7.518452  0.775650 0.000000 -0.631164  0.006222 0.737512 1 64 1.000000
lowpoly_plastic
0  -3.432887 -13.676492 -7.289231  0.750584 -0.252170 -0.610765  0.006023 0.737313 1 64 1.000000
0  -3.619409 -13.884936 -7.432390  0.750584 -0.252170 -0.610765  0.006222 0.737313 1 64 1.000000
0  -3.619409 -13.676492 -7.518452  0.750584 -0.252170 -0.610765  0.006222 0.737512 1 64 1.000000
lowpoly_plastic
0  -3.432887 -13.884936 -7.203172  0.609472 -0.618533 -0.495944  0.006023 0.737313 1 64 1.000000
0  -3.619409 -14.075255 -7.195028  0.609472 -0.618533 -0.495944  0.006222 0.737313 1 64 1.000000
0  -3.619409 -13.884936 -7.432390  0.609472 -0.618533 -0.495944  0.006222 0.737512 1 64 1.000000
lowpoly_plastic
0  -3.432888 -11.578571 -7.289231  0.775652 0.000003 -0.631160  0.006023 0.737313 1 64 1.000000
0  -3.619409 -11.713251 -7.518452  0.775652 0.000003 -0.631160  0.006222 0.737313 1 64 1.000000
0  -3.619410 -11.571488 -7.518452  0.775652 0.000003 -0.631160  0.006222 0.737512 1 64 1.000000
lowpoly_plastic
0  -3.432888 -10.068747 -7.289231  0.775650 0.000000 -0.631163  0.006023 0.737313 1 64 1.000000
0  -3.619410 -11.571488 -7.518452  0.775650 0.000000 -0.631163  0.006222 0.737313 1 64 1.000000
0  -3.619410 -9.982256 -7.518452  0.775650 0.000000 -0.631163  0.006222 0.737512 1 64 1.000000
lowpoly_plastic
0  -3.867668 -11.571488 -7.518452  0.000000 0.000000 -1.000000  0.006023 0.737313 1 64 1.000000
0  -3.619409 -11.713251 -7.518452  0.000000 0.000000 -1.000000  0.006222 0.737313 1 64 1.000000
0  -3.867668 -11.713251 -7.518452  0.000000 0.000000 -1.000000  0.006222 0.737512 1 64 1.000000
lowpoly_plastic
0  -3.432887 -13.676492 -6.574854  0.775650 -0.000000 0.631163  0.006023 0.737313 1 64 1.000000
0  -3.536932 -11.713251 -6.446990  0.775650 -0.000000 0.631163  0.006222 0.737313 1 64 1.000000
0  -3.536932 -13.676492 -6.446991  0.775650 -0.000000 0.631163  0.006222 0.737512 1 64 1.000000
lowpoly_plastic
0  -3.432887 -13.676492 -6.574854  0.750581 -0.252172 0.610768  0.006023 0.737313 1 64 1.000000
0  -3.536932 -13.884936 -6.533053  0.750581 -0.252172 0.610768  0.006222 0.737313 1 64 1.000000
0  -3.432887 -13.884936 -6.660915  0.750581 -0.252172 0.610768  0.006222 0.737512 1 64 1.000000
lowpoly_plastic
0  -3.432887 -13.884936 -6.660915  0.460176 -0.618199 0.637235  0.006023 0.737313 1 64 1.000000
0  -3.536932 -14.075255 -6.770413  0.460176 -0.618199 0.637235  0.006222 0.737313 1 64 1.000000
0  -3.432887 -14.075255 -6.845549  0.460176 -0.618199 0.637235  0.006222 0.737512 1 64 1.000000
lowpoly_plastic
0  -3.867667 -11.713251 -6.636584  0.000000 1.000000 -0.000006  0.006023 0.737313 1 64 1.000000
0  -3.536932 -11.713251 -6.446990  0.000000 1.000000 -0.000006  0.006222 0.737313 1 64 1.000000
0  -3.432888 -11.713251 -6.636584  0.000000 1.000000 -0.000006  0.006222 0.737512 1 64 1.000000
lowpoly_plastic
0  -4.133948 -13.068521 -6.323700  0.000000 0.913005 -0.407949  0.006023 0.737313 1 64 1.000000
0  -3.601387 -13.147368 -6.500164  0.000000 0.913005 -0.407949  0.006222 0.737313 1 64 1.000000
0  -4.133948 -13.147368 -6.500164  0.000000 0.913005 -0.407949  0.006222 0.737512 1 64 1.000000
lowpoly_plastic
0  -3.601387 -13.068521 -6.323700  1.000000 0.000000 0.000000  0.006023 0.737313 1 64 1.000000
0  -3.601387 -14.467675 -6.479318  1.000000 0.000000 0.000000  0.006222 0.737313 1 64 1.000000
0  -3.601387 -13.147368 -6.500164  1.000000 0.000000 0.000000  0.006222 0.737512 1 64 1.000000
lowpoly_plastic
0  -3.601387 -14.771281 -6.323700  0.000000 -0.456137 -0.889910  0.006023 0.737313 1 64 1.000000
0  -4.133948 -14.467675 -6.479318  0.000000 -0.456137 -0.889910  0.006222 0.737313 1 64 1.000000
0  -3.601387 -14.467675 -6.479318  0.000000 -0.456137 -0.889910  0.006222 0.737512 1 64 1.000000
lowpoly_plastic
0  -4.133948 -14.467675 -6.479318  -1.000000 0.000001 0.000000  0.006023 0.737313 1 64 1.000000
0  -4.133948 -13.068521 -6.323700  -1.000000 0.000001 0.000000  0.006222 0.737313 1 64 1.000000
0  -4.133948 -13.147368 -6.500164  -1.000000 0.000001 0.000000  0.006222 0.737512 1 64 1.000000
lowpoly_plastic
0  -4.133948 -13.147368 -7.029551  -1.000000 0.000000 0.000000  0.006023 0.737313 1 64 1.000000
0  -4.133948 -13.926785 -7.346749  -1.000000 0.000000 0.000000  0.006222 0.737313 1 64 1.000000
0  -4.133948 -14.145947 -7.029551  -1.000000 0.000000 0.000000  0.006222 0.737512 1 64 1.000000
lowpoly_plastic
0  -3.601387 -13.068521 -6.323700  0.000000 -0.000000 1.000000  0.006023 0.737313 1 64 1.000000
0  -4.133948 -14.771281 -6.323700  0.000000 -0.000000 1.000000  0.006222 0.737313 1 64 1.000000
0  -3.601387 -14.771281 -6.323700  0.000000 -0.000000 1.000000  0.006222 0.737512 1 64 1.000000
lowpoly_plastic
0  -4.133948 -14.145947 -7.029551  -1.000000 0.000000 0.000000  0.006023 0.737313 1 64 1.000000
0  -4.133948 -13.147369 -6.676626  -1.000000 0.000000 0.000000  0.006222 0.737313 1 64 1.000000
0  -4.133948 -13.147368 -7.029551  -1.000000 0.000000 0.000000  0.006222 0.737512 1 64 1.000000
lowpoly_plastic
0  -3.601387 -14.309078 -6.676626  0.000000 -0.907723 -0.419570  0.006023 0.737313 1 64 1.000000
0  -4.133948 -14.145947 -7.029551  0.000000 -0.907723 -0.419570  0.006222 0.737313 1 64 1.000000
0  -3.601387 -14.145947 -7.029551  0.000000 -0.907723 -0.419570  0.006222 0.737512 1 64 1.000000
lowpoly_plastic
0  -3.601387 -13.147369 -6.676626  1.000000 0.000000 -0.000001  0.006023 0.737313 1 64 1.000000
0  -3.601387 -14.145947 -7.029551  1.000000 0.000000 -0.000001  0.006222 0.737313 1 64 1.000000
0  -3.601387 -13.147368 -7.029551  1.000000 0.000000 -0.000001  0.006222 0.737512 1 64 1.000000
lowpoly_plastic
0  -4.133948 -13.147369 -6.676626  0.000000 1.000000 0.000005  0.006023 0.737313 1 64 1.000000
0  -3.601387 -13.147368 -7.029551  0.000000 1.000000 0.000005  0.006222 0.737313 1 64 1.000000
0  -4.133948 -13.147368 -7.029551  0.000000 1.000000 0.000005  0.006222 0.737512 1 64 1.000000
lowpoly_plastic
0  -4.133948 -14.309078 -6.676626  -1.000000 0.000000 0.000000  0.006023 0.737313 1 64 1.000000
0  -4.133948 -13.147368 -6.500164  -1.000000 0.000000 0.000000  0.006222 0.737313 1 64 1.000000
0  -4.133948 -13.147369 -6.676626  -1.000000 0.000000 0.000000  0.006222 0.737512 1 64 1.000000
lowpoly_plastic
0  -3.601387 -14.467675 -6.479318  0.000000 -0.779422 -0.626500  0.006023 0.737313 1 64 1.000000
0  -4.133948 -14.309078 -6.676626  0.000000 -0.779422 -0.626500  0.006222 0.737313 1 64 1.000000
0  -3.601387 -14.309078 -6.676626  0.000000 -0.779422 -0.626500  0.006222 0.737512 1 64 1.000000
lowpoly_plastic
0  -3.601387 -13.147368 -6.500164  1.000000 0.000000 0.000000  0.006023 0.737313 1 64 1.000000
0  -3.601387 -14.309078 -6.676626  1.000000 0.000000 0.000000  0.006222 0.737313 1 64 1.000000
0  -3.601387 -13.147369 -6.676626  1.000000 0.000000 0.000000  0.006222 0.737512 1 64 1.000000
lowpoly_plastic
0  -4.133948 -13.147368 -6.500164  0.000000 1.000000 0.000000  0.006023 0.737313 1 64 1.000000
0  -3.601387 -13.147369 -6.676626  0.000000 1.000000 0.000000  0.006222 0.737313 1 64 1.000000
0  -4.133948 -13.147369 -6.676626  0.000000 1.000000 0.000000  0.006222 0.737512 1 64 1.000000
lowpoly_plastic
0  -3.601387 -13.926785 -7.346749  0.000000 0.000000 -1.000000  0.006023 0.737313 1 64 1.000000
0  -4.133948 -13.366531 -7.346749  0.000000 0.000000 -1.000000  0.006222 0.737313 1 64 1.000000
0  -3.601387 -13.366531 -7.346749  0.000000 0.000000 -1.000000  0.006222 0.737512 1 64 1.000000
lowpoly_plastic
0  -3.601387 -13.147368 -7.029551  1.000000 0.000000 0.000000  0.006023 0.737313 1 64 1.000000
0  -3.601387 -13.926785 -7.346749  1.000000 0.000000 0.000000  0.006222 0.737313 1 64 1.000000
0  -3.601387 -13.366531 -7.346749  1.000000 0.000000 0.000000  0.006222 0.737512 1 64 1.000000
lowpoly_plastic
0  -3.601387 -13.147368 -7.029551  0.000000 0.822720 -0.568447  0.006023 0.737313 1 64 1.000000
0  -4.133948 -13.366531 -7.346749  0.000000 0.822720 -0.568447  0.006222 0.737313 1 64 1.000000
0  -4.133948 -13.147368 -7.029551  0.000000 0.822720 -0.568447  0.006222 0.737512 1 64 1.000000
lowpoly_plastic
0  -4.133948 -14.145947 -7.029551  0.000000 -0.822720 -0.568447  0.006023 0.737313 1 64 1.000000
0  -3.601387 -13.926785 -7.346749  0.000000 -0.822720 -0.568447  0.006222 0.737313 1 64 1.000000
0  -3.601387 -14.145947 -7.029551  0.000000 -0.822720 -0.568447  0.006222 0.737512 1 64 1.000000
lowpoly_metal
0  -4.364984 -13.763054 -6.966367  0.000000 -0.866026 -0.499999  0.071067 0.696213 1 64 1.000000
0  -4.364984 -13.694583 -7.084963  0.000000 -0.866026 -0.499999  0.071109 0.696213 1 64 1.000000
0  -3.370350 -13.694583 -7.084963  0.000000 -0.866026 -0.499999  0.071109 0.696255 1 64 1.000000
lowpoly_metal
0  -3.370350 -13.694583 -7.084963  0.000000 0.000000 -1.000000  0.071067 0.696213 1 64 1.000000
0  -4.364984 -13.694583 -7.084963  0.000000 0.000000 -1.000000  0.071109 0.696213 1 64 1.000000
0  -4.364984 -13.557639 -7.084963  0.000000 0.000000 -1.000000  0.071109 0.696255 1 64 1.000000
lowpoly_metal
0  -4.364984 -13.557639 -7.084963  0.000000 0.866026 -0.499999  0.071067 0.696213 1 64 1.000000
0  -4.364984 -13.489167 -6.966367  0.000000 0.866026 -0.499999  0.071109 0.696213 1 64 1.000000
0  -3.370351 -13.489167 -6.966367  0.000000 0.866026 -0.499999  0.071109 0.696255 1 64 1.000000
lowpoly_metal
0  -4.364984 -13.489167 -6.966367  0.000000 0.866024 0.500002  0.071067 0.696213 1 64 1.000000
0  -4.364984 -13.557639 -6.847772  0.000000 0.866024 0.500002  0.071109 0.696213 1 64 1.000000
0  -3.370351 -13.557639 -6.847772  0.000000 0.866024 0.500002  0.071109 0.696255 1 64 1.000000
lowpoly_metal
0  -4.364984 -13.557639 -7.084963  -1.000000 0.000000 0.000000  0.071067 0.696213 1 64 1.000000
0  -4.364984 -13.694583 -7.084963  -1.000000 0.000000 0.000000  0.071109 0.696213 1 64 1.000000
0  -4.364984 -13.557639 -6.847772  -1.000000 0.000000 0.000000  0.071109 0.696255 1 64 1.000000
lowpoly_metal
0  -4.364984 -13.763054 -6.966367  -1.000000 0.000000 0.000000  0.071067 0.696213 1 64 1.000000
0  -4.364984 -13.694583 -6.847772  -1.000000 0.000000 0.000000  0.071109 0.696213 1 64 1.000000
0  -4.364984 -13.557639 -6.847772  -1.000000 0.000000 0.000000  0.071109 0.696255 1 64 1.000000
lowpoly_metal
0  -4.364984 -13.557639 -6.847772  -1.000000 0.000000 0.000000  0.071067 0.696213 1 64 1.000000
0  -4.364984 -13.489167 -6.966367  -1.000000 0.000000 0.000000  0.071109 0.696213 1 64 1.000000
0  -4.364984 -13.557639 -7.084963  -1.000000 0.000000 0.000000  0.071109 0.696255 1 64 1.000000
lowpoly_metal
0  -4.364984 -13.557639 -6.847772  0.000000 0.000000 1.000000  0.071067 0.696213 1 64 1.000000
0  -4.364984 -13.694583 -6.847772  0.000000 0.000000 1.000000  0.071109 0.696213 1 64 1.000000
0  -3.370350 -13.694583 -6.847772  0.000000 0.000000 1.000000  0.071109 0.696255 1 64 1.000000
lowpoly_metal
0  -4.364984 -13.694583 -6.847772  0.000000 -0.866030 0.499991  0.071067 0.696213 1 64 1.000000
0  -4.364984 -13.763054 -6.966367  0.000000 -0.866030 0.499991  0.071109 0.696213 1 64 1.000000
0  -3.370350 -13.763054 -6.966367  0.000000 -0.866030 0.499991  0.071109 0.696255 1 64 1.000000
lowpoly_metal
0  -3.370350 -13.694583 -6.847772  1.000000 0.000000 0.000000  0.071067 0.696213 1 64 1.000000
0  -3.370350 -13.763054 -6.966367  1.000000 0.000000 0.000000  0.071109 0.696213 1 64 1.000000
0  -3.370350 -13.694583 -7.084963  1.000000 0.000000 0.000000  0.071109 0.696255 1 64 1.000000
lowpoly_metal
0  -3.370350 -13.694583 -7.084963  1.000000 0.000004 -0.000002  0.071067 0.696213 1 64 1.000000
0  -3.370351 -13.557639 -7.084963  1.000000 0.000004 -0.000002  0.071109 0.696213 1 64 1.000000
0  -3.370351 -13.489167 -6.966367  1.000000 0.000004 -0.000002  0.071109 0.696255 1 64 1.000000
lowpoly_metal
0  -3.370351 -13.489167 -6.966367  1.000000 0.000000 0.000001  0.071067 0.696213 1 64 1.000000
0  -3.370351 -13.557639 -6.847772  1.000000 0.000000 0.000001  0.071109 0.696213 1 64 1.000000
0  -3.370350 -13.694583 -7.084963  1.000000 0.000000 0.000001  0.071109 0.696255 1 64 1.000000
lowpoly_plastic
0  -4.334239 -13.858754 -6.966367  0.000000 -0.866023 -0.500004  0.004460 0.766101 1 64 1.000000
0  -4.334239 -13.742433 -7.167841  0.000000 -0.866023 -0.500004  0.004460 0.766101 1 64 1.000000
0  -3.401096 -13.742433 -7.167841  0.000000 -0.866023 -0.500004  0.004460 0.766101 1 64 1.000000
lowpoly_plastic
0  -4.334239 -13.742433 -7.167841  0.000000 0.000000 -1.000000  0.004460 0.766101 1 64 1.000000
0  -4.334239 -13.509789 -7.167841  0.000000 0.000000 -1.000000  0.004460 0.766101 1 64 1.000000
0  -3.401096 -13.509789 -7.167841  0.000000 0.000000 -1.000000  0.004460 0.766101 1 64 1.000000
lowpoly_plastic
0  -4.334239 -13.509789 -7.167841  0.000000 0.866027 -0.499997  0.004460 0.766101 1 64 1.000000
0  -4.334239 -13.393468 -6.966367  0.000000 0.866027 -0.499997  0.004460 0.766101 1 64 1.000000
0  -3.401096 -13.393468 -6.966367  0.000000 0.866027 -0.499997  0.004460 0.766101 1 64 1.000000
lowpoly_plastic
0  -4.334239 -13.393468 -6.966367  0.000000 0.866023 0.500003  0.004460 0.766101 1 64 1.000000
0  -4.334239 -13.509789 -6.764893  0.000000 0.866023 0.500003  0.004460 0.766101 1 64 1.000000
0  -3.401096 -13.509789 -6.764893  0.000000 0.866023 0.500003  0.004460 0.766101 1 64 1.000000
lowpoly_plastic
0  -4.334239 -13.509789 -7.167841  -1.000000 0.000000 0.000000  0.004460 0.766101 1 64 1.000000
0  -4.334239 -13.742433 -7.167841  -1.000000 0.000000 0.000000  0.004460 0.766101 1 64 1.000000
0  -4.334239 -13.509789 -6.764893  -1.000000 0.000000 0.000000  0.004460 0.766101 1 64 1.000000
lowpoly_plastic
0  -4.334239 -13.858754 -6.966367  -1.000000 -0.000005 0.000001  0.004460 0.766101 1 64 1.000000
0  -4.334239 -13.742433 -6.764893  -1.000000 -0.000005 0.000001  0.004460 0.766101 1 64 1.000000
0  -4.334239 -13.509789 -6.764893  -1.000000 -0.000005 0.000001  0.004460 0.766101 1 64 1.000000
lowpoly_plastic
0  -4.334239 -13.509789 -6.764893  -1.000000 0.000000 0.000000  0.004460 0.766101 1 64 1.000000
0  -4.334239 -13.393468 -6.966367  -1.000000 0.000000 0.000000  0.004460 0.766101 1 64 1.000000
0  -4.334239 -13.509789 -7.167841  -1.000000 0.000000 0.000000  0.004460 0.766101 1 64 1.000000
lowpoly_plastic
0  -4.334239 -13.509789 -6.764893  0.000000 0.000000 1.000000  0.004460 0.766101 1 64 1.000000
0  -4.334239 -13.742433 -6.764893  0.000000 0.000000 1.000000  0.004460 0.766101 1 64 1.000000
0  -3.401096 -13.742433 -6.764893  0.000000 0.000000 1.000000  0.004460 0.766101 1 64 1.000000
lowpoly_plastic
0  -4.334239 -13.742433 -6.764893  0.000000 -0.866023 0.500004  0.004460 0.766101 1 64 1.000000
0  -4.334239 -13.858754 -6.966367  0.000000 -0.866023 0.500004  0.004460 0.766101 1 64 1.000000
0  -3.401096 -13.858754 -6.966367  0.000000 -0.866023 0.500004  0.004460 0.766101 1 64 1.000000
lowpoly_plastic
0  -3.401096 -13.742433 -6.764893  1.000000 0.000000 0.000000  0.004460 0.766101 1 64 1.000000
0  -3.401096 -13.858754 -6.966367  1.000000 0.000000 0.000000  0.004460 0.766101 1 64 1.000000
0  -3.401096 -13.742433 -7.167841  1.000000 0.000000 0.000000  0.004460 0.766101 1 64 1.000000
lowpoly_plastic
0  -3.401096 -13.742433 -7.167841  1.000000 0.000000 -0.000001  0.004460 0.766101 1 64 1.000000
0  -3.401096 -13.509789 -7.167841  1.000000 0.000000 -0.000001  0.004460 0.766101 1 64 1.000000
0  -3.401096 -13.393468 -6.966367  1.000000 0.000000 -0.000001  0.004460 0.766101 1 64 1.000000
lowpoly_plastic
0  -3.401096 -13.393468 -6.966367  1.000000 0.000000 0.000000  0.004460 0.766101 1 64 1.000000
0  -3.401096 -13.509789 -6.764893  1.000000 0.000000 0.000000  0.004460 0.766101 1 64 1.000000
0  -3.401096 -13.742433 -7.167841  1.000000 0.000000 0.000000  0.004460 0.766101 1 64 1.000000
lowpoly_plastic
0  -3.566825 -11.685803 -6.771942  1.000000 0.000000 0.000000  0.004460 0.766101 1 64 1.000000
0  -3.566826 -10.728606 -6.771943  1.000000 0.000000 0.000000  0.004460 0.766101 1 64 1.000000
0  -3.566826 -10.787411 -6.444107  1.000000 0.000000 0.000000  0.004460 0.766101 1 64 1.000000
lowpoly_plastic
0  -3.566826 -10.728606 -6.502911  1.000000 0.000000 0.000000  0.004460 0.766101 1 64 1.000000
0  -3.566826 -10.787411 -6.444107  1.000000 0.000000 0.000000  0.004460 0.766101 1 64 1.000000
0  -3.566826 -10.728606 -6.771943  1.000000 0.000000 0.000000  0.004460 0.766101 1 64 1.000000
lowpoly_plastic
0  -3.566826 -11.627881 -6.444106  1.000000 0.000008 0.000000  0.004460 0.766101 1 64 1.000000
0  -3.566825 -11.685803 -6.502028  1.000000 0.000008 0.000000  0.004460 0.766101 1 64 1.000000
0  -3.566825 -11.685803 -6.771942  1.000000 0.000008 0.000000  0.004460 0.766101 1 64 1.000000
lowpoly_plastic
0  -4.168509 -10.728606 -6.771943  -1.000000 0.000000 -0.000000  0.004460 0.766101 1 64 1.000000
0  -4.168509 -11.685803 -6.771942  -1.000000 0.000000 -0.000000  0.004460 0.766101 1 64 1.000000
0  -4.168509 -10.787411 -6.444107  -1.000000 0.000000 -0.000000  0.004460 0.766101 1 64 1.000000
lowpoly_plastic
0  -4.168509 -11.685803 -6.502028  -1.000000 -0.000015 0.000000  0.004460 0.766101 1 64 1.000000
0  -4.168509 -11.627881 -6.444106  -1.000000 -0.000015 0.000000  0.004460 0.766101 1 64 1.000000
0  -4.168509 -11.685803 -6.771942  -1.000000 -0.000015 0.000000  0.004460 0.766101 1 64 1.000000
lowpoly_plastic
0  -4.168509 -10.787411 -6.444107  -1.000000 0.000000 0.000000  0.004460 0.766101 1 64 1.000000
0  -4.168509 -10.728606 -6.502911  -1.000000 0.000000 0.000000  0.004460 0.766101 1 64 1.000000
0  -4.168509 -10.728606 -6.771943  -1.000000 0.000000 0.000000  0.004460 0.766101 1 64 1.000000
lowpoly_plastic
0  -4.168509 -10.728606 -6.502911  0.000000 1.000000 0.000000  0.004460 0.766101 1 64 1.000000
0  -3.566826 -10.728606 -6.502911  0.000000 1.000000 0.000000  0.004460 0.766101 1 64 1.000000
0  -3.566826 -10.728606 -6.771943  0.000000 1.000000 0.000000  0.004460 0.766101 1 64 1.000000
lowpoly_plastic
0  -3.566825 -11.685803 -6.771942  0.000000 -0.000001 -1.000000  0.004460 0.766101 1 64 1.000000
0  -4.168509 -11.685803 -6.771942  0.000000 -0.000001 -1.000000  0.004460 0.766101 1 64 1.000000
0  -4.168509 -10.728606 -6.771943  0.000000 -0.000001 -1.000000  0.004460 0.766101 1 64 1.000000
lowpoly_plastic
0  -3.566826 -10.787411 -6.444107  0.000000 0.707096 0.707118  0.004460 0.766101 1 64 1.000000
0  -3.566826 -10.728606 -6.502911  0.000000 0.707096 0.707118  0.004460 0.766101 1 64 1.000000
0  -4.168509 -10.728606 -6.502911  0.000000 0.707096 0.707118  0.004460 0.766101 1 64 1.000000
lowpoly_plastic
0  -3.566826 -10.787411 -6.444107  0.000000 0.000001 1.000000  0.004460 0.766101 1 64 1.000000
0  -4.168509 -10.787411 -6.444107  0.000000 0.000001 1.000000  0.004460 0.766101 1 64 1.000000
0  -4.168509 -11.627881 -6.444106  0.000000 0.000001 1.000000  0.004460 0.766101 1 64 1.000000
lowpoly_plastic
0  -4.168509 -11.627881 -6.444106  0.000000 -0.707106 0.707108  0.004460 0.766101 1 64 1.000000
0  -4.168509 -11.685803 -6.502028  0.000000 -0.707106 0.707108  0.004460 0.766101 1 64 1.000000
0  -3.566825 -11.685803 -6.502028  0.000000 -0.707106 0.707108  0.004460 0.766101 1 64 1.000000
lowpoly_plastic
0  -3.566825 -11.685803 -6.502028  0.000000 -1.000000 0.000000  0.004460 0.766101 1 64 1.000000
0  -4.168509 -11.685803 -6.502028  0.000000 -1.000000 0.000000  0.004460 0.766101 1 64 1.000000
0  -4.168509 -11.685803 -6.771942  0.000000 -1.000000 0.000000  0.004460 0.766101 1 64 1.000000
lowpoly_metal
0  -4.107366 -10.341246 -6.539033  0.000000 0.958053 0.286589  0.076493 0.625439 1 64 1.000000
0  -3.627970 -10.341246 -6.539033  0.000000 0.958053 0.286589  0.076519 0.625439 1 64 1.000000
0  -3.627970 -10.263624 -6.798517  0.000000 0.958053 0.286589  0.076519 0.625465 1 64 1.000000
lowpoly_metal
0  -3.627970 -10.341246 -6.539033  1.000000 0.000000 0.000000  0.076493 0.625439 1 64 1.000000
0  -3.627969 -11.745646 -6.539032  1.000000 0.000000 0.000000  0.076519 0.625439 1 64 1.000000
0  -3.627969 -11.745646 -6.798519  1.000000 0.000000 0.000000  0.076519 0.625465 1 64 1.000000
lowpoly_metal
0  -3.627969 -11.745646 -6.798519  0.000000 -1.000000 0.000000  0.076493 0.625439 1 64 1.000000
0  -3.627969 -11.745646 -6.539032  0.000000 -1.000000 0.000000  0.076519 0.625439 1 64 1.000000
0  -4.107365 -11.745646 -6.539032  0.000000 -1.000000 0.000000  0.076519 0.625465 1 64 1.000000
lowpoly_metal
0  -4.107365 -11.745646 -6.798519  -1.000000 -0.000001 0.000000  0.076493 0.625439 1 64 1.000000
0  -4.107365 -11.745646 -6.539032  -1.000000 -0.000001 0.000000  0.076519 0.625439 1 64 1.000000
0  -4.107366 -10.341246 -6.539033  -1.000000 -0.000001 0.000000  0.076519 0.625465 1 64 1.000000
lowpoly_metal
0  -3.627969 -11.745646 -6.798519  0.000000 0.000001 -1.000000  0.076493 0.625439 1 64 1.000000
0  -4.107365 -11.745646 -6.798519  0.000000 0.000001 -1.000000  0.076519 0.625439 1 64 1.000000
0  -4.107366 -10.263624 -6.798517  0.000000 0.000001 -1.000000  0.076519 0.625465 1 64 1.000000
lowpoly_metal
0  -3.627970 -10.341246 -6.539033  0.000000 0.000001 1.000000  0.076493 0.625439 1 64 1.000000
0  -4.107366 -10.341246 -6.539033  0.000000 0.000001 1.000000  0.076519 0.625439 1 64 1.000000
0  -4.107365 -11.745646 -6.539032  0.000000 0.000001 1.000000  0.076519 0.625465 1 64 1.000000
lowpoly_plastic
0  -4.302447 -13.676492 -6.636583  -1.000000 0.000000 0.000000  0.006023 0.737313 1 64 1.000000
0  -4.302447 -13.884936 -6.692189  -1.000000 0.000000 0.000000  0.006222 0.737313 1 64 1.000000
0  -4.302447 -13.884936 -6.660915  -1.000000 0.000000 0.000000  0.006222 0.737512 1 64 1.000000
lowpoly_plastic
0  -3.867667 -11.713251 -6.446990  0.000000 -0.000000 1.000000  0.006023 0.737313 1 64 1.000000
0  -4.198402 -11.713251 -6.446990  0.000000 -0.000000 1.000000  0.006222 0.737313 1 64 1.000000
0  -4.198402 -13.676492 -6.446991  0.000000 -0.000000 1.000000  0.006222 0.737512 1 64 1.000000
lowpoly_plastic
0  -4.302447 -13.676492 -6.773876  -1.000000 0.000000 0.000001  0.006023 0.737313 1 64 1.000000
0  -4.302447 -11.695629 -6.742409  -1.000000 0.000000 0.000001  0.006222 0.737313 1 64 1.000000
0  -4.302448 -11.708046 -7.289231  -1.000000 0.000000 0.000001  0.006222 0.737512 1 64 1.000000
lowpoly_plastic
0  -4.198402 -13.676492 -6.446991  0.000000 -0.381630 0.924315  0.006023 0.737313 1 64 1.000000
0  -4.198402 -13.884936 -6.533053  0.000000 -0.381630 0.924315  0.006222 0.737313 1 64 1.000000
0  -3.867667 -13.884936 -6.533053  0.000000 -0.381630 0.924315  0.006222 0.737512 1 64 1.000000
lowpoly_plastic
0  -4.302447 -13.884936 -6.660915  -1.000000 0.000000 0.000000  0.006023 0.737313 1 64 1.000000
0  -4.302447 -13.884936 -6.692189  -1.000000 0.000000 0.000000  0.006222 0.737313 1 64 1.000000
0  -4.302447 -14.075255 -6.845549  -1.000000 0.000000 0.000000  0.006222 0.737512 1 64 1.000000
lowpoly_plastic
0  -3.867667 -13.676492 -7.518452  0.000000 -0.381626 -0.924317  0.006023 0.737313 1 64 1.000000
0  -3.867667 -13.884936 -7.432390  0.000000 -0.381626 -0.924317  0.006222 0.737313 1 64 1.000000
0  -4.115926 -13.884936 -7.432390  0.000000 -0.381626 -0.924317  0.006222 0.737512 1 64 1.000000
lowpoly_plastic
0  -3.867667 -13.884936 -7.432390  0.000000 -0.780179 -0.625556  0.006023 0.737313 1 64 1.000000
0  -3.867667 -14.075255 -7.195028  0.000000 -0.780179 -0.625556  0.006222 0.737313 1 64 1.000000
0  -4.115926 -14.075255 -7.195028  0.000000 -0.780179 -0.625556  0.006222 0.737512 1 64 1.000000
lowpoly_plastic
0  -4.302447 -13.884936 -6.807425  -1.000000 -0.000003 0.000000  0.006023 0.737313 1 64 1.000000
0  -4.302447 -14.075255 -6.899957  -1.000000 -0.000003 0.000000  0.006222 0.737313 1 64 1.000000
0  -4.302447 -14.075255 -6.845549  -1.000000 -0.000003 0.000000  0.006222 0.737512 1 64 1.000000
lowpoly_plastic
0  -3.867668 -9.982256 -7.518452  0.000000 0.935613 0.353027  0.006023 0.737313 1 64 1.000000
0  -4.115926 -9.982256 -7.518452  0.000000 0.935613 0.353027  0.006222 0.737313 1 64 1.000000
0  -4.302448 -10.068747 -7.289231  0.000000 0.935613 0.353027  0.006222 0.737512 1 64 1.000000
lowpoly_plastic
0  -4.302448 -10.068747 -7.289231  0.000000 0.935613 0.353027  0.006023 0.737313 1 64 1.000000
0  -4.302448 -10.263203 -6.773876  0.000000 0.935613 0.353027  0.006222 0.737313 1 64 1.000000
0  -3.867668 -10.263203 -6.773876  0.000000 0.935613 0.353027  0.006222 0.737512 1 64 1.000000
lowpoly_plastic
0  -4.302447 -13.676492 -6.773876  -1.000000 0.000000 0.000000  0.006023 0.737313 1 64 1.000000
0  -4.302447 -13.884936 -6.807425  -1.000000 0.000000 0.000000  0.006222 0.737313 1 64 1.000000
0  -4.302447 -13.884936 -6.692189  -1.000000 0.000000 0.000000  0.006222 0.737512 1 64 1.000000
lowpoly_plastic
0  -4.302448 -11.708046 -7.289231  -1.000000 -0.000010 0.000001  0.006023 0.737313 1 64 1.000000
0  -4.302447 -11.695629 -6.742409  -1.000000 -0.000010 0.000001  0.006222 0.737313 1 64 1.000000
0  -4.302448 -11.594497 -6.773876  -1.000000 -0.000010 0.000001  0.006222 0.737512 1 64 1.000000
lowpoly_plastic
0  -4.115926 -11.571488 -7.518452  0.000000 0.000000 -1.000000  0.006023 0.737313 1 64 1.000000
0  -4.115926 -9.982256 -7.518452  0.000000 0.000000 -1.000000  0.006222 0.737313 1 64 1.000000
0  -3.867668 -9.982256 -7.518452  0.000000 0.000000 -1.000000  0.006222 0.737512 1 64 1.000000
lowpoly_plastic
0  -3.867667 -13.676492 -7.518452  0.000000 0.000000 -1.000000  0.006023 0.737313 1 64 1.000000
0  -4.115926 -13.676492 -7.518452  0.000000 0.000000 -1.000000  0.006222 0.737313 1 64 1.000000
0  -4.115926 -11.713251 -7.518452  0.000000 0.000000 -1.000000  0.006222 0.737512 1 64 1.000000
lowpoly_plastic
0  -4.302447 -13.676492 -6.773876  -1.000000 -0.000002 0.000001  0.006023 0.737313 1 64 1.000000
0  -4.302447 -13.676492 -7.289231  -1.000000 -0.000002 0.000001  0.006222 0.737313 1 64 1.000000
0  -4.302447 -13.884936 -7.203171  -1.000000 -0.000002 0.000001  0.006222 0.737512 1 64 1.000000
lowpoly_plastic
0  -4.198402 -13.884936 -6.533053  0.000000 -0.780176 0.625560  0.006023 0.737313 1 64 1.000000
0  -4.198402 -14.075255 -6.770413  0.000000 -0.780176 0.625560  0.006222 0.737313 1 64 1.000000
0  -3.867667 -14.075255 -6.770413  0.000000 -0.780176 0.625560  0.006222 0.737512 1 64 1.000000
lowpoly_plastic
0  -3.867667 -14.075255 -6.845549  0.000000 -1.000000 0.000000  0.006023 0.737313 1 64 1.000000
0  -3.867667 -14.075255 -6.770413  0.000000 -1.000000 0.000000  0.006222 0.737313 1 64 1.000000
0  -4.198402 -14.075255 -6.770413  0.000000 -1.000000 0.000000  0.006222 0.737512 1 64 1.000000
lowpoly_plastic
0  -3.867667 -14.075255 -6.845549  0.000000 -1.000000 0.000000  0.006023 0.737313 1 64 1.000000
0  -4.302447 -14.075255 -6.845549  0.000000 -1.000000 0.000000  0.006222 0.737313 1 64 1.000000
0  -4.302447 -14.075255 -6.899957  0.000000 -1.000000 0.000000  0.006222 0.737512 1 64 1.000000
lowpoly_plastic
0  -4.302447 -13.676492 -6.773876  -1.000000 -0.000000 0.000000  0.006023 0.737313 1 64 1.000000
0  -4.302447 -13.676492 -6.636583  -1.000000 -0.000000 0.000000  0.006222 0.737313 1 64 1.000000
0  -4.302447 -11.713251 -6.636584  -1.000000 -0.000000 0.000000  0.006222 0.737512 1 64 1.000000
lowpoly_plastic
0  -4.302447 -11.713251 -6.636584  0.000000 0.986417 0.164262  0.006023 0.737313 1 64 1.000000
0  -3.867667 -11.713251 -6.636584  0.000000 0.986417 0.164262  0.006222 0.737313 1 64 1.000000
0  -3.867667 -11.695629 -6.742409  0.000000 0.986417 0.164262  0.006222 0.737512 1 64 1.000000
lowpoly_plastic
0  -3.867667 -11.695629 -6.742409  0.000000 0.297097 0.954847  0.006023 0.737313 1 64 1.000000
0  -3.867668 -11.594497 -6.773876  0.000000 0.297097 0.954847  0.006222 0.737313 1 64 1.000000
0  -4.302448 -11.594497 -6.773876  0.000000 0.297097 0.954847  0.006222 0.737512 1 64 1.000000
lowpoly_plastic
0  -3.867668 -11.594497 -6.773876  0.000000 0.000000 1.000000  0.006023 0.737313 1 64 1.000000
0  -3.867668 -10.263203 -6.773876  0.000000 0.000000 1.000000  0.006222 0.737313 1 64 1.000000
0  -4.302448 -10.263203 -6.773876  0.000000 0.000000 1.000000  0.006222 0.737512 1 64 1.000000
lowpoly_plastic
0  -4.302448 -11.578571 -7.289231  -1.000000 0.000000 0.000000  0.006023 0.737313 1 64 1.000000
0  -4.302448 -11.594497 -6.773876  -1.000000 0.000000 0.000000  0.006222 0.737313 1 64 1.000000
0  -4.302448 -10.263203 -6.773876  -1.000000 0.000000 0.000000  0.006222 0.737512 1 64 1.000000
lowpoly_plastic
0  -4.115926 -14.075255 -7.195028  0.000000 -1.000000 0.000000  0.006023 0.737313 1 64 1.000000
0  -3.867667 -14.075255 -7.195028  0.000000 -1.000000 0.000000  0.006222 0.737313 1 64 1.000000
0  -3.867667 -14.075255 -6.899957  0.000000 -1.000000 0.000000  0.006222 0.737512 1 64 1.000000
lowpoly_plastic
0  -3.867667 -14.075255 -6.899957  0.000000 -1.000000 0.000000  0.006023 0.737313 1 64 1.000000
0  -4.302447 -14.075255 -6.899957  0.000000 -1.000000 0.000000  0.006222 0.737313 1 64 1.000000
0  -4.302447 -14.075255 -6.965808  0.000000 -1.000000 0.000000  0.006222 0.737512 1 64 1.000000
lowpoly_plastic
0  -4.302447 -13.884936 -6.807425  -1.000000 0.000000 0.000001  0.006023 0.737313 1 64 1.000000
0  -4.302447 -13.884936 -7.203171  -1.000000 0.000000 0.000001  0.006222 0.737313 1 64 1.000000
0  -4.302447 -14.075255 -6.965808  -1.000000 0.000000 0.000001  0.006222 0.737512 1 64 1.000000
lowpoly_plastic
0  -4.302447 -13.676492 -6.574854  -1.000000 0.000000 0.000000  0.006023 0.737313 1 64 1.000000
0  -4.302447 -11.713251 -6.574854  -1.000000 0.000000 0.000000  0.006222 0.737313 1 64 1.000000
0  -4.302447 -11.713251 -6.636584  -1.000000 0.000000 0.000000  0.006222 0.737512 1 64 1.000000
lowpoly_plastic
0  -4.115926 -11.713251 -7.518452  -0.775650 0.000000 -0.631164  0.006023 0.737313 1 64 1.000000
0  -4.115926 -13.676492 -7.518452  -0.775650 0.000000 -0.631164  0.006222 0.737313 1 64 1.000000
0  -4.302447 -13.676492 -7.289231  -0.775650 0.000000 -0.631164  0.006222 0.737512 1 64 1.000000
lowpoly_plastic
0  -4.115926 -13.884936 -7.432390  -0.750583 -0.252168 -0.610767  0.006023 0.737313 1 64 1.000000
0  -4.302447 -13.884936 -7.203171  -0.750583 -0.252168 -0.610767  0.006222 0.737313 1 64 1.000000
0  -4.302447 -13.676492 -7.289231  -0.750583 -0.252168 -0.610767  0.006222 0.737512 1 64 1.000000
lowpoly_plastic
0  -4.115926 -14.075255 -7.195028  -0.609476 -0.618530 -0.495943  0.006023 0.737313 1 64 1.000000
0  -4.302447 -14.075255 -6.965808  -0.609476 -0.618530 -0.495943  0.006222 0.737313 1 64 1.000000
0  -4.302447 -13.884936 -7.203171  -0.609476 -0.618530 -0.495943  0.006222 0.737512 1 64 1.000000
lowpoly_plastic
0  -4.115926 -11.713251 -7.518452  -0.775649 0.000000 -0.631164  0.006023 0.737313 1 64 1.000000
0  -4.302448 -11.708046 -7.289231  -0.775649 0.000000 -0.631164  0.006222 0.737313 1 64 1.000000
0  -4.302448 -11.578571 -7.289231  -0.775649 0.000000 -0.631164  0.006222 0.737512 1 64 1.000000
lowpoly_plastic
0  -4.115926 -11.571488 -7.518452  -0.775650 0.000000 -0.631163  0.006023 0.737313 1 64 1.000000
0  -4.302448 -11.578571 -7.289231  -0.775650 0.000000 -0.631163  0.006222 0.737313 1 64 1.000000
0  -4.302448 -10.068747 -7.289231  -0.775650 0.000000 -0.631163  0.006222 0.737512 1 64 1.000000
lowpoly_plastic
0  -4.115926 -11.713251 -7.518452  0.000000 0.000000 -1.000000  0.006023 0.737313 1 64 1.000000
0  -4.115926 -11.571488 -7.518452  0.000000 0.000000 -1.000000  0.006222 0.737313 1 64 1.000000
0  -3.867668 -11.571488 -7.518452  0.000000 0.000000 -1.000000  0.006222 0.737512 1 64 1.000000
lowpoly_plastic
0  -4.198402 -11.713251 -6.446990  -0.775650 -0.000000 0.631163  0.006023 0.737313 1 64 1.000000
0  -4.302447 -11.713251 -6.574854  -0.775650 -0.000000 0.631163  0.006222 0.737313 1 64 1.000000
0  -4.302447 -13.676492 -6.574854  -0.775650 -0.000000 0.631163  0.006222 0.737512 1 64 1.000000
lowpoly_plastic
0  -4.302447 -13.676492 -6.574854  -0.750581 -0.252172 0.610768  0.006023 0.737313 1 64 1.000000
0  -4.302447 -13.884936 -6.660915  -0.750581 -0.252172 0.610768  0.006222 0.737313 1 64 1.000000
0  -4.198402 -13.884936 -6.533053  -0.750581 -0.252172 0.610768  0.006222 0.737512 1 64 1.000000
lowpoly_plastic
0  -4.302447 -13.884936 -6.660915  -0.460175 -0.618200 0.637234  0.006023 0.737313 1 64 1.000000
0  -4.302447 -14.075255 -6.845549  -0.460175 -0.618200 0.637234  0.006222 0.737313 1 64 1.000000
0  -4.198402 -14.075255 -6.770413  -0.460175 -0.618200 0.637234  0.006222 0.737512 1 64 1.000000
lowpoly_plastic
0  -3.867667 -11.713251 -6.636584  0.000000 1.000000 -0.000006  0.006023 0.737313 1 64 1.000000
0  -4.302447 -11.713251 -6.636584  0.000000 1.000000 -0.000006  0.006222 0.737313 1 64 1.000000
0  -4.198402 -11.713251 -6.446990  0.000000 1.000000 -0.000006  0.006222 0.737512 1 64 1.000000
lowpoly_plastic
0  -4.302447 -11.713251 -6.574854  0.000000 1.000000 0.000000  0.006023 0.737313 1 64 1.000000
0  -4.198402 -11.713251 -6.446990  0.000000 1.000000 0.000000  0.006222 0.737313 1 64 1.000000
0  -4.302447 -11.713251 -6.636584  0.000000 1.000000 0.000000  0.006222 0.737512 1 64 1.000000
lowpoly_plastic
0  -3.432887 -13.884936 -6.660915  1.000000 0.000000 0.000000  0.006023 0.737313 1 64 1.000000
0  -3.432887 -13.884936 -6.692189  1.000000 0.000000 0.000000  0.006222 0.737313 1 64 1.000000
0  -3.432887 -13.676492 -6.636583  1.000000 0.000000 0.000000  0.006222 0.737512 1 64 1.000000
lowpoly_plastic
0  -3.536932 -13.676492 -6.446991  0.000000 -0.000000 1.000000  0.006023 0.737313 1 64 1.000000
0  -3.536932 -11.713251 -6.446990  0.000000 -0.000000 1.000000  0.006222 0.737313 1 64 1.000000
0  -3.867667 -11.713251 -6.446990  0.000000 -0.000000 1.000000  0.006222 0.737512 1 64 1.000000
lowpoly_plastic
0  -3.432888 -11.708046 -7.289231  1.000000 0.000000 -0.000000  0.006023 0.737313 1 64 1.000000
0  -3.432888 -11.695629 -6.742409  1.000000 0.000000 -0.000000  0.006222 0.737313 1 64 1.000000
0  -3.432887 -13.676492 -6.773876  1.000000 0.000000 -0.000000  0.006222 0.737512 1 64 1.000000
lowpoly_plastic
0  -3.867667 -13.884936 -6.533053  0.000000 -0.381629 0.924316  0.006023 0.737313 1 64 1.000000
0  -3.536932 -13.884936 -6.533053  0.000000 -0.381629 0.924316  0.006222 0.737313 1 64 1.000000
0  -3.536932 -13.676492 -6.446991  0.000000 -0.381629 0.924316  0.006222 0.737512 1 64 1.000000
lowpoly_plastic
0  -3.619409 -13.884936 -7.432390  0.000000 -0.381629 -0.924316  0.006023 0.737313 1 64 1.000000
0  -3.867667 -13.884936 -7.432390  0.000000 -0.381629 -0.924316  0.006222 0.737313 1 64 1.000000
0  -3.867667 -13.676492 -7.518452  0.000000 -0.381629 -0.924316  0.006222 0.737512 1 64 1.000000
lowpoly_plastic
0  -3.619409 -14.075255 -7.195028  0.000000 -0.780179 -0.625556  0.006023 0.737313 1 64 1.000000
0  -3.867667 -14.075255 -7.195028  0.000000 -0.780179 -0.625556  0.006222 0.737313 1 64 1.000000
0  -3.867667 -13.884936 -7.432390  0.000000 -0.780179 -0.625556  0.006222 0.737512 1 64 1.000000
lowpoly_plastic
0  -3.432887 -14.075255 -6.845549  1.000000 0.000006 0.000000  0.006023 0.737313 1 64 1.000000
0  -3.432887 -14.075255 -6.899957  1.000000 0.000006 0.000000  0.006222 0.737313 1 64 1.000000
0  -3.432887 -13.884936 -6.807426  1.000000 0.000006 0.000000  0.006222 0.737512 1 64 1.000000
lowpoly_plastic
0  -3.432888 -10.068747 -7.289231  0.000000 0.935612 0.353029  0.006023 0.737313 1 64 1.000000
0  -3.619410 -9.982256 -7.518452  0.000000 0.935612 0.353029  0.006222 0.737313 1 64 1.000000
0  -3.867668 -9.982256 -7.518452  0.000000 0.935612 0.353029  0.006222 0.737512 1 64 1.000000
lowpoly_plastic
0  -3.867668 -9.982256 -7.518452  0.000001 0.935612 0.353030  0.006023 0.737313 1 64 1.000000
0  -3.867668 -10.263203 -6.773876  0.000001 0.935612 0.353030  0.006222 0.737313 1 64 1.000000
0  -3.432888 -10.068747 -7.289231  0.000001 0.935612 0.353030  0.006222 0.737512 1 64 1.000000
lowpoly_plastic
0  -3.432887 -13.884936 -6.692189  1.000000 0.000001 0.000000  0.006023 0.737313 1 64 1.000000
0  -3.432887 -13.884936 -6.807426  1.000000 0.000001 0.000000  0.006222 0.737313 1 64 1.000000
0  -3.432887 -13.676492 -6.773876  1.000000 0.000001 0.000000  0.006222 0.737512 1 64 1.000000
lowpoly_plastic
0  -3.432888 -11.708046 -7.289231  1.000000 0.000000 0.000000  0.006023 0.737313 1 64 1.000000
0  -3.432888 -11.578571 -7.289231  1.000000 0.000000 0.000000  0.006222 0.737313 1 64 1.000000
0  -3.432888 -11.594497 -6.773876  1.000000 0.000000 0.000000  0.006222 0.737512 1 64 1.000000
lowpoly_plastic
0  -3.867668 -9.982256 -7.518452  0.000000 0.000000 -1.000000  0.006023 0.737313 1 64 1.000000
0  -3.619410 -9.982256 -7.518452  0.000000 0.000000 -1.000000  0.006222 0.737313 1 64 1.000000
0  -3.619410 -11.571488 -7.518452  0.000000 0.000000 -1.000000  0.006222 0.737512 1 64 1.000000
lowpoly_plastic
0  -3.619409 -11.713251 -7.518452  0.000000 0.000000 -1.000000  0.006023 0.737313 1 64 1.000000
0  -3.619409 -13.676492 -7.518452  0.000000 0.000000 -1.000000  0.006222 0.737313 1 64 1.000000
0  -3.867667 -13.676492 -7.518452  0.000000 0.000000 -1.000000  0.006222 0.737512 1 64 1.000000
lowpoly_plastic
0  -3.432887 -13.676492 -6.773876  1.000000 -0.000003 0.000000  0.006023 0.737313 1 64 1.000000
0  -3.432887 -13.884936 -6.807426  1.000000 -0.000003 0.000000  0.006222 0.737313 1 64 1.000000
0  -3.432887 -13.884936 -7.203172  1.000000 -0.000003 0.000000  0.006222 0.737512 1 64 1.000000
lowpoly_plastic
0  -3.867667 -14.075255 -6.770413  0.000000 -0.780176 0.625560  0.006023 0.737313 1 64 1.000000
0  -3.536932 -14.075255 -6.770413  0.000000 -0.780176 0.625560  0.006222 0.737313 1 64 1.000000
0  -3.536932 -13.884936 -6.533053  0.000000 -0.780176 0.625560  0.006222 0.737512 1 64 1.000000
lowpoly_plastic
0  -3.867667 -14.075255 -6.770413  0.000000 -1.000000 0.000000  0.006023 0.737313 1 64 1.000000
0  -3.867667 -14.075255 -6.845549  0.000000 -1.000000 0.000000  0.006222 0.737313 1 64 1.000000
0  -3.536932 -14.075255 -6.770413  0.000000 -1.000000 0.000000  0.006222 0.737512 1 64 1.000000
lowpoly_plastic
0  -3.432887 -14.075255 -6.899957  0.000000 -1.000000 0.000000  0.006023 0.737313 1 64 1.000000
0  -3.432887 -14.075255 -6.845549  0.000000 -1.000000 0.000000  0.006222 0.737313 1 64 1.000000
0  -3.867667 -14.075255 -6.845549  0.000000 -1.000000 0.000000  0.006222 0.737512 1 64 1.000000
lowpoly_plastic
0  -3.432887 -13.676492 -6.773876  1.000000 0.000000 0.000000  0.006023 0.737313 1 64 1.000000
0  -3.432888 -11.695629 -6.742409  1.000000 0.000000 0.000000  0.006222 0.737313 1 64 1.000000
0  -3.432888 -11.713251 -6.636584  1.000000 0.000000 0.000000  0.006222 0.737512 1 64 1.000000
lowpoly_plastic
0  -3.867667 -11.695629 -6.742409  0.000000 0.986417 0.164262  0.006023 0.737313 1 64 1.000000
0  -3.867667 -11.713251 -6.636584  0.000000 0.986417 0.164262  0.006222 0.737313 1 64 1.000000
0  -3.432888 -11.713251 -6.636584  0.000000 0.986417 0.164262  0.006222 0.737512 1 64 1.000000
lowpoly_plastic
0  -3.432888 -11.594497 -6.773876  0.000000 0.297099 0.954847  0.006023 0.737313 1 64 1.000000
0  -3.867668 -11.594497 -6.773876  0.000000 0.297099 0.954847  0.006222 0.737313 1 64 1.000000
0  -3.867667 -11.695629 -6.742409  0.000000 0.297099 0.954847  0.006222 0.737512 1 64 1.000000
lowpoly_plastic
0  -3.432888 -10.263203 -6.773876  0.000000 0.000000 1.000000  0.006023 0.737313 1 64 1.000000
0  -3.867668 -10.263203 -6.773876  0.000000 0.000000 1.000000  0.006222 0.737313 1 64 1.000000
0  -3.867668 -11.594497 -6.773876  0.000000 0.000000 1.000000  0.006222 0.737512 1 64 1.000000
lowpoly_plastic
0  -3.432888 -11.578571 -7.289231  1.000000 0.000000 0.000000  0.006023 0.737313 1 64 1.000000
0  -3.432888 -10.068747 -7.289231  1.000000 0.000000 0.000000  0.006222 0.737313 1 64 1.000000
0  -3.432888 -10.263203 -6.773876  1.000000 0.000000 0.000000  0.006222 0.737512 1 64 1.000000
lowpoly_plastic
0  -3.867667 -14.075255 -6.899957  0.000000 -1.000000 0.000000  0.006023 0.737313 1 64 1.000000
0  -3.867667 -14.075255 -7.195028  0.000000 -1.000000 0.000000  0.006222 0.737313 1 64 1.000000
0  -3.619409 -14.075255 -7.195028  0.000000 -1.000000 0.000000  0.006222 0.737512 1 64 1.000000
lowpoly_plastic
0  -3.619409 -14.075255 -7.195028  0.000000 -1.000000 -0.000009  0.006023 0.737313 1 64 1.000000
0  -3.432887 -14.075255 -6.965808  0.000000 -1.000000 -0.000009  0.006222 0.737313 1 64 1.000000
0  -3.867667 -14.075255 -6.899957  0.000000 -1.000000 -0.000009  0.006222 0.737512 1 64 1.000000
lowpoly_plastic
0  -3.432887 -13.884936 -6.807426  1.000000 -0.000005 0.000000  0.006023 0.737313 1 64 1.000000
0  -3.432887 -14.075255 -6.899957  1.000000 -0.000005 0.000000  0.006222 0.737313 1 64 1.000000
0  -3.432887 -14.075255 -6.965808  1.000000 -0.000005 0.000000  0.006222 0.737512 1 64 1.000000
lowpoly_plastic
0  -3.432887 -13.676492 -6.636583  1.000000 0.000000 0.000000  0.006023 0.737313 1 64 1.000000
0  -3.432888 -11.713251 -6.636584  1.000000 0.000000 0.000000  0.006222 0.737313 1 64 1.000000
0  -3.432888 -11.713251 -6.574854  1.000000 0.000000 0.000000  0.006222 0.737512 1 64 1.000000
lowpoly_plastic
0  -3.619409 -11.713251 -7.518452  0.775651 0.000000 -0.631162  0.006023 0.737313 1 64 1.000000
0  -3.432888 -11.708046 -7.289231  0.775651 0.000000 -0.631162  0.006222 0.737313 1 64 1.000000
0  -3.432887 -13.676492 -7.289231  0.775651 0.000000 -0.631162  0.006222 0.737512 1 64 1.000000
lowpoly_plastic
0  -3.432887 -13.676492 -7.289231  0.750582 -0.252165 -0.610770  0.006023 0.737313 1 64 1.000000
0  -3.432887 -13.884936 -7.203172  0.750582 -0.252165 -0.610770  0.006222 0.737313 1 64 1.000000
0  -3.619409 -13.884936 -7.432390  0.750582 -0.252165 -0.610770  0.006222 0.737512 1 64 1.000000
lowpoly_plastic
0  -3.432887 -13.884936 -7.203172  0.609475 -0.618532 -0.495942  0.006023 0.737313 1 64 1.000000
0  -3.432887 -14.075255 -6.965808  0.609475 -0.618532 -0.495942  0.006222 0.737313 1 64 1.000000
0  -3.619409 -14.075255 -7.195028  0.609475 -0.618532 -0.495942  0.006222 0.737512 1 64 1.000000
lowpoly_plastic
0  -3.432888 -11.578571 -7.289231  0.775649 0.000003 -0.631164  0.006023 0.737313 1 64 1.000000
0  -3.432888 -11.708046 -7.289231  0.775649 0.000003 -0.631164  0.006222 0.737313 1 64 1.000000
0  -3.619409 -11.713251 -7.518452  0.775649 0.000003 -0.631164  0.006222 0.737512 1 64 1.000000
lowpoly_plastic
0  -3.432888 -10.068747 -7.289231  0.775651 0.000000 -0.631162  0.006023 0.737313 1 64 1.000000
0  -3.432888 -11.578571 -7.289231  0.775651 0.000000 -0.631162  0.006222 0.737313 1 64 1.000000
0  -3.619410 -11.571488 -7.518452  0.775651 0.000000 -0.631162  0.006222 0.737512 1 64 1.000000
lowpoly_plastic
0  -3.867668 -11.571488 -7.518452  0.000000 0.000000 -1.000000  0.006023 0.737313 1 64 1.000000
0  -3.619410 -11.571488 -7.518452  0.000000 0.000000 -1.000000  0.006222 0.737313 1 64 1.000000
0  -3.619409 -11.713251 -7.518452  0.000000 0.000000 -1.000000  0.006222 0.737512 1 64 1.000000
lowpoly_plastic
0  -3.432887 -13.676492 -6.574854  0.775651 0.000000 0.631162  0.006023 0.737313 1 64 1.000000
0  -3.432888 -11.713251 -6.574854  0.775651 0.000000 0.631162  0.006222 0.737313 1 64 1.000000
0  -3.536932 -11.713251 -6.446990  0.775651 0.000000 0.631162  0.006222 0.737512 1 64 1.000000
lowpoly_plastic
0  -3.432887 -13.676492 -6.574854  0.750584 -0.252174 0.610764  0.006023 0.737313 1 64 1.000000
0  -3.536932 -13.676492 -6.446991  0.750584 -0.252174 0.610764  0.006222 0.737313 1 64 1.000000
0  -3.536932 -13.884936 -6.533053  0.750584 -0.252174 0.610764  0.006222 0.737512 1 64 1.000000
lowpoly_plastic
0  -3.432887 -13.884936 -6.660915  0.609475 -0.618527 0.495948  0.006023 0.737313 1 64 1.000000
0  -3.536932 -13.884936 -6.533053  0.609475 -0.618527 0.495948  0.006222 0.737313 1 64 1.000000
0  -3.536932 -14.075255 -6.770413  0.609475 -0.618527 0.495948  0.006222 0.737512 1 64 1.000000
lowpoly_plastic
0  -3.432888 -11.713251 -6.574854  0.000000 1.000000 0.000000  0.006023 0.737313 1 64 1.000000
0  -3.432888 -11.713251 -6.636584  0.000000 1.000000 0.000000  0.006222 0.737313 1 64 1.000000
0  -3.536932 -11.713251 -6.446990  0.000000 1.000000 0.000000  0.006222 0.737512 1 64 1.000000
lowpoly_plastic
0  -3.867667 -11.713251 -6.636584  0.000000 1.000000 0.000000  0.006023 0.737313 1 64 1.000000
0  -3.867667 -11.713251 -6.446990  0.000000 1.000000 0.000000  0.006222 0.737313 1 64 1.000000
0  -3.536932 -11.713251 -6.446990  0.000000 1.000000 0.000000  0.006222 0.737512 1 64 1.000000
lowpoly_plastic
0  -4.133948 -13.068521 -6.323700  0.000000 0.913008 -0.407942  0.006023 0.737313 1 64 1.000000
0  -3.601387 -13.068521 -6.323700  0.000000 0.913008 -0.407942  0.006222 0.737313 1 64 1.000000
0  -3.601387 -13.147368 -6.500164  0.000000 0.913008 -0.407942  0.006222 0.737512 1 64 1.000000
lowpoly_plastic
0  -3.601387 -13.068521 -6.323700  1.000000 0.000000 0.000000  0.006023 0.737313 1 64 1.000000
0  -3.601387 -14.771281 -6.323700  1.000000 0.000000 0.000000  0.006222 0.737313 1 64 1.000000
0  -3.601387 -14.467675 -6.479318  1.000000 0.000000 0.000000  0.006222 0.737512 1 64 1.000000
lowpoly_plastic
0  -3.601387 -14.771281 -6.323700  0.000000 -0.456137 -0.889910  0.006023 0.737313 1 64 1.000000
0  -4.133948 -14.771281 -6.323700  0.000000 -0.456137 -0.889910  0.006222 0.737313 1 64 1.000000
0  -4.133948 -14.467675 -6.479318  0.000000 -0.456137 -0.889910  0.006222 0.737512 1 64 1.000000
lowpoly_plastic
0  -4.133948 -14.467675 -6.479318  -1.000000 0.000000 0.000000  0.006023 0.737313 1 64 1.000000
0  -4.133948 -14.771281 -6.323700  -1.000000 0.000000 0.000000  0.006222 0.737313 1 64 1.000000
0  -4.133948 -13.068521 -6.323700  -1.000000 0.000000 0.000000  0.006222 0.737512 1 64 1.000000
lowpoly_plastic
0  -4.133948 -13.147368 -7.029551  -1.000000 0.000000 0.000000  0.006023 0.737313 1 64 1.000000
0  -4.133948 -13.366531 -7.346749  -1.000000 0.000000 0.000000  0.006222 0.737313 1 64 1.000000
0  -4.133948 -13.926785 -7.346749  -1.000000 0.000000 0.000000  0.006222 0.737512 1 64 1.000000
lowpoly_plastic
0  -3.601387 -13.068521 -6.323700  0.000000 -0.000000 1.000000  0.006023 0.737313 1 64 1.000000
0  -4.133948 -13.068521 -6.323700  0.000000 -0.000000 1.000000  0.006222 0.737313 1 64 1.000000
0  -4.133948 -14.771281 -6.323700  0.000000 -0.000000 1.000000  0.006222 0.737512 1 64 1.000000
lowpoly_plastic
0  -4.133948 -14.145947 -7.029551  -1.000000 0.000000 0.000000  0.006023 0.737313 1 64 1.000000
0  -4.133948 -14.309078 -6.676626  -1.000000 0.000000 0.000000  0.006222 0.737313 1 64 1.000000
0  -4.133948 -13.147369 -6.676626  -1.000000 0.000000 0.000000  0.006222 0.737512 1 64 1.000000
lowpoly_plastic
0  -3.601387 -14.309078 -6.676626  0.000000 -0.907721 -0.419574  0.006023 0.737313 1 64 1.000000
0  -4.133948 -14.309078 -6.676626  0.000000 -0.907721 -0.419574  0.006222 0.737313 1 64 1.000000
0  -4.133948 -14.145947 -7.029551  0.000000 -0.907721 -0.419574  0.006222 0.737512 1 64 1.000000
lowpoly_plastic
0  -3.601387 -13.147369 -6.676626  1.000000 0.000000 -0.000001  0.006023 0.737313 1 64 1.000000
0  -3.601387 -14.309078 -6.676626  1.000000 0.000000 -0.000001  0.006222 0.737313 1 64 1.000000
0  -3.601387 -14.145947 -7.029551  1.000000 0.000000 -0.000001  0.006222 0.737512 1 64 1.000000
lowpoly_plastic
0  -4.133948 -13.147369 -6.676626  0.000000 1.000000 -0.000003  0.006023 0.737313 1 64 1.000000
0  -3.601387 -13.147369 -6.676626  0.000000 1.000000 -0.000003  0.006222 0.737313 1 64 1.000000
0  -3.601387 -13.147368 -7.029551  0.000000 1.000000 -0.000003  0.006222 0.737512 1 64 1.000000
lowpoly_plastic
0  -4.133948 -14.309078 -6.676626  -1.000000 -0.000000 0.000000  0.006023 0.737313 1 64 1.000000
0  -4.133948 -14.467675 -6.479318  -1.000000 -0.000000 0.000000  0.006222 0.737313 1 64 1.000000
0  -4.133948 -13.147368 -6.500164  -1.000000 -0.000000 0.000000  0.006222 0.737512 1 64 1.000000
lowpoly_plastic
0  -3.601387 -14.467675 -6.479318  0.000000 -0.779418 -0.626504  0.006023 0.737313 1 64 1.000000
0  -4.133948 -14.467675 -6.479318  0.000000 -0.779418 -0.626504  0.006222 0.737313 1 64 1.000000
0  -4.133948 -14.309078 -6.676626  0.000000 -0.779418 -0.626504  0.006222 0.737512 1 64 1.000000
lowpoly_plastic
0  -3.601387 -13.147368 -6.500164  1.000000 0.000000 0.000000  0.006023 0.737313 1 64 1.000000
0  -3.601387 -14.467675 -6.479318  1.000000 0.000000 0.000000  0.006222 0.737313 1 64 1.000000
0  -3.601387 -14.309078 -6.676626  1.000000 0.000000 0.000000  0.006222 0.737512 1 64 1.000000
lowpoly_plastic
0  -4.133948 -13.147368 -6.500164  0.000000 1.000000 -0.000010  0.006023 0.737313 1 64 1.000000
0  -3.601387 -13.147368 -6.500164  0.000000 1.000000 -0.000010  0.006222 0.737313 1 64 1.000000
0  -3.601387 -13.147369 -6.676626  0.000000 1.000000 -0.000010  0.006222 0.737512 1 64 1.000000
lowpoly_plastic
0  -3.601387 -13.926785 -7.346749  0.000000 0.000000 -1.000000  0.006023 0.737313 1 64 1.000000
0  -4.133948 -13.926785 -7.346749  0.000000 0.000000 -1.000000  0.006222 0.737313 1 64 1.000000
0  -4.133948 -13.366531 -7.346749  0.000000 0.000000 -1.000000  0.006222 0.737512 1 64 1.000000
lowpoly_plastic
0  -3.601387 -13.147368 -7.029551  1.000000 0.000000 0.000000  0.006023 0.737313 1 64 1.000000
0  -3.601387 -14.145947 -7.029551  1.000000 0.000000 0.000000  0.006222 0.737313 1 64 1.000000
0  -3.601387 -13.926785 -7.346749  1.000000 0.000000 0.000000  0.006222 0.737512 1 64 1.000000
lowpoly_plastic
0  -3.601387 -13.147368 -7.029551  0.000000 0.822722 -0.568444  0.006023 0.737313 1 64 1.000000
0  -3.601387 -13.366531 -7.346749  0.000000 0.822722 -0.568444  0.006222 0.737313 1 64 1.000000
0  -4.133948 -13.366531 -7.346749  0.000000 0.822722 -0.568444  0.006222 0.737512 1 64 1.000000
lowpoly_plastic
0  -4.133948 -14.145947 -7.029551  0.000000 -0.822722 -0.568444  0.006023 0.737313 1 64 1.000000
0  -4.133948 -13.926785 -7.346749  0.000000 -0.822722 -0.568444  0.006222 0.737313 1 64 1.000000
0  -3.601387 -13.926785 -7.346749  0.000000 -0.822722 -0.568444  0.006222 0.737512 1 64 1.000000
end
