version 1
nodes
0 "ValveBiped.Bip01_Spine4" -1
1 "ValveBiped.Bip01_L_Clavicle" 0
2 "ValveBiped.Bip01_L_UpperArm" 1
3 "ValveBiped.Bip01_L_Forearm" 2
4 "ValveBiped.Bip01_L_Hand" 3
5 "ValveBiped.Bip01_L_Finger4" 4
6 "ValveBiped.Bip01_L_Finger41" 5
7 "ValveBiped.Bip01_L_Finger42" 6
8 "ValveBiped.Bip01_L_Finger3" 4
9 "ValveBiped.Bip01_L_Finger31" 8
10 "ValveBiped.Bip01_L_Finger32" 9
11 "ValveBiped.Bip01_L_Finger2" 4
12 "ValveBiped.Bip01_L_Finger21" 11
13 "ValveBiped.Bip01_L_Finger22" 12
14 "ValveBiped.Bip01_L_Finger1" 4
15 "ValveBiped.Bip01_L_Finger11" 14
16 "ValveBiped.Bip01_L_Finger12" 15
17 "ValveBiped.Bip01_L_Finger0" 4
18 "ValveBiped.Bip01_L_Finger01" 17
19 "ValveBiped.Bip01_L_Finger02" 18
20 "ValveBiped.Bip01_L_Ulna" 3
21 "ValveBiped.Bip01_L_Wrist" 3
22 "rig_l_upperarm" 1
23 "rig_l_forearm" 22
24 "rig_d_l_forearm" 23
25 "rig_d_l_upperarm" 22
26 "ValveBiped.Bip01_R_Clavicle" 0
27 "ValveBiped.Bip01_R_UpperArm" 26
28 "ValveBiped.Bip01_R_Forearm" 27
29 "ValveBiped.Bip01_R_Hand" 28
30 "ValveBiped.Bip01_R_Finger4" 29
31 "ValveBiped.Bip01_R_Finger41" 30
32 "ValveBiped.Bip01_R_Finger42" 31
33 "ValveBiped.Bip01_R_Finger3" 29
34 "ValveBiped.Bip01_R_Finger31" 33
35 "ValveBiped.Bip01_R_Finger32" 34
36 "ValveBiped.Bip01_R_Finger2" 29
37 "ValveBiped.Bip01_R_Finger21" 36
38 "ValveBiped.Bip01_R_Finger22" 37
39 "ValveBiped.Bip01_R_Finger1" 29
40 "ValveBiped.Bip01_R_Finger11" 39
41 "ValveBiped.Bip01_R_Finger12" 40
42 "ValveBiped.Bip01_R_Finger0" 29
43 "ValveBiped.Bip01_R_Finger01" 42
44 "ValveBiped.Bip01_R_Finger02" 43
45 "ValveBiped.Bip01_R_Ulna" 28
46 "ValveBiped.Bip01_R_Wrist" 28
47 "rig_r_upperarm" 26
48 "rig_r_forearm" 47
49 "rig_d_r_forearm" 48
50 "rig_d_r_upperarm" 47
51 "rig_r_hand" -1
52 "rig_d_r_hand" 51
53 "rig_d_r_wrist" 52
54 "rig_l_hand" -1
55 "rig_d_l_hand" 54
56 "rig_d_l_wrist" 54
57 "rig_l_pole" -1
58 "rig_r_pole" -1
59 "rig_l_clavicle" -1
60 "rig_d_l_clavicle" 59
61 "rig_r_clavicle" -1
62 "rig_d_r_clavicle" 61
63 "Camera" -1
64 "body" -1
65 "trigger" 64
66 "bolt" 64
67 "barrel" 64
68 "magrel" 64
69 "chandle" 64
70 "boltrelease" 64
71 "laseradj" 64
72 "mag" -1
73 "bullet1" 72
74 "bullet2" 72
75 "bullet3" 72
76 "round1" 72
77 "round2" 72
78 "round3" 72
79 "mag2" -1
end
skeleton
time 0
0  0.000006 0.000000 0.000000  -1.570800 -1.391899 -1.570792
1  2.033349 1.000767 1.937657  -1.544956 -1.855077 -0.198630
2  6.027515 -0.000325 0.000206  -1.505242 0.319441 -0.625103
3  11.692120 0.000650 -0.000739  -0.000006 -0.000000 -0.007142
4  13.981890 0.007122 -0.000887  1.516565 -0.219059 -0.234851
5  3.859513 -0.142883 -1.192049  -0.468164 0.151540 -0.880272
6  1.312591 0.000010 0.000007  -0.000026 0.000045 -0.439738
7  0.729354 0.000052 0.000049  0.000017 0.000021 -0.244318
8  3.942146 0.046272 -0.431512  -0.151810 0.073212 -0.811101
9  1.539113 0.000083 0.000005  -0.000007 0.000021 -0.247841
10  1.196335 0.000145 0.000030  0.000012 0.000019 -0.430771
11  3.883508 -0.047273 0.431381  0.085898 0.021851 -0.587925
12  1.719574 -0.000026 0.000014  0.000015 0.005519 -0.366533
13  1.209182 0.000093 0.000012  0.000004 0.003092 -0.216437
14  3.859668 -0.138478 1.332410  0.354468 -0.042725 -0.531804
15  1.719449 -0.000014 0.000023  0.000029 0.004070 -0.363021
16  1.099670 0.000050 0.000006  0.000003 0.002579 -0.244381
17  0.805998 -0.349052 1.321254  -1.222687 -0.679194 -0.788886
18  1.789820 -0.000002 -0.000017  0.000012 -0.000024 0.228522
19  1.207011 -0.000014 -0.000044  0.000002 -0.000008 0.362858
20  5.740637 0.000410 -0.000703  -0.080120 0.000003 0.000071
21  11.981389 0.001634 -0.000839  -0.008467 -0.021537 -0.058656
22  6.027524 -0.000330 0.000203  -2.710732 -0.719638 0.651452
23  0.000001 11.692101 -0.000007  -0.005486 -0.000058 -0.004638
24  0.000003 0.000008 -0.000002  0.868996 -0.000030 1.570739
25  -0.000001 -0.000012 -0.000001  0.868957 0.000002 1.570712
26  2.033355 1.000772 -1.937609  1.473120 1.855075 -0.198639
27  6.027508 -0.000258 -0.000242  1.489393 -0.294193 -0.675068
28  11.691986 0.000245 0.000856  -0.000051 -0.000000 -0.007108
29  15.888907 0.012262 0.001130  -1.416093 0.218734 -0.271393
30  3.859436 -0.132785 1.193062  0.466291 -0.158048 -0.878829
31  1.312558 0.000026 0.000001  0.000011 -0.000044 -0.439710
32  0.729345 0.000062 -0.000028  -0.000023 -0.000019 -0.244286
33  3.942046 0.050109 0.430998  0.150090 -0.079180 -0.810199
34  1.539096 0.000009 -0.000001  0.000010 -0.000008 -0.247820
35  1.196297 0.000075 -0.000003  -0.000007 -0.000009 -0.430782
36  3.883409 -0.050501 -0.431087  -0.085915 -0.026391 -0.587671
37  1.719563 -0.000077 -0.000004  -0.000006 -0.007962 -0.366483
38  1.209197 0.000037 0.000011  0.000002 -0.004460 -0.216413
39  3.859585 -0.149113 -1.331323  -0.354446 0.038580 -0.531963
40  1.719412 -0.000100 -0.000034  -0.000028 -0.006585 -0.363032
41  1.099675 0.000025 0.000006  0.000004 -0.004187 -0.244346
42  0.805978 -0.359855 -1.318339  1.221444 0.673631 -0.793566
43  1.789778 -0.000008 -0.000043  -0.000028 0.000031 0.228552
44  1.206998 -0.000007 0.000006  -0.000017 0.000020 0.362911
45  5.740573 0.000056 0.000724  0.115590 -0.000014 0.000021
46  12.362727 0.002488 0.000975  0.031224 0.020008 -0.068857
47  6.027514 -0.000273 -0.000237  0.404071 -0.741307 -2.527030
48  -0.000000 11.691973 -0.000006  -0.005439 0.000036 0.004598
49  0.000004 -0.000002 -0.000001  2.272569 -0.000041 1.570856
50  -0.000006 -0.000015 0.000005  2.272644 -0.000030 1.570865
51  -23.122208 7.682197 -20.878065  -1.605366 2.379717 -0.041994
52  -0.000000 -0.000001 -0.000000  0.008153 -0.000259 0.000009
53  -0.000002 0.000000 0.000000  1.565115 0.043565 -0.106862
54  22.765793 6.583928 -19.088528  1.654271 0.703922 0.079136
55  0.000003 -0.000001 -0.000000  0.000000 -0.000000 -0.000002
56  0.000033 0.000029 0.000001  -1.571901 -0.044449 -0.106509
57  15.265023 8.339654 -8.787539  1.570796 -0.000000 0.000000
58  -15.265000 8.339654 -8.787539  1.570796 -0.000000 0.000000
59  1.941978 -1.346989 1.821586  1.570796 -0.000000 0.000000
60  -0.004311 0.001230 -0.000371  0.006898 -0.005534 -0.284229
61  -1.937603 -1.346625 1.822824  1.570796 -0.000000 0.000000
62  0.000000 0.000000 0.000000  -0.078727 -3.136056 0.284226
63  0.000000 0.000000 0.000000  1.570796 -0.000000 0.000000
64  -3.867668 -7.481349 -6.398460  1.570796 -0.000000 0.000000
65  0.000000 0.106749 0.631995  0.000000 -0.000000 0.000000
66  0.000000 0.621414 -1.027760  0.000000 -0.000000 0.000000
67  0.000000 0.532204 8.683752  0.000000 -0.000000 0.000000
68  -0.000000 -1.186305 0.340613  0.000000 -0.000000 0.000000
69  0.000000 1.996277 -5.696260  0.000000 -0.000000 0.000000
70  0.000000 0.111713 1.276771  0.000000 -0.000000 0.000000
71  -1.117961 0.703408 5.154790  0.000000 -0.000000 0.000000
72  -3.867669 -7.978369 -11.192551  1.570796 -0.000000 0.000000
73  0.036712 3.547556 -0.615411  0.000000 -0.000000 0.000000
74  -0.076920 3.276581 -0.615409  0.000000 -0.000000 0.000000
75  0.045456 3.053679 -0.615410  0.000000 -0.000000 0.000000
76  0.000000 1.834484 -0.723263  0.000000 -0.000000 0.000000
77  0.000000 1.834484 -0.560888  0.000000 -0.000000 0.000000
78  0.000000 1.834484 -0.409514  0.000000 -0.000000 0.000000
79  -3.607180 16.983395 -18.481731  1.593314 -0.053389 -0.015666
end
triangles
lowpoly_metal
0  -4.069737 -15.716163 -5.694435  0.000003 1.000000 -0.000004  0.005462 0.764834 1 64 1.000000
0  -3.867667 -15.716163 -5.513028  0.000021 1.000000 -0.000029  0.005488 0.764834 1 64 1.000000
0  -3.867667 -15.716165 -5.577770  0.000026 1.000000 -0.000036  0.005488 0.764860 1 64 1.000000
lowpoly_metal
0  -3.867667 -17.144815 -5.511321  0.000000 -1.000000 0.000000  0.005462 0.764834 1 64 1.000000
0  -4.056957 -17.144815 -5.701813  0.000000 -1.000000 0.000000  0.005488 0.764834 1 64 1.000000
0  -3.867667 -17.144815 -5.592526  0.000000 -1.000000 0.000000  0.005488 0.764860 1 64 1.000000
lowpoly_metal
0  -3.665597 -15.716163 -5.694435  -0.000003 1.000000 -0.000004  0.005462 0.764834 1 64 1.000000
0  -3.867667 -15.716163 -5.513028  -0.000021 1.000000 -0.000029  0.005488 0.764834 1 64 1.000000
0  -3.609529 -15.716163 -5.662064  0.000000 1.000000 0.000000  0.005488 0.764860 1 64 1.000000
lowpoly_metal
0  -3.608050 -17.144815 -5.661211  0.000000 -1.000000 0.000000  0.005462 0.764834 1 64 1.000000
0  -3.678376 -17.144815 -5.920387  0.000000 -1.000000 0.000000  0.005488 0.764834 1 64 1.000000
0  -3.608050 -17.144815 -5.960989  0.000000 -1.000000 0.000000  0.005488 0.764860 1 64 1.000000
lowpoly_metal
0  -3.867667 -17.144815 -5.511321  0.000000 -1.000000 -0.000006  0.005462 0.764834 1 64 1.000000
0  -3.678376 -17.144815 -5.701813  0.000000 -1.000000 -0.000020  0.005488 0.764834 1 64 1.000000
0  -3.608050 -17.144815 -5.661211  0.000000 -1.000000 -0.000023  0.005488 0.764860 1 64 1.000000
lowpoly_plastic
0  -3.979725 -16.244705 -6.046183  -0.707106 0.000000 0.707108  0.005462 0.764834 1 64 1.000000
0  -3.928243 -16.672453 -5.994700  -0.707112 0.000000 0.707101  0.005488 0.764834 1 64 1.000000
0  -3.928243 -16.244705 -5.994700  -0.707105 0.000000 0.707109  0.005488 0.764860 1 64 1.000000
lowpoly_metal
0  -3.609529 -15.716163 -5.960137  0.500000 0.000000 -0.866025  0.005462 0.764834 1 64 1.000000
0  -3.867667 -15.829450 -6.109173  0.499998 0.000000 -0.866026  0.005488 0.764834 1 64 1.000000
0  -3.867667 -15.716165 -6.109173  0.499997 0.000000 -0.866027  0.005488 0.764860 1 64 1.000000
lowpoly_plastic
0  -3.678376 -16.672451 -5.877367  -0.707108 -0.000000 -0.707105  0.005462 0.764834 1 64 1.000000
0  -3.608051 -16.244705 -5.947693  -0.707102 -0.000001 -0.707111  0.005488 0.764834 1 64 1.000000
0  -3.608051 -16.672451 -5.947693  -0.707110 0.000000 -0.707104  0.005488 0.764860 1 64 1.000000
lowpoly_metal
0  -4.125805 -15.716163 -5.960137  -1.000000 0.000000 0.000000  0.005462 0.764834 1 64 1.000000
0  -4.125805 -15.829449 -5.662064  -1.000000 0.000000 0.000000  0.005488 0.764834 1 64 1.000000
0  -4.125805 -15.716163 -5.662064  -1.000000 0.000000 0.000000  0.005488 0.764860 1 64 1.000000
lowpoly_metal
0  -4.096343 -15.829447 -5.943126  -1.000000 -0.000002 0.000000  0.005462 0.764834 1 64 1.000000
0  -4.096343 -15.886092 -5.679073  -1.000000 -0.000011 0.000000  0.005488 0.764834 1 64 1.000000
0  -4.096343 -15.829449 -5.679074  -1.000000 -0.000012 0.000000  0.005488 0.764860 1 64 1.000000
lowpoly_metal
0  -4.127284 -16.672453 -5.674508  -1.000000 0.000000 0.000000  0.005462 0.764834 1 64 1.000000
0  -4.127284 -16.244705 -5.947692  -1.000000 0.000000 0.000000  0.005488 0.764834 1 64 1.000000
0  -4.127284 -16.672453 -5.947692  -1.000000 0.000000 0.000000  0.005488 0.764860 1 64 1.000000
lowpoly_plastic
0  -3.678377 -15.739523 -5.920386  -1.000000 -0.000000 0.000000  0.029085 0.877045 1 64 1.000000
0  -3.678377 -16.154428 -5.701813  -1.000000 -0.000000 0.000000  0.029085 0.877045 1 64 1.000000
0  -3.678377 -15.739523 -5.701813  -1.000000 -0.000001 0.000000  0.029112 0.877045 1 64 1.000000
lowpoly_metal
0  -3.608050 -17.144815 -5.960989  1.000000 0.000000 0.000000  0.005488 0.764834 1 64 1.000000
0  -3.608050 -16.700356 -5.661211  1.000000 0.000000 0.000000  0.005462 0.764834 1 64 1.000000
0  -3.608050 -17.144815 -5.661211  1.000000 0.000000 0.000000  0.005488 0.764834 1 64 1.000000
lowpoly_plastic
0  -4.056957 -17.144815 -5.920387  1.000000 0.000000 0.000000  0.029085 0.877045 1 64 1.000000
0  -4.056957 -16.762730 -5.701813  1.000000 0.000000 0.000000  0.029085 0.877045 1 64 1.000000
0  -4.056957 -17.144815 -5.701813  1.000000 0.000000 0.000000  0.029112 0.877045 1 64 1.000000
lowpoly_metal
0  -4.069737 -15.521060 -5.927765  -1.000000 0.000000 0.000000  0.005462 0.764834 1 64 1.000000
0  -4.069737 -15.716163 -5.694435  -1.000000 0.000000 0.000000  0.005488 0.764834 1 64 1.000000
0  -4.069737 -15.521060 -5.694435  -1.000000 0.000000 0.000000  0.005488 0.764860 1 64 1.000000
lowpoly_plastic
0  -4.056957 -15.739523 -5.701813  1.000000 -0.000000 0.000000  0.029085 0.877045 1 64 1.000000
0  -4.056957 -16.154430 -5.920387  1.000000 -0.000000 0.000000  0.029085 0.877045 1 64 1.000000
0  -4.056957 -15.739523 -5.920386  1.000000 -0.000000 0.000000  0.029112 0.877045 1 64 1.000000
lowpoly_metal
0  -4.127284 -15.886092 -5.960989  -1.000000 0.000000 0.000000  0.005462 0.764834 1 64 1.000000
0  -4.127284 -16.216801 -5.661211  -1.000000 0.000000 0.000000  0.005462 0.764834 1 64 1.000000
0  -4.127284 -15.886091 -5.661211  -1.000000 0.000000 0.000000  0.005488 0.764834 1 64 1.000000
lowpoly_plastic
0  -3.608051 -16.244705 -5.674508  -0.707105 -0.000001 0.707109  0.005462 0.764834 1 64 1.000000
0  -3.678376 -16.672453 -5.744834  -0.707107 -0.000000 0.707106  0.005488 0.764834 1 64 1.000000
0  -3.608050 -16.672455 -5.674508  -0.707108 0.000000 0.707106  0.005488 0.764860 1 64 1.000000
lowpoly_metal
0  -3.867667 -15.716165 -6.109173  -0.500002 0.000000 -0.866024  0.005462 0.764834 1 64 1.000000
0  -4.125805 -15.829449 -5.960137  -0.500009 0.000000 -0.866020  0.005488 0.764834 1 64 1.000000
0  -4.125805 -15.716163 -5.960137  -0.500012 0.000000 -0.866018  0.005488 0.764860 1 64 1.000000
lowpoly_plastic
0  -4.006237 -16.930614 -5.672531  -0.670088 0.319323 -0.670086  0.005462 0.764834 1 64 1.000000
0  -3.979725 -16.672451 -5.576018  -0.670094 0.319318 -0.670082  0.005488 0.764834 1 64 1.000000
0  -3.928243 -16.672453 -5.627501  -0.670095 0.319317 -0.670082  0.005488 0.764860 1 64 1.000000
lowpoly_metal
0  -3.665597 -15.521060 -5.694435  0.499998 0.000002 0.866026  0.005462 0.764834 1 64 1.000000
0  -3.867667 -15.716165 -5.577770  0.499998 0.000002 0.866027  0.005488 0.764834 1 64 1.000000
0  -3.665597 -15.716163 -5.694435  0.499999 0.000000 0.866026  0.005488 0.764860 1 64 1.000000
lowpoly_metal
0  -3.608051 -15.886091 -5.661211  1.000000 0.000001 0.000000  0.005462 0.764834 1 64 1.000000
0  -3.608051 -16.216803 -5.960990  1.000000 0.000000 0.000000  0.005462 0.764834 1 64 1.000000
0  -3.608051 -15.886092 -5.960989  1.000000 0.000001 0.000000  0.005488 0.764834 1 64 1.000000
lowpoly_metal
0  -3.867667 -15.716163 -5.513028  0.499997 0.000000 0.866027  0.005462 0.764834 1 64 1.000000
0  -3.609529 -15.829449 -5.662064  0.499997 0.000000 0.866027  0.005488 0.764834 1 64 1.000000
0  -3.609529 -15.716163 -5.662064  0.499997 0.000000 0.866027  0.005488 0.764860 1 64 1.000000
lowpoly_plastic
0  -3.807091 -16.672455 -5.627501  0.707108 0.000000 -0.707106  0.005462 0.764834 1 64 1.000000
0  -3.755609 -16.244707 -5.576018  0.707114 0.000000 -0.707100  0.005488 0.764834 1 64 1.000000
0  -3.755609 -16.672455 -5.576018  0.707107 0.000000 -0.707107  0.005488 0.764860 1 64 1.000000
lowpoly_metal
0  -3.665597 -15.521060 -5.927765  0.500001 0.000000 -0.866025  0.005462 0.764834 1 64 1.000000
0  -3.867667 -15.716163 -6.044430  0.500000 0.000000 -0.866025  0.005488 0.764834 1 64 1.000000
0  -3.867667 -15.521060 -6.044430  0.499998 0.000000 -0.866026  0.005488 0.764860 1 64 1.000000
lowpoly_metal
0  -3.867667 -15.521060 -6.044430  -0.500000 0.000000 -0.866025  0.005462 0.764834 1 64 1.000000
0  -4.069737 -15.716162 -5.927765  -0.500001 0.000000 -0.866025  0.005488 0.764834 1 64 1.000000
0  -4.069737 -15.521060 -5.927765  -0.500003 0.000000 -0.866024  0.005488 0.764860 1 64 1.000000
lowpoly_metal
0  -4.125805 -15.716163 -5.662064  -0.499997 0.000000 0.866027  0.005462 0.764834 1 64 1.000000
0  -3.867667 -15.829449 -5.513028  -0.499997 0.000000 0.866027  0.005488 0.764834 1 64 1.000000
0  -3.867667 -15.716163 -5.513028  -0.499997 0.000000 0.866027  0.005488 0.764860 1 64 1.000000
lowpoly_metal
0  -3.609529 -15.716163 -5.662064  1.000000 0.000000 0.000000  0.005462 0.764834 1 64 1.000000
0  -3.609529 -15.829449 -5.960137  1.000000 0.000000 0.000000  0.005488 0.764834 1 64 1.000000
0  -3.609529 -15.716163 -5.960137  1.000000 0.000000 0.000000  0.005488 0.764860 1 64 1.000000
lowpoly_metal
0  -4.069737 -15.521060 -5.694435  -0.499998 0.000002 0.866026  0.005462 0.764834 1 64 1.000000
0  -3.867667 -15.716165 -5.577770  -0.499998 0.000002 0.866027  0.005488 0.764834 1 64 1.000000
0  -3.867667 -15.521060 -5.577771  -0.499997 0.000004 0.866027  0.005488 0.764860 1 64 1.000000
lowpoly_metal
0  -3.638991 -15.829447 -5.943126  0.500001 -0.000001 -0.866025  0.005462 0.764834 1 64 1.000000
0  -3.867667 -15.886092 -6.075153  0.500007 -0.000006 -0.866021  0.005488 0.764834 1 64 1.000000
0  -3.867667 -15.829449 -6.075153  0.500009 -0.000008 -0.866020  0.005488 0.764860 1 64 1.000000
lowpoly_metal
0  -4.127283 -17.144815 -5.661211  -1.000000 -0.000001 0.000000  0.005488 0.764834 1 64 1.000000
0  -4.127284 -16.700357 -5.960990  -1.000000 -0.000001 0.000000  0.005462 0.764834 1 64 1.000000
0  -4.127283 -17.144815 -5.960989  -1.000000 -0.000001 0.000000  0.005488 0.764834 1 64 1.000000
lowpoly_metal
0  -3.608051 -16.672451 -5.947693  1.000000 0.000001 -0.000001  0.005462 0.764834 1 64 1.000000
0  -3.608051 -16.244705 -5.674508  1.000000 0.000000 -0.000001  0.005488 0.764834 1 64 1.000000
0  -3.608050 -16.672455 -5.674508  1.000000 0.000001 -0.000002  0.005488 0.764860 1 64 1.000000
lowpoly_metal
0  -3.867667 -15.829449 -5.513028  0.000000 -1.000000 0.000001  0.005462 0.764834 1 64 1.000000
0  -4.096343 -15.829449 -5.679074  0.000000 -1.000000 0.000013  0.005488 0.764834 1 64 1.000000
0  -3.867667 -15.829449 -5.547048  0.000000 -1.000000 0.000000  0.005488 0.764860 1 64 1.000000
lowpoly_plastic
0  -4.056957 -16.672451 -5.744834  1.000000 -0.000001 0.000000  0.029085 0.877045 1 64 1.000000
0  -4.056957 -16.762732 -5.920387  1.000000 -0.000003 0.000000  0.029112 0.877045 1 64 1.000000
0  -4.056957 -16.672453 -5.877367  1.000000 -0.000005 0.000000  0.029112 0.877072 1 64 1.000000
lowpoly_plastic
0  -4.056957 -16.154430 -5.920387  0.670080 -0.319331 -0.670089  0.005462 0.764834 1 64 1.000000
0  -4.127284 -16.244705 -5.947692  0.670065 -0.319332 -0.670104  0.005488 0.764834 1 64 1.000000
0  -4.127284 -16.216803 -5.960989  0.670038 -0.319334 -0.670130  0.005488 0.764860 1 64 1.000000
lowpoly_metal
0  -3.867667 -15.739523 -5.592526  0.000000 -1.000000 0.000000  0.005462 0.764834 1 64 1.000000
0  -3.772995 -15.739523 -5.756442  0.000000 -1.000000 0.000000  0.005488 0.764834 1 64 1.000000
0  -3.678377 -15.739523 -5.701813  0.000000 -1.000000 0.000000  0.005488 0.764860 1 64 1.000000
lowpoly_metal
0  -3.867667 -15.739523 -6.029674  -0.000008 -1.000000 0.000000  0.005462 0.764834 1 64 1.000000
0  -3.772995 -15.739523 -5.865758  -0.000004 -1.000000 0.000000  0.005488 0.764834 1 64 1.000000
0  -3.867667 -15.739522 -5.920418  -0.000015 -1.000000 0.000000  0.005488 0.764860 1 64 1.000000
lowpoly_metal
0  -3.638991 -15.886091 -5.943126  0.000014 1.000000 0.000000  0.005462 0.764834 1 64 1.000000
0  -3.867667 -15.886092 -6.110879  -0.000002 1.000000 0.000000  0.005488 0.764834 1 64 1.000000
0  -3.867667 -15.886092 -6.075153  -0.000004 1.000000 0.000000  0.005488 0.764860 1 64 1.000000
lowpoly_metal
0  -3.867667 -17.144815 -6.110879  0.000000 -1.000000 0.000000  0.005462 0.764834 1 64 1.000000
0  -4.056957 -17.144815 -5.920387  0.000000 -1.000000 0.000000  0.005488 0.764834 1 64 1.000000
0  -4.127283 -17.144815 -5.960989  0.000000 -1.000000 0.000000  0.005488 0.764860 1 64 1.000000
lowpoly_metal
0  -4.069737 -15.716162 -5.927765  -0.000015 1.000000 0.000001  0.005462 0.764834 1 64 1.000000
0  -4.125805 -15.716163 -5.662064  -0.000001 1.000000 0.000007  0.005488 0.764834 1 64 1.000000
0  -4.069737 -15.716163 -5.694435  0.000002 1.000000 0.000009  0.005488 0.764860 1 64 1.000000
lowpoly_plastic
0  -3.755609 -16.244705 -6.046183  0.707107 0.000000 0.707107  0.005462 0.764834 1 64 1.000000
0  -3.807091 -16.672451 -5.994700  0.707106 0.000000 0.707108  0.005488 0.764834 1 64 1.000000
0  -3.755609 -16.672453 -6.046183  0.707106 0.000000 0.707108  0.005488 0.764860 1 64 1.000000
lowpoly_metal
0  -3.867667 -15.829450 -6.109173  0.000010 -1.000000 0.000055  0.005462 0.764834 1 64 1.000000
0  -4.096343 -15.829447 -5.943126  0.000029 -1.000000 -0.000003  0.005488 0.764834 1 64 1.000000
0  -4.125805 -15.829449 -5.960137  0.000031 -1.000000 -0.000007  0.005488 0.764860 1 64 1.000000
lowpoly_metal
0  -4.125805 -15.829449 -5.960137  0.000062 -1.000000 -0.000007  0.005462 0.764834 1 64 1.000000
0  -4.096343 -15.829449 -5.679074  0.000003 -1.000000 -0.000000  0.005488 0.764834 1 64 1.000000
0  -4.125805 -15.829449 -5.662064  0.000000 -1.000000 0.000000  0.005488 0.764860 1 64 1.000000
lowpoly_metal
0  -3.867667 -15.829449 -5.513028  0.000000 -1.000000 0.000003  0.005462 0.764834 1 64 1.000000
0  -3.638991 -15.829449 -5.679074  0.000000 -1.000000 0.000026  0.005488 0.764834 1 64 1.000000
0  -3.609529 -15.829449 -5.662064  0.000000 -1.000000 0.000027  0.005488 0.764860 1 64 1.000000
lowpoly_metal
0  -4.056957 -15.739523 -5.920386  0.000000 -1.000000 0.000000  0.005462 0.764834 1 64 1.000000
0  -3.962338 -15.739523 -5.756442  0.000000 -1.000000 0.000000  0.005488 0.764834 1 64 1.000000
0  -4.056957 -15.739523 -5.701813  0.000000 -1.000000 0.000000  0.005488 0.764860 1 64 1.000000
lowpoly_metal
0  -3.638991 -15.829449 -5.679074  0.500004 0.000014 0.866023  0.005462 0.764834 1 64 1.000000
0  -3.867667 -15.886092 -5.547048  0.499994 0.000002 0.866029  0.005488 0.764834 1 64 1.000000
0  -3.638991 -15.886092 -5.679073  0.500006 0.000016 0.866022  0.005488 0.764860 1 64 1.000000
lowpoly_metal
0  -3.638991 -15.829447 -5.943126  1.000000 -0.000001 0.000000  0.005462 0.764834 1 64 1.000000
0  -3.638991 -15.886092 -5.679073  1.000000 -0.000005 0.000000  0.005488 0.764834 1 64 1.000000
0  -3.638991 -15.886091 -5.943126  1.000000 0.000000 0.000000  0.005488 0.764860 1 64 1.000000
lowpoly_metal
0  -4.096343 -15.829449 -5.679074  -0.500004 0.000014 0.866023  0.005462 0.764834 1 64 1.000000
0  -3.867667 -15.886092 -5.547048  -0.499994 0.000002 0.866029  0.005488 0.764834 1 64 1.000000
0  -3.867667 -15.829449 -5.547048  -0.499992 0.000000 0.866030  0.005488 0.764860 1 64 1.000000
lowpoly_metal
0  -3.608051 -16.244705 -5.674508  1.000000 -0.000001 0.000000  0.005488 0.764834 1 64 1.000000
0  -3.608051 -16.216803 -5.960990  1.000000 -0.000012 0.000000  0.005462 0.764834 1 64 1.000000
0  -3.608051 -16.216803 -5.661211  1.000000 0.000000 0.000000  0.005488 0.764834 1 64 1.000000
lowpoly_metal
0  -3.638991 -15.886092 -5.679073  -0.000026 1.000000 -0.000006  0.005462 0.764834 1 64 1.000000
0  -3.608051 -15.886092 -5.960989  0.000026 1.000000 0.000006  0.005488 0.764834 1 64 1.000000
0  -3.638991 -15.886091 -5.943126  0.000033 1.000000 0.000007  0.005488 0.764860 1 64 1.000000
lowpoly_metal
0  -4.096343 -15.886091 -5.943126  -0.000014 1.000000 0.000000  0.005462 0.764834 1 64 1.000000
0  -3.867667 -15.886092 -6.110879  0.000002 1.000000 0.000000  0.005488 0.764834 1 64 1.000000
0  -4.127284 -15.886092 -5.960989  -0.000015 1.000000 0.000000  0.005488 0.764860 1 64 1.000000
lowpoly_metal
0  -3.609529 -15.829449 -5.662064  -0.000003 -1.000000 -0.000007  0.005462 0.764834 1 64 1.000000
0  -3.638991 -15.829447 -5.943126  -0.000061 -1.000000 -0.000000  0.005488 0.764834 1 64 1.000000
0  -3.609529 -15.829449 -5.960137  -0.000065 -1.000000 0.000000  0.005488 0.764860 1 64 1.000000
lowpoly_metal
0  -3.638991 -15.886092 -5.679073  -0.000015 1.000000 -0.000003  0.005462 0.764834 1 64 1.000000
0  -3.867667 -15.886091 -5.511321  -0.000015 1.000000 -0.000052  0.005488 0.764834 1 64 1.000000
0  -3.608051 -15.886091 -5.661211  -0.000015 1.000000 0.000000  0.005488 0.764860 1 64 1.000000
lowpoly_metal
0  -4.096343 -15.886091 -5.943126  -0.000026 1.000000 0.000000  0.005462 0.764834 1 64 1.000000
0  -4.127284 -15.886091 -5.661211  0.000026 1.000000 0.000000  0.005488 0.764834 1 64 1.000000
0  -4.096343 -15.886092 -5.679073  0.000033 1.000000 0.000000  0.005488 0.764860 1 64 1.000000
lowpoly_metal
0  -4.127283 -17.144815 -5.960989  0.000000 -1.000000 0.000000  0.005462 0.764834 1 64 1.000000
0  -4.056957 -17.144815 -5.701813  0.000000 -1.000000 0.000000  0.005488 0.764834 1 64 1.000000
0  -4.127283 -17.144815 -5.661211  0.000000 -1.000000 0.000000  0.005488 0.764860 1 64 1.000000
lowpoly_metal
0  -3.867667 -15.886091 -5.511321  -0.499998 -0.000000 0.866026  0.005462 0.764834 1 64 1.000000
0  -3.979725 -16.672451 -5.576018  -0.499998 -0.000000 0.866026  0.005488 0.764834 1 64 1.000000
0  -3.867667 -17.144815 -5.511321  -0.499998 -0.000000 0.866026  0.005488 0.764860 1 64 1.000000
lowpoly_metal
0  -3.867667 -15.886092 -6.110879  -0.500010 0.000000 -0.866019  0.005462 0.764834 1 64 1.000000
0  -3.979725 -16.672455 -6.046183  -0.500010 0.000000 -0.866019  0.005488 0.764834 1 64 1.000000
0  -3.979725 -16.244705 -6.046183  -0.500010 0.000000 -0.866019  0.005488 0.764860 1 64 1.000000
lowpoly_metal
0  -3.867667 -15.886091 -5.511321  0.500002 0.000000 0.866024  0.005462 0.764834 1 64 1.000000
0  -3.755609 -16.672455 -5.576018  0.500002 0.000000 0.866024  0.005488 0.764834 1 64 1.000000
0  -3.755609 -16.244707 -5.576018  0.500002 0.000000 0.866024  0.005488 0.764860 1 64 1.000000
lowpoly_metal
0  -3.608050 -16.672455 -5.674508  1.000000 0.000001 -0.000000  0.005462 0.764834 1 64 1.000000
0  -3.608050 -16.700356 -5.960990  1.000000 0.000025 -0.000002  0.005488 0.764834 1 64 1.000000
0  -3.608051 -16.672451 -5.947693  1.000000 0.000027 -0.000002  0.005488 0.764860 1 64 1.000000
lowpoly_metal
0  -3.867667 -15.886092 -6.110879  0.499997 0.000000 -0.866027  0.005462 0.764834 1 64 1.000000
0  -3.755609 -16.672453 -6.046183  0.499997 0.000000 -0.866027  0.005488 0.764834 1 64 1.000000
0  -3.867667 -17.144815 -6.110879  0.499997 0.000000 -0.866027  0.005488 0.764860 1 64 1.000000
lowpoly_metal
0  -4.127284 -16.244705 -5.947692  -1.000000 0.000000 0.000000  0.005488 0.764834 1 64 1.000000
0  -4.127284 -16.216801 -5.661211  -1.000000 0.000006 0.000000  0.005462 0.764834 1 64 1.000000
0  -4.127284 -16.216803 -5.960989  -1.000000 0.000000 0.000000  0.005488 0.764834 1 64 1.000000
lowpoly_metal
0  -4.096343 -15.886092 -5.679073  0.000015 1.000000 -0.000003  0.005462 0.764834 1 64 1.000000
0  -3.867667 -15.886091 -5.511321  0.000015 1.000000 -0.000052  0.005488 0.764834 1 64 1.000000
0  -3.867667 -15.886092 -5.547048  0.000015 1.000000 -0.000058  0.005488 0.764860 1 64 1.000000
lowpoly_plastic
0  -3.867667 -17.144815 -5.592526  0.499992 0.000000 -0.866030  0.029085 0.877045 1 64 1.000000
0  -3.928243 -16.244705 -5.627500  0.499992 0.000000 -0.866030  0.029112 0.877045 1 64 1.000000
0  -3.867667 -15.739523 -5.592526  0.499992 0.000000 -0.866030  0.029112 0.877072 1 64 1.000000
lowpoly_plastic
0  -3.867667 -17.144815 -6.029674  0.499997 0.000000 0.866027  0.029085 0.877045 1 64 1.000000
0  -3.928243 -16.244705 -5.994700  0.499997 0.000000 0.866027  0.029112 0.877045 1 64 1.000000
0  -3.928243 -16.672453 -5.994700  0.499997 0.000000 0.866027  0.029112 0.877072 1 64 1.000000
lowpoly_plastic
0  -3.867667 -17.144815 -5.592526  -0.500013 0.000000 -0.866018  0.029085 0.877045 1 64 1.000000
0  -3.807091 -16.244707 -5.627501  -0.500013 0.000000 -0.866018  0.029112 0.877045 1 64 1.000000
0  -3.807091 -16.672455 -5.627501  -0.500013 0.000000 -0.866018  0.029112 0.877072 1 64 1.000000
lowpoly_plastic
0  -3.678377 -16.244705 -5.744834  -1.000000 0.000001 0.000000  0.029085 0.877045 1 64 1.000000
0  -3.678377 -16.154428 -5.920387  -1.000000 0.000001 0.000000  0.029112 0.877045 1 64 1.000000
0  -3.678377 -16.244705 -5.877367  -1.000000 0.000002 0.000000  0.029112 0.877072 1 64 1.000000
lowpoly_plastic
0  -3.867667 -17.144815 -6.029674  -0.500001 -0.000000 0.866025  0.029085 0.877045 1 64 1.000000
0  -3.807091 -16.244703 -5.994700  -0.500001 -0.000000 0.866025  0.029112 0.877045 1 64 1.000000
0  -3.867667 -15.739523 -6.029674  -0.500001 -0.000000 0.866025  0.029112 0.877072 1 64 1.000000
lowpoly_metal
0  -3.867667 -15.739523 -6.029674  0.000008 -1.000000 0.000000  0.005462 0.764834 1 64 1.000000
0  -3.962338 -15.739523 -5.865758  0.000004 -1.000000 0.000000  0.005488 0.764834 1 64 1.000000
0  -4.056957 -15.739523 -5.920386  0.000000 -1.000000 0.000000  0.005488 0.764860 1 64 1.000000
lowpoly_metal
0  -4.069737 -15.716162 -5.927765  -0.000006 1.000000 -0.000007  0.005462 0.764834 1 64 1.000000
0  -3.867667 -15.716165 -6.109173  -0.000011 1.000000 -0.000058  0.005488 0.764834 1 64 1.000000
0  -4.125805 -15.716163 -5.960137  -0.000005 1.000000 0.000000  0.005488 0.764860 1 64 1.000000
lowpoly_metal
0  -3.665597 -15.716162 -5.927765  0.000006 1.000000 -0.000007  0.005462 0.764834 1 64 1.000000
0  -3.867667 -15.716165 -6.109173  0.000011 1.000000 -0.000058  0.005488 0.764834 1 64 1.000000
0  -3.867667 -15.716163 -6.044430  0.000012 1.000000 -0.000073  0.005488 0.764860 1 64 1.000000
lowpoly_metal
0  -3.665597 -15.716163 -5.694435  0.000002 1.000000 0.000001  0.005462 0.764834 1 64 1.000000
0  -3.609529 -15.716163 -5.960137  0.000016 1.000000 0.000007  0.005488 0.764834 1 64 1.000000
0  -3.665597 -15.716162 -5.927765  0.000019 1.000000 0.000009  0.005488 0.764860 1 64 1.000000
lowpoly_plastic
0  -4.006238 -15.986544 -5.672530  -0.670087 -0.319323 -0.670087  0.005462 0.764834 1 64 1.000000
0  -3.979725 -16.244705 -5.576018  -0.670088 -0.319319 -0.670088  0.005488 0.764834 1 64 1.000000
0  -4.057720 -15.986544 -5.621047  -0.670087 -0.319323 -0.670087  0.005488 0.764860 1 64 1.000000
lowpoly_plastic
0  -3.608051 -16.244705 -5.674508  -0.670094 -0.319335 0.670074  0.005462 0.764834 1 64 1.000000
0  -3.678377 -16.154428 -5.701813  -0.670090 -0.319328 0.670081  0.005462 0.764834 1 64 1.000000
0  -3.678377 -16.244705 -5.744834  -0.670087 -0.319322 0.670087  0.005488 0.764860 1 64 1.000000
lowpoly_plastic
0  -3.678376 -16.762730 -5.701813  -0.670081 0.319321 0.670094  0.005462 0.764834 1 64 1.000000
0  -3.677614 -16.930614 -5.621047  -0.670081 0.319321 0.670094  0.005488 0.764834 1 64 1.000000
0  -3.608050 -16.700356 -5.661211  -0.670081 0.319321 0.670094  0.005488 0.764860 1 64 1.000000
lowpoly_plastic
0  -3.755609 -16.672453 -6.046183  0.670087 0.319323 0.670087  0.005462 0.764834 1 64 1.000000
0  -3.729097 -16.930613 -5.949671  0.670086 0.319323 0.670088  0.005488 0.764834 1 64 1.000000
0  -3.677615 -16.930614 -6.001153  0.670086 0.319323 0.670088  0.005488 0.764860 1 64 1.000000
lowpoly_plastic
0  -4.127284 -16.700356 -5.661211  0.670087 0.319326 0.670086  0.005462 0.764834 1 64 1.000000
0  -4.057719 -16.930613 -5.621047  0.670087 0.319326 0.670086  0.005488 0.764834 1 64 1.000000
0  -4.056957 -16.762730 -5.701813  0.670087 0.319326 0.670086  0.005488 0.764860 1 64 1.000000
lowpoly_plastic
0  -3.979725 -16.244705 -6.046183  -0.670086 -0.319323 0.670087  0.005462 0.764834 1 64 1.000000
0  -4.006237 -15.986546 -5.949671  -0.670084 -0.319326 0.670089  0.005488 0.764834 1 64 1.000000
0  -4.057719 -15.986546 -6.001153  -0.670083 -0.319327 0.670089  0.005488 0.764860 1 64 1.000000
lowpoly_plastic
0  -4.127284 -16.672453 -5.674508  0.670087 0.319322 0.670087  0.005462 0.764834 1 64 1.000000
0  -4.056957 -16.762730 -5.701813  0.670087 0.319322 0.670087  0.005462 0.764834 1 64 1.000000
0  -4.056957 -16.672451 -5.744834  0.670087 0.319322 0.670087  0.005488 0.764860 1 64 1.000000
lowpoly_plastic
0  -3.729097 -15.986545 -5.672531  0.670093 -0.319323 -0.670080  0.005462 0.764834 1 64 1.000000
0  -3.755609 -16.244707 -5.576018  0.670097 -0.319318 -0.670080  0.005488 0.764834 1 64 1.000000
0  -3.807091 -16.244707 -5.627501  0.670097 -0.319317 -0.670079  0.005488 0.764860 1 64 1.000000
lowpoly_plastic
0  -3.608051 -16.216803 -5.661211  -0.670088 -0.319320 0.670087  0.005462 0.764834 1 64 1.000000
0  -3.677615 -15.986544 -5.621047  -0.670088 -0.319320 0.670087  0.005488 0.764834 1 64 1.000000
0  -3.678377 -16.154428 -5.701813  -0.670088 -0.319320 0.670087  0.005488 0.764860 1 64 1.000000
lowpoly_plastic
0  -4.127284 -16.672453 -5.947692  0.707105 0.000000 -0.707108  0.005462 0.764834 1 64 1.000000
0  -4.056957 -16.244705 -5.877367  0.707097 0.000000 -0.707116  0.005488 0.764834 1 64 1.000000
0  -4.056957 -16.672453 -5.877367  0.707107 0.000000 -0.707107  0.005488 0.764860 1 64 1.000000
lowpoly_plastic
0  -3.979725 -16.672451 -5.576018  -0.707117 0.000002 -0.707096  0.005462 0.764834 1 64 1.000000
0  -3.928243 -16.244705 -5.627500  -0.707110 0.000000 -0.707104  0.005488 0.764834 1 64 1.000000
0  -3.928243 -16.672453 -5.627501  -0.707118 0.000003 -0.707095  0.005488 0.764860 1 64 1.000000
lowpoly_metal
0  -3.867667 -15.829449 -6.075153  -0.500005 0.000000 -0.866023  0.005462 0.764834 1 64 1.000000
0  -4.096343 -15.886091 -5.943126  -0.500004 0.000000 -0.866023  0.005488 0.764834 1 64 1.000000
0  -4.096343 -15.829447 -5.943126  -0.500004 0.000000 -0.866023  0.005488 0.764860 1 64 1.000000
lowpoly_plastic
0  -4.056957 -16.154427 -5.701813  0.670094 -0.319322 0.670080  0.005462 0.764834 1 64 1.000000
0  -4.057720 -15.986544 -5.621047  0.670094 -0.319322 0.670080  0.005488 0.764834 1 64 1.000000
0  -4.127284 -16.216801 -5.661211  0.670094 -0.319322 0.670080  0.005488 0.764860 1 64 1.000000
lowpoly_plastic
0  -3.729097 -16.930614 -5.672531  0.670092 0.319324 -0.670081  0.005462 0.764834 1 64 1.000000
0  -3.755609 -16.672455 -5.576018  0.670091 0.319320 -0.670084  0.005488 0.764834 1 64 1.000000
0  -3.677614 -16.930614 -5.621047  0.670092 0.319325 -0.670080  0.005488 0.764860 1 64 1.000000
lowpoly_plastic
0  -4.056957 -16.244705 -5.744834  0.670094 -0.319319 0.670082  0.005488 0.764834 1 64 1.000000
0  -4.127284 -16.216801 -5.661211  0.670089 -0.319323 0.670085  0.005462 0.764834 1 64 1.000000
0  -4.127284 -16.244705 -5.674508  0.670080 -0.319330 0.670090  0.005488 0.764834 1 64 1.000000
lowpoly_plastic
0  -3.979725 -16.672455 -6.046183  -0.670090 0.319325 0.670082  0.005462 0.764834 1 64 1.000000
0  -4.006237 -16.930614 -5.949671  -0.670082 0.319326 0.670090  0.005488 0.764834 1 64 1.000000
0  -3.928243 -16.672453 -5.994700  -0.670092 0.319325 0.670080  0.005488 0.764860 1 64 1.000000
lowpoly_plastic
0  -4.127284 -16.672453 -5.947692  0.670079 0.319325 -0.670093  0.005462 0.764834 1 64 1.000000
0  -4.056957 -16.762732 -5.920387  0.670088 0.319322 -0.670086  0.005488 0.764860 1 64 1.000000
0  -4.127284 -16.700357 -5.960990  0.670065 0.319330 -0.670106  0.005488 0.764860 1 64 1.000000
lowpoly_plastic
0  -3.755609 -16.244705 -6.046183  0.670084 -0.319320 0.670091  0.005462 0.764834 1 64 1.000000
0  -3.729097 -15.986544 -5.949670  0.670071 -0.319323 0.670103  0.005488 0.764834 1 64 1.000000
0  -3.807091 -16.244703 -5.994700  0.670088 -0.319320 0.670088  0.005488 0.764860 1 64 1.000000
lowpoly_metal
0  -3.867667 -15.829450 -6.109173  -0.000010 -1.000000 0.000053  0.005462 0.764834 1 64 1.000000
0  -3.638991 -15.829447 -5.943126  -0.000029 -1.000000 -0.000016  0.005488 0.764834 1 64 1.000000
0  -3.867667 -15.829449 -6.075153  -0.000008 -1.000000 0.000061  0.005488 0.764860 1 64 1.000000
lowpoly_metal
0  -3.665597 -15.521060 -5.927765  1.000000 0.000000 0.000000  0.005462 0.764834 1 64 1.000000
0  -3.665597 -15.716163 -5.694435  1.000000 0.000000 0.000000  0.005488 0.764834 1 64 1.000000
0  -3.665597 -15.716162 -5.927765  1.000000 0.000000 0.000000  0.005488 0.764860 1 64 1.000000
lowpoly_metal
0  -3.678377 -15.739523 -5.920386  0.000000 -1.000000 0.000000  0.005462 0.764834 1 64 1.000000
0  -3.772995 -15.739523 -5.756442  0.000000 -1.000000 0.000000  0.005488 0.764834 1 64 1.000000
0  -3.772995 -15.739523 -5.865758  0.000000 -1.000000 0.000000  0.005488 0.764860 1 64 1.000000
lowpoly_metal
0  -3.867667 -15.739523 -5.592526  0.000000 -1.000000 0.000000  0.005462 0.764834 1 64 1.000000
0  -3.962338 -15.739523 -5.756442  0.000000 -1.000000 0.000000  0.005488 0.764834 1 64 1.000000
0  -3.867667 -15.739523 -5.701783  0.000000 -1.000000 0.000000  0.005488 0.764860 1 64 1.000000
lowpoly_metal
0  -3.867667 -17.144815 -6.110879  0.000000 -1.000000 0.000006  0.005462 0.764834 1 64 1.000000
0  -3.678376 -17.144815 -5.920387  0.000000 -1.000000 0.000020  0.005488 0.764834 1 64 1.000000
0  -3.867667 -17.144815 -6.029674  0.000000 -1.000000 0.000000  0.005488 0.764860 1 64 1.000000
lowpoly_plastic
0  -4.056957 -16.244705 -5.744834  0.707102 0.000000 0.707111  0.005462 0.764834 1 64 1.000000
0  -4.127284 -16.672453 -5.674508  0.707107 0.000000 0.707107  0.005488 0.764834 1 64 1.000000
0  -4.056957 -16.672451 -5.744834  0.707108 0.000000 0.707106  0.005488 0.764860 1 64 1.000000
lowpoly_metal
0  -4.127284 -15.886091 -5.661211  -0.499998 0.000000 0.866026  0.005462 0.764834 1 64 1.000000
0  -4.127284 -16.216801 -5.661211  -0.499998 0.000000 0.866026  0.005488 0.764834 1 64 1.000000
0  -4.057720 -15.986544 -5.621047  -0.499998 0.000000 0.866026  0.005488 0.764860 1 64 1.000000
lowpoly_metal
0  -3.867667 -15.886091 -5.511321  -0.500005 0.000003 0.866023  0.005462 0.764834 1 64 1.000000
0  -4.127284 -15.886091 -5.661211  -0.500005 0.000003 0.866023  0.005488 0.764834 1 64 1.000000
0  -4.057720 -15.986544 -5.621047  -0.500005 0.000003 0.866023  0.005488 0.764860 1 64 1.000000
lowpoly_metal
0  -4.057719 -16.930613 -5.621047  -0.500001 -0.000001 0.866025  0.005462 0.764834 1 64 1.000000
0  -4.127284 -16.700356 -5.661211  -0.500001 -0.000001 0.866025  0.005488 0.764834 1 64 1.000000
0  -4.127283 -17.144815 -5.661211  -0.500001 -0.000001 0.866025  0.005488 0.764860 1 64 1.000000
lowpoly_metal
0  -4.057719 -16.930613 -5.621047  -0.500001 -0.000002 0.866025  0.005462 0.764834 1 64 1.000000
0  -4.127283 -17.144815 -5.661211  -0.500001 -0.000002 0.866025  0.005488 0.764834 1 64 1.000000
0  -3.867667 -17.144815 -5.511321  -0.500001 -0.000002 0.866025  0.005488 0.764860 1 64 1.000000
lowpoly_metal
0  -3.867667 -15.886091 -5.511321  -0.500001 -0.000001 0.866025  0.005462 0.764834 1 64 1.000000
0  -4.057720 -15.986544 -5.621047  -0.500001 -0.000001 0.866025  0.005488 0.764834 1 64 1.000000
0  -3.979725 -16.244705 -5.576018  -0.500001 -0.000001 0.866025  0.005488 0.764860 1 64 1.000000
lowpoly_metal
0  -3.979725 -16.672451 -5.576018  -0.500000 0.000002 0.866025  0.005462 0.764834 1 64 1.000000
0  -4.057719 -16.930613 -5.621047  -0.500000 0.000002 0.866025  0.005488 0.764834 1 64 1.000000
0  -3.867667 -17.144815 -5.511321  -0.500000 0.000002 0.866025  0.005488 0.764860 1 64 1.000000
lowpoly_metal
0  -3.867667 -15.886091 -5.511321  -0.499995 -0.000001 0.866028  0.005462 0.764834 1 64 1.000000
0  -3.979725 -16.244705 -5.576018  -0.499995 -0.000001 0.866028  0.005488 0.764834 1 64 1.000000
0  -3.979725 -16.672451 -5.576018  -0.499995 -0.000001 0.866028  0.005488 0.764860 1 64 1.000000
lowpoly_metal
0  -4.127283 -17.144815 -5.960989  -0.499993 -0.000002 -0.866029  0.005462 0.764834 1 64 1.000000
0  -4.127284 -16.700357 -5.960990  -0.499993 -0.000002 -0.866029  0.005488 0.764834 1 64 1.000000
0  -4.057719 -16.930614 -6.001153  -0.499993 -0.000002 -0.866029  0.005488 0.764860 1 64 1.000000
lowpoly_metal
0  -3.867667 -17.144815 -6.110879  -0.500006 0.000000 -0.866022  0.005462 0.764834 1 64 1.000000
0  -4.127283 -17.144815 -5.960989  -0.500006 0.000000 -0.866022  0.005488 0.764834 1 64 1.000000
0  -4.057719 -16.930614 -6.001153  -0.500006 0.000000 -0.866022  0.005488 0.764860 1 64 1.000000
lowpoly_metal
0  -4.057719 -15.986546 -6.001153  -0.500002 0.000000 -0.866024  0.005462 0.764834 1 64 1.000000
0  -4.127284 -16.216803 -5.960989  -0.500002 0.000000 -0.866024  0.005488 0.764834 1 64 1.000000
0  -4.127284 -15.886092 -5.960989  -0.500002 0.000000 -0.866024  0.005488 0.764860 1 64 1.000000
lowpoly_metal
0  -4.057719 -15.986546 -6.001153  -0.499990 0.000000 -0.866031  0.005462 0.764834 1 64 1.000000
0  -4.127284 -15.886092 -5.960989  -0.499990 0.000000 -0.866031  0.005488 0.764834 1 64 1.000000
0  -3.867667 -15.886092 -6.110879  -0.499990 0.000000 -0.866031  0.005488 0.764860 1 64 1.000000
lowpoly_metal
0  -3.867667 -17.144815 -6.110879  -0.500001 0.000000 -0.866025  0.005462 0.764834 1 64 1.000000
0  -4.057719 -16.930614 -6.001153  -0.500001 0.000000 -0.866025  0.005488 0.764834 1 64 1.000000
0  -3.979725 -16.672455 -6.046183  -0.500001 0.000000 -0.866025  0.005488 0.764860 1 64 1.000000
lowpoly_metal
0  -3.979725 -16.244705 -6.046183  -0.500005 -0.000001 -0.866022  0.005462 0.764834 1 64 1.000000
0  -4.057719 -15.986546 -6.001153  -0.500005 -0.000001 -0.866022  0.005488 0.764834 1 64 1.000000
0  -3.867667 -15.886092 -6.110879  -0.500005 -0.000001 -0.866022  0.005488 0.764860 1 64 1.000000
lowpoly_metal
0  -3.867667 -17.144815 -6.110879  -0.499996 0.000000 -0.866028  0.005462 0.764834 1 64 1.000000
0  -3.979725 -16.672455 -6.046183  -0.499996 0.000000 -0.866028  0.005488 0.764834 1 64 1.000000
0  -3.867667 -15.886092 -6.110879  -0.499996 0.000000 -0.866028  0.005488 0.764860 1 64 1.000000
lowpoly_metal
0  -3.608050 -17.144815 -5.661211  0.500005 0.000000 0.866022  0.005462 0.764834 1 64 1.000000
0  -3.608050 -16.700356 -5.661211  0.500005 0.000000 0.866022  0.005488 0.764834 1 64 1.000000
0  -3.677614 -16.930614 -5.621047  0.500005 0.000000 0.866022  0.005488 0.764860 1 64 1.000000
lowpoly_metal
0  -3.867667 -17.144815 -5.511321  0.500000 -0.000001 0.866026  0.005462 0.764834 1 64 1.000000
0  -3.608050 -17.144815 -5.661211  0.500000 -0.000001 0.866026  0.005488 0.764834 1 64 1.000000
0  -3.677614 -16.930614 -5.621047  0.500000 -0.000001 0.866026  0.005488 0.764860 1 64 1.000000
lowpoly_metal
0  -3.677615 -15.986544 -5.621047  0.500005 0.000000 0.866022  0.005462 0.764834 1 64 1.000000
0  -3.608051 -16.216803 -5.661211  0.500005 0.000000 0.866022  0.005488 0.764834 1 64 1.000000
0  -3.608051 -15.886091 -5.661211  0.500005 0.000000 0.866022  0.005488 0.764860 1 64 1.000000
lowpoly_metal
0  -3.677615 -15.986544 -5.621047  0.499998 0.000000 0.866027  0.005462 0.764834 1 64 1.000000
0  -3.608051 -15.886091 -5.661211  0.499998 0.000000 0.866027  0.005488 0.764834 1 64 1.000000
0  -3.867667 -15.886091 -5.511321  0.499998 0.000000 0.866027  0.005488 0.764860 1 64 1.000000
lowpoly_metal
0  -3.867667 -17.144815 -5.511321  0.499993 0.000000 0.866030  0.005462 0.764834 1 64 1.000000
0  -3.677614 -16.930614 -5.621047  0.499993 0.000000 0.866030  0.005488 0.764834 1 64 1.000000
0  -3.755609 -16.672455 -5.576018  0.499993 0.000000 0.866030  0.005488 0.764860 1 64 1.000000
lowpoly_metal
0  -3.755609 -16.244707 -5.576018  0.500002 -0.000001 0.866024  0.005462 0.764834 1 64 1.000000
0  -3.677615 -15.986544 -5.621047  0.500002 -0.000001 0.866024  0.005488 0.764834 1 64 1.000000
0  -3.867667 -15.886091 -5.511321  0.500002 -0.000001 0.866024  0.005488 0.764860 1 64 1.000000
lowpoly_metal
0  -3.867667 -17.144815 -5.511321  0.499995 -0.000000 0.866028  0.005462 0.764834 1 64 1.000000
0  -3.755609 -16.672455 -5.576018  0.499995 -0.000000 0.866028  0.005488 0.764834 1 64 1.000000
0  -3.867667 -15.886091 -5.511321  0.499995 -0.000000 0.866028  0.005488 0.764860 1 64 1.000000
lowpoly_plastic
0  -3.678376 -16.672451 -5.877367  -1.000000 0.000000 0.000000  0.029085 0.877045 1 64 1.000000
0  -3.678376 -16.762730 -5.701813  -1.000000 0.000000 0.000000  0.029112 0.877045 1 64 1.000000
0  -3.678376 -16.672453 -5.744834  -1.000000 0.000000 0.000000  0.029112 0.877072 1 64 1.000000
lowpoly_metal
0  -3.608051 -15.886092 -5.960989  0.500009 0.000002 -0.866020  0.005462 0.764834 1 64 1.000000
0  -3.608051 -16.216803 -5.960990  0.500009 0.000002 -0.866020  0.005488 0.764834 1 64 1.000000
0  -3.677615 -15.986545 -6.001153  0.500009 0.000002 -0.866020  0.005488 0.764860 1 64 1.000000
lowpoly_metal
0  -3.867667 -15.886092 -6.110879  0.499994 -0.000001 -0.866029  0.005462 0.764834 1 64 1.000000
0  -3.608051 -15.886092 -5.960989  0.499994 -0.000001 -0.866029  0.005488 0.764834 1 64 1.000000
0  -3.677615 -15.986545 -6.001153  0.499994 -0.000001 -0.866029  0.005488 0.764860 1 64 1.000000
lowpoly_metal
0  -3.677615 -16.930614 -6.001153  0.500007 -0.000001 -0.866021  0.005462 0.764834 1 64 1.000000
0  -3.608050 -16.700356 -5.960990  0.500007 -0.000001 -0.866021  0.005488 0.764834 1 64 1.000000
0  -3.608050 -17.144815 -5.960989  0.500007 -0.000001 -0.866021  0.005488 0.764860 1 64 1.000000
lowpoly_metal
0  -3.677615 -16.930614 -6.001153  0.500001 -0.000002 -0.866024  0.005462 0.764834 1 64 1.000000
0  -3.608050 -17.144815 -5.960989  0.500001 -0.000002 -0.866024  0.005488 0.764834 1 64 1.000000
0  -3.867667 -17.144815 -6.110879  0.500001 -0.000002 -0.866024  0.005488 0.764860 1 64 1.000000
lowpoly_metal
0  -3.867667 -15.886092 -6.110879  0.500001 0.000000 -0.866025  0.005462 0.764834 1 64 1.000000
0  -3.677615 -15.986545 -6.001153  0.500001 0.000000 -0.866025  0.005488 0.764834 1 64 1.000000
0  -3.755609 -16.244705 -6.046183  0.500001 0.000000 -0.866025  0.005488 0.764860 1 64 1.000000
lowpoly_metal
0  -3.755609 -16.672453 -6.046183  0.500002 0.000001 -0.866024  0.005462 0.764834 1 64 1.000000
0  -3.677615 -16.930614 -6.001153  0.500002 0.000001 -0.866024  0.005488 0.764834 1 64 1.000000
0  -3.867667 -17.144815 -6.110879  0.500002 0.000001 -0.866024  0.005488 0.764860 1 64 1.000000
lowpoly_metal
0  -3.867667 -15.886092 -6.110879  0.500006 0.000000 -0.866022  0.005462 0.764834 1 64 1.000000
0  -3.755609 -16.244705 -6.046183  0.500006 0.000000 -0.866022  0.005488 0.764834 1 64 1.000000
0  -3.755609 -16.672453 -6.046183  0.500006 0.000000 -0.866022  0.005488 0.764860 1 64 1.000000
lowpoly_metal
0  -4.127284 -16.672453 -5.947692  -1.000000 -0.000000 0.000000  0.005462 0.764834 1 64 1.000000
0  -4.127284 -16.700356 -5.661211  -1.000000 -0.000006 0.000000  0.005488 0.764834 1 64 1.000000
0  -4.127284 -16.672453 -5.674508  -1.000000 -0.000007 0.000000  0.005488 0.764860 1 64 1.000000
lowpoly_plastic
0  -4.056957 -16.672453 -5.877367  1.000000 0.000000 0.000000  0.029085 0.877045 1 64 1.000000
0  -4.056957 -16.244705 -5.744834  1.000000 0.000000 0.000000  0.029085 0.877045 1 64 1.000000
0  -4.056957 -16.672451 -5.744834  1.000000 0.000000 0.000000  0.029112 0.877045 1 64 1.000000
lowpoly_plastic
0  -4.056957 -17.144815 -5.701813  0.499992 0.000000 -0.866030  0.029085 0.877045 1 64 1.000000
0  -4.056957 -16.762730 -5.701813  0.499992 0.000000 -0.866030  0.029112 0.877045 1 64 1.000000
0  -4.006237 -16.930614 -5.672531  0.499992 0.000000 -0.866030  0.029112 0.877072 1 64 1.000000
lowpoly_plastic
0  -4.056957 -17.144815 -5.701813  0.500011 -0.000004 -0.866019  0.029085 0.877045 1 64 1.000000
0  -4.006237 -16.930614 -5.672531  0.500011 -0.000004 -0.866019  0.029112 0.877045 1 64 1.000000
0  -3.867667 -17.144815 -5.592526  0.500011 -0.000004 -0.866019  0.029112 0.877072 1 64 1.000000
lowpoly_plastic
0  -4.006238 -15.986544 -5.672530  0.500006 0.000000 -0.866022  0.029085 0.877045 1 64 1.000000
0  -4.056957 -16.154427 -5.701813  0.500006 0.000000 -0.866022  0.029112 0.877045 1 64 1.000000
0  -4.056957 -15.739523 -5.701813  0.500006 0.000000 -0.866022  0.029112 0.877072 1 64 1.000000
lowpoly_plastic
0  -3.928243 -16.244705 -5.627500  0.500007 -0.000001 -0.866021  0.029085 0.877045 1 64 1.000000
0  -4.006238 -15.986544 -5.672530  0.500007 -0.000001 -0.866021  0.029112 0.877045 1 64 1.000000
0  -3.867667 -15.739523 -5.592526  0.500007 -0.000001 -0.866021  0.029112 0.877072 1 64 1.000000
lowpoly_plastic
0  -3.867667 -17.144815 -5.592526  0.499995 -0.000001 -0.866028  0.029085 0.877045 1 64 1.000000
0  -4.006237 -16.930614 -5.672531  0.499995 -0.000001 -0.866028  0.029112 0.877045 1 64 1.000000
0  -3.928243 -16.672453 -5.627501  0.499995 -0.000001 -0.866028  0.029112 0.877072 1 64 1.000000
lowpoly_plastic
0  -4.006238 -15.986544 -5.672530  0.500001 -0.000001 -0.866025  0.029085 0.877045 1 64 1.000000
0  -4.056957 -15.739523 -5.701813  0.500001 -0.000001 -0.866025  0.029112 0.877045 1 64 1.000000
0  -3.867667 -15.739523 -5.592526  0.500001 -0.000001 -0.866025  0.029112 0.877072 1 64 1.000000
lowpoly_plastic
0  -3.867667 -17.144815 -5.592526  0.500030 0.000003 -0.866008  0.029085 0.877045 1 64 1.000000
0  -3.928243 -16.672453 -5.627501  0.500030 0.000003 -0.866008  0.029112 0.877045 1 64 1.000000
0  -3.928243 -16.244705 -5.627500  0.500030 0.000003 -0.866008  0.029112 0.877072 1 64 1.000000
lowpoly_plastic
0  -4.056957 -15.739523 -5.920386  0.500014 -0.000002 0.866017  0.029085 0.877045 1 64 1.000000
0  -4.056957 -16.154430 -5.920387  0.500014 -0.000002 0.866017  0.029112 0.877045 1 64 1.000000
0  -4.006237 -15.986546 -5.949671  0.500014 -0.000002 0.866017  0.029112 0.877072 1 64 1.000000
lowpoly_plastic
0  -4.056957 -15.739523 -5.920386  0.500000 -0.000003 0.866026  0.029085 0.877045 1 64 1.000000
0  -4.006237 -15.986546 -5.949671  0.500000 -0.000003 0.866026  0.029112 0.877045 1 64 1.000000
0  -3.867667 -15.739523 -6.029674  0.500000 -0.000003 0.866026  0.029112 0.877072 1 64 1.000000
lowpoly_plastic
0  -4.006237 -16.930614 -5.949671  0.499992 0.000000 0.866030  0.029085 0.877045 1 64 1.000000
0  -4.056957 -16.762732 -5.920387  0.499992 0.000000 0.866030  0.029112 0.877045 1 64 1.000000
0  -4.056957 -17.144815 -5.920387  0.499992 0.000000 0.866030  0.029112 0.877072 1 64 1.000000
lowpoly_plastic
0  -3.928243 -16.672453 -5.994700  0.499990 0.000000 0.866031  0.029085 0.877045 1 64 1.000000
0  -4.006237 -16.930614 -5.949671  0.499990 0.000000 0.866031  0.029112 0.877045 1 64 1.000000
0  -3.867667 -17.144815 -6.029674  0.499990 0.000000 0.866031  0.029112 0.877072 1 64 1.000000
lowpoly_plastic
0  -3.867667 -15.739523 -6.029674  0.499999 -0.000000 0.866026  0.029085 0.877045 1 64 1.000000
0  -4.006237 -15.986546 -5.949671  0.499999 -0.000000 0.866026  0.029112 0.877045 1 64 1.000000
0  -3.928243 -16.244705 -5.994700  0.499999 -0.000000 0.866026  0.029112 0.877072 1 64 1.000000
lowpoly_plastic
0  -4.006237 -16.930614 -5.949671  0.500003 0.000001 0.866024  0.029085 0.877045 1 64 1.000000
0  -4.056957 -17.144815 -5.920387  0.500003 0.000001 0.866024  0.029112 0.877045 1 64 1.000000
0  -3.867667 -17.144815 -6.029674  0.500003 0.000001 0.866024  0.029112 0.877072 1 64 1.000000
lowpoly_plastic
0  -3.867667 -15.739523 -6.029674  0.499997 0.000000 0.866027  0.029085 0.877045 1 64 1.000000
0  -3.928243 -16.244705 -5.994700  0.499997 0.000000 0.866027  0.029112 0.877045 1 64 1.000000
0  -3.867667 -17.144815 -6.029674  0.499997 0.000000 0.866027  0.029112 0.877072 1 64 1.000000
lowpoly_plastic
0  -3.678377 -15.739523 -5.701813  -0.499985 -0.000001 -0.866034  0.029085 0.877045 1 64 1.000000
0  -3.678377 -16.154428 -5.701813  -0.499985 -0.000001 -0.866034  0.029112 0.877045 1 64 1.000000
0  -3.729097 -15.986545 -5.672531  -0.499985 -0.000001 -0.866034  0.029112 0.877072 1 64 1.000000
lowpoly_plastic
0  -3.678377 -15.739523 -5.701813  -0.500004 0.000001 -0.866023  0.029085 0.877045 1 64 1.000000
0  -3.729097 -15.986545 -5.672531  -0.500004 0.000001 -0.866023  0.029112 0.877045 1 64 1.000000
0  -3.867667 -15.739523 -5.592526  -0.500004 0.000001 -0.866023  0.029112 0.877072 1 64 1.000000
lowpoly_plastic
0  -3.729097 -16.930614 -5.672531  -0.499992 0.000000 -0.866030  0.029085 0.877045 1 64 1.000000
0  -3.678376 -16.762730 -5.701813  -0.499992 0.000000 -0.866030  0.029112 0.877045 1 64 1.000000
0  -3.678376 -17.144815 -5.701813  -0.499992 0.000000 -0.866030  0.029112 0.877072 1 64 1.000000
lowpoly_plastic
0  -3.807091 -16.672455 -5.627501  -0.499999 0.000000 -0.866026  0.029085 0.877045 1 64 1.000000
0  -3.729097 -16.930614 -5.672531  -0.499999 0.000000 -0.866026  0.029112 0.877045 1 64 1.000000
0  -3.867667 -17.144815 -5.592526  -0.499999 0.000000 -0.866026  0.029112 0.877072 1 64 1.000000
lowpoly_plastic
0  -3.867667 -15.739523 -5.592526  -0.500004 0.000000 -0.866023  0.029085 0.877045 1 64 1.000000
0  -3.729097 -15.986545 -5.672531  -0.500004 0.000000 -0.866023  0.029112 0.877045 1 64 1.000000
0  -3.807091 -16.244707 -5.627501  -0.500004 0.000000 -0.866023  0.029112 0.877072 1 64 1.000000
lowpoly_plastic
0  -3.729097 -16.930614 -5.672531  -0.500006 -0.000003 -0.866022  0.029085 0.877045 1 64 1.000000
0  -3.678376 -17.144815 -5.701813  -0.500006 -0.000003 -0.866022  0.029112 0.877045 1 64 1.000000
0  -3.867667 -17.144815 -5.592526  -0.500006 -0.000003 -0.866022  0.029112 0.877072 1 64 1.000000
lowpoly_plastic
0  -3.867667 -15.739523 -5.592526  -0.500001 0.000000 -0.866025  0.029085 0.877045 1 64 1.000000
0  -3.807091 -16.244707 -5.627501  -0.500001 0.000000 -0.866025  0.029112 0.877045 1 64 1.000000
0  -3.867667 -17.144815 -5.592526  -0.500001 0.000000 -0.866025  0.029112 0.877072 1 64 1.000000
lowpoly_plastic
0  -3.678376 -17.144815 -5.701813  -1.000000 0.000000 0.000000  0.029085 0.877045 1 64 1.000000
0  -3.678376 -16.762728 -5.920387  -1.000000 0.000000 0.000000  0.029085 0.877045 1 64 1.000000
0  -3.678376 -17.144815 -5.920387  -1.000000 0.000000 0.000000  0.029112 0.877045 1 64 1.000000
lowpoly_plastic
0  -4.056957 -16.244705 -5.877367  1.000000 0.000000 0.000000  0.029085 0.877045 1 64 1.000000
0  -4.056957 -16.154427 -5.701813  1.000000 0.000000 0.000000  0.029112 0.877045 1 64 1.000000
0  -4.056957 -16.244705 -5.744834  1.000000 0.000000 0.000000  0.029112 0.877072 1 64 1.000000
lowpoly_plastic
0  -3.678376 -16.672453 -5.744834  -1.000000 -0.000001 -0.000000  0.029085 0.877045 1 64 1.000000
0  -3.678377 -16.244705 -5.877367  -1.000000 -0.000000 -0.000000  0.029085 0.877045 1 64 1.000000
0  -3.678376 -16.672451 -5.877367  -1.000000 -0.000001 -0.000000  0.029112 0.877045 1 64 1.000000
lowpoly_plastic
0  -3.678376 -17.144815 -5.920387  -0.500003 0.000000 0.866024  0.029085 0.877045 1 64 1.000000
0  -3.678376 -16.762728 -5.920387  -0.500003 0.000000 0.866024  0.029112 0.877045 1 64 1.000000
0  -3.729097 -16.930613 -5.949671  -0.500003 0.000000 0.866024  0.029112 0.877072 1 64 1.000000
lowpoly_plastic
0  -3.678376 -17.144815 -5.920387  -0.499998 0.000000 0.866026  0.029085 0.877045 1 64 1.000000
0  -3.729097 -16.930613 -5.949671  -0.499998 0.000000 0.866026  0.029112 0.877045 1 64 1.000000
0  -3.867667 -17.144815 -6.029674  -0.499998 0.000000 0.866026  0.029112 0.877072 1 64 1.000000
lowpoly_plastic
0  -3.729097 -15.986544 -5.949670  -0.499997 -0.000003 0.866027  0.029085 0.877045 1 64 1.000000
0  -3.678377 -16.154428 -5.920387  -0.499997 -0.000003 0.866027  0.029112 0.877045 1 64 1.000000
0  -3.678377 -15.739523 -5.920386  -0.499997 -0.000003 0.866027  0.029112 0.877072 1 64 1.000000
lowpoly_plastic
0  -3.807091 -16.244703 -5.994700  -0.500004 0.000000 0.866023  0.029085 0.877045 1 64 1.000000
0  -3.729097 -15.986544 -5.949670  -0.500004 0.000000 0.866023  0.029112 0.877045 1 64 1.000000
0  -3.867667 -15.739523 -6.029674  -0.500004 0.000000 0.866023  0.029112 0.877072 1 64 1.000000
lowpoly_plastic
0  -3.867667 -17.144815 -6.029674  -0.499995 0.000000 0.866028  0.029085 0.877045 1 64 1.000000
0  -3.729097 -16.930613 -5.949671  -0.499995 0.000000 0.866028  0.029112 0.877045 1 64 1.000000
0  -3.807091 -16.672451 -5.994700  -0.499995 0.000000 0.866028  0.029112 0.877072 1 64 1.000000
lowpoly_plastic
0  -3.729097 -15.986544 -5.949670  -0.500000 -0.000001 0.866025  0.029085 0.877045 1 64 1.000000
0  -3.678377 -15.739523 -5.920386  -0.500000 -0.000001 0.866025  0.029112 0.877045 1 64 1.000000
0  -3.867667 -15.739523 -6.029674  -0.500000 -0.000001 0.866025  0.029112 0.877072 1 64 1.000000
lowpoly_plastic
0  -3.867667 -17.144815 -6.029674  -0.499997 0.000000 0.866027  0.029085 0.877045 1 64 1.000000
0  -3.807091 -16.672451 -5.994700  -0.499997 0.000000 0.866027  0.029112 0.877045 1 64 1.000000
0  -3.807091 -16.244703 -5.994700  -0.499997 0.000000 0.866027  0.029112 0.877072 1 64 1.000000
lowpoly_plastic
0  -4.056957 -16.762732 -5.920387  0.670082 0.319322 -0.670092  0.005462 0.764834 1 64 1.000000
0  -4.006237 -16.930614 -5.949671  0.670082 0.319322 -0.670092  0.005488 0.764834 1 64 1.000000
0  -4.057719 -16.930614 -6.001153  0.670082 0.319322 -0.670092  0.005488 0.764860 1 64 1.000000
lowpoly_plastic
0  -4.057719 -16.930614 -6.001153  0.670084 0.319320 -0.670091  0.005462 0.764834 1 64 1.000000
0  -4.127284 -16.700357 -5.960990  0.670084 0.319320 -0.670091  0.005488 0.764834 1 64 1.000000
0  -4.056957 -16.762732 -5.920387  0.670084 0.319320 -0.670091  0.005488 0.764860 1 64 1.000000
lowpoly_plastic
0  -3.678376 -16.762730 -5.701813  -0.670096 0.319323 0.670078  0.005462 0.764834 1 64 1.000000
0  -3.729097 -16.930614 -5.672531  -0.670096 0.319323 0.670078  0.005488 0.764834 1 64 1.000000
0  -3.677614 -16.930614 -5.621047  -0.670096 0.319323 0.670078  0.005488 0.764860 1 64 1.000000
lowpoly_plastic
0  -3.678376 -16.672453 -5.744834  -0.670093 0.319336 0.670075  0.005488 0.764834 1 64 1.000000
0  -3.608050 -16.700356 -5.661211  -0.670082 0.319342 0.670082  0.005462 0.764834 1 64 1.000000
0  -3.608050 -16.672455 -5.674508  -0.670065 0.319351 0.670095  0.005488 0.764834 1 64 1.000000
lowpoly_plastic
0  -4.057719 -16.930613 -5.621047  0.670097 0.319319 0.670079  0.005462 0.764834 1 64 1.000000
0  -4.006237 -16.930614 -5.672531  0.670097 0.319319 0.670079  0.005488 0.764834 1 64 1.000000
0  -4.056957 -16.762730 -5.701813  0.670097 0.319319 0.670079  0.005488 0.764860 1 64 1.000000
lowpoly_plastic
0  -3.678377 -16.154428 -5.920387  -0.670076 -0.319323 -0.670098  0.005462 0.764834 1 64 1.000000
0  -3.729097 -15.986544 -5.949670  -0.670076 -0.319323 -0.670098  0.005488 0.764834 1 64 1.000000
0  -3.677615 -15.986545 -6.001153  -0.670076 -0.319323 -0.670098  0.005488 0.764860 1 64 1.000000
lowpoly_plastic
0  -3.677615 -15.986545 -6.001153  -0.670099 -0.319317 -0.670078  0.005462 0.764834 1 64 1.000000
0  -3.608051 -16.216803 -5.960990  -0.670099 -0.319317 -0.670078  0.005488 0.764834 1 64 1.000000
0  -3.678377 -16.154428 -5.920387  -0.670099 -0.319317 -0.670078  0.005488 0.764860 1 64 1.000000
lowpoly_plastic
0  -3.608051 -16.244705 -5.947693  -0.670096 -0.319329 -0.670075  0.005462 0.764834 1 64 1.000000
0  -3.678377 -16.154428 -5.920387  -0.670091 -0.319323 -0.670083  0.005488 0.764860 1 64 1.000000
0  -3.608051 -16.216803 -5.960990  -0.670104 -0.319338 -0.670063  0.005488 0.764860 1 64 1.000000
lowpoly_plastic
0  -3.677615 -15.986544 -5.621047  -0.670092 -0.319320 0.670083  0.005462 0.764834 1 64 1.000000
0  -3.729097 -15.986545 -5.672531  -0.670092 -0.319320 0.670083  0.005488 0.764834 1 64 1.000000
0  -3.678377 -16.154428 -5.701813  -0.670092 -0.319320 0.670083  0.005488 0.764860 1 64 1.000000
lowpoly_plastic
0  -3.678376 -16.762728 -5.920387  -0.670089 0.319324 -0.670085  0.005462 0.764834 1 64 1.000000
0  -3.608051 -16.672451 -5.947693  -0.670091 0.319326 -0.670081  0.005488 0.764834 1 64 1.000000
0  -3.608050 -16.700356 -5.960990  -0.670095 0.319329 -0.670075  0.005488 0.764860 1 64 1.000000
lowpoly_plastic
0  -4.056957 -16.154427 -5.701813  0.670085 -0.319329 0.670085  0.005462 0.764834 1 64 1.000000
0  -4.006238 -15.986544 -5.672530  0.670085 -0.319329 0.670085  0.005488 0.764834 1 64 1.000000
0  -4.057720 -15.986544 -5.621047  0.670085 -0.319329 0.670085  0.005488 0.764860 1 64 1.000000
lowpoly_plastic
0  -4.127284 -16.216803 -5.960989  0.670084 -0.319321 -0.670090  0.005462 0.764834 1 64 1.000000
0  -4.057719 -15.986546 -6.001153  0.670084 -0.319321 -0.670090  0.005488 0.764834 1 64 1.000000
0  -4.056957 -16.154430 -5.920387  0.670084 -0.319321 -0.670090  0.005488 0.764860 1 64 1.000000
lowpoly_plastic
0  -4.057719 -15.986546 -6.001153  0.670082 -0.319322 -0.670092  0.005462 0.764834 1 64 1.000000
0  -4.006237 -15.986546 -5.949671  0.670082 -0.319322 -0.670092  0.005488 0.764834 1 64 1.000000
0  -4.056957 -16.154430 -5.920387  0.670082 -0.319322 -0.670092  0.005488 0.764860 1 64 1.000000
lowpoly_plastic
0  -3.608050 -16.700356 -5.960990  -0.670086 0.319319 -0.670089  0.005462 0.764834 1 64 1.000000
0  -3.677615 -16.930614 -6.001153  -0.670086 0.319319 -0.670089  0.005488 0.764834 1 64 1.000000
0  -3.678376 -16.762728 -5.920387  -0.670086 0.319319 -0.670089  0.005488 0.764860 1 64 1.000000
lowpoly_plastic
0  -3.677615 -16.930614 -6.001153  -0.670073 0.319322 -0.670101  0.005462 0.764834 1 64 1.000000
0  -3.729097 -16.930613 -5.949671  -0.670073 0.319322 -0.670101  0.005488 0.764834 1 64 1.000000
0  -3.678376 -16.762728 -5.920387  -0.670073 0.319322 -0.670101  0.005488 0.764860 1 64 1.000000
lowpoly_metal
0  -4.069737 -15.716163 -5.694435  0.000003 1.000000 -0.000004  0.005462 0.764834 1 64 1.000000
0  -4.125805 -15.716163 -5.662064  0.000000 1.000000 0.000000  0.005488 0.764834 1 64 1.000000
0  -3.867667 -15.716163 -5.513028  0.000021 1.000000 -0.000029  0.005488 0.764834 1 64 1.000000
lowpoly_metal
0  -3.867667 -17.144815 -5.511321  0.000000 -1.000000 0.000000  0.005462 0.764834 1 64 1.000000
0  -4.127283 -17.144815 -5.661211  0.000000 -1.000000 0.000000  0.005488 0.764834 1 64 1.000000
0  -4.056957 -17.144815 -5.701813  0.000000 -1.000000 0.000000  0.005488 0.764834 1 64 1.000000
lowpoly_metal
0  -3.665597 -15.716163 -5.694435  -0.000003 1.000000 -0.000004  0.005462 0.764834 1 64 1.000000
0  -3.867667 -15.716165 -5.577770  -0.000026 1.000000 -0.000036  0.005488 0.764834 1 64 1.000000
0  -3.867667 -15.716163 -5.513028  -0.000021 1.000000 -0.000029  0.005488 0.764834 1 64 1.000000
lowpoly_metal
0  -3.608050 -17.144815 -5.661211  0.000000 -1.000000 0.000000  0.005462 0.764834 1 64 1.000000
0  -3.678376 -17.144815 -5.701813  0.000000 -1.000000 0.000000  0.005488 0.764834 1 64 1.000000
0  -3.678376 -17.144815 -5.920387  0.000000 -1.000000 0.000000  0.005488 0.764834 1 64 1.000000
lowpoly_metal
0  -3.867667 -17.144815 -5.511321  0.000000 -1.000000 -0.000006  0.005462 0.764834 1 64 1.000000
0  -3.867667 -17.144815 -5.592526  0.000000 -1.000000 0.000000  0.005488 0.764834 1 64 1.000000
0  -3.678376 -17.144815 -5.701813  0.000000 -1.000000 -0.000020  0.005488 0.764834 1 64 1.000000
lowpoly_plastic
0  -3.979725 -16.244705 -6.046183  -0.707106 0.000000 0.707108  0.005462 0.764834 1 64 1.000000
0  -3.979725 -16.672455 -6.046183  -0.707113 0.000000 0.707100  0.005488 0.764834 1 64 1.000000
0  -3.928243 -16.672453 -5.994700  -0.707112 0.000000 0.707101  0.005488 0.764834 1 64 1.000000
lowpoly_metal
0  -3.609529 -15.716163 -5.960137  0.500000 0.000000 -0.866025  0.005462 0.764834 1 64 1.000000
0  -3.609529 -15.829449 -5.960137  0.500001 0.000000 -0.866025  0.005488 0.764834 1 64 1.000000
0  -3.867667 -15.829450 -6.109173  0.499998 0.000000 -0.866026  0.005488 0.764834 1 64 1.000000
lowpoly_plastic
0  -3.678376 -16.672451 -5.877367  -0.707108 -0.000000 -0.707105  0.005462 0.764834 1 64 1.000000
0  -3.678377 -16.244705 -5.877367  -0.707101 -0.000001 -0.707112  0.005488 0.764834 1 64 1.000000
0  -3.608051 -16.244705 -5.947693  -0.707102 -0.000001 -0.707111  0.005488 0.764834 1 64 1.000000
lowpoly_metal
0  -4.125805 -15.716163 -5.960137  -1.000000 0.000000 0.000000  0.005462 0.764834 1 64 1.000000
0  -4.125805 -15.829449 -5.960137  -1.000000 0.000000 0.000000  0.005488 0.764834 1 64 1.000000
0  -4.125805 -15.829449 -5.662064  -1.000000 0.000000 0.000000  0.005488 0.764834 1 64 1.000000
lowpoly_metal
0  -4.096343 -15.829447 -5.943126  -1.000000 -0.000002 0.000000  0.005462 0.764834 1 64 1.000000
0  -4.096343 -15.886091 -5.943126  -1.000000 0.000000 0.000000  0.005488 0.764834 1 64 1.000000
0  -4.096343 -15.886092 -5.679073  -1.000000 -0.000011 0.000000  0.005488 0.764834 1 64 1.000000
lowpoly_metal
0  -4.127284 -16.672453 -5.674508  -1.000000 0.000000 0.000000  0.005462 0.764834 1 64 1.000000
0  -4.127284 -16.244705 -5.674508  -1.000000 0.000000 0.000000  0.005462 0.764834 1 64 1.000000
0  -4.127284 -16.244705 -5.947692  -1.000000 0.000000 0.000000  0.005488 0.764834 1 64 1.000000
lowpoly_plastic
0  -3.678377 -15.739523 -5.920386  -1.000000 -0.000000 0.000000  0.029085 0.877045 1 64 1.000000
0  -3.678377 -16.154428 -5.920387  -1.000000 0.000000 0.000000  0.029112 0.877045 1 64 1.000000
0  -3.678377 -16.154428 -5.701813  -1.000000 -0.000000 0.000000  0.029085 0.877045 1 64 1.000000
lowpoly_metal
0  -3.608050 -17.144815 -5.960989  1.000000 0.000000 0.000000  0.005488 0.764834 1 64 1.000000
0  -3.608050 -16.700356 -5.960990  1.000000 0.000000 0.000000  0.005488 0.764860 1 64 1.000000
0  -3.608050 -16.700356 -5.661211  1.000000 0.000000 0.000000  0.005462 0.764834 1 64 1.000000
lowpoly_plastic
0  -4.056957 -17.144815 -5.920387  1.000000 0.000000 0.000000  0.029085 0.877045 1 64 1.000000
0  -4.056957 -16.762732 -5.920387  1.000000 0.000000 0.000000  0.029112 0.877045 1 64 1.000000
0  -4.056957 -16.762730 -5.701813  1.000000 0.000000 0.000000  0.029085 0.877045 1 64 1.000000
lowpoly_metal
0  -4.069737 -15.521060 -5.927765  -1.000000 0.000000 0.000000  0.005462 0.764834 1 64 1.000000
0  -4.069737 -15.716162 -5.927765  -1.000000 0.000000 0.000000  0.005488 0.764834 1 64 1.000000
0  -4.069737 -15.716163 -5.694435  -1.000000 0.000000 0.000000  0.005488 0.764834 1 64 1.000000
lowpoly_plastic
0  -4.056957 -15.739523 -5.701813  1.000000 -0.000000 0.000000  0.029085 0.877045 1 64 1.000000
0  -4.056957 -16.154427 -5.701813  1.000000 0.000000 0.000000  0.029112 0.877045 1 64 1.000000
0  -4.056957 -16.154430 -5.920387  1.000000 -0.000000 0.000000  0.029085 0.877045 1 64 1.000000
lowpoly_metal
0  -4.127284 -15.886092 -5.960989  -1.000000 0.000000 0.000000  0.005462 0.764834 1 64 1.000000
0  -4.127284 -16.216803 -5.960989  -1.000000 0.000000 0.000000  0.005488 0.764834 1 64 1.000000
0  -4.127284 -16.216801 -5.661211  -1.000000 0.000000 0.000000  0.005462 0.764834 1 64 1.000000
lowpoly_plastic
0  -3.608051 -16.244705 -5.674508  -0.707105 -0.000001 0.707109  0.005462 0.764834 1 64 1.000000
0  -3.678377 -16.244705 -5.744834  -0.707104 -0.000001 0.707109  0.005488 0.764834 1 64 1.000000
0  -3.678376 -16.672453 -5.744834  -0.707107 -0.000000 0.707106  0.005488 0.764834 1 64 1.000000
lowpoly_metal
0  -3.867667 -15.716165 -6.109173  -0.500002 0.000000 -0.866024  0.005462 0.764834 1 64 1.000000
0  -3.867667 -15.829450 -6.109173  -0.499999 0.000000 -0.866026  0.005488 0.764834 1 64 1.000000
0  -4.125805 -15.829449 -5.960137  -0.500009 0.000000 -0.866020  0.005488 0.764834 1 64 1.000000
lowpoly_plastic
0  -4.006237 -16.930614 -5.672531  -0.670088 0.319323 -0.670086  0.005462 0.764834 1 64 1.000000
0  -4.057719 -16.930613 -5.621047  -0.670087 0.319324 -0.670087  0.005488 0.764834 1 64 1.000000
0  -3.979725 -16.672451 -5.576018  -0.670094 0.319318 -0.670082  0.005488 0.764834 1 64 1.000000
lowpoly_metal
0  -3.665597 -15.521060 -5.694435  0.499998 0.000002 0.866026  0.005462 0.764834 1 64 1.000000
0  -3.867667 -15.521060 -5.577771  0.499997 0.000004 0.866027  0.005488 0.764834 1 64 1.000000
0  -3.867667 -15.716165 -5.577770  0.499998 0.000002 0.866027  0.005488 0.764834 1 64 1.000000
lowpoly_metal
0  -3.608051 -15.886091 -5.661211  1.000000 0.000001 0.000000  0.005462 0.764834 1 64 1.000000
0  -3.608051 -16.216803 -5.661211  1.000000 0.000000 0.000000  0.005488 0.764834 1 64 1.000000
0  -3.608051 -16.216803 -5.960990  1.000000 0.000000 0.000000  0.005462 0.764834 1 64 1.000000
lowpoly_metal
0  -3.867667 -15.716163 -5.513028  0.499997 0.000000 0.866027  0.005462 0.764834 1 64 1.000000
0  -3.867667 -15.829449 -5.513028  0.499997 0.000000 0.866027  0.005488 0.764834 1 64 1.000000
0  -3.609529 -15.829449 -5.662064  0.499997 0.000000 0.866027  0.005488 0.764834 1 64 1.000000
lowpoly_plastic
0  -3.807091 -16.672455 -5.627501  0.707108 0.000000 -0.707106  0.005462 0.764834 1 64 1.000000
0  -3.807091 -16.244707 -5.627501  0.707114 0.000000 -0.707099  0.005488 0.764834 1 64 1.000000
0  -3.755609 -16.244707 -5.576018  0.707114 0.000000 -0.707100  0.005488 0.764834 1 64 1.000000
lowpoly_metal
0  -3.665597 -15.521060 -5.927765  0.500001 0.000000 -0.866025  0.005462 0.764834 1 64 1.000000
0  -3.665597 -15.716162 -5.927765  0.500003 0.000000 -0.866024  0.005488 0.764834 1 64 1.000000
0  -3.867667 -15.716163 -6.044430  0.500000 0.000000 -0.866025  0.005488 0.764834 1 64 1.000000
lowpoly_metal
0  -3.867667 -15.521060 -6.044430  -0.500000 0.000000 -0.866025  0.005462 0.764834 1 64 1.000000
0  -3.867667 -15.716163 -6.044430  -0.499999 0.000000 -0.866026  0.005488 0.764834 1 64 1.000000
0  -4.069737 -15.716162 -5.927765  -0.500001 0.000000 -0.866025  0.005488 0.764834 1 64 1.000000
lowpoly_metal
0  -4.125805 -15.716163 -5.662064  -0.499997 0.000000 0.866027  0.005462 0.764834 1 64 1.000000
0  -4.125805 -15.829449 -5.662064  -0.499997 0.000000 0.866027  0.005488 0.764834 1 64 1.000000
0  -3.867667 -15.829449 -5.513028  -0.499997 0.000000 0.866027  0.005488 0.764834 1 64 1.000000
lowpoly_metal
0  -3.609529 -15.716163 -5.662064  1.000000 0.000000 0.000000  0.005462 0.764834 1 64 1.000000
0  -3.609529 -15.829449 -5.662064  1.000000 0.000000 0.000000  0.005488 0.764834 1 64 1.000000
0  -3.609529 -15.829449 -5.960137  1.000000 0.000000 0.000000  0.005488 0.764834 1 64 1.000000
lowpoly_metal
0  -4.069737 -15.521060 -5.694435  -0.499998 0.000002 0.866026  0.005462 0.764834 1 64 1.000000
0  -4.069737 -15.716163 -5.694435  -0.499999 0.000000 0.866026  0.005488 0.764834 1 64 1.000000
0  -3.867667 -15.716165 -5.577770  -0.499998 0.000002 0.866027  0.005488 0.764834 1 64 1.000000
lowpoly_metal
0  -3.638991 -15.829447 -5.943126  0.500001 -0.000001 -0.866025  0.005462 0.764834 1 64 1.000000
0  -3.638991 -15.886091 -5.943126  0.500000 0.000000 -0.866025  0.005488 0.764834 1 64 1.000000
0  -3.867667 -15.886092 -6.075153  0.500007 -0.000006 -0.866021  0.005488 0.764834 1 64 1.000000
lowpoly_metal
0  -4.127283 -17.144815 -5.661211  -1.000000 -0.000001 0.000000  0.005488 0.764834 1 64 1.000000
0  -4.127284 -16.700356 -5.661211  -1.000000 -0.000002 0.000000  0.005488 0.764860 1 64 1.000000
0  -4.127284 -16.700357 -5.960990  -1.000000 -0.000001 0.000000  0.005462 0.764834 1 64 1.000000
lowpoly_metal
0  -3.608051 -16.672451 -5.947693  1.000000 0.000001 -0.000001  0.005462 0.764834 1 64 1.000000
0  -3.608051 -16.244705 -5.947693  1.000000 0.000000 0.000000  0.005462 0.764834 1 64 1.000000
0  -3.608051 -16.244705 -5.674508  1.000000 0.000000 -0.000001  0.005488 0.764834 1 64 1.000000
lowpoly_metal
0  -3.867667 -15.829449 -5.513028  0.000000 -1.000000 0.000001  0.005462 0.764834 1 64 1.000000
0  -4.125805 -15.829449 -5.662064  0.000000 -1.000000 0.000014  0.005488 0.764834 1 64 1.000000
0  -4.096343 -15.829449 -5.679074  0.000000 -1.000000 0.000013  0.005488 0.764834 1 64 1.000000
lowpoly_plastic
0  -4.056957 -16.672451 -5.744834  1.000000 -0.000001 0.000000  0.029085 0.877045 1 64 1.000000
0  -4.056957 -16.762730 -5.701813  1.000000 0.000000 0.000000  0.029085 0.877045 1 64 1.000000
0  -4.056957 -16.762732 -5.920387  1.000000 -0.000003 0.000000  0.029112 0.877045 1 64 1.000000
lowpoly_plastic
0  -4.056957 -16.154430 -5.920387  0.670080 -0.319331 -0.670089  0.005462 0.764834 1 64 1.000000
0  -4.056957 -16.244705 -5.877367  0.670091 -0.319330 -0.670079  0.005462 0.764834 1 64 1.000000
0  -4.127284 -16.244705 -5.947692  0.670065 -0.319332 -0.670104  0.005488 0.764834 1 64 1.000000
lowpoly_metal
0  -3.867667 -15.739523 -5.592526  0.000000 -1.000000 0.000000  0.005462 0.764834 1 64 1.000000
0  -3.867667 -15.739523 -5.701783  0.000000 -1.000000 0.000000  0.005488 0.764834 1 64 1.000000
0  -3.772995 -15.739523 -5.756442  0.000000 -1.000000 0.000000  0.005488 0.764834 1 64 1.000000
lowpoly_metal
0  -3.867667 -15.739523 -6.029674  -0.000008 -1.000000 0.000000  0.005462 0.764834 1 64 1.000000
0  -3.678377 -15.739523 -5.920386  0.000000 -1.000000 0.000000  0.005488 0.764834 1 64 1.000000
0  -3.772995 -15.739523 -5.865758  -0.000004 -1.000000 0.000000  0.005488 0.764834 1 64 1.000000
lowpoly_metal
0  -3.638991 -15.886091 -5.943126  0.000014 1.000000 0.000000  0.005462 0.764834 1 64 1.000000
0  -3.608051 -15.886092 -5.960989  0.000015 1.000000 0.000000  0.005488 0.764834 1 64 1.000000
0  -3.867667 -15.886092 -6.110879  -0.000002 1.000000 0.000000  0.005488 0.764834 1 64 1.000000
lowpoly_metal
0  -3.867667 -17.144815 -6.110879  0.000000 -1.000000 0.000000  0.005462 0.764834 1 64 1.000000
0  -3.867667 -17.144815 -6.029674  0.000000 -1.000000 0.000000  0.005488 0.764834 1 64 1.000000
0  -4.056957 -17.144815 -5.920387  0.000000 -1.000000 0.000000  0.005488 0.764834 1 64 1.000000
lowpoly_metal
0  -4.069737 -15.716162 -5.927765  -0.000015 1.000000 0.000001  0.005462 0.764834 1 64 1.000000
0  -4.125805 -15.716163 -5.960137  -0.000017 1.000000 0.000000  0.005488 0.764834 1 64 1.000000
0  -4.125805 -15.716163 -5.662064  -0.000001 1.000000 0.000007  0.005488 0.764834 1 64 1.000000
lowpoly_plastic
0  -3.755609 -16.244705 -6.046183  0.707107 0.000000 0.707107  0.005462 0.764834 1 64 1.000000
0  -3.807091 -16.244703 -5.994700  0.707107 0.000000 0.707107  0.005488 0.764834 1 64 1.000000
0  -3.807091 -16.672451 -5.994700  0.707106 0.000000 0.707108  0.005488 0.764834 1 64 1.000000
lowpoly_metal
0  -3.867667 -15.829450 -6.109173  0.000010 -1.000000 0.000055  0.005462 0.764834 1 64 1.000000
0  -3.867667 -15.829449 -6.075153  0.000008 -1.000000 0.000061  0.005488 0.764834 1 64 1.000000
0  -4.096343 -15.829447 -5.943126  0.000029 -1.000000 -0.000003  0.005488 0.764834 1 64 1.000000
lowpoly_metal
0  -4.125805 -15.829449 -5.960137  0.000062 -1.000000 -0.000007  0.005462 0.764834 1 64 1.000000
0  -4.096343 -15.829447 -5.943126  0.000069 -1.000000 -0.000008  0.005488 0.764834 1 64 1.000000
0  -4.096343 -15.829449 -5.679074  0.000003 -1.000000 -0.000000  0.005488 0.764834 1 64 1.000000
lowpoly_metal
0  -3.867667 -15.829449 -5.513028  0.000000 -1.000000 0.000003  0.005462 0.764834 1 64 1.000000
0  -3.867667 -15.829449 -5.547048  0.000000 -1.000000 0.000000  0.005488 0.764834 1 64 1.000000
0  -3.638991 -15.829449 -5.679074  0.000000 -1.000000 0.000026  0.005488 0.764834 1 64 1.000000
lowpoly_metal
0  -4.056957 -15.739523 -5.920386  0.000000 -1.000000 0.000000  0.005462 0.764834 1 64 1.000000
0  -3.962338 -15.739523 -5.865758  0.000000 -1.000000 0.000000  0.005488 0.764834 1 64 1.000000
0  -3.962338 -15.739523 -5.756442  0.000000 -1.000000 0.000000  0.005488 0.764834 1 64 1.000000
lowpoly_metal
0  -3.638991 -15.829449 -5.679074  0.500004 0.000014 0.866023  0.005462 0.764834 1 64 1.000000
0  -3.867667 -15.829449 -5.547048  0.499992 0.000000 0.866030  0.005488 0.764834 1 64 1.000000
0  -3.867667 -15.886092 -5.547048  0.499994 0.000002 0.866029  0.005488 0.764834 1 64 1.000000
lowpoly_metal
0  -3.638991 -15.829447 -5.943126  1.000000 -0.000001 0.000000  0.005462 0.764834 1 64 1.000000
0  -3.638991 -15.829449 -5.679074  1.000000 -0.000006 0.000000  0.005488 0.764834 1 64 1.000000
0  -3.638991 -15.886092 -5.679073  1.000000 -0.000005 0.000000  0.005488 0.764834 1 64 1.000000
lowpoly_metal
0  -4.096343 -15.829449 -5.679074  -0.500004 0.000014 0.866023  0.005462 0.764834 1 64 1.000000
0  -4.096343 -15.886092 -5.679073  -0.500006 0.000016 0.866022  0.005488 0.764834 1 64 1.000000
0  -3.867667 -15.886092 -5.547048  -0.499994 0.000002 0.866029  0.005488 0.764834 1 64 1.000000
lowpoly_metal
0  -3.608051 -16.244705 -5.674508  1.000000 -0.000001 0.000000  0.005488 0.764834 1 64 1.000000
0  -3.608051 -16.244705 -5.947693  1.000000 -0.000013 0.000000  0.005488 0.764860 1 64 1.000000
0  -3.608051 -16.216803 -5.960990  1.000000 -0.000012 0.000000  0.005462 0.764834 1 64 1.000000
lowpoly_metal
0  -3.638991 -15.886092 -5.679073  -0.000026 1.000000 -0.000006  0.005462 0.764834 1 64 1.000000
0  -3.608051 -15.886091 -5.661211  -0.000029 1.000000 -0.000006  0.005488 0.764834 1 64 1.000000
0  -3.608051 -15.886092 -5.960989  0.000026 1.000000 0.000006  0.005488 0.764834 1 64 1.000000
lowpoly_metal
0  -4.096343 -15.886091 -5.943126  -0.000014 1.000000 0.000000  0.005462 0.764834 1 64 1.000000
0  -3.867667 -15.886092 -6.075153  0.000004 1.000000 0.000000  0.005488 0.764834 1 64 1.000000
0  -3.867667 -15.886092 -6.110879  0.000002 1.000000 0.000000  0.005488 0.764834 1 64 1.000000
lowpoly_metal
0  -3.609529 -15.829449 -5.662064  -0.000003 -1.000000 -0.000007  0.005462 0.764834 1 64 1.000000
0  -3.638991 -15.829449 -5.679074  0.000004 -1.000000 -0.000008  0.005488 0.764834 1 64 1.000000
0  -3.638991 -15.829447 -5.943126  -0.000061 -1.000000 -0.000000  0.005488 0.764834 1 64 1.000000
lowpoly_metal
0  -3.638991 -15.886092 -5.679073  -0.000015 1.000000 -0.000003  0.005462 0.764834 1 64 1.000000
0  -3.867667 -15.886092 -5.547048  -0.000015 1.000000 -0.000058  0.005488 0.764834 1 64 1.000000
0  -3.867667 -15.886091 -5.511321  -0.000015 1.000000 -0.000052  0.005488 0.764834 1 64 1.000000
lowpoly_metal
0  -4.096343 -15.886091 -5.943126  -0.000026 1.000000 0.000000  0.005462 0.764834 1 64 1.000000
0  -4.127284 -15.886092 -5.960989  -0.000029 1.000000 0.000000  0.005488 0.764834 1 64 1.000000
0  -4.127284 -15.886091 -5.661211  0.000026 1.000000 0.000000  0.005488 0.764834 1 64 1.000000
lowpoly_metal
0  -4.127283 -17.144815 -5.960989  0.000000 -1.000000 0.000000  0.005462 0.764834 1 64 1.000000
0  -4.056957 -17.144815 -5.920387  0.000000 -1.000000 0.000000  0.005488 0.764834 1 64 1.000000
0  -4.056957 -17.144815 -5.701813  0.000000 -1.000000 0.000000  0.005488 0.764834 1 64 1.000000
lowpoly_metal
0  -3.608050 -16.672455 -5.674508  1.000000 0.000001 -0.000000  0.005462 0.764834 1 64 1.000000
0  -3.608050 -16.700356 -5.661211  1.000000 0.000000 0.000000  0.005488 0.764834 1 64 1.000000
0  -3.608050 -16.700356 -5.960990  1.000000 0.000025 -0.000002  0.005488 0.764834 1 64 1.000000
lowpoly_metal
0  -4.127284 -16.244705 -5.947692  -1.000000 0.000000 0.000000  0.005488 0.764834 1 64 1.000000
0  -4.127284 -16.244705 -5.674508  -1.000000 0.000007 0.000000  0.005488 0.764860 1 64 1.000000
0  -4.127284 -16.216801 -5.661211  -1.000000 0.000006 0.000000  0.005462 0.764834 1 64 1.000000
lowpoly_metal
0  -4.096343 -15.886092 -5.679073  0.000015 1.000000 -0.000003  0.005462 0.764834 1 64 1.000000
0  -4.127284 -15.886091 -5.661211  0.000015 1.000000 0.000000  0.005488 0.764834 1 64 1.000000
0  -3.867667 -15.886091 -5.511321  0.000015 1.000000 -0.000052  0.005488 0.764834 1 64 1.000000
lowpoly_plastic
0  -3.678377 -16.244705 -5.744834  -1.000000 0.000001 0.000000  0.029085 0.877045 1 64 1.000000
0  -3.678377 -16.154428 -5.701813  -1.000000 0.000000 0.000000  0.029112 0.877045 1 64 1.000000
0  -3.678377 -16.154428 -5.920387  -1.000000 0.000001 0.000000  0.029112 0.877045 1 64 1.000000
lowpoly_metal
0  -3.867667 -15.739523 -6.029674  0.000008 -1.000000 0.000000  0.005462 0.764834 1 64 1.000000
0  -3.867667 -15.739522 -5.920418  0.000015 -1.000000 0.000000  0.005488 0.764834 1 64 1.000000
0  -3.962338 -15.739523 -5.865758  0.000004 -1.000000 0.000000  0.005488 0.764834 1 64 1.000000
lowpoly_metal
0  -4.069737 -15.716162 -5.927765  -0.000006 1.000000 -0.000007  0.005462 0.764834 1 64 1.000000
0  -3.867667 -15.716163 -6.044430  -0.000012 1.000000 -0.000073  0.005488 0.764834 1 64 1.000000
0  -3.867667 -15.716165 -6.109173  -0.000011 1.000000 -0.000058  0.005488 0.764834 1 64 1.000000
lowpoly_metal
0  -3.665597 -15.716162 -5.927765  0.000006 1.000000 -0.000007  0.005462 0.764834 1 64 1.000000
0  -3.609529 -15.716163 -5.960137  0.000005 1.000000 0.000000  0.005488 0.764834 1 64 1.000000
0  -3.867667 -15.716165 -6.109173  0.000011 1.000000 -0.000058  0.005488 0.764834 1 64 1.000000
lowpoly_metal
0  -3.665597 -15.716163 -5.694435  0.000002 1.000000 0.000001  0.005462 0.764834 1 64 1.000000
0  -3.609529 -15.716163 -5.662064  0.000000 1.000000 0.000000  0.005488 0.764834 1 64 1.000000
0  -3.609529 -15.716163 -5.960137  0.000016 1.000000 0.000007  0.005488 0.764834 1 64 1.000000
lowpoly_plastic
0  -4.006238 -15.986544 -5.672530  -0.670087 -0.319323 -0.670087  0.005462 0.764834 1 64 1.000000
0  -3.928243 -16.244705 -5.627500  -0.670088 -0.319318 -0.670088  0.005488 0.764834 1 64 1.000000
0  -3.979725 -16.244705 -5.576018  -0.670088 -0.319319 -0.670088  0.005488 0.764834 1 64 1.000000
lowpoly_plastic
0  -3.608051 -16.244705 -5.674508  -0.670094 -0.319335 0.670074  0.005462 0.764834 1 64 1.000000
0  -3.608051 -16.216803 -5.661211  -0.670101 -0.319347 0.670061  0.005488 0.764860 1 64 1.000000
0  -3.678377 -16.154428 -5.701813  -0.670090 -0.319328 0.670081  0.005462 0.764834 1 64 1.000000
lowpoly_plastic
0  -3.755609 -16.672453 -6.046183  0.670087 0.319323 0.670087  0.005462 0.764834 1 64 1.000000
0  -3.807091 -16.672451 -5.994700  0.670087 0.319323 0.670087  0.005488 0.764834 1 64 1.000000
0  -3.729097 -16.930613 -5.949671  0.670086 0.319323 0.670088  0.005488 0.764834 1 64 1.000000
lowpoly_plastic
0  -3.979725 -16.244705 -6.046183  -0.670086 -0.319323 0.670087  0.005462 0.764834 1 64 1.000000
0  -3.928243 -16.244705 -5.994700  -0.670087 -0.319322 0.670087  0.005488 0.764834 1 64 1.000000
0  -4.006237 -15.986546 -5.949671  -0.670084 -0.319326 0.670089  0.005488 0.764834 1 64 1.000000
lowpoly_plastic
0  -4.127284 -16.672453 -5.674508  0.670087 0.319322 0.670087  0.005462 0.764834 1 64 1.000000
0  -4.127284 -16.700356 -5.661211  0.670087 0.319321 0.670087  0.005488 0.764860 1 64 1.000000
0  -4.056957 -16.762730 -5.701813  0.670087 0.319322 0.670087  0.005462 0.764834 1 64 1.000000
lowpoly_plastic
0  -3.729097 -15.986545 -5.672531  0.670093 -0.319323 -0.670080  0.005462 0.764834 1 64 1.000000
0  -3.677615 -15.986544 -5.621047  0.670093 -0.319324 -0.670081  0.005488 0.764834 1 64 1.000000
0  -3.755609 -16.244707 -5.576018  0.670097 -0.319318 -0.670080  0.005488 0.764834 1 64 1.000000
lowpoly_plastic
0  -4.127284 -16.672453 -5.947692  0.707105 0.000000 -0.707108  0.005462 0.764834 1 64 1.000000
0  -4.127284 -16.244705 -5.947692  0.707096 0.000000 -0.707118  0.005488 0.764834 1 64 1.000000
0  -4.056957 -16.244705 -5.877367  0.707097 0.000000 -0.707116  0.005488 0.764834 1 64 1.000000
lowpoly_plastic
0  -3.979725 -16.672451 -5.576018  -0.707117 0.000002 -0.707096  0.005462 0.764834 1 64 1.000000
0  -3.979725 -16.244705 -5.576018  -0.707109 0.000000 -0.707105  0.005488 0.764834 1 64 1.000000
0  -3.928243 -16.244705 -5.627500  -0.707110 0.000000 -0.707104  0.005488 0.764834 1 64 1.000000
lowpoly_metal
0  -3.867667 -15.829449 -6.075153  -0.500005 0.000000 -0.866023  0.005462 0.764834 1 64 1.000000
0  -3.867667 -15.886092 -6.075153  -0.500005 0.000000 -0.866023  0.005488 0.764834 1 64 1.000000
0  -4.096343 -15.886091 -5.943126  -0.500004 0.000000 -0.866023  0.005488 0.764834 1 64 1.000000
lowpoly_plastic
0  -3.729097 -16.930614 -5.672531  0.670092 0.319324 -0.670081  0.005462 0.764834 1 64 1.000000
0  -3.807091 -16.672455 -5.627501  0.670091 0.319320 -0.670085  0.005488 0.764834 1 64 1.000000
0  -3.755609 -16.672455 -5.576018  0.670091 0.319320 -0.670084  0.005488 0.764834 1 64 1.000000
lowpoly_plastic
0  -4.056957 -16.244705 -5.744834  0.670094 -0.319319 0.670082  0.005488 0.764834 1 64 1.000000
0  -4.056957 -16.154427 -5.701813  0.670098 -0.319316 0.670079  0.005488 0.764860 1 64 1.000000
0  -4.127284 -16.216801 -5.661211  0.670089 -0.319323 0.670085  0.005462 0.764834 1 64 1.000000
lowpoly_plastic
0  -3.979725 -16.672455 -6.046183  -0.670090 0.319325 0.670082  0.005462 0.764834 1 64 1.000000
0  -4.057719 -16.930614 -6.001153  -0.670080 0.319326 0.670092  0.005488 0.764834 1 64 1.000000
0  -4.006237 -16.930614 -5.949671  -0.670082 0.319326 0.670090  0.005488 0.764834 1 64 1.000000
lowpoly_plastic
0  -4.127284 -16.672453 -5.947692  0.670079 0.319325 -0.670093  0.005462 0.764834 1 64 1.000000
0  -4.056957 -16.672453 -5.877367  0.670094 0.319320 -0.670081  0.005488 0.764834 1 64 1.000000
0  -4.056957 -16.762732 -5.920387  0.670088 0.319322 -0.670086  0.005488 0.764860 1 64 1.000000
lowpoly_plastic
0  -3.755609 -16.244705 -6.046183  0.670084 -0.319320 0.670091  0.005462 0.764834 1 64 1.000000
0  -3.677615 -15.986545 -6.001153  0.670067 -0.319324 0.670106  0.005488 0.764834 1 64 1.000000
0  -3.729097 -15.986544 -5.949670  0.670071 -0.319323 0.670103  0.005488 0.764834 1 64 1.000000
lowpoly_metal
0  -3.867667 -15.829450 -6.109173  -0.000010 -1.000000 0.000053  0.005462 0.764834 1 64 1.000000
0  -3.609529 -15.829449 -5.960137  -0.000031 -1.000000 -0.000020  0.005488 0.764834 1 64 1.000000
0  -3.638991 -15.829447 -5.943126  -0.000029 -1.000000 -0.000016  0.005488 0.764834 1 64 1.000000
lowpoly_metal
0  -3.665597 -15.521060 -5.927765  1.000000 0.000000 0.000000  0.005462 0.764834 1 64 1.000000
0  -3.665597 -15.521060 -5.694435  1.000000 0.000000 0.000000  0.005488 0.764834 1 64 1.000000
0  -3.665597 -15.716163 -5.694435  1.000000 0.000000 0.000000  0.005488 0.764834 1 64 1.000000
lowpoly_metal
0  -3.678377 -15.739523 -5.920386  0.000000 -1.000000 0.000000  0.005462 0.764834 1 64 1.000000
0  -3.678377 -15.739523 -5.701813  0.000000 -1.000000 0.000000  0.005488 0.764834 1 64 1.000000
0  -3.772995 -15.739523 -5.756442  0.000000 -1.000000 0.000000  0.005488 0.764834 1 64 1.000000
lowpoly_metal
0  -3.867667 -15.739523 -5.592526  0.000000 -1.000000 0.000000  0.005462 0.764834 1 64 1.000000
0  -4.056957 -15.739523 -5.701813  0.000000 -1.000000 0.000000  0.005488 0.764834 1 64 1.000000
0  -3.962338 -15.739523 -5.756442  0.000000 -1.000000 0.000000  0.005488 0.764834 1 64 1.000000
lowpoly_metal
0  -3.867667 -17.144815 -6.110879  0.000000 -1.000000 0.000006  0.005462 0.764834 1 64 1.000000
0  -3.608050 -17.144815 -5.960989  0.000000 -1.000000 0.000023  0.005488 0.764834 1 64 1.000000
0  -3.678376 -17.144815 -5.920387  0.000000 -1.000000 0.000020  0.005488 0.764834 1 64 1.000000
lowpoly_plastic
0  -4.056957 -16.244705 -5.744834  0.707102 0.000000 0.707111  0.005462 0.764834 1 64 1.000000
0  -4.127284 -16.244705 -5.674508  0.707101 0.000000 0.707112  0.005488 0.764834 1 64 1.000000
0  -4.127284 -16.672453 -5.674508  0.707107 0.000000 0.707107  0.005488 0.764834 1 64 1.000000
lowpoly_plastic
0  -3.678376 -16.672451 -5.877367  -1.000000 0.000000 0.000000  0.029085 0.877045 1 64 1.000000
0  -3.678376 -16.762728 -5.920387  -1.000000 0.000000 0.000000  0.029085 0.877045 1 64 1.000000
0  -3.678376 -16.762730 -5.701813  -1.000000 0.000000 0.000000  0.029112 0.877045 1 64 1.000000
lowpoly_metal
0  -4.127284 -16.672453 -5.947692  -1.000000 -0.000000 0.000000  0.005462 0.764834 1 64 1.000000
0  -4.127284 -16.700357 -5.960990  -1.000000 0.000000 0.000000  0.005488 0.764834 1 64 1.000000
0  -4.127284 -16.700356 -5.661211  -1.000000 -0.000006 0.000000  0.005488 0.764834 1 64 1.000000
lowpoly_plastic
0  -4.056957 -16.672453 -5.877367  1.000000 0.000000 0.000000  0.029085 0.877045 1 64 1.000000
0  -4.056957 -16.244705 -5.877367  1.000000 0.000000 0.000000  0.029112 0.877045 1 64 1.000000
0  -4.056957 -16.244705 -5.744834  1.000000 0.000000 0.000000  0.029085 0.877045 1 64 1.000000
lowpoly_plastic
0  -3.678376 -17.144815 -5.701813  -1.000000 0.000000 0.000000  0.029085 0.877045 1 64 1.000000
0  -3.678376 -16.762730 -5.701813  -1.000000 0.000000 0.000000  0.029112 0.877045 1 64 1.000000
0  -3.678376 -16.762728 -5.920387  -1.000000 0.000000 0.000000  0.029085 0.877045 1 64 1.000000
lowpoly_plastic
0  -4.056957 -16.244705 -5.877367  1.000000 0.000000 0.000000  0.029085 0.877045 1 64 1.000000
0  -4.056957 -16.154430 -5.920387  1.000000 0.000000 0.000000  0.029112 0.877045 1 64 1.000000
0  -4.056957 -16.154427 -5.701813  1.000000 0.000000 0.000000  0.029112 0.877045 1 64 1.000000
lowpoly_plastic
0  -3.678376 -16.672453 -5.744834  -1.000000 -0.000001 -0.000000  0.029085 0.877045 1 64 1.000000
0  -3.678377 -16.244705 -5.744834  -1.000000 0.000000 0.000000  0.029112 0.877045 1 64 1.000000
0  -3.678377 -16.244705 -5.877367  -1.000000 -0.000000 -0.000000  0.029085 0.877045 1 64 1.000000
lowpoly_plastic
0  -3.678376 -16.672453 -5.744834  -0.670093 0.319336 0.670075  0.005488 0.764834 1 64 1.000000
0  -3.678376 -16.762730 -5.701813  -0.670100 0.319332 0.670069  0.005488 0.764860 1 64 1.000000
0  -3.608050 -16.700356 -5.661211  -0.670082 0.319342 0.670082  0.005462 0.764834 1 64 1.000000
lowpoly_plastic
0  -3.608051 -16.244705 -5.947693  -0.670096 -0.319329 -0.670075  0.005462 0.764834 1 64 1.000000
0  -3.678377 -16.244705 -5.877367  -0.670088 -0.319320 -0.670088  0.005488 0.764834 1 64 1.000000
0  -3.678377 -16.154428 -5.920387  -0.670091 -0.319323 -0.670083  0.005488 0.764860 1 64 1.000000
lowpoly_plastic
0  -3.678376 -16.762728 -5.920387  -0.670089 0.319324 -0.670085  0.005462 0.764834 1 64 1.000000
0  -3.678376 -16.672451 -5.877367  -0.670087 0.319322 -0.670087  0.005462 0.764834 1 64 1.000000
0  -3.608051 -16.672451 -5.947693  -0.670091 0.319326 -0.670081  0.005488 0.764834 1 64 1.000000
end
