version 1
nodes
0 "ValveBiped.Bip01_Spine4" -1
1 "ValveBiped.Bip01_L_Clavicle" 0
2 "ValveBiped.Bip01_L_UpperArm" 1
3 "ValveBiped.Bip01_L_Forearm" 2
4 "ValveBiped.Bip01_L_Hand" 3
5 "ValveBiped.Bip01_L_Finger4" 4
6 "ValveBiped.Bip01_L_Finger41" 5
7 "ValveBiped.Bip01_L_Finger42" 6
8 "ValveBiped.Bip01_L_Finger3" 4
9 "ValveBiped.Bip01_L_Finger31" 8
10 "ValveBiped.Bip01_L_Finger32" 9
11 "ValveBiped.Bip01_L_Finger2" 4
12 "ValveBiped.Bip01_L_Finger21" 11
13 "ValveBiped.Bip01_L_Finger22" 12
14 "ValveBiped.Bip01_L_Finger1" 4
15 "ValveBiped.Bip01_L_Finger11" 14
16 "ValveBiped.Bip01_L_Finger12" 15
17 "ValveBiped.Bip01_L_Finger0" 4
18 "ValveBiped.Bip01_L_Finger01" 17
19 "ValveBiped.Bip01_L_Finger02" 18
20 "ValveBiped.Bip01_L_Ulna" 3
21 "ValveBiped.Bip01_L_Wrist" 3
22 "rig_l_upperarm" 1
23 "rig_l_forearm" 22
24 "rig_d_l_forearm" 23
25 "rig_d_l_upperarm" 22
26 "ValveBiped.Bip01_R_Clavicle" 0
27 "ValveBiped.Bip01_R_UpperArm" 26
28 "ValveBiped.Bip01_R_Forearm" 27
29 "ValveBiped.Bip01_R_Hand" 28
30 "ValveBiped.Bip01_R_Finger4" 29
31 "ValveBiped.Bip01_R_Finger41" 30
32 "ValveBiped.Bip01_R_Finger42" 31
33 "ValveBiped.Bip01_R_Finger3" 29
34 "ValveBiped.Bip01_R_Finger31" 33
35 "ValveBiped.Bip01_R_Finger32" 34
36 "ValveBiped.Bip01_R_Finger2" 29
37 "ValveBiped.Bip01_R_Finger21" 36
38 "ValveBiped.Bip01_R_Finger22" 37
39 "ValveBiped.Bip01_R_Finger1" 29
40 "ValveBiped.Bip01_R_Finger11" 39
41 "ValveBiped.Bip01_R_Finger12" 40
42 "ValveBiped.Bip01_R_Finger0" 29
43 "ValveBiped.Bip01_R_Finger01" 42
44 "ValveBiped.Bip01_R_Finger02" 43
45 "ValveBiped.Bip01_R_Ulna" 28
46 "ValveBiped.Bip01_R_Wrist" 28
47 "rig_r_upperarm" 26
48 "rig_r_forearm" 47
49 "rig_d_r_forearm" 48
50 "rig_d_r_upperarm" 47
51 "rig_r_hand" -1
52 "rig_d_r_hand" 51
53 "rig_d_r_wrist" 52
54 "rig_l_hand" -1
55 "rig_d_l_hand" 54
56 "rig_d_l_wrist" 54
57 "rig_l_pole" -1
58 "rig_r_pole" -1
59 "rig_l_clavicle" -1
60 "rig_d_l_clavicle" 59
61 "rig_r_clavicle" -1
62 "rig_d_r_clavicle" 61
63 "Camera" -1
64 "body" -1
65 "trigger" 64
66 "bolt" 64
67 "barrel" 64
68 "magrel" 64
69 "chandle" 64
70 "boltrelease" 64
71 "laseradj" 64
72 "mag" -1
73 "bullet1" 72
74 "bullet2" 72
75 "bullet3" 72
76 "round1" 72
77 "round2" 72
78 "round3" 72
79 "mag2" -1
end
skeleton
time 0
0  0.000006 0.000000 0.000000  -1.570800 -1.391899 -1.570792
1  2.033349 1.000767 1.937657  -1.544956 -1.855077 -0.198630
2  6.027515 -0.000325 0.000206  -1.505242 0.319441 -0.625103
3  11.692120 0.000650 -0.000739  -0.000006 -0.000000 -0.007142
4  13.981890 0.007122 -0.000887  1.516565 -0.219059 -0.234851
5  3.859513 -0.142883 -1.192049  -0.468164 0.151540 -0.880272
6  1.312591 0.000010 0.000007  -0.000026 0.000045 -0.439738
7  0.729354 0.000052 0.000049  0.000017 0.000021 -0.244318
8  3.942146 0.046272 -0.431512  -0.151810 0.073212 -0.811101
9  1.539113 0.000083 0.000005  -0.000007 0.000021 -0.247841
10  1.196335 0.000145 0.000030  0.000012 0.000019 -0.430771
11  3.883508 -0.047273 0.431381  0.085898 0.021851 -0.587925
12  1.719574 -0.000026 0.000014  0.000015 0.005519 -0.366533
13  1.209182 0.000093 0.000012  0.000004 0.003092 -0.216437
14  3.859668 -0.138478 1.332410  0.354468 -0.042725 -0.531804
15  1.719449 -0.000014 0.000023  0.000029 0.004070 -0.363021
16  1.099670 0.000050 0.000006  0.000003 0.002579 -0.244381
17  0.805998 -0.349052 1.321254  -1.222687 -0.679194 -0.788886
18  1.789820 -0.000002 -0.000017  0.000012 -0.000024 0.228522
19  1.207011 -0.000014 -0.000044  0.000002 -0.000008 0.362858
20  5.740637 0.000410 -0.000703  -0.080120 0.000003 0.000071
21  11.981389 0.001634 -0.000839  -0.008467 -0.021537 -0.058656
22  6.027524 -0.000330 0.000203  -2.710732 -0.719638 0.651452
23  0.000001 11.692101 -0.000007  -0.005486 -0.000058 -0.004638
24  0.000003 0.000008 -0.000002  0.868996 -0.000030 1.570739
25  -0.000001 -0.000012 -0.000001  0.868957 0.000002 1.570712
26  2.033355 1.000772 -1.937609  1.473120 1.855075 -0.198639
27  6.027508 -0.000258 -0.000242  1.489393 -0.294193 -0.675068
28  11.691986 0.000245 0.000856  -0.000051 -0.000000 -0.007108
29  15.888907 0.012262 0.001130  -1.416093 0.218734 -0.271393
30  3.859436 -0.132785 1.193062  0.466291 -0.158048 -0.878829
31  1.312558 0.000026 0.000001  0.000011 -0.000044 -0.439710
32  0.729345 0.000062 -0.000028  -0.000023 -0.000019 -0.244286
33  3.942046 0.050109 0.430998  0.150090 -0.079180 -0.810199
34  1.539096 0.000009 -0.000001  0.000010 -0.000008 -0.247820
35  1.196297 0.000075 -0.000003  -0.000007 -0.000009 -0.430782
36  3.883409 -0.050501 -0.431087  -0.085915 -0.026391 -0.587671
37  1.719563 -0.000077 -0.000004  -0.000006 -0.007962 -0.366483
38  1.209197 0.000037 0.000011  0.000002 -0.004460 -0.216413
39  3.859585 -0.149113 -1.331323  -0.354446 0.038580 -0.531963
40  1.719412 -0.000100 -0.000034  -0.000028 -0.006585 -0.363032
41  1.099675 0.000025 0.000006  0.000004 -0.004187 -0.244346
42  0.805978 -0.359855 -1.318339  1.221444 0.673631 -0.793566
43  1.789778 -0.000008 -0.000043  -0.000028 0.000031 0.228552
44  1.206998 -0.000007 0.000006  -0.000017 0.000020 0.362911
45  5.740573 0.000056 0.000724  0.115590 -0.000014 0.000021
46  12.362727 0.002488 0.000975  0.031224 0.020008 -0.068857
47  6.027514 -0.000273 -0.000237  0.404071 -0.741307 -2.527030
48  -0.000000 11.691973 -0.000006  -0.005439 0.000036 0.004598
49  0.000004 -0.000002 -0.000001  2.272569 -0.000041 1.570856
50  -0.000006 -0.000015 0.000005  2.272644 -0.000030 1.570865
51  -23.122208 7.682197 -20.878065  -1.605366 2.379717 -0.041994
52  -0.000000 -0.000001 -0.000000  0.008153 -0.000259 0.000009
53  -0.000002 0.000000 0.000000  1.565115 0.043565 -0.106862
54  22.765793 6.583928 -19.088528  1.654271 0.703922 0.079136
55  0.000003 -0.000001 -0.000000  0.000000 -0.000000 -0.000002
56  0.000033 0.000029 0.000001  -1.571901 -0.044449 -0.106509
57  15.265023 8.339654 -8.787539  1.570796 -0.000000 0.000000
58  -15.265000 8.339654 -8.787539  1.570796 -0.000000 0.000000
59  1.941978 -1.346989 1.821586  1.570796 -0.000000 0.000000
60  -0.004311 0.001230 -0.000371  0.006898 -0.005534 -0.284229
61  -1.937603 -1.346625 1.822824  1.570796 -0.000000 0.000000
62  0.000000 0.000000 0.000000  -0.078727 -3.136056 0.284226
63  0.000000 0.000000 0.000000  1.570796 -0.000000 0.000000
64  -3.867668 -7.481349 -6.398460  1.570796 -0.000000 0.000000
65  0.000000 0.106749 0.631995  0.000000 -0.000000 0.000000
66  0.000000 0.621414 -1.027760  0.000000 -0.000000 0.000000
67  0.000000 0.532204 8.683752  0.000000 -0.000000 0.000000
68  -0.000000 -1.186305 0.340613  0.000000 -0.000000 0.000000
69  0.000000 1.996277 -5.696260  0.000000 -0.000000 0.000000
70  0.000000 0.111713 1.276771  0.000000 -0.000000 0.000000
71  -1.117961 0.703408 5.154790  0.000000 -0.000000 0.000000
72  -3.867669 -7.978369 -11.192551  1.570796 -0.000000 0.000000
73  0.036712 3.547556 -0.615411  0.000000 -0.000000 0.000000
74  -0.076920 3.276581 -0.615409  0.000000 -0.000000 0.000000
75  0.045456 3.053679 -0.615410  0.000000 -0.000000 0.000000
76  0.000000 1.834484 -0.723263  0.000000 -0.000000 0.000000
77  0.000000 1.834484 -0.560888  0.000000 -0.000000 0.000000
78  0.000000 1.834484 -0.409514  0.000000 -0.000000 0.000000
79  -3.607180 16.983395 -18.481731  1.593314 -0.053389 -0.015666
end
triangles
lowpoly_plastic
0  -4.460456 4.722342 -4.944389  0.000000 -1.000000 0.000027  0.005507 0.735980 1 64 1.000000
0  -4.548221 4.722344 -4.870029  0.000000 -1.000000 0.000027  0.005507 0.735980 1 64 1.000000
0  -4.548221 4.722342 -4.944389  0.000000 -1.000000 0.000027  0.005507 0.735980 1 64 1.000000
lowpoly_plastic
0  -4.436701 5.159309 -7.027423  -0.675762 0.700451 -0.229595  0.005506 0.735982 1 64 1.000000
0  -4.271433 5.397522 -6.787109  -0.675762 0.700451 -0.229595  0.005506 0.735981 1 64 1.000000
0  -4.228800 5.351287 -7.053642  -0.675762 0.700451 -0.229595  0.005507 0.735982 1 64 1.000000
lowpoly_plastic
0  -3.867669 5.239869 -7.695935  0.000000 0.707111 -0.707103  0.005507 0.735983 1 64 1.000000
0  -3.609275 5.136967 -7.798839  0.000000 0.707111 -0.707103  0.005508 0.735983 1 64 1.000000
0  -3.867669 5.136967 -7.798839  0.000000 0.707111 -0.707103  0.005507 0.735983 1 64 1.000000
lowpoly_plastic
0  -3.495707 4.722346 -7.027423  0.000000 -1.000000 0.000000  0.005497 0.735985 1 64 1.000000
0  -3.867669 4.722346 -6.787109  0.000000 -1.000000 0.000000  0.005496 0.735986 1 64 1.000000
0  -3.867669 4.722346 -7.027423  0.000000 -1.000000 0.000000  0.005496 0.735986 1 64 1.000000
lowpoly_plastic
0  -4.389374 4.722344 -5.986793  0.000000 -1.000000 -0.000001  0.005504 0.735979 1 64 1.000000
0  -4.471908 4.722345 -6.787109  0.000000 -1.000000 -0.000001  0.005504 0.735979 1 64 1.000000
0  -4.393985 4.722345 -6.787109  0.000000 -1.000000 -0.000001  0.005504 0.735979 1 64 1.000000
lowpoly_plastic
0  -3.504556 4.722344 -4.643820  0.000000 -1.000000 0.000000  0.005507 0.735980 1 64 1.000000
0  -3.867669 4.722344 -4.870029  0.000000 -1.000000 0.000000  0.005507 0.735979 1 64 1.000000
0  -3.397758 4.722344 -4.870029  0.000000 -1.000000 0.000000  0.005507 0.735979 1 64 1.000000
lowpoly_plastic
0  -3.867669 5.397524 -4.944388  0.000000 1.000000 0.000014  0.005507 0.735980 1 64 1.000000
0  -3.412911 5.397523 -4.870029  0.000000 1.000000 0.000014  0.005507 0.735980 1 64 1.000000
0  -3.412911 5.397524 -4.944388  0.000000 1.000000 0.000014  0.005507 0.735980 1 64 1.000000
lowpoly_plastic
0  -3.187117 4.722344 -4.870029  0.675180 -0.000000 0.737653  0.005507 0.735979 1 64 1.000000
0  -3.434256 5.109194 -4.643819  0.675180 -0.000000 0.737653  0.005507 0.735980 1 64 1.000000
0  -3.434256 4.722344 -4.643820  0.675180 -0.000000 0.737653  0.005507 0.735980 1 64 1.000000
lowpoly_plastic
0  -3.187117 5.201635 -4.944389  1.000000 0.000000 0.000000  0.005507 0.735980 1 64 1.000000
0  -3.187117 4.722344 -4.870029  1.000000 0.000000 0.000000  0.005507 0.735979 1 64 1.000000
0  -3.187117 4.722343 -4.944389  1.000000 0.000000 0.000000  0.005507 0.735979 1 64 1.000000
lowpoly_plastic
0  -3.867669 5.397523 -4.870029  0.000000 0.925687 0.378289  0.005507 0.735980 1 64 1.000000
0  -4.075287 5.305082 -4.643819  0.000000 0.925687 0.378289  0.005507 0.735980 1 64 1.000000
0  -3.867669 5.305082 -4.643819  0.000000 0.925687 0.378289  0.005507 0.735980 1 64 1.000000
lowpoly_plastic
0  -3.268725 4.722345 -5.986793  0.000000 -1.000000 0.000000  0.005509 0.735978 1 64 1.000000
0  -3.235658 4.722344 -5.426932  0.000000 -1.000000 0.000000  0.005508 0.735979 1 64 1.000000
0  -3.345965 4.722345 -5.986793  0.000000 -1.000000 0.000000  0.005509 0.735978 1 64 1.000000
lowpoly_plastic
0  -4.351859 5.057311 -7.606534  -0.648393 0.538328 -0.538321  0.005507 0.735983 1 64 1.000000
0  -4.126064 5.239869 -7.695935  -0.648393 0.538328 -0.538321  0.005507 0.735983 1 64 1.000000
0  -4.126064 5.136967 -7.798839  -0.648393 0.538328 -0.538321  0.005507 0.735983 1 64 1.000000
lowpoly_plastic
0  -3.609275 4.722346 -7.798839  0.661623 -0.015598 -0.749674  0.005508 0.735984 1 64 1.000000
0  -3.383480 5.057312 -7.606534  0.661623 -0.015598 -0.749674  0.005508 0.735983 1 64 1.000000
0  -3.391377 4.722346 -7.606534  0.661623 -0.015598 -0.749674  0.005508 0.735983 1 64 1.000000
lowpoly_plastic
0  -3.298638 5.159309 -7.027423  0.681338 0.697289 -0.222633  0.005508 0.735982 1 64 1.000000
0  -3.463906 5.397523 -6.787109  0.681338 0.697289 -0.222633  0.005507 0.735981 1 64 1.000000
0  -3.263431 5.201635 -6.787109  0.681338 0.697289 -0.222633  0.005508 0.735980 1 64 1.000000
lowpoly_plastic
0  -4.466614 5.201635 -5.986793  -0.698866 0.715237 0.004623  0.005506 0.735980 1 64 1.000000
0  -4.271433 5.397522 -6.787109  -0.698866 0.715237 0.004623  0.005506 0.735981 1 64 1.000000
0  -4.471908 5.201635 -6.787109  -0.698866 0.715237 0.004623  0.005506 0.735981 1 64 1.000000
lowpoly_plastic
0  -4.337579 4.722344 -4.870029  0.000000 -1.000000 0.000000  0.005507 0.735980 1 64 1.000000
0  -4.301081 4.722344 -4.643820  0.000000 -1.000000 0.000000  0.005507 0.735980 1 64 1.000000
0  -4.548221 4.722344 -4.870029  0.000000 -1.000000 0.000000  0.005507 0.735980 1 64 1.000000
lowpoly_plastic
0  -4.337579 4.722344 -4.870029  0.000000 -0.016617 -0.999862  0.032851 0.846917 1 64 1.000000
0  -3.867669 5.012686 -4.874854  0.000000 -0.016617 -0.999862  0.032851 0.846917 1 64 1.000000
0  -3.867669 4.722344 -4.870029  0.000000 -0.016617 -0.999862  0.032851 0.846917 1 64 1.000000
lowpoly_plastic
0  -3.412911 5.397524 -4.944388  0.655314 0.755357 0.000000  0.005507 0.735980 1 64 1.000000
0  -3.187117 5.201635 -4.870029  0.655314 0.755357 0.000000  0.005507 0.735980 1 64 1.000000
0  -3.187117 5.201635 -4.944389  0.655314 0.755357 0.000000  0.005507 0.735980 1 64 1.000000
lowpoly_plastic
0  -3.142087 4.722344 -5.426932  0.995674 0.000000 0.092914  0.005508 0.735979 1 64 1.000000
0  -3.187117 5.201635 -4.944389  0.995674 0.000000 0.092914  0.005507 0.735980 1 64 1.000000
0  -3.187117 4.722343 -4.944389  0.995674 0.000000 0.092914  0.005507 0.735979 1 64 1.000000
lowpoly_plastic
0  -3.867669 5.397524 -5.426932  0.000000 1.000000 -0.000001  0.005507 0.735980 1 64 1.000000
0  -3.412911 5.397524 -4.944388  0.000000 1.000000 -0.000001  0.005507 0.735980 1 64 1.000000
0  -3.382821 5.397524 -5.426932  0.000000 1.000000 -0.000001  0.005507 0.735980 1 64 1.000000
lowpoly_plastic
0  -3.867669 4.722346 -7.027423  0.000001 -0.774874 0.632116  0.005496 0.735986 1 64 1.000000
0  -4.177444 4.617135 -7.156395  0.000001 -0.774874 0.632116  0.005495 0.735985 1 64 1.000000
0  -3.867669 4.617135 -7.156395  0.000001 -0.774874 0.632116  0.005496 0.735986 1 64 1.000000
lowpoly_plastic
0  -3.867669 5.012686 -4.949214  0.000001 -1.000000 0.000000  0.032851 0.846917 1 64 1.000000
0  -4.337579 5.012686 -4.874854  0.000001 -1.000000 0.000000  0.032851 0.846917 1 64 1.000000
0  -4.460456 5.012686 -4.949214  0.000001 -1.000000 0.000000  0.032850 0.846917 1 64 1.000000
lowpoly_plastic
0  -4.466614 4.722344 -5.986793  -0.999978 0.000000 0.006615  0.005505 0.735979 1 64 1.000000
0  -4.471908 5.201635 -6.787109  -0.999978 0.000000 0.006615  0.005506 0.735981 1 64 1.000000
0  -4.471908 4.722345 -6.787109  -0.999978 0.000000 0.006615  0.005504 0.735979 1 64 1.000000
lowpoly_plastic
0  -4.499680 4.722343 -5.426932  0.996712 -0.001344 -0.081017  0.032849 0.846917 1 64 1.000000
0  -4.460456 5.012686 -4.949214  0.996712 -0.001344 -0.081017  0.032850 0.846917 1 64 1.000000
0  -4.460456 4.722342 -4.944389  0.996712 -0.001344 -0.081017  0.032850 0.846917 1 64 1.000000
lowpoly_plastic
0  -4.393985 4.722345 -6.787109  -0.000001 0.016617 0.999862  0.032839 0.846924 1 64 1.000000
0  -3.867669 5.012685 -6.791934  -0.000001 0.016617 0.999862  0.032840 0.846924 1 64 1.000000
0  -4.393985 5.012684 -6.791934  -0.000001 0.016617 0.999862  0.032839 0.846924 1 64 1.000000
lowpoly_plastic
0  -3.345965 5.012686 -5.991618  -0.999983 -0.000096 -0.005761  0.032852 0.846915 1 64 1.000000
0  -3.341354 4.722346 -6.787109  -0.999983 -0.000096 -0.005761  0.032853 0.846915 1 64 1.000000
0  -3.345965 4.722345 -5.986793  -0.999983 -0.000096 -0.005761  0.032853 0.846916 1 64 1.000000
lowpoly_plastic
0  -3.382821 5.397524 -5.426932  0.630069 0.774310 0.058795  0.005507 0.735980 1 64 1.000000
0  -3.187117 5.201635 -4.944389  0.630069 0.774310 0.058795  0.005507 0.735980 1 64 1.000000
0  -3.142087 5.201635 -5.426932  0.630069 0.774310 0.058795  0.005507 0.735980 1 64 1.000000
lowpoly_plastic
0  -3.274881 4.722343 -4.944389  0.000000 -1.000000 0.000023  0.005507 0.735979 1 64 1.000000
0  -3.187117 4.722344 -4.870029  0.000000 -1.000000 0.000023  0.005507 0.735979 1 64 1.000000
0  -3.397758 4.722344 -4.870029  0.000000 -1.000000 0.000023  0.005507 0.735979 1 64 1.000000
lowpoly_plastic
0  -4.436701 5.159309 -7.027423  -0.989438 0.000000 -0.144958  0.005506 0.735982 1 64 1.000000
0  -4.471908 4.722345 -6.787109  -0.989438 0.000000 -0.144958  0.005504 0.735979 1 64 1.000000
0  -4.471908 5.201635 -6.787109  -0.989438 0.000000 -0.144958  0.005506 0.735981 1 64 1.000000
lowpoly_plastic
0  -3.867669 4.722344 -4.870029  0.000001 -1.000000 -0.000002  0.005507 0.735979 1 64 1.000000
0  -4.230782 4.722344 -4.643820  0.000001 -1.000000 -0.000002  0.005507 0.735980 1 64 1.000000
0  -4.337579 4.722344 -4.870029  0.000001 -1.000000 -0.000002  0.005507 0.735980 1 64 1.000000
lowpoly_plastic
0  -3.867669 5.351288 -7.053642  -0.000002 0.985285 -0.170918  0.005507 0.735982 1 64 1.000000
0  -4.126064 5.239869 -7.695935  -0.000002 0.985285 -0.170918  0.005507 0.735983 1 64 1.000000
0  -4.228800 5.351287 -7.053642  -0.000002 0.985285 -0.170918  0.005507 0.735982 1 64 1.000000
lowpoly_plastic
0  -3.867669 5.012686 -4.874854  0.000000 -0.016616 -0.999862  0.032851 0.846917 1 64 1.000000
0  -3.397758 4.722344 -4.870029  0.000000 -0.016616 -0.999862  0.032851 0.846917 1 64 1.000000
0  -3.867669 4.722344 -4.870029  0.000000 -0.016616 -0.999862  0.032851 0.846917 1 64 1.000000
lowpoly_plastic
0  -4.230782 4.722344 -4.643820  0.000001 -0.000001 1.000000  0.005507 0.735980 1 64 1.000000
0  -3.867669 5.305082 -4.643819  0.000001 -0.000001 1.000000  0.005507 0.735980 1 64 1.000000
0  -4.301081 5.109193 -4.643819  0.000001 -0.000001 1.000000  0.005507 0.735980 1 64 1.000000
lowpoly_plastic
0  -4.239631 4.722345 -7.027423  0.087028 -0.750968 0.654578  0.005505 0.735981 1 64 1.000000
0  -4.419268 4.617135 -7.124244  0.087028 -0.750968 0.654578  0.005505 0.735981 1 64 1.000000
0  -4.177444 4.617135 -7.156395  0.087028 -0.750968 0.654578  0.005505 0.735981 1 64 1.000000
lowpoly_plastic
0  -4.548221 5.201635 -4.870029  -0.655316 0.755355 0.000000  0.005507 0.735980 1 64 1.000000
0  -4.322426 5.397524 -4.944388  -0.655316 0.755355 0.000000  0.005507 0.735980 1 64 1.000000
0  -4.548221 5.201635 -4.944389  -0.655316 0.755355 0.000000  0.005507 0.735980 1 64 1.000000
lowpoly_plastic
0  -3.867669 5.397523 -4.870029  0.000000 0.925687 0.378290  0.005507 0.735980 1 64 1.000000
0  -3.660051 5.305082 -4.643819  0.000000 0.925687 0.378290  0.005507 0.735980 1 64 1.000000
0  -3.412911 5.397523 -4.870029  0.000000 0.925687 0.378290  0.005507 0.735980 1 64 1.000000
lowpoly_plastic
0  -4.548221 4.722344 -4.870029  -1.000000 0.000000 0.000000  0.005507 0.735980 1 64 1.000000
0  -4.548221 5.201635 -4.944389  -1.000000 0.000000 0.000000  0.005507 0.735980 1 64 1.000000
0  -4.548221 4.722342 -4.944389  -1.000000 0.000000 0.000000  0.005507 0.735980 1 64 1.000000
lowpoly_plastic
0  -3.609275 4.722346 -7.798839  0.661698 0.000000 -0.749770  0.005508 0.735984 1 64 1.000000
0  -3.391377 4.617135 -7.606534  0.661698 0.000000 -0.749770  0.005508 0.735983 1 64 1.000000
0  -3.609275 4.617135 -7.798839  0.661698 0.000000 -0.749770  0.005508 0.735984 1 64 1.000000
lowpoly_plastic
0  -4.351859 5.057311 -7.606534  -0.661619 -0.015597 -0.749678  0.005507 0.735983 1 64 1.000000
0  -4.126064 4.722346 -7.798839  -0.661619 -0.015597 -0.749678  0.005507 0.735984 1 64 1.000000
0  -4.343962 4.722346 -7.606534  -0.661619 -0.015597 -0.749678  0.005507 0.735984 1 64 1.000000
lowpoly_plastic
0  -4.322426 5.397522 -4.870029  -0.457706 0.527585 0.715653  0.005507 0.735980 1 64 1.000000
0  -4.301081 5.109193 -4.643819  -0.457706 0.527585 0.715653  0.005507 0.735980 1 64 1.000000
0  -4.075287 5.305082 -4.643819  -0.457706 0.527585 0.715653  0.005507 0.735980 1 64 1.000000
lowpoly_plastic
0  -4.126064 5.136967 -7.798839  0.000000 0.707108 -0.707106  0.005507 0.735983 1 64 1.000000
0  -3.867669 5.239869 -7.695935  0.000000 0.707108 -0.707106  0.005507 0.735983 1 64 1.000000
0  -3.867669 5.136967 -7.798839  0.000000 0.707108 -0.707106  0.005507 0.735983 1 64 1.000000
lowpoly_plastic
0  -3.434256 4.722344 -4.643820  0.000000 -1.000000 0.000003  0.005507 0.735980 1 64 1.000000
0  -3.397758 4.722344 -4.870029  0.000000 -1.000000 0.000003  0.005507 0.735979 1 64 1.000000
0  -3.187117 4.722344 -4.870029  0.000000 -1.000000 0.000003  0.005507 0.735979 1 64 1.000000
lowpoly_plastic
0  -3.397758 5.012686 -4.874854  -0.517684 -0.014216 -0.855454  0.032851 0.846917 1 64 1.000000
0  -3.274881 4.722343 -4.944389  -0.517684 -0.014216 -0.855454  0.032851 0.846917 1 64 1.000000
0  -3.397758 4.722344 -4.870029  -0.517684 -0.014216 -0.855454  0.032851 0.846917 1 64 1.000000
lowpoly_plastic
0  -3.235658 5.012686 -5.431757  0.000000 -1.000000 0.000000  0.032852 0.846916 1 64 1.000000
0  -3.867669 5.012686 -4.949214  0.000000 -1.000000 0.000000  0.032851 0.846917 1 64 1.000000
0  -3.867669 5.012686 -5.431757  0.000000 -1.000000 0.000000  0.032850 0.846915 1 64 1.000000
lowpoly_plastic
0  -4.322426 5.397522 -4.870029  -0.000001 1.000000 0.000000  0.005507 0.735980 1 64 1.000000
0  -3.867669 5.397524 -4.944388  -0.000001 1.000000 0.000000  0.005507 0.735980 1 64 1.000000
0  -4.322426 5.397524 -4.944388  -0.000001 1.000000 0.000000  0.005507 0.735980 1 64 1.000000
lowpoly_plastic
0  -4.267895 5.397523 -5.986793  -0.000002 1.000000 0.000000  0.005507 0.735980 1 64 1.000000
0  -3.867669 5.397523 -6.787109  -0.000002 1.000000 0.000000  0.005507 0.735981 1 64 1.000000
0  -4.271433 5.397522 -6.787109  -0.000002 1.000000 0.000000  0.005506 0.735981 1 64 1.000000
lowpoly_plastic
0  -3.867669 5.012686 -5.991618  0.000002 -1.000000 0.000000  0.032850 0.846915 1 64 1.000000
0  -4.393985 5.012684 -6.791934  0.000002 -1.000000 0.000000  0.032848 0.846915 1 64 1.000000
0  -3.867669 5.012685 -6.791934  0.000002 -1.000000 0.000000  0.032850 0.846914 1 64 1.000000
lowpoly_plastic
0  -3.867669 5.012686 -4.949214  0.000000 -1.000000 0.000000  0.032851 0.846917 1 64 1.000000
0  -3.397758 5.012686 -4.874854  0.000000 -1.000000 0.000000  0.032851 0.846917 1 64 1.000000
0  -3.867669 5.012686 -4.874854  0.000000 -1.000000 0.000000  0.032851 0.846917 1 64 1.000000
lowpoly_plastic
0  -3.142087 4.722344 -5.426932  0.000000 -1.000000 -0.000001  0.005508 0.735979 1 64 1.000000
0  -3.274881 4.722343 -4.944389  0.000000 -1.000000 -0.000001  0.005507 0.735979 1 64 1.000000
0  -3.235658 4.722344 -5.426932  0.000000 -1.000000 -0.000001  0.005508 0.735979 1 64 1.000000
lowpoly_plastic
0  -4.460456 4.722342 -4.944389  0.517683 -0.014217 -0.855454  0.032850 0.846917 1 64 1.000000
0  -4.337579 5.012686 -4.874854  0.517683 -0.014217 -0.855454  0.032851 0.846917 1 64 1.000000
0  -4.337579 4.722344 -4.870029  0.517683 -0.014217 -0.855454  0.032851 0.846917 1 64 1.000000
lowpoly_plastic
0  -3.867669 4.722346 -7.798839  0.000000 0.000000 -1.000000  0.005507 0.735984 1 64 1.000000
0  -4.126064 5.136967 -7.798839  0.000000 0.000000 -1.000000  0.005507 0.735983 1 64 1.000000
0  -3.867669 5.136967 -7.798839  0.000000 0.000000 -1.000000  0.005507 0.735983 1 64 1.000000
lowpoly_plastic
0  -3.506538 5.351288 -7.053642  0.000000 0.985285 -0.170917  0.005508 0.735982 1 64 1.000000
0  -3.867669 5.397523 -6.787109  0.000000 0.985285 -0.170917  0.005507 0.735981 1 64 1.000000
0  -3.463906 5.397523 -6.787109  0.000000 0.985285 -0.170917  0.005507 0.735981 1 64 1.000000
lowpoly_plastic
0  -4.301081 5.109193 -4.643819  -0.675180 0.000000 0.737653  0.005507 0.735980 1 64 1.000000
0  -4.548221 4.722344 -4.870029  -0.675180 0.000000 0.737653  0.005507 0.735980 1 64 1.000000
0  -4.301081 4.722344 -4.643820  -0.675180 0.000000 0.737653  0.005507 0.735980 1 64 1.000000
lowpoly_plastic
0  -3.867669 4.722346 -7.027423  0.000001 -1.000000 0.000001  0.005496 0.735986 1 64 1.000000
0  -4.393985 4.722345 -6.787109  0.000001 -1.000000 0.000001  0.005495 0.735986 1 64 1.000000
0  -4.239631 4.722345 -7.027423  0.000001 -1.000000 0.000001  0.005495 0.735985 1 64 1.000000
lowpoly_plastic
0  -3.609275 5.136967 -7.798839  0.000000 0.000000 -1.000000  0.005508 0.735983 1 64 1.000000
0  -3.867669 4.722346 -7.798839  0.000000 0.000000 -1.000000  0.005507 0.735984 1 64 1.000000
0  -3.867669 5.136967 -7.798839  0.000000 0.000000 -1.000000  0.005507 0.735983 1 64 1.000000
lowpoly_metal
0  -4.449967 5.123642 -4.956967  0.000000 1.000000 -0.000003  0.066489 0.282547 1 64 1.000000
0  -4.449968 5.123641 -5.369419  0.000000 1.000000 -0.000003  0.066516 0.282573 1 64 1.000000
0  -4.492064 5.123641 -5.163193  0.000000 1.000000 -0.000003  0.066502 0.282560 1 64 1.000000
lowpoly_plastic
0  -4.329426 5.123642 -4.956967  1.000000 0.000812 -0.000001  0.054634 0.677709 1 64 1.000000
0  -4.318861 -7.886882 -5.369420  1.000000 0.000812 -0.000001  0.054660 0.677709 1 64 1.000000
0  -4.329427 5.123641 -5.369419  1.000000 0.000812 -0.000001  0.054660 0.677735 1 64 1.000000
lowpoly_metal
0  -4.338748 -7.785170 -4.956969  0.007598 -0.970800 0.239769  0.066489 0.282547 1 64 1.000000
0  -4.439239 -7.887824 -5.369420  0.007598 -0.970800 0.239769  0.066516 0.282547 1 64 1.000000
0  -4.318861 -7.886882 -5.369420  0.007598 -0.970800 0.239769  0.066516 0.282573 1 64 1.000000
lowpoly_metal
0  -3.244113 -7.827858 -5.163195  0.979795 -0.000063 -0.200005  0.066516 0.282560 1 64 1.000000
0  -3.285371 5.123641 -5.369419  0.979795 -0.000063 -0.200005  0.066489 0.282547 1 64 1.000000
0  -3.243274 5.123642 -5.163193  0.979795 -0.000063 -0.200005  0.066502 0.282547 1 64 1.000000
lowpoly_metal
0  -4.318861 -7.886882 -5.369420  0.000000 0.000000 -1.000000  0.066489 0.282547 1 64 1.000000
0  -4.449968 5.123641 -5.369419  0.000000 0.000000 -1.000000  0.066516 0.282547 1 64 1.000000
0  -4.329427 5.123641 -5.369419  0.000000 0.000000 -1.000000  0.066516 0.282573 1 64 1.000000
lowpoly_metal
0  -4.329426 5.123642 -4.956967  0.000002 -0.000000 1.000000  0.066489 0.282547 1 64 1.000000
0  -4.459126 -7.786112 -4.956969  0.000002 -0.000000 1.000000  0.066516 0.282547 1 64 1.000000
0  -4.338748 -7.785170 -4.956969  0.000002 -0.000000 1.000000  0.066516 0.282573 1 64 1.000000
lowpoly_metal
0  -3.405911 5.123641 -5.369419  0.000000 1.000000 -0.000001  0.066489 0.282547 1 64 1.000000
0  -3.243274 5.123642 -5.163193  0.000000 1.000000 -0.000001  0.066516 0.282560 1 64 1.000000
0  -3.285371 5.123641 -5.369419  0.000000 1.000000 -0.000001  0.066516 0.282573 1 64 1.000000
lowpoly_plastic
0  -3.396588 -7.879657 -5.369420  -1.000000 -0.000717 0.000001  0.054634 0.677709 1 64 1.000000
0  -3.405911 5.123643 -4.956967  -1.000000 -0.000717 0.000001  0.054660 0.677709 1 64 1.000000
0  -3.405911 5.123641 -5.369419  -1.000000 -0.000717 0.000001  0.054660 0.677735 1 64 1.000000
lowpoly_metal
0  -3.276210 -7.878715 -5.369420  0.007599 -0.970800 0.239772  0.066489 0.282547 1 64 1.000000
0  -3.416476 -7.777945 -4.956969  0.007599 -0.970800 0.239772  0.066516 0.282547 1 64 1.000000
0  -3.396588 -7.879657 -5.369420  0.007599 -0.970800 0.239772  0.066516 0.282573 1 64 1.000000
lowpoly_metal
0  -3.296097 -7.777001 -4.956969  0.979794 -0.000815 0.200007  0.066516 0.282547 1 64 1.000000
0  -3.243274 5.123642 -5.163193  0.979794 -0.000815 0.200007  0.066502 0.282547 1 64 1.000000
0  -3.285371 5.123643 -4.956967  0.979794 -0.000815 0.200007  0.066516 0.282547 1 64 1.000000
lowpoly_metal
0  -3.285371 5.123641 -5.369419  0.000000 0.000000 -1.000000  0.066489 0.282547 1 64 1.000000
0  -3.396588 -7.879657 -5.369420  0.000000 0.000000 -1.000000  0.066516 0.282547 1 64 1.000000
0  -3.405911 5.123641 -5.369419  0.000000 0.000000 -1.000000  0.066516 0.282573 1 64 1.000000
lowpoly_metal
0  -3.296097 -7.777001 -4.956969  0.000005 -0.000000 1.000000  0.066489 0.282547 1 64 1.000000
0  -3.405911 5.123643 -4.956967  0.000005 -0.000000 1.000000  0.066516 0.282547 1 64 1.000000
0  -3.416476 -7.777945 -4.956969  0.000005 -0.000000 1.000000  0.066516 0.282573 1 64 1.000000
lowpoly_plastic
0  -4.460456 4.722342 -4.944389  0.000000 -1.000000 0.000015  0.005507 0.735980 1 64 1.000000
0  -4.337579 4.722344 -4.870029  0.000000 -1.000000 0.000015  0.005507 0.735980 1 64 1.000000
0  -4.548221 4.722344 -4.870029  0.000000 -1.000000 0.000015  0.005507 0.735980 1 64 1.000000
lowpoly_plastic
0  -3.268725 4.722345 -5.986793  0.975359 0.000000 -0.220621  0.005509 0.735978 1 64 1.000000
0  -3.142087 5.201635 -5.426932  0.975359 0.000000 -0.220621  0.005507 0.735980 1 64 1.000000
0  -3.142087 4.722344 -5.426932  0.975359 0.000000 -0.220621  0.005508 0.735979 1 64 1.000000
lowpoly_plastic
0  -4.593251 5.201635 -5.426932  -0.693332 0.703346 -0.156828  0.005506 0.735980 1 64 1.000000
0  -4.267895 5.397523 -5.986793  -0.693332 0.703346 -0.156828  0.005507 0.735980 1 64 1.000000
0  -4.466614 5.201635 -5.986793  -0.693332 0.703346 -0.156828  0.005506 0.735980 1 64 1.000000
lowpoly_plastic
0  -4.499680 4.722343 -5.426932  0.000000 -1.000000 -0.000003  0.005505 0.735979 1 64 1.000000
0  -4.466614 4.722344 -5.986793  0.000000 -1.000000 -0.000003  0.005505 0.735979 1 64 1.000000
0  -4.389374 4.722344 -5.986793  0.000000 -1.000000 -0.000003  0.005504 0.735979 1 64 1.000000
lowpoly_plastic
0  -3.867669 5.305082 -4.643819  0.000000 0.000000 1.000000  0.005507 0.735980 1 64 1.000000
0  -4.075287 5.305082 -4.643819  0.000000 0.000000 1.000000  0.005507 0.735980 1 64 1.000000
0  -4.301081 5.109193 -4.643819  0.000000 0.000000 1.000000  0.005507 0.735980 1 64 1.000000
lowpoly_plastic
0  -4.301081 5.109193 -4.643819  -0.000004 -0.000001 1.000000  0.005507 0.735980 1 64 1.000000
0  -4.301081 4.722344 -4.643820  -0.000004 -0.000001 1.000000  0.005507 0.735980 1 64 1.000000
0  -4.230782 4.722344 -4.643820  -0.000004 -0.000001 1.000000  0.005507 0.735980 1 64 1.000000
lowpoly_plastic
0  -3.867669 5.397523 -4.870029  -0.000002 0.925688 0.378287  0.005507 0.735980 1 64 1.000000
0  -4.322426 5.397522 -4.870029  -0.000002 0.925688 0.378287  0.005507 0.735980 1 64 1.000000
0  -4.075287 5.305082 -4.643819  -0.000002 0.925688 0.378287  0.005507 0.735980 1 64 1.000000
lowpoly_plastic
0  -3.867669 5.012686 -4.949214  0.000001 -1.000000 0.000000  0.032851 0.846917 1 64 1.000000
0  -4.499680 5.012685 -5.431757  0.000001 -1.000000 0.000000  0.032849 0.846916 1 64 1.000000
0  -3.867669 5.012686 -5.431757  0.000001 -1.000000 0.000000  0.032850 0.846915 1 64 1.000000
lowpoly_plastic
0  -4.352517 5.397523 -5.426932  -0.000002 1.000000 -0.000002  0.005507 0.735980 1 64 1.000000
0  -3.867669 5.397524 -5.986793  -0.000002 1.000000 -0.000002  0.005507 0.735980 1 64 1.000000
0  -4.267895 5.397523 -5.986793  -0.000002 1.000000 -0.000002  0.005507 0.735980 1 64 1.000000
lowpoly_plastic
0  -4.593251 4.722343 -5.426932  -0.975360 0.000000 -0.220620  0.005505 0.735979 1 64 1.000000
0  -4.466614 5.201635 -5.986793  -0.975360 0.000000 -0.220620  0.005506 0.735980 1 64 1.000000
0  -4.466614 4.722344 -5.986793  -0.975360 0.000000 -0.220620  0.005505 0.735979 1 64 1.000000
lowpoly_plastic
0  -3.274881 5.012686 -4.949214  -0.996712 -0.001347 -0.081017  0.032851 0.846917 1 64 1.000000
0  -3.235658 4.722344 -5.426932  -0.996712 -0.001347 -0.081017  0.032852 0.846916 1 64 1.000000
0  -3.274881 4.722343 -4.944389  -0.996712 -0.001347 -0.081017  0.032851 0.846917 1 64 1.000000
lowpoly_plastic
0  -4.337579 4.722344 -4.870029  0.000007 -1.000000 -0.000004  0.005507 0.735980 1 64 1.000000
0  -4.230782 4.722344 -4.643820  0.000007 -1.000000 -0.000004  0.005507 0.735980 1 64 1.000000
0  -4.301081 4.722344 -4.643820  0.000007 -1.000000 -0.000004  0.005507 0.735980 1 64 1.000000
lowpoly_plastic
0  -3.434256 5.109194 -4.643819  0.457706 0.527585 0.715653  0.005507 0.735980 1 64 1.000000
0  -3.412911 5.397523 -4.870029  0.457706 0.527585 0.715653  0.005507 0.735980 1 64 1.000000
0  -3.660051 5.305082 -4.643819  0.457706 0.527585 0.715653  0.005507 0.735980 1 64 1.000000
lowpoly_plastic
0  -4.548221 4.722342 -4.944389  -0.995674 0.000000 0.092915  0.005507 0.735980 1 64 1.000000
0  -4.593251 5.201635 -5.426932  -0.995674 0.000000 0.092915  0.005506 0.735980 1 64 1.000000
0  -4.593251 4.722343 -5.426932  -0.995674 0.000000 0.092915  0.005505 0.735979 1 64 1.000000
lowpoly_plastic
0  -4.343962 4.722346 -7.606534  -0.661700 0.000000 -0.749768  0.005507 0.735984 1 64 1.000000
0  -4.126064 4.617135 -7.798839  -0.661700 0.000000 -0.749768  0.005507 0.735984 1 64 1.000000
0  -4.343962 4.617135 -7.606534  -0.661700 0.000000 -0.749768  0.005507 0.735984 1 64 1.000000
lowpoly_plastic
0  -3.867669 5.397523 -6.787109  0.000000 1.000000 -0.000001  0.005507 0.735981 1 64 1.000000
0  -3.467443 5.397524 -5.986793  0.000000 1.000000 -0.000001  0.005507 0.735980 1 64 1.000000
0  -3.463906 5.397523 -6.787109  0.000000 1.000000 -0.000001  0.005507 0.735981 1 64 1.000000
lowpoly_plastic
0  -3.345965 5.012686 -5.991618  0.000000 -1.000000 0.000000  0.032852 0.846915 1 64 1.000000
0  -3.867669 5.012686 -5.431757  0.000000 -1.000000 0.000000  0.032850 0.846915 1 64 1.000000
0  -3.867669 5.012686 -5.991618  0.000000 -1.000000 0.000000  0.032850 0.846915 1 64 1.000000
lowpoly_plastic
0  -3.867669 5.012686 -4.949214  0.000001 -1.000000 0.000000  0.032851 0.846917 1 64 1.000000
0  -3.867669 5.012686 -4.874854  0.000001 -1.000000 0.000000  0.032851 0.846917 1 64 1.000000
0  -4.337579 5.012686 -4.874854  0.000001 -1.000000 0.000000  0.032851 0.846917 1 64 1.000000
lowpoly_plastic
0  -3.341354 5.012685 -6.791934  0.000000 -1.000000 0.000001  0.032853 0.846914 1 64 1.000000
0  -3.867669 5.012686 -5.991618  0.000000 -1.000000 0.000001  0.032850 0.846915 1 64 1.000000
0  -3.867669 5.012685 -6.791934  0.000000 -1.000000 0.000001  0.032850 0.846914 1 64 1.000000
lowpoly_plastic
0  -3.463906 5.397523 -6.787109  0.698870 0.715234 0.004623  0.005507 0.735981 1 64 1.000000
0  -3.268725 5.201635 -5.986793  0.698870 0.715234 0.004623  0.005508 0.735980 1 64 1.000000
0  -3.263431 5.201635 -6.787109  0.698870 0.715234 0.004623  0.005508 0.735980 1 64 1.000000
lowpoly_plastic
0  -3.274881 4.722343 -4.944389  0.000000 -1.000000 0.000018  0.005507 0.735979 1 64 1.000000
0  -3.187117 4.722343 -4.944389  0.000000 -1.000000 0.000018  0.005507 0.735979 1 64 1.000000
0  -3.187117 4.722344 -4.870029  0.000000 -1.000000 0.000018  0.005507 0.735979 1 64 1.000000
lowpoly_plastic
0  -4.548221 5.201635 -4.944389  -0.630067 0.774312 0.058796  0.005507 0.735980 1 64 1.000000
0  -4.352517 5.397523 -5.426932  -0.630067 0.774312 0.058796  0.005507 0.735980 1 64 1.000000
0  -4.593251 5.201635 -5.426932  -0.630067 0.774312 0.058796  0.005506 0.735980 1 64 1.000000
lowpoly_plastic
0  -3.263431 4.722346 -6.787109  0.000000 -1.000000 -0.000001  0.005509 0.735978 1 64 1.000000
0  -3.345965 4.722345 -5.986793  0.000000 -1.000000 -0.000001  0.005509 0.735978 1 64 1.000000
0  -3.341354 4.722346 -6.787109  0.000000 -1.000000 -0.000001  0.005510 0.735978 1 64 1.000000
lowpoly_plastic
0  -3.504556 4.722344 -4.643820  0.000000 -0.000001 1.000000  0.005507 0.735980 1 64 1.000000
0  -3.434256 4.722344 -4.643820  0.000000 -0.000001 1.000000  0.005507 0.735980 1 64 1.000000
0  -3.434256 5.109194 -4.643819  0.000000 -0.000001 1.000000  0.005507 0.735980 1 64 1.000000
lowpoly_plastic
0  -3.434256 5.109194 -4.643819  0.000000 0.000000 1.000000  0.005507 0.735980 1 64 1.000000
0  -3.660051 5.305082 -4.643819  0.000000 0.000000 1.000000  0.005507 0.735980 1 64 1.000000
0  -3.867669 5.305082 -4.643819  0.000000 0.000000 1.000000  0.005507 0.735980 1 64 1.000000
lowpoly_plastic
0  -3.867669 5.397523 -4.870029  0.000000 0.925689 0.378285  0.005507 0.735980 1 64 1.000000
0  -3.867669 5.305082 -4.643819  0.000000 0.925689 0.378285  0.005507 0.735980 1 64 1.000000
0  -3.660051 5.305082 -4.643819  0.000000 0.925689 0.378285  0.005507 0.735980 1 64 1.000000
lowpoly_plastic
0  -4.322426 5.397524 -4.944388  -0.000002 1.000000 0.000000  0.005507 0.735980 1 64 1.000000
0  -3.867669 5.397524 -5.426932  -0.000002 1.000000 0.000000  0.005507 0.735980 1 64 1.000000
0  -4.352517 5.397523 -5.426932  -0.000002 1.000000 0.000000  0.005507 0.735980 1 64 1.000000
lowpoly_plastic
0  -3.383480 5.057312 -7.606534  0.648392 0.538330 -0.538320  0.005508 0.735983 1 64 1.000000
0  -3.609275 5.136967 -7.798839  0.648392 0.538330 -0.538320  0.005508 0.735983 1 64 1.000000
0  -3.609275 5.239869 -7.695935  0.648392 0.538330 -0.538320  0.005508 0.735983 1 64 1.000000
lowpoly_plastic
0  -3.867669 5.012686 -5.431757  0.000002 -1.000000 0.000000  0.032850 0.846915 1 64 1.000000
0  -4.389374 5.012685 -5.991618  0.000002 -1.000000 0.000000  0.032848 0.846916 1 64 1.000000
0  -3.867669 5.012686 -5.991618  0.000002 -1.000000 0.000000  0.032850 0.846915 1 64 1.000000
lowpoly_plastic
0  -3.235658 5.012686 -5.431757  -0.981133 0.003213 0.193308  0.032852 0.846916 1 64 1.000000
0  -3.345965 4.722345 -5.986793  -0.981133 0.003213 0.193308  0.032853 0.846916 1 64 1.000000
0  -3.235658 4.722344 -5.426932  -0.981133 0.003213 0.193308  0.032852 0.846916 1 64 1.000000
lowpoly_plastic
0  -4.389374 4.722344 -5.986793  0.981133 0.003213 0.193306  0.032848 0.846916 1 64 1.000000
0  -4.499680 5.012685 -5.431757  0.981133 0.003213 0.193306  0.032849 0.846916 1 64 1.000000
0  -4.499680 4.722343 -5.426932  0.981133 0.003213 0.193306  0.032849 0.846917 1 64 1.000000
lowpoly_plastic
0  -3.434256 4.722344 -4.643820  0.000000 -1.000000 -0.000007  0.005507 0.735980 1 64 1.000000
0  -3.504556 4.722344 -4.643820  0.000000 -1.000000 -0.000007  0.005507 0.735980 1 64 1.000000
0  -3.397758 4.722344 -4.870029  0.000000 -1.000000 -0.000007  0.005507 0.735979 1 64 1.000000
lowpoly_plastic
0  -3.867669 5.397524 -5.986793  0.000000 1.000000 -0.000001  0.005507 0.735980 1 64 1.000000
0  -3.382821 5.397524 -5.426932  0.000000 1.000000 -0.000001  0.005507 0.735980 1 64 1.000000
0  -3.467443 5.397524 -5.986793  0.000000 1.000000 -0.000001  0.005507 0.735980 1 64 1.000000
lowpoly_plastic
0  -3.867669 5.305082 -4.643819  0.000000 -0.000001 1.000000  0.005507 0.735980 1 64 1.000000
0  -3.504556 4.722344 -4.643820  0.000000 -0.000001 1.000000  0.005507 0.735980 1 64 1.000000
0  -3.434256 5.109194 -4.643819  0.000000 -0.000001 1.000000  0.005507 0.735980 1 64 1.000000
lowpoly_plastic
0  -4.393985 4.722345 -6.787109  0.999983 -0.000096 -0.005761  0.032847 0.846916 1 64 1.000000
0  -4.389374 5.012685 -5.991618  0.999983 -0.000096 -0.005761  0.032848 0.846916 1 64 1.000000
0  -4.389374 4.722344 -5.986793  0.999983 -0.000096 -0.005761  0.032848 0.846916 1 64 1.000000
lowpoly_plastic
0  -3.467443 5.397524 -5.986793  0.693331 0.703347 -0.156828  0.005507 0.735980 1 64 1.000000
0  -3.142087 5.201635 -5.426932  0.693331 0.703347 -0.156828  0.005507 0.735980 1 64 1.000000
0  -3.268725 5.201635 -5.986793  0.693331 0.703347 -0.156828  0.005508 0.735980 1 64 1.000000
lowpoly_plastic
0  -3.867669 5.012686 -4.949214  0.000000 -1.000000 0.000003  0.032851 0.846917 1 64 1.000000
0  -3.274881 5.012686 -4.949214  0.000000 -1.000000 0.000003  0.032851 0.846917 1 64 1.000000
0  -3.397758 5.012686 -4.874854  0.000000 -1.000000 0.000003  0.032851 0.846917 1 64 1.000000
lowpoly_plastic
0  -3.263431 4.722346 -6.787109  0.999978 0.000000 0.006615  0.005509 0.735978 1 64 1.000000
0  -3.268725 5.201635 -5.986793  0.999978 0.000000 0.006615  0.005508 0.735980 1 64 1.000000
0  -3.268725 4.722345 -5.986793  0.999978 0.000000 0.006615  0.005509 0.735978 1 64 1.000000
lowpoly_plastic
0  -4.460456 4.722342 -4.944389  0.000000 -1.000000 -0.000003  0.005507 0.735980 1 64 1.000000
0  -4.593251 4.722343 -5.426932  0.000000 -1.000000 -0.000003  0.005505 0.735979 1 64 1.000000
0  -4.499680 4.722343 -5.426932  0.000000 -1.000000 -0.000003  0.005505 0.735979 1 64 1.000000
lowpoly_metal
0  -4.449967 5.123642 -4.956967  0.000000 1.000000 -0.000002  0.066489 0.282547 1 64 1.000000
0  -4.329426 5.123642 -4.956967  0.000000 1.000000 -0.000002  0.066516 0.282547 1 64 1.000000
0  -4.329427 5.123641 -5.369419  0.000000 1.000000 -0.000002  0.066516 0.282573 1 64 1.000000
lowpoly_plastic
0  -4.329426 5.123642 -4.956967  0.998831 -0.000721 0.048338  0.054634 0.677709 1 64 1.000000
0  -4.338748 -7.785170 -4.956969  0.998831 -0.000721 0.048338  0.054660 0.677709 1 64 1.000000
0  -4.318861 -7.886882 -5.369420  0.998831 -0.000721 0.048338  0.054660 0.677735 1 64 1.000000
lowpoly_metal
0  -4.338748 -7.785170 -4.956969  0.004480 -0.970642 0.240489  0.066489 0.282547 1 64 1.000000
0  -4.491223 -7.836968 -5.163195  0.004480 -0.970642 0.240489  0.066516 0.282560 1 64 1.000000
0  -4.439239 -7.887824 -5.369420  0.004480 -0.970642 0.240489  0.066516 0.282573 1 64 1.000000
lowpoly_metal
0  -4.318861 -7.886882 -5.369420  0.000000 0.000000 -1.000000  0.066489 0.282547 1 64 1.000000
0  -4.439239 -7.887824 -5.369420  0.000000 0.000000 -1.000000  0.066516 0.282547 1 64 1.000000
0  -4.449968 5.123641 -5.369419  0.000000 0.000000 -1.000000  0.066516 0.282573 1 64 1.000000
lowpoly_metal
0  -4.329426 5.123642 -4.956967  0.000000 -0.000000 1.000000  0.066489 0.282547 1 64 1.000000
0  -4.449967 5.123642 -4.956967  0.000000 -0.000000 1.000000  0.066516 0.282547 1 64 1.000000
0  -4.459126 -7.786112 -4.956969  0.000000 -0.000000 1.000000  0.066516 0.282573 1 64 1.000000
lowpoly_metal
0  -3.405911 5.123641 -5.369419  0.000000 1.000000 -0.000005  0.066489 0.282547 1 64 1.000000
0  -3.405911 5.123643 -4.956967  0.000000 1.000000 -0.000005  0.066516 0.282547 1 64 1.000000
0  -3.285371 5.123643 -4.956967  0.000000 1.000000 -0.000005  0.066516 0.282573 1 64 1.000000
lowpoly_plastic
0  -3.396588 -7.879657 -5.369420  -0.998829 0.000818 -0.048364  0.054634 0.677709 1 64 1.000000
0  -3.416476 -7.777945 -4.956969  -0.998829 0.000818 -0.048364  0.054660 0.677709 1 64 1.000000
0  -3.405911 5.123643 -4.956967  -0.998829 0.000818 -0.048364  0.054660 0.677735 1 64 1.000000
lowpoly_metal
0  -3.276210 -7.878715 -5.369420  0.007608 -0.970800 0.239771  0.066489 0.282547 1 64 1.000000
0  -3.296097 -7.777001 -4.956969  0.007608 -0.970800 0.239771  0.066516 0.282547 1 64 1.000000
0  -3.416476 -7.777945 -4.956969  0.007608 -0.970800 0.239771  0.066516 0.282573 1 64 1.000000
lowpoly_metal
0  -4.449968 5.123641 -5.369419  -0.979795 -0.000064 -0.200004  0.066516 0.282547 1 64 1.000000
0  -4.491223 -7.836968 -5.163195  -0.979795 -0.000064 -0.200004  0.066502 0.282560 1 64 1.000000
0  -4.492064 5.123641 -5.163193  -0.979795 -0.000064 -0.200004  0.066516 0.282547 1 64 1.000000
lowpoly_metal
0  -3.285371 5.123641 -5.369419  -0.000001 0.000000 -1.000000  0.066489 0.282547 1 64 1.000000
0  -3.276210 -7.878715 -5.369420  -0.000001 0.000000 -1.000000  0.066516 0.282547 1 64 1.000000
0  -3.396588 -7.879657 -5.369420  -0.000001 0.000000 -1.000000  0.066516 0.282573 1 64 1.000000
lowpoly_metal
0  -3.296097 -7.777001 -4.956969  0.000000 -0.000000 1.000000  0.066489 0.282547 1 64 1.000000
0  -3.285371 5.123643 -4.956967  0.000000 -0.000000 1.000000  0.066516 0.282547 1 64 1.000000
0  -3.405911 5.123643 -4.956967  0.000000 -0.000000 1.000000  0.066516 0.282573 1 64 1.000000
lowpoly_plastic
0  -3.867669 5.012685 -6.791934  0.000000 0.016617 0.999862  0.032840 0.846924 1 64 1.000000
0  -3.341354 4.722346 -6.787109  0.000000 0.016617 0.999862  0.032840 0.846924 1 64 1.000000
0  -3.341354 5.012685 -6.791934  0.000000 0.016617 0.999862  0.032840 0.846924 1 64 1.000000
lowpoly_plastic
0  -3.300954 4.722346 -7.027423  0.988028 0.000000 -0.154272  0.005509 0.735981 1 64 1.000000
0  -3.263431 5.201635 -6.787109  0.988028 0.000000 -0.154272  0.005508 0.735980 1 64 1.000000
0  -3.263431 4.722346 -6.787109  0.988028 0.000000 -0.154272  0.005509 0.735978 1 64 1.000000
lowpoly_plastic
0  -3.391377 4.722346 -7.606534  0.988015 -0.005236 -0.154270  0.005508 0.735983 1 64 1.000000
0  -3.298638 5.159309 -7.027423  0.988015 -0.005236 -0.154270  0.005508 0.735982 1 64 1.000000
0  -3.300954 4.722346 -7.027423  0.988015 -0.005236 -0.154270  0.005509 0.735981 1 64 1.000000
lowpoly_plastic
0  -3.341354 4.722346 -6.787109  0.000000 -1.000000 0.000002  0.005510 0.735978 1 64 1.000000
0  -3.300954 4.722346 -7.027423  0.000000 -1.000000 0.000002  0.005509 0.735981 1 64 1.000000
0  -3.263431 4.722346 -6.787109  0.000000 -1.000000 0.000002  0.005509 0.735978 1 64 1.000000
lowpoly_plastic
0  -3.609275 5.239869 -7.695935  0.000000 0.985285 -0.170919  0.005508 0.735983 1 64 1.000000
0  -3.867669 5.351288 -7.053642  0.000000 0.985285 -0.170919  0.005507 0.735982 1 64 1.000000
0  -3.506538 5.351288 -7.053642  0.000000 0.985285 -0.170919  0.005508 0.735982 1 64 1.000000
lowpoly_plastic
0  -4.393985 4.722345 -6.787109  0.000000 -1.000000 0.000000  0.005504 0.735979 1 64 1.000000
0  -4.434385 4.722345 -7.027423  0.000000 -1.000000 0.000000  0.005505 0.735981 1 64 1.000000
0  -4.239631 4.722345 -7.027423  0.000000 -1.000000 0.000000  0.005505 0.735981 1 64 1.000000
lowpoly_plastic
0  -3.867669 5.397523 -6.787109  -0.000002 0.985286 -0.170916  0.005507 0.735981 1 64 1.000000
0  -4.228800 5.351287 -7.053642  -0.000002 0.985286 -0.170916  0.005507 0.735982 1 64 1.000000
0  -4.271433 5.397522 -6.787109  -0.000002 0.985286 -0.170916  0.005506 0.735981 1 64 1.000000
lowpoly_plastic
0  -4.351859 5.057311 -7.606534  -0.989556 -0.005243 -0.144051  0.005507 0.735983 1 64 1.000000
0  -4.434385 4.722345 -7.027423  -0.989556 -0.005243 -0.144051  0.005505 0.735981 1 64 1.000000
0  -4.436701 5.159309 -7.027423  -0.989556 -0.005243 -0.144051  0.005506 0.735982 1 64 1.000000
lowpoly_plastic
0  -3.383480 5.057312 -7.606534  0.676383 0.702061 -0.222746  0.005508 0.735983 1 64 1.000000
0  -3.506538 5.351288 -7.053642  0.676383 0.702061 -0.222746  0.005508 0.735982 1 64 1.000000
0  -3.298638 5.159309 -7.027423  0.676383 0.702061 -0.222746  0.005508 0.735982 1 64 1.000000
lowpoly_plastic
0  -4.351859 5.057311 -7.606534  -0.665287 0.710392 -0.229645  0.005507 0.735983 1 64 1.000000
0  -4.228800 5.351287 -7.053642  -0.665287 0.710392 -0.229645  0.005507 0.735982 1 64 1.000000
0  -4.126064 5.239869 -7.695935  -0.665287 0.710392 -0.229645  0.005507 0.735983 1 64 1.000000
lowpoly_plastic
0  -4.434385 4.722345 -7.027423  -0.988028 0.000009 -0.154273  0.005505 0.735981 1 64 1.000000
0  -4.343962 4.617135 -7.606534  -0.988028 0.000009 -0.154273  0.005506 0.735984 1 64 1.000000
0  -4.419268 4.617135 -7.124244  -0.988028 0.000009 -0.154273  0.005505 0.735981 1 64 1.000000
lowpoly_plastic
0  -3.495707 4.722346 -7.027423  0.000000 -0.774872 0.632119  0.005497 0.735985 1 64 1.000000
0  -3.867669 4.617135 -7.156395  0.000000 -0.774872 0.632119  0.005496 0.735986 1 64 1.000000
0  -3.557895 4.617135 -7.156395  0.000000 -0.774872 0.632119  0.005497 0.735985 1 64 1.000000
lowpoly_plastic
0  -3.867669 4.617135 -7.798839  0.000000 -1.000000 0.000000  0.005508 0.735984 1 64 1.000000
0  -3.609275 4.617135 -7.798839  0.000000 -1.000000 0.000000  0.005508 0.735984 1 64 1.000000
0  -3.391377 4.617135 -7.606534  0.000000 -1.000000 0.000000  0.005509 0.735983 1 64 1.000000
lowpoly_plastic
0  -4.177444 4.617135 -7.156395  -0.000000 -1.000000 0.000000  0.005505 0.735981 1 64 1.000000
0  -4.343962 4.617135 -7.606534  -0.000000 -1.000000 0.000000  0.005506 0.735984 1 64 1.000000
0  -3.867669 4.617135 -7.798839  -0.000000 -1.000000 0.000000  0.005505 0.735984 1 64 1.000000
lowpoly_plastic
0  -4.343962 4.617135 -7.606534  0.000000 -1.000000 0.000000  0.005507 0.735984 1 64 1.000000
0  -4.126064 4.617135 -7.798839  0.000000 -1.000000 0.000000  0.005507 0.735984 1 64 1.000000
0  -3.867669 4.617135 -7.798839  0.000000 -1.000000 0.000000  0.005507 0.735984 1 64 1.000000
lowpoly_plastic
0  -3.557895 4.617135 -7.156395  0.000000 -1.000000 0.000001  0.005510 0.735981 1 64 1.000000
0  -3.391377 4.617135 -7.606534  0.000000 -1.000000 0.000001  0.005509 0.735983 1 64 1.000000
0  -3.316072 4.617135 -7.124244  0.000000 -1.000000 0.000001  0.005509 0.735981 1 64 1.000000
lowpoly_plastic
0  -3.867669 4.617135 -7.798839  0.000000 -1.000000 0.000000  0.005496 0.735984 1 64 1.000000
0  -3.557895 4.617135 -7.156395  0.000000 -1.000000 0.000000  0.005497 0.735985 1 64 1.000000
0  -3.867669 4.617135 -7.156395  0.000000 -1.000000 0.000000  0.005496 0.735986 1 64 1.000000
lowpoly_plastic
0  -3.867669 4.617135 -7.798839  0.000002 -1.000000 0.000000  0.005496 0.735984 1 64 1.000000
0  -3.867669 4.617135 -7.156395  0.000002 -1.000000 0.000000  0.005496 0.735986 1 64 1.000000
0  -4.177444 4.617135 -7.156395  0.000002 -1.000000 0.000000  0.005495 0.735985 1 64 1.000000
lowpoly_plastic
0  -4.126064 4.722346 -7.798839  0.000000 0.000000 -1.000000  0.005507 0.735984 1 64 1.000000
0  -3.867669 4.617135 -7.798839  0.000000 0.000000 -1.000000  0.005507 0.735984 1 64 1.000000
0  -4.126064 4.617135 -7.798839  0.000000 0.000000 -1.000000  0.005507 0.735984 1 64 1.000000
lowpoly_plastic
0  -3.300954 4.722346 -7.027423  -0.098290 -0.666195 0.739272  0.005509 0.735981 1 64 1.000000
0  -3.557895 4.617135 -7.156395  -0.098290 -0.666195 0.739272  0.005510 0.735981 1 64 1.000000
0  -3.316072 4.617135 -7.124244  -0.098290 -0.666195 0.739272  0.005509 0.735981 1 64 1.000000
lowpoly_plastic
0  -3.867669 4.722346 -7.798839  0.000000 0.000000 -1.000000  0.005507 0.735984 1 64 1.000000
0  -3.609275 4.617135 -7.798839  0.000000 0.000000 -1.000000  0.005508 0.735984 1 64 1.000000
0  -3.867669 4.617135 -7.798839  0.000000 0.000000 -1.000000  0.005507 0.735984 1 64 1.000000
lowpoly_plastic
0  -3.391377 4.722346 -7.606534  0.988028 0.000000 -0.154272  0.005508 0.735983 1 64 1.000000
0  -3.316072 4.617135 -7.124244  0.988028 0.000000 -0.154272  0.005509 0.735981 1 64 1.000000
0  -3.391377 4.617135 -7.606534  0.988028 0.000000 -0.154272  0.005508 0.735983 1 64 1.000000
lowpoly_metal
0  -4.492064 5.123641 -5.163193  -0.979794 0.000695 0.200008  0.066516 0.282547 1 64 1.000000
0  -4.459126 -7.786112 -4.956969  -0.979794 0.000695 0.200008  0.066489 0.282547 1 64 1.000000
0  -4.449967 5.123642 -4.956967  -0.979794 0.000695 0.200008  0.066516 0.282547 1 64 1.000000
lowpoly_plastic
0  -4.436701 5.159309 -7.027423  -0.681334 0.697294 -0.222632  0.005506 0.735982 1 64 1.000000
0  -4.471908 5.201635 -6.787109  -0.681334 0.697294 -0.222632  0.005506 0.735981 1 64 1.000000
0  -4.271433 5.397522 -6.787109  -0.681334 0.697294 -0.222632  0.005506 0.735981 1 64 1.000000
lowpoly_plastic
0  -3.867669 5.239869 -7.695935  0.000000 0.707108 -0.707106  0.005507 0.735983 1 64 1.000000
0  -3.609275 5.239869 -7.695935  0.000000 0.707108 -0.707106  0.005508 0.735983 1 64 1.000000
0  -3.609275 5.136967 -7.798839  0.000000 0.707108 -0.707106  0.005508 0.735983 1 64 1.000000
lowpoly_plastic
0  -3.495707 4.722346 -7.027423  0.000000 -1.000000 0.000000  0.005497 0.735985 1 64 1.000000
0  -3.341354 4.722346 -6.787109  0.000000 -1.000000 0.000000  0.005497 0.735986 1 64 1.000000
0  -3.867669 4.722346 -6.787109  0.000000 -1.000000 0.000000  0.005496 0.735986 1 64 1.000000
lowpoly_plastic
0  -4.389374 4.722344 -5.986793  0.000000 -1.000000 -0.000001  0.005504 0.735979 1 64 1.000000
0  -4.466614 4.722344 -5.986793  0.000000 -1.000000 -0.000001  0.005505 0.735979 1 64 1.000000
0  -4.471908 4.722345 -6.787109  0.000000 -1.000000 -0.000001  0.005504 0.735979 1 64 1.000000
lowpoly_plastic
0  -3.504556 4.722344 -4.643820  0.000000 -1.000000 0.000000  0.005507 0.735980 1 64 1.000000
0  -3.867669 4.722344 -4.643820  0.000000 -1.000000 0.000000  0.005507 0.735980 1 64 1.000000
0  -3.867669 4.722344 -4.870029  0.000000 -1.000000 0.000000  0.005507 0.735979 1 64 1.000000
lowpoly_plastic
0  -3.867669 5.397524 -4.944388  0.000000 1.000000 0.000000  0.005507 0.735980 1 64 1.000000
0  -3.867669 5.397523 -4.870029  0.000000 1.000000 0.000000  0.005507 0.735980 1 64 1.000000
0  -3.412911 5.397523 -4.870029  0.000000 1.000000 0.000000  0.005507 0.735980 1 64 1.000000
lowpoly_plastic
0  -3.187117 4.722344 -4.870029  0.675182 0.000000 0.737651  0.005507 0.735979 1 64 1.000000
0  -3.187117 5.201635 -4.870029  0.675182 0.000000 0.737651  0.005507 0.735980 1 64 1.000000
0  -3.434256 5.109194 -4.643819  0.675182 0.000000 0.737651  0.005507 0.735980 1 64 1.000000
lowpoly_plastic
0  -3.187117 5.201635 -4.944389  1.000000 0.000000 0.000000  0.005507 0.735980 1 64 1.000000
0  -3.187117 5.201635 -4.870029  1.000000 0.000000 0.000000  0.005507 0.735980 1 64 1.000000
0  -3.187117 4.722344 -4.870029  1.000000 0.000000 0.000000  0.005507 0.735979 1 64 1.000000
lowpoly_plastic
0  -3.268725 4.722345 -5.986793  0.000000 -1.000000 0.000000  0.005509 0.735978 1 64 1.000000
0  -3.142087 4.722344 -5.426932  0.000000 -1.000000 0.000000  0.005508 0.735979 1 64 1.000000
0  -3.235658 4.722344 -5.426932  0.000000 -1.000000 0.000000  0.005508 0.735979 1 64 1.000000
lowpoly_plastic
0  -3.609275 4.722346 -7.798839  0.648389 0.000000 -0.761309  0.005508 0.735984 1 64 1.000000
0  -3.609275 5.136967 -7.798839  0.648389 0.000000 -0.761309  0.005508 0.735983 1 64 1.000000
0  -3.383480 5.057312 -7.606534  0.648389 0.000000 -0.761309  0.005508 0.735983 1 64 1.000000
lowpoly_plastic
0  -3.298638 5.159309 -7.027423  0.675762 0.700450 -0.229598  0.005508 0.735982 1 64 1.000000
0  -3.506538 5.351288 -7.053642  0.675762 0.700450 -0.229598  0.005508 0.735982 1 64 1.000000
0  -3.463906 5.397523 -6.787109  0.675762 0.700450 -0.229598  0.005507 0.735981 1 64 1.000000
lowpoly_plastic
0  -4.466614 5.201635 -5.986793  -0.702013 0.712158 0.003103  0.005506 0.735980 1 64 1.000000
0  -4.267895 5.397523 -5.986793  -0.702013 0.712158 0.003103  0.005507 0.735980 1 64 1.000000
0  -4.271433 5.397522 -6.787109  -0.702013 0.712158 0.003103  0.005506 0.735981 1 64 1.000000
lowpoly_plastic
0  -4.337579 4.722344 -4.870029  0.000001 -0.016616 -0.999862  0.032851 0.846917 1 64 1.000000
0  -4.337579 5.012686 -4.874854  0.000001 -0.016616 -0.999862  0.032851 0.846917 1 64 1.000000
0  -3.867669 5.012686 -4.874854  0.000001 -0.016616 -0.999862  0.032851 0.846917 1 64 1.000000
lowpoly_plastic
0  -3.412911 5.397524 -4.944388  0.655308 0.755362 0.000000  0.005507 0.735980 1 64 1.000000
0  -3.412911 5.397523 -4.870029  0.655308 0.755362 0.000000  0.005507 0.735980 1 64 1.000000
0  -3.187117 5.201635 -4.870029  0.655308 0.755362 0.000000  0.005507 0.735980 1 64 1.000000
lowpoly_plastic
0  -3.142087 4.722344 -5.426932  0.995674 0.000000 0.092914  0.005508 0.735979 1 64 1.000000
0  -3.142087 5.201635 -5.426932  0.995674 0.000000 0.092914  0.005507 0.735980 1 64 1.000000
0  -3.187117 5.201635 -4.944389  0.995674 0.000000 0.092914  0.005507 0.735980 1 64 1.000000
lowpoly_plastic
0  -3.867669 5.397524 -5.426932  0.000000 1.000000 0.000002  0.005507 0.735980 1 64 1.000000
0  -3.867669 5.397524 -4.944388  0.000000 1.000000 0.000002  0.005507 0.735980 1 64 1.000000
0  -3.412911 5.397524 -4.944388  0.000000 1.000000 0.000002  0.005507 0.735980 1 64 1.000000
lowpoly_plastic
0  -3.867669 4.722346 -7.027423  0.000002 -0.774874 0.632116  0.005496 0.735986 1 64 1.000000
0  -4.239631 4.722345 -7.027423  0.000002 -0.774874 0.632116  0.005495 0.735985 1 64 1.000000
0  -4.177444 4.617135 -7.156395  0.000002 -0.774874 0.632116  0.005495 0.735985 1 64 1.000000
lowpoly_plastic
0  -4.466614 4.722344 -5.986793  -0.999978 0.000000 0.006615  0.005505 0.735979 1 64 1.000000
0  -4.466614 5.201635 -5.986793  -0.999978 0.000000 0.006615  0.005506 0.735980 1 64 1.000000
0  -4.471908 5.201635 -6.787109  -0.999978 0.000000 0.006615  0.005506 0.735981 1 64 1.000000
lowpoly_plastic
0  -4.499680 4.722343 -5.426932  0.996712 -0.001350 -0.081017  0.032849 0.846917 1 64 1.000000
0  -4.499680 5.012685 -5.431757  0.996712 -0.001350 -0.081017  0.032849 0.846916 1 64 1.000000
0  -4.460456 5.012686 -4.949214  0.996712 -0.001350 -0.081017  0.032850 0.846917 1 64 1.000000
lowpoly_plastic
0  -4.393985 4.722345 -6.787109  0.000000 0.016617 0.999862  0.032839 0.846924 1 64 1.000000
0  -3.867669 4.722346 -6.787109  0.000000 0.016617 0.999862  0.032840 0.846924 1 64 1.000000
0  -3.867669 5.012685 -6.791934  0.000000 0.016617 0.999862  0.032840 0.846924 1 64 1.000000
lowpoly_plastic
0  -3.345965 5.012686 -5.991618  -0.999983 -0.000096 -0.005761  0.032852 0.846915 1 64 1.000000
0  -3.341354 5.012685 -6.791934  -0.999983 -0.000096 -0.005761  0.032853 0.846914 1 64 1.000000
0  -3.341354 4.722346 -6.787109  -0.999983 -0.000096 -0.005761  0.032853 0.846915 1 64 1.000000
lowpoly_plastic
0  -3.382821 5.397524 -5.426932  0.654769 0.754726 0.040830  0.005507 0.735980 1 64 1.000000
0  -3.412911 5.397524 -4.944388  0.654769 0.754726 0.040830  0.005507 0.735980 1 64 1.000000
0  -3.187117 5.201635 -4.944389  0.654769 0.754726 0.040830  0.005507 0.735980 1 64 1.000000
lowpoly_plastic
0  -4.436701 5.159309 -7.027423  -0.988015 -0.005236 -0.154270  0.005506 0.735982 1 64 1.000000
0  -4.434385 4.722345 -7.027423  -0.988015 -0.005236 -0.154270  0.005505 0.735981 1 64 1.000000
0  -4.471908 4.722345 -6.787109  -0.988015 -0.005236 -0.154270  0.005504 0.735979 1 64 1.000000
lowpoly_plastic
0  -3.867669 4.722344 -4.870029  0.000000 -1.000000 0.000000  0.005507 0.735979 1 64 1.000000
0  -3.867669 4.722344 -4.643820  0.000000 -1.000000 0.000000  0.005507 0.735980 1 64 1.000000
0  -4.230782 4.722344 -4.643820  0.000000 -1.000000 0.000000  0.005507 0.735980 1 64 1.000000
lowpoly_plastic
0  -3.867669 5.351288 -7.053642  0.000000 0.985285 -0.170917  0.005507 0.735982 1 64 1.000000
0  -3.867669 5.239869 -7.695935  0.000000 0.985285 -0.170917  0.005507 0.735983 1 64 1.000000
0  -4.126064 5.239869 -7.695935  0.000000 0.985285 -0.170917  0.005507 0.735983 1 64 1.000000
lowpoly_plastic
0  -3.867669 5.012686 -4.874854  0.000000 -0.016616 -0.999862  0.032851 0.846917 1 64 1.000000
0  -3.397758 5.012686 -4.874854  0.000000 -0.016616 -0.999862  0.032851 0.846917 1 64 1.000000
0  -3.397758 4.722344 -4.870029  0.000000 -0.016616 -0.999862  0.032851 0.846917 1 64 1.000000
lowpoly_plastic
0  -4.230782 4.722344 -4.643820  0.000000 -0.000001 1.000000  0.005507 0.735980 1 64 1.000000
0  -3.867669 4.722344 -4.643820  0.000000 -0.000001 1.000000  0.005507 0.735980 1 64 1.000000
0  -3.867669 5.305082 -4.643819  0.000000 -0.000001 1.000000  0.005507 0.735980 1 64 1.000000
lowpoly_plastic
0  -4.239631 4.722345 -7.027423  0.000000 -0.677155 0.735840  0.005505 0.735981 1 64 1.000000
0  -4.434385 4.722345 -7.027423  0.000000 -0.677155 0.735840  0.005505 0.735981 1 64 1.000000
0  -4.419268 4.617135 -7.124244  0.000000 -0.677155 0.735840  0.005505 0.735981 1 64 1.000000
lowpoly_plastic
0  -4.548221 5.201635 -4.870029  -0.655307 0.755363 0.000021  0.005507 0.735980 1 64 1.000000
0  -4.322426 5.397522 -4.870029  -0.655307 0.755363 0.000021  0.005507 0.735980 1 64 1.000000
0  -4.322426 5.397524 -4.944388  -0.655307 0.755363 0.000021  0.005507 0.735980 1 64 1.000000
lowpoly_plastic
0  -4.548221 4.722344 -4.870029  -1.000000 0.000000 0.000000  0.005507 0.735980 1 64 1.000000
0  -4.548221 5.201635 -4.870029  -1.000000 0.000000 0.000000  0.005507 0.735980 1 64 1.000000
0  -4.548221 5.201635 -4.944389  -1.000000 0.000000 0.000000  0.005507 0.735980 1 64 1.000000
lowpoly_plastic
0  -3.609275 4.722346 -7.798839  0.661704 0.000000 -0.749765  0.005508 0.735984 1 64 1.000000
0  -3.391377 4.722346 -7.606534  0.661704 0.000000 -0.749765  0.005508 0.735983 1 64 1.000000
0  -3.391377 4.617135 -7.606534  0.661704 0.000000 -0.749765  0.005508 0.735983 1 64 1.000000
lowpoly_plastic
0  -4.351859 5.057311 -7.606534  -0.648391 0.000000 -0.761308  0.005507 0.735983 1 64 1.000000
0  -4.126064 5.136967 -7.798839  -0.648391 0.000000 -0.761308  0.005507 0.735983 1 64 1.000000
0  -4.126064 4.722346 -7.798839  -0.648391 0.000000 -0.761308  0.005507 0.735984 1 64 1.000000
lowpoly_plastic
0  -4.322426 5.397522 -4.870029  -0.457706 0.527585 0.715653  0.005507 0.735980 1 64 1.000000
0  -4.548221 5.201635 -4.870029  -0.457706 0.527585 0.715653  0.005507 0.735980 1 64 1.000000
0  -4.301081 5.109193 -4.643819  -0.457706 0.527585 0.715653  0.005507 0.735980 1 64 1.000000
lowpoly_plastic
0  -4.126064 5.136967 -7.798839  0.000000 0.707112 -0.707102  0.005507 0.735983 1 64 1.000000
0  -4.126064 5.239869 -7.695935  0.000000 0.707112 -0.707102  0.005507 0.735983 1 64 1.000000
0  -3.867669 5.239869 -7.695935  0.000000 0.707112 -0.707102  0.005507 0.735983 1 64 1.000000
lowpoly_plastic
0  -3.397758 5.012686 -4.874854  -0.517682 -0.014217 -0.855455  0.032851 0.846917 1 64 1.000000
0  -3.274881 5.012686 -4.949214  -0.517682 -0.014217 -0.855455  0.032851 0.846917 1 64 1.000000
0  -3.274881 4.722343 -4.944389  -0.517682 -0.014217 -0.855455  0.032851 0.846917 1 64 1.000000
lowpoly_plastic
0  -3.235658 5.012686 -5.431757  0.000000 -1.000000 0.000002  0.032852 0.846916 1 64 1.000000
0  -3.274881 5.012686 -4.949214  0.000000 -1.000000 0.000002  0.032851 0.846917 1 64 1.000000
0  -3.867669 5.012686 -4.949214  0.000000 -1.000000 0.000002  0.032851 0.846917 1 64 1.000000
lowpoly_plastic
0  -4.322426 5.397522 -4.870029  -0.000002 1.000000 0.000014  0.005507 0.735980 1 64 1.000000
0  -3.867669 5.397523 -4.870029  -0.000002 1.000000 0.000014  0.005507 0.735980 1 64 1.000000
0  -3.867669 5.397524 -4.944388  -0.000002 1.000000 0.000014  0.005507 0.735980 1 64 1.000000
lowpoly_plastic
0  -4.267895 5.397523 -5.986793  -0.000002 1.000000 -0.000001  0.005507 0.735980 1 64 1.000000
0  -3.867669 5.397524 -5.986793  -0.000002 1.000000 -0.000001  0.005507 0.735980 1 64 1.000000
0  -3.867669 5.397523 -6.787109  -0.000002 1.000000 -0.000001  0.005507 0.735981 1 64 1.000000
lowpoly_plastic
0  -3.867669 5.012686 -5.991618  0.000002 -1.000000 0.000002  0.032850 0.846915 1 64 1.000000
0  -4.389374 5.012685 -5.991618  0.000002 -1.000000 0.000002  0.032848 0.846916 1 64 1.000000
0  -4.393985 5.012684 -6.791934  0.000002 -1.000000 0.000002  0.032848 0.846915 1 64 1.000000
lowpoly_plastic
0  -3.142087 4.722344 -5.426932  0.000000 -1.000000 -0.000004  0.005508 0.735979 1 64 1.000000
0  -3.187117 4.722343 -4.944389  0.000000 -1.000000 -0.000004  0.005507 0.735979 1 64 1.000000
0  -3.274881 4.722343 -4.944389  0.000000 -1.000000 -0.000004  0.005507 0.735979 1 64 1.000000
lowpoly_plastic
0  -4.460456 4.722342 -4.944389  0.517682 -0.014216 -0.855455  0.032850 0.846917 1 64 1.000000
0  -4.460456 5.012686 -4.949214  0.517682 -0.014216 -0.855455  0.032850 0.846917 1 64 1.000000
0  -4.337579 5.012686 -4.874854  0.517682 -0.014216 -0.855455  0.032851 0.846917 1 64 1.000000
lowpoly_plastic
0  -3.867669 4.722346 -7.798839  0.000000 0.000000 -1.000000  0.005507 0.735984 1 64 1.000000
0  -4.126064 4.722346 -7.798839  0.000000 0.000000 -1.000000  0.005507 0.735984 1 64 1.000000
0  -4.126064 5.136967 -7.798839  0.000000 0.000000 -1.000000  0.005507 0.735983 1 64 1.000000
lowpoly_plastic
0  -3.506538 5.351288 -7.053642  0.000000 0.985285 -0.170919  0.005508 0.735982 1 64 1.000000
0  -3.867669 5.351288 -7.053642  0.000000 0.985285 -0.170919  0.005507 0.735982 1 64 1.000000
0  -3.867669 5.397523 -6.787109  0.000000 0.985285 -0.170919  0.005507 0.735981 1 64 1.000000
lowpoly_plastic
0  -4.301081 5.109193 -4.643819  -0.675180 0.000000 0.737653  0.005507 0.735980 1 64 1.000000
0  -4.548221 5.201635 -4.870029  -0.675180 0.000000 0.737653  0.005507 0.735980 1 64 1.000000
0  -4.548221 4.722344 -4.870029  -0.675180 0.000000 0.737653  0.005507 0.735980 1 64 1.000000
lowpoly_plastic
0  -3.867669 4.722346 -7.027423  0.000002 -1.000000 0.000000  0.005496 0.735986 1 64 1.000000
0  -3.867669 4.722346 -6.787109  0.000002 -1.000000 0.000000  0.005496 0.735986 1 64 1.000000
0  -4.393985 4.722345 -6.787109  0.000002 -1.000000 0.000000  0.005495 0.735986 1 64 1.000000
lowpoly_plastic
0  -3.609275 5.136967 -7.798839  0.000000 0.000000 -1.000000  0.005508 0.735983 1 64 1.000000
0  -3.609275 4.722346 -7.798839  0.000000 0.000000 -1.000000  0.005508 0.735984 1 64 1.000000
0  -3.867669 4.722346 -7.798839  0.000000 0.000000 -1.000000  0.005507 0.735984 1 64 1.000000
lowpoly_metal
0  -4.449967 5.123642 -4.956967  0.000000 1.000000 -0.000002  0.066489 0.282547 1 64 1.000000
0  -4.329427 5.123641 -5.369419  0.000000 1.000000 -0.000002  0.066516 0.282547 1 64 1.000000
0  -4.449968 5.123641 -5.369419  0.000000 1.000000 -0.000002  0.066516 0.282573 1 64 1.000000
lowpoly_metal
0  -3.244113 -7.827858 -5.163195  0.988077 0.000696 -0.153958  0.066516 0.282560 1 64 1.000000
0  -3.276210 -7.878715 -5.369420  0.988077 0.000696 -0.153958  0.066516 0.282573 1 64 1.000000
0  -3.285371 5.123641 -5.369419  0.988077 0.000696 -0.153958  0.066489 0.282547 1 64 1.000000
lowpoly_metal
0  -3.405911 5.123641 -5.369419  -0.000002 1.000000 -0.000003  0.066489 0.282547 1 64 1.000000
0  -3.285371 5.123643 -4.956967  -0.000002 1.000000 -0.000003  0.066516 0.282547 1 64 1.000000
0  -3.243274 5.123642 -5.163193  -0.000002 1.000000 -0.000003  0.066516 0.282560 1 64 1.000000
lowpoly_metal
0  -3.296097 -7.777001 -4.956969  0.969664 -0.000063 0.244443  0.066516 0.282547 1 64 1.000000
0  -3.244113 -7.827858 -5.163195  0.969664 -0.000063 0.244443  0.066516 0.282560 1 64 1.000000
0  -3.243274 5.123642 -5.163193  0.969664 -0.000063 0.244443  0.066502 0.282547 1 64 1.000000
lowpoly_plastic
0  -3.268725 4.722345 -5.986793  0.975360 0.000000 -0.220621  0.005509 0.735978 1 64 1.000000
0  -3.268725 5.201635 -5.986793  0.975360 0.000000 -0.220621  0.005508 0.735980 1 64 1.000000
0  -3.142087 5.201635 -5.426932  0.975360 0.000000 -0.220621  0.005507 0.735980 1 64 1.000000
lowpoly_plastic
0  -4.593251 5.201635 -5.426932  -0.628306 0.772148 -0.094968  0.005506 0.735980 1 64 1.000000
0  -4.352517 5.397523 -5.426932  -0.628306 0.772148 -0.094968  0.005507 0.735980 1 64 1.000000
0  -4.267895 5.397523 -5.986793  -0.628306 0.772148 -0.094968  0.005507 0.735980 1 64 1.000000
lowpoly_plastic
0  -4.499680 4.722343 -5.426932  0.000000 -1.000000 0.000000  0.005505 0.735979 1 64 1.000000
0  -4.593251 4.722343 -5.426932  0.000000 -1.000000 0.000000  0.005505 0.735979 1 64 1.000000
0  -4.466614 4.722344 -5.986793  0.000000 -1.000000 0.000000  0.005505 0.735979 1 64 1.000000
lowpoly_plastic
0  -3.867669 5.012686 -4.949214  0.000001 -1.000000 0.000000  0.032851 0.846917 1 64 1.000000
0  -4.460456 5.012686 -4.949214  0.000001 -1.000000 0.000000  0.032850 0.846917 1 64 1.000000
0  -4.499680 5.012685 -5.431757  0.000001 -1.000000 0.000000  0.032849 0.846916 1 64 1.000000
lowpoly_plastic
0  -4.352517 5.397523 -5.426932  -0.000002 1.000000 0.000000  0.005507 0.735980 1 64 1.000000
0  -3.867669 5.397524 -5.426932  -0.000002 1.000000 0.000000  0.005507 0.735980 1 64 1.000000
0  -3.867669 5.397524 -5.986793  -0.000002 1.000000 0.000000  0.005507 0.735980 1 64 1.000000
lowpoly_plastic
0  -4.593251 4.722343 -5.426932  -0.975360 0.000000 -0.220620  0.005505 0.735979 1 64 1.000000
0  -4.593251 5.201635 -5.426932  -0.975360 0.000000 -0.220620  0.005506 0.735980 1 64 1.000000
0  -4.466614 5.201635 -5.986793  -0.975360 0.000000 -0.220620  0.005506 0.735980 1 64 1.000000
lowpoly_plastic
0  -3.274881 5.012686 -4.949214  -0.996712 -0.001346 -0.081017  0.032851 0.846917 1 64 1.000000
0  -3.235658 5.012686 -5.431757  -0.996712 -0.001346 -0.081017  0.032852 0.846916 1 64 1.000000
0  -3.235658 4.722344 -5.426932  -0.996712 -0.001346 -0.081017  0.032852 0.846916 1 64 1.000000
lowpoly_plastic
0  -3.434256 5.109194 -4.643819  0.457707 0.527583 0.715654  0.005507 0.735980 1 64 1.000000
0  -3.187117 5.201635 -4.870029  0.457707 0.527583 0.715654  0.005507 0.735980 1 64 1.000000
0  -3.412911 5.397523 -4.870029  0.457707 0.527583 0.715654  0.005507 0.735980 1 64 1.000000
lowpoly_plastic
0  -4.548221 4.722342 -4.944389  -0.995674 0.000000 0.092915  0.005507 0.735980 1 64 1.000000
0  -4.548221 5.201635 -4.944389  -0.995674 0.000000 0.092915  0.005507 0.735980 1 64 1.000000
0  -4.593251 5.201635 -5.426932  -0.995674 0.000000 0.092915  0.005506 0.735980 1 64 1.000000
lowpoly_plastic
0  -4.343962 4.722346 -7.606534  -0.661706 0.000000 -0.749763  0.005507 0.735984 1 64 1.000000
0  -4.126064 4.722346 -7.798839  -0.661706 0.000000 -0.749763  0.005507 0.735984 1 64 1.000000
0  -4.126064 4.617135 -7.798839  -0.661706 0.000000 -0.749763  0.005507 0.735984 1 64 1.000000
lowpoly_plastic
0  -3.867669 5.397523 -6.787109  0.000000 1.000000 0.000000  0.005507 0.735981 1 64 1.000000
0  -3.867669 5.397524 -5.986793  0.000000 1.000000 0.000000  0.005507 0.735980 1 64 1.000000
0  -3.467443 5.397524 -5.986793  0.000000 1.000000 0.000000  0.005507 0.735980 1 64 1.000000
lowpoly_plastic
0  -3.345965 5.012686 -5.991618  0.000000 -1.000000 0.000000  0.032852 0.846915 1 64 1.000000
0  -3.235658 5.012686 -5.431757  0.000000 -1.000000 0.000000  0.032852 0.846916 1 64 1.000000
0  -3.867669 5.012686 -5.431757  0.000000 -1.000000 0.000000  0.032850 0.846915 1 64 1.000000
lowpoly_plastic
0  -3.341354 5.012685 -6.791934  0.000000 -1.000000 0.000000  0.032853 0.846914 1 64 1.000000
0  -3.345965 5.012686 -5.991618  0.000000 -1.000000 0.000000  0.032852 0.846915 1 64 1.000000
0  -3.867669 5.012686 -5.991618  0.000000 -1.000000 0.000000  0.032850 0.846915 1 64 1.000000
lowpoly_plastic
0  -3.463906 5.397523 -6.787109  0.702015 0.712156 0.003102  0.005507 0.735981 1 64 1.000000
0  -3.467443 5.397524 -5.986793  0.702015 0.712156 0.003102  0.005507 0.735980 1 64 1.000000
0  -3.268725 5.201635 -5.986793  0.702015 0.712156 0.003102  0.005508 0.735980 1 64 1.000000
lowpoly_plastic
0  -4.548221 5.201635 -4.944389  -0.654767 0.754728 0.040827  0.005507 0.735980 1 64 1.000000
0  -4.322426 5.397524 -4.944388  -0.654767 0.754728 0.040827  0.005507 0.735980 1 64 1.000000
0  -4.352517 5.397523 -5.426932  -0.654767 0.754728 0.040827  0.005507 0.735980 1 64 1.000000
lowpoly_plastic
0  -3.263431 4.722346 -6.787109  0.000000 -1.000000 -0.000001  0.005509 0.735978 1 64 1.000000
0  -3.268725 4.722345 -5.986793  0.000000 -1.000000 -0.000001  0.005509 0.735978 1 64 1.000000
0  -3.345965 4.722345 -5.986793  0.000000 -1.000000 -0.000001  0.005509 0.735978 1 64 1.000000
lowpoly_plastic
0  -4.322426 5.397524 -4.944388  -0.000001 1.000000 0.000001  0.005507 0.735980 1 64 1.000000
0  -3.867669 5.397524 -4.944388  -0.000001 1.000000 0.000001  0.005507 0.735980 1 64 1.000000
0  -3.867669 5.397524 -5.426932  -0.000001 1.000000 0.000001  0.005507 0.735980 1 64 1.000000
lowpoly_plastic
0  -3.867669 5.012686 -5.431757  0.000001 -1.000000 0.000002  0.032850 0.846915 1 64 1.000000
0  -4.499680 5.012685 -5.431757  0.000001 -1.000000 0.000002  0.032849 0.846916 1 64 1.000000
0  -4.389374 5.012685 -5.991618  0.000001 -1.000000 0.000002  0.032848 0.846916 1 64 1.000000
lowpoly_plastic
0  -3.235658 5.012686 -5.431757  -0.981133 0.003214 0.193307  0.032852 0.846916 1 64 1.000000
0  -3.345965 5.012686 -5.991618  -0.981133 0.003214 0.193307  0.032852 0.846915 1 64 1.000000
0  -3.345965 4.722345 -5.986793  -0.981133 0.003214 0.193307  0.032853 0.846916 1 64 1.000000
lowpoly_plastic
0  -4.389374 4.722344 -5.986793  0.981133 0.003212 0.193307  0.032848 0.846916 1 64 1.000000
0  -4.389374 5.012685 -5.991618  0.981133 0.003212 0.193307  0.032848 0.846916 1 64 1.000000
0  -4.499680 5.012685 -5.431757  0.981133 0.003212 0.193307  0.032849 0.846916 1 64 1.000000
lowpoly_plastic
0  -3.867669 5.397524 -5.986793  0.000000 1.000000 -0.000002  0.005507 0.735980 1 64 1.000000
0  -3.867669 5.397524 -5.426932  0.000000 1.000000 -0.000002  0.005507 0.735980 1 64 1.000000
0  -3.382821 5.397524 -5.426932  0.000000 1.000000 -0.000002  0.005507 0.735980 1 64 1.000000
lowpoly_plastic
0  -3.867669 5.305082 -4.643819  0.000000 -0.000001 1.000000  0.005507 0.735980 1 64 1.000000
0  -3.867669 4.722344 -4.643820  0.000000 -0.000001 1.000000  0.005507 0.735980 1 64 1.000000
0  -3.504556 4.722344 -4.643820  0.000000 -0.000001 1.000000  0.005507 0.735980 1 64 1.000000
lowpoly_plastic
0  -4.393985 4.722345 -6.787109  0.999983 -0.000094 -0.005761  0.032847 0.846916 1 64 1.000000
0  -4.393985 5.012684 -6.791934  0.999983 -0.000094 -0.005761  0.032848 0.846915 1 64 1.000000
0  -4.389374 5.012685 -5.991618  0.999983 -0.000094 -0.005761  0.032848 0.846916 1 64 1.000000
lowpoly_plastic
0  -3.467443 5.397524 -5.986793  0.628307 0.772147 -0.094966  0.005507 0.735980 1 64 1.000000
0  -3.382821 5.397524 -5.426932  0.628307 0.772147 -0.094966  0.005507 0.735980 1 64 1.000000
0  -3.142087 5.201635 -5.426932  0.628307 0.772147 -0.094966  0.005507 0.735980 1 64 1.000000
lowpoly_plastic
0  -3.263431 4.722346 -6.787109  0.999978 0.000000 0.006615  0.005509 0.735978 1 64 1.000000
0  -3.263431 5.201635 -6.787109  0.999978 0.000000 0.006615  0.005508 0.735980 1 64 1.000000
0  -3.268725 5.201635 -5.986793  0.999978 0.000000 0.006615  0.005508 0.735980 1 64 1.000000
lowpoly_plastic
0  -4.460456 4.722342 -4.944389  0.000000 -1.000000 0.000001  0.005507 0.735980 1 64 1.000000
0  -4.548221 4.722342 -4.944389  0.000000 -1.000000 0.000001  0.005507 0.735980 1 64 1.000000
0  -4.593251 4.722343 -5.426932  0.000000 -1.000000 0.000001  0.005505 0.735979 1 64 1.000000
lowpoly_metal
0  -4.338748 -7.785170 -4.956969  0.007599 -0.971159 0.238313  0.066489 0.282547 1 64 1.000000
0  -4.459126 -7.786112 -4.956969  0.007599 -0.971159 0.238313  0.066516 0.282547 1 64 1.000000
0  -4.491223 -7.836968 -5.163195  0.007599 -0.971159 0.238313  0.066516 0.282560 1 64 1.000000
lowpoly_metal
0  -3.276210 -7.878715 -5.369420  -0.000003 -0.970913 0.239431  0.066489 0.282547 1 64 1.000000
0  -3.244113 -7.827858 -5.163195  -0.000003 -0.970913 0.239431  0.066502 0.282547 1 64 1.000000
0  -3.296097 -7.777001 -4.956969  -0.000003 -0.970913 0.239431  0.066516 0.282547 1 64 1.000000
lowpoly_metal
0  -4.449968 5.123641 -5.369419  -0.969714 -0.000800 -0.244243  0.066516 0.282547 1 64 1.000000
0  -4.439239 -7.887824 -5.369420  -0.969714 -0.000800 -0.244243  0.066516 0.282573 1 64 1.000000
0  -4.491223 -7.836968 -5.163195  -0.969714 -0.000800 -0.244243  0.066502 0.282560 1 64 1.000000
lowpoly_plastic
0  -3.867669 5.012685 -6.791934  0.000000 0.016617 0.999862  0.032840 0.846924 1 64 1.000000
0  -3.867669 4.722346 -6.787109  0.000000 0.016617 0.999862  0.032840 0.846924 1 64 1.000000
0  -3.341354 4.722346 -6.787109  0.000000 0.016617 0.999862  0.032840 0.846924 1 64 1.000000
lowpoly_plastic
0  -3.300954 4.722346 -7.027423  0.989556 -0.005244 -0.144051  0.005509 0.735981 1 64 1.000000
0  -3.298638 5.159309 -7.027423  0.989556 -0.005244 -0.144051  0.005508 0.735982 1 64 1.000000
0  -3.263431 5.201635 -6.787109  0.989556 -0.005244 -0.144051  0.005508 0.735980 1 64 1.000000
lowpoly_plastic
0  -3.391377 4.722346 -7.606534  0.989750 -0.023334 -0.140893  0.005508 0.735983 1 64 1.000000
0  -3.383480 5.057312 -7.606534  0.989750 -0.023334 -0.140893  0.005508 0.735983 1 64 1.000000
0  -3.298638 5.159309 -7.027423  0.989750 -0.023334 -0.140893  0.005508 0.735982 1 64 1.000000
lowpoly_plastic
0  -3.341354 4.722346 -6.787109  0.000000 -1.000000 0.000000  0.005510 0.735978 1 64 1.000000
0  -3.495707 4.722346 -7.027423  0.000000 -1.000000 0.000000  0.005510 0.735981 1 64 1.000000
0  -3.300954 4.722346 -7.027423  0.000000 -1.000000 0.000000  0.005509 0.735981 1 64 1.000000
lowpoly_plastic
0  -3.609275 5.239869 -7.695935  0.000000 0.985285 -0.170918  0.005508 0.735983 1 64 1.000000
0  -3.867669 5.239869 -7.695935  0.000000 0.985285 -0.170918  0.005507 0.735983 1 64 1.000000
0  -3.867669 5.351288 -7.053642  0.000000 0.985285 -0.170918  0.005507 0.735982 1 64 1.000000
lowpoly_plastic
0  -4.393985 4.722345 -6.787109  0.000000 -1.000000 -0.000003  0.005504 0.735979 1 64 1.000000
0  -4.471908 4.722345 -6.787109  0.000000 -1.000000 -0.000003  0.005504 0.735979 1 64 1.000000
0  -4.434385 4.722345 -7.027423  0.000000 -1.000000 -0.000003  0.005505 0.735981 1 64 1.000000
lowpoly_plastic
0  -3.867669 5.397523 -6.787109  -0.000001 0.985286 -0.170916  0.005507 0.735981 1 64 1.000000
0  -3.867669 5.351288 -7.053642  -0.000001 0.985286 -0.170916  0.005507 0.735982 1 64 1.000000
0  -4.228800 5.351287 -7.053642  -0.000001 0.985286 -0.170916  0.005507 0.735982 1 64 1.000000
lowpoly_plastic
0  -4.351859 5.057311 -7.606534  -0.987760 -0.023285 -0.154231  0.005507 0.735983 1 64 1.000000
0  -4.343962 4.722346 -7.606534  -0.987760 -0.023285 -0.154231  0.005506 0.735984 1 64 1.000000
0  -4.434385 4.722345 -7.027423  -0.987760 -0.023285 -0.154231  0.005505 0.735981 1 64 1.000000
lowpoly_plastic
0  -3.383480 5.057312 -7.606534  0.665286 0.710393 -0.229646  0.005508 0.735983 1 64 1.000000
0  -3.609275 5.239869 -7.695935  0.665286 0.710393 -0.229646  0.005508 0.735983 1 64 1.000000
0  -3.506538 5.351288 -7.053642  0.665286 0.710393 -0.229646  0.005508 0.735982 1 64 1.000000
lowpoly_plastic
0  -4.351859 5.057311 -7.606534  -0.676385 0.702059 -0.222748  0.005507 0.735983 1 64 1.000000
0  -4.436701 5.159309 -7.027423  -0.676385 0.702059 -0.222748  0.005506 0.735982 1 64 1.000000
0  -4.228800 5.351287 -7.053642  -0.676385 0.702059 -0.222748  0.005507 0.735982 1 64 1.000000
lowpoly_plastic
0  -4.434385 4.722345 -7.027423  -0.988028 0.000000 -0.154272  0.005505 0.735981 1 64 1.000000
0  -4.343962 4.722346 -7.606534  -0.988028 0.000000 -0.154272  0.005506 0.735984 1 64 1.000000
0  -4.343962 4.617135 -7.606534  -0.988028 0.000000 -0.154272  0.005506 0.735984 1 64 1.000000
lowpoly_plastic
0  -3.495707 4.722346 -7.027423  0.000000 -0.774875 0.632114  0.005497 0.735985 1 64 1.000000
0  -3.867669 4.722346 -7.027423  0.000000 -0.774875 0.632114  0.005496 0.735986 1 64 1.000000
0  -3.867669 4.617135 -7.156395  0.000000 -0.774875 0.632114  0.005496 0.735986 1 64 1.000000
lowpoly_plastic
0  -4.177444 4.617135 -7.156395  -0.000000 -1.000000 -0.000003  0.005505 0.735981 1 64 1.000000
0  -4.419268 4.617135 -7.124244  -0.000000 -1.000000 -0.000003  0.005505 0.735981 1 64 1.000000
0  -4.343962 4.617135 -7.606534  -0.000000 -1.000000 -0.000003  0.005506 0.735984 1 64 1.000000
lowpoly_plastic
0  -3.557895 4.617135 -7.156395  0.000000 -1.000000 0.000000  0.005510 0.735981 1 64 1.000000
0  -3.867669 4.617135 -7.798839  0.000000 -1.000000 0.000000  0.005510 0.735984 1 64 1.000000
0  -3.391377 4.617135 -7.606534  0.000000 -1.000000 0.000000  0.005509 0.735983 1 64 1.000000
lowpoly_plastic
0  -4.126064 4.722346 -7.798839  0.000000 0.000000 -1.000000  0.005507 0.735984 1 64 1.000000
0  -3.867669 4.722346 -7.798839  0.000000 0.000000 -1.000000  0.005507 0.735984 1 64 1.000000
0  -3.867669 4.617135 -7.798839  0.000000 0.000000 -1.000000  0.005507 0.735984 1 64 1.000000
lowpoly_plastic
0  -3.300954 4.722346 -7.027423  0.000000 -0.774876 0.632114  0.005509 0.735981 1 64 1.000000
0  -3.495707 4.722346 -7.027423  0.000000 -0.774876 0.632114  0.005510 0.735981 1 64 1.000000
0  -3.557895 4.617135 -7.156395  0.000000 -0.774876 0.632114  0.005510 0.735981 1 64 1.000000
lowpoly_plastic
0  -3.867669 4.722346 -7.798839  0.000000 0.000000 -1.000000  0.005507 0.735984 1 64 1.000000
0  -3.609275 4.722346 -7.798839  0.000000 0.000000 -1.000000  0.005508 0.735984 1 64 1.000000
0  -3.609275 4.617135 -7.798839  0.000000 0.000000 -1.000000  0.005508 0.735984 1 64 1.000000
lowpoly_plastic
0  -3.391377 4.722346 -7.606534  0.988028 -0.000001 -0.154272  0.005508 0.735983 1 64 1.000000
0  -3.300954 4.722346 -7.027423  0.988028 -0.000001 -0.154272  0.005509 0.735981 1 64 1.000000
0  -3.316072 4.617135 -7.124244  0.988028 -0.000001 -0.154272  0.005509 0.735981 1 64 1.000000
lowpoly_metal
0  -4.492064 5.123641 -5.163193  -0.988102 -0.000064 0.153801  0.066516 0.282547 1 64 1.000000
0  -4.491223 -7.836968 -5.163195  -0.988102 -0.000064 0.153801  0.066502 0.282560 1 64 1.000000
0  -4.459126 -7.786112 -4.956969  -0.988102 -0.000064 0.153801  0.066489 0.282547 1 64 1.000000
end
