version 1
nodes
0 "blender_implicit" -1
1 "ValveBiped.Bip01_Spine4" -1
2 "ValveBiped.Bip01_L_Clavicle" 1
3 "ValveBiped.Bip01_L_UpperArm" 2
4 "ValveBiped.Bip01_L_Forearm" 3
5 "ValveBiped.Bip01_L_Hand" 4
6 "ValveBiped.Bip01_L_Finger4" 5
7 "ValveBiped.Bip01_L_Finger41" 6
8 "ValveBiped.Bip01_L_Finger42" 7
9 "ValveBiped.Bip01_L_Finger3" 5
10 "ValveBiped.Bip01_L_Finger31" 9
11 "ValveBiped.Bip01_L_Finger32" 10
12 "ValveBiped.Bip01_L_Finger2" 5
13 "ValveBiped.Bip01_L_Finger21" 12
14 "ValveBiped.Bip01_L_Finger22" 13
15 "ValveBiped.Bip01_L_Finger1" 5
16 "ValveBiped.Bip01_L_Finger11" 15
17 "ValveBiped.Bip01_L_Finger12" 16
18 "ValveBiped.Bip01_L_Finger0" 5
19 "ValveBiped.Bip01_L_Finger01" 18
20 "ValveBiped.Bip01_L_Finger02" 19
21 "ValveBiped.Bip01_L_Ulna" 4
22 "ValveBiped.Bip01_L_Wrist" 4
23 "rig_l_upperarm" 2
24 "rig_l_forearm" 23
25 "rig_d_l_forearm" 24
26 "rig_d_l_upperarm" 23
27 "ValveBiped.Bip01_R_Clavicle" 1
28 "ValveBiped.Bip01_R_UpperArm" 27
29 "ValveBiped.Bip01_R_Forearm" 28
30 "ValveBiped.Bip01_R_Hand" 29
31 "ValveBiped.Bip01_R_Finger4" 30
32 "ValveBiped.Bip01_R_Finger41" 31
33 "ValveBiped.Bip01_R_Finger42" 32
34 "ValveBiped.Bip01_R_Finger3" 30
35 "ValveBiped.Bip01_R_Finger31" 34
36 "ValveBiped.Bip01_R_Finger32" 35
37 "ValveBiped.Bip01_R_Finger2" 30
38 "ValveBiped.Bip01_R_Finger21" 37
39 "ValveBiped.Bip01_R_Finger22" 38
40 "ValveBiped.Bip01_R_Finger1" 30
41 "ValveBiped.Bip01_R_Finger11" 40
42 "ValveBiped.Bip01_R_Finger12" 41
43 "ValveBiped.Bip01_R_Finger0" 30
44 "ValveBiped.Bip01_R_Finger01" 43
45 "ValveBiped.Bip01_R_Finger02" 44
46 "ValveBiped.Bip01_R_Ulna" 29
47 "ValveBiped.Bip01_R_Wrist" 29
48 "rig_r_upperarm" 27
49 "rig_r_forearm" 48
50 "rig_d_r_forearm" 49
51 "rig_d_r_upperarm" 48
52 "rig_r_hand" -1
53 "rig_d_r_hand" 52
54 "rig_d_r_wrist" 53
55 "rig_l_hand" -1
56 "rig_d_l_hand" 55
57 "rig_d_l_wrist" 55
58 "rig_l_pole" -1
59 "rig_r_pole" -1
60 "rig_l_clavicle" -1
61 "rig_d_l_clavicle" 60
62 "rig_r_clavicle" -1
63 "rig_d_r_clavicle" 62
64 "Camera" -1
65 "body" -1
66 "trigger" 65
67 "boltprot" 65
68 "bolt" 67
69 "hammer" 67
70 "magrel" 65
71 "mag" -1
72 "round1" 71
73 "round2" 71
74 "round3" 71
end
skeleton
time 0
0  0 0 0  0 0 0
1  0.000006 0.000000 0.000000  -1.570800 -1.391899 -1.570792
2  -8.138873 1.780375 1.937664  -1.544956 -1.855077 -0.198630
3  6.027523 -0.000328 0.000192  -0.574363 -1.344224 -1.547204
4  11.692110 0.000644 -0.000739  -1.471379 -0.000006 -1.201783
5  11.480195 0.000696 -0.000395  1.106931 -0.922351 0.381887
6  3.571336 -0.073053 -1.193380  -0.630908 0.056337 -1.699771
7  1.312589 0.000013 0.000008  -0.000395 0.000880 -0.663191
8  0.729355 0.000052 0.000050  -0.000172 0.000021 -0.220360
9  3.942142 0.046273 -0.431511  -0.413547 0.112709 -1.516154
10  1.539110 0.000086 0.000006  -0.001056 0.003240 -0.572825
11  1.196333 0.000145 0.000030  -0.000216 0.000008 -0.647849
12  3.883503 -0.047269 0.431382  -0.386032 0.372160 -1.001174
13  1.719573 -0.000027 0.000014  0.029635 0.017714 -0.994916
14  1.209179 0.000092 0.000012  -0.001849 0.000829 -0.701987
15  3.859661 -0.138476 1.332410  -0.061682 0.488092 -0.444155
16  1.719448 -0.000011 0.000022  -0.017508 -0.024177 -0.574397
17  1.099675 0.000047 0.000003  0.000693 0.002640 -1.571702
18  0.945841 -0.861836 1.304576  -1.769690 -0.354327 -0.275173
19  1.789821 -0.000003 -0.000016  0.008665 0.005630 -0.065006
20  1.207016 -0.000012 -0.000045  0.000321 -0.000553 0.304742
21  5.740637 0.000410 -0.000704  -0.133944 0.000003 0.000071
22  11.481045 0.000351 -0.000735  -0.045069 -0.173220 0.018603
23  6.027523 -0.000330 0.000203  1.541499 -0.224786 1.725175
24  0.000002 11.692098 -0.000007  -0.848899 -0.320713 -0.687316
25  0.000003 0.000008 -0.000001  -0.602294 -0.000031 1.570739
26  -0.000000 -0.000012 -0.000001  0.868957 0.000002 1.570712
27  -5.843360 -7.961716 2.089273  1.473120 1.855075 -0.198639
28  6.027507 -0.000261 -0.000230  1.668884 0.562705 -0.464311
29  11.691992 0.000243 0.000856  0.141450 0.000081 -1.966746
30  11.478214 -0.001498 0.001044  -0.982522 0.050533 0.808482
31  3.859436 -0.132788 1.193061  0.419753 0.064213 -1.630733
32  1.312559 0.000026 -0.000001  0.018649 -0.111950 -0.566450
33  0.729345 0.000066 -0.000028  -0.136092 -0.130379 -0.745071
34  3.942046 0.050108 0.430996  0.227728 0.017433 -1.395883
35  1.539096 0.000004 0.000000  0.033374 -0.057010 -0.978694
36  1.196299 0.000076 -0.000004  -0.008681 -0.024216 -0.882959
37  3.883411 -0.050502 -0.431088  0.220900 -0.070369 -1.119647
38  1.719564 -0.000081 -0.000004  0.013025 -0.077950 -1.452999
39  1.209196 0.000036 0.000012  0.008192 -0.000795 -0.494142
40  3.859585 -0.149112 -1.331324  -0.144133 0.068146 -0.137838
41  1.719411 -0.000098 -0.000034  -0.015109 -0.000174 -1.071001
42  1.099673 0.000024 0.000007  -0.004386 -0.008133 -0.862854
43  0.805978 -0.359854 -1.318339  0.974252 0.268925 -0.894612
44  1.789780 -0.000007 -0.000042  0.001484 -0.011936 0.235362
45  1.206997 -0.000005 0.000005  0.001538 -0.000068 1.118076
46  5.740571 0.000055 0.000722  0.195045 -0.000014 0.000021
47  11.480587 -0.000265 0.000958  0.114956 0.030906 0.139820
48  6.027514 -0.000274 -0.000237  -0.653776 -0.500930 -1.682617
49  -0.000002 11.691976 -0.000007  -1.304926 0.752133 0.953918
50  0.000003 -0.000001 0.000000  2.413975 -0.000041 1.570856
51  -0.000007 -0.000015 0.000004  2.272644 -0.000030 1.570865
52  -4.432935 -3.967476 -6.567115  3.040857 -0.056814 -1.459335
53  -0.000000 0.000000 0.000000  0.008153 -0.000259 0.000009
54  -0.000000 -0.000000 -0.000000  1.565115 0.043565 -0.106862
55  -0.540127 -17.034161 -5.745320  -0.969854 0.142018 -1.903529
56  0.000000 -0.000000 -0.000000  0.000000 -0.000000 -0.000002
57  0.000030 0.000029 0.000000  -1.571901 -0.044449 -0.106509
58  8.426761 -19.544212 -16.568478  1.570796 -0.000000 0.000000
59  -15.417985 2.938832 -17.970421  1.570796 -0.000000 0.000000
60  1.941978 -0.304065 -8.327020  1.570796 -0.000000 0.000000
61  -0.004311 0.001229 -0.000371  0.006898 -0.005534 -0.284229
62  2.089273 8.874444 -4.333363  1.570796 -0.000000 0.000000
63  0.000000 0.000000 0.000000  -0.078727 -3.136056 0.284226
64  0.000000 0.000000 0.000000  1.570796 -0.000000 0.000000
65  -2.320994 -10.436199 -1.933373  1.571103 0.041360 0.006551
66  0.000002 -2.923558 -1.408042  0.000000 -0.000000 -0.000000
67  -0.000002 -0.601197 -2.062165  0.000000 -0.000000 -0.000000
68  0.004380 -0.039406 6.613115  0.000000 -0.000000 -0.000000
69  0.000970 -0.021792 0.054851  -0.000000 -0.000000 -0.000000
70  0.000002 -3.304880 0.259167  0.000000 -0.000000 -0.000000
71  -2.342128 -15.173188 -3.193902  1.571103 0.041360 0.006551
72  0.057100 0.204433 -2.709597  0.000000 -0.000000 -0.000000
73  0.111673 -0.283002 -2.709596  0.000000 -0.000000 -0.000000
74  -0.128217 -0.750370 -2.709597  0.000000 0.000000 -0.000000
time 1
0  0 0 0  0 0 0
1  0.000006 0.000000 0.000000  -1.570800 -1.391899 -1.570792
2  -8.138873 1.780375 1.937664  -1.544956 -1.855077 -0.198630
3  6.027523 -0.000327 0.000192  -0.503530 -1.349846 -1.606767
4  11.692112 0.000643 -0.000740  -1.471378 -0.000005 -1.182659
5  11.480293 0.000702 -0.000345  1.088425 -0.900634 0.354722
6  3.571340 -0.073052 -1.193381  -0.630908 0.056337 -1.699771
7  1.312591 0.000013 0.000008  -0.000395 0.000880 -0.663191
8  0.729353 0.000054 0.000049  -0.000172 0.000021 -0.220360
9  3.942142 0.046273 -0.431513  -0.413547 0.112709 -1.516154
10  1.539109 0.000083 0.000006  -0.001056 0.003239 -0.572825
11  1.196331 0.000144 0.000028  -0.000216 0.000008 -0.647849
12  3.883503 -0.047269 0.431380  -0.386032 0.372160 -1.001174
13  1.719573 -0.000028 0.000014  0.029635 0.017714 -0.994916
14  1.209178 0.000092 0.000012  -0.001849 0.000829 -0.701988
15  3.859662 -0.138475 1.332409  -0.061682 0.488092 -0.444155
16  1.719449 -0.000013 0.000023  -0.017508 -0.024177 -0.574397
17  1.099675 0.000049 0.000004  0.000693 0.002640 -1.571702
18  0.945843 -0.861835 1.304575  -1.769690 -0.354327 -0.275173
19  1.789822 -0.000003 -0.000019  0.008665 0.005630 -0.065006
20  1.207013 -0.000012 -0.000045  0.000321 -0.000553 0.304742
21  5.740637 0.000411 -0.000704  -0.138947 0.000003 0.000071
22  11.481064 0.000353 -0.000728  -0.051444 -0.168937 0.013216
23  6.027523 -0.000330 0.000203  1.526574 -0.216634 1.737948
24  0.000002 11.692100 -0.000008  -0.836980 -0.311495 -0.678674
25  0.000005 0.000009 -0.000002  -0.602294 -0.000030 1.570739
26  -0.000000 -0.000012 -0.000001  0.868957 0.000002 1.570712
27  -5.843360 -7.961716 2.089273  1.473120 1.855075 -0.198639
28  6.027507 -0.000261 -0.000229  1.682130 0.556677 -0.462296
29  11.691993 0.000241 0.000855  0.141450 0.000080 -1.964295
30  11.478236 -0.001488 0.001043  -1.020651 0.042584 0.802490
31  3.859436 -0.132788 1.193062  0.419753 0.064213 -1.630733
32  1.312558 0.000024 -0.000000  0.018649 -0.111950 -0.566450
33  0.729346 0.000065 -0.000027  -0.136092 -0.130379 -0.745071
34  3.942046 0.050109 0.430997  0.227728 0.017433 -1.395883
35  1.539096 0.000004 -0.000000  0.033374 -0.057010 -0.978694
36  1.196299 0.000076 -0.000004  -0.008681 -0.024216 -0.882959
37  3.883412 -0.050502 -0.431087  0.220900 -0.070369 -1.119647
38  1.719564 -0.000081 -0.000004  0.013025 -0.077950 -1.452999
39  1.209197 0.000035 0.000010  0.008192 -0.000795 -0.494142
40  3.859586 -0.149112 -1.331323  -0.144133 0.068146 -0.137838
41  1.719412 -0.000098 -0.000034  -0.015109 -0.000174 -1.071001
42  1.099673 0.000025 0.000007  -0.004386 -0.008133 -0.862854
43  0.805979 -0.359853 -1.318338  0.974252 0.268925 -0.894612
44  1.789780 -0.000007 -0.000042  0.001484 -0.011936 0.235362
45  1.206996 -0.000005 0.000005  0.001538 -0.000068 1.118076
46  5.740572 0.000055 0.000725  0.187216 -0.000014 0.000021
47  11.480593 -0.000262 0.000958  0.108370 0.026358 0.139858
48  6.027514 -0.000274 -0.000237  -0.642992 -0.492418 -1.692774
49  -0.000002 11.691975 -0.000009  -1.303444 0.750607 0.953347
50  0.000003 -0.000003 0.000000  2.413975 -0.000041 1.570856
51  -0.000006 -0.000015 0.000005  2.272644 -0.000030 1.570865
52  -4.601629 -3.981856 -6.531103  3.006433 -0.059181 -1.463693
53  0.000000 -0.000000 -0.000000  0.008153 -0.000259 0.000009
54  0.000000 0.000000 -0.000000  1.565115 0.043565 -0.106862
55  -0.764908 -17.068239 -5.760566  -1.000085 0.125022 -1.913908
56  0.000001 -0.000000 0.000000  0.000000 -0.000000 -0.000002
57  0.000031 0.000029 0.000001  -1.571901 -0.044449 -0.106509
58  8.426761 -19.544212 -16.568478  1.570796 -0.000000 0.000000
59  -15.417985 2.938832 -17.970421  1.570796 -0.000000 0.000000
60  1.941978 -0.304065 -8.327020  1.570796 -0.000000 0.000000
61  -0.004311 0.001229 -0.000371  0.006898 -0.005534 -0.284229
62  2.089273 8.874444 -4.333363  1.570796 -0.000000 0.000000
63  0.000000 0.000000 0.000000  -0.078727 -3.136056 0.284226
64  0.000000 0.000000 0.000000  1.570349 0.001242 -0.004008
65  -2.374211 -10.436199 -1.931504  1.565102 0.075282 -0.000152
66  0.000002 -2.923558 -1.408042  0.000000 -0.000000 0.000000
67  -0.000002 -0.601198 -2.062164  0.000000 -0.000000 0.000000
68  0.004381 -0.039406 6.613116  0.000000 -0.000000 0.000000
69  0.000970 -0.021791 0.054851  0.000000 -0.000000 0.000000
70  0.000002 -3.304881 0.259169  0.000000 -0.000000 0.000000
71  -2.467680 -15.180420 -3.161168  1.565102 0.075282 -0.000152
72  0.057100 0.204433 -2.709597  0.000000 -0.000000 0.000000
73  0.111673 -0.283001 -2.709597  0.000000 -0.000000 0.000000
74  -0.128217 -0.750370 -2.709597  0.000000 0.000000 0.000000
time 2
0  0 0 0  0 0 0
1  0.000006 0.000000 0.000000  -1.570800 -1.391899 -1.570792
2  -8.138873 1.780375 1.937664  -1.544956 -1.855077 -0.198630
3  6.027523 -0.000327 0.000192  -0.448669 -1.356416 -1.664061
4  11.692111 0.000642 -0.000741  -1.471377 -0.000005 -1.163626
5  11.480399 0.000706 -0.000291  1.108483 -0.882024 0.346717
6  3.571339 -0.073053 -1.193382  -0.630908 0.056336 -1.699771
7  1.312591 0.000012 0.000008  -0.000395 0.000880 -0.663191
8  0.729355 0.000054 0.000048  -0.000172 0.000021 -0.220360
9  3.942142 0.046272 -0.431513  -0.413547 0.112709 -1.516154
10  1.539110 0.000084 0.000005  -0.001056 0.003240 -0.572825
11  1.196333 0.000145 0.000028  -0.000216 0.000008 -0.647849
12  3.883504 -0.047270 0.431380  -0.386032 0.372160 -1.001174
13  1.719572 -0.000029 0.000015  0.029635 0.017714 -0.994916
14  1.209177 0.000092 0.000012  -0.001849 0.000829 -0.701987
15  3.859662 -0.138475 1.332409  -0.061682 0.488092 -0.444155
16  1.719448 -0.000011 0.000021  -0.017509 -0.024177 -0.574397
17  1.099675 0.000047 0.000004  0.000693 0.002640 -1.571702
18  0.945842 -0.861836 1.304574  -1.769690 -0.354327 -0.275173
19  1.789820 -0.000003 -0.000019  0.008665 0.005630 -0.065006
20  1.207017 -0.000012 -0.000044  0.000321 -0.000553 0.304742
21  5.740637 0.000410 -0.000702  -0.133901 0.000003 0.000071
22  11.481085 0.000353 -0.000717  -0.049657 -0.164796 0.014493
23  6.027523 -0.000330 0.000203  1.516317 -0.207529 1.736381
24  0.000001 11.692099 -0.000008  -0.825069 -0.302420 -0.669986
25  0.000004 0.000009 -0.000001  -0.602294 -0.000030 1.570739
26  -0.000001 -0.000011 -0.000001  0.868957 0.000002 1.570712
27  -5.843360 -7.961716 2.089273  1.473120 1.855075 -0.198639
28  6.027507 -0.000261 -0.000229  1.671220 0.556967 -0.464439
29  11.691991 0.000241 0.000856  0.141450 0.000080 -1.960494
30  11.478266 -0.001472 0.001041  -1.014555 0.069837 0.794305
31  3.859436 -0.132788 1.193063  0.419753 0.064213 -1.630733
32  1.312558 0.000026 -0.000000  0.018649 -0.111950 -0.566450
33  0.729344 0.000066 -0.000028  -0.136092 -0.130379 -0.745071
34  3.942046 0.050109 0.430998  0.227728 0.017433 -1.395883
35  1.539097 0.000004 0.000000  0.033374 -0.057010 -0.978694
36  1.196300 0.000077 -0.000004  -0.008681 -0.024216 -0.882959
37  3.883412 -0.050502 -0.431086  0.220900 -0.070369 -1.119647
38  1.719563 -0.000082 -0.000004  0.013025 -0.077950 -1.452999
39  1.209196 0.000036 0.000011  0.008192 -0.000795 -0.494142
40  3.859585 -0.149111 -1.331323  -0.144133 0.068146 -0.137838
41  1.719412 -0.000097 -0.000034  -0.015109 -0.000174 -1.071001
42  1.099673 0.000026 0.000006  -0.004386 -0.008133 -0.862854
43  0.805978 -0.359853 -1.318337  0.974252 0.268925 -0.894612
44  1.789779 -0.000009 -0.000042  0.001484 -0.011936 0.235362
45  1.206996 -0.000005 0.000005  0.001538 -0.000068 1.118076
46  5.740571 0.000056 0.000723  0.185543 -0.000014 0.000021
47  11.480596 -0.000257 0.000958  0.107510 0.031525 0.136903
48  6.027514 -0.000274 -0.000237  -0.646858 -0.501039 -1.687309
49  -0.000002 11.691975 -0.000007  -1.301147 0.748241 0.952458
50  0.000003 -0.000001 -0.000001  2.413975 -0.000041 1.570856
51  -0.000007 -0.000015 0.000006  2.272644 -0.000030 1.570865
52  -4.535512 -4.018793 -6.630305  3.011755 -0.073120 -1.475567
53  -0.000000 -0.000000 0.000000  0.008153 -0.000259 0.000009
54  0.000000 0.000000 0.000001  1.565115 0.043565 -0.106862
55  -0.855579 -17.136875 -5.659936  -0.989168 0.114773 -1.924124
56  -0.000000 -0.000001 0.000000  0.000000 -0.000000 -0.000002
57  0.000029 0.000028 0.000000  -1.571902 -0.044449 -0.106509
58  8.426761 -19.544212 -16.568478  1.570796 -0.000000 0.000000
59  -15.417985 2.938832 -17.970421  1.570796 -0.000000 0.000000
60  1.941978 -0.304065 -8.327020  1.570796 -0.000000 0.000000
61  -0.004311 0.001229 -0.000371  0.006898 -0.005534 -0.284229
62  2.089273 8.874444 -4.333363  1.570796 -0.000000 0.000000
63  0.000000 0.000000 0.000000  -0.078727 -3.136056 0.284226
64  0.000000 0.000000 0.000000  1.569503 0.003697 -0.011454
65  -2.413360 -10.436199 -1.930349  1.551778 0.068506 -0.012631
66  0.000002 -2.923558 -1.408041  -0.000000 -0.000000 -0.000000
67  -0.000002 -0.601197 -2.062164  -0.000000 -0.000000 -0.000000
68  0.004381 -0.039406 6.613117  -0.000000 -0.000000 -0.000000
69  0.000970 -0.021792 0.054852  -0.000000 -0.000000 -0.000000
70  0.000002 -3.304880 0.259169  -0.000000 -0.000000 -0.000000
71  -2.553557 -15.195052 -3.097445  1.551778 0.068506 -0.012631
72  0.057100 0.204433 -2.709597  -0.000000 -0.000000 -0.000000
73  0.111673 -0.283001 -2.709597  -0.000000 -0.000000 -0.000000
74  -0.128217 -0.750370 -2.709598  -0.000000 0.000000 -0.000000
time 3
0  0 0 0  0 0 0
1  0.000006 0.000000 0.000000  -1.570800 -1.391899 -1.570792
2  -8.138873 1.780375 1.937664  -1.544956 -1.855077 -0.198630
3  6.027523 -0.000327 0.000192  -0.434344 -1.361026 -1.689543
4  11.692112 0.000643 -0.000741  -1.471376 -0.000004 -1.154521
5  11.480453 0.000709 -0.000266  1.148787 -0.877287 0.351844
6  3.571340 -0.073052 -1.193380  -0.630908 0.056337 -1.699771
7  1.312590 0.000013 0.000007  -0.000395 0.000880 -0.663191
8  0.729355 0.000053 0.000050  -0.000172 0.000021 -0.220360
9  3.942140 0.046273 -0.431512  -0.413547 0.112709 -1.516154
10  1.539111 0.000084 0.000006  -0.001056 0.003240 -0.572825
11  1.196332 0.000144 0.000029  -0.000216 0.000008 -0.647849
12  3.883503 -0.047268 0.431382  -0.386032 0.372160 -1.001174
13  1.719573 -0.000028 0.000015  0.029635 0.017714 -0.994916
14  1.209178 0.000092 0.000012  -0.001849 0.000829 -0.701988
15  3.859662 -0.138474 1.332410  -0.061682 0.488092 -0.444155
16  1.719449 -0.000010 0.000020  -0.017508 -0.024177 -0.574397
17  1.099675 0.000050 0.000006  0.000693 0.002640 -1.571702
18  0.945844 -0.861835 1.304576  -1.769690 -0.354327 -0.275173
19  1.789820 -0.000003 -0.000018  0.008665 0.005630 -0.065006
20  1.207016 -0.000012 -0.000044  0.000321 -0.000553 0.304742
21  5.740637 0.000410 -0.000703  -0.124440 0.000003 0.000070
22  11.481097 0.000354 -0.000711  -0.042659 -0.163105 0.019129
23  6.027523 -0.000330 0.000203  1.514583 -0.202289 1.725255
24  -0.000000 11.692100 -0.000007  -0.819355 -0.298114 -0.665798
25  0.000004 0.000008 -0.000002  -0.602294 -0.000031 1.570739
26  -0.000002 -0.000011 -0.000001  0.868957 0.000002 1.570712
27  -5.843360 -7.961716 2.089273  1.473120 1.855075 -0.198639
28  6.027507 -0.000261 -0.000230  1.650776 0.560766 -0.468188
29  11.691991 0.000243 0.000856  0.141450 0.000080 -1.955309
30  11.478315 -0.001453 0.001038  -0.982320 0.104352 0.783306
31  3.859436 -0.132788 1.193062  0.419753 0.064213 -1.630733
32  1.312559 0.000025 -0.000000  0.018650 -0.111950 -0.566450
33  0.729345 0.000066 -0.000028  -0.136092 -0.130379 -0.745071
34  3.942046 0.050108 0.430997  0.227728 0.017433 -1.395883
35  1.539096 0.000003 -0.000000  0.033374 -0.057010 -0.978694
36  1.196299 0.000076 -0.000004  -0.008681 -0.024216 -0.882959
37  3.883412 -0.050502 -0.431087  0.220900 -0.070369 -1.119647
38  1.719564 -0.000082 -0.000004  0.013025 -0.077950 -1.452999
39  1.209197 0.000034 0.000012  0.008192 -0.000795 -0.494142
40  3.859585 -0.149112 -1.331324  -0.144133 0.068146 -0.137838
41  1.719410 -0.000098 -0.000034  -0.015109 -0.000174 -1.071001
42  1.099673 0.000024 0.000007  -0.004386 -0.008133 -0.862854
43  0.805979 -0.359854 -1.318339  0.974252 0.268925 -0.894612
44  1.789779 -0.000008 -0.000042  0.001484 -0.011936 0.235362
45  1.206996 -0.000005 0.000005  0.001538 -0.000068 1.118076
46  5.740572 0.000056 0.000723  0.188034 -0.000014 0.000021
47  11.480608 -0.000255 0.000957  0.111083 0.039746 0.132292
48  6.027514 -0.000274 -0.000237  -0.657851 -0.515962 -1.674865
49  -0.000001 11.691974 -0.000007  -1.298017 0.745015 0.951236
50  0.000003 -0.000000 0.000000  2.413975 -0.000041 1.570856
51  -0.000007 -0.000016 0.000004  2.272644 -0.000030 1.570865
52  -4.370842 -4.070651 -6.779013  3.041575 -0.089202 -1.483741
53  0.000000 0.000000 0.000000  0.008153 -0.000259 0.000009
54  -0.000000 -0.000000 0.000000  1.565115 0.043565 -0.106862
55  -0.801046 -17.194775 -5.521396  -0.955198 0.113066 -1.926018
56  0.000001 0.000000 -0.000000  0.000000 -0.000000 -0.000002
57  0.000028 0.000029 0.000001  -1.571901 -0.044449 -0.106509
58  8.426761 -19.544212 -16.568478  1.570796 -0.000000 0.000000
59  -15.417985 2.938832 -17.970421  1.570796 -0.000000 0.000000
60  1.941978 -0.304065 -8.327020  1.570796 -0.000000 0.000000
61  -0.004311 0.001229 -0.000371  0.006898 -0.005534 -0.284229
62  2.089273 8.874444 -4.333363  1.570796 -0.000000 0.000000
63  0.000000 0.000000 0.000000  -0.078727 -3.136056 0.284226
64  0.000000 0.000000 0.000000  1.569036 0.005474 -0.015465
65  -2.433786 -10.436199 -1.930936  1.538946 0.037236 -0.019066
66  0.000002 -2.923558 -1.408040  0.000000 -0.000000 0.000000
67  -0.000002 -0.601198 -2.062164  0.000000 -0.000000 0.000000
68  0.004381 -0.039407 6.613116  0.000000 -0.000000 0.000000
69  0.000971 -0.021792 0.054850  0.000000 -0.000000 -0.000000
70  0.000002 -3.304881 0.259170  0.000000 -0.000000 0.000000
71  -2.566083 -15.209410 -3.038829  1.538946 0.037236 -0.019066
72  0.057100 0.204433 -2.709597  0.000000 -0.000000 0.000000
73  0.111673 -0.283001 -2.709596  0.000000 -0.000000 0.000000
74  -0.128217 -0.750370 -2.709597  0.000000 0.000000 0.000000
time 4
0  0 0 0  0 0 0
1  0.000006 0.000000 0.000000  -1.570800 -1.391899 -1.570792
2  -8.138873 1.780375 1.937664  -1.544956 -1.855077 -0.198630
3  6.027523 -0.000327 0.000192  -0.493588 -1.360375 -1.647971
4  11.692110 0.000644 -0.000739  -1.471377 -0.000005 -1.166538
5  11.480383 0.000705 -0.000300  1.196244 -0.899858 0.364997
6  3.571340 -0.073053 -1.193381  -0.630908 0.056337 -1.699771
7  1.312590 0.000015 0.000010  -0.000395 0.000880 -0.663191
8  0.729355 0.000054 0.000050  -0.000172 0.000021 -0.220360
9  3.942146 0.046273 -0.431512  -0.413547 0.112709 -1.516154
10  1.539111 0.000086 0.000006  -0.001056 0.003239 -0.572825
11  1.196334 0.000144 0.000031  -0.000216 0.000008 -0.647849
12  3.883507 -0.047269 0.431382  -0.386032 0.372160 -1.001174
13  1.719574 -0.000027 0.000016  0.029635 0.017714 -0.994916
14  1.209180 0.000092 0.000013  -0.001849 0.000829 -0.701988
15  3.859664 -0.138476 1.332411  -0.061682 0.488092 -0.444155
16  1.719449 -0.000012 0.000021  -0.017509 -0.024177 -0.574397
17  1.099674 0.000048 0.000005  0.000693 0.002640 -1.571702
18  0.945846 -0.861836 1.304576  -1.769690 -0.354327 -0.275173
19  1.789822 -0.000003 -0.000019  0.008665 0.005630 -0.065006
20  1.207017 -0.000012 -0.000043  0.000321 -0.000553 0.304742
21  5.740637 0.000410 -0.000702  -0.115253 0.000003 0.000071
22  11.481081 0.000352 -0.000718  -0.032374 -0.166543 0.024568
23  6.027523 -0.000330 0.000203  1.526668 -0.205893 1.706436
24  0.000002 11.692100 -0.000007  -0.826895 -0.303802 -0.671321
25  0.000003 0.000008 -0.000002  -0.602294 -0.000031 1.570739
26  -0.000001 -0.000011 -0.000000  0.868957 0.000002 1.570712
27  -5.843360 -7.961716 2.089273  1.473120 1.855075 -0.198639
28  6.027507 -0.000261 -0.000230  1.633531 0.564922 -0.471406
29  11.691992 0.000242 0.000856  0.141450 0.000079 -1.949780
30  11.478361 -0.001432 0.001035  -0.937359 0.119803 0.767415
31  3.859436 -0.132788 1.193062  0.419753 0.064213 -1.630733
32  1.312558 0.000025 -0.000002  0.018650 -0.111950 -0.566450
33  0.729345 0.000066 -0.000027  -0.136092 -0.130379 -0.745071
34  3.942046 0.050109 0.430997  0.227728 0.017433 -1.395883
35  1.539096 0.000004 0.000000  0.033374 -0.057010 -0.978694
36  1.196299 0.000076 -0.000004  -0.008681 -0.024216 -0.882959
37  3.883412 -0.050502 -0.431087  0.220900 -0.070369 -1.119647
38  1.719563 -0.000082 -0.000003  0.013025 -0.077950 -1.452999
39  1.209197 0.000035 0.000012  0.008192 -0.000795 -0.494142
40  3.859585 -0.149112 -1.331323  -0.144133 0.068146 -0.137838
41  1.719412 -0.000097 -0.000034  -0.015109 -0.000174 -1.071001
42  1.099674 0.000025 0.000007  -0.004386 -0.008133 -0.862854
43  0.805979 -0.359854 -1.318337  0.974252 0.268925 -0.894612
44  1.789779 -0.000009 -0.000042  0.001484 -0.011936 0.235362
45  1.206997 -0.000005 0.000005  0.001538 -0.000068 1.118076
46  5.740570 0.000056 0.000724  0.193468 -0.000014 0.000021
47  11.480614 -0.000250 0.000957  0.118578 0.044982 0.127116
48  6.027514 -0.000274 -0.000237  -0.668423 -0.528044 -1.663610
49  0.000000 11.691974 -0.000007  -1.294683 0.741579 0.949922
50  0.000003 -0.000000 0.000000  2.413975 -0.000041 1.570856
51  -0.000007 -0.000016 0.000005  2.272644 -0.000030 1.570865
52  -4.228277 -4.122762 -6.902649  3.084283 -0.099201 -1.475878
53  -0.000000 0.000000 -0.000000  0.008153 -0.000259 0.000009
54  0.000000 -0.000000 0.000001  1.565115 0.043565 -0.106862
55  -0.562369 -17.195515 -5.408699  -0.912153 0.122036 -1.909088
56  0.000000 -0.000000 -0.000001  0.000000 -0.000000 -0.000002
57  0.000031 0.000029 0.000001  -1.571901 -0.044449 -0.106509
58  8.426761 -19.544212 -16.568478  1.570796 -0.000000 0.000000
59  -15.417985 2.938832 -17.970421  1.570796 -0.000000 0.000000
60  1.941978 -0.304065 -8.327020  1.570796 -0.000000 0.000000
61  -0.004311 0.001229 -0.000371  0.006898 -0.005534 -0.284229
62  2.089273 8.874444 -4.333363  1.570796 -0.000000 0.000000
63  0.000000 0.000000 0.000000  -0.078727 -3.136056 0.284226
64  0.000000 0.000000 0.000000  1.570864 0.006112 -0.012442
65  -2.428209 -10.436199 -1.935105  1.533423 -0.006092 -0.007270
66  0.000001 -2.923558 -1.408042  -0.000000 0.000000 -0.000000
67  -0.000002 -0.601198 -2.062164  -0.000000 0.000000 -0.000000
68  0.004380 -0.039407 6.613116  -0.000000 0.000000 -0.000000
69  0.000970 -0.021792 0.054851  -0.000000 0.000000 -0.000000
70  0.000002 -3.304881 0.259169  -0.000000 0.000000 -0.000000
71  -2.456376 -15.217035 -3.017355  1.533423 -0.006092 -0.007270
72  0.057099 0.204433 -2.709597  -0.000000 -0.000000 -0.000000
73  0.111673 -0.283002 -2.709596  -0.000000 -0.000000 -0.000000
74  -0.128218 -0.750370 -2.709596  -0.000000 0.000000 -0.000000
time 5
0  0 0 0  0 0 0
1  0.000006 0.000000 0.000000  -1.570800 -1.391899 -1.570792
2  -8.138873 1.780375 1.937664  -1.544956 -1.855077 -0.198630
3  6.027523 -0.000328 0.000192  -0.641708 -1.346323 -1.517594
4  11.692112 0.000645 -0.000740  -1.471379 -0.000007 -1.211199
5  11.480149 0.000692 -0.000415  1.220433 -0.959178 0.398653
6  3.571341 -0.073053 -1.193381  -0.630908 0.056336 -1.699771
7  1.312589 0.000010 0.000008  -0.000395 0.000880 -0.663191
8  0.729355 0.000054 0.000048  -0.000172 0.000021 -0.220360
9  3.942145 0.046273 -0.431511  -0.413547 0.112709 -1.516154
10  1.539109 0.000085 0.000004  -0.001056 0.003239 -0.572825
11  1.196333 0.000147 0.000028  -0.000216 0.000008 -0.647849
12  3.883503 -0.047269 0.431381  -0.386032 0.372160 -1.001174
13  1.719573 -0.000028 0.000015  0.029635 0.017714 -0.994916
14  1.209180 0.000092 0.000010  -0.001849 0.000829 -0.701988
15  3.859664 -0.138475 1.332410  -0.061682 0.488092 -0.444155
16  1.719448 -0.000012 0.000023  -0.017508 -0.024177 -0.574397
17  1.099675 0.000053 0.000003  0.000693 0.002640 -1.571702
18  0.945845 -0.861836 1.304576  -1.769690 -0.354327 -0.275173
19  1.789819 -0.000003 -0.000018  0.008665 0.005630 -0.065006
20  1.207017 -0.000012 -0.000044  0.000321 -0.000553 0.304742
21  5.740636 0.000411 -0.000704  -0.111865 0.000003 0.000071
22  11.481035 0.000349 -0.000742  -0.022524 -0.177758 0.030109
23  6.027523 -0.000330 0.000203  1.557078 -0.224144 1.685676
24  0.000002 11.692099 -0.000008  -0.854750 -0.325287 -0.691538
25  0.000003 0.000009 -0.000000  -0.602294 -0.000030 1.570739
26  -0.000001 -0.000012 -0.000001  0.868957 0.000002 1.570712
27  -5.843360 -7.961716 2.089273  1.473120 1.855075 -0.198639
28  6.027507 -0.000261 -0.000230  1.629781 0.567736 -0.472007
29  11.691991 0.000244 0.000856  0.141450 0.000080 -1.952670
30  11.478338 -0.001443 0.001037  -0.886918 0.095316 0.764185
31  3.859436 -0.132787 1.193061  0.419753 0.064213 -1.630733
32  1.312559 0.000025 -0.000001  0.018650 -0.111950 -0.566450
33  0.729345 0.000067 -0.000026  -0.136092 -0.130379 -0.745071
34  3.942046 0.050109 0.430996  0.227728 0.017433 -1.395883
35  1.539096 0.000005 -0.000000  0.033374 -0.057010 -0.978694
36  1.196300 0.000076 -0.000003  -0.008681 -0.024216 -0.882959
37  3.883411 -0.050502 -0.431087  0.220900 -0.070369 -1.119647
38  1.719563 -0.000081 -0.000004  0.013025 -0.077950 -1.452999
39  1.209197 0.000035 0.000012  0.008192 -0.000795 -0.494142
40  3.859585 -0.149111 -1.331324  -0.144133 0.068146 -0.137838
41  1.719413 -0.000097 -0.000035  -0.015109 -0.000174 -1.071001
42  1.099674 0.000025 0.000007  -0.004386 -0.008133 -0.862854
43  0.805979 -0.359853 -1.318339  0.974252 0.268925 -0.894612
44  1.789779 -0.000007 -0.000042  0.001484 -0.011936 0.235362
45  1.206996 -0.000005 0.000005  0.001538 -0.000068 1.118076
46  5.740571 0.000055 0.000724  0.204310 -0.000014 0.000021
47  11.480612 -0.000253 0.000957  0.129999 0.043781 0.126392
48  6.027514 -0.000274 -0.000237  -0.672812 -0.529936 -1.659984
49  -0.000000 11.691975 -0.000007  -1.296425 0.743375 0.950610
50  0.000003 -0.000001 -0.000000  2.413975 -0.000041 1.570856
51  -0.000007 -0.000015 0.000005  2.272644 -0.000030 1.570865
52  -4.159512 -4.098309 -6.891766  3.131877 -0.087804 -1.448327
53  -0.000001 0.000000 -0.000000  0.008153 -0.000259 0.000009
54  -0.000000 0.000001 -0.000000  1.565115 0.043565 -0.106862
55  -0.144541 -17.072466 -5.436147  -0.873419 0.152088 -1.871798
56  -0.000001 -0.000000 -0.000000  0.000000 -0.000000 -0.000002
57  0.000029 0.000029 0.000001  -1.571902 -0.044449 -0.106509
58  8.426761 -19.544212 -16.568478  1.570796 -0.000000 0.000000
59  -15.417985 2.938832 -17.970421  1.570796 -0.000000 0.000000
60  1.941978 -0.304065 -8.327020  1.570796 -0.000000 0.000000
61  -0.004311 0.001229 -0.000371  0.006898 -0.005534 -0.284229
62  2.089273 8.874444 -4.333363  1.570796 -0.000000 0.000000
63  0.000000 0.000000 0.000000  -0.078727 -3.136056 0.284226
64  0.000000 0.000000 0.000000  1.574896 0.006444 -0.005791
65  -2.384458 -10.436199 -1.946407  1.549507 -0.052102 0.024257
66  0.000002 -2.923558 -1.408043  -0.000000 0.000000 0.000000
67  -0.000002 -0.601197 -2.062165  -0.000000 0.000000 0.000000
68  0.004380 -0.039406 6.613116  -0.000000 0.000000 0.000000
69  0.000970 -0.021792 0.054850  -0.000000 0.000000 -0.000000
70  0.000002 -3.304880 0.259169  -0.000000 0.000000 0.000000
71  -2.208593 -15.196222 -3.103858  1.549507 -0.052102 0.024257
72  0.057100 0.204433 -2.709596  -0.000000 0.000000 0.000000
73  0.111673 -0.283002 -2.709596  -0.000000 0.000000 0.000000
74  -0.128217 -0.750370 -2.709595  -0.000000 0.000000 0.000000
time 6
0  0 0 0  0 0 0
1  0.000006 0.000000 0.000000  -1.570800 -1.391899 -1.570792
2  -8.138873 1.780375 1.937664  -1.544956 -1.855077 -0.198630
3  6.027522 -0.000327 0.000192  -0.834310 -1.310670 -1.340151
4  11.692113 0.000644 -0.000739  -1.471384 -0.000010 -1.288732
5  11.480599 0.000713 -0.000233  1.196715 -1.051287 0.467083
6  3.571335 -0.073053 -1.193382  -0.630908 0.056336 -1.699771
7  1.312591 0.000012 0.000006  -0.000395 0.000880 -0.663191
8  0.729355 0.000053 0.000048  -0.000172 0.000021 -0.220360
9  3.942140 0.046273 -0.431512  -0.413547 0.112709 -1.516154
10  1.539110 0.000084 0.000005  -0.001056 0.003239 -0.572825
11  1.196333 0.000145 0.000029  -0.000216 0.000008 -0.647849
12  3.883504 -0.047269 0.431382  -0.386032 0.372160 -1.001174
13  1.719573 -0.000026 0.000015  0.029635 0.017714 -0.994916
14  1.209180 0.000090 0.000010  -0.001849 0.000829 -0.701988
15  3.859660 -0.138476 1.332410  -0.061682 0.488092 -0.444155
16  1.719449 -0.000012 0.000022  -0.017508 -0.024177 -0.574397
17  1.099674 0.000047 0.000007  0.000693 0.002640 -1.571702
18  0.945843 -0.861836 1.304577  -1.769690 -0.354327 -0.275173
19  1.789817 -0.000003 -0.000017  0.008665 0.005630 -0.065006
20  1.207017 -0.000012 -0.000043  0.000321 -0.000553 0.304742
21  5.740637 0.000411 -0.000702  -0.116951 0.000003 0.000071
22  11.481124 0.000354 -0.000704  -0.015345 -0.196559 0.035383
23  6.027523 -0.000330 0.000203  1.605940 -0.257880 1.664414
24  0.000001 11.692101 -0.000007  -0.902510 -0.363818 -0.725469
25  0.000004 0.000008 -0.000001  -0.602294 -0.000031 1.570739
26  -0.000002 -0.000011 -0.000000  0.868957 0.000002 1.570712
27  -5.843360 -7.961716 2.089273  1.473120 1.855075 -0.198639
28  6.027507 -0.000261 -0.000230  1.642442 0.569282 -0.469235
29  11.691993 0.000242 0.000856  0.141450 0.000080 -1.966189
30  11.478222 -0.001495 0.001043  -0.837942 0.026547 0.780121
31  3.859437 -0.132787 1.193061  0.419753 0.064213 -1.630734
32  1.312558 0.000024 -0.000000  0.018649 -0.111950 -0.566450
33  0.729346 0.000065 -0.000026  -0.136092 -0.130379 -0.745071
34  3.942047 0.050109 0.430997  0.227728 0.017433 -1.395883
35  1.539096 0.000004 -0.000000  0.033374 -0.057010 -0.978694
36  1.196299 0.000077 -0.000004  -0.008681 -0.024216 -0.882959
37  3.883412 -0.050501 -0.431087  0.220900 -0.070369 -1.119647
38  1.719563 -0.000082 -0.000003  0.013025 -0.077950 -1.452999
39  1.209196 0.000035 0.000010  0.008192 -0.000795 -0.494142
40  3.859585 -0.149111 -1.331323  -0.144133 0.068146 -0.137838
41  1.719412 -0.000097 -0.000034  -0.015109 -0.000174 -1.071001
42  1.099674 0.000025 0.000007  -0.004386 -0.008133 -0.862854
43  0.805979 -0.359853 -1.318338  0.974252 0.268925 -0.894612
44  1.789779 -0.000008 -0.000042  0.001484 -0.011936 0.235362
45  1.206996 -0.000006 0.000006  0.001538 -0.000068 1.118076
46  5.740572 0.000055 0.000724  0.220680 -0.000014 0.000021
47  11.480589 -0.000263 0.000959  0.144324 0.035467 0.132219
48  6.027514 -0.000274 -0.000237  -0.669913 -0.519451 -1.665480
49  -0.000001 11.691975 -0.000007  -1.304589 0.751786 0.953788
50  0.000003 -0.000000 0.000001  2.413975 -0.000041 1.570856
51  -0.000007 -0.000015 0.000005  2.272644 -0.000030 1.570865
52  -4.175644 -3.978035 -6.713511  -3.104934 -0.050607 -1.402193
53  0.000000 0.000000 0.000000  0.008153 -0.000259 0.000009
54  0.000000 0.000001 -0.000000  1.565115 0.043565 -0.106862
55  0.424738 -16.794540 -5.645200  -0.845874 0.204899 -1.817564
56  0.000001 -0.000000 -0.000000  0.000000 -0.000000 -0.000002
57  0.000030 0.000029 0.000001  -1.571901 -0.044449 -0.106509
58  8.426761 -19.544212 -16.568478  1.570796 -0.000000 0.000000
59  -15.417985 2.938832 -17.970421  1.570796 -0.000000 0.000000
60  1.941978 -0.304065 -8.327020  1.570796 -0.000000 0.000000
61  -0.004311 0.001229 -0.000371  0.006898 -0.005534 -0.284229
62  2.089273 8.874444 -4.333363  1.570796 -0.000000 0.000000
63  0.000000 0.000000 0.000000  -0.078727 -3.136056 0.284226
64  0.000000 0.000000 0.000000  1.578929 0.006546 0.000861
65  -2.280537 -10.436199 -1.972527  1.591160 -0.094507 0.070547
66  0.000002 -2.923558 -1.408042  0.000000 -0.000000 -0.000000
67  -0.000003 -0.601197 -2.062164  0.000000 -0.000000 -0.000000
68  0.004380 -0.039407 6.613117  0.000000 -0.000000 -0.000000
69  0.000970 -0.021792 0.054852  0.000000 -0.000000 -0.000000
70  0.000002 -3.304880 0.259170  0.000000 -0.000000 -0.000000
71  -1.820826 -15.125956 -3.322824  1.591160 -0.094507 0.070547
72  0.057100 0.204433 -2.709595  0.000000 -0.000000 -0.000000
73  0.111673 -0.283002 -2.709595  0.000000 -0.000000 -0.000000
74  -0.128218 -0.750370 -2.709595  0.000000 -0.000000 -0.000000
time 7
0  0 0 0  0 0 0
1  0.000006 0.000000 0.000000  -1.570800 -1.391899 -1.570792
2  -8.138873 1.780375 1.937664  -1.544956 -1.855077 -0.198630
3  6.027522 -0.000327 0.000192  -1.010466 -1.251888 -1.179571
4  11.692110 0.000645 -0.000741  -1.471389 -0.000016 -1.389773
5  11.479923 0.000675 -0.000605  1.110404 -1.160796 0.582519
6  3.571337 -0.073053 -1.193381  -0.630908 0.056337 -1.699771
7  1.312590 0.000013 0.000007  -0.000395 0.000880 -0.663191
8  0.729355 0.000054 0.000049  -0.000172 0.000021 -0.220360
9  3.942142 0.046273 -0.431512  -0.413547 0.112709 -1.516154
10  1.539111 0.000084 0.000007  -0.001056 0.003240 -0.572825
11  1.196333 0.000145 0.000028  -0.000216 0.000008 -0.647849
12  3.883505 -0.047270 0.431382  -0.386032 0.372160 -1.001174
13  1.719573 -0.000026 0.000017  0.029635 0.017714 -0.994916
14  1.209180 0.000090 0.000012  -0.001849 0.000829 -0.701988
15  3.859663 -0.138476 1.332410  -0.061682 0.488092 -0.444155
16  1.719450 -0.000012 0.000023  -0.017508 -0.024177 -0.574397
17  1.099675 0.000046 0.000004  0.000693 0.002640 -1.571702
18  0.945844 -0.861836 1.304576  -1.769690 -0.354327 -0.275173
19  1.789818 -0.000003 -0.000018  0.008665 0.005630 -0.065006
20  1.207017 -0.000012 -0.000043  0.000321 -0.000553 0.304742
21  5.740637 0.000410 -0.000702  -0.129681 0.000003 0.000071
22  11.480989 0.000346 -0.000777  -0.010599 -0.220114 0.039395
23  6.027523 -0.000330 0.000203  1.670758 -0.303431 1.638098
24  0.000001 11.692099 -0.000008  -0.963739 -0.416224 -0.767439
25  0.000003 0.000009 -0.000003  -0.602294 -0.000031 1.570739
26  -0.000001 -0.000011 -0.000001  0.868957 0.000002 1.570712
27  -5.843360 -7.961716 2.089273  1.473120 1.855075 -0.198639
28  6.027507 -0.000261 -0.000230  1.666468 0.571529 -0.463918
29  11.691993 0.000242 0.000855  0.141450 0.000082 -1.982431
30  11.478079 -0.001554 0.001054  -0.799008 -0.075434 0.803327
31  3.859436 -0.132788 1.193062  0.419753 0.064213 -1.630733
32  1.312558 0.000024 -0.000000  0.018650 -0.111950 -0.566450
33  0.729345 0.000066 -0.000027  -0.136092 -0.130379 -0.745071
34  3.942046 0.050108 0.430997  0.227728 0.017433 -1.395883
35  1.539096 0.000005 0.000001  0.033374 -0.057010 -0.978694
36  1.196299 0.000077 -0.000004  -0.008681 -0.024216 -0.882959
37  3.883412 -0.050502 -0.431087  0.220900 -0.070369 -1.119647
38  1.719563 -0.000081 -0.000003  0.013025 -0.077950 -1.452999
39  1.209196 0.000036 0.000011  0.008192 -0.000795 -0.494142
40  3.859585 -0.149112 -1.331322  -0.144133 0.068146 -0.137838
41  1.719412 -0.000097 -0.000035  -0.015109 -0.000174 -1.071001
42  1.099674 0.000024 0.000007  -0.004386 -0.008133 -0.862854
43  0.805979 -0.359854 -1.318338  0.974252 0.268925 -0.894612
44  1.789779 -0.000008 -0.000042  0.001484 -0.011936 0.235362
45  1.206996 -0.000005 0.000006  0.001538 -0.000068 1.118076
46  5.740572 0.000054 0.000723  0.238754 -0.000014 0.000021
47  11.480559 -0.000275 0.000959  0.159296 0.020945 0.141954
48  6.027514 -0.000274 -0.000237  -0.664013 -0.499768 -1.676016
49  -0.000003 11.691976 -0.000008  -1.314434 0.761916 0.957514
50  0.000003 -0.000001 0.000000  2.413975 -0.000041 1.570856
51  -0.000007 -0.000015 0.000004  2.272644 -0.000030 1.570865
52  -4.256902 -3.829387 -6.433516  -3.065374 0.003487 -1.339491
53  -0.000000 -0.000001 -0.000000  0.008153 -0.000259 0.000009
54  0.000000 -0.000001 0.000000  1.565115 0.043565 -0.106862
55  1.129570 -16.373848 -5.997631  -0.830946 0.270317 -1.750414
56  -0.000002 0.000000 -0.000001  0.000000 -0.000000 -0.000002
57  0.000029 0.000029 0.000001  -1.571902 -0.044449 -0.106509
58  8.426761 -19.544212 -16.568478  1.570796 -0.000000 0.000000
59  -15.417985 2.938832 -17.970421  1.570796 -0.000000 0.000000
60  1.941978 -0.304065 -8.327020  1.570796 -0.000000 0.000000
61  -0.004311 0.001229 -0.000371  0.006898 -0.005534 -0.284229
62  2.089273 8.874444 -4.333363  1.570796 -0.000000 0.000000
63  0.000000 0.000000 0.000000  -0.078727 -3.136056 0.284226
64  0.000000 0.000000 0.000000  1.580763 0.006547 0.003885
65  -2.074163 -10.436199 -2.033296  1.649311 -0.128426 0.127710
66  0.000002 -2.923557 -1.408042  0.000000 0.000000 -0.000000
67  -0.000002 -0.601197 -2.062163  0.000000 0.000000 -0.000000
68  0.004381 -0.039407 6.613116  0.000000 0.000000 -0.000000
69  0.000970 -0.021792 0.054851  0.000000 0.000000 -0.000000
70  0.000002 -3.304880 0.259169  0.000000 0.000000 -0.000000
71  -1.278490 -14.995696 -3.647716  1.649311 -0.128426 0.127710
72  0.057100 0.204433 -2.709596  0.000000 0.000000 -0.000000
73  0.111673 -0.283001 -2.709596  0.000000 0.000000 -0.000000
74  -0.128217 -0.750370 -2.709597  0.000000 0.000000 -0.000000
time 8
0  0 0 0  0 0 0
1  0.000006 0.000000 0.000000  -1.570800 -1.391899 -1.570792
2  -8.138873 1.780375 1.937664  -1.544956 -1.855077 -0.198630
3  6.027521 -0.000326 0.000192  -1.150611 -1.169008 -1.056947
4  11.692108 0.000643 -0.000741  -1.471394 -0.000023 -1.507457
5  11.480403 0.000695 -0.000390  0.932829 -1.268248 0.771246
6  3.571339 -0.073053 -1.193382  -0.630908 0.056337 -1.699771
7  1.312590 0.000010 0.000008  -0.000395 0.000880 -0.663191
8  0.729356 0.000054 0.000050  -0.000172 0.000021 -0.220360
9  3.942142 0.046272 -0.431512  -0.413547 0.112709 -1.516154
10  1.539112 0.000084 0.000006  -0.001056 0.003240 -0.572825
11  1.196333 0.000145 0.000030  -0.000216 0.000008 -0.647849
12  3.883504 -0.047269 0.431381  -0.386032 0.372160 -1.001174
13  1.719573 -0.000028 0.000016  0.029635 0.017714 -0.994916
14  1.209181 0.000090 0.000012  -0.001849 0.000829 -0.701988
15  3.859663 -0.138476 1.332410  -0.061682 0.488091 -0.444155
16  1.719449 -0.000012 0.000021  -0.017509 -0.024177 -0.574397
17  1.099675 0.000050 0.000004  0.000693 0.002640 -1.571702
18  0.945845 -0.861836 1.304576  -1.769690 -0.354327 -0.275173
19  1.789819 -0.000003 -0.000018  0.008665 0.005630 -0.065006
20  1.207018 -0.000011 -0.000044  0.000321 -0.000553 0.304742
21  5.740638 0.000409 -0.000702  -0.147937 0.000003 0.000071
22  11.481083 0.000349 -0.000736  -0.007938 -0.245064 0.040896
23  6.027523 -0.000330 0.000203  1.753105 -0.360155 1.602589
24  0.000002 11.692100 -0.000008  -1.033884 -0.480094 -0.813047
25  0.000001 0.000007 -0.000003  -0.602294 -0.000031 1.570739
26  -0.000002 -0.000012 -0.000000  0.868957 0.000002 1.570712
27  -5.843360 -7.961716 2.089273  1.473120 1.855075 -0.198639
28  6.027507 -0.000261 -0.000228  1.690026 0.575986 -0.458291
29  11.691994 0.000241 0.000854  0.141449 0.000082 -1.993754
30  11.480536 -0.000160 0.000854  -0.776412 -0.192879 0.823133
31  3.859436 -0.132788 1.193062  0.419753 0.064213 -1.630734
32  1.312558 0.000026 -0.000001  0.018650 -0.111950 -0.566450
33  0.729346 0.000066 -0.000028  -0.136092 -0.130379 -0.745071
34  3.942047 0.050109 0.430997  0.227728 0.017433 -1.395883
35  1.539096 0.000005 0.000000  0.033374 -0.057010 -0.978694
36  1.196300 0.000076 -0.000004  -0.008681 -0.024216 -0.882959
37  3.883412 -0.050503 -0.431086  0.220900 -0.070369 -1.119647
38  1.719563 -0.000080 -0.000003  0.013025 -0.077950 -1.452999
39  1.209197 0.000035 0.000012  0.008192 -0.000795 -0.494142
40  3.859585 -0.149113 -1.331323  -0.144133 0.068146 -0.137838
41  1.719412 -0.000097 -0.000034  -0.015109 -0.000174 -1.071001
42  1.099673 0.000023 0.000007  -0.004386 -0.008133 -0.862854
43  0.805979 -0.359854 -1.318338  0.974252 0.268925 -0.894612
44  1.789779 -0.000007 -0.000042  0.001484 -0.011936 0.235362
45  1.206996 -0.000004 0.000005  0.001538 -0.000068 1.118076
46  5.740571 0.000056 0.000723  0.253468 -0.000014 0.000021
47  11.481050 0.000005 0.000920  0.172338 0.002174 0.152284
48  6.027514 -0.000274 -0.000237  -0.661032 -0.479658 -1.684578
49  -0.000002 11.691974 -0.000007  -1.321324 0.768993 0.960051
50  0.000003 -0.000001 0.000000  2.413975 -0.000041 1.570856
51  -0.000006 -0.000017 0.000006  2.272644 -0.000030 1.570865
52  -4.335379 -3.723915 -6.165330  -3.037716 0.066657 -1.263734
53  -0.000000 -0.000000 -0.000001  0.008153 -0.000259 0.000009
54  0.000000 -0.000000 0.000001  1.565115 0.043565 -0.106862
55  1.973000 -15.833843 -6.513947  -0.830863 0.339268 -1.675603
56  -0.000002 -0.000000 0.000000  0.000000 -0.000000 -0.000002
57  0.000027 0.000029 0.000001  -1.571901 -0.044449 -0.106509
58  8.426761 -19.544212 -16.568478  1.570796 -0.000000 0.000000
59  -15.417985 2.938832 -17.970421  1.570796 -0.000000 0.000000
60  1.941978 -0.304065 -8.327020  1.570796 -0.000000 0.000000
61  -0.004311 0.001229 -0.000371  0.006898 -0.005534 -0.284229
62  2.089273 8.874444 -4.333363  1.570796 -0.000000 0.000000
63  0.000000 0.000000 0.000000  -0.078727 -3.136056 0.284226
64  0.000000 0.000000 0.000000  1.578176 0.004854 0.002871
65  -1.695631 -10.436199 -2.196298  1.715740 -0.149065 0.193306
66  0.000002 -2.923558 -1.408042  -0.000000 -0.000000 0.000000
67  -0.000002 -0.601198 -2.062165  -0.000000 -0.000000 0.000000
68  0.004380 -0.039407 6.613115  -0.000000 -0.000000 0.000000
69  0.000970 -0.021792 0.054850  -0.000000 -0.000000 0.000000
70  0.000002 -3.304881 0.259168  -0.000000 -0.000000 0.000000
71  -0.548655 -14.802637 -4.106039  1.715740 -0.149065 0.193306
72  0.057100 0.204433 -2.709597  -0.000000 -0.000000 0.000000
73  0.111673 -0.283002 -2.709598  -0.000000 -0.000000 0.000000
74  -0.128217 -0.750370 -2.709599  -0.000000 -0.000000 0.000000
time 9
0  0 0 0  0 0 0
1  0.000006 0.000000 0.000000  -1.570800 -1.391899 -1.570792
2  -8.138873 1.780375 1.937664  -1.544956 -1.855077 -0.198630
3  6.027519 -0.000325 0.000193  -1.211532 -1.063794 -0.943909
4  11.692108 0.000645 -0.000740  -1.471398 -0.000030 -1.620817
5  11.479535 0.000644 -0.000908  0.629732 -1.314362 0.902005
6  3.571340 -0.073054 -1.193381  -0.630908 0.056336 -1.699771
7  1.312591 0.000013 0.000008  -0.000395 0.000880 -0.663191
8  0.729356 0.000054 0.000049  -0.000172 0.000021 -0.220360
9  3.942142 0.046272 -0.431512  -0.413547 0.112709 -1.516154
10  1.539112 0.000085 0.000007  -0.001056 0.003239 -0.572825
11  1.196332 0.000147 0.000027  -0.000216 0.000008 -0.647849
12  3.883506 -0.047270 0.431382  -0.386032 0.372160 -1.001174
13  1.719575 -0.000027 0.000017  0.029635 0.017714 -0.994916
14  1.209178 0.000090 0.000011  -0.001849 0.000829 -0.701988
15  3.859663 -0.138477 1.332410  -0.061682 0.488092 -0.444155
16  1.719448 -0.000012 0.000022  -0.017508 -0.024177 -0.574397
17  1.099677 0.000050 0.000006  0.000693 0.002640 -1.571702
18  0.945844 -0.861836 1.304575  -1.769691 -0.354327 -0.275173
19  1.789820 -0.000003 -0.000018  0.008665 0.005630 -0.065006
20  1.207018 -0.000012 -0.000044  0.000321 -0.000553 0.304742
21  5.740636 0.000410 -0.000702  -0.188163 0.000003 0.000071
22  11.480909 0.000340 -0.000839  -0.031072 -0.261056 0.018353
23  6.027523 -0.000330 0.000203  1.835452 -0.437764 1.628782
24  0.000003 11.692099 -0.000009  -1.100642 -0.544182 -0.853537
25  0.000002 0.000009 -0.000003  -0.602294 -0.000031 1.570739
26  0.000000 -0.000012 -0.000002  0.868957 0.000002 1.570712
27  -5.843360 -7.961716 2.089273  1.473120 1.855075 -0.198639
28  6.027507 -0.000261 -0.000228  1.733798 0.568773 -0.449842
29  11.691992 0.000242 0.000857  0.141450 0.000082 -1.981885
30  11.478084 -0.001551 0.001051  -0.883940 -0.352506 0.833005
31  3.859435 -0.132788 1.193061  0.419753 0.064213 -1.630733
32  1.312558 0.000024 -0.000001  0.018649 -0.111950 -0.566450
33  0.729344 0.000066 -0.000027  -0.136092 -0.130379 -0.745071
34  3.942046 0.050109 0.430996  0.227728 0.017433 -1.395883
35  1.539096 0.000005 -0.000000  0.033374 -0.057010 -0.978694
36  1.196299 0.000076 -0.000004  -0.008681 -0.024216 -0.882959
37  3.883411 -0.050502 -0.431087  0.220900 -0.070369 -1.119647
38  1.719564 -0.000081 -0.000003  0.013025 -0.077950 -1.452999
39  1.209197 0.000035 0.000011  0.008192 -0.000795 -0.494142
40  3.859584 -0.149112 -1.331323  -0.144133 0.068146 -0.137838
41  1.719412 -0.000096 -0.000034  -0.015109 -0.000174 -1.071001
42  1.099674 0.000024 0.000007  -0.004386 -0.008133 -0.862854
43  0.805979 -0.359854 -1.318339  0.974252 0.268925 -0.894612
44  1.789779 -0.000008 -0.000042  0.001484 -0.011936 0.235362
45  1.206996 -0.000005 0.000005  0.001538 -0.000068 1.118076
46  5.740572 0.000055 0.000723  0.236181 -0.000014 0.000021
47  11.480560 -0.000274 0.000959  0.163360 -0.036077 0.161624
48  6.027514 -0.000274 -0.000237  -0.640150 -0.447146 -1.709176
49  -0.000001 11.691975 -0.000006  -1.314103 0.761575 0.957390
50  0.000002 -0.000001 0.000000  2.413975 -0.000041 1.570856
51  -0.000006 -0.000016 0.000006  2.272644 -0.000030 1.570865
52  -4.786218 -3.806625 -5.954148  -3.120349 0.155936 -1.182138
53  -0.000000 0.000000 -0.000001  0.008153 -0.000259 0.000009
54  -0.000001 -0.000000 -0.000000  1.565115 0.043565 -0.106862
55  2.479016 -15.241474 -7.694317  -0.950443 0.386353 -1.627310
56  -0.000001 -0.000000 0.000000  0.000000 -0.000000 -0.000002
57  0.000029 0.000028 0.000002  -1.571902 -0.044449 -0.106509
58  8.426761 -19.544212 -16.568478  1.570796 -0.000000 0.000000
59  -15.417985 2.938832 -17.970421  1.570796 -0.000000 0.000000
60  1.941978 -0.304065 -8.327020  1.570796 -0.000000 0.000000
61  -0.004311 0.001229 -0.000371  0.006898 -0.005534 -0.284229
62  2.089273 8.874444 -4.333363  1.570796 -0.000000 0.000000
63  0.000000 0.000000 0.000000  -0.078727 -3.136056 0.284226
64  0.000000 0.000000 0.000000  1.573378 0.001701 0.001001
65  -1.150612 -10.436199 -2.697252  1.795508 -0.057308 0.275865
66  0.000001 -2.923558 -1.408042  -0.000000 0.000000 0.000000
67  -0.000003 -0.601198 -2.062164  -0.000000 0.000000 0.000000
68  0.004381 -0.039407 6.613115  -0.000000 0.000000 0.000000
69  0.000970 -0.021792 0.054851  -0.000000 0.000000 0.000000
70  0.000002 -3.304881 0.259168  -0.000000 0.000000 0.000000
71  0.156636 -14.573817 -4.977527  1.795508 -0.057308 0.275865
72  0.057100 0.204433 -2.709597  -0.000000 0.000000 0.000000
73  0.111672 -0.283001 -2.709597  -0.000000 0.000000 0.000000
74  -0.128218 -0.750370 -2.709597  -0.000000 0.000000 0.000000
time 10
0  0 0 0  0 0 0
1  0.000006 0.000000 0.000000  -1.570800 -1.391899 -1.570792
2  -8.138873 1.780375 1.937664  -1.544956 -1.855077 -0.198630
3  6.027519 -0.000325 0.000193  -1.208391 -0.973101 -0.822138
4  11.692106 0.000643 -0.000740  -1.471401 -0.000036 -1.705202
5  11.478960 0.000617 -0.001200  0.304340 -1.321288 0.942238
6  3.571337 -0.073053 -1.193381  -0.630908 0.056336 -1.699771
7  1.312589 0.000011 0.000008  -0.000395 0.000880 -0.663191
8  0.729354 0.000052 0.000049  -0.000172 0.000021 -0.220360
9  3.942142 0.046272 -0.431512  -0.413547 0.112709 -1.516154
10  1.539111 0.000085 0.000005  -0.001056 0.003240 -0.572825
11  1.196332 0.000143 0.000027  -0.000216 0.000008 -0.647849
12  3.883502 -0.047268 0.431381  -0.386032 0.372160 -1.001174
13  1.719572 -0.000026 0.000012  0.029635 0.017714 -0.994916
14  1.209180 0.000091 0.000013  -0.001849 0.000829 -0.701988
15  3.859662 -0.138476 1.332410  -0.061682 0.488092 -0.444155
16  1.719448 -0.000013 0.000021  -0.017509 -0.024177 -0.574397
17  1.099675 0.000048 0.000003  0.000693 0.002640 -1.571701
18  0.945842 -0.861835 1.304575  -1.769690 -0.354327 -0.275173
19  1.789818 -0.000003 -0.000018  0.008665 0.005630 -0.065006
20  1.207014 -0.000012 -0.000044  0.000321 -0.000553 0.304742
21  5.740637 0.000412 -0.000702  -0.228559 0.000003 0.000070
22  11.480794 0.000337 -0.000898  -0.070512 -0.268872 -0.018893
23  6.027523 -0.000330 0.000203  1.889814 -0.514548 1.728288
24  0.000003 11.692101 -0.000006  -1.150100 -0.593337 -0.881385
25  0.000003 0.000009 -0.000003  -0.602294 -0.000031 1.570739
26  0.000001 -0.000011 0.000000  0.868957 0.000002 1.570712
27  -5.843360 -7.961716 2.089273  1.473120 1.855075 -0.198639
28  6.027507 -0.000261 -0.000228  1.778409 0.566641 -0.440658
29  11.691992 0.000242 0.000854  0.141450 0.000079 -1.944872
30  11.478407 -0.001412 0.001033  -1.054680 -0.511959 0.847797
31  3.859436 -0.132788 1.193061  0.419753 0.064213 -1.630733
32  1.312558 0.000024 0.000000  0.018650 -0.111950 -0.566450
33  0.729345 0.000065 -0.000028  -0.136092 -0.130379 -0.745071
34  3.942046 0.050109 0.430996  0.227728 0.017433 -1.395883
35  1.539096 0.000005 -0.000001  0.033374 -0.057010 -0.978694
36  1.196300 0.000077 -0.000004  -0.008681 -0.024216 -0.882959
37  3.883411 -0.050502 -0.431088  0.220900 -0.070369 -1.119647
38  1.719564 -0.000080 -0.000004  0.013025 -0.077950 -1.452999
39  1.209198 0.000035 0.000010  0.008192 -0.000795 -0.494142
40  3.859585 -0.149111 -1.331324  -0.144133 0.068146 -0.137838
41  1.719412 -0.000097 -0.000035  -0.015109 -0.000174 -1.071001
42  1.099673 0.000025 0.000007  -0.004386 -0.008133 -0.862854
43  0.805979 -0.359854 -1.318339  0.974252 0.268925 -0.894612
44  1.789779 -0.000008 -0.000043  0.001484 -0.011936 0.235362
45  1.206996 -0.000005 0.000006  0.001538 -0.000068 1.118076
46  5.740571 0.000056 0.000722  0.200080 -0.000014 0.000021
47  11.480625 -0.000247 0.000956  0.142428 -0.079747 0.166174
48  6.027514 -0.000274 -0.000237  -0.625823 -0.411797 -1.729949
49  -0.000001 11.691975 -0.000007  -1.291728 0.738532 0.948746
50  0.000003 -0.000000 0.000001  2.413975 -0.000041 1.570856
51  -0.000006 -0.000016 0.000004  2.272644 -0.000030 1.570865
52  -5.335804 -4.105178 -5.802913  3.039478 0.255238 -1.108491
53  0.000000 0.000000 0.000000  0.008153 -0.000259 0.000009
54  0.000000 0.000000 -0.000001  1.565115 0.043565 -0.106862
55  2.633953 -14.682971 -9.143698  -1.116242 0.420882 -1.593672
56  -0.000000 -0.000000 0.000000  0.000000 -0.000000 -0.000002
57  0.000031 0.000029 0.000001  -1.571901 -0.044449 -0.106509
58  8.426761 -19.544212 -16.568478  1.570796 -0.000000 0.000000
59  -15.417985 2.938832 -17.970421  1.570796 -0.000000 0.000000
60  1.941978 -0.304065 -8.327020  1.570796 -0.000000 0.000000
61  -0.004311 0.001229 -0.000371  0.006898 -0.005534 -0.284229
62  2.089273 8.874444 -4.333363  1.570796 -0.000000 0.000000
63  0.000000 0.000000 0.000000  -0.078727 -3.136056 0.284226
64  0.000000 0.000000 0.000000  1.570796 -0.000000 0.000000
65  -0.633279 -10.436199 -3.440570  1.882088 0.072863 0.375431
66  0.000001 -2.923558 -1.408041  0.000000 -0.000000 0.000000
67  -0.000003 -0.601198 -2.062163  0.000000 -0.000000 0.000000
68  0.004380 -0.039407 6.613116  0.000000 -0.000000 0.000000
69  0.000970 -0.021792 0.054850  0.000000 -0.000000 0.000000
70  0.000002 -3.304881 0.259169  0.000000 -0.000000 0.000000
71  0.699181 -14.343241 -6.084056  1.882088 0.072863 0.375431
72  0.057100 0.204433 -2.709597  0.000000 -0.000000 0.000000
73  0.111673 -0.283002 -2.709596  0.000000 -0.000000 0.000000
74  -0.128218 -0.750370 -2.709596  0.000000 -0.000000 0.000000
time 11
0  0 0 0  0 0 0
1  0.000006 0.000000 0.000000  -1.570800 -1.391899 -1.570792
2  -8.138873 1.780375 1.937664  -1.544956 -1.855077 -0.198630
3  6.027518 -0.000325 0.000194  -1.173555 -0.929133 -0.708407
4  11.692106 0.000644 -0.000741  -1.471402 -0.000039 -1.751030
5  11.480361 0.000691 -0.000450  -0.014603 -1.320074 0.954002
6  3.571339 -0.073053 -1.193381  -0.630908 0.056337 -1.699771
7  1.312591 0.000011 0.000009  -0.000395 0.000880 -0.663191
8  0.729355 0.000054 0.000048  -0.000172 0.000021 -0.220360
9  3.942142 0.046274 -0.431512  -0.413547 0.112709 -1.516154
10  1.539112 0.000084 0.000005  -0.001056 0.003240 -0.572825
11  1.196333 0.000144 0.000029  -0.000216 0.000008 -0.647849
12  3.883504 -0.047268 0.431381  -0.386032 0.372160 -1.001174
13  1.719576 -0.000027 0.000015  0.029635 0.017714 -0.994916
14  1.209179 0.000091 0.000011  -0.001849 0.000829 -0.701988
15  3.859661 -0.138475 1.332410  -0.061682 0.488092 -0.444155
16  1.719449 -0.000011 0.000023  -0.017509 -0.024177 -0.574397
17  1.099676 0.000049 0.000007  0.000693 0.002640 -1.571702
18  0.945844 -0.861835 1.304575  -1.769690 -0.354327 -0.275173
19  1.789820 -0.000002 -0.000020  0.008665 0.005630 -0.065006
20  1.207015 -0.000012 -0.000044  0.000321 -0.000553 0.304742
21  5.740636 0.000411 -0.000704  -0.259718 0.000003 0.000070
22  11.481074 0.000352 -0.000751  -0.112921 -0.272633 -0.059478
23  6.027523 -0.000330 0.000203  1.898113 -0.562415 1.866128
24  0.000001 11.692099 -0.000007  -1.176965 -0.620501 -0.895650
25  0.000002 0.000009 -0.000002  -0.602294 -0.000031 1.570739
26  -0.000001 -0.000012 -0.000000  0.868957 0.000002 1.570712
27  -5.843360 -7.961716 2.089273  1.473120 1.855075 -0.198639
28  6.027507 -0.000261 -0.000228  1.824474 0.585090 -0.425646
29  11.691992 0.000243 0.000857  0.141450 0.000075 -1.888391
30  11.478904 -0.001184 0.001000  -1.244158 -0.650414 0.878390
31  3.859436 -0.132787 1.193062  0.419753 0.064213 -1.630733
32  1.312558 0.000025 -0.000000  0.018649 -0.111950 -0.566450
33  0.729346 0.000066 -0.000028  -0.136091 -0.130379 -0.745071
34  3.942046 0.050109 0.430996  0.227728 0.017433 -1.395883
35  1.539096 0.000004 -0.000000  0.033374 -0.057010 -0.978694
36  1.196299 0.000076 -0.000003  -0.008681 -0.024216 -0.882959
37  3.883411 -0.050502 -0.431087  0.220900 -0.070369 -1.119647
38  1.719563 -0.000080 -0.000004  0.013025 -0.077950 -1.452999
39  1.209197 0.000035 0.000011  0.008192 -0.000795 -0.494142
40  3.859585 -0.149112 -1.331323  -0.144133 0.068146 -0.137838
41  1.719412 -0.000097 -0.000034  -0.015109 -0.000174 -1.071001
42  1.099673 0.000025 0.000006  -0.004386 -0.008133 -0.862854
43  0.805979 -0.359854 -1.318339  0.974252 0.268925 -0.894612
44  1.789780 -0.000007 -0.000042  0.001484 -0.011936 0.235362
45  1.206996 -0.000005 0.000006  0.001538 -0.000068 1.118076
46  5.740573 0.000054 0.000723  0.159910 -0.000014 0.000021
47  11.480725 -0.000201 0.000949  0.118168 -0.120226 0.166760
48  6.027514 -0.000274 -0.000237  -0.633880 -0.369638 -1.736956
49  -0.000001 11.691976 -0.000008  -1.257939 0.703655 0.934588
50  0.000003 -0.000002 0.000000  2.413975 -0.000041 1.570856
51  -0.000007 -0.000015 0.000004  2.272644 -0.000030 1.570865
52  -5.817387 -4.570994 -5.541553  2.914806 0.344865 -1.046606
53  0.000000 0.000000 -0.000000  0.008153 -0.000259 0.000009
54  -0.000000 0.000000 -0.000000  1.565115 0.043565 -0.106862
55  2.554300 -14.249434 -10.317556  -1.278636 0.442255 -1.562913
56  -0.000002 -0.000000 0.000000  0.000000 -0.000000 -0.000002
57  0.000029 0.000028 0.000001  -1.571901 -0.044449 -0.106509
58  8.426761 -19.544212 -16.568478  1.570796 -0.000000 0.000000
59  -15.417985 2.938832 -17.970421  1.570796 -0.000000 0.000000
60  1.941978 -0.304065 -8.327020  1.570796 -0.000000 0.000000
61  -0.004311 0.001229 -0.000371  0.006898 -0.005534 -0.284229
62  2.089273 8.874444 -4.333363  1.570796 -0.000000 0.000000
63  0.000000 0.000000 0.000000  -0.078727 -3.136056 0.284226
64  0.000000 0.000000 0.000000  1.570796 -0.000000 0.000000
65  -0.229015 -10.436199 -4.076729  1.964637 0.197455 0.485398
66  0.000002 -2.923558 -1.408042  0.000000 0.000000 0.000000
67  -0.000002 -0.601198 -2.062165  0.000000 0.000000 0.000000
68  0.004381 -0.039407 6.613117  0.000000 0.000000 0.000000
69  0.000971 -0.021792 0.054850  0.000000 0.000000 0.000000
70  0.000002 -3.304881 0.259169  0.000000 0.000000 0.000000
71  1.068992 -14.150550 -7.000293  1.964637 0.197455 0.485398
72  0.057099 0.204433 -2.709596  0.000000 0.000000 0.000000
73  0.111673 -0.283001 -2.709595  0.000000 0.000000 0.000000
74  -0.128218 -0.750370 -2.709597  0.000000 0.000000 0.000000
time 12
0  0 0 0  0 0 0
1  0.000006 0.000000 0.000000  -1.570800 -1.391899 -1.570792
2  -8.138873 1.780375 1.937664  -1.544956 -1.855077 -0.198630
3  6.027517 -0.000326 0.000194  -1.123089 -0.919203 -0.596056
4  11.692106 0.000647 -0.000738  -1.471402 -0.000039 -1.761790
5  11.480262 0.000686 -0.000516  -0.258533 -1.316339 0.890077
6  3.571337 -0.073053 -1.193381  -0.630908 0.056336 -1.699771
7  1.312590 0.000010 0.000006  -0.000395 0.000880 -0.663191
8  0.729355 0.000052 0.000049  -0.000172 0.000021 -0.220360
9  3.942142 0.046272 -0.431512  -0.413547 0.112709 -1.516154
10  1.539112 0.000084 0.000005  -0.001056 0.003240 -0.572825
11  1.196333 0.000145 0.000028  -0.000216 0.000008 -0.647849
12  3.883503 -0.047270 0.431382  -0.386032 0.372160 -1.001174
13  1.719573 -0.000027 0.000016  0.029634 0.017714 -0.994916
14  1.209178 0.000092 0.000011  -0.001849 0.000829 -0.701988
15  3.859660 -0.138475 1.332410  -0.061682 0.488092 -0.444155
16  1.719447 -0.000012 0.000022  -0.017509 -0.024177 -0.574397
17  1.099675 0.000049 0.000005  0.000693 0.002640 -1.571702
18  0.945842 -0.861837 1.304575  -1.769690 -0.354327 -0.275173
19  1.789819 -0.000003 -0.000018  0.008665 0.005630 -0.065006
20  1.207014 -0.000013 -0.000044  0.000321 -0.000553 0.304742
21  5.740637 0.000412 -0.000702  -0.276631 0.000003 0.000070
22  11.481055 0.000355 -0.000762  -0.154574 -0.269867 -0.101240
23  6.027523 -0.000330 0.000203  1.873133 -0.586565 2.032336
24  0.000002 11.692101 -0.000008  -1.183279 -0.626924 -0.898909
25  0.000005 0.000008 0.000000  -0.602294 -0.000031 1.570739
26  -0.000001 -0.000011 -0.000000  0.868957 0.000002 1.570712
27  -5.843360 -7.961716 2.089273  1.473120 1.855075 -0.198639
28  6.027507 -0.000262 -0.000227  1.843166 0.602277 -0.416166
29  11.691993 0.000242 0.000856  0.141450 0.000070 -1.822107
30  11.479486 -0.000864 0.000955  -1.424953 -0.741244 0.886640
31  3.859435 -0.132787 1.193062  0.419753 0.064213 -1.630734
32  1.312558 0.000024 0.000000  0.018650 -0.111950 -0.566450
33  0.729343 0.000066 -0.000027  -0.136091 -0.130379 -0.745071
34  3.942046 0.050109 0.430997  0.227729 0.017433 -1.395883
35  1.539095 0.000004 -0.000000  0.033374 -0.057010 -0.978694
36  1.196300 0.000076 -0.000004  -0.008681 -0.024216 -0.882959
37  3.883411 -0.050502 -0.431086  0.220900 -0.070369 -1.119647
38  1.719564 -0.000081 -0.000003  0.013025 -0.077950 -1.452999
39  1.209196 0.000035 0.000011  0.008192 -0.000795 -0.494142
40  3.859585 -0.149111 -1.331323  -0.144133 0.068146 -0.137838
41  1.719412 -0.000098 -0.000034  -0.015109 -0.000174 -1.071001
42  1.099674 0.000024 0.000006  -0.004386 -0.008133 -0.862854
43  0.805978 -0.359853 -1.318337  0.974252 0.268925 -0.894612
44  1.789779 -0.000008 -0.000042  0.001484 -0.011936 0.235362
45  1.206996 -0.000006 0.000005  0.001538 -0.000068 1.118076
46  5.740573 0.000056 0.000723  0.114410 -0.000014 0.000021
47  11.480842 -0.000136 0.000940  0.092060 -0.151201 0.158805
48  6.027514 -0.000274 -0.000237  -0.647440 -0.350290 -1.733157
49  -0.000001 11.691976 -0.000007  -1.218686 0.663209 0.916579
50  0.000003 -0.000002 0.000001  2.413975 -0.000041 1.570856
51  -0.000006 -0.000016 0.000004  2.272644 -0.000030 1.570865
52  -6.171105 -5.135922 -5.549631  2.794950 0.411513 -0.995905
53  -0.000000 -0.000000 -0.000000  0.008153 -0.000259 0.000009
54  -0.000000 0.000000 0.000001  1.565115 0.043565 -0.106862
55  2.390955 -14.016754 -11.413887  -1.422289 0.444026 -1.529568
56  -0.000001 0.000001 -0.000000  0.000000 -0.000000 -0.000002
57  0.000030 0.000030 0.000001  -1.571902 -0.044449 -0.106509
58  8.426761 -19.544212 -16.568478  1.570796 -0.000000 0.000000
59  -15.417985 2.938832 -17.970421  1.570796 -0.000000 0.000000
60  1.941978 -0.304065 -8.327020  1.570796 -0.000000 0.000000
61  -0.004311 0.001229 -0.000371  0.006898 -0.005534 -0.284229
62  2.089273 8.874444 -4.333363  1.570796 -0.000000 0.000000
63  0.000000 0.000000 0.000000  -0.078727 -3.136056 0.284226
64  0.000000 0.000000 0.000000  1.570796 -0.000000 0.000000
65  0.089118 -10.436199 -4.847557  2.032426 0.309433 0.597454
66  0.000002 -2.923558 -1.408043  0.000000 -0.000000 0.000000
67  -0.000002 -0.601198 -2.062165  0.000000 -0.000000 0.000000
68  0.004380 -0.039406 6.613116  0.000000 -0.000000 0.000000
69  0.000971 -0.021792 0.054850  0.000000 -0.000000 0.000000
70  0.000001 -3.304881 0.259169  0.000000 -0.000000 0.000000
71  1.343992 -14.033440 -7.931969  2.032426 0.309433 0.597454
72  0.057100 0.204434 -2.709597  0.000000 -0.000000 0.000000
73  0.111673 -0.283001 -2.709597  0.000000 -0.000000 0.000000
74  -0.128217 -0.750370 -2.709596  0.000000 -0.000000 0.000000
time 13
0  0 0 0  0 0 0
1  0.000006 0.000000 0.000000  -1.570800 -1.391899 -1.570792
2  -8.138873 1.780375 1.937664  -1.544956 -1.855077 -0.198630
3  6.027517 -0.000326 0.000194  -1.067193 -0.933052 -0.494356
4  11.692106 0.000645 -0.000740  -1.471402 -0.000038 -1.739879
5  11.480465 0.000698 -0.000379  -0.397285 -1.319298 0.742677
6  3.571343 -0.073052 -1.193381  -0.630908 0.056336 -1.699771
7  1.312590 0.000012 0.000008  -0.000395 0.000880 -0.663191
8  0.729354 0.000053 0.000050  -0.000172 0.000021 -0.220360
9  3.942146 0.046273 -0.431512  -0.413547 0.112709 -1.516154
10  1.539110 0.000083 0.000005  -0.001056 0.003240 -0.572825
11  1.196333 0.000145 0.000029  -0.000216 0.000008 -0.647849
12  3.883507 -0.047268 0.431381  -0.386032 0.372160 -1.001174
13  1.719572 -0.000029 0.000014  0.029635 0.017714 -0.994916
14  1.209179 0.000091 0.000012  -0.001849 0.000829 -0.701988
15  3.859666 -0.138474 1.332410  -0.061682 0.488092 -0.444155
16  1.719451 -0.000013 0.000023  -0.017508 -0.024177 -0.574397
17  1.099675 0.000050 0.000006  0.000693 0.002640 -1.571701
18  0.945846 -0.861835 1.304576  -1.769690 -0.354327 -0.275173
19  1.789819 -0.000003 -0.000018  0.008665 0.005630 -0.065006
20  1.207014 -0.000013 -0.000044  0.000321 -0.000553 0.304742
21  5.740637 0.000410 -0.000703  -0.282038 0.000003 0.000071
22  11.481099 0.000357 -0.000734  -0.191407 -0.260256 -0.141984
23  6.027523 -0.000330 0.000203  1.829634 -0.589753 2.202856
24  0.000001 11.692101 -0.000007  -1.170424 -0.613862 -0.892236
25  0.000004 0.000009 -0.000001  -0.602294 -0.000030 1.570739
26  0.000000 -0.000012 -0.000001  0.868957 0.000002 1.570712
27  -5.843360 -7.961716 2.089273  1.473120 1.855075 -0.198639
28  6.027508 -0.000262 -0.000227  1.830631 0.608932 -0.417592
29  11.691991 0.000243 0.000856  0.141450 0.000064 -1.751773
30  11.480115 -0.000474 0.000899  -1.572964 -0.786429 0.841045
31  3.859436 -0.132787 1.193062  0.419753 0.064213 -1.630733
32  1.312558 0.000026 0.000000  0.018649 -0.111950 -0.566450
33  0.729344 0.000066 -0.000028  -0.136092 -0.130379 -0.745071
34  3.942046 0.050109 0.430997  0.227728 0.017432 -1.395883
35  1.539096 0.000005 -0.000000  0.033374 -0.057010 -0.978694
36  1.196300 0.000077 -0.000004  -0.008681 -0.024216 -0.882959
37  3.883411 -0.050501 -0.431086  0.220900 -0.070369 -1.119647
38  1.719564 -0.000081 -0.000004  0.013025 -0.077950 -1.452999
39  1.209198 0.000035 0.000011  0.008192 -0.000795 -0.494142
40  3.859585 -0.149111 -1.331322  -0.144133 0.068146 -0.137838
41  1.719413 -0.000097 -0.000034  -0.015109 -0.000174 -1.071001
42  1.099674 0.000024 0.000007  -0.004386 -0.008133 -0.862854
43  0.805979 -0.359853 -1.318338  0.974252 0.268925 -0.894612
44  1.789779 -0.000008 -0.000042  0.001484 -0.011936 0.235362
45  1.206997 -0.000005 0.000005  0.001538 -0.000068 1.118076
46  5.740572 0.000055 0.000723  0.067524 -0.000014 0.000021
47  11.480968 -0.000059 0.000928  0.065169 -0.171158 0.141275
48  6.027514 -0.000274 -0.000237  -0.657114 -0.358546 -1.724091
49  -0.000001 11.691975 -0.000006  -1.177331 0.620924 0.895932
50  0.000002 -0.000001 -0.000001  2.413975 -0.000041 1.570856
51  -0.000006 -0.000015 0.000005  2.272644 -0.000030 1.570865
52  -6.432759 -5.742138 -5.950553  2.679973 0.445455 -0.952734
53  0.000000 0.000000 -0.000001  0.008153 -0.000259 0.000009
54  0.000000 0.000000 0.000001  1.565115 0.043565 -0.106862
55  2.256267 -14.027912 -12.463186  -1.540408 0.419895 -1.488076
56  0.000000 0.000000 0.000000  0.000000 -0.000000 -0.000002
57  0.000031 0.000030 0.000001  -1.571901 -0.044449 -0.106509
58  8.426761 -19.544212 -16.568478  1.570796 -0.000000 0.000000
59  -15.417985 2.938832 -17.970421  1.570796 -0.000000 0.000000
60  1.941978 -0.304065 -8.327020  1.570796 -0.000000 0.000000
61  -0.004311 0.001229 -0.000371  0.006898 -0.005534 -0.284229
62  2.089273 8.874444 -4.333363  1.570796 -0.000000 0.000000
63  0.000000 0.000000 0.000000  -0.078727 -3.136056 0.284226
64  0.000000 0.000000 0.000000  1.570796 -0.000000 0.000000
65  0.328461 -10.436199 -5.783461  2.074614 0.412047 0.703361
66  0.000002 -2.923558 -1.408041  0.000000 0.000000 -0.000000
67  -0.000003 -0.601198 -2.062163  0.000000 0.000000 -0.000000
68  0.004381 -0.039407 6.613115  0.000000 0.000000 -0.000000
69  0.000971 -0.021792 0.054850  0.000000 0.000000 -0.000000
70  0.000003 -3.304882 0.259169  0.000000 0.000000 -0.000000
71  1.582578 -14.014429 -8.890215  2.074614 0.412047 0.703361
72  0.057100 0.204432 -2.709596  0.000000 0.000000 -0.000000
73  0.111673 -0.283002 -2.709596  0.000000 0.000000 -0.000000
74  -0.128217 -0.750371 -2.709596  0.000000 0.000000 -0.000000
time 14
0  0 0 0  0 0 0
1  0.000006 0.000000 0.000000  -1.570800 -1.391899 -1.570792
2  -8.138873 1.780375 1.937664  -1.544956 -1.855077 -0.198630
3  6.027517 -0.000327 0.000193  -1.020369 -0.956550 -0.428394
4  11.692106 0.000644 -0.000739  -1.471401 -0.000036 -1.704483
5  11.478967 0.000615 -0.001199  -0.473376 -1.330334 0.602928
6  3.571341 -0.073054 -1.193381  -0.630908 0.056337 -1.699771
7  1.312591 0.000010 0.000009  -0.000395 0.000880 -0.663191
8  0.729354 0.000054 0.000049  -0.000172 0.000021 -0.220360
9  3.942143 0.046273 -0.431512  -0.413547 0.112709 -1.516154
10  1.539110 0.000084 0.000006  -0.001056 0.003240 -0.572825
11  1.196332 0.000145 0.000028  -0.000216 0.000008 -0.647849
12  3.883503 -0.047269 0.431381  -0.386032 0.372160 -1.001174
13  1.719573 -0.000028 0.000015  0.029635 0.017714 -0.994916
14  1.209179 0.000091 0.000012  -0.001849 0.000829 -0.701988
15  3.859664 -0.138476 1.332410  -0.061682 0.488092 -0.444155
16  1.719450 -0.000011 0.000022  -0.017508 -0.024177 -0.574397
17  1.099676 0.000047 0.000005  0.000693 0.002640 -1.571702
18  0.945844 -0.861836 1.304575  -1.769690 -0.354327 -0.275173
19  1.789819 -0.000003 -0.000017  0.008665 0.005630 -0.065006
20  1.207016 -0.000010 -0.000043  0.000321 -0.000553 0.304742
21  5.740638 0.000409 -0.000704  -0.284347 0.000003 0.000070
22  11.480801 0.000339 -0.000900  -0.217528 -0.249968 -0.174455
23  6.027523 -0.000330 0.000203  1.788186 -0.579278 2.329642
24  0.000000 11.692099 -0.000008  -1.149678 -0.592913 -0.881156
25  0.000002 0.000008 -0.000000  -0.602294 -0.000031 1.570739
26  -0.000002 -0.000011 -0.000001  0.868957 0.000002 1.570712
27  -5.843360 -7.961716 2.089273  1.473120 1.855075 -0.198639
28  6.027508 -0.000261 -0.000227  1.812483 0.615304 -0.420785
29  11.691994 0.000244 0.000857  0.141449 0.000060 -1.688869
30  11.478746 -0.001208 0.001003  -1.680746 -0.808672 0.778161
31  3.859436 -0.132787 1.193061  0.419753 0.064213 -1.630733
32  1.312557 0.000025 -0.000000  0.018649 -0.111950 -0.566450
33  0.729344 0.000065 -0.000028  -0.136092 -0.130379 -0.745071
34  3.942046 0.050109 0.430995  0.227729 0.017433 -1.395883
35  1.539096 0.000004 0.000001  0.033374 -0.057010 -0.978694
36  1.196300 0.000076 -0.000004  -0.008681 -0.024216 -0.882959
37  3.883411 -0.050502 -0.431089  0.220900 -0.070369 -1.119647
38  1.719564 -0.000081 -0.000003  0.013025 -0.077950 -1.452999
39  1.209197 0.000035 0.000012  0.008192 -0.000795 -0.494142
40  3.859584 -0.149112 -1.331324  -0.144133 0.068146 -0.137838
41  1.719412 -0.000098 -0.000035  -0.015109 -0.000173 -1.071001
42  1.099673 0.000025 0.000006  -0.004386 -0.008133 -0.862854
43  0.805978 -0.359854 -1.318339  0.974252 0.268925 -0.894612
44  1.789779 -0.000008 -0.000042  0.001484 -0.011936 0.235362
45  1.206997 -0.000005 0.000005  0.001538 -0.000068 1.118076
46  5.740572 0.000055 0.000724  0.031054 -0.000014 0.000021
47  11.480694 -0.000205 0.000949  0.042359 -0.182854 0.122948
48  6.027514 -0.000274 -0.000237  -0.667948 -0.371147 -1.712989
49  0.000000 11.691975 -0.000007  -1.140465 0.583712 0.876205
50  0.000003 -0.000001 -0.000001  2.413975 -0.000041 1.570856
51  -0.000006 -0.000016 0.000005  2.272644 -0.000030 1.570865
52  -6.615448 -6.263797 -6.392233  2.583305 0.457313 -0.919624
53  0.000000 0.000000 -0.000002  0.008153 -0.000259 0.000009
54  -0.000000 0.000000 -0.000001  1.565115 0.043565 -0.106862
55  2.168154 -14.172468 -13.238314  -1.628445 0.385999 -1.447317
56  -0.000001 0.000000 0.000000  0.000000 -0.000000 -0.000002
57  0.000029 0.000029 0.000001  -1.571901 -0.044449 -0.106509
58  8.426761 -19.544212 -16.568478  1.570796 -0.000000 0.000000
59  -15.417985 2.938832 -17.970421  1.570796 -0.000000 0.000000
60  1.941978 -0.304065 -8.327020  1.570796 -0.000000 0.000000
61  -0.004311 0.001229 -0.000371  0.006898 -0.005534 -0.284229
62  2.089273 8.874444 -4.333363  1.570796 -0.000000 0.000000
63  0.000000 0.000000 0.000000  -0.078727 -3.136056 0.284226
64  0.000000 0.000000 0.000000  1.570796 -0.000000 0.000000
65  0.479236 -10.436199 -6.573227  2.098498 0.497171 0.789163
66  0.000002 -2.923557 -1.408043  -0.000000 0.000000 0.000000
67  -0.000003 -0.601197 -2.062165  -0.000000 0.000000 0.000000
68  0.004380 -0.039405 6.613115  -0.000000 0.000000 0.000000
69  0.000970 -0.021791 0.054850  -0.000000 0.000000 0.000000
70  0.000001 -3.304879 0.259168  -0.000000 0.000000 0.000000
71  1.766509 -14.048318 -9.626745  2.098498 0.497171 0.789163
72  0.057100 0.204433 -2.709596  -0.000000 0.000000 0.000000
73  0.111673 -0.283001 -2.709596  -0.000000 0.000000 0.000000
74  -0.128217 -0.750369 -2.709596  -0.000000 0.000000 0.000000
time 15
0  0 0 0  0 0 0
1  0.000006 0.000000 0.000000  -1.570800 -1.391899 -1.570792
2  -8.138873 1.780375 1.937664  -1.544956 -1.855077 -0.198630
3  6.027517 -0.000327 0.000193  -0.999706 -0.969256 -0.406903
4  11.692106 0.000644 -0.000739  -1.471400 -0.000034 -1.685178
5  11.479094 0.000623 -0.001139  -0.497811 -1.337045 0.539448
6  3.571342 -0.073054 -1.193380  -0.630908 0.056337 -1.699771
7  1.312592 0.000011 0.000008  -0.000395 0.000880 -0.663191
8  0.729353 0.000051 0.000049  -0.000172 0.000021 -0.220360
9  3.942144 0.046274 -0.431511  -0.413547 0.112709 -1.516154
10  1.539111 0.000084 0.000006  -0.001056 0.003240 -0.572825
11  1.196332 0.000147 0.000030  -0.000216 0.000008 -0.647849
12  3.883506 -0.047269 0.431382  -0.386032 0.372160 -1.001174
13  1.719575 -0.000027 0.000015  0.029635 0.017714 -0.994916
14  1.209180 0.000092 0.000011  -0.001849 0.000829 -0.701988
15  3.859664 -0.138477 1.332411  -0.061682 0.488092 -0.444155
16  1.719452 -0.000013 0.000023  -0.017508 -0.024177 -0.574397
17  1.099675 0.000049 0.000006  0.000693 0.002640 -1.571701
18  0.945843 -0.861837 1.304576  -1.769690 -0.354327 -0.275173
19  1.789819 -0.000004 -0.000018  0.008665 0.005630 -0.065006
20  1.207016 -0.000011 -0.000044  0.000321 -0.000553 0.304742
21  5.740636 0.000411 -0.000701  -0.285671 0.000003 0.000071
22  11.480826 0.000342 -0.000888  -0.227742 -0.245079 -0.188136
23  6.027523 -0.000330 0.000203  -1.371998 -2.569892 -0.763379
24  0.000003 11.692101 -0.000008  -1.138369 -0.581569 -0.874960
25  0.000003 0.000009 0.000000  -0.602294 -0.000031 1.570739
26  0.000001 -0.000011 -0.000001  0.868957 0.000002 1.570712
27  -5.843360 -7.961716 2.089273  1.473120 1.855075 -0.198639
28  6.027508 -0.000261 -0.000227  1.804752 0.619441 -0.421861
29  11.691993 0.000243 0.000858  0.141449 0.000058 -1.660977
30  11.479118 -0.000982 0.000971  -1.726937 -0.815882 0.748968
31  3.859436 -0.132788 1.193062  0.419753 0.064214 -1.630733
32  1.312558 0.000025 -0.000000  0.018650 -0.111950 -0.566450
33  0.729344 0.000066 -0.000028  -0.136092 -0.130379 -0.745071
34  3.942046 0.050108 0.430998  0.227728 0.017433 -1.395883
35  1.539096 0.000005 0.000000  0.033374 -0.057010 -0.978694
36  1.196300 0.000076 -0.000004  -0.008681 -0.024216 -0.882959
37  3.883412 -0.050502 -0.431086  0.220900 -0.070369 -1.119647
38  1.719564 -0.000081 -0.000003  0.013025 -0.077950 -1.452999
39  1.209197 0.000035 0.000011  0.008192 -0.000795 -0.494142
40  3.859584 -0.149112 -1.331322  -0.144133 0.068146 -0.137838
41  1.719413 -0.000097 -0.000033  -0.015109 -0.000174 -1.071001
42  1.099674 0.000024 0.000007  -0.004386 -0.008133 -0.862854
43  0.805979 -0.359854 -1.318337  0.974252 0.268925 -0.894612
44  1.789780 -0.000008 -0.000042  0.001484 -0.011936 0.235362
45  1.206996 -0.000005 0.000005  0.001538 -0.000068 1.118076
46  5.740573 0.000056 0.000724  0.016036 -0.000014 0.000021
47  11.480768 -0.000160 0.000943  0.032152 -0.187026 0.114712
48  6.027514 -0.000274 -0.000237  -0.674100 -0.376051 -1.707345
49  -0.000000 11.691975 -0.000008  -1.124125 0.567409 0.867091
50  0.000002 -0.000000 0.000001  2.413975 -0.000041 1.570856
51  -0.000006 -0.000016 0.000005  2.272644 -0.000030 1.570865
52  -6.685927 -6.489486 -6.580040  2.539252 0.459798 -0.906807
53  -0.000001 0.000000 0.000000  0.008153 -0.000259 0.000009
54  0.000000 0.000000 0.000001  1.565115 0.043565 -0.106862
55  2.124816 -14.266941 -13.540612  -1.666551 0.368349 -1.429033
56  0.000002 0.000001 -0.000000  0.000000 -0.000000 -0.000002
57  0.000032 0.000030 0.000001  -1.571901 -0.044449 -0.106509
58  8.426761 -19.544212 -16.568478  1.570796 -0.000000 0.000000
59  -15.417985 2.938832 -17.970421  1.570796 -0.000000 0.000000
60  1.941978 -0.304065 -8.327020  1.570796 -0.000000 0.000000
61  -0.004311 0.001229 -0.000371  0.006898 -0.005534 -0.284229
62  2.089273 8.874444 -4.333363  1.570796 -0.000000 0.000000
63  0.000000 0.000000 0.000000  -0.078727 -3.136056 0.284226
64  0.000000 0.000000 0.000000  1.570796 -0.000000 0.000000
65  0.531668 -10.436199 -6.905642  2.108116 0.535857 0.826234
66  0.000002 -2.923558 -1.408042  0.000000 -0.000000 -0.000000
67  -0.000002 -0.601198 -2.062164  0.000000 -0.000000 -0.000000
68  0.004380 -0.039407 6.613115  0.000000 -0.000000 -0.000000
69  0.000970 -0.021793 0.054850  0.000000 -0.000000 -0.000000
70  0.000002 -3.304881 0.259168  0.000000 -0.000000 -0.000000
71  1.836597 -14.073740 -9.921252  2.108116 0.535857 0.826234
72  0.057100 0.204433 -2.709597  0.000000 -0.000000 -0.000000
73  0.111673 -0.283001 -2.709597  0.000000 -0.000000 -0.000000
74  -0.128218 -0.750370 -2.709596  0.000000 -0.000000 -0.000000
end
