version 1
nodes
0 "blender_implicit" -1
1 "ValveBiped.Bip01_Spine4" -1
2 "ValveBiped.Bip01_L_Clavicle" 1
3 "ValveBiped.Bip01_L_UpperArm" 2
4 "ValveBiped.Bip01_L_Forearm" 3
5 "ValveBiped.Bip01_L_Hand" 4
6 "ValveBiped.Bip01_L_Finger4" 5
7 "ValveBiped.Bip01_L_Finger41" 6
8 "ValveBiped.Bip01_L_Finger42" 7
9 "ValveBiped.Bip01_L_Finger3" 5
10 "ValveBiped.Bip01_L_Finger31" 9
11 "ValveBiped.Bip01_L_Finger32" 10
12 "ValveBiped.Bip01_L_Finger2" 5
13 "ValveBiped.Bip01_L_Finger21" 12
14 "ValveBiped.Bip01_L_Finger22" 13
15 "ValveBiped.Bip01_L_Finger1" 5
16 "ValveBiped.Bip01_L_Finger11" 15
17 "ValveBiped.Bip01_L_Finger12" 16
18 "ValveBiped.Bip01_L_Finger0" 5
19 "ValveBiped.Bip01_L_Finger01" 18
20 "ValveBiped.Bip01_L_Finger02" 19
21 "ValveBiped.Bip01_L_Ulna" 4
22 "ValveBiped.Bip01_L_Wrist" 4
23 "rig_l_upperarm" 2
24 "rig_l_forearm" 23
25 "rig_d_l_forearm" 24
26 "rig_d_l_upperarm" 23
27 "ValveBiped.Bip01_R_Clavicle" 1
28 "ValveBiped.Bip01_R_UpperArm" 27
29 "ValveBiped.Bip01_R_Forearm" 28
30 "ValveBiped.Bip01_R_Hand" 29
31 "ValveBiped.Bip01_R_Finger4" 30
32 "ValveBiped.Bip01_R_Finger41" 31
33 "ValveBiped.Bip01_R_Finger42" 32
34 "ValveBiped.Bip01_R_Finger3" 30
35 "ValveBiped.Bip01_R_Finger31" 34
36 "ValveBiped.Bip01_R_Finger32" 35
37 "ValveBiped.Bip01_R_Finger2" 30
38 "ValveBiped.Bip01_R_Finger21" 37
39 "ValveBiped.Bip01_R_Finger22" 38
40 "ValveBiped.Bip01_R_Finger1" 30
41 "ValveBiped.Bip01_R_Finger11" 40
42 "ValveBiped.Bip01_R_Finger12" 41
43 "ValveBiped.Bip01_R_Finger0" 30
44 "ValveBiped.Bip01_R_Finger01" 43
45 "ValveBiped.Bip01_R_Finger02" 44
46 "ValveBiped.Bip01_R_Ulna" 29
47 "ValveBiped.Bip01_R_Wrist" 29
48 "rig_r_upperarm" 27
49 "rig_r_forearm" 48
50 "rig_d_r_forearm" 49
51 "rig_d_r_upperarm" 48
52 "rig_r_hand" -1
53 "rig_d_r_hand" 52
54 "rig_d_r_wrist" 53
55 "rig_l_hand" -1
56 "rig_d_l_hand" 55
57 "rig_d_l_wrist" 55
58 "rig_l_pole" -1
59 "rig_r_pole" -1
60 "rig_l_clavicle" -1
61 "rig_d_l_clavicle" 60
62 "rig_r_clavicle" -1
63 "rig_d_r_clavicle" 62
64 "Camera" -1
65 "body" -1
66 "trigger" 65
67 "boltprot" 65
68 "bolt" 67
69 "hammer" 67
70 "magrel" 65
71 "mag" -1
72 "round1" 71
73 "round2" 71
74 "round3" 71
end
skeleton
time 0
0  0 0 0  0 0 0
1  0.000006 0.000000 0.000000  -1.570800 -1.391899 -1.570792
2  -8.138873 1.780375 1.937664  -1.544956 -1.855077 -0.198630
3  6.027523 -0.000328 0.000192  -0.595384 -1.344415 -1.536338
4  11.692111 0.000644 -0.000739  -1.471379 -0.000006 -1.204830
5  11.480181 0.000696 -0.000399  1.134132 -0.929153 0.409442
6  3.571338 -0.073053 -1.193382  -0.630908 0.056337 -1.699771
7  1.312590 0.000013 0.000007  -0.000395 0.000880 -0.663191
8  0.729354 0.000053 0.000050  -0.000172 0.000021 -0.220360
9  3.942143 0.046273 -0.431512  -0.413547 0.112709 -1.516154
10  1.539111 0.000085 0.000006  -0.001056 0.003239 -0.572825
11  1.196333 0.000147 0.000029  -0.000216 0.000008 -0.647849
12  3.883504 -0.047269 0.431381  -0.386032 0.372160 -1.001174
13  1.719574 -0.000029 0.000016  0.029634 0.017714 -0.994916
14  1.209180 0.000094 0.000013  -0.001849 0.000829 -0.701988
15  3.859663 -0.138475 1.332410  -0.061682 0.488092 -0.444155
16  1.719449 -0.000013 0.000022  -0.017508 -0.024177 -0.574397
17  1.099675 0.000048 0.000007  0.000693 0.002640 -1.571702
18  0.945844 -0.861836 1.304575  -1.769690 -0.354327 -0.275173
19  1.789821 -0.000004 -0.000017  0.008665 0.005630 -0.065006
20  1.207017 -0.000012 -0.000042  0.000321 -0.000553 0.304742
21  5.740637 0.000411 -0.000701  -0.125075 0.000003 0.000070
22  11.481043 0.000351 -0.000735  -0.038088 -0.174403 0.025676
23  6.027523 -0.000330 0.000203  1.546329 -0.225161 1.714479
24  0.000001 11.692099 -0.000008  -0.850794 -0.322190 -0.688684
25  0.000004 0.000008 -0.000001  -0.602294 -0.000030 1.570739
26  -0.000001 -0.000011 -0.000001  0.868957 0.000002 1.570712
27  -5.843360 -7.961716 2.089273  1.473120 1.855075 -0.198639
28  6.027507 -0.000260 -0.000231  1.607344 0.530249 -0.478151
29  11.691990 0.000242 0.000855  0.141450 0.000082 -1.987792
30  11.480552 -0.000158 0.000854  -0.931230 0.112715 0.792938
31  3.859436 -0.132787 1.193063  0.419753 0.064213 -1.630733
32  1.312558 0.000023 0.000000  0.018649 -0.111950 -0.566450
33  0.729345 0.000066 -0.000027  -0.136092 -0.130379 -0.745071
34  3.942046 0.050109 0.430998  0.227728 0.017433 -1.395883
35  1.539096 0.000006 -0.000000  0.033374 -0.057010 -0.978694
36  1.196300 0.000076 -0.000004  -0.008681 -0.024216 -0.882959
37  3.883410 -0.050502 -0.431086  0.220900 -0.070369 -1.119647
38  1.719564 -0.000081 -0.000003  0.013025 -0.077950 -1.452999
39  1.209197 0.000035 0.000011  0.008192 -0.000795 -0.494142
40  3.859584 -0.149111 -1.331322  -0.144133 0.068146 -0.137838
41  1.719412 -0.000097 -0.000035  -0.015109 -0.000174 -1.071001
42  1.099673 0.000024 0.000008  -0.004386 -0.008133 -0.862854
43  0.805978 -0.359854 -1.318337  0.974252 0.268925 -0.894612
44  1.789779 -0.000008 -0.000042  0.001484 -0.011936 0.235362
45  1.206997 -0.000006 0.000006  0.001538 -0.000068 1.118076
46  5.740573 0.000055 0.000723  0.194253 -0.000014 0.000021
47  11.481056 0.000004 0.000920  0.119975 0.045386 0.132320
48  6.027514 -0.000274 -0.000237  -0.640401 -0.561626 -1.671244
49  -0.000002 11.691975 -0.000007  -1.317694 0.765265 0.958721
50  0.000003 -0.000002 -0.000000  2.413975 -0.000041 1.570856
51  -0.000007 -0.000015 0.000005  2.272644 -0.000030 1.570865
52  -4.172505 -3.734002 -7.211127  3.082035 -0.061401 -1.468313
53  -0.000000 -0.000000 -0.000000  0.008153 -0.000259 0.000009
54  -0.000000 0.000000 0.000001  1.565115 0.043565 -0.106862
55  -0.427259 -17.046837 -5.668183  -0.930273 0.155380 -1.904209
56  -0.000001 -0.000000 0.000000  0.000000 -0.000000 -0.000002
57  0.000029 0.000029 0.000001  -1.571901 -0.044449 -0.106509
58  8.426761 -19.544212 -16.568478  1.570796 -0.000000 0.000000
59  -15.417985 2.938832 -17.970421  1.570796 -0.000000 0.000000
60  1.941978 -0.304065 -8.327020  1.570796 -0.000000 0.000000
61  -0.004311 0.001229 -0.000371  0.006898 -0.005534 -0.284229
62  2.089273 8.874444 -4.333363  1.570796 -0.000000 0.000000
63  0.000000 0.000000 0.000000  -0.078727 -3.136056 0.284226
64  -1.323515 -3.374783 -1.436323  1.570796 -0.000000 0.000000
65  -2.320994 -10.436199 -1.933373  1.570796 -0.000000 0.000000
66  0.000002 -2.923558 -1.408042  0.000000 -0.000000 0.000000
67  -0.000002 -0.601197 -2.062164  0.000000 -0.000000 0.000000
68  0.004380 -0.039407 6.613115  0.000000 -0.000000 0.000000
69  0.000002 -0.021786 -0.115849  0.000000 -0.000000 0.000000
70  0.000002 -3.304881 0.259169  0.000000 -0.000000 0.000000
71  -2.320996 -15.173336 -3.193526  1.570796 -0.000000 0.000000
72  0.057100 0.204433 -2.709597  0.000000 -0.000000 0.000000
73  0.111673 -0.283001 -2.709597  0.000000 -0.000000 0.000000
74  -0.128217 -0.750370 -2.709597  0.000000 -0.000000 0.000000
end
