version 1
nodes
0 "blender_implicit" -1
1 "ValveBiped.Bip01_Spine4" -1
2 "ValveBiped.Bip01_L_Clavicle" 1
3 "ValveBiped.Bip01_L_UpperArm" 2
4 "ValveBiped.Bip01_L_Forearm" 3
5 "ValveBiped.Bip01_L_Hand" 4
6 "ValveBiped.Bip01_L_Finger4" 5
7 "ValveBiped.Bip01_L_Finger41" 6
8 "ValveBiped.Bip01_L_Finger42" 7
9 "ValveBiped.Bip01_L_Finger3" 5
10 "ValveBiped.Bip01_L_Finger31" 9
11 "ValveBiped.Bip01_L_Finger32" 10
12 "ValveBiped.Bip01_L_Finger2" 5
13 "ValveBiped.Bip01_L_Finger21" 12
14 "ValveBiped.Bip01_L_Finger22" 13
15 "ValveBiped.Bip01_L_Finger1" 5
16 "ValveBiped.Bip01_L_Finger11" 15
17 "ValveBiped.Bip01_L_Finger12" 16
18 "ValveBiped.Bip01_L_Finger0" 5
19 "ValveBiped.Bip01_L_Finger01" 18
20 "ValveBiped.Bip01_L_Finger02" 19
21 "ValveBiped.Bip01_L_Ulna" 4
22 "ValveBiped.Bip01_L_Wrist" 4
23 "rig_l_upperarm" 2
24 "rig_l_forearm" 23
25 "rig_d_l_forearm" 24
26 "rig_d_l_upperarm" 23
27 "ValveBiped.Bip01_R_Clavicle" 1
28 "ValveBiped.Bip01_R_UpperArm" 27
29 "ValveBiped.Bip01_R_Forearm" 28
30 "ValveBiped.Bip01_R_Hand" 29
31 "ValveBiped.Bip01_R_Finger4" 30
32 "ValveBiped.Bip01_R_Finger41" 31
33 "ValveBiped.Bip01_R_Finger42" 32
34 "ValveBiped.Bip01_R_Finger3" 30
35 "ValveBiped.Bip01_R_Finger31" 34
36 "ValveBiped.Bip01_R_Finger32" 35
37 "ValveBiped.Bip01_R_Finger2" 30
38 "ValveBiped.Bip01_R_Finger21" 37
39 "ValveBiped.Bip01_R_Finger22" 38
40 "ValveBiped.Bip01_R_Finger1" 30
41 "ValveBiped.Bip01_R_Finger11" 40
42 "ValveBiped.Bip01_R_Finger12" 41
43 "ValveBiped.Bip01_R_Finger0" 30
44 "ValveBiped.Bip01_R_Finger01" 43
45 "ValveBiped.Bip01_R_Finger02" 44
46 "ValveBiped.Bip01_R_Ulna" 29
47 "ValveBiped.Bip01_R_Wrist" 29
48 "rig_r_upperarm" 27
49 "rig_r_forearm" 48
50 "rig_d_r_forearm" 49
51 "rig_d_r_upperarm" 48
52 "rig_r_hand" -1
53 "rig_d_r_hand" 52
54 "rig_d_r_wrist" 53
55 "rig_l_hand" -1
56 "rig_d_l_hand" 55
57 "rig_d_l_wrist" 55
58 "rig_l_pole" -1
59 "rig_r_pole" -1
60 "rig_l_clavicle" -1
61 "rig_d_l_clavicle" 60
62 "rig_r_clavicle" -1
63 "rig_d_r_clavicle" 62
64 "Camera" -1
65 "body" -1
66 "trigger" 65
67 "boltprot" 65
68 "bolt" 67
69 "hammer" 67
70 "magrel" 65
71 "mag" -1
72 "round1" 71
73 "round2" 71
74 "round3" 71
end
skeleton
time 0
0  0 0 0  0 0 0
1  0.000006 0.000000 0.000000  -1.570800 -1.391899 -1.570792
2  -8.138873 1.780375 1.937664  -1.544956 -1.855077 -0.198630
3  6.027523 -0.000328 0.000192  -0.595384 -1.344415 -1.536338
4  11.692111 0.000644 -0.000739  -1.471379 -0.000006 -1.204830
5  11.480181 0.000696 -0.000399  1.134132 -0.929153 0.409442
6  3.571338 -0.073053 -1.193382  -0.630908 0.056337 -1.699771
7  1.312590 0.000013 0.000007  -0.000395 0.000880 -0.663191
8  0.729354 0.000053 0.000050  -0.000172 0.000021 -0.220360
9  3.942143 0.046273 -0.431512  -0.413547 0.112709 -1.516154
10  1.539111 0.000085 0.000006  -0.001056 0.003239 -0.572825
11  1.196333 0.000147 0.000029  -0.000216 0.000008 -0.647849
12  3.883504 -0.047269 0.431381  -0.386032 0.372160 -1.001174
13  1.719574 -0.000029 0.000016  0.029634 0.017714 -0.994916
14  1.209180 0.000094 0.000013  -0.001849 0.000829 -0.701988
15  3.859663 -0.138475 1.332410  -0.061682 0.488092 -0.444155
16  1.719449 -0.000013 0.000022  -0.017508 -0.024177 -0.574397
17  1.099675 0.000048 0.000007  0.000693 0.002640 -1.571702
18  0.945844 -0.861836 1.304575  -1.769690 -0.354327 -0.275173
19  1.789821 -0.000004 -0.000017  0.008665 0.005630 -0.065006
20  1.207017 -0.000012 -0.000042  0.000321 -0.000553 0.304742
21  5.740637 0.000411 -0.000701  -0.125075 0.000003 0.000070
22  11.481043 0.000351 -0.000735  -0.038088 -0.174403 0.025676
23  6.027523 -0.000330 0.000203  1.546329 -0.225161 1.714479
24  0.000001 11.692099 -0.000008  -0.850794 -0.322190 -0.688684
25  0.000004 0.000008 -0.000001  -0.602294 -0.000030 1.570739
26  -0.000001 -0.000011 -0.000001  0.868957 0.000002 1.570712
27  -5.843360 -7.961716 2.089273  1.473120 1.855075 -0.198639
28  6.027507 -0.000260 -0.000231  1.607344 0.530249 -0.478151
29  11.691990 0.000242 0.000855  0.141450 0.000082 -1.987792
30  11.480552 -0.000158 0.000854  -0.931230 0.112715 0.792938
31  3.859436 -0.132787 1.193063  0.419753 0.064213 -1.630733
32  1.312558 0.000023 0.000000  0.018649 -0.111950 -0.566450
33  0.729345 0.000066 -0.000027  -0.136092 -0.130379 -0.745071
34  3.942046 0.050109 0.430998  0.227728 0.017433 -1.395883
35  1.539096 0.000006 -0.000000  0.033374 -0.057010 -0.978694
36  1.196300 0.000076 -0.000004  -0.008681 -0.024216 -0.882959
37  3.883410 -0.050502 -0.431086  0.220900 -0.070369 -1.119647
38  1.719564 -0.000081 -0.000003  0.013025 -0.077950 -1.452999
39  1.209197 0.000035 0.000011  0.008192 -0.000795 -0.494142
40  3.859584 -0.149111 -1.331322  -0.144133 0.068146 -0.137838
41  1.719412 -0.000097 -0.000035  -0.015109 -0.000174 -1.071001
42  1.099673 0.000024 0.000008  -0.004386 -0.008133 -0.862854
43  0.805978 -0.359854 -1.318337  0.974252 0.268925 -0.894612
44  1.789779 -0.000008 -0.000042  0.001484 -0.011936 0.235362
45  1.206997 -0.000006 0.000006  0.001538 -0.000068 1.118076
46  5.740573 0.000055 0.000723  0.194253 -0.000014 0.000021
47  11.481056 0.000004 0.000920  0.119975 0.045386 0.132320
48  6.027514 -0.000274 -0.000237  -0.640401 -0.561626 -1.671244
49  -0.000002 11.691975 -0.000007  -1.317694 0.765265 0.958721
50  0.000003 -0.000002 -0.000000  2.413975 -0.000041 1.570856
51  -0.000007 -0.000015 0.000005  2.272644 -0.000030 1.570865
52  -4.172505 -3.734002 -7.211127  3.082035 -0.061401 -1.468313
53  -0.000000 -0.000000 -0.000000  0.008153 -0.000259 0.000009
54  -0.000000 0.000000 0.000001  1.565115 0.043565 -0.106862
55  -0.427259 -17.046837 -5.668183  -0.930273 0.155380 -1.904209
56  -0.000001 -0.000000 0.000000  0.000000 -0.000000 -0.000002
57  0.000029 0.000029 0.000001  -1.571901 -0.044449 -0.106509
58  8.426761 -19.544212 -16.568478  1.570796 -0.000000 0.000000
59  -15.417985 2.938832 -17.970421  1.570796 -0.000000 0.000000
60  1.941978 -0.304065 -8.327020  1.570796 -0.000000 0.000000
61  -0.004311 0.001229 -0.000371  0.006898 -0.005534 -0.284229
62  2.089273 8.874444 -4.333363  1.570796 -0.000000 0.000000
63  0.000000 0.000000 0.000000  -0.078727 -3.136056 0.284226
64  1.000000 0.000000 -0.750000  1.570796 -0.000000 0.000000
65  -2.320994 -10.436199 -1.933373  1.570796 -0.000000 0.000000
66  0.000002 -2.923558 -1.408042  0.000000 -0.000000 0.000000
67  -0.000002 -0.601197 -2.062164  0.000000 -0.000000 0.000000
68  0.004380 -0.039407 6.613115  0.000000 -0.000000 0.000000
69  0.000970 -0.021792 0.054851  0.000000 -0.000000 -0.000000
70  0.000002 -3.304881 0.259169  0.000000 -0.000000 0.000000
71  -2.320996 -15.173336 -3.193526  1.570796 -0.000000 0.000000
72  0.057100 0.204433 -2.709597  0.000000 -0.000000 -0.000000
73  0.111673 -0.283001 -2.709597  0.000000 -0.000000 -0.000000
74  -0.128217 -0.750370 -2.709597  0.000000 0.000000 0.000000
time 1
0  0 0 0  0 0 0
1  0.000006 0.000000 0.000000  -1.570800 -1.391899 -1.570792
2  -8.138873 1.780375 1.937664  -1.544956 -1.855077 -0.198630
3  6.027523 -0.000328 0.000192  -0.593865 -1.344406 -1.537127
4  11.692111 0.000642 -0.000739  -1.471379 -0.000006 -1.204157
5  11.480183 0.000695 -0.000399  1.132107 -0.928518 0.409089
6  3.571341 -0.073052 -1.193381  -0.630908 0.056337 -1.699771
7  1.312590 0.000010 0.000005  -0.000395 0.000880 -0.663191
8  0.729353 0.000053 0.000051  -0.000172 0.000021 -0.220360
9  3.942145 0.046274 -0.431512  -0.413547 0.112709 -1.516154
10  1.539111 0.000086 0.000006  -0.001056 0.003240 -0.572825
11  1.196331 0.000147 0.000031  -0.000216 0.000008 -0.647849
12  3.883505 -0.047268 0.431382  -0.386032 0.372160 -1.001174
13  1.719573 -0.000028 0.000014  0.029635 0.017714 -0.994916
14  1.209179 0.000093 0.000013  -0.001849 0.000829 -0.701988
15  3.859663 -0.138475 1.332410  -0.061682 0.488092 -0.444155
16  1.719449 -0.000012 0.000022  -0.017509 -0.024177 -0.574397
17  1.099675 0.000049 0.000004  0.000693 0.002640 -1.571702
18  0.945844 -0.861835 1.304576  -1.769690 -0.354327 -0.275173
19  1.789817 -0.000003 -0.000019  0.008665 0.005630 -0.065006
20  1.207016 -0.000012 -0.000044  0.000321 -0.000553 0.304742
21  5.740636 0.000410 -0.000703  -0.125401 0.000003 0.000071
22  11.481041 0.000351 -0.000737  -0.038495 -0.174327 0.025462
23  6.027523 -0.000330 0.000203  1.545981 -0.225133 1.715249
24  0.000001 11.692099 -0.000008  -0.850375 -0.321864 -0.688382
25  0.000003 0.000009 -0.000001  -0.602294 -0.000030 1.570739
26  -0.000001 -0.000011 -0.000001  0.868957 0.000002 1.570712
27  -5.843360 -7.961716 2.089273  1.473120 1.855075 -0.198639
28  6.027507 -0.000260 -0.000231  1.608499 0.530248 -0.477955
29  11.691993 0.000243 0.000856  0.141450 0.000082 -1.987575
30  11.480549 -0.000154 0.000853  -0.932882 0.111024 0.793455
31  3.859436 -0.132788 1.193062  0.419753 0.064213 -1.630733
32  1.312558 0.000025 0.000000  0.018650 -0.111950 -0.566450
33  0.729345 0.000066 -0.000028  -0.136092 -0.130379 -0.745071
34  3.942047 0.050109 0.430997  0.227728 0.017433 -1.395883
35  1.539096 0.000005 -0.000000  0.033374 -0.057010 -0.978694
36  1.196299 0.000075 -0.000003  -0.008681 -0.024216 -0.882959
37  3.883412 -0.050502 -0.431087  0.220900 -0.070369 -1.119647
38  1.719563 -0.000082 -0.000004  0.013025 -0.077950 -1.452999
39  1.209198 0.000034 0.000011  0.008192 -0.000795 -0.494142
40  3.859585 -0.149112 -1.331323  -0.144133 0.068146 -0.137838
41  1.719412 -0.000097 -0.000034  -0.015109 -0.000174 -1.071001
42  1.099674 0.000025 0.000007  -0.004386 -0.008133 -0.862854
43  0.805979 -0.359854 -1.318337  0.974252 0.268925 -0.894612
44  1.789780 -0.000008 -0.000043  0.001484 -0.011936 0.235362
45  1.206996 -0.000005 0.000006  0.001538 -0.000068 1.118076
46  5.740571 0.000055 0.000724  0.194108 -0.000014 0.000021
47  11.481052 0.000006 0.000920  0.119789 0.044982 0.132559
48  6.027514 -0.000274 -0.000237  -0.639966 -0.560701 -1.671864
49  -0.000001 11.691977 -0.000008  -1.317562 0.765129 0.958672
50  0.000002 -0.000002 0.000000  2.413975 -0.000041 1.570856
51  -0.000007 -0.000015 0.000004  2.272644 -0.000030 1.570865
52  -4.182118 -3.736475 -7.203502  3.080554 -0.060517 -1.468223
53  0.000001 0.000000 -0.000001  0.008153 -0.000259 0.000009
54  0.000000 -0.000001 0.000000  1.565115 0.043565 -0.106862
55  -0.434476 -17.050423 -5.676095  -0.932007 0.155557 -1.904478
56  -0.000001 -0.000000 0.000000  0.000000 -0.000000 -0.000002
57  0.000030 0.000029 0.000001  -1.571902 -0.044449 -0.106509
58  8.426761 -19.544212 -16.568478  1.570796 -0.000000 0.000000
59  -15.417985 2.938832 -17.970421  1.570796 -0.000000 0.000000
60  1.941978 -0.304065 -8.327020  1.570796 -0.000000 0.000000
61  -0.004311 0.001229 -0.000371  0.006898 -0.005534 -0.284229
62  2.089273 8.874444 -4.333363  1.570796 -0.000000 0.000000
63  0.000000 0.000000 0.000000  -0.078727 -3.136056 0.284226
64  1.000000 0.000000 -0.750000  1.570796 -0.000443 -0.000000
65  -2.322379 -10.442511 -1.933524  1.571524 0.001560 0.000001
66  0.000002 -2.923558 -1.408043  0.000000 0.000000 0.000000
67  -0.000002 -0.601198 -2.062165  0.000000 0.000000 0.000000
68  0.004380 -0.039407 6.613115  0.000000 0.000000 0.000000
69  0.000970 -0.021792 0.054849  0.000000 -0.000000 -0.000000
70  0.000002 -3.304881 0.259168  0.000000 0.000000 0.000000
71  -2.324348 -15.178728 -3.197124  1.571524 0.001560 0.000001
72  0.057100 0.204433 -2.709597  0.000000 -0.000000 0.000000
73  0.111673 -0.283001 -2.709597  0.000000 -0.000000 0.000000
74  -0.128217 -0.750370 -2.709597  0.000000 0.000000 0.000000
time 2
0  0 0 0  0 0 0
1  0.000006 0.000000 0.000000  -1.570800 -1.391899 -1.570792
2  -8.138873 1.780375 1.937664  -1.544956 -1.855077 -0.198630
3  6.027523 -0.000328 0.000192  -0.590172 -1.344347 -1.538937
4  11.692111 0.000643 -0.000738  -1.471379 -0.000006 -1.202503
5  11.480191 0.000696 -0.000393  1.127037 -0.926909 0.408158
6  3.571340 -0.073053 -1.193380  -0.630908 0.056337 -1.699771
7  1.312590 0.000012 0.000006  -0.000395 0.000880 -0.663191
8  0.729356 0.000055 0.000050  -0.000172 0.000021 -0.220360
9  3.942143 0.046273 -0.431512  -0.413547 0.112709 -1.516154
10  1.539111 0.000084 0.000006  -0.001056 0.003240 -0.572825
11  1.196333 0.000145 0.000030  -0.000216 0.000008 -0.647849
12  3.883505 -0.047269 0.431382  -0.386032 0.372160 -1.001174
13  1.719575 -0.000026 0.000014  0.029634 0.017714 -0.994916
14  1.209179 0.000092 0.000013  -0.001849 0.000829 -0.701988
15  3.859661 -0.138475 1.332410  -0.061682 0.488092 -0.444155
16  1.719448 -0.000011 0.000019  -0.017508 -0.024177 -0.574397
17  1.099675 0.000048 0.000006  0.000693 0.002640 -1.571702
18  0.945842 -0.861836 1.304576  -1.769690 -0.354327 -0.275173
19  1.789819 -0.000003 -0.000017  0.008665 0.005630 -0.065006
20  1.207015 -0.000012 -0.000043  0.000321 -0.000553 0.304742
21  5.740638 0.000410 -0.000702  -0.126218 0.000003 0.000070
22  11.481044 0.000351 -0.000736  -0.039519 -0.174133 0.024923
23  6.027523 -0.000330 0.000203  1.545129 -0.225099 1.717227
24  0.000001 11.692099 -0.000007  -0.849347 -0.321062 -0.687639
25  0.000002 0.000009 -0.000001  -0.602294 -0.000030 1.570739
26  -0.000001 -0.000012 -0.000001  0.868957 0.000002 1.570712
27  -5.843360 -7.961716 2.089273  1.473120 1.855075 -0.198639
28  6.027507 -0.000260 -0.000231  1.611315 0.530203 -0.477479
29  11.691991 0.000243 0.000855  0.141449 0.000082 -1.987014
30  11.480553 -0.000155 0.000854  -0.937012 0.106859 0.794687
31  3.859436 -0.132787 1.193063  0.419753 0.064213 -1.630733
32  1.312559 0.000025 0.000001  0.018650 -0.111950 -0.566450
33  0.729345 0.000066 -0.000027  -0.136092 -0.130379 -0.745071
34  3.942046 0.050109 0.430997  0.227728 0.017433 -1.395883
35  1.539096 0.000004 0.000001  0.033374 -0.057010 -0.978694
36  1.196299 0.000077 -0.000005  -0.008681 -0.024216 -0.882959
37  3.883411 -0.050502 -0.431086  0.220900 -0.070369 -1.119647
38  1.719563 -0.000082 -0.000002  0.013025 -0.077950 -1.452999
39  1.209197 0.000035 0.000011  0.008192 -0.000795 -0.494142
40  3.859585 -0.149111 -1.331323  -0.144133 0.068146 -0.137838
41  1.719413 -0.000097 -0.000035  -0.015109 -0.000174 -1.071001
42  1.099673 0.000023 0.000006  -0.004386 -0.008133 -0.862854
43  0.805979 -0.359853 -1.318337  0.974252 0.268925 -0.894612
44  1.789780 -0.000008 -0.000042  0.001484 -0.011936 0.235362
45  1.206996 -0.000005 0.000005  0.001538 -0.000068 1.118076
46  5.740573 0.000055 0.000724  0.193723 -0.000014 0.000021
47  11.481056 0.000005 0.000920  0.119321 0.043980 0.133138
48  6.027514 -0.000274 -0.000237  -0.638865 -0.558458 -1.673396
49  -0.000001 11.691975 -0.000007  -1.317220 0.764779 0.958547
50  0.000004 -0.000001 -0.000001  2.413975 -0.000041 1.570856
51  -0.000007 -0.000015 0.000004  2.272644 -0.000030 1.570865
52  -4.206096 -3.742678 -7.185426  3.076854 -0.058307 -1.468003
53  0.000000 0.000001 0.000000  0.008153 -0.000259 0.000009
54  0.000000 0.000001 0.000001  1.565115 0.043565 -0.106862
55  -0.452572 -17.059374 -5.696885  -0.936341 0.155998 -1.905150
56  0.000000 0.000000 -0.000000  0.000000 -0.000000 -0.000002
57  0.000030 0.000029 0.000001  -1.571902 -0.044449 -0.106509
58  8.426761 -19.544212 -16.568478  1.570796 -0.000000 0.000000
59  -15.417985 2.938832 -17.970421  1.570796 -0.000000 0.000000
60  1.941978 -0.304065 -8.327020  1.570796 -0.000000 0.000000
61  -0.004311 0.001229 -0.000371  0.006898 -0.005534 -0.284229
62  2.089273 8.874444 -4.333363  1.570796 -0.000000 0.000000
63  0.000000 0.000000 0.000000  -0.078727 -3.136056 0.284226
64  1.000000 0.000000 -0.750000  1.570796 -0.001550 -0.000000
65  -2.325839 -10.458290 -1.934957  1.573345 0.005461 0.000007
66  0.000002 -2.923558 -1.408043  -0.000000 -0.000000 -0.000000
67  -0.000002 -0.601198 -2.062165  -0.000000 -0.000000 -0.000000
68  0.004380 -0.039406 6.613114  -0.000000 -0.000000 -0.000000
69  0.000970 -0.021792 0.054850  -0.000000 -0.000000 -0.000000
70  0.000002 -3.304881 0.259167  -0.000000 -0.000000 -0.000000
71  -2.332754 -15.192201 -3.207158  1.573345 0.005461 0.000007
72  0.057100 0.204433 -2.709595  0.000000 -0.000000 -0.000000
73  0.111673 -0.283001 -2.709596  0.000000 -0.000000 -0.000000
74  -0.128217 -0.750370 -2.709596  0.000000 0.000000 -0.000000
time 3
0  0 0 0  0 0 0
1  0.000006 0.000000 0.000000  -1.570800 -1.391899 -1.570792
2  -8.138873 1.780375 1.937664  -1.544956 -1.855077 -0.198630
3  6.027523 -0.000328 0.000192  -0.585494 -1.344224 -1.541086
4  11.692112 0.000641 -0.000738  -1.471379 -0.000006 -1.200388
5  11.480202 0.000697 -0.000391  1.120432 -0.924785 0.406882
6  3.571339 -0.073053 -1.193381  -0.630908 0.056336 -1.699771
7  1.312590 0.000011 0.000009  -0.000395 0.000880 -0.663191
8  0.729356 0.000054 0.000048  -0.000172 0.000021 -0.220360
9  3.942143 0.046273 -0.431512  -0.413547 0.112709 -1.516154
10  1.539110 0.000083 0.000006  -0.001056 0.003240 -0.572825
11  1.196331 0.000146 0.000028  -0.000216 0.000008 -0.647849
12  3.883504 -0.047269 0.431381  -0.386032 0.372160 -1.001174
13  1.719573 -0.000026 0.000016  0.029635 0.017714 -0.994916
14  1.209179 0.000091 0.000013  -0.001849 0.000829 -0.701988
15  3.859663 -0.138475 1.332410  -0.061682 0.488092 -0.444155
16  1.719448 -0.000011 0.000022  -0.017508 -0.024177 -0.574397
17  1.099676 0.000048 0.000005  0.000693 0.002640 -1.571702
18  0.945844 -0.861836 1.304575  -1.769690 -0.354327 -0.275173
19  1.789822 -0.000003 -0.000018  0.008665 0.005630 -0.065006
20  1.207016 -0.000012 -0.000044  0.000320 -0.000553 0.304742
21  5.740638 0.000410 -0.000703  -0.127279 0.000003 0.000071
22  11.481047 0.000351 -0.000736  -0.040860 -0.173873 0.024212
23  6.027523 -0.000330 0.000203  1.544044 -0.225098 1.719880
24  0.000002 11.692099 -0.000008  -0.848031 -0.320037 -0.686688
25  0.000003 0.000009 -0.000000  -0.602294 -0.000031 1.570739
26  -0.000001 -0.000012 -0.000001  0.868957 0.000002 1.570712
27  -5.843360 -7.961716 2.089273  1.473120 1.855075 -0.198639
28  6.027507 -0.000260 -0.000231  1.614875 0.530094 -0.476880
29  11.691993 0.000243 0.000854  0.141450 0.000082 -1.986257
30  11.480553 -0.000156 0.000854  -0.942384 0.101538 0.796215
31  3.859436 -0.132788 1.193062  0.419753 0.064213 -1.630734
32  1.312558 0.000024 -0.000000  0.018649 -0.111950 -0.566450
33  0.729345 0.000066 -0.000027  -0.136092 -0.130379 -0.745071
34  3.942046 0.050109 0.430997  0.227728 0.017433 -1.395883
35  1.539096 0.000006 0.000000  0.033374 -0.057010 -0.978694
36  1.196298 0.000077 -0.000004  -0.008681 -0.024216 -0.882959
37  3.883411 -0.050502 -0.431087  0.220900 -0.070369 -1.119647
38  1.719564 -0.000083 -0.000004  0.013025 -0.077950 -1.452999
39  1.209196 0.000035 0.000010  0.008192 -0.000795 -0.494142
40  3.859585 -0.149111 -1.331323  -0.144133 0.068146 -0.137838
41  1.719412 -0.000097 -0.000034  -0.015109 -0.000174 -1.071001
42  1.099673 0.000024 0.000006  -0.004386 -0.008133 -0.862854
43  0.805979 -0.359854 -1.318338  0.974252 0.268925 -0.894612
44  1.789779 -0.000008 -0.000043  0.001484 -0.011936 0.235362
45  1.206996 -0.000005 0.000005  0.001538 -0.000068 1.118076
46  5.740572 0.000055 0.000724  0.193190 -0.000014 0.000021
47  11.481054 0.000004 0.000920  0.118705 0.042687 0.133867
48  6.027514 -0.000274 -0.000237  -0.637425 -0.555638 -1.675359
49  -0.000002 11.691975 -0.000007  -1.316760 0.764306 0.958377
50  0.000003 -0.000003 0.000000  2.413975 -0.000041 1.570856
51  -0.000008 -0.000015 0.000004  2.272644 -0.000030 1.570865
52  -4.237158 -3.750796 -7.163266  3.072045 -0.055432 -1.467730
53  0.000000 -0.000000 0.000000  0.008153 -0.000259 0.000009
54  -0.000000 0.000000 0.000000  1.565115 0.043565 -0.106862
55  -0.476213 -17.070955 -5.725299  -0.941977 0.156567 -1.906027
56  -0.000003 0.000000 0.000000  0.000000 -0.000000 -0.000002
57  0.000027 0.000029 0.000001  -1.571901 -0.044449 -0.106509
58  8.426761 -19.544212 -16.568478  1.570796 -0.000000 0.000000
59  -15.417985 2.938832 -17.970421  1.570796 -0.000000 0.000000
60  1.941978 -0.304065 -8.327020  1.570796 -0.000000 0.000000
61  -0.004311 0.001229 -0.000371  0.006898 -0.005534 -0.284229
62  2.089273 8.874444 -4.333363  1.570796 -0.000000 0.000000
63  0.000000 0.000000 0.000000  -0.078727 -3.136056 0.284226
64  1.000000 0.000000 -0.750000  1.570796 -0.002989 -0.000000
65  -2.330337 -10.478803 -1.938308  1.575711 0.010532 0.000026
66  0.000002 -2.923558 -1.408041  0.000000 0.000000 0.000000
67  -0.000002 -0.601198 -2.062164  0.000000 0.000000 0.000000
68  0.004380 -0.039406 6.613115  0.000000 0.000000 0.000000
69  0.000970 -0.021792 0.054850  0.000000 -0.000000 -0.000000
70  0.000002 -3.304881 0.259169  0.000000 0.000000 0.000000
71  -2.343733 -15.209691 -3.221657  1.575711 0.010532 0.000026
72  0.057100 0.204433 -2.709596  0.000000 -0.000000 0.000000
73  0.111673 -0.283001 -2.709596  0.000000 -0.000000 0.000000
74  -0.128217 -0.750370 -2.709597  0.000000 0.000000 0.000000
time 4
0  0 0 0  0 0 0
1  0.000006 0.000000 0.000000  -1.570800 -1.391899 -1.570792
2  -8.138873 1.780375 1.937664  -1.544956 -1.855077 -0.198630
3  6.027523 -0.000328 0.000192  -0.581167 -1.343991 -1.542701
4  11.692111 0.000643 -0.000740  -1.471378 -0.000006 -1.198368
5  11.480213 0.000697 -0.000384  1.113796 -0.922594 0.405458
6  3.571338 -0.073053 -1.193381  -0.630908 0.056337 -1.699771
7  1.312591 0.000013 0.000006  -0.000395 0.000880 -0.663191
8  0.729354 0.000053 0.000050  -0.000172 0.000021 -0.220360
9  3.942145 0.046273 -0.431512  -0.413547 0.112709 -1.516154
10  1.539110 0.000083 0.000006  -0.001056 0.003239 -0.572825
11  1.196331 0.000147 0.000030  -0.000216 0.000008 -0.647849
12  3.883503 -0.047269 0.431381  -0.386032 0.372160 -1.001174
13  1.719572 -0.000027 0.000015  0.029635 0.017714 -0.994916
14  1.209178 0.000093 0.000014  -0.001849 0.000829 -0.701987
15  3.859664 -0.138475 1.332410  -0.061682 0.488092 -0.444155
16  1.719449 -0.000013 0.000021  -0.017508 -0.024177 -0.574397
17  1.099674 0.000047 0.000006  0.000693 0.002640 -1.571702
18  0.945844 -0.861835 1.304575  -1.769691 -0.354327 -0.275173
19  1.789820 -0.000003 -0.000018  0.008665 0.005630 -0.065006
20  1.207016 -0.000012 -0.000043  0.000321 -0.000553 0.304742
21  5.740638 0.000410 -0.000702  -0.128340 0.000003 0.000070
22  11.481049 0.000351 -0.000734  -0.042223 -0.173597 0.023476
23  6.027523 -0.000330 0.000203  1.543024 -0.225212 1.722707
24  0.000001 11.692099 -0.000007  -0.846774 -0.319059 -0.685779
25  0.000004 0.000008 -0.000001  -0.602294 -0.000030 1.570739
26  -0.000001 -0.000011 -0.000000  0.868957 0.000002 1.570712
27  -5.843360 -7.961716 2.089273  1.473120 1.855075 -0.198639
28  6.027507 -0.000260 -0.000231  1.618211 0.529847 -0.476327
29  11.691990 0.000242 0.000858  0.141450 0.000082 -1.985453
30  11.480551 -0.000156 0.000851  -0.947750 0.096407 0.797552
31  3.859435 -0.132788 1.193061  0.419753 0.064213 -1.630733
32  1.312559 0.000023 0.000000  0.018649 -0.111950 -0.566450
33  0.729345 0.000066 -0.000027  -0.136092 -0.130379 -0.745071
34  3.942046 0.050108 0.430997  0.227728 0.017433 -1.395883
35  1.539096 0.000004 0.000001  0.033374 -0.057010 -0.978694
36  1.196299 0.000076 -0.000004  -0.008681 -0.024216 -0.882959
37  3.883411 -0.050502 -0.431087  0.220900 -0.070369 -1.119647
38  1.719563 -0.000081 -0.000003  0.013025 -0.077950 -1.452999
39  1.209195 0.000035 0.000011  0.008192 -0.000795 -0.494142
40  3.859584 -0.149112 -1.331324  -0.144133 0.068146 -0.137838
41  1.719412 -0.000097 -0.000035  -0.015109 -0.000174 -1.071001
42  1.099674 0.000025 0.000006  -0.004386 -0.008133 -0.862854
43  0.805978 -0.359854 -1.318339  0.974252 0.268925 -0.894612
44  1.789779 -0.000008 -0.000043  0.001484 -0.011936 0.235362
45  1.206996 -0.000004 0.000006  0.001538 -0.000068 1.118076
46  5.740571 0.000057 0.000723  0.192588 -0.000014 0.000021
47  11.481053 0.000005 0.000920  0.118077 0.041419 0.134542
48  6.027514 -0.000274 -0.000237  -0.635926 -0.553045 -1.677281
49  -0.000002 11.691974 -0.000007  -1.316271 0.763804 0.958196
50  0.000004 -0.000001 -0.000001  2.413975 -0.000041 1.570856
51  -0.000007 -0.000015 0.000004  2.272644 -0.000030 1.570865
52  -4.268094 -3.758972 -7.144239  3.067237 -0.052555 -1.467471
53  0.000000 0.000000 0.000000  0.008153 -0.000259 0.000009
54  -0.000000 -0.000000 -0.000000  1.565115 0.043565 -0.106862
55  -0.499984 -17.082476 -5.756900  -0.947615 0.157131 -1.906908
56  0.000001 0.000001 0.000000  0.000000 -0.000000 -0.000002
57  0.000031 0.000030 0.000001  -1.571901 -0.044449 -0.106509
58  8.426761 -19.544212 -16.568478  1.570796 -0.000000 0.000000
59  -15.417985 2.938832 -17.970421  1.570796 -0.000000 0.000000
60  1.941978 -0.304065 -8.327020  1.570796 -0.000000 0.000000
61  -0.004311 0.001229 -0.000371  0.006898 -0.005534 -0.284229
62  2.089273 8.874444 -4.333363  1.570796 -0.000000 0.000000
63  0.000000 0.000000 0.000000  -0.078727 -3.136056 0.284226
64  1.000000 0.000000 -0.750000  1.570796 -0.004428 -0.000000
65  -2.334836 -10.499315 -1.944960  1.578079 0.015604 0.000057
66  0.000002 -2.923558 -1.408043  -0.000000 -0.000000 0.000000
67  -0.000003 -0.601198 -2.062166  -0.000000 -0.000000 0.000000
68  0.004380 -0.039407 6.613116  -0.000000 -0.000000 0.000000
69  0.000970 -0.021792 0.054851  -0.000000 -0.000000 -0.000000
70  0.000002 -3.304881 0.259168  -0.000000 -0.000000 0.000000
71  -2.354769 -15.227152 -3.239419  1.578079 0.015604 0.000057
72  0.057100 0.204433 -2.709597  0.000000 -0.000000 0.000000
73  0.111673 -0.283001 -2.709596  0.000000 -0.000000 0.000000
74  -0.128218 -0.750370 -2.709597  0.000000 0.000000 0.000000
time 5
0  0 0 0  0 0 0
1  0.000006 0.000000 0.000000  -1.570800 -1.391899 -1.570792
2  -8.138873 1.780375 1.937664  -1.544956 -1.855077 -0.198630
3  6.027523 -0.000328 0.000192  -0.578967 -1.343494 -1.542318
4  11.692111 0.000643 -0.000740  -1.471379 -0.000006 -1.197107
5  11.480220 0.000699 -0.000380  1.108618 -0.920733 0.403954
6  3.571338 -0.073053 -1.193381  -0.630908 0.056337 -1.699771
7  1.312589 0.000012 0.000007  -0.000395 0.000880 -0.663191
8  0.729354 0.000054 0.000050  -0.000172 0.000021 -0.220360
9  3.942144 0.046274 -0.431511  -0.413547 0.112709 -1.516154
10  1.539111 0.000083 0.000005  -0.001056 0.003240 -0.572825
11  1.196333 0.000148 0.000032  -0.000216 0.000008 -0.647849
12  3.883505 -0.047269 0.431382  -0.386032 0.372160 -1.001174
13  1.719573 -0.000028 0.000015  0.029635 0.017714 -0.994916
14  1.209177 0.000093 0.000016  -0.001849 0.000829 -0.701987
15  3.859665 -0.138475 1.332411  -0.061682 0.488092 -0.444155
16  1.719449 -0.000012 0.000023  -0.017508 -0.024177 -0.574397
17  1.099674 0.000049 0.000006  0.000693 0.002640 -1.571701
18  0.945845 -0.861835 1.304577  -1.769690 -0.354327 -0.275173
19  1.789819 -0.000003 -0.000017  0.008665 0.005630 -0.065006
20  1.207016 -0.000012 -0.000043  0.000321 -0.000553 0.304742
21  5.740637 0.000411 -0.000702  -0.129153 0.000003 0.000070
22  11.481050 0.000352 -0.000734  -0.043323 -0.173344 0.022841
23  6.027523 -0.000330 0.000203  1.542457 -0.225643 1.725361
24  -0.000000 11.692099 -0.000008  -0.845989 -0.318450 -0.685211
25  0.000004 0.000009 0.000000  -0.602294 -0.000031 1.570738
26  -0.000002 -0.000011 -0.000001  0.868957 0.000002 1.570712
27  -5.843360 -7.961716 2.089273  1.473120 1.855075 -0.198639
28  6.027507 -0.000260 -0.000231  1.620170 0.529450 -0.476016
29  11.691991 0.000244 0.000854  0.141450 0.000082 -1.984482
30  11.478059 -0.001560 0.001054  -0.951823 0.092952 0.797973
31  3.859435 -0.132788 1.193063  0.419753 0.064213 -1.630733
32  1.312558 0.000025 -0.000000  0.018649 -0.111950 -0.566450
33  0.729345 0.000066 -0.000027  -0.136092 -0.130379 -0.745071
34  3.942047 0.050109 0.430997  0.227728 0.017433 -1.395883
35  1.539096 0.000005 0.000000  0.033374 -0.057010 -0.978694
36  1.196299 0.000077 -0.000004  -0.008681 -0.024216 -0.882959
37  3.883412 -0.050502 -0.431087  0.220900 -0.070369 -1.119647
38  1.719563 -0.000081 -0.000004  0.013025 -0.077950 -1.452999
39  1.209198 0.000035 0.000011  0.008192 -0.000795 -0.494142
40  3.859585 -0.149112 -1.331323  -0.144133 0.068146 -0.137838
41  1.719413 -0.000097 -0.000034  -0.015109 -0.000174 -1.071001
42  1.099674 0.000024 0.000007  -0.004386 -0.008133 -0.862854
43  0.805979 -0.359854 -1.318338  0.974252 0.268925 -0.894612
44  1.789779 -0.000008 -0.000042  0.001484 -0.011936 0.235362
45  1.206996 -0.000004 0.000006  0.001538 -0.000068 1.118076
46  5.740572 0.000055 0.000723  0.191935 -0.000014 0.000021
47  11.480556 -0.000276 0.000960  0.117572 0.040507 0.134913
48  6.027514 -0.000274 -0.000237  -0.634775 -0.551611 -1.678563
49  -0.000001 11.691976 -0.000008  -1.315681 0.763197 0.957977
50  0.000003 -0.000002 0.000001  2.413975 -0.000041 1.570856
51  -0.000007 -0.000014 0.000004  2.272644 -0.000030 1.570865
52  -4.291804 -3.765301 -7.138540  3.063538 -0.050341 -1.467280
53  -0.000000 0.000000 0.000001  0.008153 -0.000259 0.000009
54  0.000000 -0.000000 0.000000  1.565115 0.043565 -0.106862
55  -0.518356 -17.091293 -5.790178  -0.951953 0.157561 -1.907588
56  -0.000001 0.000001 0.000000  0.000000 -0.000000 -0.000002
57  0.000029 0.000030 0.000001  -1.571901 -0.044449 -0.106509
58  8.426761 -19.544212 -16.568478  1.570796 -0.000000 0.000000
59  -15.417985 2.938832 -17.970421  1.570796 -0.000000 0.000000
60  1.941978 -0.304065 -8.327020  1.570796 -0.000000 0.000000
61  -0.004311 0.001229 -0.000371  0.006898 -0.005534 -0.284229
62  2.089273 8.874444 -4.333363  1.570796 -0.000000 0.000000
63  0.000000 0.000000 0.000000  -0.078727 -3.136056 0.284226
64  1.000000 0.000000 -0.750000  1.570796 -0.005535 -0.000000
65  -2.338296 -10.515094 -1.959126  1.579900 0.019506 0.000089
66  0.000002 -2.923557 -1.408041  -0.000000 0.000000 0.000000
67  -0.000002 -0.601197 -2.062164  -0.000000 0.000000 0.000000
68  0.004381 -0.039407 6.613115  -0.000000 0.000000 0.000000
69  0.000970 -0.021792 0.054851  -0.000000 -0.000000 -0.000000
70  0.000002 -3.304881 0.259170  -0.000000 0.000000 0.000000
71  -2.363297 -15.240564 -3.262104  1.579900 0.019506 0.000089
72  0.057100 0.204433 -2.709595  -0.000000 -0.000000 0.000000
73  0.111673 -0.283001 -2.709595  -0.000000 -0.000000 0.000000
74  -0.128217 -0.750370 -2.709596  -0.000000 0.000000 0.000000
time 6
0  0 0 0  0 0 0
1  0.000006 0.000000 0.000000  -1.570800 -1.391899 -1.570792
2  -8.138873 1.780375 1.937664  -1.544956 -1.855077 -0.198630
3  6.027523 -0.000328 0.000192  -0.581477 -1.342356 -1.537323
4  11.692111 0.000644 -0.000739  -1.471379 -0.000006 -1.197482
5  11.480218 0.000697 -0.000379  1.106346 -0.919481 0.402161
6  3.571340 -0.073053 -1.193380  -0.630908 0.056336 -1.699771
7  1.312590 0.000012 0.000008  -0.000395 0.000880 -0.663191
8  0.729355 0.000053 0.000049  -0.000172 0.000021 -0.220360
9  3.942141 0.046272 -0.431512  -0.413547 0.112709 -1.516154
10  1.539110 0.000083 0.000003  -0.001056 0.003240 -0.572825
11  1.196334 0.000146 0.000030  -0.000216 0.000008 -0.647849
12  3.883503 -0.047270 0.431382  -0.386032 0.372160 -1.001174
13  1.719573 -0.000027 0.000017  0.029634 0.017714 -0.994916
14  1.209178 0.000091 0.000015  -0.001849 0.000829 -0.701988
15  3.859664 -0.138475 1.332411  -0.061682 0.488092 -0.444155
16  1.719449 -0.000012 0.000022  -0.017508 -0.024177 -0.574397
17  1.099675 0.000049 0.000006  0.000693 0.002640 -1.571702
18  0.945840 -0.861836 1.304575  -1.769690 -0.354327 -0.275173
19  1.789821 -0.000003 -0.000019  0.008665 0.005630 -0.065006
20  1.207017 -0.000012 -0.000044  0.000321 -0.000553 0.304742
21  5.740636 0.000411 -0.000700  -0.129470 0.000003 0.000071
22  11.481049 0.000351 -0.000732  -0.043915 -0.173128 0.022382
23  6.027523 -0.000330 0.000203  1.542889 -0.226843 1.727814
24  0.000001 11.692099 -0.000007  -0.846222 -0.318631 -0.685380
25  0.000003 0.000009 0.000000  -0.602294 -0.000031 1.570739
26  -0.000002 -0.000012 -0.000001  0.868957 0.000002 1.570712
27  -5.843360 -7.961716 2.089273  1.473120 1.855075 -0.198639
28  6.027507 -0.000260 -0.000231  1.619165 0.527877 -0.476266
29  11.691992 0.000242 0.000856  0.141450 0.000082 -1.983956
30  11.478065 -0.001558 0.001054  -0.953257 0.092987 0.796419
31  3.859436 -0.132788 1.193061  0.419753 0.064213 -1.630733
32  1.312558 0.000026 -0.000000  0.018649 -0.111950 -0.566450
33  0.729345 0.000066 -0.000026  -0.136092 -0.130379 -0.745071
34  3.942046 0.050108 0.430997  0.227728 0.017433 -1.395883
35  1.539096 0.000004 0.000000  0.033374 -0.057010 -0.978694
36  1.196300 0.000076 -0.000004  -0.008681 -0.024216 -0.882959
37  3.883411 -0.050502 -0.431087  0.220900 -0.070369 -1.119647
38  1.719563 -0.000080 -0.000003  0.013025 -0.077950 -1.452999
39  1.209198 0.000035 0.000011  0.008192 -0.000795 -0.494142
40  3.859584 -0.149112 -1.331323  -0.144133 0.068146 -0.137838
41  1.719412 -0.000098 -0.000034  -0.015109 -0.000174 -1.071001
42  1.099673 0.000023 0.000006  -0.004386 -0.008133 -0.862854
43  0.805979 -0.359854 -1.318338  0.974252 0.268925 -0.894612
44  1.789779 -0.000008 -0.000042  0.001484 -0.011936 0.235362
45  1.206997 -0.000005 0.000005  0.001538 -0.000068 1.118076
46  5.740572 0.000055 0.000724  0.191148 -0.000014 0.000021
47  11.480558 -0.000276 0.000961  0.117313 0.040333 0.134644
48  6.027514 -0.000274 -0.000237  -0.633418 -0.552987 -1.679019
49  -0.000002 11.691975 -0.000008  -1.315361 0.762868 0.957858
50  0.000003 -0.000003 -0.000001  2.413975 -0.000041 1.570856
51  -0.000007 -0.000015 0.000004  2.272644 -0.000030 1.570865
52  -4.301267 -3.767843 -7.162544  3.062059 -0.049455 -1.467207
53  -0.000000 -0.000000 0.000000  0.008153 -0.000259 0.000009
54  0.000000 -0.000000 0.000000  1.565115 0.043565 -0.106862
55  -0.525726 -17.094809 -5.829782  -0.953689 0.157733 -1.907860
56  0.000001 0.000001 0.000000  0.000000 -0.000000 -0.000002
57  0.000032 0.000030 0.000001  -1.571901 -0.044449 -0.106509
58  8.426761 -19.544212 -16.568478  1.570796 -0.000000 0.000000
59  -15.417985 2.938832 -17.970421  1.570796 -0.000000 0.000000
60  1.941978 -0.304065 -8.327020  1.570796 -0.000000 0.000000
61  -0.004311 0.001229 -0.000371  0.006898 -0.005534 -0.284229
62  2.089273 8.874444 -4.333363  1.570796 -0.000000 0.000000
63  0.000000 0.000000 0.000000  -0.078727 -3.136056 0.284226
64  1.000000 0.000000 -0.750000  1.570796 -0.005978 -0.000000
65  -2.339680 -10.521405 -1.991104  1.580629 0.021067 0.000104
66  0.000002 -2.923558 -1.408043  -0.000000 -0.000000 0.000000
67  -0.000002 -0.601197 -2.062165  -0.000000 -0.000000 0.000000
68  0.004381 -0.039406 6.613114  -0.000000 -0.000000 0.000000
69  0.000970 -0.021791 0.054848  -0.000000 -0.000000 -0.000000
70  0.000002 -3.304880 0.259168  -0.000000 -0.000000 0.000000
71  -2.366718 -15.245924 -3.297484  1.580629 0.021067 0.000104
72  0.057100 0.204433 -2.709599  -0.000000 -0.000000 0.000000
73  0.111673 -0.283001 -2.709599  -0.000000 -0.000000 0.000000
74  -0.128217 -0.750370 -2.709598  -0.000000 0.000000 0.000000
time 7
0  0 0 0  0 0 0
1  0.000006 0.000000 0.000000  -1.570800 -1.391899 -1.570792
2  -8.138873 1.780375 1.937664  -1.544956 -1.855077 -0.198630
3  6.027523 -0.000328 0.000192  -0.584084 -1.342486 -1.536329
4  11.692111 0.000643 -0.000739  -1.471379 -0.000006 -1.198247
5  11.480213 0.000695 -0.000382  1.112850 -0.919972 0.400963
6  3.571338 -0.073053 -1.193381  -0.630908 0.056337 -1.699771
7  1.312590 0.000012 0.000008  -0.000395 0.000880 -0.663191
8  0.729355 0.000054 0.000051  -0.000172 0.000021 -0.220360
9  3.942140 0.046273 -0.431513  -0.413547 0.112709 -1.516154
10  1.539111 0.000083 0.000004  -0.001056 0.003239 -0.572825
11  1.196332 0.000146 0.000028  -0.000216 0.000007 -0.647849
12  3.883501 -0.047269 0.431381  -0.386032 0.372160 -1.001174
13  1.719573 -0.000027 0.000016  0.029635 0.017714 -0.994916
14  1.209179 0.000090 0.000012  -0.001849 0.000829 -0.701988
15  3.859661 -0.138475 1.332410  -0.061682 0.488092 -0.444155
16  1.719448 -0.000013 0.000021  -0.017509 -0.024177 -0.574397
17  1.099675 0.000049 0.000004  0.000693 0.002640 -1.571702
18  0.945844 -0.861836 1.304575  -1.769691 -0.354327 -0.275173
19  1.789820 -0.000003 -0.000017  0.008665 0.005630 -0.065006
20  1.207017 -0.000012 -0.000044  0.000321 -0.000553 0.304742
21  5.740636 0.000410 -0.000701  -0.128461 0.000003 0.000071
22  11.481047 0.000351 -0.000733  -0.042867 -0.173036 0.022721
23  6.027523 -0.000330 0.000203  1.543506 -0.226786 1.726130
24  0.000002 11.692099 -0.000008  -0.846698 -0.319001 -0.685725
25  0.000002 0.000009 -0.000001  -0.602294 -0.000031 1.570739
26  -0.000001 -0.000012 -0.000001  0.868957 0.000002 1.570712
27  -5.843360 -7.961716 2.089273  1.473120 1.855075 -0.198639
28  6.027507 -0.000260 -0.000231  1.615622 0.527327 -0.476885
29  11.691991 0.000242 0.000855  0.141450 0.000082 -1.983590
30  11.478068 -0.001558 0.001054  -0.949704 0.098154 0.792842
31  3.859436 -0.132787 1.193061  0.419753 0.064213 -1.630734
32  1.312558 0.000024 0.000000  0.018650 -0.111950 -0.566450
33  0.729344 0.000067 -0.000027  -0.136092 -0.130379 -0.745071
34  3.942046 0.050109 0.430996  0.227728 0.017433 -1.395883
35  1.539096 0.000005 -0.000000  0.033374 -0.057010 -0.978694
36  1.196299 0.000076 -0.000004  -0.008681 -0.024216 -0.882959
37  3.883411 -0.050502 -0.431087  0.220900 -0.070369 -1.119647
38  1.719563 -0.000081 -0.000004  0.013025 -0.077950 -1.452999
39  1.209198 0.000035 0.000011  0.008192 -0.000795 -0.494142
40  3.859584 -0.149112 -1.331324  -0.144133 0.068146 -0.137838
41  1.719413 -0.000097 -0.000033  -0.015109 -0.000174 -1.071001
42  1.099674 0.000024 0.000007  -0.004386 -0.008133 -0.862854
43  0.805978 -0.359853 -1.318338  0.974252 0.268925 -0.894612
44  1.789780 -0.000007 -0.000042  0.001484 -0.011936 0.235362
45  1.206997 -0.000005 0.000006  0.001538 -0.000068 1.118076
46  5.740571 0.000055 0.000725  0.190948 -0.000014 0.000021
47  11.480557 -0.000276 0.000961  0.117621 0.041369 0.133582
48  6.027514 -0.000274 -0.000237  -0.634113 -0.556041 -1.677487
49  -0.000001 11.691974 -0.000007  -1.315139 0.762639 0.957776
50  0.000003 -0.000003 -0.000000  2.413975 -0.000041 1.570856
51  -0.000006 -0.000015 0.000004  2.272644 -0.000030 1.570865
52  -4.281660 -3.769256 -7.196142  3.065220 -0.052564 -1.467356
53  -0.000000 -0.000000 0.000000  0.008153 -0.000259 0.000009
54  -0.000000 0.000000 -0.000000  1.565115 0.043565 -0.106862
55  -0.510657 -17.092422 -5.813454  -0.949456 0.156265 -1.907186
56  -0.000000 -0.000000 -0.000000  0.000000 -0.000000 -0.000002
57  0.000030 0.000029 0.000001  -1.571902 -0.044449 -0.106509
58  8.426761 -19.544212 -16.568478  1.570796 -0.000000 0.000000
59  -15.417985 2.938832 -17.970421  1.570796 -0.000000 0.000000
60  1.941978 -0.304065 -8.327020  1.570796 -0.000000 0.000000
61  -0.004311 0.001229 -0.000371  0.006898 -0.005534 -0.284229
62  2.089273 8.874444 -4.333363  1.570796 -0.000000 0.000000
63  0.000000 0.000000 0.000000  -0.078727 -3.136056 0.284226
64  1.000000 0.000000 -0.750000  1.570796 -0.005721 -0.000000
65  -2.337935 -10.508452 -1.999278  1.577861 0.017606 0.000062
66  0.000002 -2.923558 -1.408042  -0.000000 0.000000 0.000000
67  -0.000002 -0.601198 -2.062165  -0.000000 0.000000 0.000000
68  0.004380 -0.039407 6.613116  -0.000000 0.000000 0.000000
69  0.000970 -0.021792 0.054850  -0.000000 -0.000000 -0.000000
70  0.000002 -3.304881 0.259168  -0.000000 0.000000 0.000000
71  -2.360417 -15.236570 -3.292668  1.577861 0.017606 0.000062
72  0.057100 0.204433 -2.709597  0.000000 -0.000000 0.000000
73  0.111673 -0.283001 -2.709598  0.000000 -0.000000 0.000000
74  -0.128217 -0.750370 -2.709598  0.000000 0.000000 0.000000
time 8
0  0 0 0  0 0 0
1  0.000006 0.000000 0.000000  -1.570800 -1.391899 -1.570792
2  -8.138873 1.780375 1.937664  -1.544956 -1.855077 -0.198630
3  6.027523 -0.000328 0.000192  -0.586504 -1.343581 -1.538496
4  11.692110 0.000643 -0.000739  -1.471379 -0.000006 -1.199285
5  11.480210 0.000697 -0.000387  1.125382 -0.921797 0.400432
6  3.571338 -0.073053 -1.193381  -0.630908 0.056336 -1.699771
7  1.312591 0.000013 0.000008  -0.000395 0.000880 -0.663191
8  0.729354 0.000053 0.000049  -0.000172 0.000021 -0.220360
9  3.942141 0.046273 -0.431512  -0.413547 0.112709 -1.516154
10  1.539111 0.000082 0.000007  -0.001056 0.003239 -0.572825
11  1.196334 0.000146 0.000029  -0.000216 0.000008 -0.647849
12  3.883504 -0.047269 0.431382  -0.386032 0.372160 -1.001174
13  1.719572 -0.000028 0.000014  0.029635 0.017714 -0.994916
14  1.209178 0.000092 0.000014  -0.001849 0.000829 -0.701988
15  3.859663 -0.138475 1.332411  -0.061682 0.488092 -0.444155
16  1.719450 -0.000012 0.000022  -0.017508 -0.024177 -0.574397
17  1.099675 0.000049 0.000005  0.000693 0.002640 -1.571702
18  0.945844 -0.861836 1.304576  -1.769690 -0.354327 -0.275173
19  1.789820 -0.000003 -0.000018  0.008665 0.005630 -0.065006
20  1.207018 -0.000012 -0.000042  0.000321 -0.000553 0.304742
21  5.740638 0.000411 -0.000703  -0.126540 0.000003 0.000071
22  11.481048 0.000352 -0.000736  -0.040669 -0.173060 0.023650
23  6.027523 -0.000330 0.000203  1.544197 -0.225763 1.721450
24  0.000000 11.692099 -0.000008  -0.847345 -0.319503 -0.686192
25  0.000003 0.000009 -0.000001  -0.602294 -0.000031 1.570739
26  -0.000002 -0.000011 -0.000001  0.868957 0.000002 1.570712
27  -5.843360 -7.961716 2.089273  1.473120 1.855075 -0.198639
28  6.027507 -0.000260 -0.000231  1.610486 0.527669 -0.477726
29  11.691990 0.000241 0.000854  0.141450 0.000082 -1.983402
30  11.478068 -0.001556 0.001054  -0.942670 0.106761 0.788193
31  3.859435 -0.132788 1.193061  0.419753 0.064213 -1.630733
32  1.312558 0.000025 0.000000  0.018649 -0.111950 -0.566450
33  0.729345 0.000067 -0.000026  -0.136092 -0.130379 -0.745071
34  3.942046 0.050109 0.430997  0.227728 0.017433 -1.395883
35  1.539096 0.000005 -0.000000  0.033374 -0.057010 -0.978694
36  1.196298 0.000077 -0.000004  -0.008681 -0.024216 -0.882959
37  3.883411 -0.050502 -0.431088  0.220900 -0.070369 -1.119647
38  1.719563 -0.000081 -0.000003  0.013025 -0.077950 -1.452999
39  1.209197 0.000035 0.000011  0.008192 -0.000795 -0.494142
40  3.859585 -0.149112 -1.331324  -0.144133 0.068146 -0.137838
41  1.719412 -0.000098 -0.000034  -0.015109 -0.000174 -1.071001
42  1.099674 0.000024 0.000007  -0.004386 -0.008133 -0.862854
43  0.805979 -0.359854 -1.318339  0.974252 0.268925 -0.894612
44  1.789779 -0.000007 -0.000042  0.001484 -0.011936 0.235362
45  1.206997 -0.000005 0.000005  0.001538 -0.000068 1.118076
46  5.740571 0.000055 0.000725  0.191241 -0.000014 0.000021
47  11.480556 -0.000275 0.000961  0.118334 0.043233 0.132029
48  6.027514 -0.000274 -0.000237  -0.636390 -0.560050 -1.674538
49  -0.000003 11.691976 -0.000006  -1.315025 0.762522 0.957733
50  0.000003 -0.000001 0.000000  2.413975 -0.000041 1.570856
51  -0.000008 -0.000015 0.000005  2.272644 -0.000030 1.570865
52  -4.241160 -3.769407 -7.233188  3.071674 -0.058398 -1.467693
53  -0.000000 -0.000000 0.000001  0.008153 -0.000259 0.000009
54  -0.000000 -0.000000 -0.000000  1.565115 0.043565 -0.106862
55  -0.479912 -17.085146 -5.755654  -0.941042 0.153724 -1.905867
56  0.000001 0.000000 0.000000  0.000000 -0.000000 -0.000002
57  0.000031 0.000029 0.000001  -1.571902 -0.044449 -0.106509
58  8.426761 -19.544212 -16.568478  1.570796 -0.000000 0.000000
59  -15.417985 2.938832 -17.970421  1.570796 -0.000000 0.000000
60  1.941978 -0.304065 -8.327020  1.570796 -0.000000 0.000000
61  -0.004311 0.001229 -0.000371  0.006898 -0.005534 -0.284229
62  2.089273 8.874444 -4.333363  1.570796 -0.000000 0.000000
63  0.000000 0.000000 0.000000  -0.078727 -3.136056 0.284226
64  1.000000 0.000000 -0.750000  1.570796 -0.005044 -0.000000
65  -2.333903 -10.481737 -1.988264  1.572722 0.010595 0.000010
66  0.000001 -2.923558 -1.408043  -0.000000 -0.000000 -0.000000
67  -0.000002 -0.601198 -2.062165  -0.000000 -0.000000 -0.000000
68  0.004381 -0.039406 6.613115  -0.000000 -0.000000 -0.000000
69  0.000970 -0.021792 0.054851  -0.000000 -0.000000 -0.000000
70  0.000001 -3.304881 0.259168  -0.000000 -0.000000 -0.000000
71  -2.347303 -15.216438 -3.257468  1.572722 0.010595 0.000010
72  0.057100 0.204433 -2.709598  0.000000 -0.000000 -0.000000
73  0.111673 -0.283002 -2.709598  0.000000 -0.000000 -0.000000
74  -0.128217 -0.750370 -2.709597  0.000000 0.000000 -0.000000
time 9
0  0 0 0  0 0 0
1  0.000006 0.000000 0.000000  -1.570800 -1.391899 -1.570792
2  -8.138873 1.780375 1.937664  -1.544956 -1.855077 -0.198630
3  6.027523 -0.000328 0.000192  -0.588724 -1.344475 -1.540117
4  11.692110 0.000643 -0.000739  -1.471379 -0.000006 -1.200779
5  11.480201 0.000697 -0.000387  1.133037 -0.924339 0.402383
6  3.571341 -0.073053 -1.193381  -0.630908 0.056337 -1.699771
7  1.312590 0.000012 0.000009  -0.000395 0.000880 -0.663191
8  0.729355 0.000054 0.000051  -0.000172 0.000021 -0.220360
9  3.942146 0.046273 -0.431512  -0.413547 0.112709 -1.516154
10  1.539111 0.000085 0.000005  -0.001056 0.003239 -0.572825
11  1.196333 0.000146 0.000029  -0.000216 0.000008 -0.647849
12  3.883506 -0.047270 0.431381  -0.386032 0.372160 -1.001174
13  1.719573 -0.000028 0.000014  0.029635 0.017714 -0.994916
14  1.209178 0.000092 0.000012  -0.001849 0.000829 -0.701988
15  3.859663 -0.138476 1.332410  -0.061682 0.488092 -0.444155
16  1.719448 -0.000011 0.000022  -0.017508 -0.024177 -0.574397
17  1.099675 0.000047 0.000005  0.000693 0.002640 -1.571702
18  0.945846 -0.861836 1.304575  -1.769690 -0.354327 -0.275173
19  1.789819 -0.000003 -0.000017  0.008665 0.005630 -0.065006
20  1.207018 -0.000012 -0.000044  0.000321 -0.000553 0.304742
21  5.740637 0.000410 -0.000700  -0.125350 0.000003 0.000070
22  11.481046 0.000351 -0.000734  -0.039077 -0.173389 0.024555
23  6.027523 -0.000330 0.000203  1.544813 -0.224935 1.717529
24  0.000001 11.692099 -0.000007  -0.848274 -0.320226 -0.686864
25  0.000004 0.000008 -0.000002  -0.602294 -0.000030 1.570739
26  -0.000002 -0.000011 -0.000001  0.868957 0.000002 1.570712
27  -5.843360 -7.961716 2.089273  1.473120 1.855075 -0.198639
28  6.027507 -0.000260 -0.000231  1.607845 0.528715 -0.478126
29  11.691992 0.000242 0.000855  0.141449 0.000082 -1.984270
30  11.478065 -0.001557 0.001054  -0.937038 0.111691 0.787478
31  3.859436 -0.132788 1.193062  0.419753 0.064213 -1.630733
32  1.312558 0.000024 0.000000  0.018649 -0.111950 -0.566450
33  0.729344 0.000067 -0.000028  -0.136092 -0.130379 -0.745071
34  3.942046 0.050109 0.430996  0.227728 0.017433 -1.395883
35  1.539096 0.000006 -0.000000  0.033374 -0.057010 -0.978694
36  1.196299 0.000076 -0.000003  -0.008681 -0.024216 -0.882959
37  3.883412 -0.050502 -0.431087  0.220900 -0.070369 -1.119647
38  1.719563 -0.000081 -0.000003  0.013025 -0.077950 -1.452999
39  1.209198 0.000035 0.000011  0.008192 -0.000795 -0.494142
40  3.859585 -0.149112 -1.331323  -0.144133 0.068146 -0.137838
41  1.719412 -0.000097 -0.000035  -0.015109 -0.000174 -1.071001
42  1.099674 0.000025 0.000007  -0.004386 -0.008133 -0.862854
43  0.805979 -0.359854 -1.318338  0.974252 0.268925 -0.894612
44  1.789779 -0.000008 -0.000043  0.001484 -0.011936 0.235362
45  1.206996 -0.000005 0.000006  0.001538 -0.000068 1.118076
46  5.740572 0.000056 0.000724  0.192135 -0.000014 0.000021
47  11.480558 -0.000275 0.000960  0.119024 0.044509 0.131470
48  6.027514 -0.000274 -0.000237  -0.638528 -0.561790 -1.672469
49  -0.000003 11.691975 -0.000008  -1.315552 0.763064 0.957929
50  0.000002 -0.000002 -0.000000  2.413975 -0.000041 1.570856
51  -0.000007 -0.000015 0.000003  2.272644 -0.000030 1.570865
52  -4.207777 -3.761714 -7.239659  3.076870 -0.061716 -1.467996
53  0.000000 -0.000000 0.000000  0.008153 -0.000259 0.000009
54  0.000001 0.000000 0.000000  1.565115 0.043565 -0.106862
55  -0.454689 -17.073254 -5.704625  -0.934866 0.152916 -1.904914
56  -0.000001 0.000001 0.000001  0.000000 -0.000000 -0.000002
57  0.000030 0.000030 0.000001  -1.571901 -0.044449 -0.106509
58  8.426761 -19.544212 -16.568478  1.570796 -0.000000 0.000000
59  -15.417985 2.938832 -17.970421  1.570796 -0.000000 0.000000
60  1.941978 -0.304065 -8.327020  1.570796 -0.000000 0.000000
61  -0.004311 0.001229 -0.000371  0.006898 -0.005534 -0.284229
62  2.089273 8.874444 -4.333363  1.570796 -0.000000 0.000000
63  0.000000 0.000000 0.000000  -0.078727 -3.136056 0.284226
64  1.000000 0.000000 -0.750000  1.570796 -0.004086 -0.000000
65  -2.329384 -10.459475 -1.965774  1.569955 0.005095 -0.000002
66  0.000002 -2.923557 -1.408041  -0.000000 -0.000000 0.000000
67  -0.000002 -0.601197 -2.062164  -0.000000 -0.000000 0.000000
68  0.004380 -0.039406 6.613115  -0.000000 -0.000000 0.000000
69  0.000970 -0.021792 0.054851  -0.000000 -0.000000 -0.000000
70  0.000002 -3.304880 0.259168  -0.000000 -0.000000 0.000000
71  -2.335795 -15.197670 -3.221927  1.569955 0.005095 -0.000002
72  0.057100 0.204433 -2.709596  0.000000 -0.000000 0.000000
73  0.111673 -0.283001 -2.709595  0.000000 -0.000000 0.000000
74  -0.128218 -0.750370 -2.709596  0.000000 0.000000 0.000000
time 10
0  0 0 0  0 0 0
1  0.000006 0.000000 0.000000  -1.570800 -1.391899 -1.570792
2  -8.138873 1.780375 1.937664  -1.544956 -1.855077 -0.198630
3  6.027523 -0.000328 0.000192  -0.591072 -1.344654 -1.539412
4  11.692112 0.000643 -0.000739  -1.471379 -0.000006 -1.202409
5  11.480192 0.000697 -0.000396  1.134151 -0.926541 0.405483
6  3.571340 -0.073053 -1.193381  -0.630908 0.056337 -1.699771
7  1.312590 0.000011 0.000008  -0.000395 0.000880 -0.663191
8  0.729355 0.000053 0.000050  -0.000172 0.000021 -0.220360
9  3.942142 0.046273 -0.431512  -0.413547 0.112709 -1.516154
10  1.539112 0.000084 0.000005  -0.001056 0.003240 -0.572825
11  1.196331 0.000147 0.000028  -0.000216 0.000008 -0.647849
12  3.883503 -0.047269 0.431381  -0.386032 0.372160 -1.001174
13  1.719574 -0.000026 0.000016  0.029635 0.017714 -0.994916
14  1.209178 0.000093 0.000013  -0.001849 0.000829 -0.701987
15  3.859661 -0.138475 1.332409  -0.061682 0.488092 -0.444155
16  1.719450 -0.000011 0.000021  -0.017509 -0.024177 -0.574397
17  1.099675 0.000049 0.000006  0.000693 0.002640 -1.571702
18  0.945843 -0.861836 1.304576  -1.769690 -0.354327 -0.275173
19  1.789820 -0.000003 -0.000019  0.008665 0.005630 -0.065006
20  1.207017 -0.000012 -0.000044  0.000321 -0.000553 0.304742
21  5.740637 0.000411 -0.000701  -0.125145 0.000003 0.000070
22  11.481043 0.000351 -0.000735  -0.038531 -0.173835 0.025100
23  6.027523 -0.000330 0.000203  1.545371 -0.224817 1.715822
24  0.000003 11.692099 -0.000008  -0.849288 -0.321016 -0.687597
25  0.000003 0.000009 -0.000001  -0.602294 -0.000031 1.570739
26  0.000000 -0.000012 -0.000001  0.868957 0.000002 1.570712
27  -5.843360 -7.961716 2.089273  1.473120 1.855075 -0.198639
28  6.027507 -0.000260 -0.000231  1.607653 0.529416 -0.478131
29  11.691992 0.000243 0.000855  0.141449 0.000082 -1.985949
30  11.480554 -0.000155 0.000854  -0.934284 0.112337 0.789809
31  3.859436 -0.132788 1.193062  0.419753 0.064213 -1.630733
32  1.312558 0.000026 0.000001  0.018650 -0.111950 -0.566450
33  0.729345 0.000067 -0.000027  -0.136092 -0.130379 -0.745071
34  3.942046 0.050108 0.430997  0.227728 0.017433 -1.395883
35  1.539096 0.000005 -0.000000  0.033374 -0.057010 -0.978694
36  1.196299 0.000077 -0.000004  -0.008681 -0.024216 -0.882959
37  3.883411 -0.050502 -0.431087  0.220900 -0.070369 -1.119647
38  1.719563 -0.000081 -0.000004  0.013025 -0.077950 -1.452999
39  1.209197 0.000035 0.000011  0.008192 -0.000795 -0.494142
40  3.859584 -0.149112 -1.331322  -0.144133 0.068146 -0.137838
41  1.719412 -0.000097 -0.000034  -0.015109 -0.000174 -1.071001
42  1.099674 0.000024 0.000007  -0.004386 -0.008133 -0.862854
43  0.805978 -0.359854 -1.318338  0.974252 0.268925 -0.894612
44  1.789779 -0.000008 -0.000042  0.001484 -0.011936 0.235362
45  1.206997 -0.000005 0.000006  0.001538 -0.000068 1.118076
46  5.740572 0.000055 0.000723  0.193119 -0.000014 0.000021
47  11.481055 0.000005 0.000920  0.119466 0.044941 0.131814
48  6.027514 -0.000274 -0.000237  -0.639369 -0.561686 -1.671929
49  -0.000003 11.691976 -0.000007  -1.316573 0.764113 0.958307
50  0.000002 0.000001 0.000001  2.413975 -0.000041 1.570856
51  -0.000007 -0.000015 0.000004  2.272644 -0.000030 1.570865
52  -4.191128 -3.749896 -7.225585  3.079357 -0.061884 -1.468148
53  -0.000000 0.000000 -0.000000  0.008153 -0.000259 0.000009
54  -0.000000 -0.000000 0.000000  1.565115 0.043565 -0.106862
55  -0.441855 -17.061563 -5.682388  -0.932518 0.153814 -1.904555
56  -0.000001 0.000000 0.000000  0.000000 -0.000000 -0.000002
57  0.000029 0.000030 0.000001  -1.571901 -0.044449 -0.106509
58  8.426761 -19.544212 -16.568478  1.570796 -0.000000 0.000000
59  -15.417985 2.938832 -17.970421  1.570796 -0.000000 0.000000
60  1.941978 -0.304065 -8.327020  1.570796 -0.000000 0.000000
61  -0.004311 0.001229 -0.000371  0.006898 -0.005534 -0.284229
62  2.089273 8.874444 -4.333363  1.570796 -0.000000 0.000000
63  0.000000 0.000000 0.000000  -0.078727 -3.136056 0.284226
64  1.000000 0.000000 -0.750000  1.570796 -0.002989 -0.000000
65  -2.325848 -10.448116 -1.947631  1.570043 0.002609 -0.000001
66  0.000001 -2.923558 -1.408041  0.000000 -0.000000 -0.000000
67  -0.000002 -0.601198 -2.062165  0.000000 -0.000000 -0.000000
68  0.004380 -0.039406 6.613115  0.000000 -0.000000 -0.000000
69  0.000970 -0.021792 0.054850  0.000000 -0.000000 -0.000000
70  0.000001 -3.304881 0.259169  0.000000 -0.000000 -0.000000
71  -2.329132 -15.186201 -3.204211  1.570043 0.002609 -0.000001
72  0.057100 0.204433 -2.709596  0.000000 -0.000000 -0.000000
73  0.111673 -0.283001 -2.709597  0.000000 -0.000000 -0.000000
74  -0.128218 -0.750370 -2.709597  0.000000 0.000000 -0.000000
time 11
0  0 0 0  0 0 0
1  0.000006 0.000000 0.000000  -1.570800 -1.391899 -1.570792
2  -8.138873 1.780375 1.937664  -1.544956 -1.855077 -0.198630
3  6.027523 -0.000328 0.000192  -0.593143 -1.344603 -1.538134
4  11.692111 0.000641 -0.000740  -1.471379 -0.000006 -1.203620
5  11.480185 0.000695 -0.000398  1.134534 -0.927916 0.407457
6  3.571337 -0.073052 -1.193381  -0.630908 0.056337 -1.699771
7  1.312591 0.000013 0.000006  -0.000395 0.000880 -0.663191
8  0.729354 0.000054 0.000048  -0.000172 0.000021 -0.220360
9  3.942140 0.046273 -0.431512  -0.413547 0.112709 -1.516154
10  1.539111 0.000085 0.000006  -0.001056 0.003239 -0.572825
11  1.196334 0.000146 0.000032  -0.000216 0.000008 -0.647849
12  3.883504 -0.047269 0.431381  -0.386032 0.372160 -1.001174
13  1.719573 -0.000027 0.000012  0.029635 0.017714 -0.994916
14  1.209180 0.000092 0.000011  -0.001849 0.000829 -0.701987
15  3.859662 -0.138476 1.332410  -0.061682 0.488092 -0.444155
16  1.719449 -0.000013 0.000024  -0.017509 -0.024177 -0.574397
17  1.099674 0.000048 0.000005  0.000693 0.002640 -1.571701
18  0.945843 -0.861835 1.304575  -1.769690 -0.354327 -0.275173
19  1.789818 -0.000003 -0.000017  0.008665 0.005630 -0.065006
20  1.207017 -0.000012 -0.000043  0.000321 -0.000553 0.304742
21  5.740636 0.000409 -0.000704  -0.125054 0.000003 0.000071
22  11.481041 0.000350 -0.000739  -0.038239 -0.174122 0.025419
23  6.027523 -0.000330 0.000203  1.545838 -0.224919 1.714977
24  0.000002 11.692099 -0.000007  -0.850041 -0.321603 -0.688141
25  0.000005 0.000009 -0.000000  -0.602294 -0.000030 1.570739
26  -0.000000 -0.000011 -0.000001  0.868957 0.000002 1.570712
27  -5.843360 -7.961716 2.089273  1.473120 1.855075 -0.198639
28  6.027507 -0.000260 -0.000231  1.607403 0.529867 -0.478155
29  11.691991 0.000243 0.000856  0.141449 0.000082 -1.986876
30  11.480549 -0.000154 0.000854  -0.932565 0.112746 0.791266
31  3.859436 -0.132788 1.193062  0.419753 0.064213 -1.630733
32  1.312558 0.000025 0.000001  0.018650 -0.111950 -0.566450
33  0.729345 0.000066 -0.000028  -0.136092 -0.130379 -0.745071
34  3.942046 0.050109 0.430997  0.227728 0.017433 -1.395883
35  1.539096 0.000006 0.000000  0.033374 -0.057010 -0.978694
36  1.196300 0.000076 -0.000004  -0.008681 -0.024216 -0.882959
37  3.883412 -0.050502 -0.431087  0.220900 -0.070369 -1.119647
38  1.719564 -0.000080 -0.000003  0.013025 -0.077950 -1.452999
39  1.209197 0.000035 0.000011  0.008192 -0.000795 -0.494142
40  3.859585 -0.149112 -1.331323  -0.144133 0.068146 -0.137838
41  1.719412 -0.000097 -0.000035  -0.015109 -0.000174 -1.071001
42  1.099674 0.000024 0.000008  -0.004386 -0.008133 -0.862854
43  0.805978 -0.359854 -1.318338  0.974252 0.268925 -0.894612
44  1.789779 -0.000008 -0.000043  0.001484 -0.011936 0.235362
45  1.206996 -0.000005 0.000005  0.001538 -0.000068 1.118076
46  5.740572 0.000056 0.000724  0.193705 -0.000014 0.000021
47  11.481054 0.000006 0.000921  0.119741 0.045212 0.132029
48  6.027514 -0.000274 -0.000237  -0.639959 -0.561720 -1.671513
49  -0.000003 11.691975 -0.000007  -1.317137 0.764693 0.958516
50  0.000003 -0.000001 0.000000  2.413975 -0.000041 1.570856
51  -0.000008 -0.000015 0.000004  2.272644 -0.000030 1.570865
52  -4.180755 -3.741905 -7.218752  3.080882 -0.061831 -1.468242
53  0.000000 -0.000000 0.000000  0.008153 -0.000259 0.000009
54  0.000000 0.000000 0.000000  1.565115 0.043565 -0.106862
55  -0.433808 -17.053896 -5.672678  -0.931145 0.154505 -1.904344
56  -0.000002 0.000000 0.000000  0.000000 -0.000000 -0.000002
57  0.000028 0.000029 0.000001  -1.571901 -0.044449 -0.106509
58  8.426761 -19.544212 -16.568478  1.570796 -0.000000 0.000000
59  -15.417985 2.938832 -17.970421  1.570796 -0.000000 0.000000
60  1.941978 -0.304065 -8.327020  1.570796 -0.000000 0.000000
61  -0.004311 0.001229 -0.000371  0.006898 -0.005534 -0.284229
62  2.089273 8.874444 -4.333363  1.570796 -0.000000 0.000000
63  0.000000 0.000000 0.000000  -0.078727 -3.136056 0.284226
64  1.000000 0.000000 -0.750000  1.570796 -0.001891 -0.000000
65  -2.323434 -10.441227 -1.939388  1.570251 0.001100 -0.000000
66  0.000002 -2.923558 -1.408043  0.000000 -0.000000 -0.000000
67  -0.000003 -0.601197 -2.062166  0.000000 -0.000000 -0.000000
68  0.004380 -0.039406 6.613115  0.000000 -0.000000 -0.000000
69  0.000970 -0.021792 0.054849  0.000000 -0.000000 -0.000000
70  0.000002 -3.304881 0.259168  0.000000 -0.000000 -0.000000
71  -2.324821 -15.179049 -3.196959  1.570251 0.001100 -0.000000
72  0.057100 0.204433 -2.709599  0.000000 -0.000000 -0.000000
73  0.111673 -0.283002 -2.709598  0.000000 -0.000000 -0.000000
74  -0.128217 -0.750370 -2.709598  0.000000 0.000000 -0.000000
time 12
0  0 0 0  0 0 0
1  0.000006 0.000000 0.000000  -1.570800 -1.391899 -1.570792
2  -8.138873 1.780375 1.937664  -1.544956 -1.855077 -0.198630
3  6.027523 -0.000328 0.000192  -0.594469 -1.344523 -1.537167
4  11.692112 0.000642 -0.000740  -1.471379 -0.000006 -1.204359
5  11.480185 0.000695 -0.000400  1.134483 -0.928707 0.408668
6  3.571338 -0.073053 -1.193382  -0.630908 0.056337 -1.699771
7  1.312590 0.000011 0.000008  -0.000395 0.000880 -0.663191
8  0.729354 0.000055 0.000050  -0.000172 0.000021 -0.220360
9  3.942143 0.046273 -0.431512  -0.413547 0.112709 -1.516154
10  1.539110 0.000084 0.000005  -0.001056 0.003239 -0.572825
11  1.196333 0.000145 0.000030  -0.000216 0.000008 -0.647849
12  3.883505 -0.047269 0.431381  -0.386032 0.372160 -1.001174
13  1.719573 -0.000030 0.000014  0.029635 0.017714 -0.994916
14  1.209177 0.000092 0.000014  -0.001849 0.000829 -0.701988
15  3.859663 -0.138475 1.332410  -0.061682 0.488092 -0.444155
16  1.719447 -0.000012 0.000021  -0.017508 -0.024177 -0.574397
17  1.099674 0.000048 0.000005  0.000693 0.002640 -1.571702
18  0.945846 -0.861836 1.304576  -1.769690 -0.354327 -0.275173
19  1.789818 -0.000003 -0.000019  0.008665 0.005630 -0.065006
20  1.207015 -0.000012 -0.000043  0.000321 -0.000553 0.304742
21  5.740637 0.000411 -0.000703  -0.125039 0.000003 0.000070
22  11.481043 0.000351 -0.000738  -0.038112 -0.174295 0.025591
23  6.027523 -0.000330 0.000203  1.546132 -0.225032 1.714586
24  -0.000000 11.692098 -0.000007  -0.850501 -0.321962 -0.688473
25  0.000001 0.000010 -0.000001  -0.602294 -0.000031 1.570739
26  -0.000002 -0.000012 -0.000001  0.868957 0.000002 1.570712
27  -5.843360 -7.961716 2.089273  1.473120 1.855075 -0.198639
28  6.027507 -0.000260 -0.000231  1.607319 0.530118 -0.478160
29  11.691993 0.000242 0.000856  0.141449 0.000082 -1.987439
30  11.480546 -0.000155 0.000855  -0.931653 0.112837 0.792234
31  3.859435 -0.132788 1.193062  0.419753 0.064213 -1.630733
32  1.312558 0.000025 0.000001  0.018649 -0.111950 -0.566450
33  0.729345 0.000066 -0.000027  -0.136092 -0.130379 -0.745071
34  3.942046 0.050109 0.430996  0.227728 0.017433 -1.395883
35  1.539096 0.000005 0.000000  0.033374 -0.057010 -0.978694
36  1.196299 0.000076 -0.000003  -0.008681 -0.024216 -0.882959
37  3.883411 -0.050502 -0.431087  0.220900 -0.070369 -1.119647
38  1.719563 -0.000083 -0.000004  0.013025 -0.077950 -1.452999
39  1.209197 0.000036 0.000011  0.008192 -0.000795 -0.494142
40  3.859585 -0.149112 -1.331323  -0.144133 0.068146 -0.137838
41  1.719411 -0.000097 -0.000035  -0.015109 -0.000174 -1.071001
42  1.099674 0.000024 0.000006  -0.004386 -0.008133 -0.862854
43  0.805978 -0.359853 -1.318338  0.974252 0.268925 -0.894612
44  1.789779 -0.000008 -0.000043  0.001484 -0.011936 0.235362
45  1.206996 -0.000005 0.000006  0.001538 -0.000068 1.118076
46  5.740570 0.000055 0.000723  0.194050 -0.000014 0.000021
47  11.481051 0.000005 0.000920  0.119894 0.045343 0.132188
48  6.027514 -0.000274 -0.000237  -0.640266 -0.561695 -1.671312
49  -0.000002 11.691974 -0.000008  -1.317479 0.765044 0.958642
50  0.000003 -0.000001 0.000000  2.413975 -0.000041 1.570856
51  -0.000007 -0.000015 0.000004  2.272644 -0.000030 1.570865
52  -4.175182 -3.737054 -7.214288  3.081679 -0.061662 -1.468291
53  -0.000000 -0.000000 -0.000000  0.008153 -0.000259 0.000009
54  -0.000000 0.000000 -0.000000  1.565115 0.043565 -0.106862
55  -0.429432 -17.049429 -5.668626  -0.930487 0.154994 -1.904242
56  0.000002 0.000000 -0.000000  0.000000 -0.000000 -0.000002
57  0.000032 0.000030 0.000001  -1.571901 -0.044449 -0.106509
58  8.426761 -19.544212 -16.568478  1.570796 -0.000000 0.000000
59  -15.417985 2.938832 -17.970421  1.570796 -0.000000 0.000000
60  1.941978 -0.304065 -8.327020  1.570796 -0.000000 0.000000
61  -0.004311 0.001229 -0.000371  0.006898 -0.005534 -0.284229
62  2.089273 8.874444 -4.333363  1.570796 -0.000000 0.000000
63  0.000000 0.000000 0.000000  -0.078727 -3.136056 0.284226
64  1.000000 0.000000 -0.750000  1.570796 -0.000934 -0.000000
65  -2.321950 -10.437689 -1.935155  1.570500 0.000326 -0.000000
66  0.000002 -2.923558 -1.408043  0.000000 -0.000000 -0.000000
67  -0.000002 -0.601197 -2.062165  0.000000 -0.000000 -0.000000
68  0.004381 -0.039407 6.613114  0.000000 -0.000000 -0.000000
69  0.000970 -0.021792 0.054851  0.000000 -0.000000 -0.000000
70  0.000002 -3.304881 0.259168  0.000000 -0.000000 -0.000000
71  -2.322362 -15.175198 -3.193906  1.570500 0.000326 -0.000000
72  0.057100 0.204433 -2.709596  0.000000 -0.000000 -0.000000
73  0.111673 -0.283001 -2.709596  0.000000 -0.000000 -0.000000
74  -0.128217 -0.750370 -2.709596  0.000000 0.000000 -0.000000
time 13
0  0 0 0  0 0 0
1  0.000006 0.000000 0.000000  -1.570800 -1.391899 -1.570792
2  -8.138873 1.780375 1.937664  -1.544956 -1.855077 -0.198630
3  6.027523 -0.000328 0.000192  -0.595175 -1.344448 -1.536553
4  11.692110 0.000642 -0.000740  -1.471379 -0.000006 -1.204729
5  11.480179 0.000696 -0.000399  1.134262 -0.929067 0.409276
6  3.571337 -0.073054 -1.193381  -0.630908 0.056336 -1.699771
7  1.312590 0.000014 0.000008  -0.000395 0.000880 -0.663191
8  0.729355 0.000053 0.000048  -0.000172 0.000021 -0.220360
9  3.942142 0.046272 -0.431512  -0.413547 0.112709 -1.516154
10  1.539111 0.000083 0.000006  -0.001056 0.003239 -0.572825
11  1.196333 0.000147 0.000032  -0.000216 0.000008 -0.647849
12  3.883505 -0.047269 0.431382  -0.386032 0.372160 -1.001174
13  1.719573 -0.000028 0.000017  0.029635 0.017714 -0.994916
14  1.209178 0.000090 0.000013  -0.001849 0.000829 -0.701987
15  3.859663 -0.138476 1.332410  -0.061682 0.488092 -0.444155
16  1.719448 -0.000012 0.000023  -0.017509 -0.024177 -0.574397
17  1.099674 0.000049 0.000006  0.000693 0.002640 -1.571702
18  0.945842 -0.861837 1.304575  -1.769690 -0.354327 -0.275173
19  1.789820 -0.000004 -0.000018  0.008665 0.005630 -0.065006
20  1.207017 -0.000012 -0.000044  0.000321 -0.000553 0.304742
21  5.740636 0.000411 -0.000702  -0.125059 0.000003 0.000071
22  11.481040 0.000351 -0.000736  -0.038083 -0.174380 0.025662
23  6.027523 -0.000330 0.000203  1.546285 -0.225124 1.714477
24  0.000003 11.692098 -0.000008  -0.850731 -0.322141 -0.688639
25  0.000001 0.000009 -0.000001  -0.602294 -0.000031 1.570739
26  -0.000000 -0.000012 -0.000001  0.868957 0.000002 1.570712
27  -5.843360 -7.961716 2.089273  1.473120 1.855075 -0.198639
28  6.027507 -0.000260 -0.000231  1.607325 0.530226 -0.478155
29  11.691992 0.000242 0.000856  0.141449 0.000082 -1.987717
30  11.480549 -0.000156 0.000853  -0.931293 0.112772 0.792772
31  3.859436 -0.132788 1.193061  0.419753 0.064213 -1.630733
32  1.312559 0.000026 0.000000  0.018649 -0.111950 -0.566450
33  0.729346 0.000067 -0.000028  -0.136092 -0.130379 -0.745071
34  3.942046 0.050109 0.430996  0.227728 0.017433 -1.395883
35  1.539096 0.000006 -0.000000  0.033374 -0.057010 -0.978694
36  1.196300 0.000077 -0.000003  -0.008681 -0.024216 -0.882959
37  3.883412 -0.050502 -0.431087  0.220900 -0.070369 -1.119647
38  1.719563 -0.000081 -0.000004  0.013025 -0.077950 -1.452999
39  1.209197 0.000035 0.000010  0.008192 -0.000795 -0.494142
40  3.859585 -0.149112 -1.331323  -0.144133 0.068146 -0.137838
41  1.719412 -0.000098 -0.000034  -0.015109 -0.000174 -1.071001
42  1.099673 0.000025 0.000007  -0.004386 -0.008133 -0.862854
43  0.805979 -0.359853 -1.318339  0.974252 0.268925 -0.894612
44  1.789780 -0.000009 -0.000043  0.001484 -0.011936 0.235362
45  1.206996 -0.000005 0.000006  0.001538 -0.000068 1.118076
46  5.740572 0.000056 0.000723  0.194213 -0.000014 0.000021
47  11.481054 0.000005 0.000920  0.119961 0.045384 0.132286
48  6.027514 -0.000274 -0.000237  -0.640383 -0.561650 -1.671248
49  -0.000002 11.691977 -0.000007  -1.317648 0.765218 0.958705
50  0.000003 -0.000000 0.000001  2.413975 -0.000041 1.570856
51  -0.000008 -0.000015 0.000004  2.272644 -0.000030 1.570865
52  -4.172927 -3.734649 -7.211861  3.081985 -0.061484 -1.468310
53  0.000000 -0.000000 0.000000  0.008153 -0.000259 0.000009
54  0.000000 -0.000000 0.000000  1.565115 0.043565 -0.106862
55  -0.427618 -17.047348 -5.667905  -0.930283 0.155284 -1.904211
56  0.000001 0.000000 -0.000000  0.000000 -0.000000 -0.000002
57  0.000030 0.000029 0.000001  -1.571901 -0.044449 -0.106509
58  8.426761 -19.544212 -16.568478  1.570796 -0.000000 0.000000
59  -15.417985 2.938832 -17.970421  1.570796 -0.000000 0.000000
60  1.941978 -0.304065 -8.327020  1.570796 -0.000000 0.000000
61  -0.004311 0.001229 -0.000371  0.006898 -0.005534 -0.284229
62  2.089273 8.874444 -4.333363  1.570796 -0.000000 0.000000
63  0.000000 0.000000 0.000000  -0.078727 -3.136056 0.284226
64  1.000000 0.000000 -0.750000  1.570796 -0.000257 -0.000000
65  -2.321201 -10.436385 -1.933596  1.570709 0.000041 -0.000000
66  0.000001 -2.923558 -1.408042  0.000000 -0.000000 -0.000000
67  -0.000003 -0.601197 -2.062165  0.000000 -0.000000 -0.000000
68  0.004380 -0.039406 6.613115  0.000000 -0.000000 -0.000000
69  0.000970 -0.021792 0.054850  0.000000 -0.000000 -0.000000
70  0.000002 -3.304881 0.259168  0.000000 -0.000000 -0.000000
71  -2.321254 -15.173632 -3.193335  1.570709 0.000041 -0.000000
72  0.057100 0.204433 -2.709597  0.000000 -0.000000 -0.000000
73  0.111673 -0.283001 -2.709596  0.000000 -0.000000 -0.000000
74  -0.128217 -0.750370 -2.709596  0.000000 0.000000 -0.000000
time 14
0  0 0 0  0 0 0
1  0.000006 0.000000 0.000000  -1.570800 -1.391899 -1.570792
2  -8.138873 1.780375 1.937664  -1.544956 -1.855077 -0.198630
3  6.027523 -0.000328 0.000192  -0.595384 -1.344415 -1.536338
4  11.692111 0.000644 -0.000739  -1.471379 -0.000006 -1.204830
5  11.480181 0.000696 -0.000399  1.134132 -0.929153 0.409442
6  3.571338 -0.073053 -1.193382  -0.630908 0.056337 -1.699771
7  1.312590 0.000013 0.000007  -0.000395 0.000880 -0.663191
8  0.729354 0.000053 0.000050  -0.000172 0.000021 -0.220360
9  3.942143 0.046273 -0.431512  -0.413547 0.112709 -1.516154
10  1.539111 0.000085 0.000006  -0.001056 0.003239 -0.572825
11  1.196333 0.000147 0.000029  -0.000216 0.000008 -0.647849
12  3.883504 -0.047269 0.431381  -0.386032 0.372160 -1.001174
13  1.719574 -0.000029 0.000016  0.029634 0.017714 -0.994916
14  1.209180 0.000094 0.000013  -0.001849 0.000829 -0.701988
15  3.859663 -0.138475 1.332410  -0.061682 0.488092 -0.444155
16  1.719449 -0.000013 0.000022  -0.017508 -0.024177 -0.574397
17  1.099675 0.000048 0.000007  0.000693 0.002640 -1.571702
18  0.945844 -0.861836 1.304575  -1.769690 -0.354327 -0.275173
19  1.789821 -0.000004 -0.000017  0.008665 0.005630 -0.065006
20  1.207017 -0.000012 -0.000042  0.000321 -0.000553 0.304742
21  5.740637 0.000411 -0.000701  -0.125075 0.000003 0.000070
22  11.481043 0.000351 -0.000735  -0.038088 -0.174403 0.025676
23  6.027523 -0.000330 0.000203  1.546329 -0.225161 1.714479
24  0.000001 11.692099 -0.000008  -0.850794 -0.322190 -0.688684
25  0.000004 0.000008 -0.000001  -0.602294 -0.000030 1.570739
26  -0.000001 -0.000011 -0.000001  0.868957 0.000002 1.570712
27  -5.843360 -7.961716 2.089273  1.473120 1.855075 -0.198639
28  6.027507 -0.000260 -0.000231  1.607344 0.530249 -0.478151
29  11.691990 0.000242 0.000855  0.141450 0.000082 -1.987792
30  11.480552 -0.000158 0.000854  -0.931230 0.112715 0.792938
31  3.859436 -0.132787 1.193063  0.419753 0.064213 -1.630733
32  1.312558 0.000023 0.000000  0.018649 -0.111950 -0.566450
33  0.729345 0.000066 -0.000027  -0.136092 -0.130379 -0.745071
34  3.942046 0.050109 0.430998  0.227728 0.017433 -1.395883
35  1.539096 0.000006 -0.000000  0.033374 -0.057010 -0.978694
36  1.196300 0.000076 -0.000004  -0.008681 -0.024216 -0.882959
37  3.883410 -0.050502 -0.431086  0.220900 -0.070369 -1.119647
38  1.719564 -0.000081 -0.000003  0.013025 -0.077950 -1.452999
39  1.209197 0.000035 0.000011  0.008192 -0.000795 -0.494142
40  3.859584 -0.149111 -1.331322  -0.144133 0.068146 -0.137838
41  1.719412 -0.000097 -0.000035  -0.015109 -0.000174 -1.071001
42  1.099673 0.000024 0.000008  -0.004386 -0.008133 -0.862854
43  0.805978 -0.359854 -1.318337  0.974252 0.268925 -0.894612
44  1.789779 -0.000008 -0.000042  0.001484 -0.011936 0.235362
45  1.206997 -0.000006 0.000006  0.001538 -0.000068 1.118076
46  5.740573 0.000055 0.000723  0.194253 -0.000014 0.000021
47  11.481056 0.000004 0.000920  0.119975 0.045386 0.132320
48  6.027514 -0.000274 -0.000237  -0.640401 -0.561626 -1.671244
49  -0.000002 11.691975 -0.000007  -1.317694 0.765265 0.958721
50  0.000003 -0.000002 -0.000000  2.413975 -0.000041 1.570856
51  -0.000007 -0.000015 0.000005  2.272644 -0.000030 1.570865
52  -4.172505 -3.734002 -7.211127  3.082035 -0.061401 -1.468313
53  -0.000000 -0.000000 -0.000000  0.008153 -0.000259 0.000009
54  -0.000000 0.000000 0.000001  1.565115 0.043565 -0.106862
55  -0.427259 -17.046837 -5.668183  -0.930273 0.155380 -1.904209
56  -0.000001 -0.000000 0.000000  0.000000 -0.000000 -0.000002
57  0.000029 0.000029 0.000001  -1.571901 -0.044449 -0.106509
58  8.426761 -19.544212 -16.568478  1.570796 -0.000000 0.000000
59  -15.417985 2.938832 -17.970421  1.570796 -0.000000 0.000000
60  1.941978 -0.304065 -8.327020  1.570796 -0.000000 0.000000
61  -0.004311 0.001229 -0.000371  0.006898 -0.005534 -0.284229
62  2.089273 8.874444 -4.333363  1.570796 -0.000000 0.000000
63  0.000000 0.000000 0.000000  -0.078727 -3.136056 0.284226
64  1.000000 0.000000 -0.750000  1.570796 -0.000000 0.000000
65  -2.320994 -10.436199 -1.933373  1.570796 -0.000000 0.000000
66  0.000002 -2.923558 -1.408042  0.000000 -0.000000 0.000000
67  -0.000002 -0.601197 -2.062164  0.000000 -0.000000 0.000000
68  0.004380 -0.039407 6.613115  0.000000 -0.000000 0.000000
69  0.000970 -0.021792 0.054851  0.000000 -0.000000 -0.000000
70  0.000002 -3.304881 0.259169  0.000000 -0.000000 0.000000
71  -2.320996 -15.173336 -3.193526  1.570796 -0.000000 0.000000
72  0.057100 0.204433 -2.709597  0.000000 -0.000000 -0.000000
73  0.111673 -0.283001 -2.709597  0.000000 -0.000000 -0.000000
74  -0.128217 -0.750370 -2.709597  0.000000 0.000000 0.000000
end
