version 1
nodes
0 "blender_implicit" -1
1 "ValveBiped.Bip01_Spine4" -1
2 "ValveBiped.Bip01_L_Clavicle" 1
3 "ValveBiped.Bip01_L_UpperArm" 2
4 "ValveBiped.Bip01_L_Forearm" 3
5 "ValveBiped.Bip01_L_Hand" 4
6 "ValveBiped.Bip01_L_Finger4" 5
7 "ValveBiped.Bip01_L_Finger41" 6
8 "ValveBiped.Bip01_L_Finger42" 7
9 "ValveBiped.Bip01_L_Finger3" 5
10 "ValveBiped.Bip01_L_Finger31" 9
11 "ValveBiped.Bip01_L_Finger32" 10
12 "ValveBiped.Bip01_L_Finger2" 5
13 "ValveBiped.Bip01_L_Finger21" 12
14 "ValveBiped.Bip01_L_Finger22" 13
15 "ValveBiped.Bip01_L_Finger1" 5
16 "ValveBiped.Bip01_L_Finger11" 15
17 "ValveBiped.Bip01_L_Finger12" 16
18 "ValveBiped.Bip01_L_Finger0" 5
19 "ValveBiped.Bip01_L_Finger01" 18
20 "ValveBiped.Bip01_L_Finger02" 19
21 "ValveBiped.Bip01_L_Ulna" 4
22 "ValveBiped.Bip01_L_Wrist" 4
23 "rig_l_upperarm" 2
24 "rig_l_forearm" 23
25 "rig_d_l_forearm" 24
26 "rig_d_l_upperarm" 23
27 "ValveBiped.Bip01_R_Clavicle" 1
28 "ValveBiped.Bip01_R_UpperArm" 27
29 "ValveBiped.Bip01_R_Forearm" 28
30 "ValveBiped.Bip01_R_Hand" 29
31 "ValveBiped.Bip01_R_Finger4" 30
32 "ValveBiped.Bip01_R_Finger41" 31
33 "ValveBiped.Bip01_R_Finger42" 32
34 "ValveBiped.Bip01_R_Finger3" 30
35 "ValveBiped.Bip01_R_Finger31" 34
36 "ValveBiped.Bip01_R_Finger32" 35
37 "ValveBiped.Bip01_R_Finger2" 30
38 "ValveBiped.Bip01_R_Finger21" 37
39 "ValveBiped.Bip01_R_Finger22" 38
40 "ValveBiped.Bip01_R_Finger1" 30
41 "ValveBiped.Bip01_R_Finger11" 40
42 "ValveBiped.Bip01_R_Finger12" 41
43 "ValveBiped.Bip01_R_Finger0" 30
44 "ValveBiped.Bip01_R_Finger01" 43
45 "ValveBiped.Bip01_R_Finger02" 44
46 "ValveBiped.Bip01_R_Ulna" 29
47 "ValveBiped.Bip01_R_Wrist" 29
48 "rig_r_upperarm" 27
49 "rig_r_forearm" 48
50 "rig_d_r_forearm" 49
51 "rig_d_r_upperarm" 48
52 "rig_r_hand" -1
53 "rig_d_r_hand" 52
54 "rig_d_r_wrist" 53
55 "rig_l_hand" -1
56 "rig_d_l_hand" 55
57 "rig_d_l_wrist" 55
58 "rig_l_pole" -1
59 "rig_r_pole" -1
60 "rig_l_clavicle" -1
61 "rig_d_l_clavicle" 60
62 "rig_r_clavicle" -1
63 "rig_d_r_clavicle" 62
64 "Camera" -1
65 "body" -1
66 "trigger" 65
67 "boltprot" 65
68 "bolt" 67
69 "hammer" 67
70 "magrel" 65
71 "mag" -1
72 "round1" 71
73 "round2" 71
74 "round3" 71
end
skeleton
time 0
0  0 0 0  0 0 0
1  0.000006 0.000000 0.000000  -1.570800 -1.391899 -1.570792
2  -8.138873 1.780375 1.937664  -1.544956 -1.855077 -0.198630
3  6.027523 -0.000328 0.000192  -0.574363 -1.344224 -1.547204
4  11.692110 0.000644 -0.000739  -1.471379 -0.000006 -1.201783
5  11.480195 0.000696 -0.000395  1.106931 -0.922351 0.381887
6  3.571336 -0.073053 -1.193380  -0.630908 0.056337 -1.699771
7  1.312589 0.000013 0.000008  -0.000395 0.000880 -0.663191
8  0.729355 0.000052 0.000050  -0.000172 0.000021 -0.220360
9  3.942142 0.046273 -0.431511  -0.413547 0.112709 -1.516154
10  1.539110 0.000086 0.000006  -0.001056 0.003240 -0.572825
11  1.196333 0.000145 0.000030  -0.000216 0.000008 -0.647849
12  3.883503 -0.047269 0.431382  -0.386032 0.372160 -1.001174
13  1.719573 -0.000027 0.000014  0.029635 0.017714 -0.994916
14  1.209179 0.000092 0.000012  -0.001849 0.000829 -0.701987
15  3.859661 -0.138476 1.332410  -0.061682 0.488092 -0.444155
16  1.719448 -0.000011 0.000022  -0.017508 -0.024177 -0.574397
17  1.099675 0.000047 0.000003  0.000693 0.002640 -1.571702
18  0.945841 -0.861836 1.304576  -1.769690 -0.354327 -0.275173
19  1.789821 -0.000003 -0.000016  0.008665 0.005630 -0.065006
20  1.207016 -0.000012 -0.000045  0.000321 -0.000553 0.304742
21  5.740637 0.000410 -0.000704  -0.133944 0.000003 0.000071
22  11.481045 0.000351 -0.000735  -0.045069 -0.173220 0.018603
23  6.027523 -0.000330 0.000203  1.541499 -0.224786 1.725175
24  0.000002 11.692098 -0.000007  -0.848899 -0.320713 -0.687316
25  0.000003 0.000008 -0.000001  -0.602294 -0.000031 1.570739
26  -0.000000 -0.000012 -0.000001  0.868957 0.000002 1.570712
27  -5.843360 -7.961716 2.089273  1.473120 1.855075 -0.198639
28  6.027507 -0.000261 -0.000230  1.668884 0.562705 -0.464311
29  11.691992 0.000243 0.000856  0.141450 0.000081 -1.966746
30  11.478214 -0.001498 0.001044  -0.982522 0.050533 0.808482
31  3.859436 -0.132788 1.193061  0.419753 0.064213 -1.630733
32  1.312559 0.000026 -0.000001  0.018649 -0.111950 -0.566450
33  0.729345 0.000066 -0.000028  -0.136092 -0.130379 -0.745071
34  3.942046 0.050108 0.430996  0.227728 0.017433 -1.395883
35  1.539096 0.000004 0.000000  0.033374 -0.057010 -0.978694
36  1.196299 0.000076 -0.000004  -0.008681 -0.024216 -0.882959
37  3.883411 -0.050502 -0.431088  0.220900 -0.070369 -1.119647
38  1.719564 -0.000081 -0.000004  0.013025 -0.077950 -1.452999
39  1.209196 0.000036 0.000012  0.008192 -0.000795 -0.494142
40  3.859585 -0.149112 -1.331324  -0.144133 0.068146 -0.137838
41  1.719411 -0.000098 -0.000034  -0.015109 -0.000174 -1.071001
42  1.099673 0.000024 0.000007  -0.004386 -0.008133 -0.862854
43  0.805978 -0.359854 -1.318339  0.974252 0.268925 -0.894612
44  1.789780 -0.000007 -0.000042  0.001484 -0.011936 0.235362
45  1.206997 -0.000005 0.000005  0.001538 -0.000068 1.118076
46  5.740571 0.000055 0.000722  0.195045 -0.000014 0.000021
47  11.480587 -0.000265 0.000958  0.114956 0.030906 0.139820
48  6.027514 -0.000274 -0.000237  -0.653776 -0.500930 -1.682617
49  -0.000002 11.691976 -0.000007  -1.304926 0.752133 0.953918
50  0.000003 -0.000001 0.000000  2.413975 -0.000041 1.570856
51  -0.000007 -0.000015 0.000004  2.272644 -0.000030 1.570865
52  -4.432935 -3.967476 -6.567115  3.040857 -0.056814 -1.459335
53  -0.000000 0.000000 0.000000  0.008153 -0.000259 0.000009
54  -0.000000 -0.000000 -0.000000  1.565115 0.043565 -0.106862
55  -0.540127 -17.034161 -5.745320  -0.969854 0.142018 -1.903529
56  0.000000 -0.000000 -0.000000  0.000000 -0.000000 -0.000002
57  0.000030 0.000029 0.000000  -1.571901 -0.044449 -0.106509
58  8.426761 -19.544212 -16.568478  1.570796 -0.000000 0.000000
59  -15.417985 2.938832 -17.970421  1.570796 -0.000000 0.000000
60  1.941978 -0.304065 -8.327020  1.570796 -0.000000 0.000000
61  -0.004311 0.001229 -0.000371  0.006898 -0.005534 -0.284229
62  2.089273 8.874444 -4.333363  1.570796 -0.000000 0.000000
63  0.000000 0.000000 0.000000  -0.078727 -3.136056 0.284226
64  1.000000 0.000000 -0.750000  1.570796 -0.000000 0.000000
65  -2.320994 -10.436199 -1.933373  1.571103 0.041360 0.006551
66  0.000002 -2.923558 -1.408042  0.000000 -0.000000 -0.000000
67  -0.000002 -0.601197 -2.062165  0.000000 -0.000000 -0.000000
68  0.004380 -0.039406 6.613115  0.000000 -0.000000 -0.000000
69  0.000002 -0.021786 -0.115848  -0.000000 -0.000000 -0.000000
70  0.000002 -3.304880 0.259167  0.000000 -0.000000 -0.000000
71  -2.342128 -15.173188 -3.193902  1.571103 0.041360 0.006551
72  0.057100 0.204433 -2.709597  0.000000 -0.000000 -0.000000
73  0.111673 -0.283002 -2.709596  0.000000 -0.000000 -0.000000
74  -0.128217 -0.750370 -2.709597  0.000000 0.000000 -0.000000
time 1
0  0 0 0  0 0 0
1  0.000006 0.000000 0.000000  -1.570800 -1.391899 -1.570792
2  -8.138873 1.780375 1.937664  -1.544956 -1.855077 -0.198630
3  6.027523 -0.000328 0.000192  -0.573336 -1.344204 -1.547705
4  11.692110 0.000643 -0.000739  -1.471379 -0.000006 -1.201211
5  11.480198 0.000697 -0.000391  1.105402 -0.921961 0.381908
6  3.571339 -0.073053 -1.193382  -0.630908 0.056337 -1.699771
7  1.312590 0.000013 0.000009  -0.000395 0.000880 -0.663191
8  0.729356 0.000054 0.000048  -0.000172 0.000021 -0.220360
9  3.942142 0.046273 -0.431512  -0.413547 0.112709 -1.516154
10  1.539110 0.000083 0.000004  -0.001056 0.003240 -0.572825
11  1.196333 0.000144 0.000029  -0.000216 0.000008 -0.647849
12  3.883503 -0.047269 0.431380  -0.386032 0.372160 -1.001174
13  1.719573 -0.000027 0.000012  0.029635 0.017714 -0.994916
14  1.209178 0.000094 0.000014  -0.001849 0.000829 -0.701988
15  3.859662 -0.138475 1.332409  -0.061682 0.488092 -0.444155
16  1.719448 -0.000013 0.000022  -0.017508 -0.024177 -0.574397
17  1.099675 0.000049 0.000006  0.000693 0.002640 -1.571702
18  0.945844 -0.861835 1.304575  -1.769690 -0.354327 -0.275173
19  1.789821 -0.000003 -0.000018  0.008665 0.005630 -0.065006
20  1.207018 -0.000012 -0.000043  0.000321 -0.000553 0.304742
21  5.740636 0.000412 -0.000703  -0.134135 0.000003 0.000071
22  11.481044 0.000352 -0.000736  -0.045351 -0.173182 0.018491
23  6.027523 -0.000330 0.000203  1.541261 -0.224776 1.725728
24  0.000000 11.692099 -0.000007  -0.848543 -0.320436 -0.687059
25  0.000002 0.000009 -0.000001  -0.602294 -0.000031 1.570739
26  -0.000003 -0.000011 -0.000001  0.868957 0.000002 1.570712
27  -5.843360 -7.961716 2.089273  1.473120 1.855075 -0.198639
28  6.027507 -0.000261 -0.000230  1.669690 0.562911 -0.464124
29  11.691992 0.000242 0.000856  0.141450 0.000081 -1.966427
30  11.478220 -0.001495 0.001044  -0.983478 0.049272 0.809054
31  3.859436 -0.132787 1.193061  0.419753 0.064213 -1.630733
32  1.312558 0.000023 -0.000000  0.018650 -0.111950 -0.566450
33  0.729344 0.000066 -0.000028  -0.136092 -0.130379 -0.745071
34  3.942046 0.050109 0.430996  0.227728 0.017433 -1.395883
35  1.539096 0.000004 -0.000000  0.033374 -0.057010 -0.978694
36  1.196298 0.000077 -0.000004  -0.008681 -0.024216 -0.882959
37  3.883412 -0.050502 -0.431087  0.220900 -0.070369 -1.119647
38  1.719563 -0.000081 -0.000004  0.013025 -0.077950 -1.452999
39  1.209196 0.000036 0.000011  0.008192 -0.000795 -0.494142
40  3.859585 -0.149112 -1.331323  -0.144133 0.068146 -0.137838
41  1.719412 -0.000097 -0.000035  -0.015109 -0.000174 -1.071001
42  1.099673 0.000025 0.000006  -0.004386 -0.008133 -0.862854
43  0.805979 -0.359853 -1.318339  0.974252 0.268925 -0.894612
44  1.789779 -0.000007 -0.000042  0.001484 -0.011936 0.235362
45  1.206997 -0.000005 0.000005  0.001538 -0.000068 1.118076
46  5.740572 0.000055 0.000723  0.195006 -0.000014 0.000021
47  11.480589 -0.000264 0.000958  0.114869 0.030628 0.140014
48  6.027514 -0.000274 -0.000237  -0.653729 -0.500219 -1.682883
49  -0.000004 11.691976 -0.000007  -1.304733 0.751934 0.953843
50  0.000003 -0.000001 -0.000000  2.413975 -0.000041 1.570856
51  -0.000008 -0.000015 0.000004  2.272644 -0.000030 1.570865
52  -4.438600 -3.970510 -6.560732  3.040031 -0.056004 -1.459278
53  0.000000 -0.000000 -0.000000  0.008153 -0.000259 0.000009
54  0.000000 0.000000 0.000000  1.565115 0.043565 -0.106862
55  -0.544906 -17.037735 -5.751790  -0.970957 0.142394 -1.903674
56  -0.000000 -0.000000 0.000000  0.000000 -0.000000 -0.000002
57  0.000030 0.000029 0.000001  -1.571901 -0.044449 -0.106509
58  8.426761 -19.544212 -16.568478  1.570796 -0.000000 0.000000
59  -15.417985 2.938832 -17.970421  1.570796 -0.000000 0.000000
60  1.941978 -0.304065 -8.327020  1.570796 -0.000000 0.000000
61  -0.004311 0.001229 -0.000371  0.006898 -0.005534 -0.284229
62  2.089273 8.874444 -4.333363  1.570796 -0.000000 0.000000
63  0.000000 0.000000 0.000000  -0.078727 -3.136056 0.284226
64  1.000000 0.000000 -0.750000  1.570796 -0.000443 -0.000000
65  -2.322379 -10.442511 -1.933524  1.571823 0.042264 0.006592
66  0.000002 -2.923557 -1.408041  0.000000 0.000000 -0.000000
67  -0.000002 -0.601197 -2.062164  0.000000 0.000000 -0.000000
68  0.004380 -0.039407 6.613116  0.000000 0.000000 -0.000000
69  0.000002 -0.021787 -0.115848  0.000000 0.000000 -0.000000
70  0.000002 -3.304881 0.259170  0.000000 0.000000 -0.000000
71  -2.344607 -15.178600 -3.197409  1.571823 0.042264 0.006592
72  0.057100 0.204433 -2.709599  0.000000 -0.000000 -0.000000
73  0.111673 -0.283001 -2.709599  0.000000 -0.000000 -0.000000
74  -0.128217 -0.750370 -2.709599  0.000000 0.000000 -0.000000
time 2
0  0 0 0  0 0 0
1  0.000006 0.000000 0.000000  -1.570800 -1.391899 -1.570792
2  -8.138873 1.780375 1.937664  -1.544956 -1.855077 -0.198630
3  6.027523 -0.000328 0.000192  -0.570901 -1.344117 -1.548766
4  11.692110 0.000644 -0.000740  -1.471379 -0.000006 -1.199819
5  11.480204 0.000696 -0.000386  1.101569 -0.920968 0.381912
6  3.571338 -0.073054 -1.193381  -0.630908 0.056336 -1.699771
7  1.312592 0.000014 0.000007  -0.000395 0.000880 -0.663191
8  0.729356 0.000053 0.000049  -0.000172 0.000021 -0.220360
9  3.942142 0.046272 -0.431512  -0.413547 0.112709 -1.516154
10  1.539110 0.000085 0.000006  -0.001056 0.003240 -0.572825
11  1.196332 0.000146 0.000029  -0.000216 0.000008 -0.647849
12  3.883503 -0.047270 0.431381  -0.386032 0.372160 -1.001174
13  1.719574 -0.000029 0.000015  0.029635 0.017714 -0.994916
14  1.209179 0.000093 0.000013  -0.001849 0.000829 -0.701988
15  3.859662 -0.138476 1.332410  -0.061682 0.488092 -0.444155
16  1.719449 -0.000011 0.000023  -0.017508 -0.024177 -0.574397
17  1.099675 0.000049 0.000005  0.000693 0.002640 -1.571701
18  0.945844 -0.861837 1.304576  -1.769690 -0.354327 -0.275173
19  1.789821 -0.000003 -0.000018  0.008665 0.005630 -0.065006
20  1.207015 -0.000012 -0.000042  0.000320 -0.000553 0.304742
21  5.740637 0.000410 -0.000702  -0.134612 0.000003 0.000070
22  11.481046 0.000351 -0.000734  -0.046062 -0.173085 0.018203
23  6.027523 -0.000330 0.000203  1.540693 -0.224789 1.727166
24  0.000002 11.692100 -0.000008  -0.847677 -0.319762 -0.686433
25  0.000002 0.000009 0.000000  -0.602294 -0.000030 1.570739
26  0.000000 -0.000012 -0.000002  0.868957 0.000002 1.570712
27  -5.843360 -7.961716 2.089273  1.473120 1.855075 -0.198639
28  6.027507 -0.000261 -0.000229  1.671634 0.563375 -0.463675
29  11.691992 0.000242 0.000856  0.141450 0.000080 -1.965618
30  11.478224 -0.001490 0.001044  -0.985866 0.046173 0.810416
31  3.859435 -0.132788 1.193062  0.419753 0.064213 -1.630733
32  1.312558 0.000024 -0.000000  0.018650 -0.111950 -0.566450
33  0.729346 0.000066 -0.000027  -0.136092 -0.130379 -0.745071
34  3.942045 0.050109 0.430997  0.227728 0.017433 -1.395883
35  1.539096 0.000006 0.000001  0.033374 -0.057010 -0.978694
36  1.196299 0.000077 -0.000004  -0.008681 -0.024216 -0.882959
37  3.883411 -0.050502 -0.431087  0.220900 -0.070369 -1.119647
38  1.719563 -0.000082 -0.000003  0.013025 -0.077950 -1.452999
39  1.209195 0.000035 0.000011  0.008192 -0.000795 -0.494142
40  3.859584 -0.149112 -1.331323  -0.144133 0.068146 -0.137838
41  1.719412 -0.000098 -0.000034  -0.015109 -0.000174 -1.071001
42  1.099674 0.000024 0.000007  -0.004386 -0.008133 -0.862854
43  0.805979 -0.359854 -1.318338  0.974252 0.268925 -0.894612
44  1.789779 -0.000008 -0.000043  0.001484 -0.011936 0.235362
45  1.206997 -0.000005 0.000005  0.001538 -0.000068 1.118076
46  5.740572 0.000055 0.000725  0.194885 -0.000014 0.000021
47  11.480589 -0.000262 0.000959  0.114647 0.029941 0.140481
48  6.027514 -0.000274 -0.000237  -0.653581 -0.498516 -1.683542
49  -0.000003 11.691975 -0.000006  -1.304243 0.751430 0.953655
50  0.000003 -0.000001 0.000000  2.413975 -0.000041 1.570856
51  -0.000008 -0.000016 0.000005  2.272644 -0.000030 1.570865
52  -4.452762 -3.978127 -6.545803  3.037968 -0.053980 -1.459133
53  0.000000 0.000000 0.000000  0.008153 -0.000259 0.000009
54  0.000000 -0.000000 0.000000  1.565115 0.043565 -0.106862
55  -0.556851 -17.046638 -5.769000  -0.973715 0.143336 -1.904035
56  -0.000000 0.000000 -0.000001  0.000000 -0.000000 -0.000002
57  0.000030 0.000029 -0.000000  -1.571902 -0.044449 -0.106509
58  8.426761 -19.544212 -16.568478  1.570796 -0.000000 0.000000
59  -15.417985 2.938832 -17.970421  1.570796 -0.000000 0.000000
60  1.941978 -0.304065 -8.327020  1.570796 -0.000000 0.000000
61  -0.004311 0.001229 -0.000371  0.006898 -0.005534 -0.284229
62  2.089273 8.874444 -4.333363  1.570796 -0.000000 0.000000
63  0.000000 0.000000 0.000000  -0.078727 -3.136056 0.284226
64  1.000000 0.000000 -0.750000  1.570796 -0.001550 -0.000000
65  -2.325839 -10.458290 -1.934957  1.573622 0.044525 0.006702
66  0.000002 -2.923558 -1.408042  -0.000000 -0.000000 0.000000
67  -0.000002 -0.601197 -2.062164  -0.000000 -0.000000 0.000000
68  0.004381 -0.039406 6.613116  -0.000000 -0.000000 0.000000
69  0.000002 -0.021786 -0.115850  -0.000000 -0.000000 0.000000
70  0.000002 -3.304880 0.259168  -0.000000 -0.000000 0.000000
71  -2.350798 -15.192122 -3.207227  1.573622 0.044525 0.006702
72  0.057100 0.204433 -2.709597  0.000000 -0.000000 0.000000
73  0.111673 -0.283001 -2.709597  0.000000 -0.000000 0.000000
74  -0.128218 -0.750370 -2.709597  0.000000 0.000000 0.000000
time 3
0  0 0 0  0 0 0
1  0.000006 0.000000 0.000000  -1.570800 -1.391899 -1.570792
2  -8.138873 1.780375 1.937664  -1.544956 -1.855077 -0.198630
3  6.027523 -0.000328 0.000192  -0.567915 -1.343954 -1.549887
4  11.692110 0.000644 -0.000740  -1.471379 -0.000006 -1.198059
5  11.480217 0.000698 -0.000384  1.096575 -0.919655 0.381850
6  3.571337 -0.073053 -1.193382  -0.630908 0.056336 -1.699771
7  1.312590 0.000013 0.000006  -0.000395 0.000880 -0.663191
8  0.729355 0.000054 0.000049  -0.000172 0.000021 -0.220360
9  3.942143 0.046273 -0.431512  -0.413547 0.112709 -1.516154
10  1.539111 0.000083 0.000005  -0.001056 0.003240 -0.572825
11  1.196330 0.000146 0.000029  -0.000216 0.000008 -0.647849
12  3.883502 -0.047269 0.431381  -0.386032 0.372160 -1.001174
13  1.719572 -0.000029 0.000014  0.029635 0.017714 -0.994916
14  1.209179 0.000091 0.000010  -0.001849 0.000829 -0.701988
15  3.859661 -0.138475 1.332409  -0.061682 0.488092 -0.444155
16  1.719450 -0.000011 0.000022  -0.017509 -0.024177 -0.574397
17  1.099675 0.000049 0.000007  0.000693 0.002640 -1.571702
18  0.945844 -0.861836 1.304576  -1.769690 -0.354327 -0.275173
19  1.789821 -0.000003 -0.000019  0.008665 0.005630 -0.065006
20  1.207014 -0.000012 -0.000043  0.000321 -0.000553 0.304742
21  5.740638 0.000410 -0.000704  -0.135233 0.000003 0.000070
22  11.481050 0.000352 -0.000735  -0.046994 -0.172952 0.017817
23  6.027523 -0.000330 0.000203  1.539988 -0.224861 1.729112
24  0.000001 11.692098 -0.000007  -0.846582 -0.318910 -0.685640
25  0.000004 0.000008 -0.000002  -0.602294 -0.000031 1.570738
26  -0.000001 -0.000012 -0.000001  0.868957 0.000002 1.570712
27  -5.843360 -7.961716 2.089273  1.473120 1.855075 -0.198639
28  6.027507 -0.000261 -0.000229  1.674061 0.563911 -0.463116
29  11.691991 0.000242 0.000853  0.141450 0.000080 -1.964548
30  11.478234 -0.001485 0.001044  -0.988971 0.042221 0.812092
31  3.859436 -0.132788 1.193062  0.419753 0.064213 -1.630733
32  1.312558 0.000025 -0.000001  0.018650 -0.111950 -0.566450
33  0.729345 0.000065 -0.000027  -0.136092 -0.130379 -0.745071
34  3.942046 0.050109 0.430998  0.227728 0.017433 -1.395883
35  1.539096 0.000005 -0.000000  0.033374 -0.057010 -0.978694
36  1.196300 0.000076 -0.000005  -0.008681 -0.024216 -0.882959
37  3.883412 -0.050502 -0.431086  0.220900 -0.070369 -1.119647
38  1.719563 -0.000082 -0.000003  0.013025 -0.077950 -1.452999
39  1.209196 0.000035 0.000011  0.008192 -0.000795 -0.494142
40  3.859586 -0.149112 -1.331323  -0.144133 0.068146 -0.137838
41  1.719412 -0.000097 -0.000034  -0.015109 -0.000174 -1.071001
42  1.099674 0.000023 0.000007  -0.004386 -0.008133 -0.862854
43  0.805979 -0.359854 -1.318338  0.974252 0.268925 -0.894612
44  1.789779 -0.000008 -0.000042  0.001484 -0.011936 0.235362
45  1.206996 -0.000006 0.000004  0.001538 -0.000068 1.118076
46  5.740571 0.000056 0.000724  0.194694 -0.000014 0.000021
47  11.480590 -0.000260 0.000958  0.114354 0.029055 0.141063
48  6.027514 -0.000274 -0.000237  -0.653352 -0.496405 -1.684389
49  -0.000002 11.691975 -0.000006  -1.303596 0.750764 0.953406
50  0.000004 -0.000002 0.000000  2.413975 -0.000041 1.570856
51  -0.000006 -0.000016 0.000005  2.272644 -0.000030 1.570865
52  -4.471176 -3.988088 -6.527826  3.035288 -0.051349 -1.458941
53  0.000000 -0.000000 0.000000  0.008153 -0.000259 0.000009
54  -0.000000 -0.000000 0.000000  1.565115 0.043565 -0.106862
55  -0.572373 -17.058157 -5.792812  -0.977302 0.144558 -1.904499
56  0.000001 -0.000000 0.000000  0.000000 -0.000000 -0.000002
57  0.000031 0.000029 0.000001  -1.571902 -0.044449 -0.106509
58  8.426761 -19.544212 -16.568478  1.570796 -0.000000 0.000000
59  -15.417985 2.938832 -17.970421  1.570796 -0.000000 0.000000
60  1.941978 -0.304065 -8.327020  1.570796 -0.000000 0.000000
61  -0.004311 0.001229 -0.000371  0.006898 -0.005534 -0.284229
62  2.089273 8.874444 -4.333363  1.570796 -0.000000 0.000000
63  0.000000 0.000000 0.000000  -0.078727 -3.136056 0.284226
64  1.000000 0.000000 -0.750000  1.570796 -0.002989 -0.000000
65  -2.330337 -10.478803 -1.938308  1.575961 0.047463 0.006860
66  0.000002 -2.923558 -1.408042  -0.000000 0.000000 -0.000000
67  -0.000003 -0.601198 -2.062164  -0.000000 0.000000 -0.000000
68  0.004380 -0.039407 6.613114  -0.000000 0.000000 -0.000000
69  0.000002 -0.021786 -0.115850  -0.000000 0.000000 -0.000000
70  0.000002 -3.304880 0.259168  -0.000000 0.000000 -0.000000
71  -2.358832 -15.209675 -3.221462  1.575961 0.047463 0.006860
72  0.057099 0.204432 -2.709596  -0.000000 0.000000 -0.000000
73  0.111673 -0.283002 -2.709595  -0.000000 0.000000 -0.000000
74  -0.128217 -0.750370 -2.709595  -0.000000 0.000000 -0.000000
time 4
0  0 0 0  0 0 0
1  0.000006 0.000000 0.000000  -1.570800 -1.391899 -1.570792
2  -8.138873 1.780375 1.937664  -1.544956 -1.855077 -0.198630
3  6.027523 -0.000328 0.000192  -0.565357 -1.343675 -1.550401
4  11.692110 0.000644 -0.000739  -1.471378 -0.000006 -1.196412
5  11.480226 0.000698 -0.000384  1.091558 -0.918292 0.381636
6  3.571339 -0.073053 -1.193381  -0.630908 0.056336 -1.699771
7  1.312591 0.000011 0.000006  -0.000395 0.000880 -0.663191
8  0.729355 0.000054 0.000051  -0.000172 0.000021 -0.220360
9  3.942143 0.046273 -0.431512  -0.413547 0.112709 -1.516154
10  1.539111 0.000085 0.000005  -0.001056 0.003240 -0.572825
11  1.196333 0.000146 0.000029  -0.000216 0.000008 -0.647849
12  3.883504 -0.047269 0.431381  -0.386032 0.372160 -1.001174
13  1.719573 -0.000027 0.000017  0.029635 0.017714 -0.994916
14  1.209180 0.000091 0.000013  -0.001849 0.000829 -0.701987
15  3.859661 -0.138476 1.332410  -0.061682 0.488092 -0.444155
16  1.719447 -0.000012 0.000021  -0.017509 -0.024177 -0.574397
17  1.099675 0.000046 0.000006  0.000693 0.002640 -1.571701
18  0.945844 -0.861836 1.304575  -1.769691 -0.354327 -0.275173
19  1.789822 -0.000003 -0.000019  0.008665 0.005630 -0.065006
20  1.207015 -0.000012 -0.000043  0.000321 -0.000553 0.304742
21  5.740639 0.000410 -0.000706  -0.135854 0.000003 0.000071
22  11.481051 0.000352 -0.000738  -0.047945 -0.172807 0.017404
23  6.027523 -0.000330 0.000203  1.539364 -0.225057 1.731230
24  0.000002 11.692099 -0.000006  -0.845556 -0.318114 -0.684898
25  0.000004 0.000010 -0.000001  -0.602294 -0.000031 1.570739
26  -0.000000 -0.000011 -0.000000  0.868957 0.000002 1.570712
27  -5.843360 -7.961716 2.089273  1.473120 1.855075 -0.198639
28  6.027507 -0.000261 -0.000229  1.676268 0.564282 -0.462618
29  11.691992 0.000242 0.000855  0.141450 0.000080 -1.963451
30  11.478245 -0.001483 0.001042  -0.992066 0.038429 0.813550
31  3.859436 -0.132788 1.193062  0.419753 0.064213 -1.630733
32  1.312559 0.000024 0.000000  0.018650 -0.111950 -0.566450
33  0.729345 0.000067 -0.000026  -0.136092 -0.130379 -0.745071
34  3.942046 0.050109 0.430997  0.227728 0.017433 -1.395883
35  1.539096 0.000004 0.000000  0.033374 -0.057010 -0.978694
36  1.196299 0.000077 -0.000004  -0.008681 -0.024216 -0.882959
37  3.883412 -0.050502 -0.431087  0.220900 -0.070369 -1.119647
38  1.719563 -0.000081 -0.000004  0.013025 -0.077950 -1.452999
39  1.209197 0.000036 0.000011  0.008192 -0.000795 -0.494142
40  3.859585 -0.149111 -1.331323  -0.144133 0.068146 -0.137838
41  1.719413 -0.000098 -0.000034  -0.015109 -0.000174 -1.071001
42  1.099674 0.000026 0.000007  -0.004386 -0.008133 -0.862854
43  0.805979 -0.359853 -1.318337  0.974252 0.268925 -0.894612
44  1.789779 -0.000008 -0.000042  0.001484 -0.011936 0.235362
45  1.206995 -0.000005 0.000005  0.001538 -0.000068 1.118076
46  5.740572 0.000055 0.000724  0.194429 -0.000014 0.000021
47  11.480593 -0.000261 0.000959  0.114052 0.028189 0.141593
48  6.027514 -0.000274 -0.000237  -0.653024 -0.494526 -1.685227
49  -0.000002 11.691975 -0.000008  -1.302933 0.750081 0.953150
50  0.000003 -0.000002 0.000001  2.413975 -0.000041 1.570856
51  -0.000007 -0.000016 0.000005  2.272644 -0.000030 1.570865
52  -4.489633 -3.998137 -6.513084  3.032608 -0.048716 -1.458740
53  -0.000000 0.000000 -0.000001  0.008153 -0.000259 0.000009
54  0.000000 -0.000000 0.000000  1.565115 0.043565 -0.106862
55  -0.587847 -17.069599 -5.819873  -0.980889 0.145779 -1.904952
56  0.000000 0.000000 -0.000001  0.000000 -0.000000 -0.000002
57  0.000030 0.000029 0.000000  -1.571902 -0.044449 -0.106509
58  8.426761 -19.544212 -16.568478  1.570796 -0.000000 0.000000
59  -15.417985 2.938832 -17.970421  1.570796 -0.000000 0.000000
60  1.941978 -0.304065 -8.327020  1.570796 -0.000000 0.000000
61  -0.004311 0.001229 -0.000371  0.006898 -0.005534 -0.284229
62  2.089273 8.874444 -4.333363  1.570796 -0.000000 0.000000
63  0.000000 0.000000 0.000000  -0.078727 -3.136056 0.284226
64  1.000000 0.000000 -0.750000  1.570796 -0.004428 -0.000000
65  -2.334836 -10.499315 -1.944960  1.578301 0.050400 0.007041
66  0.000002 -2.923558 -1.408043  0.000000 -0.000000 0.000000
67  -0.000002 -0.601197 -2.062164  0.000000 -0.000000 0.000000
68  0.004381 -0.039407 6.613114  0.000000 -0.000000 0.000000
69  0.000002 -0.021786 -0.115849  0.000000 -0.000000 0.000000
70  0.000002 -3.304880 0.259168  0.000000 -0.000000 0.000000
71  -2.366821 -15.227204 -3.238981  1.578301 0.050400 0.007041
72  0.057100 0.204434 -2.709596  0.000000 -0.000000 0.000000
73  0.111673 -0.283001 -2.709596  0.000000 -0.000000 0.000000
74  -0.128217 -0.750370 -2.709596  0.000000 0.000000 0.000000
time 5
0  0 0 0  0 0 0
1  0.000006 0.000000 0.000000  -1.570800 -1.391899 -1.570792
2  -8.138873 1.780375 1.937664  -1.544956 -1.855077 -0.198630
3  6.027523 -0.000328 0.000192  -0.564607 -1.343140 -1.549085
4  11.692111 0.000643 -0.000740  -1.471378 -0.000006 -1.195462
5  11.480227 0.000700 -0.000376  1.087633 -0.917099 0.381056
6  3.571339 -0.073053 -1.193380  -0.630908 0.056336 -1.699771
7  1.312590 0.000013 0.000005  -0.000395 0.000880 -0.663191
8  0.729354 0.000053 0.000050  -0.000172 0.000021 -0.220360
9  3.942143 0.046273 -0.431512  -0.413547 0.112709 -1.516154
10  1.539112 0.000086 0.000006  -0.001056 0.003240 -0.572825
11  1.196332 0.000145 0.000029  -0.000216 0.000008 -0.647849
12  3.883504 -0.047269 0.431382  -0.386032 0.372160 -1.001174
13  1.719574 -0.000026 0.000013  0.029634 0.017714 -0.994916
14  1.209177 0.000094 0.000014  -0.001849 0.000829 -0.701988
15  3.859663 -0.138475 1.332410  -0.061682 0.488091 -0.444155
16  1.719448 -0.000013 0.000022  -0.017508 -0.024177 -0.574397
17  1.099675 0.000051 0.000006  0.000693 0.002640 -1.571702
18  0.945844 -0.861836 1.304576  -1.769690 -0.354327 -0.275173
19  1.789819 -0.000003 -0.000018  0.008665 0.005630 -0.065006
20  1.207014 -0.000012 -0.000045  0.000321 -0.000553 0.304742
21  5.740635 0.000412 -0.000702  -0.136330 0.000003 0.000070
22  11.481050 0.000353 -0.000732  -0.048726 -0.172661 0.017015
23  6.027523 -0.000330 0.000203  1.539115 -0.225562 1.733331
24  0.000001 11.692100 -0.000007  -0.844965 -0.317655 -0.684470
25  0.000004 0.000009 -0.000000  -0.602294 -0.000031 1.570739
26  -0.000001 -0.000011 -0.000000  0.868957 0.000002 1.570712
27  -5.843360 -7.961716 2.089273  1.473120 1.855075 -0.198639
28  6.027507 -0.000261 -0.000229  1.677356 0.564097 -0.462413
29  11.691993 0.000242 0.000855  0.141450 0.000080 -1.962558
30  11.478252 -0.001482 0.001041  -0.994391 0.035948 0.814071
31  3.859435 -0.132788 1.193061  0.419753 0.064213 -1.630733
32  1.312558 0.000024 -0.000000  0.018650 -0.111950 -0.566450
33  0.729345 0.000065 -0.000027  -0.136091 -0.130379 -0.745071
34  3.942046 0.050109 0.430996  0.227728 0.017433 -1.395883
35  1.539096 0.000004 -0.000000  0.033374 -0.057010 -0.978694
36  1.196299 0.000077 -0.000004  -0.008681 -0.024216 -0.882959
37  3.883411 -0.050503 -0.431087  0.220900 -0.070369 -1.119647
38  1.719563 -0.000082 -0.000003  0.013025 -0.077950 -1.452999
39  1.209196 0.000035 0.000012  0.008192 -0.000795 -0.494142
40  3.859585 -0.149112 -1.331324  -0.144133 0.068146 -0.137838
41  1.719412 -0.000097 -0.000034  -0.015109 -0.000174 -1.071001
42  1.099673 0.000024 0.000007  -0.004386 -0.008133 -0.862854
43  0.805978 -0.359854 -1.318339  0.974252 0.268925 -0.894612
44  1.789779 -0.000008 -0.000043  0.001484 -0.011936 0.235362
45  1.206997 -0.000005 0.000005  0.001538 -0.000068 1.118076
46  5.740572 0.000054 0.000723  0.194033 -0.000014 0.000021
47  11.480595 -0.000261 0.000957  0.113799 0.027579 0.141859
48  6.027514 -0.000274 -0.000237  -0.652470 -0.493724 -1.685867
49  -0.000002 11.691976 -0.000007  -1.302393 0.749525 0.952941
50  0.000002 -0.000002 0.000000  2.413975 -0.000041 1.570856
51  -0.000007 -0.000015 0.000005  2.272644 -0.000030 1.570865
52  -4.503979 -4.005961 -6.510746  3.030548 -0.046691 -1.458561
53  -0.000000 -0.000000 -0.000000  0.008153 -0.000259 0.000009
54  -0.000000 -0.000000 -0.000000  1.565115 0.043565 -0.106862
55  -0.599596 -17.078314 -5.849706  -0.983650 0.146717 -1.905273
56  0.000001 0.000000 -0.000001  0.000000 -0.000000 -0.000002
57  0.000031 0.000029 0.000001  -1.571901 -0.044449 -0.106509
58  8.426761 -19.544212 -16.568478  1.570796 -0.000000 0.000000
59  -15.417985 2.938832 -17.970421  1.570796 -0.000000 0.000000
60  1.941978 -0.304065 -8.327020  1.570796 -0.000000 0.000000
61  -0.004311 0.001229 -0.000371  0.006898 -0.005534 -0.284229
62  2.089273 8.874444 -4.333363  1.570796 -0.000000 0.000000
63  0.000000 0.000000 0.000000  -0.078727 -3.136056 0.284226
64  1.000000 0.000000 -0.750000  1.570796 -0.005535 -0.000000
65  -2.338296 -10.515094 -1.959126  1.580102 0.052659 0.007215
66  0.000002 -2.923558 -1.408042  -0.000000 0.000000 -0.000000
67  -0.000002 -0.601197 -2.062164  -0.000000 0.000000 -0.000000
68  0.004381 -0.039407 6.613115  -0.000000 0.000000 -0.000000
69  0.000002 -0.021786 -0.115850  -0.000000 0.000000 -0.000000
70  0.000002 -3.304881 0.259169  -0.000000 0.000000 -0.000000
71  -2.372847 -15.240671 -3.261499  1.580102 0.052659 0.007215
72  0.057100 0.204433 -2.709598  -0.000000 -0.000000 -0.000000
73  0.111673 -0.283002 -2.709597  -0.000000 -0.000000 -0.000000
74  -0.128217 -0.750370 -2.709597  -0.000000 0.000000 -0.000000
time 6
0  0 0 0  0 0 0
1  0.000006 0.000000 0.000000  -1.570800 -1.391899 -1.570792
2  -8.138873 1.780375 1.937664  -1.544956 -1.855077 -0.198630
3  6.027523 -0.000328 0.000192  -0.567828 -1.341992 -1.543594
4  11.692110 0.000643 -0.000738  -1.471378 -0.000006 -1.195993
5  11.480226 0.000698 -0.000375  1.085867 -0.916181 0.379616
6  3.571344 -0.073052 -1.193381  -0.630908 0.056336 -1.699771
7  1.312591 0.000012 0.000007  -0.000395 0.000880 -0.663191
8  0.729355 0.000053 0.000050  -0.000172 0.000021 -0.220360
9  3.942146 0.046274 -0.431512  -0.413547 0.112709 -1.516154
10  1.539111 0.000083 0.000007  -0.001056 0.003240 -0.572825
11  1.196332 0.000146 0.000029  -0.000216 0.000008 -0.647849
12  3.883507 -0.047269 0.431381  -0.386032 0.372160 -1.001174
13  1.719572 -0.000027 0.000013  0.029634 0.017714 -0.994916
14  1.209178 0.000093 0.000014  -0.001849 0.000829 -0.701988
15  3.859665 -0.138474 1.332410  -0.061682 0.488092 -0.444155
16  1.719448 -0.000013 0.000022  -0.017508 -0.024177 -0.574397
17  1.099675 0.000048 0.000004  0.000693 0.002640 -1.571702
18  0.945845 -0.861835 1.304575  -1.769690 -0.354327 -0.275173
19  1.789821 -0.000003 -0.000018  0.008665 0.005630 -0.065006
20  1.207015 -0.000012 -0.000043  0.000321 -0.000553 0.304742
21  5.740636 0.000411 -0.000702  -0.136510 0.000003 0.000071
22  11.481050 0.000353 -0.000732  -0.049185 -0.172496 0.016648
23  6.027523 -0.000330 0.000203  1.539692 -0.226801 1.735556
24  -0.000000 11.692098 -0.000008  -0.845295 -0.317912 -0.684709
25  0.000004 0.000009 -0.000001  -0.602294 -0.000030 1.570738
26  -0.000003 -0.000011 -0.000002  0.868957 0.000002 1.570712
27  -5.843360 -7.961716 2.089273  1.473120 1.855075 -0.198639
28  6.027507 -0.000261 -0.000229  1.676017 0.562637 -0.462853
29  11.691992 0.000241 0.000856  0.141450 0.000080 -1.962078
30  11.478256 -0.001479 0.001043  -0.995141 0.036235 0.812540
31  3.859436 -0.132788 1.193061  0.419753 0.064213 -1.630734
32  1.312559 0.000024 -0.000000  0.018649 -0.111950 -0.566450
33  0.729345 0.000066 -0.000027  -0.136092 -0.130379 -0.745071
34  3.942046 0.050109 0.430996  0.227728 0.017433 -1.395883
35  1.539096 0.000005 -0.000000  0.033374 -0.057010 -0.978694
36  1.196299 0.000076 -0.000003  -0.008681 -0.024216 -0.882959
37  3.883411 -0.050502 -0.431088  0.220900 -0.070369 -1.119647
38  1.719563 -0.000081 -0.000003  0.013025 -0.077950 -1.452998
39  1.209195 0.000036 0.000012  0.008192 -0.000795 -0.494142
40  3.859585 -0.149112 -1.331323  -0.144133 0.068146 -0.137838
41  1.719411 -0.000097 -0.000034  -0.015109 -0.000174 -1.071001
42  1.099673 0.000025 0.000008  -0.004386 -0.008133 -0.862854
43  0.805979 -0.359854 -1.318338  0.974252 0.268925 -0.894612
44  1.789779 -0.000008 -0.000043  0.001484 -0.011936 0.235362
45  1.206997 -0.000005 0.000005  0.001538 -0.000068 1.118076
46  5.740572 0.000054 0.000724  0.193321 -0.000014 0.000021
47  11.480595 -0.000261 0.000958  0.113642 0.027504 0.141561
48  6.027514 -0.000274 -0.000237  -0.651349 -0.495286 -1.686123
49  -0.000002 11.691975 -0.000007  -1.302104 0.749226 0.952829
50  0.000003 -0.000001 0.000000  2.413975 -0.000041 1.570856
51  -0.000007 -0.000015 0.000004  2.272644 -0.000030 1.570865
52  -4.510102 -4.009223 -6.536101  3.029724 -0.045879 -1.458430
53  0.000000 0.000000 -0.000000  0.008153 -0.000259 0.000009
54  0.000000 -0.000000 -0.000001  1.565115 0.043565 -0.106862
55  -0.603905 -17.081680 -5.887952  -0.984754 0.147094 -1.905341
56  -0.000000 0.000000 0.000000  0.000000 -0.000000 -0.000002
57  0.000030 0.000029 0.000001  -1.571902 -0.044449 -0.106509
58  8.426761 -19.544212 -16.568478  1.570796 -0.000000 0.000000
59  -15.417985 2.938832 -17.970421  1.570796 -0.000000 0.000000
60  1.941978 -0.304065 -8.327020  1.570796 -0.000000 0.000000
61  -0.004311 0.001229 -0.000371  0.006898 -0.005534 -0.284229
62  2.089273 8.874444 -4.333363  1.570796 -0.000000 0.000000
63  0.000000 0.000000 0.000000  -0.078727 -3.136056 0.284226
64  1.000000 0.000000 -0.750000  1.570796 -0.005978 -0.000000
65  -2.339680 -10.521405 -1.991104  1.580825 0.053562 0.007347
66  0.000002 -2.923558 -1.408042  0.000000 -0.000000 -0.000000
67  -0.000002 -0.601197 -2.062164  0.000000 -0.000000 -0.000000
68  0.004380 -0.039406 6.613115  0.000000 -0.000000 -0.000000
69  0.000002 -0.021786 -0.115849  0.000000 -0.000000 -0.000000
70  0.000001 -3.304881 0.259168  0.000000 -0.000000 -0.000000
71  -2.374975 -15.246054 -3.296823  1.580825 0.053562 0.007347
72  0.057100 0.204433 -2.709597  0.000000 -0.000000 -0.000000
73  0.111673 -0.283001 -2.709597  0.000000 -0.000000 -0.000000
74  -0.128218 -0.750370 -2.709597  0.000000 0.000000 -0.000000
time 7
0  0 0 0  0 0 0
1  0.000006 0.000000 0.000000  -1.570800 -1.391899 -1.570792
2  -8.138873 1.780375 1.937664  -1.544956 -1.855077 -0.198630
3  6.027523 -0.000328 0.000192  -0.571488 -1.342046 -1.541769
4  11.692111 0.000643 -0.000739  -1.471378 -0.000006 -1.197014
5  11.480219 0.000697 -0.000377  1.092911 -0.916966 0.378799
6  3.571338 -0.073053 -1.193381  -0.630908 0.056337 -1.699771
7  1.312592 0.000012 0.000007  -0.000395 0.000880 -0.663191
8  0.729355 0.000053 0.000048  -0.000172 0.000021 -0.220360
9  3.942142 0.046272 -0.431512  -0.413547 0.112709 -1.516154
10  1.539110 0.000082 0.000005  -0.001056 0.003240 -0.572825
11  1.196332 0.000146 0.000030  -0.000216 0.000008 -0.647849
12  3.883506 -0.047269 0.431382  -0.386032 0.372160 -1.001174
13  1.719573 -0.000027 0.000016  0.029635 0.017714 -0.994916
14  1.209179 0.000092 0.000013  -0.001849 0.000829 -0.701988
15  3.859663 -0.138476 1.332411  -0.061682 0.488092 -0.444155
16  1.719449 -0.000011 0.000023  -0.017508 -0.024177 -0.574397
17  1.099676 0.000046 0.000007  0.000693 0.002640 -1.571701
18  0.945844 -0.861836 1.304576  -1.769690 -0.354327 -0.275173
19  1.789820 -0.000003 -0.000017  0.008665 0.005630 -0.065006
20  1.207019 -0.000012 -0.000044  0.000321 -0.000553 0.304742
21  5.740636 0.000411 -0.000703  -0.135384 0.000003 0.000071
22  11.481049 0.000352 -0.000733  -0.047999 -0.172464 0.017085
23  6.027523 -0.000330 0.000203  1.540544 -0.226860 1.733625
24  0.000000 11.692098 -0.000007  -0.845931 -0.318405 -0.685169
25  0.000002 0.000010 -0.000001  -0.602294 -0.000030 1.570738
26  -0.000002 -0.000011 -0.000001  0.868957 0.000002 1.570712
27  -5.843360 -7.961716 2.089273  1.473120 1.855075 -0.198639
28  6.027507 -0.000261 -0.000229  1.672365 0.561824 -0.463690
29  11.691992 0.000242 0.000857  0.141450 0.000080 -1.962069
30  11.478255 -0.001480 0.001042  -0.990792 0.041350 0.808836
31  3.859436 -0.132788 1.193062  0.419753 0.064213 -1.630733
32  1.312558 0.000026 -0.000000  0.018650 -0.111950 -0.566450
33  0.729344 0.000066 -0.000027  -0.136092 -0.130379 -0.745071
34  3.942047 0.050109 0.430997  0.227728 0.017433 -1.395883
35  1.539096 0.000005 -0.000000  0.033374 -0.057010 -0.978694
36  1.196299 0.000077 -0.000004  -0.008681 -0.024216 -0.882959
37  3.883411 -0.050502 -0.431087  0.220900 -0.070369 -1.119647
38  1.719564 -0.000081 -0.000003  0.013025 -0.077950 -1.452999
39  1.209197 0.000036 0.000011  0.008192 -0.000795 -0.494143
40  3.859585 -0.149111 -1.331323  -0.144133 0.068146 -0.137838
41  1.719412 -0.000097 -0.000035  -0.015109 -0.000174 -1.071001
42  1.099674 0.000026 0.000007  -0.004386 -0.008133 -0.862854
43  0.805979 -0.359854 -1.318338  0.974252 0.268925 -0.894612
44  1.789779 -0.000008 -0.000042  0.001484 -0.011936 0.235362
45  1.206996 -0.000005 0.000005  0.001538 -0.000068 1.118076
46  5.740572 0.000055 0.000725  0.193245 -0.000014 0.000021
47  11.480596 -0.000261 0.000958  0.114092 0.028604 0.140503
48  6.027514 -0.000274 -0.000237  -0.651680 -0.498467 -1.684856
49  -0.000001 11.691975 -0.000007  -1.302098 0.749221 0.952827
50  0.000003 -0.000002 -0.000000  2.413975 -0.000041 1.570856
51  -0.000007 -0.000016 0.000005  2.272644 -0.000030 1.570865
52  -4.490355 -4.009100 -6.571120  3.033543 -0.049074 -1.458471
53  -0.000000 -0.000000 -0.000000  0.008153 -0.000259 0.000009
54  -0.000000 0.000000 0.000000  1.565115 0.043565 -0.106862
55  -0.585129 -17.079157 -5.870848  -0.979882 0.145859 -1.904490
56  -0.000001 0.000000 0.000000  0.000000 -0.000000 -0.000002
57  0.000029 0.000029 0.000001  -1.571901 -0.044449 -0.106509
58  8.426761 -19.544212 -16.568478  1.570796 -0.000000 0.000000
59  -15.417985 2.938832 -17.970421  1.570796 -0.000000 0.000000
60  1.941978 -0.304065 -8.327020  1.570796 -0.000000 0.000000
61  -0.004311 0.001229 -0.000371  0.006898 -0.005534 -0.284229
62  2.089273 8.874444 -4.333363  1.570796 -0.000000 0.000000
63  0.000000 0.000000 0.000000  -0.078727 -3.136056 0.284226
64  1.000000 0.000000 -0.750000  1.570796 -0.005721 -0.000000
65  -2.337935 -10.508452 -1.999278  1.578042 0.049434 0.007343
66  0.000001 -2.923558 -1.408041  0.000000 0.000000 0.000000
67  -0.000003 -0.601198 -2.062164  0.000000 0.000000 0.000000
68  0.004380 -0.039407 6.613116  0.000000 0.000000 0.000000
69  0.000002 -0.021786 -0.115848  0.000000 0.000000 -0.000000
70  0.000002 -3.304881 0.259169  0.000000 0.000000 0.000000
71  -2.367180 -15.236675 -3.292142  1.578042 0.049434 0.007343
72  0.057100 0.204433 -2.709597  0.000000 0.000000 0.000000
73  0.111673 -0.283002 -2.709597  0.000000 0.000000 0.000000
74  -0.128217 -0.750370 -2.709598  0.000000 0.000000 0.000000
time 8
0  0 0 0  0 0 0
1  0.000006 0.000000 0.000000  -1.570800 -1.391899 -1.570792
2  -8.138873 1.780375 1.937664  -1.544956 -1.855077 -0.198630
3  6.027523 -0.000328 0.000192  -0.575126 -1.343030 -1.542944
4  11.692112 0.000644 -0.000741  -1.471378 -0.000006 -1.198353
5  11.480213 0.000696 -0.000386  1.106012 -0.919031 0.378646
6  3.571340 -0.073053 -1.193383  -0.630908 0.056337 -1.699771
7  1.312591 0.000013 0.000008  -0.000395 0.000880 -0.663191
8  0.729354 0.000053 0.000050  -0.000172 0.000021 -0.220360
9  3.942145 0.046273 -0.431514  -0.413547 0.112709 -1.516154
10  1.539111 0.000085 0.000008  -0.001056 0.003240 -0.572825
11  1.196333 0.000144 0.000029  -0.000216 0.000008 -0.647849
12  3.883506 -0.047269 0.431379  -0.386032 0.372160 -1.001174
13  1.719573 -0.000026 0.000017  0.029635 0.017714 -0.994916
14  1.209178 0.000091 0.000013  -0.001849 0.000829 -0.701988
15  3.859665 -0.138475 1.332408  -0.061682 0.488092 -0.444155
16  1.719448 -0.000012 0.000022  -0.017508 -0.024177 -0.574397
17  1.099676 0.000048 0.000004  0.000693 0.002640 -1.571701
18  0.945844 -0.861836 1.304574  -1.769691 -0.354327 -0.275173
19  1.789821 -0.000003 -0.000019  0.008665 0.005630 -0.065006
20  1.207014 -0.000012 -0.000042  0.000321 -0.000553 0.304742
21  5.740636 0.000410 -0.000705  -0.133358 0.000003 0.000070
22  11.481047 0.000351 -0.000735  -0.045660 -0.172547 0.018115
23  6.027523 -0.000330 0.000203  1.541514 -0.225993 1.728689
24  0.000002 11.692098 -0.000007  -0.846764 -0.319052 -0.685772
25  0.000002 0.000008 -0.000001  -0.602294 -0.000031 1.570739
26  -0.000000 -0.000011 -0.000001  0.868957 0.000002 1.570712
27  -5.843360 -7.961716 2.089273  1.473120 1.855075 -0.198639
28  6.027507 -0.000261 -0.000230  1.667275 0.561648 -0.464749
29  11.691990 0.000242 0.000857  0.141450 0.000080 -1.962434
30  11.478254 -0.001478 0.001042  -0.982905 0.049726 0.803951
31  3.859436 -0.132788 1.193061  0.419753 0.064213 -1.630733
32  1.312558 0.000024 0.000000  0.018650 -0.111950 -0.566450
33  0.729345 0.000066 -0.000028  -0.136092 -0.130379 -0.745071
34  3.942047 0.050109 0.430997  0.227728 0.017433 -1.395883
35  1.539096 0.000006 0.000001  0.033374 -0.057010 -0.978694
36  1.196299 0.000077 -0.000004  -0.008681 -0.024216 -0.882959
37  3.883411 -0.050503 -0.431087  0.220900 -0.070369 -1.119647
38  1.719563 -0.000080 -0.000004  0.013025 -0.077950 -1.452999
39  1.209196 0.000035 0.000011  0.008192 -0.000795 -0.494142
40  3.859585 -0.149112 -1.331323  -0.144133 0.068146 -0.137838
41  1.719411 -0.000097 -0.000035  -0.015109 -0.000174 -1.071001
42  1.099673 0.000026 0.000007  -0.004386 -0.008133 -0.862854
43  0.805979 -0.359854 -1.318338  0.974252 0.268925 -0.894612
44  1.789779 -0.000008 -0.000041  0.001484 -0.011936 0.235362
45  1.206996 -0.000005 0.000005  0.001538 -0.000068 1.118076
46  5.740571 0.000055 0.000724  0.193694 -0.000014 0.000021
47  11.480595 -0.000260 0.000958  0.114972 0.030510 0.138974
48  6.027514 -0.000274 -0.000237  -0.653182 -0.502572 -1.682483
49  -0.000002 11.691975 -0.000007  -1.302319 0.749448 0.952912
50  0.000003 -0.000003 -0.000001  2.413975 -0.000041 1.570856
51  -0.000007 -0.000016 0.000005  2.272644 -0.000030 1.570865
52  -4.451917 -4.006193 -6.609691  3.040637 -0.055012 -1.458684
53  -0.000000 -0.000000 0.000000  0.008153 -0.000259 0.000009
54  0.000000 -0.000000 -0.000000  1.565115 0.043565 -0.106862
55  -0.550418 -17.071819 -5.812604  -0.970836 0.143551 -1.903030
56  -0.000002 0.000000 0.000001  0.000000 -0.000000 -0.000002
57  0.000028 0.000029 0.000001  -1.571901 -0.044449 -0.106509
58  8.426761 -19.544212 -16.568478  1.570796 -0.000000 0.000000
59  -15.417985 2.938832 -17.970421  1.570796 -0.000000 0.000000
60  1.941978 -0.304065 -8.327020  1.570796 -0.000000 0.000000
61  -0.004311 0.001229 -0.000371  0.006898 -0.005534 -0.284229
62  2.089273 8.874444 -4.333363  1.570796 -0.000000 0.000000
63  0.000000 0.000000 0.000000  -0.078727 -3.136056 0.284226
64  1.000000 0.000000 -0.750000  1.570796 -0.005044 -0.000000
65  -2.333903 -10.481737 -1.988264  1.572874 0.041766 0.007264
66  0.000002 -2.923558 -1.408043  0.000000 -0.000000 0.000000
67  -0.000002 -0.601197 -2.062165  0.000000 -0.000000 0.000000
68  0.004380 -0.039406 6.613114  0.000000 -0.000000 0.000000
69  0.000002 -0.021786 -0.115850  0.000000 -0.000000 -0.000000
70  0.000002 -3.304880 0.259168  0.000000 -0.000000 0.000000
71  -2.352538 -15.216507 -3.257150  1.572874 0.041766 0.007264
72  0.057100 0.204433 -2.709596  0.000000 -0.000000 0.000000
73  0.111673 -0.283001 -2.709596  0.000000 -0.000000 0.000000
74  -0.128217 -0.750370 -2.709596  0.000000 0.000000 0.000000
time 9
0  0 0 0  0 0 0
1  0.000006 0.000000 0.000000  -1.570800 -1.391899 -1.570792
2  -8.138873 1.780375 1.937664  -1.544956 -1.855077 -0.198630
3  6.027523 -0.000328 0.000192  -0.576540 -1.343910 -1.544991
4  11.692110 0.000643 -0.000738  -1.471379 -0.000006 -1.199697
5  11.480206 0.000697 -0.000387  1.112752 -0.921113 0.379742
6  3.571341 -0.073053 -1.193380  -0.630908 0.056337 -1.699771
7  1.312590 0.000014 0.000006  -0.000395 0.000880 -0.663191
8  0.729356 0.000054 0.000050  -0.000172 0.000021 -0.220360
9  3.942144 0.046273 -0.431512  -0.413547 0.112709 -1.516154
10  1.539111 0.000085 0.000005  -0.001056 0.003240 -0.572825
11  1.196332 0.000146 0.000028  -0.000216 0.000008 -0.647849
12  3.883507 -0.047269 0.431382  -0.386032 0.372160 -1.001174
13  1.719573 -0.000027 0.000015  0.029635 0.017714 -0.994916
14  1.209179 0.000091 0.000013  -0.001849 0.000829 -0.701988
15  3.859665 -0.138475 1.332410  -0.061682 0.488092 -0.444155
16  1.719448 -0.000011 0.000022  -0.017508 -0.024177 -0.574397
17  1.099675 0.000049 0.000004  0.000693 0.002640 -1.571702
18  0.945845 -0.861836 1.304576  -1.769690 -0.354327 -0.275173
19  1.789819 -0.000003 -0.000018  0.008665 0.005630 -0.065006
20  1.207018 -0.000012 -0.000043  0.000321 -0.000553 0.304742
21  5.740638 0.000410 -0.000701  -0.132462 0.000003 0.000070
22  11.481048 0.000351 -0.000733  -0.044312 -0.172807 0.018804
23  6.027523 -0.000330 0.000203  1.541955 -0.225161 1.725165
24  0.000003 11.692099 -0.000008  -0.847601 -0.319702 -0.686377
25  0.000003 0.000009 -0.000001  -0.602294 -0.000031 1.570739
26  0.000000 -0.000012 -0.000000  0.868957 0.000002 1.570712
27  -5.843360 -7.961716 2.089273  1.473120 1.855075 -0.198639
28  6.027507 -0.000261 -0.000230  1.665492 0.562127 -0.465065
29  11.691993 0.000243 0.000855  0.141450 0.000080 -1.963523
30  11.478241 -0.001485 0.001042  -0.978708 0.053594 0.802910
31  3.859436 -0.132788 1.193061  0.419753 0.064213 -1.630734
32  1.312557 0.000025 -0.000001  0.018650 -0.111950 -0.566450
33  0.729345 0.000066 -0.000027  -0.136092 -0.130379 -0.745071
34  3.942046 0.050109 0.430996  0.227728 0.017433 -1.395883
35  1.539096 0.000005 -0.000000  0.033374 -0.057010 -0.978694
36  1.196299 0.000077 -0.000003  -0.008681 -0.024216 -0.882959
37  3.883412 -0.050502 -0.431087  0.220900 -0.070369 -1.119647
38  1.719563 -0.000081 -0.000004  0.013025 -0.077950 -1.452999
39  1.209196 0.000035 0.000011  0.008192 -0.000795 -0.494142
40  3.859585 -0.149112 -1.331323  -0.144133 0.068146 -0.137838
41  1.719412 -0.000097 -0.000035  -0.015109 -0.000174 -1.071001
42  1.099673 0.000024 0.000006  -0.004386 -0.008133 -0.862854
43  0.805979 -0.359854 -1.318338  0.974252 0.268925 -0.894612
44  1.789780 -0.000007 -0.000042  0.001484 -0.011936 0.235362
45  1.206996 -0.000005 0.000005  0.001538 -0.000068 1.118076
46  5.740570 0.000057 0.000723  0.194380 -0.000014 0.000021
47  11.480592 -0.000260 0.000958  0.115477 0.031487 0.138490
48  6.027514 -0.000274 -0.000237  -0.654292 -0.503822 -1.681314
49  -0.000002 11.691975 -0.000007  -1.302977 0.750126 0.953167
50  0.000003 -0.000001 0.000001  2.413975 -0.000041 1.570856
51  -0.000007 -0.000016 0.000004  2.272644 -0.000030 1.570865
52  -4.428645 -3.996833 -6.613743  3.044460 -0.058209 -1.458826
53  -0.000000 -0.000000 -0.000000  0.008153 -0.000259 0.000009
54  -0.000000 -0.000000 -0.000000  1.565115 0.043565 -0.106862
55  -0.529594 -17.059902 -5.764539  -0.965967 0.142302 -1.902262
56  0.000001 -0.000001 0.000000  0.000000 -0.000000 -0.000002
57  0.000031 0.000029 0.000001  -1.571901 -0.044449 -0.106509
58  8.426761 -19.544212 -16.568478  1.570796 -0.000000 0.000000
59  -15.417985 2.938832 -17.970421  1.570796 -0.000000 0.000000
60  1.941978 -0.304065 -8.327020  1.570796 -0.000000 0.000000
61  -0.004311 0.001229 -0.000371  0.006898 -0.005534 -0.284229
62  2.089273 8.874444 -4.333363  1.570796 -0.000000 0.000000
63  0.000000 0.000000 0.000000  -0.078727 -3.136056 0.284226
64  1.000000 0.000000 -0.750000  1.570796 -0.004086 -0.000000
65  -2.329384 -10.459475 -1.965774  1.570091 0.037637 0.007228
66  0.000002 -2.923557 -1.408043  0.000000 0.000000 -0.000000
67  -0.000002 -0.601197 -2.062164  0.000000 0.000000 -0.000000
68  0.004380 -0.039406 6.613115  0.000000 0.000000 -0.000000
69  0.000002 -0.021786 -0.115850  0.000000 0.000000 -0.000000
70  0.000002 -3.304880 0.259169  0.000000 0.000000 -0.000000
71  -2.342430 -15.197715 -3.221698  1.570091 0.037637 0.007228
72  0.057100 0.204433 -2.709597  0.000000 -0.000000 -0.000000
73  0.111673 -0.283001 -2.709597  0.000000 -0.000000 -0.000000
74  -0.128217 -0.750370 -2.709596  0.000000 0.000000 -0.000000
time 10
0  0 0 0  0 0 0
1  0.000006 0.000000 0.000000  -1.570800 -1.391899 -1.570792
2  -8.138873 1.780375 1.937664  -1.544956 -1.855077 -0.198630
3  6.027523 -0.000328 0.000192  -0.576346 -1.344180 -1.545963
4  11.692110 0.000642 -0.000741  -1.471379 -0.000006 -1.200780
5  11.480201 0.000697 -0.000389  1.111764 -0.922286 0.381122
6  3.571338 -0.073054 -1.193382  -0.630908 0.056337 -1.699771
7  1.312590 0.000010 0.000009  -0.000395 0.000880 -0.663191
8  0.729356 0.000052 0.000049  -0.000172 0.000021 -0.220360
9  3.942144 0.046272 -0.431512  -0.413547 0.112709 -1.516154
10  1.539111 0.000084 0.000003  -0.001056 0.003240 -0.572825
11  1.196332 0.000146 0.000029  -0.000216 0.000008 -0.647849
12  3.883505 -0.047269 0.431381  -0.386032 0.372160 -1.001174
13  1.719573 -0.000027 0.000014  0.029634 0.017714 -0.994916
14  1.209178 0.000091 0.000013  -0.001849 0.000829 -0.701988
15  3.859663 -0.138476 1.332410  -0.061682 0.488092 -0.444155
16  1.719448 -0.000011 0.000022  -0.017508 -0.024177 -0.574397
17  1.099675 0.000050 0.000006  0.000693 0.002640 -1.571701
18  0.945846 -0.861836 1.304575  -1.769690 -0.354327 -0.275173
19  1.789822 -0.000003 -0.000018  0.008665 0.005630 -0.065006
20  1.207018 -0.000012 -0.000044  0.000320 -0.000553 0.304742
21  5.740636 0.000410 -0.000702  -0.132837 0.000003 0.000071
22  11.481046 0.000351 -0.000734  -0.044309 -0.173080 0.018902
23  6.027523 -0.000330 0.000203  1.541946 -0.224888 1.724384
24  0.000002 11.692099 -0.000008  -0.848275 -0.320227 -0.686865
25  0.000002 0.000008 -0.000001  -0.602294 -0.000031 1.570739
26  -0.000002 -0.000012 -0.000001  0.868957 0.000002 1.570712
27  -5.843360 -7.961716 2.089273  1.473120 1.855075 -0.198639
28  6.027507 -0.000261 -0.000230  1.666662 0.562597 -0.464778
29  11.691991 0.000243 0.000855  0.141450 0.000080 -1.964868
30  11.478231 -0.001489 0.001043  -0.979111 0.052718 0.804994
31  3.859436 -0.132788 1.193062  0.419753 0.064213 -1.630733
32  1.312558 0.000023 -0.000001  0.018649 -0.111950 -0.566450
33  0.729344 0.000067 -0.000027  -0.136092 -0.130379 -0.745071
34  3.942045 0.050109 0.430997  0.227728 0.017433 -1.395883
35  1.539096 0.000006 -0.000001  0.033374 -0.057010 -0.978694
36  1.196299 0.000077 -0.000004  -0.008681 -0.024216 -0.882959
37  3.883411 -0.050502 -0.431087  0.220900 -0.070369 -1.119647
38  1.719564 -0.000081 -0.000004  0.013025 -0.077950 -1.452999
39  1.209197 0.000035 0.000011  0.008192 -0.000795 -0.494142
40  3.859585 -0.149112 -1.331323  -0.144133 0.068146 -0.137838
41  1.719411 -0.000098 -0.000034  -0.015109 -0.000174 -1.071001
42  1.099673 0.000026 0.000007  -0.004386 -0.008133 -0.862854
43  0.805979 -0.359854 -1.318338  0.974252 0.268925 -0.894612
44  1.789779 -0.000007 -0.000042  0.001484 -0.011936 0.235362
45  1.206996 -0.000006 0.000005  0.001538 -0.000068 1.118076
46  5.740572 0.000055 0.000724  0.194872 -0.000014 0.000021
47  11.480591 -0.000262 0.000959  0.115455 0.031395 0.138951
48  6.027514 -0.000274 -0.000237  -0.654403 -0.502730 -1.681598
49  -0.000001 11.691974 -0.000008  -1.303790 0.750963 0.953481
50  0.000003 -0.000001 0.000001  2.413975 -0.000041 1.570856
51  -0.000006 -0.000014 0.000004  2.272644 -0.000030 1.570865
52  -4.426430 -3.984842 -6.594122  3.044085 -0.058064 -1.458879
53  -0.000000 0.000000 0.000000  0.008153 -0.000259 0.000009
54  -0.000000 -0.000000 0.000000  1.565115 0.043565 -0.106862
55  -0.528024 -17.048292 -5.747771  -0.966371 0.142273 -1.902394
56  0.000000 -0.000000 -0.000001  0.000000 -0.000000 -0.000002
57  0.000030 0.000029 0.000000  -1.571901 -0.044449 -0.106509
58  8.426761 -19.544212 -16.568478  1.570796 -0.000000 0.000000
59  -15.417985 2.938832 -17.970421  1.570796 -0.000000 0.000000
60  1.941978 -0.304065 -8.327020  1.570796 -0.000000 0.000000
61  -0.004311 0.001229 -0.000371  0.006898 -0.005534 -0.284229
62  2.089273 8.874444 -4.333363  1.570796 -0.000000 0.000000
63  0.000000 0.000000 0.000000  -0.078727 -3.136056 0.284226
64  1.000000 0.000000 -0.750000  1.570796 -0.002989 -0.000000
65  -2.325848 -10.448116 -1.947631  1.570197 0.038024 0.007157
66  0.000002 -2.923558 -1.408042  0.000000 -0.000000 -0.000000
67  -0.000002 -0.601197 -2.062165  0.000000 -0.000000 -0.000000
68  0.004380 -0.039406 6.613116  0.000000 -0.000000 -0.000000
69  0.000002 -0.021786 -0.115848  0.000000 -0.000000 -0.000000
70  0.000002 -3.304880 0.259169  0.000000 -0.000000 -0.000000
71  -2.339735 -15.186230 -3.204036  1.570197 0.038024 0.007157
72  0.057100 0.204433 -2.709596  0.000000 -0.000000 -0.000000
73  0.111673 -0.283001 -2.709596  0.000000 -0.000000 -0.000000
74  -0.128217 -0.750370 -2.709596  0.000000 0.000000 -0.000000
time 11
0  0 0 0  0 0 0
1  0.000006 0.000000 0.000000  -1.570800 -1.391899 -1.570792
2  -8.138873 1.780375 1.937664  -1.544956 -1.855077 -0.198630
3  6.027523 -0.000328 0.000192  -0.576026 -1.344229 -1.546298
4  11.692110 0.000643 -0.000739  -1.471379 -0.000006 -1.201460
5  11.480197 0.000698 -0.000394  1.110258 -0.922692 0.381726
6  3.571338 -0.073053 -1.193381  -0.630908 0.056337 -1.699771
7  1.312591 0.000012 0.000007  -0.000395 0.000880 -0.663191
8  0.729356 0.000054 0.000048  -0.000172 0.000021 -0.220360
9  3.942142 0.046273 -0.431512  -0.413547 0.112709 -1.516154
10  1.539111 0.000084 0.000005  -0.001056 0.003239 -0.572825
11  1.196333 0.000147 0.000028  -0.000216 0.000008 -0.647849
12  3.883505 -0.047269 0.431382  -0.386032 0.372160 -1.001174
13  1.719573 -0.000026 0.000015  0.029634 0.017714 -0.994916
14  1.209179 0.000092 0.000013  -0.001849 0.000829 -0.701988
15  3.859662 -0.138475 1.332410  -0.061682 0.488092 -0.444155
16  1.719450 -0.000012 0.000025  -0.017508 -0.024177 -0.574397
17  1.099675 0.000046 0.000005  0.000693 0.002640 -1.571702
18  0.945844 -0.861836 1.304575  -1.769690 -0.354327 -0.275173
19  1.789821 -0.000003 -0.000018  0.008665 0.005630 -0.065006
20  1.207016 -0.000012 -0.000044  0.000321 -0.000553 0.304742
21  5.740636 0.000410 -0.000704  -0.133232 0.000003 0.000070
22  11.481045 0.000351 -0.000737  -0.044496 -0.173204 0.018855
23  6.027523 -0.000330 0.000203  1.541879 -0.224830 1.724375
24  0.000001 11.692098 -0.000008  -0.848698 -0.320556 -0.687171
25  0.000003 0.000009 -0.000002  -0.602294 -0.000031 1.570738
26  -0.000002 -0.000011 -0.000002  0.868957 0.000002 1.570712
27  -5.843360 -7.961716 2.089273  1.473120 1.855075 -0.198639
28  6.027507 -0.000261 -0.000230  1.667494 0.562706 -0.464597
29  11.691992 0.000242 0.000856  0.141450 0.000081 -1.965786
30  11.478223 -0.001493 0.001045  -0.980046 0.051974 0.806459
31  3.859436 -0.132788 1.193062  0.419753 0.064213 -1.630733
32  1.312557 0.000024 -0.000001  0.018650 -0.111950 -0.566450
33  0.729344 0.000067 -0.000028  -0.136092 -0.130379 -0.745071
34  3.942047 0.050108 0.430997  0.227728 0.017433 -1.395883
35  1.539096 0.000004 0.000000  0.033374 -0.057010 -0.978694
36  1.196299 0.000077 -0.000004  -0.008681 -0.024216 -0.882959
37  3.883412 -0.050502 -0.431087  0.220900 -0.070369 -1.119647
38  1.719563 -0.000082 -0.000003  0.013025 -0.077950 -1.452999
39  1.209197 0.000035 0.000011  0.008192 -0.000795 -0.494142
40  3.859585 -0.149112 -1.331324  -0.144133 0.068146 -0.137838
41  1.719412 -0.000098 -0.000034  -0.015109 -0.000174 -1.071001
42  1.099673 0.000025 0.000007  -0.004386 -0.008133 -0.862854
43  0.805979 -0.359854 -1.318338  0.974252 0.268925 -0.894612
44  1.789779 -0.000008 -0.000042  0.001484 -0.011936 0.235362
45  1.206996 -0.000005 0.000005  0.001538 -0.000068 1.118076
46  5.740571 0.000056 0.000724  0.195056 -0.000014 0.000021
47  11.480589 -0.000262 0.000958  0.115326 0.031259 0.139297
48  6.027514 -0.000274 -0.000237  -0.654242 -0.502033 -1.681937
49  -0.000001 11.691975 -0.000007  -1.304345 0.751535 0.953694
50  0.000002 -0.000003 -0.000001  2.413975 -0.000041 1.570856
51  -0.000007 -0.000015 0.000004  2.272644 -0.000030 1.570865
52  -4.427165 -3.976444 -6.582354  3.043191 -0.057718 -1.459005
53  -0.000000 -0.000000 -0.000000  0.008153 -0.000259 0.000009
54  0.000000 -0.000000 -0.000000  1.565115 0.043565 -0.106862
55  -0.530300 -17.040794 -5.742802  -0.967335 0.142203 -1.902708
56  0.000001 0.000001 -0.000000  0.000000 -0.000000 -0.000002
57  0.000031 0.000030 0.000001  -1.571902 -0.044449 -0.106509
58  8.426761 -19.544212 -16.568478  1.570796 -0.000000 0.000000
59  -15.417985 2.938832 -17.970421  1.570796 -0.000000 0.000000
60  1.941978 -0.304065 -8.327020  1.570796 -0.000000 0.000000
61  -0.004311 0.001229 -0.000371  0.006898 -0.005534 -0.284229
62  2.089273 8.874444 -4.333363  1.570796 -0.000000 0.000000
63  0.000000 0.000000 0.000000  -0.078727 -3.136056 0.284226
64  1.000000 0.000000 -0.750000  1.570796 -0.001891 -0.000000
65  -2.323434 -10.441227 -1.939388  1.570448 0.038947 0.006989
66  0.000002 -2.923557 -1.408043  0.000000 0.000000 0.000000
67  -0.000002 -0.601197 -2.062165  0.000000 0.000000 0.000000
68  0.004381 -0.039407 6.613117  0.000000 0.000000 0.000000
69  0.000002 -0.021786 -0.115849  0.000000 0.000000 -0.000000
70  0.000002 -3.304880 0.259168  0.000000 0.000000 0.000000
71  -2.339325 -15.179029 -3.196937  1.570448 0.038947 0.006989
72  0.057100 0.204433 -2.709596  0.000000 -0.000000 0.000000
73  0.111673 -0.283001 -2.709597  0.000000 -0.000000 0.000000
74  -0.128217 -0.750370 -2.709596  0.000000 0.000000 0.000000
time 12
0  0 0 0  0 0 0
1  0.000006 0.000000 0.000000  -1.570800 -1.391899 -1.570792
2  -8.138873 1.780375 1.937664  -1.544956 -1.855077 -0.198630
3  6.027523 -0.000328 0.000192  -0.575347 -1.344239 -1.546708
4  11.692110 0.000643 -0.000739  -1.471379 -0.000006 -1.201747
5  11.480196 0.000696 -0.000393  1.108680 -0.922670 0.381936
6  3.571340 -0.073053 -1.193380  -0.630908 0.056336 -1.699771
7  1.312589 0.000013 0.000007  -0.000395 0.000880 -0.663191
8  0.729355 0.000054 0.000049  -0.000172 0.000021 -0.220360
9  3.942144 0.046273 -0.431512  -0.413547 0.112709 -1.516154
10  1.539111 0.000080 0.000007  -0.001056 0.003240 -0.572825
11  1.196332 0.000143 0.000028  -0.000216 0.000008 -0.647849
12  3.883504 -0.047269 0.431381  -0.386032 0.372160 -1.001174
13  1.719572 -0.000026 0.000015  0.029635 0.017714 -0.994916
14  1.209179 0.000094 0.000013  -0.001849 0.000829 -0.701988
15  3.859661 -0.138476 1.332410  -0.061682 0.488092 -0.444155
16  1.719449 -0.000012 0.000023  -0.017508 -0.024177 -0.574397
17  1.099675 0.000051 0.000005  0.000693 0.002640 -1.571702
18  0.945842 -0.861836 1.304575  -1.769691 -0.354327 -0.275173
19  1.789821 -0.000003 -0.000019  0.008665 0.005630 -0.065006
20  1.207017 -0.000012 -0.000043  0.000321 -0.000553 0.304742
21  5.740636 0.000410 -0.000702  -0.133587 0.000003 0.000071
22  11.481043 0.000351 -0.000735  -0.044749 -0.173241 0.018752
23  6.027523 -0.000330 0.000203  1.541725 -0.224800 1.724662
24  0.000002 11.692099 -0.000007  -0.848876 -0.320695 -0.687300
25  0.000005 0.000009 -0.000001  -0.602294 -0.000031 1.570739
26  -0.000001 -0.000012 -0.000001  0.868957 0.000002 1.570712
27  -5.843360 -7.961716 2.089273  1.473120 1.855075 -0.198639
28  6.027507 -0.000261 -0.000230  1.668204 0.562733 -0.464448
29  11.691992 0.000242 0.000855  0.141450 0.000080 -1.966362
30  11.478217 -0.001494 0.001045  -0.981174 0.051267 0.807555
31  3.859436 -0.132788 1.193061  0.419753 0.064213 -1.630734
32  1.312558 0.000024 -0.000001  0.018649 -0.111950 -0.566450
33  0.729346 0.000065 -0.000027  -0.136092 -0.130379 -0.745071
34  3.942046 0.050109 0.430996  0.227728 0.017433 -1.395883
35  1.539096 0.000004 -0.000000  0.033374 -0.057010 -0.978694
36  1.196298 0.000077 -0.000005  -0.008681 -0.024216 -0.882959
37  3.883411 -0.050502 -0.431088  0.220900 -0.070369 -1.119647
38  1.719563 -0.000081 -0.000004  0.013025 -0.077950 -1.452999
39  1.209196 0.000035 0.000011  0.008192 -0.000795 -0.494142
40  3.859585 -0.149111 -1.331323  -0.144133 0.068146 -0.137838
41  1.719412 -0.000097 -0.000034  -0.015109 -0.000174 -1.071001
42  1.099673 0.000025 0.000007  -0.004386 -0.008133 -0.862854
43  0.805979 -0.359854 -1.318339  0.974252 0.268925 -0.894612
44  1.789780 -0.000007 -0.000043  0.001484 -0.011936 0.235362
45  1.206996 -0.000005 0.000005  0.001538 -0.000068 1.118076
46  5.740569 0.000056 0.000723  0.195099 -0.000014 0.000021
47  11.480585 -0.000262 0.000958  0.115161 0.031097 0.139572
48  6.027514 -0.000274 -0.000237  -0.654033 -0.501460 -1.682268
49  -0.000002 11.691976 -0.000007  -1.304694 0.751894 0.953828
50  0.000002 -0.000001 0.000000  2.413975 -0.000041 1.570856
51  -0.000007 -0.000015 0.000005  2.272644 -0.000030 1.570865
52  -4.429434 -3.971107 -6.573910  3.042125 -0.057305 -1.459156
53  0.000000 0.000000 -0.000001  0.008153 -0.000259 0.000009
54  0.000000 0.000000 -0.000001  1.565115 0.043565 -0.106862
55  -0.534416 -17.036524 -5.742471  -0.968486 0.142118 -1.903083
56  0.000001 -0.000001 0.000001  0.000000 -0.000000 -0.000002
57  0.000031 0.000028 0.000001  -1.571901 -0.044449 -0.106509
58  8.426761 -19.544212 -16.568478  1.570796 -0.000000 0.000000
59  -15.417985 2.938832 -17.970421  1.570796 -0.000000 0.000000
60  1.941978 -0.304065 -8.327020  1.570796 -0.000000 0.000000
61  -0.004311 0.001229 -0.000371  0.006898 -0.005534 -0.284229
62  2.089273 8.874444 -4.333363  1.570796 -0.000000 0.000000
63  0.000000 0.000000 0.000000  -0.078727 -3.136056 0.284226
64  1.000000 0.000000 -0.750000  1.570796 -0.000934 -0.000000
65  -2.321950 -10.437689 -1.935155  1.570747 0.040049 0.006789
66  0.000002 -2.923558 -1.408043  0.000000 -0.000000 0.000000
67  -0.000002 -0.601197 -2.062165  0.000000 -0.000000 0.000000
68  0.004381 -0.039406 6.613114  0.000000 -0.000000 0.000000
69  0.000002 -0.021786 -0.115849  0.000000 -0.000000 -0.000000
70  0.000002 -3.304881 0.259168  0.000000 -0.000000 0.000000
71  -2.340235 -15.175121 -3.194067  1.570747 0.040049 0.006789
72  0.057100 0.204433 -2.709597  0.000000 -0.000000 0.000000
73  0.111673 -0.283001 -2.709597  0.000000 -0.000000 0.000000
74  -0.128217 -0.750370 -2.709597  0.000000 0.000000 0.000000
time 13
0  0 0 0  0 0 0
1  0.000006 0.000000 0.000000  -1.570800 -1.391899 -1.570792
2  -8.138873 1.780375 1.937664  -1.544956 -1.855077 -0.198630
3  6.027523 -0.000328 0.000192  -0.574669 -1.344231 -1.547058
4  11.692111 0.000643 -0.000740  -1.471379 -0.000006 -1.201800
5  11.480195 0.000696 -0.000392  1.107436 -0.922472 0.381929
6  3.571341 -0.073054 -1.193381  -0.630908 0.056336 -1.699771
7  1.312590 0.000013 0.000008  -0.000395 0.000880 -0.663191
8  0.729354 0.000054 0.000050  -0.000172 0.000021 -0.220360
9  3.942144 0.046272 -0.431513  -0.413547 0.112709 -1.516154
10  1.539109 0.000084 0.000004  -0.001056 0.003240 -0.572825
11  1.196333 0.000145 0.000028  -0.000216 0.000008 -0.647849
12  3.883507 -0.047270 0.431381  -0.386032 0.372160 -1.001174
13  1.719574 -0.000028 0.000016  0.029635 0.017714 -0.994916
14  1.209179 0.000093 0.000013  -0.001849 0.000829 -0.701988
15  3.859662 -0.138476 1.332409  -0.061682 0.488092 -0.444155
16  1.719449 -0.000012 0.000021  -0.017509 -0.024177 -0.574397
17  1.099675 0.000049 0.000004  0.000693 0.002640 -1.571702
18  0.945845 -0.861836 1.304575  -1.769690 -0.354327 -0.275173
19  1.789819 -0.000003 -0.000018  0.008665 0.005630 -0.065006
20  1.207016 -0.000012 -0.000043  0.000321 -0.000553 0.304742
21  5.740638 0.000411 -0.000701  -0.133845 0.000003 0.000070
22  11.481045 0.000352 -0.000733  -0.044973 -0.173232 0.018650
23  6.027523 -0.000330 0.000203  1.541570 -0.224788 1.725007
24  0.000000 11.692100 -0.000008  -0.848910 -0.320721 -0.687323
25  0.000003 0.000009 -0.000001  -0.602294 -0.000030 1.570739
26  -0.000003 -0.000011 -0.000001  0.868957 0.000002 1.570712
27  -5.843360 -7.961716 2.089273  1.473120 1.855075 -0.198639
28  6.027507 -0.000261 -0.000230  1.668699 0.562719 -0.464348
29  11.691993 0.000242 0.000856  0.141450 0.000081 -1.966661
30  11.478214 -0.001496 0.001045  -0.982123 0.050740 0.808244
31  3.859436 -0.132788 1.193062  0.419753 0.064213 -1.630733
32  1.312557 0.000025 -0.000000  0.018649 -0.111950 -0.566450
33  0.729345 0.000067 -0.000028  -0.136092 -0.130379 -0.745071
34  3.942046 0.050109 0.430997  0.227728 0.017433 -1.395883
35  1.539096 0.000006 0.000000  0.033374 -0.057010 -0.978694
36  1.196299 0.000076 -0.000004  -0.008681 -0.024216 -0.882959
37  3.883411 -0.050502 -0.431087  0.220900 -0.070369 -1.119647
38  1.719563 -0.000082 -0.000004  0.013025 -0.077950 -1.452999
39  1.209196 0.000035 0.000011  0.008192 -0.000795 -0.494142
40  3.859585 -0.149112 -1.331323  -0.144133 0.068146 -0.137838
41  1.719413 -0.000098 -0.000034  -0.015109 -0.000174 -1.071001
42  1.099673 0.000025 0.000007  -0.004386 -0.008133 -0.862854
43  0.805979 -0.359854 -1.318339  0.974252 0.268925 -0.894612
44  1.789779 -0.000008 -0.000043  0.001484 -0.011936 0.235362
45  1.206996 -0.000006 0.000005  0.001538 -0.000068 1.118076
46  5.740571 0.000055 0.000723  0.195071 -0.000014 0.000021
47  11.480586 -0.000264 0.000959  0.115018 0.030962 0.139754
48  6.027514 -0.000274 -0.000237  -0.653853 -0.501072 -1.682518
49  -0.000001 11.691977 -0.000008  -1.304875 0.752080 0.953898
50  0.000002 -0.000000 0.000001  2.413975 -0.000041 1.570856
51  -0.000007 -0.000014 0.000004  2.272644 -0.000030 1.570865
52  -4.431827 -3.968294 -6.568819  3.041231 -0.056959 -1.459282
53  -0.000001 0.000000 0.000001  0.008153 -0.000259 0.000009
54  -0.000000 -0.000000 -0.000000  1.565115 0.043565 -0.106862
55  -0.538363 -17.034607 -5.744176  -0.969449 0.142048 -1.903397
56  0.000001 0.000000 -0.000000  0.000000 -0.000000 -0.000002
57  0.000031 0.000029 0.000000  -1.571901 -0.044449 -0.106509
58  8.426761 -19.544212 -16.568478  1.570796 -0.000000 0.000000
59  -15.417985 2.938832 -17.970421  1.570796 -0.000000 0.000000
60  1.941978 -0.304065 -8.327020  1.570796 -0.000000 0.000000
61  -0.004311 0.001229 -0.000371  0.006898 -0.005534 -0.284229
62  2.089273 8.874444 -4.333363  1.570796 -0.000000 0.000000
63  0.000000 0.000000 0.000000  -0.078727 -3.136056 0.284226
64  1.000000 0.000000 -0.750000  1.570796 -0.000257 -0.000000
65  -2.321201 -10.436385 -1.933596  1.570998 0.040973 0.006622
66  0.000002 -2.923558 -1.408043  0.000000 -0.000000 0.000000
67  -0.000002 -0.601197 -2.062165  0.000000 -0.000000 0.000000
68  0.004381 -0.039406 6.613115  0.000000 -0.000000 0.000000
69  0.000002 -0.021786 -0.115848  0.000000 -0.000000 -0.000000
70  0.000002 -3.304881 0.259169  0.000000 -0.000000 0.000000
71  -2.341493 -15.173506 -3.193648  1.570998 0.040973 0.006622
72  0.057100 0.204433 -2.709596  0.000000 -0.000000 0.000000
73  0.111673 -0.283001 -2.709596  0.000000 -0.000000 0.000000
74  -0.128217 -0.750370 -2.709596  0.000000 0.000000 0.000000
time 14
0  0 0 0  0 0 0
1  0.000006 0.000000 0.000000  -1.570800 -1.391899 -1.570792
2  -8.138873 1.780375 1.937664  -1.544956 -1.855077 -0.198630
3  6.027523 -0.000328 0.000192  -0.574363 -1.344224 -1.547204
4  11.692110 0.000644 -0.000739  -1.471379 -0.000006 -1.201783
5  11.480195 0.000696 -0.000395  1.106931 -0.922351 0.381887
6  3.571336 -0.073053 -1.193380  -0.630908 0.056337 -1.699771
7  1.312589 0.000013 0.000008  -0.000395 0.000880 -0.663191
8  0.729355 0.000052 0.000050  -0.000172 0.000021 -0.220360
9  3.942142 0.046273 -0.431511  -0.413547 0.112709 -1.516154
10  1.539110 0.000086 0.000006  -0.001056 0.003240 -0.572825
11  1.196333 0.000145 0.000030  -0.000216 0.000008 -0.647849
12  3.883503 -0.047269 0.431382  -0.386032 0.372160 -1.001174
13  1.719573 -0.000027 0.000014  0.029635 0.017714 -0.994916
14  1.209179 0.000092 0.000012  -0.001849 0.000829 -0.701987
15  3.859661 -0.138476 1.332410  -0.061682 0.488092 -0.444155
16  1.719448 -0.000011 0.000022  -0.017508 -0.024177 -0.574397
17  1.099675 0.000047 0.000003  0.000693 0.002640 -1.571702
18  0.945841 -0.861836 1.304576  -1.769690 -0.354327 -0.275173
19  1.789821 -0.000003 -0.000016  0.008665 0.005630 -0.065006
20  1.207016 -0.000012 -0.000045  0.000321 -0.000553 0.304742
21  5.740637 0.000410 -0.000704  -0.133944 0.000003 0.000071
22  11.481045 0.000351 -0.000735  -0.045069 -0.173220 0.018603
23  6.027523 -0.000330 0.000203  1.541499 -0.224786 1.725175
24  0.000002 11.692098 -0.000007  -0.848899 -0.320713 -0.687316
25  0.000003 0.000008 -0.000001  -0.602294 -0.000031 1.570739
26  -0.000000 -0.000012 -0.000001  0.868957 0.000002 1.570712
27  -5.843360 -7.961716 2.089273  1.473120 1.855075 -0.198639
28  6.027507 -0.000261 -0.000230  1.668884 0.562705 -0.464311
29  11.691992 0.000243 0.000856  0.141450 0.000081 -1.966746
30  11.478214 -0.001498 0.001044  -0.982522 0.050533 0.808482
31  3.859436 -0.132788 1.193061  0.419753 0.064213 -1.630733
32  1.312559 0.000026 -0.000001  0.018649 -0.111950 -0.566450
33  0.729345 0.000066 -0.000028  -0.136092 -0.130379 -0.745071
34  3.942046 0.050108 0.430996  0.227728 0.017433 -1.395883
35  1.539096 0.000004 0.000000  0.033374 -0.057010 -0.978694
36  1.196299 0.000076 -0.000004  -0.008681 -0.024216 -0.882959
37  3.883411 -0.050502 -0.431088  0.220900 -0.070369 -1.119647
38  1.719564 -0.000081 -0.000004  0.013025 -0.077950 -1.452999
39  1.209196 0.000036 0.000012  0.008192 -0.000795 -0.494142
40  3.859585 -0.149112 -1.331324  -0.144133 0.068146 -0.137838
41  1.719411 -0.000098 -0.000034  -0.015109 -0.000174 -1.071001
42  1.099673 0.000024 0.000007  -0.004386 -0.008133 -0.862854
43  0.805978 -0.359854 -1.318339  0.974252 0.268925 -0.894612
44  1.789780 -0.000007 -0.000042  0.001484 -0.011936 0.235362
45  1.206997 -0.000005 0.000005  0.001538 -0.000068 1.118076
46  5.740571 0.000055 0.000722  0.195045 -0.000014 0.000021
47  11.480587 -0.000265 0.000958  0.114956 0.030906 0.139820
48  6.027514 -0.000274 -0.000237  -0.653776 -0.500930 -1.682617
49  -0.000002 11.691976 -0.000007  -1.304926 0.752133 0.953918
50  0.000003 -0.000001 0.000000  2.413975 -0.000041 1.570856
51  -0.000007 -0.000015 0.000004  2.272644 -0.000030 1.570865
52  -4.432935 -3.967476 -6.567115  3.040857 -0.056814 -1.459335
53  -0.000000 0.000000 0.000000  0.008153 -0.000259 0.000009
54  -0.000000 -0.000000 -0.000000  1.565115 0.043565 -0.106862
55  -0.540127 -17.034161 -5.745320  -0.969854 0.142018 -1.903529
56  0.000000 -0.000000 -0.000000  0.000000 -0.000000 -0.000002
57  0.000030 0.000029 0.000000  -1.571901 -0.044449 -0.106509
58  8.426761 -19.544212 -16.568478  1.570796 -0.000000 0.000000
59  -15.417985 2.938832 -17.970421  1.570796 -0.000000 0.000000
60  1.941978 -0.304065 -8.327020  1.570796 -0.000000 0.000000
61  -0.004311 0.001229 -0.000371  0.006898 -0.005534 -0.284229
62  2.089273 8.874444 -4.333363  1.570796 -0.000000 0.000000
63  0.000000 0.000000 0.000000  -0.078727 -3.136056 0.284226
64  1.000000 0.000000 -0.750000  1.570796 -0.000000 0.000000
65  -2.320994 -10.436199 -1.933373  1.571103 0.041360 0.006551
66  0.000002 -2.923558 -1.408042  0.000000 -0.000000 -0.000000
67  -0.000002 -0.601197 -2.062165  0.000000 -0.000000 -0.000000
68  0.004380 -0.039406 6.613115  0.000000 -0.000000 -0.000000
69  0.000002 -0.021786 -0.115848  -0.000000 -0.000000 -0.000000
70  0.000002 -3.304880 0.259167  0.000000 -0.000000 -0.000000
71  -2.342128 -15.173188 -3.193902  1.571103 0.041360 0.006551
72  0.057100 0.204433 -2.709597  0.000000 -0.000000 -0.000000
73  0.111673 -0.283002 -2.709596  0.000000 -0.000000 -0.000000
74  -0.128217 -0.750370 -2.709597  0.000000 0.000000 -0.000000
end
