version 1
nodes
0 "blender_implicit" -1
1 "ValveBiped.Bip01_Spine4" -1
2 "ValveBiped.Bip01_L_Clavicle" 1
3 "ValveBiped.Bip01_L_UpperArm" 2
4 "ValveBiped.Bip01_L_Forearm" 3
5 "ValveBiped.Bip01_L_Hand" 4
6 "ValveBiped.Bip01_L_Finger4" 5
7 "ValveBiped.Bip01_L_Finger41" 6
8 "ValveBiped.Bip01_L_Finger42" 7
9 "ValveBiped.Bip01_L_Finger3" 5
10 "ValveBiped.Bip01_L_Finger31" 9
11 "ValveBiped.Bip01_L_Finger32" 10
12 "ValveBiped.Bip01_L_Finger2" 5
13 "ValveBiped.Bip01_L_Finger21" 12
14 "ValveBiped.Bip01_L_Finger22" 13
15 "ValveBiped.Bip01_L_Finger1" 5
16 "ValveBiped.Bip01_L_Finger11" 15
17 "ValveBiped.Bip01_L_Finger12" 16
18 "ValveBiped.Bip01_L_Finger0" 5
19 "ValveBiped.Bip01_L_Finger01" 18
20 "ValveBiped.Bip01_L_Finger02" 19
21 "ValveBiped.Bip01_L_Ulna" 4
22 "ValveBiped.Bip01_L_Wrist" 4
23 "rig_l_upperarm" 2
24 "rig_l_forearm" 23
25 "rig_d_l_forearm" 24
26 "rig_d_l_upperarm" 23
27 "ValveBiped.Bip01_R_Clavicle" 1
28 "ValveBiped.Bip01_R_UpperArm" 27
29 "ValveBiped.Bip01_R_Forearm" 28
30 "ValveBiped.Bip01_R_Hand" 29
31 "ValveBiped.Bip01_R_Finger4" 30
32 "ValveBiped.Bip01_R_Finger41" 31
33 "ValveBiped.Bip01_R_Finger42" 32
34 "ValveBiped.Bip01_R_Finger3" 30
35 "ValveBiped.Bip01_R_Finger31" 34
36 "ValveBiped.Bip01_R_Finger32" 35
37 "ValveBiped.Bip01_R_Finger2" 30
38 "ValveBiped.Bip01_R_Finger21" 37
39 "ValveBiped.Bip01_R_Finger22" 38
40 "ValveBiped.Bip01_R_Finger1" 30
41 "ValveBiped.Bip01_R_Finger11" 40
42 "ValveBiped.Bip01_R_Finger12" 41
43 "ValveBiped.Bip01_R_Finger0" 30
44 "ValveBiped.Bip01_R_Finger01" 43
45 "ValveBiped.Bip01_R_Finger02" 44
46 "ValveBiped.Bip01_R_Ulna" 29
47 "ValveBiped.Bip01_R_Wrist" 29
48 "rig_r_upperarm" 27
49 "rig_r_forearm" 48
50 "rig_d_r_forearm" 49
51 "rig_d_r_upperarm" 48
52 "rig_r_hand" -1
53 "rig_d_r_hand" 52
54 "rig_d_r_wrist" 53
55 "rig_l_hand" -1
56 "rig_d_l_hand" 55
57 "rig_d_l_wrist" 55
58 "rig_l_pole" -1
59 "rig_r_pole" -1
60 "rig_l_clavicle" -1
61 "rig_d_l_clavicle" 60
62 "rig_r_clavicle" -1
63 "rig_d_r_clavicle" 62
64 "Camera" -1
65 "body" -1
66 "trigger" 65
67 "boltprot" 65
68 "bolt" 67
69 "hammer" 67
70 "magrel" 65
71 "mag" -1
72 "round1" 71
73 "round2" 71
74 "round3" 71
end
skeleton
time 0
0  0 0 0  0 0 0
1  0.000006 0.000000 0.000000  -1.570800 -1.391899 -1.570792
2  -8.138873 1.780375 1.937664  -1.544956 -1.855077 -0.198630
3  6.027523 -0.000328 0.000192  -0.595384 -1.344415 -1.536338
4  11.692111 0.000644 -0.000739  -1.471379 -0.000006 -1.204830
5  11.480181 0.000696 -0.000399  1.134132 -0.929153 0.409442
6  3.571338 -0.073053 -1.193382  -0.630908 0.056337 -1.699771
7  1.312590 0.000013 0.000007  -0.000395 0.000880 -0.663191
8  0.729354 0.000053 0.000050  -0.000172 0.000021 -0.220360
9  3.942143 0.046273 -0.431512  -0.413547 0.112709 -1.516154
10  1.539111 0.000085 0.000006  -0.001056 0.003239 -0.572825
11  1.196333 0.000147 0.000029  -0.000216 0.000008 -0.647849
12  3.883504 -0.047269 0.431381  -0.386032 0.372160 -1.001174
13  1.719574 -0.000029 0.000016  0.029634 0.017714 -0.994916
14  1.209180 0.000094 0.000013  -0.001849 0.000829 -0.701988
15  3.859663 -0.138475 1.332410  -0.061682 0.488092 -0.444155
16  1.719449 -0.000013 0.000022  -0.017508 -0.024177 -0.574397
17  1.099675 0.000048 0.000007  0.000693 0.002640 -1.571702
18  0.945844 -0.861836 1.304575  -1.769690 -0.354327 -0.275173
19  1.789821 -0.000004 -0.000017  0.008665 0.005630 -0.065006
20  1.207017 -0.000012 -0.000042  0.000321 -0.000553 0.304742
21  5.740637 0.000411 -0.000701  -0.125075 0.000003 0.000070
22  11.481043 0.000351 -0.000735  -0.038088 -0.174403 0.025676
23  6.027523 -0.000330 0.000203  1.546329 -0.225161 1.714479
24  0.000001 11.692099 -0.000008  -0.850794 -0.322190 -0.688684
25  0.000004 0.000008 -0.000001  -0.602294 -0.000030 1.570739
26  -0.000001 -0.000011 -0.000001  0.868957 0.000002 1.570712
27  -5.843360 -7.961716 2.089273  1.473120 1.855075 -0.198639
28  6.027507 -0.000261 -0.000230  1.648033 0.570128 -0.467983
29  11.691992 0.000242 0.000855  0.141450 0.000081 -1.968796
30  11.478196 -0.001503 0.001046  -0.936687 0.079930 0.817739
31  3.859435 -0.132787 1.193062  0.419753 0.064213 -1.630733
32  1.312558 0.000024 -0.000000  0.018649 -0.111950 -0.566450
33  0.729346 0.000066 -0.000027  -0.136092 -0.130379 -0.745071
34  3.942046 0.050109 0.430996  0.227728 0.017433 -1.395883
35  1.539096 0.000005 -0.000000  0.033374 -0.057010 -0.978694
36  1.196300 0.000077 -0.000004  -0.008681 -0.024216 -0.882959
37  3.883411 -0.050502 -0.431087  0.220900 -0.070369 -1.119647
38  1.719564 -0.000081 -0.000003  0.013025 -0.077950 -1.452999
39  1.209195 0.000035 0.000010  0.008192 -0.000795 -0.494142
40  3.859584 -0.149112 -1.331323  -0.144133 0.068146 -0.137838
41  1.719411 -0.000098 -0.000034  -0.015109 -0.000174 -1.071001
42  1.099674 0.000025 0.000007  -0.004386 -0.008133 -0.862854
43  0.805979 -0.359854 -1.318339  0.974252 0.268925 -0.894612
44  1.789779 -0.000008 -0.000042  0.001484 -0.011936 0.235362
45  1.206996 -0.000005 0.000005  0.001538 -0.000068 1.118076
46  5.740570 0.000056 0.000723  0.203408 -0.000014 0.000021
47  11.480581 -0.000264 0.000959  0.121254 0.040195 0.139058
48  6.027514 -0.000274 -0.000237  -0.668848 -0.514758 -1.667771
49  -0.000002 11.691975 -0.000008  -1.306166 0.753410 0.954393
50  0.000003 -0.000001 0.000000  2.413975 -0.000041 1.570856
51  -0.000007 -0.000016 0.000004  2.272644 -0.000030 1.570865
52  -4.197145 -3.955227 -6.650713  3.082035 -0.061401 -1.468313
53  -0.000000 -0.000000 -0.000001  0.008153 -0.000259 0.000009
54  -0.000000 0.000000 0.000000  1.565115 0.043565 -0.106862
55  -0.427259 -17.046837 -5.668183  -0.930273 0.155380 -1.904209
56  -0.000001 -0.000000 0.000000  0.000000 -0.000000 -0.000002
57  0.000029 0.000029 0.000001  -1.571901 -0.044449 -0.106509
58  8.426761 -19.544212 -16.568478  1.570796 -0.000000 0.000000
59  -15.417985 2.938832 -17.970421  1.570796 -0.000000 0.000000
60  1.941978 -0.304065 -8.327020  1.570796 -0.000000 0.000000
61  -0.004311 0.001229 -0.000371  0.006898 -0.005534 -0.284229
62  2.089273 8.874444 -4.333363  1.570796 -0.000000 0.000000
63  0.000000 0.000000 0.000000  -0.078727 -3.136056 0.284226
64  1.000000 0.000000 -0.750000  1.570796 -0.000000 0.000000
65  -2.320994 -10.436199 -1.933373  1.570796 -0.000000 0.000000
66  0.000002 -2.923558 -1.408042  0.000000 -0.000000 0.000000
67  -0.000002 -0.601197 -2.062164  0.000000 -0.000000 0.000000
68  0.004380 -0.039407 6.613115  0.000000 -0.000000 0.000000
69  0.000970 -0.021792 0.054851  0.000000 -0.000000 -0.000000
70  0.000002 -3.304881 0.259169  0.000000 -0.000000 0.000000
71  -2.320996 -15.173336 -3.193526  1.570796 -0.000000 0.000000
72  0.057100 0.204433 -2.709597  0.000000 -0.000000 -0.000000
73  0.111673 -0.283001 -2.709597  0.000000 -0.000000 -0.000000
74  -0.128217 -0.750370 -2.709597  0.000000 0.000000 0.000000
time 1
0  0 0 0  0 0 0
1  0.000006 0.000000 0.000000  -1.570800 -1.391899 -1.570792
2  -8.138873 1.780375 1.937664  -1.544956 -1.855077 -0.198630
3  6.027523 -0.000328 0.000192  -0.593865 -1.344406 -1.537127
4  11.692111 0.000642 -0.000739  -1.471379 -0.000006 -1.204157
5  11.480183 0.000695 -0.000399  1.132107 -0.928518 0.409089
6  3.571341 -0.073052 -1.193381  -0.630908 0.056337 -1.699771
7  1.312590 0.000010 0.000005  -0.000395 0.000880 -0.663191
8  0.729353 0.000053 0.000051  -0.000172 0.000021 -0.220360
9  3.942145 0.046274 -0.431512  -0.413547 0.112709 -1.516154
10  1.539111 0.000086 0.000006  -0.001056 0.003240 -0.572825
11  1.196331 0.000147 0.000031  -0.000216 0.000008 -0.647849
12  3.883505 -0.047268 0.431382  -0.386032 0.372160 -1.001174
13  1.719573 -0.000028 0.000014  0.029635 0.017714 -0.994916
14  1.209179 0.000093 0.000013  -0.001849 0.000829 -0.701988
15  3.859663 -0.138475 1.332410  -0.061682 0.488092 -0.444155
16  1.719449 -0.000012 0.000022  -0.017509 -0.024177 -0.574397
17  1.099675 0.000049 0.000004  0.000693 0.002640 -1.571702
18  0.945844 -0.861835 1.304576  -1.769690 -0.354327 -0.275173
19  1.789817 -0.000003 -0.000019  0.008665 0.005630 -0.065006
20  1.207016 -0.000012 -0.000044  0.000321 -0.000553 0.304742
21  5.740636 0.000410 -0.000703  -0.125401 0.000003 0.000071
22  11.481041 0.000351 -0.000737  -0.038495 -0.174327 0.025462
23  6.027523 -0.000330 0.000203  1.545981 -0.225133 1.715249
24  0.000001 11.692099 -0.000008  -0.850375 -0.321864 -0.688382
25  0.000003 0.000009 -0.000001  -0.602294 -0.000030 1.570739
26  -0.000001 -0.000011 -0.000001  0.868957 0.000002 1.570712
27  -5.843360 -7.961716 2.089273  1.473120 1.855075 -0.198639
28  6.027507 -0.000261 -0.000230  1.649117 0.570208 -0.467746
29  11.691992 0.000242 0.000855  0.141450 0.000081 -1.968500
30  11.478199 -0.001502 0.001044  -0.938341 0.078336 0.818267
31  3.859436 -0.132787 1.193062  0.419753 0.064213 -1.630733
32  1.312558 0.000024 0.000000  0.018650 -0.111950 -0.566450
33  0.729345 0.000067 -0.000028  -0.136092 -0.130379 -0.745071
34  3.942046 0.050109 0.430997  0.227728 0.017433 -1.395883
35  1.539096 0.000004 -0.000000  0.033374 -0.057010 -0.978694
36  1.196299 0.000076 -0.000004  -0.008681 -0.024216 -0.882959
37  3.883411 -0.050502 -0.431088  0.220900 -0.070369 -1.119647
38  1.719563 -0.000081 -0.000004  0.013025 -0.077950 -1.452999
39  1.209196 0.000036 0.000010  0.008192 -0.000795 -0.494142
40  3.859585 -0.149112 -1.331324  -0.144133 0.068146 -0.137838
41  1.719411 -0.000097 -0.000034  -0.015109 -0.000174 -1.071001
42  1.099674 0.000024 0.000007  -0.004386 -0.008133 -0.862854
43  0.805979 -0.359854 -1.318338  0.974252 0.268925 -0.894612
44  1.789779 -0.000007 -0.000043  0.001484 -0.011936 0.235362
45  1.206997 -0.000006 0.000006  0.001538 -0.000068 1.118076
46  5.740572 0.000056 0.000723  0.203257 -0.000014 0.000021
47  11.480584 -0.000264 0.000957  0.121063 0.039805 0.139287
48  6.027514 -0.000274 -0.000237  -0.668554 -0.513879 -1.668263
49  -0.000003 11.691975 -0.000006  -1.305987 0.753225 0.954324
50  0.000004 -0.000001 -0.000000  2.413975 -0.000041 1.570856
51  -0.000007 -0.000015 0.000005  2.272644 -0.000030 1.570865
52  -4.205883 -3.958108 -6.643212  3.080554 -0.060517 -1.468223
53  0.000000 -0.000000 -0.000000  0.008153 -0.000259 0.000009
54  -0.000000 -0.000000 -0.000000  1.565115 0.043565 -0.106862
55  -0.434476 -17.050423 -5.676095  -0.932007 0.155557 -1.904478
56  -0.000001 -0.000000 0.000000  0.000000 -0.000000 -0.000002
57  0.000030 0.000029 0.000001  -1.571902 -0.044449 -0.106509
58  8.426761 -19.544212 -16.568478  1.570796 -0.000000 0.000000
59  -15.417985 2.938832 -17.970421  1.570796 -0.000000 0.000000
60  1.941978 -0.304065 -8.327020  1.570796 -0.000000 0.000000
61  -0.004311 0.001229 -0.000371  0.006898 -0.005534 -0.284229
62  2.089273 8.874444 -4.333363  1.570796 -0.000000 0.000000
63  0.000000 0.000000 0.000000  -0.078727 -3.136056 0.284226
64  1.000000 0.000000 -0.750000  1.570796 -0.000443 -0.000000
65  -2.322379 -10.442511 -1.933524  1.571524 0.001560 0.000001
66  0.000002 -2.923558 -1.408043  0.000000 0.000000 0.000000
67  -0.000002 -0.601198 -2.062165  0.000000 0.000000 0.000000
68  0.004380 -0.039407 6.613115  0.000000 0.000000 0.000000
69  0.000970 -0.021792 0.054849  0.000000 -0.000000 -0.000000
70  0.000002 -3.304881 0.259168  0.000000 0.000000 0.000000
71  -2.324348 -15.178728 -3.197124  1.571524 0.001560 0.000001
72  0.057100 0.204433 -2.709597  0.000000 -0.000000 0.000000
73  0.111673 -0.283001 -2.709597  0.000000 -0.000000 0.000000
74  -0.128217 -0.750370 -2.709597  0.000000 0.000000 0.000000
time 2
0  0 0 0  0 0 0
1  0.000006 0.000000 0.000000  -1.570800 -1.391899 -1.570792
2  -8.138873 1.780375 1.937664  -1.544956 -1.855077 -0.198630
3  6.027523 -0.000328 0.000192  -0.590172 -1.344347 -1.538937
4  11.692111 0.000643 -0.000738  -1.471379 -0.000006 -1.202503
5  11.480191 0.000696 -0.000393  1.127037 -0.926909 0.408158
6  3.571340 -0.073053 -1.193380  -0.630908 0.056337 -1.699771
7  1.312590 0.000012 0.000006  -0.000395 0.000880 -0.663191
8  0.729356 0.000055 0.000050  -0.000172 0.000021 -0.220360
9  3.942143 0.046273 -0.431512  -0.413547 0.112709 -1.516154
10  1.539111 0.000084 0.000006  -0.001056 0.003240 -0.572825
11  1.196333 0.000145 0.000030  -0.000216 0.000008 -0.647849
12  3.883505 -0.047269 0.431382  -0.386032 0.372160 -1.001174
13  1.719575 -0.000026 0.000014  0.029634 0.017714 -0.994916
14  1.209179 0.000092 0.000013  -0.001849 0.000829 -0.701988
15  3.859661 -0.138475 1.332410  -0.061682 0.488092 -0.444155
16  1.719448 -0.000011 0.000019  -0.017508 -0.024177 -0.574397
17  1.099675 0.000048 0.000006  0.000693 0.002640 -1.571702
18  0.945842 -0.861836 1.304576  -1.769690 -0.354327 -0.275173
19  1.789819 -0.000003 -0.000017  0.008665 0.005630 -0.065006
20  1.207015 -0.000012 -0.000043  0.000321 -0.000553 0.304742
21  5.740638 0.000410 -0.000702  -0.126218 0.000003 0.000070
22  11.481044 0.000351 -0.000736  -0.039519 -0.174133 0.024923
23  6.027523 -0.000330 0.000203  1.545129 -0.225099 1.717227
24  0.000001 11.692099 -0.000007  -0.849347 -0.321062 -0.687639
25  0.000002 0.000009 -0.000001  -0.602294 -0.000030 1.570739
26  -0.000001 -0.000012 -0.000001  0.868957 0.000002 1.570712
27  -5.843360 -7.961716 2.089273  1.473120 1.855075 -0.198639
28  6.027507 -0.000261 -0.000230  1.651753 0.570365 -0.467172
29  11.691992 0.000242 0.000856  0.141450 0.000081 -1.967749
30  11.478208 -0.001500 0.001045  -0.942476 0.074414 0.819527
31  3.859436 -0.132788 1.193062  0.419753 0.064213 -1.630733
32  1.312558 0.000025 -0.000000  0.018650 -0.111950 -0.566450
33  0.729345 0.000066 -0.000027  -0.136092 -0.130379 -0.745071
34  3.942046 0.050109 0.430997  0.227728 0.017433 -1.395883
35  1.539096 0.000005 -0.000001  0.033374 -0.057010 -0.978694
36  1.196299 0.000077 -0.000005  -0.008681 -0.024216 -0.882959
37  3.883411 -0.050502 -0.431087  0.220900 -0.070369 -1.119647
38  1.719563 -0.000081 -0.000003  0.013025 -0.077950 -1.452999
39  1.209197 0.000035 0.000010  0.008192 -0.000795 -0.494142
40  3.859585 -0.149112 -1.331324  -0.144133 0.068146 -0.137838
41  1.719412 -0.000098 -0.000035  -0.015109 -0.000174 -1.071001
42  1.099673 0.000024 0.000006  -0.004386 -0.008133 -0.862854
43  0.805979 -0.359854 -1.318338  0.974252 0.268925 -0.894612
44  1.789779 -0.000008 -0.000042  0.001484 -0.011936 0.235362
45  1.206996 -0.000005 0.000005  0.001538 -0.000068 1.118076
46  5.740572 0.000055 0.000724  0.202854 -0.000014 0.000021
47  11.480586 -0.000264 0.000959  0.120581 0.038837 0.139844
48  6.027514 -0.000274 -0.000237  -0.667802 -0.511753 -1.669482
49  -0.000001 11.691975 -0.000008  -1.305533 0.752758 0.954150
50  0.000003 -0.000001 0.000000  2.413975 -0.000041 1.570856
51  -0.000007 -0.000015 0.000003  2.272644 -0.000030 1.570865
52  -4.227676 -3.965332 -6.625451  3.076854 -0.058307 -1.468003
53  -0.000000 0.000000 0.000000  0.008153 -0.000259 0.000009
54  -0.000000 0.000000 -0.000000  1.565115 0.043565 -0.106862
55  -0.452572 -17.059374 -5.696885  -0.936341 0.155998 -1.905150
56  0.000000 0.000000 -0.000000  0.000000 -0.000000 -0.000002
57  0.000030 0.000029 0.000001  -1.571902 -0.044449 -0.106509
58  8.426761 -19.544212 -16.568478  1.570796 -0.000000 0.000000
59  -15.417985 2.938832 -17.970421  1.570796 -0.000000 0.000000
60  1.941978 -0.304065 -8.327020  1.570796 -0.000000 0.000000
61  -0.004311 0.001229 -0.000371  0.006898 -0.005534 -0.284229
62  2.089273 8.874444 -4.333363  1.570796 -0.000000 0.000000
63  0.000000 0.000000 0.000000  -0.078727 -3.136056 0.284226
64  1.000000 0.000000 -0.750000  1.570796 -0.001550 -0.000000
65  -2.325839 -10.458290 -1.934957  1.573345 0.005461 0.000007
66  0.000002 -2.923558 -1.408043  -0.000000 -0.000000 -0.000000
67  -0.000002 -0.601198 -2.062165  -0.000000 -0.000000 -0.000000
68  0.004380 -0.039406 6.613114  -0.000000 -0.000000 -0.000000
69  0.000970 -0.021792 0.054850  -0.000000 -0.000000 -0.000000
70  0.000002 -3.304881 0.259167  -0.000000 -0.000000 -0.000000
71  -2.332754 -15.192201 -3.207158  1.573345 0.005461 0.000007
72  0.057100 0.204433 -2.709595  0.000000 -0.000000 -0.000000
73  0.111673 -0.283001 -2.709596  0.000000 -0.000000 -0.000000
74  -0.128217 -0.750370 -2.709596  0.000000 0.000000 -0.000000
time 3
0  0 0 0  0 0 0
1  0.000006 0.000000 0.000000  -1.570800 -1.391899 -1.570792
2  -8.138873 1.780375 1.937664  -1.544956 -1.855077 -0.198630
3  6.027523 -0.000328 0.000192  -0.585494 -1.344224 -1.541086
4  11.692112 0.000641 -0.000738  -1.471379 -0.000006 -1.200388
5  11.480202 0.000697 -0.000391  1.120432 -0.924785 0.406882
6  3.571339 -0.073053 -1.193381  -0.630908 0.056336 -1.699771
7  1.312590 0.000011 0.000009  -0.000395 0.000880 -0.663191
8  0.729356 0.000054 0.000048  -0.000172 0.000021 -0.220360
9  3.942143 0.046273 -0.431512  -0.413547 0.112709 -1.516154
10  1.539110 0.000083 0.000006  -0.001056 0.003240 -0.572825
11  1.196331 0.000146 0.000028  -0.000216 0.000008 -0.647849
12  3.883504 -0.047269 0.431381  -0.386032 0.372160 -1.001174
13  1.719573 -0.000026 0.000016  0.029635 0.017714 -0.994916
14  1.209179 0.000091 0.000013  -0.001849 0.000829 -0.701988
15  3.859663 -0.138475 1.332410  -0.061682 0.488092 -0.444155
16  1.719448 -0.000011 0.000022  -0.017508 -0.024177 -0.574397
17  1.099676 0.000048 0.000005  0.000693 0.002640 -1.571702
18  0.945844 -0.861836 1.304575  -1.769690 -0.354327 -0.275173
19  1.789822 -0.000003 -0.000018  0.008665 0.005630 -0.065006
20  1.207016 -0.000012 -0.000044  0.000320 -0.000553 0.304742
21  5.740638 0.000410 -0.000703  -0.127279 0.000003 0.000071
22  11.481047 0.000351 -0.000736  -0.040860 -0.173873 0.024212
23  6.027523 -0.000330 0.000203  1.544044 -0.225098 1.719880
24  0.000002 11.692099 -0.000008  -0.848031 -0.320037 -0.686688
25  0.000003 0.000009 -0.000000  -0.602294 -0.000031 1.570739
26  -0.000001 -0.000012 -0.000001  0.868957 0.000002 1.570712
27  -5.843360 -7.961716 2.089273  1.473120 1.855075 -0.198639
28  6.027507 -0.000261 -0.000230  1.655079 0.570511 -0.466451
29  11.691992 0.000242 0.000855  0.141450 0.000080 -1.966752
30  11.478216 -0.001493 0.001043  -0.947855 0.069405 0.821092
31  3.859436 -0.132788 1.193062  0.419753 0.064213 -1.630734
32  1.312558 0.000025 0.000001  0.018649 -0.111950 -0.566450
33  0.729346 0.000065 -0.000028  -0.136092 -0.130379 -0.745071
34  3.942046 0.050109 0.430997  0.227728 0.017433 -1.395883
35  1.539096 0.000005 0.000000  0.033374 -0.057010 -0.978694
36  1.196300 0.000076 -0.000004  -0.008681 -0.024216 -0.882959
37  3.883411 -0.050502 -0.431087  0.220900 -0.070369 -1.119647
38  1.719564 -0.000083 -0.000003  0.013025 -0.077950 -1.452999
39  1.209197 0.000035 0.000011  0.008192 -0.000795 -0.494142
40  3.859585 -0.149112 -1.331323  -0.144133 0.068146 -0.137838
41  1.719413 -0.000097 -0.000033  -0.015109 -0.000174 -1.071001
42  1.099673 0.000025 0.000007  -0.004386 -0.008133 -0.862854
43  0.805979 -0.359854 -1.318338  0.974252 0.268925 -0.894612
44  1.789779 -0.000007 -0.000042  0.001484 -0.011936 0.235362
45  1.206996 -0.000005 0.000005  0.001538 -0.000068 1.118076
46  5.740573 0.000055 0.000723  0.202298 -0.000014 0.000021
47  11.480588 -0.000262 0.000957  0.119949 0.037590 0.140543
48  6.027514 -0.000274 -0.000237  -0.666807 -0.509089 -1.671042
49  -0.000003 11.691974 -0.000008  -1.304930 0.752137 0.953919
50  0.000003 -0.000002 0.000000  2.413975 -0.000041 1.570856
51  -0.000007 -0.000016 0.000004  2.272644 -0.000030 1.570865
52  -4.255898 -3.974773 -6.603717  3.072045 -0.055432 -1.467730
53  0.000000 -0.000000 0.000001  0.008153 -0.000259 0.000009
54  0.000000 -0.000000 -0.000000  1.565115 0.043565 -0.106862
55  -0.476213 -17.070955 -5.725299  -0.941977 0.156567 -1.906027
56  -0.000003 0.000000 0.000000  0.000000 -0.000000 -0.000002
57  0.000027 0.000029 0.000001  -1.571901 -0.044449 -0.106509
58  8.426761 -19.544212 -16.568478  1.570796 -0.000000 0.000000
59  -15.417985 2.938832 -17.970421  1.570796 -0.000000 0.000000
60  1.941978 -0.304065 -8.327020  1.570796 -0.000000 0.000000
61  -0.004311 0.001229 -0.000371  0.006898 -0.005534 -0.284229
62  2.089273 8.874444 -4.333363  1.570796 -0.000000 0.000000
63  0.000000 0.000000 0.000000  -0.078727 -3.136056 0.284226
64  1.000000 0.000000 -0.750000  1.570796 -0.002989 -0.000000
65  -2.330337 -10.478803 -1.938308  1.575711 0.010532 0.000026
66  0.000002 -2.923558 -1.408041  0.000000 0.000000 0.000000
67  -0.000002 -0.601198 -2.062164  0.000000 0.000000 0.000000
68  0.004380 -0.039406 6.613115  0.000000 0.000000 0.000000
69  0.000970 -0.021792 0.054850  0.000000 -0.000000 -0.000000
70  0.000002 -3.304881 0.259169  0.000000 0.000000 0.000000
71  -2.343733 -15.209691 -3.221657  1.575711 0.010532 0.000026
72  0.057100 0.204433 -2.709596  0.000000 -0.000000 0.000000
73  0.111673 -0.283001 -2.709596  0.000000 -0.000000 0.000000
74  -0.128217 -0.750370 -2.709597  0.000000 0.000000 0.000000
time 4
0  0 0 0  0 0 0
1  0.000006 0.000000 0.000000  -1.570800 -1.391899 -1.570792
2  -8.138873 1.780375 1.937664  -1.544956 -1.855077 -0.198630
3  6.027523 -0.000328 0.000192  -0.581167 -1.343991 -1.542701
4  11.692111 0.000643 -0.000740  -1.471378 -0.000006 -1.198368
5  11.480213 0.000697 -0.000384  1.113796 -0.922594 0.405458
6  3.571338 -0.073053 -1.193381  -0.630908 0.056337 -1.699771
7  1.312591 0.000013 0.000006  -0.000395 0.000880 -0.663191
8  0.729354 0.000053 0.000050  -0.000172 0.000021 -0.220360
9  3.942145 0.046273 -0.431512  -0.413547 0.112709 -1.516154
10  1.539110 0.000083 0.000006  -0.001056 0.003239 -0.572825
11  1.196331 0.000147 0.000030  -0.000216 0.000008 -0.647849
12  3.883503 -0.047269 0.431381  -0.386032 0.372160 -1.001174
13  1.719572 -0.000027 0.000015  0.029635 0.017714 -0.994916
14  1.209178 0.000093 0.000014  -0.001849 0.000829 -0.701987
15  3.859664 -0.138475 1.332410  -0.061682 0.488092 -0.444155
16  1.719449 -0.000013 0.000021  -0.017508 -0.024177 -0.574397
17  1.099674 0.000047 0.000006  0.000693 0.002640 -1.571702
18  0.945844 -0.861835 1.304575  -1.769691 -0.354327 -0.275173
19  1.789820 -0.000003 -0.000018  0.008665 0.005630 -0.065006
20  1.207016 -0.000012 -0.000043  0.000321 -0.000553 0.304742
21  5.740638 0.000410 -0.000702  -0.128340 0.000003 0.000070
22  11.481049 0.000351 -0.000734  -0.042223 -0.173597 0.023476
23  6.027523 -0.000330 0.000203  1.543024 -0.225212 1.722707
24  0.000001 11.692099 -0.000007  -0.846774 -0.319059 -0.685779
25  0.000004 0.000008 -0.000001  -0.602294 -0.000030 1.570739
26  -0.000001 -0.000011 -0.000000  0.868957 0.000002 1.570712
27  -5.843360 -7.961716 2.089273  1.473120 1.855075 -0.198639
28  6.027507 -0.000261 -0.000230  1.658177 0.570511 -0.465790
29  11.691992 0.000243 0.000856  0.141450 0.000080 -1.965725
30  11.478225 -0.001493 0.001043  -0.953226 0.064584 0.822472
31  3.859436 -0.132788 1.193062  0.419753 0.064213 -1.630733
32  1.312558 0.000024 -0.000000  0.018649 -0.111950 -0.566450
33  0.729345 0.000066 -0.000028  -0.136092 -0.130379 -0.745071
34  3.942046 0.050108 0.430997  0.227728 0.017433 -1.395883
35  1.539096 0.000004 0.000000  0.033374 -0.057010 -0.978694
36  1.196300 0.000077 -0.000004  -0.008681 -0.024216 -0.882959
37  3.883412 -0.050502 -0.431086  0.220900 -0.070369 -1.119647
38  1.719563 -0.000081 -0.000003  0.013025 -0.077950 -1.452999
39  1.209197 0.000035 0.000011  0.008192 -0.000795 -0.494142
40  3.859585 -0.149112 -1.331323  -0.144133 0.068146 -0.137838
41  1.719412 -0.000097 -0.000035  -0.015109 -0.000174 -1.071001
42  1.099674 0.000024 0.000007  -0.004386 -0.008133 -0.862854
43  0.805979 -0.359853 -1.318338  0.974252 0.268925 -0.894612
44  1.789779 -0.000008 -0.000042  0.001484 -0.011936 0.235362
45  1.206996 -0.000005 0.000006  0.001538 -0.000068 1.118076
46  5.740572 0.000053 0.000723  0.201669 -0.000014 0.000021
47  11.480589 -0.000264 0.000958  0.119304 0.036367 0.141190
48  6.027514 -0.000274 -0.000237  -0.665741 -0.506653 -1.672573
49  -0.000001 11.691974 -0.000008  -1.304308 0.751497 0.953680
50  0.000003 -0.000002 -0.000000  2.413975 -0.000041 1.570856
51  -0.000007 -0.000015 0.000004  2.272644 -0.000030 1.570865
52  -4.283998 -3.984273 -6.585134  3.067237 -0.052555 -1.467471
53  -0.000000 0.000000 0.000000  0.008153 -0.000259 0.000009
54  0.000000 -0.000000 0.000001  1.565115 0.043565 -0.106862
55  -0.499984 -17.082476 -5.756900  -0.947615 0.157131 -1.906908
56  0.000001 0.000001 0.000000  0.000000 -0.000000 -0.000002
57  0.000031 0.000030 0.000001  -1.571901 -0.044449 -0.106509
58  8.426761 -19.544212 -16.568478  1.570796 -0.000000 0.000000
59  -15.417985 2.938832 -17.970421  1.570796 -0.000000 0.000000
60  1.941978 -0.304065 -8.327020  1.570796 -0.000000 0.000000
61  -0.004311 0.001229 -0.000371  0.006898 -0.005534 -0.284229
62  2.089273 8.874444 -4.333363  1.570796 -0.000000 0.000000
63  0.000000 0.000000 0.000000  -0.078727 -3.136056 0.284226
64  1.000000 0.000000 -0.750000  1.570796 -0.004428 -0.000000
65  -2.334836 -10.499315 -1.944960  1.578079 0.015604 0.000057
66  0.000002 -2.923558 -1.408043  -0.000000 -0.000000 0.000000
67  -0.000003 -0.601198 -2.062166  -0.000000 -0.000000 0.000000
68  0.004380 -0.039407 6.613116  -0.000000 -0.000000 0.000000
69  0.000970 -0.021792 0.054851  -0.000000 -0.000000 -0.000000
70  0.000002 -3.304881 0.259168  -0.000000 -0.000000 0.000000
71  -2.354769 -15.227152 -3.239419  1.578079 0.015604 0.000057
72  0.057100 0.204433 -2.709597  0.000000 -0.000000 0.000000
73  0.111673 -0.283001 -2.709596  0.000000 -0.000000 0.000000
74  -0.128218 -0.750370 -2.709597  0.000000 0.000000 0.000000
time 5
0  0 0 0  0 0 0
1  0.000006 0.000000 0.000000  -1.570800 -1.391899 -1.570792
2  -8.138873 1.780375 1.937664  -1.544956 -1.855077 -0.198630
3  6.027523 -0.000328 0.000192  -0.578967 -1.343494 -1.542318
4  11.692111 0.000643 -0.000740  -1.471379 -0.000006 -1.197107
5  11.480220 0.000699 -0.000380  1.108618 -0.920733 0.403954
6  3.571338 -0.073053 -1.193381  -0.630908 0.056337 -1.699771
7  1.312589 0.000012 0.000007  -0.000395 0.000880 -0.663191
8  0.729354 0.000054 0.000050  -0.000172 0.000021 -0.220360
9  3.942144 0.046274 -0.431511  -0.413547 0.112709 -1.516154
10  1.539111 0.000083 0.000005  -0.001056 0.003240 -0.572825
11  1.196333 0.000148 0.000032  -0.000216 0.000008 -0.647849
12  3.883505 -0.047269 0.431382  -0.386032 0.372160 -1.001174
13  1.719573 -0.000028 0.000015  0.029635 0.017714 -0.994916
14  1.209177 0.000093 0.000016  -0.001849 0.000829 -0.701987
15  3.859665 -0.138475 1.332411  -0.061682 0.488092 -0.444155
16  1.719449 -0.000012 0.000023  -0.017508 -0.024177 -0.574397
17  1.099674 0.000049 0.000006  0.000693 0.002640 -1.571701
18  0.945845 -0.861835 1.304577  -1.769690 -0.354327 -0.275173
19  1.789819 -0.000003 -0.000017  0.008665 0.005630 -0.065006
20  1.207016 -0.000012 -0.000043  0.000321 -0.000553 0.304742
21  5.740637 0.000411 -0.000702  -0.129153 0.000003 0.000070
22  11.481050 0.000352 -0.000734  -0.043323 -0.173344 0.022841
23  6.027523 -0.000330 0.000203  1.542457 -0.225643 1.725361
24  -0.000000 11.692099 -0.000008  -0.845989 -0.318450 -0.685211
25  0.000004 0.000009 0.000000  -0.602294 -0.000031 1.570738
26  -0.000002 -0.000011 -0.000001  0.868957 0.000002 1.570712
27  -5.843360 -7.961716 2.089273  1.473120 1.855075 -0.198639
28  6.027507 -0.000261 -0.000230  1.659940 0.570055 -0.465456
29  11.691992 0.000242 0.000855  0.141450 0.000080 -1.964885
30  11.478232 -0.001489 0.001044  -0.957303 0.061353 0.822974
31  3.859435 -0.132788 1.193061  0.419753 0.064213 -1.630733
32  1.312558 0.000024 -0.000000  0.018649 -0.111950 -0.566450
33  0.729345 0.000067 -0.000028  -0.136092 -0.130379 -0.745071
34  3.942046 0.050109 0.430996  0.227728 0.017433 -1.395883
35  1.539096 0.000003 0.000001  0.033374 -0.057010 -0.978694
36  1.196299 0.000077 -0.000004  -0.008681 -0.024216 -0.882959
37  3.883411 -0.050502 -0.431088  0.220900 -0.070369 -1.119647
38  1.719563 -0.000083 -0.000003  0.013025 -0.077950 -1.452999
39  1.209197 0.000036 0.000011  0.008192 -0.000795 -0.494142
40  3.859584 -0.149112 -1.331324  -0.144133 0.068146 -0.137838
41  1.719412 -0.000098 -0.000034  -0.015109 -0.000174 -1.071001
42  1.099674 0.000024 0.000007  -0.004386 -0.008133 -0.862854
43  0.805979 -0.359854 -1.318338  0.974252 0.268925 -0.894612
44  1.789779 -0.000008 -0.000042  0.001484 -0.011936 0.235362
45  1.206997 -0.000005 0.000005  0.001538 -0.000068 1.118076
46  5.740573 0.000055 0.000724  0.200993 -0.000014 0.000021
47  11.480592 -0.000262 0.000958  0.118785 0.035490 0.141550
48  6.027514 -0.000274 -0.000237  -0.664651 -0.505427 -1.673720
49  -0.000002 11.691975 -0.000007  -1.303800 0.750974 0.953485
50  0.000002 -0.000002 0.000001  2.413975 -0.000041 1.570856
51  -0.000007 -0.000015 0.000004  2.272644 -0.000030 1.570865
52  -4.305527 -3.991619 -6.579790  3.063538 -0.050341 -1.467280
53  0.000000 0.000001 0.000000  0.008153 -0.000259 0.000009
54  -0.000000 -0.000000 -0.000000  1.565115 0.043565 -0.106862
55  -0.518356 -17.091293 -5.790178  -0.951953 0.157561 -1.907588
56  -0.000001 0.000001 0.000000  0.000000 -0.000000 -0.000002
57  0.000029 0.000030 0.000001  -1.571901 -0.044449 -0.106509
58  8.426761 -19.544212 -16.568478  1.570796 -0.000000 0.000000
59  -15.417985 2.938832 -17.970421  1.570796 -0.000000 0.000000
60  1.941978 -0.304065 -8.327020  1.570796 -0.000000 0.000000
61  -0.004311 0.001229 -0.000371  0.006898 -0.005534 -0.284229
62  2.089273 8.874444 -4.333363  1.570796 -0.000000 0.000000
63  0.000000 0.000000 0.000000  -0.078727 -3.136056 0.284226
64  1.000000 0.000000 -0.750000  1.570796 -0.005535 -0.000000
65  -2.338296 -10.515094 -1.959126  1.579900 0.019506 0.000089
66  0.000002 -2.923557 -1.408041  -0.000000 0.000000 0.000000
67  -0.000002 -0.601197 -2.062164  -0.000000 0.000000 0.000000
68  0.004381 -0.039407 6.613115  -0.000000 0.000000 0.000000
69  0.000970 -0.021792 0.054851  -0.000000 -0.000000 -0.000000
70  0.000002 -3.304881 0.259170  -0.000000 0.000000 0.000000
71  -2.363297 -15.240564 -3.262104  1.579900 0.019506 0.000089
72  0.057100 0.204433 -2.709595  -0.000000 -0.000000 0.000000
73  0.111673 -0.283001 -2.709595  -0.000000 -0.000000 0.000000
74  -0.128217 -0.750370 -2.709596  -0.000000 0.000000 0.000000
time 6
0  0 0 0  0 0 0
1  0.000006 0.000000 0.000000  -1.570800 -1.391899 -1.570792
2  -8.138873 1.780375 1.937664  -1.544956 -1.855077 -0.198630
3  6.027523 -0.000328 0.000192  -0.581477 -1.342356 -1.537323
4  11.692111 0.000644 -0.000739  -1.471379 -0.000006 -1.197482
5  11.480218 0.000697 -0.000379  1.106346 -0.919481 0.402161
6  3.571340 -0.073053 -1.193380  -0.630908 0.056336 -1.699771
7  1.312590 0.000012 0.000008  -0.000395 0.000880 -0.663191
8  0.729355 0.000053 0.000049  -0.000172 0.000021 -0.220360
9  3.942141 0.046272 -0.431512  -0.413547 0.112709 -1.516154
10  1.539110 0.000083 0.000003  -0.001056 0.003240 -0.572825
11  1.196334 0.000146 0.000030  -0.000216 0.000008 -0.647849
12  3.883503 -0.047270 0.431382  -0.386032 0.372160 -1.001174
13  1.719573 -0.000027 0.000017  0.029634 0.017714 -0.994916
14  1.209178 0.000091 0.000015  -0.001849 0.000829 -0.701988
15  3.859664 -0.138475 1.332411  -0.061682 0.488092 -0.444155
16  1.719449 -0.000012 0.000022  -0.017508 -0.024177 -0.574397
17  1.099675 0.000049 0.000006  0.000693 0.002640 -1.571702
18  0.945840 -0.861836 1.304575  -1.769690 -0.354327 -0.275173
19  1.789821 -0.000003 -0.000019  0.008665 0.005630 -0.065006
20  1.207017 -0.000012 -0.000044  0.000321 -0.000553 0.304742
21  5.740636 0.000411 -0.000700  -0.129470 0.000003 0.000071
22  11.481049 0.000351 -0.000732  -0.043915 -0.173128 0.022382
23  6.027523 -0.000330 0.000203  1.542889 -0.226843 1.727814
24  0.000001 11.692099 -0.000007  -0.846222 -0.318631 -0.685380
25  0.000003 0.000009 0.000000  -0.602294 -0.000031 1.570739
26  -0.000002 -0.000012 -0.000001  0.868957 0.000002 1.570712
27  -5.843360 -7.961716 2.089273  1.473120 1.855075 -0.198639
28  6.027507 -0.000261 -0.000230  1.658845 0.568509 -0.465833
29  11.691991 0.000241 0.000855  0.141450 0.000080 -1.964427
30  11.478232 -0.001486 0.001045  -0.958746 0.061423 0.821502
31  3.859436 -0.132788 1.193061  0.419753 0.064213 -1.630733
32  1.312558 0.000024 -0.000000  0.018649 -0.111950 -0.566450
33  0.729345 0.000066 -0.000027  -0.136092 -0.130379 -0.745071
34  3.942046 0.050108 0.430996  0.227728 0.017433 -1.395883
35  1.539096 0.000006 -0.000000  0.033374 -0.057010 -0.978694
36  1.196299 0.000076 -0.000004  -0.008681 -0.024216 -0.882959
37  3.883412 -0.050503 -0.431088  0.220900 -0.070369 -1.119647
38  1.719563 -0.000082 -0.000003  0.013025 -0.077950 -1.452999
39  1.209196 0.000035 0.000011  0.008192 -0.000795 -0.494142
40  3.859585 -0.149112 -1.331324  -0.144133 0.068146 -0.137838
41  1.719412 -0.000098 -0.000034  -0.015109 -0.000174 -1.071001
42  1.099673 0.000024 0.000007  -0.004386 -0.008133 -0.862854
43  0.805979 -0.359854 -1.318339  0.974252 0.268925 -0.894612
44  1.789778 -0.000008 -0.000042  0.001484 -0.011936 0.235362
45  1.206997 -0.000005 0.000005  0.001538 -0.000068 1.118076
46  5.740571 0.000056 0.000724  0.200168 -0.000014 0.000021
47  11.480589 -0.000261 0.000958  0.118518 0.035323 0.141292
48  6.027514 -0.000274 -0.000237  -0.663372 -0.506838 -1.674126
49  -0.000002 11.691975 -0.000007  -1.303523 0.750688 0.953378
50  0.000004 -0.000001 0.000000  2.413975 -0.000041 1.570856
51  -0.000007 -0.000015 0.000005  2.272644 -0.000030 1.570865
52  -4.314118 -3.994569 -6.603938  3.062059 -0.049455 -1.467207
53  0.000000 -0.000001 -0.000000  0.008153 -0.000259 0.000009
54  0.000000 -0.000001 -0.000000  1.565115 0.043565 -0.106862
55  -0.525726 -17.094809 -5.829782  -0.953689 0.157733 -1.907860
56  0.000001 0.000001 0.000000  0.000000 -0.000000 -0.000002
57  0.000032 0.000030 0.000001  -1.571901 -0.044449 -0.106509
58  8.426761 -19.544212 -16.568478  1.570796 -0.000000 0.000000
59  -15.417985 2.938832 -17.970421  1.570796 -0.000000 0.000000
60  1.941978 -0.304065 -8.327020  1.570796 -0.000000 0.000000
61  -0.004311 0.001229 -0.000371  0.006898 -0.005534 -0.284229
62  2.089273 8.874444 -4.333363  1.570796 -0.000000 0.000000
63  0.000000 0.000000 0.000000  -0.078727 -3.136056 0.284226
64  1.000000 0.000000 -0.750000  1.570796 -0.005978 -0.000000
65  -2.339680 -10.521405 -1.991104  1.580629 0.021067 0.000104
66  0.000002 -2.923558 -1.408043  -0.000000 -0.000000 0.000000
67  -0.000002 -0.601197 -2.062165  -0.000000 -0.000000 0.000000
68  0.004381 -0.039406 6.613114  -0.000000 -0.000000 0.000000
69  0.000970 -0.021791 0.054848  -0.000000 -0.000000 -0.000000
70  0.000002 -3.304880 0.259168  -0.000000 -0.000000 0.000000
71  -2.366718 -15.245924 -3.297484  1.580629 0.021067 0.000104
72  0.057100 0.204433 -2.709599  -0.000000 -0.000000 0.000000
73  0.111673 -0.283001 -2.709599  -0.000000 -0.000000 0.000000
74  -0.128217 -0.750370 -2.709598  -0.000000 0.000000 0.000000
time 7
0  0 0 0  0 0 0
1  0.000006 0.000000 0.000000  -1.570800 -1.391899 -1.570792
2  -8.138873 1.780375 1.937664  -1.544956 -1.855077 -0.198630
3  6.027523 -0.000328 0.000192  -0.584084 -1.342486 -1.536329
4  11.692111 0.000643 -0.000739  -1.471379 -0.000006 -1.198247
5  11.480213 0.000695 -0.000382  1.112850 -0.919972 0.400963
6  3.571338 -0.073053 -1.193381  -0.630908 0.056337 -1.699771
7  1.312590 0.000012 0.000008  -0.000395 0.000880 -0.663191
8  0.729355 0.000054 0.000051  -0.000172 0.000021 -0.220360
9  3.942140 0.046273 -0.431513  -0.413547 0.112709 -1.516154
10  1.539111 0.000083 0.000004  -0.001056 0.003239 -0.572825
11  1.196332 0.000146 0.000028  -0.000216 0.000007 -0.647849
12  3.883501 -0.047269 0.431381  -0.386032 0.372160 -1.001174
13  1.719573 -0.000027 0.000016  0.029635 0.017714 -0.994916
14  1.209179 0.000090 0.000012  -0.001849 0.000829 -0.701988
15  3.859661 -0.138475 1.332410  -0.061682 0.488092 -0.444155
16  1.719448 -0.000013 0.000021  -0.017509 -0.024177 -0.574397
17  1.099675 0.000049 0.000004  0.000693 0.002640 -1.571702
18  0.945844 -0.861836 1.304575  -1.769691 -0.354327 -0.275173
19  1.789820 -0.000003 -0.000017  0.008665 0.005630 -0.065006
20  1.207017 -0.000012 -0.000044  0.000321 -0.000553 0.304742
21  5.740636 0.000410 -0.000701  -0.128461 0.000003 0.000071
22  11.481047 0.000351 -0.000733  -0.042867 -0.173036 0.022721
23  6.027523 -0.000330 0.000203  1.543506 -0.226786 1.726130
24  0.000002 11.692099 -0.000008  -0.846698 -0.319001 -0.685725
25  0.000002 0.000009 -0.000001  -0.602294 -0.000031 1.570739
26  -0.000001 -0.000012 -0.000001  0.868957 0.000002 1.570712
27  -5.843360 -7.961716 2.089273  1.473120 1.855075 -0.198639
28  6.027507 -0.000261 -0.000230  1.655458 0.567721 -0.466618
29  11.691992 0.000243 0.000855  0.141450 0.000080 -1.964368
30  11.478236 -0.001489 0.001043  -0.955164 0.066342 0.817971
31  3.859436 -0.132788 1.193062  0.419753 0.064213 -1.630734
32  1.312558 0.000024 -0.000000  0.018650 -0.111950 -0.566450
33  0.729345 0.000066 -0.000028  -0.136092 -0.130379 -0.745071
34  3.942045 0.050109 0.430997  0.227728 0.017433 -1.395883
35  1.539096 0.000005 -0.000000  0.033374 -0.057010 -0.978694
36  1.196299 0.000076 -0.000004  -0.008681 -0.024216 -0.882959
37  3.883412 -0.050502 -0.431087  0.220900 -0.070369 -1.119647
38  1.719563 -0.000081 -0.000003  0.013025 -0.077950 -1.452999
39  1.209197 0.000035 0.000011  0.008192 -0.000795 -0.494142
40  3.859584 -0.149112 -1.331323  -0.144133 0.068146 -0.137838
41  1.719412 -0.000097 -0.000034  -0.015109 -0.000174 -1.071001
42  1.099674 0.000026 0.000007  -0.004386 -0.008133 -0.862854
43  0.805979 -0.359854 -1.318338  0.974252 0.268925 -0.894612
44  1.789779 -0.000008 -0.000042  0.001484 -0.011936 0.235362
45  1.206997 -0.000005 0.000006  0.001538 -0.000068 1.118076
46  5.740572 0.000055 0.000724  0.199962 -0.000014 0.000021
47  11.480591 -0.000262 0.000959  0.118836 0.036325 0.140266
48  6.027514 -0.000274 -0.000237  -0.663690 -0.509787 -1.672934
49  0.000000 11.691976 -0.000007  -1.303488 0.750652 0.953364
50  0.000004 -0.000001 0.000000  2.413975 -0.000041 1.570856
51  -0.000006 -0.000015 0.000005  2.272644 -0.000030 1.570865
52  -4.296442 -3.994435 -6.636958  3.065220 -0.052564 -1.467356
53  0.000000 -0.000000 0.000000  0.008153 -0.000259 0.000009
54  -0.000000 -0.000000 0.000000  1.565115 0.043565 -0.106862
55  -0.510657 -17.092422 -5.813454  -0.949456 0.156265 -1.907186
56  -0.000000 -0.000000 -0.000000  0.000000 -0.000000 -0.000002
57  0.000030 0.000029 0.000001  -1.571902 -0.044449 -0.106509
58  8.426761 -19.544212 -16.568478  1.570796 -0.000000 0.000000
59  -15.417985 2.938832 -17.970421  1.570796 -0.000000 0.000000
60  1.941978 -0.304065 -8.327020  1.570796 -0.000000 0.000000
61  -0.004311 0.001229 -0.000371  0.006898 -0.005534 -0.284229
62  2.089273 8.874444 -4.333363  1.570796 -0.000000 0.000000
63  0.000000 0.000000 0.000000  -0.078727 -3.136056 0.284226
64  1.000000 0.000000 -0.750000  1.570796 -0.005721 -0.000000
65  -2.337935 -10.508452 -1.999278  1.577861 0.017606 0.000062
66  0.000002 -2.923558 -1.408042  -0.000000 0.000000 0.000000
67  -0.000002 -0.601198 -2.062165  -0.000000 0.000000 0.000000
68  0.004380 -0.039407 6.613116  -0.000000 0.000000 0.000000
69  0.000970 -0.021792 0.054850  -0.000000 -0.000000 -0.000000
70  0.000002 -3.304881 0.259168  -0.000000 0.000000 0.000000
71  -2.360417 -15.236570 -3.292668  1.577861 0.017606 0.000062
72  0.057100 0.204433 -2.709597  0.000000 -0.000000 0.000000
73  0.111673 -0.283001 -2.709598  0.000000 -0.000000 0.000000
74  -0.128217 -0.750370 -2.709598  0.000000 0.000000 0.000000
time 8
0  0 0 0  0 0 0
1  0.000006 0.000000 0.000000  -1.570800 -1.391899 -1.570792
2  -8.138873 1.780375 1.937664  -1.544956 -1.855077 -0.198630
3  6.027523 -0.000328 0.000192  -0.586504 -1.343581 -1.538496
4  11.692110 0.000643 -0.000739  -1.471379 -0.000006 -1.199285
5  11.480210 0.000697 -0.000387  1.125382 -0.921797 0.400432
6  3.571338 -0.073053 -1.193381  -0.630908 0.056336 -1.699771
7  1.312591 0.000013 0.000008  -0.000395 0.000880 -0.663191
8  0.729354 0.000053 0.000049  -0.000172 0.000021 -0.220360
9  3.942141 0.046273 -0.431512  -0.413547 0.112709 -1.516154
10  1.539111 0.000082 0.000007  -0.001056 0.003239 -0.572825
11  1.196334 0.000146 0.000029  -0.000216 0.000008 -0.647849
12  3.883504 -0.047269 0.431382  -0.386032 0.372160 -1.001174
13  1.719572 -0.000028 0.000014  0.029635 0.017714 -0.994916
14  1.209178 0.000092 0.000014  -0.001849 0.000829 -0.701988
15  3.859663 -0.138475 1.332411  -0.061682 0.488092 -0.444155
16  1.719450 -0.000012 0.000022  -0.017508 -0.024177 -0.574397
17  1.099675 0.000049 0.000005  0.000693 0.002640 -1.571702
18  0.945844 -0.861836 1.304576  -1.769690 -0.354327 -0.275173
19  1.789820 -0.000003 -0.000018  0.008665 0.005630 -0.065006
20  1.207018 -0.000012 -0.000042  0.000321 -0.000553 0.304742
21  5.740638 0.000411 -0.000703  -0.126540 0.000003 0.000071
22  11.481048 0.000352 -0.000736  -0.040669 -0.173060 0.023650
23  6.027523 -0.000330 0.000203  1.544197 -0.225763 1.721450
24  0.000000 11.692099 -0.000008  -0.847345 -0.319503 -0.686192
25  0.000003 0.000009 -0.000001  -0.602294 -0.000031 1.570739
26  -0.000002 -0.000011 -0.000001  0.868957 0.000002 1.570712
27  -5.843360 -7.961716 2.089273  1.473120 1.855075 -0.198639
28  6.027507 -0.000261 -0.000230  1.650651 0.567642 -0.467635
29  11.691992 0.000243 0.000855  0.141450 0.000080 -1.964639
30  11.478235 -0.001485 0.001043  -0.948073 0.074510 0.813331
31  3.859435 -0.132787 1.193061  0.419753 0.064213 -1.630733
32  1.312559 0.000024 -0.000001  0.018649 -0.111950 -0.566450
33  0.729345 0.000066 -0.000027  -0.136092 -0.130379 -0.745071
34  3.942046 0.050109 0.430997  0.227728 0.017433 -1.395883
35  1.539096 0.000006 -0.000000  0.033374 -0.057010 -0.978694
36  1.196298 0.000077 -0.000004  -0.008681 -0.024216 -0.882959
37  3.883411 -0.050502 -0.431088  0.220900 -0.070369 -1.119647
38  1.719563 -0.000080 -0.000004  0.013025 -0.077950 -1.452999
39  1.209197 0.000035 0.000010  0.008192 -0.000795 -0.494142
40  3.859585 -0.149112 -1.331323  -0.144133 0.068146 -0.137838
41  1.719411 -0.000098 -0.000034  -0.015109 -0.000174 -1.071001
42  1.099674 0.000024 0.000006  -0.004386 -0.008133 -0.862854
43  0.805978 -0.359853 -1.318338  0.974252 0.268925 -0.894612
44  1.789779 -0.000008 -0.000042  0.001484 -0.011936 0.235362
45  1.206997 -0.000005 0.000005  0.001538 -0.000068 1.118076
46  5.740572 0.000056 0.000723  0.200271 -0.000014 0.000021
47  11.480592 -0.000261 0.000958  0.119572 0.038129 0.138766
48  6.027514 -0.000274 -0.000237  -0.665271 -0.513600 -1.670592
49  -0.000002 11.691975 -0.000007  -1.303651 0.750820 0.953427
50  0.000002 -0.000001 0.000000  2.413975 -0.000041 1.570856
51  -0.000007 -0.000015 0.000005  2.272644 -0.000030 1.570865
52  -4.259862 -3.991712 -6.672972  3.071674 -0.058398 -1.467693
53  0.000000 0.000000 0.000000  0.008153 -0.000259 0.000009
54  -0.000000 0.000000 -0.000000  1.565115 0.043565 -0.106862
55  -0.479912 -17.085146 -5.755654  -0.941042 0.153724 -1.905867
56  0.000001 0.000000 0.000000  0.000000 -0.000000 -0.000002
57  0.000031 0.000029 0.000001  -1.571902 -0.044449 -0.106509
58  8.426761 -19.544212 -16.568478  1.570796 -0.000000 0.000000
59  -15.417985 2.938832 -17.970421  1.570796 -0.000000 0.000000
60  1.941978 -0.304065 -8.327020  1.570796 -0.000000 0.000000
61  -0.004311 0.001229 -0.000371  0.006898 -0.005534 -0.284229
62  2.089273 8.874444 -4.333363  1.570796 -0.000000 0.000000
63  0.000000 0.000000 0.000000  -0.078727 -3.136056 0.284226
64  1.000000 0.000000 -0.750000  1.570796 -0.005044 -0.000000
65  -2.333903 -10.481737 -1.988264  1.572722 0.010595 0.000010
66  0.000001 -2.923558 -1.408043  -0.000000 -0.000000 -0.000000
67  -0.000002 -0.601198 -2.062165  -0.000000 -0.000000 -0.000000
68  0.004381 -0.039406 6.613115  -0.000000 -0.000000 -0.000000
69  0.000970 -0.021792 0.054851  -0.000000 -0.000000 -0.000000
70  0.000001 -3.304881 0.259168  -0.000000 -0.000000 -0.000000
71  -2.347303 -15.216438 -3.257468  1.572722 0.010595 0.000010
72  0.057100 0.204433 -2.709598  0.000000 -0.000000 -0.000000
73  0.111673 -0.283002 -2.709598  0.000000 -0.000000 -0.000000
74  -0.128217 -0.750370 -2.709597  0.000000 0.000000 -0.000000
time 9
0  0 0 0  0 0 0
1  0.000006 0.000000 0.000000  -1.570800 -1.391899 -1.570792
2  -8.138873 1.780375 1.937664  -1.544956 -1.855077 -0.198630
3  6.027523 -0.000328 0.000192  -0.588724 -1.344475 -1.540117
4  11.692110 0.000643 -0.000739  -1.471379 -0.000006 -1.200779
5  11.480201 0.000697 -0.000387  1.133037 -0.924339 0.402383
6  3.571341 -0.073053 -1.193381  -0.630908 0.056337 -1.699771
7  1.312590 0.000012 0.000009  -0.000395 0.000880 -0.663191
8  0.729355 0.000054 0.000051  -0.000172 0.000021 -0.220360
9  3.942146 0.046273 -0.431512  -0.413547 0.112709 -1.516154
10  1.539111 0.000085 0.000005  -0.001056 0.003239 -0.572825
11  1.196333 0.000146 0.000029  -0.000216 0.000008 -0.647849
12  3.883506 -0.047270 0.431381  -0.386032 0.372160 -1.001174
13  1.719573 -0.000028 0.000014  0.029635 0.017714 -0.994916
14  1.209178 0.000092 0.000012  -0.001849 0.000829 -0.701988
15  3.859663 -0.138476 1.332410  -0.061682 0.488092 -0.444155
16  1.719448 -0.000011 0.000022  -0.017508 -0.024177 -0.574397
17  1.099675 0.000047 0.000005  0.000693 0.002640 -1.571702
18  0.945846 -0.861836 1.304575  -1.769690 -0.354327 -0.275173
19  1.789819 -0.000003 -0.000017  0.008665 0.005630 -0.065006
20  1.207018 -0.000012 -0.000044  0.000321 -0.000553 0.304742
21  5.740637 0.000410 -0.000700  -0.125350 0.000003 0.000070
22  11.481046 0.000351 -0.000734  -0.039077 -0.173389 0.024555
23  6.027523 -0.000330 0.000203  1.544813 -0.224935 1.717529
24  0.000001 11.692099 -0.000007  -0.848274 -0.320226 -0.686864
25  0.000004 0.000008 -0.000002  -0.602294 -0.000030 1.570739
26  -0.000002 -0.000011 -0.000001  0.868957 0.000002 1.570712
27  -5.843360 -7.961716 2.089273  1.473120 1.855075 -0.198639
28  6.027507 -0.000261 -0.000230  1.648273 0.568433 -0.468070
29  11.691992 0.000242 0.000855  0.141450 0.000080 -1.965698
30  11.478224 -0.001492 0.001044  -0.942422 0.079137 0.812539
31  3.859436 -0.132787 1.193061  0.419753 0.064213 -1.630733
32  1.312558 0.000023 -0.000000  0.018649 -0.111950 -0.566450
33  0.729344 0.000067 -0.000028  -0.136092 -0.130379 -0.745071
34  3.942045 0.050109 0.430996  0.227728 0.017433 -1.395883
35  1.539096 0.000006 0.000000  0.033374 -0.057010 -0.978694
36  1.196299 0.000076 -0.000004  -0.008681 -0.024216 -0.882959
37  3.883411 -0.050502 -0.431087  0.220900 -0.070369 -1.119647
38  1.719563 -0.000081 -0.000003  0.013025 -0.077950 -1.452999
39  1.209198 0.000035 0.000011  0.008192 -0.000795 -0.494142
40  3.859585 -0.149111 -1.331323  -0.144133 0.068146 -0.137838
41  1.719412 -0.000098 -0.000034  -0.015109 -0.000174 -1.071001
42  1.099674 0.000024 0.000007  -0.004386 -0.008133 -0.862854
43  0.805979 -0.359853 -1.318338  0.974252 0.268925 -0.894612
44  1.789779 -0.000008 -0.000043  0.001484 -0.011936 0.235362
45  1.206997 -0.000005 0.000005  0.001538 -0.000068 1.118076
46  5.740572 0.000055 0.000724  0.201206 -0.000014 0.000021
47  11.480589 -0.000263 0.000958  0.120283 0.039361 0.138228
48  6.027514 -0.000274 -0.000237  -0.666948 -0.515184 -1.668923
49  -0.000003 11.691975 -0.000008  -1.304292 0.751480 0.953674
50  0.000003 -0.000000 -0.000001  2.413975 -0.000041 1.570856
51  -0.000008 -0.000016 0.000004  2.272644 -0.000030 1.570865
52  -4.229560 -3.982468 -6.678941  3.076870 -0.061716 -1.467996
53  -0.000000 0.000000 0.000000  0.008153 -0.000259 0.000009
54  0.000000 0.000000 -0.000001  1.565115 0.043565 -0.106862
55  -0.454689 -17.073254 -5.704625  -0.934866 0.152916 -1.904914
56  -0.000001 0.000001 0.000001  0.000000 -0.000000 -0.000002
57  0.000030 0.000030 0.000001  -1.571901 -0.044449 -0.106509
58  8.426761 -19.544212 -16.568478  1.570796 -0.000000 0.000000
59  -15.417985 2.938832 -17.970421  1.570796 -0.000000 0.000000
60  1.941978 -0.304065 -8.327020  1.570796 -0.000000 0.000000
61  -0.004311 0.001229 -0.000371  0.006898 -0.005534 -0.284229
62  2.089273 8.874444 -4.333363  1.570796 -0.000000 0.000000
63  0.000000 0.000000 0.000000  -0.078727 -3.136056 0.284226
64  1.000000 0.000000 -0.750000  1.570796 -0.004086 -0.000000
65  -2.329384 -10.459475 -1.965774  1.569955 0.005095 -0.000002
66  0.000002 -2.923557 -1.408041  -0.000000 -0.000000 0.000000
67  -0.000002 -0.601197 -2.062164  -0.000000 -0.000000 0.000000
68  0.004380 -0.039406 6.613115  -0.000000 -0.000000 0.000000
69  0.000970 -0.021792 0.054851  -0.000000 -0.000000 -0.000000
70  0.000002 -3.304880 0.259168  -0.000000 -0.000000 0.000000
71  -2.335795 -15.197670 -3.221927  1.569955 0.005095 -0.000002
72  0.057100 0.204433 -2.709596  0.000000 -0.000000 0.000000
73  0.111673 -0.283001 -2.709595  0.000000 -0.000000 0.000000
74  -0.128218 -0.750370 -2.709596  0.000000 0.000000 0.000000
time 10
0  0 0 0  0 0 0
1  0.000006 0.000000 0.000000  -1.570800 -1.391899 -1.570792
2  -8.138873 1.780375 1.937664  -1.544956 -1.855077 -0.198630
3  6.027523 -0.000328 0.000192  -0.591072 -1.344654 -1.539412
4  11.692112 0.000643 -0.000739  -1.471379 -0.000006 -1.202409
5  11.480192 0.000697 -0.000396  1.134151 -0.926541 0.405483
6  3.571340 -0.073053 -1.193381  -0.630908 0.056337 -1.699771
7  1.312590 0.000011 0.000008  -0.000395 0.000880 -0.663191
8  0.729355 0.000053 0.000050  -0.000172 0.000021 -0.220360
9  3.942142 0.046273 -0.431512  -0.413547 0.112709 -1.516154
10  1.539112 0.000084 0.000005  -0.001056 0.003240 -0.572825
11  1.196331 0.000147 0.000028  -0.000216 0.000008 -0.647849
12  3.883503 -0.047269 0.431381  -0.386032 0.372160 -1.001174
13  1.719574 -0.000026 0.000016  0.029635 0.017714 -0.994916
14  1.209178 0.000093 0.000013  -0.001849 0.000829 -0.701987
15  3.859661 -0.138475 1.332409  -0.061682 0.488092 -0.444155
16  1.719450 -0.000011 0.000021  -0.017509 -0.024177 -0.574397
17  1.099675 0.000049 0.000006  0.000693 0.002640 -1.571702
18  0.945843 -0.861836 1.304576  -1.769690 -0.354327 -0.275173
19  1.789820 -0.000003 -0.000019  0.008665 0.005630 -0.065006
20  1.207017 -0.000012 -0.000044  0.000321 -0.000553 0.304742
21  5.740637 0.000411 -0.000701  -0.125145 0.000003 0.000070
22  11.481043 0.000351 -0.000735  -0.038531 -0.173835 0.025100
23  6.027523 -0.000330 0.000203  1.545371 -0.224817 1.715822
24  0.000003 11.692099 -0.000008  -0.849288 -0.321016 -0.687597
25  0.000003 0.000009 -0.000001  -0.602294 -0.000031 1.570739
26  0.000000 -0.000012 -0.000001  0.868957 0.000002 1.570712
27  -5.843360 -7.961716 2.089273  1.473120 1.855075 -0.198639
28  6.027507 -0.000261 -0.000230  1.648212 0.569323 -0.468011
29  11.691991 0.000243 0.000855  0.141450 0.000081 -1.967053
30  11.478209 -0.001496 0.001045  -0.939697 0.079671 0.814737
31  3.859435 -0.132788 1.193061  0.419753 0.064213 -1.630733
32  1.312558 0.000025 -0.000000  0.018650 -0.111950 -0.566450
33  0.729346 0.000066 -0.000027  -0.136092 -0.130379 -0.745071
34  3.942045 0.050108 0.430997  0.227728 0.017433 -1.395883
35  1.539096 0.000005 0.000000  0.033374 -0.057010 -0.978694
36  1.196298 0.000077 -0.000004  -0.008681 -0.024216 -0.882959
37  3.883411 -0.050503 -0.431087  0.220900 -0.070369 -1.119647
38  1.719563 -0.000082 -0.000004  0.013025 -0.077950 -1.452999
39  1.209196 0.000036 0.000012  0.008192 -0.000795 -0.494142
40  3.859585 -0.149112 -1.331323  -0.144133 0.068146 -0.137838
41  1.719411 -0.000097 -0.000034  -0.015109 -0.000174 -1.071001
42  1.099673 0.000024 0.000007  -0.004386 -0.008133 -0.862854
43  0.805978 -0.359854 -1.318338  0.974252 0.268925 -0.894612
44  1.789779 -0.000007 -0.000042  0.001484 -0.011936 0.235362
45  1.206997 -0.000005 0.000006  0.001538 -0.000068 1.118076
46  5.740570 0.000057 0.000723  0.202226 -0.000014 0.000021
47  11.480584 -0.000262 0.000958  0.120735 0.039772 0.138562
48  6.027514 -0.000274 -0.000237  -0.667922 -0.514910 -1.668351
49  -0.000002 11.691974 -0.000007  -1.305112 0.752324 0.953989
50  0.000002 -0.000001 0.000000  2.413975 -0.000041 1.570856
51  -0.000007 -0.000016 0.000005  2.272644 -0.000030 1.570865
52  -4.214304 -3.970699 -6.664943  3.079357 -0.061884 -1.468148
53  -0.000000 -0.000000 0.000000  0.008153 -0.000259 0.000009
54  0.000000 -0.000001 -0.000000  1.565115 0.043565 -0.106862
55  -0.441855 -17.061563 -5.682388  -0.932518 0.153814 -1.904555
56  -0.000001 0.000000 0.000000  0.000000 -0.000000 -0.000002
57  0.000029 0.000030 0.000001  -1.571901 -0.044449 -0.106509
58  8.426761 -19.544212 -16.568478  1.570796 -0.000000 0.000000
59  -15.417985 2.938832 -17.970421  1.570796 -0.000000 0.000000
60  1.941978 -0.304065 -8.327020  1.570796 -0.000000 0.000000
61  -0.004311 0.001229 -0.000371  0.006898 -0.005534 -0.284229
62  2.089273 8.874444 -4.333363  1.570796 -0.000000 0.000000
63  0.000000 0.000000 0.000000  -0.078727 -3.136056 0.284226
64  1.000000 0.000000 -0.750000  1.570796 -0.002989 -0.000000
65  -2.325848 -10.448116 -1.947631  1.570043 0.002609 -0.000001
66  0.000001 -2.923558 -1.408041  0.000000 -0.000000 -0.000000
67  -0.000002 -0.601198 -2.062165  0.000000 -0.000000 -0.000000
68  0.004380 -0.039406 6.613115  0.000000 -0.000000 -0.000000
69  0.000970 -0.021792 0.054850  0.000000 -0.000000 -0.000000
70  0.000001 -3.304881 0.259169  0.000000 -0.000000 -0.000000
71  -2.329132 -15.186201 -3.204211  1.570043 0.002609 -0.000001
72  0.057100 0.204433 -2.709596  0.000000 -0.000000 -0.000000
73  0.111673 -0.283001 -2.709597  0.000000 -0.000000 -0.000000
74  -0.128218 -0.750370 -2.709597  0.000000 0.000000 -0.000000
time 11
0  0 0 0  0 0 0
1  0.000006 0.000000 0.000000  -1.570800 -1.391899 -1.570792
2  -8.138873 1.780375 1.937664  -1.544956 -1.855077 -0.198630
3  6.027523 -0.000328 0.000192  -0.593143 -1.344603 -1.538134
4  11.692111 0.000641 -0.000740  -1.471379 -0.000006 -1.203620
5  11.480185 0.000695 -0.000398  1.134534 -0.927916 0.407457
6  3.571337 -0.073052 -1.193381  -0.630908 0.056337 -1.699771
7  1.312591 0.000013 0.000006  -0.000395 0.000880 -0.663191
8  0.729354 0.000054 0.000048  -0.000172 0.000021 -0.220360
9  3.942140 0.046273 -0.431512  -0.413547 0.112709 -1.516154
10  1.539111 0.000085 0.000006  -0.001056 0.003239 -0.572825
11  1.196334 0.000146 0.000032  -0.000216 0.000008 -0.647849
12  3.883504 -0.047269 0.431381  -0.386032 0.372160 -1.001174
13  1.719573 -0.000027 0.000012  0.029635 0.017714 -0.994916
14  1.209180 0.000092 0.000011  -0.001849 0.000829 -0.701987
15  3.859662 -0.138476 1.332410  -0.061682 0.488092 -0.444155
16  1.719449 -0.000013 0.000024  -0.017509 -0.024177 -0.574397
17  1.099674 0.000048 0.000005  0.000693 0.002640 -1.571701
18  0.945843 -0.861835 1.304575  -1.769690 -0.354327 -0.275173
19  1.789818 -0.000003 -0.000017  0.008665 0.005630 -0.065006
20  1.207017 -0.000012 -0.000043  0.000321 -0.000553 0.304742
21  5.740636 0.000409 -0.000704  -0.125054 0.000003 0.000071
22  11.481041 0.000350 -0.000739  -0.038239 -0.174122 0.025419
23  6.027523 -0.000330 0.000203  1.545838 -0.224919 1.714977
24  0.000002 11.692099 -0.000007  -0.850041 -0.321603 -0.688141
25  0.000005 0.000009 -0.000000  -0.602294 -0.000030 1.570739
26  -0.000000 -0.000011 -0.000001  0.868957 0.000002 1.570712
27  -5.843360 -7.961716 2.089273  1.473120 1.855075 -0.198639
28  6.027507 -0.000261 -0.000230  1.648037 0.569749 -0.468013
29  11.691993 0.000243 0.000854  0.141450 0.000081 -1.967941
30  11.478205 -0.001500 0.001045  -0.937997 0.080009 0.816131
31  3.859437 -0.132787 1.193061  0.419753 0.064213 -1.630733
32  1.312558 0.000026 0.000001  0.018650 -0.111950 -0.566450
33  0.729345 0.000067 -0.000028  -0.136092 -0.130379 -0.745071
34  3.942047 0.050110 0.430997  0.227728 0.017433 -1.395883
35  1.539096 0.000004 0.000000  0.033374 -0.057010 -0.978694
36  1.196300 0.000076 -0.000004  -0.008681 -0.024216 -0.882959
37  3.883412 -0.050501 -0.431087  0.220900 -0.070369 -1.119647
38  1.719563 -0.000081 -0.000004  0.013025 -0.077950 -1.452999
39  1.209197 0.000035 0.000011  0.008192 -0.000795 -0.494142
40  3.859585 -0.149111 -1.331324  -0.144133 0.068146 -0.137838
41  1.719412 -0.000098 -0.000035  -0.015109 -0.000174 -1.071001
42  1.099674 0.000025 0.000008  -0.004386 -0.008133 -0.862854
43  0.805979 -0.359853 -1.318338  0.974252 0.268925 -0.894612
44  1.789779 -0.000008 -0.000043  0.001484 -0.011936 0.235362
45  1.206996 -0.000005 0.000005  0.001538 -0.000068 1.118076
46  5.740571 0.000056 0.000724  0.202838 -0.000014 0.000021
47  11.480585 -0.000263 0.000959  0.121016 0.040031 0.138773
48  6.027514 -0.000274 -0.000237  -0.668440 -0.514893 -1.668004
49  -0.000003 11.691977 -0.000007  -1.305649 0.752877 0.954195
50  0.000003 -0.000002 0.000000  2.413975 -0.000041 1.570856
51  -0.000008 -0.000015 0.000005  2.272644 -0.000030 1.570865
52  -4.204777 -3.962825 -6.658191  3.080882 -0.061831 -1.468242
53  0.000000 -0.000000 0.000000  0.008153 -0.000259 0.000009
54  0.000000 0.000000 0.000000  1.565115 0.043565 -0.106862
55  -0.433808 -17.053896 -5.672678  -0.931145 0.154505 -1.904344
56  -0.000002 0.000000 0.000000  0.000000 -0.000000 -0.000002
57  0.000028 0.000029 0.000001  -1.571901 -0.044449 -0.106509
58  8.426761 -19.544212 -16.568478  1.570796 -0.000000 0.000000
59  -15.417985 2.938832 -17.970421  1.570796 -0.000000 0.000000
60  1.941978 -0.304065 -8.327020  1.570796 -0.000000 0.000000
61  -0.004311 0.001229 -0.000371  0.006898 -0.005534 -0.284229
62  2.089273 8.874444 -4.333363  1.570796 -0.000000 0.000000
63  0.000000 0.000000 0.000000  -0.078727 -3.136056 0.284226
64  1.000000 0.000000 -0.750000  1.570796 -0.001891 -0.000000
65  -2.323434 -10.441227 -1.939388  1.570251 0.001100 -0.000000
66  0.000002 -2.923558 -1.408043  0.000000 -0.000000 -0.000000
67  -0.000003 -0.601197 -2.062166  0.000000 -0.000000 -0.000000
68  0.004380 -0.039406 6.613115  0.000000 -0.000000 -0.000000
69  0.000970 -0.021792 0.054849  0.000000 -0.000000 -0.000000
70  0.000002 -3.304881 0.259168  0.000000 -0.000000 -0.000000
71  -2.324821 -15.179049 -3.196959  1.570251 0.001100 -0.000000
72  0.057100 0.204433 -2.709599  0.000000 -0.000000 -0.000000
73  0.111673 -0.283002 -2.709598  0.000000 -0.000000 -0.000000
74  -0.128217 -0.750370 -2.709598  0.000000 0.000000 -0.000000
time 12
0  0 0 0  0 0 0
1  0.000006 0.000000 0.000000  -1.570800 -1.391899 -1.570792
2  -8.138873 1.780375 1.937664  -1.544956 -1.855077 -0.198630
3  6.027523 -0.000328 0.000192  -0.594469 -1.344523 -1.537167
4  11.692112 0.000642 -0.000740  -1.471379 -0.000006 -1.204359
5  11.480185 0.000695 -0.000400  1.134483 -0.928707 0.408668
6  3.571338 -0.073053 -1.193382  -0.630908 0.056337 -1.699771
7  1.312590 0.000011 0.000008  -0.000395 0.000880 -0.663191
8  0.729354 0.000055 0.000050  -0.000172 0.000021 -0.220360
9  3.942143 0.046273 -0.431512  -0.413547 0.112709 -1.516154
10  1.539110 0.000084 0.000005  -0.001056 0.003239 -0.572825
11  1.196333 0.000145 0.000030  -0.000216 0.000008 -0.647849
12  3.883505 -0.047269 0.431381  -0.386032 0.372160 -1.001174
13  1.719573 -0.000030 0.000014  0.029635 0.017714 -0.994916
14  1.209177 0.000092 0.000014  -0.001849 0.000829 -0.701988
15  3.859663 -0.138475 1.332410  -0.061682 0.488092 -0.444155
16  1.719447 -0.000012 0.000021  -0.017508 -0.024177 -0.574397
17  1.099674 0.000048 0.000005  0.000693 0.002640 -1.571702
18  0.945846 -0.861836 1.304576  -1.769690 -0.354327 -0.275173
19  1.789818 -0.000003 -0.000019  0.008665 0.005630 -0.065006
20  1.207015 -0.000012 -0.000043  0.000321 -0.000553 0.304742
21  5.740637 0.000411 -0.000703  -0.125039 0.000003 0.000070
22  11.481043 0.000351 -0.000738  -0.038112 -0.174295 0.025591
23  6.027523 -0.000330 0.000203  1.546132 -0.225032 1.714586
24  -0.000000 11.692098 -0.000007  -0.850501 -0.321962 -0.688473
25  0.000001 0.000010 -0.000001  -0.602294 -0.000031 1.570739
26  -0.000002 -0.000012 -0.000001  0.868957 0.000002 1.570712
27  -5.843360 -7.961716 2.089273  1.473120 1.855075 -0.198639
28  6.027507 -0.000261 -0.000230  1.647992 0.569993 -0.468003
29  11.691994 0.000242 0.000855  0.141450 0.000081 -1.968471
30  11.478200 -0.001504 0.001044  -0.937099 0.080065 0.817060
31  3.859436 -0.132787 1.193061  0.419753 0.064213 -1.630733
32  1.312558 0.000024 0.000000  0.018649 -0.111950 -0.566450
33  0.729345 0.000066 -0.000027  -0.136092 -0.130379 -0.745071
34  3.942046 0.050109 0.430996  0.227728 0.017433 -1.395883
35  1.539096 0.000005 -0.000000  0.033374 -0.057010 -0.978694
36  1.196299 0.000076 -0.000003  -0.008681 -0.024216 -0.882959
37  3.883411 -0.050502 -0.431087  0.220900 -0.070369 -1.119647
38  1.719563 -0.000083 -0.000004  0.013025 -0.077950 -1.452999
39  1.209197 0.000035 0.000011  0.008192 -0.000795 -0.494142
40  3.859585 -0.149111 -1.331323  -0.144133 0.068146 -0.137838
41  1.719411 -0.000097 -0.000034  -0.015109 -0.000174 -1.071001
42  1.099674 0.000024 0.000006  -0.004386 -0.008133 -0.862854
43  0.805979 -0.359853 -1.318338  0.974252 0.268925 -0.894612
44  1.789780 -0.000008 -0.000043  0.001484 -0.011936 0.235362
45  1.206996 -0.000006 0.000005  0.001538 -0.000068 1.118076
46  5.740572 0.000056 0.000722  0.203196 -0.000014 0.000021
47  11.480585 -0.000264 0.000958  0.121172 0.040154 0.138929
48  6.027514 -0.000274 -0.000237  -0.668717 -0.514840 -1.667833
49  -0.000001 11.691974 -0.000007  -1.305970 0.753208 0.954318
50  0.000003 -0.000001 0.000001  2.413975 -0.000041 1.570856
51  -0.000007 -0.000015 0.000005  2.272644 -0.000030 1.570865
52  -4.199639 -3.958114 -6.653800  3.081679 -0.061662 -1.468291
53  -0.000000 -0.000001 -0.000000  0.008153 -0.000259 0.000009
54  -0.000000 0.000000 -0.000000  1.565115 0.043565 -0.106862
55  -0.429432 -17.049429 -5.668626  -0.930487 0.154994 -1.904242
56  0.000002 0.000000 -0.000000  0.000000 -0.000000 -0.000002
57  0.000032 0.000030 0.000001  -1.571901 -0.044449 -0.106509
58  8.426761 -19.544212 -16.568478  1.570796 -0.000000 0.000000
59  -15.417985 2.938832 -17.970421  1.570796 -0.000000 0.000000
60  1.941978 -0.304065 -8.327020  1.570796 -0.000000 0.000000
61  -0.004311 0.001229 -0.000371  0.006898 -0.005534 -0.284229
62  2.089273 8.874444 -4.333363  1.570796 -0.000000 0.000000
63  0.000000 0.000000 0.000000  -0.078727 -3.136056 0.284226
64  1.000000 0.000000 -0.750000  1.570796 -0.000934 -0.000000
65  -2.321950 -10.437689 -1.935155  1.570500 0.000326 -0.000000
66  0.000002 -2.923558 -1.408043  0.000000 -0.000000 -0.000000
67  -0.000002 -0.601197 -2.062165  0.000000 -0.000000 -0.000000
68  0.004381 -0.039407 6.613114  0.000000 -0.000000 -0.000000
69  0.000970 -0.021792 0.054851  0.000000 -0.000000 -0.000000
70  0.000002 -3.304881 0.259168  0.000000 -0.000000 -0.000000
71  -2.322362 -15.175198 -3.193906  1.570500 0.000326 -0.000000
72  0.057100 0.204433 -2.709596  0.000000 -0.000000 -0.000000
73  0.111673 -0.283001 -2.709596  0.000000 -0.000000 -0.000000
74  -0.128217 -0.750370 -2.709596  0.000000 0.000000 -0.000000
time 13
0  0 0 0  0 0 0
1  0.000006 0.000000 0.000000  -1.570800 -1.391899 -1.570792
2  -8.138873 1.780375 1.937664  -1.544956 -1.855077 -0.198630
3  6.027523 -0.000328 0.000192  -0.595175 -1.344448 -1.536553
4  11.692110 0.000642 -0.000740  -1.471379 -0.000006 -1.204729
5  11.480179 0.000696 -0.000399  1.134262 -0.929067 0.409276
6  3.571337 -0.073054 -1.193381  -0.630908 0.056336 -1.699771
7  1.312590 0.000014 0.000008  -0.000395 0.000880 -0.663191
8  0.729355 0.000053 0.000048  -0.000172 0.000021 -0.220360
9  3.942142 0.046272 -0.431512  -0.413547 0.112709 -1.516154
10  1.539111 0.000083 0.000006  -0.001056 0.003239 -0.572825
11  1.196333 0.000147 0.000032  -0.000216 0.000008 -0.647849
12  3.883505 -0.047269 0.431382  -0.386032 0.372160 -1.001174
13  1.719573 -0.000028 0.000017  0.029635 0.017714 -0.994916
14  1.209178 0.000090 0.000013  -0.001849 0.000829 -0.701987
15  3.859663 -0.138476 1.332410  -0.061682 0.488092 -0.444155
16  1.719448 -0.000012 0.000023  -0.017509 -0.024177 -0.574397
17  1.099674 0.000049 0.000006  0.000693 0.002640 -1.571702
18  0.945842 -0.861837 1.304575  -1.769690 -0.354327 -0.275173
19  1.789820 -0.000004 -0.000018  0.008665 0.005630 -0.065006
20  1.207017 -0.000012 -0.000044  0.000321 -0.000553 0.304742
21  5.740636 0.000411 -0.000702  -0.125059 0.000003 0.000071
22  11.481040 0.000351 -0.000736  -0.038083 -0.174380 0.025662
23  6.027523 -0.000330 0.000203  1.546285 -0.225124 1.714477
24  0.000003 11.692098 -0.000008  -0.850731 -0.322141 -0.688639
25  0.000001 0.000009 -0.000001  -0.602294 -0.000031 1.570739
26  -0.000000 -0.000012 -0.000001  0.868957 0.000002 1.570712
27  -5.843360 -7.961716 2.089273  1.473120 1.855075 -0.198639
28  6.027507 -0.000261 -0.000230  1.648012 0.570103 -0.467990
29  11.691990 0.000241 0.000856  0.141450 0.000081 -1.968729
30  11.478197 -0.001503 0.001044  -0.936747 0.079989 0.817579
31  3.859435 -0.132788 1.193061  0.419753 0.064213 -1.630733
32  1.312558 0.000025 -0.000001  0.018649 -0.111950 -0.566450
33  0.729345 0.000067 -0.000027  -0.136092 -0.130379 -0.745071
34  3.942046 0.050109 0.430996  0.227728 0.017433 -1.395883
35  1.539096 0.000005 -0.000001  0.033374 -0.057010 -0.978694
36  1.196299 0.000076 -0.000004  -0.008681 -0.024216 -0.882959
37  3.883411 -0.050501 -0.431087  0.220900 -0.070369 -1.119647
38  1.719563 -0.000083 -0.000004  0.013025 -0.077950 -1.452999
39  1.209196 0.000035 0.000010  0.008192 -0.000795 -0.494142
40  3.859585 -0.149112 -1.331323  -0.144133 0.068146 -0.137838
41  1.719411 -0.000097 -0.000035  -0.015109 -0.000174 -1.071001
42  1.099673 0.000025 0.000008  -0.004386 -0.008133 -0.862854
43  0.805978 -0.359853 -1.318339  0.974252 0.268925 -0.894612
44  1.789779 -0.000008 -0.000043  0.001484 -0.011936 0.235362
45  1.206997 -0.000005 0.000006  0.001538 -0.000068 1.118076
46  5.740570 0.000055 0.000723  0.203366 -0.000014 0.000021
47  11.480583 -0.000265 0.000958  0.121239 0.040193 0.139025
48  6.027514 -0.000274 -0.000237  -0.668828 -0.514784 -1.667776
49  -0.000000 11.691975 -0.000007  -1.306126 0.753368 0.954377
50  0.000002 -0.000002 0.000001  2.413975 -0.000041 1.570856
51  -0.000006 -0.000015 0.000005  2.272644 -0.000030 1.570865
52  -4.197544 -3.955825 -6.651426  3.081985 -0.061484 -1.468310
53  0.000000 -0.000001 -0.000000  0.008153 -0.000259 0.000009
54  -0.000000 0.000000 0.000000  1.565115 0.043565 -0.106862
55  -0.427618 -17.047348 -5.667905  -0.930283 0.155284 -1.904211
56  0.000001 0.000000 -0.000000  0.000000 -0.000000 -0.000002
57  0.000030 0.000029 0.000001  -1.571901 -0.044449 -0.106509
58  8.426761 -19.544212 -16.568478  1.570796 -0.000000 0.000000
59  -15.417985 2.938832 -17.970421  1.570796 -0.000000 0.000000
60  1.941978 -0.304065 -8.327020  1.570796 -0.000000 0.000000
61  -0.004311 0.001229 -0.000371  0.006898 -0.005534 -0.284229
62  2.089273 8.874444 -4.333363  1.570796 -0.000000 0.000000
63  0.000000 0.000000 0.000000  -0.078727 -3.136056 0.284226
64  1.000000 0.000000 -0.750000  1.570796 -0.000257 -0.000000
65  -2.321201 -10.436385 -1.933596  1.570709 0.000041 -0.000000
66  0.000001 -2.923558 -1.408042  0.000000 -0.000000 -0.000000
67  -0.000003 -0.601197 -2.062165  0.000000 -0.000000 -0.000000
68  0.004380 -0.039406 6.613115  0.000000 -0.000000 -0.000000
69  0.000970 -0.021792 0.054850  0.000000 -0.000000 -0.000000
70  0.000002 -3.304881 0.259168  0.000000 -0.000000 -0.000000
71  -2.321254 -15.173632 -3.193335  1.570709 0.000041 -0.000000
72  0.057100 0.204433 -2.709597  0.000000 -0.000000 -0.000000
73  0.111673 -0.283001 -2.709596  0.000000 -0.000000 -0.000000
74  -0.128217 -0.750370 -2.709596  0.000000 0.000000 -0.000000
time 14
0  0 0 0  0 0 0
1  0.000006 0.000000 0.000000  -1.570800 -1.391899 -1.570792
2  -8.138873 1.780375 1.937664  -1.544956 -1.855077 -0.198630
3  6.027523 -0.000328 0.000192  -0.595384 -1.344415 -1.536338
4  11.692111 0.000644 -0.000739  -1.471379 -0.000006 -1.204830
5  11.480181 0.000696 -0.000399  1.134132 -0.929153 0.409442
6  3.571338 -0.073053 -1.193382  -0.630908 0.056337 -1.699771
7  1.312590 0.000013 0.000007  -0.000395 0.000880 -0.663191
8  0.729354 0.000053 0.000050  -0.000172 0.000021 -0.220360
9  3.942143 0.046273 -0.431512  -0.413547 0.112709 -1.516154
10  1.539111 0.000085 0.000006  -0.001056 0.003239 -0.572825
11  1.196333 0.000147 0.000029  -0.000216 0.000008 -0.647849
12  3.883504 -0.047269 0.431381  -0.386032 0.372160 -1.001174
13  1.719574 -0.000029 0.000016  0.029634 0.017714 -0.994916
14  1.209180 0.000094 0.000013  -0.001849 0.000829 -0.701988
15  3.859663 -0.138475 1.332410  -0.061682 0.488092 -0.444155
16  1.719449 -0.000013 0.000022  -0.017508 -0.024177 -0.574397
17  1.099675 0.000048 0.000007  0.000693 0.002640 -1.571702
18  0.945844 -0.861836 1.304575  -1.769690 -0.354327 -0.275173
19  1.789821 -0.000004 -0.000017  0.008665 0.005630 -0.065006
20  1.207017 -0.000012 -0.000042  0.000321 -0.000553 0.304742
21  5.740637 0.000411 -0.000701  -0.125075 0.000003 0.000070
22  11.481043 0.000351 -0.000735  -0.038088 -0.174403 0.025676
23  6.027523 -0.000330 0.000203  1.546329 -0.225161 1.714479
24  0.000001 11.692099 -0.000008  -0.850794 -0.322190 -0.688684
25  0.000004 0.000008 -0.000001  -0.602294 -0.000030 1.570739
26  -0.000001 -0.000011 -0.000001  0.868957 0.000002 1.570712
27  -5.843360 -7.961716 2.089273  1.473120 1.855075 -0.198639
28  6.027507 -0.000261 -0.000230  1.648033 0.570128 -0.467983
29  11.691992 0.000242 0.000855  0.141450 0.000081 -1.968796
30  11.478196 -0.001503 0.001046  -0.936687 0.079930 0.817739
31  3.859435 -0.132787 1.193062  0.419753 0.064213 -1.630733
32  1.312558 0.000024 -0.000000  0.018649 -0.111950 -0.566450
33  0.729346 0.000066 -0.000027  -0.136092 -0.130379 -0.745071
34  3.942046 0.050109 0.430996  0.227728 0.017433 -1.395883
35  1.539096 0.000005 -0.000000  0.033374 -0.057010 -0.978694
36  1.196300 0.000077 -0.000004  -0.008681 -0.024216 -0.882959
37  3.883411 -0.050502 -0.431087  0.220900 -0.070369 -1.119647
38  1.719564 -0.000081 -0.000003  0.013025 -0.077950 -1.452999
39  1.209195 0.000035 0.000010  0.008192 -0.000795 -0.494142
40  3.859584 -0.149112 -1.331323  -0.144133 0.068146 -0.137838
41  1.719411 -0.000098 -0.000034  -0.015109 -0.000174 -1.071001
42  1.099674 0.000025 0.000007  -0.004386 -0.008133 -0.862854
43  0.805979 -0.359854 -1.318339  0.974252 0.268925 -0.894612
44  1.789779 -0.000008 -0.000042  0.001484 -0.011936 0.235362
45  1.206996 -0.000005 0.000005  0.001538 -0.000068 1.118076
46  5.740570 0.000056 0.000723  0.203408 -0.000014 0.000021
47  11.480581 -0.000264 0.000959  0.121254 0.040195 0.139058
48  6.027514 -0.000274 -0.000237  -0.668848 -0.514758 -1.667771
49  -0.000002 11.691975 -0.000008  -1.306166 0.753410 0.954393
50  0.000003 -0.000001 0.000000  2.413975 -0.000041 1.570856
51  -0.000007 -0.000016 0.000004  2.272644 -0.000030 1.570865
52  -4.197145 -3.955227 -6.650713  3.082035 -0.061401 -1.468313
53  -0.000000 -0.000000 -0.000001  0.008153 -0.000259 0.000009
54  -0.000000 0.000000 0.000000  1.565115 0.043565 -0.106862
55  -0.427259 -17.046837 -5.668183  -0.930273 0.155380 -1.904209
56  -0.000001 -0.000000 0.000000  0.000000 -0.000000 -0.000002
57  0.000029 0.000029 0.000001  -1.571901 -0.044449 -0.106509
58  8.426761 -19.544212 -16.568478  1.570796 -0.000000 0.000000
59  -15.417985 2.938832 -17.970421  1.570796 -0.000000 0.000000
60  1.941978 -0.304065 -8.327020  1.570796 -0.000000 0.000000
61  -0.004311 0.001229 -0.000371  0.006898 -0.005534 -0.284229
62  2.089273 8.874444 -4.333363  1.570796 -0.000000 0.000000
63  0.000000 0.000000 0.000000  -0.078727 -3.136056 0.284226
64  1.000000 0.000000 -0.750000  1.570796 -0.000000 0.000000
65  -2.320994 -10.436199 -1.933373  1.570796 -0.000000 0.000000
66  0.000002 -2.923558 -1.408042  0.000000 -0.000000 0.000000
67  -0.000002 -0.601197 -2.062164  0.000000 -0.000000 0.000000
68  0.004380 -0.039407 6.613115  0.000000 -0.000000 0.000000
69  0.000970 -0.021792 0.054851  0.000000 -0.000000 -0.000000
70  0.000002 -3.304881 0.259169  0.000000 -0.000000 0.000000
71  -2.320996 -15.173336 -3.193526  1.570796 -0.000000 0.000000
72  0.057100 0.204433 -2.709597  0.000000 -0.000000 -0.000000
73  0.111673 -0.283001 -2.709597  0.000000 -0.000000 -0.000000
74  -0.128217 -0.750370 -2.709597  0.000000 0.000000 0.000000
end
