version 1
nodes
0 "blender_implicit" -1
1 "ValveBiped.Bip01_Spine4" -1
2 "ValveBiped.Bip01_L_Clavicle" 1
3 "ValveBiped.Bip01_L_UpperArm" 2
4 "ValveBiped.Bip01_L_Forearm" 3
5 "ValveBiped.Bip01_L_Hand" 4
6 "ValveBiped.Bip01_L_Finger4" 5
7 "ValveBiped.Bip01_L_Finger41" 6
8 "ValveBiped.Bip01_L_Finger42" 7
9 "ValveBiped.Bip01_L_Finger3" 5
10 "ValveBiped.Bip01_L_Finger31" 9
11 "ValveBiped.Bip01_L_Finger32" 10
12 "ValveBiped.Bip01_L_Finger2" 5
13 "ValveBiped.Bip01_L_Finger21" 12
14 "ValveBiped.Bip01_L_Finger22" 13
15 "ValveBiped.Bip01_L_Finger1" 5
16 "ValveBiped.Bip01_L_Finger11" 15
17 "ValveBiped.Bip01_L_Finger12" 16
18 "ValveBiped.Bip01_L_Finger0" 5
19 "ValveBiped.Bip01_L_Finger01" 18
20 "ValveBiped.Bip01_L_Finger02" 19
21 "ValveBiped.Bip01_L_Ulna" 4
22 "ValveBiped.Bip01_L_Wrist" 4
23 "rig_l_upperarm" 2
24 "rig_l_forearm" 23
25 "rig_d_l_forearm" 24
26 "rig_d_l_upperarm" 23
27 "ValveBiped.Bip01_R_Clavicle" 1
28 "ValveBiped.Bip01_R_UpperArm" 27
29 "ValveBiped.Bip01_R_Forearm" 28
30 "ValveBiped.Bip01_R_Hand" 29
31 "ValveBiped.Bip01_R_Finger4" 30
32 "ValveBiped.Bip01_R_Finger41" 31
33 "ValveBiped.Bip01_R_Finger42" 32
34 "ValveBiped.Bip01_R_Finger3" 30
35 "ValveBiped.Bip01_R_Finger31" 34
36 "ValveBiped.Bip01_R_Finger32" 35
37 "ValveBiped.Bip01_R_Finger2" 30
38 "ValveBiped.Bip01_R_Finger21" 37
39 "ValveBiped.Bip01_R_Finger22" 38
40 "ValveBiped.Bip01_R_Finger1" 30
41 "ValveBiped.Bip01_R_Finger11" 40
42 "ValveBiped.Bip01_R_Finger12" 41
43 "ValveBiped.Bip01_R_Finger0" 30
44 "ValveBiped.Bip01_R_Finger01" 43
45 "ValveBiped.Bip01_R_Finger02" 44
46 "ValveBiped.Bip01_R_Ulna" 29
47 "ValveBiped.Bip01_R_Wrist" 29
48 "rig_r_upperarm" 27
49 "rig_r_forearm" 48
50 "rig_d_r_forearm" 49
51 "rig_d_r_upperarm" 48
52 "rig_r_hand" -1
53 "rig_d_r_hand" 52
54 "rig_d_r_wrist" 53
55 "rig_l_hand" -1
56 "rig_d_l_hand" 55
57 "rig_d_l_wrist" 55
58 "rig_l_pole" -1
59 "rig_r_pole" -1
60 "rig_l_clavicle" -1
61 "rig_d_l_clavicle" 60
62 "rig_r_clavicle" -1
63 "rig_d_r_clavicle" 62
64 "Camera" -1
65 "body" -1
66 "trigger" 65
67 "boltprot" 65
68 "bolt" 67
69 "hammer" 67
70 "magrel" 65
71 "mag" -1
72 "round1" 71
73 "round2" 71
74 "round3" 71
end
skeleton
time 0
0  0 0 0  0 0 0
1  0.000006 0.000000 0.000000  -1.570800 -1.391899 -1.570792
2  -8.138873 1.780375 1.937664  -1.544956 -1.855077 -0.198630
3  6.027524 -0.000328 0.000191  0.044591 -1.397373 -2.238142
4  11.692114 0.000644 -0.000739  -1.471359 0.000005 -0.882989
5  11.480684 0.000727 -0.000099  1.227606 -0.759519 0.331865
6  3.571340 -0.073054 -1.193381  -0.632620 0.014212 -1.756860
7  1.312589 0.000013 0.000007  0.000824 -0.000086 -0.741491
8  0.729356 0.000053 0.000049  0.082874 0.056407 -0.402819
9  3.942145 0.046273 -0.431511  -0.417222 0.095104 -1.510155
10  1.539109 0.000080 0.000006  -0.000309 -0.005051 -0.691028
11  1.196332 0.000146 0.000031  0.000646 0.000004 -0.623059
12  3.883506 -0.047269 0.431381  -0.387539 0.359284 -0.985029
13  1.719573 -0.000029 0.000017  0.028942 0.009712 -1.105737
14  1.209179 0.000092 0.000012  -0.000714 0.000838 -0.695537
15  3.859662 -0.138476 1.332410  -0.121086 0.465748 -0.568502
16  1.719449 -0.000012 0.000022  -0.013264 -0.037951 -0.603243
17  1.099675 0.000048 0.000007  0.002435 0.002685 -1.577266
18  0.945844 -0.861836 1.304575  -1.776033 -0.395012 -0.257834
19  1.789818 -0.000003 -0.000017  0.008543 0.007561 -0.055305
20  1.207015 -0.000012 -0.000044  -0.027002 -0.085997 0.477726
21  5.740637 0.000410 -0.000701  -0.085601 0.000003 0.000071
22  11.481144 0.000358 -0.000675  -0.036243 -0.138268 0.026948
23  6.027523 -0.000330 0.000203  1.452401 -0.127100 1.657429
24  0.000003 11.692101 -0.000007  -0.643348 -0.181071 -0.531810
25  0.000002 0.000008 -0.000002  -0.602294 -0.000030 1.570739
26  0.000000 -0.000011 -0.000001  0.868957 0.000002 1.570712
27  -5.843360 -7.961716 2.089273  1.473120 1.855075 -0.198639
28  6.027507 -0.000261 -0.000230  1.668884 0.562705 -0.464311
29  11.691992 0.000243 0.000856  0.141450 0.000081 -1.966746
30  11.478214 -0.001498 0.001044  -0.982522 0.050533 0.808482
31  3.859436 -0.132788 1.193061  0.419753 0.064213 -1.630733
32  1.312559 0.000026 -0.000001  0.018649 -0.111950 -0.566450
33  0.729345 0.000066 -0.000028  -0.136092 -0.130379 -0.745071
34  3.942046 0.050108 0.430996  0.227728 0.017433 -1.395883
35  1.539096 0.000004 0.000000  0.033374 -0.057010 -0.978694
36  1.196299 0.000076 -0.000004  -0.008681 -0.024216 -0.882959
37  3.883411 -0.050502 -0.431088  0.220900 -0.070369 -1.119647
38  1.719564 -0.000081 -0.000004  0.013025 -0.077950 -1.452999
39  1.209196 0.000036 0.000012  0.008192 -0.000795 -0.494142
40  3.859585 -0.149112 -1.331324  -0.144133 0.068146 -0.137838
41  1.719411 -0.000098 -0.000034  -0.015109 -0.000174 -1.071001
42  1.099673 0.000024 0.000007  -0.004386 -0.008133 -0.862854
43  0.805978 -0.359854 -1.318339  0.974252 0.268925 -0.894612
44  1.789780 -0.000007 -0.000042  0.001484 -0.011936 0.235362
45  1.206997 -0.000005 0.000005  0.001538 -0.000068 1.118076
46  5.740571 0.000055 0.000722  0.195045 -0.000014 0.000021
47  11.480587 -0.000265 0.000958  0.114956 0.030906 0.139820
48  6.027514 -0.000274 -0.000237  -0.653776 -0.500930 -1.682617
49  -0.000002 11.691976 -0.000007  -1.304926 0.752133 0.953918
50  0.000003 -0.000001 0.000000  2.413975 -0.000041 1.570856
51  -0.000007 -0.000015 0.000004  2.272644 -0.000030 1.570865
52  -4.432935 -3.967476 -6.567115  3.040857 -0.056814 -1.459335
53  -0.000000 0.000000 0.000000  0.008153 -0.000259 0.000009
54  -0.000000 -0.000000 -0.000000  1.565115 0.043565 -0.106862
55  -0.540129 -18.930752 -5.022928  -0.969854 0.142018 -1.903529
56  0.000001 -0.000001 -0.000000  0.000000 -0.000000 -0.000002
57  0.000031 0.000029 0.000001  -1.571901 -0.044449 -0.106509
58  8.426761 -19.544212 -16.568478  1.570796 -0.000000 0.000000
59  -15.417985 2.938832 -17.970421  1.570796 -0.000000 0.000000
60  1.941978 -0.304065 -8.327020  1.570796 -0.000000 0.000000
61  -0.004311 0.001229 -0.000371  0.006898 -0.005534 -0.284229
62  2.089273 8.874444 -4.333363  1.570796 -0.000000 0.000000
63  0.000000 0.000000 0.000000  -0.078727 -3.136056 0.284226
64  0.000000 0.000000 0.000000  1.570796 -0.000000 0.000000
65  -2.320994 -10.436199 -1.933373  1.571103 0.041360 0.006551
66  0.000002 -2.923558 -1.408042  0.000000 -0.000000 -0.000000
67  -0.000002 -0.601197 -2.062165  0.000000 -0.000000 -0.000000
68  0.004380 -0.039406 6.613115  0.000000 -0.000000 -0.000000
69  0.000002 -0.021786 -0.115848  -0.000000 -0.000000 -0.000000
70  0.000002 -3.304880 0.259167  0.000000 -0.000000 -0.000000
71  -2.342128 -15.173188 -3.193902  1.571103 0.041360 0.006551
72  0.057100 0.204433 -2.709597  0.000000 -0.000000 -0.000000
73  0.111673 -0.283002 -2.709596  0.000000 -0.000000 -0.000000
74  -0.128217 -0.750370 -2.709597  0.000000 0.000000 -0.000000
end
