version 1
nodes
0 "ValveBiped.Bip01_Spine4" -1
1 "ValveBiped.Bip01_L_Clavicle" 0
2 "ValveBiped.Bip01_L_UpperArm" 1
3 "ValveBiped.Bip01_L_Forearm" 2
4 "ValveBiped.Bip01_L_Hand" 3
5 "ValveBiped.Bip01_L_Finger4" 4
6 "ValveBiped.Bip01_L_Finger41" 5
7 "ValveBiped.Bip01_L_Finger42" 6
8 "ValveBiped.Bip01_L_Finger3" 4
9 "ValveBiped.Bip01_L_Finger31" 8
10 "ValveBiped.Bip01_L_Finger32" 9
11 "ValveBiped.Bip01_L_Finger2" 4
12 "ValveBiped.Bip01_L_Finger21" 11
13 "ValveBiped.Bip01_L_Finger22" 12
14 "ValveBiped.Bip01_L_Finger1" 4
15 "ValveBiped.Bip01_L_Finger11" 14
16 "ValveBiped.Bip01_L_Finger12" 15
17 "ValveBiped.Bip01_L_Finger0" 4
18 "ValveBiped.Bip01_L_Finger01" 17
19 "ValveBiped.Bip01_L_Finger02" 18
20 "ValveBiped.Bip01_L_Ulna" 3
21 "ValveBiped.Bip01_L_Wrist" 3
22 "rig_l_upperarm" 1
23 "rig_l_forearm" 22
24 "rig_d_l_forearm" 23
25 "rig_d_l_upperarm" 22
26 "ValveBiped.Bip01_R_Clavicle" 0
27 "ValveBiped.Bip01_R_UpperArm" 26
28 "ValveBiped.Bip01_R_Forearm" 27
29 "ValveBiped.Bip01_R_Hand" 28
30 "ValveBiped.Bip01_R_Finger4" 29
31 "ValveBiped.Bip01_R_Finger41" 30
32 "ValveBiped.Bip01_R_Finger42" 31
33 "ValveBiped.Bip01_R_Finger3" 29
34 "ValveBiped.Bip01_R_Finger31" 33
35 "ValveBiped.Bip01_R_Finger32" 34
36 "ValveBiped.Bip01_R_Finger2" 29
37 "ValveBiped.Bip01_R_Finger21" 36
38 "ValveBiped.Bip01_R_Finger22" 37
39 "ValveBiped.Bip01_R_Finger1" 29
40 "ValveBiped.Bip01_R_Finger11" 39
41 "ValveBiped.Bip01_R_Finger12" 40
42 "ValveBiped.Bip01_R_Finger0" 29
43 "ValveBiped.Bip01_R_Finger01" 42
44 "ValveBiped.Bip01_R_Finger02" 43
45 "ValveBiped.Bip01_R_Ulna" 28
46 "ValveBiped.Bip01_R_Wrist" 28
47 "rig_r_upperarm" 26
48 "rig_r_forearm" 47
49 "rig_d_r_forearm" 48
50 "rig_d_r_upperarm" 47
51 "rig_r_hand" -1
52 "rig_d_r_hand" 51
53 "rig_d_r_wrist" 52
54 "rig_l_hand" -1
55 "rig_d_l_hand" 54
56 "rig_d_l_wrist" 54
57 "rig_l_pole" -1
58 "rig_r_pole" -1
59 "rig_l_clavicle" -1
60 "rig_d_l_clavicle" 59
61 "rig_r_clavicle" -1
62 "rig_d_r_clavicle" 61
63 "Camera" -1
64 "body" -1
65 "trigger" 64
66 "bolt" 64
67 "chandle" 64
68 "barrel" 64
69 "magrel" 64
70 "boltrelease" 64
71 "dustcover" 64
72 "bullet1" 64
73 "laser" 64
74 "selector" 64
75 "magrel_ar57" 64
76 "mag" -1
77 "bullet2" 76
78 "bullet3" 76
79 "ar57_mag" -1
80 "round1" 79
81 "round2" 79
82 "round3" 79
83 "round4" 79
84 "round5" 79
85 "round6" 79
86 "round7" 79
87 "round8" 79
88 "round9" 79
89 "round10" 79
90 "round11" 79
91 "round12" 79
92 "round13" 79
93 "round14" 79
94 "round15" 79
95 "round16" 79
96 "round17" 79
97 "round18" 79
98 "round19" 79
99 "round20" 79
100 "round21" 79
101 "round22" 79
102 "round23" 79
103 "round24" 79
104 "round25" 79
105 "round26" 79
106 "round27" 79
107 "round28" 79
108 "round29" 79
109 "round30" 79
110 "round31" 79
111 "round32" 79
112 "round33" 79
113 "round34" 79
114 "round35" 79
115 "round36" 79
116 "round37" 79
117 "round38" 79
118 "round39" 79
119 "round40" 79
120 "round41" 79
121 "round42" 79
122 "round43" 79
123 "round44" 79
124 "round45" 79
125 "round46" 79
126 "round47" 79
127 "round48" 79
128 "round49" 79
129 "round50" 79
130 "springstart" 79
131 "springend" 130
end
skeleton
time 0
0  0.000006 0.000000 0.000000  -1.570800 -1.391899 -1.570792
1  2.033349 1.000767 1.937657  -1.544956 -1.855077 -0.198630
2  6.027515 -0.000324 0.000201  -1.583284 0.045954 -0.585171
3  11.692119 0.000650 -0.000737  -0.000012 0.000001 -0.056696
4  11.481224 0.000160 -0.000727  1.576889 -0.106574 0.041971
5  3.859504 -0.142825 -1.192079  -0.468169 0.151546 -0.880257
6  1.312590 0.000009 0.000007  -0.000027 0.000044 -0.439740
7  0.729357 0.000054 0.000049  0.000017 0.000021 -0.244317
8  3.942141 0.046330 -0.431543  -0.151817 0.073216 -0.811086
9  1.539113 0.000082 0.000004  -0.000007 0.000021 -0.247842
10  1.196331 0.000148 0.000029  0.000011 0.000018 -0.430770
11  3.883512 -0.047212 0.431351  0.085894 0.021858 -0.587909
12  1.719573 -0.000030 0.000017  0.000015 0.005518 -0.366533
13  1.209181 0.000090 0.000012  0.000004 0.003091 -0.216438
14  3.859679 -0.138420 1.332380  0.354466 -0.042717 -0.531784
15  1.719446 -0.000022 0.000029  0.000028 0.004066 -0.363025
16  1.099675 0.000049 0.000005  0.000003 0.002578 -0.244381
17  0.806011 -0.349039 1.321247  -1.222694 -0.679188 -0.788867
18  1.789819 -0.000005 -0.000017  0.000011 -0.000024 0.228523
19  1.207014 -0.000014 -0.000043  0.000002 -0.000008 0.362856
20  5.740638 0.000388 -0.000698  0.003035 0.000003 0.000063
21  11.481259 0.000207 -0.000799  0.004953 0.000188 -0.001556
22  6.027525 -0.000330 0.000200  0.059595 -2.453119 -2.193920
23  0.000000 11.692101 -0.000007  -0.043320 -0.000838 -0.036616
24  0.000003 0.000010 0.000000  0.868996 -0.000031 1.570739
25  -0.000001 -0.000012 -0.000001  0.868960 0.000002 1.570712
26  2.033355 1.000772 -1.937609  1.473120 1.855075 -0.198639
27  6.027509 -0.000259 -0.000228  1.639678 -0.005914 -0.586605
28  11.691991 0.000163 0.000859  -0.000047 -0.000002 -0.056019
29  11.481180 0.000159 0.000812  -1.565090 0.106510 0.041985
30  3.859439 -0.132758 1.193065  0.466290 -0.158048 -0.878823
31  1.312561 0.000024 -0.000000  0.000013 -0.000043 -0.439709
32  0.729345 0.000064 -0.000028  -0.000023 -0.000019 -0.244286
33  3.942048 0.050138 0.431000  0.150091 -0.079181 -0.810189
34  1.539098 0.000005 0.000000  0.000009 -0.000007 -0.247824
35  1.196302 0.000078 -0.000004  -0.000007 -0.000009 -0.430781
36  3.883415 -0.050474 -0.431084  -0.085915 -0.026392 -0.587660
37  1.719563 -0.000083 -0.000004  -0.000006 -0.007962 -0.366486
38  1.209197 0.000034 0.000011  0.000002 -0.004461 -0.216413
39  3.859589 -0.149084 -1.331321  -0.354445 0.038578 -0.531955
40  1.719413 -0.000097 -0.000038  -0.000030 -0.006584 -0.363030
41  1.099675 0.000021 0.000007  0.000004 -0.004188 -0.244347
42  0.805983 -0.359850 -1.318338  1.221444 0.673631 -0.793558
43  1.789779 -0.000010 -0.000040  -0.000028 0.000031 0.228553
44  1.206993 -0.000007 0.000005  -0.000017 0.000020 0.362910
45  5.740573 0.000079 0.000720  0.002190 -0.000014 0.000028
46  11.481181 0.000106 0.000906  -0.000016 -0.000090 -0.001837
47  6.027515 -0.000273 -0.000228  0.007346 -0.632954 -2.161819
48  -0.000001 11.691978 -0.000007  -0.042770 0.000797 0.036154
49  0.000002 0.000000 0.000000  2.272571 -0.000036 1.570860
50  -0.000008 -0.000013 0.000005  2.272645 -0.000036 1.570861
51  -22.676567 -0.984331 -17.554111  -1.605366 2.379717 -0.041994
52  0.000001 0.000002 -0.000000  0.008153 -0.000259 0.000009
53  -0.000000 -0.000001 0.000000  1.565115 0.043565 -0.106862
54  22.676517 -0.984221 -17.554199  1.605712 0.761853 0.042358
55  0.000001 -0.000003 -0.000000  0.000000 -0.000001 -0.000002
56  0.000032 0.000027 0.000001  -1.571901 -0.044449 -0.106509
57  15.265023 8.339654 -8.787539  1.570796 -0.000000 0.000000
58  -15.265000 8.339654 -8.787539  1.570796 -0.000000 0.000000
59  1.941978 -1.346989 1.821586  1.570796 -0.000000 0.000000
60  -0.004311 0.001230 -0.000371  0.006898 -0.005534 -0.284229
61  -1.937603 -1.346625 1.822824  1.570796 -0.000000 0.000000
62  0.000000 0.000000 0.000000  -0.078727 -3.136056 0.284226
63  0.000000 0.000000 0.000000  1.570796 -0.000000 0.000000
64  -3.590840 -11.939873 -2.851932  1.570796 -0.000000 0.000000
65  0.042269 -2.588230 0.672586  0.000000 -0.000000 0.000000
66  0.048105 -1.112260 5.803837  0.000000 -0.000000 0.000000
67  0.048106 -0.032154 -1.710082  0.000000 -0.000000 0.000000
68  0.042353 -1.078447 21.234573  0.000000 -0.000000 0.000000
69  0.436542 -3.059779 3.935333  0.000000 -0.000000 0.000000
70  0.672328 -2.032812 2.042324  0.000000 -0.000000 0.000000
71  -0.729358 -1.331797 3.242019  0.000000 -0.000000 0.000000
72  0.194741 -1.447476 3.023561  0.000000 -0.000000 0.000000
73  -0.700892 0.650637 17.606178  0.000000 -0.000000 0.000000
74  0.042269 -2.357918 -0.445848  0.000000 -0.000000 0.000000
75  0.436542 -0.003270 1.776058  0.000000 -0.000000 0.000000
76  -3.588360 -16.646259 -6.949106  1.570796 -0.000000 0.000000
77  -0.097393 2.508477 -1.682825  0.000000 -0.000000 0.000000
78  0.138693 2.343453 -1.682825  0.000000 -0.000000 0.000000
79  -3.590840 -20.798542 -2.876425  1.570796 -0.000000 0.000000
80  -0.861920 -0.180712 3.135019  0.000000 -0.000000 -0.000000
81  -0.861920 0.097230 3.003448  0.000000 -0.000000 -0.000000
82  -0.861920 -0.180725 2.815479  0.000000 -0.000000 -0.000000
83  -0.861920 0.097217 2.683908  0.000000 -0.000000 -0.000000
84  -0.861920 -0.180725 2.495584  0.000000 -0.000000 -0.000000
85  -0.861920 0.097216 2.364012  0.000000 -0.000000 -0.000000
86  -0.861920 -0.180726 2.176041  0.000000 -0.000000 -0.000000
87  -0.861920 0.097216 2.044468  0.000000 -0.000000 -0.000000
88  -0.861920 -0.180727 1.861902  0.000000 -0.000000 -0.000000
89  -0.861920 0.097215 1.730331  0.000000 -0.000000 -0.000000
90  -0.861920 -0.180727 1.542358  0.000000 -0.000000 -0.000000
91  -0.861920 0.097214 1.410789  0.000000 -0.000000 -0.000000
92  -0.861920 -0.180722 1.222464  0.000000 -0.000000 -0.000000
93  -0.861920 0.097220 1.090891  0.000000 -0.000000 -0.000000
94  -0.861920 -0.180712 0.918800  0.000000 -0.000000 -0.000000
95  -0.861920 0.097230 0.787231  0.000000 -0.000000 -0.000000
96  -0.861920 -0.180725 0.599258  0.000000 -0.000000 -0.000000
97  -0.861920 0.097217 0.467690  0.000000 -0.000000 -0.000000
98  -0.861920 -0.180725 0.279366  0.000000 -0.000000 -0.000000
99  -0.861920 0.097216 0.147793  0.000000 -0.000000 -0.000000
100  -0.861920 -0.180726 -0.040178  0.000000 -0.000000 -0.000000
101  -0.861920 0.097216 -0.171751  0.000000 -0.000000 -0.000000
102  -0.861920 -0.180727 -0.354317  0.000000 -0.000000 -0.000000
103  -0.861920 0.097215 -0.485886  0.000000 -0.000000 -0.000000
104  -0.861920 -0.180727 -0.673861  0.000000 -0.000000 -0.000000
105  -0.861920 0.097214 -0.805431  0.000000 -0.000000 -0.000000
106  -0.861920 -0.180722 -0.993755  0.000000 -0.000000 -0.000000
107  -0.861920 0.097220 -1.125328  0.000000 -0.000000 -0.000000
108  -0.861920 -0.180725 -1.295307  0.000000 -0.000000 -0.000000
109  -0.861920 0.097216 -1.426880  0.000000 -0.000000 -0.000000
110  -0.861920 -0.180726 -1.614851  0.000000 -0.000000 -0.000000
111  -0.861920 0.097216 -1.746424  0.000000 -0.000000 -0.000000
112  -0.861920 -0.180727 -1.928989  0.000000 -0.000000 -0.000000
113  -0.861920 0.097215 -2.060558  0.000000 -0.000000 -0.000000
114  -0.861920 -0.180727 -2.248533  0.000000 -0.000000 -0.000000
115  -0.861920 0.097214 -2.380102  0.000000 -0.000000 -0.000000
116  -0.861920 -0.180722 -2.568428  0.000000 -0.000000 -0.000000
117  -0.861920 0.097220 -2.700001  0.000000 -0.000000 -0.000000
118  -0.861920 -0.180725 -2.887970  0.000000 -0.000000 -0.000000
119  -0.861920 0.097216 -3.019543  0.000000 -0.000000 -0.000000
120  -0.861920 -0.180724 -3.207870  0.000000 -0.000000 -0.000000
121  -0.861920 0.097229 -3.339443  0.000000 -0.000000 -0.000000
122  -0.861920 -0.180737 -3.527412  0.000000 -0.000000 -0.000000
123  -0.861920 0.097217 -3.658985  0.000000 -0.000000 -0.000000
124  -0.861920 -0.048023 -3.936775  0.000000 -0.000000 -0.000000
125  -0.861920 0.096813 -4.220028  0.000000 -0.000000 -0.000000
126  -0.861839 0.049009 -4.549494  0.000000 -0.000000 0.000000
127  -0.862203 -0.181353 -4.727589  -0.000568 0.008934 0.008929
128  -0.865933 -0.543243 -4.815327  -0.002212 0.031273 0.031204
129  0.018344 -0.713685 -5.609470  0.064463 -0.001783 -0.001902
130  0.000000 0.000000 4.970245  0.000000 -0.000000 0.000000
131  0.000000 0.000000 -2.491489  0.000000 -0.000000 0.000000
end
triangles
lowpoly_plastic.004
0  -3.435410 -16.700617 -3.057240  0.000000 -1.000000 -0.000008  0.891551 0.515357 1 67 1.000000
0  -3.435145 -16.700617 -3.460018  0.000000 -1.000000 -0.000008  0.891551 0.515511 1 67 1.000000
0  -3.359847 -16.700617 -3.460006  0.000000 -1.000000 -0.000008  0.891522 0.515511 1 67 1.000000
lowpoly_plastic.004
0  -3.663662 -11.370952 -2.836253  -0.497595 -0.000000 0.867410  0.886558 0.515568 1 67 1.000000
0  -3.738958 -16.700617 -2.879448  -0.497595 -0.000000 0.867410  0.886529 0.513520 1 67 1.000000
0  -3.663661 -16.700617 -2.836253  -0.497595 -0.000000 0.867410  0.886558 0.513520 1 67 1.000000
lowpoly_plastic.004
0  -3.435145 -16.700617 -3.460018  0.000000 0.000197 -1.000000  0.889187 0.515477 1 67 1.000000
0  -3.662542 -16.643673 -3.460006  0.000000 0.000197 -1.000000  0.889165 0.515564 1 67 1.000000
0  -3.436263 -16.643673 -3.460006  0.000000 0.000197 -1.000000  0.889165 0.515477 1 67 1.000000
lowpoly_plastic.004
0  -3.738960 -10.891959 -3.157415  0.000000 0.000000 -1.000000  0.891416 0.510541 1 67 1.000000
0  -3.658741 -16.251282 -3.157415  0.000000 0.000000 -1.000000  0.891447 0.512601 1 67 1.000000
0  -3.738959 -16.251282 -3.157415  0.000000 0.000000 -1.000000  0.891416 0.512601 1 67 1.000000
lowpoly_plastic.004
0  -4.500365 -10.267414 -3.157415  -0.879696 -0.475537 0.000000  0.003748 0.764812 1 67 1.000000
0  -4.378941 -10.492036 -2.761256  -0.879696 -0.475537 0.000000  0.003715 0.764755 1 67 1.000000
0  -4.500365 -10.267414 -2.759411  -0.879696 -0.475537 0.000000  0.003747 0.764755 1 67 1.000000
lowpoly_plastic.004
0  -3.099492 -10.492036 -2.836253  0.000000 -0.960688 0.277631  0.897972 0.515317 1 67 1.000000
0  -2.735548 -10.455950 -2.711379  0.000000 -0.960688 0.277631  0.897924 0.515458 1 67 1.000000
0  -3.118285 -10.455950 -2.711379  0.000000 -0.960688 0.277631  0.897924 0.515311 1 67 1.000000
lowpoly_plastic.004
0  -3.835590 -10.690112 -2.836253  -0.770772 -0.637111 0.000000  0.899387 0.515315 1 67 1.000000
0  -3.999317 -10.492036 -3.157415  -0.770772 -0.637111 0.000000  0.899261 0.515391 1 67 1.000000
0  -3.835590 -10.690112 -3.157415  -0.770772 -0.637111 0.000000  0.899263 0.515315 1 67 1.000000
lowpoly_plastic.004
0  -3.658741 -16.251282 -3.157415  0.000000 0.691886 -0.722007  0.888489 0.514118 1 67 1.000000
0  -3.738959 -16.413818 -3.313172  0.000000 0.691886 -0.722007  0.888458 0.514180 1 67 1.000000
0  -3.738959 -16.251282 -3.157415  0.000000 0.691886 -0.722007  0.888458 0.514118 1 67 1.000000
lowpoly_plastic.004
0  -3.236306 -10.690112 -2.907327  0.998278 -0.058652 0.000000  0.897705 0.515196 1 67 1.000000
0  -3.248165 -10.891959 -3.157415  0.998278 -0.058652 0.000000  0.897802 0.515119 1 67 1.000000
0  -3.236306 -10.690112 -3.022781  0.998278 -0.058652 0.000000  0.897750 0.515196 1 67 1.000000
lowpoly_plastic.004
0  -3.359849 -10.891959 -3.157415  0.000000 0.000000 -1.000000  0.891562 0.510541 1 67 1.000000
0  -3.440065 -16.251282 -3.157415  0.000000 0.000000 -1.000000  0.891531 0.512601 1 67 1.000000
0  -3.440067 -10.891959 -3.157415  0.000000 0.000000 -1.000000  0.891531 0.510541 1 67 1.000000
lowpoly_plastic.004
0  -3.236306 -10.690112 -3.022781  0.981202 -0.192984 0.000000  0.004017 0.764762 1 67 1.000000
0  -3.151602 -10.259447 -2.907327  0.981202 -0.192984 0.000000  0.004000 0.764823 1 67 1.000000
0  -3.236306 -10.690112 -2.907327  0.981202 -0.192984 0.000000  0.004000 0.764761 1 67 1.000000
lowpoly_plastic.004
0  -2.719850 -10.492035 -3.022781  0.879695 -0.475538 0.000000  0.004458 0.764802 1 67 1.000000
0  -2.598426 -10.267414 -3.157415  0.879695 -0.475538 0.000000  0.004427 0.764821 1 67 1.000000
0  -2.598426 -10.267414 -3.022781  0.879695 -0.475538 0.000000  0.004427 0.764802 1 67 1.000000
lowpoly_plastic.004
0  -3.099492 -10.492036 -2.836253  0.000003 -1.000000 0.000000  0.897972 0.515317 1 67 1.000000
0  -2.719850 -10.492035 -2.907327  0.000003 -1.000000 0.000000  0.898000 0.515463 1 67 1.000000
0  -2.719850 -10.492035 -2.761256  0.000003 -1.000000 0.000000  0.897943 0.515463 1 67 1.000000
lowpoly_plastic.004
0  -2.748519 -10.110055 -2.711379  -0.000000 0.732401 0.680874  0.925669 0.515173 1 67 1.000000
0  -4.378941 -10.067119 -2.757566  -0.000000 0.732401 0.680874  0.925687 0.515798 1 67 1.000000
0  -4.350272 -10.110056 -2.711379  -0.000000 0.732401 0.680874  0.925669 0.515788 1 67 1.000000
lowpoly_plastic.004
0  -3.999317 -10.492036 -3.157415  -0.000744 0.000242 -1.000000  0.894610 0.510775 1 67 1.000000
0  -4.380465 -10.070377 -3.157030  -0.000744 0.000242 -1.000000  0.894464 0.510613 1 67 1.000000
0  -3.890506 -10.157846 -3.157415  -0.000744 0.000242 -1.000000  0.894652 0.510647 1 67 1.000000
lowpoly_plastic.004
0  -3.359849 -10.891959 -3.157415  1.000000 0.000000 0.000000  0.888366 0.513521 1 67 1.000000
0  -3.359849 -10.891959 -2.836253  1.000000 0.000000 0.000000  0.888489 0.513520 1 67 1.000000
0  -3.359849 -11.170845 -2.836253  1.000000 0.000000 0.000000  0.888490 0.513627 1 67 1.000000
lowpoly_plastic.004
0  -3.435147 -11.370952 -2.836253  0.497595 0.000000 0.867410  0.886646 0.515568 1 67 1.000000
0  -3.359847 -16.700617 -2.879448  0.497595 0.000000 0.867410  0.886674 0.513520 1 67 1.000000
0  -3.359849 -11.370952 -2.879448  0.497595 0.000000 0.867410  0.886674 0.515568 1 67 1.000000
lowpoly_plastic.004
0  -3.738958 -16.700617 -3.460006  -1.000000 -0.000003 0.000000  0.890733 0.513976 1 67 1.000000
0  -3.738959 -16.413818 -3.313172  -1.000000 -0.000003 0.000000  0.890678 0.513866 1 67 1.000000
0  -3.738959 -16.413818 -3.460006  -1.000000 -0.000003 0.000000  0.890734 0.513866 1 67 1.000000
lowpoly_plastic.004
0  -3.359849 -10.891959 -3.157415  0.000000 -1.000000 0.000000  0.080486 0.872177 1 67 1.000000
0  -3.248165 -10.891959 -2.836253  0.000000 -1.000000 0.000000  0.080443 0.872054 1 67 1.000000
0  -3.359849 -10.891959 -2.836253  0.000000 -1.000000 0.000000  0.080486 0.872054 1 67 1.000000
lowpoly_plastic.004
0  -3.359849 -10.891959 -3.157415  1.000000 -0.000001 0.000000  0.888366 0.513521 1 67 1.000000
0  -3.359849 -11.170845 -2.836253  1.000000 -0.000001 0.000000  0.888490 0.513627 1 67 1.000000
0  -3.359849 -11.370952 -2.879448  1.000000 -0.000001 0.000000  0.888474 0.513704 1 67 1.000000
lowpoly_plastic.004
0  -3.359849 -11.370952 -2.879448  0.489096 -0.184040 0.852593  0.886674 0.515568 1 67 1.000000
0  -3.359849 -11.170845 -2.836253  0.489096 -0.184040 0.852593  0.886675 0.515645 1 67 1.000000
0  -3.435147 -11.370952 -2.836253  0.489096 -0.184040 0.852593  0.886646 0.515568 1 67 1.000000
lowpoly_plastic.004
0  -3.549403 -16.700617 -3.180841  0.000000 -1.000000 0.000000  0.891595 0.515404 1 67 1.000000
0  -3.738958 -16.700617 -3.460006  0.000000 -1.000000 0.000000  0.891668 0.515511 1 67 1.000000
0  -3.663661 -16.700617 -3.460018  0.000000 -1.000000 0.000000  0.891639 0.515511 1 67 1.000000
lowpoly_plastic.004
0  -3.738960 -11.170845 -2.836253  -0.489096 -0.184040 0.852593  0.886529 0.515645 1 67 1.000000
0  -3.738960 -11.370952 -2.879448  -0.489096 -0.184040 0.852593  0.886529 0.515568 1 67 1.000000
0  -3.663662 -11.370952 -2.836253  -0.489096 -0.184040 0.852593  0.886558 0.515568 1 67 1.000000
lowpoly_plastic.004
0  -3.738960 -11.170845 -2.836253  -1.000000 -0.000003 0.000000  0.888042 0.513627 1 67 1.000000
0  -3.738960 -10.891959 -3.157415  -1.000000 -0.000003 0.000000  0.888167 0.513521 1 67 1.000000
0  -3.738960 -11.370952 -2.879448  -1.000000 -0.000003 0.000000  0.888058 0.513704 1 67 1.000000
lowpoly_plastic.004
0  -3.248165 -10.891959 -3.157415  0.998279 -0.058649 0.000000  0.897802 0.515119 1 67 1.000000
0  -3.236306 -10.690112 -3.157415  0.998279 -0.058649 0.000000  0.897802 0.515197 1 67 1.000000
0  -3.236306 -10.690112 -3.022781  0.998279 -0.058649 0.000000  0.897750 0.515196 1 67 1.000000
lowpoly_plastic.004
0  -3.835590 -10.690112 -2.836253  0.000000 0.000000 1.000000  0.899281 0.513505 1 67 1.000000
0  -3.824594 -10.891959 -2.836253  0.000000 0.000000 1.000000  0.899285 0.513427 1 67 1.000000
0  -3.738960 -10.891959 -2.836253  0.000000 0.000000 1.000000  0.899318 0.513427 1 67 1.000000
lowpoly_plastic.004
0  -3.359849 -10.891959 -2.836253  0.000000 0.000000 1.000000  0.899464 0.513427 1 67 1.000000
0  -3.248165 -10.891959 -2.836253  0.000000 0.000000 1.000000  0.899507 0.513427 1 67 1.000000
0  -3.236306 -10.690112 -2.836253  0.000000 0.000000 1.000000  0.899511 0.513505 1 67 1.000000
lowpoly_plastic.004
0  -3.332642 -10.249778 -2.836253  -0.693213 -0.720733 0.000000  0.080222 0.875250 1 67 1.000000
0  -3.118285 -10.455950 -2.711379  -0.693213 -0.720733 0.000000  0.080270 0.875169 1 67 1.000000
0  -3.332642 -10.249778 -2.711379  -0.693213 -0.720733 0.000000  0.080270 0.875249 1 67 1.000000
lowpoly_plastic.004
0  -3.332642 -10.249778 -2.711379  0.000000 0.000000 1.000000  0.926039 0.513961 1 67 1.000000
0  -4.350272 -10.110056 -2.711379  0.000000 0.000000 1.000000  0.926092 0.514352 1 67 1.000000
0  -3.766168 -10.249778 -2.711379  0.000000 0.000000 1.000000  0.926039 0.514128 1 67 1.000000
lowpoly_plastic.004
0  -3.118285 -10.455950 -2.711379  -0.000001 0.000000 1.000000  0.925959 0.513879 1 67 1.000000
0  -2.748519 -10.110055 -2.711379  -0.000001 0.000000 1.000000  0.926092 0.513737 1 67 1.000000
0  -3.332642 -10.249778 -2.711379  -0.000001 0.000000 1.000000  0.926039 0.513961 1 67 1.000000
lowpoly_plastic.004
0  -3.332642 -10.249778 -2.836253  0.000000 -1.000000 0.000000  0.078392 0.874550 1 67 1.000000
0  -3.766168 -10.249778 -2.711379  0.000000 -1.000000 0.000000  0.078440 0.874716 1 67 1.000000
0  -3.766168 -10.249778 -2.836253  0.000000 -1.000000 0.000000  0.078392 0.874716 1 67 1.000000
lowpoly_plastic.004
0  -2.719850 -10.492035 -2.761256  0.879696 -0.475537 0.000000  0.004459 0.764764 1 67 1.000000
0  -2.598426 -10.267414 -2.907327  0.879696 -0.475537 0.000000  0.004427 0.764785 1 67 1.000000
0  -2.598426 -10.267414 -2.759411  0.879696 -0.475537 0.000000  0.004427 0.764764 1 67 1.000000
lowpoly_plastic.004
0  -3.663662 -11.370952 -2.836253  0.000000 0.000000 1.000000  0.886558 0.515568 1 67 1.000000
0  -3.435145 -16.700617 -2.836253  0.000000 0.000000 1.000000  0.886646 0.513520 1 67 1.000000
0  -3.435147 -11.370952 -2.836253  0.000000 0.000000 1.000000  0.886646 0.515568 1 67 1.000000
lowpoly_plastic.004
0  -4.363244 -10.455951 -2.711379  0.000002 -0.960692 0.277617  0.897431 0.515195 1 67 1.000000
0  -3.999317 -10.492036 -2.836253  0.000002 -0.960692 0.277617  0.897383 0.515056 1 67 1.000000
0  -3.980524 -10.455950 -2.711379  0.000002 -0.960692 0.277617  0.897431 0.515048 1 67 1.000000
lowpoly_plastic.004
0  -2.656983 -10.267437 -2.711379  0.000000 0.000000 1.000000  0.926032 0.513702 1 67 1.000000
0  -3.118285 -10.455950 -2.711379  0.000000 0.000000 1.000000  0.925959 0.513879 1 67 1.000000
0  -2.735548 -10.455950 -2.711379  0.000000 0.000000 1.000000  0.925959 0.513732 1 67 1.000000
lowpoly_plastic.004
0  -4.441808 -10.267438 -2.711379  0.000001 0.000000 1.000000  0.926032 0.514388 1 67 1.000000
0  -4.363244 -10.455951 -2.711379  0.000001 0.000000 1.000000  0.925959 0.514357 1 67 1.000000
0  -3.980524 -10.455950 -2.711379  0.000001 0.000000 1.000000  0.925959 0.514210 1 67 1.000000
lowpoly_plastic.004
0  -2.598426 -10.267414 -2.759411  0.744797 -0.406960 0.528830  0.925756 0.515818 1 67 1.000000
0  -2.735548 -10.455950 -2.711379  0.744797 -0.406960 0.528830  0.925826 0.515799 1 67 1.000000
0  -2.719850 -10.492035 -2.761256  0.744797 -0.406960 0.528830  0.925840 0.515818 1 67 1.000000
lowpoly_plastic.004
0  -2.719850 -10.067119 -2.757566  0.593290 0.353004 0.723460  0.926109 0.513726 1 67 1.000000
0  -2.656983 -10.267437 -2.711379  0.593290 0.353004 0.723460  0.926032 0.513702 1 67 1.000000
0  -2.598426 -10.267414 -2.759411  0.593290 0.353004 0.723460  0.926032 0.513679 1 67 1.000000
lowpoly_plastic.004
0  -4.378941 -10.067119 -2.757566  -0.000001 0.999967 -0.008158  0.004402 0.764757 1 67 1.000000
0  -2.718327 -10.070376 -3.157030  -0.000001 0.999967 -0.008158  0.004459 0.764520 1 67 1.000000
0  -4.380465 -10.070377 -3.157030  -0.000001 0.999967 -0.008158  0.004459 0.764757 1 67 1.000000
lowpoly_plastic.004
0  -3.151602 -10.259447 -3.022781  0.000000 0.000000 1.000000  0.003610 0.764784 1 67 1.000000
0  -3.236306 -10.690112 -3.022781  0.000000 0.000000 1.000000  0.003549 0.764796 1 67 1.000000
0  -3.099492 -10.492036 -3.022781  0.000000 0.000000 1.000000  0.003577 0.764776 1 67 1.000000
lowpoly_plastic.004
0  -3.999317 -10.492036 -2.836253  0.000000 -1.000000 0.000000  0.897383 0.515056 1 67 1.000000
0  -4.378941 -10.492036 -3.157415  0.000000 -1.000000 0.000000  0.897260 0.515202 1 67 1.000000
0  -3.999317 -10.492036 -3.157415  0.000000 -1.000000 0.000000  0.897260 0.515057 1 67 1.000000
lowpoly_plastic.004
0  -3.099492 -10.492036 -2.907327  0.000000 0.000000 -1.000000  0.004175 0.764768 1 67 1.000000
0  -3.236306 -10.690112 -2.907327  0.000000 0.000000 -1.000000  0.004204 0.764787 1 67 1.000000
0  -3.151602 -10.259447 -2.907327  0.000000 0.000000 -1.000000  0.004142 0.764776 1 67 1.000000
lowpoly_plastic.004
0  -3.663662 -11.370952 -2.836253  0.000000 0.000000 1.000000  0.899347 0.513243 1 67 1.000000
0  -3.359849 -11.170845 -2.836253  0.000000 0.000000 1.000000  0.899464 0.513320 1 67 1.000000
0  -3.738960 -11.170845 -2.836253  0.000000 0.000000 1.000000  0.899318 0.513320 1 67 1.000000
lowpoly_plastic.004
0  -3.151602 -10.259447 -3.022781  0.000000 0.000000 1.000000  0.003610 0.764784 1 67 1.000000
0  -2.719850 -10.492035 -3.022781  0.000000 0.000000 1.000000  0.003578 0.764722 1 67 1.000000
0  -2.598426 -10.267414 -3.022781  0.000000 0.000000 1.000000  0.003610 0.764705 1 67 1.000000
lowpoly_plastic.004
0  -2.719850 -10.067119 -2.757566  0.855136 0.518405 0.000000  0.004398 0.764763 1 67 1.000000
0  -2.598426 -10.267414 -2.759411  0.855136 0.518405 0.000000  0.004427 0.764764 1 67 1.000000
0  -2.598426 -10.267414 -2.907327  0.855136 0.518405 0.000000  0.004427 0.764785 1 67 1.000000
lowpoly_plastic.004
0  -3.099492 -10.492036 -3.157415  0.000000 0.000000 -1.000000  0.894956 0.510775 1 67 1.000000
0  -3.236306 -10.690112 -3.157415  0.000000 0.000000 -1.000000  0.894903 0.510851 1 67 1.000000
0  -3.208303 -10.491319 -3.157415  0.000000 0.000000 -1.000000  0.894914 0.510775 1 67 1.000000
lowpoly_plastic.004
0  -2.719850 -10.492035 -3.157415  -0.000001 0.000000 -1.000000  0.895102 0.510775 1 67 1.000000
0  -3.099492 -10.492036 -3.157415  -0.000001 0.000000 -1.000000  0.894956 0.510775 1 67 1.000000
0  -2.598426 -10.267414 -3.157415  -0.000001 0.000000 -1.000000  0.895149 0.510689 1 67 1.000000
lowpoly_plastic.004
0  -4.378941 -10.492036 -3.157415  0.000000 0.000000 -1.000000  0.894464 0.510775 1 67 1.000000
0  -4.500365 -10.267414 -3.157415  0.000000 0.000000 -1.000000  0.894418 0.510689 1 67 1.000000
0  -3.999317 -10.492036 -3.157415  0.000000 0.000000 -1.000000  0.894610 0.510775 1 67 1.000000
lowpoly_plastic.004
0  -3.890506 -10.491320 -3.157415  0.000006 0.000000 -1.000000  0.894652 0.510775 1 67 1.000000
0  -3.835590 -10.690112 -3.157415  0.000006 0.000000 -1.000000  0.894673 0.510851 1 67 1.000000
0  -3.999317 -10.492036 -3.157415  0.000006 0.000000 -1.000000  0.894610 0.510775 1 67 1.000000
lowpoly_plastic.004
0  -3.248165 -10.891959 -3.157415  0.000000 0.000000 -1.000000  0.894899 0.510929 1 67 1.000000
0  -3.359849 -10.891959 -3.157415  0.000000 0.000000 -1.000000  0.894856 0.510929 1 67 1.000000
0  -3.236306 -10.690112 -3.157415  0.000000 0.000000 -1.000000  0.894903 0.510851 1 67 1.000000
lowpoly_plastic.004
0  -3.824594 -10.891959 -3.157415  0.000000 0.000000 -1.000000  0.894677 0.510929 1 67 1.000000
0  -3.835590 -10.690112 -3.157415  0.000000 0.000000 -1.000000  0.894673 0.510851 1 67 1.000000
0  -3.738960 -10.891959 -3.157415  0.000000 0.000000 -1.000000  0.894710 0.510929 1 67 1.000000
lowpoly_plastic.004
0  -3.658742 -10.891959 -3.157415  0.000000 0.000000 -1.000000  0.894741 0.510929 1 67 1.000000
0  -3.835590 -10.690112 -3.157415  0.000000 0.000000 -1.000000  0.894673 0.510851 1 67 1.000000
0  -3.890506 -10.491320 -3.157415  0.000000 0.000000 -1.000000  0.894652 0.510775 1 67 1.000000
lowpoly_plastic.004
0  -3.663395 -16.700617 -3.057240  0.000000 -1.000000 0.000014  0.891639 0.515357 1 67 1.000000
0  -3.663661 -16.700617 -2.836253  0.000000 -1.000000 0.000014  0.891639 0.515272 1 67 1.000000
0  -3.738958 -16.700617 -2.879448  0.000000 -1.000000 0.000014  0.891668 0.515288 1 67 1.000000
lowpoly_plastic.004
0  -3.549403 -16.700617 -3.180841  0.000000 -1.000000 0.000007  0.891595 0.515404 1 67 1.000000
0  -3.663661 -16.700617 -3.460018  0.000000 -1.000000 0.000007  0.891639 0.515511 1 67 1.000000
0  -3.435145 -16.700617 -3.460018  0.000000 -1.000000 0.000007  0.891551 0.515511 1 67 1.000000
lowpoly_plastic.004
0  -3.738959 -16.413818 -3.460006  0.000001 0.000000 -1.000000  0.889076 0.515593 1 67 1.000000
0  -3.662542 -16.643673 -3.460006  0.000001 0.000000 -1.000000  0.889165 0.515564 1 67 1.000000
0  -3.738958 -16.700617 -3.460006  0.000001 0.000000 -1.000000  0.889187 0.515593 1 67 1.000000
lowpoly_plastic.004
0  -3.658741 -16.413818 -3.313172  0.000000 1.000000 0.000000  0.889047 0.515612 1 67 1.000000
0  -3.738959 -16.413818 -3.460006  0.000000 1.000000 0.000000  0.889017 0.515669 1 67 1.000000
0  -3.738959 -16.413818 -3.313172  0.000000 1.000000 0.000000  0.889017 0.515612 1 67 1.000000
lowpoly_plastic.004
0  -3.359847 -16.251282 -3.157415  1.000000 0.000000 -0.000000  0.888382 0.515579 1 67 1.000000
0  -3.359849 -11.370952 -2.879448  1.000000 0.000000 -0.000000  0.888474 0.513704 1 67 1.000000
0  -3.359847 -16.700617 -2.879448  1.000000 0.000000 -0.000000  0.888490 0.515751 1 67 1.000000
lowpoly_plastic.004
0  -3.436263 -16.643673 -2.948789  0.000000 -0.257092 -0.966387  0.889683 0.514235 1 67 1.000000
0  -3.549403 -16.700617 -2.933639  0.000000 -0.257092 -0.966387  0.889639 0.514257 1 67 1.000000
0  -3.662542 -16.643673 -2.948789  0.000000 -0.257092 -0.966387  0.889596 0.514235 1 67 1.000000
lowpoly_plastic.004
0  -4.380465 -10.070377 -3.157030  0.000000 0.004410 -0.999990  0.894464 0.510613 1 67 1.000000
0  -2.718327 -10.070376 -3.157030  0.000000 0.004410 -0.999990  0.895103 0.510613 1 67 1.000000
0  -3.208304 -10.157846 -3.157415  0.000000 0.004410 -0.999990  0.894914 0.510647 1 67 1.000000
lowpoly_plastic.004
0  -3.208304 -10.157846 -3.157415  0.000000 0.004410 -0.999990  0.894914 0.510647 1 67 1.000000
0  -3.890506 -10.157846 -3.157415  0.000000 0.004410 -0.999990  0.894652 0.510647 1 67 1.000000
0  -4.380465 -10.070377 -3.157030  0.000000 0.004410 -0.999990  0.894464 0.510613 1 67 1.000000
lowpoly_plastic.004
0  -3.440067 -10.891959 -3.157415  0.000000 0.000000 -1.000000  0.894825 0.510929 1 67 1.000000
0  -3.236306 -10.690112 -3.157415  0.000000 0.000000 -1.000000  0.894903 0.510851 1 67 1.000000
0  -3.359849 -10.891959 -3.157415  0.000000 0.000000 -1.000000  0.894856 0.510929 1 67 1.000000
lowpoly_plastic.004
0  -3.890506 -10.157846 -3.157415  0.000002 0.000000 -1.000000  0.894652 0.510647 1 67 1.000000
0  -3.890506 -10.491320 -3.157415  0.000002 0.000000 -1.000000  0.894652 0.510775 1 67 1.000000
0  -3.999317 -10.492036 -3.157415  0.000002 0.000000 -1.000000  0.894610 0.510775 1 67 1.000000
lowpoly_plastic.004
0  -3.208304 -10.157846 -3.157415  0.000000 0.000000 -1.000000  0.894914 0.510647 1 67 1.000000
0  -3.099492 -10.492036 -3.157415  0.000000 0.000000 -1.000000  0.894956 0.510775 1 67 1.000000
0  -3.208303 -10.491319 -3.157415  0.000000 0.000000 -1.000000  0.894914 0.510775 1 67 1.000000
lowpoly_plastic.004
0  -3.663661 -16.700617 -3.460018  -0.000146 0.000200 -1.000000  0.889187 0.515564 1 67 1.000000
0  -3.738958 -16.700617 -3.460006  -0.000146 0.000200 -1.000000  0.889187 0.515593 1 67 1.000000
0  -3.662542 -16.643673 -3.460006  -0.000146 0.000200 -1.000000  0.889165 0.515564 1 67 1.000000
lowpoly_plastic.004
0  -3.436263 -16.643673 -3.460006  0.000146 0.000200 -1.000000  0.889165 0.515477 1 67 1.000000
0  -3.359847 -16.700617 -3.460006  0.000146 0.000200 -1.000000  0.889187 0.515448 1 67 1.000000
0  -3.435145 -16.700617 -3.460018  0.000146 0.000200 -1.000000  0.889187 0.515477 1 67 1.000000
lowpoly_plastic.004
0  -3.359847 -16.413818 -3.313172  0.000000 1.000000 0.000000  0.890145 0.515615 1 67 1.000000
0  -3.440065 -16.413818 -3.460006  0.000000 1.000000 0.000000  0.890114 0.515671 1 67 1.000000
0  -3.440065 -16.413818 -3.313172  0.000000 1.000000 0.000000  0.890114 0.515615 1 67 1.000000
lowpoly_plastic.004
0  -3.663395 -16.700617 -3.057240  0.999865 -0.016408 -0.000201  0.891113 0.514258 1 67 1.000000
0  -3.662542 -16.643673 -3.460006  0.999865 -0.016408 -0.000201  0.890958 0.514236 1 67 1.000000
0  -3.658741 -16.413818 -3.313172  0.999865 -0.016408 -0.000201  0.891014 0.514148 1 67 1.000000
lowpoly_plastic.004
0  -4.363244 -10.455951 -2.711379  -0.744799 -0.406961 0.528826  0.923856 0.515775 1 67 1.000000
0  -4.500365 -10.267414 -2.759411  -0.744799 -0.406961 0.528826  0.923929 0.515794 1 67 1.000000
0  -4.378941 -10.492036 -2.761256  -0.744799 -0.406961 0.528826  0.923842 0.515794 1 67 1.000000
lowpoly_plastic.004
0  -3.440065 -16.251282 -3.157415  -1.000000 -0.000000 0.000000  0.082759 0.874647 1 67 1.000000
0  -3.440067 -10.891959 -2.948789  -1.000000 -0.000000 0.000000  0.082681 0.872587 1 67 1.000000
0  -3.440067 -10.891959 -3.157415  -1.000000 -0.000000 0.000000  0.082761 0.872587 1 67 1.000000
lowpoly_metal.004
0  -2.739764 -10.629262 -3.028685  0.630591 -0.776115 0.000000  0.856701 0.537784 1 67 1.000000
0  -2.606122 -10.520678 -2.903129  0.630591 -0.776115 0.000000  0.856798 0.537678 1 67 1.000000
0  -2.739764 -10.629262 -2.903129  0.630591 -0.776115 0.000000  0.856797 0.537784 1 67 1.000000
lowpoly_metal.004
0  -3.126811 -10.648114 -3.028685  0.341150 -0.940009 0.000000  0.856702 0.538079 1 67 1.000000
0  -2.872615 -10.555861 -2.903129  0.341150 -0.940009 0.000000  0.856798 0.537882 1 67 1.000000
0  -3.126811 -10.648114 -2.903129  0.341150 -0.940009 0.000000  0.856797 0.538079 1 67 1.000000
lowpoly_plastic.004
0  -3.440065 -16.413818 -3.313172  -0.999863 -0.016538 0.000000  0.891295 0.514146 1 67 1.000000
0  -3.440065 -16.413818 -3.460006  -0.999863 -0.016538 0.000000  0.891351 0.514146 1 67 1.000000
0  -3.436263 -16.643673 -3.460006  -0.999863 -0.016538 0.000000  0.891351 0.514235 1 67 1.000000
lowpoly_plastic.004
0  -3.435410 -16.700617 -3.057240  -0.999926 -0.008404 0.008770  0.891196 0.514256 1 67 1.000000
0  -3.440065 -16.251282 -3.157415  -0.999926 -0.008404 0.008770  0.891235 0.514084 1 67 1.000000
0  -3.440065 -16.413818 -3.313172  -0.999926 -0.008404 0.008770  0.891295 0.514146 1 67 1.000000
lowpoly_plastic.004
0  -3.208303 -10.491319 -3.157415  -0.865601 0.500735 0.000000  0.082758 0.872434 1 67 1.000000
0  -3.440067 -10.891959 -2.948789  -0.865601 0.500735 0.000000  0.082681 0.872587 1 67 1.000000
0  -3.208303 -10.491319 -2.948789  -0.865601 0.500735 0.000000  0.082678 0.872434 1 67 1.000000
lowpoly_plastic.004
0  -3.662542 -16.643673 -3.460006  0.999863 -0.016535 0.000000  0.890958 0.514236 1 67 1.000000
0  -3.658741 -16.413818 -3.460006  0.999863 -0.016535 0.000000  0.890958 0.514148 1 67 1.000000
0  -3.658741 -16.413818 -3.313172  0.999863 -0.016535 0.000000  0.891014 0.514148 1 67 1.000000
lowpoly_plastic.004
0  -3.658741 -16.251282 -3.157415  0.999856 -0.000660 0.016977  0.082598 0.874650 1 67 1.000000
0  -3.658742 -10.891959 -2.948789  0.999856 -0.000660 0.016977  0.082676 0.872591 1 67 1.000000
0  -3.662542 -16.643673 -2.948789  0.999856 -0.000660 0.016977  0.082678 0.874800 1 67 1.000000
lowpoly_plastic.004
0  -3.549403 -16.700617 -2.933639  0.000000 -1.000000 -0.000021  0.891595 0.515309 1 67 1.000000
0  -3.435145 -16.700617 -2.836253  0.000000 -1.000000 -0.000021  0.891551 0.515272 1 67 1.000000
0  -3.663661 -16.700617 -2.836253  0.000000 -1.000000 -0.000021  0.891639 0.515272 1 67 1.000000
lowpoly_plastic.004
0  -3.662542 -16.643673 -3.460006  0.000000 0.979821 0.199876  0.889525 0.515647 1 67 1.000000
0  -3.549403 -16.700617 -3.180841  0.000000 0.979821 0.199876  0.889568 0.515540 1 67 1.000000
0  -3.436263 -16.643673 -3.460006  0.000000 0.979821 0.199876  0.889612 0.515647 1 67 1.000000
lowpoly_plastic.004
0  -3.662542 -16.643673 -3.460006  0.150402 0.978846 0.138705  0.889525 0.515647 1 67 1.000000
0  -3.663395 -16.700617 -3.057240  0.150402 0.978846 0.138705  0.889524 0.515492 1 67 1.000000
0  -3.549403 -16.700617 -3.180841  0.150402 0.978846 0.138705  0.889568 0.515540 1 67 1.000000
lowpoly_plastic.004
0  -3.436263 -16.643673 -3.460006  -0.150401 0.978847 0.138699  0.889612 0.515647 1 67 1.000000
0  -3.549403 -16.700617 -3.180841  -0.150401 0.978847 0.138699  0.889568 0.515540 1 67 1.000000
0  -3.435410 -16.700617 -3.057240  -0.150401 0.978847 0.138699  0.889612 0.515492 1 67 1.000000
lowpoly_plastic.004
0  -3.662542 -16.643673 -2.948789  0.452528 0.788068 -0.417334  0.892060 0.515635 1 67 1.000000
0  -3.549403 -16.700617 -2.933639  0.452528 0.788068 -0.417334  0.892088 0.515602 1 67 1.000000
0  -3.663395 -16.700617 -3.057240  0.452528 0.788068 -0.417334  0.892088 0.515667 1 67 1.000000
lowpoly_plastic.004
0  -3.436263 -16.643673 -2.948789  -0.452531 0.788073 -0.417321  0.892090 0.513021 1 67 1.000000
0  -3.435410 -16.700617 -3.057240  -0.452531 0.788073 -0.417321  0.892062 0.513051 1 67 1.000000
0  -3.549403 -16.700617 -2.933639  -0.452531 0.788073 -0.417321  0.892062 0.512987 1 67 1.000000
lowpoly_plastic.004
0  -3.359847 -16.700617 -2.879448  0.000000 -1.000000 0.000000  0.891522 0.515288 1 67 1.000000
0  -3.435410 -16.700617 -3.057240  0.000000 -1.000000 0.000000  0.891551 0.515357 1 67 1.000000
0  -3.359847 -16.700617 -3.460006  0.000000 -1.000000 0.000000  0.891522 0.515511 1 67 1.000000
lowpoly_plastic.004
0  -3.738958 -16.700617 -3.460006  0.000000 -1.000000 0.000000  0.891668 0.515511 1 67 1.000000
0  -3.663395 -16.700617 -3.057240  0.000000 -1.000000 0.000000  0.891639 0.515357 1 67 1.000000
0  -3.738958 -16.700617 -2.879448  0.000000 -1.000000 0.000000  0.891668 0.515288 1 67 1.000000
lowpoly_plastic.004
0  -3.738960 -11.370952 -2.879448  -1.000000 -0.000000 0.000000  0.888058 0.513704 1 67 1.000000
0  -3.738959 -16.251282 -3.157415  -1.000000 -0.000000 0.000000  0.888151 0.515581 1 67 1.000000
0  -3.738958 -16.700617 -2.879448  -1.000000 -0.000000 0.000000  0.888042 0.515752 1 67 1.000000
lowpoly_plastic.004
0  -3.359847 -16.251282 -3.157415  0.000000 0.691886 -0.722007  0.888604 0.514118 1 67 1.000000
0  -3.440065 -16.413818 -3.313172  0.000000 0.691886 -0.722007  0.888573 0.514180 1 67 1.000000
0  -3.440065 -16.251282 -3.157415  0.000000 0.691886 -0.722007  0.888573 0.514118 1 67 1.000000
lowpoly_plastic.004
0  -3.738958 -16.700617 -2.879448  -1.000000 0.000000 0.000000  0.890510 0.513975 1 67 1.000000
0  -3.738959 -16.251282 -3.157415  -1.000000 0.000000 0.000000  0.890618 0.513803 1 67 1.000000
0  -3.738959 -16.413818 -3.313172  -1.000000 0.000000 0.000000  0.890678 0.513866 1 67 1.000000
lowpoly_plastic.004
0  -3.359847 -16.700617 -3.460006  1.000000 0.000001 0.000000  0.890735 0.513975 1 67 1.000000
0  -3.359847 -16.413818 -3.313172  1.000000 0.000001 0.000000  0.890791 0.513865 1 67 1.000000
0  -3.359847 -16.700617 -2.879448  1.000000 0.000001 0.000000  0.890958 0.513974 1 67 1.000000
lowpoly_plastic.004
0  -3.359847 -16.700617 -2.879448  1.000000 0.000000 -0.000000  0.890958 0.513974 1 67 1.000000
0  -3.359847 -16.413818 -3.313172  1.000000 0.000000 -0.000000  0.890791 0.513865 1 67 1.000000
0  -3.359847 -16.251282 -3.157415  1.000000 0.000000 -0.000000  0.890850 0.513802 1 67 1.000000
lowpoly_plastic.004
0  -3.436263 -16.643673 -3.460006  -0.999865 -0.016409 -0.000201  0.891351 0.514235 1 67 1.000000
0  -3.435410 -16.700617 -3.057240  -0.999865 -0.016409 -0.000201  0.891196 0.514256 1 67 1.000000
0  -3.440065 -16.413818 -3.313172  -0.999865 -0.016409 -0.000201  0.891295 0.514146 1 67 1.000000
lowpoly_metal.004
0  -3.183733 -11.200598 -2.903129  -0.000004 0.000000 1.000000  0.891734 0.538105 1 67 1.000000
0  -3.264313 -10.930021 -2.903129  -0.000004 0.000000 1.000000  0.891670 0.538310 1 67 1.000000
0  -3.264313 -11.097186 -2.903129  -0.000004 0.000000 1.000000  0.891672 0.538183 1 67 1.000000
lowpoly_metal.004
0  -3.332114 -10.870320 -2.903129  0.000000 0.000000 1.000000  0.891618 0.538355 1 67 1.000000
0  -3.126811 -10.648114 -2.903129  0.000000 0.000000 1.000000  0.891773 0.538526 1 67 1.000000
0  -3.331714 -10.256768 -2.903129  0.000000 0.000000 1.000000  0.891614 0.538822 1 67 1.000000
lowpoly_metal.004
0  -2.606122 -10.258962 -2.903129  0.000000 0.000000 1.000000  0.892166 0.538826 1 67 1.000000
0  -3.331714 -10.256768 -2.903129  0.000000 0.000000 1.000000  0.891614 0.538822 1 67 1.000000
0  -2.872615 -10.555861 -2.903129  0.000000 0.000000 1.000000  0.891966 0.538598 1 67 1.000000
lowpoly_metal.004
0  -2.872615 -10.555861 -2.903129  0.000000 0.000000 1.000000  0.891966 0.538598 1 67 1.000000
0  -2.739764 -10.629262 -2.903129  0.000000 0.000000 1.000000  0.892067 0.538543 1 67 1.000000
0  -2.606122 -10.520678 -2.903129  0.000000 0.000000 1.000000  0.892168 0.538627 1 67 1.000000
lowpoly_metal.004
0  -3.126811 -10.648114 -2.903129  0.000000 0.000000 1.000000  0.891773 0.538526 1 67 1.000000
0  -2.872615 -10.555861 -2.903129  0.000000 0.000000 1.000000  0.891966 0.538598 1 67 1.000000
0  -3.331714 -10.256768 -2.903129  0.000000 0.000000 1.000000  0.891614 0.538822 1 67 1.000000
lowpoly_metal.004
0  -3.264313 -10.930021 -2.903129  0.000000 0.000000 1.000000  0.891670 0.538310 1 67 1.000000
0  -3.183733 -11.200598 -2.903129  0.000000 0.000000 1.000000  0.891734 0.538105 1 67 1.000000
0  -3.126811 -10.648114 -2.903129  0.000000 0.000000 1.000000  0.891773 0.538526 1 67 1.000000
lowpoly_metal.004
0  -3.332114 -10.870320 -2.903129  0.000000 0.000000 1.000000  0.891618 0.538355 1 67 1.000000
0  -3.264313 -10.930021 -2.903129  0.000000 0.000000 1.000000  0.891670 0.538310 1 67 1.000000
0  -3.126811 -10.648114 -2.903129  0.000000 0.000000 1.000000  0.891773 0.538526 1 67 1.000000
lowpoly_metal.004
0  -2.872615 -10.555861 -2.903129  -0.000002 0.000000 1.000000  0.891966 0.538598 1 67 1.000000
0  -2.606122 -10.520678 -2.903129  -0.000002 0.000000 1.000000  0.892168 0.538627 1 67 1.000000
0  -2.606122 -10.258962 -2.903129  -0.000002 0.000000 1.000000  0.892166 0.538826 1 67 1.000000
lowpoly_metal.004
0  -3.183733 -11.200598 -3.028685  0.000000 0.000000 -1.000000  0.005718 0.764287 1 67 1.000000
0  -3.264313 -11.097186 -3.028685  0.000000 0.000000 -1.000000  0.005656 0.764209 1 67 1.000000
0  -3.264313 -10.930021 -3.028685  0.000000 0.000000 -1.000000  0.005654 0.764081 1 67 1.000000
lowpoly_metal.004
0  -3.183733 -11.200598 -2.903129  0.000000 0.000000 1.000000  0.891734 0.538105 1 67 1.000000
0  -3.340075 -11.097186 -2.903129  0.000000 0.000000 1.000000  0.891614 0.538182 1 67 1.000000
0  -3.282363 -11.200598 -2.903129  0.000000 0.000000 1.000000  0.891659 0.538104 1 67 1.000000
lowpoly_metal.004
0  -3.332114 -10.870320 -3.028685  0.000000 0.000000 -1.000000  0.005602 0.764037 1 67 1.000000
0  -3.331714 -10.256768 -3.028685  0.000000 0.000000 -1.000000  0.005598 0.763570 1 67 1.000000
0  -3.126811 -10.648114 -3.028685  0.000000 0.000000 -1.000000  0.005757 0.763866 1 67 1.000000
lowpoly_metal.004
0  -2.606122 -10.258962 -3.028685  0.000000 0.000000 -1.000000  0.006150 0.763566 1 67 1.000000
0  -2.872615 -10.555861 -3.028685  0.000000 0.000000 -1.000000  0.005950 0.763794 1 67 1.000000
0  -3.331714 -10.256768 -3.028685  0.000000 0.000000 -1.000000  0.005598 0.763570 1 67 1.000000
lowpoly_metal.004
0  -2.872615 -10.555861 -3.028685  0.000000 0.000000 -1.000000  0.005950 0.763794 1 67 1.000000
0  -2.606122 -10.520678 -3.028685  0.000000 0.000000 -1.000000  0.006152 0.763765 1 67 1.000000
0  -2.739764 -10.629262 -3.028685  0.000000 0.000000 -1.000000  0.006051 0.763849 1 67 1.000000
lowpoly_metal.004
0  -3.126811 -10.648114 -3.028685  -0.000001 0.000000 -1.000000  0.005757 0.763866 1 67 1.000000
0  -3.331714 -10.256768 -3.028685  -0.000001 0.000000 -1.000000  0.005598 0.763570 1 67 1.000000
0  -2.872615 -10.555861 -3.028685  -0.000001 0.000000 -1.000000  0.005950 0.763794 1 67 1.000000
lowpoly_metal.004
0  -3.264313 -10.930021 -3.028685  0.000000 0.000000 -1.000000  0.005654 0.764081 1 67 1.000000
0  -3.126811 -10.648114 -3.028685  0.000000 0.000000 -1.000000  0.005757 0.763866 1 67 1.000000
0  -3.183733 -11.200598 -3.028685  0.000000 0.000000 -1.000000  0.005718 0.764287 1 67 1.000000
lowpoly_metal.004
0  -3.332114 -10.870320 -3.028685  0.000000 0.000000 -1.000000  0.005602 0.764037 1 67 1.000000
0  -3.126811 -10.648114 -3.028685  0.000000 0.000000 -1.000000  0.005757 0.763866 1 67 1.000000
0  -3.264313 -10.930021 -3.028685  0.000000 0.000000 -1.000000  0.005654 0.764081 1 67 1.000000
lowpoly_metal.004
0  -2.872615 -10.555861 -3.028685  0.000000 0.000000 -1.000000  0.005950 0.763794 1 67 1.000000
0  -2.606122 -10.258962 -3.028685  0.000000 0.000000 -1.000000  0.006150 0.763566 1 67 1.000000
0  -2.606122 -10.520678 -3.028685  0.000000 0.000000 -1.000000  0.006152 0.763765 1 67 1.000000
lowpoly_metal.004
0  -2.606122 -10.520678 -3.028685  1.000000 0.000000 0.000000  0.852784 0.537912 1 67 1.000000
0  -2.606122 -10.258962 -2.903129  1.000000 0.000000 0.000000  0.852688 0.538111 1 67 1.000000
0  -2.606122 -10.520678 -2.903129  1.000000 0.000000 0.000000  0.852688 0.537912 1 67 1.000000
lowpoly_metal.004
0  -3.340075 -11.097186 -3.028685  -0.873222 -0.487322 0.000000  0.006380 0.765050 1 67 1.000000
0  -3.282363 -11.200598 -2.903129  -0.873222 -0.487322 0.000000  0.006351 0.765014 1 67 1.000000
0  -3.340075 -11.097186 -2.903129  -0.873222 -0.487322 0.000000  0.006380 0.765014 1 67 1.000000
lowpoly_metal.004
0  -3.282363 -11.200598 -3.028685  0.000000 -1.000000 0.000000  0.857264 0.536873 1 67 1.000000
0  -3.183733 -11.200598 -2.903129  0.000000 -1.000000 0.000000  0.857189 0.536777 1 67 1.000000
0  -3.282363 -11.200598 -2.903129  0.000000 -1.000000 0.000000  0.857264 0.536777 1 67 1.000000
lowpoly_metal.004
0  -2.872615 -10.555861 -3.028685  -0.483606 -0.875286 0.000000  0.856702 0.537882 1 67 1.000000
0  -2.739764 -10.629262 -2.903129  -0.483606 -0.875286 0.000000  0.856797 0.537784 1 67 1.000000
0  -2.872615 -10.555861 -2.903129  -0.483606 -0.875286 0.000000  0.856798 0.537882 1 67 1.000000
lowpoly_metal.004
0  -3.264313 -11.097186 -3.028685  0.000000 1.000000 0.000000  0.006630 0.765064 1 67 1.000000
0  -3.340075 -11.097186 -2.903129  0.000000 1.000000 0.000000  0.006609 0.765028 1 67 1.000000
0  -3.264313 -11.097186 -2.903129  0.000000 1.000000 0.000000  0.006630 0.765028 1 67 1.000000
lowpoly_metal.004
0  -3.332114 -10.870320 -3.028685  -0.660849 -0.750519 0.000000  0.007526 0.764587 1 67 1.000000
0  -3.264313 -10.930021 -2.903129  -0.660849 -0.750519 0.000000  0.007508 0.764551 1 67 1.000000
0  -3.332114 -10.870320 -2.903129  -0.660849 -0.750519 0.000000  0.007526 0.764551 1 67 1.000000
lowpoly_plastic.004
0  -3.890506 -10.491320 -2.948789  0.000000 0.000000 -1.000000  0.081032 0.872434 1 67 1.000000
0  -3.208304 -10.157846 -2.948789  0.000000 0.000000 -1.000000  0.081294 0.872306 1 67 1.000000
0  -3.208303 -10.491319 -2.948789  0.000000 0.000000 -1.000000  0.081294 0.872434 1 67 1.000000
lowpoly_plastic.004
0  -3.099492 -10.492036 -3.157415  -0.000690 0.001538 -0.999999  0.894956 0.510775 1 67 1.000000
0  -2.718327 -10.070376 -3.157030  -0.000690 0.001538 -0.999999  0.895103 0.510613 1 67 1.000000
0  -2.598426 -10.267414 -3.157415  -0.000690 0.001538 -0.999999  0.895149 0.510689 1 67 1.000000
lowpoly_plastic.004
0  -2.598426 -10.267414 -3.022781  0.854267 0.519835 0.000000  0.004427 0.764802 1 67 1.000000
0  -2.598426 -10.267414 -3.157415  0.854267 0.519835 0.000000  0.004427 0.764821 1 67 1.000000
0  -2.718327 -10.070376 -3.157030  0.854267 0.519835 0.000000  0.004398 0.764820 1 67 1.000000
lowpoly_plastic.004
0  -3.738958 -16.700617 -3.460006  -1.000000 -0.000001 0.000000  0.890733 0.513976 1 67 1.000000
0  -3.738958 -16.700617 -2.879448  -1.000000 -0.000001 0.000000  0.890510 0.513975 1 67 1.000000
0  -3.738959 -16.413818 -3.313172  -1.000000 -0.000001 0.000000  0.890678 0.513866 1 67 1.000000
lowpoly_plastic.004
0  -3.738960 -11.170845 -2.836253  -1.000000 0.000000 0.000000  0.888042 0.513627 1 67 1.000000
0  -3.738960 -10.891959 -2.836253  -1.000000 0.000000 0.000000  0.888043 0.513520 1 67 1.000000
0  -3.738960 -10.891959 -3.157415  -1.000000 0.000000 0.000000  0.888167 0.513521 1 67 1.000000
lowpoly_plastic.004
0  -3.236306 -10.690112 -2.836253  0.998279 -0.058649 0.000000  0.897678 0.515195 1 67 1.000000
0  -3.248165 -10.891959 -2.836253  0.998279 -0.058649 0.000000  0.897679 0.515118 1 67 1.000000
0  -3.236306 -10.690112 -2.907327  0.998279 -0.058649 0.000000  0.897705 0.515196 1 67 1.000000
lowpoly_plastic.004
0  -3.999317 -10.492036 -2.836253  -0.000003 0.000001 1.000000  0.899218 0.513581 1 67 1.000000
0  -3.835590 -10.690112 -2.836253  -0.000003 0.000001 1.000000  0.899281 0.513505 1 67 1.000000
0  -3.766168 -10.249778 -2.836253  -0.000003 0.000001 1.000000  0.899307 0.513674 1 67 1.000000
lowpoly_plastic.004
0  -3.236306 -10.690112 -2.836253  0.000003 0.000001 1.000000  0.899511 0.513505 1 67 1.000000
0  -3.099492 -10.492036 -2.836253  0.000003 0.000001 1.000000  0.899564 0.513581 1 67 1.000000
0  -3.332642 -10.249778 -2.836253  0.000003 0.000001 1.000000  0.899474 0.513674 1 67 1.000000
lowpoly_plastic.004
0  -3.332642 -10.249778 -2.711379  0.000000 0.000000 1.000000  0.926039 0.513961 1 67 1.000000
0  -2.748519 -10.110055 -2.711379  0.000000 0.000000 1.000000  0.926092 0.513737 1 67 1.000000
0  -4.350272 -10.110056 -2.711379  0.000000 0.000000 1.000000  0.926092 0.514352 1 67 1.000000
lowpoly_plastic.004
0  -3.658742 -10.891959 -3.157415  0.000000 0.000000 -1.000000  0.894741 0.510929 1 67 1.000000
0  -3.738960 -10.891959 -3.157415  0.000000 0.000000 -1.000000  0.894710 0.510929 1 67 1.000000
0  -3.835590 -10.690112 -3.157415  0.000000 0.000000 -1.000000  0.894673 0.510851 1 67 1.000000
lowpoly_plastic.004
0  -3.359847 -16.251282 -3.157415  1.000000 0.000000 0.000001  0.888382 0.515579 1 67 1.000000
0  -3.359849 -10.891959 -3.157415  1.000000 0.000000 0.000001  0.888366 0.513521 1 67 1.000000
0  -3.359849 -11.370952 -2.879448  1.000000 0.000000 0.000001  0.888474 0.513704 1 67 1.000000
lowpoly_plastic.004
0  -3.440067 -10.891959 -3.157415  -0.000003 0.000000 -1.000000  0.894825 0.510929 1 67 1.000000
0  -3.208303 -10.491319 -3.157415  -0.000003 0.000000 -1.000000  0.894914 0.510775 1 67 1.000000
0  -3.236306 -10.690112 -3.157415  -0.000003 0.000000 -1.000000  0.894903 0.510851 1 67 1.000000
lowpoly_plastic.004
0  -3.440065 -16.251282 -3.157415  -0.999856 -0.000661 0.016977  0.082759 0.874647 1 67 1.000000
0  -3.436263 -16.643673 -2.948789  -0.999856 -0.000661 0.016977  0.082678 0.874798 1 67 1.000000
0  -3.440067 -10.891959 -2.948789  -0.999856 -0.000661 0.016977  0.082681 0.872587 1 67 1.000000
lowpoly_plastic.004
0  -3.658741 -16.251282 -3.157415  1.000000 0.000000 0.000000  0.082598 0.874650 1 67 1.000000
0  -3.658742 -10.891959 -3.157415  1.000000 0.000000 0.000000  0.082596 0.872591 1 67 1.000000
0  -3.658742 -10.891959 -2.948789  1.000000 0.000000 0.000000  0.082676 0.872591 1 67 1.000000
lowpoly_plastic.004
0  -3.738960 -11.370952 -2.879448  -1.000000 -0.000000 -0.000001  0.888058 0.513704 1 67 1.000000
0  -3.738960 -10.891959 -3.157415  -1.000000 -0.000000 -0.000001  0.888167 0.513521 1 67 1.000000
0  -3.738959 -16.251282 -3.157415  -1.000000 -0.000000 -0.000001  0.888151 0.515581 1 67 1.000000
lowpoly_plastic.004
0  -3.359847 -16.700617 -3.460006  1.000000 0.000000 0.000000  0.890735 0.513975 1 67 1.000000
0  -3.359847 -16.413818 -3.460006  1.000000 0.000000 0.000000  0.890734 0.513865 1 67 1.000000
0  -3.359847 -16.413818 -3.313172  1.000000 0.000000 0.000000  0.890791 0.513865 1 67 1.000000
lowpoly_plastic.004
0  -3.738960 -10.891959 -2.836253  0.000000 -1.000000 0.000000  0.078780 0.875115 1 67 1.000000
0  -3.824594 -10.891959 -3.157415  0.000000 -1.000000 0.000000  0.078812 0.875239 1 67 1.000000
0  -3.738960 -10.891959 -3.157415  0.000000 -1.000000 0.000000  0.078780 0.875239 1 67 1.000000
lowpoly_plastic.004
0  -3.890506 -10.491320 -3.157415  0.865600 0.500735 0.000000  0.082598 0.872434 1 67 1.000000
0  -3.658742 -10.891959 -2.948789  0.865600 0.500735 0.000000  0.082676 0.872591 1 67 1.000000
0  -3.658742 -10.891959 -3.157415  0.865600 0.500735 0.000000  0.082596 0.872591 1 67 1.000000
lowpoly_plastic.004
0  -4.350272 -10.110056 -2.711379  0.000000 0.000000 1.000000  0.926092 0.514352 1 67 1.000000
0  -3.980524 -10.455950 -2.711379  0.000000 0.000000 1.000000  0.925959 0.514210 1 67 1.000000
0  -3.766168 -10.249778 -2.711379  0.000000 0.000000 1.000000  0.926039 0.514128 1 67 1.000000
lowpoly_plastic.004
0  -3.359849 -10.891959 -2.836253  0.000000 0.000000 1.000000  0.899464 0.513427 1 67 1.000000
0  -3.835590 -10.690112 -2.836253  0.000000 0.000000 1.000000  0.899281 0.513505 1 67 1.000000
0  -3.738960 -10.891959 -2.836253  0.000000 0.000000 1.000000  0.899318 0.513427 1 67 1.000000
lowpoly_plastic.004
0  -3.549403 -16.700617 -2.933639  0.000000 -1.000000 0.000019  0.891595 0.515309 1 67 1.000000
0  -3.359847 -16.700617 -2.879448  0.000000 -1.000000 0.000019  0.891522 0.515288 1 67 1.000000
0  -3.435145 -16.700617 -2.836253  0.000000 -1.000000 0.000019  0.891551 0.515272 1 67 1.000000
lowpoly_plastic.004
0  -3.440067 -10.891959 -2.948789  0.000000 0.000000 -1.000000  0.081205 0.872588 1 67 1.000000
0  -3.662542 -16.643673 -2.948789  0.000000 0.000000 -1.000000  0.081119 0.874799 1 67 1.000000
0  -3.658742 -10.891959 -2.948789  0.000000 0.000000 -1.000000  0.081121 0.872588 1 67 1.000000
lowpoly_plastic.004
0  -3.835590 -10.690112 -2.836253  0.000000 0.000001 1.000000  0.899281 0.513505 1 67 1.000000
0  -3.332642 -10.249778 -2.836253  0.000000 0.000001 1.000000  0.899474 0.513674 1 67 1.000000
0  -3.766168 -10.249778 -2.836253  0.000000 0.000001 1.000000  0.899307 0.513674 1 67 1.000000
lowpoly_metal.004
0  -3.331714 -10.256768 -3.028685  -1.000000 0.000653 0.000000  0.006160 0.764725 1 67 1.000000
0  -3.332114 -10.870320 -2.903129  -1.000000 0.000653 0.000000  0.006125 0.764898 1 67 1.000000
0  -3.331714 -10.256768 -2.903129  -1.000000 0.000653 0.000000  0.006125 0.764725 1 67 1.000000
lowpoly_metal.004
0  -2.606122 -10.258962 -3.028685  0.003023 0.999995 0.000000  0.852535 0.537155 1 67 1.000000
0  -3.331714 -10.256768 -2.903129  0.003023 0.999995 0.000000  0.852440 0.537707 1 67 1.000000
0  -2.606122 -10.258962 -2.903129  0.003023 0.999995 0.000000  0.852440 0.537155 1 67 1.000000
lowpoly_plastic.004
0  -3.359849 -11.170845 -2.836253  0.000000 0.000000 1.000000  0.899464 0.513320 1 67 1.000000
0  -3.738960 -10.891959 -2.836253  0.000000 0.000000 1.000000  0.899318 0.513427 1 67 1.000000
0  -3.738960 -11.170845 -2.836253  0.000000 0.000000 1.000000  0.899318 0.513320 1 67 1.000000
lowpoly_plastic.004
0  -3.099492 -10.492036 -3.157415  0.000003 -1.000000 0.000000  0.897496 0.514745 1 67 1.000000
0  -2.719850 -10.492035 -3.022781  0.000003 -1.000000 0.000000  0.897444 0.514891 1 67 1.000000
0  -3.099492 -10.492036 -3.022781  0.000003 -1.000000 0.000000  0.897444 0.514745 1 67 1.000000
lowpoly_plastic.004
0  -3.824594 -10.891959 -2.836253  -0.998519 -0.054395 0.000000  0.899387 0.515237 1 67 1.000000
0  -3.835590 -10.690112 -3.157415  -0.998519 -0.054395 0.000000  0.899263 0.515315 1 67 1.000000
0  -3.824594 -10.891959 -3.157415  -0.998519 -0.054395 0.000000  0.899263 0.515237 1 67 1.000000
lowpoly_plastic.004
0  -2.598426 -10.267414 -3.022781  -0.014401 -0.999896 0.000000  0.004669 0.764459 1 67 1.000000
0  -3.151602 -10.259447 -2.907327  -0.014401 -0.999896 0.000000  0.004652 0.764380 1 67 1.000000
0  -3.151602 -10.259447 -3.022781  -0.014401 -0.999896 0.000000  0.004669 0.764380 1 67 1.000000
lowpoly_plastic.004
0  -4.378941 -10.067119 -2.757566  -0.855136 0.518404 0.000000  0.003776 0.764754 1 67 1.000000
0  -4.500365 -10.267414 -3.157415  -0.855136 0.518404 0.000000  0.003748 0.764812 1 67 1.000000
0  -4.500365 -10.267414 -2.759411  -0.855136 0.518404 0.000000  0.003747 0.764755 1 67 1.000000
lowpoly_plastic.004
0  -3.359847 -16.413818 -3.460006  0.000000 0.000000 -1.000000  0.889076 0.515448 1 67 1.000000
0  -3.436263 -16.643673 -3.460006  0.000000 0.000000 -1.000000  0.889165 0.515477 1 67 1.000000
0  -3.440065 -16.413818 -3.460006  0.000000 0.000000 -1.000000  0.889076 0.515478 1 67 1.000000
lowpoly_plastic.004
0  -3.099492 -10.492036 -2.907327  0.822806 -0.568322 0.000000  0.897706 0.515270 1 67 1.000000
0  -3.236306 -10.690112 -2.836253  0.822806 -0.568322 0.000000  0.897678 0.515195 1 67 1.000000
0  -3.236306 -10.690112 -2.907327  0.822806 -0.568322 0.000000  0.897705 0.515196 1 67 1.000000
lowpoly_metal.004
0  -3.264313 -10.930021 -3.028685  -1.000000 -0.000003 0.000000  0.005533 0.765000 1 67 1.000000
0  -3.264313 -11.097186 -2.903129  -1.000000 -0.000003 0.000000  0.005498 0.765047 1 67 1.000000
0  -3.264313 -10.930021 -2.903129  -1.000000 -0.000003 0.000000  0.005498 0.765000 1 67 1.000000
lowpoly_plastic.004
0  -2.719850 -10.492035 -2.907327  0.000000 0.000000 -1.000000  0.004175 0.764713 1 67 1.000000
0  -3.151602 -10.259447 -2.907327  0.000000 0.000000 -1.000000  0.004142 0.764776 1 67 1.000000
0  -2.598426 -10.267414 -2.907327  0.000000 0.000000 -1.000000  0.004142 0.764696 1 67 1.000000
lowpoly_plastic.004
0  -3.099492 -10.492036 -3.022781  0.822807 -0.568321 0.000000  0.897750 0.515270 1 67 1.000000
0  -3.236306 -10.690112 -3.157415  0.822807 -0.568321 0.000000  0.897802 0.515197 1 67 1.000000
0  -3.099492 -10.492036 -3.157415  0.822807 -0.568321 0.000000  0.897802 0.515271 1 67 1.000000
lowpoly_plastic.004
0  -3.208304 -10.157846 -3.157415  0.000000 -1.000000 0.000000  0.079887 0.876212 1 67 1.000000
0  -3.890506 -10.157846 -2.948789  0.000000 -1.000000 0.000000  0.079807 0.875950 1 67 1.000000
0  -3.890506 -10.157846 -3.157415  0.000000 -1.000000 0.000000  0.079887 0.875950 1 67 1.000000
lowpoly_plastic.004
0  -3.208304 -10.157846 -3.157415  -1.000000 -0.000002 0.000000  0.082759 0.872306 1 67 1.000000
0  -3.208303 -10.491319 -2.948789  -1.000000 -0.000002 0.000000  0.082678 0.872434 1 67 1.000000
0  -3.208304 -10.157846 -2.948789  -1.000000 -0.000002 0.000000  0.082678 0.872306 1 67 1.000000
lowpoly_plastic.004
0  -3.890506 -10.157846 -3.157415  1.000000 0.000000 0.000000  0.082598 0.872306 1 67 1.000000
0  -3.890506 -10.491320 -2.948789  1.000000 0.000000 0.000000  0.082678 0.872434 1 67 1.000000
0  -3.890506 -10.491320 -3.157415  1.000000 0.000000 0.000000  0.082598 0.872434 1 67 1.000000
lowpoly_metal.004
0  -3.183733 -11.200598 -3.028685  0.994734 -0.102488 0.000000  0.859423 0.534611 1 67 1.000000
0  -3.126811 -10.648114 -2.903129  0.994734 -0.102488 0.000000  0.859328 0.535029 1 67 1.000000
0  -3.183733 -11.200598 -2.903129  0.994734 -0.102488 0.000000  0.859328 0.534610 1 67 1.000000
lowpoly_plastic.004
0  -3.766168 -10.249778 -2.836253  0.717495 -0.690519 0.091571  0.078392 0.874716 1 67 1.000000
0  -3.980524 -10.455950 -2.711379  0.717495 -0.690519 0.091571  0.078440 0.874803 1 67 1.000000
0  -3.999317 -10.492036 -2.836253  0.717495 -0.690519 0.091571  0.078392 0.874811 1 67 1.000000
lowpoly_plastic.004
0  -3.658741 -16.413818 -3.313172  0.999875 -0.015834 0.000445  0.891014 0.514148 1 67 1.000000
0  -3.662542 -16.643673 -2.948789  0.999875 -0.015834 0.000445  0.891155 0.514236 1 67 1.000000
0  -3.663395 -16.700617 -3.057240  0.999875 -0.015834 0.000445  0.891113 0.514258 1 67 1.000000
lowpoly_plastic.004
0  -2.598426 -10.267414 -3.022781  0.855137 0.518403 0.000000  0.004427 0.764802 1 67 1.000000
0  -2.719850 -10.067119 -2.757566  0.855137 0.518403 0.000000  0.004398 0.764763 1 67 1.000000
0  -2.598426 -10.267414 -2.907327  0.855137 0.518403 0.000000  0.004427 0.764785 1 67 1.000000
lowpoly_plastic.004
0  -4.378941 -10.067119 -2.757566  -0.610025 0.354804 0.708508  0.926109 0.514364 1 67 1.000000
0  -4.441808 -10.267438 -2.711379  -0.610025 0.354804 0.708508  0.926032 0.514388 1 67 1.000000
0  -4.350272 -10.110056 -2.711379  -0.610025 0.354804 0.708508  0.926092 0.514352 1 67 1.000000
lowpoly_plastic.004
0  -3.658742 -10.891959 -2.948789  0.000000 0.000000 -1.000000  0.081121 0.872588 1 67 1.000000
0  -3.208303 -10.491319 -2.948789  0.000000 0.000000 -1.000000  0.081294 0.872434 1 67 1.000000
0  -3.440067 -10.891959 -2.948789  0.000000 0.000000 -1.000000  0.081205 0.872588 1 67 1.000000
lowpoly_metal.004
0  -3.183733 -11.200598 -3.028685  0.000000 0.000000 -1.000000  0.005718 0.764287 1 67 1.000000
0  -3.340075 -11.097186 -3.028685  0.000000 0.000000 -1.000000  0.005598 0.764209 1 67 1.000000
0  -3.264313 -11.097186 -3.028685  0.000000 0.000000 -1.000000  0.005656 0.764209 1 67 1.000000
lowpoly_plastic.004
0  -3.435410 -16.700617 -3.057240  0.000000 -1.000000 0.000000  0.891551 0.515357 1 67 1.000000
0  -3.549403 -16.700617 -3.180841  0.000000 -1.000000 0.000000  0.891595 0.515404 1 67 1.000000
0  -3.435145 -16.700617 -3.460018  0.000000 -1.000000 0.000000  0.891551 0.515511 1 67 1.000000
lowpoly_plastic.004
0  -3.663662 -11.370952 -2.836253  -0.497595 -0.000000 0.867410  0.886558 0.515568 1 67 1.000000
0  -3.738960 -11.370952 -2.879448  -0.497595 -0.000000 0.867410  0.886529 0.515568 1 67 1.000000
0  -3.738958 -16.700617 -2.879448  -0.497595 -0.000000 0.867410  0.886529 0.513520 1 67 1.000000
lowpoly_plastic.004
0  -3.435145 -16.700617 -3.460018  0.000000 0.000197 -1.000000  0.889187 0.515477 1 67 1.000000
0  -3.663661 -16.700617 -3.460018  0.000000 0.000197 -1.000000  0.889187 0.515564 1 67 1.000000
0  -3.662542 -16.643673 -3.460006  0.000000 0.000197 -1.000000  0.889165 0.515564 1 67 1.000000
lowpoly_plastic.004
0  -3.738960 -10.891959 -3.157415  0.000000 0.000000 -1.000000  0.891416 0.510541 1 67 1.000000
0  -3.658742 -10.891959 -3.157415  0.000000 0.000000 -1.000000  0.891447 0.510541 1 67 1.000000
0  -3.658741 -16.251282 -3.157415  0.000000 0.000000 -1.000000  0.891447 0.512601 1 67 1.000000
lowpoly_plastic.004
0  -4.500365 -10.267414 -3.157415  -0.879695 -0.475538 0.000000  0.003748 0.764812 1 67 1.000000
0  -4.378941 -10.492036 -3.157415  -0.879695 -0.475538 0.000000  0.003716 0.764812 1 67 1.000000
0  -4.378941 -10.492036 -2.761256  -0.879695 -0.475538 0.000000  0.003715 0.764755 1 67 1.000000
lowpoly_plastic.004
0  -3.099492 -10.492036 -2.836253  -0.110529 -0.821438 0.559485  0.897972 0.515317 1 67 1.000000
0  -2.719850 -10.492035 -2.761256  -0.110529 -0.821438 0.559485  0.897943 0.515463 1 67 1.000000
0  -2.735548 -10.455950 -2.711379  -0.110529 -0.821438 0.559485  0.897924 0.515458 1 67 1.000000
lowpoly_plastic.004
0  -3.835590 -10.690112 -2.836253  -0.770772 -0.637111 0.000000  0.899387 0.515315 1 67 1.000000
0  -3.999317 -10.492036 -2.836253  -0.770772 -0.637111 0.000000  0.899385 0.515391 1 67 1.000000
0  -3.999317 -10.492036 -3.157415  -0.770772 -0.637111 0.000000  0.899261 0.515391 1 67 1.000000
lowpoly_plastic.004
0  -3.658741 -16.251282 -3.157415  0.000000 0.691889 -0.722004  0.888489 0.514118 1 67 1.000000
0  -3.658741 -16.413818 -3.313172  0.000000 0.691889 -0.722004  0.888489 0.514180 1 67 1.000000
0  -3.738959 -16.413818 -3.313172  0.000000 0.691889 -0.722004  0.888458 0.514180 1 67 1.000000
lowpoly_plastic.004
0  -3.236306 -10.690112 -2.907327  0.998279 -0.058652 0.000000  0.897705 0.515196 1 67 1.000000
0  -3.248165 -10.891959 -2.836253  0.998279 -0.058652 0.000000  0.897679 0.515118 1 67 1.000000
0  -3.248165 -10.891959 -3.157415  0.998279 -0.058652 0.000000  0.897802 0.515119 1 67 1.000000
lowpoly_plastic.004
0  -3.359849 -10.891959 -3.157415  0.000000 0.000000 -1.000000  0.891562 0.510541 1 67 1.000000
0  -3.359847 -16.251282 -3.157415  0.000000 0.000000 -1.000000  0.891562 0.512601 1 67 1.000000
0  -3.440065 -16.251282 -3.157415  0.000000 0.000000 -1.000000  0.891531 0.512601 1 67 1.000000
lowpoly_plastic.004
0  -3.236306 -10.690112 -3.022781  0.981202 -0.192985 0.000000  0.004017 0.764762 1 67 1.000000
0  -3.151602 -10.259447 -3.022781  0.981202 -0.192985 0.000000  0.004017 0.764823 1 67 1.000000
0  -3.151602 -10.259447 -2.907327  0.981202 -0.192985 0.000000  0.004000 0.764823 1 67 1.000000
lowpoly_plastic.004
0  -2.719850 -10.492035 -3.022781  0.879695 -0.475538 0.000000  0.004458 0.764802 1 67 1.000000
0  -2.719850 -10.492035 -3.157415  0.879695 -0.475538 0.000000  0.004458 0.764821 1 67 1.000000
0  -2.598426 -10.267414 -3.157415  0.879695 -0.475538 0.000000  0.004427 0.764821 1 67 1.000000
lowpoly_plastic.004
0  -3.099492 -10.492036 -2.836253  0.000003 -1.000000 0.000000  0.897972 0.515317 1 67 1.000000
0  -3.099492 -10.492036 -2.907327  0.000003 -1.000000 0.000000  0.898000 0.515317 1 67 1.000000
0  -2.719850 -10.492035 -2.907327  0.000003 -1.000000 0.000000  0.898000 0.515463 1 67 1.000000
lowpoly_plastic.004
0  -2.748519 -10.110055 -2.711379  0.000000 0.732408 0.680866  0.925669 0.515173 1 67 1.000000
0  -2.719850 -10.067119 -2.757566  0.000000 0.732408 0.680866  0.925687 0.515161 1 67 1.000000
0  -4.378941 -10.067119 -2.757566  0.000000 0.732408 0.680866  0.925687 0.515798 1 67 1.000000
lowpoly_plastic.004
0  -3.999317 -10.492036 -3.157415  0.000690 0.001538 -0.999999  0.894610 0.510775 1 67 1.000000
0  -4.500365 -10.267414 -3.157415  0.000690 0.001538 -0.999999  0.894418 0.510689 1 67 1.000000
0  -4.380465 -10.070377 -3.157030  0.000690 0.001538 -0.999999  0.894464 0.510613 1 67 1.000000
lowpoly_plastic.004
0  -3.435147 -11.370952 -2.836253  0.497595 0.000000 0.867410  0.886646 0.515568 1 67 1.000000
0  -3.435145 -16.700617 -2.836253  0.497595 0.000000 0.867410  0.886646 0.513520 1 67 1.000000
0  -3.359847 -16.700617 -2.879448  0.497595 0.000000 0.867410  0.886674 0.513520 1 67 1.000000
lowpoly_plastic.004
0  -3.359849 -10.891959 -3.157415  0.000000 -1.000000 0.000000  0.080486 0.872177 1 67 1.000000
0  -3.248165 -10.891959 -3.157415  0.000000 -1.000000 0.000000  0.080443 0.872177 1 67 1.000000
0  -3.248165 -10.891959 -2.836253  0.000000 -1.000000 0.000000  0.080443 0.872054 1 67 1.000000
lowpoly_plastic.004
0  -3.549403 -16.700617 -3.180841  0.000000 -1.000000 -0.000004  0.891595 0.515404 1 67 1.000000
0  -3.663395 -16.700617 -3.057240  0.000000 -1.000000 -0.000004  0.891639 0.515357 1 67 1.000000
0  -3.738958 -16.700617 -3.460006  0.000000 -1.000000 -0.000004  0.891668 0.515511 1 67 1.000000
lowpoly_plastic.004
0  -3.332642 -10.249778 -2.836253  -0.717495 -0.690519 0.091571  0.080222 0.875250 1 67 1.000000
0  -3.099492 -10.492036 -2.836253  -0.717495 -0.690519 0.091571  0.080222 0.875156 1 67 1.000000
0  -3.118285 -10.455950 -2.711379  -0.717495 -0.690519 0.091571  0.080270 0.875169 1 67 1.000000
lowpoly_plastic.004
0  -3.118285 -10.455950 -2.711379  0.000001 0.000000 1.000000  0.925959 0.513879 1 67 1.000000
0  -2.656983 -10.267437 -2.711379  0.000001 0.000000 1.000000  0.926032 0.513702 1 67 1.000000
0  -2.748519 -10.110055 -2.711379  0.000001 0.000000 1.000000  0.926092 0.513737 1 67 1.000000
lowpoly_plastic.004
0  -3.332642 -10.249778 -2.836253  0.000000 -1.000000 0.000000  0.078392 0.874550 1 67 1.000000
0  -3.332642 -10.249778 -2.711379  0.000000 -1.000000 0.000000  0.078440 0.874550 1 67 1.000000
0  -3.766168 -10.249778 -2.711379  0.000000 -1.000000 0.000000  0.078440 0.874716 1 67 1.000000
lowpoly_plastic.004
0  -2.719850 -10.492035 -2.761256  0.879694 -0.475540 0.000000  0.004459 0.764764 1 67 1.000000
0  -2.719850 -10.492035 -2.907327  0.879694 -0.475540 0.000000  0.004458 0.764785 1 67 1.000000
0  -2.598426 -10.267414 -2.907327  0.879694 -0.475540 0.000000  0.004427 0.764785 1 67 1.000000
lowpoly_plastic.004
0  -3.663662 -11.370952 -2.836253  0.000000 0.000000 1.000000  0.886558 0.515568 1 67 1.000000
0  -3.663661 -16.700617 -2.836253  0.000000 0.000000 1.000000  0.886558 0.513520 1 67 1.000000
0  -3.435145 -16.700617 -2.836253  0.000000 0.000000 1.000000  0.886646 0.513520 1 67 1.000000
lowpoly_plastic.004
0  -4.363244 -10.455951 -2.711379  0.110534 -0.821419 0.559511  0.897431 0.515195 1 67 1.000000
0  -4.378941 -10.492036 -2.761256  0.110534 -0.821419 0.559511  0.897412 0.515202 1 67 1.000000
0  -3.999317 -10.492036 -2.836253  0.110534 -0.821419 0.559511  0.897383 0.515056 1 67 1.000000
lowpoly_plastic.004
0  -2.598426 -10.267414 -2.759411  0.613200 -0.255556 0.747447  0.925756 0.515818 1 67 1.000000
0  -2.656983 -10.267437 -2.711379  0.613200 -0.255556 0.747447  0.925755 0.515799 1 67 1.000000
0  -2.735548 -10.455950 -2.711379  0.613200 -0.255556 0.747447  0.925826 0.515799 1 67 1.000000
lowpoly_plastic.004
0  -2.719850 -10.067119 -2.757566  0.610040 0.354808 0.708493  0.926109 0.513726 1 67 1.000000
0  -2.748519 -10.110055 -2.711379  0.610040 0.354808 0.708493  0.926092 0.513737 1 67 1.000000
0  -2.656983 -10.267437 -2.711379  0.610040 0.354808 0.708493  0.926032 0.513702 1 67 1.000000
lowpoly_plastic.004
0  -4.378941 -10.067119 -2.757566  0.000000 0.999967 -0.008158  0.004402 0.764757 1 67 1.000000
0  -2.719850 -10.067119 -2.757566  0.000000 0.999967 -0.008158  0.004402 0.764520 1 67 1.000000
0  -2.718327 -10.070376 -3.157030  0.000000 0.999967 -0.008158  0.004459 0.764520 1 67 1.000000
lowpoly_plastic.004
0  -3.999317 -10.492036 -2.836253  0.000000 -1.000000 0.000000  0.897383 0.515056 1 67 1.000000
0  -4.378941 -10.492036 -2.761256  0.000000 -1.000000 0.000000  0.897412 0.515202 1 67 1.000000
0  -4.378941 -10.492036 -3.157415  0.000000 -1.000000 0.000000  0.897260 0.515202 1 67 1.000000
lowpoly_plastic.004
0  -3.663662 -11.370952 -2.836253  0.000000 0.000000 1.000000  0.899347 0.513243 1 67 1.000000
0  -3.435147 -11.370952 -2.836253  0.000000 0.000000 1.000000  0.899435 0.513243 1 67 1.000000
0  -3.359849 -11.170845 -2.836253  0.000000 0.000000 1.000000  0.899464 0.513320 1 67 1.000000
lowpoly_plastic.004
0  -3.151602 -10.259447 -3.022781  0.000000 0.000000 1.000000  0.003610 0.764784 1 67 1.000000
0  -3.099492 -10.492036 -3.022781  0.000000 0.000000 1.000000  0.003577 0.764776 1 67 1.000000
0  -2.719850 -10.492035 -3.022781  0.000000 0.000000 1.000000  0.003578 0.764722 1 67 1.000000
lowpoly_plastic.004
0  -3.663395 -16.700617 -3.057240  0.000000 -1.000000 0.000000  0.891639 0.515357 1 67 1.000000
0  -3.549403 -16.700617 -2.933639  0.000000 -1.000000 0.000000  0.891595 0.515309 1 67 1.000000
0  -3.663661 -16.700617 -2.836253  0.000000 -1.000000 0.000000  0.891639 0.515272 1 67 1.000000
lowpoly_plastic.004
0  -3.738959 -16.413818 -3.460006  0.000000 0.000000 -1.000000  0.889076 0.515593 1 67 1.000000
0  -3.658741 -16.413818 -3.460006  0.000000 0.000000 -1.000000  0.889076 0.515562 1 67 1.000000
0  -3.662542 -16.643673 -3.460006  0.000000 0.000000 -1.000000  0.889165 0.515564 1 67 1.000000
lowpoly_plastic.004
0  -3.658741 -16.413818 -3.313172  0.000000 1.000000 0.000000  0.889047 0.515612 1 67 1.000000
0  -3.658741 -16.413818 -3.460006  0.000000 1.000000 0.000000  0.889047 0.515669 1 67 1.000000
0  -3.738959 -16.413818 -3.460006  0.000000 1.000000 0.000000  0.889017 0.515669 1 67 1.000000
lowpoly_plastic.004
0  -3.359847 -16.413818 -3.313172  0.000000 1.000000 0.000000  0.890145 0.515615 1 67 1.000000
0  -3.359847 -16.413818 -3.460006  0.000000 1.000000 0.000000  0.890145 0.515671 1 67 1.000000
0  -3.440065 -16.413818 -3.460006  0.000000 1.000000 0.000000  0.890114 0.515671 1 67 1.000000
lowpoly_plastic.004
0  -4.363244 -10.455951 -2.711379  -0.613199 -0.255556 0.747448  0.923856 0.515775 1 67 1.000000
0  -4.441808 -10.267438 -2.711379  -0.613199 -0.255556 0.747448  0.923928 0.515775 1 67 1.000000
0  -4.500365 -10.267414 -2.759411  -0.613199 -0.255556 0.747448  0.923929 0.515794 1 67 1.000000
lowpoly_metal.004
0  -2.739764 -10.629262 -3.028685  0.630594 -0.776113 0.000000  0.856701 0.537784 1 67 1.000000
0  -2.606122 -10.520678 -3.028685  0.630594 -0.776113 0.000000  0.856702 0.537678 1 67 1.000000
0  -2.606122 -10.520678 -2.903129  0.630594 -0.776113 0.000000  0.856798 0.537678 1 67 1.000000
lowpoly_metal.004
0  -3.126811 -10.648114 -3.028685  0.341152 -0.940008 0.000000  0.856702 0.538079 1 67 1.000000
0  -2.872615 -10.555861 -3.028685  0.341152 -0.940008 0.000000  0.856702 0.537882 1 67 1.000000
0  -2.872615 -10.555861 -2.903129  0.341152 -0.940008 0.000000  0.856798 0.537882 1 67 1.000000
lowpoly_plastic.004
0  -3.435410 -16.700617 -3.057240  -0.999939 -0.010844 -0.002176  0.891196 0.514256 1 67 1.000000
0  -3.436263 -16.643673 -2.948789  -0.999939 -0.010844 -0.002176  0.891155 0.514234 1 67 1.000000
0  -3.440065 -16.251282 -3.157415  -0.999939 -0.010844 -0.002176  0.891235 0.514084 1 67 1.000000
lowpoly_plastic.004
0  -3.208303 -10.491319 -3.157415  -0.865600 0.500735 0.000000  0.082758 0.872434 1 67 1.000000
0  -3.440067 -10.891959 -3.157415  -0.865600 0.500735 0.000000  0.082761 0.872587 1 67 1.000000
0  -3.440067 -10.891959 -2.948789  -0.865600 0.500735 0.000000  0.082681 0.872587 1 67 1.000000
lowpoly_plastic.004
0  -3.359847 -16.251282 -3.157415  0.000000 0.691889 -0.722004  0.888604 0.514118 1 67 1.000000
0  -3.359847 -16.413818 -3.313172  0.000000 0.691889 -0.722004  0.888604 0.514180 1 67 1.000000
0  -3.440065 -16.413818 -3.313172  0.000000 0.691889 -0.722004  0.888573 0.514180 1 67 1.000000
lowpoly_metal.004
0  -3.183733 -11.200598 -2.903129  0.000000 0.000000 1.000000  0.891734 0.538105 1 67 1.000000
0  -3.264313 -11.097186 -2.903129  0.000000 0.000000 1.000000  0.891672 0.538183 1 67 1.000000
0  -3.340075 -11.097186 -2.903129  0.000000 0.000000 1.000000  0.891614 0.538182 1 67 1.000000
lowpoly_metal.004
0  -2.606122 -10.520678 -3.028685  1.000000 0.000002 0.000000  0.852784 0.537912 1 67 1.000000
0  -2.606122 -10.258962 -3.028685  1.000000 0.000002 0.000000  0.852784 0.538111 1 67 1.000000
0  -2.606122 -10.258962 -2.903129  1.000000 0.000002 0.000000  0.852688 0.538111 1 67 1.000000
lowpoly_metal.004
0  -3.340075 -11.097186 -3.028685  -0.873220 -0.487325 0.000000  0.006380 0.765050 1 67 1.000000
0  -3.282363 -11.200598 -3.028685  -0.873220 -0.487325 0.000000  0.006351 0.765050 1 67 1.000000
0  -3.282363 -11.200598 -2.903129  -0.873220 -0.487325 0.000000  0.006351 0.765014 1 67 1.000000
lowpoly_metal.004
0  -3.282363 -11.200598 -3.028685  0.000000 -1.000000 0.000000  0.857264 0.536873 1 67 1.000000
0  -3.183733 -11.200598 -3.028685  0.000000 -1.000000 0.000000  0.857189 0.536873 1 67 1.000000
0  -3.183733 -11.200598 -2.903129  0.000000 -1.000000 0.000000  0.857189 0.536777 1 67 1.000000
lowpoly_metal.004
0  -2.872615 -10.555861 -3.028685  -0.483606 -0.875286 0.000000  0.856702 0.537882 1 67 1.000000
0  -2.739764 -10.629262 -3.028685  -0.483606 -0.875286 0.000000  0.856701 0.537784 1 67 1.000000
0  -2.739764 -10.629262 -2.903129  -0.483606 -0.875286 0.000000  0.856797 0.537784 1 67 1.000000
lowpoly_metal.004
0  -3.264313 -11.097186 -3.028685  0.000000 1.000000 0.000000  0.006630 0.765064 1 67 1.000000
0  -3.340075 -11.097186 -3.028685  0.000000 1.000000 0.000000  0.006609 0.765064 1 67 1.000000
0  -3.340075 -11.097186 -2.903129  0.000000 1.000000 0.000000  0.006609 0.765028 1 67 1.000000
lowpoly_metal.004
0  -3.332114 -10.870320 -3.028685  -0.660851 -0.750517 0.000000  0.007526 0.764587 1 67 1.000000
0  -3.264313 -10.930021 -3.028685  -0.660851 -0.750517 0.000000  0.007508 0.764587 1 67 1.000000
0  -3.264313 -10.930021 -2.903129  -0.660851 -0.750517 0.000000  0.007508 0.764551 1 67 1.000000
lowpoly_plastic.004
0  -3.890506 -10.491320 -2.948789  0.000000 0.000000 -1.000000  0.081032 0.872434 1 67 1.000000
0  -3.890506 -10.157846 -2.948789  0.000000 0.000000 -1.000000  0.081032 0.872306 1 67 1.000000
0  -3.208304 -10.157846 -2.948789  0.000000 0.000000 -1.000000  0.081294 0.872306 1 67 1.000000
lowpoly_plastic.004
0  -3.099492 -10.492036 -3.157415  0.000745 0.000242 -1.000000  0.894956 0.510775 1 67 1.000000
0  -3.208304 -10.157846 -3.157415  0.000745 0.000242 -1.000000  0.894914 0.510647 1 67 1.000000
0  -2.718327 -10.070376 -3.157030  0.000745 0.000242 -1.000000  0.895103 0.510613 1 67 1.000000
lowpoly_plastic.004
0  -3.738960 -10.891959 -2.836253  0.000000 -1.000000 0.000000  0.078780 0.875115 1 67 1.000000
0  -3.824594 -10.891959 -2.836253  0.000000 -1.000000 0.000000  0.078812 0.875115 1 67 1.000000
0  -3.824594 -10.891959 -3.157415  0.000000 -1.000000 0.000000  0.078812 0.875239 1 67 1.000000
lowpoly_plastic.004
0  -3.890506 -10.491320 -3.157415  0.865600 0.500737 0.000000  0.082598 0.872434 1 67 1.000000
0  -3.890506 -10.491320 -2.948789  0.865600 0.500737 0.000000  0.082678 0.872434 1 67 1.000000
0  -3.658742 -10.891959 -2.948789  0.865600 0.500737 0.000000  0.082676 0.872591 1 67 1.000000
lowpoly_plastic.004
0  -4.350272 -10.110056 -2.711379  -0.000001 0.000000 1.000000  0.926092 0.514352 1 67 1.000000
0  -4.441808 -10.267438 -2.711379  -0.000001 0.000000 1.000000  0.926032 0.514388 1 67 1.000000
0  -3.980524 -10.455950 -2.711379  -0.000001 0.000000 1.000000  0.925959 0.514210 1 67 1.000000
lowpoly_plastic.004
0  -3.359849 -10.891959 -2.836253  0.000000 0.000000 1.000000  0.899464 0.513427 1 67 1.000000
0  -3.236306 -10.690112 -2.836253  0.000000 0.000000 1.000000  0.899511 0.513505 1 67 1.000000
0  -3.835590 -10.690112 -2.836253  0.000000 0.000000 1.000000  0.899281 0.513505 1 67 1.000000
lowpoly_plastic.004
0  -3.549403 -16.700617 -2.933639  0.000000 -1.000000 0.000000  0.891595 0.515309 1 67 1.000000
0  -3.435410 -16.700617 -3.057240  0.000000 -1.000000 0.000000  0.891551 0.515357 1 67 1.000000
0  -3.359847 -16.700617 -2.879448  0.000000 -1.000000 0.000000  0.891522 0.515288 1 67 1.000000
lowpoly_plastic.004
0  -3.440067 -10.891959 -2.948789  0.000000 0.000000 -1.000000  0.081205 0.872588 1 67 1.000000
0  -3.436263 -16.643673 -2.948789  0.000000 0.000000 -1.000000  0.081206 0.874799 1 67 1.000000
0  -3.662542 -16.643673 -2.948789  0.000000 0.000000 -1.000000  0.081119 0.874799 1 67 1.000000
lowpoly_plastic.004
0  -3.835590 -10.690112 -2.836253  0.000000 0.000001 1.000000  0.899281 0.513505 1 67 1.000000
0  -3.236306 -10.690112 -2.836253  0.000000 0.000001 1.000000  0.899511 0.513505 1 67 1.000000
0  -3.332642 -10.249778 -2.836253  0.000000 0.000001 1.000000  0.899474 0.513674 1 67 1.000000
lowpoly_metal.004
0  -3.331714 -10.256768 -3.028685  -1.000000 0.000653 0.000000  0.006160 0.764725 1 67 1.000000
0  -3.332114 -10.870320 -3.028685  -1.000000 0.000653 0.000000  0.006160 0.764898 1 67 1.000000
0  -3.332114 -10.870320 -2.903129  -1.000000 0.000653 0.000000  0.006125 0.764898 1 67 1.000000
lowpoly_metal.004
0  -2.606122 -10.258962 -3.028685  0.003023 0.999995 0.000000  0.852535 0.537155 1 67 1.000000
0  -3.331714 -10.256768 -3.028685  0.003023 0.999995 0.000000  0.852535 0.537707 1 67 1.000000
0  -3.331714 -10.256768 -2.903129  0.003023 0.999995 0.000000  0.852440 0.537707 1 67 1.000000
lowpoly_plastic.004
0  -3.359849 -11.170845 -2.836253  0.000000 0.000000 1.000000  0.899464 0.513320 1 67 1.000000
0  -3.359849 -10.891959 -2.836253  0.000000 0.000000 1.000000  0.899464 0.513427 1 67 1.000000
0  -3.738960 -10.891959 -2.836253  0.000000 0.000000 1.000000  0.899318 0.513427 1 67 1.000000
lowpoly_plastic.004
0  -3.099492 -10.492036 -3.157415  0.000003 -1.000000 0.000000  0.897496 0.514745 1 67 1.000000
0  -2.719850 -10.492035 -3.157415  0.000003 -1.000000 0.000000  0.897496 0.514891 1 67 1.000000
0  -2.719850 -10.492035 -3.022781  0.000003 -1.000000 0.000000  0.897444 0.514891 1 67 1.000000
lowpoly_plastic.004
0  -3.824594 -10.891959 -2.836253  -0.998519 -0.054395 0.000000  0.899387 0.515237 1 67 1.000000
0  -3.835590 -10.690112 -2.836253  -0.998519 -0.054395 0.000000  0.899387 0.515315 1 67 1.000000
0  -3.835590 -10.690112 -3.157415  -0.998519 -0.054395 0.000000  0.899263 0.515315 1 67 1.000000
lowpoly_plastic.004
0  -2.598426 -10.267414 -3.022781  -0.014401 -0.999896 0.000000  0.004669 0.764459 1 67 1.000000
0  -2.598426 -10.267414 -2.907327  -0.014401 -0.999896 0.000000  0.004652 0.764459 1 67 1.000000
0  -3.151602 -10.259447 -2.907327  -0.014401 -0.999896 0.000000  0.004652 0.764380 1 67 1.000000
lowpoly_plastic.004
0  -4.378941 -10.067119 -2.757566  -0.854265 0.519836 -0.000981  0.003776 0.764754 1 67 1.000000
0  -4.380465 -10.070377 -3.157030  -0.854265 0.519836 -0.000981  0.003776 0.764811 1 67 1.000000
0  -4.500365 -10.267414 -3.157415  -0.854265 0.519836 -0.000981  0.003748 0.764812 1 67 1.000000
lowpoly_plastic.004
0  -3.359847 -16.413818 -3.460006  -0.000001 0.000000 -1.000000  0.889076 0.515448 1 67 1.000000
0  -3.359847 -16.700617 -3.460006  -0.000001 0.000000 -1.000000  0.889187 0.515448 1 67 1.000000
0  -3.436263 -16.643673 -3.460006  -0.000001 0.000000 -1.000000  0.889165 0.515477 1 67 1.000000
lowpoly_plastic.004
0  -3.099492 -10.492036 -2.907327  0.822806 -0.568322 0.000000  0.897706 0.515270 1 67 1.000000
0  -3.099492 -10.492036 -2.836253  0.822806 -0.568322 0.000000  0.897679 0.515270 1 67 1.000000
0  -3.236306 -10.690112 -2.836253  0.822806 -0.568322 0.000000  0.897678 0.515195 1 67 1.000000
lowpoly_metal.004
0  -3.264313 -10.930021 -3.028685  -1.000000 0.000000 0.000000  0.005533 0.765000 1 67 1.000000
0  -3.264313 -11.097186 -3.028685  -1.000000 0.000000 0.000000  0.005533 0.765047 1 67 1.000000
0  -3.264313 -11.097186 -2.903129  -1.000000 0.000000 0.000000  0.005498 0.765047 1 67 1.000000
lowpoly_plastic.004
0  -2.719850 -10.492035 -2.907327  0.000000 0.000000 -1.000000  0.004175 0.764713 1 67 1.000000
0  -3.099492 -10.492036 -2.907327  0.000000 0.000000 -1.000000  0.004175 0.764768 1 67 1.000000
0  -3.151602 -10.259447 -2.907327  0.000000 0.000000 -1.000000  0.004142 0.764776 1 67 1.000000
lowpoly_plastic.004
0  -3.099492 -10.492036 -3.022781  0.822803 -0.568326 0.000000  0.897750 0.515270 1 67 1.000000
0  -3.236306 -10.690112 -3.022781  0.822803 -0.568326 0.000000  0.897750 0.515196 1 67 1.000000
0  -3.236306 -10.690112 -3.157415  0.822803 -0.568326 0.000000  0.897802 0.515197 1 67 1.000000
lowpoly_plastic.004
0  -3.208304 -10.157846 -3.157415  0.000000 -1.000000 0.000000  0.079887 0.876212 1 67 1.000000
0  -3.208304 -10.157846 -2.948789  0.000000 -1.000000 0.000000  0.079807 0.876212 1 67 1.000000
0  -3.890506 -10.157846 -2.948789  0.000000 -1.000000 0.000000  0.079807 0.875950 1 67 1.000000
lowpoly_plastic.004
0  -3.208304 -10.157846 -3.157415  -1.000000 0.000000 0.000000  0.082759 0.872306 1 67 1.000000
0  -3.208303 -10.491319 -3.157415  -1.000000 0.000000 0.000000  0.082758 0.872434 1 67 1.000000
0  -3.208303 -10.491319 -2.948789  -1.000000 0.000000 0.000000  0.082678 0.872434 1 67 1.000000
lowpoly_plastic.004
0  -3.890506 -10.157846 -3.157415  1.000000 0.000002 0.000000  0.082598 0.872306 1 67 1.000000
0  -3.890506 -10.157846 -2.948789  1.000000 0.000002 0.000000  0.082678 0.872306 1 67 1.000000
0  -3.890506 -10.491320 -2.948789  1.000000 0.000002 0.000000  0.082678 0.872434 1 67 1.000000
lowpoly_metal.004
0  -3.183733 -11.200598 -3.028685  0.994734 -0.102487 0.000000  0.859423 0.534611 1 67 1.000000
0  -3.126811 -10.648114 -3.028685  0.994734 -0.102487 0.000000  0.859423 0.535030 1 67 1.000000
0  -3.126811 -10.648114 -2.903129  0.994734 -0.102487 0.000000  0.859328 0.535029 1 67 1.000000
lowpoly_plastic.004
0  -3.766168 -10.249778 -2.836253  0.693213 -0.720732 0.000000  0.078392 0.874716 1 67 1.000000
0  -3.766168 -10.249778 -2.711379  0.693213 -0.720732 0.000000  0.078440 0.874716 1 67 1.000000
0  -3.980524 -10.455950 -2.711379  0.693213 -0.720732 0.000000  0.078440 0.874803 1 67 1.000000
lowpoly_plastic.004
0  -3.658741 -16.413818 -3.313172  0.999959 -0.006229 0.006502  0.891014 0.514148 1 67 1.000000
0  -3.658741 -16.251282 -3.157415  0.999959 -0.006229 0.006502  0.891074 0.514086 1 67 1.000000
0  -3.662542 -16.643673 -2.948789  0.999959 -0.006229 0.006502  0.891155 0.514236 1 67 1.000000
lowpoly_plastic.004
0  -2.598426 -10.267414 -3.022781  0.854561 0.519351 -0.000978  0.004427 0.764802 1 67 1.000000
0  -2.718327 -10.070376 -3.157030  0.854561 0.519351 -0.000978  0.004398 0.764820 1 67 1.000000
0  -2.719850 -10.067119 -2.757566  0.854561 0.519351 -0.000978  0.004398 0.764763 1 67 1.000000
lowpoly_plastic.004
0  -4.378941 -10.067119 -2.757566  -0.593298 0.353001 0.723455  0.926109 0.514364 1 67 1.000000
0  -4.500365 -10.267414 -2.759411  -0.593298 0.353001 0.723455  0.926032 0.514410 1 67 1.000000
0  -4.441808 -10.267438 -2.711379  -0.593298 0.353001 0.723455  0.926032 0.514388 1 67 1.000000
lowpoly_plastic.004
0  -3.658742 -10.891959 -2.948789  -0.000000 0.000000 -1.000000  0.081121 0.872588 1 67 1.000000
0  -3.890506 -10.491320 -2.948789  -0.000000 0.000000 -1.000000  0.081032 0.872434 1 67 1.000000
0  -3.208303 -10.491319 -2.948789  -0.000000 0.000000 -1.000000  0.081294 0.872434 1 67 1.000000
lowpoly_metal.004
0  -3.183733 -11.200598 -3.028685  0.000000 0.000000 -1.000000  0.005718 0.764287 1 67 1.000000
0  -3.282363 -11.200598 -3.028685  0.000000 0.000000 -1.000000  0.005643 0.764288 1 67 1.000000
0  -3.340075 -11.097186 -3.028685  0.000000 0.000000 -1.000000  0.005598 0.764209 1 67 1.000000
end
