version 1
nodes
0 "ValveBiped.Bip01_Spine4" -1
1 "ValveBiped.Bip01_L_Clavicle" 0
2 "ValveBiped.Bip01_L_UpperArm" 1
3 "ValveBiped.Bip01_L_Forearm" 2
4 "ValveBiped.Bip01_L_Hand" 3
5 "ValveBiped.Bip01_L_Finger4" 4
6 "ValveBiped.Bip01_L_Finger41" 5
7 "ValveBiped.Bip01_L_Finger42" 6
8 "ValveBiped.Bip01_L_Finger3" 4
9 "ValveBiped.Bip01_L_Finger31" 8
10 "ValveBiped.Bip01_L_Finger32" 9
11 "ValveBiped.Bip01_L_Finger2" 4
12 "ValveBiped.Bip01_L_Finger21" 11
13 "ValveBiped.Bip01_L_Finger22" 12
14 "ValveBiped.Bip01_L_Finger1" 4
15 "ValveBiped.Bip01_L_Finger11" 14
16 "ValveBiped.Bip01_L_Finger12" 15
17 "ValveBiped.Bip01_L_Finger0" 4
18 "ValveBiped.Bip01_L_Finger01" 17
19 "ValveBiped.Bip01_L_Finger02" 18
20 "ValveBiped.Bip01_L_Ulna" 3
21 "ValveBiped.Bip01_L_Wrist" 3
22 "rig_l_upperarm" 1
23 "rig_l_forearm" 22
24 "rig_d_l_forearm" 23
25 "rig_d_l_upperarm" 22
26 "ValveBiped.Bip01_R_Clavicle" 0
27 "ValveBiped.Bip01_R_UpperArm" 26
28 "ValveBiped.Bip01_R_Forearm" 27
29 "ValveBiped.Bip01_R_Hand" 28
30 "ValveBiped.Bip01_R_Finger4" 29
31 "ValveBiped.Bip01_R_Finger41" 30
32 "ValveBiped.Bip01_R_Finger42" 31
33 "ValveBiped.Bip01_R_Finger3" 29
34 "ValveBiped.Bip01_R_Finger31" 33
35 "ValveBiped.Bip01_R_Finger32" 34
36 "ValveBiped.Bip01_R_Finger2" 29
37 "ValveBiped.Bip01_R_Finger21" 36
38 "ValveBiped.Bip01_R_Finger22" 37
39 "ValveBiped.Bip01_R_Finger1" 29
40 "ValveBiped.Bip01_R_Finger11" 39
41 "ValveBiped.Bip01_R_Finger12" 40
42 "ValveBiped.Bip01_R_Finger0" 29
43 "ValveBiped.Bip01_R_Finger01" 42
44 "ValveBiped.Bip01_R_Finger02" 43
45 "ValveBiped.Bip01_R_Ulna" 28
46 "ValveBiped.Bip01_R_Wrist" 28
47 "rig_r_upperarm" 26
48 "rig_r_forearm" 47
49 "rig_d_r_forearm" 48
50 "rig_d_r_upperarm" 47
51 "rig_r_hand" -1
52 "rig_d_r_hand" 51
53 "rig_d_r_wrist" 52
54 "rig_l_hand" -1
55 "rig_d_l_hand" 54
56 "rig_d_l_wrist" 54
57 "rig_l_pole" -1
58 "rig_r_pole" -1
59 "rig_l_clavicle" -1
60 "rig_d_l_clavicle" 59
61 "rig_r_clavicle" -1
62 "rig_d_r_clavicle" 61
63 "Camera" -1
64 "body" -1
65 "trigger" 64
66 "bolt" 64
67 "chandle" 64
68 "barrel" 64
69 "magrel" 64
70 "boltrelease" 64
71 "dustcover" 64
72 "bullet1" 64
73 "laser" 64
74 "selector" 64
75 "magrel_ar57" 64
76 "mag" -1
77 "bullet2" 76
78 "bullet3" 76
79 "ar57_mag" -1
80 "round1" 79
81 "round2" 79
82 "round3" 79
83 "round4" 79
84 "round5" 79
85 "round6" 79
86 "round7" 79
87 "round8" 79
88 "round9" 79
89 "round10" 79
90 "round11" 79
91 "round12" 79
92 "round13" 79
93 "round14" 79
94 "round15" 79
95 "round16" 79
96 "round17" 79
97 "round18" 79
98 "round19" 79
99 "round20" 79
100 "round21" 79
101 "round22" 79
102 "round23" 79
103 "round24" 79
104 "round25" 79
105 "round26" 79
106 "round27" 79
107 "round28" 79
108 "round29" 79
109 "round30" 79
110 "round31" 79
111 "round32" 79
112 "round33" 79
113 "round34" 79
114 "round35" 79
115 "round36" 79
116 "round37" 79
117 "round38" 79
118 "round39" 79
119 "round40" 79
120 "round41" 79
121 "round42" 79
122 "round43" 79
123 "round44" 79
124 "round45" 79
125 "round46" 79
126 "round47" 79
127 "round48" 79
128 "round49" 79
129 "round50" 79
130 "springstart" 79
131 "springend" 130
end
skeleton
time 0
0  0.000006 0.000000 0.000000  -1.570800 -1.391899 -1.570792
1  -4.264289 -0.706028 0.654504  -1.544956 -1.855077 -0.198630
2  6.027524 -0.000324 0.000190  -0.940894 -1.010006 -1.349178
3  11.692109 0.000645 -0.000738  -0.925348 -0.000016 -1.351118
4  11.480163 0.000342 -0.000766  1.197647 -0.583624 0.291322
5  3.859504 -0.142823 -1.192079  -0.776638 -0.061608 -1.579277
6  1.312591 0.000009 0.000008  -0.133330 -0.022631 -0.159473
7  0.729357 0.000054 0.000049  0.000011 0.000024 -0.486779
8  3.942141 0.046331 -0.431543  -0.676461 0.339625 -1.116093
9  1.539111 0.000083 0.000003  -0.021747 -0.084031 -0.720969
10  1.196333 0.000146 0.000029  0.007458 0.001458 -0.849778
11  3.883511 -0.047211 0.431351  -0.341939 0.543315 -0.623250
12  1.719573 -0.000029 0.000017  -0.043234 -0.102278 -0.735897
13  1.209178 0.000088 0.000011  -0.004830 -0.003862 -0.898841
14  3.859677 -0.138418 1.332380  -0.027249 0.655333 -0.061922
15  1.719449 -0.000018 0.000030  -0.047003 0.033250 -0.381732
16  1.099677 0.000049 0.000006  -0.003557 0.001913 -1.061225
17  0.722613 -0.801322 1.198804  -0.993087 -0.448196 -0.282035
18  1.789818 -0.000003 -0.000018  0.005781 0.046146 0.353612
19  1.207015 -0.000013 -0.000044  -0.006137 -0.000810 0.370363
20  5.740638 0.000389 -0.000699  -0.109974 0.000003 0.000063
21  11.481040 0.000246 -0.000806  -0.051659 -0.104101 0.023917
22  6.027525 -0.000330 0.000200  1.718438 -0.543110 1.512175
23  0.000000 11.692100 -0.000006  -0.940439 -0.395896 -0.751686
24  0.000002 0.000008 0.000001  -0.056254 -0.000030 1.570739
25  0.000000 -0.000011 0.000000  0.868960 0.000002 1.570712
26  -6.617934 -9.178503 0.826812  1.473120 1.855075 -0.198639
27  6.027514 -0.000259 -0.000222  1.500264 0.794616 -0.719695
28  11.691992 0.000160 0.000858  0.141449 0.000068 -1.782027
29  11.479844 -0.000572 0.000914  -1.122553 0.479818 0.914592
30  3.859437 -0.132758 1.193064  0.469647 -0.013262 -1.872395
31  1.312559 0.000025 -0.000001  0.024060 -0.138696 -0.550187
32  0.729345 0.000064 -0.000028  -0.166197 -0.081570 -0.714272
33  3.942047 0.050139 0.431000  0.225309 -0.086237 -1.592712
34  1.539097 0.000007 -0.000001  0.035254 -0.050373 -0.994350
35  1.196301 0.000078 -0.000003  -0.021521 0.002175 -0.839738
36  3.883414 -0.050472 -0.431084  0.184824 -0.271737 -1.204030
37  1.719563 -0.000084 -0.000004  0.022858 -0.107186 -1.509108
38  1.209198 0.000035 0.000011  0.000661 0.071072 -0.480462
39  3.859589 -0.149082 -1.331321  -0.119219 -0.140845 -0.471563
40  1.719413 -0.000098 -0.000036  -0.007972 -0.023824 -1.231103
41  1.099674 0.000024 0.000006  -0.003780 -0.008463 -0.656665
42  0.805984 -0.359847 -1.318338  0.991670 0.166767 -0.799527
43  1.789781 -0.000008 -0.000043  0.000058 -0.002451 0.133098
44  1.206996 -0.000007 0.000005  0.000372 -0.000071 1.058781
45  5.740575 0.000078 0.000721  0.173278 -0.000014 0.000028
46  11.480914 -0.000042 0.000928  0.050267 0.103228 0.145026
47  6.027515 -0.000273 -0.000230  -0.957963 -0.510858 -1.682999
48  -0.000002 11.691977 -0.000005  -1.195079 0.639022 0.905003
49  0.000002 0.000001 -0.000001  2.413977 -0.000036 1.570860
50  -0.000008 -0.000012 0.000005  2.272645 -0.000036 1.570861
51  -3.096758 -4.269032 -6.812669  -0.063697 -2.989914 1.368913
52  0.000000 -0.000000 -0.000000  0.008153 -0.000259 0.000009
53  0.000000 0.000000 -0.000000  1.565115 0.043565 -0.106862
54  -0.262306 -15.368595 -5.316322  -0.806067 -0.132863 -1.846884
55  0.000002 -0.000000 0.000000  0.000000 -0.000001 -0.000002
56  0.000032 0.000029 0.000001  -1.571901 -0.044449 -0.106509
57  9.873785 -14.853106 -23.773331  1.570796 -0.000000 0.000000
58  -15.417985 4.000748 -22.641926  1.570796 -0.000000 0.000000
59  0.658819 1.453195 -4.071830  1.570796 -0.000000 0.000000
60  -0.004311 0.001230 -0.000371  0.006898 -0.005534 -0.284229
61  0.826810 10.209643 -4.879054  1.570796 -0.000000 0.000000
62  0.000000 0.000000 0.000000  -0.078727 -3.136056 0.284226
63  -2.243053 -2.227381 -0.317886  1.570796 -0.000000 0.000000
64  -2.287624 -8.249615 -1.854442  1.570796 -0.000000 0.000000
65  0.042269 -2.588230 0.672586  0.000000 -0.000000 0.000000
66  0.048105 -1.112260 5.803837  0.000000 -0.000000 0.000000
67  0.048106 -0.032154 -1.710082  0.000000 -0.000000 0.000000
68  0.042353 -1.078447 21.234573  0.000000 -0.000000 0.000000
69  0.436542 -3.059779 3.935333  0.000000 -0.000000 0.000000
70  0.672328 -2.032813 2.042324  0.000000 -0.000000 0.000000
71  -0.729358 -1.331797 3.242019  0.000000 -0.000000 0.000000
72  0.194741 -1.447476 3.023561  0.000000 -0.000000 0.000000
73  -0.700892 0.650637 17.606178  0.000000 -0.000000 0.000000
74  0.042269 -2.357918 -0.445848  0.000000 -0.000000 0.000000
75  0.436542 -0.003270 1.776058  0.000000 -0.000000 0.000000
76  -2.285144 -12.956001 -5.951616  1.570796 -0.000000 0.000000
77  -0.097393 2.508477 -1.682825  0.000000 -0.000000 0.000000
78  0.138693 2.343453 -1.682825  0.000000 -0.000000 0.000000
79  -2.287624 -17.108284 -1.878934  1.570796 -0.000000 0.000000
80  -0.861920 -0.180712 3.135019  0.000000 -0.000000 -0.000000
81  -0.861920 0.097230 3.003448  0.000000 -0.000000 -0.000000
82  -0.861920 -0.180725 2.815479  0.000000 -0.000000 -0.000000
83  -0.861920 0.097217 2.683908  0.000000 -0.000000 -0.000000
84  -0.861920 -0.180725 2.495584  0.000000 -0.000000 -0.000000
85  -0.861920 0.097216 2.364012  0.000000 -0.000000 -0.000000
86  -0.861920 -0.180726 2.176041  0.000000 -0.000000 -0.000000
87  -0.861920 0.097216 2.044468  0.000000 -0.000000 -0.000000
88  -0.861920 -0.180726 1.861902  0.000000 -0.000000 -0.000000
89  -0.861920 0.097215 1.730331  0.000000 -0.000000 -0.000000
90  -0.861920 -0.180727 1.542358  0.000000 -0.000000 -0.000000
91  -0.861920 0.097214 1.410789  0.000000 -0.000000 -0.000000
92  -0.861920 -0.180722 1.222464  0.000000 -0.000000 -0.000000
93  -0.861920 0.097220 1.090891  0.000000 -0.000000 -0.000000
94  -0.861920 -0.180712 0.918800  0.000000 -0.000000 -0.000000
95  -0.861920 0.097230 0.787231  0.000000 -0.000000 -0.000000
96  -0.861920 -0.180725 0.599258  0.000000 -0.000000 -0.000000
97  -0.861920 0.097217 0.467690  0.000000 -0.000000 -0.000000
98  -0.861920 -0.180725 0.279366  0.000000 -0.000000 -0.000000
99  -0.861920 0.097216 0.147793  0.000000 -0.000000 -0.000000
100  -0.861920 -0.180726 -0.040178  0.000000 -0.000000 -0.000000
101  -0.861920 0.097216 -0.171751  0.000000 -0.000000 -0.000000
102  -0.861920 -0.180726 -0.354317  0.000000 -0.000000 -0.000000
103  -0.861920 0.097215 -0.485886  0.000000 -0.000000 -0.000000
104  -0.861920 -0.180727 -0.673861  0.000000 -0.000000 -0.000000
105  -0.861920 0.097214 -0.805431  0.000000 -0.000000 -0.000000
106  -0.861920 -0.180722 -0.993755  0.000000 -0.000000 -0.000000
107  -0.861920 0.097220 -1.125328  0.000000 -0.000000 -0.000000
108  -0.861920 -0.180725 -1.295307  0.000000 -0.000000 -0.000000
109  -0.861920 0.097216 -1.426880  0.000000 -0.000000 -0.000000
110  -0.861920 -0.180726 -1.614851  0.000000 -0.000000 -0.000000
111  -0.861920 0.097216 -1.746424  0.000000 -0.000000 -0.000000
112  -0.861920 -0.180726 -1.928989  0.000000 -0.000000 -0.000000
113  -0.861920 0.097215 -2.060558  0.000000 -0.000000 -0.000000
114  -0.861920 -0.180727 -2.248533  0.000000 -0.000000 -0.000000
115  -0.861920 0.097214 -2.380102  0.000000 -0.000000 -0.000000
116  -0.861920 -0.180722 -2.568428  0.000000 -0.000000 -0.000000
117  -0.861920 0.097220 -2.700001  0.000000 -0.000000 -0.000000
118  -0.861920 -0.180725 -2.887970  0.000000 -0.000000 -0.000000
119  -0.861920 0.097216 -3.019543  0.000000 -0.000000 -0.000000
120  -0.861920 -0.180725 -3.207870  0.000000 -0.000000 -0.000000
121  -0.861920 0.097229 -3.339443  0.000000 -0.000000 -0.000000
122  -0.861920 -0.180737 -3.527412  0.000000 -0.000000 -0.000000
123  -0.861920 0.097217 -3.658985  0.000000 -0.000000 -0.000000
124  -0.861920 -0.048023 -3.936775  0.000000 -0.000000 -0.000000
125  -0.861920 0.096813 -4.220028  0.000000 -0.000000 -0.000000
126  -0.861839 0.049009 -4.549494  0.000000 -0.000000 0.000000
127  -0.862203 -0.181353 -4.727589  -0.000568 0.008934 0.008929
128  -0.865933 -0.543243 -4.815327  -0.002212 0.031273 0.031204
129  0.018344 -0.713685 -5.609470  0.064463 -0.001783 -0.001902
130  0.000000 0.000000 4.970245  0.000000 -0.000000 0.000000
131  0.000000 0.000000 -2.491489  0.000000 -0.000000 0.000000
time 1
0  0.000006 0.000000 0.000000  -1.570800 -1.391899 -1.570792
1  -4.264289 -0.706028 0.654504  -1.544956 -1.855077 -0.198630
2  6.027524 -0.000324 0.000190  -0.939839 -1.010842 -1.350367
3  11.692108 0.000646 -0.000737  -0.925347 -0.000016 -1.350013
4  11.480169 0.000344 -0.000762  1.195718 -0.584567 0.284173
5  3.859503 -0.142823 -1.192080  -0.776638 -0.061608 -1.579277
6  1.312590 0.000009 0.000007  -0.133330 -0.022631 -0.159473
7  0.729355 0.000053 0.000048  0.000011 0.000024 -0.486779
8  3.942141 0.046331 -0.431543  -0.676461 0.339625 -1.116093
9  1.539111 0.000084 0.000005  -0.021747 -0.084031 -0.720969
10  1.196333 0.000144 0.000028  0.007458 0.001457 -0.849777
11  3.883510 -0.047212 0.431351  -0.341939 0.543315 -0.623250
12  1.719573 -0.000026 0.000016  -0.043234 -0.102278 -0.735897
13  1.209179 0.000090 0.000009  -0.004830 -0.003862 -0.898841
14  3.859676 -0.138418 1.332380  -0.027249 0.655333 -0.061922
15  1.719449 -0.000018 0.000030  -0.047003 0.033250 -0.381732
16  1.099676 0.000049 0.000006  -0.003557 0.001912 -1.061225
17  0.722611 -0.801323 1.198804  -0.993087 -0.448196 -0.282035
18  1.789818 -0.000005 -0.000018  0.005781 0.046146 0.353612
19  1.207015 -0.000014 -0.000043  -0.006137 -0.000810 0.370363
20  5.740636 0.000388 -0.000700  -0.111150 0.000003 0.000064
21  11.481041 0.000247 -0.000805  -0.052274 -0.104162 0.022385
22  6.027525 -0.000330 0.000200  1.717540 -0.542461 1.512345
23  0.000000 11.692100 -0.000006  -0.939771 -0.395319 -0.751230
24  0.000004 0.000009 0.000000  -0.056254 -0.000031 1.570739
25  -0.000000 -0.000012 0.000000  0.868960 0.000002 1.570712
26  -6.617934 -9.178503 0.826812  1.473120 1.855075 -0.198639
27  6.027514 -0.000259 -0.000222  1.503858 0.793143 -0.717972
28  11.691990 0.000161 0.000858  0.141449 0.000068 -1.780760
29  11.479851 -0.000567 0.000911  -1.132675 0.476137 0.905278
30  3.859437 -0.132759 1.193065  0.469647 -0.013262 -1.872395
31  1.312559 0.000026 -0.000001  0.024060 -0.138696 -0.550187
32  0.729345 0.000064 -0.000029  -0.166197 -0.081570 -0.714272
33  3.942047 0.050138 0.431001  0.225309 -0.086237 -1.592712
34  1.539097 0.000005 -0.000001  0.035254 -0.050373 -0.994350
35  1.196301 0.000077 -0.000003  -0.021521 0.002175 -0.839738
36  3.883413 -0.050473 -0.431084  0.184824 -0.271737 -1.204030
37  1.719564 -0.000085 -0.000004  0.022859 -0.107186 -1.509108
38  1.209197 0.000034 0.000011  0.000661 0.071072 -0.480462
39  3.859588 -0.149083 -1.331321  -0.119219 -0.140845 -0.471563
40  1.719412 -0.000098 -0.000036  -0.007972 -0.023824 -1.231103
41  1.099674 0.000023 0.000007  -0.003780 -0.008463 -0.656665
42  0.805983 -0.359848 -1.318338  0.991670 0.166767 -0.799527
43  1.789779 -0.000008 -0.000043  0.000058 -0.002451 0.133098
44  1.206996 -0.000007 0.000005  0.000372 -0.000071 1.058780
45  5.740572 0.000078 0.000720  0.170696 -0.000014 0.000028
46  11.480914 -0.000040 0.000927  0.049151 0.101598 0.144008
47  6.027515 -0.000273 -0.000230  -0.954932 -0.509624 -1.685318
48  -0.000002 11.691976 -0.000007  -1.194335 0.638261 0.904629
49  0.000003 0.000000 -0.000001  2.413977 -0.000036 1.570860
50  -0.000008 -0.000013 0.000003  2.272645 -0.000036 1.570861
51  -3.143227 -4.286371 -6.817743  -0.070362 -2.985449 1.372469
52  -0.000000 -0.000000 0.000000  0.008153 -0.000259 0.000009
53  -0.000000 -0.000000 -0.000000  1.565115 0.043565 -0.106862
54  -0.269629 -15.374092 -5.308326  -0.812362 -0.137805 -1.843501
55  0.000001 0.000000 0.000000  0.000000 -0.000001 -0.000002
56  0.000031 0.000029 0.000001  -1.571901 -0.044449 -0.106509
57  9.873785 -14.853106 -23.773331  1.570796 -0.000000 0.000000
58  -15.417985 4.000748 -22.641926  1.570796 -0.000000 0.000000
59  0.658819 1.453195 -4.071830  1.570796 -0.000000 0.000000
60  -0.004311 0.001230 -0.000371  0.006898 -0.005534 -0.284229
61  0.826810 10.209643 -4.879054  1.570796 -0.000000 0.000000
62  0.000000 0.000000 0.000000  -0.078727 -3.136056 0.284226
63  -2.243053 -2.227381 -0.317886  1.570796 -0.000000 0.000000
64  -2.287598 -8.249627 -1.853445  1.567738 0.007347 0.002523
65  0.042269 -2.588229 0.672587  -0.000000 0.000000 0.000000
66  0.048105 -1.112260 5.803838  -0.000000 0.000000 0.000000
67  0.048106 -0.032153 -1.710082  -0.000000 0.000000 0.000000
68  0.042354 -1.078447 21.234575  -0.000000 0.000000 0.000000
69  0.436542 -3.059779 3.935333  -0.000000 0.000000 0.000000
70  0.672328 -2.032812 2.042324  -0.000000 0.000000 0.000000
71  -0.729358 -1.331797 3.242019  -0.000000 0.000000 0.000000
72  0.194741 -1.447476 3.023562  -0.000000 0.000000 0.000000
73  -0.700892 0.650637 17.606180  -0.000000 0.000000 0.000000
74  0.042269 -2.357918 -0.445847  -0.000000 0.000000 0.000000
75  0.436542 -0.003270 1.776059  -0.000000 0.000000 0.000000
76  -2.303208 -12.968575 -5.936116  1.567738 0.007347 0.002523
77  -0.097393 2.508477 -1.682825  -0.000000 0.000000 0.000000
78  0.138693 2.343452 -1.682825  -0.000000 0.000000 0.000000
79  -2.265230 -17.108301 -1.850848  1.567738 0.007347 0.002523
80  -0.861920 -0.180711 3.135016  -0.000000 -0.000000 -0.000000
81  -0.861920 0.097230 3.003446  -0.000000 -0.000000 -0.000000
82  -0.861920 -0.180725 2.815479  -0.000000 -0.000000 -0.000000
83  -0.861920 0.097217 2.683907  -0.000000 -0.000000 -0.000000
84  -0.861920 -0.180725 2.495585  -0.000000 -0.000000 -0.000000
85  -0.861920 0.097216 2.364010  -0.000000 -0.000000 -0.000000
86  -0.861920 -0.180726 2.176039  -0.000000 -0.000000 -0.000000
87  -0.861920 0.097216 2.044465  -0.000000 -0.000000 -0.000000
88  -0.861920 -0.180726 1.861902  -0.000000 -0.000000 -0.000000
89  -0.861920 0.097215 1.730330  -0.000000 -0.000000 -0.000000
90  -0.861920 -0.180727 1.542359  -0.000000 -0.000000 -0.000000
91  -0.861920 0.097214 1.410788  -0.000000 -0.000000 -0.000000
92  -0.861920 -0.180722 1.222463  -0.000000 -0.000000 -0.000000
93  -0.861920 0.097220 1.090889  -0.000000 -0.000000 -0.000000
94  -0.861920 -0.180712 0.918798  -0.000000 -0.000000 -0.000000
95  -0.861920 0.097230 0.787230  -0.000000 -0.000000 -0.000000
96  -0.861920 -0.180725 0.599257  -0.000000 -0.000000 -0.000000
97  -0.861920 0.097217 0.467687  -0.000000 -0.000000 -0.000000
98  -0.861920 -0.180725 0.279365  -0.000000 -0.000000 -0.000000
99  -0.861920 0.097216 0.147791  -0.000000 -0.000000 -0.000000
100  -0.861920 -0.180726 -0.040178  -0.000000 -0.000000 -0.000000
101  -0.861920 0.097216 -0.171752  -0.000000 -0.000000 -0.000000
102  -0.861920 -0.180726 -0.354318  -0.000000 -0.000000 -0.000000
103  -0.861920 0.097215 -0.485888  -0.000000 -0.000000 -0.000000
104  -0.861920 -0.180727 -0.673861  -0.000000 -0.000000 -0.000000
105  -0.861920 0.097214 -0.805433  -0.000000 -0.000000 -0.000000
106  -0.861920 -0.180722 -0.993755  -0.000000 -0.000000 -0.000000
107  -0.861920 0.097220 -1.125330  -0.000000 -0.000000 -0.000000
108  -0.861920 -0.180725 -1.295308  -0.000000 -0.000000 -0.000000
109  -0.861920 0.097216 -1.426881  -0.000000 -0.000000 -0.000000
110  -0.861920 -0.180726 -1.614853  -0.000000 -0.000000 -0.000000
111  -0.861920 0.097216 -1.746426  -0.000000 -0.000000 -0.000000
112  -0.861920 -0.180726 -1.928991  -0.000000 -0.000000 -0.000000
113  -0.861920 0.097215 -2.060560  -0.000000 -0.000000 -0.000000
114  -0.861920 -0.180727 -2.248535  -0.000000 -0.000000 -0.000000
115  -0.861920 0.097214 -2.380104  -0.000000 -0.000000 -0.000000
116  -0.861920 -0.180721 -2.568430  -0.000000 -0.000000 -0.000000
117  -0.861920 0.097220 -2.700003  -0.000000 -0.000000 -0.000000
118  -0.861920 -0.180725 -2.887971  -0.000000 -0.000000 -0.000000
119  -0.861920 0.097216 -3.019544  -0.000000 -0.000000 -0.000000
120  -0.861920 -0.180724 -3.207872  -0.000000 -0.000000 -0.000000
121  -0.861920 0.097230 -3.339445  -0.000000 -0.000000 -0.000000
122  -0.861920 -0.180737 -3.527414  -0.000000 -0.000000 -0.000000
123  -0.861920 0.097217 -3.658988  -0.000000 -0.000000 -0.000000
124  -0.861920 -0.048023 -3.936777  -0.000000 -0.000000 -0.000000
125  -0.861920 0.096813 -4.220029  -0.000000 -0.000000 -0.000000
126  -0.861839 0.049009 -4.549495  -0.000000 -0.000000 0.000000
127  -0.862202 -0.181353 -4.727589  -0.000568 0.008934 0.008929
128  -0.865933 -0.543243 -4.815328  -0.002212 0.031273 0.031204
129  0.018344 -0.713685 -5.609472  0.064463 -0.001783 -0.001902
130  0.000000 -0.000000 4.970243  -0.000000 0.000000 0.000000
131  0.000000 -0.000000 -2.491491  -0.000000 0.000000 0.000000
time 2
0  0.000006 0.000000 0.000000  -1.570800 -1.391899 -1.570792
1  -4.264289 -0.706028 0.654504  -1.544956 -1.855077 -0.198630
2  6.027524 -0.000324 0.000190  -0.938686 -1.012136 -1.351983
3  11.692109 0.000644 -0.000739  -0.925347 -0.000016 -1.348514
4  11.480182 0.000347 -0.000758  1.192496 -0.587058 0.270810
5  3.859504 -0.142823 -1.192079  -0.776638 -0.061608 -1.579277
6  1.312590 0.000012 0.000008  -0.133330 -0.022631 -0.159473
7  0.729357 0.000054 0.000049  0.000011 0.000024 -0.486779
8  3.942142 0.046332 -0.431543  -0.676460 0.339625 -1.116093
9  1.539111 0.000084 0.000004  -0.021747 -0.084031 -0.720969
10  1.196332 0.000146 0.000028  0.007458 0.001457 -0.849778
11  3.883510 -0.047211 0.431351  -0.341939 0.543315 -0.623250
12  1.719572 -0.000029 0.000018  -0.043234 -0.102278 -0.735897
13  1.209180 0.000088 0.000012  -0.004830 -0.003862 -0.898841
14  3.859677 -0.138417 1.332380  -0.027249 0.655333 -0.061922
15  1.719449 -0.000019 0.000028  -0.047003 0.033250 -0.381732
16  1.099675 0.000049 0.000006  -0.003557 0.001913 -1.061225
17  0.722613 -0.801322 1.198804  -0.993087 -0.448196 -0.282035
18  1.789819 -0.000003 -0.000018  0.005781 0.046146 0.353612
19  1.207016 -0.000013 -0.000044  -0.006137 -0.000810 0.370363
20  5.740637 0.000387 -0.000700  -0.113366 0.000003 0.000064
21  11.481044 0.000247 -0.000804  -0.053324 -0.104400 0.019520
22  6.027525 -0.000330 0.000200  1.716438 -0.541385 1.512274
23  0.000000 11.692099 -0.000007  -0.938865 -0.394538 -0.750611
24  0.000003 0.000009 0.000001  -0.056254 -0.000031 1.570739
25  0.000000 -0.000011 -0.000000  0.868960 0.000002 1.570712
26  -6.617934 -9.178503 0.826812  1.473120 1.855075 -0.198639
27  6.027514 -0.000259 -0.000222  1.510827 0.790407 -0.714668
28  11.691989 0.000162 0.000857  0.141449 0.000068 -1.778277
29  11.479875 -0.000552 0.000911  -1.151486 0.468124 0.887492
30  3.859437 -0.132758 1.193065  0.469647 -0.013262 -1.872395
31  1.312559 0.000026 -0.000001  0.024060 -0.138696 -0.550187
32  0.729346 0.000065 -0.000027  -0.166197 -0.081570 -0.714272
33  3.942046 0.050139 0.430999  0.225309 -0.086237 -1.592712
34  1.539097 0.000006 -0.000001  0.035254 -0.050373 -0.994350
35  1.196300 0.000078 -0.000004  -0.021521 0.002175 -0.839738
36  3.883414 -0.050472 -0.431085  0.184824 -0.271737 -1.204030
37  1.719563 -0.000084 -0.000005  0.022859 -0.107186 -1.509108
38  1.209198 0.000035 0.000011  0.000661 0.071072 -0.480462
39  3.859588 -0.149082 -1.331321  -0.119219 -0.140845 -0.471563
40  1.719413 -0.000099 -0.000036  -0.007972 -0.023824 -1.231103
41  1.099674 0.000024 0.000006  -0.003780 -0.008463 -0.656665
42  0.805983 -0.359848 -1.318339  0.991670 0.166767 -0.799527
43  1.789780 -0.000008 -0.000042  0.000058 -0.002451 0.133097
44  1.206997 -0.000006 0.000006  0.000372 -0.000071 1.058780
45  5.740573 0.000079 0.000721  0.165857 -0.000014 0.000028
46  11.480918 -0.000036 0.000928  0.047165 0.098367 0.142052
47  6.027515 -0.000273 -0.000230  -0.949183 -0.507127 -1.689772
48  -0.000001 11.691976 -0.000006  -1.192876 0.636771 0.903894
49  0.000001 -0.000000 -0.000000  2.413977 -0.000036 1.570860
50  -0.000008 -0.000013 0.000004  2.272645 -0.000036 1.570861
51  -3.232872 -4.319735 -6.826085  -0.082809 -2.977221 1.380033
52  0.000000 0.000000 0.000000  0.008153 -0.000259 0.000009
53  -0.000000 -0.000000 -0.000000  1.565115 0.043565 -0.106862
54  -0.276739 -15.382532 -5.293354  -0.824121 -0.146925 -1.836254
55  0.000001 -0.000001 -0.000000  0.000000 -0.000001 -0.000002
56  0.000031 0.000029 0.000001  -1.571902 -0.044449 -0.106509
57  9.873785 -14.853106 -23.773331  1.570796 -0.000000 0.000000
58  -15.417985 4.000748 -22.641926  1.570796 -0.000000 0.000000
59  0.658819 1.453195 -4.071830  1.570796 -0.000000 0.000000
60  -0.004311 0.001230 -0.000371  0.006898 -0.005534 -0.284229
61  0.826810 10.209643 -4.879054  1.570796 -0.000000 0.000000
62  0.000000 0.000000 0.000000  -0.078727 -3.136056 0.284226
63  -2.243053 -2.227381 -0.317886  1.570796 -0.000000 0.000000
64  -2.287415 -8.249659 -1.851594  1.562113 0.021023 0.008021
65  0.042269 -2.588230 0.672587  0.000000 -0.000000 0.000000
66  0.048105 -1.112260 5.803838  0.000000 -0.000000 0.000000
67  0.048106 -0.032154 -1.710081  0.000000 -0.000000 0.000000
68  0.042354 -1.078448 21.234577  0.000000 -0.000000 0.000000
69  0.436542 -3.059779 3.935334  0.000000 -0.000000 0.000000
70  0.672328 -2.032812 2.042324  0.000000 -0.000000 0.000000
71  -0.729358 -1.331797 3.242019  0.000000 -0.000000 0.000000
72  0.194741 -1.447476 3.023563  0.000000 -0.000000 0.000000
73  -0.700892 0.650637 17.606178  0.000000 -0.000000 0.000000
74  0.042269 -2.357918 -0.445847  0.000000 -0.000000 0.000000
75  0.436542 -0.003270 1.776059  0.000000 -0.000000 0.000000
76  -2.332165 -12.991954 -5.906905  1.562113 0.021023 0.008021
77  -0.097393 2.508477 -1.682825  0.000000 -0.000000 0.000000
78  0.138693 2.343453 -1.682825  0.000000 -0.000000 0.000000
79  -2.215259 -17.107912 -1.799179  1.562113 0.021023 0.008021
80  -0.861920 -0.180712 3.135018  0.000000 -0.000000 -0.000000
81  -0.861920 0.097230 3.003449  0.000000 -0.000000 -0.000000
82  -0.861920 -0.180725 2.815478  0.000000 -0.000000 -0.000000
83  -0.861920 0.097217 2.683909  0.000000 -0.000000 -0.000000
84  -0.861920 -0.180725 2.495584  0.000000 -0.000000 -0.000000
85  -0.861920 0.097216 2.364012  0.000000 -0.000000 -0.000000
86  -0.861920 -0.180726 2.176040  0.000000 -0.000000 -0.000000
87  -0.861920 0.097216 2.044467  0.000000 -0.000000 -0.000000
88  -0.861920 -0.180727 1.861901  0.000000 -0.000000 -0.000000
89  -0.861920 0.097215 1.730331  0.000000 -0.000000 -0.000000
90  -0.861920 -0.180727 1.542357  0.000000 -0.000000 -0.000000
91  -0.861920 0.097214 1.410790  0.000000 -0.000000 -0.000000
92  -0.861921 -0.180722 1.222462  0.000000 -0.000000 -0.000000
93  -0.861921 0.097220 1.090891  0.000000 -0.000000 -0.000000
94  -0.861920 -0.180712 0.918800  0.000000 -0.000000 -0.000000
95  -0.861920 0.097230 0.787232  0.000000 -0.000000 -0.000000
96  -0.861920 -0.180725 0.599258  0.000000 -0.000000 -0.000000
97  -0.861920 0.097217 0.467691  0.000000 -0.000000 -0.000000
98  -0.861920 -0.180725 0.279365  0.000000 -0.000000 -0.000000
99  -0.861920 0.097216 0.147792  0.000000 -0.000000 -0.000000
100  -0.861920 -0.180726 -0.040179  0.000000 -0.000000 -0.000000
101  -0.861920 0.097215 -0.171751  0.000000 -0.000000 -0.000000
102  -0.861920 -0.180727 -0.354318  0.000000 -0.000000 -0.000000
103  -0.861920 0.097215 -0.485885  0.000000 -0.000000 -0.000000
104  -0.861920 -0.180727 -0.673863  0.000000 -0.000000 -0.000000
105  -0.861920 0.097214 -0.805433  0.000000 -0.000000 -0.000000
106  -0.861920 -0.180722 -0.993758  0.000000 -0.000000 -0.000000
107  -0.861920 0.097220 -1.125329  0.000000 -0.000000 -0.000000
108  -0.861920 -0.180726 -1.295308  0.000000 -0.000000 -0.000000
109  -0.861920 0.097216 -1.426881  0.000000 -0.000000 -0.000000
110  -0.861920 -0.180726 -1.614852  0.000000 -0.000000 -0.000000
111  -0.861920 0.097216 -1.746425  0.000000 -0.000000 -0.000000
112  -0.861920 -0.180727 -1.928990  0.000000 -0.000000 -0.000000
113  -0.861920 0.097215 -2.060559  0.000000 -0.000000 -0.000000
114  -0.861920 -0.180727 -2.248534  0.000000 -0.000000 -0.000000
115  -0.861920 0.097214 -2.380103  0.000000 -0.000000 -0.000000
116  -0.861920 -0.180722 -2.568428  0.000000 -0.000000 -0.000000
117  -0.861920 0.097220 -2.700001  0.000000 -0.000000 -0.000000
118  -0.861920 -0.180726 -2.887971  0.000000 -0.000000 -0.000000
119  -0.861920 0.097216 -3.019544  0.000000 -0.000000 -0.000000
120  -0.861920 -0.180725 -3.207871  0.000000 -0.000000 -0.000000
121  -0.861920 0.097229 -3.339444  0.000000 -0.000000 -0.000000
122  -0.861920 -0.180738 -3.527413  0.000000 -0.000000 -0.000000
123  -0.861920 0.097216 -3.658986  0.000000 -0.000000 -0.000000
124  -0.861920 -0.048023 -3.936777  0.000000 -0.000000 -0.000000
125  -0.861920 0.096813 -4.220029  0.000000 -0.000000 -0.000000
126  -0.861840 0.049009 -4.549495  0.000000 -0.000000 0.000000
127  -0.862203 -0.181353 -4.727589  -0.000568 0.008934 0.008929
128  -0.865933 -0.543243 -4.815328  -0.002212 0.031273 0.031204
129  0.018344 -0.713685 -5.609470  0.064463 -0.001783 -0.001902
130  0.000000 -0.000000 4.970245  0.000000 -0.000000 0.000000
131  -0.000000 0.000000 -2.491493  0.000000 -0.000000 0.000000
time 3
0  0.000006 0.000000 0.000000  -1.570800 -1.391899 -1.570792
1  -4.264289 -0.706028 0.654504  -1.544956 -1.855077 -0.198630
2  6.027524 -0.000324 0.000190  -0.940433 -1.012049 -1.351084
3  11.692109 0.000645 -0.000738  -0.925348 -0.000016 -1.349350
4  11.480175 0.000346 -0.000759  1.191808 -0.590521 0.263330
5  3.859502 -0.142822 -1.192079  -0.776638 -0.061608 -1.579277
6  1.312590 0.000010 0.000009  -0.133329 -0.022631 -0.159473
7  0.729356 0.000053 0.000049  0.000011 0.000024 -0.486779
8  3.942140 0.046332 -0.431543  -0.676461 0.339625 -1.116093
9  1.539111 0.000084 0.000006  -0.021747 -0.084031 -0.720969
10  1.196333 0.000144 0.000028  0.007458 0.001457 -0.849777
11  3.883510 -0.047211 0.431351  -0.341939 0.543315 -0.623251
12  1.719574 -0.000028 0.000017  -0.043234 -0.102278 -0.735897
13  1.209179 0.000088 0.000013  -0.004830 -0.003862 -0.898841
14  3.859676 -0.138417 1.332380  -0.027249 0.655333 -0.061922
15  1.719449 -0.000018 0.000027  -0.047003 0.033250 -0.381732
16  1.099674 0.000049 0.000006  -0.003557 0.001912 -1.061225
17  0.722611 -0.801322 1.198803  -0.993087 -0.448196 -0.282035
18  1.789817 -0.000005 -0.000017  0.005781 0.046146 0.353612
19  1.207015 -0.000014 -0.000044  -0.006137 -0.000810 0.370363
20  5.740636 0.000388 -0.000699  -0.114648 0.000003 0.000063
21  11.481042 0.000247 -0.000803  -0.053624 -0.104908 0.017907
22  6.027525 -0.000330 0.000200  1.717505 -0.541214 1.511143
23  -0.000001 11.692099 -0.000006  -0.939370 -0.394974 -0.750956
24  0.000004 0.000008 -0.000001  -0.056254 -0.000031 1.570739
25  -0.000000 -0.000012 0.000000  0.868960 0.000002 1.570712
26  -6.617934 -9.178503 0.826812  1.473120 1.855075 -0.198639
27  6.027514 -0.000259 -0.000222  1.515390 0.788696 -0.712530
28  11.691989 0.000160 0.000857  0.141449 0.000068 -1.776743
29  11.479886 -0.000543 0.000908  -1.161917 0.460825 0.876207
30  3.859437 -0.132758 1.193065  0.469647 -0.013262 -1.872395
31  1.312559 0.000025 -0.000002  0.024060 -0.138696 -0.550187
32  0.729345 0.000065 -0.000028  -0.166197 -0.081570 -0.714272
33  3.942046 0.050139 0.431000  0.225309 -0.086237 -1.592712
34  1.539097 0.000007 -0.000001  0.035254 -0.050373 -0.994350
35  1.196300 0.000078 -0.000003  -0.021521 0.002175 -0.839738
36  3.883413 -0.050472 -0.431084  0.184824 -0.271737 -1.204030
37  1.719565 -0.000084 -0.000005  0.022859 -0.107186 -1.509108
38  1.209198 0.000035 0.000011  0.000662 0.071072 -0.480462
39  3.859588 -0.149082 -1.331320  -0.119219 -0.140845 -0.471563
40  1.719413 -0.000098 -0.000035  -0.007972 -0.023824 -1.231103
41  1.099674 0.000024 0.000007  -0.003780 -0.008463 -0.656665
42  0.805983 -0.359847 -1.318338  0.991670 0.166767 -0.799527
43  1.789780 -0.000008 -0.000042  0.000058 -0.002451 0.133097
44  1.206996 -0.000006 0.000006  0.000372 -0.000071 1.058780
45  5.740572 0.000079 0.000721  0.163089 -0.000014 0.000028
46  11.480921 -0.000035 0.000927  0.046344 0.096034 0.140810
47  6.027515 -0.000273 -0.000230  -0.945508 -0.505418 -1.692656
48  -0.000001 11.691977 -0.000005  -1.191975 0.635851 0.903439
49  0.000002 -0.000001 0.000000  2.413977 -0.000036 1.570860
50  -0.000009 -0.000012 0.000005  2.272645 -0.000036 1.570861
51  -3.290927 -4.340364 -6.829838  -0.089575 -2.972858 1.386737
52  -0.000001 -0.000000 -0.000000  0.008153 -0.000259 0.000009
53  -0.000000 0.000000 0.000000  1.565115 0.043565 -0.106862
54  -0.261766 -15.381772 -5.285514  -0.830520 -0.151775 -1.829720
55  -0.000000 0.000001 -0.000000  0.000000 -0.000001 -0.000002
56  0.000030 0.000030 0.000001  -1.571901 -0.044449 -0.106509
57  9.873785 -14.853106 -23.773331  1.570796 -0.000000 0.000000
58  -15.417985 4.000748 -22.641926  1.570796 -0.000000 0.000000
59  0.658819 1.453195 -4.071830  1.570796 -0.000000 0.000000
60  -0.004311 0.001230 -0.000371  0.006898 -0.005534 -0.284229
61  0.826810 10.209643 -4.879054  1.570796 -0.000000 0.000000
62  0.000000 0.000000 0.000000  -0.078727 -3.136056 0.284226
63  -2.243053 -2.227381 -0.317886  1.570796 -0.000000 0.000000
64  -2.286918 -8.249697 -1.850598  1.559148 0.028424 0.013529
65  0.042269 -2.588230 0.672586  0.000000 0.000000 0.000000
66  0.048105 -1.112259 5.803836  0.000000 0.000000 0.000000
67  0.048106 -0.032153 -1.710082  0.000000 0.000000 0.000000
68  0.042353 -1.078447 21.234573  0.000000 0.000000 0.000000
69  0.436542 -3.059779 3.935333  0.000000 0.000000 0.000000
70  0.672328 -2.032812 2.042324  0.000000 0.000000 0.000000
71  -0.729358 -1.331797 3.242019  0.000000 0.000000 0.000000
72  0.194741 -1.447476 3.023561  0.000000 0.000000 0.000000
73  -0.700892 0.650637 17.606180  0.000000 0.000000 0.000000
74  0.042269 -2.357918 -0.445848  0.000000 0.000000 0.000000
75  0.436542 -0.003270 1.776058  0.000000 0.000000 0.000000
76  -2.334989 -13.004573 -5.891110  1.559148 0.028424 0.013529
77  -0.097393 2.508477 -1.682826  0.000000 0.000000 0.000000
78  0.138693 2.343453 -1.682826  0.000000 0.000000 0.000000
79  -2.164836 -17.107208 -1.771932  1.559148 0.028424 0.013529
80  -0.861920 -0.180712 3.135019  0.000000 -0.000000 -0.000000
81  -0.861920 0.097230 3.003447  0.000000 -0.000000 -0.000000
82  -0.861921 -0.180725 2.815477  0.000000 -0.000000 -0.000000
83  -0.861920 0.097217 2.683907  0.000000 -0.000000 -0.000000
84  -0.861920 -0.180725 2.495582  0.000000 -0.000000 -0.000000
85  -0.861920 0.097216 2.364010  0.000000 -0.000000 -0.000000
86  -0.861920 -0.180726 2.176038  0.000000 -0.000000 -0.000000
87  -0.861920 0.097216 2.044464  0.000000 -0.000000 -0.000000
88  -0.861920 -0.180726 1.861900  0.000000 -0.000000 -0.000000
89  -0.861921 0.097215 1.730328  0.000000 -0.000000 -0.000000
90  -0.861921 -0.180727 1.542356  0.000000 -0.000000 -0.000000
91  -0.861920 0.097215 1.410788  0.000000 -0.000000 -0.000000
92  -0.861920 -0.180722 1.222462  0.000000 -0.000000 -0.000000
93  -0.861920 0.097220 1.090888  0.000000 -0.000000 -0.000000
94  -0.861920 -0.180712 0.918798  0.000000 -0.000000 -0.000000
95  -0.861920 0.097230 0.787228  0.000000 -0.000000 -0.000000
96  -0.861920 -0.180725 0.599256  0.000000 -0.000000 -0.000000
97  -0.861920 0.097217 0.467688  0.000000 -0.000000 -0.000000
98  -0.861920 -0.180725 0.279364  0.000000 -0.000000 -0.000000
99  -0.861920 0.097216 0.147790  0.000000 -0.000000 -0.000000
100  -0.861920 -0.180726 -0.040182  0.000000 -0.000000 -0.000000
101  -0.861921 0.097216 -0.171752  0.000000 -0.000000 -0.000000
102  -0.861920 -0.180726 -0.354320  0.000000 -0.000000 -0.000000
103  -0.861920 0.097215 -0.485887  0.000000 -0.000000 -0.000000
104  -0.861920 -0.180727 -0.673862  0.000000 -0.000000 -0.000000
105  -0.861920 0.097214 -0.805434  0.000000 -0.000000 -0.000000
106  -0.861920 -0.180722 -0.993759  0.000000 -0.000000 -0.000000
107  -0.861920 0.097220 -1.125331  0.000000 -0.000000 -0.000000
108  -0.861921 -0.180725 -1.295309  0.000000 -0.000000 -0.000000
109  -0.861921 0.097216 -1.426882  0.000000 -0.000000 -0.000000
110  -0.861920 -0.180726 -1.614852  0.000000 -0.000000 -0.000000
111  -0.861920 0.097216 -1.746426  0.000000 -0.000000 -0.000000
112  -0.861920 -0.180727 -1.928991  0.000000 -0.000000 -0.000000
113  -0.861920 0.097215 -2.060560  0.000000 -0.000000 -0.000000
114  -0.861920 -0.180727 -2.248535  0.000000 -0.000000 -0.000000
115  -0.861920 0.097215 -2.380104  0.000000 -0.000000 -0.000000
116  -0.861920 -0.180721 -2.568430  0.000000 -0.000000 -0.000000
117  -0.861920 0.097220 -2.700002  0.000000 -0.000000 -0.000000
118  -0.861920 -0.180725 -2.887972  0.000000 -0.000000 -0.000000
119  -0.861920 0.097216 -3.019544  0.000000 -0.000000 -0.000000
120  -0.861920 -0.180724 -3.207873  0.000000 -0.000000 -0.000000
121  -0.861920 0.097230 -3.339445  0.000000 -0.000000 -0.000000
122  -0.861920 -0.180737 -3.527414  0.000000 -0.000000 -0.000000
123  -0.861920 0.097217 -3.658987  0.000000 -0.000000 -0.000000
124  -0.861921 -0.048023 -3.936778  0.000000 -0.000000 -0.000000
125  -0.861920 0.096813 -4.220030  0.000000 -0.000000 -0.000000
126  -0.861839 0.049009 -4.549496  0.000000 -0.000000 0.000000
127  -0.862203 -0.181353 -4.727592  -0.000568 0.008934 0.008929
128  -0.865933 -0.543243 -4.815328  -0.002212 0.031273 0.031204
129  0.018344 -0.713685 -5.609472  0.064463 -0.001783 -0.001902
130  0.000000 0.000000 4.970243  0.000000 0.000000 0.000000
131  0.000000 0.000000 -2.491492  0.000000 0.000000 0.000000
time 4
0  0.000006 0.000000 0.000000  -1.570800 -1.391899 -1.570792
1  -4.264289 -0.706028 0.654504  -1.544956 -1.855077 -0.198630
2  6.027524 -0.000324 0.000190  -0.943690 -1.009232 -1.347227
3  11.692108 0.000643 -0.000738  -0.925348 -0.000016 -1.352904
4  11.480150 0.000339 -0.000771  1.190106 -0.594519 0.266172
5  3.859504 -0.142823 -1.192080  -0.776638 -0.061608 -1.579277
6  1.312589 0.000013 0.000008  -0.133330 -0.022631 -0.159473
7  0.729357 0.000054 0.000049  0.000011 0.000024 -0.486779
8  3.942140 0.046331 -0.431543  -0.676461 0.339625 -1.116093
9  1.539110 0.000082 0.000005  -0.021747 -0.084031 -0.720969
10  1.196333 0.000144 0.000028  0.007458 0.001458 -0.849777
11  3.883510 -0.047212 0.431351  -0.341939 0.543315 -0.623250
12  1.719573 -0.000027 0.000019  -0.043234 -0.102278 -0.735897
13  1.209179 0.000089 0.000012  -0.004830 -0.003862 -0.898841
14  3.859678 -0.138418 1.332379  -0.027249 0.655333 -0.061922
15  1.719449 -0.000019 0.000029  -0.047003 0.033250 -0.381732
16  1.099675 0.000049 0.000005  -0.003557 0.001912 -1.061225
17  0.722611 -0.801323 1.198803  -0.993087 -0.448196 -0.282035
18  1.789818 -0.000003 -0.000018  0.005781 0.046146 0.353612
19  1.207013 -0.000014 -0.000044  -0.006137 -0.000810 0.370363
20  5.740636 0.000389 -0.000699  -0.115104 0.000003 0.000064
21  11.481037 0.000246 -0.000807  -0.053655 -0.105792 0.018200
22  6.027525 -0.000330 0.000200  1.720360 -0.543440 1.510766
23  -0.000000 11.692099 -0.000007  -0.941519 -0.396827 -0.752422
24  0.000003 0.000010 0.000000  -0.056254 -0.000031 1.570739
25  -0.000000 -0.000012 -0.000000  0.868960 0.000002 1.570712
26  -6.617934 -9.178503 0.826812  1.473120 1.855075 -0.198639
27  6.027514 -0.000259 -0.000222  1.516233 0.788330 -0.712134
28  11.691992 0.000161 0.000858  0.141449 0.000068 -1.778630
29  11.479873 -0.000555 0.000911  -1.160604 0.456362 0.880233
30  3.859438 -0.132759 1.193066  0.469647 -0.013262 -1.872395
31  1.312559 0.000026 -0.000001  0.024060 -0.138696 -0.550187
32  0.729345 0.000065 -0.000027  -0.166197 -0.081570 -0.714272
33  3.942047 0.050139 0.431000  0.225309 -0.086237 -1.592712
34  1.539097 0.000005 -0.000001  0.035254 -0.050373 -0.994350
35  1.196301 0.000078 -0.000003  -0.021521 0.002175 -0.839738
36  3.883415 -0.050472 -0.431084  0.184824 -0.271737 -1.204030
37  1.719564 -0.000086 -0.000005  0.022858 -0.107186 -1.509108
38  1.209198 0.000035 0.000011  0.000661 0.071072 -0.480462
39  3.859589 -0.149082 -1.331321  -0.119219 -0.140845 -0.471563
40  1.719413 -0.000098 -0.000035  -0.007972 -0.023824 -1.231103
41  1.099674 0.000022 0.000007  -0.003780 -0.008463 -0.656665
42  0.805984 -0.359847 -1.318338  0.991670 0.166767 -0.799527
43  1.789780 -0.000008 -0.000042  0.000058 -0.002451 0.133098
44  1.206996 -0.000007 0.000005  0.000372 -0.000071 1.058780
45  5.740573 0.000079 0.000722  0.163872 -0.000014 0.000028
46  11.480919 -0.000037 0.000927  0.046830 0.095409 0.141735
47  6.027515 -0.000273 -0.000230  -0.944782 -0.505128 -1.693209
48  -0.000000 11.691977 -0.000005  -1.193083 0.636983 0.903998
49  0.000001 -0.000001 -0.000000  2.413977 -0.000036 1.570860
50  -0.000007 -0.000013 0.000005  2.272645 -0.000036 1.570861
51  -3.295502 -4.323993 -6.818090  -0.089789 -2.976686 1.389261
52  0.000000 0.000000 0.000000  0.008153 -0.000259 0.000009
53  0.000000 0.000000 0.000000  1.565115 0.043565 -0.106862
54  -0.239613 -15.363627 -5.314270  -0.831022 -0.147972 -1.827157
55  -0.000001 -0.000001 -0.000000  0.000000 -0.000001 -0.000002
56  0.000030 0.000029 0.000001  -1.571902 -0.044449 -0.106509
57  9.873785 -14.853106 -23.773331  1.570796 -0.000000 0.000000
58  -15.417985 4.000748 -22.641926  1.570796 -0.000000 0.000000
59  0.658819 1.453195 -4.071830  1.570796 -0.000000 0.000000
60  -0.004311 0.001230 -0.000371  0.006898 -0.005534 -0.284229
61  0.826810 10.209643 -4.879054  1.570796 -0.000000 0.000000
62  0.000000 0.000000 0.000000  -0.078727 -3.136056 0.284226
63  -2.243053 -2.227381 -0.317886  1.570796 -0.000000 0.000000
64  -2.284174 -8.249728 -1.853257  1.562945 0.027879 0.016125
65  0.042269 -2.588230 0.672586  0.000000 0.000000 0.000000
66  0.048105 -1.112260 5.803838  0.000000 0.000000 0.000000
67  0.048106 -0.032154 -1.710082  0.000000 0.000000 0.000000
68  0.042354 -1.078447 21.234573  0.000000 0.000000 0.000000
69  0.436542 -3.059779 3.935334  0.000000 0.000000 0.000000
70  0.672328 -2.032812 2.042325  0.000000 0.000000 0.000000
71  -0.729358 -1.331797 3.242019  0.000000 0.000000 0.000000
72  0.194741 -1.447476 3.023562  0.000000 0.000000 0.000000
73  -0.700892 0.650637 17.606178  0.000000 0.000000 0.000000
74  0.042269 -2.357918 -0.445847  0.000000 0.000000 0.000000
75  0.436542 -0.003270 1.776059  0.000000 0.000000 0.000000
76  -2.318454 -12.989306 -5.911845  1.562945 0.027879 0.016125
77  -0.097393 2.508478 -1.682826  0.000000 0.000000 0.000000
78  0.138693 2.343453 -1.682826  0.000000 0.000000 0.000000
79  -2.140083 -17.107145 -1.808215  1.562945 0.027879 0.016125
80  -0.861920 -0.180712 3.135019  0.000000 -0.000000 -0.000000
81  -0.861921 0.097230 3.003446  0.000000 -0.000000 -0.000000
82  -0.861921 -0.180725 2.815477  0.000000 -0.000000 -0.000000
83  -0.861920 0.097217 2.683908  0.000000 -0.000000 -0.000000
84  -0.861920 -0.180725 2.495584  0.000000 -0.000000 -0.000000
85  -0.861920 0.097216 2.364009  0.000000 -0.000000 -0.000000
86  -0.861921 -0.180726 2.176040  0.000000 -0.000000 -0.000000
87  -0.861921 0.097216 2.044466  0.000000 -0.000000 -0.000000
88  -0.861921 -0.180727 1.861902  0.000000 -0.000000 -0.000000
89  -0.861921 0.097215 1.730330  0.000000 -0.000000 -0.000000
90  -0.861921 -0.180727 1.542358  0.000000 -0.000000 -0.000000
91  -0.861920 0.097215 1.410786  0.000000 -0.000000 -0.000000
92  -0.861921 -0.180721 1.222463  0.000000 -0.000000 -0.000000
93  -0.861920 0.097220 1.090889  0.000000 -0.000000 -0.000000
94  -0.861920 -0.180712 0.918801  0.000000 -0.000000 -0.000000
95  -0.861921 0.097230 0.787229  0.000000 -0.000000 -0.000000
96  -0.861921 -0.180725 0.599257  0.000000 -0.000000 -0.000000
97  -0.861920 0.097217 0.467689  0.000000 -0.000000 -0.000000
98  -0.861920 -0.180725 0.279365  0.000000 -0.000000 -0.000000
99  -0.861920 0.097216 0.147790  0.000000 -0.000000 -0.000000
100  -0.861921 -0.180726 -0.040180  0.000000 -0.000000 -0.000000
101  -0.861921 0.097216 -0.171752  0.000000 -0.000000 -0.000000
102  -0.861921 -0.180727 -0.354317  0.000000 -0.000000 -0.000000
103  -0.861921 0.097215 -0.485887  0.000000 -0.000000 -0.000000
104  -0.861921 -0.180727 -0.673861  0.000000 -0.000000 -0.000000
105  -0.861921 0.097215 -0.805435  0.000000 -0.000000 -0.000000
106  -0.861920 -0.180722 -0.993756  0.000000 -0.000000 -0.000000
107  -0.861920 0.097220 -1.125329  0.000000 -0.000000 -0.000000
108  -0.861920 -0.180725 -1.295308  0.000000 -0.000000 -0.000000
109  -0.861921 0.097216 -1.426881  0.000000 -0.000000 -0.000000
110  -0.861920 -0.180726 -1.614852  0.000000 -0.000000 -0.000000
111  -0.861920 0.097216 -1.746425  0.000000 -0.000000 -0.000000
112  -0.861921 -0.180727 -1.928991  0.000000 -0.000000 -0.000000
113  -0.861920 0.097215 -2.060559  0.000000 -0.000000 -0.000000
114  -0.861921 -0.180727 -2.248533  0.000000 -0.000000 -0.000000
115  -0.861921 0.097214 -2.380103  0.000000 -0.000000 -0.000000
116  -0.861920 -0.180722 -2.568429  0.000000 -0.000000 -0.000000
117  -0.861920 0.097220 -2.700002  0.000000 -0.000000 -0.000000
118  -0.861921 -0.180725 -2.887971  0.000000 -0.000000 -0.000000
119  -0.861920 0.097216 -3.019544  0.000000 -0.000000 -0.000000
120  -0.861920 -0.180724 -3.207871  0.000000 -0.000000 -0.000000
121  -0.861921 0.097229 -3.339444  0.000000 -0.000000 -0.000000
122  -0.861920 -0.180737 -3.527414  0.000000 -0.000000 -0.000000
123  -0.861920 0.097217 -3.658987  0.000000 -0.000000 -0.000000
124  -0.861920 -0.048023 -3.936777  0.000000 -0.000000 -0.000000
125  -0.861920 0.096813 -4.220030  0.000000 -0.000000 -0.000000
126  -0.861840 0.049009 -4.549495  0.000000 -0.000000 0.000000
127  -0.862203 -0.181353 -4.727591  -0.000568 0.008934 0.008929
128  -0.865934 -0.543243 -4.815327  -0.002212 0.031273 0.031204
129  0.018344 -0.713685 -5.609472  0.064463 -0.001783 -0.001902
130  0.000000 0.000000 4.970245  0.000000 0.000000 0.000000
131  -0.000000 0.000000 -2.491487  0.000000 0.000000 0.000000
time 5
0  0.000006 0.000000 0.000000  -1.570800 -1.391899 -1.570792
1  -4.264289 -0.706028 0.654504  -1.544956 -1.855077 -0.198630
2  6.027524 -0.000324 0.000190  -0.945672 -1.005413 -1.343161
3  11.692110 0.000645 -0.000738  -0.925348 -0.000016 -1.356616
4  11.480128 0.000330 -0.000781  1.185616 -0.597917 0.272499
5  3.859503 -0.142823 -1.192079  -0.776638 -0.061608 -1.579277
6  1.312590 0.000010 0.000006  -0.133329 -0.022631 -0.159473
7  0.729356 0.000053 0.000049  0.000011 0.000024 -0.486779
8  3.942140 0.046331 -0.431543  -0.676460 0.339625 -1.116093
9  1.539110 0.000083 0.000003  -0.021747 -0.084031 -0.720969
10  1.196332 0.000144 0.000027  0.007458 0.001457 -0.849778
11  3.883511 -0.047212 0.431351  -0.341939 0.543316 -0.623250
12  1.719573 -0.000029 0.000018  -0.043234 -0.102278 -0.735897
13  1.209180 0.000087 0.000012  -0.004830 -0.003862 -0.898841
14  3.859677 -0.138418 1.332380  -0.027249 0.655333 -0.061922
15  1.719451 -0.000018 0.000029  -0.047003 0.033250 -0.381732
16  1.099676 0.000048 0.000007  -0.003557 0.001912 -1.061225
17  0.722611 -0.801323 1.198804  -0.993087 -0.448196 -0.282035
18  1.789819 -0.000003 -0.000018  0.005781 0.046146 0.353612
19  1.207015 -0.000013 -0.000044  -0.006137 -0.000810 0.370363
20  5.740637 0.000388 -0.000699  -0.115611 0.000003 0.000063
21  11.481033 0.000243 -0.000808  -0.054075 -0.106709 0.019012
22  6.027525 -0.000330 0.000200  1.722804 -0.546807 1.511889
23  0.000000 11.692101 -0.000006  -0.943762 -0.398766 -0.753950
24  0.000003 0.000009 0.000001  -0.056254 -0.000031 1.570739
25  -0.000000 -0.000011 0.000000  0.868960 0.000002 1.570712
26  -6.617934 -9.178503 0.826812  1.473120 1.855075 -0.198639
27  6.027514 -0.000259 -0.000222  1.515896 0.788310 -0.712283
28  11.691989 0.000161 0.000858  0.141449 0.000068 -1.782332
29  11.479838 -0.000574 0.000913  -1.156458 0.453745 0.891293
30  3.859437 -0.132758 1.193065  0.469647 -0.013262 -1.872395
31  1.312559 0.000026 -0.000001  0.024060 -0.138696 -0.550187
32  0.729346 0.000065 -0.000027  -0.166197 -0.081570 -0.714272
33  3.942047 0.050139 0.431000  0.225309 -0.086237 -1.592712
34  1.539097 0.000005 -0.000002  0.035254 -0.050373 -0.994350
35  1.196300 0.000078 -0.000003  -0.021521 0.002175 -0.839738
36  3.883414 -0.050472 -0.431084  0.184824 -0.271737 -1.204030
37  1.719564 -0.000084 -0.000004  0.022858 -0.107186 -1.509108
38  1.209197 0.000035 0.000011  0.000661 0.071072 -0.480462
39  3.859588 -0.149082 -1.331321  -0.119219 -0.140845 -0.471563
40  1.719412 -0.000098 -0.000036  -0.007972 -0.023824 -1.231103
41  1.099674 0.000022 0.000007  -0.003780 -0.008463 -0.656665
42  0.805984 -0.359847 -1.318339  0.991670 0.166767 -0.799527
43  1.789780 -0.000009 -0.000042  0.000058 -0.002451 0.133097
44  1.206996 -0.000006 0.000006  0.000372 -0.000071 1.058780
45  5.740572 0.000080 0.000722  0.165836 -0.000014 0.000028
46  11.480911 -0.000040 0.000928  0.047414 0.095497 0.143781
47  6.027515 -0.000273 -0.000230  -0.944914 -0.505337 -1.693056
48  -0.000001 11.691975 -0.000005  -1.195258 0.639205 0.905093
49  0.000004 -0.000000 -0.000000  2.413977 -0.000036 1.570860
50  -0.000008 -0.000011 0.000005  2.272645 -0.000036 1.570861
51  -3.281555 -4.289119 -6.798110  -0.089286 -2.983903 1.388999
52  -0.000000 0.000000 0.000000  0.008153 -0.000259 0.000009
53  0.000000 0.000000 -0.000000  1.565115 0.043565 -0.106862
54  -0.230298 -15.339595 -5.366223  -0.831067 -0.140739 -1.827332
55  0.000001 0.000000 -0.000000  0.000000 -0.000001 -0.000002
56  0.000032 0.000030 0.000001  -1.571902 -0.044449 -0.106509
57  9.873785 -14.853106 -23.773331  1.570796 -0.000000 0.000000
58  -15.417985 4.000748 -22.641926  1.570796 -0.000000 0.000000
59  0.658819 1.453195 -4.071830  1.570796 -0.000000 0.000000
60  -0.004311 0.001230 -0.000371  0.006898 -0.005534 -0.284229
61  0.826810 10.209643 -4.879054  1.570796 -0.000000 0.000000
62  0.000000 0.000000 0.000000  -0.078727 -3.136056 0.284226
63  -2.243053 -2.227381 -0.317886  1.570796 -0.000000 0.000000
64  -2.279817 -8.249742 -1.859107  1.569926 0.025974 0.016131
65  0.042269 -2.588229 0.672586  -0.000000 -0.000000 -0.000000
66  0.048105 -1.112259 5.803835  -0.000000 -0.000000 -0.000000
67  0.048106 -0.032153 -1.710083  -0.000000 -0.000000 -0.000000
68  0.042354 -1.078447 21.234571  -0.000000 -0.000000 -0.000000
69  0.436542 -3.059779 3.935332  -0.000000 -0.000000 -0.000000
70  0.672328 -2.032812 2.042324  -0.000000 -0.000000 -0.000000
71  -0.729358 -1.331797 3.242018  -0.000000 -0.000000 -0.000000
72  0.194741 -1.447476 3.023560  -0.000000 -0.000000 -0.000000
73  -0.700892 0.650637 17.606174  -0.000000 -0.000000 -0.000000
74  0.042269 -2.357917 -0.445848  -0.000000 -0.000000 -0.000000
75  0.436542 -0.003270 1.776057  -0.000000 -0.000000 -0.000000
76  -2.307649 -12.960754 -5.950867  1.569926 0.025974 0.016131
77  -0.097392 2.508476 -1.682822  -0.000000 -0.000000 -0.000000
78  0.138693 2.343452 -1.682823  -0.000000 -0.000000 -0.000000
79  -2.137356 -17.107283 -1.875883  1.569926 0.025974 0.016131
80  -0.861920 -0.180712 3.135019  -0.000000 -0.000000 -0.000000
81  -0.861920 0.097230 3.003448  -0.000000 -0.000000 -0.000000
82  -0.861920 -0.180725 2.815480  -0.000000 -0.000000 -0.000000
83  -0.861920 0.097217 2.683908  -0.000000 -0.000000 -0.000000
84  -0.861920 -0.180725 2.495585  -0.000000 -0.000000 -0.000000
85  -0.861920 0.097216 2.364012  -0.000000 -0.000000 -0.000000
86  -0.861920 -0.180726 2.176041  -0.000000 -0.000000 -0.000000
87  -0.861920 0.097215 2.044468  -0.000000 -0.000000 -0.000000
88  -0.861920 -0.180726 1.861903  -0.000000 -0.000000 -0.000000
89  -0.861920 0.097215 1.730332  -0.000000 -0.000000 -0.000000
90  -0.861920 -0.180727 1.542359  -0.000000 -0.000000 -0.000000
91  -0.861920 0.097214 1.410790  -0.000000 -0.000000 -0.000000
92  -0.861920 -0.180722 1.222465  -0.000000 -0.000000 -0.000000
93  -0.861920 0.097220 1.090892  -0.000000 -0.000000 -0.000000
94  -0.861920 -0.180712 0.918800  -0.000000 -0.000000 -0.000000
95  -0.861920 0.097230 0.787231  -0.000000 -0.000000 -0.000000
96  -0.861920 -0.180725 0.599259  -0.000000 -0.000000 -0.000000
97  -0.861920 0.097217 0.467689  -0.000000 -0.000000 -0.000000
98  -0.861920 -0.180725 0.279366  -0.000000 -0.000000 -0.000000
99  -0.861920 0.097216 0.147793  -0.000000 -0.000000 -0.000000
100  -0.861920 -0.180726 -0.040178  -0.000000 -0.000000 -0.000000
101  -0.861920 0.097215 -0.171751  -0.000000 -0.000000 -0.000000
102  -0.861920 -0.180727 -0.354316  -0.000000 -0.000000 -0.000000
103  -0.861920 0.097215 -0.485886  -0.000000 -0.000000 -0.000000
104  -0.861920 -0.180727 -0.673860  -0.000000 -0.000000 -0.000000
105  -0.861920 0.097214 -0.805431  -0.000000 -0.000000 -0.000000
106  -0.861920 -0.180722 -0.993754  -0.000000 -0.000000 -0.000000
107  -0.861920 0.097220 -1.125327  -0.000000 -0.000000 -0.000000
108  -0.861920 -0.180725 -1.295306  -0.000000 -0.000000 -0.000000
109  -0.861920 0.097216 -1.426879  -0.000000 -0.000000 -0.000000
110  -0.861920 -0.180726 -1.614849  -0.000000 -0.000000 -0.000000
111  -0.861920 0.097216 -1.746423  -0.000000 -0.000000 -0.000000
112  -0.861920 -0.180727 -1.928988  -0.000000 -0.000000 -0.000000
113  -0.861920 0.097215 -2.060557  -0.000000 -0.000000 -0.000000
114  -0.861920 -0.180727 -2.248533  -0.000000 -0.000000 -0.000000
115  -0.861920 0.097214 -2.380102  -0.000000 -0.000000 -0.000000
116  -0.861920 -0.180722 -2.568427  -0.000000 -0.000000 -0.000000
117  -0.861920 0.097220 -2.700000  -0.000000 -0.000000 -0.000000
118  -0.861920 -0.180726 -2.887969  -0.000000 -0.000000 -0.000000
119  -0.861920 0.097216 -3.019542  -0.000000 -0.000000 -0.000000
120  -0.861920 -0.180724 -3.207870  -0.000000 -0.000000 -0.000000
121  -0.861920 0.097229 -3.339442  -0.000000 -0.000000 -0.000000
122  -0.861920 -0.180737 -3.527412  -0.000000 -0.000000 -0.000000
123  -0.861920 0.097216 -3.658985  -0.000000 -0.000000 -0.000000
124  -0.861920 -0.048023 -3.936774  -0.000000 -0.000000 -0.000000
125  -0.861920 0.096813 -4.220027  -0.000000 -0.000000 -0.000000
126  -0.861839 0.049009 -4.549493  -0.000000 -0.000000 -0.000000
127  -0.862202 -0.181353 -4.727588  -0.000568 0.008934 0.008929
128  -0.865933 -0.543243 -4.815326  -0.002212 0.031273 0.031204
129  0.018344 -0.713685 -5.609468  0.064463 -0.001784 -0.001902
130  0.000000 -0.000000 4.970245  -0.000000 -0.000000 -0.000000
131  0.000000 -0.000000 -2.491489  -0.000000 -0.000000 -0.000000
time 6
0  0.000006 0.000000 0.000000  -1.570800 -1.391899 -1.570792
1  -4.264289 -0.706028 0.654504  -1.544956 -1.855077 -0.198630
2  6.027524 -0.000324 0.000190  -0.947272 -1.003321 -1.340704
3  11.692109 0.000645 -0.000738  -0.925348 -0.000016 -1.358885
4  11.480115 0.000324 -0.000786  1.184833 -0.599117 0.277465
5  3.859504 -0.142823 -1.192079  -0.776638 -0.061608 -1.579277
6  1.312590 0.000010 0.000008  -0.133330 -0.022631 -0.159473
7  0.729356 0.000053 0.000049  0.000011 0.000024 -0.486779
8  3.942142 0.046331 -0.431543  -0.676461 0.339625 -1.116093
9  1.539111 0.000086 0.000004  -0.021747 -0.084031 -0.720969
10  1.196334 0.000145 0.000028  0.007459 0.001457 -0.849777
11  3.883511 -0.047212 0.431351  -0.341939 0.543315 -0.623250
12  1.719572 -0.000029 0.000016  -0.043234 -0.102278 -0.735897
13  1.209180 0.000088 0.000012  -0.004830 -0.003862 -0.898841
14  3.859677 -0.138418 1.332380  -0.027249 0.655333 -0.061922
15  1.719449 -0.000019 0.000031  -0.047003 0.033250 -0.381732
16  1.099675 0.000049 0.000006  -0.003557 0.001912 -1.061225
17  0.722613 -0.801323 1.198804  -0.993087 -0.448196 -0.282035
18  1.789821 -0.000002 -0.000018  0.005781 0.046146 0.353612
19  1.207014 -0.000013 -0.000044  -0.006137 -0.000810 0.370363
20  5.740636 0.000389 -0.000700  -0.115354 0.000003 0.000063
21  11.481030 0.000243 -0.000809  -0.053957 -0.107082 0.019873
22  6.027525 -0.000330 0.000200  1.724463 -0.548570 1.512132
23  0.000001 11.692099 -0.000007  -0.945133 -0.399953 -0.754881
24  0.000003 0.000009 -0.000000  -0.056254 -0.000031 1.570739
25  -0.000000 -0.000011 0.000000  0.868960 0.000002 1.570712
26  -6.617934 -9.178503 0.826812  1.473120 1.855075 -0.198639
27  6.027514 -0.000259 -0.000222  1.514279 0.788566 -0.713019
28  11.691990 0.000160 0.000857  0.141449 0.000068 -1.784336
29  11.479820 -0.000585 0.000914  -1.151124 0.453989 0.898525
30  3.859438 -0.132758 1.193066  0.469647 -0.013262 -1.872395
31  1.312559 0.000026 -0.000001  0.024060 -0.138696 -0.550187
32  0.729346 0.000065 -0.000027  -0.166197 -0.081570 -0.714272
33  3.942047 0.050139 0.431000  0.225309 -0.086237 -1.592712
34  1.539096 0.000005 -0.000001  0.035254 -0.050373 -0.994350
35  1.196300 0.000078 -0.000003  -0.021521 0.002175 -0.839738
36  3.883414 -0.050472 -0.431083  0.184824 -0.271737 -1.204030
37  1.719565 -0.000083 -0.000004  0.022858 -0.107186 -1.509108
38  1.209197 0.000035 0.000011  0.000662 0.071072 -0.480462
39  3.859588 -0.149081 -1.331320  -0.119219 -0.140845 -0.471563
40  1.719413 -0.000098 -0.000036  -0.007972 -0.023824 -1.231103
41  1.099674 0.000023 0.000007  -0.003780 -0.008463 -0.656665
42  0.805984 -0.359847 -1.318338  0.991670 0.166767 -0.799527
43  1.789781 -0.000009 -0.000043  0.000058 -0.002451 0.133098
44  1.206996 -0.000007 0.000006  0.000372 -0.000071 1.058780
45  5.740574 0.000078 0.000720  0.167497 -0.000014 0.000028
46  11.480908 -0.000044 0.000928  0.048095 0.096100 0.144876
47  6.027515 -0.000273 -0.000230  -0.945883 -0.506141 -1.692175
48  -0.000001 11.691975 -0.000006  -1.196436 0.640409 0.905683
49  0.000002 -0.000001 0.000000  2.413977 -0.000036 1.570860
50  -0.000008 -0.000013 0.000005  2.272645 -0.000036 1.570861
51  -3.259402 -4.268413 -6.792395  -0.086507 -2.988258 1.387897
52  0.000000 -0.000000 -0.000000  0.008153 -0.000259 0.000009
53  0.000000 0.000001 0.000000  1.565115 0.043565 -0.106862
54  -0.220505 -15.326290 -5.391718  -0.828630 -0.136191 -1.828339
55  0.000001 0.000000 -0.000000  0.000000 -0.000001 -0.000002
56  0.000031 0.000030 0.000001  -1.571902 -0.044449 -0.106509
57  9.873785 -14.853106 -23.773331  1.570796 -0.000000 0.000000
58  -15.417985 4.000748 -22.641926  1.570796 -0.000000 0.000000
59  0.658819 1.453195 -4.071830  1.570796 -0.000000 0.000000
60  -0.004311 0.001230 -0.000371  0.006898 -0.005534 -0.284229
61  0.826810 10.209643 -4.879054  1.570796 -0.000000 0.000000
62  0.000000 0.000000 0.000000  -0.078727 -3.136056 0.284226
63  -2.243053 -2.227381 -0.317886  1.570796 -0.000000 0.000000
64  -2.277544 -8.248371 -1.864957  1.573656 0.022424 0.015551
65  0.042269 -2.588230 0.672587  0.000000 -0.000000 0.000000
66  0.048105 -1.112260 5.803839  0.000000 -0.000000 0.000000
67  0.048106 -0.032154 -1.710082  0.000000 -0.000000 0.000000
68  0.042353 -1.078447 21.234575  0.000000 -0.000000 0.000000
69  0.436542 -3.059779 3.935334  0.000000 -0.000000 0.000000
70  0.672328 -2.032812 2.042324  0.000000 -0.000000 0.000000
71  -0.729358 -1.331797 3.242019  0.000000 -0.000000 0.000000
72  0.194741 -1.447476 3.023563  0.000000 -0.000000 0.000000
73  -0.700892 0.650637 17.606180  0.000000 -0.000000 0.000000
74  0.042269 -2.357918 -0.445847  0.000000 -0.000000 0.000000
75  0.436542 -0.003270 1.776059  0.000000 -0.000000 0.000000
76  -2.294221 -12.943848 -5.974595  1.573656 0.022424 0.015551
77  -0.097393 2.508477 -1.682824  0.000000 -0.000000 0.000000
78  0.138693 2.343453 -1.682824  0.000000 -0.000000 0.000000
79  -2.140909 -17.105881 -1.914770  1.573656 0.022424 0.015551
80  -0.861920 -0.180712 3.135021  0.000000 -0.000000 -0.000000
81  -0.861921 0.097230 3.003451  0.000000 -0.000000 -0.000000
82  -0.861920 -0.180725 2.815480  0.000000 -0.000000 -0.000000
83  -0.861920 0.097217 2.683910  0.000000 -0.000000 -0.000000
84  -0.861920 -0.180725 2.495586  0.000000 -0.000000 -0.000000
85  -0.861920 0.097216 2.364014  0.000000 -0.000000 -0.000000
86  -0.861920 -0.180726 2.176041  0.000000 -0.000000 -0.000000
87  -0.861920 0.097216 2.044469  0.000000 -0.000000 -0.000000
88  -0.861920 -0.180727 1.861903  0.000000 -0.000000 -0.000000
89  -0.861920 0.097215 1.730335  0.000000 -0.000000 -0.000000
90  -0.861920 -0.180727 1.542360  0.000000 -0.000000 -0.000000
91  -0.861920 0.097214 1.410792  0.000000 -0.000000 -0.000000
92  -0.861920 -0.180722 1.222466  0.000000 -0.000000 -0.000000
93  -0.861920 0.097220 1.090892  0.000000 -0.000000 -0.000000
94  -0.861920 -0.180712 0.918802  0.000000 -0.000000 -0.000000
95  -0.861920 0.097230 0.787233  0.000000 -0.000000 -0.000000
96  -0.861920 -0.180725 0.599259  0.000000 -0.000000 -0.000000
97  -0.861920 0.097217 0.467692  0.000000 -0.000000 -0.000000
98  -0.861920 -0.180726 0.279367  0.000000 -0.000000 -0.000000
99  -0.861920 0.097216 0.147794  0.000000 -0.000000 -0.000000
100  -0.861920 -0.180726 -0.040176  0.000000 -0.000000 -0.000000
101  -0.861920 0.097216 -0.171750  0.000000 -0.000000 -0.000000
102  -0.861920 -0.180727 -0.354316  0.000000 -0.000000 -0.000000
103  -0.861920 0.097215 -0.485883  0.000000 -0.000000 -0.000000
104  -0.861920 -0.180727 -0.673859  0.000000 -0.000000 -0.000000
105  -0.861920 0.097214 -0.805430  0.000000 -0.000000 -0.000000
106  -0.861920 -0.180721 -0.993753  0.000000 -0.000000 -0.000000
107  -0.861920 0.097220 -1.125327  0.000000 -0.000000 -0.000000
108  -0.861920 -0.180725 -1.295305  0.000000 -0.000000 -0.000000
109  -0.861920 0.097216 -1.426878  0.000000 -0.000000 -0.000000
110  -0.861920 -0.180726 -1.614849  0.000000 -0.000000 -0.000000
111  -0.861920 0.097216 -1.746423  0.000000 -0.000000 -0.000000
112  -0.861920 -0.180726 -1.928987  0.000000 -0.000000 -0.000000
113  -0.861920 0.097215 -2.060557  0.000000 -0.000000 -0.000000
114  -0.861920 -0.180727 -2.248531  0.000000 -0.000000 -0.000000
115  -0.861920 0.097214 -2.380100  0.000000 -0.000000 -0.000000
116  -0.861920 -0.180722 -2.568426  0.000000 -0.000000 -0.000000
117  -0.861920 0.097220 -2.700000  0.000000 -0.000000 -0.000000
118  -0.861920 -0.180725 -2.887967  0.000000 -0.000000 -0.000000
119  -0.861920 0.097216 -3.019542  0.000000 -0.000000 -0.000000
120  -0.861920 -0.180724 -3.207868  0.000000 -0.000000 -0.000000
121  -0.861920 0.097229 -3.339442  0.000000 -0.000000 -0.000000
122  -0.861920 -0.180737 -3.527411  0.000000 -0.000000 -0.000000
123  -0.861920 0.097217 -3.658983  0.000000 -0.000000 -0.000000
124  -0.861920 -0.048023 -3.936773  0.000000 -0.000000 -0.000000
125  -0.861920 0.096813 -4.220027  0.000000 -0.000000 -0.000000
126  -0.861839 0.049009 -4.549491  0.000000 -0.000000 0.000000
127  -0.862203 -0.181353 -4.727587  -0.000568 0.008934 0.008929
128  -0.865933 -0.543243 -4.815324  -0.002212 0.031273 0.031204
129  0.018344 -0.713685 -5.609468  0.064463 -0.001783 -0.001902
130  0.000000 0.000000 4.970248  0.000000 -0.000000 0.000000
131  0.000000 0.000000 -2.491489  0.000000 -0.000000 0.000000
time 7
0  0.000006 0.000000 0.000000  -1.570800 -1.391899 -1.570792
1  -4.264289 -0.706028 0.654504  -1.544956 -1.855077 -0.198630
2  6.027524 -0.000324 0.000190  -0.947858 -1.003799 -1.340827
3  11.692109 0.000645 -0.000738  -0.925348 -0.000016 -1.358860
4  11.480115 0.000324 -0.000788  1.188625 -0.597255 0.280690
5  3.859504 -0.142823 -1.192079  -0.776638 -0.061608 -1.579277
6  1.312592 0.000009 0.000007  -0.133329 -0.022631 -0.159473
7  0.729355 0.000053 0.000048  0.000011 0.000024 -0.486779
8  3.942139 0.046331 -0.431543  -0.676460 0.339625 -1.116093
9  1.539111 0.000083 0.000003  -0.021747 -0.084031 -0.720969
10  1.196332 0.000145 0.000027  0.007458 0.001457 -0.849778
11  3.883510 -0.047212 0.431351  -0.341939 0.543315 -0.623251
12  1.719573 -0.000027 0.000016  -0.043234 -0.102278 -0.735897
13  1.209179 0.000089 0.000012  -0.004830 -0.003862 -0.898841
14  3.859675 -0.138418 1.332379  -0.027249 0.655333 -0.061922
15  1.719448 -0.000017 0.000030  -0.047003 0.033250 -0.381732
16  1.099676 0.000049 0.000006  -0.003557 0.001912 -1.061225
17  0.722612 -0.801323 1.198803  -0.993087 -0.448196 -0.282035
18  1.789816 -0.000004 -0.000018  0.005781 0.046146 0.353612
19  1.207015 -0.000014 -0.000044  -0.006137 -0.000810 0.370363
20  5.740636 0.000388 -0.000700  -0.114135 0.000003 0.000063
21  11.481031 0.000243 -0.000809  -0.053197 -0.106711 0.020800
22  6.027525 -0.000330 0.000200  1.724657 -0.548022 1.511413
23  0.000000 11.692100 -0.000007  -0.945118 -0.399940 -0.754871
24  0.000004 0.000010 0.000000  -0.056254 -0.000031 1.570739
25  0.000000 -0.000011 0.000000  0.868960 0.000002 1.570712
26  -6.617934 -9.178503 0.826812  1.473120 1.855075 -0.198639
27  6.027514 -0.000259 -0.000222  1.511194 0.789340 -0.714441
28  11.691989 0.000161 0.000857  0.141449 0.000068 -1.784139
29  11.479822 -0.000583 0.000913  -1.144364 0.458145 0.901151
30  3.859437 -0.132759 1.193066  0.469647 -0.013262 -1.872395
31  1.312559 0.000025 -0.000002  0.024060 -0.138696 -0.550187
32  0.729346 0.000065 -0.000027  -0.166197 -0.081570 -0.714272
33  3.942046 0.050139 0.431000  0.225309 -0.086237 -1.592712
34  1.539097 0.000006 -0.000001  0.035254 -0.050373 -0.994350
35  1.196301 0.000078 -0.000004  -0.021521 0.002175 -0.839738
36  3.883413 -0.050472 -0.431084  0.184824 -0.271737 -1.204030
37  1.719565 -0.000083 -0.000005  0.022858 -0.107186 -1.509108
38  1.209198 0.000036 0.000011  0.000661 0.071072 -0.480462
39  3.859588 -0.149082 -1.331320  -0.119219 -0.140845 -0.471563
40  1.719413 -0.000098 -0.000037  -0.007972 -0.023824 -1.231103
41  1.099673 0.000023 0.000008  -0.003780 -0.008463 -0.656665
42  0.805984 -0.359848 -1.318338  0.991670 0.166767 -0.799527
43  1.789780 -0.000008 -0.000042  0.000058 -0.002451 0.133097
44  1.206996 -0.000007 0.000005  0.000372 -0.000071 1.058780
45  5.740573 0.000079 0.000720  0.168787 -0.000014 0.000028
46  11.480908 -0.000042 0.000928  0.048842 0.097404 0.144799
47  6.027515 -0.000273 -0.000230  -0.948007 -0.507510 -1.690378
48  -0.000003 11.691976 -0.000005  -1.196321 0.640291 0.905626
49  0.000003 -0.000000 -0.000000  2.413977 -0.000036 1.570860
50  -0.000008 -0.000013 0.000005  2.272645 -0.000036 1.570861
51  -3.226949 -4.266196 -6.801978  -0.080921 -2.988883 1.385362
52  -0.000000 -0.000000 -0.000001  0.008153 -0.000259 0.000009
53  0.000000 -0.000000 0.000000  1.565115 0.043565 -0.106862
54  -0.214496 -15.328610 -5.380151  -0.823121 -0.135156 -1.830768
55  0.000001 0.000000 0.000000  0.000000 -0.000001 -0.000002
56  0.000032 0.000029 0.000001  -1.571901 -0.044449 -0.106509
57  9.873785 -14.853106 -23.773331  1.570796 -0.000000 0.000000
58  -15.417985 4.000748 -22.641926  1.570796 -0.000000 0.000000
59  0.658819 1.453195 -4.071830  1.570796 -0.000000 0.000000
60  -0.004311 0.001230 -0.000371  0.006898 -0.005534 -0.284229
61  0.826810 10.209643 -4.879054  1.570796 -0.000000 0.000000
62  0.000000 0.000000 0.000000  -0.078727 -3.136056 0.284226
63  -2.243053 -2.227381 -0.317886  1.570796 -0.000000 0.000000
64  -2.279119 -8.245825 -1.867617  1.573178 0.016889 0.013857
65  0.042269 -2.588230 0.672587  0.000000 0.000000 0.000000
66  0.048105 -1.112260 5.803837  0.000000 0.000000 0.000000
67  0.048105 -0.032153 -1.710083  0.000000 0.000000 0.000000
68  0.042353 -1.078447 21.234575  0.000000 0.000000 0.000000
69  0.436542 -3.059779 3.935333  0.000000 0.000000 0.000000
70  0.672328 -2.032812 2.042324  0.000000 0.000000 0.000000
71  -0.729358 -1.331797 3.242019  0.000000 0.000000 0.000000
72  0.194740 -1.447476 3.023561  0.000000 0.000000 0.000000
73  -0.700892 0.650637 17.606180  0.000000 0.000000 0.000000
74  0.042269 -2.357918 -0.445848  0.000000 0.000000 0.000000
75  0.436542 -0.003270 1.776058  0.000000 0.000000 0.000000
76  -2.280934 -12.942915 -5.975446  1.573178 0.016889 0.013857
77  -0.097392 2.508478 -1.682826  0.000000 0.000000 0.000000
78  0.138693 2.343453 -1.682825  0.000000 0.000000 0.000000
79  -2.157135 -17.103571 -1.913203  1.573178 0.016889 0.013857
80  -0.861920 -0.180712 3.135021  0.000000 -0.000000 -0.000000
81  -0.861921 0.097230 3.003451  0.000000 -0.000000 -0.000000
82  -0.861921 -0.180725 2.815483  0.000000 -0.000000 -0.000000
83  -0.861920 0.097217 2.683909  0.000000 -0.000000 -0.000000
84  -0.861920 -0.180725 2.495586  0.000000 -0.000000 -0.000000
85  -0.861920 0.097216 2.364013  0.000000 -0.000000 -0.000000
86  -0.861921 -0.180726 2.176044  0.000000 -0.000000 -0.000000
87  -0.861920 0.097216 2.044469  0.000000 -0.000000 -0.000000
88  -0.861920 -0.180727 1.861905  0.000000 -0.000000 -0.000000
89  -0.861920 0.097215 1.730332  0.000000 -0.000000 -0.000000
90  -0.861920 -0.180727 1.542362  0.000000 -0.000000 -0.000000
91  -0.861920 0.097214 1.410790  0.000000 -0.000000 -0.000000
92  -0.861921 -0.180721 1.222467  0.000000 -0.000000 -0.000000
93  -0.861920 0.097220 1.090891  0.000000 -0.000000 -0.000000
94  -0.861921 -0.180712 0.918803  0.000000 -0.000000 -0.000000
95  -0.861920 0.097230 0.787233  0.000000 -0.000000 -0.000000
96  -0.861920 -0.180725 0.599261  0.000000 -0.000000 -0.000000
97  -0.861920 0.097217 0.467690  0.000000 -0.000000 -0.000000
98  -0.861920 -0.180725 0.279368  0.000000 -0.000000 -0.000000
99  -0.861920 0.097216 0.147793  0.000000 -0.000000 -0.000000
100  -0.861920 -0.180726 -0.040175  0.000000 -0.000000 -0.000000
101  -0.861920 0.097216 -0.171751  0.000000 -0.000000 -0.000000
102  -0.861920 -0.180726 -0.354314  0.000000 -0.000000 -0.000000
103  -0.861920 0.097215 -0.485884  0.000000 -0.000000 -0.000000
104  -0.861920 -0.180727 -0.673858  0.000000 -0.000000 -0.000000
105  -0.861920 0.097214 -0.805432  0.000000 -0.000000 -0.000000
106  -0.861920 -0.180721 -0.993753  0.000000 -0.000000 -0.000000
107  -0.861920 0.097220 -1.125327  0.000000 -0.000000 -0.000000
108  -0.861920 -0.180725 -1.295305  0.000000 -0.000000 -0.000000
109  -0.861920 0.097216 -1.426878  0.000000 -0.000000 -0.000000
110  -0.861920 -0.180726 -1.614850  0.000000 -0.000000 -0.000000
111  -0.861920 0.097216 -1.746422  0.000000 -0.000000 -0.000000
112  -0.861920 -0.180726 -1.928988  0.000000 -0.000000 -0.000000
113  -0.861920 0.097215 -2.060557  0.000000 -0.000000 -0.000000
114  -0.861921 -0.180727 -2.248531  0.000000 -0.000000 -0.000000
115  -0.861920 0.097214 -2.380101  0.000000 -0.000000 -0.000000
116  -0.861920 -0.180721 -2.568426  0.000000 -0.000000 -0.000000
117  -0.861920 0.097220 -2.700000  0.000000 -0.000000 -0.000000
118  -0.861920 -0.180725 -2.887968  0.000000 -0.000000 -0.000000
119  -0.861921 0.097216 -3.019542  0.000000 -0.000000 -0.000000
120  -0.861920 -0.180724 -3.207869  0.000000 -0.000000 -0.000000
121  -0.861920 0.097229 -3.339442  0.000000 -0.000000 -0.000000
122  -0.861920 -0.180737 -3.527411  0.000000 -0.000000 -0.000000
123  -0.861920 0.097217 -3.658984  0.000000 -0.000000 -0.000000
124  -0.861921 -0.048023 -3.936773  0.000000 -0.000000 -0.000000
125  -0.861920 0.096813 -4.220026  0.000000 -0.000000 -0.000000
126  -0.861839 0.049009 -4.549492  0.000000 -0.000000 0.000000
127  -0.862203 -0.181353 -4.727587  -0.000568 0.008934 0.008929
128  -0.865934 -0.543243 -4.815326  -0.002212 0.031273 0.031204
129  0.018344 -0.713685 -5.609470  0.064463 -0.001783 -0.001902
130  0.000000 0.000000 4.970247  0.000000 0.000000 0.000000
131  0.000000 0.000000 -2.491489  0.000000 0.000000 0.000000
time 8
0  0.000006 0.000000 0.000000  -1.570800 -1.391899 -1.570792
1  -4.264289 -0.706028 0.654504  -1.544956 -1.855077 -0.198630
2  6.027524 -0.000324 0.000190  -0.946191 -1.005806 -1.343245
3  11.692108 0.000645 -0.000738  -0.925348 -0.000016 -1.356789
4  11.480127 0.000329 -0.000782  1.192977 -0.592640 0.285216
5  3.859504 -0.142824 -1.192080  -0.776638 -0.061608 -1.579277
6  1.312590 0.000009 0.000008  -0.133330 -0.022631 -0.159473
7  0.729355 0.000055 0.000047  0.000011 0.000024 -0.486779
8  3.942142 0.046330 -0.431543  -0.676461 0.339625 -1.116093
9  1.539111 0.000083 0.000005  -0.021747 -0.084031 -0.720969
10  1.196332 0.000147 0.000028  0.007458 0.001457 -0.849777
11  3.883511 -0.047213 0.431351  -0.341939 0.543315 -0.623251
12  1.719573 -0.000027 0.000017  -0.043234 -0.102278 -0.735897
13  1.209179 0.000089 0.000012  -0.004830 -0.003862 -0.898841
14  3.859677 -0.138419 1.332379  -0.027249 0.655333 -0.061922
15  1.719449 -0.000019 0.000029  -0.047003 0.033250 -0.381732
16  1.099675 0.000048 0.000006  -0.003557 0.001912 -1.061225
17  0.722613 -0.801324 1.198803  -0.993087 -0.448196 -0.282035
18  1.789820 -0.000003 -0.000018  0.005781 0.046146 0.353612
19  1.207014 -0.000013 -0.000043  -0.006137 -0.000810 0.370363
20  5.740636 0.000388 -0.000699  -0.112409 0.000003 0.000063
21  11.481033 0.000243 -0.000809  -0.052396 -0.105820 0.022115
22  6.027525 -0.000330 0.000200  1.722986 -0.546351 1.511272
23  -0.000001 11.692099 -0.000007  -0.943867 -0.398857 -0.754021
24  0.000004 0.000009 -0.000001  -0.056254 -0.000030 1.570739
25  -0.000001 -0.000011 0.000000  0.868960 0.000002 1.570712
26  -6.617934 -9.178503 0.826812  1.473120 1.855075 -0.198639
27  6.027514 -0.000259 -0.000222  1.506738 0.791148 -0.716548
28  11.691991 0.000162 0.000857  0.141449 0.000069 -1.783566
29  11.479826 -0.000582 0.000914  -1.135122 0.466180 0.906102
30  3.859437 -0.132758 1.193065  0.469647 -0.013262 -1.872395
31  1.312559 0.000027 -0.000001  0.024060 -0.138696 -0.550187
32  0.729346 0.000065 -0.000028  -0.166197 -0.081570 -0.714272
33  3.942047 0.050139 0.430999  0.225309 -0.086237 -1.592712
34  1.539097 0.000005 -0.000001  0.035254 -0.050373 -0.994350
35  1.196300 0.000077 -0.000004  -0.021521 0.002175 -0.839738
36  3.883414 -0.050472 -0.431085  0.184824 -0.271737 -1.204030
37  1.719564 -0.000084 -0.000004  0.022858 -0.107186 -1.509108
38  1.209198 0.000035 0.000011  0.000661 0.071072 -0.480462
39  3.859588 -0.149082 -1.331321  -0.119219 -0.140845 -0.471563
40  1.719412 -0.000098 -0.000036  -0.007972 -0.023824 -1.231103
41  1.099674 0.000022 0.000007  -0.003780 -0.008463 -0.656665
42  0.805984 -0.359847 -1.318339  0.991670 0.166767 -0.799527
43  1.789780 -0.000009 -0.000042  0.000058 -0.002451 0.133097
44  1.206996 -0.000007 0.000006  0.000372 -0.000071 1.058781
45  5.740573 0.000078 0.000721  0.170670 -0.000013 0.000028
46  11.480910 -0.000043 0.000928  0.049591 0.099646 0.144825
47  6.027515 -0.000273 -0.000230  -0.951737 -0.509086 -1.687503
48  -0.000001 11.691974 -0.000006  -1.195984 0.639946 0.905457
49  0.000002 -0.000001 0.000000  2.413977 -0.000036 1.570860
50  -0.000008 -0.000012 0.000004  2.272645 -0.000036 1.570861
51  -3.175624 -4.265048 -6.808952  -0.073446 -2.989364 1.379579
52  0.000000 0.000000 -0.000001  0.008153 -0.000259 0.000009
53  -0.000000 0.000000 -0.000000  1.565115 0.043565 -0.106862
54  -0.225180 -15.340009 -5.355131  -0.815722 -0.134127 -1.836409
55  -0.000000 -0.000000 0.000000  0.000000 -0.000001 -0.000002
56  0.000030 0.000029 0.000001  -1.571902 -0.044449 -0.106509
57  9.873785 -14.853106 -23.773331  1.570796 -0.000000 0.000000
58  -15.417985 4.000748 -22.641926  1.570796 -0.000000 0.000000
59  0.658819 1.453195 -4.071830  1.570796 -0.000000 0.000000
60  -0.004311 0.001230 -0.000371  0.006898 -0.005534 -0.284229
61  0.826810 10.209643 -4.879054  1.570796 -0.000000 0.000000
62  0.000000 0.000000 0.000000  -0.078727 -3.136056 0.284226
63  -2.243053 -2.227381 -0.317886  1.570796 -0.000000 0.000000
64  -2.282583 -8.244453 -1.864201  1.572182 0.009552 0.009197
65  0.042269 -2.588230 0.672587  -0.000000 -0.000000 -0.000000
66  0.048105 -1.112260 5.803837  -0.000000 -0.000000 -0.000000
67  0.048106 -0.032154 -1.710082  -0.000000 -0.000000 -0.000000
68  0.042354 -1.078448 21.234575  -0.000000 -0.000000 -0.000000
69  0.436542 -3.059779 3.935334  -0.000000 -0.000000 -0.000000
70  0.672328 -2.032812 2.042325  -0.000000 -0.000000 -0.000000
71  -0.729358 -1.331797 3.242019  -0.000000 -0.000000 -0.000000
72  0.194741 -1.447476 3.023562  -0.000000 -0.000000 -0.000000
73  -0.700892 0.650637 17.606180  -0.000000 -0.000000 -0.000000
74  0.042269 -2.357918 -0.445847  -0.000000 -0.000000 -0.000000
75  0.436542 -0.003270 1.776059  -0.000000 -0.000000 -0.000000
76  -2.276071 -12.945295 -5.967730  1.572182 0.009552 0.009197
77  -0.097392 2.508478 -1.682826  -0.000000 -0.000000 -0.000000
78  0.138693 2.343453 -1.682826  -0.000000 -0.000000 -0.000000
79  -2.201466 -17.102707 -1.900968  1.572182 0.009552 0.009197
80  -0.861920 -0.180712 3.135018  -0.000000 -0.000000 -0.000000
81  -0.861920 0.097230 3.003447  -0.000000 -0.000000 -0.000000
82  -0.861920 -0.180724 2.815477  -0.000000 -0.000000 -0.000000
83  -0.861920 0.097217 2.683906  -0.000000 -0.000000 -0.000000
84  -0.861920 -0.180725 2.495581  -0.000000 -0.000000 -0.000000
85  -0.861920 0.097216 2.364010  -0.000000 -0.000000 -0.000000
86  -0.861920 -0.180726 2.176038  -0.000000 -0.000000 -0.000000
87  -0.861920 0.097216 2.044465  -0.000000 -0.000000 -0.000000
88  -0.861920 -0.180727 1.861899  -0.000000 -0.000000 -0.000000
89  -0.861920 0.097215 1.730328  -0.000000 -0.000000 -0.000000
90  -0.861920 -0.180727 1.542357  -0.000000 -0.000000 -0.000000
91  -0.861920 0.097215 1.410788  -0.000000 -0.000000 -0.000000
92  -0.861920 -0.180721 1.222461  -0.000000 -0.000000 -0.000000
93  -0.861920 0.097220 1.090888  -0.000000 -0.000000 -0.000000
94  -0.861920 -0.180712 0.918798  -0.000000 -0.000000 -0.000000
95  -0.861920 0.097230 0.787229  -0.000000 -0.000000 -0.000000
96  -0.861920 -0.180724 0.599255  -0.000000 -0.000000 -0.000000
97  -0.861920 0.097217 0.467686  -0.000000 -0.000000 -0.000000
98  -0.861920 -0.180725 0.279364  -0.000000 -0.000000 -0.000000
99  -0.861920 0.097216 0.147791  -0.000000 -0.000000 -0.000000
100  -0.861920 -0.180726 -0.040181  -0.000000 -0.000000 -0.000000
101  -0.861920 0.097216 -0.171754  -0.000000 -0.000000 -0.000000
102  -0.861920 -0.180726 -0.354320  -0.000000 -0.000000 -0.000000
103  -0.861920 0.097215 -0.485889  -0.000000 -0.000000 -0.000000
104  -0.861920 -0.180727 -0.673863  -0.000000 -0.000000 -0.000000
105  -0.861920 0.097215 -0.805434  -0.000000 -0.000000 -0.000000
106  -0.861920 -0.180721 -0.993758  -0.000000 -0.000000 -0.000000
107  -0.861920 0.097220 -1.125330  -0.000000 -0.000000 -0.000000
108  -0.861920 -0.180725 -1.295310  -0.000000 -0.000000 -0.000000
109  -0.861920 0.097216 -1.426883  -0.000000 -0.000000 -0.000000
110  -0.861920 -0.180726 -1.614854  -0.000000 -0.000000 -0.000000
111  -0.861920 0.097216 -1.746426  -0.000000 -0.000000 -0.000000
112  -0.861920 -0.180727 -1.928993  -0.000000 -0.000000 -0.000000
113  -0.861920 0.097215 -2.060561  -0.000000 -0.000000 -0.000000
114  -0.861920 -0.180727 -2.248537  -0.000000 -0.000000 -0.000000
115  -0.861920 0.097215 -2.380105  -0.000000 -0.000000 -0.000000
116  -0.861920 -0.180721 -2.568432  -0.000000 -0.000000 -0.000000
117  -0.861920 0.097220 -2.700003  -0.000000 -0.000000 -0.000000
118  -0.861920 -0.180725 -2.887973  -0.000000 -0.000000 -0.000000
119  -0.861920 0.097217 -3.019545  -0.000000 -0.000000 -0.000000
120  -0.861920 -0.180724 -3.207874  -0.000000 -0.000000 -0.000000
121  -0.861920 0.097230 -3.339446  -0.000000 -0.000000 -0.000000
122  -0.861920 -0.180737 -3.527416  -0.000000 -0.000000 -0.000000
123  -0.861920 0.097217 -3.658988  -0.000000 -0.000000 -0.000000
124  -0.861920 -0.048023 -3.936778  -0.000000 -0.000000 -0.000000
125  -0.861920 0.096813 -4.220032  -0.000000 -0.000000 -0.000000
126  -0.861839 0.049010 -4.549497  -0.000000 -0.000000 -0.000000
127  -0.862202 -0.181353 -4.727592  -0.000568 0.008934 0.008929
128  -0.865933 -0.543243 -4.815330  -0.002212 0.031273 0.031204
129  0.018345 -0.713685 -5.609473  0.064463 -0.001783 -0.001902
130  0.000000 0.000000 4.970243  -0.000000 -0.000000 -0.000000
131  0.000000 0.000000 -2.491490  -0.000000 -0.000000 -0.000000
time 9
0  0.000006 0.000000 0.000000  -1.570800 -1.391899 -1.570792
1  -4.264289 -0.706028 0.654504  -1.544956 -1.855077 -0.198630
2  6.027524 -0.000324 0.000190  -0.942786 -1.008579 -1.347112
3  11.692109 0.000645 -0.000738  -0.925348 -0.000016 -1.353148
4  11.480149 0.000336 -0.000772  1.196301 -0.586646 0.289470
5  3.859504 -0.142823 -1.192079  -0.776638 -0.061608 -1.579277
6  1.312590 0.000010 0.000008  -0.133330 -0.022631 -0.159473
7  0.729355 0.000053 0.000049  0.000011 0.000024 -0.486779
8  3.942141 0.046331 -0.431543  -0.676461 0.339625 -1.116093
9  1.539110 0.000084 0.000004  -0.021747 -0.084031 -0.720969
10  1.196332 0.000146 0.000030  0.007458 0.001457 -0.849778
11  3.883511 -0.047212 0.431351  -0.341939 0.543315 -0.623250
12  1.719572 -0.000029 0.000017  -0.043234 -0.102278 -0.735897
13  1.209179 0.000091 0.000013  -0.004830 -0.003862 -0.898841
14  3.859678 -0.138418 1.332379  -0.027249 0.655333 -0.061922
15  1.719450 -0.000018 0.000029  -0.047003 0.033250 -0.381732
16  1.099676 0.000049 0.000005  -0.003557 0.001912 -1.061225
17  0.722613 -0.801323 1.198803  -0.993087 -0.448196 -0.282035
18  1.789818 -0.000003 -0.000018  0.005781 0.046146 0.353612
19  1.207014 -0.000014 -0.000043  -0.006137 -0.000810 0.370363
20  5.740637 0.000388 -0.000700  -0.110735 0.000003 0.000063
21  11.481038 0.000244 -0.000806  -0.051857 -0.104677 0.023364
22  6.027525 -0.000330 0.000200  1.720032 -0.544202 1.511815
23  -0.000000 11.692101 -0.000007  -0.941667 -0.396955 -0.752522
24  0.000003 0.000010 0.000000  -0.056254 -0.000031 1.570738
25  0.000000 -0.000011 0.000000  0.868960 0.000002 1.570712
26  -6.617934 -9.178503 0.826812  1.473120 1.855075 -0.198639
27  6.027514 -0.000259 -0.000222  1.502284 0.793442 -0.718702
28  11.691991 0.000161 0.000858  0.141449 0.000069 -1.782616
29  11.479836 -0.000573 0.000914  -1.126420 0.475419 0.911859
30  3.859438 -0.132759 1.193065  0.469647 -0.013262 -1.872395
31  1.312559 0.000024 -0.000000  0.024060 -0.138696 -0.550187
32  0.729346 0.000064 -0.000027  -0.166197 -0.081570 -0.714272
33  3.942046 0.050139 0.431000  0.225309 -0.086237 -1.592712
34  1.539097 0.000006 -0.000001  0.035254 -0.050373 -0.994350
35  1.196301 0.000076 -0.000003  -0.021521 0.002175 -0.839738
36  3.883413 -0.050472 -0.431084  0.184824 -0.271737 -1.204030
37  1.719563 -0.000085 -0.000004  0.022858 -0.107186 -1.509108
38  1.209197 0.000035 0.000011  0.000661 0.071072 -0.480462
39  3.859588 -0.149082 -1.331321  -0.119219 -0.140845 -0.471563
40  1.719412 -0.000098 -0.000037  -0.007972 -0.023824 -1.231103
41  1.099674 0.000023 0.000007  -0.003780 -0.008463 -0.656665
42  0.805983 -0.359847 -1.318338  0.991670 0.166767 -0.799527
43  1.789780 -0.000009 -0.000042  0.000058 -0.002451 0.133097
44  1.206997 -0.000008 0.000006  0.000372 -0.000071 1.058780
45  5.740573 0.000081 0.000721  0.172480 -0.000014 0.000028
46  11.480912 -0.000040 0.000928  0.050086 0.102087 0.144956
47  6.027515 -0.000273 -0.000230  -0.955933 -0.510363 -1.684438
48  -0.000002 11.691975 -0.000007  -1.195425 0.639375 0.905176
49  0.000002 -0.000002 -0.000000  2.413977 -0.000036 1.570860
50  -0.000007 -0.000012 0.000004  2.272645 -0.000036 1.570861
51  -3.121731 -4.266888 -6.812030  -0.066657 -2.989748 1.372419
52  0.000000 -0.000000 0.000000  0.008153 -0.000259 0.000009
53  0.000000 0.000000 -0.000000  1.565115 0.043565 -0.106862
54  -0.249032 -15.358349 -5.328614  -0.808999 -0.133245 -1.843437
55  0.000001 0.000000 -0.000000  0.000000 -0.000001 -0.000002
56  0.000031 0.000029 0.000001  -1.571902 -0.044449 -0.106509
57  9.873785 -14.853106 -23.773331  1.570796 -0.000000 0.000000
58  -15.417985 4.000748 -22.641926  1.570796 -0.000000 0.000000
59  0.658819 1.453195 -4.071830  1.570796 -0.000000 0.000000
60  -0.004311 0.001230 -0.000371  0.006898 -0.005534 -0.284229
61  0.826810 10.209643 -4.879054  1.570796 -0.000000 0.000000
62  0.000000 0.000000 0.000000  -0.078727 -3.136056 0.284226
63  -2.243053 -2.227381 -0.317886  1.570796 -0.000000 0.000000
64  -2.286048 -8.247034 -1.857857  1.571220 0.002900 0.003058
65  0.042269 -2.588230 0.672585  -0.000000 -0.000000 -0.000000
66  0.048105 -1.112259 5.803836  -0.000000 -0.000000 -0.000000
67  0.048106 -0.032154 -1.710083  -0.000000 -0.000000 -0.000000
68  0.042353 -1.078447 21.234573  -0.000000 -0.000000 -0.000000
69  0.436542 -3.059779 3.935332  -0.000000 -0.000000 -0.000000
70  0.672328 -2.032812 2.042325  -0.000000 -0.000000 -0.000000
71  -0.729358 -1.331797 3.242018  -0.000000 -0.000000 -0.000000
72  0.194740 -1.447476 3.023561  -0.000000 -0.000000 -0.000000
73  -0.700892 0.650637 17.606176  -0.000000 -0.000000 -0.000000
74  0.042269 -2.357918 -0.445848  -0.000000 -0.000000 -0.000000
75  0.436541 -0.003270 1.776058  -0.000000 -0.000000 -0.000000
76  -2.281070 -12.951689 -5.957015  1.571220 0.002900 0.003058
77  -0.097393 2.508477 -1.682825  -0.000000 -0.000000 -0.000000
78  0.138693 2.343453 -1.682826  -0.000000 -0.000000 -0.000000
79  -2.259038 -17.105650 -1.886103  1.571220 0.002900 0.003058
80  -0.861920 -0.180712 3.135018  -0.000000 -0.000000 -0.000000
81  -0.861921 0.097230 3.003449  -0.000000 -0.000000 -0.000000
82  -0.861921 -0.180725 2.815479  -0.000000 -0.000000 -0.000000
83  -0.861921 0.097217 2.683908  -0.000000 -0.000000 -0.000000
84  -0.861921 -0.180725 2.495585  -0.000000 -0.000000 -0.000000
85  -0.861921 0.097216 2.364010  -0.000000 -0.000000 -0.000000
86  -0.861920 -0.180726 2.176042  -0.000000 -0.000000 -0.000000
87  -0.861921 0.097215 2.044467  -0.000000 -0.000000 -0.000000
88  -0.861920 -0.180727 1.861902  -0.000000 -0.000000 -0.000000
89  -0.861921 0.097215 1.730331  -0.000000 -0.000000 -0.000000
90  -0.861921 -0.180727 1.542357  -0.000000 -0.000000 -0.000000
91  -0.861921 0.097214 1.410790  -0.000000 -0.000000 -0.000000
92  -0.861921 -0.180722 1.222463  -0.000000 -0.000000 -0.000000
93  -0.861921 0.097220 1.090890  -0.000000 -0.000000 -0.000000
94  -0.861920 -0.180712 0.918801  -0.000000 -0.000000 -0.000000
95  -0.861921 0.097230 0.787230  -0.000000 -0.000000 -0.000000
96  -0.861921 -0.180725 0.599260  -0.000000 -0.000000 -0.000000
97  -0.861921 0.097217 0.467689  -0.000000 -0.000000 -0.000000
98  -0.861921 -0.180725 0.279366  -0.000000 -0.000000 -0.000000
99  -0.861921 0.097216 0.147793  -0.000000 -0.000000 -0.000000
100  -0.861920 -0.180726 -0.040179  -0.000000 -0.000000 -0.000000
101  -0.861921 0.097216 -0.171752  -0.000000 -0.000000 -0.000000
102  -0.861920 -0.180726 -0.354317  -0.000000 -0.000000 -0.000000
103  -0.861921 0.097215 -0.485888  -0.000000 -0.000000 -0.000000
104  -0.861921 -0.180727 -0.673860  -0.000000 -0.000000 -0.000000
105  -0.861921 0.097214 -0.805433  -0.000000 -0.000000 -0.000000
106  -0.861921 -0.180722 -0.993754  -0.000000 -0.000000 -0.000000
107  -0.861921 0.097220 -1.125329  -0.000000 -0.000000 -0.000000
108  -0.861921 -0.180725 -1.295309  -0.000000 -0.000000 -0.000000
109  -0.861921 0.097216 -1.426881  -0.000000 -0.000000 -0.000000
110  -0.861920 -0.180726 -1.614852  -0.000000 -0.000000 -0.000000
111  -0.861921 0.097216 -1.746425  -0.000000 -0.000000 -0.000000
112  -0.861920 -0.180727 -1.928990  -0.000000 -0.000000 -0.000000
113  -0.861921 0.097215 -2.060559  -0.000000 -0.000000 -0.000000
114  -0.861920 -0.180727 -2.248534  -0.000000 -0.000000 -0.000000
115  -0.861920 0.097214 -2.380103  -0.000000 -0.000000 -0.000000
116  -0.861921 -0.180722 -2.568429  -0.000000 -0.000000 -0.000000
117  -0.861920 0.097220 -2.700001  -0.000000 -0.000000 -0.000000
118  -0.861920 -0.180725 -2.887971  -0.000000 -0.000000 -0.000000
119  -0.861920 0.097216 -3.019543  -0.000000 -0.000000 -0.000000
120  -0.861920 -0.180725 -3.207872  -0.000000 -0.000000 -0.000000
121  -0.861921 0.097229 -3.339444  -0.000000 -0.000000 -0.000000
122  -0.861920 -0.180737 -3.527413  -0.000000 -0.000000 -0.000000
123  -0.861920 0.097217 -3.658986  -0.000000 -0.000000 -0.000000
124  -0.861921 -0.048023 -3.936776  -0.000000 -0.000000 -0.000000
125  -0.861921 0.096813 -4.220028  -0.000000 -0.000000 -0.000000
126  -0.861839 0.049009 -4.549495  -0.000000 -0.000000 -0.000000
127  -0.862203 -0.181353 -4.727589  -0.000568 0.008934 0.008929
128  -0.865934 -0.543243 -4.815327  -0.002212 0.031273 0.031204
129  0.018344 -0.713685 -5.609470  0.064463 -0.001783 -0.001902
130  -0.000000 -0.000000 4.970244  -0.000000 -0.000000 -0.000000
131  -0.000000 -0.000000 -2.491490  -0.000000 -0.000000 -0.000000
time 10
0  0.000006 0.000000 0.000000  -1.570800 -1.391899 -1.570792
1  -4.264289 -0.706028 0.654504  -1.544956 -1.855077 -0.198630
2  6.027524 -0.000324 0.000190  -0.940894 -1.010006 -1.349178
3  11.692109 0.000645 -0.000738  -0.925348 -0.000016 -1.351118
4  11.480163 0.000342 -0.000766  1.197647 -0.583624 0.291322
5  3.859504 -0.142823 -1.192079  -0.776638 -0.061608 -1.579277
6  1.312591 0.000009 0.000008  -0.133330 -0.022631 -0.159473
7  0.729357 0.000054 0.000049  0.000011 0.000024 -0.486779
8  3.942141 0.046331 -0.431543  -0.676461 0.339625 -1.116093
9  1.539111 0.000083 0.000003  -0.021747 -0.084031 -0.720969
10  1.196333 0.000146 0.000029  0.007458 0.001458 -0.849778
11  3.883511 -0.047211 0.431351  -0.341939 0.543315 -0.623250
12  1.719573 -0.000029 0.000017  -0.043234 -0.102278 -0.735897
13  1.209178 0.000088 0.000011  -0.004830 -0.003862 -0.898841
14  3.859677 -0.138418 1.332380  -0.027249 0.655333 -0.061922
15  1.719449 -0.000018 0.000030  -0.047003 0.033250 -0.381732
16  1.099677 0.000049 0.000006  -0.003557 0.001913 -1.061225
17  0.722613 -0.801322 1.198804  -0.993087 -0.448196 -0.282035
18  1.789818 -0.000003 -0.000018  0.005781 0.046146 0.353612
19  1.207015 -0.000013 -0.000044  -0.006137 -0.000810 0.370363
20  5.740638 0.000389 -0.000699  -0.109974 0.000003 0.000063
21  11.481040 0.000246 -0.000806  -0.051659 -0.104101 0.023917
22  6.027525 -0.000330 0.000200  1.718438 -0.543110 1.512175
23  0.000000 11.692100 -0.000006  -0.940439 -0.395896 -0.751686
24  0.000002 0.000008 0.000001  -0.056254 -0.000030 1.570739
25  0.000000 -0.000011 0.000000  0.868960 0.000002 1.570712
26  -6.617934 -9.178503 0.826812  1.473120 1.855075 -0.198639
27  6.027514 -0.000259 -0.000222  1.500264 0.794616 -0.719695
28  11.691992 0.000160 0.000858  0.141449 0.000068 -1.782027
29  11.479844 -0.000572 0.000914  -1.122553 0.479818 0.914592
30  3.859437 -0.132758 1.193064  0.469647 -0.013262 -1.872395
31  1.312559 0.000025 -0.000001  0.024060 -0.138696 -0.550187
32  0.729345 0.000064 -0.000028  -0.166197 -0.081570 -0.714272
33  3.942047 0.050139 0.431000  0.225309 -0.086237 -1.592712
34  1.539097 0.000007 -0.000001  0.035254 -0.050373 -0.994350
35  1.196301 0.000078 -0.000003  -0.021521 0.002175 -0.839738
36  3.883414 -0.050472 -0.431084  0.184824 -0.271737 -1.204030
37  1.719563 -0.000084 -0.000004  0.022858 -0.107186 -1.509108
38  1.209198 0.000035 0.000011  0.000661 0.071072 -0.480462
39  3.859589 -0.149082 -1.331321  -0.119219 -0.140845 -0.471563
40  1.719413 -0.000098 -0.000036  -0.007972 -0.023824 -1.231103
41  1.099674 0.000024 0.000006  -0.003780 -0.008463 -0.656665
42  0.805984 -0.359847 -1.318338  0.991670 0.166767 -0.799527
43  1.789781 -0.000008 -0.000043  0.000058 -0.002451 0.133098
44  1.206996 -0.000007 0.000005  0.000372 -0.000071 1.058781
45  5.740575 0.000078 0.000721  0.173278 -0.000014 0.000028
46  11.480914 -0.000042 0.000928  0.050267 0.103228 0.145026
47  6.027515 -0.000273 -0.000230  -0.957963 -0.510858 -1.682999
48  -0.000002 11.691977 -0.000005  -1.195079 0.639022 0.905003
49  0.000002 0.000001 -0.000001  2.413977 -0.000036 1.570860
50  -0.000008 -0.000012 0.000005  2.272645 -0.000036 1.570861
51  -3.096758 -4.269032 -6.812669  -0.063697 -2.989914 1.368913
52  0.000000 -0.000000 -0.000000  0.008153 -0.000259 0.000009
53  0.000000 0.000000 -0.000000  1.565115 0.043565 -0.106862
54  -0.262306 -15.368595 -5.316322  -0.806067 -0.132863 -1.846884
55  0.000002 -0.000000 0.000000  0.000000 -0.000001 -0.000002
56  0.000032 0.000029 0.000001  -1.571901 -0.044449 -0.106509
57  9.873785 -14.853106 -23.773331  1.570796 -0.000000 0.000000
58  -15.417985 4.000748 -22.641926  1.570796 -0.000000 0.000000
59  0.658819 1.453195 -4.071830  1.570796 -0.000000 0.000000
60  -0.004311 0.001230 -0.000371  0.006898 -0.005534 -0.284229
61  0.826810 10.209643 -4.879054  1.570796 -0.000000 0.000000
62  0.000000 0.000000 0.000000  -0.078727 -3.136056 0.284226
63  -2.243053 -2.227381 -0.317886  1.570796 -0.000000 0.000000
64  -2.287624 -8.249615 -1.854442  1.570796 -0.000000 0.000000
65  0.042269 -2.588230 0.672586  0.000000 -0.000000 0.000000
66  0.048105 -1.112260 5.803837  0.000000 -0.000000 0.000000
67  0.048106 -0.032154 -1.710082  0.000000 -0.000000 0.000000
68  0.042353 -1.078447 21.234573  0.000000 -0.000000 0.000000
69  0.436542 -3.059779 3.935333  0.000000 -0.000000 0.000000
70  0.672328 -2.032813 2.042324  0.000000 -0.000000 0.000000
71  -0.729358 -1.331797 3.242019  0.000000 -0.000000 0.000000
72  0.194741 -1.447476 3.023561  0.000000 -0.000000 0.000000
73  -0.700892 0.650637 17.606178  0.000000 -0.000000 0.000000
74  0.042269 -2.357918 -0.445848  0.000000 -0.000000 0.000000
75  0.436542 -0.003270 1.776058  0.000000 -0.000000 0.000000
76  -2.285144 -12.956001 -5.951616  1.570796 -0.000000 0.000000
77  -0.097393 2.508477 -1.682825  0.000000 -0.000000 0.000000
78  0.138693 2.343453 -1.682825  0.000000 -0.000000 0.000000
79  -2.287624 -17.108284 -1.878934  1.570796 -0.000000 0.000000
80  -0.861920 -0.180712 3.135019  0.000000 -0.000000 -0.000000
81  -0.861920 0.097230 3.003448  0.000000 -0.000000 -0.000000
82  -0.861920 -0.180725 2.815479  0.000000 -0.000000 -0.000000
83  -0.861920 0.097217 2.683908  0.000000 -0.000000 -0.000000
84  -0.861920 -0.180725 2.495584  0.000000 -0.000000 -0.000000
85  -0.861920 0.097216 2.364012  0.000000 -0.000000 -0.000000
86  -0.861920 -0.180726 2.176041  0.000000 -0.000000 -0.000000
87  -0.861920 0.097216 2.044468  0.000000 -0.000000 -0.000000
88  -0.861920 -0.180726 1.861902  0.000000 -0.000000 -0.000000
89  -0.861920 0.097215 1.730331  0.000000 -0.000000 -0.000000
90  -0.861920 -0.180727 1.542358  0.000000 -0.000000 -0.000000
91  -0.861920 0.097214 1.410789  0.000000 -0.000000 -0.000000
92  -0.861920 -0.180722 1.222464  0.000000 -0.000000 -0.000000
93  -0.861920 0.097220 1.090891  0.000000 -0.000000 -0.000000
94  -0.861920 -0.180712 0.918800  0.000000 -0.000000 -0.000000
95  -0.861920 0.097230 0.787231  0.000000 -0.000000 -0.000000
96  -0.861920 -0.180725 0.599258  0.000000 -0.000000 -0.000000
97  -0.861920 0.097217 0.467690  0.000000 -0.000000 -0.000000
98  -0.861920 -0.180725 0.279366  0.000000 -0.000000 -0.000000
99  -0.861920 0.097216 0.147793  0.000000 -0.000000 -0.000000
100  -0.861920 -0.180726 -0.040178  0.000000 -0.000000 -0.000000
101  -0.861920 0.097216 -0.171751  0.000000 -0.000000 -0.000000
102  -0.861920 -0.180726 -0.354317  0.000000 -0.000000 -0.000000
103  -0.861920 0.097215 -0.485886  0.000000 -0.000000 -0.000000
104  -0.861920 -0.180727 -0.673861  0.000000 -0.000000 -0.000000
105  -0.861920 0.097214 -0.805431  0.000000 -0.000000 -0.000000
106  -0.861920 -0.180722 -0.993755  0.000000 -0.000000 -0.000000
107  -0.861920 0.097220 -1.125328  0.000000 -0.000000 -0.000000
108  -0.861920 -0.180725 -1.295307  0.000000 -0.000000 -0.000000
109  -0.861920 0.097216 -1.426880  0.000000 -0.000000 -0.000000
110  -0.861920 -0.180726 -1.614851  0.000000 -0.000000 -0.000000
111  -0.861920 0.097216 -1.746424  0.000000 -0.000000 -0.000000
112  -0.861920 -0.180726 -1.928989  0.000000 -0.000000 -0.000000
113  -0.861920 0.097215 -2.060558  0.000000 -0.000000 -0.000000
114  -0.861920 -0.180727 -2.248533  0.000000 -0.000000 -0.000000
115  -0.861920 0.097214 -2.380102  0.000000 -0.000000 -0.000000
116  -0.861920 -0.180722 -2.568428  0.000000 -0.000000 -0.000000
117  -0.861920 0.097220 -2.700001  0.000000 -0.000000 -0.000000
118  -0.861920 -0.180725 -2.887970  0.000000 -0.000000 -0.000000
119  -0.861920 0.097216 -3.019543  0.000000 -0.000000 -0.000000
120  -0.861920 -0.180725 -3.207870  0.000000 -0.000000 -0.000000
121  -0.861920 0.097229 -3.339443  0.000000 -0.000000 -0.000000
122  -0.861920 -0.180737 -3.527412  0.000000 -0.000000 -0.000000
123  -0.861920 0.097217 -3.658985  0.000000 -0.000000 -0.000000
124  -0.861920 -0.048023 -3.936775  0.000000 -0.000000 -0.000000
125  -0.861920 0.096813 -4.220028  0.000000 -0.000000 -0.000000
126  -0.861839 0.049009 -4.549494  0.000000 -0.000000 0.000000
127  -0.862203 -0.181353 -4.727589  -0.000568 0.008934 0.008929
128  -0.865933 -0.543243 -4.815327  -0.002212 0.031273 0.031204
129  0.018344 -0.713685 -5.609470  0.064463 -0.001783 -0.001902
130  0.000000 0.000000 4.970245  0.000000 -0.000000 0.000000
131  0.000000 0.000000 -2.491489  0.000000 -0.000000 0.000000
end
