version 1
nodes
0 "ValveBiped.Bip01_Spine4" -1
1 "ValveBiped.Bip01_L_Clavicle" 0
2 "ValveBiped.Bip01_L_UpperArm" 1
3 "ValveBiped.Bip01_L_Forearm" 2
4 "ValveBiped.Bip01_L_Hand" 3
5 "ValveBiped.Bip01_L_Finger4" 4
6 "ValveBiped.Bip01_L_Finger41" 5
7 "ValveBiped.Bip01_L_Finger42" 6
8 "ValveBiped.Bip01_L_Finger3" 4
9 "ValveBiped.Bip01_L_Finger31" 8
10 "ValveBiped.Bip01_L_Finger32" 9
11 "ValveBiped.Bip01_L_Finger2" 4
12 "ValveBiped.Bip01_L_Finger21" 11
13 "ValveBiped.Bip01_L_Finger22" 12
14 "ValveBiped.Bip01_L_Finger1" 4
15 "ValveBiped.Bip01_L_Finger11" 14
16 "ValveBiped.Bip01_L_Finger12" 15
17 "ValveBiped.Bip01_L_Finger0" 4
18 "ValveBiped.Bip01_L_Finger01" 17
19 "ValveBiped.Bip01_L_Finger02" 18
20 "ValveBiped.Bip01_L_Ulna" 3
21 "ValveBiped.Bip01_L_Wrist" 3
22 "rig_l_upperarm" 1
23 "rig_l_forearm" 22
24 "rig_d_l_forearm" 23
25 "rig_d_l_upperarm" 22
26 "ValveBiped.Bip01_R_Clavicle" 0
27 "ValveBiped.Bip01_R_UpperArm" 26
28 "ValveBiped.Bip01_R_Forearm" 27
29 "ValveBiped.Bip01_R_Hand" 28
30 "ValveBiped.Bip01_R_Finger4" 29
31 "ValveBiped.Bip01_R_Finger41" 30
32 "ValveBiped.Bip01_R_Finger42" 31
33 "ValveBiped.Bip01_R_Finger3" 29
34 "ValveBiped.Bip01_R_Finger31" 33
35 "ValveBiped.Bip01_R_Finger32" 34
36 "ValveBiped.Bip01_R_Finger2" 29
37 "ValveBiped.Bip01_R_Finger21" 36
38 "ValveBiped.Bip01_R_Finger22" 37
39 "ValveBiped.Bip01_R_Finger1" 29
40 "ValveBiped.Bip01_R_Finger11" 39
41 "ValveBiped.Bip01_R_Finger12" 40
42 "ValveBiped.Bip01_R_Finger0" 29
43 "ValveBiped.Bip01_R_Finger01" 42
44 "ValveBiped.Bip01_R_Finger02" 43
45 "ValveBiped.Bip01_R_Ulna" 28
46 "ValveBiped.Bip01_R_Wrist" 28
47 "rig_r_upperarm" 26
48 "rig_r_forearm" 47
49 "rig_d_r_forearm" 48
50 "rig_d_r_upperarm" 47
51 "rig_r_hand" -1
52 "rig_d_r_hand" 51
53 "rig_d_r_wrist" 52
54 "rig_l_hand" -1
55 "rig_d_l_hand" 54
56 "rig_d_l_wrist" 54
57 "rig_l_pole" -1
58 "rig_r_pole" -1
59 "rig_l_clavicle" -1
60 "rig_d_l_clavicle" 59
61 "rig_r_clavicle" -1
62 "rig_d_r_clavicle" 61
63 "Camera" -1
64 "body" -1
65 "ubgl_body" -1
66 "gl" 65
67 "barrel_ubgl" 65
68 "ubgl_rel" 65
69 "ubgl_trigger" 65
70 "grenade" -1
71 "casing" -1
end
skeleton
time 0
0  0.000006 0.000000 0.000000  -1.570800 -1.391899 -1.570792
1  -8.588643 -5.418887 1.937667  -1.544956 -1.855077 -0.198630
2  6.027524 -0.000325 0.000191  -0.376202 -1.245081 -1.733962
3  11.692112 0.000646 -0.000739  -0.246916 0.000005 -0.836297
4  11.480905 0.000231 -0.000697  0.865678 -0.389144 0.483347
5  3.859504 -0.142823 -1.192079  -0.325418 0.236705 -1.423276
6  1.312590 0.000008 0.000010  -0.061093 -0.045087 -1.019403
7  0.729355 0.000054 0.000048  -0.004549 0.000095 -1.225141
8  3.942141 0.046331 -0.431542  -0.231341 0.299852 -1.132757
9  1.539110 0.000084 0.000004  -0.031100 -0.035705 -0.589432
10  1.196333 0.000146 0.000028  0.001245 0.003751 -1.374245
11  3.883511 -0.047212 0.431351  -0.012863 0.318312 -0.956320
12  1.719573 -0.000028 0.000017  -0.057338 -0.042504 -0.513298
13  1.209179 0.000091 0.000012  -0.006786 -0.006496 -1.443810
14  3.859676 -0.138418 1.332379  0.402505 0.219312 -0.558092
15  1.719447 -0.000018 0.000029  -0.025993 -0.047106 -0.367312
16  1.099676 0.000052 0.000005  0.006427 0.001742 -0.573648
17  1.955401 -1.026655 0.583834  -0.226820 -1.265295 -1.470715
18  1.789818 -0.000003 -0.000018  -0.001982 -0.004966 0.957380
19  1.207014 -0.000015 -0.000044  0.000541 -0.000075 -0.055506
20  5.740635 0.000388 -0.000700  -0.149777 0.000003 0.000063
21  11.481189 0.000226 -0.000792  -0.117025 -0.085109 0.052901
22  6.027524 -0.000329 0.000202  1.463166 -0.308102 1.749999
23  -0.000000 11.692099 -0.000007  -0.611930 -0.163370 -0.507047
24  0.000003 0.000009 -0.000000  0.622146 -0.000031 1.570739
25  0.000000 -0.000012 -0.000001  0.868960 0.000002 1.570712
26  -6.617934 -9.178503 0.826812  1.473120 1.855075 -0.198639
27  6.027513 -0.000259 -0.000222  1.476743 0.747677 -0.726037
28  11.691992 0.000161 0.000856  0.141449 0.000068 -1.773744
29  11.479915 -0.000526 0.000904  -1.088752 0.424305 0.768019
30  3.859437 -0.132759 1.193064  0.469647 -0.013262 -1.872395
31  1.312559 0.000025 -0.000001  0.024060 -0.138696 -0.550187
32  0.729346 0.000065 -0.000026  -0.166197 -0.081570 -0.714273
33  3.942046 0.050138 0.430999  0.225309 -0.086237 -1.592712
34  1.539097 0.000004 -0.000001  0.035254 -0.050373 -0.994350
35  1.196301 0.000078 -0.000003  -0.021521 0.002175 -0.839738
36  3.883414 -0.050473 -0.431085  0.184824 -0.271737 -1.204030
37  1.719563 -0.000085 -0.000005  0.022859 -0.107186 -1.509108
38  1.209197 0.000036 0.000010  0.000661 0.071072 -0.480462
39  3.859589 -0.149082 -1.331322  -0.098930 -0.144594 -0.163949
40  1.719412 -0.000098 -0.000036  -0.018009 -0.009176 -0.250928
41  1.099674 0.000023 0.000008  -0.007959 -0.003454 0.006416
42  0.805983 -0.359848 -1.318339  0.991670 0.166767 -0.799527
43  1.789780 -0.000009 -0.000042  0.000058 -0.002451 0.133098
44  1.206996 -0.000006 0.000005  0.000372 -0.000071 1.058780
45  5.740572 0.000078 0.000720  0.161315 -0.000014 0.000028
46  11.480926 -0.000032 0.000926  0.066493 0.091198 0.117630
47  6.027515 -0.000273 -0.000230  -0.924422 -0.551496 -1.689937
48  -0.000001 11.691977 -0.000005  -1.190213 0.634052 0.902547
49  0.000002 -0.000001 -0.000000  2.413977 -0.000036 1.570860
50  -0.000008 -0.000013 0.000005  2.272645 -0.000036 1.570861
51  -3.274215 -4.332345 -7.586305  -0.006574 -2.952345 1.470565
52  0.000000 0.000000 0.000001  0.008153 -0.000259 0.000009
53  0.000000 -0.000000 -0.000001  1.565115 0.043565 -0.106862
54  -0.963133 -12.481423 -8.768080  -0.241814 -0.085362 -1.703254
55  -0.000001 -0.000000 -0.000000  0.000000 -0.000001 -0.000002
56  0.000030 0.000029 0.000000  -1.571902 -0.044449 -0.106509
57  12.780373 -3.190019 -19.599297  1.570796 -0.000000 0.000000
58  -15.417985 4.000748 -22.641926  1.570796 -0.000000 0.000000
59  1.941978 6.860334 -7.488544  1.570796 -0.000000 0.000000
60  -0.004311 0.001230 -0.000371  0.006898 -0.005534 -0.284229
61  0.826810 10.209643 -4.879054  1.570796 -0.000000 0.000000
62  0.000000 0.000000 0.000000  -0.078727 -3.136056 0.284226
63  0.000000 0.000000 0.000000  1.570796 -0.000000 0.000000
64  -2.445588 -8.256614 -2.148885  1.518840 -0.065073 0.018407
65  -3.590840 -19.563499 -4.728379  1.570804 -0.000000 0.000000
66  0.040179 -1.681048 3.706299  -0.000008 -0.000000 -0.000000
67  0.043600 -1.680997 11.516016  -0.000008 -0.000000 -0.000000
68  0.359774 -0.536898 2.504634  -0.000008 -0.000000 -0.000000
69  0.043602 -1.951604 -1.986989  -0.000008 -0.000000 -0.000000
70  -3.550662 -22.941486 -6.409432  1.570796 -0.000000 0.000000
71  -3.550661 -21.016615 -6.409430  1.570796 -0.000000 0.000000
time 1
0  0.000006 0.000000 0.000000  -1.570800 -1.391899 -1.570792
1  -8.588643 -5.418887 1.937667  -1.544956 -1.855077 -0.198630
2  6.027524 -0.000325 0.000191  -0.423903 -1.240281 -1.685675
3  11.692114 0.000646 -0.000738  -0.246917 0.000004 -0.854146
4  11.480813 0.000196 -0.000705  0.854776 -0.388541 0.474340
5  3.859503 -0.142823 -1.192078  -0.325418 0.236705 -1.423276
6  1.312590 0.000008 0.000007  -0.061093 -0.045087 -1.019403
7  0.729355 0.000054 0.000050  -0.004549 0.000095 -1.225141
8  3.942140 0.046331 -0.431542  -0.231341 0.299852 -1.132757
9  1.539111 0.000086 0.000004  -0.031100 -0.035705 -0.589432
10  1.196333 0.000143 0.000029  0.001245 0.003751 -1.374245
11  3.883512 -0.047212 0.431352  -0.012863 0.318312 -0.956320
12  1.719574 -0.000028 0.000017  -0.057338 -0.042504 -0.513298
13  1.209179 0.000091 0.000012  -0.006786 -0.006496 -1.443810
14  3.859675 -0.138418 1.332380  0.408056 0.225202 -0.573950
15  1.719450 -0.000018 0.000029  -0.025993 -0.047106 -0.367312
16  1.099676 0.000050 0.000005  0.006427 0.001742 -0.573648
17  1.955401 -1.026655 0.583835  -0.226820 -1.265295 -1.470715
18  1.789818 -0.000004 -0.000018  -0.001982 -0.004966 0.957380
19  1.207014 -0.000013 -0.000044  0.000541 -0.000075 -0.055506
20  5.740636 0.000387 -0.000699  -0.152284 0.000003 0.000064
21  11.481172 0.000218 -0.000794  -0.119399 -0.084984 0.050677
22  6.027524 -0.000329 0.000202  1.476936 -0.317462 1.748891
23  -0.000000 11.692099 -0.000006  -0.623981 -0.170046 -0.516570
24  0.000002 0.000009 -0.000000  0.622146 -0.000030 1.570739
25  -0.000000 -0.000011 0.000000  0.868960 0.000002 1.570712
26  -6.617934 -9.178503 0.826812  1.473120 1.855075 -0.198639
27  6.027513 -0.000259 -0.000222  1.479237 0.746567 -0.724918
28  11.691989 0.000160 0.000857  0.141449 0.000068 -1.778444
29  11.479874 -0.000553 0.000911  -1.090582 0.419476 0.777747
30  3.859437 -0.132758 1.193065  0.469647 -0.013262 -1.872395
31  1.312559 0.000026 -0.000002  0.024060 -0.138696 -0.550187
32  0.729345 0.000066 -0.000028  -0.166197 -0.081570 -0.714272
33  3.942046 0.050139 0.431000  0.225309 -0.086237 -1.592712
34  1.539097 0.000005 -0.000001  0.035254 -0.050373 -0.994350
35  1.196301 0.000078 -0.000004  -0.021521 0.002175 -0.839738
36  3.883413 -0.050472 -0.431084  0.184824 -0.271737 -1.204030
37  1.719563 -0.000084 -0.000005  0.022858 -0.107186 -1.509108
38  1.209197 0.000035 0.000011  0.000661 0.071072 -0.480462
39  3.859588 -0.149082 -1.331321  -0.109458 -0.124955 -0.080435
40  1.719413 -0.000098 -0.000036  -0.017135 -0.009026 -0.290195
41  1.099673 0.000023 0.000006  -0.007875 -0.003588 -0.014258
42  0.805984 -0.359848 -1.318338  0.991670 0.166767 -0.799527
43  1.789780 -0.000009 -0.000042  0.000058 -0.002451 0.133098
44  1.206996 -0.000007 0.000005  0.000372 -0.000071 1.058780
45  5.740573 0.000077 0.000721  0.162085 -0.000014 0.000028
46  11.480919 -0.000038 0.000927  0.066223 0.090498 0.119863
47  6.027515 -0.000273 -0.000230  -0.922128 -0.550623 -1.691715
48  -0.000001 11.691975 -0.000006  -1.192974 0.636871 0.903943
49  0.000003 -0.000001 0.000000  2.413977 -0.000036 1.570860
50  -0.000007 -0.000013 0.000005  2.272645 -0.000036 1.570861
51  -3.290736 -4.293741 -7.555068  -0.010975 -2.958759 1.470999
52  0.000000 0.000000 0.000000  0.008153 -0.000259 0.000009
53  -0.000000 0.000000 -0.000001  1.565115 0.043565 -0.106862
54  -0.804564 -12.460872 -8.859196  -0.257643 -0.094858 -1.706628
55  -0.000001 -0.000000 -0.000001  0.000000 -0.000001 -0.000002
56  0.000029 0.000029 -0.000000  -1.571902 -0.044449 -0.106509
57  12.780373 -3.190019 -19.599297  1.570796 -0.000000 0.000000
58  -15.417985 4.000748 -22.641926  1.570796 -0.000000 0.000000
59  1.941978 6.860334 -7.488544  1.570796 -0.000000 0.000000
60  -0.004311 0.001230 -0.000371  0.006898 -0.005534 -0.284229
61  0.826810 10.209643 -4.879054  1.570796 -0.000000 0.000000
62  0.000000 0.000000 0.000000  -0.078727 -3.136056 0.284226
63  0.000000 0.000000 0.000000  1.571251 0.000309 0.000429
64  -2.443744 -8.255272 -2.147581  1.525732 -0.061533 0.017591
65  -3.590840 -19.563499 -4.728379  1.570804 -0.000000 0.000000
66  0.040179 -1.681048 3.706299  -0.000008 -0.000000 -0.000000
67  0.043600 -1.680997 11.516016  -0.000008 -0.000000 -0.000000
68  0.359774 -0.536898 2.504634  -0.000008 -0.000000 -0.000000
69  0.043602 -1.951604 -1.986989  -0.000008 -0.000000 -0.000000
70  -3.550662 -22.941486 -6.409432  1.570796 -0.000000 0.000000
71  -3.550661 -21.016615 -6.409430  1.570796 -0.000000 0.000000
time 2
0  0.000006 0.000000 0.000000  -1.570800 -1.391899 -1.570792
1  -8.588643 -5.418887 1.937667  -1.544956 -1.855077 -0.198630
2  6.027524 -0.000325 0.000191  -0.521562 -1.228320 -1.587754
3  11.692114 0.000644 -0.000739  -0.246920 0.000003 -0.891345
4  11.480648 0.000137 -0.000721  0.817142 -0.381907 0.458827
5  3.859503 -0.142823 -1.192078  -0.325418 0.236705 -1.423276
6  1.312589 0.000010 0.000007  -0.061093 -0.045087 -1.019403
7  0.729357 0.000053 0.000049  -0.004549 0.000095 -1.225141
8  3.942140 0.046331 -0.431543  -0.231341 0.299853 -1.132757
9  1.539109 0.000084 0.000004  -0.031100 -0.035705 -0.589432
10  1.196333 0.000145 0.000027  0.001245 0.003751 -1.374245
11  3.883509 -0.047212 0.431351  -0.012863 0.318312 -0.956321
12  1.719573 -0.000031 0.000017  -0.057338 -0.042504 -0.513298
13  1.209179 0.000090 0.000011  -0.006786 -0.006496 -1.443810
14  3.859676 -0.138418 1.332380  0.413520 0.227469 -0.591437
15  1.719448 -0.000018 0.000028  -0.025993 -0.047106 -0.367312
16  1.099674 0.000048 0.000005  0.006427 0.001742 -0.573648
17  1.955400 -1.026655 0.583835  -0.226820 -1.265295 -1.470716
18  1.789819 -0.000004 -0.000018  -0.001982 -0.004966 0.957380
19  1.207015 -0.000013 -0.000044  0.000541 -0.000075 -0.055506
20  5.740636 0.000389 -0.000699  -0.160504 0.000003 0.000064
21  11.481138 0.000208 -0.000797  -0.127384 -0.084446 0.046323
22  6.027524 -0.000329 0.000202  1.506959 -0.336788 1.744973
23  0.000000 11.692100 -0.000007  -0.648934 -0.184319 -0.536189
24  0.000003 0.000009 -0.000000  0.622146 -0.000031 1.570739
25  -0.000000 -0.000012 -0.000000  0.868960 0.000002 1.570712
26  -6.617934 -9.178503 0.826812  1.473120 1.855075 -0.198639
27  6.027513 -0.000259 -0.000222  1.485658 0.744113 -0.722100
28  11.691991 0.000160 0.000856  0.141449 0.000069 -1.787556
29  11.479789 -0.000603 0.000918  -1.097522 0.408607 0.795761
30  3.859437 -0.132758 1.193065  0.469647 -0.013262 -1.872395
31  1.312559 0.000026 -0.000001  0.024060 -0.138696 -0.550187
32  0.729346 0.000064 -0.000028  -0.166197 -0.081570 -0.714272
33  3.942046 0.050139 0.431000  0.225309 -0.086237 -1.592712
34  1.539096 0.000006 -0.000001  0.035254 -0.050373 -0.994350
35  1.196301 0.000077 -0.000004  -0.021521 0.002175 -0.839738
36  3.883413 -0.050472 -0.431084  0.184824 -0.271737 -1.204030
37  1.719563 -0.000085 -0.000005  0.022859 -0.107186 -1.509108
38  1.209197 0.000036 0.000011  0.000661 0.071072 -0.480462
39  3.859588 -0.149082 -1.331321  -0.125654 -0.078490 0.097173
40  1.719413 -0.000098 -0.000037  -0.015062 -0.008444 -0.403044
41  1.099673 0.000023 0.000006  -0.007604 -0.004030 -0.081863
42  0.805983 -0.359848 -1.318338  0.991670 0.166767 -0.799527
43  1.789780 -0.000008 -0.000043  0.000058 -0.002451 0.133097
44  1.206997 -0.000006 0.000005  0.000372 -0.000071 1.058780
45  5.740571 0.000081 0.000721  0.162993 -0.000014 0.000028
46  11.480900 -0.000046 0.000929  0.065248 0.088614 0.124279
47  6.027515 -0.000273 -0.000230  -0.916628 -0.548116 -1.696123
48  -0.000001 11.691975 -0.000006  -1.198329 0.642344 0.906630
49  0.000003 -0.000002 0.000000  2.413977 -0.000036 1.570860
50  -0.000008 -0.000013 0.000004  2.272645 -0.000036 1.570861
51  -3.339371 -4.220708 -7.489106  -0.022363 -2.970919 1.472245
52  -0.000000 0.000000 0.000000  0.008153 -0.000259 0.000009
53  -0.000001 0.000000 0.000000  1.565115 0.043565 -0.106862
54  -0.452223 -12.417005 -9.040545  -0.304424 -0.109877 -1.715843
55  0.000001 0.000000 0.000001  0.000000 -0.000001 -0.000002
56  0.000031 0.000029 0.000002  -1.571901 -0.044449 -0.106509
57  12.780373 -3.190019 -19.599297  1.570796 -0.000000 0.000000
58  -15.417985 4.000748 -22.641926  1.570796 -0.000000 0.000000
59  1.941978 6.860334 -7.488544  1.570796 -0.000000 0.000000
60  -0.004311 0.001230 -0.000371  0.006898 -0.005534 -0.284229
61  0.826810 10.209643 -4.879054  1.570796 -0.000000 0.000000
62  0.000000 0.000000 0.000000  -0.078727 -3.136056 0.284226
63  0.000000 0.000000 0.000000  1.572096 -0.000350 0.000858
64  -2.441899 -8.253929 -2.143106  1.539129 -0.051806 0.016075
65  -3.590840 -19.563499 -4.728379  1.570804 -0.000000 0.000000
66  0.040179 -1.681048 3.706299  -0.000008 -0.000000 -0.000000
67  0.043600 -1.680997 11.516016  -0.000008 -0.000000 -0.000000
68  0.359774 -0.536898 2.504634  -0.000008 -0.000000 -0.000000
69  0.043602 -1.951604 -1.986989  -0.000008 -0.000000 -0.000000
70  -3.550662 -22.941486 -6.409432  1.570796 -0.000000 0.000000
71  -3.550661 -21.016615 -6.409430  1.570796 -0.000000 0.000000
time 3
0  0.000006 0.000000 0.000000  -1.570800 -1.391899 -1.570792
1  -8.588261 -5.149252 1.937667  -1.544956 -1.855077 -0.198630
2  6.027524 -0.000325 0.000191  -0.603930 -1.217019 -1.488073
3  11.692113 0.000645 -0.000739  -0.308688 0.000001 -0.957292
4  11.480859 0.000242 -0.000691  0.800261 -0.401752 0.474257
5  3.859503 -0.142823 -1.192079  -0.320574 0.262931 -1.267093
6  1.312589 0.000011 0.000008  -0.054420 -0.036912 -0.940083
7  0.729355 0.000053 0.000049  -0.004332 0.000463 -1.102855
8  3.942139 0.046331 -0.431542  -0.201758 0.290123 -0.994905
9  1.539110 0.000082 0.000003  -0.027564 -0.030179 -0.542390
10  1.196333 0.000146 0.000028  0.001294 0.003202 -1.246807
11  3.883509 -0.047212 0.431351  0.022037 0.278921 -0.809441
12  1.719574 -0.000026 0.000017  -0.049837 -0.035375 -0.493172
13  1.209179 0.000088 0.000012  -0.006646 -0.004841 -1.280779
14  3.859676 -0.138418 1.332381  0.420428 0.152729 -0.498558
15  1.719450 -0.000018 0.000028  -0.022406 -0.040024 -0.366798
16  1.099676 0.000049 0.000006  0.005530 0.001731 -0.528244
17  1.791591 -1.009338 0.665956  -0.572241 -1.218953 -1.133596
18  1.789819 -0.000005 -0.000018  -0.000200 -0.000391 0.834533
19  1.207016 -0.000012 -0.000044  -0.000136 -0.000333 -0.019679
20  5.740636 0.000388 -0.000699  -0.165719 0.000003 0.000063
21  11.481178 0.000229 -0.000791  -0.128790 -0.089647 0.047095
22  6.027524 -0.000329 0.000201  1.534713 -0.352092 1.757849
23  0.000000 11.692100 -0.000008  -0.692631 -0.210782 -0.570195
24  0.000002 0.000008 -0.000000  0.560382 -0.000031 1.570739
25  0.000000 -0.000011 -0.000000  0.868960 0.000002 1.570712
26  -6.617934 -9.178503 0.826812  1.473120 1.855075 -0.198639
27  6.027513 -0.000259 -0.000221  1.494409 0.742427 -0.718439
28  11.691992 0.000160 0.000857  0.141449 0.000069 -1.791717
29  11.479753 -0.000624 0.000921  -1.111597 0.396985 0.804298
30  3.859438 -0.132758 1.193065  0.469647 -0.013262 -1.872395
31  1.312560 0.000025 -0.000000  0.024060 -0.138696 -0.550187
32  0.729346 0.000065 -0.000027  -0.166197 -0.081570 -0.714272
33  3.942046 0.050139 0.431001  0.225309 -0.086237 -1.592712
34  1.539097 0.000005 -0.000001  0.035254 -0.050373 -0.994350
35  1.196301 0.000078 -0.000004  -0.021521 0.002175 -0.839738
36  3.883414 -0.050472 -0.431083  0.184824 -0.271737 -1.204030
37  1.719564 -0.000085 -0.000005  0.022859 -0.107186 -1.509108
38  1.209198 0.000035 0.000011  0.000661 0.071072 -0.480462
39  3.859588 -0.149082 -1.331320  -0.128596 -0.051487 0.178221
40  1.719412 -0.000098 -0.000036  -0.013580 -0.007631 -0.530595
41  1.099673 0.000023 0.000007  -0.007222 -0.004637 -0.174937
42  0.805983 -0.359847 -1.318338  0.991670 0.166767 -0.799527
43  1.789780 -0.000009 -0.000042  0.000058 -0.002451 0.133098
44  1.206996 -0.000008 0.000005  0.000372 -0.000071 1.058780
45  5.740571 0.000080 0.000720  0.161611 -0.000014 0.000028
46  11.480893 -0.000050 0.000929  0.063352 0.085818 0.127237
47  6.027515 -0.000273 -0.000230  -0.910782 -0.543712 -1.701418
48  -0.000001 11.691974 -0.000005  -1.200775 0.644848 0.907848
49  0.000001 0.000001 0.000000  2.413977 -0.000036 1.570860
50  -0.000006 -0.000015 0.000005  2.272645 -0.000036 1.570861
51  -3.418236 -4.195003 -7.431393  -0.037985 -2.978216 1.474334
52  -0.000000 0.000000 0.000000  0.008153 -0.000259 0.000009
53  -0.000000 0.000000 0.000000  1.565115 0.043565 -0.106862
54  -0.253529 -12.396782 -9.089654  -0.359876 -0.102909 -1.726735
55  -0.000001 0.000000 -0.000000  0.000000 -0.000001 -0.000002
56  0.000029 0.000029 0.000002  -1.571901 -0.044449 -0.106509
57  12.681880 -4.643725 -19.755623  1.570796 -0.000000 0.000000
58  -15.417985 4.000748 -22.641926  1.570796 -0.000000 0.000000
59  1.941978 6.594934 -7.536148  1.570796 -0.000000 0.000000
60  -0.004311 0.001230 -0.000371  0.006898 -0.005534 -0.284229
61  0.826810 10.209643 -4.879054  1.570796 -0.000000 0.000000
62  0.000000 0.000000 0.000000  -0.078727 -3.136056 0.284226
63  0.000000 0.000000 0.000000  1.572551 -0.001009 0.000722
64  -2.445013 -8.275324 -2.134615  1.548127 -0.037323 0.015167
65  -3.590840 -19.563499 -4.728379  1.570804 -0.000000 0.000000
66  0.040179 -1.681048 3.706299  -0.000008 -0.000000 -0.000000
67  0.043600 -1.680997 11.516016  -0.000008 -0.000000 -0.000000
68  0.359774 -0.536898 2.504634  -0.000008 -0.000000 -0.000000
69  0.043602 -1.951604 -1.986989  -0.000008 -0.000000 -0.000000
70  -3.550662 -22.941486 -6.409432  1.570796 -0.000000 0.000000
71  -3.550661 -21.016615 -6.409430  1.570796 -0.000000 0.000000
time 4
0  0.000006 0.000000 0.000000  -1.570800 -1.391899 -1.570792
1  -8.587117 -4.344416 1.937667  -1.544956 -1.855077 -0.198630
2  6.027524 -0.000326 0.000190  -0.634317 -1.224949 -1.423163
3  11.692114 0.000644 -0.000738  -0.487585 -0.000001 -1.017377
4  11.480531 0.000235 -0.000704  0.828460 -0.467023 0.521758
5  3.859503 -0.142823 -1.192080  -0.293668 0.327980 -0.831140
6  1.312589 0.000011 0.000008  -0.033847 -0.018066 -0.729849
7  0.729355 0.000052 0.000048  -0.003319 0.001184 -0.766795
8  3.942141 0.046331 -0.431542  -0.131932 0.245557 -0.626035
9  1.539109 0.000083 0.000004  -0.017080 -0.016511 -0.418749
10  1.196332 0.000147 0.000028  0.001077 0.001737 -0.902507
11  3.883511 -0.047212 0.431351  0.082483 0.152434 -0.424351
12  1.719572 -0.000029 0.000017  -0.029537 -0.017441 -0.440244
13  1.209179 0.000090 0.000012  -0.004910 -0.000627 -0.830130
14  3.859678 -0.138418 1.332380  0.401072 -0.034448 -0.249230
15  1.719449 -0.000018 0.000028  -0.013007 -0.021506 -0.365334
16  1.099674 0.000049 0.000005  0.003181 0.001895 -0.409014
17  1.363111 -0.964043 0.880757  -1.082533 -0.970120 -0.643238
18  1.789819 -0.000003 -0.000018  0.001751 0.012714 0.502673
19  1.207016 -0.000013 -0.000044  -0.001946 -0.000912 0.074262
20  5.740636 0.000388 -0.000699  -0.160717 0.000003 0.000063
21  11.481113 0.000228 -0.000794  -0.117416 -0.103003 0.053096
22  6.027524 -0.000330 0.000201  1.546492 -0.345110 1.790187
23  0.000002 11.692101 -0.000008  -0.731851 -0.236132 -0.600299
24  0.000002 0.000009 -0.000001  0.381490 -0.000031 1.570739
25  0.000001 -0.000011 -0.000001  0.868960 0.000002 1.570712
26  -6.617934 -9.178503 0.826812  1.473120 1.855075 -0.198639
27  6.027513 -0.000259 -0.000221  1.504242 0.742474 -0.714490
28  11.691991 0.000160 0.000856  0.141449 0.000069 -1.788105
29  11.479787 -0.000605 0.000918  -1.131569 0.386434 0.798768
30  3.859438 -0.132758 1.193065  0.469647 -0.013262 -1.872395
31  1.312560 0.000027 0.000000  0.024060 -0.138696 -0.550187
32  0.729345 0.000066 -0.000027  -0.166197 -0.081570 -0.714273
33  3.942047 0.050139 0.431000  0.225309 -0.086237 -1.592712
34  1.539097 0.000006 -0.000000  0.035254 -0.050373 -0.994350
35  1.196301 0.000078 -0.000003  -0.021521 0.002175 -0.839738
36  3.883414 -0.050472 -0.431084  0.184824 -0.271737 -1.204030
37  1.719563 -0.000085 -0.000004  0.022859 -0.107186 -1.509108
38  1.209198 0.000035 0.000011  0.000661 0.071072 -0.480462
39  3.859589 -0.149082 -1.331321  -0.125781 -0.049890 0.132887
40  1.719412 -0.000098 -0.000036  -0.012756 -0.006805 -0.675652
41  1.099672 0.000024 0.000007  -0.006769 -0.005436 -0.301034
42  0.805984 -0.359847 -1.318338  0.991670 0.166767 -0.799527
43  1.789780 -0.000008 -0.000042  0.000058 -0.002451 0.133097
44  1.206996 -0.000008 0.000005  0.000372 -0.000071 1.058780
45  5.740573 0.000078 0.000720  0.157491 -0.000014 0.000028
46  11.480902 -0.000048 0.000929  0.060717 0.082400 0.127660
47  6.027515 -0.000273 -0.000230  -0.906174 -0.537639 -1.706490
48  -0.000002 11.691976 -0.000005  -1.198652 0.642675 0.906791
49  0.000004 -0.000001 0.000001  2.413977 -0.000036 1.570860
50  -0.000007 -0.000014 0.000005  2.272645 -0.000036 1.570861
51  -3.517707 -4.240358 -7.394794  -0.055742 -2.977882 1.477553
52  0.000000 0.000000 -0.000000  0.008153 -0.000259 0.000009
53  0.000000 -0.000000 -0.000000  1.565115 0.043565 -0.106862
54  -0.282738 -12.813460 -8.950560  -0.429109 -0.038362 -1.736929
55  -0.000001 0.000000 0.000001  0.000000 -0.000001 -0.000002
56  0.000030 0.000029 0.000002  -1.571901 -0.044449 -0.106509
57  12.388668 -8.738368 -20.195946  1.570796 -0.000000 0.000000
58  -15.417985 4.000748 -22.641926  1.570796 -0.000000 0.000000
59  1.941978 5.802740 -7.678239  1.570796 -0.000000 0.000000
60  -0.004311 0.001230 -0.000371  0.006898 -0.005534 -0.284229
61  0.826810 10.209643 -4.879054  1.570796 -0.000000 0.000000
62  0.000000 0.000000 0.000000  -0.078727 -3.136056 0.284226
63  0.000000 0.000000 0.000000  1.572014 -0.000595 0.000398
64  -2.450796 -8.327360 -2.121261  1.549722 -0.019872 0.015448
65  -3.590840 -19.563499 -4.728379  1.570804 -0.000000 0.000000
66  0.040179 -1.681048 3.706299  -0.000008 -0.000000 -0.000000
67  0.043600 -1.680997 11.516016  -0.000008 -0.000000 -0.000000
68  0.359774 -0.536898 2.504634  -0.000008 -0.000000 -0.000000
69  0.043602 -1.951604 -1.986989  -0.000008 -0.000000 -0.000000
70  -3.550662 -22.941486 -6.409432  1.570796 -0.000000 0.000000
71  -3.550661 -21.016615 -6.409430  1.570796 -0.000000 0.000000
time 5
0  0.000006 0.000000 0.000000  -1.570800 -1.391899 -1.570792
1  -8.585320 -3.077360 1.937666  -1.544956 -1.855077 -0.198630
2  6.027523 -0.000326 0.000189  -0.579916 -1.260814 -1.460472
3  11.692114 0.000647 -0.000739  -0.744885 -0.000000 -1.006691
4  11.480585 0.000419 -0.000607  0.884963 -0.553075 0.559090
5  3.859502 -0.142823 -1.192079  -0.259353 0.380761 -0.386203
6  1.312589 0.000008 0.000009  -0.009799 -0.003931 -0.519314
7  0.729355 0.000055 0.000050  -0.001586 0.001119 -0.412273
8  3.942140 0.046332 -0.431542  -0.083833 0.179908 -0.265494
9  1.539109 0.000084 0.000004  -0.004992 -0.004242 -0.294989
10  1.196333 0.000145 0.000027  0.000377 0.000430 -0.558207
11  3.883511 -0.047212 0.431352  0.090702 0.013701 -0.052171
12  1.719571 -0.000029 0.000016  -0.008320 -0.000608 -0.386971
13  1.209178 0.000091 0.000011  -0.001511 0.002410 -0.379474
14  3.859675 -0.138417 1.332379  0.322644 -0.204003 0.010534
15  1.719448 -0.000018 0.000029  -0.003582 -0.003003 -0.363697
16  1.099676 0.000050 0.000006  0.000867 0.002337 -0.289785
17  0.934627 -0.918747 1.095561  -1.294721 -0.635324 -0.444041
18  1.789818 -0.000004 -0.000019  -0.000559 0.025868 0.170105
19  1.207015 -0.000013 -0.000043  -0.003798 -0.001374 0.168204
20  5.740637 0.000387 -0.000701  -0.144675 0.000003 0.000063
21  11.481125 0.000263 -0.000775  -0.099276 -0.118066 0.057576
22  6.027524 -0.000330 0.000200  1.531862 -0.307689 1.809081
23  -0.000000 11.692100 -0.000007  -0.724916 -0.231539 -0.595007
24  0.000003 0.000009 -0.000000  0.124189 -0.000031 1.570739
25  0.000001 -0.000012 -0.000000  0.868960 0.000002 1.570712
26  -6.617934 -9.178503 0.826812  1.473120 1.855075 -0.198639
27  6.027513 -0.000259 -0.000221  1.514614 0.743584 -0.710387
28  11.691991 0.000161 0.000857  0.141449 0.000068 -1.782303
29  11.479837 -0.000574 0.000912  -1.153104 0.375462 0.790562
30  3.859437 -0.132758 1.193065  0.469647 -0.013262 -1.872395
31  1.312559 0.000025 0.000000  0.024060 -0.138696 -0.550187
32  0.729346 0.000064 -0.000028  -0.166197 -0.081570 -0.714272
33  3.942047 0.050139 0.431000  0.225309 -0.086237 -1.592712
34  1.539097 0.000006 -0.000001  0.035254 -0.050373 -0.994350
35  1.196300 0.000079 -0.000004  -0.021521 0.002175 -0.839738
36  3.883413 -0.050472 -0.431084  0.184824 -0.271737 -1.204030
37  1.719564 -0.000084 -0.000005  0.022859 -0.107186 -1.509108
38  1.209199 0.000035 0.000011  0.000661 0.071072 -0.480462
39  3.859588 -0.149082 -1.331321  -0.121915 -0.058500 0.006498
40  1.719412 -0.000098 -0.000037  -0.012015 -0.005768 -0.869141
41  1.099673 0.000023 0.000007  -0.006151 -0.006489 -0.478362
42  0.805983 -0.359847 -1.318338  0.991670 0.166767 -0.799527
43  1.789780 -0.000008 -0.000042  0.000058 -0.002451 0.133098
44  1.206997 -0.000007 0.000005  0.000372 -0.000071 1.058781
45  5.740572 0.000079 0.000719  0.152744 -0.000014 0.000028
46  11.480910 -0.000041 0.000927  0.057873 0.078731 0.127605
47  6.027515 -0.000273 -0.000230  -0.902436 -0.530623 -1.711307
48  -0.000001 11.691975 -0.000004  -1.195241 0.639188 0.905084
49  0.000003 -0.000001 0.000000  2.413977 -0.000036 1.570860
50  -0.000007 -0.000013 0.000006  2.272645 -0.000036 1.570861
51  -3.621120 -4.305217 -7.355451  -0.074405 -2.976158 1.481338
52  -0.000000 -0.000000 -0.000000  0.008153 -0.000259 0.000009
53  -0.000000 0.000000 0.000000  1.565115 0.043565 -0.106862
54  -0.470371 -14.025318 -8.653184  -0.525556 0.080978 -1.753574
55  -0.000001 0.000000 -0.000000  0.000000 -0.000001 -0.000002
56  0.000029 0.000029 0.000001  -1.571901 -0.044449 -0.106509
57  11.969811 -13.995864 -20.761320  1.570796 -0.000000 0.000000
58  -15.417985 4.000748 -22.641926  1.570796 -0.000000 0.000000
59  1.941978 4.555585 -7.901936  1.570796 -0.000000 0.000000
60  -0.004311 0.001230 -0.000371  0.006898 -0.005534 -0.284229
61  0.826810 10.209643 -4.879054  1.570796 -0.000000 0.000000
62  0.000000 0.000000 0.000000  -0.078727 -3.136056 0.284226
63  0.000000 0.000000 0.000000  1.570831 0.000316 0.000011
64  -2.453910 -8.391208 -2.102420  1.549977 -0.001382 0.016173
65  -3.590840 -19.563499 -4.728379  1.570804 -0.000000 0.000000
66  0.040179 -1.681048 3.706299  -0.000008 -0.000000 -0.000000
67  0.043600 -1.680997 11.516016  -0.000008 -0.000000 -0.000000
68  0.359774 -0.536898 2.504634  -0.000008 -0.000000 -0.000000
69  0.043602 -1.951604 -1.986989  -0.000008 -0.000000 -0.000000
70  -3.550662 -22.941486 -6.409432  1.570796 -0.000000 0.000000
71  -3.550661 -21.016615 -6.409430  1.570796 -0.000000 0.000000
time 6
0  0.000006 0.000000 0.000000  -1.570800 -1.391899 -1.570792
1  -8.583131 -1.533884 1.937666  -1.544956 -1.855077 -0.198630
2  6.027524 -0.000327 0.000189  -0.424225 -1.303521 -1.629082
3  11.692112 0.000646 -0.000736  -1.008243 0.000002 -0.938960
4  11.479993 0.000453 -0.000650  1.016772 -0.645238 0.507224
5  3.859501 -0.142823 -1.192079  -0.279574 0.408283 -0.225644
6  1.312592 0.000010 0.000008  -0.000027 0.000044 -0.439740
7  0.729354 0.000054 0.000050  0.000017 0.000021 -0.244317
8  3.942139 0.046331 -0.431543  -0.072693 0.152066 -0.134403
9  1.539109 0.000085 0.000003  -0.000007 0.000021 -0.247842
10  1.196334 0.000145 0.000029  0.000011 0.000018 -0.430770
11  3.883509 -0.047211 0.431350  0.080699 -0.036674 0.086323
12  1.719574 -0.000029 0.000017  0.000015 0.005518 -0.366533
13  1.209176 0.000090 0.000012  0.000004 0.003091 -0.216438
14  3.859675 -0.138418 1.332379  0.254383 -0.253134 0.119978
15  1.719450 -0.000019 0.000028  0.000028 0.004066 -0.363025
16  1.099674 0.000048 0.000006  0.000003 0.002578 -0.244382
17  0.770817 -0.901431 1.177680  -1.349736 -0.452662 -0.375760
18  1.789819 -0.000004 -0.000018  -0.002266 0.030655 0.047001
19  1.207016 -0.000012 -0.000042  -0.004505 -0.001614 0.204032
20  5.740636 0.000388 -0.000700  -0.113882 0.000003 0.000064
21  11.481005 0.000269 -0.000782  -0.071372 -0.127651 0.050523
22  6.027524 -0.000329 0.000200  1.495893 -0.256890 1.799804
23  -0.000000 11.692099 -0.000007  -0.680552 -0.203280 -0.560843
24  0.000003 0.000009 0.000001  -0.139174 -0.000030 1.570739
25  -0.000000 -0.000011 -0.000001  0.868960 0.000002 1.570712
26  -6.617934 -9.178503 0.826812  1.473120 1.855075 -0.198639
27  6.027513 -0.000259 -0.000221  1.523589 0.745451 -0.706864
28  11.691991 0.000161 0.000857  0.141449 0.000068 -1.778256
29  11.479876 -0.000551 0.000910  -1.172590 0.365624 0.786991
30  3.859438 -0.132759 1.193066  0.469647 -0.013262 -1.872395
31  1.312559 0.000025 -0.000000  0.024060 -0.138696 -0.550187
32  0.729345 0.000064 -0.000027  -0.166197 -0.081570 -0.714272
33  3.942047 0.050139 0.431001  0.225309 -0.086237 -1.592712
34  1.539097 0.000005 -0.000001  0.035254 -0.050373 -0.994350
35  1.196300 0.000078 -0.000003  -0.021521 0.002175 -0.839738
36  3.883414 -0.050472 -0.431084  0.184824 -0.271737 -1.204030
37  1.719564 -0.000083 -0.000004  0.022859 -0.107186 -1.509108
38  1.209198 0.000034 0.000011  0.000661 0.071072 -0.480462
39  3.859589 -0.149082 -1.331320  -0.115690 -0.072321 -0.158585
40  1.719413 -0.000098 -0.000036  -0.011587 -0.004601 -1.065024
41  1.099673 0.000023 0.000007  -0.005428 -0.007475 -0.661709
42  0.805984 -0.359847 -1.318338  0.991670 0.166767 -0.799527
43  1.789780 -0.000007 -0.000042  0.000058 -0.002451 0.133098
44  1.206997 -0.000007 0.000005  0.000372 -0.000071 1.058780
45  5.740573 0.000079 0.000721  0.148891 -0.000014 0.000028
46  11.480919 -0.000036 0.000928  0.055154 0.075537 0.128260
47  6.027515 -0.000273 -0.000230  -0.900161 -0.524051 -1.715010
48  -0.000000 11.691974 -0.000006  -1.192864 0.636758 0.903888
49  0.000002 -0.000001 0.000001  2.413978 -0.000036 1.570860
50  -0.000007 -0.000014 0.000005  2.272645 -0.000036 1.570861
51  -3.700586 -4.351696 -7.303905  -0.092186 -2.976154 1.484399
52  -0.000001 -0.000000 -0.000000  0.008153 -0.000259 0.000009
53  0.000000 0.000000 0.000001  1.565115 0.043565 -0.106862
54  -0.769243 -15.767203 -8.256188  -0.615971 0.161319 -1.776994
55  -0.000002 -0.000000 -0.000001  0.000000 -0.000001 -0.000002
56  0.000028 0.000029 0.000001  -1.571901 -0.044449 -0.106509
57  11.561119 -18.090511 -21.201643  1.570796 -0.000000 0.000000
58  -15.417985 4.000748 -22.641926  1.570796 -0.000000 0.000000
59  1.941978 3.036353 -8.174435  1.570796 -0.000000 0.000000
60  -0.004311 0.001229 -0.000371  0.006898 -0.005534 -0.284229
61  0.826810 10.209643 -4.879054  1.570796 -0.000000 0.000000
62  0.000000 0.000000 0.000000  -0.078727 -3.136056 0.284226
63  0.000000 0.000000 0.000000  1.569648 0.001227 -0.000315
64  -2.441296 -8.445578 -2.078355  1.551797 0.016062 0.016319
65  -3.590840 -19.563499 -4.728379  1.570804 -0.000000 0.000000
66  0.040179 -1.681048 3.706299  -0.000008 -0.000000 -0.000000
67  0.043600 -1.680997 11.516016  -0.000008 -0.000000 -0.000000
68  0.359774 -0.536898 2.504634  -0.000008 -0.000000 -0.000000
69  0.043602 -1.951604 -1.986989  -0.000008 -0.000000 -0.000000
70  -3.550662 -22.941486 -6.409432  1.570796 -0.000000 0.000000
71  -3.550661 -21.016615 -6.409430  1.570796 -0.000000 0.000000
time 7
0  0.000006 0.000000 0.000000  -1.570800 -1.391899 -1.570792
1  -8.580941 0.009591 1.937665  -1.544956 -1.855077 -0.198630
2  6.027524 -0.000326 0.000189  -0.210920 -1.327678 -1.875019
3  11.692111 0.000646 -0.000736  -1.212837 0.000004 -0.861500
4  11.480779 0.000688 -0.000253  1.173570 -0.703245 0.391458
5  3.859502 -0.142823 -1.192079  -0.409384 0.403412 -0.405837
6  1.312589 0.000010 0.000006  -0.013647 -0.012912 -0.474420
7  0.729355 0.000055 0.000053  0.001938 -0.002875 -0.197104
8  3.942142 0.046332 -0.431543  -0.150206 0.200352 -0.254293
9  1.539112 0.000082 0.000004  -0.005851 -0.007346 -0.301746
10  1.196334 0.000146 0.000027  0.000750 0.000162 -0.485400
11  3.883511 -0.047211 0.431350  0.024335 0.058742 0.003820
12  1.719570 -0.000028 0.000016  -0.009000 -0.004319 -0.393925
13  1.209180 0.000090 0.000011  -0.001183 0.002537 -0.337295
14  3.859678 -0.138417 1.332380  0.184716 -0.125897 0.083131
15  1.719448 -0.000018 0.000028  -0.004101 0.002844 -0.367211
16  1.099674 0.000048 0.000006  0.000193 0.002448 -0.291377
17  0.770817 -0.901430 1.177679  -1.359615 -0.384145 -0.338711
18  1.789822 -0.000003 -0.000018  -0.001058 0.031018 0.074088
19  1.207015 -0.000014 -0.000043  -0.004421 -0.001797 0.184292
20  5.740636 0.000388 -0.000701  -0.084740 0.000003 0.000063
21  11.481162 0.000315 -0.000704  -0.045569 -0.130119 0.036580
22  6.027524 -0.000329 0.000200  1.454398 -0.214011 1.770012
23  0.000000 11.692099 -0.000005  -0.628932 -0.172830 -0.520474
24  0.000003 0.000009 -0.000000  -0.343773 -0.000031 1.570739
25  -0.000002 -0.000011 0.000000  0.868960 0.000002 1.570712
26  -6.617934 -9.178503 0.826812  1.473120 1.855075 -0.198639
27  6.027513 -0.000259 -0.000221  1.529592 0.747354 -0.704517
28  11.691990 0.000160 0.000856  0.141449 0.000068 -1.779737
29  11.479860 -0.000559 0.000911  -1.186336 0.358778 0.794212
30  3.859438 -0.132758 1.193064  0.469647 -0.013262 -1.872395
31  1.312559 0.000026 -0.000001  0.024060 -0.138696 -0.550187
32  0.729346 0.000065 -0.000027  -0.166197 -0.081570 -0.714273
33  3.942046 0.050139 0.431000  0.225309 -0.086237 -1.592712
34  1.539096 0.000005 -0.000001  0.035254 -0.050373 -0.994350
35  1.196301 0.000078 -0.000002  -0.021521 0.002175 -0.839738
36  3.883414 -0.050472 -0.431084  0.184824 -0.271737 -1.204030
37  1.719563 -0.000084 -0.000004  0.022859 -0.107186 -1.509108
38  1.209199 0.000035 0.000011  0.000661 0.071072 -0.480462
39  3.859588 -0.149082 -1.331321  -0.108743 -0.083311 -0.291636
40  1.719412 -0.000098 -0.000037  -0.011544 -0.003539 -1.200830
41  1.099674 0.000022 0.000006  -0.004876 -0.008097 -0.789802
42  0.805983 -0.359848 -1.318339  0.991670 0.166767 -0.799527
43  1.789780 -0.000009 -0.000042  0.000058 -0.002451 0.133098
44  1.206996 -0.000006 0.000005  0.000372 -0.000071 1.058780
45  5.740572 0.000079 0.000721  0.147408 -0.000014 0.000028
46  11.480916 -0.000038 0.000927  0.052955 0.073546 0.130605
47  6.027515 -0.000273 -0.000230  -0.899318 -0.519307 -1.717159
48  0.000000 11.691973 -0.000006  -1.193733 0.637647 0.904326
49  0.000003 0.000001 -0.000000  2.413977 -0.000036 1.570860
50  -0.000007 -0.000014 0.000004  2.272645 -0.000036 1.570861
51  -3.734690 -4.344532 -7.235006  -0.106725 -2.980313 1.485085
52  -0.000000 -0.000000 -0.000001  0.008153 -0.000259 0.000009
53  -0.000000 -0.000000 -0.000000  1.565115 0.043565 -0.106862
54  -1.080080 -17.508987 -7.871717  -0.703820 0.183591 -1.800862
55  -0.000001 -0.000000 0.000001  0.000000 -0.000001 -0.000002
56  0.000028 0.000029 0.000002  -1.571902 -0.044449 -0.106509
57  11.266144 -19.544212 -21.357969  1.570796 -0.000000 0.000000
58  -15.417985 4.000748 -22.641926  1.570796 -0.000000 0.000000
59  1.941978 1.517122 -8.446932  1.570796 -0.000000 0.000000
60  -0.004311 0.001229 -0.000371  0.006898 -0.005534 -0.284229
61  0.826810 10.209643 -4.879054  1.570796 -0.000000 0.000000
62  0.000000 0.000000 0.000000  -0.078727 -3.136056 0.284226
63  0.000000 0.000000 0.000000  1.569110 0.001641 -0.000451
64  -2.409760 -8.468568 -2.049552  1.557391 0.029910 0.014769
65  -3.590840 -19.563499 -4.728379  1.570804 -0.000000 0.000000
66  0.040179 -1.681048 3.706299  -0.000008 -0.000000 -0.000000
67  0.043600 -1.680997 11.516016  -0.000008 -0.000000 -0.000000
68  0.359774 -0.536898 2.504634  -0.000008 -0.000000 -0.000000
69  0.043602 -1.951604 -1.986989  -0.000008 -0.000000 -0.000000
70  -3.550662 -22.941486 -6.409432  1.570796 -0.000000 0.000000
71  -3.550661 -21.016615 -6.409430  1.570796 -0.000000 0.000000
time 8
0  0.000006 0.000000 0.000000  -1.570800 -1.391899 -1.570792
1  -8.579144 1.276648 1.937665  -1.544956 -1.855077 -0.198630
2  6.027524 -0.000326 0.000189  -0.090546 -1.329929 -2.025164
3  11.692114 0.000643 -0.000737  -1.333231 0.000005 -0.836607
4  11.480902 0.000726 -0.000123  1.272473 -0.735338 0.293959
5  3.859504 -0.142823 -1.192079  -0.624489 0.286063 -0.865875
6  1.312588 0.000010 0.000006  -0.047191 -0.049058 -0.564608
7  0.729356 0.000055 0.000048  0.004386 -0.008002 -0.169208
8  3.942141 0.046332 -0.431543  -0.388695 0.280147 -0.601751
9  1.539109 0.000083 0.000004  -0.019253 -0.028118 -0.443373
10  1.196332 0.000145 0.000028  0.002646 0.000729 -0.629111
11  3.883508 -0.047211 0.431351  -0.173890 0.288293 -0.261892
12  1.719573 -0.000028 0.000014  -0.031321 -0.031224 -0.465296
13  1.209180 0.000090 0.000010  -0.003957 0.000385 -0.662694
14  3.859677 -0.138417 1.332380  0.043197 0.186031 -0.062112
15  1.719449 -0.000018 0.000029  -0.014877 -0.000435 -0.378138
16  1.099675 0.000049 0.000007  0.000718 0.002152 -0.414818
17  0.770818 -0.901430 1.177680  -1.368296 -0.343263 -0.308384
18  1.789817 -0.000004 -0.000018  0.001503 0.031304 0.144219
19  1.207017 -0.000013 -0.000044  -0.004215 -0.001980 0.132617
20  5.740635 0.000388 -0.000700  -0.071467 0.000003 0.000063
21  11.481188 0.000322 -0.000676  -0.031395 -0.131868 0.024003
22  6.027523 -0.000328 0.000200  1.430743 -0.196694 1.741564
23  0.000002 11.692100 -0.000007  -0.612140 -0.163486 -0.507213
24  0.000004 0.000008 0.000001  -0.464168 -0.000030 1.570738
25  0.000000 -0.000012 0.000000  0.868960 0.000002 1.570712
26  -6.617934 -9.178503 0.826812  1.473120 1.855075 -0.198639
27  6.027513 -0.000259 -0.000221  1.532026 0.747518 -0.703535
28  11.691992 0.000161 0.000855  0.141449 0.000069 -1.789037
29  11.479778 -0.000612 0.000920  -1.192764 0.356270 0.810961
30  3.859437 -0.132759 1.193065  0.469647 -0.013262 -1.872395
31  1.312559 0.000024 -0.000001  0.024060 -0.138696 -0.550187
32  0.729345 0.000064 -0.000028  -0.166197 -0.081570 -0.714272
33  3.942046 0.050139 0.431001  0.225309 -0.086237 -1.592712
34  1.539097 0.000006 -0.000001  0.035254 -0.050373 -0.994350
35  1.196300 0.000078 -0.000003  -0.021521 0.002175 -0.839738
36  3.883413 -0.050472 -0.431084  0.184824 -0.271737 -1.204030
37  1.719564 -0.000085 -0.000005  0.022858 -0.107186 -1.509108
38  1.209197 0.000035 0.000011  0.000661 0.071072 -0.480462
39  3.859588 -0.149082 -1.331321  -0.104610 -0.087062 -0.348009
40  1.719412 -0.000098 -0.000037  -0.011743 -0.002720 -1.246112
41  1.099674 0.000025 0.000008  -0.004719 -0.008303 -0.832638
42  0.805983 -0.359847 -1.318338  0.991670 0.166767 -0.799527
43  1.789780 -0.000008 -0.000042  0.000058 -0.002451 0.133097
44  1.206996 -0.000007 0.000006  0.000372 -0.000071 1.058780
45  5.740573 0.000079 0.000721  0.148699 -0.000013 0.000028
46  11.480901 -0.000049 0.000929  0.051518 0.073068 0.134295
47  6.027515 -0.000273 -0.000230  -0.898392 -0.517705 -1.718291
48  -0.000002 11.691974 -0.000005  -1.199200 0.643235 0.907064
49  0.000003 -0.000001 -0.000000  2.413977 -0.000036 1.570860
50  -0.000008 -0.000014 0.000005  2.272645 -0.000036 1.570861
51  -3.724762 -4.262579 -7.160398  -0.115956 -2.986819 1.483418
52  -0.000000 -0.000000 -0.000000  0.008153 -0.000259 0.000009
53  -0.000000 -0.000000 0.000000  1.565115 0.043565 -0.106862
54  -1.300592 -18.720579 -7.608762  -0.782582 0.173598 -1.818755
55  0.000001 -0.000000 -0.000000  0.000000 -0.000001 -0.000002
56  0.000031 0.000029 0.000000  -1.571901 -0.044449 -0.106509
57  11.042387 -19.544212 -21.357969  1.570796 -0.000000 0.000000
58  -15.417985 4.000748 -22.641926  1.570796 -0.000000 0.000000
59  1.941978 0.269967 -8.670629  1.570796 -0.000000 0.000000
60  -0.004311 0.001229 -0.000371  0.006898 -0.005534 -0.284229
61  0.826810 10.209643 -4.879054  1.570796 -0.000000 0.000000
62  0.000000 0.000000 0.000000  -0.078727 -3.136056 0.284226
63  0.000000 0.000000 0.000000  1.569373 0.001385 -0.000381
64  -2.368764 -8.428342 -2.016496  1.564777 0.038332 0.011901
65  -3.590840 -19.563499 -4.728379  1.570804 -0.000000 0.000000
66  0.040179 -1.681048 3.706299  -0.000008 -0.000000 -0.000000
67  0.043600 -1.680997 11.516016  -0.000008 -0.000000 -0.000000
68  0.359774 -0.536898 2.504634  -0.000008 -0.000000 -0.000000
69  0.043602 -1.951604 -1.986989  -0.000008 -0.000000 -0.000000
70  -3.550662 -22.941486 -6.409432  1.570796 -0.000000 0.000000
71  -3.550661 -21.016615 -6.409430  1.570796 -0.000000 0.000000
time 9
0  0.000006 0.000000 0.000000  -1.570800 -1.391899 -1.570792
1  -8.578002 2.081486 1.937664  -1.544956 -1.855077 -0.198630
2  6.027524 -0.000326 0.000189  -0.143008 -1.322865 -1.984512
3  11.692113 0.000645 -0.000739  -1.371544 0.000003 -0.892349
4  11.480644 0.000711 -0.000191  1.302872 -0.781712 0.266258
5  3.859501 -0.142824 -1.192079  -0.741268 0.098348 -1.279374
6  1.312590 0.000009 0.000006  -0.077420 -0.088062 -0.653764
7  0.729357 0.000055 0.000049  0.006349 -0.012650 -0.159576
8  3.942137 0.046331 -0.431542  -0.643296 0.274299 -0.962193
9  1.539111 0.000083 0.000005  -0.029596 -0.050572 -0.584830
10  1.196333 0.000145 0.000026  0.004441 0.001563 -0.772820
11  3.883510 -0.047212 0.431352  -0.444988 0.449718 -0.591771
12  1.719573 -0.000029 0.000014  -0.051692 -0.059647 -0.536139
13  1.209178 0.000092 0.000011  -0.005897 -0.002542 -0.988087
14  3.859675 -0.138418 1.332380  -0.144275 0.464930 -0.265084
15  1.719450 -0.000018 0.000028  -0.025616 -0.003831 -0.389029
16  1.099673 0.000047 0.000006  0.001277 0.001923 -0.538260
17  0.770818 -0.901430 1.177681  -1.374531 -0.328441 -0.290084
18  1.789818 -0.000004 -0.000018  0.003956 0.031317 0.214356
19  1.207016 -0.000013 -0.000044  -0.004009 -0.002097 0.080943
20  5.740635 0.000390 -0.000699  -0.072305 0.000003 0.000063
21  11.481134 0.000320 -0.000689  -0.025570 -0.139843 0.019538
22  6.027523 -0.000329 0.000200  1.437381 -0.209682 1.729973
23  -0.000001 11.692099 -0.000008  -0.649604 -0.184711 -0.536714
24  0.000002 0.000009 -0.000002  -0.502477 -0.000030 1.570738
25  -0.000001 -0.000012 -0.000001  0.868960 0.000002 1.570712
26  -6.617934 -9.178503 0.826812  1.473120 1.855075 -0.198639
27  6.027513 -0.000259 -0.000221  1.531027 0.746540 -0.703903
28  11.691993 0.000161 0.000858  0.141449 0.000070 -1.802536
29  11.479656 -0.000684 0.000929  -1.191778 0.358082 0.830847
30  3.859437 -0.132758 1.193065  0.469647 -0.013262 -1.872395
31  1.312559 0.000026 0.000000  0.024060 -0.138696 -0.550187
32  0.729346 0.000065 -0.000027  -0.166197 -0.081570 -0.714272
33  3.942046 0.050139 0.430999  0.225309 -0.086237 -1.592712
34  1.539097 0.000006 -0.000001  0.035254 -0.050373 -0.994350
35  1.196301 0.000078 -0.000003  -0.021521 0.002175 -0.839738
36  3.883413 -0.050473 -0.431085  0.184824 -0.271737 -1.204030
37  1.719564 -0.000084 -0.000005  0.022858 -0.107186 -1.509108
38  1.209197 0.000036 0.000011  0.000661 0.071072 -0.480462
39  3.859588 -0.149082 -1.331321  -0.102976 -0.086956 -0.359409
40  1.719412 -0.000099 -0.000035  -0.011903 -0.002107 -1.240565
41  1.099674 0.000024 0.000007  -0.004762 -0.008315 -0.832593
42  0.805983 -0.359848 -1.318338  0.991670 0.166767 -0.799527
43  1.789780 -0.000008 -0.000042  0.000058 -0.002451 0.133098
44  1.206997 -0.000006 0.000006  0.000372 -0.000071 1.058780
45  5.740572 0.000080 0.000721  0.152038 -0.000014 0.000028
46  11.480875 -0.000063 0.000931  0.051022 0.073962 0.138081
47  6.027515 -0.000273 -0.000230  -0.897881 -0.518844 -1.718233
48  -0.000001 11.691975 -0.000006  -1.207141 0.651368 0.910991
49  0.000002 -0.000000 0.000000  2.413977 -0.000036 1.570860
50  -0.000008 -0.000014 0.000004  2.272645 -0.000036 1.570861
51  -3.680079 -4.138221 -7.095300  -0.118531 -2.992723 1.480459
52  -0.000000 -0.000000 0.000000  0.008153 -0.000259 0.000009
53  -0.000000 -0.000000 -0.000000  1.565115 0.043565 -0.106862
54  -1.377172 -19.136868 -7.519260  -0.810035 0.164187 -1.823731
55  -0.000001 0.000000 -0.000000  0.000000 -0.000001 -0.000002
56  0.000030 0.000029 0.000001  -1.571901 -0.044449 -0.106509
57  10.846075 -19.544212 -21.357969  1.570796 -0.000000 0.000000
58  -15.417985 4.000748 -22.641926  1.570796 -0.000000 0.000000
59  1.941978 -0.522230 -8.812721  1.570796 -0.000000 0.000000
60  -0.004311 0.001229 -0.000371  0.006898 -0.005534 -0.284229
61  0.826810 10.209643 -4.879054  1.570796 -0.000000 0.000000
62  0.000000 0.000000 0.000000  -0.078727 -3.136056 0.284226
63  0.000000 0.000000 0.000000  1.569953 0.000821 -0.000225
64  -2.327768 -8.339844 -1.979671  1.570909 0.040281 0.008793
65  -3.590840 -19.563499 -4.728379  1.570804 -0.000000 0.000000
66  0.040179 -1.681048 3.706299  -0.000008 -0.000000 -0.000000
67  0.043600 -1.680997 11.516016  -0.000008 -0.000000 -0.000000
68  0.359774 -0.536898 2.504634  -0.000008 -0.000000 -0.000000
69  0.043602 -1.951604 -1.986989  -0.000008 -0.000000 -0.000000
70  -3.550662 -22.941486 -6.409432  1.570796 -0.000000 0.000000
71  -3.550661 -21.016615 -6.409430  1.570796 -0.000000 0.000000
time 10
0  0.000006 0.000000 0.000000  -1.570800 -1.391899 -1.570792
1  -8.577620 2.351119 1.937664  -1.544956 -1.855077 -0.198630
2  6.027524 -0.000327 0.000189  -0.203763 -1.316107 -1.926450
3  11.692112 0.000644 -0.000738  -1.371547 0.000002 -0.936919
4  11.480060 0.000662 -0.000420  1.300363 -0.810699 0.274846
5  3.859501 -0.142824 -1.192079  -0.760103 0.021941 -1.422041
6  1.312590 0.000010 0.000009  -0.088033 -0.103610 -0.687516
7  0.729356 0.000054 0.000049  0.007042 -0.014354 -0.158480
8  3.942137 0.046331 -0.431542  -0.733434 0.250301 -1.091874
9  1.539109 0.000082 0.000003  -0.032682 -0.059457 -0.638586
10  1.196332 0.000146 0.000029  0.005089 0.001946 -0.827450
11  3.883510 -0.047212 0.431352  -0.561335 0.485469 -0.728497
12  1.719572 -0.000028 0.000014  -0.058936 -0.070862 -0.563053
13  1.209179 0.000089 0.000010  -0.006361 -0.003766 -1.108939
14  3.859675 -0.138418 1.332380  -0.233465 0.555908 -0.361018
15  1.719448 -0.000018 0.000030  -0.029712 -0.005160 -0.393183
16  1.099674 0.000047 0.000004  0.001496 0.001854 -0.585255
17  0.770818 -0.901430 1.177681  -1.376690 -0.326462 -0.284702
18  1.789820 -0.000004 -0.000019  0.004875 0.031264 0.241172
19  1.207016 -0.000013 -0.000044  -0.003929 -0.002132 0.061202
20  5.740635 0.000389 -0.000697  -0.075759 0.000003 0.000063
21  11.481018 0.000309 -0.000735  -0.024338 -0.145665 0.020031
22  6.027524 -0.000329 0.000200  1.447057 -0.223266 1.727109
23  0.000001 11.692100 -0.000007  -0.679204 -0.202452 -0.559796
24  0.000002 0.000007 0.000001  -0.502477 -0.000030 1.570739
25  0.000001 -0.000011 0.000001  0.868960 0.000002 1.570712
26  -6.617934 -9.178503 0.826812  1.473120 1.855075 -0.198639
27  6.027513 -0.000259 -0.000221  1.528349 0.746203 -0.704974
28  11.691992 0.000161 0.000858  0.141449 0.000071 -1.813571
29  11.479561 -0.000742 0.000938  -1.186715 0.362445 0.845813
30  3.859436 -0.132758 1.193066  0.469647 -0.013262 -1.872395
31  1.312559 0.000025 -0.000000  0.024060 -0.138696 -0.550187
32  0.729346 0.000065 -0.000027  -0.166197 -0.081570 -0.714272
33  3.942047 0.050139 0.431000  0.225309 -0.086237 -1.592712
34  1.539096 0.000004 -0.000001  0.035254 -0.050373 -0.994350
35  1.196300 0.000078 -0.000004  -0.021521 0.002175 -0.839738
36  3.883413 -0.050472 -0.431084  0.184824 -0.271737 -1.204030
37  1.719563 -0.000085 -0.000004  0.022858 -0.107186 -1.509108
38  1.209198 0.000035 0.000011  0.000661 0.071072 -0.480462
39  3.859588 -0.149082 -1.331321  -0.102305 -0.086907 -0.364096
40  1.719411 -0.000099 -0.000036  -0.011881 -0.001768 -1.228694
41  1.099674 0.000023 0.000008  -0.004781 -0.008313 -0.832214
42  0.805984 -0.359848 -1.318338  0.991670 0.166767 -0.799527
43  1.789780 -0.000007 -0.000042  0.000058 -0.002451 0.133098
44  1.206997 -0.000007 0.000005  0.000372 -0.000071 1.058780
45  5.740573 0.000080 0.000721  0.155601 -0.000014 0.000028
46  11.480856 -0.000074 0.000932  0.051190 0.075491 0.140600
47  6.027515 -0.000273 -0.000230  -0.898751 -0.520690 -1.717053
48  -0.000001 11.691974 -0.000005  -1.213640 0.658034 0.914158
49  0.000003 -0.000001 0.000000  2.413977 -0.000036 1.570860
50  -0.000007 -0.000013 0.000005  2.272645 -0.000036 1.570861
51  -3.624187 -4.033710 -7.048390  -0.116107 -2.995408 1.477515
52  -0.000000 0.000000 0.000000  0.008153 -0.000259 0.000009
53  -0.000000 0.000000 -0.000000  1.565115 0.043565 -0.106862
54  -1.377172 -19.136868 -7.519260  -0.810035 0.164187 -1.823731
55  -0.000001 0.000000 -0.000000  0.000000 -0.000001 -0.000002
56  0.000030 0.000029 0.000001  -1.571901 -0.044449 -0.106509
57  10.724100 -19.544212 -21.357969  1.570796 -0.000000 0.000000
58  -15.417985 4.000748 -22.641926  1.570796 -0.000000 0.000000
59  1.941978 -0.787628 -8.860325  1.570796 -0.000000 0.000000
60  -0.004311 0.001229 -0.000371  0.006898 -0.005534 -0.284229
61  0.826810 10.209643 -4.879054  1.570796 -0.000000 0.000000
62  0.000000 0.000000 0.000000  -0.078727 -3.136056 0.284226
63  0.000000 0.000000 0.000000  1.570533 0.000256 -0.000070
64  -2.296233 -8.251347 -1.939562  1.573345 0.037629 0.006301
65  -3.590840 -19.563499 -4.728379  1.570804 -0.000000 0.000000
66  0.040179 -1.681048 3.706299  -0.000008 -0.000000 -0.000000
67  0.043600 -1.680997 11.516016  -0.000008 -0.000000 -0.000000
68  0.359774 -0.536898 2.504634  -0.000008 -0.000000 -0.000000
69  0.043602 -1.951604 -1.986989  -0.000008 -0.000000 -0.000000
70  -3.550662 -22.941486 -6.409432  1.570796 -0.000000 0.000000
71  -3.550661 -21.016615 -6.409430  1.570796 -0.000000 0.000000
time 11
0  0.000006 0.000000 0.000000  -1.570800 -1.391899 -1.570792
1  -8.577620 2.351119 1.937664  -1.544956 -1.855077 -0.198630
2  6.027524 -0.000327 0.000189  -0.204605 -1.315433 -1.927003
3  11.692113 0.000643 -0.000738  -1.371547 0.000002 -0.936919
4  11.480061 0.000663 -0.000423  1.302333 -0.810936 0.274106
5  3.859501 -0.142824 -1.192079  -0.760103 0.021941 -1.422041
6  1.312590 0.000010 0.000009  -0.088033 -0.103610 -0.687516
7  0.729356 0.000054 0.000049  0.007042 -0.014354 -0.158480
8  3.942137 0.046331 -0.431542  -0.733434 0.250301 -1.091874
9  1.539109 0.000082 0.000003  -0.032682 -0.059457 -0.638586
10  1.196332 0.000146 0.000029  0.005089 0.001946 -0.827450
11  3.883510 -0.047212 0.431352  -0.561335 0.485469 -0.728497
12  1.719572 -0.000028 0.000014  -0.058936 -0.070862 -0.563053
13  1.209179 0.000089 0.000010  -0.006361 -0.003766 -1.108939
14  3.859675 -0.138418 1.332380  -0.233465 0.555908 -0.361018
15  1.719448 -0.000018 0.000030  -0.029712 -0.005160 -0.393183
16  1.099674 0.000047 0.000004  0.001496 0.001854 -0.585255
17  0.770818 -0.901430 1.177681  -1.376690 -0.326462 -0.284702
18  1.789820 -0.000004 -0.000019  0.004875 0.031264 0.241172
19  1.207016 -0.000013 -0.000044  -0.003929 -0.002132 0.061202
20  5.740637 0.000388 -0.000700  -0.075422 0.000003 0.000064
21  11.481019 0.000309 -0.000737  -0.024025 -0.145661 0.020041
22  6.027524 -0.000329 0.000200  1.446909 -0.223958 1.725775
23  0.000001 11.692100 -0.000006  -0.679204 -0.202452 -0.559796
24  0.000003 0.000009 0.000001  -0.502477 -0.000030 1.570739
25  -0.000000 -0.000011 0.000001  0.868960 0.000002 1.570712
26  -6.617934 -9.178503 0.826812  1.473120 1.855075 -0.198639
27  6.027513 -0.000259 -0.000221  1.527156 0.747653 -0.705519
28  11.691991 0.000161 0.000856  0.141449 0.000071 -1.817398
29  11.479527 -0.000762 0.000942  -1.182707 0.365403 0.851495
30  3.859438 -0.132758 1.193065  0.469647 -0.013262 -1.872395
31  1.312559 0.000026 -0.000001  0.024060 -0.138696 -0.550187
32  0.729346 0.000064 -0.000028  -0.166197 -0.081570 -0.714272
33  3.942047 0.050139 0.431000  0.225309 -0.086237 -1.592712
34  1.539097 0.000005 -0.000002  0.035254 -0.050373 -0.994350
35  1.196300 0.000078 -0.000003  -0.021521 0.002175 -0.839738
36  3.883414 -0.050472 -0.431084  0.184824 -0.271737 -1.204030
37  1.719564 -0.000085 -0.000004  0.022859 -0.107186 -1.509108
38  1.209197 0.000035 0.000011  0.000661 0.071072 -0.480462
39  3.859589 -0.149082 -1.331321  -0.102227 -0.086901 -0.364641
40  1.719413 -0.000098 -0.000036  -0.011841 -0.001691 -1.223146
41  1.099674 0.000022 0.000008  -0.004800 -0.008300 -0.831293
42  0.805984 -0.359847 -1.318338  0.991670 0.166767 -0.799527
43  1.789780 -0.000008 -0.000042  0.000058 -0.002451 0.133097
44  1.206996 -0.000007 0.000006  0.000372 -0.000071 1.058781
45  5.740573 0.000079 0.000721  0.157645 -0.000014 0.000028
46  11.480850 -0.000078 0.000934  0.051523 0.076460 0.141400
47  6.027515 -0.000273 -0.000230  -0.900703 -0.520662 -1.715818
48  -0.000001 11.691975 -0.000006  -1.215895 0.660350 0.915247
49  0.000003 0.000000 0.000000  2.413977 -0.000036 1.570860
50  -0.000007 -0.000013 0.000004  2.272645 -0.000036 1.570861
51  -3.590541 -3.996439 -7.015110  -0.112763 -2.994866 1.475971
52  0.000000 -0.000000 -0.000000  0.008153 -0.000259 0.000009
53  0.000000 0.000000 -0.000000  1.565115 0.043565 -0.106862
54  -1.377172 -19.136868 -7.519260  -0.810035 0.164187 -1.823731
55  -0.000001 0.000000 -0.000000  0.000000 -0.000001 -0.000002
56  0.000030 0.000029 0.000001  -1.571901 -0.044449 -0.106509
57  10.688002 -19.544212 -21.357969  1.570796 -0.000000 0.000000
58  -15.417985 4.000748 -22.641926  1.570796 -0.000000 0.000000
59  1.941978 -0.787628 -8.860325  1.570796 -0.000000 0.000000
60  -0.004311 0.001229 -0.000371  0.006898 -0.005534 -0.284229
61  0.826810 10.209643 -4.879054  1.570796 -0.000000 0.000000
62  0.000000 0.000000 0.000000  -0.078727 -3.136056 0.284226
63  0.000000 0.000000 0.000000  1.570796 -0.000000 0.000000
64  -2.283619 -8.211121 -1.898425  1.572476 0.034391 0.005214
65  -3.590840 -19.563499 -4.728379  1.570804 -0.000000 0.000000
66  0.040179 -1.681048 3.706299  -0.000008 -0.000000 -0.000000
67  0.043600 -1.680997 11.516016  -0.000008 -0.000000 -0.000000
68  0.359774 -0.536898 2.504634  -0.000008 -0.000000 -0.000000
69  0.043602 -1.951604 -1.986989  -0.000008 -0.000000 -0.000000
70  -3.550662 -22.941486 -6.409432  1.570796 -0.000000 0.000000
71  -3.550661 -21.016615 -6.409430  1.570796 -0.000000 0.000000
time 12
0  0.000006 0.000000 0.000000  -1.570800 -1.391899 -1.570792
1  -8.577620 2.351119 1.937664  -1.544956 -1.855077 -0.198630
2  6.027524 -0.000327 0.000189  -0.204605 -1.315433 -1.927003
3  11.692113 0.000643 -0.000738  -1.371547 0.000002 -0.936919
4  11.480061 0.000663 -0.000423  1.302333 -0.810936 0.274106
5  3.859501 -0.142824 -1.192079  -0.760103 0.021941 -1.422041
6  1.312590 0.000010 0.000009  -0.088033 -0.103610 -0.687516
7  0.729356 0.000054 0.000049  0.007042 -0.014354 -0.158480
8  3.942137 0.046331 -0.431542  -0.733434 0.250301 -1.091874
9  1.539109 0.000082 0.000003  -0.032682 -0.059457 -0.638586
10  1.196332 0.000146 0.000029  0.005089 0.001946 -0.827450
11  3.883510 -0.047212 0.431352  -0.561335 0.485469 -0.728497
12  1.719572 -0.000028 0.000014  -0.058936 -0.070862 -0.563053
13  1.209179 0.000089 0.000010  -0.006361 -0.003766 -1.108939
14  3.859675 -0.138418 1.332380  -0.233465 0.555908 -0.361018
15  1.719448 -0.000018 0.000030  -0.029712 -0.005160 -0.393183
16  1.099674 0.000047 0.000004  0.001496 0.001854 -0.585255
17  0.770818 -0.901430 1.177681  -1.376690 -0.326462 -0.284702
18  1.789820 -0.000004 -0.000019  0.004875 0.031264 0.241172
19  1.207016 -0.000013 -0.000044  -0.003929 -0.002132 0.061202
20  5.740637 0.000388 -0.000700  -0.075422 0.000003 0.000064
21  11.481019 0.000309 -0.000737  -0.024025 -0.145661 0.020041
22  6.027524 -0.000329 0.000200  1.446909 -0.223958 1.725775
23  0.000001 11.692100 -0.000006  -0.679204 -0.202452 -0.559796
24  0.000003 0.000009 0.000001  -0.502477 -0.000030 1.570739
25  -0.000000 -0.000011 0.000001  0.868960 0.000002 1.570712
26  -6.617934 -9.178503 0.826812  1.473120 1.855075 -0.198639
27  6.027513 -0.000259 -0.000221  1.528178 0.750157 -0.705210
28  11.691992 0.000161 0.000856  0.141449 0.000071 -1.815506
29  11.479544 -0.000755 0.000941  -1.181551 0.365224 0.850931
30  3.859438 -0.132759 1.193065  0.469647 -0.013262 -1.872395
31  1.312559 0.000027 -0.000001  0.024060 -0.138696 -0.550187
32  0.729345 0.000064 -0.000028  -0.166197 -0.081570 -0.714272
33  3.942047 0.050139 0.431000  0.225309 -0.086237 -1.592712
34  1.539097 0.000005 -0.000001  0.035254 -0.050373 -0.994350
35  1.196299 0.000077 -0.000004  -0.021521 0.002175 -0.839738
36  3.883413 -0.050472 -0.431084  0.184824 -0.271737 -1.204030
37  1.719564 -0.000084 -0.000004  0.022859 -0.107186 -1.509108
38  1.209196 0.000035 0.000011  0.000661 0.071072 -0.480462
39  3.859588 -0.149082 -1.331320  -0.102421 -0.086914 -0.363279
40  1.719411 -0.000098 -0.000036  -0.011834 -0.001774 -1.225028
41  1.099674 0.000024 0.000008  -0.004868 -0.008257 -0.823665
42  0.805984 -0.359848 -1.318338  0.991670 0.166767 -0.799527
43  1.789780 -0.000008 -0.000042  0.000058 -0.002451 0.133097
44  1.206997 -0.000006 0.000005  0.000372 -0.000071 1.058780
45  5.740573 0.000078 0.000721  0.158099 -0.000014 0.000028
46  11.480853 -0.000078 0.000934  0.051766 0.076494 0.141242
47  6.027515 -0.000273 -0.000230  -0.902688 -0.518697 -1.715218
48  -0.000002 11.691974 -0.000006  -1.214780 0.659205 0.914709
49  0.000004 -0.000000 0.000000  2.413977 -0.000036 1.570860
50  -0.000006 -0.000013 0.000005  2.272645 -0.000036 1.570861
51  -3.585965 -4.014138 -6.990413  -0.111046 -2.993576 1.475962
52  0.000000 0.000000 0.000000  0.008153 -0.000259 0.000009
53  -0.000000 -0.000000 0.000000  1.565115 0.043565 -0.106862
54  -1.377172 -19.136868 -7.519260  -0.810035 0.164187 -1.823731
55  -0.000001 0.000000 -0.000000  0.000000 -0.000001 -0.000002
56  0.000030 0.000029 0.000001  -1.571901 -0.044449 -0.106509
57  10.688002 -19.544212 -21.357969  1.570796 -0.000000 0.000000
58  -15.417985 4.000748 -22.641926  1.570796 -0.000000 0.000000
59  1.941978 -0.787628 -8.860325  1.570796 -0.000000 0.000000
60  -0.004311 0.001229 -0.000371  0.006898 -0.005534 -0.284229
61  0.826810 10.209643 -4.879054  1.570796 -0.000000 0.000000
62  0.000000 0.000000 0.000000  -0.078727 -3.136056 0.284226
63  0.000000 0.000000 0.000000  1.570796 -0.000000 0.000000
64  -2.286052 -8.221100 -1.865597  1.571021 0.032830 0.005408
65  -3.590840 -19.563499 -4.728379  1.570804 -0.000000 0.000000
66  0.040179 -1.681048 3.706299  -0.000008 -0.000000 -0.000000
67  0.043600 -1.680997 11.516016  -0.000008 -0.000000 -0.000000
68  0.359774 -0.536898 2.504634  -0.000008 -0.000000 -0.000000
69  0.043602 -1.951604 -1.986989  -0.000008 -0.000000 -0.000000
70  -3.550662 -22.941486 -6.409432  1.570796 -0.000000 0.000000
71  -3.550661 -21.016615 -6.409430  1.570796 -0.000000 0.000000
time 13
0  0.000006 0.000000 0.000000  -1.570800 -1.391899 -1.570792
1  -8.577620 2.351119 1.937664  -1.544956 -1.855077 -0.198630
2  6.027524 -0.000327 0.000189  -0.204605 -1.315433 -1.927003
3  11.692113 0.000643 -0.000738  -1.371547 0.000002 -0.936919
4  11.480061 0.000663 -0.000423  1.302333 -0.810936 0.274106
5  3.859501 -0.142824 -1.192079  -0.760103 0.021941 -1.422041
6  1.312590 0.000010 0.000009  -0.088033 -0.103610 -0.687516
7  0.729356 0.000054 0.000049  0.007042 -0.014354 -0.158480
8  3.942137 0.046331 -0.431542  -0.733434 0.250301 -1.091874
9  1.539109 0.000082 0.000003  -0.032682 -0.059457 -0.638586
10  1.196332 0.000146 0.000029  0.005089 0.001946 -0.827450
11  3.883510 -0.047212 0.431352  -0.561335 0.485469 -0.728497
12  1.719572 -0.000028 0.000014  -0.058936 -0.070862 -0.563053
13  1.209179 0.000089 0.000010  -0.006361 -0.003766 -1.108939
14  3.859675 -0.138418 1.332380  -0.233465 0.555908 -0.361018
15  1.719448 -0.000018 0.000030  -0.029712 -0.005160 -0.393183
16  1.099674 0.000047 0.000004  0.001496 0.001854 -0.585255
17  0.770818 -0.901430 1.177681  -1.376690 -0.326462 -0.284702
18  1.789820 -0.000004 -0.000019  0.004875 0.031264 0.241172
19  1.207016 -0.000013 -0.000044  -0.003929 -0.002132 0.061202
20  5.740637 0.000388 -0.000700  -0.075422 0.000003 0.000064
21  11.481019 0.000309 -0.000737  -0.024025 -0.145661 0.020041
22  6.027524 -0.000329 0.000200  1.446909 -0.223958 1.725775
23  0.000001 11.692100 -0.000006  -0.679204 -0.202452 -0.559796
24  0.000003 0.000009 0.000001  -0.502477 -0.000030 1.570739
25  -0.000000 -0.000011 0.000001  0.868960 0.000002 1.570712
26  -6.617934 -9.178503 0.826812  1.473120 1.855075 -0.198639
27  6.027513 -0.000259 -0.000221  1.530116 0.751421 -0.704469
28  11.691992 0.000160 0.000858  0.141449 0.000071 -1.813157
29  11.479563 -0.000741 0.000937  -1.184232 0.363369 0.848515
30  3.859437 -0.132758 1.193065  0.469647 -0.013262 -1.872395
31  1.312559 0.000025 -0.000001  0.024060 -0.138696 -0.550187
32  0.729345 0.000065 -0.000028  -0.166197 -0.081570 -0.714272
33  3.942046 0.050139 0.431000  0.225309 -0.086237 -1.592712
34  1.539097 0.000005 -0.000001  0.035254 -0.050373 -0.994350
35  1.196300 0.000077 -0.000004  -0.021521 0.002175 -0.839738
36  3.883413 -0.050472 -0.431084  0.184824 -0.271737 -1.204030
37  1.719563 -0.000085 -0.000004  0.022859 -0.107186 -1.509108
38  1.209198 0.000035 0.000012  0.000661 0.071072 -0.480462
39  3.859587 -0.149082 -1.331321  -0.102928 -0.086946 -0.359716
40  1.719413 -0.000098 -0.000036  -0.011815 -0.001992 -1.229949
41  1.099673 0.000023 0.000008  -0.005000 -0.008168 -0.805706
42  0.805983 -0.359848 -1.318338  0.991670 0.166767 -0.799527
43  1.789780 -0.000008 -0.000042  0.000058 -0.002451 0.133098
44  1.206996 -0.000006 0.000006  0.000372 -0.000071 1.058780
45  5.740573 0.000079 0.000720  0.157397 -0.000014 0.000028
46  11.480856 -0.000075 0.000932  0.051495 0.075903 0.140974
47  6.027515 -0.000273 -0.000230  -0.903054 -0.516825 -1.715618
48  -0.000001 11.691976 -0.000006  -1.213395 0.657784 0.914039
49  0.000003 -0.000001 0.000000  2.413977 -0.000036 1.570860
50  -0.000007 -0.000014 0.000005  2.272645 -0.000036 1.570861
51  -3.600516 -4.037472 -6.977852  -0.112907 -2.992598 1.476773
52  0.000000 0.000000 -0.000001  0.008153 -0.000259 0.000009
53  -0.000000 -0.000000 0.000000  1.565115 0.043565 -0.106862
54  -1.377172 -19.136868 -7.519260  -0.810035 0.164187 -1.823731
55  -0.000001 0.000000 -0.000000  0.000000 -0.000001 -0.000002
56  0.000030 0.000029 0.000001  -1.571901 -0.044449 -0.106509
57  10.688002 -19.544212 -21.357969  1.570796 -0.000000 0.000000
58  -15.417985 4.000748 -22.641926  1.570796 -0.000000 0.000000
59  1.941978 -0.787628 -8.860325  1.570796 -0.000000 0.000000
60  -0.004311 0.001229 -0.000371  0.006898 -0.005534 -0.284229
61  0.826810 10.209643 -4.879054  1.570796 -0.000000 0.000000
62  0.000000 0.000000 0.000000  -0.078727 -3.136056 0.284226
63  0.000000 0.000000 0.000000  1.570796 -0.000000 0.000000
64  -2.288485 -8.239635 -1.852186  1.570232 0.034759 0.005917
65  -3.590840 -19.563499 -4.728379  1.570804 -0.000000 0.000000
66  0.040179 -1.681048 3.706299  -0.000008 -0.000000 -0.000000
67  0.043600 -1.680997 11.516016  -0.000008 -0.000000 -0.000000
68  0.359774 -0.536898 2.504634  -0.000008 -0.000000 -0.000000
69  0.043602 -1.951604 -1.986989  -0.000008 -0.000000 -0.000000
70  -3.550662 -22.941486 -6.409432  1.570796 -0.000000 0.000000
71  -3.550661 -21.016615 -6.409430  1.570796 -0.000000 0.000000
time 14
0  0.000006 0.000000 0.000000  -1.570800 -1.391899 -1.570792
1  -8.577620 2.351119 1.937664  -1.544956 -1.855077 -0.198630
2  6.027524 -0.000327 0.000189  -0.204605 -1.315433 -1.927003
3  11.692113 0.000643 -0.000738  -1.371547 0.000002 -0.936919
4  11.480061 0.000663 -0.000423  1.302333 -0.810936 0.274106
5  3.859501 -0.142824 -1.192079  -0.760103 0.021941 -1.422041
6  1.312590 0.000010 0.000009  -0.088033 -0.103610 -0.687516
7  0.729356 0.000054 0.000049  0.007042 -0.014354 -0.158480
8  3.942137 0.046331 -0.431542  -0.733434 0.250301 -1.091874
9  1.539109 0.000082 0.000003  -0.032682 -0.059457 -0.638586
10  1.196332 0.000146 0.000029  0.005089 0.001946 -0.827450
11  3.883510 -0.047212 0.431352  -0.561335 0.485469 -0.728497
12  1.719572 -0.000028 0.000014  -0.058936 -0.070862 -0.563053
13  1.209179 0.000089 0.000010  -0.006361 -0.003766 -1.108939
14  3.859675 -0.138418 1.332380  -0.233465 0.555908 -0.361018
15  1.719448 -0.000018 0.000030  -0.029712 -0.005160 -0.393183
16  1.099674 0.000047 0.000004  0.001496 0.001854 -0.585255
17  0.770818 -0.901430 1.177681  -1.376690 -0.326462 -0.284702
18  1.789820 -0.000004 -0.000019  0.004875 0.031264 0.241172
19  1.207016 -0.000013 -0.000044  -0.003929 -0.002132 0.061202
20  5.740637 0.000388 -0.000700  -0.075422 0.000003 0.000064
21  11.481019 0.000309 -0.000737  -0.024025 -0.145661 0.020041
22  6.027524 -0.000329 0.000200  1.446909 -0.223958 1.725775
23  0.000001 11.692100 -0.000006  -0.679204 -0.202452 -0.559796
24  0.000003 0.000009 0.000001  -0.502477 -0.000030 1.570739
25  -0.000000 -0.000011 0.000001  0.868960 0.000002 1.570712
26  -6.617934 -9.178503 0.826812  1.473120 1.855075 -0.198639
27  6.027513 -0.000259 -0.000221  1.532207 0.751218 -0.703604
28  11.691991 0.000160 0.000856  0.141449 0.000071 -1.812469
29  11.479571 -0.000737 0.000938  -1.188868 0.360811 0.847117
30  3.859437 -0.132758 1.193065  0.469647 -0.013262 -1.872395
31  1.312559 0.000026 -0.000001  0.024060 -0.138696 -0.550187
32  0.729346 0.000065 -0.000028  -0.166197 -0.081570 -0.714273
33  3.942047 0.050139 0.431001  0.225309 -0.086237 -1.592712
34  1.539097 0.000005 -0.000001  0.035254 -0.050373 -0.994350
35  1.196301 0.000077 -0.000003  -0.021521 0.002175 -0.839738
36  3.883413 -0.050472 -0.431084  0.184824 -0.271737 -1.204030
37  1.719564 -0.000085 -0.000005  0.022858 -0.107186 -1.509108
38  1.209197 0.000035 0.000011  0.000661 0.071072 -0.480462
39  3.859588 -0.149082 -1.331320  -0.103436 -0.086976 -0.356153
40  1.719411 -0.000098 -0.000036  -0.011794 -0.002209 -1.234871
41  1.099674 0.000024 0.000008  -0.005122 -0.008083 -0.788129
42  0.805983 -0.359848 -1.318338  0.991670 0.166767 -0.799527
43  1.789780 -0.000008 -0.000042  0.000058 -0.002451 0.133097
44  1.206997 -0.000007 0.000005  0.000372 -0.000071 1.058780
45  5.740574 0.000079 0.000720  0.156369 -0.000014 0.000028
46  11.480860 -0.000074 0.000933  0.050893 0.075071 0.141026
47  6.027515 -0.000273 -0.000230  -0.901925 -0.515637 -1.716738
48  -0.000002 11.691974 -0.000006  -1.212990 0.657368 0.913843
49  0.000002 -0.000001 0.000000  2.413977 -0.000036 1.570860
50  -0.000008 -0.000014 0.000004  2.272645 -0.000036 1.570861
51  -3.622723 -4.046049 -6.971980  -0.117054 -2.992595 1.477799
52  0.000000 -0.000000 -0.000000  0.008153 -0.000259 0.000009
53  0.000000 0.000000 0.000001  1.565115 0.043565 -0.106862
54  -1.377172 -19.136868 -7.519260  -0.810035 0.164187 -1.823731
55  -0.000001 0.000000 -0.000000  0.000000 -0.000001 -0.000002
56  0.000030 0.000029 0.000001  -1.571901 -0.044449 -0.106509
57  10.688002 -19.544212 -21.357969  1.570796 -0.000000 0.000000
58  -15.417985 4.000748 -22.641926  1.570796 -0.000000 0.000000
59  1.941978 -0.787628 -8.860325  1.570796 -0.000000 0.000000
60  -0.004311 0.001229 -0.000371  0.006898 -0.005534 -0.284229
61  0.826810 10.209643 -4.879054  1.570796 -0.000000 0.000000
62  0.000000 0.000000 0.000000  -0.078727 -3.136056 0.284226
63  0.000000 0.000000 0.000000  1.570796 -0.000000 0.000000
64  -2.288054 -8.249615 -1.853314  1.570637 0.038840 0.006343
65  -3.590840 -19.563499 -4.728379  1.570804 -0.000000 0.000000
66  0.040179 -1.681048 3.706299  -0.000008 -0.000000 -0.000000
67  0.043600 -1.680997 11.516016  -0.000008 -0.000000 -0.000000
68  0.359774 -0.536898 2.504634  -0.000008 -0.000000 -0.000000
69  0.043602 -1.951604 -1.986989  -0.000008 -0.000000 -0.000000
70  -3.550662 -22.941486 -6.409432  1.570796 -0.000000 0.000000
71  -3.550661 -21.016615 -6.409430  1.570796 -0.000000 0.000000
time 15
0  0.000006 0.000000 0.000000  -1.570800 -1.391899 -1.570792
1  -8.577620 2.351119 1.937664  -1.544956 -1.855077 -0.198630
2  6.027524 -0.000327 0.000189  -0.204605 -1.315433 -1.927003
3  11.692113 0.000643 -0.000738  -1.371547 0.000002 -0.936919
4  11.480061 0.000663 -0.000423  1.302333 -0.810936 0.274106
5  3.859501 -0.142824 -1.192079  -0.760103 0.021941 -1.422041
6  1.312590 0.000010 0.000009  -0.088033 -0.103610 -0.687516
7  0.729356 0.000054 0.000049  0.007042 -0.014354 -0.158480
8  3.942137 0.046331 -0.431542  -0.733434 0.250301 -1.091874
9  1.539109 0.000082 0.000003  -0.032682 -0.059457 -0.638586
10  1.196332 0.000146 0.000029  0.005089 0.001946 -0.827450
11  3.883510 -0.047212 0.431352  -0.561335 0.485469 -0.728497
12  1.719572 -0.000028 0.000014  -0.058936 -0.070862 -0.563053
13  1.209179 0.000089 0.000010  -0.006361 -0.003766 -1.108939
14  3.859675 -0.138418 1.332380  -0.233465 0.555908 -0.361018
15  1.719448 -0.000018 0.000030  -0.029712 -0.005160 -0.393183
16  1.099674 0.000047 0.000004  0.001496 0.001854 -0.585255
17  0.770818 -0.901430 1.177681  -1.376690 -0.326462 -0.284702
18  1.789820 -0.000004 -0.000019  0.004875 0.031264 0.241172
19  1.207016 -0.000013 -0.000044  -0.003929 -0.002132 0.061202
20  5.740637 0.000388 -0.000700  -0.075422 0.000003 0.000064
21  11.481019 0.000309 -0.000737  -0.024025 -0.145661 0.020041
22  6.027524 -0.000329 0.000200  1.446909 -0.223958 1.725775
23  0.000001 11.692100 -0.000006  -0.679204 -0.202452 -0.559796
24  0.000003 0.000009 0.000001  -0.502477 -0.000030 1.570739
25  -0.000000 -0.000011 0.000001  0.868960 0.000002 1.570712
26  -6.617934 -9.178503 0.826812  1.473120 1.855075 -0.198639
27  6.027513 -0.000259 -0.000221  1.533439 0.750767 -0.703083
28  11.691989 0.000160 0.000857  0.141449 0.000071 -1.812841
29  11.479566 -0.000738 0.000937  -1.191613 0.359279 0.846972
30  3.859438 -0.132759 1.193066  0.469647 -0.013262 -1.872395
31  1.312559 0.000025 -0.000002  0.024060 -0.138696 -0.550187
32  0.729344 0.000065 -0.000027  -0.166197 -0.081570 -0.714272
33  3.942047 0.050139 0.431001  0.225309 -0.086237 -1.592712
34  1.539097 0.000004 -0.000001  0.035254 -0.050373 -0.994350
35  1.196301 0.000078 -0.000003  -0.021521 0.002175 -0.839738
36  3.883414 -0.050472 -0.431084  0.184824 -0.271737 -1.204030
37  1.719563 -0.000085 -0.000005  0.022859 -0.107186 -1.509108
38  1.209197 0.000035 0.000011  0.000661 0.071072 -0.480462
39  3.859589 -0.149082 -1.331320  -0.103630 -0.086987 -0.354791
40  1.719414 -0.000098 -0.000036  -0.011786 -0.002292 -1.236752
41  1.099674 0.000022 0.000007  -0.005167 -0.008051 -0.781464
42  0.805984 -0.359847 -1.318337  0.991670 0.166767 -0.799527
43  1.789780 -0.000008 -0.000042  0.000058 -0.002451 0.133097
44  1.206996 -0.000007 0.000006  0.000372 -0.000071 1.058780
45  5.740572 0.000079 0.000720  0.155877 -0.000014 0.000028
46  11.480857 -0.000073 0.000932  0.050519 0.074591 0.141190
47  6.027515 -0.000273 -0.000230  -0.900937 -0.515111 -1.717544
48  -0.000002 11.691973 -0.000005  -1.213209 0.657592 0.913949
49  0.000003 -0.000001 0.000000  2.413977 -0.000036 1.570860
50  -0.000007 -0.000014 0.000005  2.272645 -0.000036 1.570861
51  -3.636001 -4.044003 -6.967830  -0.119636 -2.992809 1.478372
52  0.000000 -0.000000 0.000000  0.008153 -0.000259 0.000009
53  0.000000 0.000000 0.000001  1.565115 0.043565 -0.106862
54  -1.377172 -19.136868 -7.519260  -0.810035 0.164187 -1.823731
55  -0.000001 0.000000 -0.000000  0.000000 -0.000001 -0.000002
56  0.000030 0.000029 0.000001  -1.571901 -0.044449 -0.106509
57  10.688002 -19.544212 -21.357969  1.570796 -0.000000 0.000000
58  -15.417985 4.000748 -22.641926  1.570796 -0.000000 0.000000
59  1.941978 -0.787628 -8.860325  1.570796 -0.000000 0.000000
60  -0.004311 0.001229 -0.000371  0.006898 -0.005534 -0.284229
61  0.826810 10.209643 -4.879054  1.570796 -0.000000 0.000000
62  0.000000 0.000000 0.000000  -0.078727 -3.136056 0.284226
63  0.000000 0.000000 0.000000  1.570796 -0.000000 0.000000
64  -2.287624 -8.249615 -1.854442  1.571103 0.041360 0.006551
65  -3.590840 -19.563499 -4.728379  1.570804 -0.000000 0.000000
66  0.040179 -1.681048 3.706299  -0.000008 -0.000000 -0.000000
67  0.043600 -1.680997 11.516016  -0.000008 -0.000000 -0.000000
68  0.359774 -0.536898 2.504634  -0.000008 -0.000000 -0.000000
69  0.043602 -1.951604 -1.986989  -0.000008 -0.000000 -0.000000
70  -3.550662 -22.941486 -6.409432  1.570796 -0.000000 0.000000
71  -3.550661 -21.016615 -6.409430  1.570796 -0.000000 0.000000
end
